<?xml version="1.0" encoding="UTF-8" standalone="no"?>
<svg
   xmlns:dc="http://purl.org/dc/elements/1.1/"
   xmlns:cc="http://creativecommons.org/ns#"
   xmlns:rdf="http://www.w3.org/1999/02/22-rdf-syntax-ns#"
   xmlns:svg="http://www.w3.org/2000/svg"
   xmlns="http://www.w3.org/2000/svg"
   viewBox="0 0 760 608"
   height="608"
   width="760"
   id="svg141"
   version="1.1">
  <metadata
     id="metadata147">
    <rdf:RDF>
      <cc:Work
         rdf:about="">
        <dc:format>image/svg+xml</dc:format>
        <dc:type
           rdf:resource="http://purl.org/dc/dcmitype/StillImage" />
        <dc:title></dc:title>
      </cc:Work>
    </rdf:RDF>
  </metadata>
  <defs
     id="defs145" />
  <path
     id="path151"
     d="m 153.25547,456.06903 c -5.44244,-1.65146 -9.515,-4.12512 -15.68112,-9.5247 l -5.75899,-5.04305 -14.24101,0.24936 c -12.01216,0.21033 -15.19068,-0.19005 -20.308757,-2.55819 C 85.467103,433.73331 76.660301,423.03469 74.058341,411 l -0.936889,-4.33333 H 51.146905 29.172359 l 0.413821,-5 0.41382,-5 22.240431,-0.36515 22.240432,-0.36516 1.496904,-4.53567 c 3.938998,-11.93528 16.017934,-21.59684 31.523973,-25.21502 l 7.83159,-1.82744 -6.07995,-0.95918 c -11.11734,-1.75388 -48.368572,3.01854 -71.586713,9.17127 -6.118083,1.62128 -7,1.60731 -7,-0.11093 0,-3.59706 13.250401,-14.94027 23.028617,-19.71402 17.476775,-8.5322 22.049356,-9.28596 57.638046,-9.5013 25.86136,-0.1565 32.89522,-0.59426 36.66667,-2.282 l 4.66667,-2.08836 -4,-1.56675 C 116.45912,324.69177 78.664932,319.13984 33.527255,320.39309 c -30.8798367,0.85739 -30.7831778,0.99458 -6.193922,-8.79041 19.865532,-7.90523 36.470642,-10.66043 59.333334,-9.84485 28.481843,1.01601 52.022603,7.51846 82.336623,22.74308 l 12.33004,6.19252 v -3.83358 c 0,-2.10845 -1.2304,-5.39776 -2.73421,-7.30954 -5.53995,-7.04291 -42.19131,-25.52272 -67.72259,-34.1461 -13.763523,-4.64872 -40.179361,-11.28617 -50.541707,-12.6995 -6.513312,-0.88836 -9.591906,-2.55874 -7.876838,-4.2738 1.366276,-1.36628 17.540722,-4.24372 28.875348,-5.13694 13.396074,-1.05566 28.876087,0.84075 45.133087,5.52912 12.78107,3.68596 35.43559,14.02132 44.68915,20.38794 6.69254,4.60458 9.5044,5.13357 10.70178,2.01325 2.25717,-5.88209 -0.47584,-14.13587 -8.92978,-26.96813 -24.25618,-36.81858 -40.06005,-88.61819 -31.81449,-104.27695 3.82155,-7.25733 9.30489,-9.30833 24.88692,-9.30873 21.9358,-5.8e-4 53.19305,8.97313 84.02379,24.12253 8.81308,4.33052 16.82292,7.87367 17.79964,7.87367 0.97673,0 8.46602,-2.66762 16.64288,-5.92803 35.59276,-14.19213 53.66148,-17.40773 97.53369,-17.35761 29.40672,0.0336 34.98251,0.39066 47.33333,3.03116 15.08686,3.22544 38.9394,10.67138 50.49924,15.76416 11.06336,4.87404 14.87362,4.28128 35.0178,-5.44767 30.2671,-14.61796 57.36368,-22.02908 80.61912,-22.04993 11.82963,-0.0107 14.02106,0.35877 18,3.03409 10.07852,6.77647 10.39143,23.77233 0.97492,52.95383 -5.34412,16.56126 -19.20793,45.50929 -28.44125,59.38612 -6.6242,9.95556 -7.33649,11.72452 -7.33649,18.21997 0,10.70324 1.38453,11.16952 12.26545,4.13069 26.2656,-16.99113 60.54515,-26.90778 87.27899,-25.24874 18.5852,1.15334 37.62321,6.10517 30.8734,8.03022 -0.96315,0.2747 -10.1378,2.08936 -20.38811,4.0326 -26.36664,4.99854 -51.84224,13.8348 -78.46913,27.21716 -23.93852,12.03123 -31.5606,17.66091 -31.5606,23.31072 0,5.14888 1.86154,5.37311 8.68454,1.0461 15.5491,-9.86094 43.74887,-19.76755 67.2996,-23.64243 17.07046,-2.80864 48.4243,-1.81231 62.91643,1.99932 17.31808,4.55488 38.07057,14.32489 35.62409,16.77139 -0.42286,0.42285 -6.41389,0.17428 -13.31341,-0.55238 -27.59429,-2.90624 -64.25425,-0.80032 -92.18433,5.29551 C 632.74788,329.92487 608,337.4092 608,338.66719 c 0,0.50089 2.55,1.72705 5.66667,2.72481 4.19916,1.34429 12.78209,1.71955 33.14236,1.44903 24.01726,-0.31912 28.94518,-0.016 39.15028,2.40764 14.84144,3.52484 30.27606,11.52465 38.66208,20.0387 8.4944,8.62407 6.62052,9.36948 -12.24576,4.87131 -18.85923,-4.49648 -29.3304,-5.94583 -50.70896,-7.01877 C 649.79465,362.54407 644,362.70647 644,363.635 c 0,0.75997 2.78064,2.08193 6.17919,2.93769 3.39856,0.85578 8.6218,2.80207 11.60721,4.32511 6.94205,3.54157 20.14083,16.09809 22.23443,21.15249 l 1.61104,3.88939 23.5174,0.36349 23.5174,0.3635 0.41382,5 0.41382,5 h -22.789 c -17.04419,0 -22.92992,0.42014 -23.34799,1.66666 -0.30745,0.91667 -1.18845,4.13018 -1.95779,7.14112 -2.2999,9.00111 -9.51074,17.09048 -19.70568,22.10652 C 657.24793,441.73648 655.87433,442 642.65973,442 h -14.05261 l -6.66523,5.6182 c -8.36594,7.05176 -15.84298,9.7232 -27.10953,9.68585 -10.96233,-0.0364 -17.51289,-2.84342 -25.87671,-11.08884 -3.43234,-3.38374 -7.6015,-6.4048 -9.2648,-6.71344 -1.6633,-0.30865 -7.52113,-1.2461 -13.01738,-2.08322 -18.34234,-2.7937 -31.30016,-11.14066 -36.87944,-23.7564 l -3.0997,-7.00895 -126.91796,0.34007 -126.91796,0.34006 -0.91518,3.42222 c -3.88316,14.52058 -20.96255,25.4147 -43.06462,27.46886 -8.96874,0.83356 -9.57792,1.12416 -17.60402,8.39774 -4.80072,4.35061 -10.55411,8.2055 -13.61555,9.12274 -5.86412,1.75694 -19.10228,1.93276 -24.40357,0.32414 z m 252.55914,-64.04004 c -2.16776,-4.34538 -6.36212,-5.96968 -19.32116,-7.48231 -8.40246,-0.98077 -24.31433,1.30629 -28.64882,4.11779 -1.55212,1.00674 -3.14595,3.0691 -3.54184,4.583 -0.70986,2.71449 -0.34524,2.75253 26.3865,2.75253 h 27.10632 z m -80.58093,-24.22527 c 11.08056,-5.43343 19.24869,-13.71332 24.53379,-24.86944 3.84312,-8.11228 4.2294,-10.09968 4.19844,-21.60095 -0.0308,-11.45792 -0.43579,-13.4937 -4.24359,-21.33333 -7.72128,-15.8968 -21.46011,-26.37736 -38.80655,-29.60327 -26.75374,-4.97537 -53.4566,14.31582 -58.97141,42.60327 -3.82864,19.6384 6.80407,42.42752 24.75463,53.05672 14.26393,8.4462 33.46346,9.13729 48.53469,1.747 z m -24.96651,-3.61039 c -7.05468,-4.47489 -7.46252,-43.19118 -0.53928,-51.19333 2.47922,-2.86556 3.5038,-2.91116 6.14164,-0.27333 3.29198,3.29197 4.82608,11.36281 4.91076,25.83529 0.0824,14.07461 -1.6117,22.28131 -5.18225,25.10471 -2.4616,1.94649 -3.00749,2.00042 -5.33087,0.52666 z m 178.85424,4.10156 c 20.39156,-9.54236 31.34924,-28.03748 29.90883,-50.48217 -1.81705,-28.31345 -28.26111,-50.83193 -56.34309,-47.97907 -11.06643,1.12426 -25.58907,8.41896 -32.58604,16.36795 -18.60382,21.13504 -18.56347,50.28135 0.0976,70.52624 14.88165,16.14469 39.01602,20.88249 58.92266,11.56705 z M 454.35688,363 c -2.73924,-3.10808 -5.02355,-14.47611 -5.02355,-25 0,-17.12872 4.80352,-29.13787 10.44678,-26.11768 7.88098,4.21777 8.93209,43.40548 1.36714,50.97043 -3.07724,3.07724 -4.1869,3.10129 -6.79037,0.14725 z"
     style="fill:#000000;stroke-width:1.33333337" />
</svg>
