<?xml version="1.0" encoding="UTF-8" standalone="no"?>
<!-- Created with Inkscape (http://www.inkscape.org/) -->

<svg
   xmlns:dc="http://purl.org/dc/elements/1.1/"
   xmlns:cc="http://creativecommons.org/ns#"
   xmlns:rdf="http://www.w3.org/1999/02/22-rdf-syntax-ns#"
   xmlns:svg="http://www.w3.org/2000/svg"
   xmlns="http://www.w3.org/2000/svg"
   xmlns:sodipodi="http://sodipodi.sourceforge.net/DTD/sodipodi-0.dtd"
   xmlns:inkscape="http://www.inkscape.org/namespaces/inkscape"
   version="1.1"
   id="svg45"
   width="1220"
   height="759"
   viewBox="0 0 1220 759"
   sodipodi:docname="onewheel_p.svg"
   inkscape:version="0.92.3 (2405546, 2018-03-11)">
  <metadata
     id="metadata51">
    <rdf:RDF>
      <cc:Work
         rdf:about="">
        <dc:format>image/svg+xml</dc:format>
        <dc:type
           rdf:resource="http://purl.org/dc/dcmitype/StillImage" />
        <dc:title></dc:title>
      </cc:Work>
    </rdf:RDF>
  </metadata>
  <defs
     id="defs49" />
  <sodipodi:namedview
     pagecolor="#ffffff"
     bordercolor="#666666"
     borderopacity="1"
     objecttolerance="10"
     gridtolerance="10"
     guidetolerance="10"
     inkscape:pageopacity="0"
     inkscape:pageshadow="2"
     inkscape:window-width="1853"
     inkscape:window-height="1025"
     id="namedview47"
     showgrid="false"
     inkscape:zoom="0.20270394"
     inkscape:cx="1062.385"
     inkscape:cy="-434.03039"
     inkscape:window-x="67"
     inkscape:window-y="27"
     inkscape:window-maximized="1"
     inkscape:current-layer="svg45" />
  <path
     style="fill:#000000"
     d="m 148.86713,1047.6441 c -14.16667,35.3869 -44.90502,69.6433 -106.062098,53.8758 -54.425576,-14.032 -100.283183,-40.4072 -93.866606,-91.465 7.629208,-60.70695 63.449468,-249.10036 63.449468,-250.43907 0,-0.46307 72.820486,-55.94624 92.482986,-66.39164 19.6625,-10.44541 67.25,-35.76001 105.75,-56.25467 118.8302,-63.2567 174.0124,-92.62027 255.5,-135.95668 43.175,-22.96115 124.4,-66.16363 180.5,-96.00553 56.1,-29.84189 137.325,-73.04277 180.5,-96.00194 43.175,-22.95918 89.3,-47.48729 102.5,-54.50692 13.2,-7.01964 51.225,-27.26992 84.50002,-45.00064 C 1171.1048,125.84835 1216.0994,102 1216.9367,102 c 1.396,0 7.8576,14.84281 10.6372,24.4344 4.7534,16.40304 5.9184,25.63452 5.9399,47.0656 0.03,30.11135 -3.3955,49.24704 -17.0074,95 -3.5998,12.1 -9.6312,32.35 -13.403,45 -3.7718,12.65 -13.1416,44.15 -20.8219,70 -46.8494,157.68457 -46.4977,156.54307 -52.7779,171.26726 -13.8804,32.54274 -33.6102,61.21376 -62.3454,90.59898 -24.2417,24.79022 -45.6065,42.6268 -72.03732,60.14102 -34.4317,22.81598 -72.3629,40.40866 -104,48.23568 -9.3298,2.30821 -13.286,2.6705 -35.5,3.25098 -13.75,0.35931 -157.075,0.73223 -318.5,0.82872 -161.425,0.0965 -290.52926,0.67778 -305.92926,0.9149 m 588.50566,-196.8324 c 34.1417,-3.42197 69.3579,-19.86501 89.7743,-41.91722 10.4839,-11.32387 19.0479,-24.98192 26.3277,-41.98792 4.2646,-9.96223 6.8848,-18.05955 17.7978,-55 3.6558,-12.375 8.3942,-28.35 10.5297,-35.5 16.1835,-54.18392 27.4053,-92.359 28.2934,-96.25 0.2824,-1.2375 0.1475,-2.25 -0.2999,-2.25 -0.4474,0 -12.8927,8.45728 -27.6564,18.79395 -14.7636,10.33667 -43.943,30.73895 -64.843,45.33838 -20.9,14.59944 -74.9,52.33957 -120,83.86695 -45.1,31.52738 -103.6,72.39212 -130,90.81055 -26.4,18.41842 -48.4275,33.87102 -48.95,34.3391 -1.4546,1.30315 205.8949,1.07235 219.0264,-0.24379 z M 38.423822,668.84458 c 19.913195,-74.49122 39.539492,-158.66233 59.10883,-226.57249 10.795098,-36.3 18.957388,-74.1 21.906988,-84 2.9496,-9.9 9.0295,-30.375 13.5109,-45.5 17.4839,-59.00935 19.4058,-64.51992 29.6459,-85 15.818,-31.63567 37.6084,-60.38839 68.9718,-91.00915 50.5672,-49.369949 115.0288,-86.739489 171.8358,-99.616319 9.9211,-2.2489 14.3681,-2.59307 43.5494,-3.3705 17.875,-0.47622 174.47499,-0.91314 347.99999,-0.97093 277.09427,-0.0923 316.51687,0.0784 323.85387,1.40245 19.0224,3.43274 37.1942,9.6436 58.6461,20.04443 12.5665,6.09279 29.0128,16.45269 27.8092,17.5176 -0.4451,0.39375 -26.6842,14.45116 -58.3092,31.238699 -31.625,16.78753 -91.8693,48.81448 -133.8761,71.17092 l -76.37607,40.64813 -216.1239,0.48453 c -118.8681,0.26649 -220.05409,0.69861 -224.85769,0.96028 -47.4589,2.58521 -104.1794,38.71471 -133.1014,84.78215 -3.032,4.82946 -6.6764,11.80413 -8.0986,15.49927 -3.874,10.06564 -47.2217,156.82678 -49.7844,168.55385 -5.17738,23.97267 -11.89167,45.31452 -17.89011,67.71896 l -2.32912,8.41142 c -2.2778,1.29734 -25.66257,14.33378 -74.06257,40.04797 -48.4,25.71419 -98.575,52.37371 -111.500002,59.24338 -12.925,6.86967 -25.8224,13.79474 -28.6609,15.38905 l -19.960909,0.43209 z"
     id="path55"
     inkscape:connector-curvature="0"
     sodipodi:nodetypes="cssssssssssscccscccscsscscccccscssscsccsscccsscscsscsccccccssccc" />
</svg>
