<?xml version="1.0" encoding="UTF-8" standalone="no"?>
<!-- Created with Inkscape (http://www.inkscape.org/) -->

<svg
   xmlns:dc="http://purl.org/dc/elements/1.1/"
   xmlns:cc="http://creativecommons.org/ns#"
   xmlns:rdf="http://www.w3.org/1999/02/22-rdf-syntax-ns#"
   xmlns:svg="http://www.w3.org/2000/svg"
   xmlns="http://www.w3.org/2000/svg"
   xmlns:sodipodi="http://sodipodi.sourceforge.net/DTD/sodipodi-0.dtd"
   xmlns:inkscape="http://www.inkscape.org/namespaces/inkscape"
   width="210mm"
   height="297mm"
   viewBox="0 0 210 297"
   version="1.1"
   id="svg972"
   inkscape:version="0.92.3 (2405546, 2018-03-11)"
   sodipodi:docname="onewheel_p_1.svg">
  <defs
     id="defs966">
    <inkscape:perspective
       sodipodi:type="inkscape:persp3d"
       inkscape:vp_x="0 : 148.5 : 1"
       inkscape:vp_y="0 : 1000 : 0"
       inkscape:vp_z="210 : 148.5 : 1"
       inkscape:persp3d-origin="105 : 99 : 1"
       id="perspective1041" />
  </defs>
  <sodipodi:namedview
     id="base"
     pagecolor="#ffffff"
     bordercolor="#666666"
     borderopacity="1.0"
     inkscape:pageopacity="0.0"
     inkscape:pageshadow="2"
     inkscape:zoom="0.35"
     inkscape:cx="400"
     inkscape:cy="560"
     inkscape:document-units="mm"
     inkscape:current-layer="layer1"
     showgrid="false"
     inkscape:window-width="1853"
     inkscape:window-height="1025"
     inkscape:window-x="67"
     inkscape:window-y="27"
     inkscape:window-maximized="1" />
  <metadata
     id="metadata969">
    <rdf:RDF>
      <cc:Work
         rdf:about="">
        <dc:format>image/svg+xml</dc:format>
        <dc:type
           rdf:resource="http://purl.org/dc/dcmitype/StillImage" />
        <dc:title></dc:title>
      </cc:Work>
    </rdf:RDF>
  </metadata>
  <g
     inkscape:label="Layer 1"
     inkscape:groupmode="layer"
     id="layer1">
    <path
       style="fill:#000000;stroke-width:0.26458335"
       d="m -3.6082624,292.02861 c -6.4886896,-1.03148 -15.5764296,-4.48993 -20.2036096,-7.68869 -5.44525,-3.7643 -8.57836,-9.08756 -8.595,-14.60319 -0.0162,-5.37292 3.97539,-22.51945 11.81009,-50.73212 3.18763,-11.4786 4.83226,-17.24627 5.09752,-17.87676 0.35249,-0.83784 13.3483296,-10.57229 20.5263396,-15.37511 1.74625,-1.16842 8.9495304,-5.19591 16.0072904,-8.94998 7.05776,-3.75406 16.34464,-8.69483 20.6375,-10.97947 4.29287,-2.28465 16.25865,-8.65269 26.59063,-14.15119 10.33198,-5.49852 25.09573,-13.35945 32.808332,-17.46875 7.71261,-4.10931 22.47636,-11.96725 32.80834,-17.4621 31.30616,-16.64953 96.19435,-51.179009 106.89167,-56.881129 5.52979,-2.94762 16.48354,-8.78176 24.34166,-12.96476 7.85813,-4.18301 17.145,-9.12741 20.6375,-10.98757 3.4925,-1.86016 8.8469,-4.69931 11.89869,-6.309217 l 5.54868,-2.927105 0.47652,0.752599 c 0.84325,1.331824 2.52692,6.159343 3.1452,9.018113 0.53015,2.45127 0.60119,3.525 0.60397,9.12805 0.006,11.07662 0.69212,8.23086 -13.50291,55.959379 -13.26605,44.60495 -13.02398,43.86331 -16.40509,50.26396 -5.94259,11.24967 -17.12751,23.39658 -29.92498,32.49875 -9.28217,6.6019 -20.92483,12.3495 -29.65003,14.63722 -2.91367,0.76395 -3.51638,0.82572 -10.10984,1.03599 -3.8563,0.12299 -33.86005,0.24756 -66.675,0.27683 -32.81495,0.0293 -68.463212,0.12533 -79.218362,0.21347 l -19.55482,0.16024 -10.91469,38.30103 c -6.51313,22.85541 -11.24877,39.01496 -11.74314,40.07139 -3.01562,6.44424 -8.23963,11.11168 -14.1679504,12.65846 -1.90218,0.4963 -7.08544,0.71218 -9.16451,0.38166 z M 201.95165,147.9033 c 14.53746,-3.33229 23.52376,-11.36509 28.19911,-25.20702 1.63437,-4.83876 13.66279,-45.527279 13.66279,-46.217109 0,-0.48408 0.7925,-1.02738 -35.32188,24.215009 -54.66143,38.20598 -66.92365,46.79838 -67.60104,47.36948 l -0.66146,0.55766 29.63333,-0.0775 c 29.13704,-0.0763 29.67447,-0.087 32.08915,-0.64048 z m -208.8821824,29.84948 -1.63887,-1.04936 0.66144,-2.46346 c 0.36379,-1.35491 2.56865,-9.96441 4.8997,-19.13222 5.23546,-20.59069 7.34033,-28.59548 10.01844,-38.1 1.1481,-4.07459 2.93534,-10.80162 3.9716404,-14.94896 1.84429,-7.380929 7.2855,-26.117889 9.71962,-33.469789 2.41432,-7.29209 7.27622,-15.91563 12.97782,-23.01876 3.30162,-4.11319 12.27062,-13.07095 16.32699,-16.30652 15.16945,-12.099945 31.04682,-19.496145 43.78854,-20.398145 2.8433,-0.20128 31.446772,-0.297475 93.265632,-0.313657 l 89.16458,-0.02334 2.71227,0.607613 c 3.57826,0.801606 7.45996,2.102785 11.18704,3.749968 3.14058,1.387988 8.02645,4.07953 9.34458,5.147754 l 0.75433,0.611303 -3.66475,1.981693 c -2.01559,1.089932 -18.01175,9.607448 -35.54701,18.927811 l -31.88229,16.94612 -59.53125,0.24857 -59.53125,0.24857 -2.78185,0.67431 c -10.588692,2.5667 -21.242782,9.72387 -28.156972,18.91518 -2.1374,2.84132 -3.7886,6.00756 -4.86653,9.33173 -2.81898,8.69325 -11.61684,38.924499 -12.85879,44.185419 -0.57236,2.42453 -3.4087,12.94517 -4.53887,16.8357 l -0.39436,1.35757 -7.06799,3.84196 c -5.70006,3.09839 -33.53806,17.94233 -46.6231904,24.86069 -2.69390998,1.42432 -2.85831998,1.47389 -5.42396,1.63522 l -2.64583,0.16638 z"
       id="path1039"
       inkscape:connector-curvature="0" />
  </g>
</svg>
