<?xml version="1.0" encoding="UTF-8" standalone="no"?>
<!-- Created with Inkscape (http://www.inkscape.org/) -->

<svg
   xmlns:dc="http://purl.org/dc/elements/1.1/"
   xmlns:cc="http://creativecommons.org/ns#"
   xmlns:rdf="http://www.w3.org/1999/02/22-rdf-syntax-ns#"
   xmlns:svg="http://www.w3.org/2000/svg"
   xmlns="http://www.w3.org/2000/svg"
   xmlns:sodipodi="http://sodipodi.sourceforge.net/DTD/sodipodi-0.dtd"
   xmlns:inkscape="http://www.inkscape.org/namespaces/inkscape"
   width="215.06627mm"
   height="532.79932mm"
   viewBox="0 0 215.06627 532.79932"
   version="1.1"
   id="svg2606"
   inkscape:version="0.92.2 (5c3e80d, 2017-08-06)"
   sodipodi:docname="back_standalone_1_1.svg">
  <defs
     id="defs2600" />
  <sodipodi:namedview
     id="base"
     pagecolor="#ffffff"
     bordercolor="#666666"
     borderopacity="1.0"
     inkscape:pageopacity="0.0"
     inkscape:pageshadow="2"
     inkscape:zoom="0.24748737"
     inkscape:cx="-483.23366"
     inkscape:cy="704.82845"
     inkscape:document-units="mm"
     inkscape:current-layer="layer1"
     showgrid="false"
     inkscape:window-width="1920"
     inkscape:window-height="1017"
     inkscape:window-x="-8"
     inkscape:window-y="209"
     inkscape:window-maximized="1"
     fit-margin-top="0"
     fit-margin-left="0"
     fit-margin-right="0"
     fit-margin-bottom="0" />
  <metadata
     id="metadata2603">
    <rdf:RDF>
      <cc:Work
         rdf:about="">
        <dc:format>image/svg+xml</dc:format>
        <dc:type
           rdf:resource="http://purl.org/dc/dcmitype/StillImage" />
        <dc:title></dc:title>
      </cc:Work>
    </rdf:RDF>
  </metadata>
  <g
     inkscape:label="Layer 1"
     inkscape:groupmode="layer"
     id="layer1"
     transform="translate(5.4795639,109.25083)">
    <path
       id="path891"
       style="font-style:normal;font-size:medium;text-anchor:middle;fill:none;fill-opacity:1;stroke:#000000;stroke-width:0.06615202;stroke-linecap:butt;stroke-linejoin:bevel;stroke-dasharray:none;stroke-opacity:1"
       d="m 89.21667,89.733596 -2.539061,-1e-5 1.1e-5,-9.5135 h 2.539058 l -8e-6,0.698381 -1.689442,-1e-5 v 8.116759 h 1.689442 z"
       inkscape:connector-curvature="0" />
    <path
       id="path893"
       style="font-style:normal;font-size:medium;text-anchor:middle;fill:none;fill-opacity:1;stroke:#000000;stroke-width:0.06615202;stroke-linecap:butt;stroke-linejoin:bevel;stroke-dasharray:none;stroke-opacity:1"
       d="m 95.76941,87.819158 -4.92188,1e-5 10e-6,-1.020701 q 0.512689,-0.439532 1.02539,-0.879074 0.517578,-0.439533 0.961909,-0.874184 0.937501,-0.90837 1.284179,-1.4407 0.346681,-0.53721 0.346681,-1.157446 0,-0.566516 -0.37597,-0.883946 -0.3711,-0.32233 -1.040051,-0.32233 -0.444328,0 -0.961919,0.156239 -0.517581,0.15625 -1.01074,0.4786 l -0.0488,1e-5 -1.1e-5,-1.025572 q 0.346692,-0.170902 0.922851,-0.312568 0.581059,-0.141617 1.123051,-0.141627 1.118168,-1e-5 1.75292,0.542091 0.63477,0.537211 0.63477,1.460234 0,0.415117 -0.10742,0.776515 -0.10254,0.356507 -0.30762,0.678837 -0.19043,0.302797 -0.44921,0.595811 -0.253911,0.293025 -0.620121,0.649542 -0.52246,0.512786 -1.079101,0.996276 -0.556649,0.47861 -1.04004,0.888837 h 3.911132 z"
       inkscape:connector-curvature="0" />
    <path
       id="path895"
       style="font-style:normal;font-size:medium;text-anchor:middle;fill:none;fill-opacity:1;stroke:#000000;stroke-width:0.06615202;stroke-linecap:butt;stroke-linejoin:bevel;stroke-dasharray:none;stroke-opacity:1"
       d="m 99.80261,89.733586 h -2.53906 v -0.69837 l 1.68945,-1e-5 1e-5,-8.116749 h -1.68946 v -0.698371 h 2.53907 z"
       inkscape:connector-curvature="0" />
    <path
       id="path897"
       style="font-style:normal;font-size:medium;text-anchor:middle;fill:none;fill-opacity:1;stroke:#000000;stroke-width:0.06615202;stroke-linecap:butt;stroke-linejoin:bevel;stroke-dasharray:none;stroke-opacity:1"
       d="m 108.03503,87.819158 -2.87109,1e-5 v -0.742329 h 0.95215 v -5.787223 l -0.95215,1e-5 v -0.742329 h 2.8711 v 0.742329 l -0.95215,-1e-5 -1e-5,5.787223 0.95215,10e-6 z"
       inkscape:connector-curvature="0" />
    <path
       id="path899"
       style="font-style:normal;font-size:medium;text-anchor:middle;fill:none;fill-opacity:1;stroke:#000000;stroke-width:0.06615202;stroke-linecap:butt;stroke-linejoin:bevel;stroke-dasharray:none;stroke-opacity:1"
       d="m 117.93738,87.819168 h -4.92188 v -1.020701 q 0.5127,-0.439542 1.0254,-0.879064 0.51757,-0.439543 0.96191,-0.874194 0.9375,-0.90838 1.28417,-1.4407 0.34669,-0.5372 0.34669,-1.157436 -10e-6,-0.566526 -0.37598,-0.883956 -0.37109,-0.32233 -1.04004,-0.32233 -0.44433,0 -0.9619,0.156329 -0.51758,0.15626 -1.01074,0.47861 h -0.0488 v -1.025572 q 0.34669,-0.170892 0.92285,-0.312568 0.58106,-0.141607 1.12306,-0.141627 1.11816,10e-6 1.75292,0.542102 0.63476,0.53721 0.63477,1.460233 -1e-5,0.415117 -0.10743,0.776505 -0.10254,0.356517 -0.30762,0.678847 -0.19042,0.302787 -0.44921,0.595812 -0.25391,0.293024 -0.62012,0.649541 -0.52246,0.512786 -1.0791,0.996276 -0.55664,0.4786 -1.04004,0.888837 h 3.91113 z"
       inkscape:connector-curvature="0" />
    <path
       style="fill:#e5e5e5;fill-opacity:1;stroke:#000000;stroke-width:0.06615202;stroke-linecap:butt;stroke-linejoin:bevel;stroke-dasharray:none;stroke-opacity:1"
       inkscape:connector-curvature="0"
       id="path13820"
       d="m 199.5536,212.77035 10,0.15714 -10e-6,106.45709 -10.00002,0.15711 z m -2e-5,154.84712 10.00002,0.15716 -2e-5,45.58174 -10.00001,0.15711 z m 5e-5,-373.9155822 6.58001,0.1033793 V 6.7609413 l -6.58001,0.1033993 z m 1e-5,-18.2186188 9.10759,0.143103 v 17.932409 l -9.1076,0.1431068 z m -1e-5,-74.798823 10,0.15709 v 37.36466 l -10,0.15711 z m 0,173.92126 9.99999,0.157129 v 38.984645 l -10.00001,0.15713 z m 0,-136.2424 10,0.15715 v 36.80569 l -9.99999,0.157123 z m 0,91.211524 9.99999,0.157089 v 44.716667 l -9.99999,0.15712 z m -2e-5,84.32978 10.00001,0.15715 -3e-5,98.55149 -9.99999,0.1571 z m -4e-5,205.63708 10.00003,0.15714 -10e-6,47.76152 -10.00001,0.15712 z m 6e-5,-312.6773494 10,0.1571194 -1e-5,22.396221 -9.99999,0.157149 z M 4.5535918,319.54166 -5.4464379,319.3846 l 6e-5,-106.45713 9.9999897,-0.15717 z m -5e-5,93.97182 -10.0000297,-0.15716 7e-5,-45.58179 9.9999797,-0.15712 z m 48.7500282,0 -0.1571,10.00185 H 31.597441 l -0.15706,-10.00185 z m 146.25,0 -0.15709,10.00185 h -75.55776 l -0.15709,-10.00185 z M 40.475521,6.86077 33.965931,0.3416302 46.592521,-12.673821 53.30361,-6.3624042 Z M 4.5536118,212.7703 l -9.9999997,-0.1571 2e-5,-98.55147 9.9999897,-0.15712 z M 53.30361,-6.3624042 49.934421,-15.780806 97.96378,-33.824668 l 3.66333,9.307873 z m 100.15001,-92.9531398 0.15709,-10.001916 h 45.78583 l 0.15709,10.001906 z m -51.82651,74.798749 -10.000001,-0.15708 -1.1e-5,-36.805727 10.000012,-0.157121 z M 12.850962,35.121998 5.8102818,28.017609 33.215221,-0.01893727 40.475521,6.86077 Z M 4.5536218,74.605686 -5.2002479,72.394652 3.0324819,33.218462 12.850962,35.121998 Z M 123.68163,413.51348 l -0.15708,10.00191 -70.0639,-6e-5 -0.15708,-10.00185 z m 1.59233,-503.387197 -3.02751,-9.533754 27.88174,-9.342029 3.32543,9.433956 z m -23.64685,28.236994 -7.565242,-6.542746 23.445112,-27.996117 7.76698,6.301869 z M 31.440381,413.51348 31.283271,423.51533 H 4.7106018 l -0.15706,-10.00185 z M 4.5536218,113.90461 l -10.0000197,-0.15712 10e-6,-38.984665 10.0000097,-0.157139 z m -6e-5,253.7128 -9.9999797,-0.15711 v -47.76147 l 10.0000097,-0.15717 z"
       class="sticker" />
    <path
       id="path902"
       style="font-style:normal;font-size:medium;text-anchor:middle;fill:none;fill-opacity:1;stroke:#000000;stroke-width:0.06615202;stroke-linecap:butt;stroke-linejoin:bevel;stroke-dasharray:none;stroke-opacity:1"
       d="m 204.50445,387.34804 q -0.18896,0.21099 -0.47461,0.34725 -0.28564,0.13621 -0.73829,0.13621 -0.44824,0 -0.82178,-0.16265 -0.37353,-0.16261 -0.65038,-0.4571 -0.30762,-0.32965 -0.45704,-0.77799 -0.14501,-0.44392 -0.14501,-0.97575 0,-0.54505 0.13183,-1.07248 0.12744,-0.52744 0.28125,-0.86588 h 0.91846 l -3e-5,0.066 q -0.2461,0.37358 -0.40869,0.87905 -0.1626,0.50547 -0.1626,0.97578 -1e-5,0.27691 0.0923,0.58897 0.0924,0.31205 0.27246,0.50548 0.19336,0.20218 0.42627,0.29889 0.23291,0.10109 0.58887,0.10109 0.35156,0 0.58008,-0.11426 0.23292,-0.10985 0.36474,-0.30769 0.13624,-0.19778 0.18457,-0.4791 0.0527,-0.2813 0.0527,-0.60653 v -0.3956 h 0.72949 v 0.30769 q 0,0.66809 0.27689,1.06366 0.28125,0.39997 0.81738,0.39997 0.2373,-2e-5 0.41302,-0.10135 0.18019,-0.10107 0.29443,-0.2813 0.11426,-0.18901 0.15821,-0.40437 0.0439,-0.21538 0.0439,-0.4879 0,-0.41754 -0.14942,-0.88785 -0.14941,-0.47029 -0.42187,-0.88786 v -0.0439 h 0.91845 q 0.15381,0.31208 0.28126,0.83073 0.13179,0.52305 0.13183,1.01092 0,0.47909 -0.0879,0.84392 -0.0879,0.3648 -0.28125,0.6593 -0.21093,0.31645 -0.50976,0.47907 -0.29883,0.16267 -0.69874,0.16264 -0.54492,0 -0.95361,-0.38678 -0.4043,-0.38242 -0.50976,-0.90545 l -0.0615,3e-5 q -0.0351,0.21099 -0.14941,0.48351 -0.10986,0.27249 -0.27685,0.4615 z"
       inkscape:connector-curvature="0" />
    <path
       id="path904"
       style="font-style:normal;font-size:medium;text-anchor:middle;fill:none;fill-opacity:1;stroke:#000000;stroke-width:0.06615202;stroke-linecap:butt;stroke-linejoin:bevel;stroke-dasharray:none;stroke-opacity:1"
       d="M 205.00982,391.08849 V 390.038 h 1.25245 v 1.05049 z m -3.65625,0 V 390.038 h 1.25244 l 1e-5,1.05049 z"
       inkscape:connector-curvature="0" />
    <path
       id="path906"
       style="font-style:normal;font-size:medium;text-anchor:middle;fill:none;fill-opacity:1;stroke:#000000;stroke-width:0.06615202;stroke-linecap:butt;stroke-linejoin:bevel;stroke-dasharray:none;stroke-opacity:1"
       d="m 201.35357,397.75184 1e-5,-4.43051 h 0.91845 q 0.39551,0.46152 0.79102,0.92301 0.3955,0.46592 0.78662,0.86591 0.81738,0.84389 1.29639,1.15597 0.48339,0.31206 1.0415,0.31206 0.50976,0 0.79541,-0.33845 0.29004,-0.33404 0.29004,-0.93618 0,-0.4 -0.14062,-0.86588 -0.14063,-0.46592 -0.43067,-0.90986 v -0.0439 h 0.92285 q 0.1538,0.31209 0.28124,0.83073 0.12745,0.52305 0.12745,1.01093 0,1.00653 -0.4878,1.57793 -0.48339,0.57139 -1.31396,0.57139 -0.37354,-3e-5 -0.69873,-0.0967 -0.32081,-0.0923 -0.61085,-0.27689 -0.27246,-0.17143 -0.53613,-0.40438 -0.26367,-0.22856 -0.58447,-0.55822 -0.46143,-0.47027 -0.89648,-0.97136 -0.43067,-0.50108 -0.79981,-0.93622 v 3.52068 z"
       inkscape:connector-curvature="0" />
    <path
       class="arrow"
       d="m 199.55363,-80.476118 -10,10.00187 7.5,-10.001881 -7.5,-10.001861 z"
       id="path13828"
       inkscape:connector-curvature="0"
       style="fill:#000000;stroke:#000000;stroke-width:0.06615199;stroke-linecap:butt;stroke-linejoin:bevel;stroke-dasharray:none;stroke-opacity:1" />
    <path
       inkscape:connector-curvature="0"
       d="m 192.663,-76.475359 h -3.93555 v -0.74233 h 1.51367 v -4.873962 h -1.51367 v -0.664184 q 0.30762,-10e-6 0.65918,-0.04881 0.35155,-0.05371 0.53222,-0.15142 0.22462,-0.122042 0.35156,-0.307667 0.13184,-0.190476 0.15137,-0.507915 h 0.75683 v 6.553956 l 1.48438,1.1e-5 z"
       style="font-style:normal;font-size:medium;text-anchor:middle;fill:none;fill-opacity:1;stroke:#000000;stroke-width:0.06615202;stroke-linecap:butt;stroke-linejoin:bevel;stroke-dasharray:none;stroke-opacity:1"
       id="path909" />
    <path
       id="path912"
       style="font-style:normal;font-size:medium;text-anchor:middle;fill:none;fill-opacity:1;stroke:#000000;stroke-width:0.06615202;stroke-linecap:butt;stroke-linejoin:bevel;stroke-dasharray:none;stroke-opacity:1"
       d="m 204.5045,-83.693521 q -0.18896,0.21098 -0.4746,0.347235 -0.28565,0.136226 -0.7383,0.136216 -0.44824,0 -0.82177,-0.162631 -0.37354,-0.16263 -0.65039,-0.457115 -0.30762,-0.329652 -0.45704,-0.777986 -0.14501,-0.443923 -0.14502,-0.975752 0,-0.545032 0.13184,-1.072471 0.12744,-0.527449 0.28125,-0.865892 h 0.91846 l -2e-5,0.06591 q -0.24609,0.37361 -0.40869,0.879075 -0.16259,0.505464 -0.16259,0.975772 0,0.276902 0.0923,0.588971 0.0923,0.312078 0.27246,0.505474 0.19336,0.202178 0.42627,0.298886 0.23291,0.101089 0.58887,0.101089 0.35156,2e-5 0.58008,-0.114261 0.23292,-0.109851 0.36475,-0.307678 0.13623,-0.197787 0.18456,-0.47909 0.0527,-0.281302 0.0527,-0.606563 v -0.395584 l 0.72949,1e-5 v 0.307678 q 0,0.668085 0.27689,1.063659 0.28125,0.399984 0.81738,0.399984 0.2373,-4e-5 0.41302,-0.101359 0.18019,-0.101058 0.29443,-0.281302 0.11426,-0.189006 0.15821,-0.404376 0.0439,-0.21538 0.0439,-0.487881 0,-0.417558 -0.14942,-0.887866 -0.14941,-0.470298 -0.42187,-0.887856 v -0.04391 h 0.91845 q 0.15381,0.312069 0.28126,0.830726 0.13179,0.523048 0.13183,1.010919 1e-5,0.4791 -0.0879,0.843918 -0.0879,0.364808 -0.28125,0.659303 -0.21093,0.316459 -0.50976,0.47909 -0.29883,0.16265 -0.69873,0.16262 -0.54493,0 -0.95362,-0.386792 -0.4043,-0.382402 -0.50976,-0.905449 l -0.0615,4e-5 q -0.0351,0.210979 -0.14941,0.48349 -0.10986,0.272511 -0.27686,0.461516 z"
       inkscape:connector-curvature="0" />
    <path
       id="path914"
       style="font-style:normal;font-size:medium;text-anchor:middle;fill:none;fill-opacity:1;stroke:#000000;stroke-width:0.06615202;stroke-linecap:butt;stroke-linejoin:bevel;stroke-dasharray:none;stroke-opacity:1"
       d="m 205.00987,-79.953079 v -1.050486 h 1.25245 v 1.050493 z m -3.65624,7e-6 v -1.050493 h 1.25244 v 1.050486 z"
       inkscape:connector-curvature="0" />
    <path
       id="path916"
       style="font-style:normal;font-size:medium;text-anchor:middle;fill:none;fill-opacity:1;stroke:#000000;stroke-width:0.06615202;stroke-linecap:butt;stroke-linejoin:bevel;stroke-dasharray:none;stroke-opacity:1"
       d="m 201.35363,-73.663323 v -3.542653 h 0.66796 l 1e-5,1.362555 h 4.38574 v -1.362555 h 0.59765 q 0,0.276901 0.0439,0.59337 0.0483,0.31646 0.13626,0.479089 0.10987,0.20218 0.27686,0.316461 0.17138,0.118672 0.45703,0.136255 v 0.681286 l -5.89746,-8e-6 v 1.33619 z"
       inkscape:connector-curvature="0" />
    <path
       class="arrow"
       d="M 4.5535918,390.56542 14.553602,380.56357 7.0535917,390.56542 14.553582,400.56729 Z"
       id="path13840"
       inkscape:connector-curvature="0"
       style="fill:#000000;stroke:#000000;stroke-width:0.06615199;stroke-linecap:butt;stroke-linejoin:bevel;stroke-dasharray:none;stroke-opacity:1" />
    <path
       inkscape:connector-curvature="0"
       d="m 16.078011,394.56619 h -4.921879 v -1.02069 q 0.5127,-0.43952 1.0254,-0.87909 0.51757,-0.43952 0.96191,-0.87418 0.93749,-0.90835 1.28418,-1.44069 0.34668,-0.5372 0.34667,-1.15744 0,-0.56651 -0.37597,-0.88396 -0.3711,-0.32232 -1.04004,-0.32232 -0.44433,0 -0.9619,0.15632 -0.51758,0.15626 -1.01074,0.47861 h -0.0488 l -1e-5,-1.02558 q 0.34669,-0.17088 0.92285,-0.31256 0.58107,-0.14161 1.12305,-0.14164 1.11817,0 1.75293,0.5421 0.634769,0.53721 0.634759,1.46023 10e-6,0.41512 -0.10741,0.77653 -0.10254,0.35652 -0.30763,0.67884 -0.190429,0.30276 -0.449209,0.59579 -0.25391,0.29303 -0.62012,0.64954 -0.52246,0.51279 -1.0791,0.9963 -0.55664,0.47858 -1.04004,0.88881 h 3.911139 z"
       style="font-style:normal;font-size:medium;text-anchor:middle;fill:none;fill-opacity:1;stroke:#000000;stroke-width:0.06615202;stroke-linecap:butt;stroke-linejoin:bevel;stroke-dasharray:none;stroke-opacity:1"
       id="path919" />
    <path
       id="path922"
       style="font-style:normal;font-size:medium;text-anchor:middle;fill:none;fill-opacity:1;stroke:#000000;stroke-width:0.06615202;stroke-linecap:butt;stroke-linejoin:bevel;stroke-dasharray:none;stroke-opacity:1"
       d="m 0.67493197,393.25978 q 0.45702993,0 0.87450993,0.16704 0.41748,0.16701 0.70313,0.45709 0.30761,0.31648 0.4746,0.756 0.16256,0.43517 0.16263,1.01093 0,0.53625 -0.11426,1.03292 -0.10986,0.49666 -0.26806,0.83949 l -0.92725,2e-5 -4e-5,-0.0615 q 0.22852,-0.36043 0.39111,-0.84392 0.15821,-0.48348 0.1582,-0.94939 -2e-5,-0.31205 -0.0879,-0.60218 -0.0879,-0.2945 -0.3076,-0.52304 -0.18898,-0.19339 -0.45264,-0.29009 -0.26368,-0.10109 -0.61083993,-0.10109 -0.33836999,2e-5 -0.57128999,0.11866 -0.23290999,0.1143 -0.37353998,0.32086 -0.16699,0.22857 -0.23291,0.55823 -0.0703,0.32523 -0.0703,0.72962 3e-5,0.38678 0.0527,0.74722 0.0527,0.356 0.10549,0.61532 h -3.3706 v -3.93825 h 0.76904 l 10e-6,3.08996 h 1.74023 q -0.0176,-0.18899 -0.0264,-0.38678 -0.009,-0.19782 -0.009,-0.34283 -10e-6,-0.53183 0.0923,-0.93183 0.0879,-0.39996 0.31640001,-0.73401 0.2417,-0.35162 0.62402999,-0.54504 0.38231998,-0.19339 0.95800997,-0.19333 z"
       inkscape:connector-curvature="0" />
    <path
       id="path924"
       style="font-style:normal;font-size:medium;text-anchor:middle;fill:none;fill-opacity:1;stroke:#000000;stroke-width:0.06615202;stroke-linecap:butt;stroke-linejoin:bevel;stroke-dasharray:none;stroke-opacity:1"
       d="m -0.90270799,390.04237 v 1.05049 H -2.155138 v -1.05049 z m 3.65625989,0 -1e-5,1.05049 -1.25243,2e-5 v -1.05051 z"
       inkscape:connector-curvature="0" />
    <path
       id="path926"
       style="font-style:normal;font-size:medium;text-anchor:middle;fill:none;fill-opacity:1;stroke:#000000;stroke-width:0.06615202;stroke-linecap:butt;stroke-linejoin:bevel;stroke-dasharray:none;stroke-opacity:1"
       d="m 2.7535619,383.37903 -10e-6,4.43051 h -0.91846 q -0.39551,-0.4615 -0.79101,-0.92302 -0.39551993,-0.46591 -0.78661992,-0.86588 -0.81738998,-0.84392 -1.29638998,-1.156 -0.4834,-0.31205 -1.0415,-0.31205 -0.50977,0 -0.79541,0.33844 -0.29004,0.33404 -0.29004,0.9362 -10e-6,0.39998 0.14063,0.8659 0.14066,0.46588 0.43067,0.90983 l -3e-5,0.0439 h -0.92285 q -0.15378,-0.31209 -0.28121,-0.83074 -0.1271599,-0.52313 -0.1274499,-1.01093 0,-1.00653 0.4877999,-1.57795 0.48339,-0.57139 1.31396,-0.57137 0.37354,3e-5 0.69873,0.0967 0.32081,0.0923 0.61085001,0.27691 0.27244999,0.1714 0.53612999,0.40435 0.26365999,0.22857 0.58445998,0.55822 0.46142999,0.47031 0.89648992,0.97136 0.43067,0.50108 0.7998,0.93623 l 1e-5,-3.52068 z"
       inkscape:connector-curvature="0" />
    <path
       id="path929"
       style="font-style:normal;font-size:medium;text-anchor:middle;fill:none;fill-opacity:1;stroke:#000000;stroke-width:0.06615202;stroke-linecap:butt;stroke-linejoin:bevel;stroke-dasharray:none;stroke-opacity:1"
       d="m 164.24113,420.87834 2.96191,-5.56451 h 0.94044 l -3.15089,5.77548 h 3.72657 v 0.76921 l -4.47803,-3e-5 z"
       inkscape:connector-curvature="0" />
    <path
       id="path931"
       style="font-style:normal;font-size:medium;text-anchor:middle;fill:none;fill-opacity:1;stroke:#000000;stroke-width:0.06615202;stroke-linecap:butt;stroke-linejoin:bevel;stroke-dasharray:none;stroke-opacity:1"
       d="m 161.09465,418.97077 h 1.05029 v 1.25266 h -1.0503 z m -1e-5,-3.65694 h 1.0503 v 1.25267 h -1.0503 z"
       inkscape:connector-curvature="0" />
    <path
       id="path933"
       style="font-style:normal;font-size:medium;text-anchor:middle;fill:none;fill-opacity:1;stroke:#000000;stroke-width:0.06615202;stroke-linecap:butt;stroke-linejoin:bevel;stroke-dasharray:none;stroke-opacity:1"
       d="m 154.41495,420.87834 2.96192,-5.56451 h 0.94043 l -3.15088,5.77548 h 3.72656 v 0.76921 h -4.47802 z"
       inkscape:connector-curvature="0" />
    <path
       id="path936"
       style="font-style:normal;font-size:medium;text-anchor:middle;fill:none;fill-opacity:1;stroke:#000000;stroke-width:0.06615202;stroke-linecap:butt;stroke-linejoin:bevel;stroke-dasharray:none;stroke-opacity:1"
       d="m 173.48898,-101.11588 h -3.54199 v -0.66809 h 1.36231 v -4.38656 h -1.36231 v -0.59777 q 0.27686,0 0.59326,-0.0439 0.31641,-0.0483 0.479,-0.13629 0.20216,-0.10985 0.31641,-0.27687 0.11866,-0.17142 0.13623,-0.45712 h 0.68116 v 5.89857 h 1.33593 z"
       inkscape:connector-curvature="0" />
    <path
       id="path938"
       style="font-style:normal;font-size:medium;text-anchor:middle;fill:none;fill-opacity:1;stroke:#000000;stroke-width:0.06615202;stroke-linecap:butt;stroke-linejoin:bevel;stroke-dasharray:none;stroke-opacity:1"
       d="m 177.02658,-104.77281 h -1.05029 v -1.25268 h 1.05029 z m 0,3.65693 h -1.05029 v -1.25267 h 1.05029 z"
       inkscape:connector-curvature="0" />
    <path
       id="path940"
       style="font-style:normal;font-size:medium;text-anchor:middle;fill:none;fill-opacity:1;stroke:#000000;stroke-width:0.06615202;stroke-linecap:butt;stroke-linejoin:bevel;stroke-dasharray:none;stroke-opacity:1"
       d="m 183.70627,-106.6804 -2.96191,5.56452 h -0.94043 l 3.15087,-5.7755 h -3.72656 v -0.76918 h 4.47803 z"
       inkscape:connector-curvature="0" />
    <path
       id="path943"
       style="font-style:normal;font-size:medium;text-anchor:middle;fill:none;fill-opacity:1;stroke:#000000;stroke-width:0.06615202;stroke-linecap:butt;stroke-linejoin:bevel;stroke-dasharray:none;stroke-opacity:1"
       d="m 6.3207018,57.444265 -0.72857,3.466898 -0.65368,-0.137415 0.28022,-1.33343 -4.29196984,-0.902279 -0.28020999,1.33343 -0.58487998,-0.122953 q 0.05699999,-0.270991 0.07899999,-0.589721 0.0177,-0.319639 -0.0348,-0.496893 -0.06619999,-0.220391 -0.20584999,-0.366658 -0.14332,-0.151399 -0.41923999,-0.227363 l 0.14011,-0.666714 5.7713498,1.213277 0.27479,-1.307605 z"
       inkscape:connector-curvature="0" />
    <path
       id="path945"
       style="font-style:normal;font-size:medium;text-anchor:middle;fill:none;fill-opacity:1;stroke:#000000;stroke-width:0.06615202;stroke-linecap:butt;stroke-linejoin:bevel;stroke-dasharray:none;stroke-opacity:1"
       d="m 3.4702818,53.229466 -0.21604,1.028022 -1.2256599,-0.257668 0.21603,-1.028022 z m 3.5780599,0.752201 -0.21603,1.028022 -1.2256599,-0.257658 0.21604,-1.028033 z"
       inkscape:connector-curvature="0" />
    <path
       id="path947"
       style="font-style:normal;font-size:medium;text-anchor:middle;fill:none;fill-opacity:1;stroke:#000000;stroke-width:0.06615202;stroke-linecap:butt;stroke-linejoin:bevel;stroke-dasharray:none;stroke-opacity:1"
       d="m 6.6438917,47.038278 q 0.83001,0.174492 1.24399,0.939715 0.41488,0.760923 0.20879,1.741646 -0.21875,1.040925 -0.88648,1.54731 -0.66683,0.502084 -1.5054299,0.325831 -0.53328,-0.112111 -0.89825,-0.512216 -0.36927,-0.401015 -0.5046,-1.017841 l -0.0258,-0.005 q -0.38371,0.458295 -0.76298,0.639069 -0.37837,0.176433 -0.8686199,0.07341 -0.72251,-0.151889 -1.07942,-0.846729 -0.35693,-0.69485 -0.16439,-1.611041 0.20157,-0.9592 0.78195,-1.434548 0.58039,-0.475349 1.2899799,-0.326162 0.43435,0.09132 0.79886,0.450915 0.36022,0.358667 0.48646,0.933164 l 0.0258,0.005 q 0.38458,-0.547942 0.82993,-0.786677 0.44534,-0.238744 1.0302099,-0.115791 z m -3.3407299,0.362147 q -0.4601599,-0.09672 -0.8060399,0.203668 -0.34936,0.294846 -0.46506,0.845429 -0.11389,0.541971 0.0709,0.944616 0.18577,0.398355 0.62437,0.490572 0.3096399,0.06511 0.5737399,-0.05901 0.26069,-0.129354 0.51113,-0.444993 0.11085,-0.142867 0.29794,-0.413448 0.188,-0.274871 0.32936,-0.541591 -0.19431,-0.485511 -0.46534,-0.713143 -0.27099,-0.227643 -0.67094,-0.311729 z m 3.2362399,0.541122 q -0.3956599,-0.08322 -0.6692499,0.04341 -0.27698,0.121432 -0.62448,0.578358 -0.1371,0.182274 -0.26942,0.405976 -0.13234,0.223692 -0.36262,0.592991 0.12932,0.431431 0.44091,0.743929 0.31243,0.308228 0.76829,0.404056 0.58057,0.122052 1.0430999,-0.198368 0.46252,-0.320469 0.59178,-0.935555 0.13197,-0.628007 -0.11193,-1.07003 -0.243,-0.446323 -0.80637,-0.564765 z"
       inkscape:connector-curvature="0" />
    <path
       id="path950"
       style="font-style:normal;font-size:medium;text-anchor:middle;fill:none;fill-opacity:1;stroke:#000000;stroke-width:0.06615202;stroke-linecap:butt;stroke-linejoin:bevel;stroke-dasharray:none;stroke-opacity:1"
       d="m 22.255251,420.87826 2.96191,-5.56451 h 0.94044 l -3.15088,5.77548 3.72656,2e-5 v 0.76919 h -4.47803 z"
       inkscape:connector-curvature="0" />
    <path
       id="path952"
       style="font-style:normal;font-size:medium;text-anchor:middle;fill:none;fill-opacity:1;stroke:#000000;stroke-width:0.06615202;stroke-linecap:butt;stroke-linejoin:bevel;stroke-dasharray:none;stroke-opacity:1"
       d="m 19.108771,418.97069 h 1.05029 v 1.25266 h -1.0503 z m 0,-3.65694 h 1.05029 v 1.25267 h -1.0503 z"
       inkscape:connector-curvature="0" />
    <path
       id="path954"
       style="font-style:normal;font-size:medium;text-anchor:middle;fill:none;fill-opacity:1;stroke:#000000;stroke-width:0.06615202;stroke-linecap:butt;stroke-linejoin:bevel;stroke-dasharray:none;stroke-opacity:1"
       d="m 12.455442,418.97947 q 0,-0.85709 0.19776,-1.55596 0.19336,-0.69884 0.58887,-1.19114 0.3999,-0.50106 1.00195,-0.77357 0.60205,-0.27252 1.415039,-0.27247 0.22852,0 0.43067,0.0265 0.20216,0.022 0.36036,0.0747 v 0.83952 l -0.0439,-3e-5 q -0.12743,-0.0659 -0.36036,-0.12747 -0.23291,-0.0571 -0.51855,-0.0571 -0.971189,0 -1.520499,0.58018 -0.55372,0.58457 -0.64161,1.6087 0.40869,-0.24614 0.76905,-0.35162 0.36034,-0.10551 0.78661,-0.10549 0.404299,0 0.733889,0.0791 0.3252,0.0791 0.65479,0.30769 0.38671,0.2681 0.58447,0.68124 0.19338,0.41317 0.19335,0.98896 0,1.00217 -0.65918,1.63069 -0.65918,0.62856 -1.608399,0.62856 -0.47461,0 -0.87891,-0.14947 -0.40429,-0.14501 -0.70752,-0.43955 -0.37353,-0.3648 -0.57568,-0.94058 -0.20219,-0.57137 -0.20215,-1.48123 z m 0.8877,0.189 q 0,0.68127 0.14063,1.09445 0.14065,0.41317 0.38672,0.64173 0.20654,0.19779 0.44384,0.2813 0.23731,0.0879 0.51416,0.0879 0.632819,-3e-5 1.001959,-0.39561 0.36474,-0.39557 0.36475,-1.112 -10e-6,-0.41757 -0.11869,-0.6813 -0.11864,-0.26371 -0.39991,-0.4615 -0.19774,-0.13626 -0.43505,-0.1846 -0.237299,-0.0439 -0.527339,-0.0439 -0.34279,-5e-5 -0.69434,0.0923 -0.35157,0.0923 -0.65918,0.26818 -0.004,0.0922 -0.009,0.18018 -0.009,0.0923 -0.009,0.23293 z"
       inkscape:connector-curvature="0" />
    <path
       id="path956"
       style="font-style:normal;font-size:medium;text-anchor:middle;fill:none;fill-opacity:1;stroke:#000000;stroke-width:0.06615202;stroke-linecap:butt;stroke-linejoin:bevel;stroke-dasharray:none;stroke-opacity:1"
       d="m 9.6912817,415.31375 h 1.0503003 v 1.2527 l -1.0502903,-3e-5 z"
       inkscape:connector-curvature="0" />
    <path
       class="arrow"
       d="M 4.5536118,94.255142 14.553612,84.253271 7.0536217,94.255142 14.553612,104.25701 Z"
       id="path13868"
       inkscape:connector-curvature="0"
       style="fill:#000000;stroke:#000000;stroke-width:0.06615198;stroke-linecap:butt;stroke-linejoin:bevel;stroke-dasharray:none;stroke-opacity:1" />
    <path
       inkscape:connector-curvature="0"
       d="m 15.438391,94.754266 q 0.23437,0.209999 0.38574,0.527438 0.15137,0.31745 0.15134,0.820474 0,0.498143 -0.18066,0.913261 -0.18068,0.415117 -0.50782,0.722785 -0.366209,0.341864 -0.864249,0.507915 -0.49316,0.16121 -1.08399,0.16115 -0.60547,10e-6 -1.19141,-0.146497 -0.58594,-0.141637 -0.96191,-0.312559 v -1.020701 l 0.0732,-1e-5 q 0.41504,0.273481 0.97657,0.454185 0.56152,0.180694 1.08398,0.180694 0.30762,-10e-6 0.6543,-0.102539 0.34669,-0.102539 0.56153,-0.302797 0.2246,-0.21489 0.33203,-0.473728 0.1123,-0.258829 0.1123,-0.654413 -1e-5,-0.390693 -0.12694,-0.64466 -0.12211,-0.258819 -0.3418,-0.405346 -0.21973,-0.151399 -0.53223,-0.205119 -0.31249,-0.05861 -0.67383,-0.05861 h -0.43945 v -0.810701 h 0.3418 q 0.74219,1e-5 1.18166,-0.307608 0.44433,-0.312558 0.44434,-0.90838 -4e-5,-0.263699 -0.11239,-0.459036 -0.11229,-0.200237 -0.3125,-0.327211 -0.20996,-0.126984 -0.44922,-0.175813 -0.23926,-0.04881 -0.54199,-0.04881 -0.46387,1e-5 -0.98633,0.166061 -0.52246,0.166031 -0.98633,0.468848 h -0.0488 l 10e-6,-1.020691 q 0.34668,-0.170892 0.92284,-0.312569 0.58104,-0.146567 1.12305,-0.146517 0.53223,0 0.9375,0.09772 0.40527,0.09772 0.73242,0.312559 0.351559,0.234424 0.532229,0.566516 0.18066,0.332092 0.18063,0.776515 -10e-6,0.605583 -0.42969,1.059768 -0.424809,0.449304 -1.005859,0.566516 l -2e-5,0.06831 q 0.23438,0.03911 0.53711,0.166041 0.302719,0.122103 0.512689,0.307678 z"
       style="font-style:normal;font-size:medium;text-anchor:middle;fill:none;fill-opacity:1;stroke:#000000;stroke-width:0.06615202;stroke-linecap:butt;stroke-linejoin:bevel;stroke-dasharray:none;stroke-opacity:1"
       id="path959" />
    <path
       id="path962"
       style="font-style:normal;font-size:medium;text-anchor:middle;fill:none;fill-opacity:1;stroke:#000000;stroke-width:0.06615202;stroke-linecap:butt;stroke-linejoin:bevel;stroke-dasharray:none;stroke-opacity:1"
       d="m 0.67500197,96.949496 q 0.45702993,0 0.87451993,0.167022 0.41748,0.167031 0.70312,0.457115 0.30762,0.316469 0.47461,0.756002 0.16256,0.435163 0.16262,1.010931 10e-6,0.53624 -0.11425,1.032904 -0.10986,0.49669 -0.26806,0.83952 h -0.92725 l -4e-5,-0.0615 q 0.22851,-0.36043 0.39111,-0.84391 0.15821,-0.483494 0.1582,-0.949401 -3e-5,-0.312068 -0.0879,-0.602183 -0.0879,-0.294485 -0.3076,-0.523039 -0.18898,-0.193397 -0.45264,-0.290095 -0.26367,-0.101089 -0.61083993,-0.101089 -0.33836999,3e-5 -0.57129999,0.118673 -0.23289999,0.114291 -0.37352998,0.32086 -0.16699,0.228554 -0.23292,0.558206 -0.0703,0.325261 -0.0703,0.729637 3e-5,0.386787 0.0527,0.747201 0.0527,0.35603 0.1055,0.61536 h -3.37062 l 10e-6,-3.938245 h 0.76904 v 3.089935 h 1.74023 q -0.0176,-0.188981 -0.0264,-0.386788 -0.009,-0.197797 -0.009,-0.342854 0,-0.531829 0.0923,-0.931816 0.0879,-0.399965 0.31641001,-0.734017 0.24169,-0.351626 0.62401999,-0.545022 0.38232998,-0.193407 0.95800997,-0.193367 z"
       inkscape:connector-curvature="0" />
    <path
       id="path964"
       style="font-style:normal;font-size:medium;text-anchor:middle;fill:none;fill-opacity:1;stroke:#000000;stroke-width:0.06615202;stroke-linecap:butt;stroke-linejoin:bevel;stroke-dasharray:none;stroke-opacity:1"
       d="m -0.90262799,93.732104 v 1.050487 H -2.155068 v -1.050497 z m 3.65623989,-1e-5 v 1.050497 h -1.25243 v -1.050487 z"
       inkscape:connector-curvature="0" />
    <path
       id="path966"
       style="font-style:normal;font-size:medium;text-anchor:middle;fill:none;fill-opacity:1;stroke:#000000;stroke-width:0.06615202;stroke-linecap:butt;stroke-linejoin:bevel;stroke-dasharray:none;stroke-opacity:1"
       d="m -0.397258,87.644525 q 0.18896999,-0.210969 0.47460999,-0.347225 0.28564999,-0.136235 0.73828997,-0.136215 0.44823994,-1e-5 0.82177994,0.16262 0.37354,0.162641 0.65038,0.457126 0.30762,0.329652 0.45704,0.777975 0.14501,0.443933 0.14502,0.975773 0,0.545022 -0.13184,1.072471 -0.12744,0.527438 -0.28124,0.865872 h -0.91846 l 5e-5,-0.06591 q 0.24609,-0.37361 0.40869,-0.879074 0.1626,-0.505475 0.16259,-0.975773 1e-5,-0.276912 -0.0923,-0.58898 -0.0924,-0.312048 -0.27246,-0.505475 -0.19335,-0.202177 -0.42626,-0.298875 -0.23292,-0.101089 -0.58887993,-0.101099 -0.35155999,-1e-5 -0.58006999,0.114261 -0.23291999,0.109851 -0.36475999,0.307678 -0.13621999,0.197787 -0.18455999,0.479099 -0.0527,0.281303 -0.0527,0.606554 l -1e-5,0.395584 -0.72949,-10e-6 -1e-5,-0.307668 q 0,-0.668085 -0.2765,-1.063769 -0.28125,-0.399965 -0.81739,-0.399975 -0.23729,3e-5 -0.41301,0.101359 -0.18019,0.101049 -0.29443,0.281303 -0.11426,0.188995 -0.15821,0.404366 -0.044,0.21539 -0.0439,0.487881 0,0.417568 0.14941,0.887876 0.14936,0.470308 0.42188,0.887846 l -3e-5,0.04391 h -0.91845 q -0.15378,-0.312068 -0.28121,-0.830725 -0.1322799,-0.522928 -0.1318399,-1.010929 0,-0.4791 0.0879,-0.843908 0.0879,-0.364818 0.28125,-0.659304 0.21094,-0.316469 0.50976,-0.479089 0.29883,-0.162651 0.69874,-0.162631 0.54492,-1e-5 0.95361,0.386783 0.40430002,0.382401 0.50976001,0.905449 l 0.0615,-4e-5 q 0.0351,-0.210969 0.14942,-0.48349 0.10986999,-0.272511 0.27685999,-0.461517 z"
       inkscape:connector-curvature="0" />
  </g>
</svg>
