<?xml version="1.0" encoding="UTF-8" standalone="no"?>
<!-- Created with Inkscape (http://www.inkscape.org/) -->

<svg
   xmlns:dc="http://purl.org/dc/elements/1.1/"
   xmlns:cc="http://creativecommons.org/ns#"
   xmlns:rdf="http://www.w3.org/1999/02/22-rdf-syntax-ns#"
   xmlns:svg="http://www.w3.org/2000/svg"
   xmlns="http://www.w3.org/2000/svg"
   xmlns:sodipodi="http://sodipodi.sourceforge.net/DTD/sodipodi-0.dtd"
   xmlns:inkscape="http://www.inkscape.org/namespaces/inkscape"
   width="210mm"
   height="297mm"
   viewBox="0 0 210 297"
   version="1.1"
   id="svg1422"
   inkscape:version="0.92.2 (5c3e80d, 2017-08-06)"
   sodipodi:docname="backrest_pg8_b.svg">
  <defs
     id="defs1416" />
  <sodipodi:namedview
     id="base"
     pagecolor="#ffffff"
     bordercolor="#666666"
     borderopacity="1.0"
     inkscape:pageopacity="0.0"
     inkscape:pageshadow="2"
     inkscape:zoom="0.35"
     inkscape:cx="-64.285714"
     inkscape:cy="560"
     inkscape:document-units="mm"
     inkscape:current-layer="layer1"
     showgrid="false"
     inkscape:window-width="1920"
     inkscape:window-height="1017"
     inkscape:window-x="-8"
     inkscape:window-y="-8"
     inkscape:window-maximized="1" />
  <metadata
     id="metadata1419">
    <rdf:RDF>
      <cc:Work
         rdf:about="">
        <dc:format>image/svg+xml</dc:format>
        <dc:type
           rdf:resource="http://purl.org/dc/dcmitype/StillImage" />
        <dc:title></dc:title>
      </cc:Work>
    </rdf:RDF>
  </metadata>
  <g
     inkscape:label="Layer 1"
     inkscape:groupmode="layer"
     id="layer1">
    <path
       inkscape:connector-curvature="0"
       id="path898"
       style="font-style:normal;font-size:medium;text-anchor:middle;fill:none;fill-opacity:1;stroke:#000000;stroke-width:0.25;stroke-linecap:butt;stroke-linejoin:bevel;stroke-dasharray:none;stroke-opacity:1"
       d="m 79.857073,54.45991 -2.5102,-0.38176 1.430139,-9.4036 2.5102,0.38176 -0.104989,0.6903 -1.670252,-0.25402 -1.220168,8.023 1.670248,0.25402 z" />
    <path
       inkscape:connector-curvature="0"
       id="path900"
       style="font-style:normal;font-size:medium;text-anchor:middle;fill:none;fill-opacity:1;stroke:#000000;stroke-width:0.25;stroke-linecap:butt;stroke-linejoin:bevel;stroke-dasharray:none;stroke-opacity:1"
       d="m 86.212782,53.49044 -3.890811,-0.59173 0.11159,-0.73375 1.496471,0.22759 0.732689,-4.81766 -1.49647,-0.22759 0.0999,-0.65651 q 0.30412,0.0462 0.65903,0.0509 0.355639,-2.3e-4 0.548931,-0.0696 0.240408,-0.0869 0.393819,-0.25126 0.158969,-0.16845 0.225999,-0.47929 l 0.748231,0.1138 -0.985239,6.47825 1.4675,0.22318 z" />
    <path
       inkscape:connector-curvature="0"
       id="path902"
       style="font-style:normal;font-size:medium;text-anchor:middle;fill:none;fill-opacity:1;stroke:#000000;stroke-width:0.25;stroke-linecap:butt;stroke-linejoin:bevel;stroke-dasharray:none;stroke-opacity:1"
       d="m 93.455204,50.91237 q -0.294402,1.93575 -1.040662,2.75078 -0.740699,0.81094 -2.015109,0.61713 -1.29372,-0.19676 -1.752812,-1.20499 -0.454268,-1.00748 -0.16501,-2.90944 0.291462,-1.91645 1.033632,-2.73704 0.7429,-0.82542 2.022128,-0.63087 1.29372,0.19676 1.745793,1.21873 0.457618,1.01787 0.17204,2.8957 z m -1.602891,1.99852 q 0.22842,-0.36532 0.366368,-0.88268 0.143521,-0.52146 0.25658,-1.26487 0.111591,-0.73374 0.131061,-1.28395 0.02429,-0.54947 -0.0922,-0.95244 -0.112432,-0.3974 -0.378262,-0.63045 -0.261008,-0.23231 -0.719597,-0.30205 -0.453771,-0.069 -0.781691,0.0737 -0.323101,0.14348 -0.554881,0.49841 -0.218459,0.33226 -0.368581,0.89716 -0.145288,0.56566 -0.249539,1.25113 -0.114519,0.75306 -0.138509,1.268 -0.024,0.51495 0.0889,0.94204 0.102039,0.40076 0.361569,0.64273 0.264371,0.2427 0.747101,0.31612 0.453768,0.069 0.78169,-0.0737 0.32793,-0.14275 0.550048,-0.49914 z" />
    <path
       inkscape:connector-curvature="0"
       id="path904"
       style="font-style:normal;font-size:medium;text-anchor:middle;fill:none;fill-opacity:1;stroke:#000000;stroke-width:0.25;stroke-linecap:butt;stroke-linejoin:bevel;stroke-dasharray:none;stroke-opacity:1"
       d="m 96.617472,57.0089 -2.5102,-0.38176 0.104989,-0.6903 1.670241,0.25402 1.220171,-8.023 -1.670241,-0.25401 0.104982,-0.69031 2.510199,0.38176 z" />
    <path
       inkscape:connector-curvature="0"
       id="path906"
       style="font-style:normal;font-size:medium;text-anchor:middle;fill:none;fill-opacity:1;stroke:#000000;stroke-width:0.25;stroke-linecap:butt;stroke-linejoin:bevel;stroke-dasharray:none;stroke-opacity:1"
       d="m 105.0441,56.35439 -2.83846,-0.43169 0.11159,-0.73375 0.94133,0.14316 0.86998,-5.72035 -0.94133,-0.14316 0.11159,-0.73376 2.83846,0.43168 -0.11159,0.73376 -0.94133,-0.14316 -0.86997,5.72036 0.94132,0.14316 z" />
    <path
       inkscape:connector-curvature="0"
       id="path908"
       style="font-style:normal;font-size:medium;text-anchor:middle;fill:none;fill-opacity:1;stroke:#000000;stroke-width:0.25;stroke-linecap:butt;stroke-linejoin:bevel;stroke-dasharray:none;stroke-opacity:1"
       d="m 114.42355,57.78086 -3.89081,-0.59173 0.1116,-0.73376 1.49646,0.22759 0.73269,-4.81765 -1.49647,-0.22759 0.0998,-0.65651 q 0.30412,0.0462 0.65902,0.0509 0.35564,-2.3e-4 0.54894,-0.0696 0.24041,-0.0869 0.39382,-0.25127 0.15896,-0.16844 0.22599,-0.47927 l 0.74824,0.11379 -0.98524,6.47824 1.4675,0.22318 z" />
    <path
       inkscape:connector-curvature="0"
       id="path910"
       style="font-style:normal;font-size:medium;text-anchor:middle;fill:none;fill-opacity:1;stroke:#000000;stroke-width:0.25;stroke-linecap:butt;stroke-linejoin:bevel;stroke-dasharray:none;stroke-opacity:1"
       d="m 121.66597,55.20278 q -0.2944,1.93576 -1.04066,2.75079 -0.7407,0.81094 -2.01511,0.61712 -1.29372,-0.19675 -1.75281,-1.20498 -0.45428,-1.00749 -0.16502,-2.90945 0.29146,-1.91644 1.03364,-2.73703 0.7429,-0.82541 2.02213,-0.63086 1.29373,0.19675 1.74579,1.21872 0.45763,1.01788 0.17204,2.89569 z m -1.60289,1.99852 q 0.22842,-0.36532 0.36637,-0.88268 0.14354,-0.52145 0.2566,-1.26487 0.11159,-0.73374 0.13104,-1.28395 0.0243,-0.54946 -0.0922,-0.95242 -0.11243,-0.3974 -0.37826,-0.63045 -0.26101,-0.23232 -0.7196,-0.30206 -0.45377,-0.069 -0.7817,0.0737 -0.32309,0.14349 -0.55487,0.49841 -0.21845,0.33226 -0.36858,0.89716 -0.14529,0.56565 -0.24955,1.25113 -0.11452,0.75306 -0.13852,1.26799 -0.024,0.51495 0.0889,0.94204 0.10203,0.40076 0.36157,0.64273 0.26437,0.2427 0.7471,0.31612 0.45377,0.069 0.78169,-0.0737 0.32793,-0.14275 0.55005,-0.49914 z" />
    <path
       class="sticker"
       d="m 49.075372,310.21382 -9.92321,1.2468 -13.25179,-93.56553 9.87914,-1.55784 z m -3.39947,-145.96337 -9.99766,-0.26681 0.50252,-45.78598 10.00112,-0.0473 z m -1.8345,-93.30393 -9.88804,1.50041 -8.65478,-51.56303 9.83604,-1.81025 z m 99.871528,138.01396 9.94606,1.04902 -9.81707,109.54888 -9.97409,-0.7361 z m -99.643558,-283.664073 -1.04421,-9.94659 44.693049,-5.40297 1.356122,9.90887 z m -8.93475,93.777243 -9.94001,-1.10485 8.78858,-92.242873 10.08618,-0.42952 z m 98.733208,299.74863 -1.16633,9.93299 -81.862608,-8.31101 -1.76352,-10.23044 z m 7.69435,-252.48217 9.91657,-1.29861 6.89675,46.92697 -9.87088,1.60948 z m 4.29603,93.80747 9.98346,0.596 -2.13149,48.49903 -9.99725,-0.28213 z m -99.676328,-41.99725 -9.995511,0.33832 -2.324919,-46.89006 9.97995,-0.65207 z m 84.281788,-100.19866 9.78206,-2.08247 11.02825,48.08222 -9.7118,2.38869 z m -94.684158,198.38558 -9.79492,-2.02094 9.83775,-51.77811 9.85356,1.71225 z m 112.725108,-102.7593 9.97498,0.7242 -2.62858,46.25595 -9.99281,-0.41052 z m -59.430287,-193.722233 3.704778,-9.28976 21.758769,8.28376 -3.41115,9.40151 z m 22.052397,8.39551 9.80855,-1.95375 19.27073,89.393313 -9.74234,2.26088 z"
       id="path5479"
       style="fill:#e5e5e5;fill-opacity:1;stroke:#000000;stroke-width:0.25;stroke-linecap:butt;stroke-linejoin:bevel;stroke-dasharray:none;stroke-opacity:1"
       inkscape:connector-curvature="0" />
    <path
       class="outer"
       d="m 151.47875,65.0415 6.89675,46.92697 -9.87088,1.60948 9.97498,0.7242 -2.62858,46.25595 -9.99281,-0.41052 9.98346,0.596 -2.13149,48.49903 -9.99725,-0.28213 9.94606,1.04902 -9.81707,109.54888 -9.97409,-0.7361 -1.16633,9.93299 -81.862608,-8.31101 -1.76352,-10.23044 -9.92321,1.2468 -13.25179,-93.56553 9.87914,-1.55784 -9.79492,-2.02094 9.83775,-51.77811 9.85356,1.71225 -9.99766,-0.26681 0.50252,-45.78598 10.00112,-0.0473 -9.995511,0.33832 -2.324919,-46.89006 9.97995,-0.65207 -9.88804,1.50041 -8.65478,-51.56303 9.83604,-1.81025 -9.94001,-1.10485 8.78858,-92.242873 10.08618,-0.42952 -1.04421,-9.94659 44.693049,-5.40297 1.356122,9.90887 3.704778,-9.28976 21.758769,8.28376 -3.41115,9.40151 9.80855,-1.95375 19.27073,89.393313 -9.74234,2.26088 9.78206,-2.08247 11.02825,48.08222 -9.7118,2.38869 z"
       id="path5481"
       style="fill:none;stroke:#000000;stroke-width:0.25;stroke-linecap:butt;stroke-linejoin:bevel;stroke-dasharray:none;stroke-dashoffset:0;stroke-opacity:1"
       inkscape:connector-curvature="0" />
    <path
       inkscape:connector-curvature="0"
       id="path913"
       style="font-style:normal;font-size:medium;text-anchor:middle;fill:none;fill-opacity:1;stroke:#000000;stroke-width:0.25;stroke-linecap:butt;stroke-linejoin:bevel;stroke-dasharray:none;stroke-opacity:1"
       d="m 39.171612,266.25312 0.1362,0.96157 1.82311,-0.2582 0.11832,0.83542 -1.82311,0.25821 0.43938,3.10234 -1.00075,0.14174 -4.09925,-2.61951 -0.11339,-0.8006 3.9595,-0.56079 -0.13619,-0.9616 z m -0.44167,1.89558 -2.92394,0.41412 3.27952,2.09648 z" />
    <path
       inkscape:connector-curvature="0"
       id="path915"
       style="font-style:normal;font-size:medium;text-anchor:middle;fill:none;fill-opacity:1;stroke:#000000;stroke-width:0.25;stroke-linecap:butt;stroke-linejoin:bevel;stroke-dasharray:none;stroke-opacity:1"
       d="m 36.951862,263.52275 0.14728,1.03992 -1.24006,0.17563 -0.14728,-1.03992 z m 3.62012,-0.51271 0.14729,1.03992 -1.24007,0.17563 -0.14728,-1.03992 z" />
    <path
       inkscape:connector-curvature="0"
       id="path917"
       style="font-style:normal;font-size:medium;text-anchor:middle;fill:none;fill-opacity:1;stroke:#000000;stroke-width:0.25;stroke-linecap:butt;stroke-linejoin:bevel;stroke-dasharray:none;stroke-opacity:1"
       d="m 39.690132,256.7836 0.49669,3.507 -0.66136,0.0937 -0.19104,-1.34885 -4.34241,0.61503 0.19104,1.34882 -0.59175,0.0838 q -0.0388,-0.27411 -0.12666,-0.58124 -0.0922,-0.30652 -0.20207,-0.45516 -0.13712,-0.18476 -0.31848,-0.27448 -0.18634,-0.0934 -0.47162,-0.0708 l -0.0955,-0.67442 5.83919,-0.82701 -0.18734,-1.32276 z" />
    <path
       inkscape:connector-curvature="0"
       id="path920"
       style="font-style:normal;font-size:medium;text-anchor:middle;fill:none;fill-opacity:1;stroke:#000000;stroke-width:0.25;stroke-linecap:butt;stroke-linejoin:bevel;stroke-dasharray:none;stroke-opacity:1"
       d="m 142.63115,261.63246 q -0.84476,-0.0757 -1.34578,-0.78684 -0.50142,-0.70676 -0.41199,-1.70471 0.0949,-1.05924 0.69853,-1.6405 0.60321,-0.57687 1.45673,-0.50038 0.54274,0.0486 0.95219,0.40299 0.41384,0.35478 0.6207,0.95131 l 0.0263,0.003 q 0.3272,-0.50014 0.6826,-0.72419 0.35501,-0.21968 0.85399,-0.17497 0.73533,0.0659 1.17143,0.71385 0.43608,0.64796 0.35254,1.58028 -0.0875,0.97607 -0.60797,1.51622 -0.52051,0.54017 -1.24271,0.47545 -0.44208,-0.0396 -0.84632,-0.3538 -0.39985,-0.31379 -0.59273,-0.86937 l -0.0263,-0.003 q -0.31753,0.58923 -0.73174,0.87863 -0.4142,0.28937 -1.00947,0.23603 z m 3.27504,-0.75221 q 0.46833,0.042 0.77664,-0.2966 0.31229,-0.33382 0.3625,-0.89408 0.0494,-0.55149 -0.18143,-0.92956 -0.23124,-0.3737 -0.6777,-0.4137 -0.31513,-0.0282 -0.5628,0.12605 -0.24369,0.15906 -0.45532,0.50189 -0.0933,0.15488 -0.24729,0.44553 -0.15439,0.29501 -0.26344,0.57645 0.25005,0.45921 0.54591,0.65338 0.29587,0.19418 0.70293,0.23064 z m -3.2774,-0.1569 q 0.40268,0.0361 0.6595,-0.12181 0.2608,-0.15312 0.55219,-0.64762 0.11475,-0.19709 0.21987,-0.43477 0.10513,-0.23764 0.29042,-0.63137 -0.17918,-0.41315 -0.52527,-0.68683 -0.34649,-0.26932 -0.81045,-0.31089 -0.59089,-0.053 -1.01255,0.31959 -0.42165,0.37256 -0.47774,0.99846 -0.0573,0.63905 0.23688,1.04926 0.29376,0.41457 0.86715,0.46598 z" />
    <path
       inkscape:connector-curvature="0"
       id="path922"
       style="font-style:normal;font-size:medium;text-anchor:middle;fill:none;fill-opacity:1;stroke:#000000;stroke-width:0.25;stroke-linecap:butt;stroke-linejoin:bevel;stroke-dasharray:none;stroke-opacity:1"
       d="m 144.17826,264.8993 0.0937,-1.04611 1.24744,0.11179 -0.0937,1.0461 z m -3.64166,-0.32634 0.0937,-1.04611 1.24744,0.11179 -0.0937,1.04611 z" />
    <path
       inkscape:connector-curvature="0"
       id="path924"
       style="font-style:normal;font-size:medium;text-anchor:middle;fill:none;fill-opacity:1;stroke:#000000;stroke-width:0.25;stroke-linecap:butt;stroke-linejoin:bevel;stroke-dasharray:none;stroke-opacity:1"
       d="m 139.94197,271.20847 0.39537,-4.412 0.9148,0.082 q 0.35274,0.49488 0.70549,0.98978 0.35234,0.49927 0.70621,0.93247 0.73881,0.91334 1.18805,1.26685 0.45362,0.35394 1.0095,0.40376 0.50773,0.0455 0.82244,-0.26604 0.31869,-0.30679 0.37243,-0.90641 0.0357,-0.39833 -0.0628,-0.87482 -0.0985,-0.47651 -0.34775,-0.94448 l 0.004,-0.0437 0.91917,0.0824 q 0.12534,0.32451 0.20599,0.85236 0.0803,0.53223 0.0367,1.01809 -0.0898,1.00232 -0.62667,1.52778 -0.53246,0.52586 -1.3597,0.45175 -0.37205,-0.0333 -0.68732,-0.1587 -0.31129,-0.12054 -0.58368,-0.33028 -0.25608,-0.195 -0.49792,-0.4505 -0.24222,-0.25115 -0.53232,-0.60807 -0.41762,-0.50951 -0.80622,-1.04733 -0.38424,-0.53742 -0.71306,-1.00367 l -0.31419,3.50597 z" />
    <path
       inkscape:connector-curvature="0"
       id="path927"
       style="font-style:normal;font-size:medium;text-anchor:middle;fill:none;fill-opacity:1;stroke:#000000;stroke-width:0.25;stroke-linecap:butt;stroke-linejoin:bevel;stroke-dasharray:none;stroke-opacity:1"
       d="m 60.518521,-78.505253 -3.516389,0.4251 -0.0802,-0.66313 1.35246,-0.1635 -0.526359,-4.35405 -1.35246,0.1635 -0.0717,-0.59333 q 0.274849,-0.0332 0.5837,-0.11479 0.30833,-0.0859 0.45919,-0.19273 0.18751,-0.13333 0.2809,-0.31282 0.0972,-0.1844 0.0804,-0.47008 l 0.67623,-0.0817 0.707792,5.85483 1.32628,-0.16033 z" />
    <path
       inkscape:connector-curvature="0"
       id="path929"
       style="font-style:normal;font-size:medium;text-anchor:middle;fill:none;fill-opacity:1;stroke:#000000;stroke-width:0.25;stroke-linecap:butt;stroke-linejoin:bevel;stroke-dasharray:none;stroke-opacity:1"
       d="m 66.207573,-79.193003 -3.516392,0.4251 -0.0802,-0.66314 1.35246,-0.1635 -0.52636,-4.35404 -1.35246,0.16349 -0.0717,-0.59333 q 0.274849,-0.0332 0.5837,-0.11478 0.308329,-0.0859 0.459189,-0.19273 0.187511,-0.13333 0.280901,-0.31283 0.0972,-0.18439 0.0804,-0.47007 l 0.67623,-0.0817 0.707792,5.85483 1.326279,-0.16033 z" />
    <path
       inkscape:connector-curvature="0"
       id="path931"
       style="font-style:normal;font-size:medium;text-anchor:middle;fill:none;fill-opacity:1;stroke:#000000;stroke-width:0.25;stroke-linecap:butt;stroke-linejoin:bevel;stroke-dasharray:none;stroke-opacity:1"
       d="m 69.280793,-83.247403 -1.042702,0.12606 -0.15032,-1.24339 1.042702,-0.12605 z m 0.438809,3.62983 -1.042699,0.12605 -0.15032,-1.24339 1.042699,-0.12605 z" />
    <path
       inkscape:connector-curvature="0"
       id="path933"
       style="font-style:normal;font-size:medium;text-anchor:middle;fill:none;fill-opacity:1;stroke:#000000;stroke-width:0.25;stroke-linecap:butt;stroke-linejoin:bevel;stroke-dasharray:none;stroke-opacity:1"
       d="m 76.333553,-80.417143 -4.397671,0.53164 -0.110231,-0.91181 q 0.410631,-0.44803 0.821251,-0.89606 0.414991,-0.44856 0.765061,-0.88484 0.73955,-0.91273 0.99182,-1.42573 0.25174,-0.51734 0.184758,-1.07142 -0.0612,-0.50608 -0.4314,-0.74905 -0.366379,-0.24786 -0.964078,-0.1756 -0.39701,0.048 -0.84259,0.24351 -0.445571,0.19551 -0.8514,0.53673 l -0.0436,0.005 -0.110759,-0.91618 q 0.291298,-0.19014 0.79081,-0.3789 0.50387,-0.18928 0.988139,-0.24782 0.99907,-0.12078 1.62478,0.29492 0.625171,0.41134 0.72485,1.23591 0.0448,0.37083 -0.01209,0.70528 -0.0531,0.32956 -0.201541,0.63965 -0.137449,0.29106 -0.337029,0.58078 -0.195221,0.28919 -0.483921,0.64723 -0.41144,0.51453 -0.85658,1.00657 -0.44567,0.48767 -0.833279,0.90636 l 3.494569,-0.42247 z" />
    <path
       inkscape:connector-curvature="0"
       style="fill:#000000;stroke:#000000;stroke-width:0.25;stroke-linecap:butt;stroke-linejoin:bevel;stroke-dasharray:none;stroke-opacity:1"
       id="path5495"
       d="m 39.602012,-27.814964 10.90339,-9.006448 -8.41466,9.243568 6.51772,10.666272 z"
       class="arrow" />
    <path
       d="m 50.045412,-22.689654 -3.89081,-0.59173 0.1116,-0.733748 1.49646,0.227579 0.73269,-4.81765 -1.49647,-0.227581 0.0999,-0.656519 q 0.30412,0.0463 0.65903,0.0508 0.35564,-2.4e-4 0.54894,-0.0696 0.24041,-0.0869 0.39381,-0.251259 0.15897,-0.168449 0.226,-0.479279 l 0.74824,0.113789 -0.98524,6.478241 1.4675,0.223189 z"
       style="font-style:normal;font-size:medium;text-anchor:middle;fill:none;fill-opacity:1;stroke:#000000;stroke-width:0.25;stroke-linecap:butt;stroke-linejoin:bevel;stroke-dasharray:none;stroke-opacity:1"
       id="path936"
       inkscape:connector-curvature="0" />
    <path
       inkscape:connector-curvature="0"
       id="path939"
       style="font-style:normal;font-size:medium;text-anchor:middle;fill:none;fill-opacity:1;stroke:#000000;stroke-width:0.25;stroke-linecap:butt;stroke-linejoin:bevel;stroke-dasharray:none;stroke-opacity:1"
       d="m 35.740812,-25.679903 -0.0921,0.966811 1.833009,0.174638 -0.08,0.839952 -1.833011,-0.174652 -0.29718,3.119181 -1.006189,-0.0959 -3.37425,-3.504279 0.0767,-0.80495 3.981,0.379291 0.0921,-0.966811 z m -0.8721,1.740069 -2.93981,-0.280098 2.69931,2.804311 z" />
    <path
       inkscape:connector-curvature="0"
       id="path941"
       style="font-style:normal;font-size:medium;text-anchor:middle;fill:none;fill-opacity:1;stroke:#000000;stroke-width:0.25;stroke-linecap:butt;stroke-linejoin:bevel;stroke-dasharray:none;stroke-opacity:1"
       d="m 34.219982,-28.853104 -0.0996,1.045562 -1.2468,-0.11879 0.0996,-1.045562 z m 3.63977,0.346781 -0.0996,1.04556 -1.2468,-0.11879 0.0996,-1.04556 z" />
    <path
       inkscape:connector-curvature="0"
       id="path943"
       style="font-style:normal;font-size:medium;text-anchor:middle;fill:none;fill-opacity:1;stroke:#000000;stroke-width:0.25;stroke-linecap:butt;stroke-linejoin:bevel;stroke-dasharray:none;stroke-opacity:1"
       d="m 38.456202,-34.766544 -0.33595,3.52602 -0.66496,-0.0633 0.12921,-1.356159 -4.36597,-0.41598 -0.12921,1.356158 -0.59496,-0.0567 q 0.0263,-0.275598 0.0125,-0.594759 -0.0181,-0.319559 -0.0902,-0.48976 -0.0902,-0.211659 -0.2456,-0.341241 -0.15936,-0.134369 -0.44205,-0.178959 l 0.0646,-0.678079 5.87088,0.55935 0.12671,-1.32992 z" />
    <path
       inkscape:connector-curvature="0"
       id="path946"
       style="font-style:normal;font-size:medium;text-anchor:middle;fill:none;fill-opacity:1;stroke:#000000;stroke-width:0.25;stroke-linecap:butt;stroke-linejoin:bevel;stroke-dasharray:none;stroke-opacity:1"
       d="m 97.139563,316.90262 3.523877,0.35777 -0.0675,0.66453 -1.355339,-0.13758 -0.442978,4.36332 1.355337,0.13758 -0.0604,0.5946 q -0.275438,-0.028 -0.594668,-0.0164 -0.319662,0.0161 -0.49031,0.0872 -0.212212,0.0889 -0.34276,0.24347 -0.13535,0.15854 -0.181689,0.44096 l -0.677672,-0.0688 0.595669,-5.86729 -1.3291,-0.13494 z" />
    <path
       inkscape:connector-curvature="0"
       id="path948"
       style="font-style:normal;font-size:medium;text-anchor:middle;fill:none;fill-opacity:1;stroke:#000000;stroke-width:0.25;stroke-linecap:butt;stroke-linejoin:bevel;stroke-dasharray:none;stroke-opacity:1"
       d="m 90.756202,318.38802 q 0.100761,-0.99245 0.820481,-1.55543 0.714909,-0.55907 1.66365,-0.46276 0.48092,0.0488 0.859319,0.23741 0.378391,0.18862 0.650319,0.51216 0.339162,0.40105 0.483841,1.02089 0.140301,0.61939 0.0546,1.4632 -0.0879,0.86566 -0.339428,1.51593 -0.25591,0.64984 -0.71533,1.12884 -0.434901,0.45498 -1.070581,0.66874 -0.636119,0.2181 -1.444951,0.136 -0.25795,-0.0262 -0.430609,-0.0658 -0.172659,-0.0396 -0.346149,-0.11464 l 0.0848,-0.83508 0.0437,0.004 q 0.115758,0.078 0.359198,0.16015 0.23862,0.086 0.49657,0.11224 0.939991,0.0954 1.559542,-0.43799 0.619098,-0.52904 0.812559,-1.52091 -0.38989,0.18569 -0.755571,0.2634 -0.370488,0.0816 -0.8383,0.0342 -0.415348,-0.0422 -0.722149,-0.15283 -0.31161,-0.1067 -0.62036,-0.37219 -0.357669,-0.30575 -0.508759,-0.73189 -0.155462,-0.42656 -0.0964,-1.00803 z m 0.89108,0.0551 q -0.0413,0.40659 0.0541,0.68572 0.091,0.27869 0.34644,0.5034 0.18691,0.16031 0.427302,0.22889 0.240398,0.0685 0.507098,0.0956 0.371621,0.0377 0.699662,-0.0172 0.328038,-0.0551 0.683328,-0.20449 0.0185,-0.0953 0.0322,-0.18667 0.01331,-0.087 0.027,-0.22251 0.0701,-0.6908 -0.0289,-1.10726 -0.103889,-0.41248 -0.329571,-0.6695 -0.181578,-0.2128 -0.403979,-0.32813 -0.227211,-0.11142 -0.50265,-0.13939 -0.63395,-0.0644 -1.035889,0.28356 -0.402391,0.35226 -0.47607,1.07802 z" />
    <path
       inkscape:connector-curvature="0"
       id="path950"
       style="font-style:normal;font-size:medium;text-anchor:middle;fill:none;fill-opacity:1;stroke:#000000;stroke-width:0.25;stroke-linecap:butt;stroke-linejoin:bevel;stroke-dasharray:none;stroke-opacity:1"
       d="m 87.549592,319.60407 1.044919,0.10607 -0.1265,1.24603 -1.044919,-0.10607 z m 0.369301,-3.63757 1.044918,0.1061 -0.126499,1.24603 -1.044919,-0.1061 z" />
    <path
       inkscape:connector-curvature="0"
       id="path952"
       style="font-style:normal;font-size:medium;text-anchor:middle;fill:none;fill-opacity:1;stroke:#000000;stroke-width:0.25;stroke-linecap:butt;stroke-linejoin:bevel;stroke-dasharray:none;stroke-opacity:1"
       d="m 81.662481,315.33134 3.523872,0.35775 -0.0675,0.66455 -1.355331,-0.13761 -0.442978,4.36332 1.355328,0.13761 -0.0604,0.59457 q -0.275439,-0.028 -0.594659,-0.0161 -0.319662,0.0161 -0.49031,0.0872 -0.212212,0.0889 -0.342752,0.24347 -0.135358,0.15851 -0.1817,0.44096 l -0.677669,-0.0688 0.595669,-5.8673 -1.3291,-0.13493 z" />
    <path
       inkscape:connector-curvature="0"
       id="path955"
       style="font-style:normal;font-size:medium;text-anchor:middle;fill:none;fill-opacity:1;stroke:#000000;stroke-width:0.25;stroke-linecap:butt;stroke-linejoin:bevel;stroke-dasharray:none;stroke-opacity:1"
       d="m 95.245832,-79.720774 -3.31021,-1.260219 0.237659,-0.62426 1.273162,0.4847 1.560428,-4.09876 -1.273159,-0.48471 0.21264,-0.55854 q 0.258739,0.0985 0.570061,0.17005 0.312888,0.0674 0.496128,0.0431 0.22801,-0.0308 0.3942,-0.14616 0.171871,-0.11796 0.289931,-0.37866 l 0.636579,0.24236 -2.098289,5.51155 1.248511,0.47532 z" />
    <path
       inkscape:connector-curvature="0"
       id="path957"
       style="font-style:normal;font-size:medium;text-anchor:middle;fill:none;fill-opacity:1;stroke:#000000;stroke-width:0.25;stroke-linecap:butt;stroke-linejoin:bevel;stroke-dasharray:none;stroke-opacity:1"
       d="m 100.60132,-77.681893 -3.310219,-1.26023 0.237673,-0.62426 1.273159,0.48471 1.560427,-4.09877 -1.273159,-0.4847 0.212641,-0.55854 q 0.258741,0.0985 0.57006,0.17005 0.312888,0.0674 0.496128,0.0431 0.228,-0.0307 0.3942,-0.14616 0.17187,-0.11796 0.28993,-0.37865 l 0.63658,0.24235 -2.098288,5.51156 1.248518,0.47531 z" />
    <path
       inkscape:connector-curvature="0"
       id="path959"
       style="font-style:normal;font-size:medium;text-anchor:middle;fill:none;fill-opacity:1;stroke:#000000;stroke-width:0.25;stroke-linecap:butt;stroke-linejoin:bevel;stroke-dasharray:none;stroke-opacity:1"
       d="m 105.20831,-79.840233 -0.98156,-0.37369 0.44562,-1.17049 0.98156,0.37369 z m -1.30087,3.417 -0.98157,-0.37369 0.44562,-1.17049 0.98156,0.37368 z" />
    <path
       inkscape:connector-curvature="0"
       id="path961"
       style="font-style:normal;font-size:medium;text-anchor:middle;fill:none;fill-opacity:1;stroke:#000000;stroke-width:0.25;stroke-linecap:butt;stroke-linejoin:bevel;stroke-dasharray:none;stroke-opacity:1"
       d="m 110.82389,-76.014253 q -0.16261,0.42713 -0.46722,0.75787 -0.3046,0.33075 -0.6773,0.49451 -0.40514,0.17492 -0.87526,0.17462 -0.46444,-0.003 -1.00245,-0.20765 -0.50105,-0.19076 -0.92448,-0.47422 -0.42501,-0.27937 -0.68906,-0.54917 l 0.32991,-0.86656 0.0575,0.0219 q 0.25547,0.34177 0.64939,0.66572 0.39548,0.31984 0.83082,0.48557 0.29159,0.11101 0.59392,0.13206 0.30645,0.0226 0.59818,-0.10143 0.24794,-0.10779 0.43212,-0.31981 0.18827,-0.21046 0.31179,-0.53491 0.12039,-0.31624 0.0924,-0.57612 -0.0239,-0.25832 -0.16691,-0.46324 -0.15414,-0.23737 -0.43871,-0.41624 -0.27891,-0.1814 -0.65675,-0.32525 -0.36141,-0.13759 -0.71694,-0.21655 -0.35141,-0.0774 -0.61249,-0.12033 l 1.19924,-3.15004 3.67985,1.40094 -0.27363,0.71872 -2.8872,-1.09918 -0.61917,1.62636 q 0.18287,0.0508 0.37081,0.11293 0.18803,0.0619 0.32355,0.11354 0.49694,0.18919 0.83784,0.41774 0.34245,0.22443 0.57328,0.55681 0.24257,0.35098 0.28725,0.77707 0.0447,0.42611 -0.16015,0.96412 z" />
    <path
       inkscape:connector-curvature="0"
       id="path964"
       style="font-style:normal;font-size:medium;text-anchor:middle;fill:none;fill-opacity:1;stroke:#000000;stroke-width:0.25;stroke-linecap:butt;stroke-linejoin:bevel;stroke-dasharray:none;stroke-opacity:1"
       d="m 123.7911,-30.196772 q -0.8291,0.178729 -1.51881,-0.351401 -0.68877,-0.525841 -0.89992,-1.505299 -0.22411,-1.03959 0.17952,-1.773952 0.40456,-0.73007 1.24225,-0.910648 0.53268,-0.114832 1.02894,0.101859 0.50056,0.21577 0.87533,0.723879 l 0.0258,-0.006 q 0.16381,-0.57477 0.43658,-0.89431 0.2737,-0.315241 0.76343,-0.42081 0.7217,-0.15558 1.33063,0.333518 0.60894,0.489112 0.80619,1.40412 0.20651,0.957982 -0.12997,1.628421 -0.3365,0.67043 -1.0453,0.82324 -0.43389,0.0935 -0.91322,-0.0864 -0.47505,-0.1808 -0.8243,-0.65396 l -0.0258,0.006 q -0.12812,0.656979 -0.43761,1.056371 -0.30951,0.399388 -0.89375,0.52533 z m 2.90361,-1.691362 q 0.45966,-0.0991 0.65343,-0.513988 0.199,-0.41153 0.0805,-0.9614 -0.11668,-0.541272 -0.44945,-0.833681 -0.33183,-0.2881 -0.77001,-0.193641 -0.3093,0.0667 -0.49994,0.287592 -0.18541,0.22429 -0.2856,0.614518 -0.0431,0.17562 -0.10375,0.49888 -0.0598,0.32757 -0.0803,0.628682 0.3752,0.36417 0.7154,0.461669 0.3402,0.0975 0.73971,0.0114 z m -3.176,0.82401 q 0.39521,-0.0852 0.59352,-0.312258 0.20352,-0.22369 0.33481,-0.782461 0.051,-0.222279 0.0807,-0.480441 0.0298,-0.258159 0.0897,-0.689168 -0.29384,-0.341241 -0.70562,-0.499721 -0.41086,-0.154199 -0.86622,-0.056 -0.57994,0.125018 -0.87185,0.60602 -0.29191,0.481018 -0.15948,1.09532 0.1352,0.627189 0.53796,0.931479 0.40368,0.30858 0.96644,0.187261 z" />
    <path
       inkscape:connector-curvature="0"
       id="path966"
       style="font-style:normal;font-size:medium;text-anchor:middle;fill:none;fill-opacity:1;stroke:#000000;stroke-width:0.25;stroke-linecap:butt;stroke-linejoin:bevel;stroke-dasharray:none;stroke-opacity:1"
       d="m 126.23906,-27.537193 -0.22133,-1.0267 1.22431,-0.26393 0.22133,1.02671 z m -3.57416,0.77049 -0.22133,-1.0267 1.22432,-0.26393 0.22133,1.0267 z" />
    <path
       inkscape:connector-curvature="0"
       id="path968"
       style="font-style:normal;font-size:medium;text-anchor:middle;fill:none;fill-opacity:1;stroke:#000000;stroke-width:0.25;stroke-linecap:butt;stroke-linejoin:bevel;stroke-dasharray:none;stroke-opacity:1"
       d="m 125.86179,-20.591262 q -0.82911,0.178729 -1.51881,-0.351401 -0.68878,-0.525841 -0.89992,-1.505289 -0.22411,-1.0396 0.17952,-1.773962 0.40455,-0.73006 1.24224,-0.910638 0.5327,-0.114842 1.02896,0.10186 0.50055,0.215759 0.87532,0.723889 l 0.0258,-0.006 q 0.1638,-0.57477 0.43659,-0.89431 0.27369,-0.315249 0.76341,-0.42082 0.7217,-0.15558 1.33064,0.333531 0.60893,0.489109 0.80618,1.404131 0.20651,0.957969 -0.12997,1.628399 -0.33649,0.670441 -1.04531,0.82324 -0.43388,0.0935 -0.91321,-0.0864 -0.47504,-0.180811 -0.8243,-0.653971 l -0.0258,0.006 q -0.1281,0.656979 -0.43761,1.05637 -0.3095,0.399378 -0.89374,0.52532 z m 2.9036,-1.691362 q 0.45966,-0.0991 0.65343,-0.513988 0.199,-0.41153 0.0805,-0.96139 -0.11669,-0.541281 -0.44945,-0.83368 -0.33184,-0.2881 -0.77001,-0.193641 -0.3093,0.0667 -0.49994,0.287591 -0.18542,0.22429 -0.28561,0.614508 -0.0431,0.17562 -0.10374,0.498891 -0.0598,0.327559 -0.0803,0.62869 0.37521,0.364161 0.71541,0.46166 0.34019,0.0975 0.7397,0.0114 z m -3.17599,0.824021 q 0.39522,-0.0852 0.59352,-0.312269 0.20353,-0.22369 0.33482,-0.78246 0.051,-0.22228 0.0807,-0.480441 0.0298,-0.25816 0.0897,-0.689161 -0.29384,-0.341249 -0.70563,-0.499729 -0.41086,-0.154191 -0.86622,-0.056 -0.57995,0.125018 -0.87186,0.606039 -0.29191,0.480999 -0.15948,1.095311 0.13521,0.62719 0.53796,0.931469 0.40368,0.308581 0.96645,0.187269 z" />
    <path
       inkscape:connector-curvature="0"
       id="path971"
       style="font-style:normal;font-size:medium;text-anchor:middle;fill:none;fill-opacity:1;stroke:#000000;stroke-width:0.25;stroke-linecap:butt;stroke-linejoin:bevel;stroke-dasharray:none;stroke-opacity:1"
       d="m 75.235503,79.20996 q -0.10278,0.67583 -0.3781,1.18712 -0.270492,0.51203 -0.649711,0.82971 -0.40074,0.32923 -0.84043,0.45993 -0.438949,0.12586 -0.931339,0.051 -0.458592,-0.0697 -0.784442,-0.2329 -0.326588,-0.15832 -0.63178,-0.39242 l -0.0961,0.24221 -0.849601,-0.12921 1.142352,-7.51129 0.907528,0.13802 -0.408188,2.68399 q 0.42908,-0.25578 0.888809,-0.38836 0.46046,-0.13741 0.996289,-0.0559 0.95581,0.14536 1.394531,0.96281 0.44355,0.81818 0.240189,2.15533 z m -0.94016,-0.1183 q 0.146828,-0.96546 -0.0961,-1.51113 -0.24225,-0.5505 -0.951859,-0.65842 -0.395841,-0.0602 -0.827771,0.0519 -0.431188,0.10728 -0.819869,0.32475 l -0.469861,3.08948 q 0.35976,0.23251 0.624642,0.34194 0.269698,0.1102 0.622088,0.1638 0.75306,0.11452 1.252752,-0.31326 0.505249,-0.43187 0.66602,-1.48904 z" />
    <path
       inkscape:connector-curvature="0"
       id="path973"
       style="font-style:normal;font-size:medium;text-anchor:middle;fill:none;fill-opacity:1;stroke:#000000;stroke-width:0.25;stroke-linecap:butt;stroke-linejoin:bevel;stroke-dasharray:none;stroke-opacity:1"
       d="m 80.423741,82.7994 -0.90271,-0.13728 0.0874,-0.57446 q -0.133162,0.0637 -0.3635,0.18179 -0.224772,0.11398 -0.43107,0.17151 -0.243782,0.0765 -0.549251,0.10415 -0.30621,0.0324 -0.702051,-0.0278 -0.728919,-0.11086 -1.16237,-0.67067 -0.433448,-0.55983 -0.319659,-1.30806 0.0932,-0.61307 0.411181,-0.94995 0.323498,-0.34098 0.84409,-0.48406 0.52542,-0.14234 1.227468,-0.1146 0.702051,0.0278 1.499611,0.10953 l 0.0213,-0.13999 q 0.047,-0.30895 -0.0332,-0.52858 -0.0754,-0.21889 -0.260501,-0.36558 -0.176199,-0.1404 -0.440661,-0.22013 -0.264449,-0.0798 -0.558909,-0.12455 -0.357221,-0.0543 -0.811202,-0.0245 -0.453239,0.0249 -0.948639,0.1323 l -0.0483,-0.007 0.140221,-0.92202 q 0.276508,-0.032 0.791769,-0.0426 0.515249,-0.0106 1.00281,0.0636 0.569622,0.0866 0.97491,0.2471 0.410851,0.15635 0.6853,0.43018 0.270351,0.26832 0.37605,0.64494 0.105712,0.37662 0.0264,0.89797 z m -0.70082,-1.46479 0.22833,-1.5013 q -0.418819,-0.039 -0.990949,-0.0767 -0.567309,-0.0369 -0.909521,0.005 -0.407898,0.0516 -0.685229,0.25139 -0.276611,0.195 -0.33901,0.60532 -0.0705,0.46342 0.173529,0.74254 0.24474,0.27429 0.81919,0.36166 0.477912,0.0727 0.901642,-0.0506 0.424468,-0.12807 0.802029,-0.33735 z" />
    <path
       inkscape:connector-curvature="0"
       id="path975"
       style="font-style:normal;font-size:medium;text-anchor:middle;fill:none;fill-opacity:1;stroke:#000000;stroke-width:0.25;stroke-linecap:butt;stroke-linejoin:bevel;stroke-dasharray:none;stroke-opacity:1"
       d="m 86.219622,83.33514 q -0.486799,0.14822 -0.91548,0.2065 -0.423849,0.059 -0.882441,-0.0107 -0.584099,-0.0888 -1.045969,-0.33194 -0.461121,-0.24793 -0.75583,-0.64835 -0.29954,-0.40116 -0.411869,-0.96153 -0.112342,-0.56037 -0.004,-1.26999 0.20116,-1.32268 1.039778,-1.96562 0.843452,-0.6422 2.035802,-0.46086 0.463421,0.0705 0.887709,0.26836 0.42912,0.19862 0.772189,0.44341 l -0.15344,1.0089 -0.0483,-0.007 q -0.365959,-0.38656 -0.783641,-0.62789 -0.412858,-0.24059 -0.832829,-0.30446 -0.772369,-0.11747 -1.300599,0.33561 -0.522671,0.44898 -0.67537,1.45305 -0.148301,0.97512 0.206129,1.56737 0.36,0.58816 1.151681,0.70856 0.275148,0.0419 0.570968,0.0128 0.29582,-0.0291 0.540322,-0.11044 0.213339,-0.0713 0.404011,-0.15587 0.191399,-0.0894 0.305257,-0.15608 l 0.0483,0.007 z" />
    <path
       inkscape:connector-curvature="0"
       id="path977"
       style="font-style:normal;font-size:medium;text-anchor:middle;fill:none;fill-opacity:1;stroke:#000000;stroke-width:0.25;stroke-linecap:butt;stroke-linejoin:bevel;stroke-dasharray:none;stroke-opacity:1"
       d="m 92.231323,84.59515 -1.197171,-0.18207 -1.80363,-2.68946 -0.674089,0.4704 -0.273842,1.80059 -0.907539,-0.13802 1.142349,-7.51129 0.907542,0.13802 -0.732692,4.81765 3.031622,-2.29981 1.144069,0.174 -2.884199,2.10986 z" />
    <path
       inkscape:connector-curvature="0"
       id="path979"
       style="font-style:normal;font-size:medium;text-anchor:middle;fill:none;fill-opacity:1;stroke:#000000;stroke-width:0.25;stroke-linecap:butt;stroke-linejoin:bevel;stroke-dasharray:none;stroke-opacity:1"
       d="m 97.221312,80.84971 -0.0483,-0.007 q -0.195411,-0.0791 -0.385551,-0.12782 -0.1846,-0.0528 -0.44527,-0.0924 -0.419978,-0.0639 -0.839618,0.0649 -0.418912,0.12397 -0.825741,0.36337 l -0.582189,3.82805 -0.907531,-0.13802 0.820049,-5.3921 0.907532,0.13802 -0.121132,0.79651 q 0.606732,-0.35224 1.044221,-0.46844 0.443039,-0.1203 0.87267,-0.055 0.23654,0.036 0.340529,0.0667 0.104701,0.026 0.312002,0.0919 z" />
    <path
       inkscape:connector-curvature="0"
       id="path981"
       style="font-style:normal;font-size:medium;text-anchor:middle;fill:none;fill-opacity:1;stroke:#000000;stroke-width:0.25;stroke-linecap:butt;stroke-linejoin:bevel;stroke-dasharray:none;stroke-opacity:1"
       d="m 102.32509,83.46815 -3.972867,-0.60421 q -0.0756,0.49721 0.01749,0.89168 0.0939,0.38963 0.31855,0.66581 0.215779,0.26989 0.540899,0.43787 0.329951,0.16871 0.74509,0.23185 0.550318,0.0837 1.138488,-0.0491 0.59374,-0.13688 0.86258,-0.31332 l 0.0483,0.007 -0.1505,0.98961 q -0.48796,0.12334 -0.98569,0.181 -0.49773,0.0577 -1.023898,-0.0224 -1.341991,-0.2041 -1.984928,-1.04272 -0.642202,-0.84345 -0.438841,-2.18061 0.20116,-1.32268 1.03863,-1.9905 0.842291,-0.66707 2.020147,-0.48793 1.09098,0.16592 1.583,0.89269 0.49685,0.7275 0.31845,1.90054 z m -0.77768,-0.82948 q 0.10381,-0.71518 -0.19392,-1.16052 -0.29293,-0.44459 -1.01702,-0.55472 -0.728929,-0.11086 -1.228719,0.2527 -0.49498,0.36429 -0.649808,0.99268 z" />
    <path
       inkscape:connector-curvature="0"
       id="path983"
       style="font-style:normal;font-size:medium;text-anchor:middle;fill:none;fill-opacity:1;stroke:#000000;stroke-width:0.25;stroke-linecap:butt;stroke-linejoin:bevel;stroke-dasharray:none;stroke-opacity:1"
       d="m 107.39375,85.31077 q -0.11232,0.73857 -0.79734,1.11842 -0.68019,0.38057 -1.73737,0.21979 -0.59858,-0.091 -1.07933,-0.30738 -0.47519,-0.22044 -0.78741,-0.44079 l 0.15491,-1.01855 0.0483,0.007 q 0.38044,0.38878 0.87725,0.66189 0.49754,0.26829 0.98027,0.34171 0.59859,0.091 0.96587,-0.0507 0.36727,-0.14171 0.43041,-0.55685 0.0485,-0.3186 -0.11002,-0.51063 -0.15848,-0.19204 -0.66221,-0.38717 -0.18649,-0.0728 -0.49145,-0.17847 -0.30013,-0.10492 -0.5457,-0.21141 -0.68098,-0.29618 -0.92522,-0.70374 -0.23866,-0.41166 -0.15791,-0.94267 0.0507,-0.33307 0.23061,-0.60698 0.18477,-0.27319 0.5,-0.46232 0.30483,-0.18576 0.7398,-0.25297 0.44053,-0.0713 0.95705,0.007 0.48274,0.0734 0.95677,0.26898 0.47959,0.19147 0.78215,0.41036 l -0.14757,0.97028 -0.0483,-0.007 q -0.30866,-0.30872 -0.77944,-0.55811 -0.47005,-0.25422 -0.94795,-0.3269 -0.49721,-0.0756 -0.86932,0.0653 -0.37137,0.13615 -0.42863,0.51267 -0.0507,0.33309 0.13122,0.53362 0.17705,0.19979 0.61467,0.375 0.2422,0.0961 0.54234,0.20102 0.30497,0.10566 0.5052,0.18548 0.61035,0.241 0.8995,0.64552 0.28841,0.40935 0.19884,0.99827 z" />
    <path
       inkscape:connector-curvature="0"
       id="path985"
       style="font-style:normal;font-size:medium;text-anchor:middle;fill:none;fill-opacity:1;stroke:#000000;stroke-width:0.25;stroke-linecap:butt;stroke-linejoin:bevel;stroke-dasharray:none;stroke-opacity:1"
       d="m 111.26791,87.44092 q -0.26613,0.0287 -0.57686,0.0259 -0.30589,-0.002 -0.54243,-0.0381 -0.82547,-0.12554 -1.18756,-0.63499 -0.36209,-0.50945 -0.21305,-1.4894 l 0.43609,-2.86741 -0.61307,-0.0932 0.116,-0.76271 0.61306,0.0932 0.23567,-1.54957 0.90753,0.13802 -0.23566,1.54957 1.873,0.28485 -0.116,0.76271 -1.873,-0.28485 -0.37369,2.45709 q -0.0646,0.42481 -0.082,0.66911 -0.0167,0.23948 0.0676,0.46467 0.0768,0.20924 0.24632,0.32886 0.17505,0.11554 0.55641,0.17354 0.22205,0.0338 0.47297,0.008 0.25165,-0.0309 0.36445,-0.0582 l 0.0482,0.007 z" />
  </g>
</svg>
