<?xml version="1.0" encoding="UTF-8" standalone="no"?>
<!-- Created with Inkscape (http://www.inkscape.org/) -->

<svg
   xmlns:dc="http://purl.org/dc/elements/1.1/"
   xmlns:cc="http://creativecommons.org/ns#"
   xmlns:rdf="http://www.w3.org/1999/02/22-rdf-syntax-ns#"
   xmlns:svg="http://www.w3.org/2000/svg"
   xmlns="http://www.w3.org/2000/svg"
   xmlns:sodipodi="http://sodipodi.sourceforge.net/DTD/sodipodi-0.dtd"
   xmlns:inkscape="http://www.inkscape.org/namespaces/inkscape"
   width="210mm"
   height="297mm"
   viewBox="0 0 210 297"
   version="1.1"
   id="svg3280"
   inkscape:version="0.92.2 (5c3e80d, 2017-08-06)"
   sodipodi:docname="back_standalone_1_2.svg">
  <defs
     id="defs3274" />
  <sodipodi:namedview
     id="base"
     pagecolor="#ffffff"
     bordercolor="#666666"
     borderopacity="1.0"
     inkscape:pageopacity="0.0"
     inkscape:pageshadow="2"
     inkscape:zoom="0.24748737"
     inkscape:cx="184.83416"
     inkscape:cy="518.57864"
     inkscape:document-units="mm"
     inkscape:current-layer="layer1"
     showgrid="false"
     inkscape:window-width="1920"
     inkscape:window-height="1017"
     inkscape:window-x="-8"
     inkscape:window-y="209"
     inkscape:window-maximized="1" />
  <metadata
     id="metadata3277">
    <rdf:RDF>
      <cc:Work
         rdf:about="">
        <dc:format>image/svg+xml</dc:format>
        <dc:type
           rdf:resource="http://purl.org/dc/dcmitype/StillImage" />
        <dc:title></dc:title>
      </cc:Work>
    </rdf:RDF>
  </metadata>
  <g
     inkscape:label="Layer 1"
     inkscape:groupmode="layer"
     id="layer1">
    <path
       d="m 110.38335,36.123284 h -2.53907 v -9.51173 h 2.53907 v 0.69826 h -1.68946 v 8.11522 h 1.68946 z"
       style="font-style:normal;font-size:medium;text-anchor:middle;fill:none;fill-opacity:1;stroke:#000000;stroke-width:0.06614583;stroke-linecap:butt;stroke-linejoin:bevel;stroke-dasharray:none;stroke-opacity:1"
       id="path899-0"
       inkscape:connector-curvature="0" />
    <path
       d="m 116.29643,30.708244 q 0.23438,0.20996 0.38574,0.52734 0.15137,0.31739 0.15137,0.82031 0,0.49806 -0.18066,0.91309 -0.18067,0.41503 -0.50782,0.72266 -0.36621,0.34179 -0.86425,0.5078 -0.49317,0.16114 -1.08399,0.16114 -0.60547,0 -1.1914,-0.14649 -0.58594,-0.14159 -0.96192,-0.31249 v -1.02052 h 0.0732 q 0.41504,0.27345 0.97656,0.45411 0.56153,0.18066 1.08399,0.18066 0.30762,0 0.6543,-0.10254 0.34668,-0.10253 0.56152,-0.30273 0.22461,-0.21485 0.33203,-0.47363 0.11231,-0.25879 0.11231,-0.6543 0,-0.39062 -0.12696,-0.64453 -0.12207,-0.25878 -0.34179,-0.40527 -0.21973,-0.15136 -0.53223,-0.20509 -0.3125,-0.0586 -0.67383,-0.0586 h -0.43945 v -0.81055 h 0.34179 q 0.74219,0 1.18165,-0.30761 0.44434,-0.3125 0.44434,-0.9082 0,-0.26368 -0.11231,-0.45899 -0.11231,-0.2002 -0.3125,-0.32714 -0.20996,-0.12695 -0.44922,-0.17579 -0.23926,-0.0488 -0.54199,-0.0488 -0.46387,0 -0.98633,0.16603 -0.52246,0.16601 -0.98633,0.46874 h -0.0488 v -1.0205 q 0.34668,-0.1709 0.92285,-0.3125 0.58106,-0.1465 1.12305,-0.1465 0.53222,0 0.9375,0.0977 0.40527,0.0977 0.73242,0.3125 0.35156,0.23438 0.53223,0.56642 0.18066,0.33202 0.18066,0.77635 0,0.60547 -0.42969,1.05957 -0.42479,0.44922 -1.00586,0.56642 v 0.0684 q 0.23438,0.0391 0.53712,0.16601 0.30273,0.12207 0.51269,0.30761 z"
       style="font-style:normal;font-size:medium;text-anchor:middle;fill:none;fill-opacity:1;stroke:#000000;stroke-width:0.06614583;stroke-linecap:butt;stroke-linejoin:bevel;stroke-dasharray:none;stroke-opacity:1"
       id="path901"
       inkscape:connector-curvature="0" />
    <path
       d="m 120.96928,36.123284 h -2.53905 v -0.69825 h 1.68944 v -8.11522 h -1.68944 v -0.69826 h 2.53905 z"
       style="font-style:normal;font-size:medium;text-anchor:middle;fill:none;fill-opacity:1;stroke:#000000;stroke-width:0.06614583;stroke-linecap:butt;stroke-linejoin:bevel;stroke-dasharray:none;stroke-opacity:1"
       id="path903"
       inkscape:connector-curvature="0" />
    <path
       d="m 129.20171,34.209224 h -2.8711 v -0.74219 h 0.95215 v -5.78614 h -0.95215 v -0.74219 h 2.8711 v 0.74219 h -0.95215 v 5.78614 h 0.95215 z"
       style="font-style:normal;font-size:medium;text-anchor:middle;fill:none;fill-opacity:1;stroke:#000000;stroke-width:0.06614583;stroke-linecap:butt;stroke-linejoin:bevel;stroke-dasharray:none;stroke-opacity:1"
       id="path905"
       inkscape:connector-curvature="0" />
    <path
       d="m 138.4644,30.708244 q 0.23438,0.20996 0.38575,0.52734 0.15136,0.31739 0.15136,0.82031 0,0.49806 -0.18066,0.91309 -0.18066,0.41503 -0.50782,0.72266 -0.36621,0.34179 -0.86425,0.5078 -0.49317,0.16114 -1.08399,0.16114 -0.60547,0 -1.19141,-0.14649 -0.58593,-0.14159 -0.9619,-0.31249 v -1.02052 h 0.0732 q 0.41503,0.27345 0.97655,0.45411 0.56153,0.18066 1.08399,0.18066 0.30761,0 0.65429,-0.10254 0.34669,-0.10253 0.56153,-0.30273 0.22461,-0.21485 0.33203,-0.47363 0.11231,-0.25879 0.11231,-0.6543 0,-0.39062 -0.12696,-0.64453 -0.12207,-0.25878 -0.3418,-0.40527 -0.21972,-0.15136 -0.53222,-0.20509 -0.3125,-0.0586 -0.67383,-0.0586 h -0.43945 v -0.81055 h 0.34179 q 0.74219,0 1.18164,-0.30761 0.44434,-0.3125 0.44434,-0.9082 0,-0.26368 -0.11231,-0.45899 -0.1123,-0.2002 -0.3125,-0.32714 -0.20996,-0.12695 -0.44921,-0.17579 -0.23926,-0.0488 -0.542,-0.0488 -0.46386,0 -0.98632,0.16603 -0.52247,0.16601 -0.98633,0.46874 h -0.0488 v -1.0205 q 0.34668,-0.1709 0.92285,-0.3125 0.58105,-0.1465 1.12305,-0.1465 0.53222,0 0.9375,0.0977 0.40527,0.0977 0.73242,0.3125 0.35156,0.23438 0.53223,0.56642 0.18066,0.33202 0.18066,0.77635 0,0.60547 -0.42969,1.05957 -0.4248,0.44922 -1.00586,0.56642 v 0.0684 q 0.23438,0.0391 0.53711,0.16601 0.30274,0.12207 0.5127,0.30761 z"
       style="font-style:normal;font-size:medium;text-anchor:middle;fill:none;fill-opacity:1;stroke:#000000;stroke-width:0.06614583;stroke-linecap:butt;stroke-linejoin:bevel;stroke-dasharray:none;stroke-opacity:1"
       id="path907"
       inkscape:connector-curvature="0" />
    <path
       style="fill:#e5e5e5;fill-opacity:1;stroke:#000000;stroke-width:0.06614583;stroke-linecap:butt;stroke-linejoin:bevel;stroke-dasharray:none;stroke-opacity:1"
       inkscape:connector-curvature="0"
       id="path16117"
       d="m 220.72027,159.13715 10,0.15708 v 106.43722 l -10,0.15708 z m 0,154.81811 10.00001,0.15711 -1e-5,45.57323 -10,0.15708 z M 25.72025,265.88853 15.72026,265.73142 V 159.29421 l 9.99999,-0.15706 z m 0,93.95415 -9.99999,-0.15708 v -45.57326 l 9.99999,-0.15708 z m 168.1132,0 -0.15711,10.00004 -21.54896,-3e-5 -0.1571,-10.00001 z m -92.24126,0 -0.15709,10.00001 -75.55773,3e-5 -0.15712,-10.00004 z m 70.37807,-419.797296 6.71106,-6.310227 12.6266,13.012947 -6.50955,6.51793 z m -146.25001,13.22424 -6.58,-0.10335 3e-5,-12.95325 6.57997,-0.10339 z m 195.00002,107.02027 10,0.15712 v 98.533026 l -10,0.15711 z m -97.0735,-138.395466 3.66335,-9.30616 48.02936,18.040479 -3.36922,9.416637 z m -97.92652,18.215206 -9.10759,-0.14304 v -17.929087 l 9.10756,-0.14305 z m 0,-92.999984 0.15709,-9.99999 h 45.78578 l 0.157121,9.99999 z m 97.92651,37.67177 9.99999,0.15709 4e-5,36.798827 -10.00002,0.157091 z m -97.92651,3e-5 -10.00002,-0.15709 3e-5,-37.35759 9.99999,-0.15712 z m 159.07812,68.484584 7.26035,-6.87841 27.40489,28.0314 -7.04071,7.10303 z m -159.07812,107.02386 -9.99999,-0.15706 -3e-5,-38.97739 9.99999,-0.15712 z m 186.70265,-78.76784 9.81849,-1.90318 8.23274,39.16878 -9.75386,2.21067 z m -40.45262,378.320626 -0.1571,10.00001 -70.0639,3e-5 -0.15709,-10.00004 z m -100.150039,-512.73303 3.325399,-9.4322 27.8818,9.34029 -3.0275,9.53197 z m 28.179699,9.44006 7.76696,-6.30068 23.44511,27.99087 -7.56525,6.54152 z m -74.27972,65.344747 -9.99999,-0.15712 v -36.798797 l 10.00002,-0.15709 z m 195.00005,437.948223 -0.15708,10.00001 h -26.57266 l -0.15708,-10.00001 z M 25.72022,20.998324 15.72023,20.841244 v -44.70822 l 10.00002,-0.1571 z m 195.00005,0 10,0.1571 v 38.97741 l -10,0.15706 z M 25.72025,159.13715 l -9.99999,-0.15714 -3e-5,-98.532996 10.00002,-0.15712 z m 195.00002,106.75138 10,0.15709 1e-5,47.75253 -10.00001,0.15711 z m -195.00002,48.06673 -9.99999,-0.15711 v -47.75256 l 9.99999,-0.15706 z m 0,-337.979336 -10.00005,-0.15709 6e-5,-22.39212 9.99999,-0.15709 z"
       class="sticker" />
    <path
       class="arrow"
       d="m 220.72027,336.89897 -9.99999,10.00001 7.49999,-10.00001 -7.49999,-9.99998 z"
       id="path16121"
       inkscape:connector-curvature="0"
       style="fill:#000000;stroke:#000000;stroke-width:0.0661458;stroke-linecap:butt;stroke-linejoin:bevel;stroke-dasharray:none;stroke-opacity:1" />
    <path
       inkscape:connector-curvature="0"
       id="path910"
       style="font-style:normal;font-size:medium;text-anchor:middle;fill:none;fill-opacity:1;stroke:#000000;stroke-width:0.06614583;stroke-linecap:butt;stroke-linejoin:bevel;stroke-dasharray:none;stroke-opacity:1"
       d="m 213.82964,340.89897 h -3.93554 v -0.74218 h 1.51366 v -4.87305 h -1.51366 v -0.66405 q 0.30761,0 0.65918,-0.0488 0.35156,-0.0537 0.53222,-0.15137 0.22461,-0.12208 0.35156,-0.30763 0.13184,-0.19042 0.15136,-0.50779 h 0.75684 v 6.55272 h 1.48438 z" />
    <path
       d="m 224.64284,332.71977 q -0.99757,0 -1.63037,-0.65918 -0.62842,-0.65479 -0.62842,-1.6084 0,-0.4834 0.14941,-0.8789 0.14941,-0.39552 0.44385,-0.69874 0.36474,-0.37793 0.9668,-0.58446 0.60204,-0.20217 1.45019,-0.20217 0.87011,0 1.54248,0.18458 0.67237,0.18896 1.19531,0.59766 0.49659,0.38672 0.77343,0.99756 0.28125,0.61084 0.28125,1.42383 0,0.25927 -0.022,0.43505 -0.022,0.17579 -0.0791,0.35595 h -0.83936 v -0.0439 q 0.0659,-0.12305 0.12304,-0.37353 0.0615,-0.24609 0.0615,-0.50536 0,-0.94483 -0.59326,-1.50733 -0.58887,-0.5625 -1.59521,-0.65479 0.22412,0.36915 0.33838,0.72509 0.11865,0.36036 0.11865,0.83058 0,0.41749 -0.0791,0.73387 -0.0747,0.32081 -0.30762,0.6548 -0.26807,0.38671 -0.67676,0.58007 -0.40869,0.19775 -0.99316,0.19775 z m -0.0352,-0.89209 q 0.40868,0 0.67676,-0.12306 0.26807,-0.11864 0.46582,-0.3955 0.14062,-0.20214 0.18457,-0.44823 0.0439,-0.24609 0.0439,-0.51417 0,-0.37354 -0.0879,-0.69434 -0.0879,-0.32078 -0.27247,-0.65916 -0.0967,-0.009 -0.18896,-0.0132 -0.0879,-0.004 -0.22413,-0.004 -0.69433,0 -1.09862,0.14066 -0.39991,0.14501 -0.63282,0.39549 -0.19336,0.20215 -0.28564,0.43506 -0.0879,0.2373 -0.0879,0.51416 0,0.6372 0.38672,1.00195 0.39111,0.36473 1.1206,0.36473 z"
       style="font-style:normal;font-size:medium;text-anchor:middle;fill:none;fill-opacity:1;stroke:#000000;stroke-width:0.06614583;stroke-linecap:butt;stroke-linejoin:bevel;stroke-dasharray:none;stroke-opacity:1"
       id="path913"
       inkscape:connector-curvature="0" />
    <path
       d="m 222.52027,335.37846 v -1.05029 h 1.25244 v 1.05029 z"
       style="font-style:normal;font-size:medium;text-anchor:middle;fill:none;fill-opacity:1;stroke:#000000;stroke-width:0.06614583;stroke-linecap:butt;stroke-linejoin:bevel;stroke-dasharray:none;stroke-opacity:1"
       id="path915"
       inkscape:connector-curvature="0" />
    <path
       d="m 226.17653,339.05667 v -1.05029 h 1.25243 v 1.05029 z m -3.65626,0 v -1.05029 h 1.25244 v 1.05029 z"
       style="font-style:normal;font-size:medium;text-anchor:middle;fill:none;fill-opacity:1;stroke:#000000;stroke-width:0.06614583;stroke-linecap:butt;stroke-linejoin:bevel;stroke-dasharray:none;stroke-opacity:1"
       id="path917"
       inkscape:connector-curvature="0" />
    <path
       d="m 222.52027,345.34526 v -3.542 h 0.66797 v 1.36231 h 4.38575 v -1.36231 h 0.59765 q 0,0.27686 0.0439,0.59328 0.0483,0.31638 0.13624,0.479 0.10986,0.20214 0.27686,0.31639 0.17137,0.11866 0.45702,0.13623 v 0.68117 h -5.89746 v 1.33593 z"
       style="font-style:normal;font-size:medium;text-anchor:middle;fill:none;fill-opacity:1;stroke:#000000;stroke-width:0.06614583;stroke-linecap:butt;stroke-linejoin:bevel;stroke-dasharray:none;stroke-opacity:1"
       id="path919-7"
       inkscape:connector-curvature="0" />
    <path
       class="arrow"
       d="m 25.72025,336.89894 10,-10 -7.5,10 7.5,10.00001 z"
       id="path16133"
       inkscape:connector-curvature="0"
       style="fill:#000000;stroke:#000000;stroke-width:0.0661458;stroke-linecap:butt;stroke-linejoin:bevel;stroke-dasharray:none;stroke-opacity:1" />
    <path
       inkscape:connector-curvature="0"
       id="path922-2"
       style="font-style:normal;font-size:medium;text-anchor:middle;fill:none;fill-opacity:1;stroke:#000000;stroke-width:0.06614583;stroke-linecap:butt;stroke-linejoin:bevel;stroke-dasharray:none;stroke-opacity:1"
       d="m 37.24466,340.89897 h -4.92187 v -1.02053 q 0.51269,-0.43944 1.02539,-0.87889 0.51758,-0.43947 0.96191,-0.87402 0.9375,-0.90821 1.28418,-1.44045 0.34668,-0.5371 0.34668,-1.15721 0,-0.56642 -0.37598,-0.88378 -0.37109,-0.32229 -1.04003,-0.32229 -0.44434,0 -0.96192,0.15626 -0.51758,0.15624 -1.01074,0.47852 h -0.0488 v -1.02539 q 0.34668,-0.17089 0.92285,-0.3125 0.58105,-0.1416 1.12305,-0.1416 1.11816,0 1.75293,0.542 0.63476,0.5371 0.63476,1.45994 0,0.41505 -0.10742,0.77637 -0.10254,0.35644 -0.30762,0.67871 -0.19043,0.30273 -0.44922,0.59571 -0.2539,0.29297 -0.62011,0.64942 -0.52246,0.51268 -1.0791,0.9961 -0.55664,0.4785 -1.04004,0.88866 h 3.91113 z" />
    <path
       d="m 23.92024,339.54007 v 4.42968 h -0.91846 q -0.3955,-0.46143 -0.79101,-0.92284 -0.39551,-0.46583 -0.78662,-0.86572 -0.81739,-0.84375 -1.29639,-1.15578 -0.4834,-0.31199 -1.0415,-0.31199 -0.50977,0 -0.79541,0.33837 -0.29004,0.33398 -0.29004,0.93604 0,0.3999 0.14062,0.86572 0.14063,0.46583 0.43067,0.90966 v 0.0439 h -0.92285 q -0.15381,-0.312 -0.28125,-0.83055 -0.12745,-0.52295 -0.12745,-1.01074 0,-1.00634 0.4878,-1.57763 0.4834,-0.57129 1.313959,-0.57129 0.373541,0 0.698731,0.0967 0.3208,0.0923 0.61084,0.27686 0.272459,0.17139 0.53613,0.40431 0.26368,0.22852 0.58448,0.55808 0.46142,0.47022 0.89648,0.97121 0.43067,0.50096 0.79981,0.93601 v -3.52001 z"
       style="font-style:normal;font-size:medium;text-anchor:middle;fill:none;fill-opacity:1;stroke:#000000;stroke-width:0.06614583;stroke-linecap:butt;stroke-linejoin:bevel;stroke-dasharray:none;stroke-opacity:1"
       id="path925"
       inkscape:connector-curvature="0" />
    <path
       d="m 20.26399,336.376 v 1.05029 H 19.01155 V 336.376 Z m 3.65625,0 v 1.05029 H 22.6678 V 336.376 Z"
       style="font-style:normal;font-size:medium;text-anchor:middle;fill:none;fill-opacity:1;stroke:#000000;stroke-width:0.06614583;stroke-linecap:butt;stroke-linejoin:bevel;stroke-dasharray:none;stroke-opacity:1"
       id="path927"
       inkscape:connector-curvature="0" />
    <path
       d="m 23.92024,329.71389 v 4.42971 h -0.91846 q -0.3955,-0.46143 -0.79101,-0.92287 -0.39551,-0.46582 -0.78662,-0.86571 -0.81739,-0.84376 -1.29639,-1.15578 -0.4834,-0.312 -1.0415,-0.312 -0.50977,0 -0.79541,0.33838 -0.29004,0.33398 -0.29004,0.93604 0,0.39989 0.14062,0.86572 0.14063,0.46582 0.43067,0.90966 v 0.0439 h -0.92285 q -0.15381,-0.31202 -0.28125,-0.83058 -0.12745,-0.52295 -0.12745,-1.01073 0,-1.00637 0.4878,-1.57763 0.4834,-0.57129 1.313959,-0.57129 0.373541,0 0.698731,0.0967 0.3208,0.0923 0.61084,0.27684 0.272459,0.1714 0.53613,0.40431 0.26368,0.22849 0.58448,0.55808 0.46142,0.47022 0.89648,0.97121 0.43067,0.50096 0.79981,0.93604 v -3.52004 z"
       style="font-style:normal;font-size:medium;text-anchor:middle;fill:none;fill-opacity:1;stroke:#000000;stroke-width:0.06614583;stroke-linecap:butt;stroke-linejoin:bevel;stroke-dasharray:none;stroke-opacity:1"
       id="path929-4"
       inkscape:connector-curvature="0" />
    <path
       d="m 66.279749,367.2062 2.961921,-5.5635 h 0.940429 l -3.150878,5.77442 h 3.726559 v 0.76904 h -4.478031 z"
       style="font-style:normal;font-size:medium;text-anchor:middle;fill:none;fill-opacity:1;stroke:#000000;stroke-width:0.06614583;stroke-linecap:butt;stroke-linejoin:bevel;stroke-dasharray:none;stroke-opacity:1"
       id="path932"
       inkscape:connector-curvature="0" />
    <path
       d="m 63.133271,365.29895 h 1.05029 v 1.25246 h -1.05029 z m 0,-3.65625 h 1.05029 v 1.25246 h -1.05029 z"
       style="font-style:normal;font-size:medium;text-anchor:middle;fill:none;fill-opacity:1;stroke:#000000;stroke-width:0.06614583;stroke-linecap:butt;stroke-linejoin:bevel;stroke-dasharray:none;stroke-opacity:1"
       id="path934"
       inkscape:connector-curvature="0" />
    <path
       d="m 56.471161,361.6427 h 4.429688 v 0.91847 q -0.461428,0.3955 -0.922848,0.791 -0.46582,0.39553 -0.86573,0.78663 -0.84374,0.81738 -1.15576,1.29638 -0.31201,0.4834 -0.31201,1.04151 0,0.50977 0.338381,0.79542 0.333988,0.29003 0.936029,0.29003 0.39991,0 0.86573,-0.14062 0.46582,-0.14063 0.909669,-0.43067 h 0.0439 v 0.92287 q -0.31201,0.15378 -0.830569,0.28123 -0.522949,0.12745 -1.01074,0.12745 -1.006351,0 -1.577639,-0.48779 -0.571291,-0.48339 -0.571291,-1.31397 0,-0.37354 0.0967,-0.69874 0.0923,-0.32078 0.27686,-0.61082 0.171389,-0.27247 0.404299,-0.53615 0.22851,-0.26366 0.558101,-0.58447 0.47022,-0.46143 0.97119,-0.89648 0.500978,-0.43067 0.936041,-0.79981 H 56.47114 Z"
       style="font-style:normal;font-size:medium;text-anchor:middle;fill:none;fill-opacity:1;stroke:#000000;stroke-width:0.06614583;stroke-linecap:butt;stroke-linejoin:bevel;stroke-dasharray:none;stroke-opacity:1"
       id="path936-9"
       inkscape:connector-curvature="0" />
    <path
       d="m 45.755581,-154.69035 h -3.54199 v -0.66797 h 1.362299 v -4.38574 h -1.362299 v -0.59766 q 0.276849,0 0.593259,-0.0439 0.316399,-0.0483 0.478999,-0.13623 0.202152,-0.10986 0.316412,-0.27685 0.11865,-0.17139 0.136229,-0.45704 h 0.681151 v 5.89747 h 1.33594 z"
       style="font-style:normal;font-size:medium;text-anchor:middle;fill:none;fill-opacity:1;stroke:#000000;stroke-width:0.06614583;stroke-linecap:butt;stroke-linejoin:bevel;stroke-dasharray:none;stroke-opacity:1"
       id="path939"
       inkscape:connector-curvature="0" />
    <path
       d="m 49.293179,-158.3466 h -1.050298 v -1.25244 h 1.050298 z m 0,3.65625 h -1.050298 v -1.25244 h 1.050298 z"
       style="font-style:normal;font-size:medium;text-anchor:middle;fill:none;fill-opacity:1;stroke:#000000;stroke-width:0.06614583;stroke-linecap:butt;stroke-linejoin:bevel;stroke-dasharray:none;stroke-opacity:1"
       id="path941"
       inkscape:connector-curvature="0" />
    <path
       d="M 55.581751,-154.69035 H 52.03976 v -0.66797 h 1.362311 v -4.38574 H 52.03976 v -0.59766 q 0.27686,0 0.59326,-0.0439 0.31641,-0.0483 0.479009,-0.13623 0.202142,-0.10986 0.316402,-0.27685 0.11865,-0.17139 0.136229,-0.45704 h 0.681151 v 5.89747 h 1.33594 z"
       style="font-style:normal;font-size:medium;text-anchor:middle;fill:none;fill-opacity:1;stroke:#000000;stroke-width:0.06614583;stroke-linecap:butt;stroke-linejoin:bevel;stroke-dasharray:none;stroke-opacity:1"
       id="path943-9"
       inkscape:connector-curvature="0" />
    <path
       d="m 23.92025,-131.41334 v 4.42969 h -0.91846 q -0.39551,-0.46142 -0.79101,-0.92285 -0.39551,-0.46582 -0.78663,-0.86572 -0.81738,-0.84375 -1.296381,-1.15576 -0.483399,-0.31202 -1.041509,-0.31202 -0.50976,0 -0.79541,0.33838 -0.29004,0.33399 -0.29004,0.93604 0,0.3999 0.14063,0.86572 0.14062,0.46582 0.43066,0.90967 v 0.0439 h -0.92285 q -0.15381,-0.31201 -0.28125,-0.83057 -0.12744,-0.52295 -0.12744,-1.01074 0,-1.00635 0.48779,-1.57764 0.4834,-0.57128 1.31397,-0.57128 0.37353,0 0.69873,0.0967 0.3208,0.0923 0.61084,0.27685 0.27246,0.17139 0.53613,0.4043 0.26367,0.22852 0.58447,0.5581 0.46143,0.47022 0.89649,0.9712 0.43066,0.50097 0.7998,0.93603 v -3.52002 z"
       style="font-style:normal;font-size:medium;text-anchor:middle;fill:none;fill-opacity:1;stroke:#000000;stroke-width:0.06614583;stroke-linecap:butt;stroke-linejoin:bevel;stroke-dasharray:none;stroke-opacity:1"
       id="path946"
       inkscape:connector-curvature="0" />
    <path
       d="m 20.264,-134.5774 v 1.05029 h -1.25244 v -1.05029 z m 3.65625,0 v 1.05029 h -1.25244 v -1.05029 z"
       style="font-style:normal;font-size:medium;text-anchor:middle;fill:none;fill-opacity:1;stroke:#000000;stroke-width:0.06614583;stroke-linecap:butt;stroke-linejoin:bevel;stroke-dasharray:none;stroke-opacity:1"
       id="path948"
       inkscape:connector-curvature="0" />
    <path
       d="m 23.92025,-140.86597 v 3.54199 h -0.66797 v -1.3623 h -4.38574 v 1.3623 h -0.59766 q 0,-0.27686 -0.0439,-0.59326 -0.0483,-0.31641 -0.13623,-0.47901 -0.10986,-0.20214 -0.27685,-0.3164 -0.17139,-0.11865 -0.45704,-0.13623 v -0.68115 h 5.89747 v -1.33594 z"
       style="font-style:normal;font-size:medium;text-anchor:middle;fill:none;fill-opacity:1;stroke:#000000;stroke-width:0.06614583;stroke-linecap:butt;stroke-linejoin:bevel;stroke-dasharray:none;stroke-opacity:1"
       id="path950-8"
       inkscape:connector-curvature="0" />
    <path
       d="m 215.8553,-9.026456 -0.72857,-3.46626 0.65369,-0.13739 0.28021,1.33318 4.29197,-0.90211 -0.28022,-1.33318 0.58488,-0.12294 q 0.0569,0.27094 0.16504,0.57154 0.11238,0.29971 0.23184,0.44074 0.14909,0.17524 0.33601,0.25269 0.19213,0.0809 0.47529,0.0393 l 0.14011,0.66659 -5.77137,1.21306 0.27481,1.30737 z"
       style="font-style:normal;font-size:medium;text-anchor:middle;fill:none;fill-opacity:1;stroke:#000000;stroke-width:0.06614583;stroke-linecap:butt;stroke-linejoin:bevel;stroke-dasharray:none;stroke-opacity:1"
       id="path953"
       inkscape:connector-curvature="0" />
    <path
       d="m 220.16101,-6.316566 -0.21603,-1.02784 1.22567,-0.25761 0.21603,1.02783 z m -3.57805,0.75206 -0.21604,-1.02784 1.22565,-0.25761 0.21604,1.02783 z"
       style="font-style:normal;font-size:medium;text-anchor:middle;fill:none;fill-opacity:1;stroke:#000000;stroke-width:0.06614583;stroke-linecap:butt;stroke-linejoin:bevel;stroke-dasharray:none;stroke-opacity:1"
       id="path955"
       inkscape:connector-curvature="0" />
    <path
       d="m 217.9533,0.95514402 -0.91115,-4.33497002 0.89881,-0.18892 q 0.48196,0.37021 0.96393,0.74042 0.48287,0.37451 0.94787,0.68542 0.97346,0.65756 1.5064,0.86438 0.53723,0.20592 1.08341,0.0911 0.49887,-0.10485 0.70879,-0.49474 0.21514,-0.38652 0.0913,-0.97568 -0.0822,-0.39136 -0.31569,-0.8183 -0.23344,-0.42692 -0.60856,-0.80162 l -0.009,-0.043 0.90312,-0.18982 q 0.21469,0.27369 0.44607,0.75496 0.23228,0.48555 0.33262,0.9629 0.207,0.98484 -0.15286,1.64424 -0.35555,0.65850002 -1.16835,0.82935002 -0.36555,0.0768 -0.70368,0.0491 -0.33292,-0.0243 -0.65472,-0.14529 -0.30189,-0.11167 -0.60783,-0.28537 -0.30504,-0.16938 -0.68678,-0.42595002 -0.54827,-0.36524 -1.07708,-0.76601 -0.5245,-0.40168 -0.97523,-0.75152 l 0.72404,3.44475002 z"
       style="font-style:normal;font-size:medium;text-anchor:middle;fill:none;fill-opacity:1;stroke:#000000;stroke-width:0.06614583;stroke-linecap:butt;stroke-linejoin:bevel;stroke-dasharray:none;stroke-opacity:1"
       id="path957"
       inkscape:connector-curvature="0" />
    <path
       d="m 209.9004,367.2062 2.96191,-5.5635 h 0.94043 l -3.15089,5.77442 h 3.72657 v 0.76904 h -4.47802 z"
       style="font-style:normal;font-size:medium;text-anchor:middle;fill:none;fill-opacity:1;stroke:#000000;stroke-width:0.06614583;stroke-linecap:butt;stroke-linejoin:bevel;stroke-dasharray:none;stroke-opacity:1"
       id="path960"
       inkscape:connector-curvature="0" />
    <path
       d="m 206.7539,365.29895 h 1.05029 v 1.25246 h -1.05029 z m 0,-3.65625 h 1.05029 v 1.25246 h -1.05029 z"
       style="font-style:normal;font-size:medium;text-anchor:middle;fill:none;fill-opacity:1;stroke:#000000;stroke-width:0.06614583;stroke-linecap:butt;stroke-linejoin:bevel;stroke-dasharray:none;stroke-opacity:1"
       id="path962-6"
       inkscape:connector-curvature="0" />
    <path
       d="m 199.94238,363.48401 h 0.97119 v -1.84131 h 0.84376 v 1.84131 h 3.13329 v 1.01074 l -3.16846,3.69141 h -0.80859 v -3.99902 h -0.97119 z m 1.81495,0.70313 v 2.95312 l 2.53563,-2.95312 z"
       style="font-style:normal;font-size:medium;text-anchor:middle;fill:none;fill-opacity:1;stroke:#000000;stroke-width:0.06614583;stroke-linecap:butt;stroke-linejoin:bevel;stroke-dasharray:none;stroke-opacity:1"
       id="path964-3"
       inkscape:connector-curvature="0" />
    <path
       class="arrow"
       d="m 220.72027,40.644104 -9.99999,10.00001 7.49999,-10.00001 -7.49999,-9.99999 z"
       id="path16165"
       inkscape:connector-curvature="0"
       style="fill:#000000;stroke:#000000;stroke-width:0.0661458;stroke-linecap:butt;stroke-linejoin:bevel;stroke-dasharray:none;stroke-opacity:1" />
    <path
       inkscape:connector-curvature="0"
       id="path967"
       style="font-style:normal;font-size:medium;text-anchor:middle;fill:none;fill-opacity:1;stroke:#000000;stroke-width:0.06614583;stroke-linecap:butt;stroke-linejoin:bevel;stroke-dasharray:none;stroke-opacity:1"
       d="m 213.60504,41.143144 q 0.23436,0.20996 0.38573,0.52734 0.15136,0.31739 0.15136,0.82032 0,0.49804 -0.18066,0.91309 -0.18066,0.41502 -0.5078,0.72264 -0.36621,0.3418 -0.86427,0.50781 -0.49316,0.16115 -1.08398,0.16115 -0.60547,0 -1.1914,-0.1465 -0.58594,-0.1416 -0.96192,-0.3125 v -1.0205 h 0.0732 q 0.41505,0.27344 0.97657,0.45411 0.56152,0.18066 1.08398,0.18066 0.30762,0 0.65429,-0.10255 0.34668,-0.10254 0.56153,-0.30272 0.2246,-0.21485 0.33204,-0.47365 0.1123,-0.25877 0.1123,-0.65429 0,-0.39062 -0.12695,-0.64452 -0.12208,-0.2588 -0.3418,-0.40528 -0.21974,-0.15136 -0.53223,-0.20509 -0.3125,-0.0586 -0.67382,-0.0586 h -0.43946 v -0.81054 h 0.3418 q 0.74219,0 1.18164,-0.30761 0.44433,-0.31251 0.44433,-0.90822 0,-0.26367 -0.1123,-0.45898 -0.1123,-0.2002 -0.31251,-0.32715 -0.20996,-0.12695 -0.44922,-0.17577 -0.23925,-0.0488 -0.54198,-0.0488 -0.46387,0 -0.98633,0.16601 -0.52247,0.16601 -0.98633,0.46876 h -0.0488 v -1.02051 q 0.34668,-0.1709 0.92285,-0.3125 0.58106,-0.1465 1.12306,-0.1465 0.53222,0 0.9375,0.0977 0.40527,0.0977 0.73242,0.31251 0.35156,0.23437 0.53222,0.56641 0.18067,0.33203 0.18067,0.77635 0,0.60547 -0.4297,1.05958 -0.42479,0.44922 -1.00585,0.56641 v 0.0684 q 0.23437,0.0391 0.53711,0.16602 0.30272,0.12206 0.51269,0.30761 z" />
    <path
       d="m 224.64284,36.464914 q -0.99757,0 -1.63037,-0.65919 -0.62842,-0.65478 -0.62842,-1.60839 0,-0.4834 0.14941,-0.87891 0.14941,-0.39551 0.44385,-0.69873 0.36474,-0.37792 0.9668,-0.58448 0.60204,-0.20214 1.45019,-0.20214 0.87011,0 1.54248,0.18458 0.67237,0.18896 1.1953,0.59764 0.4966,0.38672 0.77344,0.99757 0.28125,0.61083 0.28125,1.42382 0,0.25929 -0.022,0.43506 -0.022,0.17579 -0.0791,0.35596 h -0.83936 v -0.0439 q 0.0659,-0.12305 0.12304,-0.37352 0.0615,-0.24611 0.0615,-0.50538 0,-0.94482 -0.59326,-1.50733 -0.58887,-0.56249 -1.59521,-0.65479 0.22412,0.36916 0.33837,0.72511 0.11866,0.36034 0.11866,0.83056 0,0.41749 -0.0791,0.7339 -0.0747,0.32079 -0.30761,0.65478 -0.26807,0.38672 -0.67676,0.58008 -0.40869,0.19775 -0.99316,0.19775 z m -0.0352,-0.8921 q 0.40868,0 0.67676,-0.12303 0.26807,-0.11866 0.46582,-0.39551 0.14062,-0.20215 0.18457,-0.44825 0.0439,-0.24609 0.0439,-0.51415 0,-0.37355 -0.0879,-0.69435 -0.0879,-0.32079 -0.27246,-0.65918 -0.0967,-0.009 -0.18896,-0.0132 -0.0879,-0.004 -0.22412,-0.004 -0.69435,0 -1.09864,0.14061 -0.3999,0.14503 -0.63281,0.39551 -0.19336,0.20215 -0.28565,0.43506 -0.0879,0.23731 -0.0879,0.51417 0,0.63719 0.38672,1.00194 0.39111,0.36476 1.12061,0.36476 z"
       style="font-style:normal;font-size:medium;text-anchor:middle;fill:none;fill-opacity:1;stroke:#000000;stroke-width:0.06614583;stroke-linecap:butt;stroke-linejoin:bevel;stroke-dasharray:none;stroke-opacity:1"
       id="path970"
       inkscape:connector-curvature="0" />
    <path
       d="m 222.52027,39.123594 v -1.05029 h 1.25244 v 1.05029 z"
       style="font-style:normal;font-size:medium;text-anchor:middle;fill:none;fill-opacity:1;stroke:#000000;stroke-width:0.06614583;stroke-linecap:butt;stroke-linejoin:bevel;stroke-dasharray:none;stroke-opacity:1"
       id="path972"
       inkscape:connector-curvature="0" />
    <path
       d="m 226.17653,42.801824 v -1.05029 h 1.25243 v 1.05029 z m -3.65626,0 v -1.05029 h 1.25244 v 1.05029 z"
       style="font-style:normal;font-size:medium;text-anchor:middle;fill:none;fill-opacity:1;stroke:#000000;stroke-width:0.06614583;stroke-linecap:butt;stroke-linejoin:bevel;stroke-dasharray:none;stroke-opacity:1"
       id="path974"
       inkscape:connector-curvature="0" />
    <path
       d="m 225.67116,48.888254 q -0.18898,0.21094 -0.47461,0.34716 -0.28565,0.13624 -0.73828,0.13624 -0.44825,0 -0.82178,-0.1626 -0.37355,-0.16259 -0.6504,-0.45704 -0.30762,-0.32958 -0.45703,-0.77783 -0.14501,-0.44384 -0.14501,-0.97559 0,-0.54492 0.13182,-1.07225 0.12745,-0.52736 0.28125,-0.86573 h 0.91847 v 0.0659 q -0.24609,0.37355 -0.4087,0.87892 -0.1626,0.50537 -0.1626,0.97559 0,0.27685 0.0923,0.58886 0.0923,0.31201 0.27246,0.50537 0.19336,0.20214 0.42627,0.29883 0.23291,0.10107 0.58887,0.10107 0.35156,0 0.58007,-0.11426 0.23291,-0.10986 0.36476,-0.30762 0.13622,-0.19775 0.18456,-0.47899 0.0527,-0.28125 0.0527,-0.60645 v -0.39552 h 0.72951 v 0.30762 q 0,0.66797 0.27684,1.06348 0.28125,0.39991 0.81738,0.39991 0.23731,0 0.4131,-0.10108 0.18017,-0.10107 0.29442,-0.28124 0.11426,-0.18898 0.15821,-0.4043 0.0439,-0.21533 0.0439,-0.48779 0,-0.41749 -0.1494,-0.88771 -0.14942,-0.47021 -0.42188,-0.88769 v -0.0439 h 0.91845 q 0.15381,0.31201 0.28126,0.83058 0.13184,0.52295 0.13184,1.01074 0,0.479 -0.0879,0.84374 -0.0879,0.36475 -0.28125,0.65918 -0.21093,0.31641 -0.50977,0.479 -0.29882,0.16261 -0.69873,0.16261 -0.54492,0 -0.95362,-0.38672 -0.40428,-0.38232 -0.50975,-0.90528 h -0.0615 q -0.0352,0.21095 -0.14943,0.48341 -0.10986,0.27246 -0.27684,0.46142 z"
       style="font-style:normal;font-size:medium;text-anchor:middle;fill:none;fill-opacity:1;stroke:#000000;stroke-width:0.06614583;stroke-linecap:butt;stroke-linejoin:bevel;stroke-dasharray:none;stroke-opacity:1"
       id="path976"
       inkscape:connector-curvature="0" />
  </g>
</svg>
