<?xml version="1.0" encoding="UTF-8" standalone="no"?>
<svg
   version="1.1"
   width="300.00mm"
   height="600.00mm"
   viewBox="0 0 300.00 600.00"
   id="svg2366"
   sodipodi:docname="frontseat_back.blend_page12.svg"
   inkscape:version="1.1.1 (c3084ef, 2021-09-22)"
   xmlns:inkscape="http://www.inkscape.org/namespaces/inkscape"
   xmlns:sodipodi="http://sodipodi.sourceforge.net/DTD/sodipodi-0.dtd"
   xmlns="http://www.w3.org/2000/svg"
   xmlns:svg="http://www.w3.org/2000/svg">
  <defs
     id="defs2370" />
  <sodipodi:namedview
     id="namedview2368"
     pagecolor="#ffffff"
     bordercolor="#666666"
     borderopacity="1.0"
     inkscape:pageshadow="2"
     inkscape:pageopacity="0.0"
     inkscape:pagecheckerboard="0"
     inkscape:document-units="mm"
     showgrid="false"
     inkscape:zoom="0.34880903"
     inkscape:cx="566.21241"
     inkscape:cy="1133.8583"
     inkscape:window-width="1792"
     inkscape:window-height="975"
     inkscape:window-x="0"
     inkscape:window-y="25"
     inkscape:window-maximized="1"
     inkscape:current-layer="svg2366" />
  <style
     type="text/css"
     id="style2338">
    path {
        fill: none;
        stroke-linecap: butt;
        stroke-linejoin: bevel;
        stroke-dasharray: none;
    }
    path.outer {
        stroke: #000000;
        stroke-dasharray: none;
        stroke-dashoffset: 0;
        stroke-width: 0.3;
        stroke-opacity: 1.0;
    }
    path.convex {
        stroke: #000000;
        stroke-dasharray: 0.50,1.00;
        stroke-dashoffset:0;
        stroke-width:0.2;
        stroke-opacity: 1.0
    }
    path.concave {
        stroke: #000000;
        stroke-dasharray: 1.00,0.50,0.20,0.50;
        stroke-dashoffset: 0;
        stroke-width: 0.2;
        stroke-opacity: 1.0
    }
    path.freestyle {
        stroke: #000000;
        stroke-dasharray: none;
        stroke-dashoffset: 0;
        stroke-width: 0.2;
        stroke-opacity: 1.0
    }
    path.outer_background {
        stroke: #ffffff;
        stroke-opacity: 1.0;
        stroke-width: 0.5
    }
    path.inner_background {
        stroke: #ffffff;
        stroke-opacity: 1.0;
        stroke-width: 0.2
    }
    path.sticker {
        fill: #e5e5e5;
        stroke: none;
        fill-opacity: 1.0;
    }
    path.arrow {
        fill: #000000;
    }
    text {
        font-style: normal;
        fill: #000000;
        fill-opacity: 1.0;
        stroke: none;
    }
    text, tspan {
        text-anchor:middle;
    }
    </style>
  <text
     style="font-size:10px"
     id="text2342"
     x="103.22826"
     y="339.51288"><tspan
       id="tspan2340">[3] I 3</tspan></text>
  <path
     class="sticker"
     d="m 90.452653,252.9692 -7.307909,-5.60817 10.811463,-14.55608 7.480453,5.37586 z m -21.425441,61.63919 -9.394072,-3.43165 21.322296,-61.34242 9.497217,3.13488 z M 22.262846,412.26848 12.367909,413.72266 5,368.53353 l 9.844392,-1.76425 z m 22.881098,-93.76603 -1.454152,-9.89497 23.57316,-3.84351 1.76426,9.84442 z m 56.292716,-80.32164 -7.957067,-6.05884 23.256037,-31.55857 8.14347,5.80591 z M 14.844392,366.76928 5,365.00506 l 4.731707,-29.0214 9.89496,1.45414 z m 4.782275,-29.33148 -5.832955,-8.12411 25.264963,-18.74813 6.085269,7.93689 z m 105.482213,-112.27104 9.9748,-0.7267 1.90833,21.52324 -9.94704,1.03965 z m 12.13133,91.48133 9.89495,-1.45417 12.15885,74.57302 -9.84439,1.76426 z m -10.19524,-69.64514 9.9173,-1.293 10.14973,69.33427 -9.87179,1.60387 z m -2.16587,-40.63364 9.40053,0.0327 0.22617,18.50217 -9.39692,0.26253 z m 27.75566,345.82129 -5.38544,7.47356 -14.87524,-10.36799 5.14804,-7.63906 z m -15.11264,-10.53349 -8.00955,5.98932 -39.703326,-51.39244 7.817477,-6.23792 z m -107.840798,-83.88942 -9.894952,1.45417 -7.367916,-45.18911 9.844392,-1.76427 z m 67.945399,32.24838 1.454159,9.89497 -23.573167,3.84348 -1.764261,-9.84439 z m 87.341169,84.89197 -5.87745,8.09199 -32.07609,-22.53685 5.62041,-8.27258 z m -141.434813,-90.84701 -8.920588,4.52193 -13.705298,-26.01537 8.774131,-4.7999 z m 30.210375,9.8491 -3.248952,9.45881 -29.911675,-9.75174 2.950252,-9.55617 z m 100.370988,41.78077 9.76212,-2.17384 5.02725,21.01472 -9.689,2.47937 z m -24.66482,-144.1597 9.89494,-1.45416 12.15884,74.57302 -9.84439,1.76427 z m 12.20939,74.88313 9.86999,-1.61493 12.39982,68.96731 -9.81438,1.92419 z m 17.5558,90.59682 8.99364,-2.73597 5.66272,17.61577 -8.90328,3.01709 z"
     id="path2344" />
  <path
     class="outer"
     d="m 19.78637,459.22186 -7.367916,-45.18911 9.844392,-1.76427 -9.894937,1.45418 L 5,368.53353 14.844392,366.76928 5,365.00506 l 4.731707,-29.0214 9.89496,1.45414 -5.832955,-8.12411 25.264963,-18.74813 6.085269,7.93689 -1.454152,-9.89497 23.57316,-3.84351 1.76426,9.84442 -9.394072,-3.43165 21.322296,-61.34242 9.497217,3.13488 -7.307909,-5.60817 10.811463,-14.55608 7.480453,5.37586 -7.957067,-6.05884 23.256037,-31.55857 8.14347,5.80591 9.40053,0.0327 0.22617,18.50217 -9.39692,0.26253 9.9748,-0.7267 1.90833,21.52324 -9.94704,1.03965 9.9173,-1.293 10.14973,69.33427 -9.87179,1.60387 9.89495,-1.45417 12.15885,74.57302 -9.84439,1.76426 9.89494,-1.45416 12.15884,74.57302 -9.84439,1.76427 9.86999,-1.61493 12.39982,68.96731 -9.81438,1.92419 9.76212,-2.17384 5.02725,21.01472 -9.689,2.47937 8.99364,-2.73597 5.66272,17.61577 -8.90328,3.01709 -5.87745,8.09199 -32.07609,-22.53685 5.62041,-8.27258 -5.38544,7.47356 -14.87524,-10.36799 5.14804,-7.63906 -8.00955,5.98932 -39.703326,-51.39244 7.817477,-6.23792 1.454159,9.89497 -23.573167,3.84348 -1.764261,-9.84439 -3.248952,9.45881 -29.911675,-9.75174 2.950252,-9.55617 -8.920588,4.52193 -13.705298,-26.01537 8.774131,-4.7999 z"
     id="path2346" />
  <text
     transform="rotate(-53.612871)"
     style="font-size:9px"
     id="text2350"
     x="-111.80791"
     y="221.15718"><tspan
       id="tspan2348">1:1</tspan></text>
  <text
     transform="rotate(89.299656)"
     style="font-size:8.46px"
     id="text2354"
     x="217.27972"
     y="-124.03927"><tspan
       id="tspan2352">2:2</tspan></text>
  <text
     transform="rotate(-144.90787)"
     style="font-size:9px"
     id="text2358"
     x="-462.09854"
     y="-365.86951"><tspan
       id="tspan2356">1:7</tspan></text>
  <text
     transform="rotate(72.179625)"
     style="font-size:8.46px"
     id="text2362"
     x="594.53119"
     y="-1.8436364"><tspan
       id="tspan2360">2:4</tspan></text>
</svg>
