<?xml version="1.0" encoding="UTF-8" standalone="no"?>
<svg
   xmlns:dc="http://purl.org/dc/elements/1.1/"
   xmlns:cc="http://creativecommons.org/ns#"
   xmlns:rdf="http://www.w3.org/1999/02/22-rdf-syntax-ns#"
   xmlns:svg="http://www.w3.org/2000/svg"
   xmlns="http://www.w3.org/2000/svg"
   xmlns:xlink="http://www.w3.org/1999/xlink"
   id="svg38"
   viewBox="0 0 304.79999 609.59999"
   height="24in"
   width="12in"
   version="1.1">
  <metadata
     id="metadata44">
    <rdf:RDF>
      <cc:Work
         rdf:about="">
        <dc:format>image/svg+xml</dc:format>
        <dc:type
           rdf:resource="http://purl.org/dc/dcmitype/StillImage" />
        <dc:title></dc:title>
      </cc:Work>
    </rdf:RDF>
  </metadata>
  <defs
     id="defs42" />
  <style
     id="style2"
     type="text/css">
    path {
        fill: none;
        stroke-linecap: butt;
        stroke-linejoin: bevel;
        stroke-dasharray: none;
    }
    path.outer {
        stroke: #000000;
        stroke-dasharray: none;
        stroke-dashoffset: 0;
        stroke-width: 0.3;
        stroke-opacity: 1.0;
    }
    path.convex {
        stroke: #000000;
        stroke-dasharray: 0.50,1.00;
        stroke-dashoffset:0;
        stroke-width:0.2;
        stroke-opacity: 1.0
    }
    path.concave {
        stroke: #000000;
        stroke-dasharray: 1.00,0.50,0.20,0.50;
        stroke-dashoffset: 0;
        stroke-width: 0.2;
        stroke-opacity: 1.0
    }
    path.freestyle {
        stroke: #000000;
        stroke-dasharray: none;
        stroke-dashoffset: 0;
        stroke-width: 0.2;
        stroke-opacity: 1.0
    }
    path.outer_background {
        stroke: #ffffff;
        stroke-opacity: 1.0;
        stroke-width: 0.5
    }
    path.inner_background {
        stroke: #ffffff;
        stroke-opacity: 1.0;
        stroke-width: 0.2
    }
    path.sticker {
        fill: #e5e5e5;
        stroke: none;
        fill-opacity: 1.0;
    }
    path.arrow {
        fill: #000000;
    }
    text {
        font-style: normal;
        fill: #000000;
        fill-opacity: 1.0;
        stroke: none;
    }
    text, tspan {
        text-anchor:middle;
    }
    </style>
  <g
     transform="rotate(15.549273,41.971751,254.23365)"
     id="g6" />
  <g
     transform="translate(-64.358502,478.61279)"
     id="g10" />
  <g
     transform="translate(29.181039,-114.46714)"
     id="g14" />
  <g
     transform="translate(0.85462683,-49.87437)"
     id="g18" />
  <g
     transform="rotate(-179.98484,99.74324,83.90641)"
     id="g22" />
  <g
     transform="translate(184.57855,20.910945)"
     id="g26" />
  <g
     transform="translate(-27.538714,-148.52502)"
     id="g30" />
  <g
     transform="translate(-65.890967,-17.878154)"
     id="g34">
    <path
       d="m 85.001953,33.976562 a 10.041235,10.041235 0 0 0 -9.357422,12.923829 l 4.402344,14.664062 -4.791016,55.927737 a 10.041235,10.041235 0 0 0 16.603516,8.42383 L 131.06445,91.716797 a 10.041235,10.041235 0 0 0 0.48633,-14.677735 l -12.54297,-12.5 -21.642576,-22.720703 a 10.041235,10.041235 0 0 0 -0.248046,-0.25 L 92.28125,36.835938 a 10.041235,10.041235 0 0 0 -7.279297,-2.859376 z m 133.205077,1.644532 a 10.041235,10.041235 0 0 0 -6.64258,2.853515 l -4.83789,4.732422 a 10.041235,10.041235 0 0 0 -0.24609,0.25 L 184.83203,66.171875 172.2832,78.669922 a 10.041235,10.041235 0 0 0 0.48438,14.677734 l 39.19531,34.207034 a 10.041235,10.041235 0 0 0 16.60547,-8.41797 l -4.77734,-55.929689 4.41015,-14.664062 a 10.041235,10.041235 0 0 0 -9.99414,-12.921875 z m 39.50781,2.728515 a 10.041235,10.041235 0 0 0 -10.04101,10.041016 v 93.779295 a 10.041235,10.041235 0 0 0 10.04101,10.04102 h 35.82813 5.22656 a 10.041235,10.041235 0 0 0 10.04102,-10.04102 V 48.390625 A 10.041235,10.041235 0 0 0 298.76953,38.349609 h -5.22656 z m 74.15039,9.171875 A 10.041235,10.041235 0 0 0 321.82422,57.5625 v 93.7793 a 10.041235,10.041235 0 0 0 10.04101,10.04101 h 5.22657 A 10.041235,10.041235 0 0 0 347.13281,151.3418 V 57.5625 A 10.041235,10.041235 0 0 0 337.0918,47.521484 Z M 104.22461,130.45312 a 10.041235,10.041235 0 0 0 -10.007813,8.88672 l -11.826172,102.125 a 10.041235,10.041235 0 0 0 -0.01758,2.16016 l 10.308594,102.29297 a 10.041235,10.041235 0 0 0 0.03125,0.26953 l 14.160159,110.49219 1.7207,62.34375 a 10.041235,10.041235 0 0 0 0.0449,0.71289 l 3.79102,38.23242 a 10.041235,10.041235 0 0 0 0.43945,2.10156 l 13,40.16211 a 10.041235,10.041235 0 0 0 7.89063,6.81055 l 16.98828,2.85156 a 10.041235,10.041235 0 0 0 2.36718,0.11328 l 57.90039,-4.08008 a 10.041235,10.041235 0 0 0 9.09376,-12.20507 l -8.85157,-39.61328 -0.76562,-36.38868 4.04101,-62.39062 10.51758,-109.36524 a 10.041235,10.041235 0 0 0 0.0469,-0.95312 l 0.082,-101.46094 a 10.041235,10.041235 0 0 0 -0.12305,-1.56836 l -16.16016,-102.7168 a 10.041235,10.041235 0 0 0 -9.88281,-8.48046 z m 164.19531,36.11133 a 10.041235,10.041235 0 0 0 -10.04101,10.04102 v 26.19726 26.99024 62.88672 73.92578 73.92773 62.88672 26.98828 l 0.002,26.19727 a 10.041235,10.041235 0 0 0 10.04102,10.04101 h 5.22656 a 10.041235,10.041235 0 0 0 10.04101,-10.04101 V 530.4082 509.10547 440.5332 366.60547 292.67969 224.10547 202.80273 176.60547 a 10.041235,10.041235 0 0 0 -10.04101,-10.04102 z m 35.11914,39.32813 a 10.041235,10.041235 0 0 0 -10.04101,10.04101 v 109.16211 101.47071 101.4707 a 10.041235,10.041235 0 0 0 10.04101,10.04101 h 35.82617 5.22852 a 10.041235,10.041235 0 0 0 10.04102,-10.04101 V 426.56641 325.0957 215.93359 a 10.041235,10.041235 0 0 0 -10.04102,-10.04101 h -5.22852 z m -70.52539,279.2793 a 10.041235,10.041235 0 0 0 -10.05664,10.02343 l -0.16601,93.7793 a 10.041235,10.041235 0 0 0 10.02539,10.05859 l 5.22656,0.008 a 10.041235,10.041235 0 0 0 10.05664,-10.02344 l 0.16601,-93.7793 a 10.041235,10.041235 0 0 0 -10.02539,-10.05859 z"
       id="path78"
       style="fill:none;stroke:#000000;stroke-width:0.30000001;stroke-linecap:butt;stroke-linejoin:bevel;stroke-dasharray:none;stroke-dashoffset:0;stroke-opacity:1"
       xlink:href="#path32" />
    <path
       d="M 90.095018,48.744674 111.82866,71.558113 124.46517,84.151353 85.260098,118.34886 90.215166,60.51218 85.260105,44.011648 Z M 268.42051,229.79267 v -26.98925 -26.1974 h 5.22724 l 2e-5,26.1974 v 21.30255 l 1e-5,68.5736 9e-5,73.9266 6e-5,73.9266 1.2e-4,68.57356 3e-5,21.30258 9e-5,26.19734 -5.22725,6e-5 -8e-5,-26.1974 -6e-5,-26.98928 -10e-5,-62.88686 -8e-5,-73.9266 -7e-5,-73.9266 z m 30.34898,-181.401277 7e-5,93.779477 h -5.22725 -35.82766 l -7e-5,-93.779477 h 35.82765 z m -80.18448,-2.738148 -4.95938,16.499248 4.93971,57.838017 -39.19607,-34.207879 12.63983,-12.589956 21.73972,-22.80766 z m 126.00811,380.912865 3e-5,101.47056 h -5.22723 l -35.82767,-2e-5 -2e-5,-101.47054 -10e-6,-101.47053 V 215.93397 h 35.82764 5.22726 v 109.16161 z m -7.50124,-275.22492 h -5.22725 V 57.561712 h 5.22725 z m -99.03234,437.65953 -5.22722,-0.009 0.16559,-93.77935 5.22723,0.009 z M 116.89717,455.90033 102.67171,344.91253 92.362889,242.61977 104.18935,140.49501 l 94.78886,0.3309 16.16142,102.71653 -0.083,101.4621 -10.53308,109.52042 -4.07869,62.97729 0.79473,37.8205 9.07117,40.59032 -57.90009,4.07822 -16.98941,-2.8508 -12.9994,-40.16146 -3.79051,-38.23299 z"
       style="fill:none;stroke:#000000;stroke-width:0.30000001;stroke-linecap:butt;stroke-linejoin:bevel;stroke-dasharray:none;stroke-dashoffset:0;stroke-opacity:1"
       id="path32" />
  </g>
  <rect
     y="-1.2894186"
     x="0.43297249"
     height="609.32288"
     width="304.52286"
     id="rect192"
     style="opacity:0.55;fill:none;stroke:#000000;stroke-width:0.5291667;stroke-miterlimit:4;stroke-dasharray:none" />
</svg>
