<?xml version="1.0" encoding="UTF-8" standalone="no"?>
<svg
   version="1.1"
   width="300.00mm"
   height="600.00mm"
   viewBox="0 0 300.00 600.00"
   id="svg2581"
   sodipodi:docname="frontseat_back.blend_page9.svg"
   inkscape:version="1.1.1 (c3084ef, 2021-09-22)"
   xmlns:inkscape="http://www.inkscape.org/namespaces/inkscape"
   xmlns:sodipodi="http://sodipodi.sourceforge.net/DTD/sodipodi-0.dtd"
   xmlns="http://www.w3.org/2000/svg"
   xmlns:svg="http://www.w3.org/2000/svg">
  <defs
     id="defs2585" />
  <sodipodi:namedview
     id="namedview2583"
     pagecolor="#ffffff"
     bordercolor="#666666"
     borderopacity="1.0"
     inkscape:pageshadow="2"
     inkscape:pageopacity="0.0"
     inkscape:pagecheckerboard="0"
     inkscape:document-units="mm"
     showgrid="false"
     inkscape:zoom="0.35057292"
     inkscape:cx="566.21602"
     inkscape:cy="1133.8583"
     inkscape:window-width="1296"
     inkscape:window-height="975"
     inkscape:window-x="0"
     inkscape:window-y="25"
     inkscape:window-maximized="0"
     inkscape:current-layer="svg2581" />
  <style
     type="text/css"
     id="style2469">
    path {
        fill: none;
        stroke-linecap: butt;
        stroke-linejoin: bevel;
        stroke-dasharray: none;
    }
    path.outer {
        stroke: #000000;
        stroke-dasharray: none;
        stroke-dashoffset: 0;
        stroke-width: 0.3;
        stroke-opacity: 1.0;
    }
    path.convex {
        stroke: #000000;
        stroke-dasharray: 0.50,1.00;
        stroke-dashoffset:0;
        stroke-width:0.2;
        stroke-opacity: 1.0
    }
    path.concave {
        stroke: #000000;
        stroke-dasharray: 1.00,0.50,0.20,0.50;
        stroke-dashoffset: 0;
        stroke-width: 0.2;
        stroke-opacity: 1.0
    }
    path.freestyle {
        stroke: #000000;
        stroke-dasharray: none;
        stroke-dashoffset: 0;
        stroke-width: 0.2;
        stroke-opacity: 1.0
    }
    path.outer_background {
        stroke: #ffffff;
        stroke-opacity: 1.0;
        stroke-width: 0.5
    }
    path.inner_background {
        stroke: #ffffff;
        stroke-opacity: 1.0;
        stroke-width: 0.2
    }
    path.sticker {
        fill: #e5e5e5;
        stroke: none;
        fill-opacity: 1.0;
    }
    path.arrow {
        fill: #000000;
    }
    text {
        font-style: normal;
        fill: #000000;
        fill-opacity: 1.0;
        stroke: none;
    }
    text, tspan {
        text-anchor:middle;
    }
    </style>
  <g
     id="g2543">
    <text
       transform="translate(89.797159,217.99998)"
       style="font-size:10px"
       id="text2473"><tspan
         id="tspan2471">[2] I 2</tspan></text>
    <path
       class="sticker"
       d="m 15.00003,451.87196 -9.999999,-0.15709 -3e-5,-75.55772 10,-0.15711 z m 3e-5,92.24125 -10,-0.15709 v -21.549 l 10,-0.15709 z m 65.280286,26.8868 -0.157088,10 -64.966103,2e-5 -0.157095,-10 z m 78.767814,-8.29737 1.90319,9.81849 -39.16882,8.23274 -2.21065,-9.75386 z m -144.0481,-40.45261 -10,-0.15709 -2.9e-5,-70.06388 9.999999,-0.1571 z m 0,48.75 -10,-0.15709 V 544.2703 l 10,-0.15709 z M 163.44931,522.25 l 9.96174,0.88791 -1.58003,21.54983 -9.98472,-0.57456 z m 1.145,-146.24999 10.00001,0.15709 v 75.55774 l -10.00001,0.1571 z m 0,75.87193 9.99612,0.31974 -1.1399,70.06392 -10.00122,-0.006 z m -2.74801,92.24124 9.27275,1.54508 -0.92542,6.14803 -11.14547,10.89635 z m -42.27442,26.88683 -0.1571,10 H 80.437441 l -0.157095,-10 z M 15.000001,376.00004 l -10,-0.1571 3e-5,-75.55775 9.999999,-0.15709 z m 0,-146.25001 -10,-0.15709 v -21.54898 l 10,-0.15709 z m 0,-48.74998 0.157092,-9.99999 h 64.966098 l 0.157095,9.99999 z m 104.571879,0 2.21064,-9.75385 39.16882,8.23268 -1.90318,9.81849 z M 15.00003,300.1281 l -10,-0.15709 L 5,229.90712 15.000001,229.75003 Z m -2.9e-5,-92.24123 -10,-0.15709 v -26.57264 l 10,-0.15709 z m 146.846299,-3e-5 9.98472,-0.57456 1.58003,21.54985 -9.96174,0.8879 z m 2.74801,92.24126 10.00001,0.15709 v 75.55773 l -10.00001,0.15709 z m -1.145,-70.37807 10.00122,-0.006 1.1399,70.06392 -9.99612,0.31975 z m -4.40115,-40.45266 11.14547,10.89636 0.92542,6.14804 -9.27275,1.54507 z m -78.767874,-8.29732 0.157096,-9.99999 h 38.977398 l 0.1571,9.99999 z"
       id="path2475" />
    <path
       class="outer"
       d="M 5.00003,299.97101 5,229.90712 l 10.000001,-0.15709 -10,-0.15709 v -21.54898 l 10,-0.15709 -10,-0.15709 v -26.57264 l 10,-0.15709 0.157092,-9.99999 h 64.966098 l 0.157095,9.99999 0.157096,-9.99999 h 38.977398 l 0.1571,9.99999 2.21064,-9.75385 39.16882,8.23268 -1.90318,9.81849 11.14547,10.89636 0.92542,6.14804 -9.27275,1.54507 9.98472,-0.57456 1.58003,21.54985 -9.96174,0.8879 10.00122,-0.006 1.1399,70.06392 -9.99612,0.31975 10.00001,0.15709 v 75.55773 l -10.00001,0.15709 10.00001,0.15709 v 75.55774 l -10.00001,0.1571 9.99612,0.31974 -1.1399,70.06392 -10.00122,-0.006 9.96174,0.88791 -1.58003,21.54983 -9.98472,-0.57456 9.27275,1.54508 -0.92542,6.14803 -11.14547,10.89635 1.90319,9.81849 -39.16882,8.23274 -2.21065,-9.75386 -0.1571,10 H 80.437441 l -0.157095,-10 -0.157088,10 -64.966103,2e-5 -0.157095,-10 -10,-0.15709 V 544.2703 l 10,-0.15709 -10,-0.15709 v -21.549 l 10,-0.15709 -10,-0.15709 -2.9e-5,-70.06388 9.999999,-0.1571 -9.999999,-0.15709 -3e-5,-75.55772 10,-0.15711 -10,-0.1571 3e-5,-75.55775 9.999999,-0.15709 z"
       id="path2477" />
    <g
       id="g2485">
      <path
         transform="matrix(-10,2e-6,-2e-6,-10,47.640205,571.00002)"
         class="arrow"
         d="M 0,0 1,1 0,0.25 -1,1 Z"
         id="path2479" />
      <text
         transform="translate(47.640202,566.00003)"
         style="font-size:10px"
         id="text2483"><tspan
           id="tspan2481">1</tspan></text>
    </g>
    <text
       transform="rotate(180,23.820102,286.40001)"
       style="font-size:9px"
       id="text2489"><tspan
         id="tspan2487">5:1</tspan></text>
    <text
       transform="rotate(168.12999,40.28435,291.56679)"
       style="font-size:9px"
       id="text2493"><tspan
         id="tspan2491">5:1</tspan></text>
    <text
       transform="rotate(-90,285.37834,272.17828)"
       style="font-size:9px"
       id="text2497"><tspan
         id="tspan2495">6.:3</tspan></text>
    <g
       id="g2505">
      <path
         transform="matrix(-1.488461,9.888604,-9.888604,-1.488461,160.44723,553.40791)"
         class="arrow"
         d="M 0,0 1,1 0,0.25 -1,1 Z"
         id="path2499" />
      <text
         transform="translate(151.54748,556.0683)"
         style="font-size:10px"
         id="text2503"><tspan
           id="tspan2501">2</tspan></text>
    </g>
    <text
       transform="rotate(98.56006,-157.21901,346.60186)"
       style="font-size:8.46px"
       id="text2509"><tspan
         id="tspan2507">3:2</tspan></text>
    <g
       id="g2517">
      <path
         transform="matrix(10,0,0,10,47.640146,181.00005)"
         class="arrow"
         d="M 0,0 1,1 0,0.25 -1,1 Z"
         id="path2511" />
      <text
         transform="translate(47.640146,194.00006)"
         style="font-size:10px"
         id="text2515"><tspan
           id="tspan2513">3</tspan></text>
    </g>
    <text
       transform="translate(47.640146,179.20005)"
       style="font-size:9px"
       id="text2521"><tspan
         id="tspan2519">4:3</tspan></text>
    <text
       transform="rotate(11.869952,-812.19427,763.51132)"
       style="font-size:9px"
       id="text2525"><tspan
         id="tspan2523">4:1</tspan></text>
    <text
       transform="rotate(-90,103.82173,90.621729)"
       style="font-size:9px"
       id="text2529"><tspan
         id="tspan2527">6.:6.</tspan></text>
    <g
       id="g2537">
      <path
         transform="matrix(1.488461,9.888604,-9.888604,1.488461,160.44723,198.59212)"
         class="arrow"
         d="M 0,0 1,1 0,0.25 -1,1 Z"
         id="path2531" />
      <text
         transform="translate(151.54748,203.93174)"
         style="font-size:10px"
         id="text2535"><tspan
           id="tspan2533">4</tspan></text>
    </g>
    <text
       transform="rotate(81.43994,-34.154499,193.34489)"
       style="font-size:8.46px"
       id="text2541"><tspan
         id="tspan2539">3:4</tspan></text>
  </g>
  <text
     style="font-size:10px"
     id="text2547"
     x="236.91611"
     y="422.31476"><tspan
       id="tspan2545">[11] I 11</tspan></text>
  <path
     class="sticker"
     d="m 194.03443,558.41776 -9.53199,3.02752 -9.34031,-27.88172 9.43219,-3.32544 z m 28.23171,14.58226 -4.72873,8.8127 -27.95258,-14.43807 4.4496,-8.95689 z m 39.82532,-88.86193 9.94724,-1.0379 9.08596,75.56003 -9.90972,1.34985 z m -77.49714,46.10003 -10,-0.15709 1e-5,-45.78584 10.00001,-0.15709 z m 61.8705,42.7619 -0.1571,10 h -23.88448 l -0.1571,-10 z m 24.75012,-12.98995 4.50816,8.92755 -24.47193,12.84394 -4.78635,-8.78154 z m -86.6206,-121.97198 -9.4322,-3.32543 9.34026,-27.88176 9.532,3.02752 z m 9.44006,-28.17967 -4.4496,-8.95688 27.95258,-14.43807 4.72875,8.8127 z m 77.18054,-1.59233 9.90972,1.34984 -9.08596,75.56008 -9.94724,-1.03792 z m -86.6206,75.87201 -10.00001,-0.15709 v -45.78583 l 10.00001,-0.15709 z m 37.67179,-88.86193 0.15707,-9.99999 23.88448,-2e-5 0.1571,9.99999 z m 24.19865,-2e-5 4.78636,-8.78153 24.47196,12.84392 -4.50816,8.92755 z"
     id="path2549" />
  <path
     class="outer"
     d="m 222.4232,385.27618 23.88448,-2e-5 0.1571,9.99999 4.78636,-8.78153 24.47196,12.84392 -4.50816,8.92755 9.90972,1.34984 -9.08596,75.56008 -9.94724,-1.03792 9.94724,-1.0379 9.08596,75.56003 -9.90972,1.34985 4.50816,8.92755 -24.47193,12.84394 -4.78635,-8.78154 -0.1571,10 h -23.88448 l -0.1571,-10 -4.72873,8.8127 -27.95258,-14.43807 4.4496,-8.95689 -9.53199,3.02752 -9.34031,-27.88172 9.43219,-3.32544 -10,-0.15709 1e-5,-45.78584 10.00001,-0.15709 -10.00001,-0.15709 v -45.78583 l 10.00001,-0.15709 -9.4322,-3.32543 9.34026,-27.88176 9.532,3.02752 -4.4496,-8.95688 27.95258,-14.43807 4.72875,8.8127 z"
     id="path2551" />
  <text
     transform="rotate(83.143219)"
     style="font-size:9px"
     id="text2555"
     x="550.17517"
     y="-204.21654"><tspan
       id="tspan2553">20:2</tspan></text>
  <text
     transform="scale(-1)"
     style="font-size:9px"
     id="text2559"
     x="-234.36548"
     y="-574.80005"><tspan
       id="tspan2557">1:4</tspan></text>
  <text
     transform="rotate(152.30752)"
     style="font-size:9px"
     id="text2563"
     x="34.078564"
     y="-623.70398"><tspan
       id="tspan2561">10:6.</tspan></text>
  <text
     transform="rotate(96.856781)"
     style="font-size:9px"
     id="text2567"
     x="411.17551"
     y="-319.81708"><tspan
       id="tspan2565">20:4</tspan></text>
  <text
     style="font-size:9px"
     id="text2571"
     x="234.36543"
     y="393.47614"><tspan
       id="tspan2569">1:10</tspan></text>
  <text
     transform="rotate(27.692428)"
     style="font-size:9px"
     id="text2575"
     x="415.90417"
     y="233.66089"><tspan
       id="tspan2573">9.:6.</tspan></text>
</svg>
