<?xml version="1.0" encoding="UTF-8" standalone="no"?>
<svg
   xmlns:dc="http://purl.org/dc/elements/1.1/"
   xmlns:cc="http://creativecommons.org/ns#"
   xmlns:rdf="http://www.w3.org/1999/02/22-rdf-syntax-ns#"
   xmlns:svg="http://www.w3.org/2000/svg"
   xmlns="http://www.w3.org/2000/svg"
   xmlns:sodipodi="http://sodipodi.sourceforge.net/DTD/sodipodi-0.dtd"
   xmlns:inkscape="http://www.inkscape.org/namespaces/inkscape"
   version="1.1"
   width="300.00mm"
   height="600.00mm"
   viewBox="0 0 300.00 600.00"
   id="svg938"
   sodipodi:docname="backrest_page14.svg"
   inkscape:version="0.92.2 (5c3e80d, 2017-08-06)">
  <metadata
     id="metadata79">
    <rdf:RDF>
      <cc:Work
         rdf:about="">
        <dc:format>image/svg+xml</dc:format>
        <dc:type
           rdf:resource="http://purl.org/dc/dcmitype/StillImage" />
      </cc:Work>
    </rdf:RDF>
  </metadata>
  <defs
     id="defs942" />
  <sodipodi:namedview
     id="namedview940"
     pagecolor="#ffffff"
     bordercolor="#666666"
     borderopacity="1.0"
     inkscape:pageshadow="2"
     inkscape:pageopacity="0.0"
     inkscape:pagecheckerboard="0"
     inkscape:document-units="mm"
     showgrid="false"
     inkscape:zoom="0.35057292"
     inkscape:cx="-27.761634"
     inkscape:cy="1219.4586"
     inkscape:window-width="1920"
     inkscape:window-height="1017"
     inkscape:window-x="-8"
     inkscape:window-y="209"
     inkscape:window-maximized="1"
     inkscape:current-layer="g1245" />
  <style
     type="text/css"
     id="style824">
    path {
        fill: none;
        stroke-linecap: butt;
        stroke-linejoin: bevel;
        stroke-dasharray: none;
    }
    path.outer {
        stroke: #000000;
        stroke-dasharray: none;
        stroke-dashoffset: 0;
        stroke-width: 0.3;
        stroke-opacity: 1.0;
    }
    path.convex {
        stroke: #000000;
        stroke-dasharray: 0.50,1.00;
        stroke-dashoffset:0;
        stroke-width:0.2;
        stroke-opacity: 1.0
    }
    path.concave {
        stroke: #000000;
        stroke-dasharray: 1.00,0.50,0.20,0.50;
        stroke-dashoffset: 0;
        stroke-width: 0.2;
        stroke-opacity: 1.0
    }
    path.freestyle {
        stroke: #000000;
        stroke-dasharray: none;
        stroke-dashoffset: 0;
        stroke-width: 0.2;
        stroke-opacity: 1.0
    }
    path.outer_background {
        stroke: #ffffff;
        stroke-opacity: 1.0;
        stroke-width: 0.5
    }
    path.inner_background {
        stroke: #ffffff;
        stroke-opacity: 1.0;
        stroke-width: 0.2
    }
    path.sticker {
        fill: #e5e5e5;
        stroke: none;
        fill-opacity: 1.0;
    }
    path.arrow {
        fill: #000000;
    }
    text {
        font-style: normal;
        fill: #000000;
        fill-opacity: 1.0;
        stroke: none;
    }
    text, tspan {
        text-anchor:middle;
    }
    </style>
  <g
     id="g1245">
    <path
       d="m 152.63565,189.67326 -1.94971,1.62649 -6.09308,-7.30391 1.94971,-1.62649 0.44729,0.53617 -1.29731,1.08224 5.19851,6.23157 1.29731,-1.08224 z"
       style="font-style:normal;font-size:medium;text-anchor:middle;fill:none;fill-opacity:1;stroke:#000000;stroke-width:0.25;stroke-linecap:butt;stroke-linejoin:bevel;stroke-dasharray:none;stroke-opacity:1"
       id="path903"
       inkscape:connector-curvature="0" />
    <path
       d="m 155.18446,182.41546 q 0.60368,0.72365 0.43788,1.67588 -0.16204,0.94911 -1.01692,1.66227 -0.90736,0.75694 -1.83827,0.73866 -0.92715,-0.0214 -1.53709,-0.75253 -0.38785,-0.46493 -0.43068,-1.06508 -0.046,-0.6039 0.26068,-1.23487 l -0.0188,-0.0225 q -0.65012,0.13538 -1.10531,0.0318 -0.45143,-0.10666 -0.80801,-0.5341 -0.52548,-0.6299 -0.35838,-1.48149 0.16711,-0.85158 0.96574,-1.51781 0.83613,-0.69752 1.66948,-0.71234 0.83336,-0.0148 1.34945,0.60384 0.31592,0.3787 0.38623,0.9432 0.0672,0.56075 -0.21821,1.14857 l 0.0188,0.0225 q 0.71259,-0.21294 1.2653,-0.11445 0.55272,0.0985 0.9781,0.60841 z m -3.16257,-1.98454 q -0.33468,-0.40119 -0.84294,-0.37779 -0.50764,0.0165 -0.98757,0.41689 -0.47243,0.39411 -0.58846,0.87243 -0.11228,0.4752 0.20675,0.85764 0.22521,0.26996 0.54097,0.34357 0.31637,0.0667 0.75207,-0.036 0.19504,-0.0482 0.54445,-0.15533 0.35317,-0.11022 0.66006,-0.24542 0.16476,-0.55712 0.0852,-0.94219 -0.0796,-0.38507 -0.37049,-0.73377 z m 2.44962,2.70012 q -0.28776,-0.34495 -0.61353,-0.42293 -0.32514,-0.0849 -0.94273,0.0743 -0.24503,0.0645 -0.51444,0.16844 -0.26941,0.1039 -0.72444,0.26733 -0.18418,0.46524 -0.12766,0.95222 0.0603,0.48386 0.39182,0.8813 0.42227,0.50617 1.04622,0.54524 0.62395,0.0391 1.16012,-0.40823 0.54742,-0.45667 0.63903,-1.01 0.0954,-0.55647 -0.31439,-1.04764 z"
       style="font-style:normal;font-size:medium;text-anchor:middle;fill:none;fill-opacity:1;stroke:#000000;stroke-width:0.25;stroke-linecap:butt;stroke-linejoin:bevel;stroke-dasharray:none;stroke-opacity:1"
       id="path905"
       inkscape:connector-curvature="0" />
    <path
       d="m 160.76444,182.89205 -1.94971,1.62649 -0.44728,-0.53617 1.2973,-1.08224 -5.19851,-6.23157 -1.2973,1.08224 -0.44729,-0.53618 1.94971,-1.62648 z"
       style="font-style:normal;font-size:medium;text-anchor:middle;fill:none;fill-opacity:1;stroke:#000000;stroke-width:0.25;stroke-linecap:butt;stroke-linejoin:bevel;stroke-dasharray:none;stroke-opacity:1"
       id="path907"
       inkscape:connector-curvature="0" />
    <path
       d="m 165.85988,176.14869 -2.20467,1.83919 -0.47544,-0.56992 0.73114,-0.60994 -3.70652,-4.44308 -0.73114,0.60993 -0.47543,-0.56992 2.20467,-1.83918 0.47544,0.56991 -0.73114,0.60994 3.70652,4.44308 0.73114,-0.60993 z"
       style="font-style:normal;font-size:medium;text-anchor:middle;fill:none;fill-opacity:1;stroke:#000000;stroke-width:0.25;stroke-linecap:butt;stroke-linejoin:bevel;stroke-dasharray:none;stroke-opacity:1"
       id="path909"
       inkscape:connector-curvature="0" />
    <path
       d="m 172.20693,168.21495 q 0.60368,0.72365 0.43789,1.67588 -0.16206,0.94912 -1.01693,1.66227 -0.90737,0.75694 -1.83827,0.73866 -0.92715,-0.0214 -1.53709,-0.75253 -0.38785,-0.46494 -0.43068,-1.06508 -0.046,-0.6039 0.26068,-1.23487 l -0.0188,-0.0225 q -0.65012,0.13538 -1.10531,0.0318 -0.45143,-0.10666 -0.80801,-0.5341 -0.52548,-0.6299 -0.35838,-1.48149 0.1671,-0.85158 0.96573,-1.51781 0.83613,-0.69752 1.66949,-0.71233 0.83336,-0.0148 1.34945,0.60383 0.31592,0.3787 0.38623,0.9432 0.0672,0.56075 -0.21821,1.14857 l 0.0188,0.0225 q 0.71259,-0.21294 1.2653,-0.11445 0.55271,0.0985 0.9781,0.60841 z m -3.16258,-1.98453 q -0.33468,-0.40119 -0.84294,-0.3778 -0.50763,0.0165 -0.98756,0.41689 -0.47243,0.39411 -0.58846,0.87243 -0.11229,0.4752 0.20675,0.85764 0.22521,0.26997 0.54097,0.34357 0.31637,0.0667 0.75207,-0.036 0.19504,-0.0482 0.54445,-0.15533 0.35317,-0.11022 0.66005,-0.24542 0.16477,-0.55712 0.0852,-0.94219 -0.0796,-0.38507 -0.3705,-0.73376 z m 2.44963,2.70012 q -0.28777,-0.34495 -0.61353,-0.42294 -0.32514,-0.0848 -0.94273,0.0743 -0.24504,0.0645 -0.51444,0.16843 -0.26942,0.10391 -0.72444,0.26734 -0.18419,0.46523 -0.12766,0.95221 0.0603,0.48386 0.39182,0.8813 0.42226,0.50618 1.04621,0.54524 0.62396,0.0391 1.16013,-0.40823 0.54742,-0.45667 0.63902,-1.00999 0.0954,-0.55647 -0.31438,-1.04764 z"
       style="font-style:normal;font-size:medium;text-anchor:middle;fill:none;fill-opacity:1;stroke:#000000;stroke-width:0.25;stroke-linecap:butt;stroke-linejoin:bevel;stroke-dasharray:none;stroke-opacity:1"
       id="path911"
       inkscape:connector-curvature="0" />
    <path
       style="fill:#e5e5e5;fill-opacity:1;stroke:#000000;stroke-width:0.25;stroke-linecap:butt;stroke-linejoin:bevel;stroke-dasharray:none;stroke-opacity:1"
       inkscape:connector-curvature="0"
       id="path9681"
       d="m 59.241411,169.11708 -3.65507,9.30942 -45.6907273,-17.11582 3.3608513,-9.41962 z m 48.602529,58.26099 -7.77949,6.28524 -48.40127,-58.01973 7.578231,-6.5265 z M 39.877554,76.161066 l 1.14744,-9.243426 18.227415,1.972505 -0.856538,9.274904 z m 131.785126,1.245363 5.3801,-8.430841 25.03294,15.426758 -5.11263,8.595686 z m -36.8266,-0.07319 0.17697,-9.999657 36.5124,0.07255 0.13723,10.0003 z m 62.12701,15.664792 7.77949,-6.285234 29.32978,35.158312 -7.57822,6.52649 z m -90.62558,8.109288 -6.28523,-7.779477 28.25732,-23.572829 6.52648,7.578226 z m -47.941639,-22.942271 4.45834,-8.952548 47.658259,22.806684 -4.17496,9.088135 z M 13.256465,151.89106 3.8744856,148.42653 29.735019,74.860084 39.877554,76.161066 Z m 151.891915,182.07628 -9.86957,1.61747 -8.64622,-48.01909 9.8139,-1.9267 z m -8.70189,-48.32832 -7.77949,6.28525 -48.40128,-58.0197 7.57822,-6.5265 z m 89.32651,17.13935 9.27816,0.82032 -1.32761,18.28568 -9.29935,-0.52847 z m 10.25222,-138.9812 9.37305,-3.4886 10.68842,27.39326 -9.25885,3.7813 z m 10.80262,27.68596 9.81362,1.92803 -6.47521,35.93372 -9.86935,-1.61882 z m -40.3337,-63.08553 7.77948,-6.28523 29.32982,35.15831 -7.57822,6.52649 z m 33.80276,99.32846 6.28523,7.77949 -28.25732,23.5728 -6.52648,-7.57823 z m -28.49857,23.77406 9.68943,-2.47779 13.89207,50.97511 -9.60683,2.78093 z m 12.62587,69.85578 -0.53868,10.2114 -77.01091,12.25117 -1.72623,-9.85113 z"
       class="sticker" />
    <path
       class="arrow"
       d="m 36.248936,160.50408 -5.856558,-12.87248 6.733548,10.53135 11.995489,-3.51543 z"
       id="path9685"
       inkscape:connector-curvature="0"
       style="fill:#000000;stroke:#000000;stroke-width:0.25;stroke-linecap:butt;stroke-linejoin:bevel;stroke-dasharray:none;stroke-opacity:1" />
    <path
       inkscape:connector-curvature="0"
       id="path915"
       style="font-style:normal;font-size:medium;text-anchor:middle;fill:none;fill-opacity:1;stroke:#000000;stroke-width:0.25;stroke-linecap:butt;stroke-linejoin:bevel;stroke-dasharray:none;stroke-opacity:1"
       d="m 43.588203,153.79631 -3.022051,2.52106 -0.475435,-0.56992 1.162327,-0.96963 -3.12161,-3.74195 -1.162327,0.96964 -0.42539,-0.50992 q 0.236215,-0.19706 0.474897,-0.45976 0.235553,-0.26645 0.311725,-0.45717 0.09428,-0.23762 0.0729,-0.46142 -0.02075,-0.23068 -0.209065,-0.48691 l 0.581163,-0.48482 4.197596,5.03176 1.13983,-0.95088 z" />
    <path
       d="m 37.304934,164.78805 0.909473,0.34069 0.645924,-1.7243 0.790131,0.29599 -0.645924,1.72429 2.934185,1.09915 -0.354563,0.94651 -4.262042,2.34535 -0.757206,-0.28365 1.402843,-3.7449 -0.909473,-0.34069 z m 1.452953,1.29511 -1.035946,2.76547 3.410451,-1.87598 z"
       style="font-style:normal;font-size:medium;text-anchor:middle;fill:none;fill-opacity:1;stroke:#000000;stroke-width:0.25;stroke-linecap:butt;stroke-linejoin:bevel;stroke-dasharray:none;stroke-opacity:1"
       id="path918"
       inkscape:connector-curvature="0" />
    <path
       d="m 33.845186,165.43013 0.983546,0.36844 -0.439351,1.17285 -0.983546,-0.36844 z m 1.282597,-3.4239 0.983546,0.36843 -0.439351,1.17285 -0.983546,-0.36843 z"
       style="font-style:normal;font-size:medium;text-anchor:middle;fill:none;fill-opacity:1;stroke:#000000;stroke-width:0.25;stroke-linecap:butt;stroke-linejoin:bevel;stroke-dasharray:none;stroke-opacity:1"
       id="path920"
       inkscape:connector-curvature="0" />
    <path
       d="m 29.238839,159.80022 3.316904,1.24252 -0.234321,0.62552 -1.275738,-0.47789 -1.5385,4.10703 1.275738,0.47789 -0.209656,0.55968 q -0.259266,-0.0971 -0.57096,-0.167 -0.313246,-0.0658 -0.496359,-0.0405 -0.227845,0.032 -0.393414,0.14827 -0.171243,0.11888 -0.287897,0.3802 l -0.637874,-0.23895 2.068804,-5.52269 -1.251034,-0.46863 z"
       style="font-style:normal;font-size:medium;text-anchor:middle;fill:none;fill-opacity:1;stroke:#000000;stroke-width:0.25;stroke-linecap:butt;stroke-linejoin:bevel;stroke-dasharray:none;stroke-opacity:1"
       id="path922"
       inkscape:connector-curvature="0" />
    <path
       class="arrow"
       d="m 49.136702,77.16304 8.866073,11.017837 -9.135043,-8.532348 -10.748867,6.380584 z"
       id="path9697"
       inkscape:connector-curvature="0"
       style="fill:#000000;stroke:#000000;stroke-width:0.25;stroke-linecap:butt;stroke-linejoin:bevel;stroke-dasharray:none;stroke-opacity:1" />
    <path
       inkscape:connector-curvature="0"
       id="path925"
       style="font-style:normal;font-size:medium;text-anchor:middle;fill:none;fill-opacity:1;stroke:#000000;stroke-width:0.25;stroke-linecap:butt;stroke-linejoin:bevel;stroke-dasharray:none;stroke-opacity:1"
       d="m 52.669228,87.565255 -3.779437,3.152888 -0.653724,-0.783633 q 0.112183,-0.665876 0.224367,-1.331752 0.115933,-0.669003 0.178752,-1.287339 0.13811,-1.297947 0.06338,-1.928714 -0.07785,-0.634517 -0.475094,-1.110696 -0.362832,-0.434936 -0.85485,-0.437804 -0.491397,-0.0097 -1.005071,0.418772 -0.341199,0.284636 -0.638548,0.736172 -0.297349,0.451536 -0.469604,1.014913 l -0.03749,0.03128 -0.656852,-0.787383 q 0.156735,-0.353309 0.508461,-0.831131 0.355476,-0.48095 0.771664,-0.828143 0.858622,-0.716281 1.693243,-0.706715 0.831493,0.0058 1.422659,0.71446 0.265869,0.318703 0.414843,0.664975 0.149596,0.339394 0.198558,0.718228 0.0477,0.354452 0.03665,0.745195 -0.0073,0.387616 -0.06017,0.895915 -0.07276,0.728373 -0.190542,1.456144 -0.120906,0.724022 -0.22936,1.348634 l 3.003304,-2.50542 z" />
    <path
       d="m 46.52639,75.194396 -3.278847,-0.354824 0.06692,-0.61835 1.261097,0.136471 0.439348,-4.059907 -1.261097,-0.136471 0.05987,-0.55325 q 0.256283,0.02773 0.553584,0.01877 0.297741,-0.01304 0.457068,-0.07813 0.198133,-0.08145 0.320634,-0.224587 0.127008,-0.146768 0.171888,-0.409434 l 0.630549,0.06824 -0.590787,5.459316 1.23669,0.133831 z"
       style="font-style:normal;font-size:medium;text-anchor:middle;fill:none;fill-opacity:1;stroke:#000000;stroke-width:0.25;stroke-linecap:butt;stroke-linejoin:bevel;stroke-dasharray:none;stroke-opacity:1"
       id="path928"
       inkscape:connector-curvature="0" />
    <path
       d="m 50.167442,72.164162 -0.972264,-0.105215 0.125465,-1.159391 0.972264,0.105215 z m -0.366271,3.384619 -0.972264,-0.105215 0.125466,-1.159401 0.972264,0.105215 z"
       style="font-style:normal;font-size:medium;text-anchor:middle;fill:none;fill-opacity:1;stroke:#000000;stroke-width:0.25;stroke-linecap:butt;stroke-linejoin:bevel;stroke-dasharray:none;stroke-opacity:1"
       id="path930"
       inkscape:connector-curvature="0" />
    <path
       d="m 55.968325,76.216168 -4.100589,-0.443751 0.09201,-0.850226 q 0.466767,-0.319898 0.933533,-0.639796 0.470833,-0.319459 0.880202,-0.641454 0.862943,-0.672139 1.199761,-1.084294 0.337259,-0.416231 0.393169,-0.932874 0.05107,-0.471895 -0.23356,-0.770219 -0.28012,-0.301941 -0.837437,-0.362251 -0.370198,-0.04006 -0.815497,0.04344 -0.4453,0.08352 -0.885227,0.307545 l -0.04066,-0.0044 0.09245,-0.854293 q 0.304242,-0.111122 0.797035,-0.177146 0.49687,-0.06558 0.948424,-0.01672 0.931581,0.100812 1.411559,0.609585 0.480427,0.504718 0.397224,1.273579 -0.03742,0.345782 -0.159475,0.637141 -0.117538,0.287724 -0.317485,0.537724 -0.185948,0.235048 -0.427963,0.455801 -0.237958,0.221183 -0.575194,0.485142 -0.481502,0.380032 -0.988847,0.732584 -0.506896,0.348487 -0.946614,0.646619 l 3.258506,0.352624 z"
       style="font-style:normal;font-size:medium;text-anchor:middle;fill:none;fill-opacity:1;stroke:#000000;stroke-width:0.25;stroke-linecap:butt;stroke-linejoin:bevel;stroke-dasharray:none;stroke-opacity:1"
       id="path932"
       inkscape:connector-curvature="0" />
    <path
       class="arrow"
       d="m 26.566991,114.02605 12.750412,-6.11776 -10.391891,6.94684 3.759237,11.92133 z"
       id="path9709"
       inkscape:connector-curvature="0"
       style="fill:#000000;stroke:#000000;stroke-width:0.24999999;stroke-linecap:butt;stroke-linejoin:bevel;stroke-dasharray:none;stroke-opacity:1" />
    <path
       inkscape:connector-curvature="0"
       id="path935"
       style="font-style:normal;font-size:medium;text-anchor:middle;fill:none;fill-opacity:1;stroke:#000000;stroke-width:0.25;stroke-linecap:butt;stroke-linejoin:bevel;stroke-dasharray:none;stroke-opacity:1"
       d="m 36.824631,116.1866 q 0.314471,0.0111 0.634015,0.15784 0.319544,0.14675 0.641714,0.53294 0.319043,0.38244 0.446182,0.81687 0.127139,0.43444 0.07298,0.88022 -0.06226,0.49705 -0.338353,0.94357 -0.275474,0.43965 -0.729157,0.81812 -0.464931,0.38786 -1.0087,0.65072 -0.540641,0.26661 -0.938823,0.37622 l -0.653724,-0.78363 0.05624,-0.0469 q 0.493863,-0.0559 1.04078,-0.27687 0.546917,-0.22098 0.948108,-0.55566 0.236214,-0.19706 0.43674,-0.49787 0.200525,-0.30082 0.237258,-0.59217 0.03485,-0.30886 -0.04844,-0.57639 -0.07954,-0.27066 -0.332897,-0.57437 -0.250229,-0.29995 -0.510364,-0.4136 -0.259513,-0.12052 -0.522073,-0.0922 -0.265689,0.0245 -0.54006,0.18346 -0.277499,0.15519 -0.554957,0.38665 l -0.33745,0.28151 -0.519226,-0.62241 0.262461,-0.21895 q 0.569915,-0.47544 0.71031,-0.99316 0.141015,-0.5246 -0.240584,-0.98203 -0.168905,-0.20247 -0.380257,-0.28051 -0.214479,-0.0818 -0.449531,-0.051 -0.242551,0.037 -0.457552,0.15279 -0.215001,0.11577 -0.447466,0.3097 -0.356197,0.29714 -0.65104,0.75931 -0.294843,0.46216 -0.457113,0.99177 l -0.03749,0.0313 -0.653724,-0.78363 q 0.156735,-0.35331 0.508461,-0.83114 0.352348,-0.48469 0.768536,-0.83189 0.408689,-0.34093 0.78245,-0.52556 0.373761,-0.18462 0.7626,-0.22921 0.420097,-0.0452 0.771521,0.094 0.351425,0.13923 0.63606,0.48043 0.387856,0.46493 0.348796,1.08888 -0.03844,0.61708 -0.409552,1.07928 l 0.04379,0.0525 q 0.204997,-0.12014 0.518786,-0.21658 0.310663,-0.10019 0.590748,-0.0922 z" />
    <path
       d="m 22.918833,118.97643 -1.17464,3.34154 -0.630169,-0.22152 0.451787,-1.28521 -4.137544,-1.45446 -0.451787,1.28521 -0.563838,-0.1982 q 0.09182,-0.26119 0.155329,-0.57424 0.05937,-0.31453 0.03034,-0.49708 -0.03661,-0.22715 -0.156263,-0.39032 -0.122339,-0.16878 -0.385988,-0.28008 l 0.225895,-0.64261 5.563714,1.95579 0.443039,-1.26033 z"
       style="font-style:normal;font-size:medium;text-anchor:middle;fill:none;fill-opacity:1;stroke:#000000;stroke-width:0.25;stroke-linecap:butt;stroke-linejoin:bevel;stroke-dasharray:none;stroke-opacity:1"
       id="path938"
       inkscape:connector-curvature="0" />
    <path
       d="m 24.943125,113.21785 -1.469032,4.17901 -0.866483,-0.30459 q -0.220102,-0.56648 -0.440198,-1.13295 -0.218646,-0.57062 -0.455012,-1.0776 -0.491308,-1.06707 -0.839724,-1.52029 -0.352571,-0.45466 -0.879097,-0.63975 -0.480912,-0.16905 -0.862614,0.0554 -0.384389,0.2189 -0.584048,0.78688 -0.13262,0.37727 -0.15443,0.86336 -0.02182,0.4861 0.104612,1.00102 l -0.01456,0.0414 -0.870625,-0.30605 q -0.04163,-0.34536 0.01011,-0.87683 0.0532,-0.53561 0.21497,-0.99581 0.333736,-0.94939 0.983379,-1.32658 0.645503,-0.37865 1.429069,-0.1032 0.352392,0.12387 0.627119,0.32294 0.272036,0.19347 0.484459,0.46376 0.200203,0.25205 0.371711,0.55922 0.172964,0.30303 0.366306,0.72036 0.27938,0.59662 0.523678,1.21353 0.24015,0.61544 0.444119,1.1483 l 1.167355,-3.32082 z"
       style="font-style:normal;font-size:medium;text-anchor:middle;fill:none;fill-opacity:1;stroke:#000000;stroke-width:0.25;stroke-linecap:butt;stroke-linejoin:bevel;stroke-dasharray:none;stroke-opacity:1"
       id="path940"
       inkscape:connector-curvature="0" />
    <path
       d="m 22.543094,109.02032 -0.348311,0.99085 -1.181562,-0.41535 0.348311,-0.99085 z m 3.449337,1.21253 -0.34831,0.99085 -1.181563,-0.41535 0.348311,-0.99085 z"
       style="font-style:normal;font-size:medium;text-anchor:middle;fill:none;fill-opacity:1;stroke:#000000;stroke-width:0.25;stroke-linecap:butt;stroke-linejoin:bevel;stroke-dasharray:none;stroke-opacity:1"
       id="path942"
       inkscape:connector-curvature="0" />
    <path
       d="m 25.038326,103.44593 q 0.248217,-0.13633 0.56288,-0.17012 0.314654,-0.0338 0.741678,0.11632 0.422874,0.14865 0.721354,0.42592 0.298468,0.27727 0.462018,0.64685 0.180898,0.41295 0.173208,0.88539 -0.01038,0.46681 -0.186721,0.96846 -0.180714,0.51408 -0.479979,0.96787 -0.295112,0.45523 -0.552435,0.72345 l -0.866474,-0.30458 0.02185,-0.0622 q 0.356038,-0.27078 0.677034,-0.69363 0.320986,-0.42285 0.476926,-0.86646 0.09181,-0.26118 0.108212,-0.58616 0.0164,-0.32496 -0.08944,-0.56712 -0.115378,-0.25484 -0.303045,-0.42329 -0.186211,-0.17259 -0.522027,-0.29064 -0.331665,-0.11658 -0.585145,-0.0846 -0.256162,0.0264 -0.446116,0.16926 -0.194101,0.14138 -0.332977,0.39068 -0.142989,0.24786 -0.250833,0.55464 l -0.131164,0.37313 -0.688207,-0.24192 0.102014,-0.2902 q 0.22152,-0.63017 0.0915,-1.09511 -0.132714,-0.47054 -0.638513,-0.64835 -0.22387,-0.0787 -0.423221,-0.0416 -0.203501,0.0356 -0.371049,0.16769 -0.170453,0.14039 -0.283326,0.32896 -0.112827,0.18858 -0.203183,0.44562 -0.13845,0.39386 -0.153427,0.88702 -0.01498,0.49315 0.103609,0.97736 l -0.01456,0.0414 -0.866474,-0.30459 q -0.04163,-0.34537 0.01011,-0.87684 0.04905,-0.53708 0.210816,-0.99726 0.158856,-0.45191 0.362741,-0.76685 0.203889,-0.31496 0.483939,-0.52861 0.303935,-0.22855 0.639777,-0.28284 0.33583,-0.0543 0.713108,0.0783 0.514082,0.18071 0.771395,0.68108 0.25463,0.49477 0.180704,1.0231 l 0.05802,0.0204 q 0.103162,-0.18733 0.301266,-0.40649 0.194009,-0.22061 0.414217,-0.3435 z"
       style="font-style:normal;font-size:medium;text-anchor:middle;fill:none;fill-opacity:1;stroke:#000000;stroke-width:0.25;stroke-linecap:butt;stroke-linejoin:bevel;stroke-dasharray:none;stroke-opacity:1"
       id="path944"
       inkscape:connector-curvature="0" />
    <path
       class="arrow"
       d="m 160.79742,309.80318 8.06965,-11.61382 -5.60922,11.1708 9.15339,8.51267 z"
       id="path9721"
       inkscape:connector-curvature="0"
       style="fill:#000000;stroke:#000000;stroke-width:0.25;stroke-linecap:butt;stroke-linejoin:bevel;stroke-dasharray:none;stroke-opacity:1" />
    <path
       inkscape:connector-curvature="0"
       id="path947"
       style="font-style:normal;font-size:medium;text-anchor:middle;fill:none;fill-opacity:1;stroke:#000000;stroke-width:0.25;stroke-linecap:butt;stroke-linejoin:bevel;stroke-dasharray:none;stroke-opacity:1"
       d="m 172.97269,307.98537 -0.82862,0.69126 1.31057,1.57102 -0.71989,0.60055 -1.31058,-1.57102 -2.67335,2.23017 -0.71941,-0.86237 0.0759,-5.40472 0.6899,-0.57553 2.84636,3.41199 0.82863,-0.69126 z m -2.04897,0.6919 -2.10193,-2.51962 -0.0615,4.3244 z" />
    <path
       d="m 157.65532,312.90066 0.1721,0.95582 1.81216,-0.3263 0.14952,0.8304 -1.81216,0.32629 0.55524,3.08371 -0.99475,0.17912 -4.19445,-2.46417 -0.14329,-0.79579 3.93573,-0.70866 -0.17211,-0.95582 z m -0.37038,1.91081 -2.90639,0.52332 3.35572,1.97219 z"
       style="font-style:normal;font-size:medium;text-anchor:middle;fill:none;fill-opacity:1;stroke:#000000;stroke-width:0.25;stroke-linecap:butt;stroke-linejoin:bevel;stroke-dasharray:none;stroke-opacity:1"
       id="path950"
       inkscape:connector-curvature="0" />
    <path
       d="m 155.33487,310.25534 0.18612,1.03367 -1.23262,0.22194 -0.18612,-1.03366 z m 3.59838,-0.64791 0.18612,1.03366 -1.23261,0.22195 -0.18612,-1.03367 z"
       style="font-style:normal;font-size:medium;text-anchor:middle;fill:none;fill-opacity:1;stroke:#000000;stroke-width:0.25;stroke-linecap:butt;stroke-linejoin:bevel;stroke-dasharray:none;stroke-opacity:1"
       id="path952"
       inkscape:connector-curvature="0" />
    <path
       d="m 155.91404,303.23 0.1721,0.95582 1.81216,-0.32629 0.14952,0.8304 -1.81216,0.32629 0.55525,3.08371 -0.99476,0.17911 -4.19445,-2.46417 -0.14329,-0.79579 3.93573,-0.70866 -0.1721,-0.95582 z m -0.37038,1.91082 -2.90638,0.52332 3.35572,1.97219 z"
       style="font-style:normal;font-size:medium;text-anchor:middle;fill:none;fill-opacity:1;stroke:#000000;stroke-width:0.25;stroke-linecap:butt;stroke-linejoin:bevel;stroke-dasharray:none;stroke-opacity:1"
       id="path954"
       inkscape:connector-curvature="0" />
    <path
       class="arrow"
       d="m 245.0986,312.06713 -10.69788,9.24961 8.20444,-9.43064 -6.75617,-10.51685 z"
       id="path9733"
       inkscape:connector-curvature="0"
       style="fill:#000000;stroke:#000000;stroke-width:0.25000003;stroke-linecap:butt;stroke-linejoin:bevel;stroke-dasharray:none;stroke-opacity:1" />
    <path
       inkscape:connector-curvature="0"
       id="path957"
       style="font-style:normal;font-size:medium;text-anchor:middle;fill:none;fill-opacity:1;stroke:#000000;stroke-width:0.25;stroke-linecap:butt;stroke-linejoin:bevel;stroke-dasharray:none;stroke-opacity:1"
       d="m 239.09856,311.13389 q 0.3253,0.38995 0.47997,0.865 0.15467,0.47506 0.11052,0.92521 -0.051,0.48767 -0.3071,0.94293 -0.25546,0.44839 -0.74664,0.85814 -0.45743,0.3816 -0.96244,0.63756 -0.50189,0.25972 -0.90695,0.36871 l -0.65997,-0.79113 0.0525,-0.0438 q 0.4701,-0.0615 0.99827,-0.26685 0.52504,-0.20909 0.92248,-0.54064 0.26621,-0.22208 0.45112,-0.50351 0.18865,-0.28455 0.22723,-0.63467 0.0305,-0.29886 -0.0747,-0.59264 -0.10143,-0.2969 -0.34853,-0.59311 -0.24085,-0.28871 -0.50786,-0.40297 -0.26326,-0.1174 -0.53958,-0.0904 -0.31383,0.0202 -0.64195,0.19852 -0.32751,0.17147 -0.67246,0.45923 -0.32995,0.27525 -0.59987,0.57673 -0.26617,0.29835 -0.44985,0.52789 l -2.39907,-2.87582 3.3595,-2.80257 0.54737,0.65615 -2.63585,2.19889 1.23863,1.48478 q 0.14872,-0.1495 0.31119,-0.29775 0.16246,-0.14825 0.28619,-0.25147 0.45369,-0.37848 0.86057,-0.58437 0.40376,-0.20965 0.85136,-0.2524 0.47199,-0.044 0.90909,0.14457 0.4371,0.18857 0.84685,0.67975 z" />
    <path
       d="m 246.97384,309.38894 0.23881,-3.28933 0.62033,0.045 -0.0918,1.26513 4.07289,0.29571 0.0918,-1.26513 0.55502,0.0403 q -0.0187,0.2571 7.9e-4,0.5539 0.0236,0.29709 0.0942,0.45402 0.0884,0.19514 0.23577,0.31251 0.15116,0.12174 0.41525,0.15732 l -0.0459,0.63256 -5.47677,-0.39763 -0.0901,1.24064 z"
       style="font-style:normal;font-size:medium;text-anchor:middle;fill:none;fill-opacity:1;stroke:#000000;stroke-width:0.25;stroke-linecap:butt;stroke-linejoin:bevel;stroke-dasharray:none;stroke-opacity:1"
       id="path960"
       inkscape:connector-curvature="0" />
    <path
       d="m 250.13076,312.92071 0.0708,-0.97537 1.1631,0.0844 -0.0708,0.97538 z m -3.39544,-0.24652 0.0708,-0.97537 1.1631,0.0844 -0.0708,0.97538 z"
       style="font-style:normal;font-size:medium;text-anchor:middle;fill:none;fill-opacity:1;stroke:#000000;stroke-width:0.25;stroke-linecap:butt;stroke-linejoin:bevel;stroke-dasharray:none;stroke-opacity:1"
       id="path962"
       inkscape:connector-curvature="0" />
    <path
       d="m 248.22002,318.95224 q -0.42442,-0.0308 -0.80087,-0.21404 -0.37644,-0.18323 -0.62215,-0.47184 -0.26434,-0.31458 -0.38979,-0.73394 -0.12166,-0.41498 -0.0828,-0.94961 0.0361,-0.49789 0.17573,-0.95134 0.13552,-0.45376 0.30554,-0.76141 l 0.8611,0.0625 -0.004,0.0572 q -0.23651,0.31924 -0.42011,0.75718 -0.1795,0.43825 -0.21091,0.87085 -0.021,0.28975 0.041,0.56503 0.0617,0.27935 0.25042,0.50638 0.16245,0.19231 0.40079,0.29987 0.23805,0.11163 0.56045,0.13504 0.31424,0.0228 0.53854,-0.0717 0.224,-0.0904 0.36852,-0.27273 0.17049,-0.20095 0.25393,-0.50259 0.0872,-0.29726 0.11451,-0.67271 0.0261,-0.35913 0.001,-0.69734 -0.025,-0.33411 -0.0565,-0.57845 l 3.13017,0.22726 -0.26548,3.65662 -0.71419,-0.0519 0.2083,-2.86898 -1.6161,-0.11733 q 0.004,0.17666 -0.002,0.3609 -0.005,0.18423 -0.0151,0.3189 -0.0359,0.49381 -0.14849,0.85897 -0.10855,0.36545 -0.34332,0.6602 -0.24816,0.31019 -0.61625,0.46398 -0.36809,0.15379 -0.90271,0.11497 z"
       style="font-style:normal;font-size:medium;text-anchor:middle;fill:none;fill-opacity:1;stroke:#000000;stroke-width:0.25;stroke-linecap:butt;stroke-linejoin:bevel;stroke-dasharray:none;stroke-opacity:1"
       id="path964"
       inkscape:connector-curvature="0" />
    <path
       class="arrow"
       d="m 204.78629,327.66162 -11.44689,-8.30474 11.05412,5.83579 8.69751,-8.97794 z"
       id="path9745"
       inkscape:connector-curvature="0"
       style="fill:#000000;stroke:#000000;stroke-width:0.25000003;stroke-linecap:butt;stroke-linejoin:bevel;stroke-dasharray:none;stroke-opacity:1" />
    <path
       inkscape:connector-curvature="0"
       id="path967"
       style="font-style:normal;font-size:medium;text-anchor:middle;fill:none;fill-opacity:1;stroke:#000000;stroke-width:0.25;stroke-linecap:butt;stroke-linejoin:bevel;stroke-dasharray:none;stroke-opacity:1"
       d="m 205.05007,319.5116 q 0.71002,0.85112 0.59802,1.86022 -0.11138,1.00222 -0.92501,1.68097 -0.41244,0.34407 -0.85624,0.49809 -0.4438,0.15403 -0.91208,0.11864 -0.58206,-0.0422 -1.1868,-0.40887 -0.60099,-0.36979 -1.20467,-1.09344 -0.61932,-0.74239 -0.94041,-1.44742 -0.31733,-0.70816 -0.34085,-1.44524 -0.0235,-0.69894 0.30062,-1.36993 0.32099,-0.67473 1.01463,-1.25339 0.22122,-0.18454 0.38684,-0.29091 0.16562,-0.10637 0.36,-0.18587 l 0.59743,0.71615 -0.0375,0.0313 q -0.1519,0.0313 -0.40628,0.16088 -0.25376,0.12267 -0.47498,0.30721 -0.80613,0.67249 -0.86379,1.57903 -0.0608,0.9028 0.57675,1.8271 0.15543,-0.45396 0.37781,-0.8048 0.223,-0.35772 0.62419,-0.6924 0.3562,-0.29715 0.68246,-0.45487 0.32688,-0.16459 0.77762,-0.20359 0.52075,-0.0465 0.97661,0.16454 0.45962,0.20794 0.87563,0.70662 z m -0.73612,0.66495 q -0.29089,-0.3487 -0.58667,-0.48983 -0.29204,-0.14427 -0.66901,-0.11594 -0.27256,0.0239 -0.51381,0.16157 -0.24125,0.13767 -0.46996,0.32847 -0.31871,0.26586 -0.52986,0.56919 -0.21115,0.30332 -0.36849,0.70164 0.0613,0.0887 0.12325,0.17061 0.0588,0.0781 0.15578,0.19435 0.4942,0.59241 0.90194,0.83727 0.40837,0.23798 0.78787,0.25841 0.3101,0.0211 0.5745,-0.0659 0.26503,-0.0939 0.50125,-0.29098 0.54366,-0.45354 0.57962,-1.0431 0.0328,-0.59331 -0.48641,-1.21572 z" />
    <path
       inkscape:connector-curvature="0"
       id="path969"
       style="font-style:normal;font-size:medium;text-anchor:middle;fill:none;fill-opacity:1;stroke:#000000;stroke-width:0.25;stroke-linecap:butt;stroke-linejoin:bevel;stroke-dasharray:none;stroke-opacity:1"
       d="m 208.82924,319.43022 -0.89612,0.74756 -0.89144,-1.06859 0.89612,-0.74756 z" />
    <path
       d="m 212.49041,328.25859 3.498,-0.55647 0.10494,0.65967 -1.34539,0.21403 0.68903,4.33128 1.3454,-0.21403 0.0939,0.59023 q -0.27342,0.0435 -0.57899,0.13656 -0.3049,0.0974 -0.45166,0.20979 -0.18238,0.14026 -0.26898,0.32313 -0.0903,0.1879 -0.0627,0.47276 l -0.6727,0.10702 -0.92654,-5.82423 -1.31934,0.20989 z"
       style="font-style:normal;font-size:medium;text-anchor:middle;fill:none;fill-opacity:1;stroke:#000000;stroke-width:0.25;stroke-linecap:butt;stroke-linejoin:bevel;stroke-dasharray:none;stroke-opacity:1"
       id="path972"
       inkscape:connector-curvature="0" />
    <path
       d="m 207.52577,332.23889 q -0.23801,-0.15349 -0.41743,-0.41418 -0.17941,-0.2607 -0.25052,-0.70771 -0.0704,-0.44268 0.0315,-0.83712 0.10188,-0.39444 0.34917,-0.71411 0.27717,-0.35558 0.69637,-0.57356 0.41555,-0.21295 0.94068,-0.29649 0.53816,-0.0856 1.07967,-0.0383 0.54081,0.043 0.89915,0.14175 l 0.1443,0.90705 -0.0651,0.0104 q -0.40756,-0.18434 -0.9322,-0.26553 -0.52464,-0.0812 -0.98902,-0.007 -0.27341,0.0435 -0.56704,0.18367 -0.29365,0.14018 -0.4563,0.34848 -0.16925,0.22271 -0.22814,0.46792 -0.0632,0.2459 -0.007,0.59743 0.0552,0.3472 0.20398,0.55492 0.14508,0.21276 0.3611,0.31189 0.2167,0.10348 0.50205,0.10703 0.28604,0.008 0.6072,-0.0432 l 0.39059,-0.0621 0.11461,0.72044 -0.30379,0.0483 q -0.65968,0.10494 -1.00678,0.44049 -0.35075,0.34059 -0.26652,0.87006 0.0373,0.23436 0.16472,0.39208 0.12813,0.16206 0.32401,0.24659 0.20457,0.0831 0.42414,0.0927 0.21955,0.01 0.48863,-0.0333 0.41229,-0.0656 0.8532,-0.28702 0.44089,-0.22144 0.81038,-0.5561 l 0.0434,-0.007 0.1443,0.90706 q -0.28398,0.20092 -0.77607,0.40824 -0.49575,0.21236 -0.97748,0.289 -0.47305,0.0752 -0.84708,0.0457 -0.37403,-0.0295 -0.69518,-0.17419 -0.34562,-0.1586 -0.55314,-0.42818 -0.20753,-0.26957 -0.27036,-0.66451 -0.0856,-0.53815 0.2321,-1.00252 0.31406,-0.45934 0.81394,-0.64566 l -0.01,-0.0607 q -0.21385,-0.002 -0.50087,-0.0716 -0.28634,-0.0657 -0.49919,-0.20092 z"
       style="font-style:normal;font-size:medium;text-anchor:middle;fill:none;fill-opacity:1;stroke:#000000;stroke-width:0.25;stroke-linecap:butt;stroke-linejoin:bevel;stroke-dasharray:none;stroke-opacity:1"
       id="path974"
       inkscape:connector-curvature="0" />
    <path
       d="m 203.91186,333.32552 1.03724,-0.165 0.19677,1.23688 -1.03724,0.16501 z m -0.57443,-3.61084 1.03725,-0.16501 0.19677,1.23689 -1.03725,0.16501 z"
       style="font-style:normal;font-size:medium;text-anchor:middle;fill:none;fill-opacity:1;stroke:#000000;stroke-width:0.25;stroke-linecap:butt;stroke-linejoin:bevel;stroke-dasharray:none;stroke-opacity:1"
       id="path976"
       inkscape:connector-curvature="0" />
    <path
       d="m 196.99605,332.87274 q -0.15673,-0.98517 0.39485,-1.71369 0.54793,-0.72349 1.48969,-0.8733 0.4774,-0.076 0.89147,0.009 0.41407,0.0854 0.75979,0.32856 0.43054,0.30084 0.7291,0.86297 0.29423,0.56281 0.42748,1.40042 0.1367,0.85931 0.06,1.55232 -0.081,0.6937 -0.40244,1.27436 -0.3039,0.55118 -0.86366,0.92056 -0.55907,0.37373 -1.36196,0.50146 -0.25605,0.0407 -0.43311,0.0466 -0.17706,0.006 -0.36396,-0.0222 l -0.13187,-0.82893 0.0433,-0.007 q 0.13188,0.0457 0.38824,0.0628 0.25269,0.0221 0.50875,-0.0187 0.93309,-0.14844 1.3954,-0.82271 0.463,-0.66993 0.39604,-1.67827 -0.32935,0.27933 -0.66294,0.44809 -0.33723,0.1738 -0.80161,0.24767 -0.4123,0.0656 -0.73719,0.0372 -0.32856,-0.0234 -0.69499,-0.20093 -0.42404,-0.20398 -0.6792,-0.57722 -0.25951,-0.37254 -0.35133,-0.94975 z m 0.87548,-0.17492 q 0.0642,0.40362 0.22784,0.64903 0.1593,0.24609 0.46379,0.39789 0.22172,0.10712 0.47167,0.11186 0.24993,0.005 0.51467,-0.0374 0.36889,-0.0587 0.6719,-0.1959 0.303,-0.13721 0.60819,-0.37264 -0.006,-0.0969 -0.0167,-0.18868 -0.01,-0.0874 -0.0313,-0.22197 -0.10908,-0.68572 -0.31147,-1.0629 -0.20605,-0.37215 -0.49002,-0.56282 -0.23002,-0.1592 -0.47454,-0.21374 -0.24816,-0.0495 -0.52158,-0.006 -0.6293,0.10011 -0.92875,0.53932 -0.29877,0.44357 -0.18417,1.164 z"
       style="font-style:normal;font-size:medium;text-anchor:middle;fill:none;fill-opacity:1;stroke:#000000;stroke-width:0.25;stroke-linecap:butt;stroke-linejoin:bevel;stroke-dasharray:none;stroke-opacity:1"
       id="path978"
       inkscape:connector-curvature="0" />
    <path
       d="m 194.0369,331.19424 1.03725,-0.16501 0.19677,1.23689 -1.03725,0.16501 z"
       style="font-style:normal;font-size:medium;text-anchor:middle;fill:none;fill-opacity:1;stroke:#000000;stroke-width:0.25;stroke-linecap:butt;stroke-linejoin:bevel;stroke-dasharray:none;stroke-opacity:1"
       id="path980"
       inkscape:connector-curvature="0" />
  </g>
</svg>
