<?xml version="1.0" encoding="UTF-8" standalone="no"?>
<svg
   version="1.1"
   width="320.00mm"
   height="620.00mm"
   viewBox="0 0 320.00 620.00"
   id="svg934"
   sodipodi:docname="backrest_page2.svg"
   inkscape:version="1.1.1 (c3084ef, 2021-09-22)"
   xmlns:inkscape="http://www.inkscape.org/namespaces/inkscape"
   xmlns:sodipodi="http://sodipodi.sourceforge.net/DTD/sodipodi-0.dtd"
   xmlns="http://www.w3.org/2000/svg"
   xmlns:svg="http://www.w3.org/2000/svg">
  <defs
     id="defs938" />
  <sodipodi:namedview
     id="namedview936"
     pagecolor="#ffffff"
     bordercolor="#666666"
     borderopacity="1.0"
     inkscape:pageshadow="2"
     inkscape:pageopacity="0.0"
     inkscape:pagecheckerboard="0"
     inkscape:document-units="mm"
     showgrid="false"
     inkscape:zoom="0.33926411"
     inkscape:cx="605.72278"
     inkscape:cy="1171.6535"
     inkscape:window-width="1792"
     inkscape:window-height="975"
     inkscape:window-x="0"
     inkscape:window-y="25"
     inkscape:window-maximized="1"
     inkscape:current-layer="svg934" />
  <style
     type="text/css"
     id="style824">
    path {
        fill: none;
        stroke-linecap: butt;
        stroke-linejoin: bevel;
        stroke-dasharray: none;
    }
    path.outer {
        stroke: #000000;
        stroke-dasharray: none;
        stroke-dashoffset: 0;
        stroke-width: 0.3;
        stroke-opacity: 1.0;
    }
    path.convex {
        stroke: #000000;
        stroke-dasharray: 0.50,1.00;
        stroke-dashoffset:0;
        stroke-width:0.2;
        stroke-opacity: 1.0
    }
    path.concave {
        stroke: #000000;
        stroke-dasharray: 1.00,0.50,0.20,0.50;
        stroke-dashoffset: 0;
        stroke-width: 0.2;
        stroke-opacity: 1.0
    }
    path.freestyle {
        stroke: #000000;
        stroke-dasharray: none;
        stroke-dashoffset: 0;
        stroke-width: 0.2;
        stroke-opacity: 1.0
    }
    path.outer_background {
        stroke: #ffffff;
        stroke-opacity: 1.0;
        stroke-width: 0.5
    }
    path.inner_background {
        stroke: #ffffff;
        stroke-opacity: 1.0;
        stroke-width: 0.2
    }
    path.sticker {
        fill: #e5e5e5;
        stroke: none;
        fill-opacity: 1.0;
    }
    path.arrow {
        fill: #000000;
    }
    text {
        font-style: normal;
        fill: #000000;
        fill-opacity: 1.0;
        stroke: none;
    }
    text, tspan {
        text-anchor:middle;
    }
    </style>
  <g
     id="g932"
     transform="translate(23.283334)">
    <text
       transform="translate(143.9158,301.98705)"
       style="font-size:10px"
       id="text828"><tspan
         id="tspan826">[4] I 4</tspan></text>
    <path
       class="sticker"
       d="m 144.13345,597.99993 -0.15709,10 H 68.418622 l -0.157088,-10 z M 33.602931,306.40992 l -9.957169,0.93779 -10.337689,-93.93215 9.9228,-1.25009 z m 0.07108,99.0662 -10.000041,-0.15448 -0.01196,-45.7596 9.999959,-0.15971 z m -10.4402,99.22433 -9.869897,-1.6155 7.634007,-51.72416 9.915769,1.30469 z M 26.989743,53.859532 21.50945,45.493484 61.902143,18.117487 l 5.740374,8.189798 z m 40.652774,-27.552247 0.138529,-10.000289 75.557604,-0.140249 0.17565,9.999692 z M 43.722287,597.99987 43.565232,607.99988 10.476594,608 10.319464,598 Z M 23.230873,212.16547 12.934509,210.84005 0,121.54677 9.874187,119.95768 Z m 45.030661,385.83446 -0.157118,10 -24.225056,-6e-5 -0.157073,-10 z m -57.94207,7e-5 -9.884018,-1.52672 12.871267,-92.98833 9.927096,1.2155 z M 9.874187,119.95768 0.232851,117.2989 17.269649,51.50485 l 9.720094,2.354682 z m 21.039501,332.7078 -9.97376,-0.74077 2.741973,-46.87571 9.992108,0.42712 z m 2.748281,-93.26315 -10.000167,-0.14594 -0.05869,-52.67823 9.999819,-0.16824 z m 186.343391,238.5976 -0.15709,10 h -75.55773 l -0.15709,-10 z m 44.48217,-386.28232 9.92737,1.21325 -9.98882,93.96985 -9.96059,-0.90081 z m -9.96205,147.43885 10.00005,0.15461 0.0114,45.94674 -9.99996,0.15956 z m 2.79689,93.44175 9.91499,-1.31057 7.66477,51.71959 -9.86892,1.62138 z M 219.3861,26.025593 l 5.70992,-8.211076 40.49408,27.225792 -5.44917,8.386374 z m -75.8718,0.140846 0.13856,-10.000288 75.55759,-0.14025 0.17565,9.999692 z m 134.43313,571.833571 -0.15712,10 -33.08866,-1.3e-4 -0.15706,-10 z m -0.44564,-478.53919 9.88001,1.5524 -12.6029,89.34075 -10.29137,1.36364 z m -32.9572,478.53906 -0.15708,10 -24.22503,5e-5 -0.15712,-10 z m 20.48862,-93.37127 9.92722,-1.21445 12.87117,93.06018 -9.88417,1.52567 z m -4.89228,-451.201927 9.71129,-2.390742 17.28097,65.730269 -9.6314,2.69461 z m -5.604,351.990687 9.99188,-0.43254 2.76694,46.86721 -9.97338,0.74617 z m -0.0714,-99.41747 10.0002,0.14583 0.0596,52.84238 -9.99981,0.16835 z"
       id="path830" />
    <path
       class="freestyle"
       d="m 219.55979,119.56847 -75.8718,0.14114 m 0.17366,93.5432 75.8706,-0.77653 m 0,0 -75.8706,0.77653 m 0.17366,93.54317 75.87069,-0.73191 m -76.21801,-186.35446 75.8718,-0.14114 m 0,0 57.942,-0.10765 m 0,0 -57.942,0.10765 m 0.17246,92.90781 44.75528,-0.75867 m 0,0 -44.75528,0.75867 m 0.17375,93.58779 34.55949,-0.0642 m -231.234617,-93.83443 44.757806,0.5925 m -0.172496,-92.90781 -57.941996,0.10752 m 0,0 57.941996,-0.10752 m -34.213252,186.55976 34.559488,-0.0642 m -0.17374,-93.58779 -44.757806,-0.5925 m 44.931546,94.18029 75.872891,0.45022 m -0.17366,-93.54317 -75.872971,-0.49484 m 0,0 75.872971,0.49484 m -0.17366,-93.5432 -75.871807,0.14055 m 0,0 75.871807,-0.14055 m -75.525571,186.63615 75.872891,0.45022 m -75.872891,-0.45022 -34.559488,0.0642 m 220.862559,-0.41002 -34.55949,0.0642 m -75.87069,0.73191 75.87069,-0.73191 m -151.672465,99.4028 75.871985,0.1592 m 0,0 75.87189,-0.19955 m -186.303401,0.0496 34.559526,-0.009 m 151.743875,-0.0403 34.55952,-0.009 M 68.261527,504.68714 144.13345,504.4566 m -120.899641,0.24385 45.027718,-0.0133 m 151.743953,-0.0451 45.02773,-0.0134 m -120.89976,-0.17201 75.87203,0.18545 m -151.771945,-99.17518 75.871985,0.1592 m -75.871985,-0.1592 -34.559526,0.009 m 220.862921,-0.0587 -34.55952,0.009 m -75.87189,0.19955 75.87189,-0.19955 m 0.0281,99.21553 -75.87203,-0.18545 m 0,0 -75.871923,0.23054 m 0,0 -45.027718,0.0133 m 241.799401,-0.0718 -45.02773,0.0134"
       id="path832" />
    <path
       class="outer"
       d="M 12.934509,210.84005 0,121.54677 9.874187,119.95768 0.232851,117.2989 17.269649,51.50485 l 9.720094,2.354682 -5.480293,-8.366048 40.392693,-27.375997 5.740374,8.189798 0.138529,-10.000289 75.557604,-0.140249 0.17565,9.999692 0.13856,-10.000288 75.55759,-0.14025 0.17565,9.999692 5.70992,-8.211076 40.49408,27.225792 -5.44917,8.386374 9.71129,-2.390742 17.28097,65.730269 -9.6314,2.69461 9.88001,1.5524 -12.6029,89.34075 -10.29137,1.36364 9.92737,1.21325 -9.98882,93.96985 -9.96059,-0.90081 10.0002,0.14583 0.0596,52.84238 -9.99981,0.16835 10.00005,0.15461 0.0114,45.94674 -9.99996,0.15956 9.99188,-0.43254 2.76694,46.86721 -9.97338,0.74617 9.91499,-1.31057 7.66477,51.71959 -9.86892,1.62138 9.92722,-1.21445 12.87117,93.06018 -9.88417,1.52567 -0.15712,10 -33.08866,-1.3e-4 -0.15706,-10 -0.15708,10 -24.22503,5e-5 -0.15712,-10 -0.15709,10 h -75.55773 l -0.15709,-10 -0.15709,10 H 68.418662 l -0.157088,-10 -0.157118,10 -24.225056,-6e-5 -0.157073,-10 -0.157055,10.00001 -33.088638,1.2e-4 -0.15713,-10 -9.884018,-1.52672 12.871267,-92.98833 9.927096,1.2155 -9.869897,-1.6155 7.634007,-51.72416 9.915769,1.30469 -9.97376,-0.74077 2.741973,-46.87571 9.992108,0.42712 -10.000041,-0.15448 -0.01196,-45.7596 9.999959,-0.15971 -10.000167,-0.14594 -0.05869,-52.67823 9.999819,-0.16824 -9.957169,0.93779 -10.337689,-93.93215 9.9228,-1.25009 z"
       id="path834" />
    <g
       id="g842">
      <path
         transform="matrix(-1.093943,-9.939984,9.939984,-1.093943,28.416902,259.28768)"
         class="arrow"
         d="M 0,0 1,1 0,0.25 -1,1 Z"
         id="path836" />
      <text
         transform="translate(37.362888,262.30314)"
         style="font-size:10px"
         id="text840"><tspan
           id="tspan838">1</tspan></text>
    </g>
    <text
       transform="rotate(-96.280386,129.56078,117.81336)"
       style="font-size:9px"
       id="text846"><tspan
         id="tspan844">10:1</tspan></text>
    <text
       transform="rotate(-34.127281,86.019936,-56.134017)"
       style="font-size:9px"
       id="text850"><tspan
         id="tspan848">6.:1</tspan></text>
    <text
       transform="rotate(179.99977,13.509842,299.9)"
       style="font-size:9px"
       id="text854"><tspan
         id="tspan852">11:1</tspan></text>
    <g
       id="g862">
      <path
         transform="matrix(-1.43358,-9.896708,9.896708,-1.43358,16.55253,166.06161)"
         class="arrow"
         d="M 0,0 1,1 0,0.25 -1,1 Z"
         id="path856" />
      <text
         transform="translate(25.459569,168.77139)"
         style="font-size:10px"
         id="text860"><tspan
           id="tspan858">2</tspan></text>
    </g>
    <text
       transform="rotate(-98.242205,79.367274,76.767013)"
       style="font-size:9px"
       id="text866"><tspan
         id="tspan864">16:2</tspan></text>
    <text
       transform="rotate(-82.119296,323.81711,266.94562)"
       style="font-size:9px"
       id="text870"><tspan
         id="tspan868">10:1</tspan></text>
    <g
       id="g878">
      <path
         transform="matrix(2.506739,-9.680716,9.680716,2.506739,18.431965,86.908638)"
         class="arrow"
         d="M 0,0 1,1 0,0.25 -1,1 Z"
         id="path872" />
      <text
         transform="translate(27.144609,93.164682)"
         style="font-size:10px"
         id="text876"><tspan
           id="tspan874">3</tspan></text>
    </g>
    <text
       transform="rotate(-75.482607,64.192883,32.447958)"
       style="font-size:9px"
       id="text882"><tspan
         id="tspan880">16:3</tspan></text>
    <g
       id="g890">
      <path
         transform="matrix(-1.057026,9.943977,-9.943977,-1.057026,259.47651,258.85877)"
         class="arrow"
         d="M 0,0 1,1 0,0.25 -1,1 Z"
         id="path884" />
      <text
         transform="translate(250.52693,261.90746)"
         style="font-size:10px"
         id="text888"><tspan
           id="tspan886">4</tspan></text>
    </g>
    <text
       transform="rotate(96.067669,14.147219,247.00755)"
       style="font-size:9px"
       id="text894"><tspan
         id="tspan892">9.:4</tspan></text>
    <text
       transform="rotate(33.914497,57.690517,413.92766)"
       style="font-size:9px"
       id="text898"><tspan
         id="tspan896">6.:4</tspan></text>
    <text
       transform="rotate(-179.99977,130.6236,299.89971)"
       style="font-size:9px"
       id="text902"><tspan
         id="tspan900">11:6.</tspan></text>
    <g
       id="g910">
      <path
         transform="matrix(-1.396827,9.901963,-9.901963,-1.396827,270.99466,165.58924)"
         class="arrow"
         d="M 0,0 1,1 0,0.25 -1,1 Z"
         id="path904" />
      <text
         transform="translate(262.0829,168.3321)"
         style="font-size:10px"
         id="text908"><tspan
           id="tspan906">5</tspan></text>
    </g>
    <text
       transform="rotate(98.029505,64.344465,201.41944)"
       style="font-size:9px"
       id="text914"><tspan
         id="tspan912">15:5</tspan></text>
    <text
       transform="rotate(82.125365,-179.62927,432.36955)"
       style="font-size:9px"
       id="text918"><tspan
         id="tspan916">9.:1</tspan></text>
    <g
       id="g926">
      <path
         transform="matrix(2.542668,9.671342,-9.671342,2.542668,268.82136,86.443722)"
         class="arrow"
         d="M 0,0 1,1 0,0.25 -1,1 Z"
         id="path920" />
      <text
         transform="translate(260.11714,92.732131)"
         style="font-size:10px"
         id="text924"><tspan
           id="tspan922">6.</tspan></text>
    </g>
    <text
       transform="rotate(75.269843,79.523885,218.43779)"
       style="font-size:9px"
       id="text930"><tspan
         id="tspan928">15:6.</tspan></text>
  </g>
</svg>
