<?xml version="1.0" encoding="UTF-8" standalone="no"?>
<svg
   xmlns:dc="http://purl.org/dc/elements/1.1/"
   xmlns:cc="http://creativecommons.org/ns#"
   xmlns:rdf="http://www.w3.org/1999/02/22-rdf-syntax-ns#"
   xmlns:svg="http://www.w3.org/2000/svg"
   xmlns="http://www.w3.org/2000/svg"
   xmlns:sodipodi="http://sodipodi.sourceforge.net/DTD/sodipodi-0.dtd"
   xmlns:inkscape="http://www.inkscape.org/namespaces/inkscape"
   version="1.1"
   width="300.00mm"
   height="600.00mm"
   viewBox="0 0 300.00 600.00"
   id="svg926"
   sodipodi:docname="backrest_page15.svg"
   inkscape:version="0.92.2 (5c3e80d, 2017-08-06)">
  <metadata
     id="metadata90">
    <rdf:RDF>
      <cc:Work
         rdf:about="">
        <dc:format>image/svg+xml</dc:format>
        <dc:type
           rdf:resource="http://purl.org/dc/dcmitype/StillImage" />
      </cc:Work>
    </rdf:RDF>
  </metadata>
  <defs
     id="defs930" />
  <sodipodi:namedview
     id="namedview928"
     pagecolor="#ffffff"
     bordercolor="#666666"
     borderopacity="1.0"
     inkscape:pageshadow="2"
     inkscape:pageopacity="0.0"
     inkscape:pagecheckerboard="0"
     inkscape:document-units="mm"
     showgrid="false"
     inkscape:zoom="0.17528646"
     inkscape:cx="1070.0515"
     inkscape:cy="1110.6863"
     inkscape:window-width="1920"
     inkscape:window-height="1017"
     inkscape:window-x="-8"
     inkscape:window-y="209"
     inkscape:window-maximized="1"
     inkscape:current-layer="svg926"
     inkscape:snap-global="false" />
  <style
     type="text/css"
     id="style824">
    path {
        fill: none;
        stroke-linecap: butt;
        stroke-linejoin: bevel;
        stroke-dasharray: none;
    }
    path.outer {
        stroke: #000000;
        stroke-dasharray: none;
        stroke-dashoffset: 0;
        stroke-width: 0.3;
        stroke-opacity: 1.0;
    }
    path.convex {
        stroke: #000000;
        stroke-dasharray: 0.50,1.00;
        stroke-dashoffset:0;
        stroke-width:0.2;
        stroke-opacity: 1.0
    }
    path.concave {
        stroke: #000000;
        stroke-dasharray: 1.00,0.50,0.20,0.50;
        stroke-dashoffset: 0;
        stroke-width: 0.2;
        stroke-opacity: 1.0
    }
    path.freestyle {
        stroke: #000000;
        stroke-dasharray: none;
        stroke-dashoffset: 0;
        stroke-width: 0.2;
        stroke-opacity: 1.0
    }
    path.outer_background {
        stroke: #ffffff;
        stroke-opacity: 1.0;
        stroke-width: 0.5
    }
    path.inner_background {
        stroke: #ffffff;
        stroke-opacity: 1.0;
        stroke-width: 0.2
    }
    path.sticker {
        fill: #e5e5e5;
        stroke: none;
        fill-opacity: 1.0;
    }
    path.arrow {
        fill: #000000;
    }
    text {
        font-style: normal;
        fill: #000000;
        fill-opacity: 1.0;
        stroke: none;
    }
    text, tspan {
        text-anchor:middle;
    }
    </style>
  <g
     id="g1046">
    <path
       inkscape:connector-curvature="0"
       id="path871"
       style="font-style:normal;font-size:medium;text-anchor:middle;fill:none;fill-opacity:1;stroke:#000000;stroke-width:0.25;stroke-linecap:butt;stroke-linejoin:bevel;stroke-dasharray:none;stroke-opacity:1"
       d="m 195.37651,240.59804 2.40356,-0.81838 3.06579,9.00409 -2.40356,0.81839 -0.22505,-0.66098 1.59929,-0.54454 -2.61568,-7.68214 -1.59929,0.54454 z" />
    <path
       inkscape:connector-curvature="0"
       id="path873"
       style="font-style:normal;font-size:medium;text-anchor:middle;fill:none;fill-opacity:1;stroke:#000000;stroke-width:0.25;stroke-linecap:butt;stroke-linejoin:bevel;stroke-dasharray:none;stroke-opacity:1"
       d="m 191.76438,250.38004 1.12293,-6.91248 0.98916,-0.3368 -1.24614,7.20203 3.91964,-1.33459 0.27542,0.80889 -4.71005,1.60371 z" />
    <path
       inkscape:connector-curvature="0"
       id="path875"
       style="font-style:normal;font-size:medium;text-anchor:middle;fill:none;fill-opacity:1;stroke:#000000;stroke-width:0.25;stroke-linecap:butt;stroke-linejoin:bevel;stroke-dasharray:none;stroke-opacity:1"
       d="m 185.35553,244.01007 2.40356,-0.81838 0.22505,0.66098 -1.59929,0.54454 2.61568,7.68214 1.59929,-0.54454 0.22506,0.66097 -2.40356,0.81839 z" />
    <path
       inkscape:connector-curvature="0"
       id="path877"
       style="font-style:normal;font-size:medium;text-anchor:middle;fill:none;fill-opacity:1;stroke:#000000;stroke-width:0.25;stroke-linecap:butt;stroke-linejoin:bevel;stroke-dasharray:none;stroke-opacity:1"
       d="m 178.17939,248.47544 2.71787,-0.92541 0.23922,0.70258 -0.90133,0.3069 1.86497,5.47733 0.90133,-0.3069 0.23922,0.70259 -2.71787,0.9254 -0.23922,-0.70258 0.90133,-0.30689 -1.86497,-5.47734 -0.90133,0.3069 z" />
    <path
       inkscape:connector-curvature="0"
       id="path879"
       style="font-style:normal;font-size:medium;text-anchor:middle;fill:none;fill-opacity:1;stroke:#000000;stroke-width:0.25;stroke-linecap:butt;stroke-linejoin:bevel;stroke-dasharray:none;stroke-opacity:1"
       d="m 170.77948,257.52516 1.12293,-6.91248 0.98916,-0.3368 -1.24614,7.20203 3.91964,-1.33459 0.27541,0.80888 -4.71004,1.60372 z" />
    <path
       class="sticker"
       d="m 246.00917,224.94686 6.75269,-7.37741 36.50386,32.37378 -6.51762,7.58586 z m -24.4548,-71.82278 9.51696,-3.07447 24.35353,71.52537 -9.41569,3.37188 z m 9.16695,165.53543 -4.38843,8.21579 -16.30513,-8.38286 4.12821,-8.34957 z m -122.55827,-48.45968 -8.04746,5.93825 -17.828563,-23.38323 7.856979,-6.18811 z m 34.34684,13.28527 -3.75403,9.26993 -34.0538,-13.1719 3.46099,-9.3833 z m -52.365884,-36.91836 -9.516953,3.07446 -14.757537,-43.34234 9.415675,-3.37187 z m 87.498244,24.95622 3.07446,9.51694 -34.83496,11.86087 -3.37186,-9.41567 z m 36.51372,38.61991 -7.37435,6.75602 -36.29789,-38.39165 7.15852,-6.98428 z m 68.59213,-52.61378 7.51352,6.60087 -50.54041,59.38398 -8.99989,-4.85443 z m -76.42581,-224.459392 9.79254,2.032444 -9.16373,47.923026 -9.85155,-1.723843 z m -9.22274,48.231627 9.51695,-3.074468 24.35356,71.525333 -9.41569,3.37189 z m -77.22407,-48.056495 -8.36562,-4.09557 7.80185,-16.59096 8.49013,3.830776 z m -59.449118,126.04239 -10.000638,-0.10778 -0.144976,-29.40429 9.9991,-0.2064 z m -0.146514,-29.71847 -8.467849,-5.32166 18.940323,-31.215765 8.630834,5.053035 z m 15.005343,73.35824 -9.516941,3.07446 -14.757563,-43.34235 9.415675,-3.37188 z m 4.097965,-104.84263 -3.074454,-9.516944 34.834948,-11.860837 3.37187,9.415678 z m 35.132364,-11.962103 -9.93317,-1.164791 5.32828,-52.564841 9.96485,0.852205 z m 13.28632,-69.733181 4.16764,-9.3377615 76.27713,16.2040355 -1.92432,9.814348 z"
       id="path830-9"
       style="fill:#e5e5e5;fill-opacity:1;stroke:#000000;stroke-width:0.25;stroke-linecap:butt;stroke-linejoin:bevel;stroke-dasharray:none;stroke-opacity:1"
       inkscape:connector-curvature="0" />
    <path
       class="arrow"
       d="m 264.37864,241.23797 0.84649,14.11678 -2.50527,-12.24638 -12.45799,-1.02392 z"
       id="path834-6"
       style="fill:#000000;stroke:#000000;stroke-width:0.25;stroke-linecap:butt;stroke-linejoin:bevel;stroke-dasharray:none;stroke-opacity:1"
       inkscape:connector-curvature="0" />
    <path
       inkscape:connector-curvature="0"
       id="path883"
       style="font-style:normal;font-size:medium;text-anchor:middle;fill:none;fill-opacity:1;stroke:#000000;stroke-width:0.25;stroke-linecap:butt;stroke-linejoin:bevel;stroke-dasharray:none;stroke-opacity:1"
       d="m 255.12095,244.86481 3.72551,-1.26849 0.23922,0.70257 -1.43289,0.48788 1.57066,4.61298 1.43289,-0.48788 0.21404,0.62862 q -0.2912,0.0992 -0.60827,0.25866 -0.31549,0.16415 -0.45503,0.31484 -0.17328,0.18795 -0.23365,0.40451 -0.0634,0.22276 0.0204,0.5295 l -0.71645,0.24395 -2.11206,-6.20304 -1.40516,0.47844 z" />
    <path
       inkscape:connector-curvature="0"
       id="path886"
       style="font-style:normal;font-size:medium;text-anchor:middle;fill:none;fill-opacity:1;stroke:#000000;stroke-width:0.25;stroke-linecap:butt;stroke-linejoin:bevel;stroke-dasharray:none;stroke-opacity:1"
       d="m 261.17385,235.98992 -2.64999,-2.35017 0.44321,-0.49975 1.01923,0.90391 2.91,-3.28126 -1.01923,-0.90391 0.39655,-0.44714 q 0.20714,0.1837 0.47306,0.36073 0.26877,0.1738 0.44876,0.2159 0.22414,0.0519 0.42042,0.003 0.20249,-0.0495 0.40517,-0.25154 l 0.50961,0.45195 -3.91305,4.41226 0.9995,0.88642 z" />
    <path
       inkscape:connector-curvature="0"
       id="path888"
       style="font-style:normal;font-size:medium;text-anchor:middle;fill:none;fill-opacity:1;stroke:#000000;stroke-width:0.25;stroke-linecap:butt;stroke-linejoin:bevel;stroke-dasharray:none;stroke-opacity:1"
       d="m 267.08038,238.44988 q -0.30324,0.34193 -0.70519,0.54347 -0.40194,0.20154 -0.80847,0.22281 -0.44083,0.0202 -0.88042,-0.14644 -0.43338,-0.16702 -0.86408,-0.54899 -0.40112,-0.35573 -0.69682,-0.7707 -0.29863,-0.4117 -0.45011,-0.75749 l 0.61523,-0.69373 0.046,0.0408 q 0.11799,0.41006 0.37176,0.85245 0.25669,0.4391 0.6052,0.74818 0.23344,0.20703 0.50876,0.33371 0.27861,0.1296 0.59536,0.11683 0.27004,-0.0131 0.51732,-0.14619 0.25058,-0.1302 0.48093,-0.38994 0.22452,-0.25317 0.29028,-0.50615 0.0691,-0.25007 0.008,-0.49233 -0.0602,-0.27655 -0.26301,-0.54456 -0.19666,-0.26837 -0.49913,-0.53662 -0.28933,-0.2566 -0.5939,-0.45627 -0.30128,-0.19675 -0.53028,-0.32931 l 2.23644,-2.52176 2.94589,2.61259 -0.51026,0.57537 -2.31134,-2.04983 -1.15468,1.30198 q 0.15305,0.11221 0.30684,0.23684 0.15393,0.12448 0.26243,0.2207 0.39783,0.35282 0.63577,0.68722 0.24087,0.3311 0.33912,0.72366 0.10266,0.41411 -0.006,0.82844 -0.10901,0.41434 -0.49098,0.84505 z" />
    <path
       inkscape:connector-curvature="0"
       id="path890"
       style="font-style:normal;font-size:medium;text-anchor:middle;fill:none;fill-opacity:1;stroke:#000000;stroke-width:0.25;stroke-linecap:butt;stroke-linejoin:bevel;stroke-dasharray:none;stroke-opacity:1"
       d="m 270.53385,239.40394 -0.78579,-0.69688 0.83102,-0.93704 0.78579,0.69688 z m -2.42598,2.73547 -0.78578,-0.69688 0.83101,-0.93704 0.78579,0.69688 z" />
    <path
       inkscape:connector-curvature="0"
       id="path892"
       style="font-style:normal;font-size:medium;text-anchor:middle;fill:none;fill-opacity:1;stroke:#000000;stroke-width:0.25;stroke-linecap:butt;stroke-linejoin:bevel;stroke-dasharray:none;stroke-opacity:1"
       d="m 272.81276,246.31198 -2.64999,-2.35017 0.44321,-0.49975 1.01922,0.90391 2.91001,-3.28126 -1.01922,-0.9039 0.39655,-0.44714 q 0.20713,0.18369 0.47305,0.36071 0.26877,0.1738 0.44876,0.2159 0.22413,0.0519 0.42042,0.003 0.20249,-0.0495 0.40517,-0.25154 l 0.50961,0.45195 -3.91305,4.41226 0.9995,0.88642 z" />
    <path
       class="arrow"
       d="m 222.43865,314.40121 -4.32112,-13.46581 5.4642,11.24244 12.32272,-2.09775 z"
       id="path846"
       style="fill:#000000;stroke:#000000;stroke-width:0.25;stroke-linecap:butt;stroke-linejoin:bevel;stroke-dasharray:none;stroke-opacity:1"
       inkscape:connector-curvature="0" />
    <path
       inkscape:connector-curvature="0"
       id="path895"
       style="font-style:normal;font-size:medium;text-anchor:middle;fill:none;fill-opacity:1;stroke:#000000;stroke-width:0.25;stroke-linecap:butt;stroke-linejoin:bevel;stroke-dasharray:none;stroke-opacity:1"
       d="m 222.87479,303.4242 4.65921,-1.58641 0.32892,0.96604 q -0.34369,0.58126 -0.68738,1.1625 -0.34831,0.58283 -0.62886,1.13742 -0.59474,1.16191 -0.75137,1.77747 -0.15506,0.62019 0.0448,1.20721 0.18257,0.53618 0.64078,0.71544 0.45515,0.18545 1.0884,-0.0302 0.42062,-0.14322 0.86022,-0.45795 0.43959,-0.31474 0.80256,-0.77875 l 0.0462,-0.0157 0.3305,0.97066 q -0.27309,0.27352 -0.77288,0.59328 -0.5044,0.32132 -1.01747,0.49602 -1.05849,0.3604 -1.83407,0.0519 -0.77401,-0.30385 -1.07146,-1.17745 -0.13377,-0.39289 -0.14855,-0.76956 -0.0178,-0.37047 0.0724,-0.74164 0.0827,-0.34796 0.23324,-0.70869 0.14593,-0.35918 0.37771,-0.81464 0.32932,-0.65373 0.70045,-1.29074 0.3727,-0.6324 0.6981,-1.17647 l -3.7024,1.26063 z" />
    <path
       inkscape:connector-curvature="0"
       id="path898"
       style="font-style:normal;font-size:medium;text-anchor:middle;fill:none;fill-opacity:1;stroke:#000000;stroke-width:0.25;stroke-linecap:butt;stroke-linejoin:bevel;stroke-dasharray:none;stroke-opacity:1"
       d="m 224.16851,317.17552 2.93305,1.50795 -0.28437,0.55313 -1.1281,-0.57998 -1.86717,3.63174 1.1281,0.57998 -0.25445,0.49492 q -0.22925,-0.11787 -0.50996,-0.2162 -0.28259,-0.0947 -0.45466,-0.0911 -0.21416,0.005 -0.37987,0.0946 -0.17122,0.0914 -0.30738,0.32047 l -0.56405,-0.28999 2.51076,-4.88357 -1.10627,-0.56876 z" />
    <path
       inkscape:connector-curvature="0"
       id="path900"
       style="font-style:normal;font-size:medium;text-anchor:middle;fill:none;fill-opacity:1;stroke:#000000;stroke-width:0.25;stroke-linecap:butt;stroke-linejoin:bevel;stroke-dasharray:none;stroke-opacity:1"
       d="m 219.6825,318.6971 0.86973,0.44715 -0.53321,1.03712 -0.86972,-0.44715 z m 1.5566,-3.02766 0.86973,0.44715 -0.53321,1.03712 -0.86973,-0.44715 z" />
    <path
       inkscape:connector-curvature="0"
       id="path902"
       style="font-style:normal;font-size:medium;text-anchor:middle;fill:none;fill-opacity:1;stroke:#000000;stroke-width:0.25;stroke-linecap:butt;stroke-linejoin:bevel;stroke-dasharray:none;stroke-opacity:1"
       d="m 215.72233,312.83314 3.66814,1.88587 -0.39102,0.76055 q -0.55048,0.13107 -1.10095,0.26215 -0.55412,0.12919 -1.05179,0.28281 -1.04668,0.31764 -1.50898,0.58146 -0.46417,0.26746 -0.70177,0.72961 -0.21703,0.42213 -0.0584,0.80273 0.15309,0.38237 0.65163,0.63868 0.33116,0.17025 0.77677,0.25212 0.4456,0.0819 0.93662,0.0307 l 0.0364,0.0187 -0.39289,0.7642 q -0.32386,-0.005 -0.80752,-0.1207 -0.4873,-0.11711 -0.89124,-0.32479 -0.83333,-0.42843 -1.09873,-1.07558 -0.26727,-0.64351 0.0863,-1.33129 0.15903,-0.30931 0.37752,-0.53745 0.21297,-0.22638 0.48931,-0.38796 0.25792,-0.15266 0.56303,-0.27184 0.3015,-0.12105 0.71099,-0.24638 0.58582,-0.18191 1.1859,-0.32889 0.59819,-0.14334 1.11561,-0.26381 l -2.91485,-1.4986 z" />
    <path
       class="arrow"
       d="m 256.73473,288.09432 -14.09659,1.13409 12.19275,-2.75441 0.76975,-12.47627 z"
       id="path858"
       style="fill:#000000;stroke:#000000;stroke-width:0.25;stroke-linecap:butt;stroke-linejoin:bevel;stroke-dasharray:none;stroke-opacity:1"
       inkscape:connector-curvature="0" />
    <path
       inkscape:connector-curvature="0"
       id="path905"
       style="font-style:normal;font-size:medium;text-anchor:middle;fill:none;fill-opacity:1;stroke:#000000;stroke-width:0.25;stroke-linecap:butt;stroke-linejoin:bevel;stroke-dasharray:none;stroke-opacity:1"
       d="m 247.93589,282.39628 q -0.28954,-0.12321 -0.53512,-0.37487 -0.24559,-0.25165 -0.40769,-0.72774 -0.16053,-0.47147 -0.12328,-0.92259 0.0372,-0.45112 0.24778,-0.84777 0.2365,-0.44159 0.65446,-0.75928 0.41491,-0.31148 0.9742,-0.50191 0.57316,-0.19516 1.17504,-0.24535 0.6003,-0.0548 1.0113,-0.0142 l 0.32893,0.96605 -0.0693,0.0236 q -0.48102,-0.12507 -1.07081,-0.1151 -0.58978,0.01 -1.08436,0.17836 -0.2912,0.0992 -0.58633,0.30796 -0.29513,0.20881 -0.43398,0.46757 -0.14337,0.27577 -0.16165,0.55537 -0.0229,0.28118 0.10458,0.65558 0.12591,0.36977 0.32792,0.56921 0.19897,0.20564 0.45418,0.27348 0.25679,0.0725 0.56993,0.0226 0.31471,-0.0453 0.65675,-0.16172 l 0.416,-0.14164 0.26126,0.76729 -0.32356,0.11017 q -0.70258,0.23922 -1.01943,0.67207 -0.3199,0.43904 -0.12789,1.00294 0.085,0.2496 0.25425,0.3983 0.17084,0.15331 0.40127,0.20896 0.23967,0.0525 0.4819,0.0216 0.24222,-0.0309 0.5288,-0.1285 0.43911,-0.14951 0.88018,-0.47506 0.44107,-0.32556 0.7826,-0.76165 l 0.0462,-0.0157 0.32892,0.96605 q -0.27309,0.27351 -0.77287,0.59327 -0.50283,0.32595 -1.0159,0.50064 -0.50382,0.17155 -0.91896,0.20969 -0.4151,0.0382 -0.79406,-0.0597 -0.40834,-0.10855 -0.68638,-0.36463 -0.27804,-0.25607 -0.42126,-0.6767 -0.19515,-0.57316 0.0652,-1.14152 0.25734,-0.56217 0.76961,-0.86039 l -0.022,-0.0648 q -0.23447,0.0385 -0.56196,0.016 -0.32592,-0.018 -0.58448,-0.12595 z" />
    <path
       inkscape:connector-curvature="0"
       id="path908"
       style="font-style:normal;font-size:medium;text-anchor:middle;fill:none;fill-opacity:1;stroke:#000000;stroke-width:0.25;stroke-linecap:butt;stroke-linejoin:bevel;stroke-dasharray:none;stroke-opacity:1"
       d="m 261.91648,284.78306 2.29566,-2.69734 0.50868,0.43292 -0.88295,1.03745 3.33989,2.84251 0.88295,-1.03745 0.45513,0.38735 q -0.17944,0.21084 -0.35108,0.48025 -0.16829,0.27226 -0.20671,0.45307 -0.0473,0.22514 0.006,0.42039 0.0536,0.20143 0.25975,0.39996 l -0.44148,0.51872 -4.49111,-3.82229 -0.86585,1.01736 z" />
    <path
       inkscape:connector-curvature="0"
       id="path910"
       style="font-style:normal;font-size:medium;text-anchor:middle;fill:none;fill-opacity:1;stroke:#000000;stroke-width:0.25;stroke-linecap:butt;stroke-linejoin:bevel;stroke-dasharray:none;stroke-opacity:1"
       d="m 260.75707,291.80018 q -0.65259,-0.5554 -1.05652,-1.15886 -0.40679,-0.60012 -0.52527,-1.22031 -0.12232,-0.62923 0.0604,-1.2643 0.18271,-0.63507 0.70963,-1.25419 0.14811,-0.17402 0.29923,-0.31086 0.14777,-0.13968 0.29044,-0.226 l 0.6392,0.54401 -0.0284,0.0334 q -0.13279,0.0543 -0.33062,0.19183 -0.19444,0.14036 -0.37957,0.35788 -0.62945,0.73959 -0.54373,1.53389 0.0862,0.80048 0.80902,1.53104 0.0775,-0.47073 0.23071,-0.81351 0.15324,-0.34278 0.4295,-0.66739 0.26204,-0.30789 0.53589,-0.50762 0.27101,-0.19638 0.65865,-0.29926 0.45479,-0.12076 0.89753,-0.004 0.43991,0.12049 0.87831,0.4936 0.76301,0.64939 0.81435,1.55867 0.0513,0.90928 -0.56388,1.63215 -0.30761,0.36143 -0.68343,0.57248 -0.37247,0.21389 -0.79322,0.25397 -0.51986,0.0481 -1.08929,-0.17111 -0.56607,-0.21633 -1.25881,-0.8059 z m 0.71924,-0.55354 q 0.51872,0.44147 0.92444,0.60212 0.40572,0.16063 0.73924,0.12133 0.28446,-0.0291 0.50185,-0.15572 0.22074,-0.12374 0.40018,-0.33458 0.41014,-0.4819 0.3482,-1.01936 -0.0648,-0.5341 -0.61028,-0.99836 -0.31792,-0.27058 -0.59563,-0.35112 -0.2777,-0.0805 -0.61057,0.005 -0.23191,0.0623 -0.42253,0.21168 -0.18724,0.15227 -0.37522,0.37314 -0.22216,0.26103 -0.37972,0.58858 -0.15757,0.32755 -0.22309,0.67572 0.0677,0.0629 0.13138,0.12364 0.0645,0.0667 0.17153,0.1578 z" />
    <path
       inkscape:connector-curvature="0"
       id="path912"
       style="font-style:normal;font-size:medium;text-anchor:middle;fill:none;fill-opacity:1;stroke:#000000;stroke-width:0.25;stroke-linecap:butt;stroke-linejoin:bevel;stroke-dasharray:none;stroke-opacity:1"
       d="m 258.69397,294.21072 0.68072,-0.79984 0.95378,0.81174 -0.68072,0.79984 z m -2.78436,-2.36971 0.68073,-0.79983 0.95377,0.81173 -0.68072,0.79984 z" />
    <path
       inkscape:connector-curvature="0"
       id="path914"
       style="font-style:normal;font-size:medium;text-anchor:middle;fill:none;fill-opacity:1;stroke:#000000;stroke-width:0.25;stroke-linecap:butt;stroke-linejoin:bevel;stroke-dasharray:none;stroke-opacity:1"
       d="m 254.36435,298.51819 q -0.28062,0.0382 -0.58644,-0.0432 -0.30583,-0.0814 -0.65052,-0.37476 -0.34136,-0.29052 -0.52043,-0.65644 -0.17908,-0.36592 -0.19908,-0.76957 -0.0207,-0.45037 0.15609,-0.88856 0.17723,-0.432 0.52186,-0.83694 0.35318,-0.41497 0.79536,-0.73112 0.43883,-0.31899 0.77528,-0.47699 l 0.69944,0.59528 -0.0427,0.0502 q -0.4295,0.12496 -0.88087,0.40443 -0.45137,0.27947 -0.75613,0.63756 -0.17944,0.21083 -0.31137,0.50826 -0.13193,0.29743 -0.12005,0.56145 0.0162,0.27926 0.13094,0.50384 0.11186,0.22793 0.38292,0.45863 0.26774,0.22786 0.51581,0.28895 0.24857,0.0673 0.47714,0.002 0.23192,-0.0623 0.45101,-0.24515 0.22242,-0.18003 0.43319,-0.42767 l 0.25634,-0.3012 0.55553,0.47281 -0.19938,0.23426 q -0.43292,0.50868 -0.47842,0.98931 -0.045,0.48682 0.36327,0.8343 0.18072,0.15381 0.38009,0.19077 0.20272,0.0398 0.40651,-0.0234 0.20948,-0.0698 0.38251,-0.20534 0.173,-0.13553 0.34959,-0.34302 0.27058,-0.31793 0.46155,-0.77285 0.19097,-0.45493 0.25406,-0.94944 l 0.0285,-0.0335 0.69944,0.59528 q -0.0851,0.33729 -0.32413,0.81479 -0.23854,0.48368 -0.5547,0.85515 -0.31045,0.36478 -0.61379,0.58558 -0.30334,0.22079 -0.64141,0.3197 -0.3657,0.10425 -0.69866,0.0344 -0.33295,-0.0699 -0.63749,-0.32904 -0.41497,-0.35318 -0.47557,-0.91257 -0.0601,-0.55318 0.19853,-1.01978 l -0.0468,-0.0399 q -0.16352,0.13782 -0.42709,0.27128 -0.26025,0.13629 -0.5099,0.17196 z" />
    <path
       class="arrow"
       d="m 201.71093,57.185519 -11.7002,7.943896 9.24469,-8.413431 -5.48839,-11.23066 z"
       id="path870"
       style="fill:#000000;stroke:#000000;stroke-width:0.25;stroke-linecap:butt;stroke-linejoin:bevel;stroke-dasharray:none;stroke-opacity:1"
       inkscape:connector-curvature="0" />
    <path
       inkscape:connector-curvature="0"
       id="path917"
       style="font-style:normal;font-size:medium;text-anchor:middle;fill:none;fill-opacity:1;stroke:#000000;stroke-width:0.25;stroke-linecap:butt;stroke-linejoin:bevel;stroke-dasharray:none;stroke-opacity:1"
       d="m 189.6944,54.51255 1.02151,-0.347813 -0.65942,-1.936714 0.88746,-0.302172 0.65943,1.936713 3.29565,-1.122129 0.36198,1.063114 -2.01062,5.017388 -0.85049,0.289581 -1.43218,-4.206225 -1.02151,0.347813 z m 2.16079,0.08957 1.05761,3.106136 1.60942,-4.014227 z" />
    <path
       inkscape:connector-curvature="0"
       id="path920"
       style="font-style:normal;font-size:medium;text-anchor:middle;fill:none;fill-opacity:1;stroke:#000000;stroke-width:0.25;stroke-linecap:butt;stroke-linejoin:bevel;stroke-dasharray:none;stroke-opacity:1"
       d="m 204.5832,51.748389 0.66524,-3.478959 0.65608,0.125455 -0.25586,1.338057 4.3077,0.823707 0.25586,-1.338057 0.58701,0.112248 q -0.052,0.271933 -0.0683,0.590947 -0.012,0.319851 0.0438,0.496072 0.0699,0.219176 0.21251,0.362768 0.14604,0.148726 0.42331,0.219643 l -0.12793,0.669028 -5.79251,-1.10763 -0.25091,1.312166 z" />
    <path
       inkscape:connector-curvature="0"
       id="path922"
       style="font-style:normal;font-size:medium;text-anchor:middle;fill:none;fill-opacity:1;stroke:#000000;stroke-width:0.25;stroke-linecap:butt;stroke-linejoin:bevel;stroke-dasharray:none;stroke-opacity:1"
       d="m 205.4883,58.082367 q -0.44889,-0.08584 -0.82758,-0.328265 -0.37869,-0.242427 -0.60478,-0.580955 -0.24271,-0.368553 -0.3242,-0.831548 -0.078,-0.457854 0.0301,-1.02329 0.1007,-0.526599 0.30618,-0.992884 0.20118,-0.467108 0.42094,-0.774066 l 0.91075,0.174151 -0.0115,0.06041 q -0.29213,0.311018 -0.54263,0.755277 -0.24617,0.445085 -0.33366,0.902616 -0.0586,0.306457 -0.0267,0.607845 0.031,0.305699 0.20393,0.571419 0.14928,0.225409 0.39011,0.369891 0.23999,0.148793 0.58099,0.213997 0.33234,0.06355 0.58339,-0.0092 0.25023,-0.06848 0.42715,-0.244935 0.20694,-0.19309 0.33358,-0.504434 0.13013,-0.3062 0.20606,-0.703305 0.0726,-0.379838 0.0885,-0.743673 0.0151,-0.359524 0.012,-0.624091 l 3.31062,0.633049 -0.73953,3.86743 -0.75535,-0.144437 0.58023,-3.034383 -1.70926,-0.326841 q -0.0182,0.188912 -0.0467,0.384796 -0.0283,0.195921 -0.0555,0.338361 -0.0999,0.522277 -0.26564,0.897725 -0.16144,0.376285 -0.44861,0.661404 -0.30343,0.299909 -0.71526,0.418022 -0.41184,0.118112 -0.97728,0.01 z" />
    <path
       inkscape:connector-curvature="0"
       id="path924"
       style="font-style:normal;font-size:medium;text-anchor:middle;fill:none;fill-opacity:1;stroke:#000000;stroke-width:0.25;stroke-linecap:butt;stroke-linejoin:bevel;stroke-dasharray:none;stroke-opacity:1"
       d="m 206.43371,61.538226 0.19726,-1.031599 1.23015,0.235227 -0.19726,1.031599 z m -3.59119,-0.686698 0.19726,-1.031599 1.23015,0.235226 -0.19726,1.0316 z" />
    <path
       inkscape:connector-curvature="0"
       id="path926"
       style="font-style:normal;font-size:medium;text-anchor:middle;fill:none;fill-opacity:1;stroke:#000000;stroke-width:0.25;stroke-linecap:butt;stroke-linejoin:bevel;stroke-dasharray:none;stroke-opacity:1"
       d="m 203.37176,67.887659 0.1824,-0.953907 -1.80854,-0.345826 0.15847,-0.828735 1.80854,0.345826 0.58848,-3.077542 0.99275,0.189832 3.03063,3.805376 -0.15186,0.7942 -3.92786,-0.751075 -0.1824,0.953907 z m 1.03148,-1.650586 2.90058,0.554642 -2.42435,-3.045159 z" />
    <path
       class="arrow"
       d="m 123.83866,24.816959 13.30482,-4.793937 -11.04248,5.8578 2.5316,12.240953 z"
       id="path882"
       style="fill:#000000;stroke:#000000;stroke-width:0.25;stroke-linecap:butt;stroke-linejoin:bevel;stroke-dasharray:none;stroke-opacity:1"
       inkscape:connector-curvature="0" />
    <path
       inkscape:connector-curvature="0"
       id="path929"
       style="font-style:normal;font-size:medium;text-anchor:middle;fill:none;fill-opacity:1;stroke:#000000;stroke-width:0.25;stroke-linecap:butt;stroke-linejoin:bevel;stroke-dasharray:none;stroke-opacity:1"
       d="m 129.10401,27.841384 q -0.16368,-0.480709 -0.13755,-0.979628 0.0261,-0.498919 0.22891,-0.903233 0.22263,-0.436873 0.62505,-0.769892 0.39936,-0.326836 1.00488,-0.533006 0.56391,-0.192005 1.12714,-0.249662 0.56166,-0.06229 0.97885,-0.01864 l 0.33207,0.975286 -0.0647,0.02203 q -0.46086,-0.111307 -1.02754,-0.109205 -0.5651,0.0067 -1.05506,0.173545 -0.32817,0.11174 -0.60175,0.308098 -0.27823,0.197837 -0.43988,0.510833 -0.1357,0.268003 -0.14296,0.579961 -0.0119,0.313533 0.11244,0.678687 0.12119,0.355914 0.3294,0.5584 0.20359,0.20406 0.4712,0.278002 0.30016,0.0938 0.67043,0.0451 0.36722,-0.04253 0.79247,-0.187321 0.40675,-0.138496 0.76689,-0.323022 0.35551,-0.182951 0.60934,-0.331269 l 1.20711,3.545249 -4.14151,1.410138 -0.27542,-0.808887 3.24943,-1.106392 L 133.1,28.776153 q -0.19247,0.08613 -0.39731,0.166232 -0.20478,0.08029 -0.35731,0.132224 -0.55929,0.190432 -1.01296,0.236591 -0.45211,0.05073 -0.88523,-0.06998 -0.45633,-0.128313 -0.79663,-0.461203 -0.3403,-0.332882 -0.54647,-0.938395 z" />
    <path
       inkscape:connector-curvature="0"
       id="path932"
       style="font-style:normal;font-size:medium;text-anchor:middle;fill:none;fill-opacity:1;stroke:#000000;stroke-width:0.25;stroke-linecap:butt;stroke-linejoin:bevel;stroke-dasharray:none;stroke-opacity:1"
       d="m 121.12716,26.643694 -1.40343,2.984468 -0.56284,-0.264671 0.53978,-1.147869 -3.69541,-1.737754 -0.53978,1.147869 -0.50358,-0.236806 q 0.10969,-0.233275 0.19805,-0.517284 0.0847,-0.285753 0.075,-0.457582 -0.0125,-0.213866 -0.1079,-0.376301 -0.0974,-0.167886 -0.33112,-0.295881 l 0.26989,-0.573939 4.96919,2.33674 0.52933,-1.125652 z" />
    <path
       inkscape:connector-curvature="0"
       id="path934"
       style="font-style:normal;font-size:medium;text-anchor:middle;fill:none;fill-opacity:1;stroke:#000000;stroke-width:0.25;stroke-linecap:butt;stroke-linejoin:bevel;stroke-dasharray:none;stroke-opacity:1"
       d="m 119.44811,22.214207 -0.41616,0.884975 -1.0553,-0.496251 0.41615,-0.884975 z m 3.08075,1.448712 -0.41616,0.884975 -1.0553,-0.496252 0.41616,-0.884975 z" />
    <path
       inkscape:connector-curvature="0"
       id="path936"
       style="font-style:normal;font-size:medium;text-anchor:middle;fill:none;fill-opacity:1;stroke:#000000;stroke-width:0.25;stroke-linecap:butt;stroke-linejoin:bevel;stroke-dasharray:none;stroke-opacity:1"
       d="m 123.39624,17.270271 q 0.38509,0.181086 0.67069,0.487212 0.28561,0.306121 0.41137,0.663686 0.13383,0.388493 0.10042,0.824943 -0.0354,0.431004 -0.26349,0.916069 -0.21243,0.451745 -0.50546,0.824901 -0.28933,0.374883 -0.55845,0.601021 l -0.78129,-0.367402 0.0244,-0.05185 q 0.33533,-0.213091 0.66387,-0.555976 0.32483,-0.34463 0.50941,-0.737129 0.12362,-0.262902 0.16452,-0.54209 0.0426,-0.282899 -0.052,-0.56253 -0.0826,-0.2378 -0.26647,-0.423733 -0.18212,-0.18963 -0.47465,-0.327187 -0.28511,-0.134076 -0.52838,-0.126386 -0.24152,0.004 -0.44185,0.122301 -0.23126,0.126385 -0.41739,0.377972 -0.18812,0.246133 -0.34832,0.586797 -0.15323,0.32585 -0.25158,0.650369 -0.0966,0.320827 -0.15491,0.560192 l -2.84006,-1.33553 1.56014,-3.317729 0.648,0.304719 -1.22409,2.603081 1.46632,0.689529 q 0.06,-0.166202 0.13106,-0.336276 0.0711,-0.17003 0.12858,-0.292224 0.21069,-0.448044 0.44687,-0.748443 0.23248,-0.302144 0.55739,-0.493002 0.34296,-0.200454 0.74172,-0.21189 0.39876,-0.01144 0.88383,0.216664 z" />
    <path
       class="arrow"
       d="m 167.06207,24.729386 7.70372,11.85971 -8.22322,-9.414279 -11.34021,5.258292 z"
       id="path894"
       style="fill:#000000;stroke:#000000;stroke-width:0.25;stroke-linecap:butt;stroke-linejoin:bevel;stroke-dasharray:none;stroke-opacity:1"
       inkscape:connector-curvature="0" />
    <path
       inkscape:connector-curvature="0"
       id="path939"
       style="font-style:normal;font-size:medium;text-anchor:middle;fill:none;fill-opacity:1;stroke:#000000;stroke-width:0.25;stroke-linecap:butt;stroke-linejoin:bevel;stroke-dasharray:none;stroke-opacity:1"
       d="m 163.89084,32.241759 q -0.35726,-1.049246 0.10945,-1.950914 0.46365,-0.895484 1.46668,-1.237002 0.50844,-0.17312 0.97795,-0.157603 0.46951,0.01552 0.89389,0.216604 0.52814,0.248303 0.96099,0.807574 0.42824,0.560853 0.73199,1.45294 0.31161,0.915204 0.35827,1.688504 0.042,0.774874 -0.20054,1.471279 -0.22892,0.660809 -0.77225,1.170772 -0.54177,0.514583 -1.39688,0.805739 -0.27271,0.09286 -0.46547,0.13271 -0.19275,0.03986 -0.40273,0.04427 l -0.3006,-0.882838 0.0462,-0.01574 q 0.15301,0.02523 0.43695,-0.0044 0.28089,-0.02338 0.5536,-0.11624 0.99378,-0.338369 1.37296,-1.163818 0.38076,-0.82082 0.11742,-1.912366 -0.308,0.36794 -0.64148,0.615594 -0.33653,0.253857 -0.83111,0.422255 -0.43911,0.149512 -0.80024,0.179618 -0.36418,0.03632 -0.79888,-0.08906 -0.50276,-0.143459 -0.8525,-0.504076 -0.35437,-0.359053 -0.56369,-0.973806 z m 0.92571,-0.356497 q 0.14636,0.429865 0.37179,0.667752 0.2208,0.239462 0.58282,0.348315 0.26299,0.07552 0.53757,0.03361 0.27457,-0.04194 0.55653,-0.137941 0.39289,-0.133774 0.69882,-0.341148 0.30593,-0.207375 0.59576,-0.522656 -0.0254,-0.104846 -0.0538,-0.203477 -0.0268,-0.09407 -0.0756,-0.237309 -0.24867,-0.730308 -0.54137,-1.105191 -0.29575,-0.368691 -0.64263,-0.523962 -0.28187,-0.130979 -0.5599,-0.144634 -0.28109,-0.0075 -0.57229,0.09165 -0.67022,0.228203 -0.91537,0.765588 -0.24357,0.542004 0.0177,1.309297 z" />
    <path
       inkscape:connector-curvature="0"
       id="path941"
       style="font-style:normal;font-size:medium;text-anchor:middle;fill:none;fill-opacity:1;stroke:#000000;stroke-width:0.25;stroke-linecap:butt;stroke-linejoin:bevel;stroke-dasharray:none;stroke-opacity:1"
       d="m 160.33424,30.961381 1.10471,-0.376142 0.44854,1.317333 -1.10471,0.376141 z" />
    <path
       inkscape:connector-curvature="0"
       id="path944"
       style="font-style:normal;font-size:medium;text-anchor:middle;fill:none;fill-opacity:1;stroke:#000000;stroke-width:0.25;stroke-linecap:butt;stroke-linejoin:bevel;stroke-dasharray:none;stroke-opacity:1"
       d="m 160.08548,21.407193 -3.46468,-0.736024 0.1388,-0.653389 1.33258,0.283086 0.91135,-4.290005 -1.33257,-0.283087 0.12419,-0.584614 q 0.27082,0.05753 0.58943,0.08034 0.31954,0.0185 0.49687,-0.03372 0.22056,-0.06546 0.36703,-0.205066 0.15167,-0.142984 0.22823,-0.418746 l 0.66628,0.141543 -1.22549,5.768727 1.30678,0.277607 z" />
    <path
       inkscape:connector-curvature="0"
       id="path946"
       style="font-style:normal;font-size:medium;text-anchor:middle;fill:none;fill-opacity:1;stroke:#000000;stroke-width:0.25;stroke-linecap:butt;stroke-linejoin:bevel;stroke-dasharray:none;stroke-opacity:1"
       d="m 166.59188,20.619462 q -0.20729,0.975785 -0.98358,1.457804 -0.77108,0.478638 -1.70388,0.280479 -0.47285,-0.10045 -0.82868,-0.328786 -0.35581,-0.228343 -0.59124,-0.579357 -0.29389,-0.435321 -0.37081,-1.067148 -0.0726,-0.630915 0.10361,-1.460541 0.18081,-0.851127 0.50106,-1.470457 0.32457,-0.618425 0.83301,-1.045035 0.48146,-0.40538 1.1365,-0.549255 0.65595,-0.148178 1.45119,0.02076 0.25361,0.05388 0.42098,0.111923 0.16738,0.05805 0.33176,0.151342 l -0.17442,0.821038 -0.0429,-0.0091 q -0.10667,-0.09003 -0.33982,-0.197985 -0.22794,-0.111295 -0.48156,-0.165173 -0.9242,-0.196333 -1.5977,0.26709 -0.67258,0.459129 -0.97198,1.424324 0.40766,-0.14252 0.77959,-0.180318 0.37714,-0.04118 0.8371,0.05653 0.40836,0.08675 0.70142,0.229873 0.29828,0.139731 0.57657,0.43697 0.32258,0.342578 0.42679,0.782527 0.10851,0.440861 -0.0129,1.012573 z m -0.87993,-0.150944 q 0.0849,-0.399769 0.0203,-0.687557 -0.0603,-0.286874 -0.29008,-0.537838 -0.1685,-0.179555 -0.4001,-0.273685 -0.23159,-0.09408 -0.49381,-0.149784 -0.36538,-0.07762 -0.69744,-0.0583 -0.33207,0.01932 -0.70141,0.129535 -0.0289,0.09272 -0.0522,0.182093 -0.0222,0.08515 -0.0505,0.218396 -0.14429,0.679184 -0.0907,1.10387 0.0588,0.421315 0.25538,0.701193 0.15756,0.231146 0.36621,0.36981 0.21385,0.135292 0.48467,0.192823 0.6233,0.132412 1.06044,-0.170074 0.43806,-0.306778 0.58965,-1.020344 z" />
    <path
       inkscape:connector-curvature="0"
       id="path948"
       style="font-style:normal;font-size:medium;text-anchor:middle;fill:none;fill-opacity:1;stroke:#000000;stroke-width:0.25;stroke-linecap:butt;stroke-linejoin:bevel;stroke-dasharray:none;stroke-opacity:1"
       d="m 169.911,19.756649 -1.02736,-0.218249 0.26025,-1.225101 1.02737,0.218249 z m -0.75976,3.57644 -1.02737,-0.21825 0.26026,-1.225101 1.02736,0.21825 z" />
    <path
       inkscape:connector-curvature="0"
       id="path950"
       style="font-style:normal;font-size:medium;text-anchor:middle;fill:none;fill-opacity:1;stroke:#000000;stroke-width:0.25;stroke-linecap:butt;stroke-linejoin:bevel;stroke-dasharray:none;stroke-opacity:1"
       d="m 176.20356,22.661332 q -0.20729,0.975785 -0.98358,1.457805 -0.77107,0.478639 -1.70388,0.280478 -0.47285,-0.10045 -0.82867,-0.328783 -0.35582,-0.228345 -0.59124,-0.579357 -0.29389,-0.435322 -0.37082,-1.067151 -0.0726,-0.630915 0.10361,-1.460541 0.18081,-0.851127 0.50107,-1.470455 0.32456,-0.618427 0.83299,-1.045036 0.48147,-0.405381 1.13651,-0.549255 0.65595,-0.148179 1.45119,0.02076 0.25362,0.05388 0.42099,0.111924 0.16737,0.05805 0.33175,0.15134 l -0.17442,0.821038 -0.0429,-0.0091 q -0.10667,-0.09003 -0.33982,-0.197986 -0.22794,-0.111295 -0.48156,-0.165173 -0.9242,-0.196333 -1.5977,0.26709 -0.67258,0.459129 -0.97198,1.424325 0.40766,-0.142521 0.77959,-0.180319 0.37714,-0.04118 0.8371,0.05653 0.40836,0.08675 0.70142,0.229873 0.29827,0.139731 0.57657,0.43697 0.32258,0.342578 0.42679,0.782527 0.10851,0.440861 -0.0129,1.012573 z m -0.87993,-0.150944 q 0.0849,-0.399769 0.0203,-0.687557 -0.0603,-0.286874 -0.29007,-0.537836 -0.16851,-0.179557 -0.40011,-0.273687 -0.23159,-0.09408 -0.49381,-0.149784 -0.36538,-0.07762 -0.69744,-0.0583 -0.33207,0.01932 -0.70141,0.129535 -0.0289,0.09272 -0.0522,0.182093 -0.0222,0.08515 -0.0505,0.218396 -0.14429,0.679184 -0.0907,1.103872 0.0588,0.421313 0.25537,0.701191 0.15756,0.231146 0.36621,0.36981 0.21386,0.135294 0.48467,0.192823 0.6233,0.132412 1.06044,-0.170074 0.43806,-0.306778 0.58965,-1.020344 z" />
    <path
       inkscape:connector-curvature="0"
       id="path952"
       style="font-style:normal;font-size:medium;text-anchor:middle;fill:none;fill-opacity:1;stroke:#000000;stroke-width:0.25;stroke-linecap:butt;stroke-linejoin:bevel;stroke-dasharray:none;stroke-opacity:1"
       d="m 178.36315,25.290033 -1.02737,-0.218249 0.26026,-1.225101 1.02736,0.218249 z" />
    <path
       inkscape:connector-curvature="0"
       id="path955"
       style="font-style:normal;font-size:medium;text-anchor:middle;fill:none;fill-opacity:1;stroke:#000000;stroke-width:0.25;stroke-linecap:butt;stroke-linejoin:bevel;stroke-dasharray:none;stroke-opacity:1"
       d="m 61.426133,351.43656 -2.585818,0.34762 -1.324254,-9.52569 2.585818,-0.34762 0.09721,0.69927 -1.720564,0.2313 1.129832,8.12715 1.720564,-0.23129 z" />
    <path
       inkscape:connector-curvature="0"
       id="path957"
       style="font-style:normal;font-size:medium;text-anchor:middle;fill:none;fill-opacity:1;stroke:#000000;stroke-width:0.25;stroke-linecap:butt;stroke-linejoin:bevel;stroke-dasharray:none;stroke-opacity:1"
       d="m 67.410371,348.6794 -4.008019,0.5388 -0.10333,-0.74328 1.541545,-0.20723 -0.678443,-4.88021 -1.541545,0.20724 -0.09245,-0.66504 q 0.313281,-0.0421 0.664523,-0.13912 0.350561,-0.10191 0.520954,-0.22446 0.21175,-0.153 0.315209,-0.35619 0.107752,-0.20876 0.08345,-0.52929 l 0.770773,-0.10361 0.912295,6.56236 1.51171,-0.20322 z" />
    <path
       inkscape:connector-curvature="0"
       id="path959"
       style="font-style:normal;font-size:medium;text-anchor:middle;fill:none;fill-opacity:1;stroke:#000000;stroke-width:0.25;stroke-linecap:butt;stroke-linejoin:bevel;stroke-dasharray:none;stroke-opacity:1"
       d="m 74.090073,345.71417 q 0.131201,0.94376 -0.532666,1.67062 -0.658895,0.72619 -1.792677,0.87861 -1.203401,0.16177 -2.004449,-0.35321 -0.796075,-0.51565 -0.928636,-1.4692 -0.0843,-0.60636 0.205761,-1.14349 0.289377,-0.54202 0.900696,-0.9181 l -0.0041,-0.0293 q -0.640236,-0.23274 -0.980318,-0.56561 -0.33511,-0.33353 -0.412609,-0.89099 -0.114206,-0.82152 0.495893,-1.46144 0.610098,-0.63994 1.669289,-0.78233 1.108918,-0.14907 1.84303,0.28525 0.734112,0.43432 0.84628,1.24117 0.06866,0.49388 -0.178001,1.01522 -0.247342,0.51644 -0.816625,0.86695 l 0.0041,0.0293 q 0.73697,0.19982 1.164775,0.58067 0.427805,0.38085 0.520257,1.04589 z m -1.672754,-3.39659 q -0.07274,-0.52323 -0.528301,-0.77581 -0.451272,-0.25814 -1.087781,-0.17257 -0.626563,0.0842 -0.988568,0.43176 -0.35703,0.34688 -0.287689,0.84566 0.04895,0.35208 0.283884,0.58451 0.239232,0.22688 0.674867,0.37254 0.196229,0.0633 0.559061,0.15898 0.367805,0.095 0.708921,0.1438 0.447433,-0.38892 0.588131,-0.76151 0.140698,-0.37259 0.07748,-0.82736 z m 0.661288,3.6272 q -0.06254,-0.44988 -0.303813,-0.69141 -0.236978,-0.24711 -0.861829,-0.44207 -0.248674,-0.0762 -0.540063,-0.13163 -0.291392,-0.0555 -0.776966,-0.15956 -0.414235,0.29977 -0.630633,0.74729 -0.211423,0.44687 -0.139364,0.96521 0.09177,0.66014 0.614059,1.02828 0.522287,0.36816 1.233387,0.27256 0.726018,-0.0976 1.107661,-0.5225 0.386615,-0.42558 0.297561,-1.06617 z" />
    <path
       inkscape:connector-curvature="0"
       id="path961"
       style="font-style:normal;font-size:medium;text-anchor:middle;fill:none;fill-opacity:1;stroke:#000000;stroke-width:0.25;stroke-linecap:butt;stroke-linejoin:bevel;stroke-dasharray:none;stroke-opacity:1"
       d="m 78.691447,349.11556 -2.585819,0.34762 -0.09721,-0.69927 1.720564,-0.23129 -1.129832,-8.12716 -1.720564,0.2313 -0.09721,-0.69927 2.585818,-0.34761 z" />
    <path
       inkscape:connector-curvature="0"
       id="path963"
       style="font-style:normal;font-size:medium;text-anchor:middle;fill:none;fill-opacity:1;stroke:#000000;stroke-width:0.25;stroke-linecap:butt;stroke-linejoin:bevel;stroke-dasharray:none;stroke-opacity:1"
       d="m 86.808985,346.07162 -2.923965,0.39307 -0.10333,-0.74328 0.969683,-0.13036 -0.805565,-5.79462 -0.969683,0.13035 -0.10333,-0.74328 2.923965,-0.39307 0.10333,0.74328 -0.969682,0.13036 0.805565,5.79462 0.969682,-0.13035 z" />
    <path
       inkscape:connector-curvature="0"
       id="path965"
       style="font-style:normal;font-size:medium;text-anchor:middle;fill:none;fill-opacity:1;stroke:#000000;stroke-width:0.25;stroke-linecap:butt;stroke-linejoin:bevel;stroke-dasharray:none;stroke-opacity:1"
       d="m 96.471001,344.77274 -4.008023,0.5388 -0.103331,-0.74328 1.541546,-0.20723 -0.678443,-4.8802 -1.541545,0.20723 -0.09245,-0.66504 q 0.313282,-0.0421 0.664523,-0.13911 0.350561,-0.10191 0.520954,-0.22446 0.21175,-0.153 0.31521,-0.35619 0.107751,-0.20876 0.08345,-0.52929 l 0.770773,-0.10362 0.912295,6.56236 1.511714,-0.20322 z" />
    <path
       inkscape:connector-curvature="0"
       id="path967"
       style="font-style:normal;font-size:medium;text-anchor:middle;fill:none;fill-opacity:1;stroke:#000000;stroke-width:0.25;stroke-linecap:butt;stroke-linejoin:bevel;stroke-dasharray:none;stroke-opacity:1"
       d="m 103.1507,341.80751 q 0.1312,0.94376 -0.53267,1.67062 -0.65889,0.72619 -1.79267,0.87861 -1.20341,0.16178 -2.004452,-0.35321 -0.796073,-0.51565 -0.928635,-1.4692 -0.0843,-0.60636 0.205758,-1.14349 0.289375,-0.54201 0.900695,-0.9181 l -0.0041,-0.0293 q -0.640238,-0.23274 -0.980317,-0.5656 -0.33511,-0.33353 -0.412608,-0.891 -0.114207,-0.82152 0.495894,-1.46144 0.6101,-0.63994 1.669292,-0.78232 1.108913,-0.14908 1.843033,0.28524 0.7341,0.43432 0.84627,1.24117 0.0687,0.49389 -0.178,1.01522 -0.24734,0.51644 -0.81663,0.86695 l 0.004,0.0294 q 0.73698,0.19981 1.16479,0.58066 0.42779,0.38085 0.52025,1.04589 z m -1.67275,-3.39659 q -0.0727,-0.52323 -0.52831,-0.7758 -0.45127,-0.25815 -1.08778,-0.17258 -0.626559,0.0842 -0.988565,0.43177 -0.357025,0.34688 -0.287685,0.84566 0.04895,0.35207 0.283882,0.5845 0.239226,0.22688 0.67486,0.37255 0.196235,0.0633 0.559068,0.15897 0.3678,0.095 0.70891,0.1438 0.44744,-0.38892 0.58814,-0.7615 0.1407,-0.37259 0.0775,-0.82737 z m 0.66128,3.62721 q -0.0625,-0.44988 -0.30381,-0.69142 -0.23697,-0.2471 -0.86183,-0.44206 -0.24868,-0.0762 -0.54007,-0.13163 -0.29138,-0.0555 -0.776954,-0.15957 -0.414242,0.29978 -0.630634,0.7473 -0.211422,0.44686 -0.139363,0.9652 0.09177,0.66015 0.614057,1.02829 0.522284,0.36815 1.233384,0.27256 0.72602,-0.0976 1.10766,-0.52251 0.38661,-0.42558 0.29756,-1.06616 z" />
    <path
       inkscape:connector-curvature="0"
       class="sticker"
       d="m 39.304593,442.18899 -10.279287,-0.13031 -0.218844,-76.37219 10.278373,-0.18727 z m 95.694867,-76.95553 10.27963,0.0996 0.45487,76.37156 -10.27777,0.21796 z m -95.985646,-24.538 -10.27928,-0.13025 -0.106728,-37.2026 10.278368,-0.18735 z m 95.855276,-20.97511 10.27928,0.13031 0.12946,45.19552 -10.27837,0.18728 z m -95.784255,45.77887 -10.279282,-0.13032 -0.07012,-24.48619 10.278376,-0.18725 z m -0.178661,-62.32396 1.934153,-9.92853 95.644803,16.49023 -1.61604,9.98339 z m 0.618171,215.70348 -10.279285,-0.1303 -0.218842,-76.37218 10.278375,-0.18727 z m 95.931845,-76.95619 10.27883,0.16102 -0.0171,76.37286 -10.2789,0.15654 z m -95.753335,139.28018 -10.279286,-0.13034 -0.106474,-37.20266 10.278374,-0.18724 z m 95.736115,-62.58976 10.27929,0.13031 0.12953,45.19555 -10.27838,0.18727 z m -95.843501,25.06952 -10.279284,-0.13027 -0.07021,-24.48619 10.278374,-0.18729 z m 95.973941,20.44361 1.67325,9.97427 -95.548784,17.02004 -1.991021,-9.91768 z"
       id="path2619"
       style="fill:#e5e5e5;fill-opacity:1;stroke:#000000;stroke-width:0.25;stroke-linecap:butt;stroke-linejoin:bevel;stroke-dasharray:none;stroke-opacity:1" />
    <path
       inkscape:connector-curvature="0"
       id="path970"
       style="font-style:normal;font-size:medium;text-anchor:middle;fill:none;fill-opacity:1;stroke:#000000;stroke-width:0.25;stroke-linecap:butt;stroke-linejoin:bevel;stroke-dasharray:none;stroke-opacity:1"
       d="m 139.1983,400.83216 q -0.46977,0.003 -0.89989,-0.16362 -0.43012,-0.16632 -0.72548,-0.45779 -0.31809,-0.31799 -0.49239,-0.76119 -0.16974,-0.43878 -0.1732,-1.02066 -0.003,-0.5419 0.11122,-1.0445 0.10994,-0.50259 0.27049,-0.84998 l 0.95309,-0.005 3.7e-4,0.0622 q -0.23272,0.36558 -0.39694,0.85515 -0.1597,0.48954 -0.1569,0.96037 0.002,0.31537 0.094,0.60801 0.0921,0.29709 0.31935,0.52676 0.19539,0.19433 0.46699,0.29049 0.27163,0.1006 0.62847,0.0986 0.34781,-0.002 0.5865,-0.12332 0.23871,-0.11686 0.38201,-0.32646 0.17027,-0.23196 0.23605,-0.56549 0.0703,-0.32912 0.0679,-0.73777 -0.002,-0.39087 -0.0587,-0.7548 -0.0563,-0.35947 -0.11211,-0.62123 l 3.46453,-0.0199 0.0237,3.97989 -0.79047,0.005 -0.0186,-3.12262 -1.78873,0.0103 q 0.0192,0.1909 0.0295,0.39073 0.0104,0.19983 0.0113,0.34642 0.003,0.53745 -0.0893,0.94221 -0.0879,0.40473 -0.32081,0.74366 -0.24632,0.35678 -0.63813,0.55449 -0.39182,0.1977 -0.98355,0.20111 z" />
    <path
       inkscape:connector-curvature="0"
       id="path972"
       style="font-style:normal;font-size:medium;text-anchor:middle;fill:none;fill-opacity:1;stroke:#000000;stroke-width:0.25;stroke-linecap:butt;stroke-linejoin:bevel;stroke-dasharray:none;stroke-opacity:1"
       d="m 140.83927,404.07424 -0.006,-1.06159 1.28735,-0.007 0.006,1.0616 z m -3.75815,0.0216 -0.006,-1.06159 1.28734,-0.007 0.006,1.0616 z" />
    <path
       inkscape:connector-curvature="0"
       id="path974"
       style="font-style:normal;font-size:medium;text-anchor:middle;fill:none;fill-opacity:1;stroke:#000000;stroke-width:0.25;stroke-linecap:butt;stroke-linejoin:bevel;stroke-dasharray:none;stroke-opacity:1"
       d="m 139.25744,410.76412 q -0.46977,0.003 -0.89989,-0.16363 -0.43012,-0.16631 -0.72547,-0.45778 -0.31809,-0.31799 -0.49239,-0.76119 -0.16974,-0.43877 -0.17321,-1.02066 -0.003,-0.5419 0.11122,-1.04451 0.10995,-0.50257 0.27049,-0.84998 l 0.95309,-0.005 3.7e-4,0.0622 q -0.23272,0.36558 -0.39694,0.85514 -0.1597,0.48953 -0.15689,0.96037 0.002,0.31538 0.094,0.60801 0.0921,0.29709 0.31934,0.52676 0.19539,0.19432 0.46699,0.29048 0.27164,0.10061 0.62847,0.0986 0.34781,-0.002 0.5865,-0.12332 0.23871,-0.11686 0.38202,-0.32647 0.17027,-0.23196 0.23604,-0.56548 0.0703,-0.32912 0.0679,-0.73776 -0.002,-0.39089 -0.0587,-0.75481 -0.0563,-0.35948 -0.11211,-0.62123 l 3.46454,-0.02 0.0237,3.9799 -0.79047,0.005 -0.0186,-3.12261 -1.78873,0.0103 q 0.0192,0.19089 0.0295,0.39072 0.0104,0.19983 0.0113,0.34641 0.003,0.53747 -0.0893,0.94222 -0.088,0.40472 -0.32082,0.74366 -0.24632,0.35678 -0.63813,0.55448 -0.39182,0.19771 -0.98354,0.20111 z" />
    <path
       inkscape:connector-curvature="0"
       id="path977"
       style="font-style:normal;font-size:medium;text-anchor:middle;fill:none;fill-opacity:1;stroke:#000000;stroke-width:0.25;stroke-linecap:butt;stroke-linejoin:bevel;stroke-dasharray:none;stroke-opacity:1"
       d="m 37.126878,327.88372 0.01027,3.58017 -0.686593,0.002 -0.004,-1.37698 -4.508031,0.0125 0.0039,1.37699 -0.61432,0.002 q -8.03e-4,-0.27983 -0.04689,-0.59953 -0.0506,-0.31967 -0.141418,-0.48377 -0.113512,-0.20402 -0.285492,-0.31904 -0.17651,-0.11944 -0.470169,-0.13639 l -0.002,-0.68849 6.0619,-0.0168 -0.0039,-1.35034 z" />
    <path
       inkscape:connector-curvature="0"
       id="path979"
       style="font-style:normal;font-size:medium;text-anchor:middle;fill:none;fill-opacity:1;stroke:#000000;stroke-width:0.25;stroke-linecap:butt;stroke-linejoin:bevel;stroke-dasharray:none;stroke-opacity:1"
       d="m 35.216098,321.56814 0.0028,0.98166 1.892649,-0.005 0.0024,0.85284 -1.892649,0.005 0.0091,3.16709 -1.038925,0.003 -3.803521,-3.19209 -0.0023,-0.81731 4.110529,-0.0114 -0.0028,-0.98165 z m -0.717468,1.83651 -3.035467,0.008 3.042819,2.55456 z" />
    <path
       inkscape:connector-curvature="0"
       id="path981"
       style="font-style:normal;font-size:medium;text-anchor:middle;fill:none;fill-opacity:1;stroke:#000000;stroke-width:0.25;stroke-linecap:butt;stroke-linejoin:bevel;stroke-dasharray:none;stroke-opacity:1"
       d="m 33.341809,318.52617 0.003,1.06162 -1.287362,0.004 -0.003,-1.06162 z m 3.758197,-0.0104 0.003,1.06162 -1.287363,0.004 -0.003,-1.06162 z" />
    <path
       inkscape:connector-curvature="0"
       id="path983"
       style="font-style:normal;font-size:medium;text-anchor:middle;fill:none;fill-opacity:1;stroke:#000000;stroke-width:0.25;stroke-linecap:butt;stroke-linejoin:bevel;stroke-dasharray:none;stroke-opacity:1"
       d="m 37.081773,312.15939 0.01027,3.58017 -0.686593,0.002 -0.004,-1.37698 -4.50803,0.0125 0.0039,1.37699 -0.61432,0.002 q -8.03e-4,-0.27983 -0.04688,-0.59953 -0.05061,-0.31968 -0.141419,-0.48377 -0.113512,-0.20402 -0.285492,-0.31903 -0.176509,-0.11944 -0.470169,-0.1364 l -0.002,-0.68849 6.0619,-0.0168 -0.0039,-1.35034 z" />
    <path
       inkscape:connector-curvature="0"
       id="path986"
       style="font-style:normal;font-size:medium;text-anchor:middle;fill:none;fill-opacity:1;stroke:#000000;stroke-width:0.25;stroke-linecap:butt;stroke-linejoin:bevel;stroke-dasharray:none;stroke-opacity:1"
       d="m 138.90859,338.09063 q -0.46977,0.001 -0.89938,-0.1663 -0.4296,-0.1676 -0.72405,-0.45995 -0.31711,-0.31895 -0.49003,-0.76266 -0.16839,-0.43929 -0.17006,-1.02117 -0.002,-0.54192 0.11446,-1.04418 0.11148,-0.50225 0.2731,-0.84917 l 0.9531,-0.003 1.8e-4,0.0622 q -0.23385,0.36489 -0.39957,0.85396 -0.16122,0.48906 -0.15987,0.9599 9e-4,0.31538 0.0921,0.60829 0.0912,0.29735 0.31771,0.52771 0.1948,0.19491 0.46611,0.29188 0.27131,0.10141 0.62816,0.10042 0.34782,-9.6e-4 0.58688,-0.12156 0.23907,-0.11615 0.38301,-0.32532 0.17099,-0.23146 0.23779,-0.56479 0.0713,-0.32889 0.0701,-0.73755 -0.001,-0.39089 -0.0563,-0.75497 -0.0552,-0.35965 -0.11019,-0.62158 l 3.46459,-0.01 0.0114,3.97994 -0.7905,0.002 -0.009,-3.12265 -1.78876,0.005 q 0.0186,0.19095 0.0283,0.39082 0.01,0.19985 0.0102,0.34644 0.002,0.53747 -0.0922,0.94194 -0.0892,0.40446 -0.32311,0.7427 -0.24741,0.35604 -0.63984,0.55257 -0.39242,0.19654 -0.98416,0.19818 z" />
    <path
       inkscape:connector-curvature="0"
       id="path988"
       style="font-style:normal;font-size:medium;text-anchor:middle;fill:none;fill-opacity:1;stroke:#000000;stroke-width:0.25;stroke-linecap:butt;stroke-linejoin:bevel;stroke-dasharray:none;stroke-opacity:1"
       d="m 140.53954,341.33761 -0.003,-1.06162 1.28737,-0.004 0.003,1.06162 z m -3.7582,0.0104 -0.003,-1.06162 1.28736,-0.004 0.003,1.06163 z" />
    <path
       inkscape:connector-curvature="0"
       id="path990"
       style="font-style:normal;font-size:medium;text-anchor:middle;fill:none;fill-opacity:1;stroke:#000000;stroke-width:0.25;stroke-linecap:butt;stroke-linejoin:bevel;stroke-dasharray:none;stroke-opacity:1"
       d="m 138.98266,348.17362 q -1.02538,0.003 -1.67774,-0.66164 -0.64784,-0.66006 -0.6506,-1.62395 -0.001,-0.48861 0.15103,-0.88881 0.15244,-0.4002 0.4542,-0.70752 0.37383,-0.38305 0.99207,-0.59353 0.61825,-0.20604 1.49004,-0.20846 0.89438,-0.002 1.58602,0.18217 0.69166,0.18909 1.23038,0.6007 0.51155,0.38947 0.79788,1.00611 0.29087,0.61662 0.29322,1.43837 7.5e-4,0.26207 -0.0213,0.43981 -0.0221,0.17774 -0.0803,0.36002 l -0.86276,0.002 -1.3e-4,-0.0444 q 0.0674,-0.12456 0.1254,-0.37791 0.0625,-0.24893 0.0618,-0.51099 -0.003,-0.95502 -0.61417,-1.52189 -0.6069,-0.56689 -1.64158,-0.65729 0.23144,0.37248 0.34991,0.73195 0.12301,0.36389 0.12437,0.83917 0.001,0.42198 -0.0792,0.74203 -0.0759,0.32447 -0.3143,0.66271 -0.27443,0.39165 -0.69395,0.58826 -0.41952,0.20106 -1.02028,0.20272 z m -0.0388,-0.9016 q 0.42009,-10e-4 0.69528,-0.12631 0.2752,-0.12069 0.47766,-0.4011 0.14397,-0.20473 0.18842,-0.45359 0.0444,-0.24887 0.0436,-0.51983 -10e-4,-0.37757 -0.0924,-0.70158 -0.0913,-0.324 -0.28198,-0.66551 -0.0994,-0.009 -0.19426,-0.0128 -0.0904,-0.004 -0.23038,-0.003 -0.7137,0.002 -1.12886,0.14526 -0.41064,0.14772 -0.64932,0.40158 -0.19816,0.20488 -0.29234,0.44056 -0.0897,0.24011 -0.0889,0.51995 0.002,0.64407 0.40041,1.01165 0.40307,0.36757 1.1529,0.36549 z" />
    <path
       inkscape:connector-curvature="0"
       id="path992"
       style="font-style:normal;font-size:medium;text-anchor:middle;fill:none;fill-opacity:1;stroke:#000000;stroke-width:0.25;stroke-linecap:butt;stroke-linejoin:bevel;stroke-dasharray:none;stroke-opacity:1"
       d="m 136.80861,350.86702 -0.003,-1.06163 1.28736,-0.004 0.003,1.06162 z" />
    <path
       inkscape:connector-curvature="0"
       id="path995"
       style="font-style:normal;font-size:medium;text-anchor:middle;fill:none;fill-opacity:1;stroke:#000000;stroke-width:0.25;stroke-linecap:butt;stroke-linejoin:bevel;stroke-dasharray:none;stroke-opacity:1"
       d="m 81.253958,308.62943 -3.586065,-0.61828 0.118572,-0.66503 1.379252,0.2378 0.778513,-4.36643 -1.379252,-0.23779 0.10609,-0.59503 q 0.280295,0.0483 0.608435,0.0598 0.328921,0.007 0.509143,-0.052 0.224167,-0.0741 0.369491,-0.2204 0.15055,-0.14992 0.219053,-0.43124 l 0.689626,0.1189 -1.046859,5.87149 1.352564,0.2332 z" />
    <path
       inkscape:connector-curvature="0"
       id="path997"
       style="font-style:normal;font-size:medium;text-anchor:middle;fill:none;fill-opacity:1;stroke:#000000;stroke-width:0.25;stroke-linecap:butt;stroke-linejoin:bevel;stroke-dasharray:none;stroke-opacity:1"
       d="m 87.433914,309.69492 -4.484801,-0.77323 0.163036,-0.91441 q 0.537369,-0.31323 1.074747,-0.62645 0.541822,-0.31245 1.016126,-0.63204 0.999343,-0.6665 1.400262,-1.08893 0.401701,-0.4268 0.500772,-0.98246 0.09049,-0.50751 -0.201398,-0.85097 -0.286651,-0.34706 -0.896192,-0.45215 -0.404877,-0.0698 -0.901456,-0.0111 -0.496578,0.0587 -0.997436,0.26997 l -0.04455,-0.008 0.163815,-0.91878 q 0.343206,-0.0987 0.89083,-0.13503 0.55208,-0.0356 1.045939,0.0496 1.018873,0.17566 1.510684,0.76103 0.492591,0.58099 0.345156,1.40791 -0.0663,0.37188 -0.221935,0.67877 -0.150393,0.30327 -0.388735,0.55982 -0.221877,0.24135 -0.504489,0.4632 -0.278168,0.22262 -0.668805,0.48447 -0.557969,0.37732 -1.142411,0.72302 -0.58366,0.34131 -1.08966,0.63289 l 3.563822,0.61444 z" />
    <path
       inkscape:connector-curvature="0"
       id="path999"
       style="font-style:normal;font-size:medium;text-anchor:middle;fill:none;fill-opacity:1;stroke:#000000;stroke-width:0.25;stroke-linecap:butt;stroke-linejoin:bevel;stroke-dasharray:none;stroke-opacity:1"
       d="m 91.286378,306.60708 -1.06337,-0.18334 0.222321,-1.24692 1.06337,0.18333 z m -0.649021,3.64015 -1.06337,-0.18334 0.222321,-1.24692 1.063369,0.18333 z" />
    <path
       inkscape:connector-curvature="0"
       id="path1001"
       style="font-style:normal;font-size:medium;text-anchor:middle;fill:none;fill-opacity:1;stroke:#000000;stroke-width:0.25;stroke-linecap:butt;stroke-linejoin:bevel;stroke-dasharray:none;stroke-opacity:1"
       d="m 97.004179,311.34494 -3.586065,-0.61828 0.118571,-0.66503 1.379252,0.2378 0.778513,-4.36643 -1.379252,-0.23779 0.106091,-0.59503 q 0.280295,0.0483 0.608435,0.0598 0.328921,0.007 0.509143,-0.052 0.224166,-0.0741 0.369491,-0.2204 0.15055,-0.14992 0.219052,-0.43124 l 0.689626,0.1189 -1.046858,5.87149 1.352563,0.2332 z" />
    <path
       inkscape:connector-curvature="0"
       id="path1004"
       style="font-style:normal;font-size:medium;text-anchor:middle;fill:none;fill-opacity:1;stroke:#000000;stroke-width:0.25;stroke-linecap:butt;stroke-linejoin:bevel;stroke-dasharray:none;stroke-opacity:1"
       d="m 139.43557,474.64954 q -0.46978,-10e-5 -0.89886,-0.16899 -0.42908,-0.16889 -0.72263,-0.46211 -0.31612,-0.31989 -0.48768,-0.76412 -0.16702,-0.43979 -0.16689,-1.02168 1.2e-4,-0.54191 0.11767,-1.04382 0.11304,-0.50191 0.27573,-0.84835 l 0.95311,2e-4 -1e-5,0.0622 q -0.23498,0.36418 -0.40222,0.85276 -0.16272,0.48857 -0.16283,0.95942 -7e-5,0.31537 0.0902,0.60856 0.0903,0.29762 0.31608,0.52866 0.19418,0.19547 0.46518,0.29325 0.27101,0.10223 0.62786,0.10231 0.34781,8e-5 0.58724,-0.1198 0.23943,-0.11544 0.38403,-0.32418 0.1717,-0.23094 0.23954,-0.56407 0.0723,-0.32869 0.0724,-0.73734 9e-5,-0.39089 -0.054,-0.75514 -0.0541,-0.35981 -0.10827,-0.6219 l 3.4646,7.5e-4 -9e-4,3.97996 -0.79048,-1.7e-4 7e-4,-3.12266 -1.78876,-3.9e-4 q 0.018,0.191 0.0271,0.3909 0.009,0.19988 0.009,0.34646 -1.2e-4,0.53748 -0.0951,0.94167 -0.0904,0.40419 -0.3254,0.74173 -0.24852,0.3553 -0.64154,0.55066 -0.39304,0.19536 -0.98477,0.19523 z" />
    <path
       inkscape:connector-curvature="0"
       id="path1006"
       style="font-style:normal;font-size:medium;text-anchor:middle;fill:none;fill-opacity:1;stroke:#000000;stroke-width:0.25;stroke-linecap:butt;stroke-linejoin:bevel;stroke-dasharray:none;stroke-opacity:1"
       d="m 141.05648,477.90138 2.3e-4,-1.06163 1.28737,2.8e-4 -2.4e-4,1.06163 z m -3.75822,-8.2e-4 2.4e-4,-1.06162 1.28737,2.8e-4 -2.4e-4,1.06162 z" />
    <path
       inkscape:connector-curvature="0"
       id="path1008"
       style="font-style:normal;font-size:medium;text-anchor:middle;fill:none;fill-opacity:1;stroke:#000000;stroke-width:0.25;stroke-linecap:butt;stroke-linejoin:bevel;stroke-dasharray:none;stroke-opacity:1"
       d="m 137.29684,484.25694 8e-4,-3.58018 0.6866,1.5e-4 -3.1e-4,1.37699 4.50804,9.8e-4 3.1e-4,-1.37699 0.61432,1.3e-4 q -6e-5,0.27984 0.045,0.59967 0.0496,0.31983 0.13992,0.48419 0.11288,0.20436 0.28451,0.31989 0.17613,0.11996 0.46974,0.1378 l -1.5e-4,0.68849 -6.06192,-10e-4 -3.1e-4,1.35034 z" />
    <path
       inkscape:connector-curvature="0"
       id="path1010"
       style="font-style:normal;font-size:medium;text-anchor:middle;fill:none;fill-opacity:1;stroke:#000000;stroke-width:0.25;stroke-linecap:butt;stroke-linejoin:bevel;stroke-dasharray:none;stroke-opacity:1"
       d="m 137.29545,490.42676 0.001,-4.47744 0.94406,2e-4 q 0.40643,0.46649 0.81287,0.93298 0.40643,0.47093 0.80836,0.87523 0.83998,0.85303 1.33228,1.16851 0.49681,0.31549 1.07047,0.31561 0.52399,1.1e-4 0.81767,-0.34185 0.29821,-0.33752 0.29834,-0.94606 9e-5,-0.40421 -0.14434,-0.87509 -0.14445,-0.47087 -0.44248,-0.91957 l 1e-5,-0.0444 0.94859,2.1e-4 q 0.15803,0.31542 0.2889,0.83959 0.13088,0.52862 0.13077,1.02167 -2.3e-4,1.0172 -0.50175,1.59454 -0.49701,0.57734 -1.35073,0.57716 -0.38396,-9e-5 -0.7182,-0.0979 -0.32972,-0.0934 -0.62781,-0.27998 -0.28002,-0.17329 -0.551,-0.40877 -0.27097,-0.23105 -0.60064,-0.56426 -0.47419,-0.47538 -0.92126,-0.98186 -0.44257,-0.50648 -0.8219,-0.94632 l -8e-4,3.55798 z" />
    <path
       inkscape:connector-curvature="0"
       id="path1013"
       style="font-style:normal;font-size:medium;text-anchor:middle;fill:none;fill-opacity:1;stroke:#000000;stroke-width:0.25;stroke-linecap:butt;stroke-linejoin:bevel;stroke-dasharray:none;stroke-opacity:1"
       d="m 37.815978,568.39104 0.01025,3.58017 -0.686593,0.002 -0.0039,-1.37699 -4.508031,0.0125 0.0039,1.377 -0.61432,0.002 q -8.01e-4,-0.27985 -0.04688,-0.59953 -0.0506,-0.31968 -0.141415,-0.48379 -0.113511,-0.20401 -0.28549,-0.31902 -0.176509,-0.11945 -0.470168,-0.1364 l -0.002,-0.6885 6.0619,-0.0168 -0.0039,-1.35033 z" />
    <path
       inkscape:connector-curvature="0"
       id="path1015"
       style="font-style:normal;font-size:medium;text-anchor:middle;fill:none;fill-opacity:1;stroke:#000000;stroke-width:0.25;stroke-linecap:butt;stroke-linejoin:bevel;stroke-dasharray:none;stroke-opacity:1"
       d="m 35.905237,562.07545 0.0028,0.98166 1.892649,-0.005 0.0024,0.85285 -1.892649,0.005 0.0091,3.16707 -1.038924,0.003 -3.803502,-3.19212 -0.0023,-0.8173 4.110529,-0.0114 -0.0028,-0.98166 z m -0.717479,1.83651 -3.035467,0.008 3.042803,2.55457 z" />
    <path
       inkscape:connector-curvature="0"
       id="path1017"
       style="font-style:normal;font-size:medium;text-anchor:middle;fill:none;fill-opacity:1;stroke:#000000;stroke-width:0.25;stroke-linecap:butt;stroke-linejoin:bevel;stroke-dasharray:none;stroke-opacity:1"
       d="m 34.030967,559.03347 0.003,1.06161 -1.287363,0.004 -0.003,-1.06161 z m 3.758198,-0.0104 0.003,1.06161 -1.287363,0.004 -0.003,-1.06161 z" />
    <path
       inkscape:connector-curvature="0"
       id="path1019"
       style="font-style:normal;font-size:medium;text-anchor:middle;fill:none;fill-opacity:1;stroke:#000000;stroke-width:0.25;stroke-linecap:butt;stroke-linejoin:bevel;stroke-dasharray:none;stroke-opacity:1"
       d="m 35.876809,552.14336 0.0028,0.98166 1.89265,-0.005 0.0024,0.85285 -1.892649,0.005 0.0091,3.16707 -1.038925,0.003 -3.803501,-3.19211 -0.0023,-0.81731 4.110529,-0.0114 -0.0028,-0.98166 z m -0.71748,1.83651 -3.035467,0.008 3.042803,2.55457 z" />
    <path
       inkscape:connector-curvature="0"
       id="path1022"
       style="font-style:normal;font-size:medium;text-anchor:middle;fill:none;fill-opacity:1;stroke:#000000;stroke-width:0.25;stroke-linecap:butt;stroke-linejoin:bevel;stroke-dasharray:none;stroke-opacity:1"
       d="m 139.47485,535.73948 q -0.46977,0.001 -0.89937,-0.1663 -0.42961,-0.1676 -0.72405,-0.45995 -0.31712,-0.31895 -0.49004,-0.76266 -0.16839,-0.43928 -0.17006,-1.02118 -0.002,-0.54191 0.11445,-1.04417 0.11149,-0.50224 0.27311,-0.84917 l 0.9531,-0.003 1.8e-4,0.0622 q -0.23385,0.36489 -0.39957,0.85396 -0.16122,0.48906 -0.15987,0.95991 9e-4,0.31537 0.0921,0.60828 0.0912,0.29736 0.31772,0.52772 0.19479,0.1949 0.4661,0.29187 0.27131,0.10141 0.62816,0.10042 0.34782,-9.6e-4 0.58688,-0.12156 0.23907,-0.11615 0.38301,-0.32532 0.17099,-0.23146 0.23779,-0.56479 0.0713,-0.32889 0.0701,-0.73755 -0.001,-0.39089 -0.0563,-0.75497 -0.0552,-0.35965 -0.11019,-0.62157 l 3.46459,-0.01 0.0114,3.97995 -0.79049,0.002 -0.009,-3.12265 -1.78876,0.005 q 0.0186,0.19095 0.0283,0.39082 0.01,0.19985 0.0102,0.34644 0.002,0.53747 -0.0922,0.94194 -0.0892,0.40446 -0.32311,0.7427 -0.24741,0.35604 -0.63984,0.55258 -0.39242,0.19653 -0.98416,0.19817 z" />
    <path
       inkscape:connector-curvature="0"
       id="path1024"
       style="font-style:normal;font-size:medium;text-anchor:middle;fill:none;fill-opacity:1;stroke:#000000;stroke-width:0.25;stroke-linecap:butt;stroke-linejoin:bevel;stroke-dasharray:none;stroke-opacity:1"
       d="m 141.1058,538.98646 -0.003,-1.06162 1.28736,-0.004 0.003,1.06162 z m -3.7582,0.0104 -0.003,-1.06162 1.28736,-0.004 0.003,1.06162 z" />
    <path
       inkscape:connector-curvature="0"
       id="path1026"
       style="font-style:normal;font-size:medium;text-anchor:middle;fill:none;fill-opacity:1;stroke:#000000;stroke-width:0.25;stroke-linecap:butt;stroke-linejoin:bevel;stroke-dasharray:none;stroke-opacity:1"
       d="m 137.36582,545.35323 -0.0103,-3.58017 0.6866,-0.002 0.004,1.37698 4.50803,-0.0125 -0.004,-1.37699 0.61432,-0.002 q 8e-4,0.27984 0.0468,0.59953 0.0506,0.31968 0.14142,0.48378 0.11352,0.20401 0.2855,0.31903 0.17651,0.11944 0.47016,0.1364 l 0.002,0.68849 -6.0619,0.0168 0.004,1.35034 z" />
    <path
       inkscape:connector-curvature="0"
       id="path1028"
       style="font-style:normal;font-size:medium;text-anchor:middle;fill:none;fill-opacity:1;stroke:#000000;stroke-width:0.25;stroke-linecap:butt;stroke-linejoin:bevel;stroke-dasharray:none;stroke-opacity:1"
       d="m 140.62058,550.93217 q -0.19363,0.21375 -0.48684,0.35226 -0.29321,0.13851 -0.75847,0.1398 -0.46074,0.001 -0.84517,-0.16201 -0.38441,-0.16329 -0.66985,-0.4601 -0.31715,-0.33227 -0.47202,-0.78491 -0.15035,-0.44823 -0.15189,-0.9857 -0.002,-0.55079 0.13241,-1.08419 0.12946,-0.5334 0.28658,-0.87586 l 0.94406,-0.003 1.9e-4,0.0666 q -0.25187,0.37827 -0.41754,0.88955 -0.16567,0.51128 -0.16431,0.98656 8.1e-4,0.27984 0.0966,0.59495 0.0958,0.31511 0.28153,0.51004 0.19933,0.20378 0.43902,0.30084 0.23969,0.10151 0.60558,0.10049 0.36136,-10e-4 0.59591,-0.11714 0.23909,-0.11172 0.37403,-0.31198 0.13946,-0.20027 0.18833,-0.48469 0.0533,-0.28443 0.0524,-0.61313 l -0.001,-0.39978 0.74983,-0.002 8.9e-4,0.31094 q 0.002,0.67517 0.28765,1.07415 0.29025,0.40341 0.84134,0.40189 0.24392,-6.8e-4 0.4243,-0.10334 0.18492,-0.10268 0.30184,-0.28512 0.11689,-0.19133 0.16144,-0.40911 0.0445,-0.21778 0.0437,-0.49317 -0.001,-0.42199 -0.15615,-0.89684 -0.15494,-0.47486 -0.43621,-0.89607 l -1.3e-4,-0.0444 0.94407,-0.003 q 0.159,0.31493 0.2915,0.83872 0.13703,0.52821 0.13844,1.02126 0.001,0.48416 -0.0879,0.85309 -0.0893,0.36893 -0.28719,0.66709 -0.2159,0.32041 -0.52259,0.48562 -0.30669,0.1652 -0.71774,0.16634 -0.56012,0.002 -0.98132,-0.38817 -0.41669,-0.38529 -0.52661,-0.91358 l -0.0632,1.8e-4 q -0.0356,0.2133 -0.15218,0.48903 -0.11214,0.27571 -0.28323,0.46719 z" />
    <path
       inkscape:connector-curvature="0"
       id="path1031"
       style="font-style:normal;font-size:medium;text-anchor:middle;fill:none;fill-opacity:1;stroke:#000000;stroke-width:0.25;stroke-linecap:butt;stroke-linejoin:bevel;stroke-dasharray:none;stroke-opacity:1"
       d="m 93.912991,573.3954 3.582467,-0.63814 0.122381,0.66436 -1.377872,0.24544 0.803527,4.36204 1.377872,-0.24544 0.109499,0.59443 q -0.280019,0.0499 -0.591998,0.15055 -0.311172,0.10504 -0.459518,0.22179 -0.184329,0.1457 -0.269297,0.33237 -0.08861,0.19184 -0.05405,0.47911 l -0.688937,0.12272 -1.080494,-5.8656 -1.351203,0.24069 z" />
    <path
       inkscape:connector-curvature="0"
       id="path1033"
       style="font-style:normal;font-size:medium;text-anchor:middle;fill:none;fill-opacity:1;stroke:#000000;stroke-width:0.25;stroke-linecap:butt;stroke-linejoin:bevel;stroke-dasharray:none;stroke-opacity:1"
       d="m 88.898781,577.52526 q -0.247969,-0.14994 -0.43809,-0.40949 -0.190119,-0.25956 -0.273049,-0.70975 -0.08212,-0.44582 0.0139,-0.84664 0.09602,-0.4008 0.343093,-0.72921 0.276996,-0.36534 0.702986,-0.5947 0.422351,-0.2242 0.960165,-0.32 0.551149,-0.0982 1.108673,-0.0621 0.556718,0.0317 0.927144,0.12376 l 0.168272,0.91348 -0.06667,0.0119 q -0.42289,-0.17746 -0.963827,-0.24813 -0.540936,-0.0707 -1.016524,0.014 -0.280019,0.0499 -0.578686,0.1979 -0.298667,0.14801 -0.461227,0.36203 -0.169033,0.22874 -0.224145,0.47781 -0.05956,0.24986 0.0057,0.6039 0.06441,0.34966 0.221842,0.55636 0.153791,0.21186 0.377958,0.30735 0.224973,0.0999 0.518293,0.0973 0.294119,0.002 0.623031,-0.0569 l 0.400027,-0.0712 0.133652,0.72555 -0.311132,0.0554 q -0.675602,0.12034 -1.024906,0.46695 -0.352944,0.35178 -0.254715,0.88503 0.04348,0.23601 0.177911,0.39263 0.135241,0.161 0.33841,0.24218 0.212055,0.0796 0.4379,0.0845 0.225836,0.005 0.50141,-0.0442 0.422252,-0.0752 0.870466,-0.30854 0.448214,-0.23332 0.820546,-0.57952 l 0.04445,-0.008 0.168285,0.91356 q -0.287396,0.20919 -0.788528,0.42937 -0.50477,0.22534 -0.998137,0.31323 -0.484478,0.0863 -0.869496,0.0646 -0.385019,-0.0217 -0.718242,-0.16096 -0.358668,-0.1528 -0.577874,-0.42072 -0.219206,-0.26792 -0.292473,-0.66566 -0.09984,-0.54198 0.216424,-1.01813 0.31262,-0.471 0.822222,-0.67012 l -0.01127,-0.0612 q -0.219797,0.003 -0.516296,-0.0615 -0.295705,-0.0602 -0.517424,-0.19223 z" />
    <path
       inkscape:connector-curvature="0"
       id="path1035"
       style="font-style:normal;font-size:medium;text-anchor:middle;fill:none;fill-opacity:1;stroke:#000000;stroke-width:0.25;stroke-linecap:butt;stroke-linejoin:bevel;stroke-dasharray:none;stroke-opacity:1"
       d="m 85.208892,578.70167 1.062294,-0.18922 0.229464,1.24567 -1.062295,0.18923 z m -0.669875,-3.63649 1.062295,-0.18923 0.229464,1.24568 -1.062295,0.18922 z" />
    <path
       inkscape:connector-curvature="0"
       id="path1037"
       style="font-style:normal;font-size:medium;text-anchor:middle;fill:none;fill-opacity:1;stroke:#000000;stroke-width:0.25;stroke-linecap:butt;stroke-linejoin:bevel;stroke-dasharray:none;stroke-opacity:1"
       d="m 78.178583,576.19816 3.582467,-0.63814 0.122381,0.66436 -1.377871,0.24544 0.803526,4.36204 1.377872,-0.24544 0.109499,0.59443 q -0.280019,0.0499 -0.591997,0.15055 -0.311174,0.10504 -0.459519,0.22179 -0.184329,0.1457 -0.269298,0.33237 -0.08861,0.19184 -0.05405,0.47911 l -0.688936,0.12272 -1.080494,-5.8656 -1.351204,0.24069 z" />
    <path
       d="m 189.78828,492.03548 h -2.53906 v -9.51172 h 2.53906 v 0.69824 h -1.68945 v 8.11524 h 1.68945 z"
       style="font-style:normal;font-size:medium;text-anchor:middle;fill:none;fill-opacity:1;stroke:#000000;stroke-width:0.25;stroke-linecap:butt;stroke-linejoin:bevel;stroke-dasharray:none;stroke-opacity:1"
       id="path1100"
       inkscape:connector-curvature="0" />
    <path
       d="m 195.92598,490.12142 h -3.93555 v -0.74219 h 1.51367 v -4.87305 h -1.51367 v -0.66406 q 0.30762,0 0.65918,-0.0488 0.35156,-0.0537 0.53223,-0.15136 0.22461,-0.12207 0.35156,-0.30762 0.13183,-0.19043 0.15137,-0.50781 h 0.75683 v 6.55273 h 1.48438 z"
       style="font-style:normal;font-size:medium;text-anchor:middle;fill:none;fill-opacity:1;stroke:#000000;stroke-width:0.25;stroke-linecap:butt;stroke-linejoin:bevel;stroke-dasharray:none;stroke-opacity:1"
       id="path1102"
       inkscape:connector-curvature="0" />
    <path
       d="m 202.81563,487.76302 q 0,1.1084 -0.73243,1.81152 -0.72754,0.69825 -1.7871,0.69825 -0.53711,0 -0.97657,-0.16602 -0.43945,-0.16602 -0.77637,-0.49316 -0.41992,-0.40528 -0.64941,-1.07422 -0.22461,-0.66895 -0.22461,-1.61133 0,-0.9668 0.20508,-1.71387 0.20996,-0.74707 0.66406,-1.32812 0.42969,-0.55176 1.1084,-0.85938 0.67871,-0.3125 1.58203,-0.3125 0.28809,0 0.4834,0.0244 0.19531,0.0244 0.39551,0.0879 v 0.93261 h -0.0488 q -0.13672,-0.0732 -0.41504,-0.13671 -0.27344,-0.0684 -0.56153,-0.0684 -1.0498,0 -1.6748,0.65918 -0.625,0.65429 -0.72754,1.77246 0.41016,-0.24903 0.80566,-0.37598 0.40039,-0.13183 0.92286,-0.13183 0.46386,0 0.81543,0.0879 0.35644,0.083 0.72753,0.34179 0.42969,0.29785 0.64454,0.75195 0.21972,0.45412 0.21972,1.10352 z m -0.99121,0.0391 q 0,-0.4541 -0.13672,-0.75195 -0.13184,-0.29785 -0.43946,-0.51758 -0.22461,-0.15625 -0.49804,-0.20508 -0.27344,-0.0488 -0.57129,-0.0488 -0.41504,0 -0.77149,0.0977 -0.35644,0.0977 -0.73242,0.30274 -0.01,0.10742 -0.0147,0.20996 -0.005,0.0976 -0.005,0.24902 0,0.77148 0.15625,1.2207 0.16113,0.44434 0.43946,0.70313 0.2246,0.21484 0.48339,0.31738 0.26367,0.0977 0.57129,0.0977 0.70801,0 1.11328,-0.42969 0.40528,-0.43457 0.40528,-1.24512 z"
       style="font-style:normal;font-size:medium;text-anchor:middle;fill:none;fill-opacity:1;stroke:#000000;stroke-width:0.25;stroke-linecap:butt;stroke-linejoin:bevel;stroke-dasharray:none;stroke-opacity:1"
       id="path1104"
       inkscape:connector-curvature="0" />
    <path
       d="m 206.74141,492.03548 h -2.53906 v -0.69824 h 1.68945 V 483.222 h -1.68945 v -0.69824 h 2.53906 z"
       style="font-style:normal;font-size:medium;text-anchor:middle;fill:none;fill-opacity:1;stroke:#000000;stroke-width:0.25;stroke-linecap:butt;stroke-linejoin:bevel;stroke-dasharray:none;stroke-opacity:1"
       id="path1106"
       inkscape:connector-curvature="0" />
    <path
       d="m 214.97383,490.12142 h -2.8711 v -0.74219 h 0.95216 v -5.78613 h -0.95216 v -0.74219 h 2.8711 v 0.74219 h -0.95215 v 5.78613 h 0.95215 z"
       style="font-style:normal;font-size:medium;text-anchor:middle;fill:none;fill-opacity:1;stroke:#000000;stroke-width:0.25;stroke-linecap:butt;stroke-linejoin:bevel;stroke-dasharray:none;stroke-opacity:1"
       id="path1108"
       inkscape:connector-curvature="0" />
    <path
       d="m 224.46113,490.12142 h -3.93554 v -0.74219 h 1.51367 v -4.87305 h -1.51367 v -0.66406 q 0.30761,0 0.65918,-0.0488 0.35156,-0.0537 0.53222,-0.15136 0.22461,-0.12207 0.35157,-0.30762 0.13183,-0.19043 0.15136,-0.50781 h 0.75684 v 6.55273 h 1.48437 z"
       style="font-style:normal;font-size:medium;text-anchor:middle;fill:none;fill-opacity:1;stroke:#000000;stroke-width:0.25;stroke-linecap:butt;stroke-linejoin:bevel;stroke-dasharray:none;stroke-opacity:1"
       id="path1110"
       inkscape:connector-curvature="0" />
    <path
       d="m 231.35078,487.76302 q 0,1.1084 -0.73242,1.81152 -0.72754,0.69825 -1.78711,0.69825 -0.53711,0 -0.97656,-0.16602 -0.43945,-0.16602 -0.77637,-0.49316 -0.41992,-0.40528 -0.64941,-1.07422 -0.22461,-0.66895 -0.22461,-1.61133 0,-0.9668 0.20508,-1.71387 0.20996,-0.74707 0.66406,-1.32812 0.42969,-0.55176 1.1084,-0.85938 0.67871,-0.3125 1.58203,-0.3125 0.28808,0 0.4834,0.0244 0.19531,0.0244 0.3955,0.0879 v 0.93261 h -0.0488 q -0.13672,-0.0732 -0.41503,-0.13671 -0.27344,-0.0684 -0.56153,-0.0684 -1.0498,0 -1.6748,0.65918 -0.625,0.65429 -0.72754,1.77246 0.41015,-0.24903 0.80566,-0.37598 0.40039,-0.13183 0.92285,-0.13183 0.46387,0 0.81543,0.0879 0.35645,0.083 0.72754,0.34179 0.42969,0.29785 0.64453,0.75195 0.21973,0.45412 0.21973,1.10352 z m -0.99121,0.0391 q 0,-0.4541 -0.13672,-0.75195 -0.13183,-0.29785 -0.43945,-0.51758 -0.22461,-0.15625 -0.49805,-0.20508 -0.27344,-0.0488 -0.57129,-0.0488 -0.41504,0 -0.77148,0.0977 -0.35644,0.0977 -0.73242,0.30274 -0.01,0.10742 -0.0147,0.20996 -0.005,0.0976 -0.005,0.24902 0,0.77148 0.15625,1.2207 0.16113,0.44434 0.43945,0.70313 0.22461,0.21484 0.4834,0.31738 0.26367,0.0977 0.57129,0.0977 0.70801,0 1.11328,-0.42969 0.40527,-0.43457 0.40527,-1.24512 z"
       style="font-style:normal;font-size:medium;text-anchor:middle;fill:none;fill-opacity:1;stroke:#000000;stroke-width:0.25;stroke-linecap:butt;stroke-linejoin:bevel;stroke-dasharray:none;stroke-opacity:1"
       id="path1112"
       inkscape:connector-curvature="0" />
    <path
       style="fill:#e5e5e5;fill-opacity:1;stroke:#000000;stroke-width:0.25;stroke-linecap:butt;stroke-linejoin:bevel;stroke-dasharray:none;stroke-opacity:1"
       id="path830"
       d="m 160.34104,547.89862 -9.64447,-2.64746 23.17065,-89.91858 9.72286,2.34321 z m 73.06839,-213.956 9.07612,-4.34887 20.43475,32.60278 -8.38977,5.44393 z m -49.81935,123.73317 -9.95261,0.98496 -7.75493,-67.52014 9.91676,-1.29706 z m 61.96282,88.54568 0.0397,10.00115 -84.89774,1.67096 -0.35384,-9.99496 z m 11.77016,-138.33899 9.9066,1.37258 -4.74221,38.68783 -9.94483,-1.06073 z m -2.79253,-40.24202 9.98688,-0.53555 2.77078,39.92862 -9.96513,0.84895 z m -1.98791,79.2417 9.96431,0.85861 -6.89278,97.9616 -10.06125,0.5191 z m -76.74332,-57.03861 -6.85106,-7.28613 57.38465,-55.68212 7.07654,7.06732 z"
       class="sticker"
       inkscape:connector-curvature="0" />
    <path
       d="m 168.75524,508.03193 -0.88385,3.42995 -0.64684,-0.16668 0.33995,-1.31921 -4.24701,-1.09439 -0.33994,1.31921 -0.57875,-0.14913 q 0.0691,-0.2681 0.10549,-0.58547 0.0321,-0.31845 -0.0124,-0.49784 -0.0559,-0.22317 -0.18914,-0.37549 -0.13636,-0.15766 -0.40858,-0.24596 l 0.16997,-0.6596 5.7109,1.47161 0.33336,-1.29368 z"
       style="font-style:normal;font-size:medium;text-anchor:middle;fill:none;fill-opacity:1;stroke:#000000;stroke-width:0.25;stroke-linecap:butt;stroke-linejoin:bevel;stroke-dasharray:none;stroke-opacity:1"
       id="path1115"
       inkscape:connector-curvature="0" />
    <path
       d="m 168.25237,501.6534 q 0.44258,0.11404 0.80518,0.37994 0.3626,0.26588 0.56684,0.61802 0.21893,0.38315 0.27098,0.85038 0.0489,0.46186 -0.0948,1.01934 -0.13378,0.51917 -0.36834,0.97153 -0.2303,0.45347 -0.46903,0.74592 l -0.89792,-0.23138 0.0154,-0.0596 q 0.31121,-0.29193 0.58929,-0.71946 0.27382,-0.42863 0.39006,-0.87971 0.0779,-0.30215 0.0651,-0.60494 -0.0116,-0.30706 -0.1674,-0.58317 -0.13473,-0.23439 -0.36594,-0.39381 -0.23011,-0.16368 -0.56629,-0.25031 -0.32768,-0.0844 -0.58283,-0.0276 -0.25405,0.0525 -0.44177,0.21744 -0.21873,0.17962 -0.36481,0.48233 -0.14923,0.29737 -0.25011,0.68887 -0.0965,0.37449 -0.13536,0.7366 -0.0378,0.35785 -0.0514,0.62209 l -3.26398,-0.84108 0.98253,-3.81294 0.74472,0.1919 -0.7709,2.99163 1.68519,0.43424 q 0.0301,-0.18737 0.071,-0.38106 0.0408,-0.1937 0.077,-0.33413 0.13269,-0.51492 0.32185,-0.87914 0.18489,-0.36532 0.48952,-0.63172 0.32178,-0.28012 0.74026,-0.37197 0.41848,-0.0918 0.97595,0.0518 z"
       style="font-style:normal;font-size:medium;text-anchor:middle;fill:none;fill-opacity:1;stroke:#000000;stroke-width:0.25;stroke-linecap:butt;stroke-linejoin:bevel;stroke-dasharray:none;stroke-opacity:1"
       id="path1117"
       inkscape:connector-curvature="0" />
    <path
       d="m 167.52734,498.1447 -0.26209,1.01706 -1.21282,-0.31252 0.26209,-1.01707 z m 3.54059,0.91235 -0.26208,1.01707 -1.21283,-0.31253 0.26209,-1.01707 z"
       style="font-style:normal;font-size:medium;text-anchor:middle;fill:none;fill-opacity:1;stroke:#000000;stroke-width:0.25;stroke-linecap:butt;stroke-linejoin:bevel;stroke-dasharray:none;stroke-opacity:1"
       id="path1119"
       inkscape:connector-curvature="0" />
    <path
       d="m 170.70433,492.13807 q 0.44257,0.11404 0.80517,0.37992 0.36261,0.2659 0.56684,0.61803 0.21893,0.38316 0.27099,0.85038 0.0489,0.46187 -0.0948,1.01935 -0.13378,0.51917 -0.36834,0.97153 -0.2303,0.45346 -0.46904,0.74592 l -0.89791,-0.23138 0.0153,-0.0596 q 0.31121,-0.29193 0.58928,-0.71946 0.27383,-0.42863 0.39006,-0.87972 0.0779,-0.30214 0.0651,-0.60493 -0.0116,-0.30705 -0.16739,-0.58317 -0.13474,-0.23439 -0.36594,-0.3938 -0.23011,-0.16368 -0.5663,-0.25031 -0.32767,-0.0844 -0.58282,-0.0277 -0.25406,0.0525 -0.44177,0.21744 -0.21873,0.17962 -0.36481,0.48234 -0.14923,0.29737 -0.25012,0.68887 -0.0965,0.37448 -0.13535,0.73659 -0.0378,0.35786 -0.0514,0.6221 l -3.26399,-0.84108 0.98254,-3.81294 0.74472,0.1919 -0.7709,2.99162 1.68519,0.43425 q 0.0301,-0.18737 0.071,-0.38107 0.0408,-0.19369 0.077,-0.33412 0.13268,-0.51492 0.32184,-0.87914 0.1849,-0.36532 0.48953,-0.63172 0.32178,-0.28013 0.74025,-0.37197 0.41849,-0.0918 0.97596,0.0518 z"
       style="font-style:normal;font-size:medium;text-anchor:middle;fill:none;fill-opacity:1;stroke:#000000;stroke-width:0.25;stroke-linecap:butt;stroke-linejoin:bevel;stroke-dasharray:none;stroke-opacity:1"
       id="path1121"
       inkscape:connector-curvature="0" />
    <path
       d="m 246.32508,344.25869 q -0.72609,0.4551 -1.42316,0.65863 -0.69474,0.20724 -1.32183,0.13351 -0.63687,-0.0728 -1.18747,-0.43821 -0.5506,-0.36543 -0.98236,-1.05429 -0.12136,-0.19363 -0.20637,-0.37892 -0.0887,-0.18295 -0.12808,-0.34501 l 0.7112,-0.44577 0.0233,0.0372 q 0.0118,0.143 0.0834,0.37302 0.0753,0.22769 0.22699,0.46972 0.51579,0.82291 1.29903,0.98029 0.7893,0.15876 1.70357,-0.31055 -0.42557,-0.2156 -0.70631,-0.46492 -0.28074,-0.24932 -0.50713,-0.61051 -0.21471,-0.34257 -0.32273,-0.66384 -0.10568,-0.31756 -0.0871,-0.71819 0.0217,-0.47004 0.26675,-0.85698 0.24733,-0.38322 0.73512,-0.68895 0.84897,-0.53212 1.73152,-0.30733 0.88255,0.22479 1.38667,1.02908 0.25205,0.40215 0.34017,0.82407 0.0918,0.41959 0.003,0.83288 -0.11068,0.51022 -0.49111,0.98724 -0.37671,0.47468 -1.14749,0.95779 z m -0.31132,-0.85252 q 0.57715,-0.36175 0.85248,-0.70028 0.27535,-0.33854 0.33827,-0.66842 0.0579,-0.28003 0.003,-0.52545 -0.0516,-0.24775 -0.19859,-0.48234 -0.33608,-0.53619 -0.86725,-0.63892 -0.52882,-0.099 -1.13577,0.28141 -0.35374,0.22171 -0.51414,0.46228 -0.1604,0.24057 -0.17859,0.5839 -0.0104,0.23991 0.0747,0.46666 0.0888,0.22441 0.24282,0.47017 0.18205,0.29044 0.44694,0.53931 0.26491,0.24888 0.57722,0.41617 0.0805,-0.0453 0.15734,-0.0882 0.0829,-0.0416 0.20202,-0.11623 z"
       style="font-style:normal;font-size:medium;text-anchor:middle;fill:none;fill-opacity:1;stroke:#000000;stroke-width:0.25;stroke-linecap:butt;stroke-linejoin:bevel;stroke-dasharray:none;stroke-opacity:1"
       id="path1124"
       inkscape:connector-curvature="0" />
    <path
       d="m 244.68763,348.54726 -0.5578,-0.88994 1.06122,-0.66515 0.55779,0.88994 z"
       style="font-style:normal;font-size:medium;text-anchor:middle;fill:none;fill-opacity:1;stroke:#000000;stroke-width:0.25;stroke-linecap:butt;stroke-linejoin:bevel;stroke-dasharray:none;stroke-opacity:1"
       id="path1126"
       inkscape:connector-curvature="0" />
    <path
       d="m 249.73908,349.72212 -0.5578,-0.88994 1.06122,-0.66515 0.5578,0.88994 z m -3.09802,1.94177 -0.55779,-0.88994 1.06122,-0.66515 0.55779,0.88994 z"
       style="font-style:normal;font-size:medium;text-anchor:middle;fill:none;fill-opacity:1;stroke:#000000;stroke-width:0.25;stroke-linecap:butt;stroke-linejoin:bevel;stroke-dasharray:none;stroke-opacity:1"
       id="path1128"
       inkscape:connector-curvature="0" />
    <path
       d="m 251.81872,356.45754 -0.51578,-0.82291 -1.56018,0.97789 -0.4481,-0.71493 1.56018,-0.97789 -1.66404,-2.6549 0.85642,-0.53679 4.81052,0.72425 0.42943,0.68514 -3.38846,2.12381 0.51579,0.82291 z m -0.36811,-1.91125 2.50224,-1.56836 -3.84888,-0.58015 z"
       style="font-style:normal;font-size:medium;text-anchor:middle;fill:none;fill-opacity:1;stroke:#000000;stroke-width:0.25;stroke-linecap:butt;stroke-linejoin:bevel;stroke-dasharray:none;stroke-opacity:1"
       id="path1130"
       inkscape:connector-curvature="0" />
    <path
       d="m 178.7639,431.43062 0.40416,3.51886 -0.66361,0.0762 -0.15544,-1.35341 -4.3571,0.50044 0.15545,1.3534 -0.59376,0.0682 q -0.0316,-0.27504 -0.11135,-0.58437 -0.0841,-0.30883 -0.19,-0.46032 -0.13221,-0.1883 -0.31115,-0.28276 -0.18381,-0.0983 -0.46959,-0.0832 l -0.0777,-0.6767 5.85894,-0.67292 -0.15244,-1.32722 z"
       style="font-style:normal;font-size:medium;text-anchor:middle;fill:none;fill-opacity:1;stroke:#000000;stroke-width:0.25;stroke-linecap:butt;stroke-linejoin:bevel;stroke-dasharray:none;stroke-opacity:1"
       id="path1133"
       inkscape:connector-curvature="0" />
    <path
       d="m 176.00839,425.65604 q 0.45405,-0.0521 0.88786,0.0661 0.43381,0.11827 0.75068,0.37381 0.34171,0.27926 0.55776,0.69678 0.21117,0.41367 0.27686,0.9856 0.0612,0.53262 0.004,1.039 -0.0525,0.50587 -0.17054,0.86446 l -0.92119,0.10581 -0.007,-0.0611 q 0.18591,-0.38407 0.29229,-0.88287 0.10201,-0.49829 0.0489,-0.96107 -0.0356,-0.30997 -0.15602,-0.58809 -0.12091,-0.28248 -0.36528,-0.48443 -0.20979,-0.17055 -0.48277,-0.2365 -0.27348,-0.0703 -0.61838,-0.0307 -0.33617,0.0386 -0.55402,0.18307 -0.21835,0.14009 -0.33449,0.36133 -0.13983,0.24608 -0.16771,0.58104 -0.0327,0.33109 0.0134,0.73274 0.0441,0.3842 0.13763,0.73618 0.093,0.34762 0.17498,0.59919 l -3.34859,0.3846 -0.44929,-3.9118 0.76402,-0.0877 0.35251,3.06918 1.72887,-0.19856 q -0.039,-0.18572 -0.0703,-0.38119 -0.0313,-0.19545 -0.0479,-0.33953 -0.0607,-0.52826 -0.0146,-0.93608 0.0417,-0.40732 0.2306,-0.7652 0.20001,-0.37684 0.55777,-0.61258 0.35776,-0.23571 0.92969,-0.30141 z"
       style="font-style:normal;font-size:medium;text-anchor:middle;fill:none;fill-opacity:1;stroke:#000000;stroke-width:0.25;stroke-linecap:butt;stroke-linejoin:bevel;stroke-dasharray:none;stroke-opacity:1"
       id="path1135"
       inkscape:connector-curvature="0" />
    <path
       d="m 174.07401,422.64028 0.11984,1.04344 -1.24426,0.14291 -0.11984,-1.04344 z m 3.63237,-0.4172 0.11984,1.04344 -1.24426,0.14291 -0.11984,-1.04344 z"
       style="font-style:normal;font-size:medium;text-anchor:middle;fill:none;fill-opacity:1;stroke:#000000;stroke-width:0.25;stroke-linecap:butt;stroke-linejoin:bevel;stroke-dasharray:none;stroke-opacity:1"
       id="path1137"
       inkscape:connector-curvature="0" />
    <path
       d="m 174.82648,415.75063 q 0.99104,-0.11382 1.69494,0.46884 0.69903,0.57881 0.80784,1.52618 0.0552,0.48025 -0.0481,0.89023 -0.10331,0.40998 -0.36122,0.74481 -0.31924,0.41708 -0.89379,0.69097 -0.57506,0.26952 -1.41766,0.3663 -0.86444,0.0993 -1.55347,-0.007 -0.68953,-0.111 -1.2557,-0.45736 -0.53746,-0.32753 -0.88221,-0.90279 -0.34911,-0.57476 -0.44188,-1.38244 -0.0296,-0.25758 -0.0278,-0.43472 0.002,-0.17714 0.038,-0.36266 l 0.83387,-0.0958 0.005,0.0437 q -0.0514,0.12975 -0.0796,0.38513 -0.033,0.25151 -0.004,0.50909 0.10781,0.93866 0.76138,1.42979 0.64921,0.49163 1.65951,0.46848 -0.26478,-0.34116 -0.4189,-0.68174 -0.159,-0.34447 -0.21265,-0.81161 -0.0476,-0.41475 -0.005,-0.73812 0.0376,-0.32723 0.23089,-0.68561 0.22219,-0.41478 0.60615,-0.65351 0.38346,-0.24309 0.96412,-0.30978 z m 0.13672,0.88226 q -0.40602,0.0466 -0.6583,0.19945 -0.25277,0.14846 -0.41764,0.44609 -0.11664,0.21686 -0.13222,0.46636 -0.0156,0.24951 0.015,0.51583 0.0426,0.37109 0.16654,0.67977 0.12392,0.30867 0.34589,0.62379 0.0971,-0.002 0.18924,-0.008 0.0878,-0.006 0.22312,-0.0216 0.6898,-0.0792 1.07541,-0.26507 0.38074,-0.18971 0.58355,-0.46513 0.16903,-0.22289 0.23413,-0.46482 0.0602,-0.24578 0.0286,-0.52083 -0.0727,-0.63304 -0.49852,-0.95128 -0.43017,-0.31773 -1.1549,-0.2345 z"
       style="font-style:normal;font-size:medium;text-anchor:middle;fill:none;fill-opacity:1;stroke:#000000;stroke-width:0.25;stroke-linecap:butt;stroke-linejoin:bevel;stroke-dasharray:none;stroke-opacity:1"
       id="path1139"
       inkscape:connector-curvature="0" />
    <path
       d="m 176.63181,412.86711 0.11984,1.04344 -1.24426,0.1429 -0.11984,-1.04344 z"
       style="font-style:normal;font-size:medium;text-anchor:middle;fill:none;fill-opacity:1;stroke:#000000;stroke-width:0.25;stroke-linecap:butt;stroke-linejoin:bevel;stroke-dasharray:none;stroke-opacity:1"
       id="path1141"
       inkscape:connector-curvature="0" />
    <path
       class="arrow"
       d="m 202.94697,547.06004 -10.19485,-9.80128 10.14565,7.30176 9.85048,-7.69533 z"
       id="path846-6"
       style="fill:#000000;stroke:#000000;stroke-width:0.24999999;stroke-linecap:butt;stroke-linejoin:bevel;stroke-dasharray:none;stroke-opacity:1"
       inkscape:connector-curvature="0" />
    <path
       inkscape:connector-curvature="0"
       id="path1144"
       style="font-style:normal;font-size:medium;text-anchor:middle;fill:none;fill-opacity:1;stroke:#000000;stroke-width:0.25;stroke-linecap:butt;stroke-linejoin:bevel;stroke-dasharray:none;stroke-opacity:1"
       d="m 204.87924,542.06178 h -3.93555 v -0.74219 h 1.51368 v -4.87304 h -1.51368 v -0.66407 q 0.30762,0 0.65918,-0.0488 0.35156,-0.0537 0.53223,-0.15137 0.22461,-0.12207 0.35156,-0.30762 0.13184,-0.19043 0.15137,-0.50781 h 0.75684 v 6.55273 h 1.48437 z" />
    <path
       d="m 208.86114,548.74403 3.54131,-0.0697 0.0131,0.66784 -1.36204,0.0268 0.0863,4.38489 1.36204,-0.0268 0.0118,0.59753 q -0.2768,0.005 -0.59228,0.0556 -0.31539,0.0545 -0.47623,0.14563 -0.19995,0.11381 -0.3109,0.28303 -0.11525,0.17368 -0.12721,0.45962 l -0.68102,0.0134 -0.11605,-5.89631 -1.33568,0.0263 z"
       style="font-style:normal;font-size:medium;text-anchor:middle;fill:none;fill-opacity:1;stroke:#000000;stroke-width:0.25;stroke-linecap:butt;stroke-linejoin:bevel;stroke-dasharray:none;stroke-opacity:1"
       id="path1147"
       inkscape:connector-curvature="0" />
    <path
       d="m 203.3959,552.00309 q -0.21462,-0.18478 -0.35644,-0.46769 -0.14183,-0.28291 -0.15073,-0.73546 -0.009,-0.44816 0.14639,-0.82481 0.15522,-0.37667 0.44415,-0.65926 0.32347,-0.31405 0.76868,-0.47225 0.44091,-0.15372 0.97255,-0.16419 0.54481,-0.0107 1.07465,0.11071 0.52975,0.11704 0.87109,0.26416 l 0.0181,0.91828 -0.0659,10e-4 q -0.37831,-0.2387 -0.88678,-0.39132 -0.50847,-0.15262 -0.9786,-0.14337 -0.2768,0.005 -0.58694,0.10387 -0.31013,0.0984 -0.49991,0.28235 -0.1983,0.1973 -0.29038,0.43207 -0.0965,0.23485 -0.0895,0.59073 0.007,0.35151 0.12565,0.57772 0.11443,0.23071 0.31474,0.35863 0.2004,0.13231 0.48254,0.17511 0.28223,0.0471 0.60737,0.0407 l 0.39543,-0.008 0.0144,0.72935 -0.30756,0.006 q -0.66784,0.0132 -1.05783,0.29774 -0.39429,0.28906 -0.38373,0.82509 0.005,0.23726 0.10918,0.41102 0.1046,0.17815 0.28699,0.28884 0.19117,0.11052 0.40733,0.15021 0.21616,0.0397 0.48856,0.0343 0.4174,-0.008 0.88459,-0.16684 0.46718,-0.15865 0.87922,-0.43927 l 0.0439,-7.9e-4 0.0181,0.91829 q -0.30893,0.15992 -0.82487,0.29754 -0.52026,0.14209 -1.00795,0.15169 -0.47892,0.009 -0.84532,-0.0713 -0.36641,-0.0807 -0.66459,-0.26822 -0.32049,-0.20467 -0.48894,-0.50024 -0.16845,-0.29557 -0.17632,-0.6954 -0.0107,-0.54481 0.36788,-0.96104 0.3743,-0.41174 0.89507,-0.52748 l -0.001,-0.0615 q -0.21159,-0.031 -0.48625,-0.13988 -0.27457,-0.10448 -0.46678,-0.26772 z"
       style="font-style:normal;font-size:medium;text-anchor:middle;fill:none;fill-opacity:1;stroke:#000000;stroke-width:0.25;stroke-linecap:butt;stroke-linejoin:bevel;stroke-dasharray:none;stroke-opacity:1"
       id="path1149"
       inkscape:connector-curvature="0" />
    <path
       d="m 199.66682,552.58195 1.05009,-0.0207 0.0247,1.25219 -1.05009,0.0207 z m -0.072,-3.65554 1.05009,-0.0207 0.0246,1.2522 -1.05009,0.0207 z"
       style="font-style:normal;font-size:medium;text-anchor:middle;fill:none;fill-opacity:1;stroke:#000000;stroke-width:0.25;stroke-linecap:butt;stroke-linejoin:bevel;stroke-dasharray:none;stroke-opacity:1"
       id="path1151"
       inkscape:connector-curvature="0" />
    <path
       d="m 193.30752,549.05016 3.5413,-0.0697 0.0131,0.66784 -1.36204,0.0268 0.0863,4.38489 1.36204,-0.0268 0.0118,0.59753 q -0.2768,0.005 -0.59228,0.0556 -0.31539,0.0545 -0.47623,0.14563 -0.19995,0.11382 -0.31089,0.28303 -0.11526,0.17368 -0.12722,0.45962 l -0.68102,0.0134 -0.11605,-5.89632 -1.33568,0.0263 z"
       style="font-style:normal;font-size:medium;text-anchor:middle;fill:none;fill-opacity:1;stroke:#000000;stroke-width:0.25;stroke-linecap:butt;stroke-linejoin:bevel;stroke-dasharray:none;stroke-opacity:1"
       id="path1153"
       inkscape:connector-curvature="0" />
    <path
       d="m 254.80001,492.66127 q -0.85481,-0.0601 -1.53794,-0.30646 -0.68343,-0.24193 -1.14665,-0.67101 -0.47167,-0.43407 -0.70121,-1.05376 -0.22953,-0.61969 -0.17246,-1.43068 0.016,-0.22794 0.0566,-0.42774 0.0361,-0.20011 0.0998,-0.35422 l 0.83728,0.0589 -0.003,0.0438 q -0.0747,0.1225 -0.15242,0.35051 -0.0733,0.22833 -0.0934,0.51328 -0.0682,0.96879 0.47193,1.55747 0.54416,0.59337 1.5594,0.75291 -0.21681,-0.42496 -0.29673,-0.79183 -0.0799,-0.36686 -0.05,-0.79208 0.0284,-0.40329 0.13041,-0.72652 0.10173,-0.31885 0.35281,-0.63158 0.29455,-0.36695 0.72051,-0.53522 0.42563,-0.16389 0.9999,-0.12348 0.99948,0.0703 1.58008,0.77198 0.5806,0.70167 0.51398,1.64854 -0.0333,0.47344 -0.21074,0.86625 -0.17304,0.39312 -0.48803,0.67493 -0.39007,0.34702 -0.97852,0.50826 -0.58407,0.16156 -1.49149,0.0977 z m 0.25082,-0.87224 q 0.67947,0.0478 1.1014,-0.0635 0.42194,-0.11129 0.66717,-0.34074 0.21176,-0.19216 0.31171,-0.42301 0.10434,-0.23056 0.12377,-0.50672 0.0444,-0.63125 -0.32421,-1.02724 -0.36893,-0.39161 -1.08348,-0.44189 -0.41645,-0.0293 -0.68779,0.0705 -0.27135,0.0999 -0.48836,0.36652 -0.14978,0.18771 -0.21466,0.42104 -0.0604,0.23364 -0.0808,0.52296 -0.0241,0.34193 0.0433,0.6991 0.0674,0.35718 0.22114,0.67637 0.0918,0.0105 0.1791,0.0216 0.0914,0.0155 0.23171,0.0253 z"
       style="font-style:normal;font-size:medium;text-anchor:middle;fill:none;fill-opacity:1;stroke:#000000;stroke-width:0.25;stroke-linecap:butt;stroke-linejoin:bevel;stroke-dasharray:none;stroke-opacity:1"
       id="path1156"
       inkscape:connector-curvature="0" />
    <path
       d="m 250.95,495.16137 0.0737,-1.04771 1.24935,0.0879 -0.0737,1.04771 z"
       style="font-style:normal;font-size:medium;text-anchor:middle;fill:none;fill-opacity:1;stroke:#000000;stroke-width:0.25;stroke-linecap:butt;stroke-linejoin:bevel;stroke-dasharray:none;stroke-opacity:1"
       id="path1158"
       inkscape:connector-curvature="0" />
    <path
       d="m 254.33906,499.08715 0.0737,-1.0477 1.24935,0.0879 -0.0737,1.0477 z m -3.64723,-0.25663 0.0737,-1.0477 1.24935,0.0879 -0.0737,1.0477 z"
       style="font-style:normal;font-size:medium;text-anchor:middle;fill:none;fill-opacity:1;stroke:#000000;stroke-width:0.25;stroke-linecap:butt;stroke-linejoin:bevel;stroke-dasharray:none;stroke-opacity:1"
       id="path1160"
       inkscape:connector-curvature="0" />
    <path
       d="m 252.30142,505.56948 q -0.45591,-0.0321 -0.86064,-0.22796 -0.40473,-0.19588 -0.66931,-0.50525 -0.28465,-0.33722 -0.42039,-0.78731 -0.13166,-0.4454 -0.0913,-1.01966 0.0376,-0.53481 0.18646,-1.02215 0.14444,-0.48764 0.32632,-0.81846 l 0.92495,0.0651 -0.004,0.0614 q -0.25324,0.34342 -0.44937,0.81421 -0.19174,0.47111 -0.22443,0.93578 -0.0219,0.31124 0.0454,0.60673 0.067,0.29988 0.27015,0.54325 0.17493,0.20615 0.43116,0.3211 0.25593,0.11933 0.60224,0.14369 0.33755,0.0238 0.57821,-0.0783 0.24036,-0.0976 0.39513,-0.29379 0.18263,-0.21622 0.27151,-0.54037 0.0929,-0.31947 0.12133,-0.72277 0.0271,-0.38577 -1.4e-4,-0.74893 -0.0276,-0.35877 -0.062,-0.62111 l 3.3623,0.23658 -0.27637,3.92779 -0.76714,-0.054 0.21684,-3.08174 -1.73595,-0.12215 q 0.004,0.18974 -8e-4,0.38762 -0.005,0.19791 -0.0151,0.34257 -0.0373,0.53042 -0.15746,0.92286 -0.11576,0.39275 -0.36713,0.70986 -0.26578,0.33373 -0.66074,0.49978 -0.39495,0.16605 -0.96921,0.12564 z"
       style="font-style:normal;font-size:medium;text-anchor:middle;fill:none;fill-opacity:1;stroke:#000000;stroke-width:0.25;stroke-linecap:butt;stroke-linejoin:bevel;stroke-dasharray:none;stroke-opacity:1"
       id="path1162"
       inkscape:connector-curvature="0" />
    <path
       d="m 196.42051,359.57393 1.74861,6.05537 -0.67492,0.6549 -1.75989,-6.33835 -2.67445,2.5951 -0.53555,-0.55192 3.21376,-3.11841 z"
       style="font-style:normal;font-size:medium;text-anchor:middle;fill:none;fill-opacity:1;stroke:#000000;stroke-width:0.25;stroke-linecap:butt;stroke-linejoin:bevel;stroke-dasharray:none;stroke-opacity:1"
       id="path1165"
       inkscape:connector-curvature="0" />
    <path
       d="m 200.00681,358.75155 -0.75376,0.7314 -0.87218,-0.89885 0.75377,-0.7314 z m 2.54614,2.62399 -0.75376,0.7314 -0.87218,-0.89884 0.75377,-0.73141 z"
       style="font-style:normal;font-size:medium;text-anchor:middle;fill:none;fill-opacity:1;stroke:#000000;stroke-width:0.25;stroke-linecap:butt;stroke-linejoin:bevel;stroke-dasharray:none;stroke-opacity:1"
       id="path1167"
       inkscape:connector-curvature="0" />
    <path
       d="m 205.92545,355.14555 q 0.69468,0.71592 0.66228,1.62911 -0.0323,0.90698 -0.71669,1.57106 -0.34692,0.33662 -0.73481,0.50482 -0.3879,0.16819 -0.81055,0.16804 -0.52523,0.001 -1.09272,-0.28683 -0.56433,-0.2913 -1.15496,-0.89999 -0.60593,-0.62446 -0.94169,-1.23553 -0.33261,-0.61413 -0.40347,-1.27404 -0.0683,-0.62569 0.17731,-1.24975 0.24253,-0.62722 0.82599,-1.19337 0.18607,-0.18056 0.32753,-0.2872 0.14145,-0.10665 0.31054,-0.19112 l 0.58451,0.60239 -0.0315,0.0306 q -0.13421,0.0384 -0.35376,0.17181 -0.21946,0.12722 -0.40553,0.30778 -0.67808,0.65796 -0.66864,1.47544 0.006,0.81433 0.64096,1.60082 0.10885,-0.41791 0.28474,-0.74779 0.17599,-0.33609 0.51345,-0.66354 0.29961,-0.29073 0.58177,-0.4543 0.28226,-0.16978 0.68414,-0.23521 0.46422,-0.0769 0.88759,0.0817 0.42653,0.1556 0.83354,0.57506 z m -0.61575,0.64646 q -0.2846,-0.2933 -0.55959,-0.4 -0.27183,-0.10976 -0.60823,-0.0589 -0.243,0.0399 -0.45022,0.17969 -0.20721,0.13984 -0.3996,0.32651 -0.26807,0.26012 -0.4371,0.5466 -0.16902,0.28648 -0.28334,0.65458 0.061,0.0755 0.12213,0.14479 0.0581,0.0661 0.15292,0.16391 0.48352,0.49831 0.86599,0.69053 0.38256,0.18601 0.72452,0.17873 0.27973,-0.002 0.51115,-0.098 0.23151,-0.10218 0.4302,-0.29497 0.45731,-0.44374 0.44978,-0.97528 -0.0106,-0.53469 -0.5186,-1.05823 z"
       style="font-style:normal;font-size:medium;text-anchor:middle;fill:none;fill-opacity:1;stroke:#000000;stroke-width:0.25;stroke-linecap:butt;stroke-linejoin:bevel;stroke-dasharray:none;stroke-opacity:1"
       id="path1169"
       inkscape:connector-curvature="0" />
    <path
       d="m 209.31163,354.81739 -0.75377,0.7314 -0.87217,-0.89884 0.75376,-0.7314 z"
       style="font-style:normal;font-size:medium;text-anchor:middle;fill:none;fill-opacity:1;stroke:#000000;stroke-width:0.25;stroke-linecap:butt;stroke-linejoin:bevel;stroke-dasharray:none;stroke-opacity:1"
       id="path1171"
       inkscape:connector-curvature="0" />
    <path
       d="m 244.05171,577.99906 -1.94536,2.61914 -0.49393,-0.36686 0.74821,-1.00736 -3.24306,-2.40878 -0.74821,1.00736 -0.44194,-0.32825 q 0.15206,-0.20472 0.29333,-0.46283 0.13805,-0.26051 0.16235,-0.42903 0.0298,-0.20982 -0.0309,-0.38602 -0.0616,-0.18187 -0.26313,-0.35176 l 0.3741,-0.50368 4.36091,3.23906 0.73374,-0.98787 z"
       style="font-style:normal;font-size:medium;text-anchor:middle;fill:none;fill-opacity:1;stroke:#000000;stroke-width:0.25;stroke-linecap:butt;stroke-linejoin:bevel;stroke-dasharray:none;stroke-opacity:1"
       id="path1191"
       inkscape:connector-curvature="0" />
  </g>
</svg>
