<?xml version="1.0" encoding="UTF-8" standalone="no"?>
<svg
   xmlns:dc="http://purl.org/dc/elements/1.1/"
   xmlns:cc="http://creativecommons.org/ns#"
   xmlns:rdf="http://www.w3.org/1999/02/22-rdf-syntax-ns#"
   xmlns:svg="http://www.w3.org/2000/svg"
   xmlns="http://www.w3.org/2000/svg"
   xmlns:sodipodi="http://sodipodi.sourceforge.net/DTD/sodipodi-0.dtd"
   xmlns:inkscape="http://www.inkscape.org/namespaces/inkscape"
   version="1.1"
   width="320.00mm"
   height="620.00mm"
   viewBox="0 0 320.00 620.00"
   id="svg62"
   sodipodi:docname="backrest_page4_fabric.svg"
   inkscape:version="0.92.2 (5c3e80d, 2017-08-06)">
  <metadata
     id="metadata68">
    <rdf:RDF>
      <cc:Work
         rdf:about="">
        <dc:format>image/svg+xml</dc:format>
        <dc:type
           rdf:resource="http://purl.org/dc/dcmitype/StillImage" />
      </cc:Work>
    </rdf:RDF>
  </metadata>
  <defs
     id="defs66" />
  <sodipodi:namedview
     pagecolor="#ffffff"
     bordercolor="#666666"
     borderopacity="1"
     objecttolerance="10"
     gridtolerance="10"
     guidetolerance="10"
     inkscape:pageopacity="0"
     inkscape:pageshadow="2"
     inkscape:window-width="1920"
     inkscape:window-height="1017"
     id="namedview64"
     showgrid="false"
     inkscape:zoom="0.40284946"
     inkscape:cx="433.93866"
     inkscape:cy="1074.3525"
     inkscape:window-x="-8"
     inkscape:window-y="-8"
     inkscape:window-maximized="1"
     inkscape:current-layer="g60" />
  <style
     type="text/css"
     id="style2">
    path {
        fill: none;
        stroke-linecap: butt;
        stroke-linejoin: bevel;
        stroke-dasharray: none;
    }
    path.outer {
        stroke: #000000;
        stroke-dasharray: none;
        stroke-dashoffset: 0;
        stroke-width: 0.3;
        stroke-opacity: 1.0;
    }
    path.convex {
        stroke: #000000;
        stroke-dasharray: 0.50,1.00;
        stroke-dashoffset:0;
        stroke-width:0.2;
        stroke-opacity: 1.0
    }
    path.concave {
        stroke: #000000;
        stroke-dasharray: 1.00,0.50,0.20,0.50;
        stroke-dashoffset: 0;
        stroke-width: 0.2;
        stroke-opacity: 1.0
    }
    path.freestyle {
        stroke: #000000;
        stroke-dasharray: none;
        stroke-dashoffset: 0;
        stroke-width: 0.2;
        stroke-opacity: 1.0
    }
    path.outer_background {
        stroke: #ffffff;
        stroke-opacity: 1.0;
        stroke-width: 0.5
    }
    path.inner_background {
        stroke: #ffffff;
        stroke-opacity: 1.0;
        stroke-width: 0.2
    }
    path.sticker {
        fill: #e5e5e5;
        stroke: none;
        fill-opacity: 1.0;
    }
    path.arrow {
        fill: #000000;
    }
    text {
        font-style: normal;
        fill: #000000;
        fill-opacity: 1.0;
        stroke: none;
    }
    text, tspan {
        text-anchor:middle;
    }
    </style>
  <g
     id="g60">
    <g
       id="g1096">
      <path
         d="m 95.663096,274.28058 h -2.539063 v -9.51172 h 2.539063 v 0.69825 h -1.689453 v 8.11523 h 1.689453 z"
         style="font-style:normal;font-size:medium;text-anchor:middle;fill:none;fill-opacity:1;stroke:#000000;stroke-width:0.06614583;stroke-linecap:butt;stroke-linejoin:bevel;stroke-dasharray:none;stroke-opacity:1"
         id="path893"
         inkscape:connector-curvature="0" />
      <path
         d="m 102.21583,272.36652 h -4.921875 v -1.02051 q 0.512696,-0.43945 1.025391,-0.8789 0.517578,-0.43946 0.961914,-0.87403 0.9375,-0.9082 1.28418,-1.44043 0.34668,-0.53711 0.34668,-1.15722 0,-0.56641 -0.37598,-0.88379 -0.37109,-0.32227 -1.040036,-0.32227 -0.444336,0 -0.961914,0.15625 -0.517578,0.15625 -1.010743,0.47852 h -0.04883 v -1.02539 q 0.34668,-0.1709 0.922852,-0.3125 0.581055,-0.14161 1.123047,-0.14161 1.118164,0 1.752934,0.542 0.63476,0.53711 0.63476,1.45996 0,0.41504 -0.10742,0.77637 -0.10254,0.35644 -0.30762,0.67871 -0.19043,0.30273 -0.44922,0.5957 -0.2539,0.29297 -0.62011,0.64941 -0.522465,0.5127 -1.079105,0.9961 -0.556641,0.47851 -1.04004,0.88867 h 3.911135 z"
         style="font-style:normal;font-size:medium;text-anchor:middle;fill:none;fill-opacity:1;stroke:#000000;stroke-width:0.06614583;stroke-linecap:butt;stroke-linejoin:bevel;stroke-dasharray:none;stroke-opacity:1"
         id="path895"
         inkscape:connector-curvature="0" />
      <path
         d="m 106.24903,274.28058 h -2.53906 v -0.69824 h 1.68945 v -8.11523 h -1.68945 v -0.69825 h 2.53906 z"
         style="font-style:normal;font-size:medium;text-anchor:middle;fill:none;fill-opacity:1;stroke:#000000;stroke-width:0.06614583;stroke-linecap:butt;stroke-linejoin:bevel;stroke-dasharray:none;stroke-opacity:1"
         id="path897"
         inkscape:connector-curvature="0" />
      <path
         d="m 114.48146,272.36652 h -2.8711 v -0.74219 h 0.95215 v -5.78613 h -0.95215 v -0.74219 h 2.8711 v 0.74219 h -0.95215 v 5.78613 h 0.95215 z"
         style="font-style:normal;font-size:medium;text-anchor:middle;fill:none;fill-opacity:1;stroke:#000000;stroke-width:0.06614583;stroke-linecap:butt;stroke-linejoin:bevel;stroke-dasharray:none;stroke-opacity:1"
         id="path899"
         inkscape:connector-curvature="0" />
      <path
         d="m 124.3838,272.36652 h -4.92188 v -1.02051 q 0.5127,-0.43945 1.02539,-0.8789 0.51758,-0.43946 0.96192,-0.87403 0.9375,-0.9082 1.28418,-1.44043 0.34668,-0.53711 0.34668,-1.15722 0,-0.56641 -0.37598,-0.88379 -0.37109,-0.32227 -1.04004,-0.32227 -0.44433,0 -0.96191,0.15625 -0.51758,0.15625 -1.01074,0.47852 h -0.0488 v -1.02539 q 0.34668,-0.1709 0.92285,-0.3125 0.58105,-0.14161 1.12305,-0.14161 1.11816,0 1.75292,0.542 0.63477,0.53711 0.63477,1.45996 0,0.41504 -0.10742,0.77637 -0.10254,0.35644 -0.30762,0.67871 -0.19043,0.30273 -0.44922,0.5957 -0.2539,0.29297 -0.62011,0.64941 -0.52247,0.5127 -1.07911,0.9961 -0.55664,0.47851 -1.04004,0.88867 h 3.91114 z"
         style="font-style:normal;font-size:medium;text-anchor:middle;fill:none;fill-opacity:1;stroke:#000000;stroke-width:0.06614583;stroke-linecap:butt;stroke-linejoin:bevel;stroke-dasharray:none;stroke-opacity:1"
         id="path901"
         inkscape:connector-curvature="0" />
      <path
         style="stroke:#000000;stroke-opacity:1;stroke-width:0.06614583"
         id="path8"
         d=" M 207.000017 397.294447 L 217.000008 397.451535 L 217.000008 503.888756 L 207.000017 504.045844 Z M 207.000017 552.112550 L 217.000023 552.269667 L 217.000008 597.842902 L 207.000017 597.999990 Z M 11.999995 504.045844 L 2.000004 503.888726 L 2.000004 397.451520 L 11.999995 397.294447 Z M 11.999995 597.999990 L 2.000004 597.842902 L 2.000004 552.269638 L 11.999995 552.112550 Z M 180.113196 597.999990 L 179.956093 608.000010 L 158.407122 607.999980 L 158.250034 597.999990 Z M 87.871939 597.999990 L 87.714851 607.999980 L 12.157112 608.000010 L 11.999995 597.999990 Z M 158.250004 178.202689 L 164.961070 171.892464 L 177.587673 184.905410 L 171.078116 191.423327 Z M 11.999995 191.426933 L 5.419999 191.323578 L 5.420029 178.370327 L 11.999995 178.266943 Z M 207.000017 298.447192 L 217.000008 298.604310 L 217.000008 397.137344 L 207.000017 397.294447 Z M 109.926522 160.051733 L 113.589868 150.745571 L 161.619216 168.786049 L 158.250004 178.202689 Z M 11.999995 178.266943 L 2.892405 178.123891 L 2.892405 160.194814 L 11.999965 160.051763 Z M 11.999995 85.266948 L 12.157083 75.266957 L 57.942867 75.266957 L 58.099985 85.266948 Z M 109.926507 122.938722 L 119.926497 123.095810 L 119.926542 159.894645 L 109.926522 160.051733 Z M 11.999995 122.938752 L 1.999974 122.781664 L 2.000004 85.424066 L 11.999995 85.266948 Z M 171.078116 191.423327 L 178.338468 184.544921 L 205.743358 212.576330 L 198.702648 219.679356 Z M 11.999995 298.447192 L 2.000004 298.290133 L 1.999974 259.312749 L 11.999965 259.155631 Z M 198.702648 219.679356 L 208.521128 217.776179 L 216.753870 256.944954 L 207.000017 259.155631 Z M 158.250034 597.999990 L 158.092916 607.999980 L 88.029027 608.000010 L 87.871939 597.999990 Z M 58.099985 85.266948 L 61.425388 75.834751 L 89.307189 85.175037 L 86.279690 94.707012 Z M 86.279690 94.707012 L 94.046652 88.406324 L 117.491752 116.397202 L 109.926507 122.938722 Z M 11.999965 160.051763 L 1.999974 159.894645 L 1.999974 123.095840 L 11.999995 122.938752 Z M 207.000017 597.999990 L 206.842929 607.999980 L 180.270284 607.999980 L 180.113196 597.999990 Z M 11.999965 259.155631 L 1.999974 258.998543 L 1.999974 214.290321 L 11.999995 214.133233 Z M 207.000017 259.155631 L 217.000008 259.312719 L 217.000008 298.290133 L 207.000017 298.447192 Z M 11.999995 397.294447 L 2.000004 397.137329 L 1.999974 298.604310 L 11.999995 298.447192 Z M 207.000017 504.045844 L 217.000008 504.202932 L 217.000023 551.955462 L 207.000017 552.112550 Z M 11.999995 552.112550 L 2.000004 551.955462 L 2.000004 504.202902 L 11.999995 504.045844 Z M 11.999995 214.133233 L 1.999944 213.976145 L 2.000004 191.584021 L 11.999995 191.426933 Z "
         class="sticker" />
      <path
         style="stroke:#000000;stroke-opacity:1;stroke-width:0.06614583"
         id="path10"
         d=" M 217.000008 397.451535 L 217.000008 503.888756 L 207.000017 504.045844 L 217.000008 504.202932 L 217.000023 551.955462 L 207.000017 552.112550 L 217.000023 552.269667 L 217.000008 597.842902 L 207.000017 597.999990 L 206.842929 607.999980 L 180.270284 607.999980 L 180.113196 597.999990 L 179.956093 608.000010 L 158.407122 607.999980 L 158.250034 597.999990 L 158.092916 607.999980 L 88.029027 608.000010 L 87.871939 597.999990 L 87.714851 607.999980 L 12.157112 608.000010 L 11.999995 597.999990 L 2.000004 597.842902 L 2.000004 552.269638 L 11.999995 552.112550 L 2.000004 551.955462 L 2.000004 504.202902 L 11.999995 504.045844 L 2.000004 503.888726 L 2.000004 397.451520 L 11.999995 397.294447 L 2.000004 397.137329 L 1.999974 298.604310 L 11.999995 298.447192 L 2.000004 298.290133 L 1.999974 259.312749 L 11.999965 259.155631 L 1.999974 258.998543 L 1.999974 214.290321 L 11.999995 214.133233 L 1.999944 213.976145 L 2.000004 191.584021 L 11.999995 191.426933 L 5.419999 191.323578 L 5.420029 178.370327 L 11.999995 178.266943 L 2.892405 178.123891 L 2.892405 160.194814 L 11.999965 160.051763 L 1.999974 159.894645 L 1.999974 123.095840 L 11.999995 122.938752 L 1.999974 122.781664 L 2.000004 85.424066 L 11.999995 85.266948 L 12.157083 75.266957 L 57.942867 75.266957 L 58.099985 85.266948 L 61.425388 75.834751 L 89.307189 85.175037 L 86.279690 94.707012 L 94.046652 88.406324 L 117.491752 116.397202 L 109.926507 122.938722 L 119.926497 123.095810 L 119.926542 159.894645 L 109.926522 160.051733 L 113.589868 150.745571 L 161.619216 168.786049 L 158.250004 178.202689 L 164.961070 171.892464 L 177.587673 184.905410 L 171.078116 191.423327 L 178.338468 184.544921 L 205.743358 212.576330 L 198.702648 219.679356 L 208.521128 217.776179 L 216.753870 256.944954 L 207.000017 259.155631 L 217.000008 259.312719 L 217.000008 298.290133 L 207.000017 298.447192 L 217.000008 298.604310 L 217.000008 397.137344 L 207.000017 397.294447 Z "
         class="outer" />
      <path
         d="m 208.8,444.79028 v -3.542 h 0.66797 v 1.36231 h 4.38574 v -1.36231 h 0.59766 q 0,0.27686 0.0439,0.59327 0.0483,0.3164 0.13623,0.479 0.10987,0.20215 0.27686,0.31641 0.17138,0.11865 0.45703,0.13623 v 0.68115 h -5.89746 v 1.33594 z"
         style="font-style:normal;font-size:medium;text-anchor:middle;fill:none;fill-opacity:1;stroke:#000000;stroke-width:0.06614583;stroke-linecap:butt;stroke-linejoin:bevel;stroke-dasharray:none;stroke-opacity:1"
         id="path904"
         inkscape:connector-curvature="0" />
      <path
         d="m 210.64131,451.0437 v -0.9712 H 208.8 v -0.84375 h 1.84131 v -3.1333 h 1.01074 l 3.69141,3.16846 v 0.80859 h -3.99903 v 0.9712 z m 0.70312,-1.81495 h 2.95313 l -2.95313,-2.53564 z"
         style="font-style:normal;font-size:medium;text-anchor:middle;fill:none;fill-opacity:1;stroke:#000000;stroke-width:0.06614583;stroke-linecap:butt;stroke-linejoin:bevel;stroke-dasharray:none;stroke-opacity:1"
         id="path906"
         inkscape:connector-curvature="0" />
      <path
         d="m 212.45625,454.05834 v -1.05029 h 1.25244 v 1.05029 z m -3.65625,0 v -1.05029 h 1.25244 v 1.05029 z"
         style="font-style:normal;font-size:medium;text-anchor:middle;fill:none;fill-opacity:1;stroke:#000000;stroke-width:0.06614583;stroke-linecap:butt;stroke-linejoin:bevel;stroke-dasharray:none;stroke-opacity:1"
         id="path908"
         inkscape:connector-curvature="0" />
      <path
         d="m 211.95088,460.14477 q -0.18897,0.21094 -0.47461,0.34717 -0.28565,0.13623 -0.73828,0.13623 -0.44824,0 -0.82178,-0.1626 -0.37353,-0.1626 -0.65039,-0.45703 -0.30762,-0.32959 -0.45703,-0.77783 -0.14502,-0.44385 -0.14502,-0.97559 0,-0.54492 0.13184,-1.07226 0.12744,-0.52735 0.28125,-0.86573 h 0.91845 v 0.0659 q -0.24609,0.37354 -0.40869,0.87891 -0.1626,0.50537 -0.1626,0.97558 0,0.27686 0.0923,0.58887 0.0923,0.31201 0.27246,0.50537 0.19336,0.20215 0.42627,0.29883 0.23291,0.10107 0.58887,0.10107 0.35156,0 0.58007,-0.11425 0.23291,-0.10987 0.36475,-0.30762 0.13623,-0.19776 0.18457,-0.47901 0.0527,-0.28125 0.0527,-0.60644 v -0.39551 h 0.7295 v 0.30762 q 0,0.66797 0.27685,1.06348 0.28125,0.3999 0.81739,0.3999 0.2373,0 0.41308,-0.10108 0.18018,-0.10107 0.29443,-0.28125 0.11426,-0.18896 0.15821,-0.40429 0.0439,-0.21534 0.0439,-0.4878 0,-0.41748 -0.14941,-0.88769 -0.14942,-0.47022 -0.42188,-0.8877 v -0.0439 h 0.91846 q 0.15381,0.31201 0.28125,0.83056 0.13184,0.52295 0.13184,1.01075 0,0.479 -0.0879,0.84375 -0.0879,0.36474 -0.28125,0.65918 -0.21094,0.3164 -0.50977,0.479 -0.29883,0.1626 -0.69873,0.1626 -0.54492,0 -0.95361,-0.38672 -0.4043,-0.38233 -0.50977,-0.90527 h -0.0615 q -0.0352,0.21093 -0.14942,0.48339 -0.10986,0.27246 -0.27685,0.46143 z"
         style="font-style:normal;font-size:medium;text-anchor:middle;fill:none;fill-opacity:1;stroke:#000000;stroke-width:0.06614583;stroke-linecap:butt;stroke-linejoin:bevel;stroke-dasharray:none;stroke-opacity:1"
         id="path910"
         inkscape:connector-curvature="0" />
      <path
         d="m 208.80002,569.17638 v -3.542 h 0.66797 v 1.36231 h 4.38574 v -1.36231 h 0.59766 q 0,0.27686 0.0439,0.59327 0.0483,0.3164 0.13623,0.479 0.10987,0.20215 0.27686,0.31641 0.17138,0.11865 0.45703,0.13623 v 0.68115 h -5.89746 v 1.33594 z"
         style="font-style:normal;font-size:medium;text-anchor:middle;fill:none;fill-opacity:1;stroke:#000000;stroke-width:0.06614583;stroke-linecap:butt;stroke-linejoin:bevel;stroke-dasharray:none;stroke-opacity:1"
         id="path913"
         inkscape:connector-curvature="0" />
      <path
         d="m 210.64133,575.4298 v -0.9712 h -1.84131 v -0.84375 h 1.84131 v -3.1333 h 1.01074 l 3.69141,3.16846 v 0.80859 h -3.99903 v 0.9712 z m 0.70312,-1.81495 h 2.95313 l -2.95313,-2.53564 z"
         style="font-style:normal;font-size:medium;text-anchor:middle;fill:none;fill-opacity:1;stroke:#000000;stroke-width:0.06614583;stroke-linecap:butt;stroke-linejoin:bevel;stroke-dasharray:none;stroke-opacity:1"
         id="path915"
         inkscape:connector-curvature="0" />
      <path
         d="m 212.45627,578.44444 v -1.05029 h 1.25244 v 1.05029 z m -3.65625,0 v -1.05029 h 1.25244 v 1.05029 z"
         style="font-style:normal;font-size:medium;text-anchor:middle;fill:none;fill-opacity:1;stroke:#000000;stroke-width:0.06614583;stroke-linecap:butt;stroke-linejoin:bevel;stroke-dasharray:none;stroke-opacity:1"
         id="path917"
         inkscape:connector-curvature="0" />
      <path
         d="m 210.64133,585.25597 v -0.97119 h -1.84131 v -0.84375 h 1.84131 v -3.13331 h 1.01074 l 3.69141,3.16846 v 0.8086 h -3.99903 v 0.97119 z m 0.70312,-1.81494 h 2.95313 l -2.95313,-2.53565 z"
         style="font-style:normal;font-size:medium;text-anchor:middle;fill:none;fill-opacity:1;stroke:#000000;stroke-width:0.06614583;stroke-linecap:butt;stroke-linejoin:bevel;stroke-dasharray:none;stroke-opacity:1"
         id="path919"
         inkscape:connector-curvature="0" />
      <path
         class="arrow"
         d="m 11.999995,575.05625 10,-10 -7.5,10 7.5,10 z"
         id="path20"
         style="fill:#000000;stroke:#000000;stroke-width:0.0661458;stroke-linecap:butt;stroke-linejoin:bevel;stroke-dasharray:none;stroke-opacity:1"
         inkscape:connector-curvature="0" />
      <path
         inkscape:connector-curvature="0"
         id="path922"
         style="font-style:normal;font-size:medium;text-anchor:middle;fill:none;fill-opacity:1;stroke:#000000;stroke-width:0.06614583;stroke-linecap:butt;stroke-linejoin:bevel;stroke-dasharray:none;stroke-opacity:1"
         d="m 23.109369,579.05626 h -3.935547 v -0.74219 h 1.513672 v -4.87304 h -1.513672 v -0.66407 q 0.307617,0 0.65918,-0.0488 0.351562,-0.0537 0.532226,-0.15137 0.22461,-0.12207 0.351563,-0.30762 0.131836,-0.19043 0.151367,-0.50781 h 0.756836 v 6.55273 h 1.484375 z" />
      <path
         d="m 7.0491111,578.27305 q 0.1889648,-0.21094 0.4746094,-0.34717 0.2856445,-0.13623 0.7382812,-0.13623 0.4482422,0 0.8217774,0.1626 0.3735351,0.16259 0.6503906,0.45703 0.3076173,0.32959 0.4570313,0.77783 0.145019,0.44385 0.145019,0.97559 0,0.54492 -0.131835,1.07226 -0.127442,0.52734 -0.2812505,0.86572 h -0.918457 v -0.0659 q 0.2460938,-0.37354 0.4086914,-0.87891 0.1625977,-0.50537 0.1625977,-0.97559 0,-0.27685 -0.092285,-0.58886 -0.092285,-0.31202 -0.272461,-0.50537 -0.1933593,-0.20215 -0.4262695,-0.29883 -0.2329101,-0.10108 -0.5888672,-0.10108 -0.3515625,0 -0.5800782,0.11426 -0.23291,0.10986 -0.3647461,0.30762 -0.1362304,0.19775 -0.1845703,0.479 -0.052734,0.28125 -0.052734,0.60645 v 0.3955 h -0.729492 v -0.30761 q 0,-0.66797 -0.2768555,-1.06348 -0.28125,-0.3999 -0.8173828,-0.3999 -0.2373047,0 -0.413086,0.10107 -0.1801757,0.10108 -0.2944336,0.28125 -0.1142578,0.18897 -0.1582031,0.4043 -0.043945,0.21533 -0.043945,0.48779 0,0.41748 0.1494141,0.8877 0.149414,0.47021 0.421875,0.88769 v 0.0439 H 3.9333891 q -0.1538086,-0.31201 -0.28125,-0.83057 -0.1318359,-0.52295 -0.1318359,-1.01074 0,-0.479 0.087891,-0.84375 0.087891,-0.36475 0.28125,-0.65918 0.2109375,-0.31641 0.5097657,-0.479 0.2988281,-0.1626 0.6987304,-0.1626 0.5449219,0 0.9536133,0.38672 0.4042968,0.38232 0.5097655,0.90527 h 0.061523 q 0.035156,-0.21094 0.149414,-0.4834 0.1098633,-0.27246 0.276855,-0.46142 z"
         style="font-style:normal;font-size:medium;text-anchor:middle;fill:none;fill-opacity:1;stroke:#000000;stroke-width:0.06614583;stroke-linecap:butt;stroke-linejoin:bevel;stroke-dasharray:none;stroke-opacity:1"
         id="path925"
         inkscape:connector-curvature="0" />
      <path
         d="m 6.54374,574.5333 v 1.05029 H 5.2912986 v -1.05029 z m 3.65625,0 v 1.05029 H 8.9475486 v -1.05029 z"
         style="font-style:normal;font-size:medium;text-anchor:middle;fill:none;fill-opacity:1;stroke:#000000;stroke-width:0.06614583;stroke-linecap:butt;stroke-linejoin:bevel;stroke-dasharray:none;stroke-opacity:1"
         id="path927"
         inkscape:connector-curvature="0" />
      <path
         d="m 10.19999,568.24473 v 3.54199 H 9.5320213 v -1.36231 H 5.1462791 v 1.36231 H 4.5486228 q 0,-0.27686 -0.043945,-0.59326 -0.04834,-0.31641 -0.1362305,-0.47901 -0.1098632,-0.20215 -0.2768554,-0.3164 -0.1713868,-0.11866 -0.4570313,-0.13623 v -0.68116 h 5.897461 v -1.33593 z"
         style="font-style:normal;font-size:medium;text-anchor:middle;fill:none;fill-opacity:1;stroke:#000000;stroke-width:0.06614583;stroke-linecap:butt;stroke-linejoin:bevel;stroke-dasharray:none;stroke-opacity:1"
         id="path929"
         inkscape:connector-curvature="0" />
      <path
         d="m 52.629814,601.87861 q 0,-0.45703 0.166992,-0.87451 0.166992,-0.41748 0.457031,-0.70312 0.316406,-0.30762 0.75586,-0.47461 0.435058,-0.1626 1.010742,-0.1626 0.536133,0 1.032715,0.11426 0.496582,0.10986 0.839355,0.26806 v 0.92725 h -0.06152 q -0.360351,-0.22852 -0.84375,-0.39111 -0.483398,-0.15821 -0.949219,-0.15821 -0.312011,0 -0.60205,0.0879 -0.294434,0.0879 -0.52295,0.30762 -0.193359,0.18897 -0.290039,0.45264 -0.101074,0.26367 -0.101074,0.61084 0,0.33838 0.118652,0.57129 0.114258,0.23291 0.320801,0.37353 0.228516,0.16699 0.558106,0.23291 0.325195,0.0703 0.729492,0.0703 0.386719,0 0.74707,-0.0527 0.355957,-0.0527 0.615235,-0.10547 v 3.37061 h -3.9375 v -0.76905 h 3.089355 v -1.74023 q -0.188965,0.0176 -0.386719,0.0264 -0.197754,0.009 -0.342773,0.009 -0.531738,0 -0.931641,-0.0923 -0.399902,-0.0879 -0.733887,-0.3164 -0.351562,-0.2417 -0.544921,-0.62403 -0.19336,-0.38232 -0.19336,-0.95801 z"
         style="font-style:normal;font-size:medium;text-anchor:middle;fill:none;fill-opacity:1;stroke:#000000;stroke-width:0.06614583;stroke-linecap:butt;stroke-linejoin:bevel;stroke-dasharray:none;stroke-opacity:1"
         id="path932"
         inkscape:connector-curvature="0" />
      <path
         d="m 49.413017,603.45625 h 1.050293 v 1.25244 h -1.050293 z m 0,-3.65625 h 1.050293 v 1.25244 h -1.050293 z"
         style="font-style:normal;font-size:medium;text-anchor:middle;fill:none;fill-opacity:1;stroke:#000000;stroke-width:0.06614583;stroke-linecap:butt;stroke-linejoin:bevel;stroke-dasharray:none;stroke-opacity:1"
         id="path934"
         inkscape:connector-curvature="0" />
      <path
         d="m 43.124443,599.8 h 3.541992 v 0.66797 H 45.30413 v 4.38574 h 1.362305 v 0.59766 q -0.276856,0 -0.593262,0.0439 -0.316406,0.0483 -0.479004,0.13623 -0.202148,0.10987 -0.316406,0.27686 -0.118652,0.17138 -0.136231,0.45703 H 44.46038 v -5.89746 h -1.335937 z"
         style="font-style:normal;font-size:medium;text-anchor:middle;fill:none;fill-opacity:1;stroke:#000000;stroke-width:0.06614583;stroke-linecap:butt;stroke-linejoin:bevel;stroke-dasharray:none;stroke-opacity:1"
         id="path936"
         inkscape:connector-curvature="0" />
      <path
         d="m 210.62375,345.27805 q -0.84815,0 -1.41065,-0.66357 -0.5625,-0.65918 -0.5625,-1.66114 0,-1.06347 0.54932,-1.69628 0.54931,-0.62842 1.40625,-0.62842 0.54492,0 0.98437,0.3164 0.44385,0.31641 0.70313,0.89209 h 0.0264 q 0.28125,-0.52734 0.61524,-0.78222 0.33398,-0.25049 0.83496,-0.25049 0.73828,0 1.23047,0.60644 0.49219,0.60645 0.49219,1.54248 0,0.97998 -0.47022,1.56446 -0.47021,0.58447 -1.19531,0.58447 -0.44385,0 -0.87451,-0.27686 -0.42627,-0.27685 -0.66797,-0.81298 h -0.0264 q -0.26367,0.61523 -0.65039,0.94043 -0.38672,0.32519 -0.98437,0.32519 z m 3.19482,-1.0415 q 0.47021,0 0.74707,-0.36475 0.28125,-0.36035 0.28125,-0.92285 0,-0.55371 -0.26367,-0.90967 -0.26367,-0.35156 -0.71192,-0.35156 -0.3164,0 -0.54931,0.17578 -0.22852,0.18018 -0.40869,0.54053 -0.0791,0.1626 -0.20655,0.46582 -0.12744,0.30762 -0.21093,0.59765 0.29003,0.43506 0.60205,0.60206 0.31201,0.16699 0.7207,0.16699 z m -3.27832,0.13623 q 0.4043,0 0.646,-0.18018 0.24609,-0.17578 0.49218,-0.69433 0.0967,-0.20655 0.18018,-0.45264 0.0835,-0.24609 0.23291,-0.65479 -0.21533,-0.3955 -0.58447,-0.6372 -0.36914,-0.23731 -0.83496,-0.23731 -0.59327,0 -0.97999,0.40869 -0.38671,0.4087 -0.38671,1.03711 0,0.64161 0.32959,1.02393 0.32959,0.38672 0.90527,0.38672 z"
         style="font-style:normal;font-size:medium;text-anchor:middle;fill:none;fill-opacity:1;stroke:#000000;stroke-width:0.06614583;stroke-linecap:butt;stroke-linejoin:bevel;stroke-dasharray:none;stroke-opacity:1"
         id="path939"
         inkscape:connector-curvature="0" />
      <path
         d="m 212.45626,348.39377 v -1.05029 h 1.25245 v 1.05029 z m -3.65625,0 v -1.05029 h 1.25245 v 1.05029 z"
         style="font-style:normal;font-size:medium;text-anchor:middle;fill:none;fill-opacity:1;stroke:#000000;stroke-width:0.06614583;stroke-linecap:butt;stroke-linejoin:bevel;stroke-dasharray:none;stroke-opacity:1"
         id="path941"
         inkscape:connector-curvature="0" />
      <path
         d="m 208.80001,354.68235 v -3.54199 h 0.66797 v 1.3623 h 4.38575 v -1.3623 h 0.59765 q 0,0.27685 0.0439,0.59326 0.0483,0.3164 0.13623,0.479 0.10986,0.20215 0.27685,0.31641 0.17139,0.11865 0.45703,0.13623 v 0.68115 h -5.89746 v 1.33594 z"
         style="font-style:normal;font-size:medium;text-anchor:middle;fill:none;fill-opacity:1;stroke:#000000;stroke-width:0.06614583;stroke-linecap:butt;stroke-linejoin:bevel;stroke-dasharray:none;stroke-opacity:1"
         id="path943"
         inkscape:connector-curvature="0" />
      <path
         d="m 32.035327,83.466947 h -3.541993 v -0.667969 h 1.362305 V 78.413236 H 28.493334 V 77.81558 q 0.276856,0 0.593262,-0.04394 0.316406,-0.04834 0.479004,-0.136231 0.202148,-0.109863 0.316406,-0.276855 0.118653,-0.171387 0.136231,-0.457031 h 0.681152 v 5.897461 h 1.335938 z"
         style="font-style:normal;font-size:medium;text-anchor:middle;fill:none;fill-opacity:1;stroke:#000000;stroke-width:0.06614583;stroke-linecap:butt;stroke-linejoin:bevel;stroke-dasharray:none;stroke-opacity:1"
         id="path946"
         inkscape:connector-curvature="0" />
      <path
         d="m 35.572924,79.810697 h -1.050293 v -1.252441 h 1.050293 z m 0,3.65625 h -1.050293 v -1.252441 h 1.050293 z"
         style="font-style:normal;font-size:medium;text-anchor:middle;fill:none;fill-opacity:1;stroke:#000000;stroke-width:0.06614583;stroke-linecap:butt;stroke-linejoin:bevel;stroke-dasharray:none;stroke-opacity:1"
         id="path948"
         inkscape:connector-curvature="0" />
      <path
         d="m 41.861498,83.466947 h -3.541992 v -0.667969 h 1.362305 V 78.413236 H 38.319506 V 77.81558 q 0.276856,0 0.593262,-0.04394 0.316406,-0.04834 0.479004,-0.136231 0.202148,-0.109863 0.316406,-0.276855 0.118653,-0.171387 0.136231,-0.457031 h 0.681152 v 5.897461 h 1.335937 z"
         style="font-style:normal;font-size:medium;text-anchor:middle;fill:none;fill-opacity:1;stroke:#000000;stroke-width:0.06614583;stroke-linecap:butt;stroke-linejoin:bevel;stroke-dasharray:none;stroke-opacity:1"
         id="path950"
         inkscape:connector-curvature="0" />
      <path
         d="m 7.0491151,107.31965 q 0.1889648,-0.21094 0.4746094,-0.34717 0.2856445,-0.13623 0.7382812,-0.13623 0.4482422,0 0.8217774,0.1626 0.3735351,0.16259 0.6503906,0.45703 0.3076173,0.32959 0.4570313,0.77783 0.145019,0.44385 0.145019,0.97559 0,0.54492 -0.131835,1.07226 -0.127442,0.52734 -0.2812505,0.86572 h -0.918457 v -0.0659 q 0.2460937,-0.37354 0.4086914,-0.87891 0.1625977,-0.50537 0.1625977,-0.97559 0,-0.27685 -0.092285,-0.58886 -0.092285,-0.31202 -0.272461,-0.50537 -0.1933593,-0.20215 -0.4262695,-0.29883 -0.2329101,-0.10108 -0.5888672,-0.10108 -0.3515625,0 -0.5800782,0.11426 -0.23291,0.10986 -0.3647461,0.30762 -0.1362304,0.19775 -0.1845703,0.479 -0.052734,0.28125 -0.052734,0.60645 v 0.3955 h -0.729492 v -0.30761 q 0,-0.66797 -0.2768555,-1.06348 -0.28125,-0.3999 -0.8173828,-0.3999 -0.2373047,0 -0.413086,0.10107 -0.1801757,0.10108 -0.2944336,0.28125 -0.1142578,0.18897 -0.1582031,0.4043 -0.043945,0.21533 -0.043945,0.48779 0,0.41748 0.1494141,0.8877 0.149414,0.47021 0.421875,0.88769 v 0.0439 H 3.9333931 q -0.1538086,-0.31201 -0.28125,-0.83057 -0.1318359,-0.52295 -0.1318359,-1.01074 0,-0.479 0.087891,-0.84375 0.087891,-0.36475 0.28125,-0.65918 0.2109375,-0.31641 0.5097657,-0.479 0.2988281,-0.1626 0.6987304,-0.1626 0.5449219,0 0.9536133,0.38672 0.4042968,0.38232 0.5097655,0.90527 h 0.061523 q 0.035156,-0.21094 0.149414,-0.4834 0.1098633,-0.27246 0.276855,-0.46142 z"
         style="font-style:normal;font-size:medium;text-anchor:middle;fill:none;fill-opacity:1;stroke:#000000;stroke-width:0.06614583;stroke-linecap:butt;stroke-linejoin:bevel;stroke-dasharray:none;stroke-opacity:1"
         id="path953"
         inkscape:connector-curvature="0" />
      <path
         d="m 6.543744,103.5799 v 1.05029 H 5.2913026 v -1.05029 z m 3.65625,0 v 1.05029 H 8.9475526 v -1.05029 z"
         style="font-style:normal;font-size:medium;text-anchor:middle;fill:none;fill-opacity:1;stroke:#000000;stroke-width:0.06614583;stroke-linecap:butt;stroke-linejoin:bevel;stroke-dasharray:none;stroke-opacity:1"
         id="path955"
         inkscape:connector-curvature="0" />
      <path
         d="m 10.199994,97.291327 v 3.541993 H 9.5320252 V 99.471014 H 5.1462831 v 1.362306 H 4.5486268 q 0,-0.27686 -0.043945,-0.59326 Q 4.4563418,99.923651 4.3684513,99.761053 4.2585881,99.558905 4.0915959,99.444647 3.9202091,99.325994 3.6345646,99.308416 v -0.681152 h 5.8974609 v -1.335937 z"
         style="font-style:normal;font-size:medium;text-anchor:middle;fill:none;fill-opacity:1;stroke:#000000;stroke-width:0.06614583;stroke-linecap:butt;stroke-linejoin:bevel;stroke-dasharray:none;stroke-opacity:1"
         id="path957"
         inkscape:connector-curvature="0" />
      <path
         d="m 203.99269,236.09705 -0.72856,-3.46626 0.65369,-0.13739 0.28021,1.33317 4.29197,-0.90211 -0.28022,-1.33317 0.58488,-0.12294 q 0.0569,0.27094 0.16503,0.57154 0.11239,0.2997 0.23185,0.44074 0.14909,0.17523 0.33601,0.25269 0.19213,0.0809 0.47528,0.0393 l 0.14011,0.66659 -5.77135,1.21306 0.27479,1.30737 z"
         style="font-style:normal;font-size:medium;text-anchor:middle;fill:none;fill-opacity:1;stroke:#000000;stroke-width:0.06614582;stroke-linecap:butt;stroke-linejoin:bevel;stroke-dasharray:none;stroke-opacity:1"
         id="path960"
         inkscape:connector-curvature="0" />
      <path
         d="m 208.29842,238.80694 -0.21604,-1.02784 1.22566,-0.25761 0.21604,1.02783 z m -3.57807,0.75206 -0.21604,-1.02784 1.22566,-0.25761 0.21604,1.02783 z"
         style="font-style:normal;font-size:medium;text-anchor:middle;fill:none;fill-opacity:1;stroke:#000000;stroke-width:0.06614582;stroke-linecap:butt;stroke-linejoin:bevel;stroke-dasharray:none;stroke-opacity:1"
         id="path962"
         inkscape:connector-curvature="0" />
      <path
         d="m 206.09069,246.07865 -0.91115,-4.33497 0.89882,-0.18891 q 0.48196,0.3702 0.96392,0.74041 0.48287,0.3745 0.94787,0.68541 0.97346,0.65758 1.5064,0.86439 0.53724,0.20591 1.08341,0.0911 0.49887,-0.10486 0.7088,-0.49475 0.21514,-0.3865 0.0913,-0.97568 -0.0823,-0.39135 -0.3157,-0.81829 -0.23343,-0.42693 -0.60856,-0.80163 l -0.009,-0.043 0.90312,-0.18983 q 0.2147,0.2737 0.44607,0.75496 0.23229,0.48555 0.33262,0.96291 0.207,0.98483 -0.15285,1.64424 -0.35556,0.6585 -1.16836,0.82934 -0.36555,0.0768 -0.70368,0.0491 -0.33292,-0.0243 -0.65472,-0.1453 -0.30189,-0.11167 -0.60783,-0.28537 -0.30504,-0.16939 -0.68677,-0.42595 -0.54828,-0.36525 -1.07709,-0.76602 -0.5245,-0.40168 -0.97523,-0.75151 l 0.72404,3.44475 z"
         style="font-style:normal;font-size:medium;text-anchor:middle;fill:none;fill-opacity:1;stroke:#000000;stroke-width:0.06614582;stroke-linecap:butt;stroke-linejoin:bevel;stroke-dasharray:none;stroke-opacity:1"
         id="path964"
         inkscape:connector-curvature="0" />
      <path
         d="m 196.25044,601.87861 q 0,-0.45703 0.16699,-0.87451 0.16699,-0.41748 0.45703,-0.70312 0.31641,-0.30762 0.75586,-0.47461 0.43506,-0.1626 1.01074,-0.1626 0.53614,0 1.03272,0.11426 0.49658,0.10986 0.83935,0.26806 v 0.92725 h -0.0615 q -0.36035,-0.22852 -0.84375,-0.39111 -0.4834,-0.15821 -0.94922,-0.15821 -0.31201,0 -0.60205,0.0879 -0.29443,0.0879 -0.52295,0.30762 -0.19336,0.18897 -0.29004,0.45264 -0.10107,0.26367 -0.10107,0.61084 0,0.33838 0.11865,0.57129 0.11426,0.23291 0.3208,0.37353 0.22852,0.16699 0.55811,0.23291 0.32519,0.0703 0.72949,0.0703 0.38672,0 0.74707,-0.0527 0.35596,-0.0527 0.61524,-0.10547 v 3.37061 h -3.9375 v -0.76905 l 3.08935,0 v -1.74023 q -0.18896,0.0176 -0.38672,0.0264 -0.19775,0.009 -0.34277,0.009 -0.53174,0 -0.93164,-0.0923 -0.3999,-0.0879 -0.73389,-0.3164 -0.35156,-0.2417 -0.54492,-0.62403 -0.19336,-0.38232 -0.19336,-0.95801 z"
         style="font-style:normal;font-size:medium;text-anchor:middle;fill:none;fill-opacity:1;stroke:#000000;stroke-width:0.06614583;stroke-linecap:butt;stroke-linejoin:bevel;stroke-dasharray:none;stroke-opacity:1"
         id="path967"
         inkscape:connector-curvature="0" />
      <path
         d="m 193.03364,603.45625 h 1.0503 v 1.25244 h -1.0503 z m 0,-3.65625 h 1.0503 v 1.25244 h -1.0503 z"
         style="font-style:normal;font-size:medium;text-anchor:middle;fill:none;fill-opacity:1;stroke:#000000;stroke-width:0.06614583;stroke-linecap:butt;stroke-linejoin:bevel;stroke-dasharray:none;stroke-opacity:1"
         id="path969"
         inkscape:connector-curvature="0" />
      <path
         d="m 186.37153,599.8 h 4.42969 v 0.91846 q -0.46142,0.3955 -0.92285,0.79101 -0.46582,0.39551 -0.86572,0.78662 -0.84375,0.81739 -1.15577,1.29639 -0.31201,0.4834 -0.31201,1.0415 0,0.50977 0.33838,0.79541 0.33399,0.29004 0.93604,0.29004 0.3999,0 0.86572,-0.14062 0.46582,-0.14063 0.90967,-0.43067 h 0.0439 v 0.92286 q -0.31201,0.1538 -0.83056,0.28125 -0.52295,0.12744 -1.01075,0.12744 -1.00634,0 -1.57763,-0.4878 -0.57129,-0.48339 -0.57129,-1.31396 0,-0.37354 0.0967,-0.69873 0.0923,-0.3208 0.27685,-0.61084 0.17139,-0.27246 0.4043,-0.53613 0.22852,-0.26368 0.55811,-0.58448 0.47021,-0.46142 0.97119,-0.89648 0.50097,-0.43066 0.93603,-0.79981 h -3.52002 z"
         style="font-style:normal;font-size:medium;text-anchor:middle;fill:none;fill-opacity:1;stroke:#000000;stroke-width:0.06614583;stroke-linecap:butt;stroke-linejoin:bevel;stroke-dasharray:none;stroke-opacity:1"
         id="path971"
         inkscape:connector-curvature="0" />
      <path
         d="m 210.62374,276.20863 q -0.84814,0 -1.41064,-0.66357 -0.5625,-0.65918 -0.5625,-1.66113 0,-1.06348 0.54932,-1.69629 0.54931,-0.62842 1.40625,-0.62842 0.54492,0 0.98437,0.3164 0.44385,0.31641 0.70313,0.89209 h 0.0264 q 0.28125,-0.52734 0.61524,-0.78222 0.33398,-0.25049 0.83496,-0.25049 0.73828,0 1.23047,0.60645 0.49218,0.60644 0.49218,1.54248 0,0.97998 -0.47021,1.56445 -0.47021,0.58447 -1.19531,0.58447 -0.44385,0 -0.87451,-0.27685 -0.42627,-0.27686 -0.66797,-0.81299 h -0.0264 q -0.26367,0.61523 -0.65039,0.94043 -0.38672,0.32519 -0.98438,0.32519 z m 3.19483,-1.0415 q 0.47021,0 0.74707,-0.36475 0.28125,-0.36035 0.28125,-0.92285 0,-0.55371 -0.26367,-0.90967 -0.26367,-0.35156 -0.71192,-0.35156 -0.3164,0 -0.54931,0.17578 -0.22852,0.18018 -0.40869,0.54053 -0.0791,0.1626 -0.20655,0.46582 -0.12744,0.30762 -0.21094,0.59766 0.29004,0.43505 0.60206,0.60205 0.31201,0.16699 0.7207,0.16699 z m -3.27832,0.13623 q 0.4043,0 0.64599,-0.18018 0.2461,-0.17578 0.49219,-0.69433 0.0967,-0.20655 0.18018,-0.45264 0.0835,-0.24609 0.23291,-0.65478 -0.21533,-0.39551 -0.58447,-0.63721 -0.36915,-0.23731 -0.83497,-0.23731 -0.59326,0 -0.97998,0.4087 -0.38671,0.40869 -0.38671,1.0371 0,0.64161 0.32958,1.02393 0.32959,0.38672 0.90528,0.38672 z"
         style="font-style:normal;font-size:medium;text-anchor:middle;fill:none;fill-opacity:1;stroke:#000000;stroke-width:0.06614583;stroke-linecap:butt;stroke-linejoin:bevel;stroke-dasharray:none;stroke-opacity:1"
         id="path974"
         inkscape:connector-curvature="0" />
      <path
         d="m 212.45626,279.32436 v -1.0503 h 1.25245 v 1.0503 z m -3.65625,0 v -1.0503 h 1.25245 v 1.0503 z"
         style="font-style:normal;font-size:medium;text-anchor:middle;fill:none;fill-opacity:1;stroke:#000000;stroke-width:0.06614583;stroke-linecap:butt;stroke-linejoin:bevel;stroke-dasharray:none;stroke-opacity:1"
         id="path976"
         inkscape:connector-curvature="0" />
      <path
         d="m 211.95089,285.41078 q -0.18896,0.21094 -0.47461,0.34717 -0.28564,0.13623 -0.73828,0.13623 -0.44824,0 -0.82178,-0.1626 -0.37353,-0.1626 -0.65039,-0.45703 -0.30761,-0.32959 -0.45703,-0.77783 -0.14502,-0.44385 -0.14502,-0.97559 0,-0.54492 0.13184,-1.07226 0.12744,-0.52735 0.28125,-0.86573 h 0.91846 v 0.0659 q -0.2461,0.37354 -0.40869,0.87891 -0.1626,0.50537 -0.1626,0.97558 0,0.27686 0.0923,0.58887 0.0923,0.31201 0.27246,0.50537 0.19336,0.20215 0.42627,0.29883 0.23291,0.10108 0.58887,0.10108 0.35156,0 0.58008,-0.11426 0.23291,-0.10987 0.36474,-0.30762 0.13623,-0.19775 0.18457,-0.479 0.0527,-0.28125 0.0527,-0.60645 v -0.39551 h 0.72949 v 0.30762 q 0,0.66797 0.27686,1.06348 0.28125,0.3999 0.81738,0.3999 0.2373,0 0.41309,-0.10108 0.18017,-0.10107 0.29443,-0.28125 0.11426,-0.18896 0.1582,-0.40429 0.0439,-0.21533 0.0439,-0.48779 0,-0.41749 -0.14942,-0.8877 -0.14941,-0.47022 -0.42187,-0.8877 v -0.0439 h 0.91846 q 0.1538,0.31201 0.28125,0.83057 0.13183,0.52295 0.13183,1.01074 0,0.479 -0.0879,0.84375 -0.0879,0.36474 -0.28125,0.65918 -0.21094,0.3164 -0.50977,0.479 -0.29882,0.1626 -0.69873,0.1626 -0.54492,0 -0.95361,-0.38672 -0.4043,-0.38232 -0.50976,-0.90527 h -0.0615 q -0.0352,0.21093 -0.14941,0.4834 -0.10986,0.27246 -0.27686,0.46142 z"
         style="font-style:normal;font-size:medium;text-anchor:middle;fill:none;fill-opacity:1;stroke:#000000;stroke-width:0.06614583;stroke-linecap:butt;stroke-linejoin:bevel;stroke-dasharray:none;stroke-opacity:1"
         id="path978"
         inkscape:connector-curvature="0" />
      <path
         d="m 93.087914,304.819 q 0,0.68359 -0.195313,1.23047 -0.19043,0.54687 -0.517578,0.91797 -0.34668,0.38574 -0.761719,0.58105 -0.415039,0.19043 -0.913086,0.19043 -0.463867,0 -0.810547,-0.1123 -0.346679,-0.10742 -0.683593,-0.29297 l -0.05859,0.2539 h -0.859375 v -7.59765 h 0.917969 v 2.71484 q 0.385742,-0.31738 0.820312,-0.51758 0.43457,-0.20507 0.976563,-0.20507 0.966796,0 1.523437,0.74218 0.561524,0.74219 0.561524,2.09473 z m -0.947266,0.0244 q 0,-0.97656 -0.322266,-1.47949 -0.322265,-0.50781 -1.040039,-0.50781 -0.40039,0 -0.810547,0.17578 -0.410156,0.1709 -0.761718,0.44434 v 3.125 q 0.390625,0.17578 0.668945,0.24414 0.283203,0.0684 0.639648,0.0684 0.761719,0 1.191407,-0.49805 0.43457,-0.50293 0.43457,-1.57227 z"
         style="font-style:normal;font-size:medium;text-anchor:middle;fill:none;fill-opacity:1;stroke:#000000;stroke-width:0.06614583;stroke-linecap:butt;stroke-linejoin:bevel;stroke-dasharray:none;stroke-opacity:1"
         id="path981"
         inkscape:connector-curvature="0" />
      <path
         d="m 98.756859,307.58755 h -0.913086 v -0.58105 q -0.12207,0.083 -0.332031,0.23438 -0.205078,0.14648 -0.400391,0.23437 -0.229492,0.1123 -0.527344,0.18555 -0.297851,0.0781 -0.698242,0.0781 -0.737305,0 -1.25,-0.48828 -0.512695,-0.48828 -0.512695,-1.24512 0,-0.62011 0.263672,-1.00097 0.268554,-0.38575 0.761718,-0.60547 0.498047,-0.21973 1.196289,-0.29785 0.698243,-0.0781 1.499024,-0.11719 v -0.1416 q 0,-0.3125 -0.112305,-0.51758 -0.107422,-0.20508 -0.3125,-0.32227 -0.195312,-0.1123 -0.46875,-0.15136 -0.273437,-0.0391 -0.571289,-0.0391 -0.361328,0 -0.805664,0.0977 -0.444336,0.0928 -0.917969,0.27344 h -0.04883 v -0.93262 q 0.268555,-0.0732 0.776367,-0.16113 0.507813,-0.0879 1.000977,-0.0879 0.576172,0 1.000977,0.0976 0.429687,0.0928 0.742187,0.32227 0.307617,0.22461 0.46875,0.58105 0.161133,0.35645 0.161133,0.88379 z m -0.913086,-1.34277 v -1.51855 q -0.419922,0.0244 -0.991211,0.0732 -0.566406,0.0488 -0.898438,0.1416 -0.395507,0.11231 -0.639648,0.35156 -0.244141,0.23438 -0.244141,0.64942 0,0.46875 0.283204,0.708 0.283203,0.23438 0.864257,0.23438 0.483399,0 0.883789,-0.18555 0.400391,-0.19043 0.742188,-0.4541 z"
         style="font-style:normal;font-size:medium;text-anchor:middle;fill:none;fill-opacity:1;stroke:#000000;stroke-width:0.06614583;stroke-linecap:butt;stroke-linejoin:bevel;stroke-dasharray:none;stroke-opacity:1"
         id="path983"
         inkscape:connector-curvature="0" />
      <path
         d="m 104.56741,307.24576 q -0.45899,0.21972 -0.87403,0.34179 -0.41015,0.12208 -0.87402,0.12208 -0.59082,0 -1.08399,-0.1709 -0.49316,-0.17578 -0.84472,-0.52735 -0.35645,-0.35156 -0.55176,-0.88867 -0.19531,-0.53711 -0.19531,-1.25488 0,-1.33789 0.73242,-2.09961 0.7373,-0.76172 1.94336,-0.76172 0.46875,0 0.91797,0.13184 0.4541,0.13183 0.83008,0.32226 v 1.02051 h -0.0488 q -0.41992,-0.32715 -0.86914,-0.50293 -0.44434,-0.17578 -0.86914,-0.17578 -0.78125,0 -1.23536,0.52734 -0.44921,0.52246 -0.44921,1.53809 0,0.98633 0.43945,1.51855 0.44434,0.52735 1.24512,0.52735 0.27832,0 0.5664,-0.0732 0.28809,-0.0732 0.51758,-0.19043 0.2002,-0.10253 0.37598,-0.21484 0.17578,-0.11719 0.27832,-0.20019 h 0.0488 z"
         style="font-style:normal;font-size:medium;text-anchor:middle;fill:none;fill-opacity:1;stroke:#000000;stroke-width:0.06614583;stroke-linecap:butt;stroke-linejoin:bevel;stroke-dasharray:none;stroke-opacity:1"
         id="path985"
         inkscape:connector-curvature="0" />
      <path
         d="m 110.70022,307.58755 h -1.21094 l -2.1875,-2.38769 -0.5957,0.56641 v 1.82128 h -0.91797 v -7.59765 h 0.91797 v 4.87305 l 2.65136,-2.7295 h 1.15723 l -2.53418,2.51953 z"
         style="font-style:normal;font-size:medium;text-anchor:middle;fill:none;fill-opacity:1;stroke:#000000;stroke-width:0.06614583;stroke-linecap:butt;stroke-linejoin:bevel;stroke-dasharray:none;stroke-opacity:1"
         id="path987"
         inkscape:connector-curvature="0" />
      <path
         d="m 115.07034,303.13443 h -0.0488 q -0.20508,-0.0488 -0.40039,-0.0684 -0.19043,-0.0244 -0.4541,-0.0244 -0.42481,0 -0.82032,0.19043 -0.39551,0.18554 -0.76172,0.48339 v 3.87207 h -0.91796 v -5.4541 h 0.91796 v 0.80567 q 0.54688,-0.43946 0.96192,-0.62012 0.41992,-0.18555 0.85449,-0.18555 0.23926,0 0.34668,0.0147 0.10742,0.01 0.32227,0.0439 z"
         style="font-style:normal;font-size:medium;text-anchor:middle;fill:none;fill-opacity:1;stroke:#000000;stroke-width:0.06614583;stroke-linecap:butt;stroke-linejoin:bevel;stroke-dasharray:none;stroke-opacity:1"
         id="path989"
         inkscape:connector-curvature="0" />
      <path
         d="m 120.50979,304.95572 h -4.01856 q 0,0.50293 0.15137,0.87891 0.15137,0.37109 0.41504,0.61035 0.25391,0.23437 0.60059,0.35156 0.35156,0.11719 0.77148,0.11719 0.55664,0 1.11816,-0.21973 0.56641,-0.22461 0.80567,-0.43945 h 0.0488 v 1.00097 q -0.46387,0.19532 -0.94727,0.32715 -0.4834,0.13184 -1.01562,0.13184 -1.35743,0 -2.11914,-0.73242 -0.76172,-0.73731 -0.76172,-2.08985 0,-1.33789 0.72754,-2.12402 0.73242,-0.78613 1.92382,-0.78613 1.10352,0 1.69922,0.64453 0.60059,0.64453 0.60059,1.83105 z m -0.89356,-0.70313 q -0.005,-0.72265 -0.36621,-1.11816 -0.35644,-0.39551 -1.08886,-0.39551 -0.73731,0 -1.17676,0.43457 -0.43457,0.43457 -0.49317,1.0791 z"
         style="font-style:normal;font-size:medium;text-anchor:middle;fill:none;fill-opacity:1;stroke:#000000;stroke-width:0.06614583;stroke-linecap:butt;stroke-linejoin:bevel;stroke-dasharray:none;stroke-opacity:1"
         id="path991"
         inkscape:connector-curvature="0" />
      <path
         d="m 125.79787,306.01529 q 0,0.74707 -0.62011,1.22559 -0.61524,0.47851 -1.68457,0.47851 -0.60547,0 -1.11328,-0.1416 -0.50293,-0.14649 -0.84473,-0.31738 v -1.03028 h 0.0488 q 0.43457,0.32715 0.96679,0.52246 0.53223,0.19043 1.02051,0.19043 0.60547,0 0.94727,-0.19531 0.34179,-0.19531 0.34179,-0.61523 0,-0.32227 -0.18554,-0.48828 -0.18555,-0.16602 -0.71289,-0.28321 -0.19532,-0.0439 -0.5127,-0.10254 -0.3125,-0.0586 -0.57129,-0.12695 -0.71777,-0.19043 -1.02051,-0.55664 -0.29785,-0.37109 -0.29785,-0.9082 0,-0.33692 0.13672,-0.63477 0.1416,-0.29785 0.42481,-0.53223 0.27343,-0.22949 0.69336,-0.36132 0.4248,-0.13672 0.94726,-0.13672 0.48828,0 0.98633,0.12207 0.50293,0.11719 0.83496,0.28808 v 0.98145 h -0.0488 q -0.35156,-0.25879 -0.85449,-0.43457 -0.50293,-0.18067 -0.98633,-0.18067 -0.50293,0 -0.84961,0.19532 -0.34668,0.19043 -0.34668,0.57129 0,0.33691 0.20996,0.50781 0.20508,0.1709 0.66407,0.27832 0.2539,0.0586 0.5664,0.11719 0.31739,0.0586 0.52735,0.10742 0.63965,0.14648 0.98632,0.50293 0.34668,0.36133 0.34668,0.95703 z"
         style="font-style:normal;font-size:medium;text-anchor:middle;fill:none;fill-opacity:1;stroke:#000000;stroke-width:0.06614583;stroke-linecap:butt;stroke-linejoin:bevel;stroke-dasharray:none;stroke-opacity:1"
         id="path993"
         inkscape:connector-curvature="0" />
      <path
         d="m 129.94827,307.53873 q -0.25879,0.0684 -0.56641,0.1123 -0.30274,0.0439 -0.54199,0.0439 -0.83496,0 -1.26953,-0.44922 -0.43457,-0.44922 -0.43457,-1.44043 v -2.90039 h -0.62012 v -0.77149 h 0.62012 v -1.56738 h 0.91796 v 1.56738 h 1.89454 v 0.77149 h -1.89454 v 2.48535 q 0,0.42969 0.0195,0.67383 0.0195,0.23926 0.13671,0.44922 0.10743,0.19531 0.29297,0.28808 0.19043,0.0879 0.57617,0.0879 0.22461,0 0.46875,-0.0635 0.24415,-0.0684 0.35157,-0.11231 h 0.0488 z"
         style="font-style:normal;font-size:medium;text-anchor:middle;fill:none;fill-opacity:1;stroke:#000000;stroke-width:0.06614583;stroke-linecap:butt;stroke-linejoin:bevel;stroke-dasharray:none;stroke-opacity:1"
         id="path995"
         inkscape:connector-curvature="0" />
    </g>
  </g>
</svg>
