<?xml version="1.0" encoding="UTF-8" standalone="no"?>
<svg
   xmlns:dc="http://purl.org/dc/elements/1.1/"
   xmlns:cc="http://creativecommons.org/ns#"
   xmlns:rdf="http://www.w3.org/1999/02/22-rdf-syntax-ns#"
   xmlns:svg="http://www.w3.org/2000/svg"
   xmlns="http://www.w3.org/2000/svg"
   xmlns:sodipodi="http://sodipodi.sourceforge.net/DTD/sodipodi-0.dtd"
   xmlns:inkscape="http://www.inkscape.org/namespaces/inkscape"
   version="1.1"
   width="320.00mm"
   height="620.00mm"
   viewBox="0 0 320.00 620.00"
   id="svg9811"
   sodipodi:docname="backrest_page11.svg"
   inkscape:version="0.92.3 (2405546, 2018-03-11)">
  <metadata
     id="metadata9817">
    <rdf:RDF>
      <cc:Work
         rdf:about="">
        <dc:format>image/svg+xml</dc:format>
        <dc:type
           rdf:resource="http://purl.org/dc/dcmitype/StillImage" />
      </cc:Work>
    </rdf:RDF>
  </metadata>
  <defs
     id="defs9815" />
  <sodipodi:namedview
     pagecolor="#ffffff"
     bordercolor="#666666"
     borderopacity="1"
     objecttolerance="10"
     gridtolerance="10"
     guidetolerance="10"
     inkscape:pageopacity="0"
     inkscape:pageshadow="2"
     inkscape:window-width="1853"
     inkscape:window-height="1025"
     id="namedview9813"
     showgrid="false"
     inkscape:zoom="0.20142473"
     inkscape:cx="794.45642"
     inkscape:cy="981.06264"
     inkscape:window-x="67"
     inkscape:window-y="27"
     inkscape:window-maximized="1"
     inkscape:current-layer="svg9811" />
  <style
     type="text/css"
     id="style9675">
    path {
        fill: none;
        stroke-linecap: butt;
        stroke-linejoin: bevel;
        stroke-dasharray: none;
    }
    path.outer {
        stroke: #000000;
        stroke-dasharray: none;
        stroke-dashoffset: 0;
        stroke-width: 0.3;
        stroke-opacity: 1.0;
    }
    path.convex {
        stroke: #000000;
        stroke-dasharray: 0.50,1.00;
        stroke-dashoffset:0;
        stroke-width:0.2;
        stroke-opacity: 1.0
    }
    path.concave {
        stroke: #000000;
        stroke-dasharray: 1.00,0.50,0.20,0.50;
        stroke-dashoffset: 0;
        stroke-width: 0.2;
        stroke-opacity: 1.0
    }
    path.freestyle {
        stroke: #000000;
        stroke-dasharray: none;
        stroke-dashoffset: 0;
        stroke-width: 0.2;
        stroke-opacity: 1.0
    }
    path.outer_background {
        stroke: #ffffff;
        stroke-opacity: 1.0;
        stroke-width: 0.5
    }
    path.inner_background {
        stroke: #ffffff;
        stroke-opacity: 1.0;
        stroke-width: 0.2
    }
    path.sticker {
        fill: #e5e5e5;
        stroke: none;
        fill-opacity: 1.0;
    }
    path.arrow {
        fill: #000000;
    }
    text {
        font-style: normal;
        fill: #000000;
        fill-opacity: 1.0;
        stroke: none;
    }
    text, tspan {
        text-anchor:middle;
    }
    </style>
  <g
     id="g14278">
    <g
       transform="translate(15.762712)"
       id="g10017">
      <text
         style="font-style:normal;font-size:10px;text-anchor:middle;fill:#000000;fill-opacity:1;stroke:none"
         id="text9679"
         x="104.27629"
         y="437.34195">
        <tspan
           id="tspan9677"
           style="text-anchor:middle">[8] I 8</tspan>
      </text>
      <path
         class="sticker"
         d="M 32.891288,363.64409 24.121121,368.45127 3e-5,326.0394 8.614868,320.95912 Z m -2.9e-5,75.87192 -10.000006,-0.15709 3e-5,-75.55774 10.000005,-0.15709 z m 44.677198,-159.65575 6.80232,-6.36286 12.733012,13.1909 -6.599105,6.57338 z m 100.398153,85.37611 9.53199,-3.0275 9.34026,27.88176 -9.4322,3.32542 z m -28.23173,-23.64683 6.54154,-7.56523 27.99088,23.44507 -6.30069,7.76699 z m 37.67178,51.82651 10,0.1571 -3e-5,45.78584 -9.99999,0.15709 z m -74.78479,-51.82654 0.15709,-9.99999 36.79884,3e-5 0.15708,9.99999 z m -22.117186,-48.32783 9.15838,-4.01858 21.986436,48.04218 -9.02763,4.30423 z m -81.889816,27.69744 -4.98496,-8.67033 66.983633,-39.92471 6.954916,7.49618 z m -3e-5,237.11374 L 0,552.99258 l 24.121091,-42.41183 8.770168,4.80717 z m 24.276421,-42.68494 -10.000006,-0.15709 v -75.55772 l 10.000006,-0.1571 z m 57.613313,70.38245 6.599083,6.57338 -12.73302,13.19086 -6.802305,-6.36285 z m 96.902058,-100.15425 9.43218,3.32541 -9.34027,27.88176 -9.53199,-3.0275 z m -9.44008,28.17967 6.30067,7.76699 -27.99089,23.44505 -6.54154,-7.56524 z m 9.44009,-74.27971 9.99999,0.15709 -1e-5,45.78586 -9.99999,0.15709 z m -37.67185,97.92651 -0.1571,9.99999 -36.79882,-5e-5 -0.15708,-9.99999 z m -37.113,-5e-5 9.02762,4.30426 -21.986465,48.04214 -9.158373,-4.01857 z m -35.05346,61.72922 -6.954938,7.49612 -66.983514,-39.92468 4.98496,-8.67034 z"
         id="path9681"
         inkscape:connector-curvature="0"
         style="fill:#e5e5e5;fill-opacity:1;stroke:none;stroke-linecap:butt;stroke-linejoin:bevel;stroke-dasharray:none" />
      <path
         class="outer"
         d="M 70.613392,606.66788 3.629878,566.7432 8.614838,558.07286 0,552.99258 l 24.121091,-42.41183 8.770168,4.80717 -10.000006,-0.15709 v -75.55772 l 10.000006,-0.1571 -10.000006,-0.15709 3e-5,-75.55774 10.000005,-0.15709 -8.770167,4.80718 L 3e-5,326.0394 l 8.614838,-5.08028 -4.98496,-8.67033 66.983633,-39.92471 6.954916,7.49618 6.80232,-6.36286 12.733012,13.1909 -6.599105,6.57338 9.15838,-4.01858 21.986436,48.04218 -9.02763,4.30423 0.15709,-9.99999 36.79884,3e-5 0.15708,9.99999 6.54154,-7.56523 27.99088,23.44507 -6.30069,7.76699 9.53199,-3.0275 9.34026,27.88176 -9.4322,3.32542 10,0.1571 -3e-5,45.78584 -9.99999,0.15709 9.99999,0.15709 -1e-5,45.78586 -9.99999,0.15709 9.43218,3.32541 -9.34027,27.88176 -9.53199,-3.0275 6.30067,7.76699 -27.99089,23.44505 -6.54154,-7.56524 -0.1571,9.99999 -36.79882,-5e-5 -0.15708,-9.99999 9.02762,4.30426 -21.986465,48.04214 -9.158373,-4.01857 6.599083,6.57338 -12.73302,13.19086 -6.802305,-6.36285 z"
         id="path9683"
         inkscape:connector-curvature="0"
         style="fill:none;stroke:#000000;stroke-width:0.30000001;stroke-linecap:butt;stroke-linejoin:bevel;stroke-dasharray:none;stroke-dashoffset:0;stroke-opacity:1" />
      <g
         id="g9691">
        <path
           transform="matrix(-4.943727,-8.6925,8.6925,-4.943727,20.753071,342.30161)"
           class="arrow"
           d="M 0,0 1,1 0,0.25 -1,1 Z"
           id="path9685"
           inkscape:connector-curvature="0"
           style="fill:#000000;stroke-linecap:butt;stroke-linejoin:bevel;stroke-dasharray:none" />
        <text
           transform="translate(28.576322,341.85225)"
           style="font-style:normal;font-size:10px;text-anchor:middle;fill:#000000;fill-opacity:1;stroke:none"
           id="text9689">
          <tspan
             id="tspan9687"
             style="text-anchor:middle">1</tspan>
        </text>
      </g>
      <text
         transform="rotate(-119.62841)"
         style="font-style:normal;font-size:9px;text-anchor:middle;fill:#000000;fill-opacity:1;stroke:none"
         id="text9695"
         x="-307.80539"
         y="-152.98503">
        <tspan
           id="tspan9693"
           style="text-anchor:middle">4:1</tspan>
      </text>
      <g
         id="g9703">
        <path
           transform="matrix(6.94509,7.19484,-7.19484,6.94509,84.036574,286.56095)"
           class="arrow"
           d="M 0,0 1,1 0,0.25 -1,1 Z"
           id="path9697"
           inkscape:connector-curvature="0"
           style="fill:#000000;stroke-linecap:butt;stroke-linejoin:bevel;stroke-dasharray:none" />
        <text
           transform="translate(77.561215,296.81155)"
           style="font-style:normal;font-size:10px;text-anchor:middle;fill:#000000;fill-opacity:1;stroke:none"
           id="text9701">
          <tspan
             id="tspan9699"
             style="text-anchor:middle">2</tspan>
        </text>
      </g>
      <text
         transform="rotate(46.011896)"
         style="font-style:normal;font-size:8.38000011px;text-anchor:middle;fill:#000000;fill-opacity:1;stroke:none"
         id="text9707"
         x="264.54019"
         y="136.87981">
        <tspan
           id="tspan9705"
           style="text-anchor:middle">1:2</tspan>
      </text>
      <g
         id="g9715">
        <path
           transform="matrix(8.589911,-5.119904,5.119904,8.589911,43.091655,300.40967)"
           class="arrow"
           d="M 0,0 1,1 0,0.25 -1,1 Z"
           id="path9709"
           inkscape:connector-curvature="0"
           style="fill:#000000;stroke-linecap:butt;stroke-linejoin:bevel;stroke-dasharray:none" />
        <text
           transform="translate(47.699567,312.14061)"
           style="font-style:normal;font-size:10px;text-anchor:middle;fill:#000000;fill-opacity:1;stroke:none"
           id="text9713">
          <tspan
             id="tspan9711"
             style="text-anchor:middle">3</tspan>
        </text>
      </g>
      <text
         transform="rotate(-30.796486)"
         style="font-style:normal;font-size:9px;text-anchor:middle;fill:#000000;fill-opacity:1;stroke:none"
         id="text9719"
         x="-116.79163"
         y="278.3118">
        <tspan
           id="tspan9717"
           style="text-anchor:middle">12:3</tspan>
      </text>
      <g
         id="g9727">
        <path
           transform="matrix(4.943729,-8.692499,8.692499,4.943729,20.753041,536.73038)"
           class="arrow"
           d="M 0,0 1,1 0,0.25 -1,1 Z"
           id="path9721"
           inkscape:connector-curvature="0"
           style="fill:#000000;stroke-linecap:butt;stroke-linejoin:bevel;stroke-dasharray:none" />
        <text
           transform="translate(28.57629,545.17973)"
           style="font-style:normal;font-size:10px;text-anchor:middle;fill:#000000;fill-opacity:1;stroke:none"
           id="text9725">
          <tspan
             id="tspan9723"
             style="text-anchor:middle">4</tspan>
        </text>
      </g>
      <text
         transform="rotate(-60.37159)"
         style="font-style:normal;font-size:9px;text-anchor:middle;fill:#000000;fill-opacity:1;stroke:none"
         id="text9731"
         x="-456.29303"
         y="281.58459">
        <tspan
           id="tspan9729"
           style="text-anchor:middle">4:4</tspan>
      </text>
      <g
         id="g9739">
        <path
           transform="matrix(-6.945105,7.194827,-7.194827,-6.945105,84.036455,592.47106)"
           class="arrow"
           d="M 0,0 1,1 0,0.25 -1,1 Z"
           id="path9733"
           inkscape:connector-curvature="0"
           style="fill:#000000;stroke-linecap:butt;stroke-linejoin:bevel;stroke-dasharray:none" />
        <text
           transform="translate(77.56111,590.22047)"
           style="font-style:normal;font-size:10px;text-anchor:middle;fill:#000000;fill-opacity:1;stroke:none"
           id="text9737">
          <tspan
             id="tspan9735"
             style="text-anchor:middle">5</tspan>
        </text>
      </g>
      <text
         transform="rotate(133.98819)"
         style="font-style:normal;font-size:8.38000011px;text-anchor:middle;fill:#000000;fill-opacity:1;stroke:none"
         id="text9743"
         x="367.90869"
         y="-473.6163">
        <tspan
           id="tspan9741"
           style="text-anchor:middle">1:5</tspan>
      </text>
      <g
         id="g9751">
        <path
           transform="matrix(-8.589909,-5.11991,5.11991,-8.589909,43.09158,578.62231)"
           class="arrow"
           d="M 0,0 1,1 0,0.25 -1,1 Z"
           id="path9745"
           inkscape:connector-curvature="0"
           style="fill:#000000;stroke-linecap:butt;stroke-linejoin:bevel;stroke-dasharray:none" />
        <text
           transform="translate(47.6995,574.8914)"
           style="font-style:normal;font-size:10px;text-anchor:middle;fill:#000000;fill-opacity:1;stroke:none"
           id="text9749">
          <tspan
             id="tspan9747"
             style="text-anchor:middle">6.</tspan>
        </text>
      </g>
      <text
         transform="rotate(-149.20347)"
         style="font-style:normal;font-size:9px;text-anchor:middle;fill:#000000;fill-opacity:1;stroke:none"
         id="text9755"
         x="-333.26462"
         y="-476.76874">
        <tspan
           id="tspan9753"
           style="text-anchor:middle">13:6.</tspan>
      </text>
    </g>
  </g>
  <g
     id="g9975"
     transform="translate(30.211864)">
    <text
       y="117.674"
       x="61.802578"
       id="text9761"
       style="font-style:normal;font-size:10px;text-anchor:middle;fill:#000000;fill-opacity:1;stroke:none">
      <tspan
         style="text-anchor:middle"
         id="tspan9759">[12] I 12</tspan>
    </text>
    <path
       style="fill:#e5e5e5;fill-opacity:1;stroke:none;stroke-linecap:butt;stroke-linejoin:bevel;stroke-dasharray:none"
       inkscape:connector-curvature="0"
       id="path9763"
       d="m 85.557774,156.79777 9.627044,-2.71011 26.562682,88.97564 -9.53717,3.01114 z M 11.255111,69.51642 2.665013,64.394414 22.3369,30.192614 l 8.746745,4.849672 z m 79.516378,19.202531 9.958811,0.920236 -5.189732,67.765533 -9.982794,-0.60695 z m 21.438841,157.355489 0.0253,10.00121 -84.900045,1.54862 -0.339441,-9.99546 z M 16.245594,148.62582 6.348129,150.0628 0.142711,111.58258 9.990156,109.83545 Z M 9.990156,109.83545 0,109.36481 1.255102,69.359839 11.255111,69.51642 Z m 17.005998,137.79336 -9.95852,0.92336 -10.716641,-98.69066 9.924601,-1.23569 z m 4.087491,-212.586524 6.803541,-7.330537 59.454232,53.466618 -6.569929,7.540584 z"
       class="sticker" />
    <path
       style="fill:none;stroke:#000000;stroke-width:0.30000001;stroke-linecap:butt;stroke-linejoin:bevel;stroke-dasharray:none;stroke-dashoffset:0;stroke-opacity:1"
       inkscape:connector-curvature="0"
       id="path9765"
       d="m 112.23564,256.07565 -84.900045,1.54862 -0.339441,-9.99546 -9.95852,0.92336 L 6.320993,149.86151 16.245594,148.62582 6.348129,150.0628 0.142711,111.58258 9.990156,109.83545 0,109.36481 1.255102,69.359839 11.255111,69.51642 2.665013,64.394414 22.3369,30.192614 l 8.746745,4.849672 6.803541,-7.330537 59.454232,53.466618 -6.569929,7.540584 9.958811,0.920236 -5.189732,67.765533 -9.982794,-0.60695 9.627044,-2.71011 26.562682,88.97564 -9.53717,3.01114 z"
       class="outer" />
    <text
       y="-38.928337"
       x="221.3053"
       id="text9769"
       style="font-style:normal;font-size:9px;text-anchor:middle;fill:#000000;fill-opacity:1;stroke:none"
       transform="rotate(73.377603)">
      <tspan
         style="text-anchor:middle"
         id="tspan9767">4:2</tspan>
    </text>
    <text
       y="42.616089"
       x="-34.763229"
       id="text9773"
       style="font-style:normal;font-size:9px;text-anchor:middle;fill:#000000;fill-opacity:1;stroke:none"
       transform="rotate(-60.093705)">
      <tspan
         style="text-anchor:middle"
         id="tspan9771">1:4</tspan>
    </text>
    <text
       y="-99.081085"
       x="115.66772"
       id="text9777"
       style="font-style:normal;font-size:9px;text-anchor:middle;fill:#000000;fill-opacity:1;stroke:none"
       transform="rotate(94.37937)">
      <tspan
         style="text-anchor:middle"
         id="tspan9775">4:3</tspan>
    </text>
    <path
       class="arrow"
       d="m 69.603242,246.85162 -10.180712,-9.81596 10.135118,7.31638 9.861556,-7.68113 z"
       id="path9779"
       inkscape:connector-curvature="0"
       style="fill:#000000;stroke-width:10;stroke-linecap:butt;stroke-linejoin:bevel;stroke-dasharray:none" />
    <text
       y="241.85312"
       x="69.43911"
       style="font-style:normal;font-size:10px;text-anchor:middle;fill:#000000;fill-opacity:1;stroke:none"
       id="text9783">
      <tspan
         id="tspan9781"
         style="text-anchor:middle">1</tspan>
    </text>
    <text
       y="-249.87994"
       x="-65.089569"
       id="text9789"
       style="font-style:normal;font-size:9px;text-anchor:middle;fill:#000000;fill-opacity:1;stroke:none"
       transform="rotate(178.95498)">
      <tspan
         style="text-anchor:middle"
         id="tspan9787">10:1</tspan>
    </text>
    <text
       y="-9.4237604"
       x="-129.67081"
       id="text9793"
       style="font-style:normal;font-size:9px;text-anchor:middle;fill:#000000;fill-opacity:1;stroke:none"
       transform="rotate(-99.160816)">
      <tspan
         style="text-anchor:middle"
         id="tspan9791">6.:3</tspan>
    </text>
    <text
       y="11.629458"
       x="-89.298706"
       id="text9797"
       style="font-style:normal;font-size:9px;text-anchor:middle;fill:#000000;fill-opacity:1;stroke:none"
       transform="rotate(-88.203024)">
      <tspan
         style="text-anchor:middle"
         id="tspan9795">1:6.</tspan>
    </text>
    <text
       y="-1.694105"
       x="-199.3035"
       id="text9801"
       style="font-style:normal;font-size:9px;text-anchor:middle;fill:#000000;fill-opacity:1;stroke:none"
       transform="rotate(-96.197385)">
      <tspan
         style="text-anchor:middle"
         id="tspan9799">6.:4</tspan>
    </text>
    <text
       y="3.4710443"
       x="86.681023"
       id="text9805"
       style="font-style:normal;font-size:9px;text-anchor:middle;fill:#000000;fill-opacity:1;stroke:none"
       transform="rotate(41.964752)">
      <tspan
         style="text-anchor:middle"
         id="tspan9803">8:3</tspan>
    </text>
  </g>
  <g
     transform="translate(-12.963796,-354.56905)"
     id="g11076">
    <text
       y="493.57822"
       x="281.58401"
       id="text10896"
       style="font-style:normal;font-size:10px;text-anchor:middle;fill:#000000;fill-opacity:1;stroke:none">
      <tspan
         style="text-anchor:middle"
         id="tspan10894">[13] I 13</tspan>
    </text>
    <path
       style="fill:#e5e5e5;fill-opacity:1;stroke:none;stroke-linecap:butt;stroke-linejoin:bevel;stroke-dasharray:none"
       inkscape:connector-curvature="0"
       id="path10898"
       d="m 209.8563,596 -9.59049,-2.83673 24.9356,-89.44519 9.67486,2.53408 z m 77.26455,-212.47667 8.65686,-5.00834 20.29231,33.83747 -8.49527,5.27778 z m -52.24458,122.72883 -9.97006,0.78892 -6.42474,-67.65964 9.94037,-1.10171 z M 295.08468,596 294.9276,606 h -84.9142 l -0.1571,-10 z m 14.49016,-138.08057 9.87765,1.56726 -5.50258,38.58702 -9.92202,-1.25623 z m -2.00009,-40.28919 9.99549,-0.33893 1.98451,39.97541 -9.97991,0.65271 z m -3.54686,79.18724 9.94548,1.05452 -8.91498,98.86959 L 295.08468,596 Z m -75.60605,-58.53775 -6.70636,-7.41952 58.46927,-54.5421 6.9361,7.20522 z"
       class="sticker" />
    <path
       style="fill:none;stroke:#000000;stroke-width:0.30000001;stroke-linecap:butt;stroke-linejoin:bevel;stroke-dasharray:none;stroke-dashoffset:0;stroke-opacity:1"
       inkscape:connector-curvature="0"
       id="path10900"
       d="m 224.90621,507.04108 -6.42474,-67.65964 9.94037,-1.10171 -6.70636,-7.41952 58.46927,-54.5421 6.9361,7.20522 8.65686,-5.00834 20.29231,33.83747 -8.49527,5.27778 9.99549,-0.33893 1.98451,39.97541 -9.97991,0.65271 9.87765,1.56726 -5.50258,38.58702 -9.92202,-1.25623 9.94548,1.05452 -8.91498,98.86959 L 295.08468,596 294.9276,606 h -84.9142 l -0.1571,-10 -9.59049,-2.83673 24.9356,-89.44519 9.67486,2.53408 z"
       class="outer" />
    <text
       y="360.39835"
       x="-471.16788"
       id="text10904"
       style="font-style:normal;font-size:9px;text-anchor:middle;fill:#000000;fill-opacity:1;stroke:none"
       transform="rotate(-74.42253)">
      <tspan
         style="text-anchor:middle"
         id="tspan10902">4:5</tspan>
    </text>
    <text
       y="-50.788395"
       x="496.46506"
       id="text10908"
       style="font-style:normal;font-size:9px;text-anchor:middle;fill:#000000;fill-opacity:1;stroke:none"
       transform="rotate(59.048929)">
      <tspan
         style="text-anchor:middle"
         id="tspan10906">1:10</tspan>
    </text>
    <text
       y="184.1675"
       x="-492.04922"
       id="text10912"
       style="font-style:normal;font-size:9px;text-anchor:middle;fill:#000000;fill-opacity:1;stroke:none"
       transform="rotate(-95.424383)">
      <tspan
         style="text-anchor:middle"
         id="tspan10910">4:6.</tspan>
    </text>
    <g
       id="g10920">
      <path
         style="fill:#000000;stroke-linecap:butt;stroke-linejoin:bevel;stroke-dasharray:none"
         inkscape:connector-curvature="0"
         id="path10914"
         d="M 0,0 1,1 0,0.25 -1,1 Z"
         class="arrow"
         transform="matrix(-10,0,0,-10,252.47049,596)" />
      <text
         id="text10918"
         style="font-style:normal;font-size:10px;text-anchor:middle;fill:#000000;fill-opacity:1;stroke:none"
         transform="translate(252.47049,591.00001)">
        <tspan
           style="text-anchor:middle"
           id="tspan10916">1</tspan>
      </text>
    </g>
    <text
       y="-597.79999"
       x="-252.4705"
       id="text10924"
       style="font-style:normal;font-size:9px;text-anchor:middle;fill:#000000;fill-opacity:1;stroke:none"
       transform="scale(-1)">
      <tspan
         style="text-anchor:middle"
         id="tspan10922">9.:1</tspan>
    </text>
    <text
       y="-372.92059"
       x="429.27515"
       id="text10928"
       style="font-style:normal;font-size:9px;text-anchor:middle;fill:#000000;fill-opacity:1;stroke:none"
       transform="rotate(98.115785)">
      <tspan
         style="text-anchor:middle"
         id="tspan10926">5:3</tspan>
    </text>
    <text
       y="-288.28955"
       x="452.53616"
       id="text10932"
       style="font-style:normal;font-size:9px;text-anchor:middle;fill:#000000;fill-opacity:1;stroke:none"
       transform="rotate(87.157995)">
      <tspan
         style="text-anchor:middle"
         id="tspan10930">1:12</tspan>
    </text>
    <text
       y="-349.21631"
       x="517.29926"
       id="text10936"
       style="font-style:normal;font-size:9px;text-anchor:middle;fill:#000000;fill-opacity:1;stroke:none"
       transform="rotate(95.152391)">
      <tspan
         style="text-anchor:middle"
         id="tspan10934">5:4</tspan>
    </text>
    <text
       y="474.49832"
       x="-91.792892"
       id="text10940"
       style="font-style:normal;font-size:9px;text-anchor:middle;fill:#000000;fill-opacity:1;stroke:none"
       transform="rotate(-43.009744)">
      <tspan
         style="text-anchor:middle"
         id="tspan10938">8:6.</tspan>
    </text>
  </g>
</svg>
