<?xml version="1.0" encoding="UTF-8" standalone="no"?>
<svg
   xmlns:dc="http://purl.org/dc/elements/1.1/"
   xmlns:cc="http://creativecommons.org/ns#"
   xmlns:rdf="http://www.w3.org/1999/02/22-rdf-syntax-ns#"
   xmlns:svg="http://www.w3.org/2000/svg"
   xmlns="http://www.w3.org/2000/svg"
   xmlns:sodipodi="http://sodipodi.sourceforge.net/DTD/sodipodi-0.dtd"
   xmlns:inkscape="http://www.inkscape.org/namespaces/inkscape"
   version="1.1"
   width="300.00mm"
   height="600.00mm"
   viewBox="0 0 300.00 600.00"
   id="svg1196"
   sodipodi:docname="backrest_page12.svg"
   inkscape:version="0.92.2 (5c3e80d, 2017-08-06)">
  <metadata
     id="metadata187">
    <rdf:RDF>
      <cc:Work
         rdf:about="">
        <dc:format>image/svg+xml</dc:format>
        <dc:type
           rdf:resource="http://purl.org/dc/dcmitype/StillImage" />
      </cc:Work>
    </rdf:RDF>
  </metadata>
  <defs
     id="defs1200" />
  <sodipodi:namedview
     id="namedview1198"
     pagecolor="#ffffff"
     bordercolor="#666666"
     borderopacity="1.0"
     inkscape:pageshadow="2"
     inkscape:pageopacity="0.0"
     inkscape:pagecheckerboard="0"
     inkscape:document-units="mm"
     showgrid="false"
     inkscape:zoom="0.35057292"
     inkscape:cx="466.84157"
     inkscape:cy="1297.1869"
     inkscape:window-width="1920"
     inkscape:window-height="1017"
     inkscape:window-x="-8"
     inkscape:window-y="209"
     inkscape:window-maximized="1"
     inkscape:current-layer="svg1196" />
  <style
     type="text/css"
     id="style824">
    path {
        fill: none;
        stroke-linecap: butt;
        stroke-linejoin: bevel;
        stroke-dasharray: none;
    }
    path.outer {
        stroke: #000000;
        stroke-dasharray: none;
        stroke-dashoffset: 0;
        stroke-width: 0.3;
        stroke-opacity: 1.0;
    }
    path.convex {
        stroke: #000000;
        stroke-dasharray: 0.50,1.00;
        stroke-dashoffset:0;
        stroke-width:0.2;
        stroke-opacity: 1.0
    }
    path.concave {
        stroke: #000000;
        stroke-dasharray: 1.00,0.50,0.20,0.50;
        stroke-dashoffset: 0;
        stroke-width: 0.2;
        stroke-opacity: 1.0
    }
    path.freestyle {
        stroke: #000000;
        stroke-dasharray: none;
        stroke-dashoffset: 0;
        stroke-width: 0.2;
        stroke-opacity: 1.0
    }
    path.outer_background {
        stroke: #ffffff;
        stroke-opacity: 1.0;
        stroke-width: 0.5
    }
    path.inner_background {
        stroke: #ffffff;
        stroke-opacity: 1.0;
        stroke-width: 0.2
    }
    path.sticker {
        fill: #e5e5e5;
        stroke: none;
        fill-opacity: 1.0;
    }
    path.arrow {
        fill: #000000;
    }
    text {
        font-style: normal;
        fill: #000000;
        fill-opacity: 1.0;
        stroke: none;
    }
    text, tspan {
        text-anchor:middle;
    }
    </style>
  <text
     style="font-style:normal;font-size:10px;text-anchor:middle;fill:#000000;fill-opacity:1;stroke:none"
     id="text914"
     x="148.57614"
     y="322.44296">
    <tspan
       id="tspan912"
       style="text-anchor:middle">[5] I 5</tspan>
  </text>
  <path
     class="sticker"
     d="m 268.98901,278.15061 9.92482,1.23376 -10.18014,93.92293 -9.95869,-0.9214 z m -10.18385,147.25316 10.0002,0.1429 0.0649,45.75926 -9.99976,0.17127 z m 2.90484,93.25775 9.91356,-1.32132 7.72077,51.71093 -9.86713,1.63207 z m -113.34896,-239.22115 0.0751,-10.00098 75.55735,-0.61959 0.23911,9.99839 z m 76.08877,291.30512 -0.1707,9.99978 -75.55751,-0.10274 -0.1435,-10.0002 z m -0.21723,-291.9273 0.008,-10.00125 44.44231,-0.66289 0.30619,9.99656 z m 45.24462,291.86501 -0.14326,10.00021 -44.71322,0.0619 -0.17091,-9.99978 z m -10.60672,-99.206 9.99136,-0.4439 2.82067,46.87071 -9.97251,0.75751 z m -0.0955,-99.0913 10.00008,0.15141 0.03,52.70366 -9.99991,0.1628 z m -220.861797,0.1249 -9.959206,0.91592 -10.145993,-94.09072 9.925522,-1.2283 z m 0.09603,99.27841 -10.000214,-0.14277 -0.06578,-45.94636 9.999765,-0.17142 z m -10.329599,99.22809 -9.871642,-1.60479 7.577858,-51.73206 9.917178,1.29392 z m 44.810121,-292.22612 0.242647,-9.99826 75.557128,0.64647 0.0715,10.00098 z m 76.088365,291.85115 -0.11586,10.00056 -75.55693,0.31155 -0.198324,-9.99927 z M 27.733526,278.1077 l 0.309773,-9.99645 44.442059,0.67869 0.0044,10.00124 z m 44.97346,292.84747 -0.143293,10.00021 -44.713187,0.0617 -0.170892,-9.99978 z m -37.403978,-51.9808 -9.974597,-0.72942 2.688237,-46.87149 9.992588,0.41575 z m 2.639998,-93.44571 -10.000087,-0.15148 -0.02963,-52.70367 9.999911,-0.16271 z"
     id="path916"
     inkscape:connector-curvature="0"
     style="fill:#e5e5e5;fill-opacity:1;stroke:none;stroke-linecap:butt;stroke-linejoin:bevel;stroke-dasharray:none" />
  <path
     class="freestyle"
     d="m 224.21595,372.40555 -75.87154,0.57759 m 75.87154,-0.57759 34.55905,-0.0197 m -220.861797,0.1249 34.559075,-0.0194 m 75.872132,0.49177 -75.872132,-0.49177 m 151.838952,99.0346 -75.87113,0.28658 m 0,0 -75.871612,-0.0722 m 186.301992,-0.26316 -34.55925,0.0488 m -151.742742,0.21439 -34.559252,0.0489 M 148.34441,372.98314 72.472278,372.49137 m 0,0 -34.559075,0.0194 m 220.861797,-0.1249 -34.55905,0.0197 m 0,0 -75.87154,0.57759 m 75.96682,98.54283 -75.87113,0.28658 m 75.87113,-0.28658 34.55925,-0.0488 m -220.861244,0.31201 34.559252,-0.0489 m 75.871612,0.0722 -75.871612,-0.0722"
     id="path918"
     inkscape:connector-curvature="0"
     style="fill:none;stroke:#000000;stroke-width:0.2;stroke-linecap:butt;stroke-linejoin:bevel;stroke-dasharray:none;stroke-dashoffset:0;stroke-opacity:1" />
  <path
     class="outer"
     d="m 27.942919,425.37718 -0.02963,-52.70367 9.999911,-0.16271 -9.959206,0.91592 -10.145993,-94.09072 9.925522,-1.2283 0.309773,-9.99645 44.442059,0.67869 0.0044,10.00124 0.242647,-9.99826 75.557128,0.64647 0.0715,10.00098 0.0751,-10.00098 75.55735,-0.61959 0.23911,9.99839 0.008,-10.00125 44.44231,-0.66289 0.30619,9.99656 9.92482,1.23376 -10.18014,93.92293 -9.95869,-0.9214 10.00008,0.15141 0.03,52.70366 -9.99991,0.1628 10.0002,0.1429 0.0649,45.75926 -9.99976,0.17127 9.99136,-0.4439 2.82067,46.87071 -9.97251,0.75751 9.91356,-1.32132 7.72077,51.71093 -9.86713,1.63207 -0.14326,10.00021 -44.71322,0.0619 -0.17091,-9.99978 -0.1707,9.99978 -75.55751,-0.10274 -0.1435,-10.0002 -0.11586,10.00056 -75.55693,0.31155 -0.198324,-9.99927 -0.143293,10.00021 -44.713187,0.0617 -0.171002,-9.99982 -9.871642,-1.60479 7.577858,-51.73206 9.917178,1.29392 -9.974597,-0.72942 2.688237,-46.87149 9.992588,0.41575 -10.000214,-0.14277 -0.06578,-45.94636 9.999765,-0.17142 z"
     id="path920"
     inkscape:connector-curvature="0"
     style="fill:none;stroke:#000000;stroke-width:0.30000001;stroke-linecap:butt;stroke-linejoin:bevel;stroke-dasharray:none;stroke-dashoffset:0;stroke-opacity:1" />
  <g
     id="g928"
     transform="translate(12.807972)">
    <path
       transform="matrix(-1.077573,9.941772,-9.941772,-1.077573,251.07404,325.26826)"
       class="arrow"
       d="M 0,0 1,1 0,0.25 -1,1 Z"
       id="path922"
       inkscape:connector-curvature="0"
       style="fill:#000000;stroke-linecap:butt;stroke-linejoin:bevel;stroke-dasharray:none" />
    <text
       transform="translate(242.12644,328.29845)"
       style="font-style:normal;font-size:10px;text-anchor:middle;fill:#000000;fill-opacity:1;stroke:none"
       id="text926">
      <tspan
         id="tspan924"
         style="text-anchor:middle">1</tspan>
    </text>
  </g>
  <text
     transform="rotate(96.186034)"
     style="font-style:normal;font-size:9px;text-anchor:middle;fill:#000000;fill-opacity:1;stroke:none"
     id="text932"
     x="294.93915"
     y="-299.1955">
    <tspan
       id="tspan930"
       style="text-anchor:middle">12:1</tspan>
  </text>
  <g
     id="g940"
     transform="translate(12.807972)">
    <path
       transform="matrix(0.014175,9.99999,-9.99999,0.014175,246.02986,448.44047)"
       class="arrow"
       d="M 0,0 1,1 0,0.25 -1,1 Z"
       id="path934"
       inkscape:connector-curvature="0"
       style="fill:#000000;stroke-linecap:butt;stroke-linejoin:bevel;stroke-dasharray:none" />
    <text
       transform="translate(237.02987,452.45322)"
       style="font-style:normal;font-size:10px;text-anchor:middle;fill:#000000;fill-opacity:1;stroke:none"
       id="text938">
      <tspan
         id="tspan936"
         style="text-anchor:middle">2</tspan>
    </text>
  </g>
  <text
     transform="rotate(89.918755)"
     style="font-style:normal;font-size:9px;text-anchor:middle;fill:#000000;fill-opacity:1;stroke:none"
     id="text944"
     x="448.80707"
     y="-260.00168">
    <tspan
       id="tspan942"
       style="text-anchor:middle">12:2</tspan>
  </text>
  <g
     id="g952"
     transform="translate(12.807972)">
    <path
       transform="matrix(1.476699,9.890367,-9.890367,1.476699,252.78563,544.67237)"
       class="arrow"
       d="M 0,0 1,1 0,0.25 -1,1 Z"
       id="path946"
       inkscape:connector-curvature="0"
       style="fill:#000000;stroke-linecap:butt;stroke-linejoin:bevel;stroke-dasharray:none" />
    <text
       transform="translate(243.8843,550.0014)"
       style="font-style:normal;font-size:10px;text-anchor:middle;fill:#000000;fill-opacity:1;stroke:none"
       id="text950">
      <tspan
         id="tspan948"
         style="text-anchor:middle">3</tspan>
    </text>
  </g>
  <text
     transform="rotate(81.508079)"
     style="font-style:normal;font-size:9px;text-anchor:middle;fill:#000000;fill-opacity:1;stroke:none"
     id="text956"
     x="577.92108"
     y="-184.04994">
    <tspan
       id="tspan954"
       style="text-anchor:middle">12:3</tspan>
  </text>
  <g
     id="g964"
     transform="translate(12.807972)">
    <path
       transform="matrix(9.999664,-0.082004,0.082004,9.999664,173.48884,279.12926)"
       class="arrow"
       d="M 0,0 1,1 0,0.25 -1,1 Z"
       id="path958"
       inkscape:connector-curvature="0"
       style="fill:#000000;stroke-linecap:butt;stroke-linejoin:bevel;stroke-dasharray:none" />
    <text
       transform="translate(173.56265,292.12898)"
       style="font-style:normal;font-size:10px;text-anchor:middle;fill:#000000;fill-opacity:1;stroke:none"
       id="text962">
      <tspan
         id="tspan960"
         style="text-anchor:middle">4</tspan>
    </text>
  </g>
  <text
     transform="rotate(-0.46983084)"
     style="font-style:normal;font-size:9px;text-anchor:middle;fill:#000000;fill-opacity:1;stroke:none"
     id="text968"
     x="183.98882"
     y="278.85547">
    <tspan
       id="tspan966"
       style="text-anchor:middle">15:4</tspan>
  </text>
  <g
     id="g976"
     transform="translate(12.807972)">
    <path
       transform="matrix(-9.999991,-0.013597,0.013597,-9.999991,173.70598,570.69391)"
       class="arrow"
       d="M 0,0 1,1 0,0.25 -1,1 Z"
       id="path970"
       inkscape:connector-curvature="0"
       style="fill:#000000;stroke-linecap:butt;stroke-linejoin:bevel;stroke-dasharray:none" />
    <text
       transform="translate(173.71822,565.69392)"
       style="font-style:normal;font-size:10px;text-anchor:middle;fill:#000000;fill-opacity:1;stroke:none"
       id="text974">
      <tspan
         id="tspan972"
         style="text-anchor:middle">5</tspan>
    </text>
  </g>
  <text
     transform="rotate(-179.92208)"
     style="font-style:normal;font-size:9px;text-anchor:middle;fill:#000000;fill-opacity:1;stroke:none"
     id="text980"
     x="-187.28992"
     y="-572.23981">
    <tspan
       id="tspan978"
       style="text-anchor:middle">18:5</tspan>
  </text>
  <text
     transform="rotate(-0.85454075)"
     style="font-style:normal;font-size:9px;text-anchor:middle;fill:#000000;fill-opacity:1;stroke:none"
     id="text984"
     x="242.43416"
     y="280.32797">
    <tspan
       id="tspan982"
       style="text-anchor:middle">15:1</tspan>
  </text>
  <g
     id="g992"
     transform="translate(12.807972)">
    <path
       transform="matrix(-9.999991,0.013833,-0.013833,-9.999991,234.15552,570.71435)"
       class="arrow"
       d="M 0,0 1,1 0,0.25 -1,1 Z"
       id="path986"
       inkscape:connector-curvature="0"
       style="fill:#000000;stroke-linecap:butt;stroke-linejoin:bevel;stroke-dasharray:none" />
    <text
       transform="translate(234.14307,565.71436)"
       style="font-style:normal;font-size:10px;text-anchor:middle;fill:#000000;fill-opacity:1;stroke:none"
       id="text990">
      <tspan
         id="tspan988"
         style="text-anchor:middle">6.</tspan>
    </text>
  </g>
  <text
     transform="rotate(179.92076)"
     style="font-style:normal;font-size:9px;text-anchor:middle;fill:#000000;fill-opacity:1;stroke:none"
     id="text996"
     x="-246.17395"
     y="-572.85535">
    <tspan
       id="tspan994"
       style="text-anchor:middle">18:6.</tspan>
  </text>
  <text
     transform="rotate(86.556112)"
     style="font-style:normal;font-size:9px;text-anchor:middle;fill:#000000;fill-opacity:1;stroke:none"
     id="text1000"
     x="509.81122"
     y="-231.88089">
    <tspan
       id="tspan998"
       style="text-anchor:middle">12:3</tspan>
  </text>
  <g
     id="g1008"
     transform="translate(12.807972)">
    <path
       transform="matrix(0.005689,9.999998,-9.999998,0.005689,245.98211,398.89483)"
       class="arrow"
       d="M 0,0 1,1 0,0.25 -1,1 Z"
       id="path1002"
       inkscape:connector-curvature="0"
       style="fill:#000000;stroke-linecap:butt;stroke-linejoin:bevel;stroke-dasharray:none" />
    <text
       transform="translate(236.98211,402.89995)"
       style="font-style:normal;font-size:10px;text-anchor:middle;fill:#000000;fill-opacity:1;stroke:none"
       id="text1006">
      <tspan
         id="tspan1004"
         style="text-anchor:middle">7</tspan>
    </text>
  </g>
  <text
     transform="rotate(89.967399)"
     style="font-style:normal;font-size:9px;text-anchor:middle;fill:#000000;fill-opacity:1;stroke:none"
     id="text1012"
     x="399.04202"
     y="-260.36304">
    <tspan
       id="tspan1010"
       style="text-anchor:middle">12:7</tspan>
  </text>
  <g
     id="g1020"
     transform="translate(12.807972)">
    <path
       transform="matrix(-1.072105,-9.942364,9.942364,-1.072105,20.015392,325.30924)"
       class="arrow"
       d="M 0,0 1,1 0,0.25 -1,1 Z"
       id="path1014"
       inkscape:connector-curvature="0"
       style="fill:#000000;stroke-linecap:butt;stroke-linejoin:bevel;stroke-dasharray:none" />
    <text
       transform="translate(28.963518,328.34437)"
       style="font-style:normal;font-size:10px;text-anchor:middle;fill:#000000;fill-opacity:1;stroke:none"
       id="text1018">
      <tspan
         id="tspan1016"
         style="text-anchor:middle">8</tspan>
    </text>
  </g>
  <text
     transform="rotate(-96.154569)"
     style="font-style:normal;font-size:9px;text-anchor:middle;fill:#000000;fill-opacity:1;stroke:none"
     id="text1024"
     x="-326.95337"
     y="-4.0426097">
    <tspan
       id="tspan1022"
       style="text-anchor:middle">13:8</tspan>
  </text>
  <g
     id="g1032"
     transform="translate(12.807972)">
    <path
       transform="matrix(-0.014317,-9.99999,9.99999,-0.014317,25.168148,448.65894)"
       class="arrow"
       d="M 0,0 1,1 0,0.25 -1,1 Z"
       id="path1026"
       inkscape:connector-curvature="0"
       style="fill:#000000;stroke-linecap:butt;stroke-linejoin:bevel;stroke-dasharray:none" />
    <text
       transform="translate(34.168138,452.64604)"
       style="font-style:normal;font-size:10px;text-anchor:middle;fill:#000000;fill-opacity:1;stroke:none"
       id="text1030">
      <tspan
         id="tspan1028"
         style="text-anchor:middle">9.</tspan>
    </text>
  </g>
  <text
     transform="rotate(-90.082048)"
     style="font-style:normal;font-size:9px;text-anchor:middle;fill:#000000;fill-opacity:1;stroke:none"
     id="text1036"
     x="-448.71283"
     y="35.533604">
    <tspan
       id="tspan1034"
       style="text-anchor:middle">13:9.</tspan>
  </text>
  <g
     id="g1044"
     transform="translate(12.807972)">
    <path
       transform="matrix(1.449361,-9.89441,9.89441,1.449361,18.683339,544.99584)"
       class="arrow"
       d="M 0,0 1,1 0,0.25 -1,1 Z"
       id="path1038"
       inkscape:connector-curvature="0"
       style="fill:#000000;stroke-linecap:butt;stroke-linejoin:bevel;stroke-dasharray:none" />
    <text
       transform="translate(27.588309,550.30027)"
       style="font-style:normal;font-size:10px;text-anchor:middle;fill:#000000;fill-opacity:1;stroke:none"
       id="text1042">
      <tspan
         id="tspan1040"
         style="text-anchor:middle">10</tspan>
    </text>
  </g>
  <text
     transform="rotate(-81.666427)"
     style="font-style:normal;font-size:9px;text-anchor:middle;fill:#000000;fill-opacity:1;stroke:none"
     id="text1048"
     x="-534.67706"
     y="108.3483">
    <tspan
       id="tspan1046"
       style="text-anchor:middle">13:10</tspan>
  </text>
  <g
     id="g1056"
     transform="translate(12.807972)">
    <path
       transform="matrix(9.999634,0.085559,-0.085559,9.999634,97.617415,279.11579)"
       class="arrow"
       d="M 0,0 1,1 0,0.25 -1,1 Z"
       id="path1050"
       inkscape:connector-curvature="0"
       style="fill:#000000;stroke-linecap:butt;stroke-linejoin:bevel;stroke-dasharray:none" />
    <text
       transform="translate(97.540413,292.11547)"
       style="font-style:normal;font-size:10px;text-anchor:middle;fill:#000000;fill-opacity:1;stroke:none"
       id="text1054">
      <tspan
         id="tspan1052"
         style="text-anchor:middle">11</tspan>
    </text>
  </g>
  <text
     transform="rotate(0.49022887)"
     style="font-style:normal;font-size:9px;text-anchor:middle;fill:#000000;fill-opacity:1;stroke:none"
     id="text1060"
     x="112.8223"
     y="276.3562">
    <tspan
       id="tspan1058"
       style="text-anchor:middle">15:11</tspan>
  </text>
  <g
     id="g1068"
     transform="translate(12.807972)">
    <path
       transform="matrix(-9.999915,0.041233,-0.041233,-9.999915,97.834569,570.79875)"
       class="arrow"
       d="M 0,0 1,1 0,0.25 -1,1 Z"
       id="path1062"
       inkscape:connector-curvature="0"
       style="fill:#000000;stroke-linecap:butt;stroke-linejoin:bevel;stroke-dasharray:none" />
    <text
       transform="translate(97.797458,565.79883)"
       style="font-style:normal;font-size:10px;text-anchor:middle;fill:#000000;fill-opacity:1;stroke:none"
       id="text1066">
      <tspan
         id="tspan1064"
         style="text-anchor:middle">12</tspan>
    </text>
  </g>
  <text
     transform="rotate(179.76377)"
     style="font-style:normal;font-size:9px;text-anchor:middle;fill:#000000;fill-opacity:1;stroke:none"
     id="text1072"
     x="-108.28818"
     y="-573.04993">
    <tspan
       id="tspan1070"
       style="text-anchor:middle">18:12</tspan>
  </text>
  <text
     transform="rotate(0.87494091)"
     style="font-style:normal;font-size:9px;text-anchor:middle;fill:#000000;fill-opacity:1;stroke:none"
     id="text1076"
     x="54.365067"
     y="275.85071">
    <tspan
       id="tspan1074"
       style="text-anchor:middle">15:4</tspan>
  </text>
  <g
     id="g1084"
     transform="translate(12.807972)">
    <path
       transform="matrix(-9.999991,0.013799,-0.013799,-9.999991,37.385327,570.98624)"
       class="arrow"
       d="M 0,0 1,1 0,0.25 -1,1 Z"
       id="path1078"
       inkscape:connector-curvature="0"
       style="fill:#000000;stroke-linecap:butt;stroke-linejoin:bevel;stroke-dasharray:none" />
    <text
       transform="translate(37.372907,565.98625)"
       style="font-style:normal;font-size:10px;text-anchor:middle;fill:#000000;fill-opacity:1;stroke:none"
       id="text1082">
      <tspan
         id="tspan1080"
         style="text-anchor:middle">13</tspan>
    </text>
  </g>
  <text
     transform="rotate(179.92093)"
     style="font-style:normal;font-size:9px;text-anchor:middle;fill:#000000;fill-opacity:1;stroke:none"
     id="text1088"
     x="-49.405285"
     y="-572.85498">
    <tspan
       id="tspan1086"
       style="text-anchor:middle">18:13</tspan>
  </text>
  <text
     transform="rotate(-86.717504)"
     style="font-style:normal;font-size:9px;text-anchor:middle;fill:#000000;fill-opacity:1;stroke:none"
     id="text1092"
     x="-492.47025"
     y="63.160969">
    <tspan
       id="tspan1090"
       style="text-anchor:middle">13:3</tspan>
  </text>
  <g
     id="g1100"
     transform="translate(12.807972)">
    <path
       transform="matrix(-0.005622,-9.999998,9.999998,-0.005622,25.120133,399.01973)"
       class="arrow"
       d="M 0,0 1,1 0,0.25 -1,1 Z"
       id="path1094"
       inkscape:connector-curvature="0"
       style="fill:#000000;stroke-linecap:butt;stroke-linejoin:bevel;stroke-dasharray:none" />
    <text
       transform="translate(34.12013,403.01465)"
       style="font-style:normal;font-size:10px;text-anchor:middle;fill:#000000;fill-opacity:1;stroke:none"
       id="text1098">
      <tspan
         id="tspan1096"
         style="text-anchor:middle">14</tspan>
    </text>
  </g>
  <text
     transform="rotate(-90.0322)"
     style="font-style:normal;font-size:9px;text-anchor:middle;fill:#000000;fill-opacity:1;stroke:none"
     id="text1104"
     x="-399.04095"
     y="35.903881">
    <tspan
       id="tspan1102"
       style="text-anchor:middle">13:14</tspan>
  </text>
  <text
     style="font-style:normal;font-size:10px;text-anchor:middle;fill:#000000;fill-opacity:1;stroke:none;stroke-width:1"
     id="text828"
     x="153.26746"
     y="83.395729"
     transform="rotate(2.8483597)">
    <tspan
       style="text-anchor:middle;stroke-width:1"
       id="tspan826">[15] I 15</tspan>
  </text>
  <path
     style="fill:#e5e5e5;fill-opacity:1;stroke:none;stroke-width:1;stroke-linecap:butt;stroke-linejoin:bevel;stroke-dasharray:none"
     inkscape:connector-curvature="0"
     class="sticker"
     d="m 31.238199,70.578991 -5.575266,-8.303077 40.078162,-27.834419 5.833324,8.123851 z m 118.680351,158.051329 -0.10836,10.00065 -75.559497,0.36813 -0.205806,-9.99912 z M 71.574419,42.565346 l 0.02458,-10.001194 75.551101,-1.001141 0.28958,9.997051 z m 2.470449,186.434634 -0.175528,9.99969 -44.44746,-0.0819 -0.138516,-10.00027 z m -44.761644,-0.0825 -10.310781,-1.20803 -13.9509925,-89.1401 9.8554715,-1.70144 z M 14.876922,136.8679 5.205901,134.31911 21.491904,68.335242 l 9.746295,2.243749 z m 208.427998,-96.313142 5.616,-8.275578 40.80166,26.762687 -5.35331,8.447883 z m 2.47046,186.434622 0.0592,10.00106 -75.54274,1.63414 -0.37331,-9.99426 z m -78.33571,-185.429318 0.0246,-10.001213 75.55111,-1.001121 0.28958,9.99703 z M 270.5191,225.7208 l 0.12652,10.00043 -44.42967,1.25968 -0.44043,-9.99153 z m 11.96221,-92.39898 9.89706,1.4397 -11.58411,89.47847 -10.27516,1.48081 z m -18.11204,-65.83207 9.68342,-2.501205 18.02868,65.529125 -9.60006,2.80415 z"
     id="path830" />
  <path
     style="fill:none;stroke:#000000;stroke-width:1;stroke-linecap:butt;stroke-linejoin:bevel;stroke-dasharray:none;stroke-dashoffset:0;stroke-opacity:1"
     inkscape:connector-curvature="0"
     class="freestyle"
     d="m 148.6791,135.0952 75.86526,-1.00556 m 0,0 -75.86526,1.00556 m 0,0 -75.865263,1.00505 m 0,0 75.865263,-1.00505 m -75.865263,1.00505 -57.936914,0.76773 m 0,0 57.936914,-0.76773 m 151.730523,-2.0106 57.93696,-0.76775 m 0,0 -57.93696,0.76775"
     id="path832" />
  <path
     style="fill:none;stroke:#000000;stroke-width:1;stroke-linecap:butt;stroke-linejoin:bevel;stroke-dasharray:none;stroke-dashoffset:0;stroke-opacity:1"
     inkscape:connector-curvature="0"
     class="outer"
     d="m 25.662933,62.275914 40.078162,-27.834419 5.833324,8.123851 0.02458,-10.001194 75.551101,-1.001141 0.28958,9.997051 0.0246,-10.001213 75.55111,-1.001121 0.28958,9.99703 5.616,-8.275578 40.80166,26.762687 -5.35331,8.447883 9.68342,-2.501205 18.02868,65.529125 -9.60006,2.80415 9.89706,1.4397 -11.58411,89.47847 -10.27516,1.48081 0.12652,10.00043 -44.42967,1.25968 -0.44043,-9.99153 0.0592,10.00106 -75.54274,1.63414 -0.37331,-9.99426 -0.10836,10.00064 -75.559504,0.36814 -0.205806,-9.99912 -0.175529,9.99969 -44.447458,-0.0819 -0.138516,-10.00027 -10.310781,-1.20803 -13.9509925,-89.1401 9.8554715,-1.70144 -9.671021,-2.5488 16.286003,-65.983862 9.746294,2.243749 z"
     id="path834" />
  <text
     transform="rotate(-34.780144)"
     style="font-style:normal;font-size:9px;text-anchor:middle;fill:#000000;fill-opacity:1;stroke:none;stroke-width:1"
     id="text838"
     x="9.9520121"
     y="73.989037">
    <tspan
       style="text-anchor:middle;stroke-width:1"
       id="tspan836">7:1</tspan>
  </text>
  <text
     transform="rotate(179.72084)"
     style="font-style:normal;font-size:9px;text-anchor:middle;fill:#000000;fill-opacity:1;stroke:none;stroke-width:1"
     id="text842"
     x="-110.86552"
     y="-231.15802">
    <tspan
       style="text-anchor:middle;stroke-width:1"
       id="tspan840">5:4</tspan>
  </text>
  <g
     transform="rotate(-90.759192,-20.905378,267.97865)"
     id="g850">
    <path
       inkscape:connector-curvature="0"
       transform="matrix(0.150931,-9.99886,9.99886,0.150931,17.149572,341.05873)"
       class="arrow"
       d="M 0,0 1,1 0,0.25 -1,1 Z"
       id="path844"
       style="fill:#000000;stroke-linecap:butt;stroke-linejoin:bevel;stroke-dasharray:none" />
    <text
       transform="translate(26.148546,345.19456)"
       style="font-style:normal;font-size:10px;text-anchor:middle;fill:#000000;fill-opacity:1;stroke:none"
       id="text848">
      <tspan
         id="tspan846"
         style="text-anchor:middle">1</tspan>
    </text>
  </g>
  <text
     transform="rotate(-179.89439)"
     style="font-style:normal;font-size:9px;text-anchor:middle;fill:#000000;fill-opacity:1;stroke:none;stroke-width:0.99999994"
     id="text854"
     x="-52.085987"
     y="-230.66313">
    <tspan
       style="text-anchor:middle;stroke-width:0.99999994"
       id="tspan852">5:1</tspan>
  </text>
  <g
     transform="rotate(-90.759192,-20.905378,267.97865)"
     id="g862">
    <path
       inkscape:connector-curvature="0"
       transform="matrix(9.899355,-1.415196,1.415196,9.899355,63.603555,312.08771)"
       class="arrow"
       d="M 0,0 1,1 0,0.25 -1,1 Z"
       id="path856"
       style="fill:#000000;stroke-linecap:butt;stroke-linejoin:bevel;stroke-dasharray:none" />
    <text
       transform="translate(64.877232,324.99712)"
       style="font-style:normal;font-size:10px;text-anchor:middle;fill:#000000;fill-opacity:1;stroke:none"
       id="text860">
      <tspan
         id="tspan858"
         style="text-anchor:middle">2</tspan>
    </text>
  </g>
  <text
     transform="rotate(-98.895007)"
     style="font-style:normal;font-size:9px;text-anchor:middle;fill:#000000;fill-opacity:1;stroke:none;stroke-width:1"
     id="text866"
     x="-184.10809"
     y="-8.2649956">
    <tspan
       style="text-anchor:middle;stroke-width:1"
       id="tspan864">19:2</tspan>
  </text>
  <g
     transform="rotate(-90.759192,-20.905378,267.97865)"
     id="g874">
    <path
       inkscape:connector-curvature="0"
       transform="matrix(9.676048,2.524698,-2.524698,9.676048,142.75289,314.11409)"
       class="arrow"
       d="M 0,0 1,1 0,0.25 -1,1 Z"
       id="path868"
       style="fill:#000000;stroke-linecap:butt;stroke-linejoin:bevel;stroke-dasharray:none" />
    <text
       transform="translate(140.48066,326.82254)"
       style="font-style:normal;font-size:10px;text-anchor:middle;fill:#000000;fill-opacity:1;stroke:none"
       id="text872">
      <tspan
         id="tspan870"
         style="text-anchor:middle">3</tspan>
    </text>
  </g>
  <text
     transform="rotate(-76.135474)"
     style="font-style:normal;font-size:9px;text-anchor:middle;fill:#000000;fill-opacity:1;stroke:none;stroke-width:1"
     id="text878"
     x="-95.176582"
     y="45.44091">
    <tspan
       style="text-anchor:middle;stroke-width:1"
       id="tspan876">19:3</tspan>
  </text>
  <text
     transform="rotate(33.261758)"
     style="font-style:normal;font-size:9px;text-anchor:middle;fill:#000000;fill-opacity:1;stroke:none;stroke-width:1"
     id="text882"
     x="233.51949"
     y="-90.364067">
    <tspan
       style="text-anchor:middle;stroke-width:1"
       id="tspan880">7:4</tspan>
  </text>
  <text
     transform="rotate(178.76078)"
     style="font-style:normal;font-size:9px;text-anchor:middle;fill:#000000;fill-opacity:1;stroke:none;stroke-width:1"
     id="text886"
     x="-182.87622"
     y="-233.61908">
    <tspan
       style="text-anchor:middle;stroke-width:1"
       id="tspan884">5:11</tspan>
  </text>
  <g
     transform="rotate(-90.759192,-20.905378,267.97865)"
     id="g894">
    <path
       inkscape:connector-curvature="0"
       transform="matrix(-0.150936,-9.99886,9.99886,-0.150936,17.149572,537.55918)"
       class="arrow"
       d="M 0,0 1,1 0,0.25 -1,1 Z"
       id="path888"
       style="fill:#000000;stroke-linecap:butt;stroke-linejoin:bevel;stroke-dasharray:none" />
    <text
       transform="translate(26.148546,541.42333)"
       style="font-style:normal;font-size:10px;text-anchor:middle;fill:#000000;fill-opacity:1;stroke:none"
       id="text892">
      <tspan
         id="tspan890"
         style="text-anchor:middle">4</tspan>
    </text>
  </g>
  <text
     transform="rotate(178.37595)"
     style="font-style:normal;font-size:9px;text-anchor:middle;fill:#000000;fill-opacity:1;stroke:none;stroke-width:1"
     id="text898"
     x="-241.63245"
     y="-235.09697">
    <tspan
       style="text-anchor:middle;stroke-width:1"
       id="tspan896">5:4</tspan>
  </text>
  <g
     transform="rotate(-90.759192,-20.905378,267.97865)"
     id="g906">
    <path
       inkscape:connector-curvature="0"
       transform="matrix(-9.899355,-1.415199,1.415199,-9.899355,63.603555,566.53022)"
       class="arrow"
       d="M 0,0 1,1 0,0.25 -1,1 Z"
       id="path900"
       style="fill:#000000;stroke-linecap:butt;stroke-linejoin:bevel;stroke-dasharray:none" />
    <text
       transform="translate(64.877235,561.6208)"
       style="font-style:normal;font-size:10px;text-anchor:middle;fill:#000000;fill-opacity:1;stroke:none"
       id="text904">
      <tspan
         id="tspan902"
         style="text-anchor:middle">5</tspan>
    </text>
  </g>
  <text
     transform="rotate(97.376618)"
     style="font-style:normal;font-size:9px;text-anchor:middle;fill:#000000;fill-opacity:1;stroke:none;stroke-width:0.99999994"
     id="text910"
     x="142.53539"
     y="-299.06085">
    <tspan
       style="text-anchor:middle;stroke-width:0.99999994"
       id="tspan908">16:5</tspan>
  </text>
  <g
     transform="rotate(-90.759192,-20.905378,267.97865)"
     id="g918">
    <path
       inkscape:connector-curvature="0"
       transform="matrix(-9.676048,2.524697,-2.524697,-9.676048,142.75289,564.50384)"
       class="arrow"
       d="M 0,0 1,1 0,0.25 -1,1 Z"
       id="path912"
       style="fill:#000000;stroke-linecap:butt;stroke-linejoin:bevel;stroke-dasharray:none" />
    <text
       transform="translate(140.48066,559.7954)"
       style="font-style:normal;font-size:10px;text-anchor:middle;fill:#000000;fill-opacity:1;stroke:none"
       id="text916">
      <tspan
         id="tspan914"
         style="text-anchor:middle">6.</tspan>
    </text>
  </g>
  <text
     transform="rotate(74.617088)"
     style="font-style:normal;font-size:9px;text-anchor:middle;fill:#000000;fill-opacity:1;stroke:none;stroke-width:1"
     id="text922"
     x="169.33986"
     y="-238.79512">
    <tspan
       style="text-anchor:middle;stroke-width:1"
       id="tspan920">16:6.</tspan>
  </text>
</svg>
