<?xml version="1.0" encoding="UTF-8" standalone="no"?>
<svg
   xmlns:dc="http://purl.org/dc/elements/1.1/"
   xmlns:cc="http://creativecommons.org/ns#"
   xmlns:rdf="http://www.w3.org/1999/02/22-rdf-syntax-ns#"
   xmlns:svg="http://www.w3.org/2000/svg"
   xmlns="http://www.w3.org/2000/svg"
   xmlns:sodipodi="http://sodipodi.sourceforge.net/DTD/sodipodi-0.dtd"
   xmlns:inkscape="http://www.inkscape.org/namespaces/inkscape"
   version="1.1"
   width="320.00mm"
   height="620.00mm"
   viewBox="0 0 320.00 620.00"
   id="svg13974"
   sodipodi:docname="backrest_page5.svg"
   inkscape:version="0.92.3 (2405546, 2018-03-11)">
  <metadata
     id="metadata13980">
    <rdf:RDF>
      <cc:Work
         rdf:about="">
        <dc:format>image/svg+xml</dc:format>
        <dc:type
           rdf:resource="http://purl.org/dc/dcmitype/StillImage" />
      </cc:Work>
    </rdf:RDF>
  </metadata>
  <defs
     id="defs13978" />
  <sodipodi:namedview
     pagecolor="#ffffff"
     bordercolor="#666666"
     borderopacity="1"
     objecttolerance="10"
     gridtolerance="10"
     guidetolerance="10"
     inkscape:pageopacity="0"
     inkscape:pageshadow="2"
     inkscape:window-width="1853"
     inkscape:window-height="1025"
     id="namedview13976"
     showgrid="false"
     inkscape:zoom="0.28485759"
     inkscape:cx="802.02495"
     inkscape:cy="995.95801"
     inkscape:window-x="67"
     inkscape:window-y="27"
     inkscape:window-maximized="1"
     inkscape:current-layer="svg13974" />
  <style
     type="text/css"
     id="style13814">
    path {
        fill: none;
        stroke-linecap: butt;
        stroke-linejoin: bevel;
        stroke-dasharray: none;
    }
    path.outer {
        stroke: #000000;
        stroke-dasharray: none;
        stroke-dashoffset: 0;
        stroke-width: 0.3;
        stroke-opacity: 1.0;
    }
    path.convex {
        stroke: #000000;
        stroke-dasharray: 0.50,1.00;
        stroke-dashoffset:0;
        stroke-width:0.2;
        stroke-opacity: 1.0
    }
    path.concave {
        stroke: #000000;
        stroke-dasharray: 1.00,0.50,0.20,0.50;
        stroke-dashoffset: 0;
        stroke-width: 0.2;
        stroke-opacity: 1.0
    }
    path.freestyle {
        stroke: #000000;
        stroke-dasharray: none;
        stroke-dashoffset: 0;
        stroke-width: 0.2;
        stroke-opacity: 1.0
    }
    path.outer_background {
        stroke: #ffffff;
        stroke-opacity: 1.0;
        stroke-width: 0.5
    }
    path.inner_background {
        stroke: #ffffff;
        stroke-opacity: 1.0;
        stroke-width: 0.2
    }
    path.sticker {
        fill: #e5e5e5;
        stroke: none;
        fill-opacity: 1.0;
    }
    path.arrow {
        fill: #000000;
    }
    text {
        font-style: normal;
        fill: #000000;
        fill-opacity: 1.0;
        stroke: none;
    }
    text, tspan {
        text-anchor:middle;
    }
    </style>
  <g
     id="g13880"
     transform="translate(93.26271,7.8813558)">
    <text
       id="text13818"
       style="font-style:normal;font-size:10px;text-anchor:middle;fill:#000000;fill-opacity:1;stroke:none"
       transform="translate(109.50004,272.36658)">
      <tspan
         style="text-anchor:middle"
         id="tspan13816">[2] I 2</tspan>
    </text>
    <path
       style="fill:#e5e5e5;fill-opacity:1;stroke:none;stroke-linecap:butt;stroke-linejoin:bevel;stroke-dasharray:none"
       inkscape:connector-curvature="0"
       id="path13820"
       d="m 207.00005,397.29437 10,0.15712 -10e-6,106.43718 -10.00002,0.15708 z m -2e-5,154.81815 10.00002,0.15712 -3e-5,45.57323 -10,0.15706 z m 5e-5,-373.84561 6.58001,0.10336 v 12.95325 l -6.58001,0.10338 z m 1e-5,-18.21521 9.10759,0.14308 v 17.92905 l -9.1076,0.14308 z m -1e-5,-74.784812 10,0.157058 v 37.357664 l -10,0.15708 z m 0,173.888712 9.99999,0.15709 v 38.97735 l -10.00001,0.15709 z m 0,-136.21691 10,0.15712 v 36.7988 l -9.99999,0.15709 z m 0,91.19445 9.99999,0.15706 v 44.70831 l -9.99999,0.15709 z m -2e-5,84.31399 10.00001,0.15712 -3e-5,98.53306 -9.99999,0.15706 z m -4e-5,205.59862 10.00002,0.15709 v 47.75259 l -10.00001,0.15709 z m 6e-5,-312.61885 10,0.15709 -1e-5,22.39204 -9.99999,0.15711 z M 12.000039,504.04572 2.000004,503.88867 l 6e-5,-106.43721 9.99999,-0.15712 z m -4.4e-5,93.95421 -10.000036,-0.15712 7.5e-5,-45.57326 9.999975,-0.15709 z m 48.750013,0 -0.157088,9.99999 H 39.043888 l -0.157058,-9.99999 z m 146.250012,0 -0.15709,9.99999 h -75.55777 l -0.15709,-9.99999 z m -159.07805,-406.5766 -6.509587,-6.51792 12.626589,-13.01301 6.711095,6.31023 z m -35.921916,205.87101 -9.99999,-0.15709 1.5e-5,-98.53303 9.99999,-0.15709 z m 48.750013,-219.09171 -3.369197,-9.41664 48.02936,-18.04048 3.66333,9.30613 z m 100.150003,-92.935742 0.15709,-10.00005 h 45.78583 l 0.15709,10.00005 z m -51.82651,74.784752 -10.000001,-0.15705 -7e-6,-36.79884 10.000008,-0.15709 z m -88.776152,59.62763 -7.040679,-7.10306 27.404934,-28.03129 7.260307,6.87841 z m -8.297339,39.4763 -9.753868,-2.21062 8.232728,-39.16886 9.818479,1.90318 z m 119.128001,338.84436 -0.15708,10.00005 -70.063894,-6e-5 -0.157088,-9.99999 z m 1.59234,-503.292977 -3.02751,-9.531975 27.88174,-9.340286 3.32543,9.432196 z m -23.64685,28.231707 -7.56524,-6.54152 23.44511,-27.990875 7.76698,6.300688 z m -70.18673,475.06127 -0.157118,9.99999 H 12.157053 l -0.157058,-9.99999 z m -26.886761,-299.5528 -10.00002,-0.15709 1.5e-5,-38.97735 10.000005,-0.15712 z m -6e-5,253.66533 -9.999975,-0.15709 v -47.75253 l 10.000005,-0.15712 z"
       class="sticker" />
    <path
       style="fill:none;stroke:#000000;stroke-width:0.30000001;stroke-linecap:butt;stroke-linejoin:bevel;stroke-dasharray:none;stroke-dashoffset:0;stroke-opacity:1"
       inkscape:connector-curvature="0"
       id="path13822"
       d="m 2.000064,397.13725 1.5e-5,-98.53303 9.99999,-0.15709 -10.00002,-0.15709 1.5e-5,-38.97735 10.000005,-0.15712 -9.753868,-2.21062 8.232728,-39.16886 9.818479,1.90318 -7.040679,-7.10306 27.404934,-28.03129 7.260307,6.87841 -6.509587,-6.51792 12.626589,-13.01301 6.711095,6.31023 -3.369197,-9.41664 48.02936,-18.04048 3.66333,9.30613 -10.000001,-0.15705 -7e-6,-36.79884 10.000008,-0.15709 -7.56524,-6.54152 23.44511,-27.990875 7.76698,6.300688 -3.02751,-9.531975 27.88174,-9.340286 3.32543,9.432196 0.15709,-10.00005 h 45.78583 l 0.15709,10.00005 10,0.157058 v 37.357664 l -10,0.15708 10,0.15712 v 36.7988 l -9.99999,0.15709 9.10759,0.14308 v 17.92905 l -9.1076,0.14308 6.58001,0.10336 v 12.95325 l -6.58001,0.10338 10,0.15709 -1e-5,22.39204 -9.99999,0.15711 9.99999,0.15706 v 44.70831 l -9.99999,0.15709 9.99999,0.15709 v 38.97735 l -10.00001,0.15709 10.00001,0.15712 -3e-5,98.53306 -9.99999,0.15706 10,0.15712 -10e-6,106.43718 -10.00002,0.15708 10.00002,0.15709 v 47.75259 l -10.00001,0.15709 10.00002,0.15712 -3e-5,45.57323 -10,0.15706 -0.15709,9.99999 h -75.55777 l -0.15709,-9.99999 -0.15708,10.00005 -70.063894,-6e-5 -0.157088,-9.99999 -0.157088,9.99999 H 39.043888 l -0.157058,-9.99999 -0.157118,9.99999 H 12.157053 l -0.157058,-9.99999 -10.000036,-0.15712 7.5e-5,-45.57326 9.999975,-0.15709 -9.999975,-0.15709 v -47.75253 l 10.000005,-0.15712 -10.000035,-0.15705 6e-5,-106.43721 9.99999,-0.15712 z"
       class="outer" />
    <text
       id="text13826"
       style="font-style:normal;font-size:9px;text-anchor:middle;fill:#000000;fill-opacity:1;stroke:none"
       transform="rotate(90,-183.12809,391.92811)">
      <tspan
         style="text-anchor:middle"
         id="tspan13824">3:2</tspan>
    </text>
    <g
       id="g13834">
      <path
         style="fill:#000000;stroke-linecap:butt;stroke-linejoin:bevel;stroke-dasharray:none"
         inkscape:connector-curvature="0"
         id="path13828"
         d="M 0,0 1,1 0,0.25 -1,1 Z"
         class="arrow"
         transform="matrix(0,10,-10,0,207.00008,104.10279)" />
      <text
         id="text13832"
         style="font-style:normal;font-size:10px;text-anchor:middle;fill:#000000;fill-opacity:1;stroke:none"
         transform="translate(198.00007,108.1028)">
        <tspan
           style="text-anchor:middle"
           id="tspan13830">1</tspan>
      </text>
    </g>
    <text
       id="text13838"
       style="font-style:normal;font-size:9px;text-anchor:middle;fill:#000000;fill-opacity:1;stroke:none"
       transform="rotate(90,52.348643,156.45143)">
      <tspan
         style="text-anchor:middle"
         id="tspan13836">3:1</tspan>
    </text>
    <g
       id="g13846">
      <path
         style="fill:#000000;stroke-linecap:butt;stroke-linejoin:bevel;stroke-dasharray:none"
         inkscape:connector-curvature="0"
         id="path13840"
         d="M 0,0 1,1 0,0.25 -1,1 Z"
         class="arrow"
         transform="matrix(7e-6,-10,10,7e-6,12.000039,575.05619)" />
      <text
         id="text13844"
         style="font-style:normal;font-size:10px;text-anchor:middle;fill:#000000;fill-opacity:1;stroke:none"
         transform="translate(21.000039,579.0562)">
        <tspan
           style="text-anchor:middle"
           id="tspan13842">2</tspan>
      </text>
    </g>
    <text
       id="text13850"
       style="font-style:normal;font-size:9px;text-anchor:middle;fill:#000000;fill-opacity:1;stroke:none"
       transform="rotate(-89.999943,292.62839,282.42809)">
      <tspan
         style="text-anchor:middle"
         id="tspan13848">5:2</tspan>
    </text>
    <text
       id="text13854"
       style="font-style:normal;font-size:9px;text-anchor:middle;fill:#000000;fill-opacity:1;stroke:none"
       transform="rotate(-180,84.532022,299.89997)">
      <tspan
         style="text-anchor:middle"
         id="tspan13852">7:7</tspan>
    </text>
    <text
       id="text13858"
       style="font-style:normal;font-size:9px;text-anchor:middle;fill:#000000;fill-opacity:1;stroke:none"
       transform="translate(183.95008,83.466887)">
      <tspan
         style="text-anchor:middle"
         id="tspan13856">1:7</tspan>
    </text>
    <text
       id="text13862"
       style="font-style:normal;font-size:9px;text-anchor:middle;fill:#000000;fill-opacity:1;stroke:none"
       transform="rotate(-78.130048,154.45093,110.6608)">
      <tspan
         style="text-anchor:middle"
         id="tspan13860">1:8</tspan>
    </text>
    <text
       id="text13866"
       style="font-style:normal;font-size:9px;text-anchor:middle;fill:#000000;fill-opacity:1;stroke:none"
       transform="rotate(-180,12.721702,299.89994)">
      <tspan
         style="text-anchor:middle"
         id="tspan13864">7:9.</tspan>
    </text>
    <g
       id="g13874">
      <path
         style="fill:#000000;stroke-linecap:butt;stroke-linejoin:bevel;stroke-dasharray:none"
         inkscape:connector-curvature="0"
         id="path13868"
         d="M 0,0 1,1 0,0.25 -1,1 Z"
         class="arrow"
         transform="matrix(-2e-6,-9.999999,9.999999,-2e-6,12.000069,278.80135)" />
      <text
         id="text13872"
         style="font-style:normal;font-size:10px;text-anchor:middle;fill:#000000;fill-opacity:1;stroke:none"
         transform="translate(21.000069,282.80136)">
        <tspan
           style="text-anchor:middle"
           id="tspan13870">3</tspan>
      </text>
    </g>
    <text
       id="text13878"
       style="font-style:normal;font-size:9px;text-anchor:middle;fill:#000000;fill-opacity:1;stroke:none"
       transform="rotate(-90,144.50071,134.30064)">
      <tspan
         style="text-anchor:middle"
         id="tspan13876">5:3</tspan>
    </text>
  </g>
  <g
     id="g14368"
     transform="translate(-0.92882668,40.868374)">
    <text
       transform="rotate(-89.684252)"
       y="53.503426"
       x="-340.25711"
       id="text13884"
       style="font-style:normal;font-size:10px;text-anchor:middle;fill:#000000;fill-opacity:1;stroke:none">
      <tspan
         style="text-anchor:middle"
         id="tspan13882">[11] I 11</tspan>
    </text>
    <path
       style="fill:#e5e5e5;fill-opacity:1;stroke:none;stroke-linecap:butt;stroke-linejoin:bevel;stroke-dasharray:none"
       inkscape:connector-curvature="0"
       id="path13886"
       d="m 30.02554,421.07533 -10.00002,-0.15709 v -75.55775 l 10.00001,-0.1571 z m -10e-6,61.65934 -9.99999,-1.78263 -2e-5,-35.18039 10.00001,-0.15709 z m 0,-37.12011 -9.99999,-0.15708 -2e-5,-24.22506 10.00002,-0.15709 z m 3e-5,94.58885 -10.00001,-0.15712 -3e-5,-57.15453 10.00001,-0.15709 z m 36.99277,-3e-5 -0.15708,10.00002 H 30.18266 l -0.1571,-9.99999 z m -3e-5,-194.99999 10.00002,0.1571 v 203.62975 l -10.00002,0.15712 z m -36.99277,0 -10.00001,-0.15709 v -75.55774 l 10,-0.15709 z m 0,-100.41118 -10.00001,-0.15706 -10e-6,-35.18176 9.99999,-1.78128 z m -10e-6,24.53926 -10,-0.15709 v -24.22505 l 10.00001,-0.15712 z m -2e-5,-61.65936 -9.99999,-0.15709 10e-6,-57.15451 10,-0.15709 z m 2e-5,-57.46869 0.15708,-10.00002 h 36.67859 l 0.15711,9.99999 z m 36.99278,-8.94401 9.99999,0.15712 3e-5,203.62977 -10.00002,0.15709 z"
       class="sticker"
       sodipodi:nodetypes="cccccccccccccccccccccccccccccccccccccccccccccccccccccccccccc" />
    <path
       style="fill:none;stroke:#000000;stroke-width:0.30000001;stroke-linecap:butt;stroke-linejoin:bevel;stroke-dasharray:none;stroke-dashoffset:0;stroke-opacity:1"
       inkscape:connector-curvature="0"
       id="path13888"
       d="m 67.01833,485.61703 v 27.69953 26.88682 L 66.86125,550.2034 H 30.18266 l -0.1571,-9.99999 -10.00001,-0.15712 -3e-5,-57.15453 10.00001,-0.15709 -9.99999,-1.78263 -2e-5,-35.18039 10.00001,-0.15709 -9.99999,-0.15708 -2e-5,-24.22506 10.00002,-0.15709 -10.00002,-0.15709 v -75.55775 l 10.00001,-0.1571 -10.00001,-0.15709 v -75.55774 l 10,-0.15709 -10,-0.15709 v -24.22505 l 10.00001,-0.15712 -10.00001,-0.15706 -10e-6,-35.18176 9.99999,-1.78128 -9.99999,-0.15709 10e-6,-57.15451 10,-0.15709 0.15708,-10.00002 h 36.67859 l 0.15711,9.99999 -3e-5,26.88685 v 27.69951 l 3e-5,64.54169 9.99999,0.15712 3e-5,75.55774 -10.00002,0.15709 10.00002,0.1571 v 75.55772 l -10.00002,0.15712 z"
       class="outer" />
    <g
       transform="translate(-200.97458,-57.796609)"
       id="g13896">
      <path
         style="fill:#000000;stroke-linecap:butt;stroke-linejoin:bevel;stroke-dasharray:none"
         inkscape:connector-curvature="0"
         id="path13890"
         d="M 0,0 1,1 0,0.25 -1,1 Z"
         class="arrow"
         transform="matrix(1e-6,-10,10,1e-6,231.0001,521.97123)" />
      <text
         id="text13894"
         style="font-style:normal;font-size:10px;text-anchor:middle;fill:#000000;fill-opacity:1;stroke:none"
         transform="translate(240.0001,525.97123)">
        <tspan
           style="text-anchor:middle"
           id="tspan13892">1</tspan>
      </text>
    </g>
    <text
       y="28.22551"
       x="-464.17462"
       id="text13900"
       style="font-style:normal;font-size:9px;text-anchor:middle;fill:#000000;fill-opacity:1;stroke:none"
       transform="rotate(-90)">
      <tspan
         style="text-anchor:middle"
         id="tspan13898">4:1</tspan>
    </text>
    <g
       transform="translate(-200.97458,-57.796609)"
       id="g13908">
      <path
         style="fill:#000000;stroke-linecap:butt;stroke-linejoin:bevel;stroke-dasharray:none"
         inkscape:connector-curvature="0"
         id="path13902"
         d="M 0,0 1,1 0,0.25 -1,1 Z"
         class="arrow"
         transform="matrix(-6e-6,-10,10,-6e-6,231.00012,569.26563)" />
      <text
         id="text13906"
         style="font-style:normal;font-size:10px;text-anchor:middle;fill:#000000;fill-opacity:1;stroke:none"
         transform="translate(240.00013,573.26563)">
        <tspan
           style="text-anchor:middle"
           id="tspan13904">2</tspan>
      </text>
    </g>
    <text
       y="28.225019"
       x="-511.46906"
       id="text13912"
       style="font-style:normal;font-size:9px;text-anchor:middle;fill:#000000;fill-opacity:1;stroke:none"
       transform="rotate(-90.000057)">
      <tspan
         style="text-anchor:middle"
         id="tspan13910">10:2</tspan>
    </text>
    <text
       y="-542.00342"
       x="-48.521919"
       id="text13916"
       style="font-style:normal;font-size:9px;text-anchor:middle;fill:#000000;fill-opacity:1;stroke:none"
       transform="scale(-1)">
      <tspan
         style="text-anchor:middle"
         id="tspan13914">6.:2</tspan>
    </text>
    <g
       transform="translate(-200.97458,-57.796609)"
       id="g13924">
      <path
         style="fill:#000000;stroke-linecap:butt;stroke-linejoin:bevel;stroke-dasharray:none"
         inkscape:connector-curvature="0"
         id="path13918"
         d="M 0,0 1,1 0,0.25 -1,1 Z"
         class="arrow"
         transform="matrix(1e-6,10,-10,1e-6,267.99291,440.93598)" />
      <text
         id="text13922"
         style="font-style:normal;font-size:10px;text-anchor:middle;fill:#000000;fill-opacity:1;stroke:none"
         transform="translate(258.99291,444.93598)">
        <tspan
           style="text-anchor:middle"
           id="tspan13920">3</tspan>
      </text>
    </g>
    <text
       y="-68.818336"
       x="383.13937"
       id="text13928"
       style="font-style:normal;font-size:9px;text-anchor:middle;fill:#000000;fill-opacity:1;stroke:none"
       transform="rotate(90)">
      <tspan
         style="text-anchor:middle"
         id="tspan13926">14:3</tspan>
    </text>
    <g
       transform="translate(-200.97458,-57.796609)"
       id="g13936">
      <path
         style="fill:#000000;stroke-linecap:butt;stroke-linejoin:bevel;stroke-dasharray:none"
         inkscape:connector-curvature="0"
         id="path13930"
         d="M 0,0 1,1 0,0.25 -1,1 Z"
         class="arrow"
         transform="matrix(-7e-6,-10.000001,10.000001,-7e-6,231.0001,284.02877)" />
      <text
         id="text13934"
         style="font-style:normal;font-size:10px;text-anchor:middle;fill:#000000;fill-opacity:1;stroke:none"
         transform="translate(240.0001,288.02878)">
        <tspan
           style="text-anchor:middle"
           id="tspan13932">4</tspan>
      </text>
    </g>
    <text
       y="28.225283"
       x="-226.23218"
       id="text13940"
       style="font-style:normal;font-size:9px;text-anchor:middle;fill:#000000;fill-opacity:1;stroke:none"
       transform="rotate(-90.000057)">
      <tspan
         style="text-anchor:middle"
         id="tspan13938">4:4</tspan>
    </text>
    <g
       transform="translate(-200.97458,-57.796609)"
       id="g13948">
      <path
         style="fill:#000000;stroke-linecap:butt;stroke-linejoin:bevel;stroke-dasharray:none"
         inkscape:connector-curvature="0"
         id="path13942"
         d="M 0,0 1,1 0,0.25 -1,1 Z"
         class="arrow"
         transform="matrix(3e-6,-10,10,3e-6,231.0001,236.73439)" />
      <text
         id="text13946"
         style="font-style:normal;font-size:10px;text-anchor:middle;fill:#000000;fill-opacity:1;stroke:none"
         transform="translate(240.0001,240.7344)">
        <tspan
           style="text-anchor:middle"
           id="tspan13944">5</tspan>
      </text>
    </g>
    <text
       y="28.225517"
       x="-178.93779"
       id="text13952"
       style="font-style:normal;font-size:9px;text-anchor:middle;fill:#000000;fill-opacity:1;stroke:none"
       transform="rotate(-90)">
      <tspan
         style="text-anchor:middle"
         id="tspan13950">9.:5</tspan>
    </text>
    <text
       y="148.40343"
       x="48.521912"
       id="text13956"
       style="font-style:normal;font-size:9px;text-anchor:middle;fill:#000000;fill-opacity:1;stroke:none">
      <tspan
         style="text-anchor:middle"
         id="tspan13954">5:2</tspan>
    </text>
    <g
       transform="translate(-200.97458,-57.796609)"
       id="g13964">
      <path
         style="fill:#000000;stroke-linecap:butt;stroke-linejoin:bevel;stroke-dasharray:none"
         inkscape:connector-curvature="0"
         id="path13958"
         d="M 0,0 1,1 0,0.25 -1,1 Z"
         class="arrow"
         transform="matrix(1e-6,10,-10,1e-6,267.99288,365.06403)" />
      <text
         id="text13962"
         style="font-style:normal;font-size:10px;text-anchor:middle;fill:#000000;fill-opacity:1;stroke:none"
         transform="translate(258.99288,369.06403)">
        <tspan
           style="text-anchor:middle"
           id="tspan13960">6.</tspan>
      </text>
    </g>
    <text
       y="-68.818314"
       x="307.26746"
       id="text13968"
       style="font-style:normal;font-size:9px;text-anchor:middle;fill:#000000;fill-opacity:1;stroke:none"
       transform="rotate(90)">
      <tspan
         style="text-anchor:middle"
         id="tspan13966">14:6.</tspan>
    </text>
  </g>
  <g
     id="g10017"
     transform="translate(-312.8233,-376.46514)" />
</svg>
