<?xml version="1.0" encoding="UTF-8" standalone="no"?>
<svg
   xmlns:dc="http://purl.org/dc/elements/1.1/"
   xmlns:cc="http://creativecommons.org/ns#"
   xmlns:rdf="http://www.w3.org/1999/02/22-rdf-syntax-ns#"
   xmlns:svg="http://www.w3.org/2000/svg"
   xmlns="http://www.w3.org/2000/svg"
   xmlns:sodipodi="http://sodipodi.sourceforge.net/DTD/sodipodi-0.dtd"
   xmlns:inkscape="http://www.inkscape.org/namespaces/inkscape"
   version="1.1"
   width="320.00mm"
   height="620.00mm"
   viewBox="0 0 320.00 620.00"
   id="svg16179"
   sodipodi:docname="backrest_page6.svg"
   inkscape:version="0.92.3 (2405546, 2018-03-11)">
  <metadata
     id="metadata16185">
    <rdf:RDF>
      <cc:Work
         rdf:about="">
        <dc:format>image/svg+xml</dc:format>
        <dc:type
           rdf:resource="http://purl.org/dc/dcmitype/StillImage" />
      </cc:Work>
    </rdf:RDF>
  </metadata>
  <defs
     id="defs16183" />
  <sodipodi:namedview
     pagecolor="#ffffff"
     bordercolor="#666666"
     borderopacity="1"
     objecttolerance="10"
     gridtolerance="10"
     guidetolerance="10"
     inkscape:pageopacity="0"
     inkscape:pageshadow="2"
     inkscape:window-width="1853"
     inkscape:window-height="1025"
     id="namedview16181"
     showgrid="false"
     inkscape:zoom="0.28485759"
     inkscape:cx="398.70919"
     inkscape:cy="1086.8015"
     inkscape:window-x="67"
     inkscape:window-y="27"
     inkscape:window-maximized="1"
     inkscape:current-layer="svg16179" />
  <style
     type="text/css"
     id="style16111">
    path {
        fill: none;
        stroke-linecap: butt;
        stroke-linejoin: bevel;
        stroke-dasharray: none;
    }
    path.outer {
        stroke: #000000;
        stroke-dasharray: none;
        stroke-dashoffset: 0;
        stroke-width: 0.3;
        stroke-opacity: 1.0;
    }
    path.convex {
        stroke: #000000;
        stroke-dasharray: 0.50,1.00;
        stroke-dashoffset:0;
        stroke-width:0.2;
        stroke-opacity: 1.0
    }
    path.concave {
        stroke: #000000;
        stroke-dasharray: 1.00,0.50,0.20,0.50;
        stroke-dashoffset: 0;
        stroke-width: 0.2;
        stroke-opacity: 1.0
    }
    path.freestyle {
        stroke: #000000;
        stroke-dasharray: none;
        stroke-dashoffset: 0;
        stroke-width: 0.2;
        stroke-opacity: 1.0
    }
    path.outer_background {
        stroke: #ffffff;
        stroke-opacity: 1.0;
        stroke-width: 0.5
    }
    path.inner_background {
        stroke: #ffffff;
        stroke-opacity: 1.0;
        stroke-width: 0.2
    }
    path.sticker {
        fill: #e5e5e5;
        stroke: none;
        fill-opacity: 1.0;
    }
    path.arrow {
        fill: #000000;
    }
    text {
        font-style: normal;
        fill: #000000;
        fill-opacity: 1.0;
        stroke: none;
    }
    text, tspan {
        text-anchor:middle;
    }
    </style>
  <g
     id="g16177"
     transform="translate(49.212502,-21.166667)">
    <text
       transform="translate(109.50001,272.36652)"
       style="font-style:normal;font-size:10px;text-anchor:middle;fill:#000000;fill-opacity:1;stroke:none"
       id="text16115">
      <tspan
         id="tspan16113"
         style="text-anchor:middle">[3] I 3</tspan>
    </text>
    <path
       class="sticker"
       d="m 207.00002,397.29445 9.99999,0.15708 v 106.43723 l -9.99999,0.15708 z m 0,154.8181 10,0.15712 -1e-5,45.57323 -9.99999,0.15709 z M 11.999995,504.04584 2.000004,503.88873 V 397.45152 l 9.999991,-0.15707 z m 0,93.95415 -9.999991,-0.15709 v -45.57326 l 9.999991,-0.15709 z m 168.113205,0 -0.15711,10.00002 -21.54897,-3e-5 -0.15709,-9.99999 z m -92.241261,0 -0.157088,9.99999 -75.557739,3e-5 -0.157117,-10.00002 z M 158.25,178.20269 l 6.71107,-6.31023 12.6266,13.01295 -6.50955,6.51792 z m -146.250005,13.22424 -6.579996,-0.10335 3e-5,-12.95325 6.579966,-0.10339 z m 195.000025,107.02026 9.99999,0.15712 v 98.53303 l -9.99999,0.15711 z m -97.0735,-138.39546 3.66335,-9.30616 48.02935,18.04048 -3.36922,9.41664 z m -97.926525,18.21521 -9.10759,-0.14305 v -17.92908 l 9.10756,-0.14305 z m 0,-92.999992 0.157088,-9.999991 h 45.785784 l 0.157118,9.999991 z m 97.926515,37.671772 9.99999,0.15709 4e-5,36.79883 -10.00002,0.15709 z m -97.926515,3e-5 -10.000021,-0.15709 3e-5,-37.357594 9.999991,-0.157118 z m 159.078125,68.48458 7.26035,-6.87841 27.40489,28.03141 -7.04071,7.10303 z m -159.078125,107.02386 -9.999991,-0.15706 -3e-5,-38.97738 9.999991,-0.15712 z m 186.702655,-78.76783 9.81848,-1.90318 8.23274,39.16877 -9.75385,2.21068 z m -40.45262,378.32063 -0.15711,9.99999 -70.063893,3e-5 -0.157088,-10.00002 z M 58.099985,85.266948 l 3.325403,-9.432197 27.881801,9.340286 -3.027499,9.531975 z m 28.179705,9.440064 7.766962,-6.300688 23.445098,27.990876 -7.56524,6.54152 z M 11.999965,160.05176 1.999974,159.89464 v -36.7988 l 10.000021,-0.15709 z m 195.000055,437.94823 -0.15709,9.99999 h -26.57265 l -0.15708,-9.99999 z M 11.999965,259.15563 1.999974,258.99854 v -44.70822 l 10.000021,-0.15709 z m 195.000055,0 9.99999,0.15709 v 38.97741 l -9.99999,0.15706 z m -195.000025,138.13882 -9.999991,-0.15712 -3e-5,-98.53302 10.000021,-0.15712 z m 195.000025,106.75139 9.99999,0.15709 1e-5,47.75253 -10,0.15709 z M 11.999995,552.11255 2.000004,551.95546 V 504.2029 l 9.999991,-0.15706 z m 0,-337.97932 -10.000051,-0.15709 6e-5,-22.39212 9.999991,-0.15709 z"
       id="path16117"
       inkscape:connector-curvature="0"
       style="fill:#e5e5e5;fill-opacity:1;stroke:none;stroke-linecap:butt;stroke-linejoin:bevel;stroke-dasharray:none" />
    <path
       class="outer"
       d="m 113.58987,150.74557 48.02935,18.04048 -3.36922,9.41664 6.71107,-6.31023 12.6266,13.01295 -6.50955,6.51792 7.26035,-6.87841 27.40489,28.03141 -7.04071,7.10303 9.81848,-1.90318 8.23274,39.16877 -9.75385,2.21068 9.99999,0.15709 v 38.97741 l -9.99999,0.15706 9.99999,0.15712 v 98.53303 l -9.99999,0.15711 9.99999,0.15708 v 106.43723 l -9.99999,0.15708 9.99999,0.15709 1e-5,47.75253 -10,0.15709 10,0.15712 -1e-5,45.57323 -9.99999,0.15709 -0.15709,9.99999 h -26.57265 l -0.15708,-9.99999 -0.15711,10.00002 -21.54897,-3e-5 -0.15709,-9.99999 -0.15711,9.99999 -70.063893,3e-5 -0.157088,-10.00002 -0.157088,9.99999 -75.557739,3e-5 -0.157117,-10.00002 -9.999991,-0.15709 v -45.57326 l 9.999991,-0.15709 -9.999991,-0.15709 V 504.2029 l 9.999991,-0.15706 -9.999991,-0.15711 V 397.45152 l 9.999991,-0.15707 -9.999991,-0.15712 -3e-5,-98.53302 10.000021,-0.15712 -9.999991,-0.15706 -3e-5,-38.97738 9.999991,-0.15712 -9.999991,-0.15709 v -44.70822 l 10.000021,-0.15709 -10.000051,-0.15709 6e-5,-22.39212 9.999991,-0.15709 -6.579996,-0.10335 3e-5,-12.95325 6.579966,-0.10339 -9.10759,-0.14305 v -17.92908 l 9.10756,-0.14305 -9.999991,-0.15712 v -36.7988 l 10.000021,-0.15709 -10.000021,-0.15709 3e-5,-37.357594 9.999991,-0.157118 0.157088,-9.999991 h 45.785784 l 0.157118,9.999991 3.325403,-9.432197 27.881801,9.340286 -3.027499,9.531975 7.766962,-6.300688 23.445098,27.990876 -7.56524,6.54152 9.99999,0.15709 4e-5,36.79883 -10.00002,0.15709 z"
       id="path16119"
       inkscape:connector-curvature="0"
       style="fill:none;stroke:#000000;stroke-width:0.30000001;stroke-linecap:butt;stroke-linejoin:bevel;stroke-dasharray:none;stroke-dashoffset:0;stroke-opacity:1" />
    <g
       id="g16127">
      <path
         transform="matrix(0,10,-10,0,207.00002,575.05628)"
         class="arrow"
         d="M 0,0 1,1 0,0.25 -1,1 Z"
         id="path16121"
         inkscape:connector-curvature="0"
         style="fill:#000000;stroke-linecap:butt;stroke-linejoin:bevel;stroke-dasharray:none" />
      <text
         transform="translate(198.00001,579.05628)"
         style="font-style:normal;font-size:10px;text-anchor:middle;fill:#000000;fill-opacity:1;stroke:none"
         id="text16125">
        <tspan
           id="tspan16123"
           style="text-anchor:middle">1</tspan>
      </text>
    </g>
    <text
       transform="rotate(90,-183.12812,391.92814)"
       style="font-style:normal;font-size:9px;text-anchor:middle;fill:#000000;fill-opacity:1;stroke:none"
       id="text16131">
      <tspan
         id="tspan16129"
         style="text-anchor:middle">6.:1</tspan>
    </text>
    <g
       id="g16139">
      <path
         transform="matrix(0,-10,10,0,11.999995,575.05625)"
         class="arrow"
         d="M 0,0 1,1 0,0.25 -1,1 Z"
         id="path16133"
         inkscape:connector-curvature="0"
         style="fill:#000000;stroke-linecap:butt;stroke-linejoin:bevel;stroke-dasharray:none" />
      <text
         transform="translate(20.999994,579.05626)"
         style="font-style:normal;font-size:10px;text-anchor:middle;fill:#000000;fill-opacity:1;stroke:none"
         id="text16137">
        <tspan
           id="tspan16135"
           style="text-anchor:middle">2</tspan>
      </text>
    </g>
    <text
       transform="rotate(-90,292.62812,282.42813)"
       style="font-style:normal;font-size:9px;text-anchor:middle;fill:#000000;fill-opacity:1;stroke:none"
       id="text16143">
      <tspan
         id="tspan16141"
         style="text-anchor:middle">2:2</tspan>
    </text>
    <text
       transform="rotate(180,24.967983,299.9)"
       style="font-style:normal;font-size:9px;text-anchor:middle;fill:#000000;fill-opacity:1;stroke:none"
       id="text16147">
      <tspan
         id="tspan16145"
         style="text-anchor:middle">7:2</tspan>
    </text>
    <text
       transform="translate(35.049975,83.466947)"
       style="font-style:normal;font-size:9px;text-anchor:middle;fill:#000000;fill-opacity:1;stroke:none"
       id="text16151">
      <tspan
         id="tspan16149"
         style="text-anchor:middle">1:1</tspan>
    </text>
    <text
       transform="rotate(-90,57.151422,46.951428)"
       style="font-style:normal;font-size:9px;text-anchor:middle;fill:#000000;fill-opacity:1;stroke:none"
       id="text16155">
      <tspan
         id="tspan16153"
         style="text-anchor:middle">2:1</tspan>
    </text>
    <text
       transform="rotate(78.129992,-44.951108,245.56886)"
       style="font-style:normal;font-size:9px;text-anchor:middle;fill:#000000;fill-opacity:1;stroke:none"
       id="text16159">
      <tspan
         id="tspan16157"
         style="text-anchor:middle">1:2</tspan>
    </text>
    <text
       transform="rotate(-180,96.778296,299.9)"
       style="font-style:normal;font-size:9px;text-anchor:middle;fill:#000000;fill-opacity:1;stroke:none"
       id="text16163">
      <tspan
         id="tspan16161"
         style="text-anchor:middle">7:4</tspan>
    </text>
    <g
       id="g16171">
      <path
         transform="matrix(-2e-6,10,-10,-2e-6,207.00002,278.80141)"
         class="arrow"
         d="M 0,0 1,1 0,0.25 -1,1 Z"
         id="path16165"
         inkscape:connector-curvature="0"
         style="fill:#000000;stroke-linecap:butt;stroke-linejoin:bevel;stroke-dasharray:none" />
      <text
         transform="translate(198.00001,282.80142)"
         style="font-style:normal;font-size:10px;text-anchor:middle;fill:#000000;fill-opacity:1;stroke:none"
         id="text16169">
        <tspan
           id="tspan16167"
           style="text-anchor:middle">3</tspan>
      </text>
    </g>
    <text
       transform="rotate(90,-35.000696,243.80071)"
       style="font-style:normal;font-size:9px;text-anchor:middle;fill:#000000;fill-opacity:1;stroke:none"
       id="text16175">
      <tspan
         id="tspan16173"
         style="text-anchor:middle">6.:3</tspan>
    </text>
  </g>
</svg>
