<?xml version="1.0" encoding="UTF-8" standalone="no"?>
<svg
   version="1.1"
   width="300.00mm"
   height="600.00mm"
   viewBox="0 0 300.00 600.00"
   id="svg938"
   sodipodi:docname="backrest_page14.svg"
   inkscape:version="1.1.1 (c3084ef, 2021-09-22)"
   xmlns:inkscape="http://www.inkscape.org/namespaces/inkscape"
   xmlns:sodipodi="http://sodipodi.sourceforge.net/DTD/sodipodi-0.dtd"
   xmlns="http://www.w3.org/2000/svg"
   xmlns:svg="http://www.w3.org/2000/svg">
  <defs
     id="defs942" />
  <sodipodi:namedview
     id="namedview940"
     pagecolor="#ffffff"
     bordercolor="#666666"
     borderopacity="1.0"
     inkscape:pageshadow="2"
     inkscape:pageopacity="0.0"
     inkscape:pagecheckerboard="0"
     inkscape:document-units="mm"
     showgrid="false"
     inkscape:zoom="0.35057292"
     inkscape:cx="566.21601"
     inkscape:cy="1133.8583"
     inkscape:window-width="1296"
     inkscape:window-height="975"
     inkscape:window-x="0"
     inkscape:window-y="25"
     inkscape:window-maximized="0"
     inkscape:current-layer="svg938" />
  <style
     type="text/css"
     id="style824">
    path {
        fill: none;
        stroke-linecap: butt;
        stroke-linejoin: bevel;
        stroke-dasharray: none;
    }
    path.outer {
        stroke: #000000;
        stroke-dasharray: none;
        stroke-dashoffset: 0;
        stroke-width: 0.3;
        stroke-opacity: 1.0;
    }
    path.convex {
        stroke: #000000;
        stroke-dasharray: 0.50,1.00;
        stroke-dashoffset:0;
        stroke-width:0.2;
        stroke-opacity: 1.0
    }
    path.concave {
        stroke: #000000;
        stroke-dasharray: 1.00,0.50,0.20,0.50;
        stroke-dashoffset: 0;
        stroke-width: 0.2;
        stroke-opacity: 1.0
    }
    path.freestyle {
        stroke: #000000;
        stroke-dasharray: none;
        stroke-dashoffset: 0;
        stroke-width: 0.2;
        stroke-opacity: 1.0
    }
    path.outer_background {
        stroke: #ffffff;
        stroke-opacity: 1.0;
        stroke-width: 0.5
    }
    path.inner_background {
        stroke: #ffffff;
        stroke-opacity: 1.0;
        stroke-width: 0.2
    }
    path.sticker {
        fill: #e5e5e5;
        stroke: none;
        fill-opacity: 1.0;
    }
    path.arrow {
        fill: #000000;
    }
    text {
        font-style: normal;
        fill: #000000;
        fill-opacity: 1.0;
        stroke: none;
    }
    text, tspan {
        text-anchor:middle;
    }
    </style>
  <text
     style="font-size:10px"
     id="text828"
     x="63.295811"
     y="175.0076"><tspan
       id="tspan826">[16] I 16</tspan></text>
  <path
     class="sticker"
     d="M 14.644463,232.7848 5,230.13734 l 23.170646,-89.91858 9.722863,2.34321 z m 73.068396,-213.955995 9.076118,-4.348874 20.434753,32.602787 -8.38977,5.44393 z m -49.81935,123.733165 -9.952613,0.98496 -7.754933,-67.520137 9.916762,-1.297057 z m 61.96282,88.54568 0.03972,10.00115 -84.897741,1.67096 -0.353844,-9.99496 z m 11.770161,-138.338986 9.9066,1.372576 -4.74221,38.68783 -9.94483,-1.06073 z m -2.79253,-40.242016 9.98688,-0.535548 2.77078,39.928616 -9.96513,0.848948 z m -1.98791,79.241692 9.96431,0.85861 -6.89278,97.9616 -10.061251,0.5191 z M 30.102725,74.729736 23.251663,67.443605 80.636312,11.761482 l 7.076547,7.067323 z"
     id="path830" />
  <path
     class="outer"
     d="m 5,230.13734 23.170646,-89.91858 9.722863,2.34321 -9.952613,0.98496 -7.754933,-67.520137 9.916762,-1.297057 -6.851062,-7.286131 57.384649,-55.682123 7.076547,7.067323 9.076118,-4.348874 20.434753,32.602787 -8.38977,5.44393 9.98688,-0.535548 2.77078,39.928616 -9.96513,0.848948 9.9066,1.372576 -4.74221,38.68783 -9.94483,-1.06073 9.96431,0.85861 -6.89278,97.9616 -10.061251,0.5191 0.03972,10.00115 -84.897741,1.67096 -0.353844,-9.99496 z"
     id="path832" />
  <text
     transform="rotate(-75.550117)"
     style="font-size:9px"
     id="text836"
     x="-175.18161"
     y="70.468681"><tspan
       id="tspan834">15:5</tspan></text>
  <text
     transform="rotate(57.921348)"
     style="font-size:9px"
     id="text840"
     x="82.421783"
     y="-66.121155"><tspan
       id="tspan838">9.:4</tspan></text>
  <text
     transform="rotate(-96.551947)"
     style="font-size:9px"
     id="text844"
     x="-111.81558"
     y="19.579151"><tspan
       id="tspan842">15:6.</tspan></text>
  <g
     id="g852">
    <path
       transform="matrix(-9.998063,0.196783,-0.196783,-9.998063,57.250396,231.94622)"
       class="arrow"
       d="M 0,0 1,1 0,0.25 -1,1 Z"
       id="path846" />
    <text
       transform="translate(57.073292,226.94796)"
       style="font-size:10px"
       id="text850"><tspan
         id="tspan848">1</tspan></text>
  </g>
  <text
     transform="rotate(178.87246)"
     style="font-size:9px"
     id="text856"
     x="-52.675079"
     y="-234.82793"><tspan
       id="tspan854">13:1</tspan></text>
  <text
     transform="rotate(94.024842)"
     style="font-size:9px"
     id="text860"
     x="173.73637"
     y="-117.6312"><tspan
       id="tspan858">9.:5</tspan></text>
  <text
     transform="rotate(-44.137298)"
     style="font-size:9px"
     id="text864"
     x="9.7003689"
     y="72.794449"><tspan
       id="tspan862">7:6.</tspan></text>
  <text
     style="font-size:10px"
     id="text870"
     x="82.709053"
     y="370.22119"><tspan
       id="tspan868">[6.] I 6</tspan></text>
  <path
     class="sticker"
     d="m 90.452884,276.30496 -7.307924,-5.60821 10.811508,-14.55608 7.480482,5.37587 z m -10.138206,50.61453 -9.774379,-2.11805 10.076493,-50.30647 9.836092,1.80999 z M 22.262787,435.60412 12.367834,437.05826 5,391.86914 14.844407,390.1049 Z m 21.42255,-102.71242 -1.454153,-9.89494 36.319256,-5.92166 1.764238,9.84439 z M 14.844407,390.1049 5,388.34065 l 4.731841,-29.02142 9.894945,1.45416 z m 4.782379,-29.33151 -7.468425,-6.65186 23.853287,-27.6438 7.673689,6.41397 z m 83.877974,-86.5965 9.89495,-1.45417 11.27467,69.1508 -9.84439,1.76427 z m -2.06781,-12.66035 6.34642,-0.93446 2.03532,12.46146 -6.31393,1.13335 z m 13.39304,82.12125 9.89496,-1.45414 12.1587,74.57302 -9.84439,1.76424 z m 37.80453,231.88862 -5.38544,7.47362 -14.8753,-10.36799 5.14804,-7.63908 z m -15.1127,-10.53345 -8.75173,4.84064 -25.53426,-44.50038 8.59538,-5.11312 z m -107.840624,-83.88962 -9.89496,1.45415 -7.367842,-45.18913 9.844393,-1.76424 z m 82.150014,39.11676 1.45415,9.89493 -36.319241,5.92166 -1.764238,-9.84436 z m -68.298312,-12.82345 -8.920573,4.52195 -13.705283,-26.01536 8.774154,-4.7999 z m 31.668983,18.79568 -5.238928,8.51926 -31.39878,-18.6353 4.968725,-8.67964 z m 64.046669,-32.7883 9.89496,-1.45416 11.2746,69.15082 -9.84441,1.76423 z m 11.32515,69.46089 6.34695,-0.93093 2.02843,12.46259 -6.31456,1.12983 z m -23.53444,-144.34401 9.89495,-1.45416 12.15874,74.57302 -9.8444,1.76426 z"
     id="path872" />
  <path
     class="outer"
     d="m 107.78337,260.58208 2.03532,12.46146 -6.31393,1.13335 9.89495,-1.45417 11.27467,69.1508 -9.84439,1.76427 9.89496,-1.45414 12.1587,74.57302 -9.84439,1.76424 9.89495,-1.45416 12.15874,74.57302 -9.8444,1.76426 9.89496,-1.45416 11.2746,69.15082 -9.84441,1.76423 6.34695,-0.93093 2.02843,12.46259 -6.31456,1.12983 -5.38544,7.47362 -14.8753,-10.36799 5.14804,-7.63908 -8.75173,4.84064 -25.53426,-44.50038 8.59538,-5.11312 1.45415,9.89493 -36.319241,5.92166 -1.764238,-9.84436 -5.238928,8.51926 -31.39878,-18.6353 4.968725,-8.67964 -8.920573,4.52195 -13.705283,-26.01536 8.774154,-4.7999 -9.89496,1.45415 -7.367842,-45.18913 9.844393,-1.76424 -9.894953,1.45414 L 5,391.86914 14.844407,390.1049 5,388.34065 l 4.731841,-29.02142 9.894945,1.45416 -7.468425,-6.65186 23.853287,-27.6438 7.673689,6.41397 -1.454153,-9.89494 36.319256,-5.92166 1.764238,9.84439 -9.774379,-2.11805 10.076493,-50.30647 9.836092,1.80999 -7.307924,-5.60821 10.811508,-14.55608 7.480482,5.37587 z"
     id="path874" />
  <text
     transform="rotate(-53.396941)"
     style="font-size:8.29px"
     id="text878"
     x="-158.66867"
     y="235.70808"><tspan
       id="tspan876">1:1</tspan></text>
  <text
     transform="rotate(80.723795)"
     style="font-size:5.77px"
     id="text882"
     x="280.86166"
     y="-59.11002"><tspan
       id="tspan880">2:2</tspan></text>
  <text
     transform="rotate(-145.12374)"
     style="font-size:8.29px"
     id="text886"
     x="-445.09839"
     y="-386.53604"><tspan
       id="tspan884">1:2</tspan></text>
  <text
     transform="rotate(80.755548)"
     style="font-size:5.77px"
     id="text890"
     x="586.15765"
     y="-59.349991"><tspan
       id="tspan888">2:4</tspan></text>
  <text
     style="font-size:10px"
     id="text896"
     x="215.36394"
     y="416.01752"><tspan
       id="tspan894">[19] I 19</tspan></text>
  <path
     class="sticker"
     d="m 242.7533,481.70923 9.78121,-2.08628 20.7941,90.49774 -9.71085,2.3925 z m -68.54436,-91.87271 -8.24345,-5.66307 21.28648,-32.05309 8.9584,4.58648 z m 78.11913,24.26922 9.87915,1.55785 -9.5307,67.29241 -9.92322,-1.24677 z m 11.28969,158.40745 -0.61697,9.98219 -84.82428,-3.9066 0.30314,-9.99664 z m -89.5088,-103.41007 -9.96933,0.79842 -3.72152,-38.79928 9.93932,-1.11117 z m -3.75153,-39.11203 -9.93932,-1.11116 3.82151,-39.84182 9.96932,0.79841 z m 8.12222,138.60105 -10.04409,-0.78393 -4.31007,-98.10925 9.98347,-0.59584 z m 17.73072,-211.8853 7.26025,-6.87848 55.89804,57.17425 -7.04059,7.10313 z"
     id="path898" />
  <path
     class="outer"
     d="m 262.20722,415.66359 -9.5307,67.29241 -9.92322,-1.24677 9.78121,-2.08628 20.7941,90.49774 -9.71085,2.3925 -0.61697,9.98219 -84.82428,-3.9066 0.30314,-9.99664 -10.04409,-0.78393 -4.31007,-98.10925 9.98347,-0.59584 -9.96933,0.79842 -3.72152,-38.79928 9.93932,-1.11117 -9.93932,-1.11116 3.82151,-39.84182 9.96932,0.79841 -8.24345,-5.66307 21.28648,-32.05309 8.9584,4.58648 7.26025,-6.87848 55.89804,57.17425 -7.04059,7.10313 z"
     id="path900" />
  <text
     transform="rotate(77.059503)"
     style="font-size:9px"
     id="text904"
     x="570.42242"
     y="-130.51472"><tspan
       id="tspan902">15:2</tspan></text>
  <text
     transform="rotate(-56.411873)"
     style="font-size:9px"
     id="text908"
     x="-208.48717"
     y="358.98724"><tspan
       id="tspan906">8:4</tspan></text>
  <text
     transform="rotate(98.061269)"
     style="font-size:9px"
     id="text912"
     x="408.76843"
     y="-309.70547"><tspan
       id="tspan910">15:3</tspan></text>
  <g
     id="g920">
    <path
       transform="matrix(-9.989411,-0.460064,0.460064,-9.989411,221.04872,570.55267)"
       class="arrow"
       d="M 0,0 1,1 0,0.25 -1,1 Z"
       id="path914" />
    <text
       transform="translate(221.46276,565.56219)"
       style="font-size:10px"
       id="text918"><tspan
         id="tspan916">1</tspan></text>
  </g>
  <text
     transform="rotate(-177.36312)"
     style="font-size:9px"
     id="text924"
     x="-247.06352"
     y="-561.57904"><tspan
       id="tspan922">12:1</tspan></text>
  <text
     transform="rotate(-92.515464)"
     style="font-size:9px"
     id="text928"
     x="-526.08521"
     y="151.55264"><tspan
       id="tspan926">8:5</tspan></text>
  <text
     transform="rotate(45.646662)"
     style="font-size:9px"
     id="text932"
     x="432.36429"
     y="107.26818"><tspan
       id="tspan930">7:3</tspan></text>
  <g
     id="g2784"
     transform="rotate(169.05655,156.34847,318.77696)">
    <text
       style="font-size:10px"
       id="text2617"
       x="85.823006"
       y="348.74445"><tspan
         id="tspan2615">[18] I 18</tspan></text>
    <path
       class="sticker"
       d="m 33.134916,436.7004 -9.890786,-1.48225 10.023026,-74.88999 9.932462,1.17083 z m 102.552824,-62.8231 9.89524,1.45217 -9.79544,74.92047 -9.93599,-1.14066 z m -89.232844,-36.70068 -9.890787,-1.48219 4.882321,-36.48061 9.932466,1.17076 z m 95.205994,-7.92912 9.89078,1.48225 -5.93147,44.31838 -9.93246,-1.17083 z m -98.461272,32.25149 -9.89078,-1.48226 3.213596,-24.01096 9.932462,1.17085 z m 8.179278,-61.11441 3.194775,-9.47723 89.982719,28.76723 -2.8955,9.57292 z m -28.308686,211.51721 -9.890785,-1.48224 10.023027,-74.88998 9.932464,1.17083 z m 102.78134,-62.79251 9.88623,1.51229 -10.25059,74.85955 -9.92886,-1.20102 z M 14.890781,573.01622 5,571.53394 l 4.882574,-36.48063 9.932458,1.17086 z m 100.667549,-48.73612 9.89079,1.48224 -5.9314,44.31842 -9.93247,-1.17083 z m -95.743298,11.94407 -9.890788,-1.48221 3.213501,-24.01098 9.932465,1.17081 z m 89.770218,32.68576 0.27629,9.99742 -94.380586,4.09268 -0.590173,-9.98381 z"
       id="path2619" />
    <path
       class="outer"
       d="m 135.73778,450.62157 -10.25059,74.85955 -9.92886,-1.20102 9.89079,1.48224 -5.9314,44.31842 -9.93247,-1.17083 0.27629,9.99742 -94.380586,4.09268 -0.590173,-9.98381 L 5,571.53394 l 4.882574,-36.48063 9.932458,1.17086 -9.890788,-1.48221 3.213501,-24.01098 9.932465,1.17081 -9.890785,-1.48224 10.023027,-74.88998 9.932464,1.17083 -9.890786,-1.48225 10.023026,-74.88999 9.932462,1.17083 -9.89078,-1.48226 3.213596,-24.01096 9.932462,1.17085 -9.890787,-1.48219 4.882321,-36.48061 9.932466,1.17076 3.194775,-9.47723 89.982719,28.76723 -2.8955,9.57292 9.89078,1.48225 -5.93147,44.31838 -9.93246,-1.17083 9.89524,1.45217 -9.79544,74.92047 -9.93599,-1.14066 z"
       id="path2621" />
    <text
       transform="rotate(97.448904)"
       style="font-size:9px"
       id="text2625"
       x="391.06738"
       y="-184.81284"><tspan
         id="tspan2623">5:5</tspan></text>
    <text
       transform="rotate(-82.377191)"
       style="font-size:9px"
       id="text2629"
       x="-309.47455"
       y="88.971191"><tspan
         id="tspan2627">14:1</tspan></text>
    <text
       transform="rotate(97.622987)"
       style="font-size:9px"
       id="text2633"
       x="330.05975"
       y="-185.88504"><tspan
         id="tspan2631">5:6.</tspan></text>
    <text
       transform="rotate(17.728925)"
       style="font-size:9px"
       id="text2637"
       x="187.80171"
       y="268.67319"><tspan
         id="tspan2635">12:1</tspan></text>
    <text
       transform="rotate(97.797074)"
       style="font-size:9px"
       id="text2641"
       x="465.81961"
       y="-187.41637"><tspan
         id="tspan2639">5:12</tspan></text>
    <text
       transform="rotate(-82.376843)"
       style="font-size:9px"
       id="text2645"
       x="-547.4165"
       y="88.973785"><tspan
         id="tspan2643">14:4</tspan></text>
    <text
       transform="rotate(97.62293)"
       style="font-size:9px"
       id="text2649"
       x="526.83148"
       y="-185.88446"><tspan
         id="tspan2647">5:13</tspan></text>
    <text
       transform="rotate(177.517)"
       style="font-size:9px"
       id="text2653"
       x="-37.44376"
       y="-574.9234"><tspan
         id="tspan2651">13:1</tspan></text>
  </g>
</svg>
