<?xml version="1.0" encoding="UTF-8" standalone="no"?>
<svg
   xmlns:dc="http://purl.org/dc/elements/1.1/"
   xmlns:cc="http://creativecommons.org/ns#"
   xmlns:rdf="http://www.w3.org/1999/02/22-rdf-syntax-ns#"
   xmlns:svg="http://www.w3.org/2000/svg"
   xmlns="http://www.w3.org/2000/svg"
   xmlns:sodipodi="http://sodipodi.sourceforge.net/DTD/sodipodi-0.dtd"
   xmlns:inkscape="http://www.inkscape.org/namespaces/inkscape"
   version="1.1"
   width="320.00mm"
   height="620.00mm"
   viewBox="0 0 320.00 620.00"
   id="svg166"
   sodipodi:docname="backrest_page1.svg"
   inkscape:version="0.92.2 (5c3e80d, 2017-08-06)">
  <metadata
     id="metadata172">
    <rdf:RDF>
      <cc:Work
         rdf:about="">
        <dc:format>image/svg+xml</dc:format>
        <dc:type
           rdf:resource="http://purl.org/dc/dcmitype/StillImage" />
      </cc:Work>
    </rdf:RDF>
  </metadata>
  <defs
     id="defs170" />
  <sodipodi:namedview
     pagecolor="#ffffff"
     bordercolor="#666666"
     borderopacity="1"
     objecttolerance="10"
     gridtolerance="10"
     guidetolerance="10"
     inkscape:pageopacity="0"
     inkscape:pageshadow="2"
     inkscape:window-width="1920"
     inkscape:window-height="1017"
     id="namedview168"
     showgrid="false"
     inkscape:zoom="0.80569892"
     inkscape:cx="844.22391"
     inkscape:cy="1962.0553"
     inkscape:window-x="-8"
     inkscape:window-y="209"
     inkscape:window-maximized="1"
     inkscape:current-layer="svg166" />
  <style
     type="text/css"
     id="style2">
    path {
        fill: none;
        stroke-linecap: butt;
        stroke-linejoin: bevel;
        stroke-dasharray: none;
    }
    path.outer {
        stroke: #000000;
        stroke-dasharray: none;
        stroke-dashoffset: 0;
        stroke-width: 0.3;
        stroke-opacity: 1.0;
    }
    path.convex {
        stroke: #000000;
        stroke-dasharray: 0.50,1.00;
        stroke-dashoffset:0;
        stroke-width:0.2;
        stroke-opacity: 1.0
    }
    path.concave {
        stroke: #000000;
        stroke-dasharray: 1.00,0.50,0.20,0.50;
        stroke-dashoffset: 0;
        stroke-width: 0.2;
        stroke-opacity: 1.0
    }
    path.freestyle {
        stroke: #000000;
        stroke-dasharray: none;
        stroke-dashoffset: 0;
        stroke-width: 0.2;
        stroke-opacity: 1.0
    }
    path.outer_background {
        stroke: #ffffff;
        stroke-opacity: 1.0;
        stroke-width: 0.5
    }
    path.inner_background {
        stroke: #ffffff;
        stroke-opacity: 1.0;
        stroke-width: 0.2
    }
    path.sticker {
        fill: #e5e5e5;
        stroke: none;
        fill-opacity: 1.0;
    }
    path.arrow {
        fill: #000000;
    }
    text {
        font-style: normal;
        fill: #000000;
        fill-opacity: 1.0;
        stroke: none;
    }
    text, tspan {
        text-anchor:middle;
    }
    </style>
  <path
     d="m 145.86575,310.0844 -2.53638,0.11673 -0.43708,-9.50166 2.53639,-0.11674 0.0317,0.69754 -1.68767,0.0777 0.37288,8.10666 1.68768,-0.0776 z"
     style="font-style:normal;font-size:medium;text-anchor:middle;fill:none;fill-opacity:1;stroke:#000000;stroke-width:0.06614583;stroke-linecap:butt;stroke-linejoin:bevel;stroke-dasharray:none;stroke-opacity:1"
     id="path4668"
     inkscape:connector-curvature="0"
     sodipodi:nodetypes="ccccccccc" />
  <path
     d="m 151.909,307.89033 -3.93138,0.18124 -0.0339,-0.74142 1.5121,-0.0691 -0.22396,-4.86789 -1.5121,0.0692 -0.0301,-0.66339 c 0.20487,-0.009 0.42361,-0.0358 0.65623,-0.079 0.2325,-0.0465 0.4074,-0.10511 0.52472,-0.17568 0.14584,-0.0882 0.25819,-0.19598 0.33705,-0.32344 0.082,-0.13086 0.1246,-0.30227 0.12788,-0.51424 l 0.75605,-0.0346 0.30105,6.54581 1.48283,-0.0678 z"
     style="font-style:normal;font-size:medium;text-anchor:middle;fill:none;fill-opacity:1;stroke:#000000;stroke-width:0.06614583;stroke-linecap:butt;stroke-linejoin:bevel;stroke-dasharray:none;stroke-opacity:1"
     id="path4670"
     inkscape:connector-curvature="0"
     sodipodi:nodetypes="ccccccccccccccc" />
  <path
     d="m 156.4405,309.59797 -2.53637,0.11674 -0.0317,-0.69753 1.68767,-0.0777 -0.37287,-8.10665 -1.68767,0.0776 -0.0317,-0.69752 2.53637,-0.11673 z"
     style="font-style:normal;font-size:medium;text-anchor:middle;fill:none;fill-opacity:1;stroke:#000000;stroke-width:0.06614583;stroke-linecap:butt;stroke-linejoin:bevel;stroke-dasharray:none;stroke-opacity:1"
     id="path4672"
     inkscape:connector-curvature="0"
     sodipodi:nodetypes="ccccccccc" />
  <path
     d="m 164.57628,307.30765 -2.86806,0.13179 -0.0339,-0.74142 0.95112,-0.044 -0.26589,-5.78001 -0.95113,0.044 -0.0339,-0.74142 2.86807,-0.13177 0.0339,0.74141 -0.95113,0.044 0.2659,5.78002 0.95113,-0.044 z"
     style="font-style:normal;font-size:medium;text-anchor:middle;fill:none;fill-opacity:1;stroke:#000000;stroke-width:0.06614583;stroke-linecap:butt;stroke-linejoin:bevel;stroke-dasharray:none;stroke-opacity:1"
     id="path4674"
     inkscape:connector-curvature="0"
     sodipodi:nodetypes="ccccccccccccc" />
  <path
     d="m 174.05356,306.8717 -3.93137,0.18124 -0.0339,-0.74142 1.51209,-0.0691 -0.22395,-4.86789 -1.51209,0.0691 -0.0301,-0.66339 c 0.20486,-0.009 0.4236,-0.0358 0.65624,-0.079 0.23249,-0.0466 0.40739,-0.10511 0.52471,-0.17568 0.14584,-0.0881 0.25819,-0.19598 0.33706,-0.32344 0.082,-0.13086 0.12459,-0.30227 0.12787,-0.51424 l 0.75604,-0.0346 0.30115,6.5458 1.48282,-0.0677 z"
     style="font-style:normal;font-size:medium;text-anchor:middle;fill:none;fill-opacity:1;stroke:#000000;stroke-width:0.06614583;stroke-linecap:butt;stroke-linejoin:bevel;stroke-dasharray:none;stroke-opacity:1"
     id="path4676"
     inkscape:connector-curvature="0"
     sodipodi:nodetypes="ccccccccccccccc" />
  <path
     inkscape:connector-curvature="0"
     style="fill:#e5e5e5;fill-opacity:1;stroke:#000000;stroke-width:0.06614583;stroke-linecap:butt;stroke-linejoin:bevel;stroke-dasharray:none;stroke-opacity:1"
     id="path8"
     d="m 51.101115,502.86571 -8.59559,-3.3126 6.253736,-17.01934 8.69539,3.04095 z m 6.353536,-17.29099 -9.332179,-3.59648 17.695487,-48.15756 9.440574,3.30155 z m 53.555919,-145.75041 -9.3322,-3.59647 15.79166,-42.97637 9.44054,3.30158 z m -35.752037,97.29792 -9.332239,-3.59647 12.692017,-34.54088 9.440573,3.30156 z m -37.786623,102.83482 -9.332238,-3.59648 13.52087,-36.79643 9.440573,3.30157 z m -13.912963,37.86359 -9.332207,-3.59645 13.804625,-37.56874 9.440545,3.3016 z m 5.06603,1.86154 -0.970526,2.51842 -4.986459,-1.83231 0.890955,-2.54765 z m 72.135533,-211.96266 -9.332215,-3.59648 10.141735,-27.60029 9.44054,3.30156 z m -12.701626,34.56692 -9.332178,-3.59648 12.593222,-34.27201 9.440582,3.30157 z m 41.995266,109.96488 8.08141,4.64678 -8.89547,16.04869 -8.22339,-4.3907 z m 65.43393,-141.38581 9.33218,3.59648 -10.14168,27.60032 -9.44057,-3.30156 z m -10.25007,27.89524 9.33217,3.59646 -12.59321,34.27207 -9.44058,-3.30158 z m 26.15007,-71.16651 9.33219,3.59647 -15.79162,42.97636 -9.44057,-3.30156 z m -38.85169,105.73346 9.33218,3.59647 -12.69203,34.54083 -9.44056,-3.30158 z m -12.80041,34.83572 8.20751,5.71504 -29.50636,43.82724 -8.38298,-5.45438 z m -96.388054,124.27768 -3.596508,9.33217 -34.427979,-12.65052 3.301538,-9.44057 z m 57.668774,-63.88501 7.97912,6.39508 -16.81126,33.49441 -9.00787,-4.34539 z m -31.753003,73.4077 -2.104278,5.84171 -27.113059,-5.92383 3.301566,-9.44057 z m 13.912993,-37.8636 9.33218,3.59649 -13.804598,37.5687 -9.440575,-3.30159 z m 93.18981,-456.56883 -8.59563,-3.31259 6.25376,-17.01938 8.69543,3.040936 z m -17.80387,48.45246 -9.33221,-3.59646 17.69552,-48.15759 9.44056,3.30159 z m -51.65206,140.56923 -9.33221,-3.59652 15.79167,-42.97628 9.44057,3.30153 z m 38.85169,-105.73341 -9.33225,-3.59647 12.69206,-34.5409 9.44056,3.30155 z m 36.9578,-100.579314 -9.33221,-3.596447 13.52083,-36.796423 9.44057,3.301536 z m 13.62919,-37.091334 -9.3322,-3.596507 13.80457,-37.568687 9.4406,3.301596 z m 13.91297,-37.863598 0.97055,-2.518406 4.98646,1.832265 -0.89095,2.547622 z m -87.45162,237.996386 -9.33221,-3.59648 10.14168,-27.60035 9.44057,3.30161 z m 10.25004,-27.89522 -9.33218,-3.59653 12.59322,-34.27195 9.44058,3.30156 z m 119.57493,-109.45579 9.10977,1.97837 -3.61199,17.99011 -9.16741,-1.69127 z m -35.09739,140.497 9.3322,3.59647 -10.14174,27.60029 -9.44057,-3.30157 z m 12.70157,-34.567 9.33224,3.59651 -12.59324,34.27206 -9.44057,-3.30157 z m -22.95168,62.46219 9.33224,3.59651 -15.79166,42.97634 -9.44057,-3.30157 z m 35.75208,-97.29791 9.33219,3.59645 -12.69201,34.54086 -9.44058,-3.30159 z m 5.92579,-52.81707 9.92012,1.27107 -5.89074,52.50483 -9.95517,-0.95883 z m -33.63766,-117.061105 0.89095,-2.547622 37.13347,5.865995 -3.30155,9.440572 z m 46.72564,60.145389 9.67835,2.520825 -8.87524,36.410421 -10.22146,-0.29274 z m -12.00277,-47.386444 3.59646,-9.332178 25.6209,9.414388 -3.30156,9.440573 z m 25.9158,9.522783 9.3322,3.596446 -13.80465,37.568751 -9.44058,-3.301536 z"
     class="sticker"
     sodipodi:nodetypes="cccccccccccccccccccccccccccccccccccccccccccccccccccccccccccccccccccccccccccccccccccccccccccccccccccccccccccccccccccccccccccccccccccccccccccccccccccccccccccccccccccccccccccccccccccccccccccccc" />
  <path
     class="arrow"
     d="m 118.96056,318.18869 12.83541,-5.93737 -10.48881,6.79962 3.59076,11.97315 z"
     id="path12"
     style="fill:#000000;stroke:#000000;stroke-width:0.0661458;stroke-linecap:butt;stroke-linejoin:bevel;stroke-dasharray:none;stroke-opacity:1"
     inkscape:connector-curvature="0"
     sodipodi:nodetypes="ccccc" />
  <path
     inkscape:connector-curvature="0"
     id="path4679"
     style="font-style:normal;font-size:medium;text-anchor:middle;fill:none;fill-opacity:1;stroke:#000000;stroke-width:0.06614583;stroke-linecap:butt;stroke-linejoin:bevel;stroke-dasharray:none;stroke-opacity:1"
     d="m 129.69925,325.19165 -3.93136,0.18124 -0.0339,-0.74143 1.51209,-0.0691 -0.22395,-4.86789 -1.51209,0.0691 -0.0301,-0.66339 c 0.20487,-0.009 0.42361,-0.0358 0.65625,-0.079 0.23248,-0.0465 0.40738,-0.10509 0.5247,-0.17566 0.14584,-0.0881 0.2582,-0.196 0.33707,-0.32346 0.082,-0.13085 0.12458,-0.30226 0.12786,-0.51423 l 0.75605,-0.0346 0.30105,6.54582 1.48282,-0.0678 z"
     sodipodi:nodetypes="ccccccccccccccc" />
  <path
     d="m 113.20408,319.50042 c 0.16674,-0.0885 0.35515,-0.14259 0.56522,-0.16216 0.21007,-0.0195 0.45672,0.0226 0.73997,0.12676 0.28049,0.10307 0.51891,0.24843 0.71527,0.43606 0.19635,0.18764 0.3473,0.4054 0.45285,0.65329 0.11671,0.27698 0.17028,0.5729 0.1607,0.88775 -0.0114,0.31108 -0.0781,0.63299 -0.20035,0.96574 -0.12529,0.34099 -0.28982,0.66131 -0.49357,0.96099 -0.20101,0.30068 -0.38853,0.53922 -0.56259,0.7156 l -0.86211,-0.31678 0.0227,-0.0619 c 0.23988,-0.17715 0.4688,-0.40516 0.68674,-0.68401 0.21795,-0.27886 0.38099,-0.5654 0.48911,-0.85964 0.0636,-0.17325 0.10251,-0.36811 0.11648,-0.58458 0.014,-0.21646 -0.0131,-0.4059 -0.0814,-0.56833 -0.0745,-0.17094 -0.17357,-0.31345 -0.29705,-0.42751 -0.1225,-0.11681 -0.29512,-0.21613 -0.51786,-0.29798 -0.21999,-0.0808 -0.41463,-0.11177 -0.5839,-0.0928 -0.171,0.0152 -0.3205,0.0696 -0.44847,0.16294 -0.13072,0.0925 -0.24353,0.22108 -0.33845,0.38596 -0.0977,0.16386 -0.18389,0.34754 -0.25866,0.55104 l -0.13641,0.37123 -0.68473,-0.2516 0.1061,-0.28873 c 0.15359,-0.41799 0.18923,-0.78256 0.10693,-1.09372 -0.084,-0.3149 -0.29381,-0.53399 -0.6293,-0.65727 -0.1485,-0.0546 -0.28936,-0.0704 -0.42259,-0.0476 -0.136,0.0218 -0.26045,0.076 -0.37338,0.16243 -0.11496,0.092 -0.21094,0.20029 -0.28794,0.32492 -0.077,0.12465 -0.14684,0.27222 -0.20949,0.44271 -0.096,0.26125 -0.1513,0.55617 -0.16592,0.88476 -0.0147,0.3286 0.0152,0.65485 0.0897,0.97874 l -0.0151,0.0413 -0.8621,-0.31676 c -0.0244,-0.23062 -0.017,-0.52282 0.0225,-0.87662 0.0377,-0.35755 0.11273,-0.68894 0.22485,-0.99419 0.11014,-0.29973 0.23464,-0.55361 0.37352,-0.76164 0.13886,-0.20804 0.30264,-0.38196 0.49133,-0.52174 0.20475,-0.14949 0.41932,-0.24076 0.64371,-0.2738 0.22438,-0.033 0.46169,-0.003 0.71193,0.0884 0.34099,0.1253 0.5949,0.35593 0.76171,0.6919 0.16509,0.3322 0.22051,0.67405 0.16626,1.02553 l 0.0578,0.0211 c 0.0705,-0.12391 0.17282,-0.25798 0.30696,-0.4022 0.1314,-0.14524 0.27107,-0.25779 0.41902,-0.33764 z"
     style="font-style:normal;font-size:medium;text-anchor:middle;fill:none;fill-opacity:1;stroke:#000000;stroke-width:0.06614581;stroke-linecap:butt;stroke-linejoin:bevel;stroke-dasharray:none;stroke-opacity:1"
     id="path4682"
     inkscape:connector-curvature="0"
     sodipodi:nodetypes="cccscccccccccccccccccccccccccccccccccccccccccc" />
  <path
     d="m 114.01956,315.81585 -0.36225,0.98585 -1.17558,-0.43197 0.36225,-0.98585 z m 3.43189,1.26106 -0.36225,0.98585 -1.17558,-0.43198 0.36224,-0.98584 z"
     style="font-style:normal;font-size:medium;text-anchor:middle;fill:none;fill-opacity:1;stroke:#000000;stroke-width:0.06614581;stroke-linecap:butt;stroke-linejoin:bevel;stroke-dasharray:none;stroke-opacity:1"
     id="path4684"
     inkscape:connector-curvature="0"
     sodipodi:nodetypes="cccccccccc" />
  <path
     d="m 119.62041,311.1742 -1.22166,3.32466 -0.62698,-0.23038 0.46988,-1.27872 -4.11664,-1.51265 -0.46986,1.27872 -0.56098,-0.20615 c 0.0636,-0.17324 0.11814,-0.36391 0.16337,-0.572 0.0425,-0.20912 0.055,-0.37465 0.0374,-0.49661 -0.0222,-0.15176 -0.0725,-0.28258 -0.15074,-0.39248 -0.08,-0.11365 -0.2073,-0.20882 -0.382,-0.28549 l 0.23493,-0.63936 5.53558,2.03403 0.46077,-1.25395 z"
     style="font-style:normal;font-size:medium;text-anchor:middle;fill:none;fill-opacity:1;stroke:#000000;stroke-width:0.06614581;stroke-linecap:butt;stroke-linejoin:bevel;stroke-dasharray:none;stroke-opacity:1"
     id="path4686"
     inkscape:connector-curvature="0"
     sodipodi:nodetypes="ccccccccccccccc" />
  <path
     class="arrow"
     d="m 30.515457,558.88883 12.835409,-5.93736 -10.488812,6.79961 3.590768,11.97314 z"
     id="path24"
     style="fill:#000000;stroke:#000000;stroke-width:0.0661458;stroke-linecap:butt;stroke-linejoin:bevel;stroke-dasharray:none;stroke-opacity:1"
     inkscape:connector-curvature="0"
     sodipodi:nodetypes="ccccc" />
  <path
     inkscape:connector-curvature="0"
     id="path4689"
     style="font-style:normal;font-size:medium;text-anchor:middle;fill:none;fill-opacity:1;stroke:#000000;stroke-width:0.06614583;stroke-linecap:butt;stroke-linejoin:bevel;stroke-dasharray:none;stroke-opacity:1"
     d="m 41.668753,565.87272 -4.916679,0.22612 -0.04693,-1.01944 0.983921,-0.92508 c 0.331226,-0.30853 0.638138,-0.61429 0.920736,-0.91732 0.596519,-0.63353 1.002063,-1.13284 1.216635,-1.4979 0.214422,-0.36833 0.312135,-0.75897 0.293139,-1.17194 -0.01732,-0.37721 -0.156048,-0.66573 -0.416189,-0.86558 -0.257007,-0.20324 -0.608256,-0.29462 -1.05375,-0.27413 -0.295909,0.0137 -0.613815,0.0804 -0.953718,0.20028 -0.3399,0.11992 -0.669129,0.29474 -0.987687,0.52446 l -0.04878,0.002 -0.04717,-1.02431 c 0.225641,-0.12443 0.528146,-0.24262 0.907518,-0.35456 0.382622,-0.1121 0.754406,-0.17645 1.115354,-0.19306 0.744667,-0.034 1.33666,0.11962 1.775983,0.46087 0.439183,0.33825 0.67291,0.81466 0.70118,1.42924 0.01271,0.2764 -0.01117,0.53656 -0.07164,0.7805 -0.05737,0.24051 -0.149405,0.47123 -0.276105,0.69212 -0.117546,0.20744 -0.258004,0.41268 -0.421373,0.61572 -0.160117,0.20288 -0.356658,0.42862 -0.589621,0.67721 -0.332235,0.35745 -0.676298,0.70566 -1.032191,1.04464 -0.356043,0.33571 -0.688745,0.64756 -0.998105,0.93552 l 3.906984,-0.18005 z"
     sodipodi:nodetypes="ccccccccccccccccccccccccc" />
  <path
     d="m 24.759018,560.20058 c 0.166747,-0.0885 0.355156,-0.14261 0.565225,-0.16218 0.210071,-0.0195 0.456726,0.0228 0.739965,0.12677 0.280491,0.10306 0.518915,0.24841 0.715272,0.43605 0.196355,0.18764 0.347306,0.40541 0.452851,0.65331 0.116709,0.27698 0.170279,0.57289 0.16071,0.88774 -0.01131,0.31109 -0.07809,0.633 -0.200361,0.96574 -0.125296,0.34099 -0.28982,0.66131 -0.493572,0.96099 -0.201002,0.30068 -0.388531,0.53922 -0.562583,0.7156 l -0.862099,-0.31678 0.02273,-0.0619 c 0.239885,-0.17715 0.468801,-0.40515 0.686751,-0.68401 0.21795,-0.27887 0.380983,-0.56541 0.489101,-0.85965 0.06366,-0.17324 0.102487,-0.36809 0.11648,-0.58456 0.01399,-0.21646 -0.01316,-0.40591 -0.08145,-0.56834 -0.07451,-0.17094 -0.173531,-0.31345 -0.297046,-0.42751 -0.122504,-0.11681 -0.295129,-0.21613 -0.517873,-0.29796 -0.219992,-0.0808 -0.414623,-0.11178 -0.583892,-0.0928 -0.171005,0.0153 -0.320492,0.0696 -0.448463,0.16293 -0.130717,0.0924 -0.243535,0.22108 -0.338453,0.38596 -0.09766,0.16387 -0.183889,0.34755 -0.258663,0.55105 l -0.136411,0.37123 -0.684729,-0.2516 0.106098,-0.28873 c 0.153589,-0.41799 0.189231,-0.78257 0.106928,-1.09372 -0.08404,-0.3149 -0.29381,-0.534 -0.6293,-0.65728 -0.148496,-0.0546 -0.289362,-0.0704 -0.4226,-0.0476 -0.135989,0.0218 -0.260445,0.076 -0.373371,0.16246 -0.114948,0.092 -0.210927,0.20027 -0.287938,0.32491 -0.07702,0.12464 -0.146841,0.27221 -0.209489,0.44271 -0.096,0.26124 -0.151302,0.55615 -0.165922,0.88476 -0.01462,0.32859 0.01532,0.65484 0.08982,0.97873 l -0.01516,0.0413 -0.862099,-0.31677 c -0.02451,-0.23062 -0.01702,-0.52282 0.02247,-0.87661 0.03775,-0.35756 0.1127,-0.68895 0.224861,-0.99418 0.11014,-0.29975 0.234643,-0.55364 0.37351,-0.76167 0.138866,-0.20804 0.302647,-0.38195 0.491344,-0.52173 0.204749,-0.14949 0.419314,-0.24076 0.643695,-0.27379 0.224382,-0.033 0.461696,-0.003 0.711935,0.0884 0.34099,0.12529 0.594897,0.35592 0.761718,0.69189 0.165084,0.3322 0.220502,0.67405 0.166256,1.02554 l 0.05774,0.0212 c 0.0705,-0.12392 0.172824,-0.258 0.306971,-0.40222 0.131396,-0.14523 0.271067,-0.25777 0.419013,-0.33762 z"
     style="font-style:normal;font-size:medium;text-anchor:middle;fill:none;fill-opacity:1;stroke:#000000;stroke-width:0.06614581;stroke-linecap:butt;stroke-linejoin:bevel;stroke-dasharray:none;stroke-opacity:1"
     id="path4692"
     inkscape:connector-curvature="0"
     sodipodi:nodetypes="ccccccccccccccccccccccccccccccccccccccsccccccc" />
  <path
     d="m 25.574504,556.51601 -0.36225,0.98585 -1.175588,-0.43198 0.362248,-0.98584 z m 3.431897,1.26104 -0.362249,0.98585 -1.17559,-0.43197 0.362249,-0.98584 z"
     style="font-style:normal;font-size:medium;text-anchor:middle;fill:none;fill-opacity:1;stroke:#000000;stroke-width:0.06614581;stroke-linecap:butt;stroke-linejoin:bevel;stroke-dasharray:none;stroke-opacity:1"
     id="path4694"
     inkscape:connector-curvature="0"
     sodipodi:nodetypes="cccccccccc" />
  <path
     d="m 31.304179,551.52375 -1.52781,4.15787 -0.862099,-0.31678 c -0.141395,-0.37969 -0.28279,-0.75937 -0.424185,-1.13905 -0.140383,-0.38242 -0.286971,-0.74373 -0.439762,-1.0839 -0.317477,-0.71593 -0.590216,-1.22659 -0.818214,-1.53197 -0.230749,-0.30639 -0.520743,-0.52376 -0.869982,-0.65208 -0.318991,-0.11722 -0.606753,-0.10264 -0.863287,0.0437 -0.258289,0.14231 -0.456651,0.40184 -0.595083,0.77858 -0.09195,0.25024 -0.147483,0.53727 -0.166594,0.86109 -0.01911,0.32382 0.01104,0.65796 0.0905,1.00238 l -0.01517,0.0413 -0.866225,-0.31829 c -0.02451,-0.23061 -0.01701,-0.52282 0.02247,-0.87661 0.04049,-0.35654 0.116826,-0.68743 0.228985,-0.99268 0.231396,-0.62973 0.565393,-1.06726 1.001993,-1.31259 0.43385,-0.24634 0.910643,-0.27402 1.430377,-0.083 0.233743,0.0858 0.441247,0.19647 0.62251,0.33175 0.179525,0.13151 0.338815,0.28836 0.47787,0.47055 0.131088,0.1699 0.252351,0.35803 0.363792,0.56441 0.112451,0.20361 0.231156,0.44543 0.356116,0.72544 0.180623,0.40035 0.34946,0.80727 0.50651,1.22079 0.154298,0.41252 0.296928,0.79734 0.427886,1.15446 l 1.214063,-3.30402 z"
     style="font-style:normal;font-size:medium;text-anchor:middle;fill:none;fill-opacity:1;stroke:#000000;stroke-width:0.06614581;stroke-linecap:butt;stroke-linejoin:bevel;stroke-dasharray:none;stroke-opacity:1"
     id="path4696"
     inkscape:connector-curvature="0"
     sodipodi:nodetypes="ccccccccccccccccccccccccc" />
  <path
     class="arrow"
     d="M 26.091963,578.75143 20.154669,565.916 26.95423,576.40484 38.927404,572.81413 Z"
     id="path36"
     style="fill:#000000;stroke:#000000;stroke-width:0.0661458;stroke-linecap:butt;stroke-linejoin:bevel;stroke-dasharray:none;stroke-opacity:1"
     inkscape:connector-curvature="0"
     sodipodi:nodetypes="ccccc" />
  <path
     inkscape:connector-curvature="0"
     id="path4699"
     style="font-style:normal;font-size:medium;text-anchor:middle;fill:none;fill-opacity:1;stroke:#000000;stroke-width:0.06614583;stroke-linecap:butt;stroke-linejoin:bevel;stroke-dasharray:none;stroke-opacity:1"
     d="m 31.101834,570.71561 c 0.162517,0.13265 0.299039,0.30234 0.409566,0.50906 0.110527,0.20673 0.173494,0.47756 0.1889,0.81248 0.01524,0.33168 -0.03092,0.63849 -0.138516,0.92044 -0.107602,0.28192 -0.265625,0.53033 -0.47407,0.74522 -0.233411,0.23884 -0.513415,0.42117 -0.84001,0.54699 -0.323493,0.12241 -0.681971,0.19267 -1.075436,0.21078 -0.403205,0.0189 -0.802164,-0.0117 -1.196879,-0.0916 -0.39455,-0.0764 -0.719635,-0.16569 -0.975257,-0.26798 l -0.04693,-1.01943 0.07316,-0.003 c 0.284777,0.16939 0.616909,0.30563 0.996397,0.40876 0.379488,0.10311 0.743202,0.14666 1.091141,0.13065 0.204864,-0.009 0.42116,-0.0536 0.648895,-0.1325 0.227734,-0.0789 0.410073,-0.1883 0.547019,-0.3282 0.143001,-0.14996 0.246306,-0.31276 0.309917,-0.4884 0.06686,-0.17578 0.09423,-0.39537 0.08212,-0.65876 -0.01197,-0.26014 -0.06411,-0.47282 -0.156436,-0.63802 -0.08922,-0.16861 -0.209241,-0.29832 -0.360058,-0.38915 -0.150966,-0.0941 -0.331329,-0.1542 -0.541088,-0.1804 -0.209907,-0.0295 -0.435177,-0.0387 -0.675809,-0.0276 l -0.438987,0.0203 -0.03728,-0.8097 0.341437,-0.0157 c 0.494277,-0.0225 0.883028,-0.14309 1.166257,-0.36158 0.286338,-0.22172 0.420384,-0.53095 0.402134,-0.92766 -0.0081,-0.17559 -0.0525,-0.32671 -0.133276,-0.45334 -0.08092,-0.12989 -0.189991,-0.23404 -0.327203,-0.31245 -0.143716,-0.0781 -0.295989,-0.12977 -0.456822,-0.15495 -0.160832,-0.0252 -0.342052,-0.0331 -0.543662,-0.0238 -0.308915,0.0142 -0.6348,0.0846 -0.977658,0.21117 -0.342854,0.12656 -0.664103,0.29776 -0.963747,0.51358 l -0.04878,0.002 -0.04693,-1.01943 c 0.225641,-0.12443 0.528147,-0.24262 0.907517,-0.35457 0.382474,-0.11536 0.754183,-0.18134 1.11513,-0.19795 0.354434,-0.0164 0.6681,0.002 0.940996,0.0545 0.272892,0.0527 0.521561,0.14549 0.746008,0.27851 0.241308,0.14532 0.427205,0.32577 0.557692,0.54135 0.130486,0.21559 0.202536,0.47134 0.216147,0.76724 0.01858,0.40323 -0.108269,0.76261 -0.380546,1.07819 -0.269143,0.31218 -0.595399,0.5162 -0.97877,0.61204 l 0.0031,0.0683 c 0.157284,0.0189 0.338674,0.0659 0.54417,0.14117 0.20535,0.072 0.380779,0.1666 0.526289,0.28374 z"
     sodipodi:nodetypes="cccccccccccccccccccccccccccccccccccccccccccccc" />
  <path
     d="m 26.785891,580.1344 c 0.06193,-0.16854 0.168225,-0.28581 0.318885,-0.35181 0.14964,-0.0656 0.30502,-0.0687 0.46614,-0.009 0.08167,0.03 0.151282,0.07 0.208829,0.11972 0.05755,0.0498 0.102795,0.10897 0.135747,0.17755 0.04121,0.0851 0.06057,0.18492 0.0581,0.29946 -0.0032,0.11427 -0.03117,0.24305 -0.08382,0.38634 -0.05403,0.14702 -0.117496,0.27159 -0.190419,0.37373 -0.07367,0.10187 -0.161262,0.18429 -0.262779,0.24727 -0.09617,0.06 -0.204447,0.0943 -0.324841,0.10312 -0.120653,0.01 -0.249662,-0.0106 -0.387032,-0.0613 -0.04381,-0.0161 -0.07988,-0.0314 -0.10821,-0.0461 -0.02833,-0.0147 -0.05595,-0.0324 -0.08284,-0.0533 l 0.07817,-0.21272 0.01116,0.005 c 0.0167,0.0188 0.04443,0.0409 0.08321,0.066 0.03776,0.0257 0.07854,0.0466 0.122349,0.0627 0.159634,0.0587 0.305383,0.0553 0.437248,-0.0102 0.131596,-0.0645 0.236428,-0.17902 0.314498,-0.3433 -0.07629,0.0149 -0.148055,0.0207 -0.215313,0.0175 -0.06823,-0.003 -0.142084,-0.0181 -0.221539,-0.0472 -0.07054,-0.026 -0.130075,-0.0554 -0.178624,-0.0883 -0.04956,-0.0326 -0.09533,-0.0788 -0.137295,-0.13893 -0.04869,-0.0694 -0.07669,-0.14449 -0.08398,-0.22555 -0.008,-0.0814 0.0062,-0.17136 0.04237,-0.27011 z m 0.229354,0.0741 c -0.02537,0.069 -0.03598,0.13004 -0.03183,0.18297 0.0034,0.0527 0.02234,0.10428 0.05685,0.15488 0.02543,0.0364 0.05757,0.0658 0.09641,0.0885 0.03884,0.0227 0.08092,0.0424 0.126214,0.0591 0.06311,0.0232 0.124499,0.0373 0.184152,0.0424 0.05965,0.005 0.123785,0.002 0.1924,-0.008 0.0075,-0.0157 0.01447,-0.0314 0.02094,-0.0467 0.0062,-0.0145 0.01353,-0.0334 0.02199,-0.0564 0.04311,-0.1173 0.06534,-0.21448 0.06668,-0.29151 3.56e-4,-0.0766 -0.01341,-0.14232 -0.04131,-0.19721 -0.02214,-0.0452 -0.05003,-0.0829 -0.08366,-0.11291 -0.03464,-0.0295 -0.07534,-0.0529 -0.122119,-0.0702 -0.10766,-0.0396 -0.204317,-0.0381 -0.289971,0.004 -0.08591,0.0435 -0.151503,0.12684 -0.196794,0.25003 z"
     style="font-style:normal;font-size:medium;text-anchor:middle;fill:none;fill-opacity:1;stroke:#000000;stroke-width:0.0661458;stroke-linecap:butt;stroke-linejoin:bevel;stroke-dasharray:none;stroke-opacity:1"
     id="path4702"
     inkscape:connector-curvature="0"
     sodipodi:nodetypes="cccccccccccccccccccccccccccccscccccccccccc" />
  <path
     d="m 26.309757,579.34887 0.266178,0.0978 -0.116634,0.3174 -0.266177,-0.0978 z"
     style="font-style:normal;font-size:medium;text-anchor:middle;fill:none;fill-opacity:1;stroke:#000000;stroke-width:0.0661458;stroke-linecap:butt;stroke-linejoin:bevel;stroke-dasharray:none;stroke-opacity:1"
     id="path4704"
     inkscape:connector-curvature="0"
     sodipodi:nodetypes="ccccc" />
  <path
     d="m 25.037088,579.93295 0.266179,0.0978 -0.116634,0.3174 -0.266178,-0.0978 z m 0.340489,-0.9266 0.266178,0.0978 -0.116633,0.31742 -0.266178,-0.0978 z"
     style="font-style:normal;font-size:medium;text-anchor:middle;fill:none;fill-opacity:1;stroke:#000000;stroke-width:0.0661458;stroke-linecap:butt;stroke-linejoin:bevel;stroke-dasharray:none;stroke-opacity:1"
     id="path4706"
     inkscape:connector-curvature="0"
     sodipodi:nodetypes="cccccccccc" />
  <path
     d="m 23.541658,579.23809 c -0.02391,-0.045 -0.0385,-0.0959 -0.04379,-0.15262 -0.0053,-0.0567 0.0061,-0.1233 0.03423,-0.19979 0.02784,-0.0757 0.06708,-0.1401 0.117734,-0.19312 0.05066,-0.053 0.109457,-0.0938 0.176394,-0.12227 0.07479,-0.0315 0.154681,-0.046 0.239692,-0.0434 0.08399,0.003 0.170909,0.021 0.260747,0.054 0.09207,0.0339 0.178554,0.0782 0.259468,0.13327 0.08119,0.0543 0.14559,0.1049 0.193211,0.1519 l -0.08553,0.23276 -0.01671,-0.006 c -0.04783,-0.0648 -0.109394,-0.12657 -0.184682,-0.18542 -0.07529,-0.0589 -0.152661,-0.10292 -0.232105,-0.13207 -0.04678,-0.0173 -0.09939,-0.0277 -0.157834,-0.0315 -0.05845,-0.004 -0.109603,0.004 -0.153452,0.022 -0.04615,0.0201 -0.08463,0.0468 -0.11543,0.0802 -0.03154,0.0331 -0.05835,0.0797 -0.08044,0.13981 -0.02183,0.0594 -0.03018,0.11192 -0.02506,0.15765 0.0041,0.0462 0.01876,0.0865 0.044,0.12108 0.02495,0.0353 0.05969,0.0657 0.104208,0.0914 0.04424,0.0264 0.09384,0.0496 0.148784,0.0699 l 0.100236,0.0368 -0.06793,0.18487 -0.07795,-0.0286 c -0.112857,-0.0415 -0.211292,-0.0511 -0.295302,-0.0289 -0.08503,0.0227 -0.144182,0.0793 -0.177467,0.1699 -0.01473,0.0401 -0.01902,0.0781 -0.01285,0.1141 0.0059,0.0367 0.02054,0.0703 0.04387,0.10081 0.02482,0.031 0.05407,0.0569 0.08773,0.0778 0.03365,0.0207 0.0735,0.0396 0.119532,0.0566 0.07054,0.026 0.150162,0.0409 0.238885,0.0448 0.08872,0.005 0.176806,-0.004 0.264254,-0.0243 l 0.01116,0.005 -0.08553,0.23277 c -0.06223,0.007 -0.141136,0.005 -0.236683,-0.006 -0.09654,-0.0101 -0.186013,-0.0304 -0.268431,-0.0607 -0.08093,-0.0297 -0.149478,-0.0634 -0.205647,-0.10085 -0.05617,-0.0375 -0.103128,-0.0817 -0.140867,-0.13266 -0.04036,-0.0553 -0.06501,-0.1132 -0.07393,-0.17381 -0.0089,-0.0606 -9.84e-4,-0.12463 0.02386,-0.19222 0.03383,-0.0921 0.0961,-0.16062 0.186812,-0.20566 0.08969,-0.0445 0.181995,-0.0595 0.2769,-0.0449 l 0.0056,-0.0156 c -0.03346,-0.019 -0.06966,-0.0467 -0.108598,-0.083 -0.03921,-0.0355 -0.0696,-0.0732 -0.09116,-0.11312 z"
     style="font-style:normal;font-size:medium;text-anchor:middle;fill:none;fill-opacity:1;stroke:#000000;stroke-width:0.0661458;stroke-linecap:butt;stroke-linejoin:bevel;stroke-dasharray:none;stroke-opacity:1"
     id="path4708"
     inkscape:connector-curvature="0"
     sodipodi:nodetypes="cccccccccccccccccccccccccccccccccccccccccccccc" />
  <path
     d="m 129.66149,519.92719 c -0.46102,-0.25553 -0.74445,-0.64838 -0.85028,-1.17856 -0.10716,-0.52779 -0.0102,-1.06398 0.29209,-1.60861 0.32041,-0.57807 0.72524,-0.95635 1.21449,-1.13481 0.48793,-0.17609 0.96479,-0.13504 1.43059,0.12314 0.2962,0.16419 0.51606,0.39847 0.65961,0.70285 0.14593,0.30572 0.20264,0.6541 0.17012,1.04514 l 0.0215,0.0119 c 0.31176,-0.20191 0.59682,-0.32182 0.85515,-0.35975 0.25701,-0.0356 0.52168,0.0221 0.79399,0.17313 0.4013,0.22242 0.64436,0.57261 0.72919,1.05055 0.0848,0.47792 -0.0137,0.97129 -0.2958,1.48009 -0.29524,0.53269 -0.65872,0.88705 -1.09041,1.06308 -0.43169,0.17602 -0.8446,0.15483 -1.23874,-0.0636 -0.24126,-0.13373 -0.43723,-0.34071 -0.58792,-0.62097 -0.14829,-0.27892 -0.20736,-0.60049 -0.1772,-0.96473 l -0.0215,-0.0119 c -0.32869,0.25498 -0.64712,0.4126 -0.95531,0.47285 -0.30818,0.0602 -0.62471,8e-5 -0.94957,-0.17973 z m 3.07558,0.59466 c 0.25559,0.14167 0.51358,0.15503 0.77396,0.0401 0.26145,-0.11114 0.47691,-0.31957 0.64639,-0.62532 0.16683,-0.30099 0.2322,-0.58795 0.19612,-0.86086 -0.0374,-0.27055 -0.17792,-0.47334 -0.42157,-0.60839 -0.17199,-0.0954 -0.34776,-0.13031 -0.52733,-0.10494 -0.1785,0.0292 -0.371,0.11449 -0.57751,0.25602 -0.092,0.0646 -0.21828,0.16008 -0.37892,0.28647 -0.16196,0.12881 -0.30932,0.25947 -0.44208,0.39196 0.0265,0.32388 0.0994,0.57821 0.21878,0.76297 0.11929,0.18478 0.29001,0.33873 0.51216,0.46187 z m -2.73455,-1.37051 c 0.21978,0.12181 0.42249,0.17016 0.60815,0.14505 0.18672,-0.0214 0.42509,-0.13596 0.71509,-0.3437 0.11478,-0.0832 0.23194,-0.17901 0.35148,-0.28763 0.11954,-0.10861 0.28147,-0.25148 0.48582,-0.4286 0.002,-0.27987 -0.0609,-0.5411 -0.18857,-0.7837 -0.12915,-0.24021 -0.32034,-0.43048 -0.57355,-0.57083 -0.32247,-0.17874 -0.65038,-0.2153 -0.98372,-0.10966 -0.33334,0.10563 -0.59469,0.32925 -0.78402,0.67084 -0.19331,0.34874 -0.25798,0.67669 -0.19402,0.9838 0.0626,0.30951 0.25044,0.55099 0.56334,0.72443 z"
     style="font-style:normal;font-size:medium;text-anchor:middle;fill:none;fill-opacity:1;stroke:#000000;stroke-width:0.06614581;stroke-linecap:butt;stroke-linejoin:bevel;stroke-dasharray:none;stroke-opacity:1"
     id="path4711"
     inkscape:connector-curvature="0"
     sodipodi:nodetypes="cccccccccccccccccccccccccccccccccccccccsccc" />
  <path
     d="m 129.74753,523.29578 0.47466,-0.85636 1.02118,0.56602 -0.47465,0.85635 z m -2.98112,-1.65239 0.47466,-0.85636 1.02118,0.56603 -0.47467,0.85636 z"
     style="font-style:normal;font-size:medium;text-anchor:middle;fill:none;fill-opacity:1;stroke:#000000;stroke-width:0.06614581;stroke-linecap:butt;stroke-linejoin:bevel;stroke-dasharray:none;stroke-opacity:1"
     id="path4713"
     inkscape:connector-curvature="0"
     sodipodi:nodetypes="cccccccccc" />
  <path
     d="m 123.75558,527.07535 2.00192,-3.61175 0.74887,0.41508 c 0.076,0.36998 0.15193,0.73995 0.22789,1.10993 0.0747,0.37236 0.15805,0.72616 0.25011,1.06137 0.19009,0.7049 0.36832,1.21431 0.53469,1.52822 0.16875,0.31525 0.40481,0.55695 0.70817,0.72509 0.27709,0.15359 0.54424,0.18145 0.80147,0.0836 0.25828,-0.0942 0.47812,-0.30486 0.65951,-0.63211 0.12049,-0.21737 0.21269,-0.47385 0.27659,-0.76943 0.0639,-0.29557 0.0839,-0.60768 0.06,-0.93632 l 0.0199,-0.0359 0.75245,0.41707 c -0.0104,0.21595 -0.0591,0.48405 -0.14604,0.80431 -0.0883,0.32265 -0.20591,0.61655 -0.35288,0.8817 -0.3032,0.54701 -0.67344,0.90231 -1.11071,1.06587 -0.43488,0.1649 -0.87806,0.12223 -1.32952,-0.12802 -0.20304,-0.11254 -0.37838,-0.24408 -0.52602,-0.39461 -0.14658,-0.14681 -0.27089,-0.31407 -0.37293,-0.50179 -0.0965,-0.17524 -0.18128,-0.36588 -0.25442,-0.57193 -0.0745,-0.20366 -0.14931,-0.44338 -0.22433,-0.71919 -0.10914,-0.39463 -0.20649,-0.79363 -0.29203,-1.19702 -0.0832,-0.40207 -0.15949,-0.77696 -0.22909,-1.12466 l -1.59082,2.87005 z"
     style="font-style:normal;font-size:medium;text-anchor:middle;fill:none;fill-opacity:1;stroke:#000000;stroke-width:0.06614581;stroke-linecap:butt;stroke-linejoin:bevel;stroke-dasharray:none;stroke-opacity:1"
     id="path4715"
     inkscape:connector-curvature="0"
     sodipodi:nodetypes="ccccccccccccccccccccccccc" />
  <path
     class="arrow"
     d="m 112.0967,546.32816 -13.423234,4.45161 11.188874,-5.57307 -2.21726,-12.30179 z"
     id="path52"
     style="fill:#000000;stroke:#000000;stroke-width:0.06614581;stroke-linecap:butt;stroke-linejoin:bevel;stroke-dasharray:none;stroke-opacity:1"
     inkscape:connector-curvature="0"
     sodipodi:nodetypes="ccccc" />
  <path
     inkscape:connector-curvature="0"
     id="path4718"
     style="font-style:normal;font-size:medium;text-anchor:middle;fill:none;fill-opacity:1;stroke:#000000;stroke-width:0.06614583;stroke-linecap:butt;stroke-linejoin:bevel;stroke-dasharray:none;stroke-opacity:1"
     d="m 106.83039,544.11934 -1.07798,0.0492 0.094,2.04374 -0.93649,0.0433 -0.094,-2.04376 -3.47775,0.1603 -0.0516,-1.12187 3.32832,-4.259 0.89749,-0.0414 0.20416,4.43867 1.07799,-0.0492 z m -2.05037,-0.68777 -0.15081,-3.27778 -2.66363,3.40725 z"
     sodipodi:nodetypes="cccccccccccccccc" />
  <path
     d="m 116.34307,541.88056 1.58887,-3.16565 0.59698,0.29963 -0.61109,1.21757 3.91972,1.96736 0.61109,-1.21756 0.53416,0.26809 c -0.0828,0.16496 -0.15841,0.34828 -0.22684,0.54994 -0.0658,0.20298 -0.0969,0.36606 -0.0931,0.48921 0.005,0.15333 0.0399,0.28899 0.1055,0.40699 0.0666,0.12196 0.18239,0.23088 0.34736,0.32677 l -0.30555,0.60877 -5.27083,-2.64549 -0.59926,1.194 z"
     style="font-style:normal;font-size:medium;text-anchor:middle;fill:none;fill-opacity:1;stroke:#000000;stroke-width:0.06614584;stroke-linecap:butt;stroke-linejoin:bevel;stroke-dasharray:none;stroke-opacity:1"
     id="path4721"
     inkscape:connector-curvature="0"
     sodipodi:nodetypes="ccccccccccccccc" />
  <path
     d="m 113.60493,547.33595 1.98707,-3.959 0.82088,0.41201 c 0.0976,0.39321 0.19531,0.78641 0.29298,1.17963 0.0964,0.39582 0.20125,0.77134 0.31469,1.12659 0.2347,0.74717 0.44809,1.28533 0.64018,1.61448 0.19472,0.33046 0.45835,0.57915 0.79089,0.74606 0.30372,0.15246 0.59128,0.17057 0.86268,0.0543 0.27268,-0.11227 0.49905,-0.34776 0.67909,-0.70647 0.1196,-0.23827 0.20715,-0.51721 0.26267,-0.83682 0.0555,-0.3196 0.0633,-0.655 0.0231,-1.00619 l 0.0197,-0.0392 0.8248,0.41397 c -0.002,0.2319 -0.0419,0.5214 -0.12122,0.86848 -0.0805,0.34969 -0.19361,0.66986 -0.33949,0.9605 -0.30095,0.59961 -0.68217,0.99668 -1.14367,1.19119 -0.45886,0.19583 -0.93572,0.16954 -1.4306,-0.0788 -0.22257,-0.11171 -0.41627,-0.24499 -0.58112,-0.39984 -0.16356,-0.15093 -0.30413,-0.32474 -0.42175,-0.52145 -0.11109,-0.18361 -0.21036,-0.38421 -0.2978,-0.60183 -0.0888,-0.21501 -0.17944,-0.46868 -0.27201,-0.76099 -0.13431,-0.41817 -0.25617,-0.84154 -0.36557,-1.27014 -0.10679,-0.42729 -0.2051,-0.82574 -0.29494,-1.19535 l -1.57901,3.14599 z"
     style="font-style:normal;font-size:medium;text-anchor:middle;fill:none;fill-opacity:1;stroke:#000000;stroke-width:0.06614584;stroke-linecap:butt;stroke-linejoin:bevel;stroke-dasharray:none;stroke-opacity:1"
     id="path4723"
     inkscape:connector-curvature="0"
     sodipodi:nodetypes="ccccccccccccccccccccccccc" />
  <path
     d="m 115.45334,551.80394 0.47115,-0.93869 1.11936,0.56181 -0.47115,0.9387 z m -3.26774,-1.64012 0.47113,-0.93869 1.11938,0.56182 -0.47115,0.93869 z"
     style="font-style:normal;font-size:medium;text-anchor:middle;fill:none;fill-opacity:1;stroke:#000000;stroke-width:0.06614584;stroke-linecap:butt;stroke-linejoin:bevel;stroke-dasharray:none;stroke-opacity:1"
     id="path4725"
     inkscape:connector-curvature="0"
     sodipodi:nodetypes="cccccccccc" />
  <path
     d="m 110.77574,557.07753 0.43565,-0.86798 -1.64565,-0.82599 0.37849,-0.75408 1.64565,0.82596 1.40554,-2.80036 0.90335,0.45339 1.87787,4.48769 -0.36274,0.72267 -3.57409,-1.79388 -0.43566,0.86799 z m 1.44256,-1.30667 2.63932,1.32471 -1.50188,-3.59094 z"
     style="font-style:normal;font-size:medium;text-anchor:middle;fill:none;fill-opacity:1;stroke:#000000;stroke-width:0.06614584;stroke-linecap:butt;stroke-linejoin:bevel;stroke-dasharray:none;stroke-opacity:1"
     id="path4727"
     inkscape:connector-curvature="0"
     sodipodi:nodetypes="cccccccccccccccc" />
  <path
     class="arrow"
     d="m 76.305813,597.20246 -5.937379,-12.83541 6.799631,10.4888 11.973149,-3.59078 z"
     id="path64"
     style="fill:#000000;stroke:#000000;stroke-width:0.0661458;stroke-linecap:butt;stroke-linejoin:bevel;stroke-dasharray:none;stroke-opacity:1"
     inkscape:connector-curvature="0"
     sodipodi:nodetypes="ccccc" />
  <path
     inkscape:connector-curvature="0"
     id="path4730"
     style="font-style:normal;font-size:medium;text-anchor:middle;fill:none;fill-opacity:1;stroke:#000000;stroke-width:0.06614583;stroke-linecap:butt;stroke-linejoin:bevel;stroke-dasharray:none;stroke-opacity:1"
     d="m 81.950815,590.33005 c 0.01557,0.33818 -0.03134,0.66456 -0.140701,0.97917 -0.109357,0.31462 -0.266482,0.58253 -0.471377,0.80377 -0.223658,0.23839 -0.495233,0.42685 -0.814726,0.56537 -0.31639,0.13513 -0.687577,0.21248 -1.113558,0.23208 -0.396703,0.0186 -0.78073,-0.006 -1.152084,-0.0741 -0.371188,-0.0644 -0.686295,-0.14927 -0.945319,-0.25469 l -0.0473,-1.02919 0.06829,-0.003 c 0.274423,0.15682 0.593248,0.28717 0.956477,0.39103 0.363081,0.10062 0.716965,0.143 1.061652,0.12713 0.230877,-0.0101 0.452124,-0.0534 0.663748,-0.12833 0.214879,-0.0751 0.403125,-0.19772 0.564737,-0.36813 0.136646,-0.1464 0.236251,-0.3188 0.298815,-0.51721 0.06581,-0.19854 0.09281,-0.42626 0.081,-0.68314 -0.01152,-0.2504 -0.06515,-0.45975 -0.160864,-0.62805 -0.09247,-0.16845 -0.217522,-0.3012 -0.37514,-0.39821 -0.174776,-0.1158 -0.385227,-0.19247 -0.631353,-0.23003 -0.243026,-0.041 -0.514119,-0.0546 -0.813279,-0.0408 -0.286155,0.0132 -0.561658,0.0455 -0.82651,0.0967 -0.2616,0.0511 -0.487428,0.1006 -0.677486,0.14849 l -0.172132,-3.74117 4.370377,-0.20108 0.0393,0.85359 -3.42898,0.15793 0.08886,1.93155 c 0.139229,-0.0194 0.281857,-0.0358 0.427887,-0.049 0.146038,-0.013 0.272705,-0.0222 0.380001,-0.0274 0.393451,-0.0183 0.739711,3.5e-4 1.038774,0.0549 0.298906,0.0514 0.575814,0.15604 0.830723,0.31372 0.268368,0.16688 0.480598,0.38849 0.63669,0.66481 0.156091,0.27633 0.243934,0.62748 0.263528,1.05347 z"
     sodipodi:nodetypes="ccccccccccccccscccccccccccccccccc" />
  <path
     d="m 78.875708,602.32573 c 0.229373,-0.62423 0.623055,-1.05855 1.181049,-1.30296 0.554232,-0.24269 1.129714,-0.25442 1.726444,-0.0352 0.302491,0.11115 0.560305,0.25895 0.773443,0.44338 0.213138,0.18444 0.380729,0.40365 0.502772,0.65762 0.152625,0.31513 0.224344,0.68481 0.215158,1.10905 -0.01194,0.42322 -0.115412,0.90019 -0.310429,1.43093 -0.200071,0.54448 -0.435154,1.00588 -0.705249,1.38417 -0.272845,0.3773 -0.597262,0.68257 -0.973248,0.91584 -0.356175,0.22182 -0.757211,0.34913 -1.203108,0.38192 -0.446908,0.0355 -0.92473,-0.0402 -1.433464,-0.22709 -0.162244,-0.0596 -0.295839,-0.1165 -0.400784,-0.17067 -0.104945,-0.0542 -0.207222,-0.11989 -0.306832,-0.19702 l 0.289493,-0.78786 0.04125,0.0151 c 0.06184,0.0695 0.164569,0.15098 0.308175,0.24432 0.139851,0.0951 0.290898,0.17245 0.453143,0.23206 0.591233,0.21725 1.131051,0.20492 1.619453,-0.037 0.487391,-0.23915 0.875658,-0.66298 1.1648,-1.27148 -0.282526,0.0554 -0.548297,0.0779 -0.797313,0.0675 -0.252775,-0.009 -0.526284,-0.067 -0.820526,-0.1751 -0.261243,-0.096 -0.481767,-0.20512 -0.661572,-0.32736 -0.183567,-0.12051 -0.35307,-0.29204 -0.50851,-0.51459 -0.180355,-0.25666 -0.284044,-0.5351 -0.311068,-0.8353 -0.02977,-0.30121 0.02253,-0.63468 0.156924,-1.00043 z m 0.849476,0.2747 c -0.09397,0.25574 -0.133279,0.48163 -0.117919,0.67767 0.01264,0.19502 0.08283,0.38624 0.210577,0.57364 0.09416,0.13448 0.213188,0.24376 0.357079,0.32784 0.143891,0.0841 0.299708,0.15695 0.467454,0.21858 0.233743,0.0859 0.46109,0.13822 0.682045,0.15699 0.220952,0.0188 0.458519,0.009 0.7127,-0.0285 0.02772,-0.0584 0.05358,-0.11608 0.07755,-0.17282 0.02296,-0.054 0.0501,-0.1236 0.08142,-0.20885 0.159652,-0.43449 0.24196,-0.7944 0.246923,-1.07973 0.0012,-0.28359 -0.04979,-0.52705 -0.152981,-0.7304 -0.08204,-0.16747 -0.185317,-0.30687 -0.309843,-0.41817 -0.128287,-0.10955 -0.279053,-0.19617 -0.452298,-0.25983 -0.398738,-0.14651 -0.756688,-0.14072 -1.07385,0.0174 -0.318175,0.16087 -0.56113,0.46955 -0.728865,0.92605 z"
     style="font-style:normal;font-size:medium;text-anchor:middle;fill:none;fill-opacity:1;stroke:#000000;stroke-width:0.06614584;stroke-linecap:butt;stroke-linejoin:bevel;stroke-dasharray:none;stroke-opacity:1"
     id="path4733"
     inkscape:connector-curvature="0"
     sodipodi:nodetypes="ccccccsccccccccccccccccccccccscccccccccccc" />
  <path
     d="m 77.11223,599.41643 0.985845,0.36225 -0.431967,1.17559 -0.985847,-0.36225 z"
     style="font-style:normal;font-size:medium;text-anchor:middle;fill:none;fill-opacity:1;stroke:#000000;stroke-width:0.06614584;stroke-linecap:butt;stroke-linejoin:bevel;stroke-dasharray:none;stroke-opacity:1"
     id="path4735"
     inkscape:connector-curvature="0"
     sodipodi:nodetypes="ccccc" />
  <path
     d="m 72.398661,601.57972 0.985846,0.36223 -0.431969,1.1756 -0.985846,-0.36225 z m 1.261047,-3.43191 0.985846,0.36225 -0.43197,1.17559 -0.985846,-0.36225 z"
     style="font-style:normal;font-size:medium;text-anchor:middle;fill:none;fill-opacity:1;stroke:#000000;stroke-width:0.06614584;stroke-linecap:butt;stroke-linejoin:bevel;stroke-dasharray:none;stroke-opacity:1"
     id="path4737"
     inkscape:connector-curvature="0"
     sodipodi:nodetypes="cccccccccc" />
  <path
     d="m 66.738974,597.81929 c 0.105088,-0.28599 0.257875,-0.54041 0.458365,-0.76325 0.20049,-0.22284 0.424323,-0.39029 0.671497,-0.50235 0.268726,-0.11974 0.559783,-0.18134 0.873172,-0.1848 0.30963,-0.002 0.644563,0.0636 1.004802,0.196 0.335491,0.12328 0.645471,0.27775 0.929939,0.46342 0.285479,0.18293 0.517279,0.36331 0.695396,0.54112 l -0.319809,0.87035 -0.05774,-0.0212 c -0.17295,-0.22585 -0.391976,-0.44522 -0.65708,-0.65812 -0.266115,-0.21014 -0.544918,-0.36877 -0.836409,-0.47587 -0.195245,-0.0717 -0.393719,-0.11347 -0.595422,-0.12516 -0.204453,-0.0127 -0.403439,0.0235 -0.596958,0.10838 -0.164447,0.0738 -0.307232,0.18204 -0.428358,0.32482 -0.123876,0.14176 -0.225726,0.32126 -0.305551,0.5385 -0.07781,0.21175 -0.106362,0.40413 -0.08567,0.57716 0.01794,0.17203 0.07537,0.32578 0.172282,0.46126 0.104599,0.15704 0.252442,0.29407 0.443529,0.4111 0.187327,0.11878 0.407487,0.22465 0.660479,0.31761 0.241993,0.0889 0.481799,0.15831 0.719417,0.20816 0.234868,0.0488 0.439488,0.0865 0.61386,0.1132 l -1.162527,3.16379 -3.695891,-1.35805 0.265244,-0.72185 2.89979,1.06552 0.600209,-1.63345 c -0.122286,-0.0324 -0.246314,-0.0686 -0.372082,-0.10864 -0.125768,-0.04 -0.234026,-0.0767 -0.324773,-0.10997 -0.332741,-0.12226 -0.613623,-0.25824 -0.842646,-0.40795 -0.230033,-0.14694 -0.423275,-0.33031 -0.579724,-0.5501 -0.164419,-0.23208 -0.263172,-0.48998 -0.29626,-0.77368 -0.03309,-0.2837 0.01656,-0.60568 0.148924,-0.96592 z"
     style="font-style:normal;font-size:medium;text-anchor:middle;fill:none;fill-opacity:1;stroke:#000000;stroke-width:0.06614584;stroke-linecap:butt;stroke-linejoin:bevel;stroke-dasharray:none;stroke-opacity:1"
     id="path4739"
     inkscape:connector-curvature="0"
     sodipodi:nodetypes="ccccccccccccccscccccccccccccccccc" />
  <path
     class="arrow"
     d="m 96.220179,583.03199 -12.835409,5.93737 10.488812,-6.79963 -3.590768,-11.97315 z"
     id="path76"
     style="fill:#000000;stroke:#000000;stroke-width:0.0661458;stroke-linecap:butt;stroke-linejoin:bevel;stroke-dasharray:none;stroke-opacity:1"
     inkscape:connector-curvature="0"
     sodipodi:nodetypes="ccccc" />
  <path
     inkscape:connector-curvature="0"
     id="path4742"
     style="font-style:normal;font-size:medium;text-anchor:middle;fill:none;fill-opacity:1;stroke:#000000;stroke-width:0.06614583;stroke-linecap:butt;stroke-linejoin:bevel;stroke-dasharray:none;stroke-opacity:1"
     d="m 88.662429,581.53026 c 0.03399,0.73815 -0.182153,1.35259 -0.648409,1.84328 -0.463124,0.48729 -1.047503,0.74716 -1.753138,0.77961 -0.357685,0.0167 -0.685404,-0.0237 -0.983158,-0.12096 -0.297745,-0.0971 -0.563814,-0.24942 -0.798208,-0.45697 -0.292068,-0.25703 -0.524764,-0.60478 -0.698089,-1.04324 -0.170074,-0.43862 -0.269545,-0.97172 -0.298414,-1.5993 -0.02962,-0.64385 0.01241,-1.21769 0.126109,-1.72149 0.116941,-0.50396 0.317719,-0.95636 0.602334,-1.35724 0.269253,-0.38061 0.625165,-0.68375 1.067738,-0.9094 0.442423,-0.2289 0.964423,-0.35718 1.566002,-0.38486 0.191854,-0.009 0.353187,-0.009 0.484003,0.002 0.130819,0.0103 0.263863,0.0335 0.399133,0.0697 l 0.04288,0.93165 -0.04878,0.002 c -0.09329,-0.0446 -0.233589,-0.0838 -0.420883,-0.1175 -0.184194,-0.0372 -0.372218,-0.0514 -0.564073,-0.0425 -0.699145,0.0318 -1.246726,0.277 -1.642744,0.73544 -0.396184,0.45488 -0.611294,1.05622 -0.645328,1.80402 0.265522,-0.1784 0.528034,-0.31594 0.787538,-0.4126 0.262606,-0.10009 0.567879,-0.1581 0.915819,-0.1741 0.308915,-0.0142 0.581782,0.002 0.81861,0.0504 0.23992,0.0443 0.487412,0.14702 0.742476,0.308 0.295279,0.1852 0.521413,0.42571 0.678402,0.72154 0.160241,0.29568 0.250308,0.65978 0.270202,1.09225 z m -0.98837,0.0846 c -0.0139,-0.30241 -0.07094,-0.55071 -0.171127,-0.74487 -0.09692,-0.19432 -0.251179,-0.35993 -0.462772,-0.49684 -0.154367,-0.0971 -0.323349,-0.15783 -0.506944,-0.18198 -0.183595,-0.0242 -0.374572,-0.0317 -0.57293,-0.0226 -0.2764,0.0127 -0.531793,0.057 -0.766178,0.13309 -0.234384,0.0761 -0.473629,0.18804 -0.717736,0.33607 -0.0032,0.0718 -0.0049,0.14199 -0.005,0.21042 -2.48e-4,0.0652 0.0019,0.14819 0.0065,0.24898 0.02366,0.51378 0.09439,0.91786 0.212176,1.21223 0.12092,0.29098 0.278019,0.51838 0.471297,0.6822 0.156164,0.1362 0.321987,0.23447 0.497471,0.29482 0.178588,0.057 0.370314,0.0808 0.575177,0.0714 0.471517,-0.0214 0.835638,-0.18159 1.092362,-0.4804 0.256584,-0.30182 0.372461,-0.72263 0.347631,-1.26243 z"
     sodipodi:nodetypes="ccccccccccccccccccccccccccccccsccccccccccc" />
  <path
     inkscape:connector-curvature="0"
     id="path4744"
     style="font-style:normal;font-size:medium;text-anchor:middle;fill:none;fill-opacity:1;stroke:#000000;stroke-width:0.06614583;stroke-linecap:butt;stroke-linejoin:bevel;stroke-dasharray:none;stroke-opacity:1"
     d="m 91.721779,583.75043 -1.165769,0.0534 -0.06397,-1.39012 1.16577,-0.0534 z"
     sodipodi:nodetypes="ccccc" />
  <path
     d="m 100.50149,576.5992 1.22163,-3.32466 0.62699,0.23038 -0.46986,1.27871 4.11662,1.51267 0.46987,-1.27872 0.56098,0.20614 c -0.0636,0.17324 -0.11814,0.36391 -0.16337,0.57201 -0.0425,0.20911 -0.055,0.37464 -0.0374,0.4966 0.0222,0.15175 0.0725,0.28257 0.15073,0.39247 0.08,0.11366 0.20731,0.20883 0.38201,0.2855 l -0.23494,0.63937 -5.53557,-2.03405 -0.46078,1.25396 z"
     style="font-style:normal;font-size:medium;text-anchor:middle;fill:none;fill-opacity:1;stroke:#000000;stroke-width:0.06614581;stroke-linecap:butt;stroke-linejoin:bevel;stroke-dasharray:none;stroke-opacity:1"
     id="path4747"
     inkscape:connector-curvature="0"
     sodipodi:nodetypes="ccccccccccccccc" />
  <path
     d="m 98.396199,582.32864 1.527811,-4.15788 0.8621,0.31678 0.42418,1.13906 c 0.14039,0.38243 0.28698,0.74373 0.43977,1.0839 0.31748,0.71594 0.59021,1.22659 0.81821,1.53198 0.23075,0.3064 0.52074,0.52375 0.86998,0.65207 0.31899,0.11722 0.60676,0.10263 0.86329,-0.0437 0.2583,-0.14231 0.45665,-0.40184 0.59509,-0.77857 0.092,-0.25025 0.14747,-0.53728 0.16659,-0.8611 0.0191,-0.32383 -0.0113,-0.65796 -0.0905,-1.00238 l 0.0152,-0.0413 0.86622,0.31829 c 0.0244,0.23061 0.017,0.52281 -0.0225,0.87659 -0.0405,0.35655 -0.11684,0.68744 -0.22898,0.99268 -0.23139,0.62973 -0.56539,1.06726 -1.002,1.3126 -0.43385,0.24635 -0.91064,0.27402 -1.43038,0.083 -0.23373,-0.0858 -0.44124,-0.19647 -0.62251,-0.33174 -0.17952,-0.13151 -0.33881,-0.28836 -0.47786,-0.47055 -0.13109,-0.16989 -0.25236,-0.35803 -0.3638,-0.56439 -0.11245,-0.20364 -0.23115,-0.44546 -0.35611,-0.72546 -0.18063,-0.40034 -0.34946,-0.80728 -0.50651,-1.2208 -0.1543,-0.41251 -0.29693,-0.79732 -0.42789,-1.15445 l -1.214064,3.30402 z"
     style="font-style:normal;font-size:medium;text-anchor:middle;fill:none;fill-opacity:1;stroke:#000000;stroke-width:0.06614581;stroke-linecap:butt;stroke-linejoin:bevel;stroke-dasharray:none;stroke-opacity:1"
     id="path4749"
     inkscape:connector-curvature="0"
     sodipodi:nodetypes="ccccccccccccccccccccccccc" />
  <path
     d="m 100.7368,586.55961 0.36225,-0.98585 1.17559,0.43197 -0.36225,0.98584 z m -3.431893,-1.26106 0.362249,-0.98584 1.175589,0.43197 -0.362248,0.98585 z"
     style="font-style:normal;font-size:medium;text-anchor:middle;fill:none;fill-opacity:1;stroke:#000000;stroke-width:0.06614581;stroke-linecap:butt;stroke-linejoin:bevel;stroke-dasharray:none;stroke-opacity:1"
     id="path4751"
     inkscape:connector-curvature="0"
     sodipodi:nodetypes="cccccccccc" />
  <path
     d="m 96.9661,592.37469 c -0.624232,-0.22937 -1.058557,-0.62306 -1.302977,-1.18105 -0.24268,-0.55423 -0.254388,-1.12971 -0.03512,-1.72645 0.111149,-0.30249 0.258943,-0.5603 0.443382,-0.77344 0.184439,-0.21314 0.403641,-0.38073 0.657607,-0.50277 0.315141,-0.15262 0.684827,-0.22435 1.109058,-0.21517 0.423221,0.012 0.900198,0.11547 1.430931,0.31045 0.544484,0.20007 1.005873,0.43515 1.384173,0.70524 0.37729,0.27286 0.68257,0.59728 0.91584,0.97326 0.22181,0.35616 0.34912,0.7572 0.38191,1.2031 0.0355,0.44692 -0.0401,0.92473 -0.22708,1.43346 -0.0596,0.16225 -0.11649,0.29585 -0.17068,0.4008 -0.0542,0.10493 -0.11983,0.20721 -0.19703,0.30681 l -0.78785,-0.28948 0.0152,-0.0413 c 0.0695,-0.0618 0.15099,-0.16453 0.24433,-0.30816 0.0951,-0.13985 0.17244,-0.29091 0.23205,-0.45315 0.21725,-0.59123 0.20492,-1.13105 -0.037,-1.61945 -0.23915,-0.4874 -0.66298,-0.87567 -1.271488,-1.1648 0.05536,0.28252 0.07787,0.54829 0.06753,0.79731 -0.0087,0.25277 -0.06697,0.52628 -0.175094,0.82052 -0.09599,0.26124 -0.205115,0.48177 -0.327367,0.66158 -0.120512,0.18356 -0.292038,0.35307 -0.51458,0.50851 -0.256663,0.18036 -0.535097,0.28405 -0.835298,0.31108 -0.301213,0.0298 -0.63469,-0.0225 -1.00043,-0.15694 z m 0.274686,-0.84947 c 0.255741,0.0939 0.481631,0.13328 0.677669,0.11791 0.195051,-0.0121 0.386267,-0.0823 0.573648,-0.21057 0.134479,-0.0942 0.24376,-0.21319 0.327846,-0.35707 0.08408,-0.1439 0.156945,-0.29972 0.218584,-0.46746 0.08589,-0.23374 0.138215,-0.46109 0.15698,-0.68205 0.01877,-0.22094 0.0093,-0.45852 -0.02838,-0.71271 -0.05848,-0.0277 -0.116084,-0.0535 -0.172822,-0.0775 -0.05399,-0.0229 -0.123611,-0.0501 -0.208853,-0.0814 -0.434487,-0.15965 -0.794395,-0.24196 -1.079723,-0.24692 -0.283587,-0.002 -0.527049,0.0497 -0.730392,0.15298 -0.167477,0.082 -0.306867,0.18532 -0.41817,0.30984 -0.109563,0.12829 -0.196174,0.27906 -0.259832,0.45231 -0.146517,0.39873 -0.140714,0.75669 0.01741,1.07384 0.160875,0.31817 0.469555,0.56113 0.92604,0.72887 z"
     style="font-style:normal;font-size:medium;text-anchor:middle;fill:none;fill-opacity:1;stroke:#000000;stroke-width:0.06614581;stroke-linecap:butt;stroke-linejoin:bevel;stroke-dasharray:none;stroke-opacity:1"
     id="path4753"
     inkscape:connector-curvature="0"
     sodipodi:nodetypes="cccccccccccccccccccccccccccccccccccccccccc" />
  <path
     d="m 94.056795,594.13816 0.362249,-0.98583 1.17559,0.43196 -0.362249,0.98585 z"
     style="font-style:normal;font-size:medium;text-anchor:middle;fill:none;fill-opacity:1;stroke:#000000;stroke-width:0.06614581;stroke-linecap:butt;stroke-linejoin:bevel;stroke-dasharray:none;stroke-opacity:1"
     id="path4755"
     inkscape:connector-curvature="0"
     sodipodi:nodetypes="ccccc" />
  <path
     class="arrow"
     d="m 134.86058,274.91738 12.83541,-5.93736 -10.48882,6.79961 3.59077,11.97317 z"
     id="path88"
     style="fill:#000000;stroke:#000000;stroke-width:0.0661458;stroke-linecap:butt;stroke-linejoin:bevel;stroke-dasharray:none;stroke-opacity:1"
     inkscape:connector-curvature="0"
     sodipodi:nodetypes="ccccc" />
  <path
     inkscape:connector-curvature="0"
     id="path4758"
     style="font-style:normal;font-size:medium;text-anchor:middle;fill:none;fill-opacity:1;stroke:#000000;stroke-width:0.06614583;stroke-linecap:butt;stroke-linejoin:bevel;stroke-dasharray:none;stroke-opacity:1"
     d="m 145.74934,275.72527 -3.00349,6.32634 -1.0438,0.0486 3.20246,-6.57012 -4.13624,0.19016 -0.0393,-0.85359 4.97032,-0.2286 z"
     sodipodi:nodetypes="cccccccc" />
  <path
     d="m 132.26018,276.77554 -1.52782,4.15787 -0.8621,-0.31676 c -0.14139,-0.37968 -0.28278,-0.75937 -0.42417,-1.13906 -0.14039,-0.38243 -0.28698,-0.74373 -0.43978,-1.0839 -0.31747,-0.71594 -0.59021,-1.22659 -0.8182,-1.53197 -0.23076,-0.3064 -0.52075,-0.52375 -0.86999,-0.65209 -0.31899,-0.11721 -0.60675,-0.10262 -0.86329,0.0438 -0.25828,0.14231 -0.45665,0.40184 -0.59508,0.77858 -0.092,0.25024 -0.14748,0.53727 -0.16658,0.8611 -0.0192,0.32383 0.0112,0.65796 0.0904,1.00239 l -0.0151,0.0413 -0.86623,-0.31829 c -0.0245,-0.23061 -0.0171,-0.52282 0.0225,-0.87661 0.0405,-0.35654 0.11691,-0.68743 0.22899,-0.99267 0.2314,-0.62974 0.56539,-1.06727 1.002,-1.3126 0.43384,-0.24633 0.91063,-0.27402 1.43037,-0.083 0.23373,0.0858 0.44124,0.19647 0.62251,0.33174 0.17952,0.13152 0.33882,0.28837 0.47787,0.47055 0.13109,0.1699 0.25235,0.35803 0.36379,0.5644 0.11245,0.20363 0.23116,0.44544 0.35612,0.72545 0.18062,0.40034 0.34946,0.80727 0.50651,1.22079 0.1543,0.41252 0.29693,0.79733 0.42789,1.15445 l 1.21406,-3.30402 z"
     style="font-style:normal;font-size:medium;text-anchor:middle;fill:none;fill-opacity:1;stroke:#000000;stroke-width:0.06614581;stroke-linecap:butt;stroke-linejoin:bevel;stroke-dasharray:none;stroke-opacity:1"
     id="path4761"
     inkscape:connector-curvature="0"
     sodipodi:nodetypes="ccccccccccccccccccccccccc" />
  <path
     d="m 129.91957,272.54459 -0.36225,0.98584 -1.1756,-0.43196 0.36226,-0.98586 z m 3.43189,1.26104 -0.36223,0.98584 -1.1756,-0.43196 0.36225,-0.98586 z"
     style="font-style:normal;font-size:medium;text-anchor:middle;fill:none;fill-opacity:1;stroke:#000000;stroke-width:0.06614581;stroke-linecap:butt;stroke-linejoin:bevel;stroke-dasharray:none;stroke-opacity:1"
     id="path4763"
     inkscape:connector-curvature="0"
     sodipodi:nodetypes="cccccccccc" />
  <path
     d="m 130.43322,265.61696 4.20052,4.69903 -0.32436,0.88272 -4.33334,-4.94914 -1.2853,3.49789 -0.72186,-0.26524 1.54449,-4.20326 z"
     style="font-style:normal;font-size:medium;text-anchor:middle;fill:none;fill-opacity:1;stroke:#000000;stroke-width:0.06614581;stroke-linecap:butt;stroke-linejoin:bevel;stroke-dasharray:none;stroke-opacity:1"
     id="path4765"
     inkscape:connector-curvature="0"
     sodipodi:nodetypes="cccccccc" />
  <path
     class="arrow"
     d="m 223.3057,34.217164 12.8354,-5.937361 -10.4888,6.799617 3.59076,11.973153 z"
     id="path100"
     style="fill:#000000;stroke:#000000;stroke-width:0.06614579;stroke-linecap:butt;stroke-linejoin:bevel;stroke-dasharray:none;stroke-opacity:1"
     inkscape:connector-curvature="0"
     sodipodi:nodetypes="ccccc" />
  <path
     inkscape:connector-curvature="0"
     id="path4768"
     style="font-style:normal;font-size:medium;text-anchor:middle;fill:none;fill-opacity:1;stroke:#000000;stroke-width:0.06614583;stroke-linecap:butt;stroke-linejoin:bevel;stroke-dasharray:none;stroke-opacity:1"
     d="m 234.41955,39.174374 c 0.029,0.627584 -0.19248,1.160785 -0.6645,1.599607 -0.46862,0.438663 -1.07363,0.675047 -1.81503,0.709151 -0.78692,0.03621 -1.42387,-0.138158 -1.91082,-0.523102 -0.48371,-0.385082 -0.74015,-0.89467 -0.7693,-1.528765 -0.0189,-0.403205 0.0815,-0.772789 0.30092,-1.108749 0.21902,-0.339198 0.53711,-0.614522 0.95426,-0.825971 l -0.001,-0.02926 c -0.39978,-0.190164 -0.69966,-0.404476 -0.89963,-0.642935 -0.19672,-0.238608 -0.30361,-0.543263 -0.32066,-0.913965 -0.0251,-0.546299 0.17834,-1.011868 0.61029,-1.396707 0.432,-0.38484 0.99432,-0.59319 1.68695,-0.625051 0.72513,-0.03335 1.31194,0.113993 1.76044,0.442035 0.44849,0.328046 0.68507,0.76034 0.70975,1.296882 0.0152,0.328423 -0.0724,0.656686 -0.26263,0.984788 -0.19035,0.324846 -0.47978,0.585817 -0.86827,0.782913 l 0.001,0.02927 c 0.46423,0.174165 0.82324,0.39879 1.07703,0.673879 0.25379,0.275086 0.39086,0.633749 0.4112,1.07599 z m -1.31911,-3.492881 c -0.0162,-0.347931 -0.16385,-0.618123 -0.443,-0.810577 -0.27622,-0.195848 -0.62244,-0.284199 -1.03867,-0.265054 -0.40972,0.01883 -0.74179,0.13186 -0.9962,0.339104 -0.25117,0.207072 -0.36912,0.476448 -0.35387,0.808128 0.0112,0.234126 0.0851,0.434372 0.22316,0.600733 0.14109,0.162959 0.34803,0.304968 0.62081,0.426025 0.12301,0.05299 0.29886,0.121484 0.52757,0.205468 0.23197,0.08383 0.45668,0.1517 0.67414,0.203612 0.31205,-0.229424 0.52455,-0.462417 0.6375,-0.698977 0.11295,-0.236559 0.16248,-0.506047 0.14856,-0.808462 z m 0.31858,3.631775 c -0.0138,-0.299161 -0.0914,-0.535099 -0.23296,-0.707815 -0.13845,-0.176116 -0.40372,-0.346399 -0.79581,-0.510847 -0.15613,-0.06451 -0.32666,-0.123471 -0.51159,-0.176875 -0.18494,-0.0534 -0.43116,-0.128431 -0.73866,-0.225085 -0.28534,0.172799 -0.51115,0.399887 -0.67742,0.681262 -0.16303,0.281226 -0.23661,0.594183 -0.22076,0.93887 0.0199,0.439003 0.18777,0.794621 0.50365,1.066851 0.31557,0.272246 0.70587,0.397673 1.17087,0.376283 0.47475,-0.02184 0.84798,-0.161205 1.11967,-0.418102 0.27494,-0.257045 0.40261,-0.598559 0.38301,-1.024542 z"
     sodipodi:nodetypes="cccccccccccccccccccccccccccccccccccccccscc" />
  <path
     d="m 220.70524,36.075337 -1.52781,4.157877 -0.86211,-0.316779 c -0.14139,-0.379683 -0.28278,-0.759365 -0.42418,-1.139047 -0.14039,-0.382432 -0.28698,-0.743736 -0.43976,-1.083908 -0.31748,-0.71593 -0.59022,-1.226586 -0.81822,-1.53197 -0.23075,-0.306394 -0.52075,-0.523756 -0.86998,-0.652084 -0.31899,-0.117212 -0.60677,-0.102785 -0.86331,0.04328 -0.25829,0.142304 -0.45665,0.401825 -0.59508,0.778563 -0.092,0.250243 -0.14749,0.537277 -0.1666,0.861103 -0.0191,0.323825 0.0112,0.657954 0.0904,1.002389 l -0.0151,0.04125 -0.86623,-0.318293 c -0.0245,-0.230611 -0.0171,-0.522813 0.0225,-0.876606 0.0405,-0.356546 0.11684,-0.687437 0.22899,-0.992677 0.23139,-0.62973 0.56539,-1.067259 1.00199,-1.312588 0.43386,-0.24634 0.91064,-0.274022 1.43037,-0.08305 0.23376,0.08589 0.44125,0.196468 0.62251,0.33174 0.17953,0.131513 0.33883,0.288362 0.47788,0.470548 0.13109,0.169895 0.25235,0.358029 0.36379,0.564402 0.11246,0.203624 0.23116,0.445439 0.35612,0.725446 0.18062,0.400338 0.34946,0.80727 0.50651,1.220797 0.15429,0.412516 0.29692,0.797334 0.42789,1.154454 l 1.21405,-3.304027 z"
     style="font-style:normal;font-size:medium;text-anchor:middle;fill:none;fill-opacity:1;stroke:#000000;stroke-width:0.06614581;stroke-linecap:butt;stroke-linejoin:bevel;stroke-dasharray:none;stroke-opacity:1"
     id="path4771"
     inkscape:connector-curvature="0"
     sodipodi:nodetypes="ccccccccccccccccccccccccc" />
  <path
     d="m 218.36463,31.844377 -0.36226,0.985845 -1.17558,-0.43197 0.36224,-0.985845 z m 3.4319,1.261049 -0.36225,0.985847 -1.1756,-0.431972 0.36226,-0.985845 z"
     style="font-style:normal;font-size:medium;text-anchor:middle;fill:none;fill-opacity:1;stroke:#000000;stroke-width:0.06614581;stroke-linecap:butt;stroke-linejoin:bevel;stroke-dasharray:none;stroke-opacity:1"
     id="path4773"
     inkscape:connector-curvature="0"
     sodipodi:nodetypes="cccccccccc" />
  <path
     d="m 222.39915,26.177731 c 0.53074,0.195018 0.89581,0.564815 1.09521,1.109392 0.20042,0.541826 0.18544,1.126229 -0.045,1.75321 -0.24454,0.665479 -0.61143,1.13306 -1.10068,1.402742 -0.48823,0.266931 -1.00046,0.301875 -1.53669,0.104831 -0.34099,-0.125295 -0.61261,-0.337463 -0.81484,-0.636502 -0.20499,-0.300051 -0.32243,-0.660004 -0.35231,-1.07986 l -0.0247,-0.0091 c -0.29725,0.265321 -0.57968,0.439332 -0.84727,0.522032 -0.2666,0.07995 -0.55664,0.06233 -0.87013,-0.05286 -0.46198,-0.169758 -0.77725,-0.500966 -0.9458,-0.993626 -0.16855,-0.49266 -0.1452,-1.031855 0.07,-1.617587 0.22534,-0.613232 0.55232,-1.048658 0.98095,-1.306278 0.42863,-0.25762 0.86982,-0.303068 1.32357,-0.136344 0.27773,0.102056 0.51952,0.289218 0.72535,0.561489 0.20308,0.271259 0.3186,0.602421 0.34658,0.993486 l 0.0247,0.0091 c 0.30646,-0.324361 0.61807,-0.543829 0.93484,-0.658404 0.31677,-0.114573 0.66215,-0.103153 1.03614,0.03428 z m -3.358,-0.124306 c -0.29425,-0.10812 -0.56992,-0.07988 -0.82703,0.0847 -0.25885,0.160822 -0.45295,0.417229 -0.58229,0.769218 -0.12731,0.34649 -0.14939,0.66142 -0.0662,0.944791 0.0842,0.280622 0.26648,0.472465 0.54698,0.575532 0.198,0.07276 0.39007,0.08091 0.57624,0.02446 0.18443,-0.0602 0.37444,-0.182336 0.57003,-0.366401 0.0869,-0.08356 0.20507,-0.205558 0.35455,-0.366 0.15048,-0.163191 0.28519,-0.325934 0.40413,-0.48823 -0.0815,-0.338931 -0.20064,-0.596516 -0.35747,-0.772757 -0.15685,-0.176238 -0.36314,-0.311344 -0.61888,-0.405316 z m 3.12414,1.002829 c -0.25299,-0.09296 -0.47582,-0.110859 -0.66849,-0.05369 -0.19441,0.05341 -0.42825,0.21407 -0.70148,0.481974 -0.10798,0.107016 -0.2164,0.227921 -0.32523,0.362718 -0.10883,0.134798 -0.25699,0.31289 -0.44446,0.534277 0.0438,0.297005 0.15341,0.563568 0.32884,0.799692 0.17642,0.233375 0.41038,0.403616 0.70188,0.510724 0.37123,0.136412 0.72483,0.121204 1.06081,-0.04563 0.33596,-0.166822 0.57619,-0.446853 0.72069,-0.840091 0.14752,-0.401488 0.16213,-0.759745 0.0438,-1.074773 -0.11731,-0.317777 -0.3561,-0.54285 -0.71634,-0.67522 z"
     style="font-style:normal;font-size:medium;text-anchor:middle;fill:none;fill-opacity:1;stroke:#000000;stroke-width:0.06614581;stroke-linecap:butt;stroke-linejoin:bevel;stroke-dasharray:none;stroke-opacity:1"
     id="path4775"
     inkscape:connector-curvature="0"
     sodipodi:nodetypes="cccccccccssccccccccccccccccccccccccccccccccc" />
  <path
     class="arrow"
     d="m 232.79523,16.216105 5.93736,12.835413 -6.79961,-10.488817 -11.97317,3.590759 z"
     id="path112"
     style="fill:#000000;stroke:#000000;stroke-width:0.0661458;stroke-linecap:butt;stroke-linejoin:bevel;stroke-dasharray:none;stroke-opacity:1"
     inkscape:connector-curvature="0"
     sodipodi:nodetypes="ccccc" />
  <path
     inkscape:connector-curvature="0"
     id="path4778"
     style="font-style:normal;font-size:medium;text-anchor:middle;fill:none;fill-opacity:1;stroke:#000000;stroke-width:0.06614583;stroke-linecap:butt;stroke-linejoin:bevel;stroke-dasharray:none;stroke-opacity:1"
     d="m 230.38529,24.559589 c 0.0293,0.634088 -0.0173,1.213016 -0.14006,1.736787 -0.1193,0.523613 -0.3169,0.97425 -0.5928,1.35191 -0.27887,0.384313 -0.63641,0.687521 -1.07262,0.909622 -0.43622,0.222102 -0.95512,0.34699 -1.5567,0.374662 -0.16908,0.0077 -0.32887,0.0053 -0.47935,-0.0072 -0.15033,-0.0094 -0.28493,-0.03089 -0.40378,-0.06453 l -0.0431,-0.931621 0.0488,-0.0022 c 0.0965,0.04443 0.23203,0.08546 0.40647,0.123054 0.17429,0.03435 0.36712,0.04666 0.5785,0.03693 0.71863,-0.03304 1.2713,-0.273533 1.65803,-0.72148 0.38983,-0.451333 0.59983,-1.057326 0.63001,-1.81798 -0.29402,0.19601 -0.57257,0.339169 -0.83563,0.429477 -0.26305,0.09031 -0.55228,0.142716 -0.86772,0.157226 -0.29915,0.01374 -0.57202,-0.0031 -0.8186,-0.05033 -0.24332,-0.04746 -0.49081,-0.15013 -0.74247,-0.308005 -0.29529,-0.185196 -0.52312,-0.427262 -0.68351,-0.726196 -0.15714,-0.299086 -0.24551,-0.661619 -0.2651,-1.087601 -0.0339,-0.741415 0.18229,-1.355836 0.6484,-1.843265 0.46638,-0.48744 1.05076,-0.747315 1.75315,-0.779624 0.35119,-0.01613 0.67891,0.0242 0.98316,0.120968 0.3041,0.09354 0.57334,0.244095 0.80774,0.451642 0.28881,0.257183 0.5178,0.595325 0.68698,1.014427 0.16903,0.41585 0.26902,0.960332 0.29998,1.633448 z m -0.99493,-0.164416 c -0.0231,-0.504031 -0.0938,-0.906483 -0.21195,-1.207357 -0.11811,-0.30088 -0.27211,-0.531678 -0.46199,-0.692393 -0.15957,-0.139299 -0.32857,-0.235802 -0.50701,-0.289509 -0.17859,-0.05696 -0.37031,-0.08073 -0.57517,-0.0713 -0.46825,0.02153 -0.83222,0.184908 -1.09191,0.490145 -0.25643,0.305074 -0.37246,0.72263 -0.34808,1.252669 0.0142,0.308914 0.0697,0.558908 0.16647,0.749979 0.0967,0.191068 0.25259,0.354979 0.46743,0.491735 0.15097,0.09408 0.31507,0.154958 0.49231,0.18265 0.17709,0.02444 0.37294,0.03172 0.58756,0.02186 0.25364,-0.01167 0.50896,-0.05763 0.76595,-0.137881 0.257,-0.08026 0.49633,-0.19065 0.71797,-0.33119 2e-5,-0.06843 3.4e-4,-0.135249 0.001,-0.200447 0.004,-0.06859 0.003,-0.154918 -0.002,-0.258974 z"
     sodipodi:nodetypes="cccccccccccccccccccccccccccccccccccccccccc" />
  <path
     inkscape:connector-curvature="0"
     id="path4780"
     style="font-style:normal;font-size:medium;text-anchor:middle;fill:none;fill-opacity:1;stroke:#000000;stroke-width:0.06614583;stroke-linecap:butt;stroke-linejoin:bevel;stroke-dasharray:none;stroke-opacity:1"
     d="m 233.64046,28.486427 -1.16576,0.05361 -0.0643,-1.390118 1.16575,-0.05361 z"
     sodipodi:nodetypes="ccccc" />
  <path
     d="m 232.05928,14.830487 c -0.0283,0.07722 -0.0696,0.145911 -0.12377,0.20608 -0.0542,0.06018 -0.1146,0.105386 -0.1813,0.135634 -0.0725,0.03233 -0.15114,0.04897 -0.23577,0.04989 -0.0836,4.41e-4 -0.17402,-0.01719 -0.27128,-0.05291 -0.0906,-0.03328 -0.17427,-0.07499 -0.25108,-0.125128 -0.0771,-0.04939 -0.13968,-0.09809 -0.18776,-0.1461 l 0.0864,-0.234998 0.0156,0.0056 c 0.0468,0.06098 0.1059,0.120208 0.17741,0.177693 0.0719,0.05674 0.14713,0.09957 0.22584,0.128489 0.0528,0.01937 0.10635,0.03064 0.16076,0.03379 0.0552,0.0034 0.10894,-0.0063 0.16118,-0.02925 0.0444,-0.01993 0.083,-0.04916 0.11567,-0.0877 0.0335,-0.03827 0.061,-0.08673 0.0825,-0.145393 0.021,-0.05717 0.0288,-0.109116 0.0232,-0.155836 -0.005,-0.04644 -0.0204,-0.08796 -0.0465,-0.124542 -0.0282,-0.0424 -0.0681,-0.07941 -0.11976,-0.110998 -0.0507,-0.03207 -0.11007,-0.06066 -0.17832,-0.08576 -0.0653,-0.02401 -0.13008,-0.04275 -0.19425,-0.0562 -0.0634,-0.01319 -0.11865,-0.02338 -0.16574,-0.03056 l 0.31389,-0.854221 0.99789,0.366674 -0.0716,0.194903 -0.78294,-0.287693 -0.16206,0.441033 c 0.0331,0.0087 0.0665,0.01853 0.10044,0.02933 0.034,0.01079 0.0632,0.02069 0.0876,0.02969 0.0899,0.03302 0.16568,0.06974 0.22752,0.110146 0.0621,0.03969 0.11424,0.08919 0.15652,0.148529 0.0444,0.06266 0.0712,0.132293 0.08,0.208894 0.009,0.07659 -0.004,0.163526 -0.0402,0.260798 z"
     style="font-style:normal;font-size:medium;text-anchor:middle;fill:none;fill-opacity:1;stroke:#000000;stroke-width:0.06614581;stroke-linecap:butt;stroke-linejoin:bevel;stroke-dasharray:none;stroke-opacity:1"
     id="path4783"
     inkscape:connector-curvature="0"
     sodipodi:nodetypes="ccccccccccccccccccccccccccccccccc" />
  <path
     d="m 233.02143,14.730222 -0.26618,-0.09781 0.11663,-0.317408 0.26618,0.09781 z m -0.34048,0.926613 -0.26618,-0.09781 0.11662,-0.31741 0.26619,0.09781 z"
     style="font-style:normal;font-size:medium;text-anchor:middle;fill:none;fill-opacity:1;stroke:#000000;stroke-width:0.06614581;stroke-linecap:butt;stroke-linejoin:bevel;stroke-dasharray:none;stroke-opacity:1"
     id="path4785"
     inkscape:connector-curvature="0"
     sodipodi:nodetypes="cccccccccc" />
  <path
     d="m 234.70842,15.347577 c -0.0532,0.144783 -0.11822,0.270063 -0.19499,0.37584 -0.0761,0.106049 -0.16277,0.188376 -0.26015,0.246981 -0.0987,0.05982 -0.20732,0.09405 -0.32595,0.102705 -0.11863,0.0087 -0.24662,-0.01223 -0.38397,-0.06272 -0.0386,-0.01419 -0.0742,-0.02978 -0.1067,-0.04678 -0.0328,-0.01627 -0.0609,-0.03376 -0.0845,-0.05249 l 0.0782,-0.212722 0.0111,0.004 c 0.0174,0.01905 0.0439,0.041 0.0793,0.06586 0.0358,0.02411 0.0778,0.04504 0.12609,0.06277 0.16409,0.06029 0.31055,0.0585 0.43937,-0.0054 0.12983,-0.06438 0.23396,-0.180337 0.31239,-0.347872 -0.0843,0.01621 -0.16022,0.02205 -0.22765,0.01752 -0.0674,-0.0046 -0.13715,-0.02004 -0.20917,-0.04652 -0.0683,-0.0251 -0.12784,-0.05457 -0.17862,-0.08839 -0.0501,-0.03355 -0.0959,-0.07987 -0.1373,-0.138934 -0.0487,-0.0693 -0.077,-0.144982 -0.0848,-0.227051 -0.007,-0.08179 0.007,-0.171315 0.0431,-0.268593 0.0623,-0.169284 0.16853,-0.286552 0.31889,-0.351804 0.15038,-0.06525 0.30576,-0.06842 0.46614,-0.0095 0.0802,0.02947 0.14981,0.06937 0.20883,0.119714 0.0593,0.0496 0.10544,0.108681 0.13839,0.177259 0.0405,0.08481 0.0599,0.18213 0.0582,0.291946 -4.7e-4,0.109044 -0.0297,0.240429 -0.0867,0.394148 z m -0.20739,-0.130555 c 0.0423,-0.115084 0.0644,-0.211886 0.0663,-0.29041 0.002,-0.07851 -0.0111,-0.144714 -0.0383,-0.198617 -0.0225,-0.04624 -0.0513,-0.08378 -0.0863,-0.112611 -0.0346,-0.02958 -0.0754,-0.05296 -0.12213,-0.07015 -0.10691,-0.03929 -0.20383,-0.03699 -0.29075,0.0069 -0.0862,0.04417 -0.1515,0.12678 -0.19597,0.247803 -0.0259,0.07054 -0.037,0.131759 -0.0334,0.183677 0.003,0.0519 0.023,0.103297 0.0584,0.154182 0.0251,0.03529 0.0561,0.06438 0.0931,0.08728 0.0374,0.02216 0.0806,0.04223 0.12956,0.06024 0.0579,0.02129 0.11943,0.03504 0.18456,0.04128 0.0651,0.0062 0.12917,0.0041 0.19202,-0.0064 0.007,-0.01533 0.013,-0.03027 0.019,-0.04485 0.007,-0.01504 0.0152,-0.03446 0.0239,-0.05821 z"
     style="font-style:normal;font-size:medium;text-anchor:middle;fill:none;fill-opacity:1;stroke:#000000;stroke-width:0.06614581;stroke-linecap:butt;stroke-linejoin:bevel;stroke-dasharray:none;stroke-opacity:1"
     id="path4787"
     inkscape:connector-curvature="0"
     sodipodi:nodetypes="cccccccccccccccccccccccccccccccccccccccccc" />
  <path
     d="m 235.06764,16.533825 -0.26618,-0.09781 0.11663,-0.31741 0.26618,0.09781 z"
     style="font-style:normal;font-size:medium;text-anchor:middle;fill:none;fill-opacity:1;stroke:#000000;stroke-width:0.06614581;stroke-linecap:butt;stroke-linejoin:bevel;stroke-dasharray:none;stroke-opacity:1"
     id="path4789"
     inkscape:connector-curvature="0"
     sodipodi:nodetypes="ccccc" />
  <path
     d="m 274.58835,123.36456 c -0.51679,-0.10377 -0.90597,-0.39222 -1.16753,-0.86535 -0.26211,-0.47047 -0.33187,-1.01096 -0.20929,-1.62147 0.1301,-0.64801 0.40121,-1.1312 0.81334,-1.44958 0.41159,-0.31571 0.87846,-0.42115 1.40061,-0.31631 0.33203,0.0667 0.61258,0.22327 0.84163,0.46983 0.23174,0.24709 0.3914,0.56189 0.47895,0.94438 l 0.024,0.005 c 0.23587,-0.28692 0.47117,-0.4876 0.70586,-0.60205 0.23414,-0.11177 0.50384,-0.13703 0.80909,-0.0758 0.44986,0.0903 0.78763,0.35035 1.01334,0.78008 0.22571,0.42973 0.28131,0.92977 0.1668,1.50012 -0.11989,0.59712 -0.35885,1.04498 -0.71686,1.34359 -0.35801,0.2986 -0.75793,0.40356 -1.19974,0.31485 -0.27045,-0.0543 -0.51995,-0.19211 -0.74849,-0.41352 -0.22586,-0.22084 -0.37964,-0.50938 -0.46133,-0.86563 l -0.024,-0.005 c -0.23593,0.34262 -0.49161,0.58934 -0.76702,0.74018 -0.27542,0.15084 -0.59521,0.1897 -0.95937,0.11661 z m 3.11113,-0.36565 c 0.28652,0.0575 0.53643,-0.008 0.74975,-0.19628 0.21545,-0.18515 0.35758,-0.4491 0.4264,-0.79186 0.0677,-0.33739 0.043,-0.63065 -0.0741,-0.8798 -0.11765,-0.24648 -0.31303,-0.39714 -0.58615,-0.45196 -0.1928,-0.0388 -0.37091,-0.0188 -0.53434,0.0598 -0.16128,0.0818 -0.31885,0.2215 -0.47271,0.41903 -0.0681,0.0894 -0.15952,0.21868 -0.27426,0.38786 -0.11529,0.17184 -0.21611,0.34102 -0.30247,0.50754 0.1235,0.30056 0.2701,0.52081 0.43978,0.66075 0.16968,0.13991 0.37904,0.23487 0.62806,0.28487 z m -3.02132,-0.47709 c 0.24634,0.0495 0.45417,0.0341 0.62349,-0.0461 0.17146,-0.0769 0.36388,-0.25842 0.57726,-0.54429 0.0841,-0.11402 0.16676,-0.24091 0.24774,-0.38064 0.081,-0.13973 0.192,-0.32498 0.33304,-0.55573 -0.0828,-0.26733 -0.2219,-0.49721 -0.41726,-0.68964 -0.19591,-0.18975 -0.43577,-0.31312 -0.7196,-0.37011 -0.36149,-0.0726 -0.68505,-0.008 -0.97069,0.19369 -0.28563,0.20172 -0.46689,0.49404 -0.54377,0.87695 -0.0785,0.39094 -0.0407,0.72305 0.11329,0.99632 0.15352,0.27596 0.40567,0.44916 0.75645,0.51958 z"
     style="font-style:normal;font-size:medium;text-anchor:middle;fill:none;fill-opacity:1;stroke:#000000;stroke-width:0.06614583;stroke-linecap:butt;stroke-linejoin:bevel;stroke-dasharray:none;stroke-opacity:1"
     id="path4792"
     inkscape:connector-curvature="0"
     sodipodi:nodetypes="ccccccccccccsccccccccccccccccccccccccccccccc" />
  <path
     d="m 275.69147,126.54855 0.19274,-0.95995 1.14471,0.22983 -0.19274,0.95996 z m -3.34174,-0.67095 0.19273,-0.95994 1.14471,0.22983 -0.19274,0.95995 z"
     style="font-style:normal;font-size:medium;text-anchor:middle;fill:none;fill-opacity:1;stroke:#000000;stroke-width:0.06614583;stroke-linecap:butt;stroke-linejoin:bevel;stroke-dasharray:none;stroke-opacity:1"
     id="path4794"
     inkscape:connector-curvature="0"
     sodipodi:nodetypes="cccccccccc" />
  <path
     d="m 273.03668,132.2999 c -0.27848,-0.0559 -0.53469,-0.16026 -0.76863,-0.3131 -0.23396,-0.15283 -0.42022,-0.33508 -0.55879,-0.54675 -0.14873,-0.23043 -0.2471,-0.48974 -0.29509,-0.77794 -0.0459,-0.28499 -0.0336,-0.60286 0.0368,-0.95363 0.0656,-0.32668 0.16357,-0.63433 0.29394,-0.92292 0.12769,-0.28914 0.26069,-0.52846 0.39903,-0.71797 l 0.8475,0.17016 -0.0113,0.0564 c -0.18332,0.19161 -0.35408,0.42475 -0.5123,0.6994 -0.15554,0.27519 -0.26179,0.5547 -0.31878,0.83853 -0.0382,0.19012 -0.0482,0.37892 -0.03,0.56638 0.0175,0.19017 0.0792,0.36831 0.1852,0.53442 0.0915,0.14094 0.21165,0.257 0.36048,0.34816 0.14829,0.0939 0.3282,0.162 0.53974,0.20447 0.20619,0.0414 0.38749,0.0402 0.54393,-0.004 0.1559,-0.0411 0.28932,-0.11598 0.40027,-0.22466 0.12971,-0.11881 0.23481,-0.2746 0.31529,-0.46736 0.0827,-0.18954 0.14867,-0.40749 0.19813,-0.65383 0.0472,-0.23565 0.0769,-0.46648 0.0889,-0.69249 0.0114,-0.22335 0.017,-0.41725 0.0165,-0.58168 l 3.08067,0.61853 -0.72257,3.59881 -0.70289,-0.14113 0.56692,-2.82361 -1.59054,-0.31935 c -0.0124,0.11729 -0.028,0.23672 -0.0469,0.3583 -0.0188,0.12156 -0.0371,0.22653 -0.0548,0.31489 -0.0651,0.32402 -0.15018,0.60221 -0.25532,0.83458 -0.10248,0.23291 -0.24377,0.43713 -0.42386,0.61269 -0.19029,0.18465 -0.41374,0.3125 -0.67035,0.38354 -0.25661,0.0711 -0.5603,0.0713 -0.91108,4.9e-4 z"
     style="font-style:normal;font-size:medium;text-anchor:middle;fill:none;fill-opacity:1;stroke:#000000;stroke-width:0.06614583;stroke-linecap:butt;stroke-linejoin:bevel;stroke-dasharray:none;stroke-opacity:1"
     id="path4796"
     inkscape:connector-curvature="0"
     sodipodi:nodetypes="ccccccccccccccccccccccccccccccccc" />
  <path
     class="arrow"
     d="m 277.34474,96.611483 -12.08375,7.347307 9.65487,-7.939368 -4.91844,-11.491688 z"
     id="path128"
     style="fill:#000000;stroke:#000000;stroke-width:0.0661458;stroke-linecap:butt;stroke-linejoin:bevel;stroke-dasharray:none;stroke-opacity:1"
     inkscape:connector-curvature="0"
     sodipodi:nodetypes="ccccc" />
  <path
     inkscape:connector-curvature="0"
     id="path4799"
     style="font-style:normal;font-size:medium;text-anchor:middle;fill:none;fill-opacity:1;stroke:#000000;stroke-width:0.06614583;stroke-linecap:butt;stroke-linejoin:bevel;stroke-dasharray:none;stroke-opacity:1"
     d="m 267.71149,98.525237 -3.93137,0.181236 -0.0339,-0.741419 1.5121,-0.06917 -0.22395,-4.867899 -1.51207,0.06957 -0.0301,-0.663382 c 0.20487,-0.0094 0.42361,-0.03578 0.65624,-0.07907 0.23248,-0.04654 0.40738,-0.105094 0.52471,-0.175664 0.14584,-0.08817 0.25819,-0.195989 0.33705,-0.323446 0.082,-0.130858 0.12459,-0.302269 0.12788,-0.514232 l 0.75604,-0.03478 0.30114,6.545806 1.48284,-0.06775 z"
     sodipodi:nodetypes="ccccccccccccccc" />
  <path
     inkscape:connector-curvature="0"
     id="path4801"
     style="font-style:normal;font-size:medium;text-anchor:middle;fill:none;fill-opacity:1;stroke:#000000;stroke-width:0.06614583;stroke-linecap:butt;stroke-linejoin:bevel;stroke-dasharray:none;stroke-opacity:1"
     d="m 274.30964,94.580182 c 0.0597,1.303969 -0.10105,2.271039 -0.48242,2.901209 -0.37851,0.626781 -0.997,0.959915 -1.85546,0.999402 -0.87147,0.04017 -1.52303,-0.239427 -1.95468,-0.8388 -0.42838,-0.599441 -0.67203,-1.539759 -0.73097,-2.820956 -0.0592,-1.290964 0.10025,-2.253081 0.47823,-2.886351 0.37805,-0.636533 0.99794,-0.97462 1.85964,-1.014257 0.87148,-0.0401 1.52163,0.244446 1.95047,0.85366 0.43194,0.605791 0.67701,1.541156 0.73519,2.806093 z m -1.18097,2.27347 c 0.1017,-0.268637 0.16391,-0.58107 0.18663,-0.937297 0.0258,-0.359642 0.0272,-0.789853 0.004,-1.290632 -0.0225,-0.494273 -0.0634,-0.922533 -0.12265,-1.284779 -0.0558,-0.362402 -0.14803,-0.667731 -0.27674,-0.915985 -0.12533,-0.245151 -0.2901,-0.426574 -0.49429,-0.544268 -0.20093,-0.117844 -0.45586,-0.169661 -0.76478,-0.155452 -0.30567,0.01405 -0.55639,0.08913 -0.75216,0.22523 -0.19254,0.135943 -0.34143,0.335052 -0.44667,0.597327 -0.0995,0.245717 -0.16147,0.563028 -0.18594,0.951932 -0.0212,0.388756 -0.0211,0.81401 2.8e-4,1.275761 0.0232,0.507278 0.0607,0.930807 0.11224,1.270591 0.0515,0.339795 0.14196,0.641948 0.27144,0.906459 0.11898,0.2487 0.27908,0.435226 0.48031,0.559578 0.2045,0.124194 0.46933,0.178814 0.79451,0.163859 0.30567,-0.01413 0.55639,-0.0892 0.75216,-0.22524 0.19578,-0.136089 0.34303,-0.335118 0.44177,-0.597091 z"
     sodipodi:nodetypes="ccccccccccccccccccccccccccc" />
  <path
     d="m 281.16455,88.541473 0.83882,-3.441233 0.64897,0.15819 -0.32263,1.32355 4.26099,1.03864 0.32262,-1.323551 0.58066,0.141538 c -0.0437,0.179319 -0.0764,0.374917 -0.0978,0.586792 -0.0187,0.212571 -0.0123,0.378448 0.019,0.497632 0.0392,0.148277 0.10394,0.2726 0.19405,0.372971 0.0923,0.10391 0.22953,0.184107 0.41177,0.240589 l -0.16132,0.661777 -5.72969,-1.396647 -0.31639,1.297934 z"
     style="font-style:normal;font-size:medium;text-anchor:middle;fill:none;fill-opacity:1;stroke:#000000;stroke-width:0.06614582;stroke-linecap:butt;stroke-linejoin:bevel;stroke-dasharray:none;stroke-opacity:1"
     id="path4804"
     inkscape:connector-curvature="0"
     sodipodi:nodetypes="ccccccccccccccc" />
  <path
     d="m 282.91657,94.658733 c -0.1557,0.106785 -0.33681,0.18175 -0.54333,0.224896 -0.20653,0.0431 -0.45638,0.02893 -0.74955,-0.04252 -0.29032,-0.07076 -0.54362,-0.188291 -0.75989,-0.352582 -0.21626,-0.164292 -0.39082,-0.363644 -0.52365,-0.598055 -0.14721,-0.262044 -0.23382,-0.550025 -0.25981,-0.863942 -0.0238,-0.310375 0.006,-0.637767 0.0902,-0.982177 0.0861,-0.352947 0.21338,-0.689794 0.38203,-1.010541 0.16581,-0.321442 0.32523,-0.579605 0.47826,-0.774489 l 0.89234,0.21751 -0.0156,0.06405 c -0.21838,0.203085 -0.42011,0.455457 -0.60521,0.757116 -0.1851,0.301658 -0.31477,0.604768 -0.38902,0.909327 -0.0437,0.179319 -0.0603,0.37731 -0.0498,0.593969 0.0101,0.216663 0.0589,0.401834 0.14502,0.55552 0.0933,0.16146 0.20778,0.291886 0.34338,0.391277 0.13489,0.10224 0.31762,0.181457 0.54817,0.237651 0.22771,0.05553 0.42459,0.06432 0.59064,0.02638 0.16819,-0.03437 0.3106,-0.105198 0.42722,-0.212489 0.11946,-0.106576 0.21705,-0.247131 0.29276,-0.421666 0.0785,-0.17384 0.14351,-0.366075 0.19484,-0.576704 l 0.0937,-0.384258 0.70874,0.17276 -0.0728,0.298865 c -0.10546,0.432645 -0.0998,0.798909 0.0171,1.098792 0.11903,0.303422 0.35217,0.497453 0.69943,0.582093 0.15369,0.03748 0.29545,0.03735 0.42527,-3.94e-4 0.13266,-0.03698 0.25022,-0.104829 0.35266,-0.203524 0.10384,-0.104355 0.18699,-0.222796 0.24944,-0.355322 0.0624,-0.132534 0.11522,-0.287039 0.15822,-0.463515 0.0659,-0.270402 0.0876,-0.569677 0.0651,-0.897826 -0.0225,-0.328148 -0.0891,-0.648933 -0.19964,-0.962354 l 0.0105,-0.04269 0.89232,0.21751 c 0.0504,0.226372 0.0759,0.517555 0.0765,0.873547 0.003,0.35953 -0.034,0.697265 -0.11129,1.013209 -0.0757,0.310251 -0.17069,0.576562 -0.2852,0.798929 -0.11451,0.222375 -0.25763,0.413653 -0.42936,0.573834 -0.18658,0.171632 -0.38948,0.286517 -0.6087,0.344655 -0.21923,0.05813 -0.45834,0.05562 -0.71736,-0.0075 -0.35296,-0.08603 -0.63126,-0.286553 -0.8349,-0.601558 -0.20151,-0.311464 -0.29514,-0.644878 -0.28089,-1.000242 l -0.0598,-0.01453 c -0.0562,0.131073 -0.14271,0.275829 -0.25964,0.434267 -0.11417,0.159125 -0.24025,0.286702 -0.37825,0.382731 z"
     style="font-style:normal;font-size:medium;text-anchor:middle;fill:none;fill-opacity:1;stroke:#000000;stroke-width:0.06614582;stroke-linecap:butt;stroke-linejoin:bevel;stroke-dasharray:none;stroke-opacity:1"
     id="path4806"
     inkscape:connector-curvature="0"
     sodipodi:nodetypes="cccccccccccscscccccccccccccccccccccccccccccccc" />
  <path
     d="m 282.5219,98.411767 0.24874,-1.020416 1.21682,0.296612 -0.24873,1.020415 z m -3.55222,-0.865874 0.24872,-1.020414 1.21682,0.296611 -0.24874,1.020406 z"
     style="font-style:normal;font-size:medium;text-anchor:middle;fill:none;fill-opacity:1;stroke:#000000;stroke-width:0.06614582;stroke-linecap:butt;stroke-linejoin:bevel;stroke-dasharray:none;stroke-opacity:1"
     id="path4808"
     inkscape:connector-curvature="0"
     sodipodi:nodetypes="cccccccccc" />
  <path
     d="m 277.48039,103.65558 0.83882,-3.44124 0.64897,0.15819 -0.32263,1.32355 4.261,1.03863 0.32262,-1.32354 0.58065,0.14154 c -0.0437,0.17931 -0.0763,0.37491 -0.0978,0.58679 -0.0186,0.21257 -0.0123,0.37845 0.019,0.49763 0.0392,0.14828 0.10396,0.27261 0.19406,0.37298 0.0923,0.10391 0.22952,0.1841 0.41177,0.24058 l -0.16131,0.66179 -5.72971,-1.39666 -0.31638,1.29794 z"
     style="font-style:normal;font-size:medium;text-anchor:middle;fill:none;fill-opacity:1;stroke:#000000;stroke-width:0.06614582;stroke-linecap:butt;stroke-linejoin:bevel;stroke-dasharray:none;stroke-opacity:1"
     id="path4810"
     inkscape:connector-curvature="0"
     sodipodi:nodetypes="ccccccccccccccc" />
  <path
     d="m 279.21771,110.35274 c -1.14138,-0.27822 -1.93592,-0.66187 -2.38361,-1.15095 -0.44554,-0.48554 -0.57673,-1.10402 -0.39356,-1.85545 0.18593,-0.76282 0.59232,-1.25479 1.21916,-1.47591 0.62615,-0.21828 1.49995,-0.19075 2.62142,0.0826 1.12999,0.27544 1.9206,0.65662 2.37183,1.14356 0.45408,0.48762 0.58919,1.10857 0.40533,1.86285 -0.18593,0.76282 -0.59624,1.25231 -1.23093,1.46851 -0.63253,0.21973 -1.50241,0.19466 -2.60964,-0.0752 z m -1.66465,-1.59537 c 0.20626,0.15581 0.46036,0.28861 0.76229,0.3984 0.30408,0.11332 0.67529,0.2234 1.11363,0.33025 0.43264,0.10547 0.81286,0.17855 1.14067,0.21926 0.32713,0.0436 0.61418,0.0412 0.86117,-0.007 0.24345,-0.0461 0.44185,-0.14252 0.59518,-0.28915 0.15264,-0.14372 0.26191,-0.35079 0.32782,-0.62119 0.0652,-0.26755 0.0638,-0.5031 -0.004,-0.70664 -0.0687,-0.20067 -0.203,-0.37965 -0.40286,-0.53694 -0.18704,-0.14812 -0.4454,-0.28196 -0.77511,-0.40153 -0.33039,-0.11672 -0.69767,-0.22433 -1.10185,-0.32285 -0.44402,-0.10825 -0.81928,-0.18313 -1.12578,-0.22467 -0.3065,-0.0416 -0.59037,-0.0399 -0.8516,0.005 -0.2449,0.0398 -0.44652,0.13088 -0.60485,0.27322 -0.15903,0.14517 -0.27323,0.36008 -0.3426,0.64471 -0.0652,0.26758 -0.0638,0.50312 0.004,0.70664 0.068,0.20353 0.20268,0.38109 0.4039,0.53269 z"
     style="font-style:normal;font-size:medium;text-anchor:middle;fill:none;fill-opacity:1;stroke:#000000;stroke-width:0.06614582;stroke-linecap:butt;stroke-linejoin:bevel;stroke-dasharray:none;stroke-opacity:1"
     id="path4812"
     inkscape:connector-curvature="0"
     sodipodi:nodetypes="ccccccsccccccccccccccccccccc" />
  <path
     class="arrow"
     d="m 283.00903,34.667212 5.93736,12.835412 -6.79962,-10.488815 -11.97316,3.590763 z"
     id="path140"
     style="fill:#000000;stroke:#000000;stroke-width:0.06614581;stroke-linecap:butt;stroke-linejoin:bevel;stroke-dasharray:none;stroke-opacity:1"
     inkscape:connector-curvature="0"
     sodipodi:nodetypes="ccccc" />
  <path
     inkscape:connector-curvature="0"
     id="path4815"
     style="font-style:normal;font-size:medium;text-anchor:middle;fill:none;fill-opacity:1;stroke:#000000;stroke-width:0.06614583;stroke-linecap:butt;stroke-linejoin:bevel;stroke-dasharray:none;stroke-opacity:1"
     d="m 279.01562,47.160107 -3.93138,0.180837 -0.0339,-0.741416 1.51208,-0.06957 -0.22395,-4.867897 -1.51209,0.06957 -0.0301,-0.663382 c 0.20486,-0.0094 0.4236,-0.03578 0.65623,-0.07907 0.23249,-0.04654 0.40739,-0.105094 0.52471,-0.175663 0.14584,-0.08817 0.2582,-0.195991 0.33707,-0.323448 0.082,-0.130857 0.12458,-0.302268 0.12786,-0.514232 l 0.75605,-0.03478 0.30115,6.545812 1.4828,-0.06826 z"
     sodipodi:nodetypes="ccccccccccccccc" />
  <path
     inkscape:connector-curvature="0"
     id="path4817"
     style="font-style:normal;font-size:medium;text-anchor:middle;fill:none;fill-opacity:1;stroke:#000000;stroke-width:0.06614583;stroke-linecap:butt;stroke-linejoin:bevel;stroke-dasharray:none;stroke-opacity:1"
     d="m 285.37609,46.867532 -3.9314,0.180837 -0.0338,-0.741415 1.51207,-0.06957 -0.22396,-4.867897 -1.51207,0.06957 -0.0301,-0.663381 c 0.20487,-0.0094 0.42361,-0.03578 0.65623,-0.07907 0.23248,-0.04653 0.40739,-0.105094 0.52471,-0.175663 0.14585,-0.08817 0.2582,-0.195989 0.33706,-0.323446 0.082,-0.130859 0.12459,-0.302269 0.12788,-0.514233 l 0.75603,-0.03478 0.30104,6.545818 1.48283,-0.06826 z"
     sodipodi:nodetypes="ccccccccccccccc" />
  <path
     d="m 279.12873,29.109452 c -0.10508,0.285992 -0.25787,0.54041 -0.45836,0.763255 -0.20049,0.222844 -0.42432,0.390294 -0.6715,0.502348 -0.26872,0.119743 -0.55978,0.181339 -0.87316,0.18479 -0.30962,0.0017 -0.64456,-0.06362 -1.00481,-0.195987 -0.33548,-0.123276 -0.64546,-0.277753 -0.92994,-0.463432 -0.28547,-0.182931 -0.51727,-0.363302 -0.69538,-0.541114 l 0.3198,-0.87035 0.0577,0.02122 c 0.17295,0.225853 0.39199,0.445228 0.65709,0.658125 0.26611,0.210148 0.54491,0.368775 0.83641,0.475884 0.19525,0.07174 0.39372,0.113459 0.59542,0.12515 0.20445,0.0127 0.40344,-0.02343 0.59696,-0.10837 0.16445,-0.07379 0.30723,-0.182064 0.42836,-0.324826 0.12387,-0.141755 0.22573,-0.321254 0.30555,-0.538498 0.0778,-0.211744 0.10636,-0.40413 0.0856,-0.577158 -0.0179,-0.172017 -0.0753,-0.325771 -0.17228,-0.461259 -0.1046,-0.157039 -0.25244,-0.294076 -0.44353,-0.411109 -0.18733,-0.118773 -0.40748,-0.224641 -0.66047,-0.317603 -0.24199,-0.08892 -0.48181,-0.158309 -0.71943,-0.208168 -0.23487,-0.04884 -0.43949,-0.08658 -0.61385,-0.113198 l 1.16252,-3.163781 3.6959,1.358053 -0.26525,0.721854 -2.89979,-1.065526 -0.60021,1.633452 c 0.12229,0.03245 0.24631,0.06866 0.37208,0.10863 0.12577,0.03997 0.23403,0.07663 0.32478,0.109973 0.33273,0.122266 0.61363,0.258248 0.84266,0.407947 0.23001,0.14695 0.42326,0.330321 0.57971,0.550112 0.16442,0.232082 0.26317,0.489973 0.29626,0.773676 0.0331,0.283703 -0.0166,0.605675 -0.14894,0.965914 z"
     style="font-style:normal;font-size:medium;text-anchor:middle;fill:none;fill-opacity:1;stroke:#000000;stroke-width:0.06614581;stroke-linecap:butt;stroke-linejoin:bevel;stroke-dasharray:none;stroke-opacity:1"
     id="path4820"
     inkscape:connector-curvature="0"
     sodipodi:nodetypes="ccccccccccccccccccccccccccccccccc" />
  <path
     d="m 282.69228,28.738102 -0.98585,-0.362248 0.43199,-1.175589 0.98583,0.362246 z m -1.26105,3.431898 -0.98584,-0.362249 0.43195,-1.175589 0.98586,0.362248 z"
     style="font-style:normal;font-size:medium;text-anchor:middle;fill:none;fill-opacity:1;stroke:#000000;stroke-width:0.06614581;stroke-linecap:butt;stroke-linejoin:bevel;stroke-dasharray:none;stroke-opacity:1"
     id="path4822"
     inkscape:connector-curvature="0"
     sodipodi:nodetypes="cccccccccc" />
  <path
     d="m 287.33393,34.338944 -3.32466,-1.221641 0.2304,-0.626982 1.27871,0.469863 1.51265,-4.116627 -1.27872,-0.469863 0.20614,-0.560983 c 0.17324,0.06366 0.36391,0.118117 0.57201,0.16337 0.20911,0.0425 0.37465,0.05495 0.49661,0.03734 0.15175,-0.02227 0.28258,-0.07251 0.39247,-0.150739 0.11366,-0.07996 0.20882,-0.207297 0.2855,-0.382 l 0.63937,0.234931 -2.03406,5.535584 1.25397,0.460768 z"
     style="font-style:normal;font-size:medium;text-anchor:middle;fill:none;fill-opacity:1;stroke:#000000;stroke-width:0.06614581;stroke-linecap:butt;stroke-linejoin:bevel;stroke-dasharray:none;stroke-opacity:1"
     id="path4824"
     inkscape:connector-curvature="0"
     sodipodi:nodetypes="ccccccccccccccc" />
  <path
     d="m 292.71277,36.315397 -3.32465,-1.221643 0.23038,-0.62698 1.27871,0.469862 1.51266,-4.116628 -1.27872,-0.469862 0.20614,-0.560983 c 0.17324,0.06366 0.36392,0.118117 0.57201,0.163369 0.20911,0.0425 0.37465,0.05496 0.4966,0.03734 0.15175,-0.02227 0.28258,-0.07251 0.39248,-0.150738 0.11366,-0.07996 0.20882,-0.207298 0.2855,-0.382001 l 0.63935,0.234932 -2.03404,5.535583 1.25397,0.460767 z"
     style="font-style:normal;font-size:medium;text-anchor:middle;fill:none;fill-opacity:1;stroke:#000000;stroke-width:0.06614581;stroke-linecap:butt;stroke-linejoin:bevel;stroke-dasharray:none;stroke-opacity:1"
     id="path4826"
     inkscape:connector-curvature="0"
     sodipodi:nodetypes="ccccccccccccccc" />
  <path
     class="arrow"
     d="M 289.01047,58.360371 276.17505,64.29773 286.66387,57.498115 283.07312,45.52496 Z"
     id="path152"
     style="fill:#000000;stroke:#000000;stroke-width:0.0661458;stroke-linecap:butt;stroke-linejoin:bevel;stroke-dasharray:none;stroke-opacity:1"
     inkscape:connector-curvature="0"
     sodipodi:nodetypes="ccccc" />
  <path
     inkscape:connector-curvature="0"
     id="path4829"
     style="font-style:normal;font-size:medium;text-anchor:middle;fill:none;fill-opacity:1;stroke:#000000;stroke-width:0.06614583;stroke-linecap:butt;stroke-linejoin:bevel;stroke-dasharray:none;stroke-opacity:1"
     d="m 279.67342,59.301397 -3.93139,0.180837 -0.0338,-0.741415 1.51206,-0.06957 -0.22395,-4.867897 -1.51209,0.06957 -0.0301,-0.663381 c 0.20486,-0.0094 0.42361,-0.03578 0.65624,-0.07907 0.23248,-0.04654 0.40738,-0.105094 0.52471,-0.175664 0.14583,-0.08817 0.25818,-0.195989 0.33705,-0.323445 0.0819,-0.130858 0.12459,-0.30227 0.12788,-0.514233 l 0.75603,-0.03478 0.30115,6.545811 1.48279,-0.06825 z"
     sodipodi:nodetypes="ccccccccccccccc" />
  <path
     inkscape:connector-curvature="0"
     id="path4831"
     style="font-style:normal;font-size:medium;text-anchor:middle;fill:none;fill-opacity:1;stroke:#000000;stroke-width:0.06614583;stroke-linecap:butt;stroke-linejoin:bevel;stroke-dasharray:none;stroke-opacity:1"
     d="m 286.44848,58.989751 -4.91666,0.226164 -0.0473,-1.019409 0.98393,-0.925095 c 0.33122,-0.308514 0.63813,-0.614281 0.92073,-0.917301 0.59653,-0.633549 1.00207,-1.132855 1.21665,-1.497917 0.21442,-0.368315 0.31213,-0.75896 0.29313,-1.171934 -0.0176,-0.377194 -0.15632,-0.66572 -0.41619,-0.86558 -0.257,-0.203248 -0.60826,-0.294626 -1.05375,-0.274133 -0.29591,0.01359 -0.61381,0.08034 -0.95372,0.200286 -0.3399,0.11991 -0.66912,0.294728 -0.98769,0.524452 l -0.0488,0.0022 -0.0475,-1.024285 c 0.22564,-0.124432 0.52815,-0.242623 0.90752,-0.354574 0.38263,-0.112102 0.7544,-0.176454 1.11536,-0.193058 0.74465,-0.03424 1.33664,0.119389 1.77598,0.460872 0.43918,0.33825 0.67291,0.814668 0.70118,1.429252 0.0127,0.2764 -0.0112,0.53656 -0.0717,0.780482 -0.0573,0.24052 -0.14938,0.471231 -0.2761,0.69213 -0.11755,0.207443 -0.258,0.412681 -0.42138,0.615716 -0.16011,0.202884 -0.35665,0.428625 -0.58961,0.677222 -0.33223,0.357441 -0.6763,0.70565 -1.0322,1.044627 -0.35604,0.335725 -0.68873,0.647566 -0.99809,0.935524 l 3.90699,-0.179757 z"
     sodipodi:nodetypes="ccccccccccccccccccccccccc" />
  <path
     d="m 293.71615,50.772776 1.22164,-3.32465 0.62698,0.230384 -0.46985,1.278711 4.11662,1.512653 0.46987,-1.278711 0.56097,0.206133 c -0.0637,0.173244 -0.11814,0.363916 -0.16336,0.572015 -0.0425,0.209109 -0.055,0.374641 -0.0374,0.496598 0.0223,0.151757 0.0725,0.282583 0.15074,0.392479 0.08,0.113656 0.2073,0.208823 0.38201,0.285502 l -0.23494,0.639356 -5.53558,-2.034049 -0.46078,1.253963 z"
     style="font-style:normal;font-size:medium;text-anchor:middle;fill:none;fill-opacity:1;stroke:#000000;stroke-width:0.06614581;stroke-linecap:butt;stroke-linejoin:bevel;stroke-dasharray:none;stroke-opacity:1"
     id="path4834"
     inkscape:connector-curvature="0"
     sodipodi:nodetypes="ccccccccccccccc" />
  <path
     d="m 294.76696,57.048616 c -0.16674,0.08854 -0.35515,0.142603 -0.56523,0.162171 -0.21006,0.01957 -0.45671,-0.02269 -0.73996,-0.126763 -0.2805,-0.103066 -0.51892,-0.248417 -0.71528,-0.436054 -0.19635,-0.187636 -0.3473,-0.405405 -0.45284,-0.653309 -0.11672,-0.276975 -0.17028,-0.572887 -0.16071,-0.887733 0.0114,-0.311088 0.0781,-0.633001 0.20035,-0.965742 0.12529,-0.340989 0.28982,-0.661321 0.49357,-0.960998 0.201,-0.300686 0.38853,-0.539219 0.56259,-0.715597 l 0.86211,0.316778 -0.0227,0.06187 c -0.23988,0.177158 -0.4688,0.405164 -0.68676,0.684017 -0.21795,0.278854 -0.38098,0.565401 -0.48909,0.859642 -0.0636,0.173245 -0.10251,0.3681 -0.11648,0.584564 -0.014,0.216465 0.0131,0.40591 0.0814,0.568336 0.0745,0.170954 0.17356,0.313459 0.29705,0.427513 0.1225,0.116803 0.29513,0.216127 0.51787,0.297974 0.21999,0.08084 0.41462,0.111778 0.58389,0.09283 0.17101,-0.01519 0.3205,-0.06951 0.44847,-0.16294 0.13072,-0.09242 0.24353,-0.221073 0.33845,-0.385954 0.0977,-0.163868 0.18388,-0.34755 0.25866,-0.551045 l 0.13642,-0.371237 0.68472,0.251602 -0.1061,0.288742 c -0.15359,0.417988 -0.18923,0.782558 -0.10692,1.093709 0.084,0.314911 0.29381,0.534005 0.6293,0.65728 0.14849,0.05457 0.28935,0.07044 0.42259,0.0476 0.13599,-0.02182 0.26044,-0.07596 0.37337,-0.162441 0.11495,-0.09198 0.21093,-0.200283 0.28795,-0.324925 0.077,-0.124641 0.14683,-0.272208 0.20948,-0.442704 0.096,-0.261242 0.1513,-0.556162 0.16593,-0.884759 0.0147,-0.328598 -0.0153,-0.654841 -0.0898,-0.97873 l 0.0151,-0.04124 0.86209,0.316777 c 0.0245,0.23061 0.0171,0.522811 -0.0225,0.876605 -0.0377,0.357555 -0.11273,0.688952 -0.22487,0.994192 -0.11013,0.29974 -0.23463,0.553628 -0.3735,0.761662 -0.13887,0.208034 -0.30264,0.381944 -0.49134,0.521728 -0.20475,0.149492 -0.41931,0.240756 -0.6437,0.273793 -0.22438,0.03303 -0.46169,0.0036 -0.71194,-0.08837 -0.34099,-0.125297 -0.59489,-0.355928 -0.76171,-0.691893 -0.16508,-0.332205 -0.22051,-0.674053 -0.16627,-1.025544 l -0.0577,-0.02123 c -0.0705,0.123913 -0.17284,0.257981 -0.30699,0.402204 -0.13138,0.145232 -0.27105,0.257774 -0.419,0.337623 z"
     style="font-style:normal;font-size:medium;text-anchor:middle;fill:none;fill-opacity:1;stroke:#000000;stroke-width:0.06614581;stroke-linecap:butt;stroke-linejoin:bevel;stroke-dasharray:none;stroke-opacity:1"
     id="path4836"
     inkscape:connector-curvature="0"
     sodipodi:nodetypes="cccccccccccccccccccccccccccccccccccccccccccccc" />
  <path
     d="m 293.95148,60.73319 0.36224,-0.985846 1.17559,0.43197 -0.36224,0.985845 z m -3.43191,-1.261049 0.36226,-0.985847 1.17558,0.431971 -0.36224,0.985845 z"
     style="font-style:normal;font-size:medium;text-anchor:middle;fill:none;fill-opacity:1;stroke:#000000;stroke-width:0.06614581;stroke-linecap:butt;stroke-linejoin:bevel;stroke-dasharray:none;stroke-opacity:1"
     id="path4838"
     inkscape:connector-curvature="0"
     sodipodi:nodetypes="cccccccccc" />
  <path
     d="m 288.35064,65.374838 1.22163,-3.32465 0.62699,0.230384 -0.46987,1.278711 4.11663,1.512654 0.46986,-1.278711 0.56099,0.206131 c -0.0636,0.173245 -0.11814,0.363917 -0.16337,0.572016 -0.0425,0.209107 -0.055,0.37464 -0.0374,0.496598 0.0223,0.151756 0.0725,0.282583 0.15074,0.39248 0.08,0.113656 0.2073,0.208823 0.38199,0.285502 l -0.23493,0.639355 -5.53558,-2.034048 -0.46076,1.253962 z"
     style="font-style:normal;font-size:medium;text-anchor:middle;fill:none;fill-opacity:1;stroke:#000000;stroke-width:0.06614581;stroke-linecap:butt;stroke-linejoin:bevel;stroke-dasharray:none;stroke-opacity:1"
     id="path4840"
     inkscape:connector-curvature="0"
     sodipodi:nodetypes="ccccccccccccccc" />
  <path
     d="m 286.24534,71.104291 1.52781,-4.157876 0.8621,0.316778 c 0.1414,0.379683 0.28279,0.759365 0.42419,1.139048 0.14038,0.382432 0.28697,0.743735 0.43976,1.083909 0.31748,0.715929 0.59022,1.226585 0.81822,1.531969 0.23074,0.306394 0.52073,0.523755 0.86998,0.652083 0.31899,0.117214 0.60675,0.102787 0.86331,-0.04328 0.25829,-0.142304 0.45664,-0.401825 0.59508,-0.778564 0.092,-0.250243 0.14748,-0.537277 0.16659,-0.861102 0.0192,-0.323829 -0.0112,-0.657957 -0.0904,-1.002389 l 0.0151,-0.04125 0.86624,0.318293 c 0.0245,0.23061 0.0171,0.522811 -0.0225,0.876606 -0.0405,0.356546 -0.11683,0.687437 -0.22898,0.992676 -0.2314,0.629731 -0.5654,1.067261 -1.002,1.31259 -0.43385,0.246339 -0.91064,0.274021 -1.43037,0.08305 -0.23374,-0.08589 -0.44125,-0.196469 -0.62252,-0.331741 -0.17952,-0.131516 -0.33881,-0.288365 -0.47786,-0.470548 -0.13109,-0.169896 -0.25235,-0.35803 -0.36379,-0.564401 -0.11246,-0.203624 -0.23117,-0.445439 -0.35612,-0.725447 -0.18063,-0.400338 -0.34946,-0.80727 -0.50651,-1.220797 -0.15431,-0.412515 -0.29693,-0.797332 -0.42789,-1.154452 l -1.21406,3.304025 z"
     style="font-style:normal;font-size:medium;text-anchor:middle;fill:none;fill-opacity:1;stroke:#000000;stroke-width:0.06614581;stroke-linecap:butt;stroke-linejoin:bevel;stroke-dasharray:none;stroke-opacity:1"
     id="path4842"
     inkscape:connector-curvature="0"
     sodipodi:nodetypes="ccccccccccccccccccccccccc" />
</svg>
