<?xml version="1.0" encoding="UTF-8" standalone="no"?>
<svg
   version="1.1"
   width="320.00mm"
   height="620.00mm"
   viewBox="0 0 320.00 620.00"
   id="svg1604"
   sodipodi:docname="backrest_page5.svg"
   inkscape:version="1.1.1 (c3084ef, 2021-09-22)"
   xmlns:inkscape="http://www.inkscape.org/namespaces/inkscape"
   xmlns:sodipodi="http://sodipodi.sourceforge.net/DTD/sodipodi-0.dtd"
   xmlns="http://www.w3.org/2000/svg"
   xmlns:svg="http://www.w3.org/2000/svg">
  <defs
     id="defs1608" />
  <sodipodi:namedview
     id="namedview1606"
     pagecolor="#ffffff"
     bordercolor="#666666"
     borderopacity="1.0"
     inkscape:pageshadow="2"
     inkscape:pageopacity="0.0"
     inkscape:pagecheckerboard="0"
     inkscape:document-units="mm"
     showgrid="false"
     inkscape:zoom="0.33926411"
     inkscape:cx="605.72278"
     inkscape:cy="1171.6535"
     inkscape:window-width="1792"
     inkscape:window-height="975"
     inkscape:window-x="0"
     inkscape:window-y="25"
     inkscape:window-maximized="1"
     inkscape:current-layer="svg1604" />
  <style
     type="text/css"
     id="style1484">
    path {
        fill: none;
        stroke-linecap: butt;
        stroke-linejoin: bevel;
        stroke-dasharray: none;
    }
    path.outer {
        stroke: #000000;
        stroke-dasharray: none;
        stroke-dashoffset: 0;
        stroke-width: 0.3;
        stroke-opacity: 1.0;
    }
    path.convex {
        stroke: #000000;
        stroke-dasharray: 0.50,1.00;
        stroke-dashoffset:0;
        stroke-width:0.2;
        stroke-opacity: 1.0
    }
    path.concave {
        stroke: #000000;
        stroke-dasharray: 1.00,0.50,0.20,0.50;
        stroke-dashoffset: 0;
        stroke-width: 0.2;
        stroke-opacity: 1.0
    }
    path.freestyle {
        stroke: #000000;
        stroke-dasharray: none;
        stroke-dashoffset: 0;
        stroke-width: 0.2;
        stroke-opacity: 1.0
    }
    path.outer_background {
        stroke: #ffffff;
        stroke-opacity: 1.0;
        stroke-width: 0.5
    }
    path.inner_background {
        stroke: #ffffff;
        stroke-opacity: 1.0;
        stroke-width: 0.2
    }
    path.sticker {
        fill: #e5e5e5;
        stroke: none;
        fill-opacity: 1.0;
    }
    path.arrow {
        fill: #000000;
    }
    text {
        font-style: normal;
        fill: #000000;
        fill-opacity: 1.0;
        stroke: none;
    }
    text, tspan {
        text-anchor:middle;
    }
    </style>
  <g
     id="g1799"
     transform="rotate(21.487541,218.45346,297.07175)">
    <text
       style="font-size:10px"
       id="text1488"
       x="98.925545"
       y="287.09183"><tspan
         id="tspan1486">[7] I 7</tspan></text>
    <path
       class="sticker"
       d="m 125.66766,245.11814 1.78662,4.6579 -9.11184,3.66023 -1.93206,-4.59943 z m -36.845683,-91.72332 9.337873,-3.58176 36.72856,91.43179 -9.22075,3.87329 z m -23.90337,-32.7411 -1.786634,-4.6579 9.111852,-3.66026 1.932054,4.59946 z m -1.401484,264.47305 -9.938731,1.11627 -13.991639,-109.09426 9.898774,-1.42792 z m -28.676234,-252.39071 -3.581769,-9.33785 29.786169,-11.9653 3.873318,9.22081 z m 139.278551,259.76118 9.33786,-3.58179 16.98761,42.28881 -9.22075,3.87332 z m 34.61561,86.17178 9.33784,-3.58176 17.39377,43.29989 -9.22075,3.87331 z m -92.32467,-229.83218 9.33787,-3.58176 39.67489,98.7663 -9.22076,3.87329 z m -42.234501,-131.90182 9.337858,-3.58177 14.52899,36.16828 -9.22075,3.87329 z m 33.921611,402.16057 -8.543443,5.19944 -25.29566,-40.13118 8.375913,-5.46524 z m -34.800049,-86.09768 -9.829067,1.84779 -9.717412,-47.56333 9.766161,-2.1556 z M 23.86684,179.48759 14.528982,183.06938 0,146.90107 9.220742,143.02778 Z m -14.646098,-36.45981 -3.581763,-9.33787 25.328607,-10.17457 3.873303,9.22072 z m 40.264785,132.69308 -9.703852,2.42073 -25.537856,-95.92963 9.623021,-2.72437 z m 141.738633,159.35672 9.33787,-3.58178 17.39374,43.2999 -9.22072,3.87332 z m -50.71704,121.62457 -7.67762,6.40927 -32.20452,-37.36857 7.47251,-6.64726 z m 15.69526,-208.80748 9.33787,-3.58176 17.79993,44.31101 -9.22074,3.87332 z m -73.56808,130.80394 -9.829059,1.84781 -9.273969,-45.39291 9.766169,-2.1556 z m 143.61161,43.56185 9.33787,-3.58177 25.7673,64.14488 -9.22072,3.87332 z m 25.88445,64.43643 3.58176,9.33785 -29.7862,11.96526 -3.87329,-9.22074 z m -30.07773,12.08237 -4.7251,8.81466 -81.26629,-41.93304 4.44588,-8.95873 z"
       id="path1490" />
    <path
       class="outer"
       d="M 255.71212,596.03474 225.92592,608 l -3.87329,-9.22074 -4.7251,8.81466 -81.26629,-41.93304 4.44588,-8.95873 -7.67762,6.40927 -32.20452,-37.36857 7.47251,-6.64726 -8.543443,5.19944 -25.29566,-40.13118 8.375913,-5.46524 -9.829059,1.84781 -9.273969,-45.39291 9.766169,-2.1556 -9.829067,1.84779 -9.717412,-47.56333 9.766161,-2.1556 -9.938731,1.11627 -13.991639,-109.09426 9.898774,-1.42792 -9.703852,2.42073 -25.537856,-95.92963 9.623021,-2.72437 -9.337858,3.58179 L 0,146.90107 l 9.220742,-3.87329 -3.581763,-9.33787 25.328607,-10.17457 3.873303,9.22072 -3.581769,-9.33785 29.786169,-11.9653 3.873318,9.22081 -1.786634,-4.6579 9.111852,-3.66026 1.932054,4.59946 9.337858,-3.58177 14.52899,36.16828 -9.22075,3.87329 9.337873,-3.58176 36.72856,91.43179 -9.22075,3.87329 1.78662,4.6579 -9.11184,3.66023 -1.93206,-4.59943 9.33787,-3.58176 39.67489,98.7663 -9.22076,3.87329 9.33787,-3.58176 17.79993,44.31101 -9.22074,3.87332 9.33786,-3.58179 16.98761,42.28881 -9.22075,3.87332 9.33787,-3.58178 17.39374,43.2999 -9.22072,3.87332 9.33784,-3.58176 17.39377,43.29989 -9.22075,3.87331 9.33787,-3.58177 25.7673,64.14488 -9.22072,3.87332 z"
       id="path1492" />
    <text
       transform="rotate(158.11448)"
       style="font-size:4.49px"
       id="text1496"
       x="-20.254124"
       y="-275.19351"><tspan
         id="tspan1494">13:1</tspan></text>
    <path
       class="arrow"
       d="m 107.24482,199.25648 -5.55176,13.00684 3.23193,-12.07496 -10.687012,-6.48364 z"
       id="path1498"
       style="stroke-width:10" />
    <text
       style="font-size:10px"
       id="text1502"
       x="98.893448"
       y="206.61128"><tspan
         id="tspan1500">1</tspan></text>
    <text
       transform="rotate(68.114432)"
       style="font-size:9px"
       id="text1508"
       x="224.87209"
       y="-27.042067"><tspan
         id="tspan1506">3:1</tspan></text>
    <text
       transform="rotate(-21.885515)"
       style="font-size:4.49px"
       id="text1512"
       x="20.254053"
       y="135.25897"><tspan
         id="tspan1510">1:9.</tspan></text>
    <path
       class="arrow"
       d="m 56.501329,330.4238 8.64665,-11.19086 -6.166961,10.87283 8.711175,8.96468 z"
       id="path1514"
       style="stroke-width:10" />
    <text
       style="font-size:10px"
       id="text1518"
       x="65.428215"
       y="333.27893"><tspan
         id="tspan1516">2</tspan></text>
    <text
       transform="rotate(-97.308454)"
       style="font-size:9px"
       id="text1524"
       x="-334.92685"
       y="12.208802"><tspan
         id="tspan1522">9.:2</tspan></text>
    <path
       class="arrow"
       d="m 81.498936,135.16492 -5.551759,13.00684 3.231934,-12.07495 -10.687018,-6.48365 z"
       id="path1526"
       style="stroke-width:10" />
    <text
       style="font-size:10px"
       id="text1530"
       x="73.147568"
       y="142.51971"><tspan
         id="tspan1528">3</tspan></text>
    <text
       transform="rotate(68.114432)"
       style="font-size:9px"
       id="text1536"
       x="155.80269"
       y="-27.042063"><tspan
         id="tspan1534">3:3</tspan></text>
    <path
       class="arrow"
       d="m 16.543791,161.25771 5.551759,-13.00684 -3.231934,12.07495 10.687018,6.48365 z"
       id="path1538"
       style="stroke-width:10" />
    <text
       style="font-size:10px"
       id="text1542"
       x="24.895161"
       y="161.90292"><tspan
         id="tspan1540">4</tspan></text>
    <text
       transform="rotate(-111.88557)"
       style="font-size:9px"
       id="text1548"
       x="-155.80266"
       y="-46.557999"><tspan
         id="tspan1546">15:4</tspan></text>
    <text
       transform="rotate(-21.885568)"
       style="font-size:9px"
       id="text1552"
       x="-30.953047"
       y="134.35686"><tspan
         id="tspan1550">1:11</tspan></text>
    <path
       class="arrow"
       d="m 36.676183,227.60424 7.090891,-12.23598 -4.675032,11.59284 9.820124,7.73403 z"
       id="path1554"
       style="stroke-width:10" />
    <text
       style="font-size:10px"
       id="text1558"
       x="45.373276"
       y="229.28896"><tspan
         id="tspan1556">5</tspan></text>
    <text
       transform="rotate(-104.90724)"
       style="font-size:9px"
       id="text1564"
       x="-229.37898"
       y="-24.910486"><tspan
         id="tspan1562">15:5</tspan></text>
    <path
       class="arrow"
       d="m 239.1881,554.47867 -5.55176,13.00684 3.23193,-12.07496 -10.68701,-6.48364 z"
       id="path1566"
       style="stroke-width:10" />
    <text
       style="font-size:10px"
       id="text1570"
       x="230.83673"
       y="561.83344"><tspan
         id="tspan1568">6.</tspan></text>
    <text
       transform="rotate(68.114432)"
       style="font-size:9px"
       id="text1576"
       x="603.6759"
       y="-17.0658"><tspan
         id="tspan1574">13:6.</tspan></text>
    <path
       class="arrow"
       d="m 237.09148,592.73808 -13.00684,-5.55176 12.07495,3.23193 6.48365,-10.68701 z"
       id="path1578"
       style="stroke-width:10" />
    <text
       style="font-size:10px"
       id="text1582"
       x="233.73669"
       y="588.38672"><tspan
         id="tspan1580">7</tspan></text>
    <text
       transform="rotate(158.11443)"
       style="font-size:9px"
       id="text1588"
       x="0.94114864"
       y="-640.19641"><tspan
         id="tspan1586">11:7</tspan></text>
    <path
       class="arrow"
       d="m 181.27987,577.74071 -4.3012,-13.47218 5.44757,11.25051 12.32581,-2.07953 z"
       id="path1590"
       style="stroke-width:10" />
    <text
       style="font-size:10px"
       id="text1594"
       x="185.4068"
       y="573.74268"><tspan
         id="tspan1592">8</tspan></text>
    <text
       transform="rotate(-152.70648)"
       style="font-size:9px"
       id="text1600"
       x="-426.02029"
       y="-432.0946"><tspan
         id="tspan1598">9.:8</tspan></text>
  </g>
  <g
     id="g2673"
     transform="rotate(-21.446134,76.673342,127.60682)">
    <text
       style="font-size:10px"
       id="text2316"
       x="151.84222"
       y="354.82501"><tspan
         id="tspan2314">[8] I 8</tspan></text>
    <path
       class="sticker"
       d="m 144.94072,248.83687 -1.93207,4.5994 -9.11184,-3.66021 1.78664,-4.65792 z m -9.25727,-3.71873 -9.22075,-3.87329 36.72857,-91.43179 9.33786,3.58176 z m 51.49178,-128.18312 1.93205,-4.59946 9.11187,3.66026 -1.78663,4.65787 z m 24.69036,158.78587 9.89878,1.42789 -13.99165,109.09431 -9.93873,-1.11631 z m -15.43307,-155.0672 3.87331,-9.22072 29.78617,11.96527 -3.58179,9.33785 z m -126.305577,314.4239 -9.22076,-3.87332 16.987618,-42.28879 9.337865,3.58178 z m -35.021778,87.18287 -9.220745,-3.87331 17.393771,-43.29991 9.337858,3.58178 z m 70.043565,-174.36579 -9.220746,-3.87329 39.674876,-98.76627 9.33786,3.58176 z m 67.3804,-194.49985 -9.22076,-3.87329 14.52899,-36.16828 9.33787,3.58177 z m 6.18765,325.30381 8.37591,5.46523 -25.29567,40.13119 -8.54345,-5.19945 z m 19.11721,-93.57185 9.76616,2.15564 -9.71744,47.5633 -9.82906,-1.84779 z m 54.29637,-242.099 9.22072,3.87335 -14.52901,36.16834 -9.33784,-3.58182 z m -25.62015,-10.29169 3.87333,-9.22072 25.32858,10.17457 -3.58176,9.33784 z m 10.97402,46.75156 9.62302,2.72434 -25.53782,95.92963 -9.70384,-2.42073 z m -184.868181,299.18137 -9.220746,-3.87331 17.393768,-43.29988 9.337872,3.58176 z m 100.637521,40.42658 7.47251,6.64727 -32.2045,37.36855 -7.67763,-6.40927 z m -66.021904,-126.59834 -9.220749,-3.87332 17.799951,-44.31103 9.337862,3.58176 z m 100.821984,40.50067 9.76616,2.15558 -9.27397,45.39291 -9.82906,-1.84779 z M 9.220745,586.69689 0,582.82357 25.767304,518.6787 l 9.337861,3.58176 z M 39.298441,598.77926 35.425123,608 5.638971,596.03475 9.220745,586.69689 Z m 81.545509,-42.07711 4.44589,8.95873 -81.266308,41.93304 -4.725091,-8.81466 z"
       id="path2318" />
    <path
       class="outer"
       d="M 35.425123,608 5.638971,596.03475 9.220745,586.69689 0,582.82357 25.767304,518.6787 l 9.337861,3.58176 -9.220745,-3.87331 17.393771,-43.29991 9.337858,3.58178 -9.220746,-3.87331 17.393768,-43.29988 9.337872,3.58176 -9.22076,-3.87332 16.987618,-42.28879 9.337865,3.58178 -9.220749,-3.87332 17.799951,-44.31103 9.337862,3.58176 -9.220746,-3.87329 39.674876,-98.76627 9.33786,3.58176 -1.93207,4.5994 -9.11184,-3.66021 1.78664,-4.65792 -9.22075,-3.87329 36.72857,-91.43179 9.33786,3.58176 -9.22076,-3.87329 14.52899,-36.16828 9.33787,3.58177 1.93205,-4.59946 9.11187,3.66026 -1.78663,4.65787 3.87331,-9.22072 29.78617,11.96527 -3.58179,9.33785 3.87333,-9.22072 25.32858,10.17457 -3.58176,9.33784 9.22072,3.87335 -14.52901,36.16834 -9.33784,-3.58182 9.62302,2.72434 -25.53782,95.92963 -9.70384,-2.42073 9.89878,1.42789 -13.99165,109.09431 -9.93873,-1.11631 9.76616,2.15564 -9.71744,47.5633 -9.82906,-1.84779 9.76616,2.15558 -9.27397,45.39291 -9.82906,-1.84779 8.37591,5.46523 -25.29567,40.13119 -8.54345,-5.19945 7.47251,6.64727 -32.2045,37.36855 -7.67763,-6.40927 4.44589,8.95873 -81.266308,41.93304 -4.725091,-8.81466 z"
       id="path2320" />
    <text
       transform="rotate(-158.11448)"
       style="font-size:4.49px"
       id="text2324"
       x="-222.26154"
       y="-177.77405"><tspan
         id="tspan2322">14:1</tspan></text>
    <g
       id="g2332">
      <path
         transform="matrix(3.72754,-9.279303,9.279303,3.72754,154.10629,199.25648)"
         class="arrow"
         d="M 0,0 1,1 0,0.25 -1,1 Z"
         id="path2326" />
      <text
         transform="translate(162.45766,206.61128)"
         style="font-size:10px"
         id="text2330"><tspan
           id="tspan2328">1</tspan></text>
    </g>
    <text
       transform="rotate(-68.114432)"
       style="font-size:9px"
       id="text2336"
       x="-127.45245"
       y="215.47356"><tspan
         id="tspan2334">2:1</tspan></text>
    <text
       transform="rotate(21.885515)"
       style="font-size:4.49px"
       id="text2340"
       x="222.26161"
       y="37.839512"><tspan
         id="tspan2338">1:3</tspan></text>
    <g
       id="g2348">
      <path
         transform="matrix(-1.272108,9.918757,-9.918757,-1.272108,204.84978,330.42383)"
         class="arrow"
         d="M 0,0 1,1 0,0.25 -1,1 Z"
         id="path2342" />
      <text
         transform="translate(195.9229,333.27895)"
         style="font-size:10px"
         id="text2346"><tspan
           id="tspan2344">2</tspan></text>
    </g>
    <text
       transform="rotate(97.308454)"
       style="font-size:9px"
       id="text2352"
       x="301.68018"
       y="-247.01897"><tspan
         id="tspan2350">10:2</tspan></text>
    <g
       id="g2360">
      <path
         transform="matrix(3.727542,-9.279301,9.279301,3.727542,179.85217,135.16492)"
         class="arrow"
         d="M 0,0 1,1 0,0.25 -1,1 Z"
         id="path2354" />
      <text
         transform="translate(188.20354,142.51971)"
         style="font-size:10px"
         id="text2358"><tspan
           id="tspan2356">3</tspan></text>
    </g>
    <text
       transform="rotate(-68.114432)"
       style="font-size:9px"
       id="text2364"
       x="-58.382999"
       y="215.47354"><tspan
         id="tspan2362">2:3</tspan></text>
    <g
       id="g2372">
      <path
         transform="matrix(-3.727545,9.2793,-9.2793,-3.727545,244.80726,161.25774)"
         class="arrow"
         d="M 0,0 1,1 0,0.25 -1,1 Z"
         id="path2366" />
      <text
         transform="translate(236.45589,161.90296)"
         style="font-size:10px"
         id="text2370"><tspan
           id="tspan2368">4</tspan></text>
    </g>
    <text
       transform="rotate(111.88557)"
       style="font-size:9px"
       id="text2376"
       x="58.383018"
       y="-289.07358"><tspan
         id="tspan2374">16:4</tspan></text>
    <text
       transform="rotate(21.885568)"
       style="font-size:9px"
       id="text2380"
       x="273.46857"
       y="36.937057"><tspan
         id="tspan2378">1:5</tspan></text>
    <g
       id="g2388">
      <path
         transform="matrix(-2.572543,9.663438,-9.663438,-2.572543,224.67488,227.60427)"
         class="arrow"
         d="M 0,0 1,1 0,0.25 -1,1 Z"
         id="path2382" />
      <text
         transform="translate(215.97779,229.28899)"
         style="font-size:10px"
         id="text2386"><tspan
           id="tspan2384">5</tspan></text>
    </g>
    <text
       transform="rotate(104.90718)"
       style="font-size:9px"
       id="text2392"
       x="162.14549"
       y="-277.46524"><tspan
         id="tspan2390">16:5</tspan></text>
    <g
       id="g2400">
      <path
         transform="matrix(3.72754,-9.279303,9.279303,3.72754,22.162955,554.47867)"
         class="arrow"
         d="M 0,0 1,1 0,0.25 -1,1 Z"
         id="path2394" />
      <text
         transform="translate(30.514326,561.83346)"
         style="font-size:10px"
         id="text2398"><tspan
           id="tspan2396">6.</tspan></text>
    </g>
    <text
       transform="rotate(-68.114432)"
       style="font-size:9px"
       id="text2404"
       x="-506.25623"
       y="225.4498"><tspan
         id="tspan2402">14:6.</tspan></text>
    <g
       id="g2412">
      <path
         transform="matrix(-9.2793,-3.727545,3.727545,-9.2793,24.259593,592.73807)"
         class="arrow"
         d="M 0,0 1,1 0,0.25 -1,1 Z"
         id="path2406" />
      <text
         transform="translate(27.614383,588.3867)"
         style="font-size:10px"
         id="text2410"><tspan
           id="tspan2408">7</tspan></text>
    </g>
    <text
       transform="rotate(-158.11438)"
       style="font-size:9px"
       id="text2416"
       x="-243.45721"
       y="-542.77643"><tspan
         id="tspan2414">11:7</tspan></text>
    <g
       id="g2424">
      <path
         transform="matrix(-8.886691,4.585491,-4.585491,-8.886691,80.071203,577.74071)"
         class="arrow"
         d="M 0,0 1,1 0,0.25 -1,1 Z"
         id="path2418" />
      <text
         transform="translate(75.94426,573.74269)"
         style="font-size:10px"
         id="text2422"><tspan
           id="tspan2420">8</tspan></text>
    </g>
    <text
       transform="rotate(152.70648)"
       style="font-size:9px"
       id="text2428"
       x="193.76566"
       y="-551.93689"><tspan
         id="tspan2426">10:8</tspan></text>
  </g>
</svg>
