<?xml version="1.0" encoding="UTF-8" standalone="no"?>
<svg
   xmlns:dc="http://purl.org/dc/elements/1.1/"
   xmlns:cc="http://creativecommons.org/ns#"
   xmlns:rdf="http://www.w3.org/1999/02/22-rdf-syntax-ns#"
   xmlns:svg="http://www.w3.org/2000/svg"
   xmlns="http://www.w3.org/2000/svg"
   xmlns:sodipodi="http://sodipodi.sourceforge.net/DTD/sodipodi-0.dtd"
   xmlns:inkscape="http://www.inkscape.org/namespaces/inkscape"
   version="1.1"
   width="300.00mm"
   height="600.00mm"
   viewBox="0 0 300.00 600.00"
   id="svg932"
   sodipodi:docname="backrest_page6.svg"
   inkscape:version="0.92.2 (5c3e80d, 2017-08-06)">
  <metadata
     id="metadata58">
    <rdf:RDF>
      <cc:Work
         rdf:about="">
        <dc:format>image/svg+xml</dc:format>
        <dc:type
           rdf:resource="http://purl.org/dc/dcmitype/StillImage" />
      </cc:Work>
    </rdf:RDF>
  </metadata>
  <defs
     id="defs936" />
  <sodipodi:namedview
     id="namedview934"
     pagecolor="#ffffff"
     bordercolor="#666666"
     borderopacity="1.0"
     inkscape:pageshadow="2"
     inkscape:pageopacity="0.0"
     inkscape:pagecheckerboard="0"
     inkscape:document-units="mm"
     showgrid="false"
     inkscape:zoom="0.49578498"
     inkscape:cx="665.50125"
     inkscape:cy="1721.3622"
     inkscape:window-width="1920"
     inkscape:window-height="1017"
     inkscape:window-x="1912"
     inkscape:window-y="-8"
     inkscape:window-maximized="1"
     inkscape:current-layer="svg932"
     inkscape:snap-global="false" />
  <style
     type="text/css"
     id="style824">
    path {
        fill: none;
        stroke-linecap: butt;
        stroke-linejoin: bevel;
        stroke-dasharray: none;
    }
    path.outer {
        stroke: #000000;
        stroke-dasharray: none;
        stroke-dashoffset: 0;
        stroke-width: 0.3;
        stroke-opacity: 1.0;
    }
    path.convex {
        stroke: #000000;
        stroke-dasharray: 0.50,1.00;
        stroke-dashoffset:0;
        stroke-width:0.2;
        stroke-opacity: 1.0
    }
    path.concave {
        stroke: #000000;
        stroke-dasharray: 1.00,0.50,0.20,0.50;
        stroke-dashoffset: 0;
        stroke-width: 0.2;
        stroke-opacity: 1.0
    }
    path.freestyle {
        stroke: #000000;
        stroke-dasharray: none;
        stroke-dashoffset: 0;
        stroke-width: 0.2;
        stroke-opacity: 1.0
    }
    path.outer_background {
        stroke: #ffffff;
        stroke-opacity: 1.0;
        stroke-width: 0.5
    }
    path.inner_background {
        stroke: #ffffff;
        stroke-opacity: 1.0;
        stroke-width: 0.2
    }
    path.sticker {
        fill: #e5e5e5;
        stroke: none;
        fill-opacity: 1.0;
    }
    path.arrow {
        fill: #000000;
    }
    text {
        font-style: normal;
        fill: #000000;
        fill-opacity: 1.0;
        stroke: none;
    }
    text, tspan {
        text-anchor:middle;
    }
    </style>
  <path
     inkscape:connector-curvature="0"
     id="path1077"
     style="font-style:normal;font-size:medium;text-anchor:middle;fill:none;fill-opacity:1;stroke:#000000;stroke-width:0.25;stroke-linecap:butt;stroke-linejoin:bevel;stroke-dasharray:none;stroke-opacity:1"
     d="m 97.796555,219.91406 h -2.539063 v -9.51172 h 2.539063 v 0.69825 h -1.689454 v 8.11523 h 1.689454 z" />
  <path
     inkscape:connector-curvature="0"
     id="path1079"
     style="font-style:normal;font-size:medium;text-anchor:middle;fill:none;fill-opacity:1;stroke:#000000;stroke-width:0.25;stroke-linecap:butt;stroke-linejoin:bevel;stroke-dasharray:none;stroke-opacity:1"
     d="m 104.5153,215.9541 h -1.0791 V 218 h -0.9375 v -2.0459 h -3.481442 v -1.12305 l 3.520512,-4.10156 h 0.89843 v 4.44336 h 1.0791 z m -2.0166,-0.78125 v -3.28125 l -2.81738,3.28125 z" />
  <path
     inkscape:connector-curvature="0"
     id="path1081"
     style="font-style:normal;font-size:medium;text-anchor:middle;fill:none;fill-opacity:1;stroke:#000000;stroke-width:0.25;stroke-linecap:butt;stroke-linejoin:bevel;stroke-dasharray:none;stroke-opacity:1"
     d="m 108.38249,219.91406 h -2.53906 v -0.69824 h 1.68945 v -8.11523 h -1.68945 v -0.69825 h 2.53906 z" />
  <path
     inkscape:connector-curvature="0"
     id="path1083"
     style="font-style:normal;font-size:medium;text-anchor:middle;fill:none;fill-opacity:1;stroke:#000000;stroke-width:0.25;stroke-linecap:butt;stroke-linejoin:bevel;stroke-dasharray:none;stroke-opacity:1"
     d="m 116.61491,218 h -2.87109 v -0.74219 h 0.95215 v -5.78613 h -0.95215 v -0.74219 h 2.87109 v 0.74219 h -0.95214 v 5.78613 h 0.95214 z" />
  <path
     inkscape:connector-curvature="0"
     id="path1085"
     style="font-style:normal;font-size:medium;text-anchor:middle;fill:none;fill-opacity:1;stroke:#000000;stroke-width:0.25;stroke-linecap:butt;stroke-linejoin:bevel;stroke-dasharray:none;stroke-opacity:1"
     d="m 126.68327,215.9541 h -1.0791 V 218 h -0.9375 v -2.0459 h -3.48144 v -1.12305 l 3.5205,-4.10156 h 0.89844 v 4.44336 h 1.0791 z m -2.0166,-0.78125 v -3.28125 l -2.81738,3.28125 z" />
  <path
     class="sticker"
     d="m 110.95413,181.00002 0.15709,-9.99999 h 92.99862 l 0.15708,10.00002 z m -46.977078,3e-5 0.157088,-10.00002 h 46.66289 l 0.1571,9.99999 z M 16.999994,229.75003 6.999989,229.59294 v -21.54898 l 10.000005,-0.15709 z m 1.5e-5,146.25001 -10.000005,-0.15709 -1.5e-5,-75.55774 10.000005,-0.15711 z m 187.266931,-194.40527 9.99999,0.15709 2e-5,194.09108 -10.00001,0.15709 z M 16.999994,300.1281 6.999989,299.97101 v -70.06386 l 10.000005,-0.15712 z m 0,-92.24123 -10.000005,-0.15709 v -26.57264 l 10.000005,-0.15709 z m 0,-26.88682 0.157088,-9.99999 46.662882,-3e-5 0.157088,10.00002 z M 204.26695,571 l -0.1571,10 h -92.9986 l -0.15709,-10 z m -93.31279,0 -0.1571,10 -46.66289,3e-5 -0.157088,-9.99999 z m -93.954136,-26.88679 -10.000005,-0.15708 -1.5e-5,-21.54899 10.000005,-0.15709 z m 0,-92.24122 -10.000005,-0.15709 -1.5e-5,-75.55777 10.000005,-0.15709 z m 187.266916,-75.87196 10.00001,0.15708 v 195.14943 l -10.00001,0.15709 z M 17.000009,522.25005 7.000004,522.09296 l 1.5e-5,-70.06389 10.000005,-0.15708 z m 1.5e-5,48.74999 -10.000005,-0.15709 V 544.2703 l 10.000005,-0.15709 z m 46.977058,0 -0.157088,9.99999 H 17.157112 l -0.157088,-9.99999 z"
     id="path830"
     sodipodi:nodetypes="cccccccccccccccccccccccccccccccccccccccccccccccccccccccccccccccccccccccccccccccc"
     style="stroke:#000000;stroke-opacity:1;stroke-width:0.25" />
  <path
     inkscape:connector-curvature="0"
     style="fill:#000000;stroke:#000000;stroke-width:0.25;stroke-linecap:butt;stroke-linejoin:bevel;stroke-dasharray:none;stroke-opacity:1"
     id="path834"
     d="m 157.61052,181.00002 10,10 -10,-7.5 -10,7.5 z"
     class="arrow" />
  <path
     d="m 159.71989,194.00003 h -3.93554 v -0.74219 h 1.51367 v -4.87304 h -1.51367 v -0.66407 q 0.30762,0 0.65918,-0.0488 0.35156,-0.0537 0.53222,-0.15137 0.22461,-0.12207 0.35157,-0.30762 0.13183,-0.19043 0.15136,-0.50781 h 0.75684 v 6.55273 h 1.48437 z"
     style="font-style:normal;font-size:medium;text-anchor:middle;fill:none;fill-opacity:1;stroke:#000000;stroke-width:0.25;stroke-linecap:butt;stroke-linejoin:bevel;stroke-dasharray:none;stroke-opacity:1"
     id="path1088"
     inkscape:connector-curvature="0" />
  <path
     inkscape:connector-curvature="0"
     id="path1091"
     style="font-style:normal;font-size:medium;text-anchor:middle;fill:none;fill-opacity:1;stroke:#000000;stroke-width:0.25;stroke-linecap:butt;stroke-linejoin:bevel;stroke-dasharray:none;stroke-opacity:1"
     d="m 152.10417,179.20004 h -4.42969 v -0.91845 q 0.46143,-0.39551 0.92286,-0.79102 0.46582,-0.39551 0.86572,-0.78662 0.84375,-0.81738 1.15576,-1.29639 0.31201,-0.4834 0.31201,-1.0415 0,-0.50977 -0.33838,-0.79541 -0.33398,-0.29004 -0.93603,-0.29004 -0.3999,0 -0.86572,0.14062 -0.46583,0.14063 -0.90967,0.43067 h -0.044 v -0.92285 q 0.31201,-0.15381 0.83057,-0.28125 0.52295,-0.12744 1.01074,-0.12744 1.00635,0 1.57764,0.48779 0.57129,0.4834 0.57129,1.31396 0,0.37354 -0.0967,0.69873 -0.0923,0.3208 -0.27686,0.61084 -0.17139,0.27246 -0.4043,0.53614 -0.22851,0.26367 -0.5581,0.58447 -0.47022,0.46142 -0.97119,0.89648 -0.50098,0.43067 -0.93604,0.79981 h 3.52002 z" />
  <path
     inkscape:connector-curvature="0"
     id="path1093"
     style="font-style:normal;font-size:medium;text-anchor:middle;fill:none;fill-opacity:1;stroke:#000000;stroke-width:0.25;stroke-linecap:butt;stroke-linejoin:bevel;stroke-dasharray:none;stroke-opacity:1"
     d="m 157.82585,175.92612 q 0,1.7622 -0.55371,2.58838 -0.54932,0.82177 -1.70947,0.82177 -1.17774,0 -1.72266,-0.83496 -0.54053,-0.83496 -0.54053,-2.5664 0,-1.74463 0.54932,-2.5752 0.54932,-0.83496 1.71387,-0.83496 1.17773,0 1.71826,0.84814 0.54492,0.84375 0.54492,2.55323 z m -1.15576,1.99511 q 0.15381,-0.35595 0.20654,-0.83496 0.0571,-0.4834 0.0571,-1.16015 0,-0.66797 -0.0571,-1.16016 -0.0527,-0.49219 -0.21093,-0.83496 -0.15381,-0.33838 -0.42188,-0.50977 -0.26367,-0.17138 -0.68115,-0.17138 -0.41309,0 -0.68555,0.17138 -0.26807,0.17139 -0.42627,0.51856 -0.14941,0.32519 -0.20654,0.84814 -0.0527,0.52295 -0.0527,1.14698 0,0.68554 0.0483,1.14697 0.0483,0.46142 0.20655,0.82617 0.14502,0.34277 0.40869,0.52295 0.26806,0.18018 0.70752,0.18018 0.41308,0 0.68554,-0.17139 0.27247,-0.17139 0.42188,-0.51856 z" />
  <path
     inkscape:connector-curvature="0"
     id="path1095"
     style="font-style:normal;font-size:medium;text-anchor:middle;fill:none;fill-opacity:1;stroke:#000000;stroke-width:0.25;stroke-linecap:butt;stroke-linejoin:bevel;stroke-dasharray:none;stroke-opacity:1"
     d="m 160.9987,175.54379 h -1.05029 v -1.25244 h 1.05029 z m 0,3.65625 h -1.05029 v -1.25244 h 1.05029 z" />
  <path
     inkscape:connector-curvature="0"
     id="path1097"
     style="font-style:normal;font-size:medium;text-anchor:middle;fill:none;fill-opacity:1;stroke:#000000;stroke-width:0.25;stroke-linecap:butt;stroke-linejoin:bevel;stroke-dasharray:none;stroke-opacity:1"
     d="m 167.28728,179.20004 h -3.54199 v -0.66797 h 1.3623 v -4.38574 h -1.3623 v -0.59765 q 0.27685,0 0.59326,-0.0439 0.3164,-0.0483 0.479,-0.13623 0.20215,-0.10986 0.31641,-0.27686 0.11865,-0.17138 0.13623,-0.45703 h 0.68115 v 5.89746 h 1.33594 z" />
  <path
     inkscape:connector-curvature="0"
     style="fill:#000000;stroke:#000000;stroke-width:0.25;stroke-linecap:butt;stroke-linejoin:bevel;stroke-dasharray:none;stroke-opacity:1"
     id="path846"
     d="m 204.26694,338.06407 -10,10 7.5,-10 -7.5,-10 z"
     class="arrow" />
  <path
     d="m 197.79135,342.06408 h -4.92187 v -1.02051 q 0.51269,-0.43945 1.02539,-0.8789 0.51758,-0.43946 0.96191,-0.87403 0.9375,-0.9082 1.28418,-1.44043 0.34668,-0.53711 0.34668,-1.15722 0,-0.56641 -0.37597,-0.88379 -0.3711,-0.32227 -1.04004,-0.32227 -0.44434,0 -0.96192,0.15625 -0.51757,0.15625 -1.01074,0.47852 h -0.0488 v -1.02539 q 0.34668,-0.1709 0.92285,-0.3125 0.58106,-0.14161 1.12305,-0.14161 1.11817,0 1.75293,0.542 0.63477,0.53711 0.63477,1.45996 0,0.41504 -0.10742,0.77637 -0.10254,0.35644 -0.30762,0.67871 -0.19043,0.30273 -0.44922,0.5957 -0.25391,0.29297 -0.62012,0.64941 -0.52246,0.5127 -1.0791,0.9961 -0.55664,0.47851 -1.04004,0.88867 h 3.91113 z"
     style="font-style:normal;font-size:medium;text-anchor:middle;fill:none;fill-opacity:1;stroke:#000000;stroke-width:0.25;stroke-linecap:butt;stroke-linejoin:bevel;stroke-dasharray:none;stroke-opacity:1"
     id="path1100"
     inkscape:connector-curvature="0" />
  <path
     inkscape:connector-curvature="0"
     id="path1103"
     style="font-style:normal;font-size:medium;text-anchor:middle;fill:none;fill-opacity:1;stroke:#000000;stroke-width:0.25;stroke-linecap:butt;stroke-linejoin:bevel;stroke-dasharray:none;stroke-opacity:1"
     d="m 206.06694,332.55774 v -4.42969 h 0.91846 q 0.39551,0.46143 0.79101,0.92285 0.39551,0.46582 0.78662,0.86573 0.81739,0.84375 1.29639,1.15576 0.4834,0.31201 1.0415,0.31201 0.50977,0 0.79541,-0.33838 0.29004,-0.33398 0.29004,-0.93603 0,-0.39991 -0.14062,-0.86573 -0.14063,-0.46582 -0.43067,-0.90967 v -0.0439 h 0.92286 q 0.1538,0.31201 0.28125,0.83057 0.12744,0.52295 0.12744,1.01074 0,1.00635 -0.4878,1.57763 -0.48339,0.57129 -1.31396,0.57129 -0.37354,0 -0.69873,-0.0967 -0.3208,-0.0923 -0.61084,-0.27685 -0.27246,-0.17139 -0.53613,-0.4043 -0.26368,-0.22851 -0.58448,-0.5581 -0.46142,-0.47022 -0.89648,-0.9712 -0.43066,-0.50097 -0.7998,-0.93603 v 3.52002 z" />
  <path
     inkscape:connector-curvature="0"
     id="path1105"
     style="font-style:normal;font-size:medium;text-anchor:middle;fill:none;fill-opacity:1;stroke:#000000;stroke-width:0.25;stroke-linecap:butt;stroke-linejoin:bevel;stroke-dasharray:none;stroke-opacity:1"
     d="m 206.06694,337.91467 v -3.54199 h 0.66797 v 1.36231 h 4.38574 v -1.36231 h 0.59766 q 0,0.27686 0.0439,0.59326 0.0483,0.31641 0.13623,0.47901 0.10987,0.20214 0.27686,0.3164 0.17139,0.11865 0.45703,0.13623 v 0.68116 h -5.89746 v 1.33593 z" />
  <path
     inkscape:connector-curvature="0"
     id="path1107"
     style="font-style:normal;font-size:medium;text-anchor:middle;fill:none;fill-opacity:1;stroke:#000000;stroke-width:0.25;stroke-linecap:butt;stroke-linejoin:bevel;stroke-dasharray:none;stroke-opacity:1"
     d="m 209.72319,341.45227 v -1.05029 h 1.25244 v 1.05029 z m -3.65625,0 v -1.05029 h 1.25244 v 1.05029 z" />
  <path
     inkscape:connector-curvature="0"
     id="path1109"
     style="font-style:normal;font-size:medium;text-anchor:middle;fill:none;fill-opacity:1;stroke:#000000;stroke-width:0.25;stroke-linecap:butt;stroke-linejoin:bevel;stroke-dasharray:none;stroke-opacity:1"
     d="m 206.06694,348.11438 v -4.42969 h 0.91846 q 0.39551,0.46143 0.79101,0.92285 0.39551,0.46582 0.78662,0.86573 0.81739,0.84375 1.29639,1.15576 0.4834,0.31201 1.0415,0.31201 0.50977,0 0.79541,-0.33838 0.29004,-0.33398 0.29004,-0.93603 0,-0.39991 -0.14062,-0.86573 -0.14063,-0.46582 -0.43067,-0.90966 v -0.0439 h 0.92286 q 0.1538,0.31201 0.28125,0.83057 0.12744,0.52295 0.12744,1.01074 0,1.00635 -0.4878,1.57764 -0.48339,0.57128 -1.31396,0.57128 -0.37354,0 -0.69873,-0.0967 -0.3208,-0.0923 -0.61084,-0.27685 -0.27246,-0.17139 -0.53613,-0.4043 -0.26368,-0.22851 -0.58448,-0.5581 -0.46142,-0.47022 -0.89648,-0.97119 -0.43066,-0.50098 -0.7998,-0.93604 v 3.52002 z" />
  <path
     inkscape:connector-curvature="0"
     style="fill:#000000;stroke:#000000;stroke-width:0.25;stroke-linecap:butt;stroke-linejoin:bevel;stroke-dasharray:none;stroke-opacity:1"
     id="path858"
     d="m 16.999994,194.44346 9.999998,-10 -7.499998,10 7.500002,10 z"
     class="arrow" />
  <path
     d="m 27.88476,194.94249 q 0.234375,0.20996 0.385742,0.52735 0.151367,0.31738 0.151367,0.82031 0,0.49805 -0.180664,0.91309 -0.180664,0.41503 -0.507813,0.72265 -0.366211,0.3418 -0.864257,0.50781 -0.493164,0.16114 -1.083985,0.16114 -0.605469,0 -1.191406,-0.14649 -0.585938,-0.1416 -0.961914,-0.3125 v -1.02051 h 0.07324 q 0.415039,0.27344 0.976562,0.45411 0.561524,0.18066 1.083985,0.18066 0.307617,0 0.654297,-0.10254 0.346679,-0.10254 0.561523,-0.30273 0.22461,-0.21485 0.332031,-0.47364 0.112305,-0.25878 0.112305,-0.65429 0,-0.39063 -0.126953,-0.64453 -0.12207,-0.25879 -0.341797,-0.40528 -0.219727,-0.15136 -0.532227,-0.20508 -0.3125,-0.0586 -0.673828,-0.0586 h -0.439453 v -0.81055 h 0.341797 q 0.742188,0 1.181641,-0.30761 0.444336,-0.3125 0.444336,-0.90821 0,-0.26367 -0.112305,-0.45898 -0.112305,-0.2002 -0.3125,-0.32715 -0.209961,-0.12695 -0.449219,-0.17578 -0.239258,-0.0488 -0.541992,-0.0488 -0.463867,0 -0.986328,0.16602 -0.522461,0.16601 -0.986328,0.46875 h -0.04883 v -1.02051 q 0.346679,-0.1709 0.922851,-0.3125 0.581055,-0.14649 1.123047,-0.14649 0.532227,0 0.9375,0.0977 0.405274,0.0977 0.732422,0.3125 0.351563,0.23438 0.532227,0.56641 0.180664,0.33203 0.180664,0.77636 0,0.60547 -0.429688,1.05957 -0.424805,0.44922 -1.005859,0.56641 v 0.0684 q 0.234375,0.0391 0.537109,0.16602 0.302735,0.12207 0.512696,0.30761 z"
     style="font-style:normal;font-size:medium;text-anchor:middle;fill:none;fill-opacity:1;stroke:#000000;stroke-width:0.25;stroke-linecap:butt;stroke-linejoin:bevel;stroke-dasharray:none;stroke-opacity:1"
     id="path1113"
     inkscape:connector-curvature="0" />
  <path
     inkscape:connector-curvature="0"
     id="path1116"
     style="font-style:normal;font-size:medium;text-anchor:middle;fill:none;fill-opacity:1;stroke:#000000;stroke-width:0.25;stroke-linecap:butt;stroke-linejoin:bevel;stroke-dasharray:none;stroke-opacity:1"
     d="m 12.049118,197.66026 q 0.188965,-0.21093 0.474609,-0.34716 0.285645,-0.13624 0.738282,-0.13624 0.448242,0 0.821777,0.1626 0.373535,0.1626 0.650391,0.45703 0.307617,0.32959 0.457031,0.77784 0.145019,0.44384 0.145019,0.97558 0,0.54492 -0.131836,1.07227 -0.127441,0.52734 -0.28125,0.86572 h -0.918457 v -0.0659 q 0.246094,-0.37353 0.408692,-0.8789 0.162598,-0.50538 0.162598,-0.97559 0,-0.27686 -0.09229,-0.58887 -0.09229,-0.31201 -0.272461,-0.50537 -0.193359,-0.20215 -0.426269,-0.29883 -0.23291,-0.10107 -0.588867,-0.10107 -0.351563,0 -0.580078,0.11426 -0.232911,0.10986 -0.364747,0.30761 -0.13623,0.19776 -0.18457,0.47901 -0.05273,0.28125 -0.05273,0.60644 v 0.39551 H 11.28447 v -0.30762 q 0,-0.66796 -0.276856,-1.06347 -0.28125,-0.39991 -0.817383,-0.39991 -0.2373044,0 -0.4130856,0.10108 -0.1801758,0.10107 -0.2944336,0.28125 -0.1142578,0.18896 -0.1582031,0.4043 -0.043945,0.21533 -0.043945,0.48779 0,0.41748 0.149414,0.88769 0.1494141,0.47022 0.421875,0.8877 v 0.0439 h -0.918457 q -0.1538086,-0.31201 -0.28125,-0.83056 -0.131836,-0.52295 -0.131836,-1.01074 0,-0.47901 0.087891,-0.84375 0.087891,-0.36475 0.28125,-0.65918 0.2109375,-0.31641 0.5097656,-0.47901 0.2988281,-0.16259 0.6987307,-0.16259 0.544922,0 0.953613,0.38671 0.404297,0.38233 0.509766,0.90528 h 0.06152 q 0.03516,-0.21094 0.149414,-0.4834 0.109863,-0.27246 0.276855,-0.46143 z" />
  <path
     inkscape:connector-curvature="0"
     id="path1118"
     style="font-style:normal;font-size:medium;text-anchor:middle;fill:none;fill-opacity:1;stroke:#000000;stroke-width:0.25;stroke-linecap:butt;stroke-linejoin:bevel;stroke-dasharray:none;stroke-opacity:1"
     d="m 11.543747,193.92052 v 1.05029 h -1.252441 v -1.05029 z m 3.65625,0 v 1.05029 h -1.252441 v -1.05029 z" />
  <path
     inkscape:connector-curvature="0"
     id="path1120"
     style="font-style:normal;font-size:medium;text-anchor:middle;fill:none;fill-opacity:1;stroke:#000000;stroke-width:0.25;stroke-linecap:butt;stroke-linejoin:bevel;stroke-dasharray:none;stroke-opacity:1"
     d="m 12.049118,187.83409 q 0.188965,-0.21094 0.474609,-0.34717 0.285645,-0.13623 0.738282,-0.13623 0.448242,0 0.821777,0.1626 0.373535,0.1626 0.650391,0.45703 0.307617,0.32959 0.457031,0.77783 0.145019,0.44385 0.145019,0.97559 0,0.54492 -0.131836,1.07227 -0.127441,0.52734 -0.28125,0.86572 h -0.918457 v -0.0659 q 0.246094,-0.37354 0.408692,-0.87891 0.162598,-0.50537 0.162598,-0.97558 0,-0.27686 -0.09229,-0.58887 -0.09229,-0.31201 -0.272461,-0.50537 -0.193359,-0.20215 -0.426269,-0.29883 -0.23291,-0.10107 -0.588867,-0.10107 -0.351563,0 -0.580078,0.11425 -0.232911,0.10987 -0.364747,0.30762 -0.13623,0.19776 -0.18457,0.47901 -0.05273,0.28125 -0.05273,0.60644 v 0.39551 H 11.28447 v -0.30762 q 0,-0.66797 -0.276856,-1.06347 -0.28125,-0.39991 -0.817383,-0.39991 -0.2373044,0 -0.4130856,0.10108 -0.1801758,0.10107 -0.2944336,0.28125 -0.1142578,0.18896 -0.1582031,0.40429 -0.043945,0.21534 -0.043945,0.4878 0,0.41748 0.149414,0.88769 0.1494141,0.47022 0.421875,0.8877 v 0.0439 h -0.918457 q -0.1538086,-0.31201 -0.28125,-0.83056 -0.131836,-0.52295 -0.131836,-1.01075 0,-0.479 0.087891,-0.84375 0.087891,-0.36474 0.28125,-0.65918 0.2109375,-0.3164 0.5097656,-0.479 0.2988281,-0.1626 0.6987307,-0.1626 0.544922,0 0.953613,0.38672 0.404297,0.38233 0.509766,0.90528 h 0.06152 q 0.03516,-0.21094 0.149414,-0.4834 0.109863,-0.27246 0.276855,-0.46143 z" />
  <path
     inkscape:connector-curvature="0"
     style="fill:#000000;stroke:#000000;stroke-width:0.25;stroke-linecap:butt;stroke-linejoin:bevel;stroke-dasharray:none;stroke-opacity:1"
     id="path870"
     d="m 40.488531,181.00005 10.000002,10 -10.000002,-7.5 -9.999998,7.5 z"
     class="arrow" />
  <path
     d="m 43.178961,191.95416 h -1.079102 v 2.0459 h -0.9375 v -2.0459 h -3.481445 v -1.12305 l 3.520508,-4.10156 h 0.898437 v 4.44336 h 1.079102 z m -2.016602,-0.78125 v -3.28125 l -2.817383,3.28125 z"
     style="font-style:normal;font-size:medium;text-anchor:middle;fill:none;fill-opacity:1;stroke:#000000;stroke-width:0.25;stroke-linecap:butt;stroke-linejoin:bevel;stroke-dasharray:none;stroke-opacity:1"
     id="path1123"
     inkscape:connector-curvature="0" />
  <path
     inkscape:connector-curvature="0"
     id="path1126"
     style="font-style:normal;font-size:medium;text-anchor:middle;fill:none;fill-opacity:1;stroke:#000000;stroke-width:0.25;stroke-linecap:butt;stroke-linejoin:bevel;stroke-dasharray:none;stroke-opacity:1"
     d="m 34.982182,179.20004 h -4.429688 v -0.91845 q 0.461426,-0.39551 0.922852,-0.79102 0.46582,-0.39551 0.865722,-0.78662 0.84375,-0.81738 1.155762,-1.29639 0.312012,-0.4834 0.312012,-1.0415 0,-0.50977 -0.338379,-0.79541 -0.333985,-0.29004 -0.936035,-0.29004 -0.399903,0 -0.865723,0.14062 -0.46582,0.14063 -0.909668,0.43067 h -0.04395 v -0.92285 q 0.312011,-0.15381 0.830566,-0.28125 0.522949,-0.12744 1.010742,-0.12744 1.006348,0 1.577637,0.48779 0.571289,0.4834 0.571289,1.31396 0,0.37354 -0.09668,0.69873 -0.09228,0.3208 -0.276855,0.61084 -0.171387,0.27246 -0.404297,0.53614 -0.228516,0.26367 -0.558105,0.58447 -0.470215,0.46142 -0.971192,0.89648 -0.500976,0.43067 -0.936035,0.79981 h 3.52002 z" />
  <path
     inkscape:connector-curvature="0"
     id="path1128"
     style="font-style:normal;font-size:medium;text-anchor:middle;fill:none;fill-opacity:1;stroke:#000000;stroke-width:0.25;stroke-linecap:butt;stroke-linejoin:bevel;stroke-dasharray:none;stroke-opacity:1"
     d="m 40.703861,175.92612 q 0,1.7622 -0.553711,2.58838 -0.549316,0.82177 -1.709472,0.82177 -1.177735,0 -1.722657,-0.83496 -0.540527,-0.83496 -0.540527,-2.5664 0,-1.74463 0.549316,-2.5752 0.549317,-0.83496 1.713868,-0.83496 1.177734,0 1.718261,0.84814 0.544922,0.84375 0.544922,2.55323 z m -1.155761,1.99511 q 0.153808,-0.35595 0.206542,-0.83496 0.05713,-0.4834 0.05713,-1.16015 0,-0.66797 -0.05713,-1.16016 -0.05273,-0.49219 -0.210937,-0.83496 -0.153809,-0.33838 -0.421875,-0.50977 -0.263672,-0.17138 -0.681152,-0.17138 -0.413086,0 -0.685547,0.17138 -0.268067,0.17139 -0.42627,0.51856 -0.149414,0.32519 -0.206543,0.84814 -0.05273,0.52295 -0.05273,1.14698 0,0.68554 0.04834,1.14697 0.04834,0.46142 0.206543,0.82617 0.145019,0.34277 0.408691,0.52295 0.268067,0.18018 0.70752,0.18018 0.413086,0 0.685547,-0.17139 0.27246,-0.17139 0.421875,-0.51856 z" />
  <path
     inkscape:connector-curvature="0"
     id="path1130"
     style="font-style:normal;font-size:medium;text-anchor:middle;fill:none;fill-opacity:1;stroke:#000000;stroke-width:0.25;stroke-linecap:butt;stroke-linejoin:bevel;stroke-dasharray:none;stroke-opacity:1"
     d="M 43.876713,175.54379 H 42.82642 v -1.25244 h 1.050293 z m 0,3.65625 H 42.82642 v -1.25244 h 1.050293 z" />
  <path
     inkscape:connector-curvature="0"
     id="path1132"
     style="font-style:normal;font-size:medium;text-anchor:middle;fill:none;fill-opacity:1;stroke:#000000;stroke-width:0.25;stroke-linecap:butt;stroke-linejoin:bevel;stroke-dasharray:none;stroke-opacity:1"
     d="m 50.688236,177.35873 h -0.971191 v 1.84131 h -0.84375 v -1.84131 h -3.133301 v -1.01074 l 3.168457,-3.6914 h 0.808594 v 3.99902 h 0.971191 z m -1.814941,-0.70312 v -2.95313 l -2.535645,2.95313 z" />
  <path
     inkscape:connector-curvature="0"
     style="fill:#000000;stroke:#000000;stroke-width:0.25;stroke-linecap:butt;stroke-linejoin:bevel;stroke-dasharray:none;stroke-opacity:1"
     id="path882"
     d="m 157.61055,571 -10,-10 10,7.5 10,-7.5 z"
     class="arrow" />
  <path
     d="m 160.07637,563.69044 q 0,0.50781 -0.18555,0.97168 -0.18554,0.46387 -0.50781,0.78125 -0.35156,0.3418 -0.83984,0.52734 -0.4834,0.18067 -1.12305,0.18067 -0.5957,0 -1.14746,-0.12696 -0.55176,-0.12207 -0.93262,-0.29785 v -1.03027 h 0.0684 q 0.40039,0.25391 0.9375,0.43457 0.53711,0.17578 1.05469,0.17578 0.34668,0 0.66894,-0.0977 0.32715,-0.0976 0.58106,-0.34179 0.21484,-0.20996 0.32226,-0.50293 0.11231,-0.29297 0.11231,-0.67871 0,-0.37598 -0.13184,-0.63477 -0.12695,-0.25879 -0.35644,-0.41504 -0.25391,-0.18554 -0.62012,-0.25879 -0.36133,-0.0781 -0.81055,-0.0781 -0.42968,0 -0.83007,0.0586 -0.39551,0.0586 -0.6836,0.11719 v -3.74512 h 4.375 v 0.85449 h -3.43262 v 1.9336 q 0.20997,-0.0195 0.42969,-0.0293 0.21973,-0.01 0.38086,-0.01 0.59082,0 1.03516,0.10254 0.44433,0.0977 0.81543,0.35156 0.39062,0.26856 0.60547,0.69336 0.21484,0.42481 0.21484,1.06446 z"
     style="font-style:normal;font-size:medium;text-anchor:middle;fill:none;fill-opacity:1;stroke:#000000;stroke-width:0.25;stroke-linecap:butt;stroke-linejoin:bevel;stroke-dasharray:none;stroke-opacity:1"
     id="path1135"
     inkscape:connector-curvature="0" />
  <path
     inkscape:connector-curvature="0"
     id="path1138"
     style="font-style:normal;font-size:medium;text-anchor:middle;fill:none;fill-opacity:1;stroke:#000000;stroke-width:0.25;stroke-linecap:butt;stroke-linejoin:bevel;stroke-dasharray:none;stroke-opacity:1"
     d="m 163.49043,572.79999 h 3.54199 v 0.66797 h -1.3623 v 4.38574 h 1.3623 v 0.59765 q -0.27685,0 -0.59326,0.0439 -0.3164,0.0483 -0.479,0.13623 -0.20215,0.10986 -0.31641,0.27686 -0.11865,0.17138 -0.13623,0.45703 h -0.68115 v -5.89746 h -1.33594 z" />
  <path
     inkscape:connector-curvature="0"
     id="path1140"
     style="font-style:normal;font-size:medium;text-anchor:middle;fill:none;fill-opacity:1;stroke:#000000;stroke-width:0.25;stroke-linecap:butt;stroke-linejoin:bevel;stroke-dasharray:none;stroke-opacity:1"
     d="m 157.36885,578.36346 2.96191,-5.56347 h 0.94043 l -3.15087,5.77441 h 3.72656 v 0.76904 h -4.47803 z" />
  <path
     inkscape:connector-curvature="0"
     id="path1142"
     style="font-style:normal;font-size:medium;text-anchor:middle;fill:none;fill-opacity:1;stroke:#000000;stroke-width:0.25;stroke-linecap:butt;stroke-linejoin:bevel;stroke-dasharray:none;stroke-opacity:1"
     d="m 154.22237,576.45624 h 1.05029 v 1.25244 h -1.05029 z m 0,-3.65625 h 1.05029 v 1.25244 h -1.05029 z" />
  <path
     inkscape:connector-curvature="0"
     id="path1144"
     style="font-style:normal;font-size:medium;text-anchor:middle;fill:none;fill-opacity:1;stroke:#000000;stroke-width:0.25;stroke-linecap:butt;stroke-linejoin:bevel;stroke-dasharray:none;stroke-opacity:1"
     d="m 147.61299,574.8786 q 0,-0.45703 0.16699,-0.87451 0.167,-0.41748 0.45703,-0.70313 0.31641,-0.30761 0.75586,-0.47461 0.43506,-0.16259 1.01075,-0.16259 0.53613,0 1.03271,0.11426 0.49658,0.10986 0.83936,0.26806 v 0.92725 h -0.0615 q -0.36035,-0.22852 -0.84375,-0.39112 -0.4834,-0.1582 -0.94922,-0.1582 -0.31201,0 -0.60205,0.0879 -0.29443,0.0879 -0.52295,0.30762 -0.19335,0.18896 -0.29003,0.45264 -0.10108,0.26367 -0.10108,0.61084 0,0.33837 0.11865,0.57128 0.11426,0.23291 0.3208,0.37354 0.22852,0.16699 0.55811,0.23291 0.3252,0.0703 0.72949,0.0703 0.38672,0 0.74707,-0.0527 0.35596,-0.0527 0.61524,-0.10547 v 3.3706 h -3.9375 v -0.76904 h 3.08935 v -1.74023 q -0.18896,0.0176 -0.38672,0.0264 -0.19775,0.009 -0.34277,0.009 -0.53174,0 -0.93164,-0.0923 -0.3999,-0.0879 -0.73389,-0.31641 -0.35156,-0.2417 -0.54492,-0.62402 -0.19336,-0.38233 -0.19336,-0.95801 z" />
  <path
     inkscape:connector-curvature="0"
     style="fill:#000000;stroke:#000000;stroke-width:0.25;stroke-linecap:butt;stroke-linejoin:bevel;stroke-dasharray:none;stroke-opacity:1"
     id="path894"
     d="m 204.26694,413.93598 -10,10 7.5,-10 -7.5,-10 z"
     class="arrow" />
  <path
     d="m 196.08237,415.57758 q 0,1.1084 -0.73242,1.81152 -0.72754,0.69825 -1.78711,0.69825 -0.53711,0 -0.97656,-0.16602 -0.43946,-0.16601 -0.77637,-0.49316 -0.41992,-0.40528 -0.64942,-1.07422 -0.2246,-0.66895 -0.2246,-1.61133 0,-0.9668 0.20507,-1.71387 0.20996,-0.74707 0.66407,-1.32812 0.42968,-0.55176 1.10839,-0.85938 0.67872,-0.3125 1.58204,-0.3125 0.28808,0 0.48339,0.0244 0.19532,0.0244 0.39551,0.0879 v 0.93262 h -0.0488 q -0.13672,-0.0733 -0.41504,-0.13672 -0.27343,-0.0684 -0.56152,-0.0684 -1.0498,0 -1.6748,0.65918 -0.625,0.65429 -0.72754,1.77246 0.41015,-0.24902 0.80566,-0.37598 0.40039,-0.13183 0.92285,-0.13183 0.46387,0 0.81543,0.0879 0.35645,0.083 0.72754,0.34179 0.42969,0.29786 0.64453,0.75196 0.21973,0.4541 0.21973,1.10351 z m -0.99121,0.0391 q 0,-0.4541 -0.13672,-0.75195 -0.13184,-0.29785 -0.43945,-0.51758 -0.22461,-0.15625 -0.49805,-0.20508 -0.27344,-0.0488 -0.57129,-0.0488 -0.41504,0 -0.77148,0.0976 -0.35645,0.0977 -0.73243,0.30274 -0.01,0.10742 -0.0146,0.20996 -0.005,0.0977 -0.005,0.24902 0,0.77149 0.15625,1.2207 0.16113,0.44434 0.43945,0.70313 0.22461,0.21484 0.4834,0.31738 0.26367,0.0977 0.57129,0.0977 0.708,0 1.11328,-0.42969 0.40527,-0.43457 0.40527,-1.24512 z"
     style="font-style:normal;font-size:medium;text-anchor:middle;fill:none;fill-opacity:1;stroke:#000000;stroke-width:0.25;stroke-linecap:butt;stroke-linejoin:bevel;stroke-dasharray:none;stroke-opacity:1"
     id="path1147"
     inkscape:connector-curvature="0" />
  <path
     d="m 199.03647,417.93598 h -1.16699 v -1.3916 h 1.16699 z"
     style="font-style:normal;font-size:medium;text-anchor:middle;fill:none;fill-opacity:1;stroke:#000000;stroke-width:0.25;stroke-linecap:butt;stroke-linejoin:bevel;stroke-dasharray:none;stroke-opacity:1"
     id="path1149"
     inkscape:connector-curvature="0" />
  <path
     inkscape:connector-curvature="0"
     id="path1153"
     style="font-style:normal;font-size:medium;text-anchor:middle;fill:none;fill-opacity:1;stroke:#000000;stroke-width:0.25;stroke-linecap:butt;stroke-linejoin:bevel;stroke-dasharray:none;stroke-opacity:1"
     d="m 206.06694,406.79486 v -4.42969 h 0.91846 q 0.39551,0.46143 0.79101,0.92285 0.39551,0.46583 0.78662,0.86573 0.81739,0.84375 1.29639,1.15576 0.4834,0.31201 1.0415,0.31201 0.50977,0 0.79541,-0.33838 0.29004,-0.33398 0.29004,-0.93603 0,-0.39991 -0.14062,-0.86573 -0.14063,-0.46582 -0.43067,-0.90966 v -0.044 h 0.92286 q 0.1538,0.31201 0.28125,0.83057 0.12744,0.52295 0.12744,1.01074 0,1.00635 -0.4878,1.57764 -0.48339,0.57129 -1.31396,0.57129 -0.37354,0 -0.69873,-0.0967 -0.3208,-0.0923 -0.61084,-0.27686 -0.27246,-0.17139 -0.53613,-0.4043 -0.26368,-0.22851 -0.58448,-0.5581 -0.46142,-0.47022 -0.89648,-0.97119 -0.43066,-0.50098 -0.7998,-0.93604 v 3.52002 z" />
  <path
     inkscape:connector-curvature="0"
     id="path1155"
     style="font-style:normal;font-size:medium;text-anchor:middle;fill:none;fill-opacity:1;stroke:#000000;stroke-width:0.25;stroke-linecap:butt;stroke-linejoin:bevel;stroke-dasharray:none;stroke-opacity:1"
     d="m 206.06694,412.15179 v -3.54199 h 0.66797 v 1.36231 h 4.38574 v -1.36231 h 0.59766 q 0,0.27686 0.0439,0.59326 0.0483,0.31641 0.13623,0.47901 0.10987,0.20215 0.27686,0.3164 0.17139,0.11866 0.45703,0.13623 v 0.68116 h -5.89746 v 1.33593 z" />
  <path
     inkscape:connector-curvature="0"
     id="path1157"
     style="font-style:normal;font-size:medium;text-anchor:middle;fill:none;fill-opacity:1;stroke:#000000;stroke-width:0.25;stroke-linecap:butt;stroke-linejoin:bevel;stroke-dasharray:none;stroke-opacity:1"
     d="m 209.72319,415.68939 v -1.05029 h 1.25244 v 1.05029 z m -3.65625,0 v -1.05029 h 1.25244 v 1.05029 z" />
  <path
     inkscape:connector-curvature="0"
     id="path1159"
     style="font-style:normal;font-size:medium;text-anchor:middle;fill:none;fill-opacity:1;stroke:#000000;stroke-width:0.25;stroke-linecap:butt;stroke-linejoin:bevel;stroke-dasharray:none;stroke-opacity:1"
     d="m 208.1895,422.44818 q -0.99756,0 -1.63037,-0.65918 -0.62842,-0.65478 -0.62842,-1.6084 0,-0.4834 0.14941,-0.8789 0.14942,-0.39551 0.44385,-0.69873 0.36475,-0.37793 0.9668,-0.58448 0.60205,-0.20214 1.45019,-0.20214 0.87012,0 1.54248,0.18457 0.67237,0.18896 1.19532,0.59765 0.49658,0.38672 0.77343,0.99756 0.28125,0.61084 0.28125,1.42383 0,0.25928 -0.022,0.43506 -0.022,0.17578 -0.0791,0.35595 h -0.83936 v -0.0439 q 0.0659,-0.12305 0.12305,-0.37354 0.0615,-0.24609 0.0615,-0.50537 0,-0.94482 -0.59326,-1.50732 -0.58886,-0.5625 -1.59521,-0.65479 0.22412,0.36914 0.33838,0.7251 0.11865,0.36035 0.11865,0.83057 0,0.41748 -0.0791,0.73388 -0.0747,0.3208 -0.30762,0.65479 -0.26807,0.38672 -0.67676,0.58008 -0.40869,0.19775 -0.99316,0.19775 z m -0.0352,-0.89209 q 0.40869,0 0.67676,-0.12305 0.26807,-0.11865 0.46582,-0.3955 0.14063,-0.20215 0.18457,-0.44825 0.0439,-0.24609 0.0439,-0.51416 0,-0.37353 -0.0879,-0.69433 -0.0879,-0.3208 -0.27247,-0.65918 -0.0967,-0.009 -0.18896,-0.0132 -0.0879,-0.004 -0.22412,-0.004 -0.69434,0 -1.09863,0.14063 -0.39991,0.14502 -0.63282,0.3955 -0.19336,0.20215 -0.28564,0.43506 -0.0879,0.23731 -0.0879,0.51416 0,0.63721 0.38672,1.00196 0.39111,0.36474 1.1206,0.36474 z" />
  <path
     inkscape:connector-curvature="0"
     id="path1161"
     style="font-style:normal;font-size:medium;text-anchor:middle;fill:none;fill-opacity:1;stroke:#000000;stroke-width:0.25;stroke-linecap:butt;stroke-linejoin:bevel;stroke-dasharray:none;stroke-opacity:1"
     d="m 206.06694,425.10687 v -1.05029 h 1.25244 v 1.05029 z" />
  <path
     inkscape:connector-curvature="0"
     style="fill:#000000;stroke:#000000;stroke-width:0.25;stroke-linecap:butt;stroke-linejoin:bevel;stroke-dasharray:none;stroke-opacity:1"
     id="path906"
     d="m 17.000024,557.55663 9.999998,-10 -7.499998,10 7.500002,10 z"
     class="arrow" />
  <path
     d="m 28.543969,555.37499 -3.291015,6.18164 h -1.044922 l 3.500976,-6.41602 h -4.140625 v -0.85449 h 4.975586 z"
     style="font-style:normal;font-size:medium;text-anchor:middle;fill:none;fill-opacity:1;stroke:#000000;stroke-width:0.25;stroke-linecap:butt;stroke-linejoin:bevel;stroke-dasharray:none;stroke-opacity:1"
     id="path1165"
     inkscape:connector-curvature="0" />
  <path
     inkscape:connector-curvature="0"
     id="path1168"
     style="font-style:normal;font-size:medium;text-anchor:middle;fill:none;fill-opacity:1;stroke:#000000;stroke-width:0.25;stroke-linecap:butt;stroke-linejoin:bevel;stroke-dasharray:none;stroke-opacity:1"
     d="m 12.049141,560.77344 q 0.188965,-0.21094 0.474609,-0.34717 0.285645,-0.13623 0.738282,-0.13623 0.448242,0 0.821777,0.1626 0.373535,0.16259 0.650391,0.45703 0.307617,0.32959 0.457031,0.77783 0.145019,0.44385 0.145019,0.97559 0,0.54492 -0.131836,1.07226 -0.127441,0.52735 -0.28125,0.86572 h -0.918457 v -0.0659 q 0.246094,-0.37354 0.408692,-0.87891 0.162597,-0.50537 0.162597,-0.97559 0,-0.27685 -0.09229,-0.58886 -0.09229,-0.31201 -0.272461,-0.50537 -0.193359,-0.20215 -0.426269,-0.29883 -0.23291,-0.10108 -0.588867,-0.10108 -0.351563,0 -0.580079,0.11426 -0.23291,0.10986 -0.364746,0.30762 -0.13623,0.19775 -0.18457,0.479 -0.05273,0.28125 -0.05273,0.60645 v 0.39551 h -0.729493 v -0.30762 q 0,-0.66797 -0.276855,-1.06348 -0.28125,-0.3999 -0.817383,-0.3999 -0.2373045,0 -0.4130857,0.10107 -0.1801758,0.10108 -0.2944336,0.28125 -0.1142578,0.18897 -0.1582031,0.4043 -0.043945,0.21533 -0.043945,0.48779 0,0.41748 0.1494141,0.8877 0.1494141,0.47021 0.421875,0.88769 v 0.0439 h -0.918457 q -0.1538086,-0.31201 -0.28125,-0.83057 -0.131836,-0.52295 -0.131836,-1.01074 0,-0.479 0.087891,-0.84375 0.087891,-0.36475 0.28125,-0.65918 0.2109375,-0.31641 0.5097656,-0.479 0.2988281,-0.1626 0.6987307,-0.1626 0.544922,0 0.953613,0.38672 0.404297,0.38232 0.509766,0.90527 h 0.06152 q 0.03516,-0.21094 0.149414,-0.4834 0.109864,-0.27246 0.276856,-0.46142 z" />
  <path
     inkscape:connector-curvature="0"
     id="path1170"
     style="font-style:normal;font-size:medium;text-anchor:middle;fill:none;fill-opacity:1;stroke:#000000;stroke-width:0.25;stroke-linecap:butt;stroke-linejoin:bevel;stroke-dasharray:none;stroke-opacity:1"
     d="m 11.54377,557.03369 v 1.05029 h -1.252442 v -1.05029 z m 3.65625,0 v 1.05029 h -1.252442 v -1.05029 z" />
  <path
     inkscape:connector-curvature="0"
     id="path1172"
     style="font-style:normal;font-size:medium;text-anchor:middle;fill:none;fill-opacity:1;stroke:#000000;stroke-width:0.25;stroke-linecap:butt;stroke-linejoin:bevel;stroke-dasharray:none;stroke-opacity:1"
     d="m 9.6365433,550.354 5.5634767,2.96192 v 0.94043 l -5.7744142,-3.15088 v 3.72656 H 8.6565628 V 550.354 Z" />
  <path
     inkscape:connector-curvature="0"
     style="fill:#000000;stroke:#000000;stroke-width:0.25;stroke-linecap:butt;stroke-linejoin:bevel;stroke-dasharray:none;stroke-opacity:1"
     id="path918"
     d="m 40.488561,571.00004 -10.000002,-10 10.000001,7.5 9.999999,-7.5 z"
     class="arrow" />
  <path
     d="m 43.066686,563.97367 q 0,0.94239 -0.737305,1.56739 -0.732422,0.625 -1.845703,0.625 -1.18164,0 -1.884765,-0.61036 -0.698243,-0.61035 -0.698243,-1.5625 0,-0.60546 0.351563,-1.09375 0.351562,-0.49316 0.991211,-0.78125 v -0.0293 q -0.585938,-0.3125 -0.869141,-0.6836 -0.27832,-0.37109 -0.27832,-0.92773 0,-0.82031 0.673828,-1.36719 0.673828,-0.54687 1.713867,-0.54687 1.088867,0 1.738281,0.52246 0.649414,0.52246 0.649414,1.32812 0,0.49317 -0.307617,0.97168 -0.307617,0.47363 -0.90332,0.74219 v 0.0293 q 0.683594,0.29297 1.044922,0.72265 0.361328,0.42969 0.361328,1.09375 z m -1.157227,-3.5498 q 0,-0.52246 -0.405273,-0.83008 -0.400391,-0.3125 -1.025391,-0.3125 -0.615234,0 -1.010742,0.29297 -0.390625,0.29297 -0.390625,0.79101 0,0.35157 0.195313,0.61036 0.200195,0.2539 0.600586,0.4541 0.180664,0.0879 0.517578,0.22949 0.341797,0.1416 0.664062,0.23437 0.483399,-0.32226 0.668946,-0.66894 0.185546,-0.34668 0.185546,-0.80078 z m 0.151368,3.64258 q 0,-0.44922 -0.200196,-0.71778 -0.195312,-0.27343 -0.771484,-0.54687 -0.229492,-0.10742 -0.50293,-0.2002 -0.273437,-0.0928 -0.727539,-0.25879 -0.439453,0.23926 -0.708008,0.64942 -0.263672,0.41015 -0.263672,0.92773 0,0.65918 0.454102,1.08887 0.454102,0.42969 1.152344,0.42969 0.71289,0 1.137695,-0.36621 0.429688,-0.36622 0.429688,-1.00586 z"
     style="font-style:normal;font-size:medium;text-anchor:middle;fill:none;fill-opacity:1;stroke:#000000;stroke-width:0.25;stroke-linecap:butt;stroke-linejoin:bevel;stroke-dasharray:none;stroke-opacity:1"
     id="path1175"
     inkscape:connector-curvature="0" />
  <path
     inkscape:connector-curvature="0"
     id="path1178"
     style="font-style:normal;font-size:medium;text-anchor:middle;fill:none;fill-opacity:1;stroke:#000000;stroke-width:0.25;stroke-linecap:butt;stroke-linejoin:bevel;stroke-dasharray:none;stroke-opacity:1"
     d="m 46.368443,572.80005 h 3.541992 v 0.66797 H 48.54813 v 4.38574 h 1.362305 v 0.59766 q -0.276856,0 -0.593262,0.0439 -0.316406,0.0483 -0.479004,0.13623 -0.202148,0.10987 -0.316406,0.27686 -0.118652,0.17138 -0.136231,0.45703 H 47.70438 v -5.89746 h -1.335937 z" />
  <path
     inkscape:connector-curvature="0"
     id="path1181"
     style="font-style:normal;font-size:medium;text-anchor:middle;fill:none;fill-opacity:1;stroke:#000000;stroke-width:0.25;stroke-linecap:butt;stroke-linejoin:bevel;stroke-dasharray:none;stroke-opacity:1"
     d="m 40.246861,578.36353 2.961914,-5.56348 h 0.940429 l -3.150879,5.77441 h 3.726563 v 0.76905 h -4.478027 z" />
  <path
     inkscape:connector-curvature="0"
     id="path1183"
     style="font-style:normal;font-size:medium;text-anchor:middle;fill:none;fill-opacity:1;stroke:#000000;stroke-width:0.25;stroke-linecap:butt;stroke-linejoin:bevel;stroke-dasharray:none;stroke-opacity:1"
     d="m 37.100376,576.4563 h 1.050293 v 1.25244 h -1.050293 z m 0,-3.65625 h 1.050293 v 1.25244 h -1.050293 z" />
  <path
     inkscape:connector-curvature="0"
     id="path1185"
     style="font-style:normal;font-size:medium;text-anchor:middle;fill:none;fill-opacity:1;stroke:#000000;stroke-width:0.25;stroke-linecap:butt;stroke-linejoin:bevel;stroke-dasharray:none;stroke-opacity:1"
     d="m 30.389927,574.62378 q 0,-0.84815 0.663574,-1.41065 0.65918,-0.5625 1.661133,-0.5625 1.063477,0 1.696289,0.54932 0.628418,0.54932 0.628418,1.40625 0,0.54492 -0.316406,0.98438 -0.316407,0.44384 -0.89209,0.70312 v 0.0264 q 0.527344,0.28125 0.782226,0.61523 0.250489,0.33399 0.250489,0.83496 0,0.73828 -0.606446,1.23047 -0.606445,0.49219 -1.54248,0.49219 -0.979981,0 -1.564453,-0.47021 -0.584473,-0.47022 -0.584473,-1.19532 0,-0.44385 0.276856,-0.87451 0.276855,-0.42627 0.812988,-0.66797 v -0.0264 q -0.615234,-0.26367 -0.94043,-0.65039 -0.325195,-0.38671 -0.325195,-0.98437 z m 1.041504,3.19482 q 0,0.47022 0.364746,0.74707 0.360351,0.28125 0.922851,0.28125 0.553711,0 0.909668,-0.26367 0.351563,-0.26367 0.351563,-0.71191 0,-0.31641 -0.175781,-0.54932 -0.180176,-0.22851 -0.540528,-0.40869 -0.162597,-0.0791 -0.46582,-0.20654 -0.307617,-0.12744 -0.597656,-0.21094 -0.435059,0.29004 -0.602051,0.60205 -0.166992,0.31201 -0.166992,0.7207 z M 31.2952,574.54028 q 0,0.4043 0.180176,0.646 0.175781,0.24609 0.694336,0.49219 0.206543,0.0967 0.452637,0.18017 0.246094,0.0835 0.654785,0.23291 0.395508,-0.21533 0.637207,-0.58447 0.237305,-0.36914 0.237305,-0.83496 0,-0.59326 -0.408692,-0.97998 -0.408691,-0.38672 -1.037109,-0.38672 -0.641602,0 -1.023926,0.32959 -0.386719,0.32959 -0.386719,0.90527 z" />
  <path
     inkscape:connector-curvature="0"
     id="path1188"
     style="font-style:normal;font-size:medium;text-anchor:middle;fill:none;fill-opacity:1;stroke:#000000;stroke-width:0.25;stroke-linecap:butt;stroke-linejoin:bevel;stroke-dasharray:none;stroke-opacity:1"
     d="m 87.827123,59.094409 0.65496,-2.453134 9.18982,2.453572 -0.65496,2.453134 -0.67461,-0.180113 0.4358,-1.632277 -7.8406,-2.093347 -0.4358,1.632277 z" />
  <path
     inkscape:connector-curvature="0"
     id="path1190"
     style="font-style:normal;font-size:medium;text-anchor:middle;fill:none;fill-opacity:1;stroke:#000000;stroke-width:0.25;stroke-linecap:butt;stroke-linejoin:bevel;stroke-dasharray:none;stroke-opacity:1"
     d="m 91.923083,66.960137 q -0.91992,-0.24561 -1.61334,-0.658167 -0.69467,-0.407836 -1.10968,-0.973486 -0.42319,-0.572886 -0.54311,-1.297283 -0.11994,-0.724399 0.11307,-1.597148 0.0655,-0.245314 0.15174,-0.454764 0.0815,-0.210714 0.18348,-0.365431 l 0.90105,0.240569 -0.0126,0.04718 q -0.10725,0.117927 -0.24009,0.350314 -0.12811,0.23365 -0.20998,0.540292 -0.27835,1.042583 0.18692,1.798536 0.46873,0.761931 1.54274,1.149755 -0.14705,-0.509268 -0.15699,-0.926338 -0.01,-0.41707 0.11223,-0.874674 0.11588,-0.434017 0.29527,-0.76516 0.17813,-0.326426 0.5179,-0.614749 0.39861,-0.338314 0.89875,-0.432208 0.49886,-0.08918 1.11687,0.07582 1.0756,0.287173 1.56128,1.17492 0.48569,0.88775 0.21363,1.906745 -0.13603,0.509498 -0.41231,0.900688 -0.27155,0.392452 -0.67454,0.633575 -0.49861,0.296453 -1.17456,0.348462 -0.67122,0.05327 -1.64776,-0.207456 z m 0.45728,-0.898789 q 0.73123,0.195229 1.21498,0.162662 0.48375,-0.03257 0.79961,-0.231254 0.27149,-0.165046 0.42913,-0.395864 0.16241,-0.229547 0.24176,-0.526754 0.18138,-0.679329 -0.13741,-1.188964 -0.32004,-0.504915 -1.089,-0.71022 -0.44816,-0.119653 -0.76523,-0.06785 -0.31706,0.0518 -0.60996,0.297046 -0.20293,0.173244 -0.32284,0.414139 -0.11516,0.24216 -0.19829,0.553519 -0.0982,0.367971 -0.1,0.771824 -0.002,0.403856 0.0988,0.784469 0.0978,0.03118 0.19089,0.06111 0.0965,0.03592 0.2475,0.07622 z" />
  <path
     inkscape:connector-curvature="0"
     id="path1192"
     style="font-style:normal;font-size:medium;text-anchor:middle;fill:none;fill-opacity:1;stroke:#000000;stroke-width:0.25;stroke-linecap:butt;stroke-linejoin:bevel;stroke-dasharray:none;stroke-opacity:1"
     d="m 87.196383,68.877033 0.30103,-1.127498 1.34452,0.35897 -0.30103,1.127498 z" />
  <path
     inkscape:connector-curvature="0"
     id="path1194"
     style="font-style:normal;font-size:medium;text-anchor:middle;fill:none;fill-opacity:1;stroke:#000000;stroke-width:0.25;stroke-linecap:butt;stroke-linejoin:bevel;stroke-dasharray:none;stroke-opacity:1"
     d="m 84.159363,72.831962 0.65496,-2.453134 0.67461,0.180112 -0.4358,1.632278 7.8406,2.093347 0.4358,-1.632277 0.67461,0.180112 -0.65496,2.453134 z" />
  <path
     inkscape:connector-curvature="0"
     id="path1196"
     style="font-style:normal;font-size:medium;text-anchor:middle;fill:none;fill-opacity:1;stroke:#000000;stroke-width:0.25;stroke-linecap:butt;stroke-linejoin:bevel;stroke-dasharray:none;stroke-opacity:1"
     d="m 83.885073,81.279515 0.7406,-2.773929 0.71708,0.19145 -0.24561,0.919926 5.59031,1.492547 0.24561,-0.919926 0.71707,0.19145 -0.7406,2.773929 -0.71708,-0.19145 0.24561,-0.919925 -5.59031,-1.492547 -0.24561,0.919925 z" />
  <path
     inkscape:connector-curvature="0"
     id="path1198"
     style="font-style:normal;font-size:medium;text-anchor:middle;fill:none;fill-opacity:1;stroke:#000000;stroke-width:0.25;stroke-linecap:butt;stroke-linejoin:bevel;stroke-dasharray:none;stroke-opacity:1"
     d="m 85.267713,91.887757 q -0.91993,-0.24561 -1.61335,-0.658166 -0.69466,-0.407837 -1.10968,-0.973487 -0.42318,-0.572886 -0.54311,-1.297282 -0.11994,-0.7244 0.11307,-1.597149 0.0655,-0.245313 0.15175,-0.454764 0.0815,-0.210714 0.18347,-0.36543 l 0.90105,0.240569 -0.0126,0.04718 q -0.10725,0.117927 -0.24009,0.350314 -0.1281,0.233651 -0.20997,0.540293 -0.27836,1.042582 0.18691,1.798536 0.46874,0.76193 1.54274,1.149754 -0.14705,-0.509268 -0.15699,-0.926338 -0.01,-0.41707 0.11223,-0.874674 0.11588,-0.434015 0.29527,-0.765159 0.17813,-0.326426 0.5179,-0.614749 0.39861,-0.338315 0.89875,-0.432208 0.49887,-0.08918 1.11687,0.07582 1.0756,0.287173 1.56128,1.174921 0.48569,0.887751 0.21363,1.906744 -0.13603,0.509498 -0.41231,0.900689 -0.27155,0.392451 -0.67454,0.633574 -0.49861,0.296453 -1.17455,0.348462 -0.67123,0.05327 -1.64776,-0.207456 z m 0.45728,-0.898789 q 0.73122,0.195229 1.21497,0.162662 0.48376,-0.03257 0.79961,-0.231253 0.27149,-0.165047 0.42914,-0.395864 0.1624,-0.229547 0.24175,-0.526754 0.18138,-0.67933 -0.13741,-1.188965 -0.32004,-0.504915 -1.089,-0.710219 -0.44816,-0.119654 -0.76523,-0.06785 -0.31706,0.0518 -0.60996,0.297046 -0.20293,0.173244 -0.32284,0.414138 -0.11516,0.24216 -0.19829,0.55352 -0.0982,0.36797 -0.0999,0.771823 -0.002,0.403856 0.0988,0.784469 0.0978,0.03118 0.19088,0.06111 0.0965,0.03592 0.24751,0.07622 z" />
  <path
     style="fill:#e5e5e5;fill-opacity:1;stroke:#000000;stroke-width:0.25;stroke-linecap:butt;stroke-linejoin:bevel;stroke-dasharray:none;stroke-opacity:1"
     inkscape:connector-curvature="0"
     class="sticker"
     d="m 249.60539,76.049739 2.59634,0.737076 -1.37036,5.132674 -2.61821,-0.655146 z m -95.50201,-25.497899 2.73129,-9.621054 95.19846,25.41685 -2.42774,9.702103 z M 38.989076,19.817664 l 2.7313,-9.621054 37.875217,10.112232 -2.42775,9.702098 z m 38.178767,10.193276 2.73133,-9.621046 38.670127,10.324484 -2.42776,9.702095 z m -57.392657,61.772059 -9.621072,-2.73129 8.198222,-30.706314 9.70211,2.427757 z m 8.27926,-31.009847 -9.62107,-2.731314 9.46135,-35.437337 9.70212,2.427757 z m 220.158714,20.491181 9.62104,2.731297 -9.46133,35.43731 -9.7021,-2.42774 z M 37.596846,25.032258 l -2.59637,-0.737083 1.37036,-5.132674 2.61824,0.655153 z m 21.51431,72.609781 -1.62862,9.867731 -37.06763,-5.52115 -0.63972,-10.205621 z m 57.030384,-57.225566 2.73131,-9.621051 37.65829,10.054323 -2.42776,9.702095 z m 122.52923,76.588727 9.62105,2.7313 -10.16205,38.06156 -9.70208,-2.42776 z m -102.62407,1.17767 -2.73129,9.62107 -37.658287,-10.05431 2.42774,-9.70211 z m -37.961837,-10.13535 -2.73129,9.62106 -38.670167,-10.32446 2.42775,-9.702081 z m 130.342827,47.32278 -3.87993,9.21792 -92.08958,-37.07009 3.58852,-9.33526 z"
     id="path1112" />
  <path
     inkscape:connector-curvature="0"
     id="path1201"
     style="font-style:normal;font-size:medium;text-anchor:middle;fill:none;fill-opacity:1;stroke:#000000;stroke-width:0.25;stroke-linecap:butt;stroke-linejoin:bevel;stroke-dasharray:none;stroke-opacity:1"
     d="m 249.78811,77.248505 0.24669,-0.923974 0.17424,0.04652 -0.0949,0.355374 1.14408,0.305455 0.0949,-0.355375 0.15591,0.04163 q -0.0193,0.07222 -0.0298,0.15783 -0.009,0.08592 0.002,0.134447 0.0146,0.06039 0.0501,0.101807 0.0365,0.0429 0.10973,0.06737 l -0.0474,0.177688 -1.53842,-0.410741 -0.0931,0.348496 z" />
  <path
     inkscape:connector-curvature="0"
     id="path1203"
     style="font-style:normal;font-size:medium;text-anchor:middle;fill:none;fill-opacity:1;stroke:#000000;stroke-width:0.25;stroke-linecap:butt;stroke-linejoin:bevel;stroke-dasharray:none;stroke-opacity:1"
     d="m 250.81306,79.232877 -1.24501,-1.160133 0.0655,-0.245323 1.28688,1.224118 0.25955,-0.972121 0.20061,0.05356 -0.31188,1.16815 z" />
  <path
     inkscape:connector-curvature="0"
     id="path1205"
     style="font-style:normal;font-size:medium;text-anchor:middle;fill:none;fill-opacity:1;stroke:#000000;stroke-width:0.25;stroke-linecap:butt;stroke-linejoin:bevel;stroke-dasharray:none;stroke-opacity:1"
     d="m 250.09639,79.920845 0.0731,-0.273982 0.32672,0.08723 -0.0731,0.273982 z m -0.95378,-0.254649 0.0731,-0.273982 0.32672,0.08723 -0.0731,0.273982 z" />
  <path
     inkscape:connector-curvature="0"
     id="path1207"
     style="font-style:normal;font-size:medium;text-anchor:middle;fill:none;fill-opacity:1;stroke:#000000;stroke-width:0.25;stroke-linecap:butt;stroke-linejoin:bevel;stroke-dasharray:none;stroke-opacity:1"
     d="m 248.70463,81.30665 0.24669,-0.923973 0.17425,0.04652 -0.0949,0.355374 1.14407,0.305455 0.0949,-0.355375 0.15591,0.04163 q -0.0193,0.07222 -0.0298,0.15783 -0.009,0.08592 0.002,0.134446 0.0146,0.06039 0.0501,0.101808 0.0365,0.0429 0.10972,0.06737 l -0.0474,0.177688 -1.53842,-0.410741 -0.093,0.348496 z" />
  <path
     inkscape:connector-curvature="0"
     id="path1210"
     style="font-style:normal;font-size:medium;text-anchor:middle;fill:none;fill-opacity:1;stroke:#000000;stroke-width:0.25;stroke-linecap:butt;stroke-linejoin:bevel;stroke-dasharray:none;stroke-opacity:1"
     d="m 199.76697,60.880419 -4.27978,-1.14265 0.23692,-0.887374 q 0.54784,-0.263096 1.09566,-0.526194 0.55208,-0.261964 1.03934,-0.536686 1.02604,-0.572073 1.45106,-0.95438 0.42614,-0.386555 0.57011,-0.925773 0.13149,-0.492514 -0.12175,-0.855777 -0.24787,-0.366377 -0.82955,-0.521678 -0.38636,-0.103155 -0.87269,-0.08745 -0.48633,0.01571 -0.98998,0.181437 l -0.0424,-0.01132 0.23805,-0.89162 q 0.34112,-0.06812 0.875,-0.05749 0.53812,0.01177 1.00942,0.137597 0.97228,0.259588 1.39841,0.878239 0.42726,0.614405 0.21301,1.416863 -0.0964,0.360894 -0.27366,0.650139 -0.17193,0.286136 -0.42505,0.518754 -0.23587,0.21903 -0.52892,0.413698 -0.2888,0.195802 -0.68998,0.420727 -0.57333,0.324518 -1.16958,0.615624 -0.5951,0.286863 -1.11066,0.531286 l 3.40089,0.907999 z" />
  <path
     inkscape:connector-curvature="0"
     id="path1212"
     style="font-style:normal;font-size:medium;text-anchor:middle;fill:none;fill-opacity:1;stroke:#000000;stroke-width:0.25;stroke-linecap:butt;stroke-linejoin:bevel;stroke-dasharray:none;stroke-opacity:1"
     d="m 203.76709,58.164083 -1.01475,-0.270925 0.32308,-1.210056 1.01474,0.270925 z m -0.94314,3.532513 -1.01474,-0.270925 0.32307,-1.210056 1.01474,0.270925 z" />
  <path
     inkscape:connector-curvature="0"
     id="path1214"
     style="font-style:normal;font-size:medium;text-anchor:middle;fill:none;fill-opacity:1;stroke:#000000;stroke-width:0.25;stroke-linecap:butt;stroke-linejoin:bevel;stroke-dasharray:none;stroke-opacity:1"
     d="m 209.51718,60.222361 q 0.15505,0.23698 0.21298,0.548098 0.0579,0.311119 -0.0588,0.748437 -0.11562,0.433073 -0.36907,0.752026 -0.25345,0.318951 -0.60934,0.510485 -0.39777,0.212191 -0.8694,0.240921 -0.46622,0.02562 -0.97997,-0.111542 -0.52648,-0.140563 -1.00197,-0.403969 -0.47662,-0.259157 -0.76388,-0.495046 l 0.23692,-0.887374 0.0637,0.017 q 0.29741,0.334118 0.74374,0.621574 0.44632,0.287457 0.90063,0.408751 0.26748,0.07142 0.59274,0.06274 0.32526,-0.0087 0.55855,-0.132879 0.24519,-0.13467 0.39868,-0.334759 0.15773,-0.198957 0.24955,-0.542868 0.0907,-0.339664 0.0392,-0.58992 -0.0461,-0.253367 -0.20312,-0.431754 -0.15591,-0.18263 -0.41518,-0.301883 -0.25813,-0.123499 -0.57231,-0.207382 l -0.38213,-0.102023 0.18818,-0.704804 0.2972,0.07935 q 0.64536,0.172305 1.0989,0.0068 0.45892,-0.168577 0.59722,-0.686566 0.0612,-0.229273 0.009,-0.425177 -0.0512,-0.200149 -0.19578,-0.357018 -0.1531,-0.159137 -0.34981,-0.25714 -0.1967,-0.098 -0.45994,-0.168284 -0.40336,-0.10769 -0.8962,-0.08463 -0.49284,0.02306 -0.96648,0.178616 l -0.0425,-0.01135 0.23692,-0.887375 q 0.34114,-0.06812 0.87501,-0.05748 0.53926,0.0075 1.01054,0.133349 0.4628,0.123562 0.79253,0.302564 0.32973,0.179005 0.56432,0.441769 0.25129,0.285418 0.3313,0.616076 0.08,0.330655 -0.0232,0.717024 -0.14056,0.52648 -0.61962,0.821585 -0.47367,0.291994 -1.00613,0.258997 l -0.0159,0.05944 q 0.19474,0.08838 0.4285,0.269052 0.2349,0.176427 0.3744,0.386513 z" />
  <path
     style="fill:#000000;stroke:#000000;stroke-width:0.25;stroke-linecap:butt;stroke-linejoin:bevel;stroke-dasharray:none;stroke-opacity:1"
     id="path1124"
     d="m 58.07847,24.91432 7.082051,12.241101 -7.726932,-9.825707 -11.59622,4.666657 z"
     class="arrow"
     inkscape:connector-curvature="0" />
  <path
     d="m 51.348147,34.615916 1.015185,-3.802358 0.71707,0.191449 -0.390456,1.462445 4.708132,1.257015 0.390455,-1.462445 0.641589,0.171296 q -0.07935,0.297207 -0.122861,0.649467 -0.03879,0.35352 0.009,0.55326 0.06,0.248497 0.20652,0.419016 0.149978,0.176496 0.451581,0.277236 l -0.195227,0.731223 -6.330974,-1.690295 -0.382899,1.43414 z"
     style="font-style:normal;font-size:medium;text-anchor:middle;fill:none;fill-opacity:1;stroke:#000000;stroke-width:0.25;stroke-linecap:butt;stroke-linejoin:bevel;stroke-dasharray:none;stroke-opacity:1"
     id="path1217"
     inkscape:connector-curvature="0" />
  <path
     inkscape:connector-curvature="0"
     id="path1220"
     style="font-style:normal;font-size:medium;text-anchor:middle;fill:none;fill-opacity:1;stroke:#000000;stroke-width:0.25;stroke-linecap:butt;stroke-linejoin:bevel;stroke-dasharray:none;stroke-opacity:1"
     d="m 55.99111,22.493979 -4.279777,-1.142649 0.236918,-0.887374 q 0.547833,-0.263097 1.095665,-0.526194 0.552078,-0.261964 1.039335,-0.536685 1.026042,-0.572073 1.451055,-0.954382 0.426146,-0.386555 0.570111,-0.925773 0.131495,-0.492514 -0.121749,-0.855777 -0.247865,-0.366375 -0.829541,-0.521676 -0.38637,-0.103156 -0.8727,-0.08745 -0.48633,0.01571 -0.989973,0.181438 l -0.04245,-0.01133 0.238052,-0.89162 q 0.341128,-0.06812 0.875006,-0.05748 0.538125,0.01177 1.00941,0.137595 0.972291,0.25959 1.398419,0.87824 0.427261,0.614405 0.213014,1.416863 -0.09635,0.360894 -0.273647,0.650145 -0.171918,0.286138 -0.425054,0.518752 -0.235869,0.21903 -0.528912,0.413699 -0.288796,0.195803 -0.689983,0.420728 -0.573328,0.324517 -1.169575,0.615624 -0.595113,0.286861 -1.110669,0.531285 l 3.400894,0.907998 z" />
  <path
     inkscape:connector-curvature="0"
     id="path1222"
     style="font-style:normal;font-size:medium;text-anchor:middle;fill:none;fill-opacity:1;stroke:#000000;stroke-width:0.25;stroke-linecap:butt;stroke-linejoin:bevel;stroke-dasharray:none;stroke-opacity:1"
     d="m 59.991231,19.777643 -1.014748,-0.270925 0.32307,-1.210056 1.014749,0.270926 z m -0.943139,3.532514 -1.014748,-0.270926 0.32307,-1.210056 1.014749,0.270926 z" />
  <path
     inkscape:connector-curvature="0"
     id="path1224"
     style="font-style:normal;font-size:medium;text-anchor:middle;fill:none;fill-opacity:1;stroke:#000000;stroke-width:0.25;stroke-linecap:butt;stroke-linejoin:bevel;stroke-dasharray:none;stroke-opacity:1"
     d="m 65.123846,24.932311 -3.422123,-0.913666 0.172305,-0.645363 1.316201,0.35141 1.131313,-4.237318 -1.316201,-0.35141 0.154167,-0.57743 q 0.267486,0.07141 0.58452,0.110575 0.318168,0.03491 0.497935,-0.0081 0.223646,-0.054 0.377113,-0.185868 0.158846,-0.13498 0.249513,-0.406423 l 0.6581,0.175705 -1.521265,5.697877 1.290726,0.344608 z" />
  <path
     style="fill:#000000;stroke:#000000;stroke-width:0.25;stroke-linecap:butt;stroke-linejoin:bevel;stroke-dasharray:none;stroke-opacity:1"
     id="path1136"
     d="m 23.914835,76.278082 12.241102,-7.082049 -9.825708,7.726931 4.666655,11.59622 z"
     class="arrow"
     inkscape:connector-curvature="0" />
  <path
     d="m 28.094434,80.006824 1.269611,-4.755307 0.985971,0.263243 q 0.29233,0.608703 0.58466,1.217405 0.29107,0.61342 0.596316,1.154817 0.635637,1.140046 1.060425,1.612283 0.429505,0.473496 1.028636,0.633456 0.547238,0.146106 0.950864,-0.135276 0.407084,-0.275406 0.57964,-0.921713 0.114617,-0.429298 0.09717,-0.969666 -0.01745,-0.540367 -0.201598,-1.09997 l 0.01259,-0.04718 0.990689,0.264503 q 0.07569,0.37903 0.06387,0.97223 -0.01308,0.597917 -0.152883,1.121566 -0.288433,1.080323 -0.975823,1.553798 -0.682671,0.474735 -1.574291,0.236683 -0.400993,-0.10706 -0.722384,-0.304052 Q 32.369965,80.612629 32.111506,80.331362 31.868139,80.069286 31.65184,79.743683 31.434282,79.422797 31.184365,78.977034 30.823791,78.340003 30.500338,77.677507 30.181604,77.01627 29.910022,76.44343 l -1.008887,3.778771 z"
     style="font-style:normal;font-size:medium;text-anchor:middle;fill:none;fill-opacity:1;stroke:#000000;stroke-width:0.25;stroke-linecap:butt;stroke-linejoin:bevel;stroke-dasharray:none;stroke-opacity:1"
     id="path1227"
     inkscape:connector-curvature="0" />
  <path
     inkscape:connector-curvature="0"
     id="path1230"
     style="font-style:normal;font-size:medium;text-anchor:middle;fill:none;fill-opacity:1;stroke:#000000;stroke-width:0.25;stroke-linecap:butt;stroke-linejoin:bevel;stroke-dasharray:none;stroke-opacity:1"
     d="m 21.398115,78.726385 -0.913666,3.422122 -0.645363,-0.172304 0.35141,-1.3162 -4.237318,-1.131314 -0.35141,1.316201 -0.577431,-0.154168 q 0.07142,-0.267485 0.110571,-0.58452 0.03491,-0.318169 -0.0081,-0.497934 -0.054,-0.223648 -0.185869,-0.377115 -0.13498,-0.158846 -0.406423,-0.249512 l 0.175705,-0.6581 5.697877,1.521265 0.344608,-1.290727 z" />
  <path
     inkscape:connector-curvature="0"
     id="path1232"
     style="font-style:normal;font-size:medium;text-anchor:middle;fill:none;fill-opacity:1;stroke:#000000;stroke-width:0.25;stroke-linecap:butt;stroke-linejoin:bevel;stroke-dasharray:none;stroke-opacity:1"
     d="m 18.778134,74.365369 -0.270926,1.014748 -1.210056,-0.32307 0.270926,-1.014749 z m 3.532514,0.943139 -0.270926,1.014748 -1.210056,-0.32307 0.270925,-1.014749 z" />
  <path
     inkscape:connector-curvature="0"
     id="path1234"
     style="font-style:normal;font-size:medium;text-anchor:middle;fill:none;fill-opacity:1;stroke:#000000;stroke-width:0.25;stroke-linecap:butt;stroke-linejoin:bevel;stroke-dasharray:none;stroke-opacity:1"
     d="m 24.029156,68.87186 -1.14265,4.279777 -0.887375,-0.236918 q -0.263096,-0.547833 -0.526193,-1.095665 -0.261964,-0.552078 -0.536684,-1.039336 -0.572074,-1.026042 -0.954383,-1.451054 -0.386554,-0.426146 -0.925773,-0.570111 -0.492513,-0.131495 -0.855777,0.121749 -0.366375,0.247865 -0.521676,0.829541 -0.103156,0.386369 -0.08745,0.8727 0.01571,0.48633 0.181438,0.989973 l -0.01134,0.04246 -0.891621,-0.238052 q -0.06812,-0.341128 -0.05748,-0.875007 0.01177,-0.538126 0.137596,-1.009411 0.25959,-0.972289 0.87824,-1.398417 0.614404,-0.427262 1.416863,-0.213015 0.360893,0.09635 0.650144,0.273648 0.28614,0.171908 0.518752,0.425054 0.219031,0.235868 0.4137,0.528911 0.195802,0.288797 0.420728,0.689984 0.324516,0.573328 0.615624,1.169574 0.286861,0.595114 0.531284,1.11067 l 0.907999,-3.400894 z" />
  <path
     inkscape:connector-curvature="0"
     id="path1237"
     style="font-style:normal;font-size:medium;text-anchor:middle;fill:none;fill-opacity:1;stroke:#000000;stroke-width:0.25;stroke-linecap:butt;stroke-linejoin:bevel;stroke-dasharray:none;stroke-opacity:1"
     d="m 246.69775,93.918173 0.91366,-3.422123 0.64537,0.172305 -0.35141,1.316201 4.23731,1.131313 0.35141,-1.316201 0.57743,0.154165 q -0.0714,0.267486 -0.11062,0.584509 -0.0349,0.318157 0.008,0.497934 0.054,0.223646 0.18587,0.377115 0.13497,0.158845 0.40642,0.249512 l -0.1757,0.658101 -5.69788,-1.521265 -0.34461,1.290726 z" />
  <path
     inkscape:connector-curvature="0"
     id="path1239"
     style="font-style:normal;font-size:medium;text-anchor:middle;fill:none;fill-opacity:1;stroke:#000000;stroke-width:0.25;stroke-linecap:butt;stroke-linejoin:bevel;stroke-dasharray:none;stroke-opacity:1"
     d="m 245.21956,99.454709 0.91366,-3.422122 0.64537,0.172304 -0.35141,1.3162 4.23732,1.131313 0.35141,-1.3162 0.57742,0.154165 q -0.0714,0.267486 -0.11062,0.584508 -0.0349,0.318158 0.008,0.497934 0.054,0.223647 0.18587,0.377116 0.13498,0.158845 0.40642,0.249512 l -0.1757,0.6581 -5.69788,-1.521265 -0.34461,1.290727 z" />
  <path
     inkscape:connector-curvature="0"
     id="path1241"
     style="font-style:normal;font-size:medium;text-anchor:middle;fill:none;fill-opacity:1;stroke:#000000;stroke-width:0.25;stroke-linecap:butt;stroke-linejoin:bevel;stroke-dasharray:none;stroke-opacity:1"
     d="m 247.83954,103.81573 0.27093,-1.01475 1.21005,0.32307 -0.27093,1.01475 z m -3.53251,-0.94314 0.27092,-1.01475 1.21006,0.32307 -0.27093,1.01475 z" />
  <path
     inkscape:connector-curvature="0"
     id="path1243"
     style="font-style:normal;font-size:medium;text-anchor:middle;fill:none;fill-opacity:1;stroke:#000000;stroke-width:0.25;stroke-linecap:butt;stroke-linejoin:bevel;stroke-dasharray:none;stroke-opacity:1"
     d="m 245.78126,109.56581 q -0.23698,0.15505 -0.5481,0.21299 -0.31112,0.0579 -0.74843,-0.0588 -0.43308,-0.11563 -0.75203,-0.36907 -0.31896,-0.25345 -0.51049,-0.60934 -0.21219,-0.39779 -0.24092,-0.8694 -0.0256,-0.46623 0.11155,-0.97998 0.14056,-0.52648 0.40396,-1.00197 0.25916,-0.47662 0.49505,-0.76387 l 0.88737,0.23692 -0.017,0.0637 q -0.33412,0.29742 -0.62158,0.74374 -0.28745,0.44633 -0.40875,0.90063 -0.0714,0.26749 -0.0627,0.59275 0.009,0.32526 0.13288,0.55855 0.13467,0.24518 0.33476,0.39867 0.19895,0.15773 0.54286,0.24955 0.33967,0.0907 0.58992,0.0392 0.25337,-0.0461 0.43175,-0.20312 0.18264,-0.15591 0.30189,-0.41518 0.12346,-0.25813 0.20735,-0.57233 l 0.10202,-0.38212 0.7048,0.18817 -0.0793,0.29721 q -0.1723,0.64536 -0.007,1.0989 0.16857,0.45892 0.68656,0.59722 0.22928,0.0612 0.42518,0.009 0.20015,-0.0512 0.35702,-0.19578 0.15913,-0.1531 0.25714,-0.34981 0.098,-0.19672 0.16824,-0.45996 0.10769,-0.40335 0.0846,-0.89619 -0.0231,-0.49285 -0.17862,-0.96648 l 0.0113,-0.0425 0.88738,0.23692 q 0.0681,0.34112 0.0575,0.875 -0.008,0.53926 -0.13335,1.01055 -0.12356,0.46279 -0.30257,0.79252 -0.17902,0.32973 -0.44177,0.56432 -0.28541,0.25129 -0.61607,0.3313 -0.33066,0.08 -0.71703,-0.0232 -0.52648,-0.14056 -0.82159,-0.61961 -0.29199,-0.47368 -0.25899,-1.00614 l -0.0594,-0.0159 q -0.0884,0.19472 -0.26906,0.4285 -0.17642,0.2349 -0.3865,0.37439 z" />
  <path
     style="fill:#000000;stroke:#000000;stroke-width:0.25;stroke-linecap:butt;stroke-linejoin:bevel;stroke-dasharray:none;stroke-opacity:1"
     id="path1152"
     d="m 38.292975,22.42497 12.241102,-7.082049 -9.825708,7.726931 4.666655,11.59622 z"
     class="arrow"
     inkscape:connector-curvature="0" />
  <path
     d="m 46.020068,26.438798 q -0.263313,0.172283 -0.609,0.236658 -0.345687,0.06437 -0.831597,-0.06536 -0.481192,-0.128472 -0.835582,-0.410083 -0.35439,-0.28161 -0.567208,-0.677038 -0.235765,-0.441985 -0.26769,-0.966001 -0.02847,-0.518038 0.123937,-1.088864 0.156183,-0.584978 0.448854,-1.1133 0.287953,-0.529582 0.550052,-0.84875 l 0.985971,0.263242 -0.01889,0.07076 q -0.371245,0.33046 -0.690641,0.826377 -0.319396,0.495917 -0.454166,1.000697 -0.07935,0.297207 -0.06971,0.658604 0.0096,0.361398 0.147643,0.620611 0.149634,0.272428 0.371955,0.44297 0.221062,0.175259 0.603185,0.277281 0.377405,0.100763 0.655466,0.0436 0.28152,-0.05118 0.479726,-0.225688 0.202923,-0.173245 0.335427,-0.461315 0.137221,-0.286809 0.230427,-0.635909 l 0.113358,-0.424581 0.783116,0.209082 -0.08817,0.33023 q -0.191449,0.71707 -0.0076,1.221002 0.187306,0.509909 0.762849,0.663572 0.254749,0.06801 0.472421,0.0099 0.222389,-0.05686 0.396687,-0.217536 0.176817,-0.170107 0.285709,-0.388673 0.108893,-0.218565 0.186984,-0.511054 0.119656,-0.448169 0.09403,-0.995773 -0.02563,-0.547603 -0.198461,-1.073863 l 0.0126,-0.04718 0.985971,0.263243 q 0.07569,0.379031 0.06387,0.97223 -0.0084,0.599176 -0.148165,1.122826 -0.13729,0.514215 -0.336182,0.880582 -0.198892,0.366368 -0.490854,0.627025 -0.31713,0.279207 -0.684527,0.368109 -0.367398,0.0889 -0.796696,-0.02572 -0.584978,-0.156182 -0.912873,-0.688465 -0.324437,-0.526305 -0.287774,-1.117924 l -0.06605,-0.01763 q -0.0982,0.216367 -0.298946,0.476108 -0.196031,0.261001 -0.429459,0.415994 z"
     style="font-style:normal;font-size:medium;text-anchor:middle;fill:none;fill-opacity:1;stroke:#000000;stroke-width:0.25;stroke-linecap:butt;stroke-linejoin:bevel;stroke-dasharray:none;stroke-opacity:1"
     id="path1246"
     inkscape:connector-curvature="0" />
  <path
     inkscape:connector-curvature="0"
     id="path1249"
     style="font-style:normal;font-size:medium;text-anchor:middle;fill:none;fill-opacity:1;stroke:#000000;stroke-width:0.25;stroke-linecap:butt;stroke-linejoin:bevel;stroke-dasharray:none;stroke-opacity:1"
     d="m 37.61372,23.086074 -0.24669,0.923974 -0.174248,-0.04652 0.09488,-0.355375 -1.144076,-0.305455 -0.09488,0.355375 -0.155906,-0.04162 q 0.01928,-0.07222 0.02985,-0.157822 0.0094,-0.08591 -0.0022,-0.134442 -0.01458,-0.06038 -0.05018,-0.101821 -0.03644,-0.04289 -0.109735,-0.06737 l 0.04744,-0.177687 1.538427,0.410742 0.09304,-0.348496 z" />
  <path
     inkscape:connector-curvature="0"
     id="path1251"
     style="font-style:normal;font-size:medium;text-anchor:middle;fill:none;fill-opacity:1;stroke:#000000;stroke-width:0.25;stroke-linecap:butt;stroke-linejoin:bevel;stroke-dasharray:none;stroke-opacity:1"
     d="m 36.906325,21.9086 -0.07315,0.273982 -0.326715,-0.08723 0.07315,-0.273982 z m 0.953779,0.254647 -0.07315,0.273983 -0.326716,-0.08723 0.07315,-0.273982 z" />
  <path
     inkscape:connector-curvature="0"
     id="path1253"
     style="font-style:normal;font-size:medium;text-anchor:middle;fill:none;fill-opacity:1;stroke:#000000;stroke-width:0.25;stroke-linecap:butt;stroke-linejoin:bevel;stroke-dasharray:none;stroke-opacity:1"
     d="m 37.462059,20.356076 q 0.06398,-0.04186 0.147988,-0.05751 0.084,-0.01564 0.202078,0.01588 0.116929,0.03122 0.203047,0.09965 0.08612,0.06843 0.137831,0.16452 0.05729,0.107403 0.06505,0.234738 0.0069,0.125885 -0.03011,0.264595 -0.03795,0.14215 -0.109076,0.270531 -0.06997,0.128688 -0.133665,0.206246 l -0.239592,-0.06397 0.0046,-0.0172 q 0.09022,-0.0803 0.167826,-0.200809 0.07761,-0.120509 0.110362,-0.24317 0.01928,-0.07222 0.01694,-0.160042 -0.0023,-0.08782 -0.03587,-0.150807 -0.03636,-0.0662 -0.09038,-0.107642 -0.05372,-0.04259 -0.146574,-0.06738 -0.09171,-0.02448 -0.159278,-0.01059 -0.06841,0.01244 -0.116572,0.05484 -0.04931,0.0421 -0.0815,0.1121 -0.03335,0.06969 -0.056,0.154526 l -0.02755,0.103173 -0.190297,-0.05081 0.02143,-0.08025 q 0.04652,-0.174248 0.0018,-0.296703 -0.04552,-0.123909 -0.185372,-0.161248 -0.0619,-0.01653 -0.114799,-0.0024 -0.05404,0.01382 -0.0964,0.05286 -0.04297,0.04134 -0.06943,0.09445 -0.02647,0.05311 -0.04544,0.124185 -0.02908,0.108905 -0.02285,0.241972 0.0062,0.133067 0.04823,0.260949 l -0.0031,0.01146 -0.23959,-0.06397 q -0.01839,-0.09211 -0.01552,-0.236253 0.002,-0.145601 0.036,-0.272848 0.03336,-0.124954 0.08169,-0.213982 0.04833,-0.08903 0.11928,-0.152366 0.07706,-0.06785 0.166339,-0.08945 0.08927,-0.0216 0.193598,0.0063 0.142149,0.03795 0.221828,0.167297 0.07884,0.127892 0.06993,0.271655 l 0.01605,0.0043 q 0.02387,-0.05258 0.07264,-0.115695 0.04763,-0.06342 0.104357,-0.101086 z" />
  <path
     style="fill:#000000;stroke:#000000;stroke-width:0.25;stroke-linecap:butt;stroke-linejoin:bevel;stroke-dasharray:none;stroke-opacity:1"
     id="path1164"
     d="M 39.443179,94.712526 31.025523,83.348413 39.811486,92.239805 50.807292,86.29487 Z"
     class="arrow"
     inkscape:connector-curvature="0" />
  <path
     d="m 38.1871,87.906039 0.278357,-1.042582 -1.97666,-0.527745 0.24183,-0.905773 1.97666,0.527745 0.898048,-3.363625 1.08504,0.289693 3.054632,4.459374 -0.231754,0.868032 -4.292986,-1.146176 -0.278357,1.042583 z m 1.274998,-1.746829 3.170205,0.846407 -2.443454,-3.568443 z"
     style="font-style:normal;font-size:medium;text-anchor:middle;fill:none;fill-opacity:1;stroke:#000000;stroke-width:0.25;stroke-linecap:butt;stroke-linejoin:bevel;stroke-dasharray:none;stroke-opacity:1"
     id="path1256"
     inkscape:connector-curvature="0" />
  <path
     inkscape:connector-curvature="0"
     id="path1259"
     style="font-style:normal;font-size:medium;text-anchor:middle;fill:none;fill-opacity:1;stroke:#000000;stroke-width:0.25;stroke-linecap:butt;stroke-linejoin:bevel;stroke-dasharray:none;stroke-opacity:1"
     d="m 44.99375,97.359064 3.503343,0.521815 -0.09841,0.660681 -1.34744,-0.200698 -0.646119,4.337888 1.34744,0.2007 -0.08805,0.59113 q -0.273834,-0.0408 -0.593263,-0.0439 -0.320075,10e-4 -0.493847,0.0642 -0.216128,0.0789 -0.353741,0.22722 -0.142607,0.15203 -0.202075,0.43197 l -0.67372,-0.10035 0.868829,-5.833107 -1.32136,-0.196814 z" />
  <path
     inkscape:connector-curvature="0"
     id="path1261"
     style="font-style:normal;font-size:medium;text-anchor:middle;fill:none;fill-opacity:1;stroke:#000000;stroke-width:0.25;stroke-linecap:butt;stroke-linejoin:bevel;stroke-dasharray:none;stroke-opacity:1"
     d="m 38.548024,98.544962 q 0.146963,-0.986675 0.892178,-1.51547 0.74022,-0.525096 1.683428,-0.384607 0.478124,0.07122 0.847304,0.277266 0.36918,0.206051 0.625718,0.541943 0.32007,0.416444 0.435664,1.042354 0.111247,0.625263 -0.0137,1.464152 -0.128188,0.86062 -0.409799,1.49846 -0.285957,0.63719 -0.767231,1.09422 -0.455657,0.43419 -1.100619,0.61804 -0.645609,0.18819 -1.449726,0.0684 -0.256448,-0.0382 -0.427075,-0.0858 -0.170627,-0.0476 -0.34042,-0.13068 l 0.123656,-0.83019 0.04347,0.006 q 0.111992,0.0833 0.351332,0.17674 0.234344,0.0971 0.490793,0.1353 0.934515,0.13919 1.578278,-0.36473 0.643116,-0.49957 0.882652,-1.48134 -0.398131,0.16729 -0.767036,0.22786 -0.373901,0.0643 -0.838985,-0.005 -0.412924,-0.0615 -0.714226,-0.18636 -0.306293,-0.12115 -0.602321,-0.40072 -0.343006,-0.322118 -0.474047,-0.754836 -0.135386,-0.433366 -0.04928,-1.011461 z m 0.887536,0.09665 q -0.06021,0.404233 0.022,0.687501 0.07786,0.282623 0.322567,0.519005 0.179225,0.168872 0.416159,0.248592 0.236936,0.0797 0.502077,0.11921 0.369459,0.055 0.699708,0.0154 0.330248,-0.0397 0.692126,-0.17238 0.02295,-0.09433 0.04087,-0.184957 0.0173,-0.08628 0.03737,-0.221027 0.102291,-0.68676 0.02276,-1.107363 -0.08452,-0.416904 -0.297964,-0.684175 -0.171456,-0.22103 -0.38823,-0.346621 -0.221767,-0.121891 -0.495602,-0.162679 -0.630254,-0.09387 -1.047993,0.234889 -0.418385,0.33311 -0.525856,1.054643 z" />
  <path
     inkscape:connector-curvature="0"
     id="path1263"
     style="font-style:normal;font-size:medium;text-anchor:middle;fill:none;fill-opacity:1;stroke:#000000;stroke-width:0.25;stroke-linecap:butt;stroke-linejoin:bevel;stroke-dasharray:none;stroke-opacity:1"
     d="m 35.288163,99.610023 1.038833,0.154732 -0.184513,1.238775 -1.038833,-0.15473 z m 0.538648,-3.616355 1.038833,0.154732 -0.184513,1.238775 -1.038832,-0.154732 z" />
  <path
     inkscape:connector-curvature="0"
     id="path1265"
     style="font-style:normal;font-size:medium;text-anchor:middle;fill:none;fill-opacity:1;stroke:#000000;stroke-width:0.25;stroke-linecap:butt;stroke-linejoin:bevel;stroke-dasharray:none;stroke-opacity:1"
     d="m 28.818346,96.811394 0.960594,0.143079 0.271266,-1.821218 0.834544,0.124303 -0.271267,1.821218 3.099112,0.461606 -0.148905,0.999713 -3.677712,3.184345 -0.799771,-0.11913 0.589147,-3.955385 -0.960594,-0.143078 z m 1.691551,0.962835 -0.435062,2.920901 2.943039,-2.547343 z" />
  <path
     inkscape:connector-curvature="0"
     id="path1268"
     style="font-style:normal;font-size:medium;text-anchor:middle;fill:none;fill-opacity:1;stroke:#000000;stroke-width:0.25;stroke-linecap:butt;stroke-linejoin:bevel;stroke-dasharray:none;stroke-opacity:1"
     d="m 237.22673,129.39173 0.91367,-3.42212 0.64536,0.17231 -0.35141,1.3162 4.23732,1.13131 0.35141,-1.3162 0.57742,0.15416 q -0.0714,0.26749 -0.11062,0.58451 -0.035,0.31816 0.008,0.49794 0.054,0.22364 0.18587,0.37711 0.13498,0.15885 0.40642,0.24951 l -0.1757,0.6581 -5.69788,-1.52126 -0.3446,1.29073 z" />
  <path
     inkscape:connector-curvature="0"
     id="path1270"
     style="font-style:normal;font-size:medium;text-anchor:middle;fill:none;fill-opacity:1;stroke:#000000;stroke-width:0.25;stroke-linecap:butt;stroke-linejoin:bevel;stroke-dasharray:none;stroke-opacity:1"
     d="m 235.74854,134.92827 0.91367,-3.42212 0.64536,0.1723 -0.35141,1.3162 4.23732,1.13132 0.35141,-1.31621 0.57742,0.15417 q -0.0714,0.26749 -0.11062,0.58451 -0.0349,0.31816 0.008,0.49793 0.054,0.22365 0.18587,0.37712 0.13498,0.15884 0.40643,0.24951 l -0.17571,0.6581 -5.69788,-1.52126 -0.3446,1.29072 z" />
  <path
     inkscape:connector-curvature="0"
     id="path1272"
     style="font-style:normal;font-size:medium;text-anchor:middle;fill:none;fill-opacity:1;stroke:#000000;stroke-width:0.25;stroke-linecap:butt;stroke-linejoin:bevel;stroke-dasharray:none;stroke-opacity:1"
     d="m 238.36852,139.28929 0.27093,-1.01475 1.21005,0.32307 -0.27092,1.01475 z m -3.53251,-0.94314 0.27092,-1.01475 1.21006,0.32307 -0.27093,1.01475 z" />
  <path
     inkscape:connector-curvature="0"
     id="path1274"
     style="font-style:normal;font-size:medium;text-anchor:middle;fill:none;fill-opacity:1;stroke:#000000;stroke-width:0.25;stroke-linecap:butt;stroke-linejoin:bevel;stroke-dasharray:none;stroke-opacity:1"
     d="m 235.14329,145.42372 q -0.9638,-0.25732 -1.40517,-1.05743 -0.43824,-0.79473 -0.19225,-1.71607 0.12469,-0.46704 0.37107,-0.81062 0.24638,-0.34358 0.60907,-0.56059 0.44988,-0.27105 1.08484,-0.3153 0.63382,-0.04 1.45326,0.17877 0.84067,0.22445 1.44267,0.57621 0.60086,0.35601 1.00069,0.88576 0.38003,0.50173 0.48994,1.16331 0.11417,0.66272 -0.0956,1.4482 -0.0669,0.2505 -0.13348,0.41465 -0.0666,0.16416 -0.16824,0.32351 l -0.81095,-0.21651 0.0113,-0.0425 q 0.0954,-0.10188 0.21524,-0.32915 0.1229,-0.2219 0.18978,-0.4724 0.24372,-0.91285 -0.18436,-1.60935 -0.42385,-0.69536 -1.37232,-1.04411 0.12131,0.41446 0.13987,0.78784 0.0217,0.37876 -0.0996,0.83306 -0.10769,0.40336 -0.26573,0.68865 -0.15492,0.29068 -0.46611,0.55328 -0.35875,0.30448 -0.80349,0.38587 -0.44587,0.0856 -1.01056,-0.0651 z m 0.19611,-0.87098 q 0.39486,0.10542 0.68559,0.0557 0.2896,-0.0455 0.55208,-0.26196 0.18801,-0.15904 0.29395,-0.38546 0.10589,-0.22644 0.17504,-0.48544 0.0964,-0.36089 0.0942,-0.69351 -0.002,-0.33262 -0.0932,-0.70715 -0.0912,-0.0334 -0.17916,-0.0615 -0.0838,-0.0269 -0.2154,-0.0621 -0.67085,-0.17911 -1.09774,-0.14754 -0.42377,0.037 -0.71341,0.21889 -0.23897,0.14543 -0.3882,0.34666 -0.14614,0.2066 -0.21756,0.47408 -0.16437,0.61564 0.11517,1.0678 0.2838,0.45329 0.9886,0.64146 z" />
  <path
     inkscape:connector-curvature="0"
     id="path1276"
     style="font-style:normal;font-size:medium;text-anchor:middle;fill:none;fill-opacity:1;stroke:#000000;stroke-width:0.25;stroke-linecap:butt;stroke-linejoin:bevel;stroke-dasharray:none;stroke-opacity:1"
     d="m 232.40674,147.44492 0.27093,-1.01475 1.21005,0.32307 -0.27092,1.01475 z" />
  <path
     style="fill:#000000;stroke:#000000;stroke-width:0.25;stroke-linecap:butt;stroke-linejoin:bevel;stroke-dasharray:none;stroke-opacity:1"
     id="path1180"
     d="m 182.23723,136.77659 -5.54236,-13.01085 6.47592,10.6917 12.07729,-3.22321 z"
     class="arrow"
     inkscape:connector-curvature="0" />
  <path
     d="m 183.32875,130.37396 q -0.49063,-0.13099 -0.89094,-0.42992 -0.4003,-0.29892 -0.62381,-0.69215 -0.23955,-0.42783 -0.29286,-0.94745 -0.0499,-0.51364 0.11514,-1.13164 0.15366,-0.57555 0.41865,-1.07588 0.26027,-0.5016 0.52834,-0.82423 l 0.99541,0.26576 -0.0176,0.0661 q -0.34859,0.32134 -0.66169,0.79367 -0.30838,0.47359 -0.44189,0.97365 -0.0894,0.33495 -0.0782,0.6715 0.01,0.34127 0.18035,0.64956 0.14743,0.26173 0.40278,0.44109 0.25408,0.18408 0.62677,0.28358 0.36325,0.097 0.64729,0.0364 0.28278,-0.0559 0.49294,-0.23733 0.24476,-0.19745 0.40999,-0.53237 0.16869,-0.32895 0.28457,-0.76297 0.11084,-0.41514 0.15751,-0.8171 0.0454,-0.39723 0.0631,-0.69068 l 3.61837,0.96606 -1.12854,4.22694 -0.82557,-0.22042 0.88545,-3.31645 -1.86816,-0.49878 q -0.0353,0.2079 -0.0825,0.42271 -0.0472,0.21481 -0.0888,0.37049 -0.15241,0.57082 -0.36609,0.97367 -0.20897,0.40411 -0.55001,0.69715 -0.36023,0.30813 -0.82608,0.40612 -0.46585,0.098 -1.08385,-0.067 z"
     style="font-style:normal;font-size:medium;text-anchor:middle;fill:none;fill-opacity:1;stroke:#000000;stroke-width:0.25;stroke-linecap:butt;stroke-linejoin:bevel;stroke-dasharray:none;stroke-opacity:1"
     id="path1279"
     inkscape:connector-curvature="0" />
  <path
     inkscape:connector-curvature="0"
     id="path1282"
     style="font-style:normal;font-size:medium;text-anchor:middle;fill:none;fill-opacity:1;stroke:#000000;stroke-width:0.25;stroke-linecap:butt;stroke-linejoin:bevel;stroke-dasharray:none;stroke-opacity:1"
     d="m 187.0196,140.64207 3.28577,1.32266 -0.24944,0.61965 -1.26375,-0.50871 -1.63774,4.06848 1.26375,0.50871 -0.22318,0.55443 q -0.25683,-0.10339 -0.56676,-0.18077 -0.31157,-0.0733 -0.49523,-0.0525 -0.22854,0.0264 -0.39689,0.13868 -0.17407,0.11468 -0.29704,0.3731 l -0.63188,-0.25436 2.20225,-5.47084 -1.2393,-0.49888 z" />
  <path
     inkscape:connector-curvature="0"
     id="path1284"
     style="font-style:normal;font-size:medium;text-anchor:middle;fill:none;fill-opacity:1;stroke:#000000;stroke-width:0.25;stroke-linecap:butt;stroke-linejoin:bevel;stroke-dasharray:none;stroke-opacity:1"
     d="m 180.47485,140.2956 q 0.37251,-0.9254 1.22031,-1.26628 0.84209,-0.33844 1.72672,0.0177 0.44843,0.18051 0.75954,0.46681 0.3111,0.2863 0.48244,0.67266 0.21438,0.47949 0.18116,1.11512 -0.0373,0.63398 -0.35401,1.42077 -0.32492,0.80718 -0.74722,1.36198 -0.42637,0.55316 -1.00078,0.88566 -0.54418,0.31625 -1.21422,0.34498 -0.67168,0.0328 -1.42585,-0.27079 -0.24052,-0.0968 -0.39538,-0.18284 -0.15486,-0.086 -0.30067,-0.2063 l 0.31343,-0.77864 0.0407,0.0164 q 0.0895,0.10709 0.30056,0.25363 0.20532,0.14897 0.44584,0.24578 0.87648,0.35283 1.61983,0.0125 0.7417,-0.33622 1.2031,-1.23531 -0.42613,0.0701 -0.799,0.0431 -0.37859,-0.0245 -0.81479,-0.20008 -0.38728,-0.15589 -0.65126,-0.34743 -0.2697,-0.1891 -0.49255,-0.52987 -0.25864,-0.39309 -0.28539,-0.84442 -0.0308,-0.45298 0.18741,-0.99517 z m 0.84069,0.30051 q -0.15262,0.37913 -0.13857,0.67375 0.01,0.29298 0.19295,0.57982 0.13501,0.20594 0.34689,0.3386 0.21188,0.13267 0.46055,0.23277 0.34652,0.13949 0.67694,0.17775 0.33041,0.0383 0.71323,-0.007 0.0445,-0.0863 0.0828,-0.17036 0.0365,-0.08 0.0874,-0.20642 0.25928,-0.64411 0.27981,-1.07167 0.0148,-0.42513 -0.1306,-0.73473 -0.11532,-0.25486 -0.29692,-0.42744 -0.18731,-0.17014 -0.44414,-0.27353 -0.59111,-0.23795 -1.07388,-0.0154 -0.48442,0.22661 -0.75683,0.90334 z" />
  <path
     inkscape:connector-curvature="0"
     id="path1286"
     style="font-style:normal;font-size:medium;text-anchor:middle;fill:none;fill-opacity:1;stroke:#000000;stroke-width:0.25;stroke-linecap:butt;stroke-linejoin:bevel;stroke-dasharray:none;stroke-opacity:1"
     d="m 177.05664,140.57291 0.97432,0.3922 -0.46769,1.16184 -0.97432,-0.3922 z m 1.36534,-3.39176 0.97431,0.3922 -0.46769,1.16184 -0.97432,-0.3922 z" />
  <path
     inkscape:connector-curvature="0"
     id="path1288"
     style="font-style:normal;font-size:medium;text-anchor:middle;fill:none;fill-opacity:1;stroke:#000000;stroke-width:0.25;stroke-linecap:butt;stroke-linejoin:bevel;stroke-dasharray:none;stroke-opacity:1"
     d="m 171.51452,136.6413 q 0.17066,-0.42397 0.48147,-0.74889 0.31081,-0.32492 0.68653,-0.4816 0.4084,-0.16721 0.87842,-0.15802 0.4643,0.0116 0.99834,0.2266 0.49735,0.20021 0.91535,0.49164 0.41963,0.28735 0.67853,0.56211 l -0.34626,0.86017 -0.0571,-0.023 q -0.24895,-0.34655 -0.63666,-0.6779 -0.38936,-0.32727 -0.82148,-0.50122 -0.28944,-0.11651 -0.59132,-0.14329 -0.30596,-0.0284 -0.59999,0.0901 -0.24994,0.10309 -0.43809,0.31158 -0.19222,0.20686 -0.32186,0.52891 -0.12636,0.3139 -0.10326,0.57427 0.019,0.25873 0.1581,0.46631 0.14962,0.24024 0.43076,0.42447 0.27542,0.18666 0.65047,0.33764 0.35875,0.14441 0.71272,0.23005 0.34989,0.084 0.61011,0.13191 l -1.25867,3.12678 -3.65266,-1.47036 0.28718,-0.71341 2.86588,1.15364 0.64984,-1.61435 q -0.18186,-0.0543 -0.36859,-0.11995 -0.18674,-0.0657 -0.32127,-0.11984 -0.49327,-0.19856 -0.82979,-0.4335 -0.33815,-0.23086 -0.56264,-0.56756 -0.23588,-0.3555 -0.27247,-0.78237 -0.0366,-0.42687 0.17837,-0.96091 z" />
</svg>
