<?xml version="1.0" encoding="UTF-8" standalone="no"?>
<svg
   xmlns:dc="http://purl.org/dc/elements/1.1/"
   xmlns:cc="http://creativecommons.org/ns#"
   xmlns:rdf="http://www.w3.org/1999/02/22-rdf-syntax-ns#"
   xmlns:svg="http://www.w3.org/2000/svg"
   xmlns="http://www.w3.org/2000/svg"
   xmlns:sodipodi="http://sodipodi.sourceforge.net/DTD/sodipodi-0.dtd"
   xmlns:inkscape="http://www.inkscape.org/namespaces/inkscape"
   version="1.1"
   width="300.00mm"
   height="600.00mm"
   viewBox="0 0 300.00 600.00"
   id="svg943"
   sodipodi:docname="backrest_page1.svg"
   inkscape:version="0.92.2 (5c3e80d, 2017-08-06)">
  <metadata
     id="metadata949">
    <rdf:RDF>
      <cc:Work
         rdf:about="">
        <dc:format>image/svg+xml</dc:format>
        <dc:type
           rdf:resource="http://purl.org/dc/dcmitype/StillImage" />
      </cc:Work>
    </rdf:RDF>
  </metadata>
  <defs
     id="defs947" />
  <sodipodi:namedview
     pagecolor="#ffffff"
     bordercolor="#666666"
     borderopacity="1"
     objecttolerance="10"
     gridtolerance="10"
     guidetolerance="10"
     inkscape:pageopacity="0"
     inkscape:pageshadow="2"
     inkscape:window-width="1920"
     inkscape:window-height="1017"
     id="namedview945"
     showgrid="false"
     inkscape:zoom="0.37394444"
     inkscape:cx="666.01921"
     inkscape:cy="1100.8648"
     inkscape:window-x="-8"
     inkscape:window-y="209"
     inkscape:window-maximized="1"
     inkscape:current-layer="svg943" />
  <style
     type="text/css"
     id="style883">
    path {
        fill: none;
        stroke-linecap: butt;
        stroke-linejoin: bevel;
        stroke-dasharray: none;
    }
    path.outer {
        stroke: #000000;
        stroke-dasharray: none;
        stroke-dashoffset: 0;
        stroke-width: 0.3;
        stroke-opacity: 1.0;
    }
    path.convex {
        stroke: #000000;
        stroke-dasharray: 0.50,1.00;
        stroke-dashoffset:0;
        stroke-width:0.2;
        stroke-opacity: 1.0
    }
    path.concave {
        stroke: #000000;
        stroke-dasharray: 1.00,0.50,0.20,0.50;
        stroke-dashoffset: 0;
        stroke-width: 0.2;
        stroke-opacity: 1.0
    }
    path.freestyle {
        stroke: #000000;
        stroke-dasharray: none;
        stroke-dashoffset: 0;
        stroke-width: 0.2;
        stroke-opacity: 1.0
    }
    path.outer_background {
        stroke: #ffffff;
        stroke-opacity: 1.0;
        stroke-width: 0.5
    }
    path.inner_background {
        stroke: #ffffff;
        stroke-opacity: 1.0;
        stroke-width: 0.2
    }
    path.sticker {
        fill: #e5e5e5;
        stroke: none;
        fill-opacity: 1.0;
    }
    path.arrow {
        fill: #000000;
    }
    text {
        font-style: normal;
        fill: #000000;
        fill-opacity: 1.0;
        stroke: none;
    }
    text, tspan {
        text-anchor:middle;
    }
    </style>
  <path
     d="m 106.96732,241.73079 h -2.53907 v -9.51172 h 2.53907 v 0.69825 h -1.68946 v 8.11523 h 1.68946 z"
     style="font-style:normal;font-size:medium;text-anchor:middle;fill:none;fill-opacity:1;stroke:#000000;stroke-width:0.25;stroke-linecap:butt;stroke-linejoin:bevel;stroke-dasharray:none;stroke-opacity:1"
     id="path951"
     inkscape:connector-curvature="0" />
  <path
     d="m 113.10501,239.81673 h -3.93555 v -0.74219 h 1.51368 v -4.87304 h -1.51368 v -0.66407 q 0.30762,0 0.65918,-0.0488 0.35157,-0.0537 0.53223,-0.15137 0.22461,-0.12207 0.35156,-0.30762 0.13184,-0.19043 0.15137,-0.50781 h 0.75684 v 6.55273 h 1.48437 z"
     style="font-style:normal;font-size:medium;text-anchor:middle;fill:none;fill-opacity:1;stroke:#000000;stroke-width:0.25;stroke-linecap:butt;stroke-linejoin:bevel;stroke-dasharray:none;stroke-opacity:1"
     id="path953"
     inkscape:connector-curvature="0" />
  <path
     d="m 117.55325,241.73079 h -2.53906 v -0.69824 h 1.68945 v -8.11523 h -1.68945 v -0.69825 h 2.53906 z"
     style="font-style:normal;font-size:medium;text-anchor:middle;fill:none;fill-opacity:1;stroke:#000000;stroke-width:0.25;stroke-linecap:butt;stroke-linejoin:bevel;stroke-dasharray:none;stroke-opacity:1"
     id="path955"
     inkscape:connector-curvature="0" />
  <path
     d="m 125.78568,239.81673 h -2.8711 v -0.74219 h 0.95215 v -5.78613 h -0.95215 v -0.74219 h 2.8711 v 0.74219 h -0.95215 v 5.78613 h 0.95215 z"
     style="font-style:normal;font-size:medium;text-anchor:middle;fill:none;fill-opacity:1;stroke:#000000;stroke-width:0.25;stroke-linecap:butt;stroke-linejoin:bevel;stroke-dasharray:none;stroke-opacity:1"
     id="path957"
     inkscape:connector-curvature="0" />
  <path
     d="m 135.27298,239.81673 h -3.93555 v -0.74219 h 1.51368 v -4.87304 h -1.51368 v -0.66407 q 0.30762,0 0.65918,-0.0488 0.35156,-0.0537 0.53223,-0.15137 0.22461,-0.12207 0.35156,-0.30762 0.13184,-0.19043 0.15137,-0.50781 h 0.75684 v 6.55273 h 1.48437 z"
     style="font-style:normal;font-size:medium;text-anchor:middle;fill:none;fill-opacity:1;stroke:#000000;stroke-width:0.25;stroke-linecap:butt;stroke-linejoin:bevel;stroke-dasharray:none;stroke-opacity:1"
     id="path959"
     inkscape:connector-curvature="0" />
  <path
     inkscape:connector-curvature="0"
     style="fill:#e5e5e5;fill-opacity:1;stroke:#000000;stroke-width:0.25;stroke-linecap:butt;stroke-linejoin:bevel;stroke-dasharray:none;stroke-opacity:1"
     id="path889"
     d="m 222.9679,157.9006 5.93881,11.37334 -2.93517,8.87149 -8.78997,-2.75579 z m -5.78633,17.48904 9.44452,3.29024 -16.11561,48.70897 -9.54321,-2.99197 z m -48.77441,147.41934 9.44452,3.29023 -14.38172,43.46848 -9.54323,-2.99195 z m 32.56011,-98.4121 9.44452,3.29024 -11.55886,34.93642 -9.54322,-2.99194 z m -23.22514,70.19746 9.44453,3.29024 -9.23629,27.91634 -9.54321,-2.99194 z m 11.56758,-34.96274 9.44453,3.29023 -11.4689,34.66443 -9.54321,-2.99192 z m -45.55893,-108.5369 -8.22865,-4.38079 8.36742,-16.33024 8.3622,4.12017 z m 8.50097,-16.59086 4.21888,-9.13728 29.24463,9.67571 -2.99194,9.54322 z m 30.47157,10.08165 3.29023,-9.44454 34.82221,11.5211 -2.99196,9.54321 z m -99.760996,149.95366 -9.44452,-3.29024 9.236246,-27.91634 9.543218,2.99195 z m 9.334944,-28.21463 -9.444512,-3.29024 11.468917,-34.66451 9.543207,2.99197 z m -23.815371,71.98143 -9.44452,-3.29024 14.381752,-43.46851 9.543195,2.99195 z m 35.382983,-106.94421 -9.444509,-3.29023 11.558839,-34.93637 9.54321,2.99191 z m 11.65754,-35.23469 -8.38951,-5.44432 28.06149,-44.76615 8.55638,5.17812 z m 102.32138,-39.92179 0.88792,-2.54872 5.04358,1.66869 -0.8074,2.57537 z m -127.171869,401.55661 8.699038,3.03054 -2.935172,8.87147 -11.55018,5.58698 z m 16.214309,-49.00726 9.44452,3.29023 -16.11561,48.70901 -9.543219,-2.99198 z m 47.04049,-142.17887 9.44454,3.29024 -14.38175,43.46847 -9.54323,-2.99197 z m -35.38293,106.94412 9.44451,3.29023 -11.55887,34.93646 -9.5432,-2.99194 z m 20.90249,-63.17738 9.44454,3.29024 -9.23625,27.91637 -9.54321,-2.99189 z m -9.33492,28.21472 9.44451,3.29024 -11.46887,34.66439 -9.54321,-2.99197 z M 14.169474,551.8541 5,550.17381 l 3.023431,-18.09829 9.217724,1.39141 z m 30.471593,10.08162 -3.290236,9.44453 -29.244661,-9.67568 2.063304,-9.85047 z m 35.120473,11.6198 -3.290236,9.44451 -34.822211,-11.52107 2.991974,-9.54324 z m -35.095022,-163.2682 -9.444519,-3.29024 9.236246,-27.91634 9.543225,2.99194 z m -11.567592,34.9628 -9.44452,-3.29021 11.468902,-34.66454 9.54321,2.99195 z m 20.902544,-63.17744 -9.444535,-3.2902 14.381752,-43.46851 9.54321,2.99198 z m -32.56008,98.4121 -9.44455,-3.29024 11.558861,-34.93637 9.543225,2.99195 z m -4.200235,52.98215 -9.9563,-0.94688 4.175379,-52.66896 9.981156,0.63369 z m 67.644462,41.78393 -0.887931,2.54869 -5.043581,-1.66869 0.807435,-2.57534 z"
     class="sticker" />
  <path
     class="arrow"
     d="m 220.07473,166.6451 -12.63496,6.35278 10.26149,-7.13805 -3.97931,-11.84969 z"
     id="path893"
     style="fill:#000000;stroke:#000000;stroke-width:0.25;stroke-linecap:butt;stroke-linejoin:bevel;stroke-dasharray:none;stroke-opacity:1"
     inkscape:connector-curvature="0" />
  <path
     inkscape:connector-curvature="0"
     id="path962"
     style="font-style:normal;font-size:medium;text-anchor:middle;fill:none;fill-opacity:1;stroke:#000000;stroke-width:0.25;stroke-linecap:butt;stroke-linejoin:bevel;stroke-dasharray:none;stroke-opacity:1"
     d="m 213.63961,167.81812 h -3.93554 v -0.74219 h 1.51367 v -4.87304 h -1.51367 v -0.66407 q 0.30762,0 0.65918,-0.0488 0.35156,-0.0537 0.53222,-0.15137 0.22461,-0.12207 0.35157,-0.30762 0.13183,-0.19043 0.15136,-0.50781 h 0.75684 v 6.55273 h 1.48437 z" />
  <path
     d="m 224.71405,164.12531 q -0.87235,-0.28862 -1.23502,-1.04816 -0.3601,-0.75442 -0.0842,-1.58835 0.13986,-0.42272 0.38495,-0.72536 0.2451,-0.30264 0.59031,-0.48262 0.42831,-0.22496 1.01456,-0.23139 0.58497,-0.003 1.32667,0.24281 0.76091,0.25175 1.29548,0.60769 0.5333,0.35978 0.87237,0.86848 0.32237,0.48186 0.38774,1.09613 0.0692,0.61555 -0.166,1.3265 -0.075,0.22674 -0.14509,0.3741 -0.0701,0.14736 -0.17216,0.28839 l -0.73401,-0.24285 0.0127,-0.0384 q 0.0933,-0.0885 0.21568,-0.29105 0.125,-0.1974 0.20002,-0.42414 0.27337,-0.82624 -0.0827,-1.48979 -0.35221,-0.66228 -1.20555,-1.03414 0.0892,0.38765 0.0861,0.73199 -5e-4,0.34945 -0.13655,0.76065 -0.12079,0.36509 -0.28151,0.61889 -0.15815,0.25893 -0.45845,0.4836 -0.34632,0.26063 -0.75966,0.31147 -0.41461,0.0547 -0.92573,-0.11442 z m 0.22737,-0.79029 q 0.35739,0.11824 0.62742,0.0882 0.26875,-0.0262 0.52178,-0.21109 0.18147,-0.13609 0.2911,-0.33859 0.10963,-0.20249 0.18719,-0.43691 0.10808,-0.32665 0.12403,-0.63262 0.016,-0.30597 -0.0475,-0.65528 -0.082,-0.0357 -0.16143,-0.0662 -0.0756,-0.0293 -0.19472,-0.0687 -0.6072,-0.20089 -1.00144,-0.19489 -0.39167,0.0111 -0.66782,0.16278 -0.22758,0.12083 -0.37567,0.29781 -0.14551,0.18209 -0.22562,0.4242 -0.18436,0.55723 0.0483,0.98808 0.23649,0.43213 0.87443,0.64319 z"
     style="font-style:normal;font-size:medium;text-anchor:middle;fill:none;fill-opacity:1;stroke:#000000;stroke-width:0.24999999;stroke-linecap:butt;stroke-linejoin:bevel;stroke-dasharray:none;stroke-opacity:1"
     id="path965"
     inkscape:connector-curvature="0" />
  <path
     d="m 222.08866,165.8362 0.30388,-0.91848 1.09525,0.36237 -0.30388,0.91847 z"
     style="font-style:normal;font-size:medium;text-anchor:middle;fill:none;fill-opacity:1;stroke:#000000;stroke-width:0.24999999;stroke-linecap:butt;stroke-linejoin:bevel;stroke-dasharray:none;stroke-opacity:1"
     id="path967"
     inkscape:connector-curvature="0" />
  <path
     d="m 224.2218,170.11063 0.30388,-0.91847 1.09525,0.36236 -0.30388,0.91848 z m -3.19736,-1.05786 0.30388,-0.91847 1.09525,0.36236 -0.30388,0.91848 z"
     style="font-style:normal;font-size:medium;text-anchor:middle;fill:none;fill-opacity:1;stroke:#000000;stroke-width:0.24999999;stroke-linecap:butt;stroke-linejoin:bevel;stroke-dasharray:none;stroke-opacity:1"
     id="path969"
     inkscape:connector-curvature="0" />
  <path
     d="m 219.20497,174.55207 1.0248,-3.09744 0.58414,0.19326 -0.39416,1.19133 3.83529,1.26892 0.39416,-1.19132 0.52264,0.17291 q -0.0801,0.24211 -0.13321,0.53152 -0.0493,0.29068 -0.0195,0.4583 0.0376,0.20856 0.15056,0.3568 0.11555,0.15335 0.36025,0.25136 l -0.19707,0.59566 -5.15728,-1.7063 -0.38652,1.16826 z"
     style="font-style:normal;font-size:medium;text-anchor:middle;fill:none;fill-opacity:1;stroke:#000000;stroke-width:0.24999999;stroke-linecap:butt;stroke-linejoin:bevel;stroke-dasharray:none;stroke-opacity:1"
     id="path971"
     inkscape:connector-curvature="0" />
  <path
     d="m 140.77707,141.84578 3.35662,4.82242 -0.39978,0.78023 -3.4513,-5.06887 -1.58418,3.09175 -0.63804,-0.32692 1.90363,-3.71521 z"
     style="font-style:normal;font-size:medium;text-anchor:middle;fill:none;fill-opacity:1;stroke:#000000;stroke-width:0.25000003;stroke-linecap:butt;stroke-linejoin:bevel;stroke-dasharray:none;stroke-opacity:1"
     id="path974"
     inkscape:connector-curvature="0" />
  <path
     d="m 143.69699,140.04606 -0.44649,0.87138 -1.03909,-0.53242 0.44649,-0.87138 z m 3.03342,1.55429 -0.44649,0.87138 -1.03909,-0.53242 0.44649,-0.87138 z"
     style="font-style:normal;font-size:medium;text-anchor:middle;fill:none;fill-opacity:1;stroke:#000000;stroke-width:0.25000003;stroke-linecap:butt;stroke-linejoin:bevel;stroke-dasharray:none;stroke-opacity:1"
     id="path976"
     inkscape:connector-curvature="0" />
  <path
     d="m 149.56251,136.07311 -1.88309,3.67511 -0.762,-0.39045 q -0.13198,-0.55095 -0.26396,-1.10191 -0.13011,-0.5546 -0.2846,-1.05264 -0.31946,-1.0475 -0.58423,-1.50998 -0.26841,-0.46436 -0.73145,-0.70162 -0.42292,-0.2167 -0.80376,-0.0574 -0.38261,0.15379 -0.63854,0.65329 -0.17,0.33178 -0.25136,0.77802 -0.0814,0.44625 -0.0294,0.93779 l -0.0187,0.0365 -0.76565,-0.39231 q 0.005,-0.32424 0.11974,-0.80864 0.11658,-0.48804 0.32394,-0.89274 0.42781,-0.83492 1.07536,-1.10153 0.64391,-0.26848 1.333,0.0846 0.3099,0.15879 0.5386,0.37725 0.22692,0.21294 0.38909,0.48936 0.15319,0.25802 0.27294,0.56334 0.12161,0.30168 0.24765,0.7115 0.18294,0.58627 0.33092,1.18685 0.14433,0.59871 0.26564,1.11659 l 1.49638,-2.9204 z"
     style="font-style:normal;font-size:medium;text-anchor:middle;fill:none;fill-opacity:1;stroke:#000000;stroke-width:0.25000003;stroke-linecap:butt;stroke-linejoin:bevel;stroke-dasharray:none;stroke-opacity:1"
     id="path978"
     inkscape:connector-curvature="0" />
  <path
     d="m 166.16436,135.28982 q -0.26641,0.80522 -1.07308,1.13081 -0.8025,0.32698 -1.75374,0.0123 -1.00966,-0.33405 -1.4379,-1.05433 -0.42406,-0.71891 -0.15489,-1.53247 0.17116,-0.51734 0.60959,-0.83517 0.43981,-0.32199 1.0678,-0.38732 l 0.008,-0.025 q -0.41231,-0.43266 -0.54939,-0.8298 -0.1329,-0.39576 0.0245,-0.87139 0.2319,-0.70091 0.96225,-0.9777 0.73035,-0.27678 1.61901,0.0172 0.93038,0.30782 1.33758,0.93782 0.40719,0.63001 0.17943,1.31841 -0.13942,0.42138 -0.53754,0.74328 -0.39673,0.31774 -0.98165,0.3788 l -0.008,0.025 q 0.50127,0.44358 0.68854,0.91287 0.18726,0.46929 -4.7e-4,1.0367 z m 0.0147,-3.36027 q 0.1477,-0.44642 -0.11162,-0.82383 -0.25377,-0.3802 -0.7878,-0.55689 -0.52569,-0.17392 -0.94645,-0.0354 -0.41659,0.1399 -0.55739,0.56546 -0.0994,0.30039 -0.006,0.57673 0.0993,0.27354 0.3848,0.55779 0.12952,0.12617 0.37737,0.3424 0.25201,0.21762 0.50115,0.38799 0.50414,-0.1387 0.76068,-0.38247 0.25655,-0.24376 0.38492,-0.63177 z m -0.90041,3.15519 q 0.12699,-0.38384 0.0319,-0.6699 -0.0896,-0.28885 -0.5046,-0.68537 -0.16572,-0.15666 -0.37313,-0.31323 -0.20741,-0.15657 -0.54849,-0.4268 -0.44312,0.0802 -0.78854,0.35474 -0.34124,0.27592 -0.48756,0.71816 -0.18635,0.56324 0.0802,1.05876 0.26653,0.49551 0.86314,0.69291 0.60913,0.20153 1.07563,0.009 0.47067,-0.19144 0.6515,-0.73798 z"
     style="font-style:normal;font-size:medium;text-anchor:middle;fill:none;fill-opacity:1;stroke:#000000;stroke-width:0.25000006;stroke-linecap:butt;stroke-linejoin:bevel;stroke-dasharray:none;stroke-opacity:1"
     id="path981"
     inkscape:connector-curvature="0" />
  <path
     d="m 169.698,134.52872 -0.99714,-0.3299 0.39341,-1.18905 0.99713,0.3299 z m -1.14846,3.4712 -0.99713,-0.3299 0.3934,-1.18906 0.99713,0.32991 z"
     style="font-style:normal;font-size:medium;text-anchor:middle;fill:none;fill-opacity:1;stroke:#000000;stroke-width:0.25000006;stroke-linecap:butt;stroke-linejoin:bevel;stroke-dasharray:none;stroke-opacity:1"
     id="path983"
     inkscape:connector-curvature="0" />
  <path
     d="m 174.87446,140.09254 -4.20549,-1.3914 0.2885,-0.87197 q 0.5623,-0.23055 1.12461,-0.4611 0.56647,-0.22918 1.06899,-0.47488 1.05779,-0.51099 1.50447,-0.86774 0.44806,-0.36093 0.62336,-0.89079 0.16012,-0.48396 -0.0714,-0.86144 -0.22598,-0.38026 -0.79756,-0.56937 -0.37966,-0.12561 -0.86608,-0.13842 -0.48641,-0.0128 -0.9989,0.12313 l -0.0417,-0.0138 0.28987,-0.87615 q 0.34454,-0.048 0.87688,-0.006 0.53651,0.0433 0.99961,0.1965 0.95542,0.3161 1.34457,0.95865 0.39054,0.63838 0.12965,1.42691 -0.11733,0.35463 -0.31127,0.63299 -0.18838,0.27558 -0.45471,0.49297 -0.24829,0.20483 -0.55224,0.382 -0.29977,0.17855 -0.71344,0.37959 -0.59136,0.29037 -1.20363,0.54605 -0.6109,0.2515 -1.13989,0.46531 l 3.34186,1.10566 z"
     style="font-style:normal;font-size:medium;text-anchor:middle;fill:none;fill-opacity:1;stroke:#000000;stroke-width:0.25000006;stroke-linecap:butt;stroke-linejoin:bevel;stroke-dasharray:none;stroke-opacity:1"
     id="path985"
     inkscape:connector-curvature="0" />
  <path
     d="m 220.04845,155.90443 q -0.0719,0.21741 -0.28973,0.30532 -0.21668,0.0883 -0.47351,0.003 -0.27261,-0.0902 -0.38823,-0.28467 -0.1145,-0.1941 -0.0418,-0.41377 0.0462,-0.13968 0.1646,-0.22549 0.11874,-0.0869 0.2883,-0.10458 l 0.002,-0.007 q -0.11133,-0.11681 -0.14834,-0.22404 -0.0359,-0.10686 0.007,-0.23528 0.0626,-0.18924 0.2598,-0.26397 0.1972,-0.0747 0.43714,0.005 0.2512,0.0831 0.36114,0.25321 0.10994,0.1701 0.0485,0.35597 -0.0376,0.11377 -0.14514,0.20069 -0.10712,0.0858 -0.26504,0.10227 l -0.002,0.007 q 0.13535,0.11977 0.18591,0.24647 0.0506,0.12671 -1.3e-4,0.27991 z m 0.004,-0.90727 q 0.0399,-0.12053 -0.0301,-0.22243 -0.0685,-0.10266 -0.21271,-0.15036 -0.14193,-0.047 -0.25554,-0.01 -0.11248,0.0378 -0.15049,0.15267 -0.0268,0.0811 -0.002,0.15571 0.0268,0.0739 0.1039,0.15061 0.035,0.0341 0.10188,0.0924 0.068,0.0588 0.13531,0.10476 0.13612,-0.0374 0.20539,-0.10327 0.0693,-0.0658 0.10393,-0.17058 z m -0.24311,0.8519 q 0.0343,-0.10364 0.009,-0.18087 -0.0242,-0.078 -0.13624,-0.18505 -0.0447,-0.0423 -0.10075,-0.0846 -0.056,-0.0423 -0.14809,-0.11523 -0.11964,0.0216 -0.21291,0.0958 -0.0921,0.0745 -0.13164,0.1939 -0.0503,0.15208 0.0216,0.28587 0.072,0.13379 0.23305,0.18708 0.16447,0.0544 0.29042,0.002 0.12708,-0.0517 0.17591,-0.19926 z"
     style="font-style:normal;font-size:medium;text-anchor:middle;fill:none;fill-opacity:1;stroke:#000000;stroke-width:0.24999999;stroke-linecap:butt;stroke-linejoin:bevel;stroke-dasharray:none;stroke-opacity:1"
     id="path988"
     inkscape:connector-curvature="0" />
  <path
     d="m 221.00253,155.69894 -0.26922,-0.0891 0.10622,-0.32104 0.26922,0.0891 z m -0.31008,0.93722 -0.26923,-0.0891 0.10622,-0.32105 0.26923,0.0891 z"
     style="font-style:normal;font-size:medium;text-anchor:middle;fill:none;fill-opacity:1;stroke:#000000;stroke-width:0.24999999;stroke-linecap:butt;stroke-linejoin:bevel;stroke-dasharray:none;stroke-opacity:1"
     id="path990"
     inkscape:connector-curvature="0" />
  <path
     d="m 222.51983,156.34467 q 0.038,0.0663 0.0487,0.1511 0.0107,0.0848 -0.0277,0.2008 -0.038,0.1149 -0.11137,0.19686 -0.0734,0.082 -0.17232,0.12796 -0.11057,0.0509 -0.23814,0.0512 -0.12607,-4.7e-4 -0.26238,-0.0456 -0.13968,-0.0462 -0.26367,-0.12474 -0.12437,-0.0774 -0.19807,-0.14551 l 0.0779,-0.23543 0.0169,0.006 q 0.0749,0.0948 0.19064,0.1793 0.11575,0.0845 0.23628,0.12442 0.071,0.0235 0.15878,0.0263 0.0878,0.003 0.15265,-0.027 0.0682,-0.0324 0.11275,-0.0839 0.0457,-0.0511 0.0758,-0.14238 0.0298,-0.0901 0.0199,-0.15838 -0.008,-0.069 -0.0479,-0.11959 -0.0391,-0.0517 -0.10713,-0.0879 -0.0676,-0.0374 -0.15098,-0.065 l -0.10138,-0.0335 0.0619,-0.18699 0.0789,0.0261 q 0.17122,0.0566 0.29608,0.0192 0.12636,-0.0382 0.17183,-0.1756 0.0201,-0.0608 0.009,-0.11446 -0.0106,-0.0548 -0.0471,-0.0993 -0.0387,-0.0453 -0.0902,-0.0748 -0.0515,-0.0295 -0.12132,-0.0526 -0.10701,-0.0354 -0.24021,-0.037 -0.13321,-0.002 -0.26333,0.0329 l -0.0113,-0.004 0.0779,-0.23543 q 0.093,-0.013 0.23675,-0.002 0.14524,0.0106 0.27027,0.0519 0.12279,0.0406 0.20883,0.0941 0.0861,0.0535 0.14512,0.12799 0.0632,0.0809 0.0795,0.1713 0.0163,0.0904 -0.0176,0.1929 -0.0462,0.13968 -0.18,0.21164 -0.13229,0.0712 -0.27529,0.0539 l -0.005,0.0158 q 0.0511,0.0269 0.11124,0.0793 0.0605,0.0513 0.0948,0.1101 z"
     style="font-style:normal;font-size:medium;text-anchor:middle;fill:none;fill-opacity:1;stroke:#000000;stroke-width:0.24999999;stroke-linecap:butt;stroke-linejoin:bevel;stroke-dasharray:none;stroke-opacity:1"
     id="path992"
     inkscape:connector-curvature="0" />
  <path
     class="arrow"
     d="m 87.778782,566.50638 -12.634965,6.35277 10.261498,-7.13804 -3.979302,-11.84969 z"
     id="path917"
     style="fill:#000000;stroke:#000000;stroke-width:0.25;stroke-linecap:butt;stroke-linejoin:bevel;stroke-dasharray:none;stroke-opacity:1"
     inkscape:connector-curvature="0" />
  <path
     inkscape:connector-curvature="0"
     id="path995"
     style="font-style:normal;font-size:medium;text-anchor:middle;fill:none;fill-opacity:1;stroke:#000000;stroke-width:0.25;stroke-linecap:butt;stroke-linejoin:bevel;stroke-dasharray:none;stroke-opacity:1"
     d="m 81.758713,567.67939 h -4.921875 v -1.02051 q 0.512695,-0.43945 1.025391,-0.8789 0.517578,-0.43946 0.961914,-0.87403 0.9375,-0.9082 1.284179,-1.44043 0.34668,-0.53711 0.34668,-1.15722 0,-0.56641 -0.375976,-0.88379 -0.371094,-0.32227 -1.04004,-0.32227 -0.444335,0 -0.961914,0.15625 -0.517578,0.15625 -1.010742,0.47852 h -0.04883 v -1.02539 q 0.34668,-0.1709 0.922852,-0.3125 0.581054,-0.14161 1.123047,-0.14161 1.118164,0 1.752929,0.542 0.634766,0.53711 0.634766,1.45996 0,0.41504 -0.107422,0.77637 -0.102539,0.35644 -0.307617,0.67871 -0.19043,0.30273 -0.449219,0.5957 -0.253906,0.29297 -0.620117,0.64941 -0.522461,0.5127 -1.079102,0.9961 -0.55664,0.47851 -1.040039,0.88867 h 3.911133 z" />
  <path
     d="m 92.418008,563.98651 q -0.872355,-0.28863 -1.235023,-1.04816 -0.360097,-0.75443 -0.08419,-1.58835 0.139862,-0.42273 0.384956,-0.72537 0.245093,-0.30264 0.590304,-0.48261 0.428314,-0.22497 1.01456,-0.2314 0.584976,-0.003 1.32667,0.24281 0.760909,0.25175 1.295483,0.60769 0.533302,0.35979 0.872369,0.86849 0.322367,0.48186 0.38774,1.09613 0.06922,0.61555 -0.166005,1.3265 -0.07502,0.22674 -0.145091,0.3741 -0.07007,0.14736 -0.172162,0.28839 l -0.734008,-0.24285 0.01271,-0.0384 q 0.09325,-0.0885 0.215678,-0.29105 0.125004,-0.1974 0.200021,-0.42414 0.273366,-0.82624 -0.08269,-1.48979 -0.352211,-0.66228 -1.205551,-1.03415 0.08919,0.38766 0.08612,0.732 -5e-4,0.34945 -0.136547,0.76065 -0.12079,0.36508 -0.281509,0.61889 -0.158149,0.25892 -0.458458,0.4836 -0.346311,0.26062 -0.759652,0.31147 -0.414613,0.0547 -0.925729,-0.11442 z m 0.227365,-0.7903 q 0.357397,0.11825 0.627419,0.0882 0.268752,-0.0262 0.521788,-0.2111 0.181463,-0.13609 0.291095,-0.33858 0.109633,-0.20249 0.187192,-0.43691 0.108075,-0.32666 0.124033,-0.63262 0.01596,-0.30597 -0.04754,-0.65528 -0.082,-0.0357 -0.161433,-0.0662 -0.07559,-0.0293 -0.19472,-0.0687 -0.60719,-0.20089 -1.001431,-0.19489 -0.391669,0.0111 -0.667821,0.16277 -0.227578,0.12083 -0.375669,0.29781 -0.145519,0.18209 -0.225621,0.4242 -0.184364,0.55723 0.04829,0.98809 0.236493,0.43213 0.874427,0.64319 z"
     style="font-style:normal;font-size:medium;text-anchor:middle;fill:none;fill-opacity:1;stroke:#000000;stroke-width:0.2499999;stroke-linecap:butt;stroke-linejoin:bevel;stroke-dasharray:none;stroke-opacity:1"
     id="path998"
     inkscape:connector-curvature="0" />
  <path
     d="m 89.792611,565.69739 0.303882,-0.91847 1.095248,0.36237 -0.303882,0.91847 z"
     style="font-style:normal;font-size:medium;text-anchor:middle;fill:none;fill-opacity:1;stroke:#000000;stroke-width:0.2499999;stroke-linecap:butt;stroke-linejoin:bevel;stroke-dasharray:none;stroke-opacity:1"
     id="path1000"
     inkscape:connector-curvature="0" />
  <path
     d="m 91.925747,569.97182 0.303881,-0.91847 1.095248,0.36237 -0.303881,0.91847 z m -3.197356,-1.05786 0.303881,-0.91847 1.095248,0.36237 -0.303881,0.91847 z"
     style="font-style:normal;font-size:medium;text-anchor:middle;fill:none;fill-opacity:1;stroke:#000000;stroke-width:0.2499999;stroke-linecap:butt;stroke-linejoin:bevel;stroke-dasharray:none;stroke-opacity:1"
     id="path1002"
     inkscape:connector-curvature="0" />
  <path
     d="m 86.800842,574.73991 1.281642,-3.87372 0.803182,0.26574 q 0.212363,0.51794 0.424727,1.03589 0.211092,0.52179 0.437413,0.98466 0.470671,0.97434 0.799281,1.38578 0.332453,0.41272 0.820511,0.57419 0.445785,0.14749 0.793482,-0.0658 0.350268,-0.20815 0.524459,-0.73464 0.115704,-0.34971 0.127505,-0.79775 0.0118,-0.44804 -0.113417,-0.9201 l 0.01271,-0.0384 0.807025,0.26701 q 0.04423,0.31735 0.0056,0.8077 -0.03986,0.49418 -0.180992,0.92075 -0.291167,0.88004 -0.883028,1.2385 -0.588019,0.35972 -1.314341,0.11941 -0.326653,-0.10807 -0.583061,-0.2867 -0.253836,-0.17352 -0.454071,-0.41885 -0.188677,-0.2287 -0.351868,-0.50867 -0.164462,-0.27612 -0.349639,-0.65716 -0.267465,-0.54471 -0.502972,-1.10868 -0.231664,-0.5627 -0.428598,-1.04996 l -1.018448,3.07822 z"
     style="font-style:normal;font-size:medium;text-anchor:middle;fill:none;fill-opacity:1;stroke:#000000;stroke-width:0.2499999;stroke-linecap:butt;stroke-linejoin:bevel;stroke-dasharray:none;stroke-opacity:1"
     id="path1004"
     inkscape:connector-curvature="0" />
  <path
     d="m 8.5320551,543.94171 4.6605449,3.578 -0.144453,0.8647 -4.8254728,-3.78414 -0.5724153,3.4265 -0.7071199,-0.11813 0.6878433,-4.11746 z"
     style="font-style:normal;font-size:medium;text-anchor:middle;fill:none;fill-opacity:1;stroke:#000000;stroke-width:0.24999993;stroke-linecap:butt;stroke-linejoin:bevel;stroke-dasharray:none;stroke-opacity:1"
     id="path1007"
     inkscape:connector-curvature="0" />
  <path
     d="m 10.769025,541.34154 -0.161329,0.96572 -1.1515953,-0.19238 0.1613293,-0.96572 z m 3.36185,0.56161 -0.161329,0.96573 -1.151595,-0.19238 0.161329,-0.96573 z"
     style="font-style:normal;font-size:medium;text-anchor:middle;fill:none;fill-opacity:1;stroke:#000000;stroke-width:0.24999993;stroke-linecap:butt;stroke-linejoin:bevel;stroke-dasharray:none;stroke-opacity:1"
     id="path1009"
     inkscape:connector-curvature="0" />
  <path
     d="m 13.234858,535.50668 q 0.420231,0.0702 0.778446,0.28787 0.358214,0.21768 0.576308,0.52824 0.234246,0.33818 0.320291,0.7679 0.08268,0.425 -0.0057,0.95433 -0.08235,0.49297 -0.263687,0.93201 -0.177294,0.43972 -0.37541,0.7306 l -0.852585,-0.14243 0.0095,-0.0566 q 0.265467,-0.29624 0.489225,-0.71574 0.219716,-0.42017 0.291268,-0.84848 0.04793,-0.28689 0.01166,-0.56708 -0.03559,-0.28422 -0.202521,-0.52809 -0.144048,-0.20682 -0.371639,-0.33621 -0.226916,-0.13344 -0.54613,-0.18677 -0.311133,-0.052 -0.543514,0.0213 -0.231707,0.0693 -0.392735,0.23759 -0.188647,0.18447 -0.299884,0.47739 -0.114602,0.28821 -0.176704,0.65996 -0.0594,0.35558 -0.06626,0.69501 -0.0062,0.3354 0.0025,0.5819 l -3.0992056,-0.51774 0.6048161,-3.62045 0.7071199,0.11813 -0.4745377,2.8406 1.6001113,0.26731 q 0.01286,-0.17645 0.03516,-0.35963 0.0223,-0.18319 0.04457,-0.31653 0.08168,-0.48892 0.227958,-0.84245 0.142241,-0.3542 0.403657,-0.62619 0.276239,-0.28613 0.65748,-0.40519 0.38124,-0.11907 0.91057,-0.0306 z"
     style="font-style:normal;font-size:medium;text-anchor:middle;fill:none;fill-opacity:1;stroke:#000000;stroke-width:0.24999993;stroke-linecap:butt;stroke-linejoin:bevel;stroke-dasharray:none;stroke-opacity:1"
     id="path1011"
     inkscape:connector-curvature="0" />
  <path
     d="m 31.756446,563.42929 q 0.26917,-0.81357 0.676392,-1.41482 0.403049,-0.60263 0.93314,-0.94567 0.537022,-0.35001 1.194184,-0.41957 0.657161,-0.0696 1.429002,0.1858 0.21695,0.0718 0.400585,0.16031 0.185015,0.0844 0.318647,0.18412 l -0.263648,0.79687 -0.04172,-0.0138 q -0.100286,-0.10262 -0.302083,-0.23418 -0.203177,-0.1274 -0.474365,-0.21712 -0.922036,-0.30506 -1.625757,0.0731 -0.709274,0.38097 -1.11434,1.32546 0.465307,-0.10526 0.840548,-0.0922 0.375242,0.0131 0.779937,0.14695 0.383834,0.12699 0.671896,0.30562 0.28389,0.17724 0.52502,0.49772 0.282944,0.37597 0.340935,0.83026 0.05382,0.45292 -0.127007,0.99946 -0.314722,0.95125 -1.13793,1.3408 -0.823208,0.38956 -1.724384,0.0914 -0.450588,-0.14907 -0.78749,-0.41792 -0.338282,-0.26467 -0.533674,-0.63945 -0.24006,-0.46361 -0.25115,-1.07366 -0.01247,-0.60587 0.273263,-1.46949 z m 0.783411,0.45823 q -0.213956,0.64668 -0.210202,1.08303 0.0038,0.43635 0.165614,0.7306 0.133973,0.25262 0.33304,0.40643 0.197687,0.15798 0.46053,0.24494 0.600784,0.19877 1.075474,-0.0608 0.470517,-0.26092 0.695516,-0.94097 0.131134,-0.39635 0.101308,-0.68395 -0.02982,-0.28759 -0.234724,-0.56368 -0.144954,-0.19145 -0.355064,-0.31189 -0.211491,-0.11626 -0.48685,-0.20736 -0.325425,-0.10767 -0.688181,-0.13048 -0.362757,-0.0228 -0.710019,0.0474 -0.03316,0.0862 -0.06494,0.1683 -0.03733,0.0848 -0.0815,0.21836 z"
     style="font-style:normal;font-size:medium;text-anchor:middle;fill:none;fill-opacity:1;stroke:#000000;stroke-width:0.25000006;stroke-linecap:butt;stroke-linejoin:bevel;stroke-dasharray:none;stroke-opacity:1"
     id="path1014"
     inkscape:connector-curvature="0" />
  <path
     d="m 30.283406,559.0815 0.997135,0.3299 -0.393402,1.18906 -0.997135,-0.32991 z"
     style="font-style:normal;font-size:medium;text-anchor:middle;fill:none;fill-opacity:1;stroke:#000000;stroke-width:0.25000006;stroke-linecap:butt;stroke-linejoin:bevel;stroke-dasharray:none;stroke-opacity:1"
     id="path1016"
     inkscape:connector-curvature="0" />
  <path
     d="m 25.642891,561.39734 0.997134,0.3299 -0.393402,1.18905 -0.997134,-0.3299 z m 1.148457,-3.4712 0.997135,0.32991 -0.393402,1.18905 -0.997135,-0.32991 z"
     style="font-style:normal;font-size:medium;text-anchor:middle;fill:none;fill-opacity:1;stroke:#000000;stroke-width:0.25000006;stroke-linecap:butt;stroke-linejoin:bevel;stroke-dasharray:none;stroke-opacity:1"
     id="path1018"
     inkscape:connector-curvature="0" />
  <path
     d="m 20.466427,555.83352 4.205489,1.3914 -0.288495,0.87197 q -0.562304,0.23055 -1.124608,0.4611 -0.566476,0.22918 -1.06899,0.47488 -1.057792,0.51099 -1.504471,0.86774 -0.44806,0.36093 -0.623365,0.89079 -0.160122,0.48396 0.07141,0.86144 0.225977,0.38026 0.797556,0.56937 0.379662,0.12561 0.866077,0.13842 0.486416,0.0128 0.998903,-0.12313 l 0.04172,0.0138 -0.289876,0.87615 q -0.344532,0.048 -0.876872,0.006 -0.536511,-0.0433 -0.999616,-0.1965 -0.955413,-0.3161 -1.344568,-0.95865 -0.390535,-0.63838 -0.129648,-1.42691 0.117331,-0.35463 0.311264,-0.63299 0.18838,-0.27558 0.454713,-0.49297 0.248294,-0.20483 0.552238,-0.382 0.299771,-0.17855 0.713446,-0.37959 0.591353,-0.29037 1.203629,-0.54605 0.610896,-0.2515 1.139885,-0.46531 l -3.341861,-1.10566 z"
     style="font-style:normal;font-size:medium;text-anchor:middle;fill:none;fill-opacity:1;stroke:#000000;stroke-width:0.25000006;stroke-linecap:butt;stroke-linejoin:bevel;stroke-dasharray:none;stroke-opacity:1"
     id="path1020"
     inkscape:connector-curvature="0" />
  <path
     d="m 82.958474,576.16716 q 0.07268,-0.21966 0.182628,-0.382 0.108824,-0.16271 0.251949,-0.25533 0.144996,-0.0945 0.32243,-0.11328 0.177434,-0.0188 0.38583,0.0502 0.05858,0.0194 0.108158,0.0433 0.04995,0.0228 0.08603,0.0497 l -0.07119,0.21516 -0.01126,-0.004 q -0.02708,-0.0277 -0.08156,-0.0632 -0.05486,-0.0344 -0.128078,-0.0586 -0.24895,-0.0824 -0.438955,0.0197 -0.191504,0.10286 -0.300873,0.35787 0.125633,-0.0284 0.226948,-0.0249 0.101316,0.004 0.210583,0.0397 0.103635,0.0343 0.181412,0.0825 0.07665,0.0479 0.141755,0.13439 0.07639,0.10151 0.09205,0.22417 0.01453,0.12229 -0.03429,0.26986 -0.08498,0.25683 -0.307242,0.36201 -0.222267,0.10518 -0.465584,0.0247 -0.121659,-0.0403 -0.212622,-0.11284 -0.09134,-0.0715 -0.144091,-0.17266 -0.06482,-0.12517 -0.06781,-0.28988 -0.0034,-0.16359 0.07378,-0.39677 z m 0.211521,0.12373 q -0.05777,0.1746 -0.05676,0.29241 0.001,0.11782 0.04472,0.19727 0.03617,0.0682 0.08992,0.10973 0.05338,0.0427 0.124343,0.0661 0.162211,0.0537 0.290378,-0.0164 0.127039,-0.0704 0.18779,-0.25406 0.03541,-0.10702 0.02735,-0.18467 -0.0081,-0.0777 -0.06338,-0.15219 -0.03914,-0.0517 -0.09587,-0.0842 -0.0571,-0.0314 -0.13145,-0.056 -0.08786,-0.0291 -0.185808,-0.0352 -0.09794,-0.006 -0.191705,0.0128 -0.009,0.0233 -0.01753,0.0454 -0.01008,0.0229 -0.022,0.059 z"
     style="font-style:normal;font-size:medium;text-anchor:middle;fill:none;fill-opacity:1;stroke:#000000;stroke-width:0.24999999;stroke-linecap:butt;stroke-linejoin:bevel;stroke-dasharray:none;stroke-opacity:1"
     id="path1023"
     inkscape:connector-curvature="0" />
  <path
     d="m 82.560758,574.99326 0.269226,0.0891 -0.10622,0.32105 -0.269226,-0.0891 z"
     style="font-style:normal;font-size:medium;text-anchor:middle;fill:none;fill-opacity:1;stroke:#000000;stroke-width:0.24999999;stroke-linecap:butt;stroke-linejoin:bevel;stroke-dasharray:none;stroke-opacity:1"
     id="path1025"
     inkscape:connector-curvature="0" />
  <path
     d="m 81.307816,575.61853 0.269226,0.0891 -0.106219,0.32104 -0.269226,-0.0891 z m 0.310088,-0.93722 0.269226,0.0891 -0.10622,0.32105 -0.269226,-0.0891 z"
     style="font-style:normal;font-size:medium;text-anchor:middle;fill:none;fill-opacity:1;stroke:#000000;stroke-width:0.24999999;stroke-linecap:butt;stroke-linejoin:bevel;stroke-dasharray:none;stroke-opacity:1"
     id="path1027"
     inkscape:connector-curvature="0" />
  <path
     d="m 79.790518,574.97279 q -0.03804,-0.0663 -0.04874,-0.1511 -0.01069,-0.0848 0.02769,-0.2008 0.03802,-0.1149 0.111375,-0.19686 0.07336,-0.082 0.172312,-0.12795 0.110574,-0.0509 0.238146,-0.0512 0.126073,4.7e-4 0.262375,0.0456 0.139682,0.0462 0.263677,0.12473 0.124368,0.0774 0.198062,0.14552 l -0.07789,0.23543 -0.0169,-0.006 q -0.07488,-0.0948 -0.190632,-0.1793 -0.115754,-0.0845 -0.236286,-0.12442 -0.07097,-0.0235 -0.158774,-0.0263 -0.08781,-0.003 -0.152651,0.027 -0.06822,0.0324 -0.112752,0.0839 -0.04566,0.0511 -0.07585,0.14237 -0.02982,0.0901 -0.01991,0.15838 0.0084,0.069 0.04792,0.11959 0.03914,0.0517 0.107131,0.0879 0.06762,0.0374 0.150981,0.0649 l 0.101381,0.0335 -0.06187,0.18699 -0.07885,-0.0261 q -0.171223,-0.0566 -0.296086,-0.0192 -0.126361,0.0382 -0.171831,0.17561 -0.02013,0.0608 -0.0091,0.11446 0.01063,0.0548 0.04712,0.0993 0.03875,0.0453 0.09022,0.0748 0.05147,0.0295 0.121311,0.0526 0.107015,0.0354 0.240219,0.037 0.133204,0.002 0.263326,-0.0328 l 0.01126,0.004 -0.07789,0.23544 q -0.09302,0.013 -0.236755,0.002 -0.145231,-0.0106 -0.270269,-0.0519 -0.122785,-0.0406 -0.208828,-0.0941 -0.08604,-0.0535 -0.145118,-0.128 -0.06322,-0.0809 -0.07955,-0.1713 -0.01633,-0.0904 0.01758,-0.1929 0.04622,-0.13968 0.180005,-0.21164 0.132291,-0.0712 0.275286,-0.0539 l 0.0052,-0.0158 q -0.05109,-0.0269 -0.11124,-0.0793 -0.06052,-0.0513 -0.0948,-0.11011 z"
     style="font-style:normal;font-size:medium;text-anchor:middle;fill:none;fill-opacity:1;stroke:#000000;stroke-width:0.24999999;stroke-linecap:butt;stroke-linejoin:bevel;stroke-dasharray:none;stroke-opacity:1"
     id="path1029"
     inkscape:connector-curvature="0" />
</svg>
