<?xml version="1.0" encoding="UTF-8" standalone="no"?>
<svg
   xmlns:dc="http://purl.org/dc/elements/1.1/"
   xmlns:cc="http://creativecommons.org/ns#"
   xmlns:rdf="http://www.w3.org/1999/02/22-rdf-syntax-ns#"
   xmlns:svg="http://www.w3.org/2000/svg"
   xmlns="http://www.w3.org/2000/svg"
   xmlns:sodipodi="http://sodipodi.sourceforge.net/DTD/sodipodi-0.dtd"
   xmlns:inkscape="http://www.inkscape.org/namespaces/inkscape"
   version="1.1"
   width="320.00mm"
   height="620.00mm"
   viewBox="0 0 320.00 620.00"
   id="svg86"
   sodipodi:docname="backrest_page7_fabric.svg"
   inkscape:version="0.92.2 (5c3e80d, 2017-08-06)">
  <metadata
     id="metadata92">
    <rdf:RDF>
      <cc:Work
         rdf:about="">
        <dc:format>image/svg+xml</dc:format>
        <dc:type
           rdf:resource="http://purl.org/dc/dcmitype/StillImage" />
      </cc:Work>
    </rdf:RDF>
  </metadata>
  <defs
     id="defs90" />
  <sodipodi:namedview
     pagecolor="#ffffff"
     bordercolor="#666666"
     borderopacity="1"
     objecttolerance="10"
     gridtolerance="10"
     guidetolerance="10"
     inkscape:pageopacity="0"
     inkscape:pageshadow="2"
     inkscape:window-width="1920"
     inkscape:window-height="1017"
     id="namedview88"
     showgrid="false"
     inkscape:zoom="0.28485759"
     inkscape:cx="-243.81005"
     inkscape:cy="738.60071"
     inkscape:window-x="-8"
     inkscape:window-y="-8"
     inkscape:window-maximized="1"
     inkscape:current-layer="g84" />
  <style
     type="text/css"
     id="style2">
    path {
        fill: none;
        stroke-linecap: butt;
        stroke-linejoin: bevel;
        stroke-dasharray: none;
    }
    path.outer {
        stroke: #000000;
        stroke-dasharray: none;
        stroke-dashoffset: 0;
        stroke-width: 0.3;
        stroke-opacity: 1.0;
    }
    path.convex {
        stroke: #000000;
        stroke-dasharray: 0.50,1.00;
        stroke-dashoffset:0;
        stroke-width:0.2;
        stroke-opacity: 1.0
    }
    path.concave {
        stroke: #000000;
        stroke-dasharray: 1.00,0.50,0.20,0.50;
        stroke-dashoffset: 0;
        stroke-width: 0.2;
        stroke-opacity: 1.0
    }
    path.freestyle {
        stroke: #000000;
        stroke-dasharray: none;
        stroke-dashoffset: 0;
        stroke-width: 0.2;
        stroke-opacity: 1.0
    }
    path.outer_background {
        stroke: #ffffff;
        stroke-opacity: 1.0;
        stroke-width: 0.5
    }
    path.inner_background {
        stroke: #ffffff;
        stroke-opacity: 1.0;
        stroke-width: 0.2
    }
    path.sticker {
        fill: #e5e5e5;
        stroke: none;
        fill-opacity: 1.0;
    }
    path.arrow {
        fill: #000000;
    }
    text {
        font-style: normal;
        fill: #000000;
        fill-opacity: 1.0;
        stroke: none;
    }
    text, tspan {
        text-anchor:middle;
    }
    </style>
  <g
     id="g84">
    <g
       id="g1165">
      <path
         d="m 93.931099,263.97867 h -2.539063 v -9.51172 h 2.539063 v 0.69824 h -1.689453 v 8.11524 h 1.689453 z"
         style="font-style:normal;font-size:medium;text-anchor:middle;fill:none;fill-opacity:1;stroke:#000000;stroke-width:0.06614583;stroke-linecap:butt;stroke-linejoin:bevel;stroke-dasharray:none;stroke-opacity:1"
         id="path919"
         inkscape:connector-curvature="0" />
      <path
         d="m 100.42524,259.75504 q 0,0.50781 -0.18555,0.97168 -0.18554,0.46386 -0.50781,0.78125 -0.351562,0.34179 -0.839844,0.52734 -0.483398,0.18066 -1.123046,0.18066 -0.595704,0 -1.147461,-0.12695 -0.551758,-0.12207 -0.932618,-0.29785 v -1.03028 h 0.06836 q 0.40039,0.25391 0.9375,0.43458 0.537109,0.17578 1.054687,0.17578 0.34668,0 0.668946,-0.0977 0.327148,-0.0977 0.581054,-0.3418 0.214844,-0.20996 0.322266,-0.50293 0.112305,-0.29297 0.112305,-0.67871 0,-0.37597 -0.131836,-0.63476 -0.126953,-0.25879 -0.356446,-0.41504 -0.253906,-0.18555 -0.620117,-0.25879 -0.361328,-0.0781 -0.810547,-0.0781 -0.429687,0 -0.830078,0.0586 -0.395508,0.0586 -0.683594,0.11719 v -3.74512 h 4.374999 v 0.85449 h -3.432616 v 1.93359 q 0.209961,-0.0195 0.429688,-0.0293 0.219726,-0.01 0.380859,-0.01 0.59082,0 1.035156,0.10254 0.444336,0.0977 0.81543,0.35156 0.390625,0.26856 0.605473,0.69336 0.21484,0.42481 0.21484,1.06446 z"
         style="font-style:normal;font-size:medium;text-anchor:middle;fill:none;fill-opacity:1;stroke:#000000;stroke-width:0.06614583;stroke-linecap:butt;stroke-linejoin:bevel;stroke-dasharray:none;stroke-opacity:1"
         id="path921"
         inkscape:connector-curvature="0" />
      <path
         d="m 104.51704,263.97867 h -2.53907 v -0.69824 h 1.68946 v -8.11524 h -1.68946 v -0.69824 h 2.53907 z"
         style="font-style:normal;font-size:medium;text-anchor:middle;fill:none;fill-opacity:1;stroke:#000000;stroke-width:0.06614583;stroke-linecap:butt;stroke-linejoin:bevel;stroke-dasharray:none;stroke-opacity:1"
         id="path923"
         inkscape:connector-curvature="0" />
      <path
         d="m 112.74946,262.06461 h -2.8711 v -0.74219 h 0.95215 v -5.78613 h -0.95215 v -0.74219 h 2.8711 v 0.74219 h -0.95215 v 5.78613 h 0.95215 z"
         style="font-style:normal;font-size:medium;text-anchor:middle;fill:none;fill-opacity:1;stroke:#000000;stroke-width:0.06614583;stroke-linecap:butt;stroke-linejoin:bevel;stroke-dasharray:none;stroke-opacity:1"
         id="path925"
         inkscape:connector-curvature="0" />
      <path
         d="m 122.59321,259.75504 q 0,0.50781 -0.18555,0.97168 -0.18555,0.46386 -0.50781,0.78125 -0.35156,0.34179 -0.83984,0.52734 -0.4834,0.18066 -1.12305,0.18066 -0.5957,0 -1.14746,-0.12695 -0.55176,-0.12207 -0.93262,-0.29785 v -1.03028 h 0.0684 q 0.40039,0.25391 0.9375,0.43458 0.53711,0.17578 1.05469,0.17578 0.34668,0 0.66894,-0.0977 0.32715,-0.0977 0.58106,-0.3418 0.21484,-0.20996 0.32226,-0.50293 0.11231,-0.29297 0.11231,-0.67871 0,-0.37597 -0.13184,-0.63476 -0.12695,-0.25879 -0.35644,-0.41504 -0.25391,-0.18555 -0.62012,-0.25879 -0.36133,-0.0781 -0.81055,-0.0781 -0.42969,0 -0.83008,0.0586 -0.3955,0.0586 -0.68359,0.11719 v -3.74512 h 4.375 v 0.85449 h -3.43262 v 1.93359 q 0.20996,-0.0195 0.42969,-0.0293 0.21973,-0.01 0.38086,-0.01 0.59082,0 1.03516,0.10254 0.44433,0.0977 0.81543,0.35156 0.39062,0.26856 0.60546,0.69336 0.21485,0.42481 0.21485,1.06446 z"
         style="font-style:normal;font-size:medium;text-anchor:middle;fill:none;fill-opacity:1;stroke:#000000;stroke-width:0.06614583;stroke-linecap:butt;stroke-linejoin:bevel;stroke-dasharray:none;stroke-opacity:1"
         id="path927"
         inkscape:connector-curvature="0" />
      <path
         style="stroke:#000000;stroke-opacity:1;stroke-width:0.06614583"
         id="path8"
         d=" M 175.395146 208.000034 L 182.449579 200.910628 L 199.209288 217.071712 L 192.381024 224.379212 Z M 192.381024 224.379212 L 202.288851 223.015517 L 209.127039 267.511785 L 199.266940 269.186020 Z M 199.266940 291.075289 L 209.266931 291.232407 L 209.266931 326.970994 L 199.266940 327.128083 Z M 58.977053 208.000034 L 59.134141 198.000014 L 105.797030 198.000014 L 105.954126 208.000004 Z M 11.999995 256.750047 L 1.999989 256.592929 L 1.999989 235.043943 L 11.999995 234.886855 Z M 12.000009 403.000027 L 2.000004 402.842939 L 1.999989 327.285171 L 11.999995 327.128083 Z M 199.266940 327.128083 L 209.266946 327.285171 L 209.266946 402.842924 L 199.266940 403.000012 Z M 11.999995 327.128083 L 1.999989 326.970994 L 1.999989 256.907135 L 11.999995 256.750047 Z M 199.266940 269.186020 L 209.266931 269.343108 L 209.266931 290.918231 L 199.266940 291.075289 Z M 11.999995 234.886855 L 1.999989 234.729767 L 1.999989 208.157122 L 11.999995 208.000034 Z M 11.999995 208.000034 L 12.157083 198.000044 L 58.819965 198.000014 L 58.977053 208.000034 Z M 105.954126 208.000004 L 106.111221 198.000014 L 175.238058 198.000014 L 175.395146 208.000034 Z M 192.381054 581.620812 L 199.209303 588.928312 L 182.449609 605.089396 L 175.395176 597.999990 Z M 199.266955 536.814034 L 209.127054 538.488269 L 202.288866 582.984507 L 192.381054 581.620812 Z M 199.266955 478.871942 L 209.266946 479.029030 L 209.266946 514.767617 L 199.266955 514.924705 Z M 105.954155 597.999990 L 105.797060 607.999980 L 59.134170 608.000010 L 58.977082 598.000020 Z M 12.000024 571.113199 L 2.000019 570.956111 L 2.000004 549.407125 L 12.000009 549.250036 Z M 12.000024 478.871971 L 2.000019 478.714883 L 2.000004 403.157115 L 12.000009 403.000027 Z M 199.266940 403.000012 L 209.266946 403.157100 L 209.266946 478.714854 L 199.266955 478.871942 Z M 12.000009 549.250036 L 2.000004 549.092948 L 2.000019 479.029059 L 12.000024 478.871971 Z M 199.266955 514.924705 L 209.266946 515.081793 L 209.266946 536.656946 L 199.266955 536.814034 Z M 12.000024 598.000020 L 2.000019 597.842932 L 2.000019 571.270287 L 12.000024 571.113199 Z M 58.977082 598.000020 L 58.819994 608.000010 L 12.157112 608.000010 L 12.000024 598.000020 Z M 175.395176 597.999990 L 175.238088 607.999980 L 106.111251 607.999980 L 105.954155 597.999990 Z "
         class="sticker" />
      <path
         style="stroke:#000000;stroke-opacity:1;stroke-width:0.06614583"
         id="path10"
         d=" M 209.266931 291.232407 L 209.266931 326.970994 L 199.266940 327.128083 L 209.266946 327.285171 L 209.266946 402.842924 L 199.266940 403.000012 L 209.266946 403.157100 L 209.266946 478.714854 L 199.266955 478.871942 L 209.266946 479.029030 L 209.266946 514.767617 L 199.266955 514.924705 L 209.266946 515.081793 L 209.266946 536.656946 L 199.266955 536.814034 L 209.127054 538.488269 L 202.288866 582.984507 L 192.381054 581.620812 L 199.209303 588.928312 L 182.449609 605.089396 L 175.395176 597.999990 L 175.238088 607.999980 L 106.111251 607.999980 L 105.954155 597.999990 L 105.797060 607.999980 L 59.134170 608.000010 L 58.977082 598.000020 L 58.819994 608.000010 L 12.157112 608.000010 L 12.000024 598.000020 L 2.000019 597.842932 L 2.000019 571.270287 L 12.000024 571.113199 L 2.000019 570.956111 L 2.000004 549.407125 L 12.000009 549.250036 L 2.000004 549.092948 L 2.000019 479.029059 L 12.000024 478.871971 L 2.000019 478.714883 L 2.000004 403.157115 L 12.000009 403.000027 L 2.000004 402.842939 L 1.999989 327.285171 L 11.999995 327.128083 L 1.999989 326.970994 L 1.999989 256.907135 L 11.999995 256.750047 L 1.999989 256.592929 L 1.999989 235.043943 L 11.999995 234.886855 L 1.999989 234.729767 L 1.999989 208.157122 L 11.999995 208.000034 L 12.157083 198.000044 L 58.819965 198.000014 L 58.977053 208.000034 L 59.134141 198.000014 L 105.797030 198.000014 L 105.954126 208.000004 L 106.111221 198.000014 L 175.238058 198.000014 L 175.395146 208.000034 L 182.449579 200.910628 L 199.209288 217.071712 L 192.381024 224.379212 L 202.288851 223.015517 L 209.127039 267.511785 L 199.266940 269.186020 L 209.266931 269.343108 L 209.266931 290.918231 L 199.266940 291.075289 Z "
         class="outer" />
      <path
         d="m 180.90488,210.81249 -2.54968,-2.45862 0.46366,-0.48083 0.98065,0.94562 3.0443,-3.15705 -0.98065,-0.94563 0.41485,-0.43022 q 0.19929,0.19218 0.45756,0.38017 0.26132,0.18483 0.43937,0.23443 0.22178,0.0612 0.41994,0.0203 0.20438,-0.041 0.41531,-0.23443 l 0.49032,0.47281 -4.09363,4.24526 0.96166,0.92732 z"
         style="font-style:normal;font-size:medium;text-anchor:middle;fill:none;fill-opacity:1;stroke:#000000;stroke-width:0.06614582;stroke-linecap:butt;stroke-linejoin:bevel;stroke-dasharray:none;stroke-opacity:1"
         id="path930"
         inkscape:connector-curvature="0" />
      <path
         d="m 186.68449,213.82775 -0.6991,-0.67414 -1.27812,1.32546 -0.60737,-0.58568 1.27812,-1.32545 -2.25549,-2.17494 0.70159,-0.72758 4.84313,-0.4579 0.58206,0.56127 -2.77586,2.87868 0.69911,0.67414 z m -0.81841,-1.76596 2.04987,-2.12579 -3.87514,0.36571 z"
         style="font-style:normal;font-size:medium;text-anchor:middle;fill:none;fill-opacity:1;stroke:#000000;stroke-width:0.06614582;stroke-linecap:butt;stroke-linejoin:bevel;stroke-dasharray:none;stroke-opacity:1"
         id="path932"
         inkscape:connector-curvature="0" />
      <path
         d="m 190.11439,214.61385 -0.75605,-0.72905 0.86936,-0.90156 0.75605,0.72904 z m -2.53793,2.63193 -0.75605,-0.72905 0.86936,-0.90156 0.75605,0.72905 z"
         style="font-style:normal;font-size:medium;text-anchor:middle;fill:none;fill-opacity:1;stroke:#000000;stroke-width:0.06614582;stroke-linecap:butt;stroke-linejoin:bevel;stroke-dasharray:none;stroke-opacity:1"
         id="path934"
         inkscape:connector-curvature="0" />
      <path
         d="m 192.37214,221.87018 -3.18869,-3.0748 0.63754,-0.66115 q 0.60669,0.0356 1.21338,0.0712 0.60985,0.0386 1.1692,0.0347 1.17475,-0.003 1.73184,-0.13094 0.56014,-0.13139 0.94755,-0.53314 0.35384,-0.36696 0.30854,-0.80746 -0.0391,-0.44061 -0.47248,-0.85851 -0.28786,-0.27759 -0.7208,-0.4997 -0.43293,-0.22212 -0.95375,-0.32143 l -0.0316,-0.0305 0.64059,-0.66431 q 0.33136,0.10586 0.7931,0.37407 0.4649,0.27126 0.81604,0.60985 0.72441,0.69854 0.79706,1.44623 0.0757,0.74452 -0.50083,1.3424 -0.25928,0.26889 -0.55461,0.43587 -0.28911,0.16687 -0.6233,0.24754 -0.31249,0.0772 -0.66318,0.10529 -0.34752,0.0312 -0.80745,0.0333 -0.65877,0.006 -1.32139,-0.0288 -0.65956,-0.0377 -1.22897,-0.074 l 2.53387,2.44336 z"
         style="font-style:normal;font-size:medium;text-anchor:middle;fill:none;fill-opacity:1;stroke:#000000;stroke-width:0.06614582;stroke-linecap:butt;stroke-linejoin:bevel;stroke-dasharray:none;stroke-opacity:1"
         id="path936"
         inkscape:connector-curvature="0" />
      <path
         d="m 196.71003,240.69754 -0.53802,-3.50089 0.66022,-0.10146 0.20693,1.34649 4.33485,-0.66618 -0.20693,-1.34649 0.59072,-0.0908 q 0.0421,0.27365 0.13355,0.57971 0.0958,0.30539 0.20741,0.45275 0.1393,0.18311 0.32171,0.27068 0.18742,0.0912 0.47242,0.0652 l 0.10346,0.67325 -5.82903,0.8958 0.20293,1.32044 z"
         style="font-style:normal;font-size:medium;text-anchor:middle;fill:none;fill-opacity:1;stroke:#000000;stroke-width:0.06614585;stroke-linecap:butt;stroke-linejoin:bevel;stroke-dasharray:none;stroke-opacity:1"
         id="path939"
         inkscape:connector-curvature="0" />
      <path
         d="m 197.63721,246.73072 -0.67286,-4.37829 0.9078,-0.13951 q 0.46101,0.39599 0.92202,0.79199 0.46167,0.40034 0.90899,0.73619 0.93606,0.7098 1.4569,0.94543 0.52519,0.23497 1.07682,0.15019 0.50385,-0.0774 0.73478,-0.45527 0.23594,-0.37416 0.14449,-0.96923 -0.0607,-0.39526 -0.27049,-0.83432 -0.20975,-0.43905 -0.56385,-0.83369 l -0.007,-0.0434 0.91214,-0.14017 q 0.19942,0.28502 0.40415,0.7782 0.2054,0.49753 0.27949,0.97966 0.15286,0.99467 -0.24249,1.63342 -0.39102,0.63809 -1.21194,0.76425 -0.36921,0.0567 -0.70531,0.0106 -0.3311,-0.0425 -0.64581,-0.18086 -0.29533,-0.12801 -0.59132,-0.31817 -0.29532,-0.18581 -0.66247,-0.46285 -0.52749,-0.39467 -1.0336,-0.82375 -0.50176,-0.42974 -0.9327,-0.80368 l 0.53468,3.47917 z"
         style="font-style:normal;font-size:medium;text-anchor:middle;fill:none;fill-opacity:1;stroke:#000000;stroke-width:0.06614585;stroke-linecap:butt;stroke-linejoin:bevel;stroke-dasharray:none;stroke-opacity:1"
         id="path941"
         inkscape:connector-curvature="0" />
      <path
         d="m 201.73165,249.30269 -0.15954,-1.03811 1.23791,-0.19024 0.15954,1.03811 z m -3.61383,0.55537 -0.15953,-1.0381 1.2379,-0.19024 0.15954,1.0381 z"
         style="font-style:normal;font-size:medium;text-anchor:middle;fill:none;fill-opacity:1;stroke:#000000;stroke-width:0.06614585;stroke-linecap:butt;stroke-linejoin:bevel;stroke-dasharray:none;stroke-opacity:1"
         id="path943"
         inkscape:connector-curvature="0" />
      <path
         d="m 199.07304,256.07367 -0.53802,-3.50089 0.66022,-0.10147 0.20693,1.3465 4.33485,-0.66618 -0.20693,-1.3465 0.59072,-0.0908 q 0.042,0.27364 0.13355,0.5797 0.0958,0.30539 0.20741,0.45276 0.13929,0.18311 0.3217,0.27068 0.18742,0.0912 0.47242,0.0652 l 0.10347,0.67325 -5.82903,0.89581 0.20293,1.32044 z"
         style="font-style:normal;font-size:medium;text-anchor:middle;fill:none;fill-opacity:1;stroke:#000000;stroke-width:0.06614585;stroke-linecap:butt;stroke-linejoin:bevel;stroke-dasharray:none;stroke-opacity:1"
         id="path945"
         inkscape:connector-curvature="0" />
      <path
         class="arrow"
         d="m 12.000009,365.06405 9.999997,-10 -7.499997,10 7.500001,10 z"
         id="path20"
         style="fill:#000000;stroke:#000000;stroke-width:0.06614579;stroke-linecap:butt;stroke-linejoin:bevel;stroke-dasharray:none;stroke-opacity:1"
         inkscape:connector-curvature="0" />
      <path
         inkscape:connector-curvature="0"
         id="path948"
         style="font-style:normal;font-size:medium;text-anchor:middle;fill:none;fill-opacity:1;stroke:#000000;stroke-width:0.06614583;stroke-linecap:butt;stroke-linejoin:bevel;stroke-dasharray:none;stroke-opacity:1"
         d="m 23.109384,369.06406 h -3.935547 v -0.74219 h 1.513672 v -4.87304 h -1.513672 v -0.66407 q 0.307617,0 0.65918,-0.0488 0.351562,-0.0537 0.532226,-0.15137 0.22461,-0.12207 0.351563,-0.30762 0.131836,-0.19043 0.151367,-0.50781 h 0.756836 v 6.55273 h 1.484375 z" />
      <path
         d="m 10.20001,367.70516 v 4.42969 H 9.281553 Q 8.8860452,371.67342 8.4905373,371.212 8.0950295,370.74618 7.7039162,370.34628 6.8865334,369.50253 6.4075295,369.19051 5.9241311,368.8785 5.3660256,368.8785 q -0.5097656,0 -0.7954101,0.33838 -0.2900391,0.33399 -0.2900391,0.93604 0,0.3999 0.140625,0.86572 0.140625,0.46582 0.4306641,0.90967 v 0.0439 H 3.9290139 q -0.1538086,-0.31201 -0.28125,-0.83056 -0.1274414,-0.52295 -0.1274414,-1.01075 0,-1.00634 0.487793,-1.57763 0.4833984,-0.57129 1.3139648,-0.57129 0.3735352,0 0.6987305,0.0967 0.3208008,0.0923 0.6108398,0.27685 0.272461,0.17139 0.5361328,0.4043 0.2636719,0.22852 0.5844727,0.55811 0.4614258,0.47021 0.8964844,0.97119 0.430664,0.50097 0.7998047,0.93603 v -3.52002 z"
         style="font-style:normal;font-size:medium;text-anchor:middle;fill:none;fill-opacity:1;stroke:#000000;stroke-width:0.06614583;stroke-linecap:butt;stroke-linejoin:bevel;stroke-dasharray:none;stroke-opacity:1"
         id="path951"
         inkscape:connector-curvature="0" />
      <path
         d="m 6.54376,364.5411 v 1.05029 H 5.2913186 v -1.05029 z m 3.65625,0 v 1.05029 H 8.9475686 v -1.05029 z"
         style="font-style:normal;font-size:medium;text-anchor:middle;fill:none;fill-opacity:1;stroke:#000000;stroke-width:0.06614583;stroke-linecap:butt;stroke-linejoin:bevel;stroke-dasharray:none;stroke-opacity:1"
         id="path953"
         inkscape:connector-curvature="0" />
      <path
         d="m 10.20001,358.25253 v 3.54199 H 9.5320412 v -1.36231 H 5.1462991 v 1.36231 H 4.5486428 q 0,-0.27686 -0.043945,-0.59326 -0.04834,-0.31641 -0.1362305,-0.47901 -0.1098632,-0.20215 -0.2768554,-0.3164 -0.1713868,-0.11866 -0.4570313,-0.13623 v -0.68116 h 5.8974609 v -1.33593 z"
         style="font-style:normal;font-size:medium;text-anchor:middle;fill:none;fill-opacity:1;stroke:#000000;stroke-width:0.06614583;stroke-linecap:butt;stroke-linejoin:bevel;stroke-dasharray:none;stroke-opacity:1"
         id="path955"
         inkscape:connector-curvature="0" />
      <path
         class="arrow"
         d="m 11.999995,221.44344 9.999998,-10 -7.499998,10 7.500002,10 z"
         id="path32"
         style="fill:#000000;stroke:#000000;stroke-width:0.0661458;stroke-linecap:butt;stroke-linejoin:bevel;stroke-dasharray:none;stroke-opacity:1"
         inkscape:connector-curvature="0" />
      <path
         inkscape:connector-curvature="0"
         id="path958"
         style="font-style:normal;font-size:medium;text-anchor:middle;fill:none;fill-opacity:1;stroke:#000000;stroke-width:0.06614583;stroke-linecap:butt;stroke-linejoin:bevel;stroke-dasharray:none;stroke-opacity:1"
         d="m 23.524408,225.44345 h -4.921875 v -1.02051 q 0.512695,-0.43945 1.025391,-0.8789 0.517578,-0.43946 0.961914,-0.87403 0.9375,-0.9082 1.284179,-1.44043 0.34668,-0.53711 0.34668,-1.15722 0,-0.56641 -0.375976,-0.88379 -0.371094,-0.32227 -1.04004,-0.32227 -0.444335,0 -0.961914,0.15625 -0.517578,0.15625 -1.010742,0.47852 h -0.04883 v -1.02539 q 0.34668,-0.1709 0.922852,-0.3125 0.581054,-0.1416 1.123047,-0.1416 1.118164,0 1.752929,0.54199 0.634766,0.53711 0.634766,1.45996 0,0.41504 -0.107422,0.77637 -0.102539,0.35644 -0.307617,0.67871 -0.19043,0.30273 -0.449219,0.5957 -0.253906,0.29297 -0.620117,0.64941 -0.522461,0.5127 -1.079102,0.9961 -0.55664,0.47851 -1.040039,0.88867 h 3.911133 z" />
      <path
         d="m 10.2,224.08455 v 4.42969 H 9.281543 q -0.3955078,-0.46143 -0.7910157,-0.92285 -0.3955078,-0.46582 -0.7866211,-0.86572 -0.8173828,-0.84375 -1.2963867,-1.15577 -0.4833984,-0.31201 -1.0415039,-0.31201 -0.5097656,0 -0.7954101,0.33838 -0.2900391,0.33399 -0.2900391,0.93604 0,0.3999 0.140625,0.86572 0.140625,0.46582 0.4306641,0.90967 v 0.0439 H 3.9290039 q -0.1538086,-0.31201 -0.28125,-0.83056 -0.1274414,-0.52295 -0.1274414,-1.01075 0,-1.00634 0.487793,-1.57763 0.4833984,-0.57129 1.3139648,-0.57129 0.3735352,0 0.6987305,0.0967 0.3208008,0.0923 0.6108398,0.27685 0.272461,0.17139 0.5361328,0.4043 0.2636719,0.22852 0.5844727,0.55811 0.4614258,0.47021 0.8964844,0.97119 0.430664,0.50097 0.7998047,0.93603 v -3.52002 z"
         style="font-style:normal;font-size:medium;text-anchor:middle;fill:none;fill-opacity:1;stroke:#000000;stroke-width:0.06614583;stroke-linecap:butt;stroke-linejoin:bevel;stroke-dasharray:none;stroke-opacity:1"
         id="path961"
         inkscape:connector-curvature="0" />
      <path
         d="m 6.54375,220.92049 v 1.05029 H 5.2913086 v -1.05029 z m 3.65625,0 v 1.05029 H 8.9475586 v -1.05029 z"
         style="font-style:normal;font-size:medium;text-anchor:middle;fill:none;fill-opacity:1;stroke:#000000;stroke-width:0.06614583;stroke-linecap:butt;stroke-linejoin:bevel;stroke-dasharray:none;stroke-opacity:1"
         id="path963"
         inkscape:connector-curvature="0" />
      <path
         d="m 10.2,214.25838 v 4.42969 H 9.281543 q -0.3955078,-0.46143 -0.7910157,-0.92285 -0.3955078,-0.46582 -0.7866211,-0.86573 -0.8173828,-0.84375 -1.2963867,-1.15576 -0.4833984,-0.31201 -1.0415039,-0.31201 -0.5097656,0 -0.7954101,0.33838 -0.2900391,0.33398 -0.2900391,0.93604 0,0.3999 0.140625,0.86572 0.140625,0.46582 0.4306641,0.90967 v 0.0439 H 3.9290039 q -0.1538086,-0.31201 -0.28125,-0.83057 -0.1274414,-0.52294 -0.1274414,-1.01074 0,-1.00635 0.487793,-1.57763 0.4833984,-0.57129 1.3139648,-0.57129 0.3735352,0 0.6987305,0.0967 0.3208008,0.0923 0.6108398,0.27685 0.272461,0.17139 0.5361328,0.4043 0.2636719,0.22851 0.5844727,0.5581 0.4614258,0.47022 0.8964844,0.9712 0.430664,0.50097 0.7998047,0.93603 v -3.52002 z"
         style="font-style:normal;font-size:medium;text-anchor:middle;fill:none;fill-opacity:1;stroke:#000000;stroke-width:0.06614583;stroke-linecap:butt;stroke-linejoin:bevel;stroke-dasharray:none;stroke-opacity:1"
         id="path965"
         inkscape:connector-curvature="0" />
      <path
         d="m 29.608648,206.20003 h -3.541992 v -0.66797 h 1.362305 v -4.38574 h -1.362305 v -0.59766 q 0.276856,0 0.593262,-0.0439 0.316406,-0.0483 0.479004,-0.13623 0.202148,-0.10987 0.316406,-0.27686 0.118652,-0.17138 0.13623,-0.45703 h 0.681153 v 5.89746 h 1.335937 z"
         style="font-style:normal;font-size:medium;text-anchor:middle;fill:none;fill-opacity:1;stroke:#000000;stroke-width:0.06614583;stroke-linecap:butt;stroke-linejoin:bevel;stroke-dasharray:none;stroke-opacity:1"
         id="path968"
         inkscape:connector-curvature="0" />
      <path
         d="m 35.862066,204.35872 h -0.971191 v 1.84131 h -0.84375 v -1.84131 h -3.133301 v -1.01074 l 3.168457,-3.69141 h 0.808594 v 3.99903 h 0.971191 z m -1.814941,-0.70312 v -2.95313 l -2.535645,2.95313 z"
         style="font-style:normal;font-size:medium;text-anchor:middle;fill:none;fill-opacity:1;stroke:#000000;stroke-width:0.06614583;stroke-linecap:butt;stroke-linejoin:bevel;stroke-dasharray:none;stroke-opacity:1"
         id="path970"
         inkscape:connector-curvature="0" />
      <path
         d="m 38.876715,202.54378 h -1.050293 v -1.25244 h 1.050293 z m 0,3.65625 h -1.050293 v -1.25244 h 1.050293 z"
         style="font-style:normal;font-size:medium;text-anchor:middle;fill:none;fill-opacity:1;stroke:#000000;stroke-width:0.06614583;stroke-linecap:butt;stroke-linejoin:bevel;stroke-dasharray:none;stroke-opacity:1"
         id="path972"
         inkscape:connector-curvature="0" />
      <path
         d="m 45.48609,204.12142 q 0,0.45703 -0.166993,0.87451 -0.166992,0.41748 -0.457031,0.70312 -0.316406,0.30762 -0.755859,0.47461 -0.435059,0.1626 -1.010742,0.1626 -0.536133,0 -1.032715,-0.11426 -0.496582,-0.10986 -0.839356,-0.26806 v -0.92725 h 0.06152 q 0.360352,0.22852 0.84375,0.39111 0.483399,0.15821 0.949219,0.15821 0.312012,0 0.602051,-0.0879 0.294433,-0.0879 0.522949,-0.30762 0.193359,-0.18897 0.290039,-0.45264 0.101074,-0.26367 0.101074,-0.61084 0,-0.33838 -0.118652,-0.57129 -0.114257,-0.23291 -0.3208,-0.37353 -0.228516,-0.16699 -0.558106,-0.23291 -0.325195,-0.0703 -0.729492,-0.0703 -0.386719,0 -0.74707,0.0527 -0.355957,0.0527 -0.615235,0.10547 v -3.37061 h 3.9375 v 0.76905 h -3.089355 v 1.74023 q 0.188965,-0.0176 0.386719,-0.0264 0.197754,-0.009 0.342773,-0.009 0.531738,0 0.931641,0.0923 0.399902,0.0879 0.733886,0.3164 0.351563,0.2417 0.544922,0.62403 0.19336,0.38232 0.19336,0.95801 z"
         style="font-style:normal;font-size:medium;text-anchor:middle;fill:none;fill-opacity:1;stroke:#000000;stroke-width:0.06614583;stroke-linecap:butt;stroke-linejoin:bevel;stroke-dasharray:none;stroke-opacity:1"
         id="path974"
         inkscape:connector-curvature="0" />
      <path
         d="m 189.37015,587.02469 2.54969,-2.45861 0.46366,0.48083 -0.98065,0.94562 3.04429,3.15706 0.98065,-0.94563 0.41486,0.43022 q -0.1993,0.19218 -0.39656,0.44344 -0.19421,0.25443 -0.25024,0.43056 -0.0693,0.2194 -0.0356,0.41892 0.0336,0.20573 0.21917,0.42355 l -0.49032,0.47282 -4.09363,-4.24526 -0.96167,0.92732 z"
         style="font-style:normal;font-size:medium;text-anchor:middle;fill:none;fill-opacity:1;stroke:#000000;stroke-width:0.06614587;stroke-linecap:butt;stroke-linejoin:bevel;stroke-dasharray:none;stroke-opacity:1"
         id="path977"
         inkscape:connector-curvature="0" />
      <path
         d="m 187.57775,593.13023 q -0.28301,0.0104 -0.57935,-0.10066 -0.29634,-0.11106 -0.61053,-0.43689 -0.31114,-0.32266 -0.45338,-0.70441 -0.14223,-0.38176 -0.12246,-0.78543 0.0237,-0.45021 0.24267,-0.86891 0.21884,-0.41248 0.60161,-0.78158 0.39226,-0.37824 0.86338,-0.64939 0.46807,-0.27431 0.81841,-0.39847 l 0.63753,0.66115 -0.0474,0.0457 q -0.43971,0.0821 -0.91636,0.31589 -0.47665,0.23375 -0.81514,0.56014 -0.19929,0.19217 -0.35983,0.47518 -0.16054,0.28301 -0.17467,0.54693 -0.0113,0.2795 0.0808,0.51427 0.0889,0.23782 0.336,0.49405 0.24403,0.25307 0.4849,0.33826 0.24075,0.0914 0.47462,0.049 0.23691,-0.0392 0.47292,-0.19963 0.23906,-0.15726 0.47315,-0.38299 l 0.28471,-0.27454 0.50636,0.52512 -0.22143,0.21353 q -0.48084,0.46366 -0.57337,0.93749 -0.0926,0.48004 0.27951,0.86597 0.16472,0.17083 0.35949,0.2272 0.19783,0.0595 0.40684,0.0167 0.21533,-0.0489 0.40084,-0.16675 0.18551,-0.11784 0.38164,-0.30696 0.30052,-0.28979 0.53529,-0.72373 0.23477,-0.43395 0.34616,-0.91987 l 0.0316,-0.0305 0.63753,0.66114 q -0.11784,0.3273 -0.40265,0.77898 -0.28493,0.4579 -0.63607,0.7965 -0.34481,0.33249 -0.66838,0.5224 -0.32357,0.18992 -0.66973,0.25511 -0.37418,0.0678 -0.69865,-0.0345 -0.32447,-0.10225 -0.60206,-0.39012 -0.37825,-0.39225 -0.38356,-0.95488 -0.005,-0.55642 0.29781,-0.99534 l -0.0427,-0.0443 q -0.17625,0.12111 -0.45169,0.22798 -0.27239,0.11004 -0.52433,0.121 z"
         style="font-style:normal;font-size:medium;text-anchor:middle;fill:none;fill-opacity:1;stroke:#000000;stroke-width:0.06614587;stroke-linecap:butt;stroke-linejoin:bevel;stroke-dasharray:none;stroke-opacity:1"
         id="path979"
         inkscape:connector-curvature="0" />
      <path
         d="m 185.23651,596.08991 0.75605,-0.72905 0.86936,0.90157 -0.75605,0.72904 z m -2.53793,-2.63194 0.75605,-0.72904 0.86936,0.90156 -0.75604,0.72905 z"
         style="font-style:normal;font-size:medium;text-anchor:middle;fill:none;fill-opacity:1;stroke:#000000;stroke-width:0.06614587;stroke-linecap:butt;stroke-linejoin:bevel;stroke-dasharray:none;stroke-opacity:1"
         id="path981"
         inkscape:connector-curvature="0" />
      <path
         d="m 177.9029,598.08237 3.18869,-3.0748 0.63753,0.66115 q -0.0576,0.605 -0.11524,1.20999 -0.0608,0.60805 -0.0772,1.16717 -0.04,1.17407 0.0679,1.73546 0.11094,0.56455 0.49834,0.96629 0.35385,0.36696 0.7957,0.3377 0.44175,-0.0231 0.87513,-0.44095 0.28787,-0.27759 0.52557,-0.70216 0.23771,-0.42457 0.35589,-0.94144 l 0.0316,-0.0305 0.64058,0.66431 q -0.11783,0.3273 -0.40265,0.77898 -0.28798,0.45474 -0.63912,0.79333 -0.72441,0.69854 -1.47425,0.74396 -0.74678,0.0486 -1.3233,-0.5493 -0.25929,-0.26889 -0.41542,-0.57009 -0.15625,-0.29498 -0.22471,-0.63188 -0.0658,-0.3151 -0.0811,-0.66657 -0.0185,-0.34842 -0.004,-0.80813 0.0182,-0.65855 0.0768,-1.31947 0.0617,-0.65775 0.11863,-1.22547 l -2.53387,2.44337 z"
         style="font-style:normal;font-size:medium;text-anchor:middle;fill:none;fill-opacity:1;stroke:#000000;stroke-width:0.06614587;stroke-linecap:butt;stroke-linejoin:bevel;stroke-dasharray:none;stroke-opacity:1"
         id="path983"
         inkscape:connector-curvature="0" />
      <path
         d="m 198.49635,553.67923 0.53801,-3.50089 0.66022,0.10146 -0.20693,1.3465 4.33485,0.66618 0.20693,-1.3465 0.59073,0.0908 q -0.0421,0.27364 -0.0467,0.59305 -2.9e-4,0.32008 0.0619,0.49414 0.0779,0.21649 0.22558,0.35479 0.15137,0.14331 0.43103,0.20407 l -0.10346,0.67325 -5.82903,-0.89581 -0.20293,1.32044 z"
         style="font-style:normal;font-size:medium;text-anchor:middle;fill:none;fill-opacity:1;stroke:#000000;stroke-width:0.06614585;stroke-linecap:butt;stroke-linejoin:bevel;stroke-dasharray:none;stroke-opacity:1"
         id="path986"
         inkscape:connector-curvature="0" />
      <path
         d="m 197.56917,559.71241 0.67285,-4.37829 0.9078,0.13951 q 0.32083,0.51615 0.64166,1.0323 0.32016,0.52049 0.64599,0.97516 0.67974,0.95812 1.10579,1.33927 0.4304,0.38182 0.98203,0.46659 0.50385,0.0774 0.83758,-0.21363 0.3374,-0.28605 0.42885,-0.88112 0.0607,-0.39526 -0.007,-0.87704 -0.0682,-0.48177 -0.28749,-0.96453 l 0.007,-0.0434 0.91214,0.14018 q 0.10463,0.33175 0.15183,0.86365 0.0465,0.53624 -0.0276,1.01837 -0.15286,0.99467 -0.72177,1.48524 -0.56456,0.49123 -1.38549,0.36507 -0.3692,-0.0567 -0.67594,-0.20169 -0.30306,-0.13995 -0.5617,-0.36643 -0.24326,-0.21079 -0.4685,-0.48104 -0.2259,-0.26592 -0.49291,-0.64041 -0.38465,-0.53485 -0.73856,-1.0961 -0.34957,-0.56058 -0.64835,-1.04666 l -0.53468,3.47917 z"
         style="font-style:normal;font-size:medium;text-anchor:middle;fill:none;fill-opacity:1;stroke:#000000;stroke-width:0.06614585;stroke-linecap:butt;stroke-linejoin:bevel;stroke-dasharray:none;stroke-opacity:1"
         id="path988"
         inkscape:connector-curvature="0" />
      <path
         d="m 200.70238,563.39513 0.15954,-1.03811 1.2379,0.19025 -0.15953,1.0381 z m -3.61383,-0.55537 0.15954,-1.03811 1.23791,0.19024 -0.15954,1.03811 z"
         style="font-style:normal;font-size:medium;text-anchor:middle;fill:none;fill-opacity:1;stroke:#000000;stroke-width:0.06614585;stroke-linecap:butt;stroke-linejoin:bevel;stroke-dasharray:none;stroke-opacity:1"
         id="path990"
         inkscape:connector-curvature="0" />
      <path
         d="m 199.27836,569.33417 q -0.21881,0.17978 -0.52183,0.27104 -0.30303,0.0913 -0.75041,0.0225 -0.44304,-0.0681 -0.78755,-0.28554 -0.3445,-0.21745 -0.57342,-0.55052 -0.25398,-0.37249 -0.33357,-0.83822 -0.0759,-0.46073 0.005,-0.9863 0.0828,-0.5386 0.29318,-1.0398 0.20606,-0.50186 0.40948,-0.81295 l 0.9078,0.13951 -0.01,0.0651 q -0.29998,0.33182 -0.53745,0.80663 -0.23748,0.47481 -0.3089,0.93957 -0.042,0.27364 0.002,0.59605 0.0438,0.32241 0.19253,0.54089 0.16041,0.22918 0.37593,0.36011 0.21486,0.13528 0.56669,0.18935 0.34748,0.0534 0.5907,-0.0248 0.24689,-0.0732 0.40724,-0.24864 0.16469,-0.17477 0.25519,-0.44541 0.0948,-0.26998 0.14423,-0.5914 l 0.0601,-0.39092 0.72103,0.11081 -0.0467,0.30405 q -0.10146,0.66021 0.11211,1.09319 0.21724,0.43798 0.74715,0.51942 0.23455,0.036 0.42365,-0.0372 0.19343,-0.0725 0.33373,-0.23326 0.14164,-0.16942 0.21778,-0.37558 0.0762,-0.20615 0.11753,-0.47545 0.0634,-0.41264 -0.0128,-0.90009 -0.0763,-0.48746 -0.28214,-0.94148 l 0.007,-0.0434 0.9078,0.13952 q 0.10463,0.33175 0.15183,0.86365 0.0509,0.5369 -0.0232,1.01903 -0.0728,0.47345 -0.21504,0.82061 -0.14227,0.34717 -0.37811,0.60881 -0.25655,0.2807 -0.57661,0.39602 -0.32006,0.11532 -0.71532,0.0546 -0.5386,-0.0828 -0.88381,-0.52708 -0.34153,-0.4393 -0.36634,-0.9722 l -0.0608,-0.009 q -0.0668,0.20315 -0.22111,0.4551 -0.14997,0.25261 -0.34373,0.41402 z"
         style="font-style:normal;font-size:medium;text-anchor:middle;fill:none;fill-opacity:1;stroke:#000000;stroke-width:0.06614585;stroke-linecap:butt;stroke-linejoin:bevel;stroke-dasharray:none;stroke-opacity:1"
         id="path992"
         inkscape:connector-curvature="0" />
      <path
         class="arrow"
         d="m 12.000009,440.936 9.999998,-10 -7.499998,10 7.500002,10 z"
         id="path56"
         style="fill:#000000;stroke:#000000;stroke-width:0.0661458;stroke-linecap:butt;stroke-linejoin:bevel;stroke-dasharray:none;stroke-opacity:1"
         inkscape:connector-curvature="0" />
      <path
         inkscape:connector-curvature="0"
         id="path995"
         style="font-style:normal;font-size:medium;text-anchor:middle;fill:none;fill-opacity:1;stroke:#000000;stroke-width:0.06614583;stroke-linecap:butt;stroke-linejoin:bevel;stroke-dasharray:none;stroke-opacity:1"
         d="m 22.884775,441.43501 q 0.234375,0.20996 0.385742,0.52735 0.151367,0.31738 0.151367,0.82031 0,0.49805 -0.180664,0.91309 -0.180664,0.41503 -0.507813,0.72265 -0.366211,0.3418 -0.864257,0.50781 -0.493164,0.16114 -1.083985,0.16114 -0.605469,0 -1.191406,-0.14649 -0.585938,-0.1416 -0.961914,-0.3125 v -1.02051 h 0.07324 q 0.415039,0.27344 0.976562,0.45411 0.561524,0.18066 1.083985,0.18066 0.307617,0 0.654297,-0.10254 0.346679,-0.10254 0.561523,-0.30273 0.224609,-0.21485 0.332031,-0.47364 0.112305,-0.25878 0.112305,-0.65429 0,-0.39063 -0.126953,-0.64453 -0.12207,-0.25879 -0.341797,-0.40528 -0.219727,-0.15136 -0.532227,-0.20508 -0.3125,-0.0586 -0.673828,-0.0586 h -0.439453 v -0.81055 h 0.341797 q 0.742188,0 1.181641,-0.30761 0.444336,-0.3125 0.444336,-0.90821 0,-0.26367 -0.112305,-0.45898 -0.112305,-0.2002 -0.3125,-0.32715 -0.209961,-0.12695 -0.449219,-0.17578 -0.239258,-0.0488 -0.541992,-0.0488 -0.463867,0 -0.986328,0.16602 -0.522461,0.16601 -0.986328,0.46875 h -0.04883 v -1.02051 q 0.346679,-0.1709 0.922851,-0.3125 0.581055,-0.14649 1.123047,-0.14649 0.532227,0 0.9375,0.0977 0.405274,0.0977 0.732422,0.3125 0.351563,0.23438 0.532227,0.56641 0.180664,0.33203 0.180664,0.77636 0,0.60547 -0.429688,1.05957 -0.424805,0.44922 -1.005859,0.56641 v 0.0684 q 0.234375,0.0391 0.537109,0.16602 0.302735,0.12207 0.512696,0.30761 z" />
      <path
         d="m 7.0491311,444.15279 q 0.1889648,-0.21094 0.4746094,-0.34717 0.2856445,-0.13623 0.7382812,-0.13623 0.4482422,0 0.8217774,0.1626 0.3735351,0.16259 0.6503906,0.45703 0.3076173,0.32959 0.4570313,0.77783 0.145019,0.44385 0.145019,0.97559 0,0.54492 -0.131835,1.07226 -0.127442,0.52734 -0.2812505,0.86572 h -0.918457 v -0.0659 q 0.2460938,-0.37354 0.4086914,-0.87891 0.1625977,-0.50537 0.1625977,-0.97559 0,-0.27685 -0.092285,-0.58886 -0.092285,-0.31202 -0.272461,-0.50537 -0.1933593,-0.20215 -0.4262695,-0.29883 -0.2329101,-0.10108 -0.5888672,-0.10108 -0.3515625,0 -0.5800782,0.11426 -0.23291,0.10986 -0.3647461,0.30762 -0.1362304,0.19775 -0.1845703,0.479 -0.052734,0.28125 -0.052734,0.60645 v 0.3955 h -0.729492 v -0.30761 q 0,-0.66797 -0.2768555,-1.06348 -0.28125,-0.3999 -0.8173828,-0.3999 -0.2373047,0 -0.413086,0.10107 -0.1801757,0.10108 -0.2944336,0.28125 -0.1142578,0.18897 -0.1582031,0.4043 -0.043945,0.21533 -0.043945,0.48779 0,0.41748 0.1494141,0.8877 0.149414,0.47021 0.421875,0.88769 v 0.0439 H 3.9334091 q -0.1538086,-0.31201 -0.28125,-0.83057 -0.1318359,-0.52295 -0.1318359,-1.01074 0,-0.479 0.087891,-0.84375 0.087891,-0.36475 0.28125,-0.65918 0.2109375,-0.31641 0.5097657,-0.479 0.2988281,-0.1626 0.6987304,-0.1626 0.5449219,0 0.9536133,0.38672 0.4042968,0.38232 0.5097655,0.90527 h 0.061523 q 0.035156,-0.21094 0.149414,-0.4834 0.1098633,-0.27246 0.276855,-0.46142 z"
         style="font-style:normal;font-size:medium;text-anchor:middle;fill:none;fill-opacity:1;stroke:#000000;stroke-width:0.06614583;stroke-linecap:butt;stroke-linejoin:bevel;stroke-dasharray:none;stroke-opacity:1"
         id="path998"
         inkscape:connector-curvature="0" />
      <path
         d="m 6.54376,440.41304 v 1.05029 H 5.2913186 v -1.05029 z m 3.65625,0 v 1.05029 H 8.9475686 v -1.05029 z"
         style="font-style:normal;font-size:medium;text-anchor:middle;fill:none;fill-opacity:1;stroke:#000000;stroke-width:0.06614583;stroke-linecap:butt;stroke-linejoin:bevel;stroke-dasharray:none;stroke-opacity:1"
         id="path1000"
         inkscape:connector-curvature="0" />
      <path
         d="m 7.0491311,434.32661 q 0.1889648,-0.21093 0.4746094,-0.34716 0.2856445,-0.13623 0.7382812,-0.13623 0.4482422,0 0.8217774,0.16259 0.3735351,0.1626 0.6503906,0.45704 0.3076173,0.32959 0.4570313,0.77783 0.145019,0.44385 0.145019,0.97558 0,0.54493 -0.131835,1.07227 -0.127442,0.52734 -0.2812505,0.86572 h -0.918457 v -0.0659 q 0.2460938,-0.37353 0.4086914,-0.8789 0.1625977,-0.50537 0.1625977,-0.97559 0,-0.27685 -0.092285,-0.58887 -0.092285,-0.31201 -0.272461,-0.50537 -0.1933593,-0.20215 -0.4262695,-0.29882 -0.2329101,-0.10108 -0.5888672,-0.10108 -0.3515625,0 -0.5800782,0.11426 -0.23291,0.10986 -0.364746,0.30762 -0.1362304,0.19775 -0.1845703,0.479 -0.052734,0.28125 -0.052734,0.60645 v 0.3955 H 6.2844831 v -0.30761 q 0,-0.66797 -0.2768555,-1.06348 -0.28125,-0.3999 -0.8173828,-0.3999 -0.2373047,0 -0.413086,0.10107 -0.1801761,0.10108 -0.294434,0.28125 -0.1142578,0.18897 -0.1582031,0.4043 -0.043945,0.21533 -0.043945,0.48779 0,0.41748 0.1494141,0.8877 0.149414,0.47021 0.421875,0.88769 v 0.0439 H 3.9334084 q -0.1538086,-0.31202 -0.28125,-0.83057 -0.1318359,-0.52295 -0.1318359,-1.01074 0,-0.47901 0.087891,-0.84375 0.087891,-0.36475 0.28125,-0.65918 0.2109375,-0.31641 0.5097657,-0.47901 0.2988281,-0.16259 0.6987304,-0.16259 0.5449219,0 0.9536133,0.38672 0.4042965,0.38232 0.5097652,0.90527 h 0.061523 q 0.035156,-0.21094 0.149414,-0.4834 0.1098633,-0.27246 0.276856,-0.46143 z"
         style="font-style:normal;font-size:medium;text-anchor:middle;fill:none;fill-opacity:1;stroke:#000000;stroke-width:0.06614583;stroke-linecap:butt;stroke-linejoin:bevel;stroke-dasharray:none;stroke-opacity:1"
         id="path1002"
         inkscape:connector-curvature="0" />
      <path
         class="arrow"
         d="m 12.000024,584.55661 9.999998,-10 -7.499998,10 7.500002,10 z"
         id="path68"
         style="fill:#000000;stroke:#000000;stroke-width:0.0661458;stroke-linecap:butt;stroke-linejoin:bevel;stroke-dasharray:none;stroke-opacity:1"
         inkscape:connector-curvature="0" />
      <path
         inkscape:connector-curvature="0"
         id="path1005"
         style="font-style:normal;font-size:medium;text-anchor:middle;fill:none;fill-opacity:1;stroke:#000000;stroke-width:0.06614583;stroke-linecap:butt;stroke-linejoin:bevel;stroke-dasharray:none;stroke-opacity:1"
         d="m 23.690454,586.51071 h -1.079102 v 2.0459 h -0.9375 v -2.0459 h -3.481445 v -1.12305 l 3.520508,-4.10156 h 0.898437 v 4.44336 h 1.079102 z m -2.016602,-0.78125 v -3.28125 l -2.817383,3.28125 z" />
      <path
         d="m 7.0491511,587.77341 q 0.1889648,-0.21094 0.4746094,-0.34717 0.2856445,-0.13623 0.7382812,-0.13623 0.4482422,0 0.8217774,0.1626 0.3735351,0.16259 0.6503906,0.45703 0.3076173,0.32959 0.4570313,0.77783 0.145019,0.44385 0.145019,0.97559 0,0.54492 -0.131835,1.07226 -0.127442,0.52734 -0.2812505,0.86572 h -0.918457 v -0.0659 q 0.2460937,-0.37354 0.4086914,-0.87891 0.1625977,-0.50537 0.1625977,-0.97559 0,-0.27685 -0.092285,-0.58886 -0.092285,-0.31202 -0.272461,-0.50537 -0.1933593,-0.20215 -0.4262695,-0.29883 -0.2329101,-0.10108 -0.5888672,-0.10108 -0.3515625,0 -0.5800782,0.11426 -0.23291,0.10986 -0.3647461,0.30762 -0.1362304,0.19775 -0.1845703,0.479 -0.052734,0.28125 -0.052734,0.60645 v 0.3955 h -0.729492 v -0.30761 q 0,-0.66797 -0.2768555,-1.06348 -0.28125,-0.3999 -0.8173828,-0.3999 -0.2373047,0 -0.413086,0.10107 -0.1801757,0.10108 -0.2944336,0.28125 -0.1142578,0.18897 -0.1582031,0.4043 -0.043945,0.21533 -0.043945,0.48779 0,0.41748 0.1494141,0.8877 0.149414,0.47021 0.421875,0.88769 v 0.0439 H 3.9334291 q -0.1538086,-0.31201 -0.28125,-0.83057 -0.1318359,-0.52295 -0.1318359,-1.01074 0,-0.479 0.087891,-0.84375 0.087891,-0.36475 0.28125,-0.65918 0.2109375,-0.31641 0.5097657,-0.479 0.2988281,-0.1626 0.6987304,-0.1626 0.5449219,0 0.9536133,0.38672 0.4042968,0.38232 0.5097655,0.90527 h 0.061523 q 0.035156,-0.21094 0.149414,-0.4834 0.1098633,-0.27246 0.276855,-0.46142 z"
         style="font-style:normal;font-size:medium;text-anchor:middle;fill:none;fill-opacity:1;stroke:#000000;stroke-width:0.06614583;stroke-linecap:butt;stroke-linejoin:bevel;stroke-dasharray:none;stroke-opacity:1"
         id="path1008"
         inkscape:connector-curvature="0" />
      <path
         d="m 6.54378,584.03366 v 1.05029 H 5.2913386 v -1.05029 z m 3.65625,0 v 1.05029 H 8.9475886 v -1.05029 z"
         style="font-style:normal;font-size:medium;text-anchor:middle;fill:none;fill-opacity:1;stroke:#000000;stroke-width:0.06614583;stroke-linecap:butt;stroke-linejoin:bevel;stroke-dasharray:none;stroke-opacity:1"
         id="path1010"
         inkscape:connector-curvature="0" />
      <path
         d="m 8.3587214,577.22214 v 0.97119 H 10.20003 v 0.84375 H 8.3587214 v 3.1333 H 7.3479792 L 3.656573,579.00192 v -0.80859 h 3.9990234 v -0.97119 z m -0.703125,1.81494 h -2.953125 l 2.953125,2.53564 z"
         style="font-style:normal;font-size:medium;text-anchor:middle;fill:none;fill-opacity:1;stroke:#000000;stroke-width:0.06614583;stroke-linecap:butt;stroke-linejoin:bevel;stroke-dasharray:none;stroke-opacity:1"
         id="path1012"
         inkscape:connector-curvature="0" />
      <path
         d="m 41.368443,599.80002 h 3.541992 v 0.66797 H 43.54813 v 4.38574 h 1.362305 v 0.59766 q -0.276855,0 -0.593262,0.0439 -0.316406,0.0483 -0.479004,0.13623 -0.202148,0.10987 -0.316406,0.27686 -0.118652,0.17138 -0.13623,0.45703 H 42.70438 l 0,-5.89746 h -1.335937 z"
         style="font-style:normal;font-size:medium;text-anchor:middle;fill:none;fill-opacity:1;stroke:#000000;stroke-width:0.06614583;stroke-linecap:butt;stroke-linejoin:bevel;stroke-dasharray:none;stroke-opacity:1"
         id="path1015"
         inkscape:connector-curvature="0" />
      <path
         d="m 35.840123,602.9509 q -0.210938,-0.18897 -0.347168,-0.47461 -0.136231,-0.28564 -0.136231,-0.73828 0,-0.44824 0.162598,-0.82178 0.162597,-0.37353 0.457031,-0.65039 0.32959,-0.30762 0.777832,-0.45703 0.443848,-0.14502 0.975586,-0.14502 0.544922,0 1.072266,0.13184 0.527343,0.12744 0.865722,0.28125 v 0.91845 h -0.06592 q -0.373535,-0.24609 -0.878906,-0.40869 -0.505371,-0.1626 -0.975586,-0.1626 -0.276855,0 -0.588867,0.0923 -0.312012,0.0923 -0.505371,0.27246 -0.202149,0.19336 -0.298828,0.42627 -0.101075,0.23291 -0.101075,0.58887 0,0.35156 0.114258,0.58007 0.109864,0.23291 0.307617,0.36475 0.197754,0.13623 0.479004,0.18457 0.28125,0.0527 0.606446,0.0527 h 0.395508 v 0.7295 h -0.307618 q -0.667968,0 -1.063476,0.27685 -0.399903,0.28125 -0.399903,0.81739 0,0.2373 0.101075,0.41308 0.101074,0.18018 0.28125,0.29443 0.188964,0.11426 0.404297,0.15821 0.215332,0.0439 0.487792,0.0439 0.417481,0 0.887696,-0.14941 0.470215,-0.14942 0.887695,-0.42188 h 0.04395 v 0.91846 q -0.312012,0.15381 -0.830566,0.28125 -0.522949,0.13184 -1.010742,0.13184 -0.479004,0 -0.84375,-0.0879 -0.364747,-0.0879 -0.65918,-0.28125 -0.316406,-0.21094 -0.479004,-0.50977 -0.162598,-0.29883 -0.162598,-0.69873 0,-0.54492 0.386719,-0.95361 0.382324,-0.4043 0.905273,-0.50977 v -0.0615 q -0.210937,-0.0352 -0.483398,-0.14942 -0.272461,-0.10986 -0.461425,-0.27685 z"
         style="font-style:normal;font-size:medium;text-anchor:middle;fill:none;fill-opacity:1;stroke:#000000;stroke-width:0.06614583;stroke-linecap:butt;stroke-linejoin:bevel;stroke-dasharray:none;stroke-opacity:1"
         id="path1017"
         inkscape:connector-curvature="0" />
      <path
         d="m 32.100376,603.45627 h 1.050293 v 1.25244 h -1.050293 z m 0,-3.65625 h 1.050293 v 1.25244 h -1.050293 z"
         style="font-style:normal;font-size:medium;text-anchor:middle;fill:none;fill-opacity:1;stroke:#000000;stroke-width:0.06614583;stroke-linecap:butt;stroke-linejoin:bevel;stroke-dasharray:none;stroke-opacity:1"
         id="path1019"
         inkscape:connector-curvature="0" />
      <path
         d="m 25.491001,601.87863 q 0,-0.45703 0.166993,-0.87451 0.166992,-0.41748 0.457031,-0.70312 0.316406,-0.30762 0.755859,-0.47461 0.435059,-0.1626 1.010742,-0.1626 0.536133,0 1.032715,0.11426 0.496582,0.10986 0.839356,0.26806 v 0.92725 h -0.06152 q -0.360352,-0.22852 -0.84375,-0.39111 -0.483399,-0.15821 -0.949219,-0.15821 -0.312012,0 -0.602051,0.0879 -0.294433,0.0879 -0.522949,0.30762 -0.193359,0.18897 -0.290039,0.45264 -0.101074,0.26367 -0.101074,0.61084 0,0.33838 0.118652,0.57129 0.114257,0.23291 0.3208,0.37353 0.228516,0.16699 0.558106,0.23291 0.325195,0.0703 0.729492,0.0703 0.386719,0 0.74707,-0.0527 0.355957,-0.0527 0.615235,-0.10547 v 3.37061 h -3.9375 v -0.76905 h 3.089355 v -1.74023 q -0.188965,0.0176 -0.386719,0.0264 -0.197753,0.009 -0.342773,0.009 -0.531738,0 -0.931641,-0.0923 -0.399902,-0.0879 -0.733886,-0.3164 -0.351563,-0.2417 -0.544922,-0.62403 -0.19336,-0.38232 -0.19336,-0.95801 z"
         style="font-style:normal;font-size:medium;text-anchor:middle;fill:none;fill-opacity:1;stroke:#000000;stroke-width:0.06614583;stroke-linecap:butt;stroke-linejoin:bevel;stroke-dasharray:none;stroke-opacity:1"
         id="path1021"
         inkscape:connector-curvature="0" />
      <path
         d="m 87.862976,281.17493 q 0,0.68359 -0.195312,1.23047 -0.19043,0.54687 -0.517579,0.91796 -0.346679,0.38575 -0.761718,0.58106 -0.415039,0.19043 -0.913086,0.19043 -0.463867,0 -0.810547,-0.11231 -0.34668,-0.10742 -0.683594,-0.29296 l -0.05859,0.2539 h -0.859375 v -7.59765 h 0.917969 v 2.71484 q 0.385742,-0.31738 0.820313,-0.51758 0.43457,-0.20508 0.976562,-0.20508 0.966797,0 1.523438,0.74219 0.561523,0.74219 0.561523,2.09473 z m -0.947266,0.0244 q 0,-0.97656 -0.322265,-1.47949 -0.322266,-0.50781 -1.040039,-0.50781 -0.400391,0 -0.810547,0.17578 -0.410156,0.1709 -0.761719,0.44433 v 3.125 q 0.390625,0.17578 0.668945,0.24414 0.283204,0.0684 0.639649,0.0684 0.761719,0 1.191406,-0.49804 0.43457,-0.50293 0.43457,-1.57227 z"
         style="font-style:normal;font-size:medium;text-anchor:middle;fill:none;fill-opacity:1;stroke:#000000;stroke-width:0.06614583;stroke-linecap:butt;stroke-linejoin:bevel;stroke-dasharray:none;stroke-opacity:1"
         id="path1024"
         inkscape:connector-curvature="0" />
      <path
         d="m 93.531921,283.94348 h -0.913086 v -0.58105 q -0.12207,0.083 -0.332031,0.23437 -0.205078,0.14649 -0.40039,0.23438 -0.229493,0.1123 -0.527344,0.18554 -0.297852,0.0781 -0.698242,0.0781 -0.737305,0 -1.25,-0.48828 -0.512696,-0.48828 -0.512696,-1.24512 0,-0.62012 0.263672,-1.00098 0.268555,-0.38574 0.761719,-0.60547 0.498047,-0.21972 1.196289,-0.29785 0.698242,-0.0781 1.499023,-0.11718 v -0.14161 q 0,-0.3125 -0.112304,-0.51757 -0.107422,-0.20508 -0.3125,-0.32227 -0.195313,-0.1123 -0.46875,-0.15137 -0.273438,-0.0391 -0.571289,-0.0391 -0.361328,0 -0.805664,0.0977 -0.444336,0.0928 -0.917969,0.27343 h -0.04883 v -0.93261 q 0.268554,-0.0732 0.776367,-0.16114 0.507812,-0.0879 1.000977,-0.0879 0.576171,0 1.000976,0.0977 0.429688,0.0928 0.742188,0.32227 0.307617,0.22461 0.46875,0.58105 0.161132,0.35645 0.161132,0.88379 z m -0.913086,-1.34277 v -1.51856 q -0.419921,0.0244 -0.99121,0.0732 -0.566407,0.0488 -0.898438,0.1416 -0.395508,0.1123 -0.639648,0.35156 -0.244141,0.23437 -0.244141,0.64941 0,0.46875 0.283203,0.70801 0.283203,0.23438 0.864258,0.23438 0.483398,0 0.883789,-0.18555 0.400391,-0.19043 0.742187,-0.4541 z"
         style="font-style:normal;font-size:medium;text-anchor:middle;fill:none;fill-opacity:1;stroke:#000000;stroke-width:0.06614583;stroke-linecap:butt;stroke-linejoin:bevel;stroke-dasharray:none;stroke-opacity:1"
         id="path1026"
         inkscape:connector-curvature="0" />
      <path
         d="m 99.342468,283.60168 q -0.458984,0.21973 -0.874023,0.3418 -0.410156,0.12207 -0.874024,0.12207 -0.59082,0 -1.083984,-0.1709 -0.493164,-0.17578 -0.844727,-0.52734 -0.356445,-0.35156 -0.551757,-0.88867 -0.195313,-0.53711 -0.195313,-1.25489 0,-1.33789 0.732422,-2.0996 0.737305,-0.76172 1.943359,-0.76172 0.46875,0 0.917969,0.13183 0.454102,0.13184 0.830078,0.32227 v 1.02051 h -0.04883 q -0.419922,-0.32715 -0.86914,-0.50293 -0.444336,-0.17578 -0.869141,-0.17578 -0.78125,0 -1.235352,0.52734 -0.449218,0.52246 -0.449218,1.53808 0,0.98633 0.439453,1.51856 0.444336,0.52734 1.245117,0.52734 0.27832,0 0.566406,-0.0732 0.288086,-0.0732 0.517578,-0.19043 0.200196,-0.10254 0.375977,-0.21484 0.175781,-0.11719 0.27832,-0.2002 h 0.04883 z"
         style="font-style:normal;font-size:medium;text-anchor:middle;fill:none;fill-opacity:1;stroke:#000000;stroke-width:0.06614583;stroke-linecap:butt;stroke-linejoin:bevel;stroke-dasharray:none;stroke-opacity:1"
         id="path1028"
         inkscape:connector-curvature="0" />
      <path
         d="m 105.47528,283.94348 h -1.21094 l -2.1875,-2.38769 -0.5957,0.5664 v 1.82129 h -0.91797 v -7.59765 h 0.91797 v 4.87304 l 2.65137,-2.72949 h 1.15722 l -2.53418,2.51953 z"
         style="font-style:normal;font-size:medium;text-anchor:middle;fill:none;fill-opacity:1;stroke:#000000;stroke-width:0.06614583;stroke-linecap:butt;stroke-linejoin:bevel;stroke-dasharray:none;stroke-opacity:1"
         id="path1030"
         inkscape:connector-curvature="0" />
      <path
         d="m 109.8454,279.49036 h -0.0488 q -0.20508,-0.0488 -0.40039,-0.0684 -0.19043,-0.0244 -0.4541,-0.0244 -0.42481,0 -0.82031,0.19043 -0.39551,0.18555 -0.76172,0.4834 v 3.87207 h -0.91797 v -5.4541 h 0.91797 v 0.80566 q 0.54687,-0.43945 0.96191,-0.62011 0.41992,-0.18555 0.85449,-0.18555 0.23926,0 0.34668,0.0147 0.10742,0.01 0.32227,0.0439 z"
         style="font-style:normal;font-size:medium;text-anchor:middle;fill:none;fill-opacity:1;stroke:#000000;stroke-width:0.06614583;stroke-linecap:butt;stroke-linejoin:bevel;stroke-dasharray:none;stroke-opacity:1"
         id="path1032"
         inkscape:connector-curvature="0" />
      <path
         d="m 115.28485,281.31165 h -4.01855 q 0,0.50293 0.15136,0.8789 0.15137,0.3711 0.41504,0.61035 0.25391,0.23438 0.60059,0.35157 0.35156,0.11718 0.77148,0.11718 0.55664,0 1.11817,-0.21972 0.5664,-0.22461 0.80566,-0.43946 h 0.0488 v 1.00098 q -0.46387,0.19531 -0.94727,0.32715 -0.48339,0.13183 -1.01562,0.13183 -1.35742,0 -2.11914,-0.73242 -0.76172,-0.7373 -0.76172,-2.08984 0,-1.33789 0.72754,-2.12402 0.73242,-0.78614 1.92383,-0.78614 1.10351,0 1.69922,0.64453 0.60058,0.64454 0.60058,1.83106 z m -0.89355,-0.70313 q -0.005,-0.72266 -0.36621,-1.11816 -0.35645,-0.39551 -1.08887,-0.39551 -0.73731,0 -1.17676,0.43457 -0.43457,0.43457 -0.49316,1.0791 z"
         style="font-style:normal;font-size:medium;text-anchor:middle;fill:none;fill-opacity:1;stroke:#000000;stroke-width:0.06614583;stroke-linecap:butt;stroke-linejoin:bevel;stroke-dasharray:none;stroke-opacity:1"
         id="path1034"
         inkscape:connector-curvature="0" />
      <path
         d="m 120.57294,282.37122 q 0,0.74707 -0.62012,1.22558 -0.61523,0.47852 -1.68457,0.47852 -0.60547,0 -1.11328,-0.1416 -0.50293,-0.14649 -0.84473,-0.31739 v -1.03027 h 0.0488 q 0.43457,0.32715 0.9668,0.52246 0.53222,0.19043 1.0205,0.19043 0.60547,0 0.94727,-0.19531 0.3418,-0.19531 0.3418,-0.61524 0,-0.32226 -0.18555,-0.48828 -0.18555,-0.16601 -0.71289,-0.2832 -0.19531,-0.0439 -0.5127,-0.10254 -0.3125,-0.0586 -0.57128,-0.12695 -0.71778,-0.19043 -1.02051,-0.55664 -0.29785,-0.3711 -0.29785,-0.90821 0,-0.33691 0.13671,-0.63476 0.14161,-0.29785 0.42481,-0.53223 0.27344,-0.22949 0.69336,-0.36133 0.4248,-0.13672 0.94726,-0.13672 0.48829,0 0.98633,0.12207 0.50293,0.11719 0.83496,0.28809 v 0.98145 h -0.0488 q -0.35157,-0.25879 -0.8545,-0.43457 -0.50293,-0.18067 -0.98633,-0.18067 -0.50292,0 -0.8496,0.19531 -0.34668,0.19043 -0.34668,0.57129 0,0.33692 0.20996,0.50782 0.20507,0.17089 0.66406,0.27832 0.25391,0.0586 0.56641,0.11718 0.31738,0.0586 0.52734,0.10742 0.63965,0.14649 0.98633,0.50293 0.34668,0.36133 0.34668,0.95704 z"
         style="font-style:normal;font-size:medium;text-anchor:middle;fill:none;fill-opacity:1;stroke:#000000;stroke-width:0.06614583;stroke-linecap:butt;stroke-linejoin:bevel;stroke-dasharray:none;stroke-opacity:1"
         id="path1036"
         inkscape:connector-curvature="0" />
      <path
         d="m 124.72333,283.89465 q -0.25879,0.0684 -0.56641,0.11231 -0.30273,0.0439 -0.54199,0.0439 -0.83496,0 -1.26953,-0.44922 -0.43457,-0.44921 -0.43457,-1.44043 v -2.90039 h -0.62012 v -0.77148 h 0.62012 V 276.922 h 0.91797 v 1.56738 h 1.89453 v 0.77148 h -1.89453 v 2.48536 q 0,0.42968 0.0195,0.67382 0.0195,0.23926 0.13672,0.44922 0.10742,0.19532 0.29297,0.28809 0.19042,0.0879 0.57617,0.0879 0.22461,0 0.46875,-0.0635 0.24414,-0.0684 0.35156,-0.1123 h 0.0488 z"
         style="font-style:normal;font-size:medium;text-anchor:middle;fill:none;fill-opacity:1;stroke:#000000;stroke-width:0.06614583;stroke-linecap:butt;stroke-linejoin:bevel;stroke-dasharray:none;stroke-opacity:1"
         id="path1038"
         inkscape:connector-curvature="0" />
    </g>
  </g>
</svg>
