<?xml version="1.0" encoding="UTF-8" standalone="no"?>
<svg
   xmlns:dc="http://purl.org/dc/elements/1.1/"
   xmlns:cc="http://creativecommons.org/ns#"
   xmlns:rdf="http://www.w3.org/1999/02/22-rdf-syntax-ns#"
   xmlns:svg="http://www.w3.org/2000/svg"
   xmlns="http://www.w3.org/2000/svg"
   xmlns:sodipodi="http://sodipodi.sourceforge.net/DTD/sodipodi-0.dtd"
   xmlns:inkscape="http://www.inkscape.org/namespaces/inkscape"
   version="1.1"
   width="320.00mm"
   height="620.00mm"
   viewBox="0 0 320.00 620.00"
   id="svg4782"
   sodipodi:docname="backrest_page9_12x11.svg"
   inkscape:version="0.92.2 (5c3e80d, 2017-08-06)">
  <metadata
     id="metadata47">
    <rdf:RDF>
      <cc:Work
         rdf:about="">
        <dc:format>image/svg+xml</dc:format>
        <dc:type
           rdf:resource="http://purl.org/dc/dcmitype/StillImage" />
      </cc:Work>
    </rdf:RDF>
  </metadata>
  <defs
     id="defs4786" />
  <sodipodi:namedview
     id="namedview4784"
     pagecolor="#ffffff"
     bordercolor="#666666"
     borderopacity="1.0"
     inkscape:pageshadow="2"
     inkscape:pageopacity="0.0"
     inkscape:pagecheckerboard="0"
     inkscape:document-units="mm"
     showgrid="false"
     inkscape:zoom="0.33926411"
     inkscape:cx="-37.376863"
     inkscape:cy="1378.4235"
     inkscape:window-width="1920"
     inkscape:window-height="1017"
     inkscape:window-x="-8"
     inkscape:window-y="-8"
     inkscape:window-maximized="1"
     inkscape:current-layer="g6938" />
  <style
     type="text/css"
     id="style4734">
    path {
        fill: none;
        stroke-linecap: butt;
        stroke-linejoin: bevel;
        stroke-dasharray: none;
    }
    path.outer {
        stroke: #000000;
        stroke-dasharray: none;
        stroke-dashoffset: 0;
        stroke-width: 0.3;
        stroke-opacity: 1.0;
    }
    path.convex {
        stroke: #000000;
        stroke-dasharray: 0.50,1.00;
        stroke-dashoffset:0;
        stroke-width:0.2;
        stroke-opacity: 1.0
    }
    path.concave {
        stroke: #000000;
        stroke-dasharray: 1.00,0.50,0.20,0.50;
        stroke-dashoffset: 0;
        stroke-width: 0.2;
        stroke-opacity: 1.0
    }
    path.freestyle {
        stroke: #000000;
        stroke-dasharray: none;
        stroke-dashoffset: 0;
        stroke-width: 0.2;
        stroke-opacity: 1.0
    }
    path.outer_background {
        stroke: #ffffff;
        stroke-opacity: 1.0;
        stroke-width: 0.5
    }
    path.inner_background {
        stroke: #ffffff;
        stroke-opacity: 1.0;
        stroke-width: 0.2
    }
    path.sticker {
        fill: #e5e5e5;
        stroke: none;
        fill-opacity: 1.0;
    }
    path.arrow {
        fill: #000000;
    }
    text {
        font-style: normal;
        fill: #000000;
        fill-opacity: 1.0;
        stroke: none;
    }
    text, tspan {
        text-anchor:middle;
    }
    </style>
  <g
     id="g6938"
     transform="rotate(-58.230563,-148.85409,215.2973)">
    <g
       id="g1162">
      <path
         d="m 84.050011,377.48123 h -2.539063 v -9.51172 h 2.539063 v 0.69825 h -1.689453 v 8.11523 h 1.689453 z"
         style="font-style:normal;font-size:medium;text-anchor:middle;fill:none;fill-opacity:1;stroke:#000000;stroke-width:0.25;stroke-linecap:butt;stroke-linejoin:bevel;stroke-dasharray:none;stroke-opacity:1"
         id="path953"
         inkscape:connector-curvature="0" />
      <path
         d="m 90.710167,373.20877 q 0,1.1084 -0.732422,1.81152 -0.727539,0.69825 -1.787109,0.69825 -0.53711,0 -0.976563,-0.16602 -0.439453,-0.16601 -0.776367,-0.49316 -0.419922,-0.40528 -0.649414,-1.07422 -0.224609,-0.66895 -0.224609,-1.61133 0,-0.9668 0.205078,-1.71387 0.209961,-0.74707 0.664062,-1.32812 0.429688,-0.55176 1.108399,-0.85938 0.678711,-0.3125 1.582031,-0.3125 0.288086,0 0.483398,0.0244 0.195313,0.0244 0.395508,0.0879 v 0.93261 h -0.04883 q -0.136719,-0.0732 -0.415039,-0.13671 -0.273438,-0.0684 -0.561524,-0.0684 -1.049804,0 -1.674804,0.65918 -0.625,0.65429 -0.727539,1.77246 0.410156,-0.24903 0.805664,-0.37598 0.40039,-0.13184 0.922851,-0.13184 0.463868,0 0.81543,0.0879 0.356445,0.083 0.727539,0.34179 0.429688,0.29785 0.644531,0.75196 0.219727,0.4541 0.219727,1.10351 z m -0.991211,0.0391 q 0,-0.4541 -0.136719,-0.75195 -0.131836,-0.29785 -0.439453,-0.51758 -0.224609,-0.15625 -0.498047,-0.20508 -0.273437,-0.0488 -0.571289,-0.0488 -0.415039,0 -0.771484,0.0976 -0.356446,0.0977 -0.732422,0.30274 -0.0098,0.10742 -0.01465,0.20996 -0.0049,0.0976 -0.0049,0.24902 0,0.77149 0.15625,1.2207 0.161132,0.44434 0.439453,0.70313 0.224609,0.21484 0.483398,0.31738 0.263672,0.0977 0.571289,0.0977 0.708008,0 1.113282,-0.42969 0.405273,-0.43457 0.405273,-1.24512 z"
         style="font-style:normal;font-size:medium;text-anchor:middle;fill:none;fill-opacity:1;stroke:#000000;stroke-width:0.25;stroke-linecap:butt;stroke-linejoin:bevel;stroke-dasharray:none;stroke-opacity:1"
         id="path955"
         inkscape:connector-curvature="0" />
      <path
         d="m 93.664268,375.56717 h -1.166992 v -1.3916 h 1.166992 z"
         style="font-style:normal;font-size:medium;text-anchor:middle;fill:none;fill-opacity:1;stroke:#000000;stroke-width:0.25;stroke-linecap:butt;stroke-linejoin:bevel;stroke-dasharray:none;stroke-opacity:1"
         id="path957"
         inkscape:connector-curvature="0" />
      <path
         d="m 98.268761,377.48123 h -2.539063 v -0.69824 h 1.689453 v -8.11523 h -1.689453 v -0.69825 h 2.539063 z"
         style="font-style:normal;font-size:medium;text-anchor:middle;fill:none;fill-opacity:1;stroke:#000000;stroke-width:0.25;stroke-linecap:butt;stroke-linejoin:bevel;stroke-dasharray:none;stroke-opacity:1"
         id="path959"
         inkscape:connector-curvature="0" />
      <path
         d="m 106.50118,375.56717 h -2.87109 v -0.74219 h 0.95215 v -5.78613 h -0.95215 v -0.74219 h 2.87109 v 0.74219 h -0.95215 v 5.78613 h 0.95215 z"
         style="font-style:normal;font-size:medium;text-anchor:middle;fill:none;fill-opacity:1;stroke:#000000;stroke-width:0.25;stroke-linecap:butt;stroke-linejoin:bevel;stroke-dasharray:none;stroke-opacity:1"
         id="path961"
         inkscape:connector-curvature="0" />
      <path
         d="m 116.51095,373.20877 q 0,1.1084 -0.73242,1.81152 -0.72754,0.69825 -1.78711,0.69825 -0.53711,0 -0.97657,-0.16602 -0.43945,-0.16601 -0.77636,-0.49316 -0.41992,-0.40528 -0.64942,-1.07422 -0.22461,-0.66895 -0.22461,-1.61133 0,-0.9668 0.20508,-1.71387 0.20996,-0.74707 0.66406,-1.32812 0.42969,-0.55176 1.1084,-0.85938 0.67871,-0.3125 1.58203,-0.3125 0.28809,0 0.4834,0.0244 0.19532,0.0244 0.39551,0.0879 v 0.93261 h -0.0488 q -0.13672,-0.0732 -0.41504,-0.13671 -0.27343,-0.0684 -0.56152,-0.0684 -1.0498,0 -1.6748,0.65918 -0.625,0.65429 -0.72754,1.77246 0.41015,-0.24903 0.80566,-0.37598 0.40039,-0.13184 0.92285,-0.13184 0.46387,0 0.81543,0.0879 0.35645,0.083 0.72754,0.34179 0.42969,0.29785 0.64453,0.75196 0.21973,0.4541 0.21973,1.10351 z m -0.99121,0.0391 q 0,-0.4541 -0.13672,-0.75195 -0.13184,-0.29785 -0.43945,-0.51758 -0.22461,-0.15625 -0.49805,-0.20508 -0.27344,-0.0488 -0.57129,-0.0488 -0.41504,0 -0.77148,0.0976 -0.35645,0.0977 -0.73243,0.30274 -0.01,0.10742 -0.0147,0.20996 -0.005,0.0976 -0.005,0.24902 0,0.77149 0.15625,1.2207 0.16113,0.44434 0.43946,0.70313 0.2246,0.21484 0.48339,0.31738 0.26368,0.0977 0.57129,0.0977 0.70801,0 1.11328,-0.42969 0.40528,-0.43457 0.40528,-1.24512 z"
         style="font-style:normal;font-size:medium;text-anchor:middle;fill:none;fill-opacity:1;stroke:#000000;stroke-width:0.25;stroke-linecap:butt;stroke-linejoin:bevel;stroke-dasharray:none;stroke-opacity:1"
         id="path963"
         inkscape:connector-curvature="0" />
      <path
         style="stroke:#000000;stroke-opacity:1;stroke-width:0.25"
         id="path6717"
         d="M 32.891288,363.64409 24.121121,368.45127 3e-5,326.0394 8.614868,320.95912 Z m -2.9e-5,75.87192 -10.000006,-0.15709 3e-5,-75.55774 10.000005,-0.15709 z m 44.677198,-159.65575 6.80232,-6.36286 12.733012,13.1909 -6.599105,6.57338 z m 100.398153,85.37611 9.53199,-3.0275 9.34026,27.88176 -9.4322,3.32542 z m -28.23173,-23.64683 6.54154,-7.56523 27.99088,23.44507 -6.30069,7.76699 z m 37.67178,51.82651 10,0.1571 -3e-5,45.78584 -9.99999,0.15709 z m -74.78479,-51.82654 0.15709,-9.99999 36.79884,3e-5 0.15708,9.99999 z m -22.117186,-48.32783 9.15838,-4.01858 21.986436,48.04218 -9.02763,4.30423 z m -81.889816,27.69744 -4.98496,-8.67033 66.983633,-39.92471 6.954916,7.49618 z m -3e-5,237.11374 L 0,552.99258 l 24.121091,-42.41183 8.770168,4.80717 z m 24.276421,-42.68494 -10.000006,-0.15709 v -75.55772 l 10.000006,-0.1571 z m 57.613313,70.38245 6.599083,6.57338 -12.73302,13.19086 -6.802305,-6.36285 z m 96.902058,-100.15425 9.43218,3.32541 -9.34027,27.88176 -9.53199,-3.0275 z m -9.44008,28.17967 6.30067,7.76699 -27.99089,23.44505 -6.54154,-7.56524 z m 9.44009,-74.27971 9.99999,0.15709 -1e-5,45.78586 -9.99999,0.15709 z m -37.67185,97.92651 -0.1571,9.99999 -36.79882,-5e-5 -0.15708,-9.99999 z m -37.113,-5e-5 9.02762,4.30426 -21.986465,48.04214 -9.158373,-4.01857 z m -35.05346,61.72922 -6.954938,7.49612 -66.983514,-39.92468 4.98496,-8.67034 z"
         class="sticker" />
      <path
         style="stroke:#000000;stroke-opacity:1;stroke-width:0.25"
         id="path6719"
         d="m 84.370777,273.4974 12.733012,13.1909 -6.599105,6.57338 9.15838,-4.01858 21.986436,48.04218 -9.02763,4.30423 0.15709,-9.99999 36.79884,3e-5 0.15708,9.99999 6.54154,-7.56523 27.99088,23.44507 -6.30069,7.76699 9.53199,-3.0275 9.34026,27.88176 -9.4322,3.32542 10,0.1571 -3e-5,45.78584 -9.99999,0.15709 9.99999,0.15709 -1e-5,45.78586 -9.99999,0.15709 9.43218,3.32541 -9.34027,27.88176 -9.53199,-3.0275 6.30067,7.76699 -27.99089,23.44505 -6.54154,-7.56524 -0.1571,9.99999 -36.79882,-5e-5 -0.15708,-9.99999 9.02762,4.30426 -21.986465,48.04214 -9.158373,-4.01857 6.599083,6.57338 -12.73302,13.19086 -6.802305,-6.36285 -6.954938,7.49612 L 3.629878,566.7432 8.614838,558.07286 0,552.99258 l 24.121091,-42.41183 8.770168,4.80717 -10.000006,-0.15709 v -75.55772 l 10.000006,-0.1571 -10.000006,-0.15709 3e-5,-75.55774 10.000005,-0.15709 -8.770167,4.80718 L 3e-5,326.0394 l 8.614838,-5.08028 -4.98496,-8.67033 66.983633,-39.92471 6.954916,7.49618 z"
         class="outer" />
      <path
         class="arrow"
         d="m 20.753071,342.30161 3.748773,-13.63623 -1.575648,12.4003 11.463102,4.9847 z"
         id="path6721"
         style="fill:#000000;stroke:#000000;stroke-width:0.25;stroke-linecap:butt;stroke-linejoin:bevel;stroke-dasharray:none;stroke-opacity:1"
         inkscape:connector-curvature="0" />
      <path
         inkscape:connector-curvature="0"
         id="path966"
         style="font-style:normal;font-size:medium;text-anchor:middle;fill:none;fill-opacity:1;stroke:#000000;stroke-width:0.25;stroke-linecap:butt;stroke-linejoin:bevel;stroke-dasharray:none;stroke-opacity:1"
         d="M 30.685697,341.85225 H 26.75015 v -0.74219 h 1.513672 v -4.87304 H 26.75015 v -0.66407 q 0.307617,0 0.65918,-0.0488 0.351562,-0.0537 0.532226,-0.15137 0.22461,-0.12207 0.351563,-0.30762 0.131836,-0.19043 0.151367,-0.50781 h 0.756836 v 6.55273 h 1.484375 z" />
      <path
         d="m 18.819705,346.26767 0.48013,0.84421 1.600558,-0.9103 0.417127,0.73343 -1.600558,0.9103 1.549019,2.72362 -0.878586,0.49968 -4.775159,-0.92925 -0.399745,-0.70287 3.476157,-1.97701 -0.48013,-0.84421 z m 0.28607,1.92524 -2.567008,1.45995 3.82056,0.74415 z"
         style="font-style:normal;font-size:medium;text-anchor:middle;fill:none;fill-opacity:1;stroke:#000000;stroke-width:0.25;stroke-linecap:butt;stroke-linejoin:bevel;stroke-dasharray:none;stroke-opacity:1"
         id="path969"
         inkscape:connector-curvature="0" />
      <path
         d="m 15.751707,344.54444 0.519235,0.91297 -1.088684,0.61917 -0.519234,-0.91297 z m 3.178195,-1.80755 0.519235,0.91297 -1.088684,0.61917 -0.519235,-0.91297 z"
         style="font-style:normal;font-size:medium;text-anchor:middle;fill:none;fill-opacity:1;stroke:#000000;stroke-width:0.25;stroke-linecap:butt;stroke-linejoin:bevel;stroke-dasharray:none;stroke-opacity:1"
         id="path971"
         inkscape:connector-curvature="0" />
      <path
         d="m 15.821003,337.27055 1.751064,3.07888 -0.580633,0.33022 -0.673489,-1.18419 -3.812304,2.1682 0.673489,1.18418 -0.519516,0.29547 q -0.136872,-0.24066 -0.331452,-0.49399 -0.198409,-0.25116 -0.355227,-0.34903 -0.195442,-0.1214 -0.39708,-0.13816 -0.207643,-0.0184 -0.464622,0.10753 l -0.336747,-0.5921 5.126367,-2.91554 -0.660448,-1.16126 z"
         style="font-style:normal;font-size:medium;text-anchor:middle;fill:none;fill-opacity:1;stroke:#000000;stroke-width:0.25;stroke-linecap:butt;stroke-linejoin:bevel;stroke-dasharray:none;stroke-opacity:1"
         id="path973"
         inkscape:connector-curvature="0" />
      <path
         class="arrow"
         d="m 84.036574,286.56095 -0.24975,14.13993 -1.54896,-12.40366 -12.34122,-1.98602 z"
         id="path6733"
         style="fill:#000000;stroke:#000000;stroke-width:0.25;stroke-linecap:butt;stroke-linejoin:bevel;stroke-dasharray:none;stroke-opacity:1"
         inkscape:connector-curvature="0" />
      <path
         inkscape:connector-curvature="0"
         id="path976"
         style="font-style:normal;font-size:medium;text-anchor:middle;fill:none;fill-opacity:1;stroke:#000000;stroke-width:0.25;stroke-linecap:butt;stroke-linejoin:bevel;stroke-dasharray:none;stroke-opacity:1"
         d="m 80.085629,296.81155 h -4.921875 v -1.02051 q 0.512695,-0.43945 1.025391,-0.8789 0.517578,-0.43946 0.961914,-0.87403 0.9375,-0.9082 1.284179,-1.44043 0.34668,-0.53711 0.34668,-1.15722 0,-0.56641 -0.375976,-0.88379 -0.371094,-0.32227 -1.040039,-0.32227 -0.444336,0 -0.961915,0.15625 -0.517578,0.15625 -1.010742,0.47852 h -0.04883 v -1.02539 q 0.34668,-0.1709 0.922852,-0.3125 0.581054,-0.14161 1.123047,-0.14161 1.118164,0 1.752929,0.542 0.634766,0.53711 0.634766,1.45996 0,0.41504 -0.107422,0.77637 -0.102539,0.35644 -0.307617,0.67871 -0.19043,0.30273 -0.449219,0.5957 -0.253906,0.29297 -0.620117,0.64941 -0.522461,0.5127 -1.079102,0.9961 -0.55664,0.47851 -1.040039,0.88867 h 3.911133 z" />
      <path
         d="m 83.293243,283.37713 -2.290484,-2.37285 0.44749,-0.43196 0.880957,0.91264 2.938092,-2.83611 -0.880957,-0.91263 0.400379,-0.38648 q 0.17903,0.18546 0.413067,0.36903 0.236986,0.18071 0.401024,0.23279 0.204317,0.0644 0.390078,0.0329 0.191545,-0.0313 0.394268,-0.20429 l 0.440478,0.45632 -3.950823,3.81368 0.863907,0.89497 z"
         style="font-style:normal;font-size:medium;text-anchor:middle;fill:none;fill-opacity:1;stroke:#000000;stroke-width:0.25;stroke-linecap:butt;stroke-linejoin:bevel;stroke-dasharray:none;stroke-opacity:1"
         id="path979"
         inkscape:connector-curvature="0" />
      <path
         d="m 88.030283,283.38266 -0.679188,-0.70361 0.839033,-0.80991 0.679188,0.70362 z m -2.449397,2.36438 -0.679188,-0.70362 0.83904,-0.80991 0.679189,0.70361 z"
         style="font-style:normal;font-size:medium;text-anchor:middle;fill:none;fill-opacity:1;stroke:#000000;stroke-width:0.25;stroke-linecap:butt;stroke-linejoin:bevel;stroke-dasharray:none;stroke-opacity:1"
         id="path981"
         inkscape:connector-curvature="0" />
      <path
         d="m 89.889036,290.21011 -2.864523,-2.96753 0.615296,-0.59394 q 0.563346,0.0534 1.126692,0.10672 0.566186,0.0563 1.086801,0.0713 1.093205,0.0367 1.615864,-0.0641 0.525608,-0.10358 0.899495,-0.46448 0.341504,-0.32965 0.314046,-0.74106 -0.02168,-0.4113 -0.411003,-0.81462 -0.258607,-0.2679 -0.654039,-0.48903 -0.395438,-0.22113 -0.876762,-0.33091 l -0.02841,-0.0294 0.618238,-0.59677 q 0.304806,0.10956 0.72551,0.37454 0.423551,0.26793 0.73899,0.59471 0.650769,0.67417 0.693424,1.37232 0.0456,0.69532 -0.510816,1.23242 -0.250236,0.24155 -0.530602,0.38709 -0.274568,0.14565 -0.588251,0.20953 -0.293356,0.0614 -0.620608,0.0759 -0.32441,0.0174 -0.752458,0.004 -0.613182,-0.0166 -1.228606,-0.0709 -0.612473,-0.0571 -1.141106,-0.10986 l 2.276274,2.35813 z"
         style="font-style:normal;font-size:medium;text-anchor:middle;fill:none;fill-opacity:1;stroke:#000000;stroke-width:0.25;stroke-linecap:butt;stroke-linejoin:bevel;stroke-dasharray:none;stroke-opacity:1"
         id="path983"
         inkscape:connector-curvature="0" />
      <path
         class="arrow"
         d="m 43.091655,300.40967 13.709815,3.47001 -12.429839,-1.32253 -4.749983,11.56233 z"
         id="path6745"
         style="fill:#000000;stroke:#000000;stroke-width:0.24999999;stroke-linecap:butt;stroke-linejoin:bevel;stroke-dasharray:none;stroke-opacity:1"
         inkscape:connector-curvature="0" />
      <path
         inkscape:connector-curvature="0"
         id="path986"
         style="font-style:normal;font-size:medium;text-anchor:middle;fill:none;fill-opacity:1;stroke:#000000;stroke-width:0.25;stroke-linecap:butt;stroke-linejoin:bevel;stroke-dasharray:none;stroke-opacity:1"
         d="m 49.584333,308.63963 q 0.234375,0.20996 0.385742,0.52735 0.151367,0.31738 0.151367,0.82031 0,0.49805 -0.180664,0.91309 -0.180664,0.41503 -0.507813,0.72265 -0.36621,0.3418 -0.864257,0.50781 -0.493164,0.16114 -1.083985,0.16114 -0.605468,0 -1.191406,-0.14649 -0.585937,-0.1416 -0.961914,-0.3125 v -1.02051 h 0.07324 q 0.415039,0.27344 0.976562,0.45411 0.561524,0.18066 1.083985,0.18066 0.307617,0 0.654297,-0.10254 0.346679,-0.10254 0.561523,-0.30273 0.22461,-0.21485 0.332031,-0.47364 0.112305,-0.25878 0.112305,-0.65429 0,-0.39063 -0.126953,-0.64453 -0.12207,-0.25879 -0.341797,-0.40528 -0.219727,-0.15136 -0.532227,-0.20508 -0.3125,-0.0586 -0.673828,-0.0586 H 47.01109 v -0.81055 h 0.341797 q 0.742188,0 1.181641,-0.30761 0.444336,-0.3125 0.444336,-0.90821 0,-0.26367 -0.112305,-0.45898 -0.112305,-0.2002 -0.3125,-0.32715 -0.209961,-0.12695 -0.449219,-0.17578 -0.239258,-0.0488 -0.541992,-0.0488 -0.463867,0 -0.986328,0.16602 -0.522461,0.16601 -0.986328,0.46875 h -0.04883 v -1.02051 q 0.34668,-0.1709 0.922851,-0.3125 0.581055,-0.14649 1.123047,-0.14649 0.532227,0 0.9375,0.0977 0.405274,0.0977 0.732422,0.3125 0.351563,0.23438 0.532227,0.56641 0.180664,0.33203 0.180664,0.77636 0,0.60547 -0.429688,1.05957 -0.424804,0.44922 -1.005859,0.56641 v 0.0684 q 0.234375,0.0391 0.537109,0.16602 0.302735,0.12207 0.512696,0.30761 z" />
      <path
         d="m 37.119141,301.87403 -3.042538,1.81346 -0.341995,-0.57378 1.170213,-0.69749 -2.245456,-3.76731 -1.170212,0.69749 -0.305996,-0.51338 q 0.23782,-0.14175 0.487128,-0.34146 0.247065,-0.20349 0.341717,-0.36227 0.117393,-0.19787 0.130036,-0.39981 0.01418,-0.20798 -0.116975,-0.46233 l 0.585111,-0.34875 3.019441,5.06587 1.147552,-0.68399 z"
         style="font-style:normal;font-size:medium;text-anchor:middle;fill:none;fill-opacity:1;stroke:#000000;stroke-width:0.25;stroke-linecap:butt;stroke-linejoin:bevel;stroke-dasharray:none;stroke-opacity:1"
         id="path989"
         inkscape:connector-curvature="0" />
      <path
         d="m 41.35875,296.87608 q 0.510741,0.85689 0.268504,1.73796 -0.240715,0.87506 -1.059857,1.3633 -0.415237,0.24749 -0.831478,0.32164 -0.416236,0.0742 -0.827445,-0.0235 -0.511387,-0.11982 -0.997046,-0.53123 -0.481889,-0.41366 -0.916134,-1.14221 -0.445487,-0.74742 -0.63119,-1.41948 -0.181918,-0.6743 -0.0986,-1.33276 0.07794,-0.62455 0.460901,-1.17511 0.380709,-0.55434 1.079052,-0.97058 0.222719,-0.13275 0.384977,-0.20385 0.162257,-0.0711 0.346265,-0.1143 l 0.429739,0.721 -0.03771,0.0225 q -0.139431,0.006 -0.383855,0.0856 -0.242876,0.0732 -0.465595,0.20591 -0.811601,0.48375 -0.991035,1.28135 -0.181692,0.79382 0.254281,1.70552 0.202341,-0.38152 0.449608,-0.66191 0.248789,-0.28642 0.652696,-0.52716 0.358611,-0.21375 0.670903,-0.3078 0.31381,-0.10008 0.719958,-0.071 0.469424,0.0323 0.844769,0.28434 0.37912,0.24981 0.678363,0.75186 z m -0.748276,0.48697 q -0.20925,-0.35107 -0.452193,-0.51833 -0.239168,-0.16952 -0.578235,-0.19764 -0.245646,-0.0173 -0.479532,0.071 -0.233866,0.0883 -0.464135,0.22553 -0.320859,0.19124 -0.551428,0.431 -0.230561,0.23975 -0.426734,0.57154 0.04178,0.0877 0.08541,0.16908 0.04157,0.0776 0.111311,0.19456 0.355495,0.59643 0.683279,0.87172 0.329316,0.26926 0.663732,0.34108 0.272644,0.0626 0.519963,0.0226 0.248842,-0.046 0.486663,-0.18774 0.547358,-0.32625 0.662669,-0.84518 0.113073,-0.52271 -0.260419,-1.14934 z"
         style="font-style:normal;font-size:medium;text-anchor:middle;fill:none;fill-opacity:1;stroke:#000000;stroke-width:0.25;stroke-linecap:butt;stroke-linejoin:bevel;stroke-dasharray:none;stroke-opacity:1"
         id="path991"
         inkscape:connector-curvature="0" />
      <path
         d="m 43.208368,293.98818 -0.902189,0.53774 -0.641237,-1.07584 0.902189,-0.53773 z m 1.871965,3.14069 -0.90219,0.53774 -0.641237,-1.07584 0.90219,-0.53774 z"
         style="font-style:normal;font-size:medium;text-anchor:middle;fill:none;fill-opacity:1;stroke:#000000;stroke-width:0.25;stroke-linecap:butt;stroke-linejoin:bevel;stroke-dasharray:none;stroke-opacity:1"
         id="path993"
         inkscape:connector-curvature="0" />
      <path
         d="m 48.695303,291.3061 q 0.277933,0.0543 0.541203,0.22994 0.263266,0.17561 0.495013,0.56443 0.229494,0.38503 0.28108,0.78914 0.05157,0.40411 -0.05959,0.79268 -0.125621,0.43298 -0.434163,0.79083 -0.307005,0.35181 -0.763765,0.62406 -0.468082,0.27899 -0.988572,0.43574 -0.518228,0.16052 -0.887643,0.20165 l -0.470237,-0.78894 0.05661,-0.0337 q 0.446855,0.0201 0.964213,-0.0989 0.517353,-0.11908 0.921268,-0.35983 0.237811,-0.14174 0.458577,-0.38078 0.220757,-0.23903 0.294612,-0.49278 0.07465,-0.2696 0.03845,-0.51916 -0.03243,-0.25182 -0.214677,-0.55758 -0.179996,-0.30199 -0.395144,-0.43979 -0.213616,-0.14382 -0.450986,-0.15581 -0.239614,-0.0158 -0.505955,0.0867 -0.268573,0.0987 -0.547909,0.26522 l -0.339739,0.2025 -0.373492,-0.62663 0.264234,-0.15749 q 0.573781,-0.34199 0.771776,-0.7823 0.199513,-0.44634 -0.07499,-0.90688 -0.121495,-0.20384 -0.298311,-0.30308 -0.179069,-0.10303 -0.392342,-0.10893 -0.220818,-0.001 -0.428287,0.0711 -0.207443,0.0725 -0.441484,0.21203 -0.358611,0.21375 -0.686025,0.58285 -0.32741,0.36908 -0.546524,0.81687 l -0.03771,0.0225 -0.470238,-0.78894 q 0.189274,-0.29187 0.569456,-0.66683 0.381708,-0.381 0.800716,-0.63074 0.411465,-0.24525 0.769778,-0.35649 0.358321,-0.11124 0.710227,-0.0959 0.379792,0.0192 0.672462,0.19264 0.292657,0.17344 0.497407,0.51696 0.278993,0.46808 0.156049,1.01714 -0.121411,0.54303 -0.516621,0.90138 l 0.03149,0.0528 q 0.199218,-0.0778 0.491733,-0.11915 0.290293,-0.0451 0.538114,0.002 z"
         style="font-style:normal;font-size:medium;text-anchor:middle;fill:none;fill-opacity:1;stroke:#000000;stroke-width:0.25;stroke-linecap:butt;stroke-linejoin:bevel;stroke-dasharray:none;stroke-opacity:1"
         id="path995"
         inkscape:connector-curvature="0" />
      <path
         class="arrow"
         d="m 20.753041,536.73038 13.636228,-3.74877 -11.463103,4.9847 1.575645,12.4003 z"
         id="path6757"
         style="fill:#000000;stroke:#000000;stroke-width:0.25;stroke-linecap:butt;stroke-linejoin:bevel;stroke-dasharray:none;stroke-opacity:1"
         inkscape:connector-curvature="0" />
      <path
         inkscape:connector-curvature="0"
         id="path998"
         style="font-style:normal;font-size:medium;text-anchor:middle;fill:none;fill-opacity:1;stroke:#000000;stroke-width:0.25;stroke-linecap:butt;stroke-linejoin:bevel;stroke-dasharray:none;stroke-opacity:1"
         d="m 31.26672,543.13383 h -1.079102 v 2.0459 h -0.9375 v -2.0459 h -3.481445 v -1.12305 l 3.520508,-4.10156 h 0.898437 v 4.44336 h 1.079102 z m -2.016602,-0.78125 v -3.28125 l -2.817383,3.28125 z" />
      <path
         d="m 16.35607,537.0961 -0.48013,0.8442 1.60055,0.91029 -0.417127,0.73343 -1.60055,-0.91029 -1.549019,2.72362 -0.878594,-0.49968 -1.642348,-4.57912 0.399745,-0.70286 3.476148,1.977 0.48013,-0.8442 z m -1.508453,1.23002 -2.566999,-1.45994 1.313448,3.66405 z"
         style="font-style:normal;font-size:medium;text-anchor:middle;fill:none;fill-opacity:1;stroke:#000000;stroke-width:0.25;stroke-linecap:butt;stroke-linejoin:bevel;stroke-dasharray:none;stroke-opacity:1"
         id="path1001"
         inkscape:connector-curvature="0" />
      <path
         d="m 16.268787,533.57835 -0.519235,0.91296 -1.088684,-0.61917 0.519235,-0.91296 z m 3.178195,1.80755 -0.519235,0.91296 -1.088684,-0.61917 0.519235,-0.91296 z"
         style="font-style:normal;font-size:medium;text-anchor:middle;fill:none;fill-opacity:1;stroke:#000000;stroke-width:0.25;stroke-linecap:butt;stroke-linejoin:bevel;stroke-dasharray:none;stroke-opacity:1"
         id="path1003"
         inkscape:connector-curvature="0" />
      <path
         d="m 21.213863,528.5547 -0.48013,0.8442 1.60055,0.91029 -0.417128,0.73343 -1.600549,-0.91029 -1.549019,2.72363 -0.878594,-0.49969 -1.642349,-4.57911 0.399745,-0.70287 3.476148,1.97701 0.48013,-0.84421 z m -1.508453,1.23003 -2.566999,-1.45995 1.313447,3.66405 z"
         style="font-style:normal;font-size:medium;text-anchor:middle;fill:none;fill-opacity:1;stroke:#000000;stroke-width:0.25;stroke-linecap:butt;stroke-linejoin:bevel;stroke-dasharray:none;stroke-opacity:1"
         id="path1005"
         inkscape:connector-curvature="0" />
      <path
         class="arrow"
         d="m 84.036455,592.47106 -14.139932,0.24972 12.341225,-1.986 1.548985,-12.40365 z"
         id="path6769"
         style="fill:#000000;stroke:#000000;stroke-width:0.25000003;stroke-linecap:butt;stroke-linejoin:bevel;stroke-dasharray:none;stroke-opacity:1"
         inkscape:connector-curvature="0" />
      <path
         inkscape:connector-curvature="0"
         id="path1008"
         style="font-style:normal;font-size:medium;text-anchor:middle;fill:none;fill-opacity:1;stroke:#000000;stroke-width:0.25;stroke-linecap:butt;stroke-linejoin:bevel;stroke-dasharray:none;stroke-opacity:1"
         d="m 80.02693,587.9109 q 0,0.50781 -0.185547,0.97168 -0.185546,0.46387 -0.507812,0.78125 -0.351563,0.3418 -0.839844,0.52734 -0.483398,0.18067 -1.123047,0.18067 -0.595703,0 -1.147461,-0.12696 -0.551757,-0.12207 -0.932617,-0.29785 v -1.03027 h 0.06836 q 0.400391,0.25391 0.9375,0.43457 0.53711,0.17578 1.054688,0.17578 0.346679,0 0.668945,-0.0977 0.327148,-0.0976 0.581055,-0.34179 0.214843,-0.20996 0.322265,-0.50293 0.112305,-0.29297 0.112305,-0.67871 0,-0.37598 -0.131836,-0.63477 -0.126953,-0.25879 -0.356445,-0.41504 -0.253907,-0.18554 -0.620117,-0.25879 -0.361329,-0.0781 -0.810547,-0.0781 -0.429688,0 -0.830079,0.0586 -0.395507,0.0586 -0.683593,0.11719 v -3.74512 h 4.375 v 0.85449 h -3.432617 v 1.9336 q 0.209961,-0.0195 0.429687,-0.0293 0.219727,-0.01 0.38086,-0.01 0.59082,0 1.035156,0.10254 0.444336,0.0977 0.81543,0.35156 0.390625,0.26856 0.605469,0.69336 0.214843,0.42481 0.214843,1.06446 z" />
      <path
         d="m 87.192037,591.61577 2.290487,-2.37285 0.447489,0.43196 -0.880958,0.91263 2.938088,2.83611 0.880958,-0.91264 0.400378,0.38648 q -0.179031,0.18547 -0.354213,0.42585 -0.172233,0.24322 -0.218492,0.40899 -0.05712,0.20646 -0.01914,0.391 0.03809,0.19032 0.218085,0.38681 l -0.44048,0.45631 -3.950817,-3.81368 -0.863908,0.89497 z"
         style="font-style:normal;font-size:medium;text-anchor:middle;fill:none;fill-opacity:1;stroke:#000000;stroke-width:0.25;stroke-linecap:butt;stroke-linejoin:bevel;stroke-dasharray:none;stroke-opacity:1"
         id="path1011"
         inkscape:connector-curvature="0" />
      <path
         d="m 87.353783,596.35005 0.679189,-0.70361 0.839033,0.80991 -0.67919,0.70361 z m -2.449393,-2.36438 0.679189,-0.70361 0.839032,0.80991 -0.679189,0.70361 z"
         style="font-style:normal;font-size:medium;text-anchor:middle;fill:none;fill-opacity:1;stroke:#000000;stroke-width:0.25;stroke-linecap:butt;stroke-linejoin:bevel;stroke-dasharray:none;stroke-opacity:1"
         id="path1013"
         inkscape:connector-curvature="0" />
      <path
         d="m 82.022835,599.75758 q -0.306169,-0.29554 -0.477864,-0.67739 -0.171688,-0.38184 -0.175483,-0.76086 -0.0015,-0.41089 0.170836,-0.81328 0.172409,-0.39659 0.544688,-0.78226 0.346699,-0.35916 0.744358,-0.61795 0.394731,-0.26162 0.722371,-0.38895 l 0.62118,0.59962 -0.0398,0.0412 q -0.386113,0.0936 -0.807635,0.31232 -0.418579,0.22154 -0.719809,0.5336 -0.201769,0.20903 -0.330474,0.46014 -0.131547,0.25406 -0.13209,0.54926 0.0016,0.25174 0.115667,0.48701 0.111287,0.23821 0.34386,0.46271 0.226687,0.21882 0.459451,0.28995 0.229909,0.0741 0.457686,0.0266 0.259644,-0.0451 0.516944,-0.22327 0.257417,-0.17236 0.518858,-0.4432 0.250079,-0.25907 0.447781,-0.53458 0.194855,-0.27256 0.327197,-0.48036 l 2.258033,2.17966 -2.546248,2.6378 -0.5152,-0.49732 1.997779,-2.06961 -1.165814,-1.12535 q -0.110393,0.13798 -0.232445,0.27608 -0.122131,0.13804 -0.215904,0.23519 -0.343859,0.35622 -0.66427,0.56447 -0.317455,0.21109 -0.686547,0.28703 -0.38926,0.0792 -0.770429,-0.0385 -0.381161,-0.1177 -0.766825,-0.48998 z"
         style="font-style:normal;font-size:medium;text-anchor:middle;fill:none;fill-opacity:1;stroke:#000000;stroke-width:0.25;stroke-linecap:butt;stroke-linejoin:bevel;stroke-dasharray:none;stroke-opacity:1"
         id="path1015"
         inkscape:connector-curvature="0" />
      <path
         class="arrow"
         d="m 43.09158,578.62231 -3.469999,-13.70982 4.749977,11.56234 12.429841,-1.32252 z"
         id="path6781"
         style="fill:#000000;stroke:#000000;stroke-width:0.25000003;stroke-linecap:butt;stroke-linejoin:bevel;stroke-dasharray:none;stroke-opacity:1"
         inkscape:connector-curvature="0" />
      <path
         inkscape:connector-curvature="0"
         id="path1018"
         style="font-style:normal;font-size:medium;text-anchor:middle;fill:none;fill-opacity:1;stroke:#000000;stroke-width:0.25;stroke-linecap:butt;stroke-linejoin:bevel;stroke-dasharray:none;stroke-opacity:1"
         d="m 48.51493,572.533 q 0,1.1084 -0.732422,1.81152 -0.727539,0.69825 -1.78711,0.69825 -0.537109,0 -0.976562,-0.16602 -0.439453,-0.16601 -0.776367,-0.49316 -0.419922,-0.40528 -0.649414,-1.07422 -0.22461,-0.66895 -0.22461,-1.61133 0,-0.9668 0.205078,-1.71387 0.209961,-0.74707 0.664063,-1.32812 0.429687,-0.55176 1.108398,-0.85938 0.678711,-0.3125 1.582032,-0.3125 0.288086,0 0.483398,0.0244 0.195313,0.0244 0.395508,0.0879 v 0.93262 h -0.04883 q -0.136719,-0.0732 -0.415039,-0.13672 -0.273438,-0.0684 -0.561524,-0.0684 -1.049804,0 -1.674804,0.65918 -0.625,0.65429 -0.72754,1.77246 0.410157,-0.24902 0.805665,-0.37598 0.40039,-0.13183 0.922851,-0.13183 0.463867,0 0.81543,0.0879 0.356445,0.083 0.727539,0.34179 0.429687,0.29786 0.644531,0.75196 0.219727,0.4541 0.219727,1.10351 z m -0.991211,0.0391 q 0,-0.4541 -0.136719,-0.75195 -0.131836,-0.29785 -0.439453,-0.51758 -0.22461,-0.15625 -0.498047,-0.20508 -0.273438,-0.0488 -0.571289,-0.0488 -0.415039,0 -0.771484,0.0977 -0.356446,0.0977 -0.732422,0.30274 -0.0098,0.10742 -0.01465,0.20996 -0.0049,0.0976 -0.0049,0.24902 0,0.77149 0.15625,1.2207 0.161133,0.44434 0.439453,0.70313 0.224609,0.21484 0.483398,0.31738 0.263672,0.0977 0.571289,0.0977 0.708008,0 1.113282,-0.42969 0.405273,-0.43457 0.405273,-1.24512 z" />
      <path
         inkscape:connector-curvature="0"
         id="path1020"
         style="font-style:normal;font-size:medium;text-anchor:middle;fill:none;fill-opacity:1;stroke:#000000;stroke-width:0.25;stroke-linecap:butt;stroke-linejoin:bevel;stroke-dasharray:none;stroke-opacity:1"
         d="m 51.469031,574.8914 h -1.166992 v -1.3916 h 1.166992 z" />
      <path
         d="m 48.625065,584.01588 3.042537,1.81346 -0.341994,0.57378 -1.170212,-0.69749 -2.245459,3.76731 1.170212,0.6975 -0.305991,0.51337 q -0.237821,-0.14175 -0.532082,-0.26603 -0.296522,-0.12051 -0.481214,-0.12823 -0.229892,-0.009 -0.413534,0.0758 -0.189673,0.0865 -0.351016,0.32284 l -0.58511,-0.34875 3.019446,-5.06586 -1.147552,-0.68399 z"
         style="font-style:normal;font-size:medium;text-anchor:middle;fill:none;fill-opacity:1;stroke:#000000;stroke-width:0.25;stroke-linecap:butt;stroke-linejoin:bevel;stroke-dasharray:none;stroke-opacity:1"
         id="path1023"
         inkscape:connector-curvature="0" />
      <path
         d="m 42.36285,582.70319 q 0.233995,-0.39258 0.591184,-0.6657 0.357189,-0.27311 0.75258,-0.36999 0.429287,-0.10223 0.892273,-0.0207 0.456957,0.0831 0.951461,0.37783 0.460531,0.27449 0.828597,0.62689 0.370311,0.34861 0.58375,0.66 l -0.474743,0.7965 -0.05283,-0.0315 q -0.192538,-0.38079 -0.524524,-0.76796 -0.334239,-0.38339 -0.734374,-0.62188 -0.268014,-0.15975 -0.56216,-0.23274 -0.297917,-0.0752 -0.606708,-0.004 -0.26284,0.0633 -0.480889,0.24031 -0.221815,0.17474 -0.399563,0.47296 -0.173242,0.29066 -0.190571,0.55147 -0.0211,0.25857 0.08432,0.48512 0.110799,0.26044 0.360163,0.48581 0.243343,0.22688 0.590633,0.43388 0.332189,0.198 0.668708,0.33722 0.33274,0.13698 0.582476,0.2244 l -1.725716,2.89531 -3.382277,-2.01596 0.393742,-0.6606 2.653732,1.58173 0.890982,-1.49485 q -0.171335,-0.0816 -0.345706,-0.17532 -0.174482,-0.0935 -0.299044,-0.16776 -0.45676,-0.27225 -0.753022,-0.55628 -0.298507,-0.28025 -0.468397,-0.64753 -0.178239,-0.38762 -0.148589,-0.81503 0.02965,-0.42741 0.324398,-0.92192 z"
         style="font-style:normal;font-size:medium;text-anchor:middle;fill:none;fill-opacity:1;stroke:#000000;stroke-width:0.25;stroke-linecap:butt;stroke-linejoin:bevel;stroke-dasharray:none;stroke-opacity:1"
         id="path1025"
         inkscape:connector-curvature="0" />
      <path
         d="m 38.791911,582.4114 0.902189,0.53774 -0.641238,1.07583 -0.902189,-0.53774 z m 1.871966,-3.14069 0.90219,0.53774 -0.641238,1.07583 -0.90219,-0.53773 z"
         style="font-style:normal;font-size:medium;text-anchor:middle;fill:none;fill-opacity:1;stroke:#000000;stroke-width:0.25;stroke-linecap:butt;stroke-linejoin:bevel;stroke-dasharray:none;stroke-opacity:1"
         id="path1027"
         inkscape:connector-curvature="0" />
      <path
         d="m 33.771407,577.63353 q 0.510741,-0.85689 1.400964,-1.06298 0.884204,-0.20456 1.703346,0.28368 0.415236,0.2475 0.678479,0.57834 0.263229,0.33084 0.372956,0.739 0.13789,0.50682 0.0071,1.12972 -0.134599,0.62065 -0.568839,1.3492 -0.445493,0.74742 -0.948279,1.23048 -0.506566,0.4808 -1.125372,0.72076 -0.586439,0.22857 -1.25289,0.15364 -0.668703,-0.0712 -1.367054,-0.4874 -0.222711,-0.13274 -0.362449,-0.24164 -0.139729,-0.1089 -0.265259,-0.25019 l 0.429744,-0.72101 0.03771,0.0225 q 0.07196,0.11961 0.257867,0.29695 0.179902,0.17882 0.402621,0.31157 0.811592,0.48374 1.598518,0.26213 0.784678,-0.21784 1.379191,-1.03502 -0.431835,0.004 -0.796096,-0.0806 -0.37029,-0.0826 -0.774205,-0.32332 -0.358612,-0.21374 -0.589898,-0.44368 -0.237318,-0.22842 -0.40496,-0.59949 -0.19494,-0.42827 -0.151788,-0.87833 0.03938,-0.45231 0.338623,-0.95436 z m 0.784319,0.42651 q -0.209246,0.35106 -0.240796,0.64433 -0.03533,0.29101 0.101244,0.60263 0.10164,0.22429 0.290536,0.38804 0.188912,0.16371 0.419182,0.30095 0.320859,0.19125 0.641427,0.27999 0.320568,0.0887 0.705727,0.10345 0.05724,-0.0784 0.108084,-0.15555 0.04844,-0.0735 0.118184,-0.19047 0.355495,-0.59643 0.441702,-1.01572 0.08017,-0.41776 -0.01575,-0.74608 -0.07465,-0.26959 -0.227467,-0.4681 -0.158835,-0.19701 -0.396655,-0.33876 -0.547357,-0.32624 -1.058658,-0.1808 -0.513567,0.14922 -0.887059,0.77584 z"
         style="font-style:normal;font-size:medium;text-anchor:middle;fill:none;fill-opacity:1;stroke:#000000;stroke-width:0.25;stroke-linecap:butt;stroke-linejoin:bevel;stroke-dasharray:none;stroke-opacity:1"
         id="path1029"
         inkscape:connector-curvature="0" />
      <path
         d="m 32.574347,574.44905 0.90219,0.53774 -0.641238,1.07583 -0.902189,-0.53774 z"
         style="font-style:normal;font-size:medium;text-anchor:middle;fill:none;fill-opacity:1;stroke:#000000;stroke-width:0.25;stroke-linecap:butt;stroke-linejoin:bevel;stroke-dasharray:none;stroke-opacity:1"
         id="path1031"
         inkscape:connector-curvature="0" />
      <path
         d="m 84.662003,435.8783 q 0,0.68359 -0.195313,1.23046 -0.19043,0.54688 -0.517578,0.91797 -0.34668,0.38575 -0.761719,0.58106 -0.415039,0.19043 -0.913086,0.19043 -0.463867,0 -0.810547,-0.11231 -0.346679,-0.10742 -0.683593,-0.29297 l -0.05859,0.25391 h -0.859375 v -7.59766 h 0.917969 v 2.71485 q 0.385742,-0.31738 0.820312,-0.51758 0.43457,-0.20508 0.976563,-0.20508 0.966797,0 1.523437,0.74219 0.561524,0.74219 0.561524,2.09473 z m -0.947266,0.0244 q 0,-0.97656 -0.322266,-1.47949 -0.322265,-0.50781 -1.040039,-0.50781 -0.40039,0 -0.810547,0.17578 -0.410156,0.17089 -0.761718,0.44433 v 3.125 q 0.390625,0.17578 0.668945,0.24414 0.283203,0.0684 0.639648,0.0684 0.761719,0 1.191407,-0.49804 0.43457,-0.50293 0.43457,-1.57227 z"
         style="font-style:normal;font-size:medium;text-anchor:middle;fill:none;fill-opacity:1;stroke:#000000;stroke-width:0.25;stroke-linecap:butt;stroke-linejoin:bevel;stroke-dasharray:none;stroke-opacity:1"
         id="path1034"
         inkscape:connector-curvature="0" />
      <path
         d="m 90.330948,438.64685 h -0.913086 v -0.58105 q -0.12207,0.083 -0.332031,0.23437 -0.205078,0.14649 -0.400391,0.23438 -0.229492,0.1123 -0.527344,0.18554 -0.297851,0.0781 -0.698242,0.0781 -0.737305,0 -1.25,-0.48828 -0.512695,-0.48828 -0.512695,-1.24512 0,-0.62012 0.263672,-1.00098 0.268554,-0.38574 0.761718,-0.60547 0.498047,-0.21972 1.19629,-0.29785 0.698242,-0.0781 1.499023,-0.11719 v -0.1416 q 0,-0.3125 -0.112305,-0.51757 -0.107422,-0.20508 -0.3125,-0.32227 -0.195312,-0.11231 -0.46875,-0.15137 -0.273437,-0.0391 -0.571289,-0.0391 -0.361328,0 -0.805664,0.0977 -0.444336,0.0928 -0.917969,0.27343 h -0.04883 v -0.93261 q 0.268555,-0.0732 0.776367,-0.16114 0.507813,-0.0879 1.000977,-0.0879 0.576172,0 1.000977,0.0977 0.429687,0.0928 0.742187,0.32226 0.307617,0.22461 0.46875,0.58106 0.161133,0.35644 0.161133,0.88379 z m -0.913086,-1.34277 v -1.51856 q -0.419922,0.0244 -0.991211,0.0732 -0.566406,0.0488 -0.898437,0.14161 -0.395508,0.1123 -0.639649,0.35156 -0.244141,0.23437 -0.244141,0.64941 0,0.46875 0.283204,0.70801 0.283203,0.23438 0.864257,0.23438 0.483399,0 0.883789,-0.18555 0.400391,-0.19043 0.742188,-0.4541 z"
         style="font-style:normal;font-size:medium;text-anchor:middle;fill:none;fill-opacity:1;stroke:#000000;stroke-width:0.25;stroke-linecap:butt;stroke-linejoin:bevel;stroke-dasharray:none;stroke-opacity:1"
         id="path1036"
         inkscape:connector-curvature="0" />
      <path
         d="m 96.141495,438.30505 q -0.458985,0.21973 -0.874024,0.3418 -0.410156,0.12207 -0.874023,0.12207 -0.59082,0 -1.083984,-0.1709 -0.493165,-0.17578 -0.844727,-0.52734 -0.356445,-0.35156 -0.551758,-0.88867 -0.195312,-0.53711 -0.195312,-1.25489 0,-1.33789 0.732422,-2.09961 0.737304,-0.76171 1.943359,-0.76171 0.46875,0 0.917969,0.13183 0.454101,0.13184 0.830078,0.32227 v 1.02051 h -0.04883 q -0.419922,-0.32715 -0.869141,-0.50293 -0.444336,-0.17579 -0.869141,-0.17579 -0.78125,0 -1.235351,0.52735 -0.449219,0.52246 -0.449219,1.53808 0,0.98633 0.439453,1.51856 0.444336,0.52734 1.245117,0.52734 0.278321,0 0.566407,-0.0732 0.288086,-0.0732 0.517578,-0.19043 0.200195,-0.10254 0.375976,-0.21484 0.175782,-0.11719 0.278321,-0.2002 h 0.04883 z"
         style="font-style:normal;font-size:medium;text-anchor:middle;fill:none;fill-opacity:1;stroke:#000000;stroke-width:0.25;stroke-linecap:butt;stroke-linejoin:bevel;stroke-dasharray:none;stroke-opacity:1"
         id="path1038"
         inkscape:connector-curvature="0" />
      <path
         d="m 102.27431,438.64685 h -1.21094 l -2.1875,-2.38769 -0.595703,0.5664 v 1.82129 h -0.917969 v -7.59766 h 0.917969 v 4.87305 l 2.651363,-2.72949 h 1.15723 l -2.534179,2.51953 z"
         style="font-style:normal;font-size:medium;text-anchor:middle;fill:none;fill-opacity:1;stroke:#000000;stroke-width:0.25;stroke-linecap:butt;stroke-linejoin:bevel;stroke-dasharray:none;stroke-opacity:1"
         id="path1040"
         inkscape:connector-curvature="0" />
      <path
         d="m 106.64442,434.19373 h -0.0488 q -0.20508,-0.0488 -0.40039,-0.0684 -0.19043,-0.0244 -0.45411,-0.0244 -0.4248,0 -0.82031,0.19043 -0.39551,0.18555 -0.76172,0.4834 v 3.87207 h -0.91797 v -5.4541 h 0.91797 v 0.80566 q 0.54688,-0.43945 0.96192,-0.62011 0.41992,-0.18555 0.85449,-0.18555 0.23926,0 0.34668,0.0147 0.10742,0.01 0.32226,0.0439 z"
         style="font-style:normal;font-size:medium;text-anchor:middle;fill:none;fill-opacity:1;stroke:#000000;stroke-width:0.25;stroke-linecap:butt;stroke-linejoin:bevel;stroke-dasharray:none;stroke-opacity:1"
         id="path1042"
         inkscape:connector-curvature="0" />
      <path
         d="m 112.08388,436.01501 h -4.01856 q 0,0.50293 0.15137,0.87891 0.15137,0.37109 0.41504,0.61035 0.25391,0.23438 0.60059,0.35156 0.35156,0.11719 0.77148,0.11719 0.55664,0 1.11816,-0.21972 0.56641,-0.22461 0.80567,-0.43946 h 0.0488 v 1.00098 q -0.46387,0.19531 -0.94727,0.32715 -0.4834,0.13183 -1.01562,0.13183 -1.35743,0 -2.11915,-0.73242 -0.76171,-0.7373 -0.76171,-2.08984 0,-1.33789 0.72753,-2.12403 0.73243,-0.78613 1.92383,-0.78613 1.10352,0 1.69922,0.64453 0.60059,0.64453 0.60059,1.83106 z m -0.89356,-0.70312 q -0.005,-0.72266 -0.36621,-1.11816 -0.35644,-0.39551 -1.08887,-0.39551 -0.7373,0 -1.17675,0.43457 -0.43457,0.43457 -0.49317,1.0791 z"
         style="font-style:normal;font-size:medium;text-anchor:middle;fill:none;fill-opacity:1;stroke:#000000;stroke-width:0.25;stroke-linecap:butt;stroke-linejoin:bevel;stroke-dasharray:none;stroke-opacity:1"
         id="path1044"
         inkscape:connector-curvature="0" />
      <path
         d="m 117.37196,437.07458 q 0,0.74708 -0.62011,1.22559 -0.61524,0.47852 -1.68457,0.47852 -0.60547,0 -1.11329,-0.14161 -0.50292,-0.14648 -0.84472,-0.31738 v -1.03027 h 0.0488 q 0.43457,0.32715 0.96679,0.52246 0.53223,0.19043 1.02051,0.19043 0.60547,0 0.94727,-0.19531 0.34179,-0.19532 0.34179,-0.61524 0,-0.32226 -0.18554,-0.48828 -0.18555,-0.16601 -0.71289,-0.2832 -0.19532,-0.0439 -0.5127,-0.10254 -0.3125,-0.0586 -0.57129,-0.12695 -0.71777,-0.19043 -1.02051,-0.55664 -0.29785,-0.3711 -0.29785,-0.90821 0,-0.33691 0.13672,-0.63476 0.1416,-0.29786 0.42481,-0.53223 0.27343,-0.22949 0.69336,-0.36133 0.4248,-0.13672 0.94726,-0.13672 0.48828,0 0.98633,0.12207 0.50293,0.11719 0.83496,0.28809 v 0.98144 h -0.0488 q -0.35156,-0.25878 -0.85449,-0.43457 -0.50293,-0.18066 -0.98633,-0.18066 -0.50293,0 -0.84961,0.19531 -0.34668,0.19043 -0.34668,0.57129 0,0.33692 0.20996,0.50781 0.20508,0.1709 0.66407,0.27832 0.2539,0.0586 0.5664,0.11719 0.31738,0.0586 0.52735,0.10742 0.63964,0.14649 0.98632,0.50293 0.34668,0.36133 0.34668,0.95703 z"
         style="font-style:normal;font-size:medium;text-anchor:middle;fill:none;fill-opacity:1;stroke:#000000;stroke-width:0.25;stroke-linecap:butt;stroke-linejoin:bevel;stroke-dasharray:none;stroke-opacity:1"
         id="path1046"
         inkscape:connector-curvature="0" />
      <path
         d="m 121.52235,438.59802 q -0.25878,0.0684 -0.5664,0.11231 -0.30274,0.0439 -0.54199,0.0439 -0.83497,0 -1.26954,-0.44922 -0.43457,-0.44922 -0.43457,-1.44043 v -2.90039 h -0.62011 v -0.77148 h 0.62011 v -1.56738 h 0.91797 v 1.56738 h 1.89453 v 0.77148 h -1.89453 v 2.48535 q 0,0.42969 0.0195,0.67383 0.0195,0.23926 0.13672,0.44922 0.10742,0.19531 0.29297,0.28809 0.19043,0.0879 0.57617,0.0879 0.22461,0 0.46875,-0.0635 0.24414,-0.0684 0.35157,-0.1123 h 0.0488 z"
         style="font-style:normal;font-size:medium;text-anchor:middle;fill:none;fill-opacity:1;stroke:#000000;stroke-width:0.25;stroke-linecap:butt;stroke-linejoin:bevel;stroke-dasharray:none;stroke-opacity:1"
         id="path1048"
         inkscape:connector-curvature="0" />
    </g>
  </g>
</svg>
