<?xml version="1.0" encoding="UTF-8" standalone="no"?>
<svg
   xmlns:dc="http://purl.org/dc/elements/1.1/"
   xmlns:cc="http://creativecommons.org/ns#"
   xmlns:rdf="http://www.w3.org/1999/02/22-rdf-syntax-ns#"
   xmlns:svg="http://www.w3.org/2000/svg"
   xmlns="http://www.w3.org/2000/svg"
   xmlns:sodipodi="http://sodipodi.sourceforge.net/DTD/sodipodi-0.dtd"
   xmlns:inkscape="http://www.inkscape.org/namespaces/inkscape"
   version="1.1"
   width="300.00mm"
   height="600.00mm"
   viewBox="0 0 300.00 600.00"
   id="svg900"
   sodipodi:docname="backrest_page4.svg"
   inkscape:version="0.92.2 (5c3e80d, 2017-08-06)">
  <metadata
     id="metadata85">
    <rdf:RDF>
      <cc:Work
         rdf:about="">
        <dc:format>image/svg+xml</dc:format>
        <dc:type
           rdf:resource="http://purl.org/dc/dcmitype/StillImage" />
      </cc:Work>
    </rdf:RDF>
  </metadata>
  <defs
     id="defs904" />
  <sodipodi:namedview
     id="namedview902"
     pagecolor="#ffffff"
     bordercolor="#666666"
     borderopacity="1.0"
     inkscape:pageshadow="2"
     inkscape:pageopacity="0.0"
     inkscape:pagecheckerboard="0"
     inkscape:document-units="mm"
     showgrid="false"
     inkscape:zoom="0.35057292"
     inkscape:cx="-310.89544"
     inkscape:cy="945.80383"
     inkscape:window-width="1920"
     inkscape:window-height="1017"
     inkscape:window-x="1912"
     inkscape:window-y="-8"
     inkscape:window-maximized="1"
     inkscape:current-layer="svg900" />
  <style
     type="text/css"
     id="style824">
    path {
        fill: none;
        stroke-linecap: butt;
        stroke-linejoin: bevel;
        stroke-dasharray: none;
    }
    path.outer {
        stroke: #000000;
        stroke-dasharray: none;
        stroke-dashoffset: 0;
        stroke-width: 0.3;
        stroke-opacity: 1.0;
    }
    path.convex {
        stroke: #000000;
        stroke-dasharray: 0.50,1.00;
        stroke-dashoffset:0;
        stroke-width:0.2;
        stroke-opacity: 1.0
    }
    path.concave {
        stroke: #000000;
        stroke-dasharray: 1.00,0.50,0.20,0.50;
        stroke-dashoffset: 0;
        stroke-width: 0.2;
        stroke-opacity: 1.0
    }
    path.freestyle {
        stroke: #000000;
        stroke-dasharray: none;
        stroke-dashoffset: 0;
        stroke-width: 0.2;
        stroke-opacity: 1.0
    }
    path.outer_background {
        stroke: #ffffff;
        stroke-opacity: 1.0;
        stroke-width: 0.5
    }
    path.inner_background {
        stroke: #ffffff;
        stroke-opacity: 1.0;
        stroke-width: 0.2
    }
    path.sticker {
        fill: #e5e5e5;
        stroke: none;
        fill-opacity: 1.0;
    }
    path.arrow {
        fill: #000000;
    }
    text {
        font-style: normal;
        fill: #000000;
        fill-opacity: 1.0;
        stroke: none;
    }
    text, tspan {
        text-anchor:middle;
    }
    </style>
  <path
     inkscape:connector-curvature="0"
     id="path4581"
     style="font-style:normal;font-size:medium;text-anchor:middle;fill:none;fill-opacity:1;stroke:#000000;stroke-width:0.25;stroke-linecap:butt;stroke-linejoin:bevel;stroke-dasharray:none;stroke-opacity:1"
     d="m 190.47207,165.28513 -2.41514,0.78354 -2.93528,-9.04748 2.41513,-0.78354 0.21548,0.66416 -1.607,0.52136 2.50434,7.71914 1.60699,-0.52135 z" />
  <path
     inkscape:connector-curvature="0"
     id="path4583"
     style="font-style:normal;font-size:medium;text-anchor:middle;fill:none;fill-opacity:1;stroke:#000000;stroke-width:0.25;stroke-linecap:butt;stroke-linejoin:bevel;stroke-dasharray:none;stroke-opacity:1"
     d="m 195.71953,161.5704 -3.74347,1.2145 -0.22903,-0.70596 1.43979,-0.46711 -1.50381,-4.63521 -1.43979,0.46711 -0.20493,-0.63165 q 0.29261,-0.0949 0.61195,-0.24984 0.31783,-0.15956 0.45953,-0.30822 0.17598,-0.18542 0.23948,-0.4011 0.0666,-0.22182 -0.0127,-0.52973 l 0.7199,-0.23356 2.02215,6.23292 1.41193,-0.45808 z" />
  <path
     inkscape:connector-curvature="0"
     id="path4585"
     style="font-style:normal;font-size:medium;text-anchor:middle;fill:none;fill-opacity:1;stroke:#000000;stroke-width:0.25;stroke-linecap:butt;stroke-linejoin:bevel;stroke-dasharray:none;stroke-opacity:1"
     d="m 200.48191,156.34473 q 0.28773,0.12738 0.52966,0.38256 0.24191,0.25518 0.39712,0.73356 0.15369,0.47374 0.10993,0.92428 -0.0438,0.45053 -0.26001,0.84409 -0.24287,0.43812 -0.66537,0.74974 -0.41938,0.30545 -0.98136,0.48778 -0.57591,0.18684 -1.17846,0.22833 -0.60104,0.0461 -1.01141,-4e-4 l -0.31492,-0.9707 0.0697,-0.0226 q 0.47916,0.13201 1.06903,0.13057 0.58987,-0.001 1.08683,-0.16267 0.2926,-0.0949 0.59072,-0.29944 0.29812,-0.20452 0.44069,-0.46125 0.14735,-0.27367 0.16966,-0.55298 0.027,-0.28081 -0.0951,-0.65702 -0.12055,-0.37155 -0.31966,-0.5739 -0.19597,-0.20848 -0.45018,-0.28001 -0.25572,-0.0762 -0.56954,-0.0308 -0.31533,0.0407 -0.65903,0.1522 l -0.418,0.13561 -0.25013,-0.77098 0.32512,-0.10548 q 0.70597,-0.22903 1.02904,-0.65725 0.3262,-0.43437 0.14237,-1.001 -0.0814,-0.2508 -0.24846,-0.40193 -0.1686,-0.15576 -0.3982,-0.21474 -0.23889,-0.056 -0.48154,-0.0286 -0.24265,0.0274 -0.5306,0.12084 -0.44123,0.14315 -0.88696,0.46229 -0.44573,0.31914 -0.79354,0.75025 l -0.0464,0.0151 -0.31493,-0.97071 q 0.27702,-0.26954 0.78138,-0.58203 0.50749,-0.31865 1.02303,-0.4859 0.50625,-0.16425 0.92186,-0.19648 0.41565,-0.0321 0.79311,0.0712 0.40674,0.11445 0.68104,0.37452 0.27432,0.26007 0.41144,0.68272 0.18685,0.57592 -0.0817,1.14046 -0.26545,0.55839 -0.78198,0.84916 l 0.0211,0.0651 q 0.235,-0.0351 0.56213,-0.008 0.32563,0.0227 0.5826,0.13439 z" />
  <path
     inkscape:connector-curvature="0"
     id="path4587"
     style="font-style:normal;font-size:medium;text-anchor:middle;fill:none;fill-opacity:1;stroke:#000000;stroke-width:0.25;stroke-linecap:butt;stroke-linejoin:bevel;stroke-dasharray:none;stroke-opacity:1"
     d="m 206.59776,160.05345 -2.41514,0.78354 -0.21548,-0.66417 1.607,-0.52136 -2.50433,-7.71915 -1.607,0.52136 -0.21548,-0.66416 2.41514,-0.78354 z" />
  <path
     inkscape:connector-curvature="0"
     id="path4589"
     style="font-style:normal;font-size:medium;text-anchor:middle;fill:none;fill-opacity:1;stroke:#000000;stroke-width:0.25;stroke-linecap:butt;stroke-linejoin:bevel;stroke-dasharray:none;stroke-opacity:1"
     d="m 213.83771,155.6923 -2.73097,0.88601 -0.22904,-0.70596 0.90568,-0.29383 -1.78558,-5.50373 -0.90568,0.29383 -0.22903,-0.70596 2.73097,-0.88601 0.22903,0.70595 -0.90568,0.29383 1.78559,5.50374 0.90567,-0.29383 z" />
  <path
     inkscape:connector-curvature="0"
     id="path4591"
     style="font-style:normal;font-size:medium;text-anchor:middle;fill:none;fill-opacity:1;stroke:#000000;stroke-width:0.25;stroke-linecap:butt;stroke-linejoin:bevel;stroke-dasharray:none;stroke-opacity:1"
     d="m 222.86196,152.76455 -3.74347,1.21449 -0.22903,-0.70595 1.4398,-0.46712 -1.50381,-4.63521 -1.4398,0.46712 -0.20492,-0.63165 q 0.2926,-0.0949 0.61194,-0.24984 0.31784,-0.15957 0.45954,-0.30823 0.17598,-0.18542 0.23948,-0.40109 0.0666,-0.22183 -0.0127,-0.52974 l 0.7199,-0.23356 2.02215,6.23292 1.41193,-0.45807 z" />
  <path
     inkscape:connector-curvature="0"
     id="path4593"
     style="font-style:normal;font-size:medium;text-anchor:middle;fill:none;fill-opacity:1;stroke:#000000;stroke-width:0.25;stroke-linecap:butt;stroke-linejoin:bevel;stroke-dasharray:none;stroke-opacity:1"
     d="m 227.62435,147.53887 q 0.28773,0.12738 0.52965,0.38256 0.24193,0.25518 0.39713,0.73356 0.15369,0.47374 0.10992,0.92428 -0.0438,0.45053 -0.26001,0.8441 -0.24286,0.43812 -0.66537,0.74973 -0.41937,0.30545 -0.98135,0.48778 -0.57592,0.18685 -1.17847,0.22833 -0.60103,0.0461 -1.01139,-4e-4 l -0.31493,-0.9707 0.0696,-0.0226 q 0.47916,0.13201 1.06903,0.13057 0.58987,-0.001 1.08683,-0.16267 0.29261,-0.0949 0.59073,-0.29944 0.29811,-0.20452 0.44069,-0.46125 0.14735,-0.27367 0.16966,-0.55298 0.027,-0.28082 -0.0951,-0.65702 -0.12054,-0.37156 -0.31966,-0.57389 -0.19597,-0.20849 -0.45017,-0.28002 -0.25572,-0.0762 -0.56954,-0.0308 -0.31533,0.0407 -0.65903,0.15221 l -0.418,0.13561 -0.25013,-0.77098 0.32511,-0.10548 q 0.70596,-0.22903 1.02903,-0.65725 0.32622,-0.43437 0.14239,-1.001 -0.0814,-0.2508 -0.24846,-0.40193 -0.16861,-0.15576 -0.39821,-0.21475 -0.23889,-0.056 -0.48154,-0.0286 -0.24264,0.0274 -0.53059,0.12084 -0.44123,0.14315 -0.88696,0.46228 -0.44573,0.31915 -0.79354,0.75025 l -0.0464,0.0151 -0.31492,-0.9707 q 0.27702,-0.26954 0.78137,-0.58203 0.5075,-0.31865 1.02303,-0.4859 0.50626,-0.16425 0.92187,-0.19648 0.41564,-0.0321 0.7931,0.0712 0.40673,0.11445 0.68105,0.37452 0.27431,0.26007 0.41143,0.68273 0.18684,0.57591 -0.0817,1.14045 -0.26544,0.55839 -0.78198,0.84916 l 0.0211,0.0651 q 0.23501,-0.0351 0.56213,-0.008 0.32563,0.0227 0.58261,0.13439 z" />
  <path
     class="sticker"
     d="m 166.39321,199.07429 -9.93322,-1.16443 9.52676,-94.01784 9.96489,0.85183 z m 14.29226,97.69655 -9.99512,0.34976 -2.31988,-45.72992 9.97919,-0.66355 z m -7.83022,99.33973 -9.87947,-1.5559 7.32162,-51.76912 9.92347,1.24481 z m 87.48023,-303.334755 9.93704,-1.131482 14.15848,109.072827 -9.89656,1.44306 z m -15.88503,411.017215 -2.63111,9.64893 -55.3704,-14.16811 2.32673,-9.72682 z m -55.67478,-14.246 -10.1573,-0.0774 -15.59467,-91.52456 9.83155,-1.83452 z m -12.82403,-384.80318 1.35596,-10.292392 81.46814,-11.554478 1.55974,9.878835 z m 97.04348,287.49385 9.64893,2.63112 -28.46678,111.25095 -9.72682,-2.32674 z m 10.11395,-94.96035 9.92699,1.21635 -5.02831,47.16377 -9.9603,-0.90392 z m -8.57463,-95.11713 9.97817,-0.67879 4.0552,48.37619 -9.95192,0.9919 z m -94.31357,141.87014 -9.99798,-0.25539 0.46151,-46.94536 10.00107,-0.0588 z m 97.82658,0.72319 9.92727,1.21425 -5.01912,47.17172 -9.96048,-0.90182 z m -99.69779,-94.02642 -9.77783,2.1021 -11.8856,-51.34675 9.70698,-2.40819 z m 100.26623,0.12239 9.96861,-0.80692 4.46294,46.11511 -9.93837,1.11964 z"
     id="path830"
     style="stroke:#000000;stroke-opacity:1;stroke-width:0.25" />
  <path
     class="outer"
     d="m 156.45999,197.90986 9.52676,-94.01784 9.96489,0.85183 1.35596,-10.292392 81.46814,-11.554478 1.55974,9.878835 9.93704,-1.131482 14.15848,109.072827 -9.89656,1.44306 9.97817,-0.67879 4.0552,48.37619 -9.95192,0.9919 9.96861,-0.80692 4.46294,46.11511 -9.93837,1.11964 9.92699,1.21635 -5.02831,47.16377 -9.9603,-0.90392 9.92727,1.21425 -5.01912,47.17172 -9.96048,-0.90182 9.64893,2.63112 -28.46678,111.25095 -9.72682,-2.32674 -2.63111,9.64893 -55.3704,-14.16811 2.32673,-9.72682 -10.1573,-0.0774 -15.59467,-91.52456 9.83155,-1.83452 -9.87947,-1.5559 7.32162,-51.76912 9.92347,1.24481 -9.99798,-0.25539 0.46151,-46.94536 10.00107,-0.0588 -9.99512,0.34976 -2.31988,-45.72992 9.97919,-0.66355 -9.77783,2.1021 -11.8856,-51.34675 9.70698,-2.40819 z"
     id="path832"
     style="stroke:#000000;stroke-opacity:1;stroke-width:0.25" />
  <path
     inkscape:connector-curvature="0"
     id="path4596"
     style="font-style:normal;font-size:medium;text-anchor:middle;fill:none;fill-opacity:1;stroke:#000000;stroke-width:0.25;stroke-linecap:butt;stroke-linejoin:bevel;stroke-dasharray:none;stroke-opacity:1"
     d="m 167.04197,154.19826 q 0.4547,0.0461 0.85321,0.25431 0.39852,0.20822 0.65348,0.52558 0.27414,0.3458 0.39599,0.79986 0.1179,0.44923 0.0599,1.02198 -0.0541,0.5334 -0.21778,1.01593 -0.15938,0.48298 -0.35133,0.80806 l -0.92252,-0.0935 0.006,-0.0612 q 0.26368,-0.33548 0.47419,-0.80003 0.20612,-0.46497 0.25308,-0.92842 0.0315,-0.31043 -0.0268,-0.60784 -0.0578,-0.30181 -0.25334,-0.5513 -0.1685,-0.21143 -0.42108,-0.3342 -0.25215,-0.12714 -0.59754,-0.16214 -0.33666,-0.0341 -0.58034,0.0605 -0.24324,0.0902 -0.40398,0.28151 -0.18918,0.21051 -0.28799,0.53177 -0.10272,0.31646 -0.14348,0.71869 -0.039,0.38475 -0.0229,0.74858 0.0165,0.35946 0.0429,0.62274 l -3.35343,-0.3398 0.39695,-3.91744 0.76512,0.0775 -0.31145,3.07361 1.73137,0.17543 q 0.002,-0.18977 0.0127,-0.38741 0.011,-0.19765 0.0256,-0.34193 0.0536,-0.52903 0.18575,-0.91759 0.12777,-0.389 0.38879,-0.69825 0.27591,-0.3254 0.67577,-0.47923 0.39988,-0.15384 0.97262,-0.0958 z" />
  <path
     inkscape:connector-curvature="0"
     id="path4598"
     style="font-style:normal;font-size:medium;text-anchor:middle;fill:none;fill-opacity:1;stroke:#000000;stroke-width:0.25;stroke-linecap:butt;stroke-linejoin:bevel;stroke-dasharray:none;stroke-opacity:1"
     d="m 165.79666,150.83881 -0.10589,1.04494 -1.24606,-0.12626 0.10589,-1.04494 z m 3.63762,0.3686 -0.10588,1.04494 -1.24606,-0.12627 0.10588,-1.04494 z" />
  <path
     inkscape:connector-curvature="0"
     id="path4600"
     style="font-style:normal;font-size:medium;text-anchor:middle;fill:none;fill-opacity:1;stroke:#000000;stroke-width:0.25;stroke-linecap:butt;stroke-linejoin:bevel;stroke-dasharray:none;stroke-opacity:1"
     d="m 168.29634,144.34729 q 0.84383,0.0855 1.33657,0.8024 0.49318,0.71253 0.39217,1.70937 -0.10721,1.05807 -0.71753,1.63227 -0.60988,0.56984 -1.46244,0.48345 -0.54214,-0.0549 -0.94746,-0.41403 -0.40969,-0.35954 -0.60961,-0.95843 l -0.0263,-0.003 q -0.33298,0.49631 -0.69095,0.71622 -0.35754,0.21554 -0.85596,0.16504 -0.73452,-0.0744 -1.16306,-0.72741 -0.42855,-0.65297 -0.33418,-1.58424 0.0988,-0.97499 0.62554,-1.50908 0.52674,-0.53409 1.24814,-0.46099 0.44159,0.0448 0.84215,0.36361 0.39618,0.31842 0.5826,0.87618 l 0.0263,0.003 q 0.32435,-0.58551 0.74188,-0.87007 0.41754,-0.28454 1.01214,-0.22429 z m -3.28354,0.71411 q -0.46782,-0.0474 -0.78003,0.28758 -0.31615,0.33016 -0.37286,0.88979 -0.0558,0.55089 0.17062,0.93162 0.22689,0.37635 0.67284,0.42154 0.3148,0.0319 0.56425,-0.11951 0.24552,-0.15622 0.4611,-0.49657 0.0951,-0.1538 0.25245,-0.44263 0.15781,-0.2932 0.27011,-0.57335 -0.2447,-0.46207 -0.53829,-0.65967 -0.29358,-0.1976 -0.70019,-0.2388 z m 3.27535,0.19496 q -0.40224,-0.0408 -0.66087,0.11414 -0.26256,0.15008 -0.55967,0.64117 -0.11703,0.19574 -0.22489,0.43217 -0.10789,0.23642 -0.29774,0.62797 0.17436,0.4152 0.51725,0.69288 0.34334,0.27332 0.80679,0.32028 0.59023,0.0598 1.01619,-0.30782 0.42595,-0.36763 0.4893,-0.99284 0.0647,-0.63833 -0.22469,-1.05193 -0.28892,-0.41798 -0.86167,-0.47602 z" />
  <path
     inkscape:connector-curvature="0"
     id="path4603"
     style="font-style:normal;font-size:medium;text-anchor:middle;fill:none;fill-opacity:1;stroke:#000000;stroke-width:0.25;stroke-linecap:butt;stroke-linejoin:bevel;stroke-dasharray:none;stroke-opacity:1"
     d="m 175.86319,278.26868 q 0.45644,-0.0232 0.88185,0.12247 0.4254,0.14563 0.72537,0.42083 0.32325,0.30041 0.51229,0.73083 0.18444,0.42626 0.21361,1.00121 0.0272,0.53545 -0.0618,1.03718 -0.0846,0.50151 -0.22519,0.85186 l -0.92605,0.047 -0.003,-0.0614 q 0.20997,-0.37147 0.34786,-0.86248 0.13351,-0.49079 0.10991,-0.95602 -0.0158,-0.31161 -0.11829,-0.59682 -0.1027,-0.2896 -0.33372,-0.5067 -0.19851,-0.18352 -0.46675,-0.26672 -0.26845,-0.0876 -0.61518,-0.07 -0.33794,0.0171 -0.56454,0.14744 -0.22682,0.12591 -0.3568,0.33931 -0.1552,0.23669 -0.20433,0.5692 -0.0537,0.32834 -0.0333,0.73211 0.0196,0.38622 0.0905,0.74344 0.0707,0.35283 0.13651,0.60911 l -3.36629,0.17077 -0.19949,-3.93244 0.76806,-0.039 0.15653,3.08539 1.73799,-0.0882 q -0.0272,-0.18783 -0.046,-0.38489 -0.019,-0.19704 -0.0263,-0.34187 -0.0269,-0.53106 0.045,-0.93512 0.0675,-0.40384 0.27882,-0.74898 0.22357,-0.36336 0.59561,-0.57584 0.37203,-0.21248 0.94698,-0.24165 z" />
  <path
     inkscape:connector-curvature="0"
     id="path4605"
     style="font-style:normal;font-size:medium;text-anchor:middle;fill:none;fill-opacity:1;stroke:#000000;stroke-width:0.25;stroke-linecap:butt;stroke-linejoin:bevel;stroke-dasharray:none;stroke-opacity:1"
     d="m 174.12459,275.13594 0.0532,1.04895 -1.25083,0.0635 -0.0532,-1.04895 z m 3.65156,-0.18524 0.0532,1.04895 -1.25083,0.0635 -0.0532,-1.04895 z" />
  <path
     inkscape:connector-curvature="0"
     id="path4607"
     style="font-style:normal;font-size:medium;text-anchor:middle;fill:none;fill-opacity:1;stroke:#000000;stroke-width:0.25;stroke-linecap:butt;stroke-linejoin:bevel;stroke-dasharray:none;stroke-opacity:1"
     d="m 173.77872,268.49161 q 0.85584,-0.0434 1.5637,0.11869 0.70762,0.15771 1.21921,0.52778 0.5206,0.374 0.82321,0.96147 0.30261,0.58748 0.34381,1.39942 0.0116,0.22822 -0.005,0.43145 -0.0117,0.203 -0.0563,0.36367 l -0.83828,0.0425 -0.002,-0.0438 q 0.0593,-0.13061 0.10901,-0.36634 0.0452,-0.23551 0.0308,-0.52079 -0.0492,-0.96994 -0.65636,-1.48917 -0.61179,-0.52338 -1.63884,-0.55928 0.26648,0.39569 0.39007,0.75025 0.12359,0.35454 0.14519,0.78026 0.0205,0.40377 -0.0418,0.73695 -0.0625,0.32879 -0.27405,0.66953 -0.24813,0.39981 -0.65066,0.61823 -0.40277,0.21404 -0.97771,0.24321 -1.00067,0.0508 -1.66167,-0.57573 -0.66101,-0.62649 -0.7091,-1.5745 -0.024,-0.474 0.10469,-0.88534 0.12435,-0.41112 0.40305,-0.72887 0.34534,-0.39154 0.91005,-0.6226 0.5603,-0.23084 1.46881,-0.27692 z m -0.14374,0.89614 q -0.68028,0.0345 -1.08571,0.19588 -0.40543,0.16137 -0.62118,0.41873 -0.18704,0.2163 -0.2584,0.45753 -0.0758,0.24145 -0.0617,0.51795 0.0321,0.632 0.44576,0.98062 0.41348,0.34425 1.12887,0.30795 0.41694,-0.0212 0.67426,-0.153 0.25733,-0.13186 0.44058,-0.42277 0.12603,-0.20441 0.16229,-0.44385 0.0318,-0.23923 0.0171,-0.5289 -0.0174,-0.34233 -0.12736,-0.68876 -0.11,-0.34643 -0.30113,-0.64475 -0.0924,6.8e-4 -0.18039,1.4e-4 -0.0926,-0.004 -0.23307,0.003 z" />
  <path
     inkscape:connector-curvature="0"
     id="path4609"
     style="font-style:normal;font-size:medium;text-anchor:middle;fill:none;fill-opacity:1;stroke:#000000;stroke-width:0.25;stroke-linecap:butt;stroke-linejoin:bevel;stroke-dasharray:none;stroke-opacity:1"
     d="m 177.29901,265.54531 0.0532,1.04895 -1.25083,0.0635 -0.0532,-1.04895 z" />
  <path
     inkscape:connector-curvature="0"
     id="path4612"
     style="font-style:normal;font-size:medium;text-anchor:middle;fill:none;fill-opacity:1;stroke:#000000;stroke-width:0.25;stroke-linecap:butt;stroke-linejoin:bevel;stroke-dasharray:none;stroke-opacity:1"
     d="m 171.91915,375.0317 q 0.45254,0.064 0.84252,0.28781 0.38998,0.22381 0.63219,0.55099 0.26029,0.35637 0.36409,0.81487 0.10008,0.45354 0.0195,1.02355 -0.0751,0.53086 -0.25775,1.00655 -0.17832,0.4763 -0.38297,0.79354 l -0.9181,-0.12985 0.009,-0.0609 q 0.27672,-0.3248 0.50541,-0.78067 0.22434,-0.45648 0.28957,-0.91771 0.0437,-0.30894 -0.003,-0.60843 -0.0458,-0.30384 -0.23135,-0.56087 -0.16003,-0.21792 -0.40756,-0.35057 -0.24692,-0.137 -0.59067,-0.18562 -0.33504,-0.0474 -0.58227,0.0375 -0.24662,0.0805 -0.41478,0.26533 -0.19735,0.20288 -0.30877,0.51999 -0.11514,0.31214 -0.17176,0.71246 -0.0541,0.38291 -0.0524,0.74709 0.002,0.35983 0.0183,0.62394 l -3.33739,-0.47201 0.55138,-3.8987 0.76146,0.10769 -0.43261,3.05892 1.72309,0.2437 q 0.009,-0.18958 0.028,-0.38661 0.0188,-0.19706 0.0391,-0.34065 0.0745,-0.5265 0.22186,-0.90954 0.14303,-0.38366 0.41605,-0.68235 0.28855,-0.31425 0.69419,-0.45216 0.40563,-0.13792 0.97563,-0.0573 z" />
  <path
     inkscape:connector-curvature="0"
     id="path4614"
     style="font-style:normal;font-size:medium;text-anchor:middle;fill:none;fill-opacity:1;stroke:#000000;stroke-width:0.25;stroke-linecap:butt;stroke-linejoin:bevel;stroke-dasharray:none;stroke-opacity:1"
     d="m 170.80753,371.62567 -0.14707,1.03995 -1.2401,-0.17539 0.14707,-1.03994 z m 3.62023,0.51201 -0.14708,1.03994 -1.2401,-0.17539 0.14708,-1.03994 z" />
  <path
     inkscape:connector-curvature="0"
     id="path4616"
     style="font-style:normal;font-size:medium;text-anchor:middle;fill:none;fill-opacity:1;stroke:#000000;stroke-width:0.25;stroke-linecap:butt;stroke-linejoin:bevel;stroke-dasharray:none;stroke-opacity:1"
     d="m 175.30837,365.91107 -0.496,3.50709 -0.66139,-0.0935 0.19077,-1.34888 -4.34252,-0.61415 -0.19077,1.34887 -0.59177,-0.0837 q 0.0388,-0.27413 0.0396,-0.59356 -0.004,-0.32006 -0.0678,-0.49337 -0.0805,-0.21553 -0.22983,-0.35205 -0.15308,-0.14148 -0.43345,-0.19889 l 0.0954,-0.67444 5.83935,0.82585 0.18708,-1.32277 z" />
  <path
     inkscape:connector-curvature="0"
     id="path4618"
     style="font-style:normal;font-size:medium;text-anchor:middle;fill:none;fill-opacity:1;stroke:#000000;stroke-width:0.25;stroke-linecap:butt;stroke-linejoin:bevel;stroke-dasharray:none;stroke-opacity:1"
     d="m 172.92025,359.41745 q 1.74484,0.24677 2.48533,0.91071 0.73676,0.65899 0.5743,1.80772 -0.16492,1.16612 -1.06796,1.58875 -0.90243,0.41828 -2.61682,0.17582 -1.72744,-0.24431 -2.47289,-0.90453 -0.74981,-0.66082 -0.58673,-1.81389 0.16492,-1.16614 1.0804,-1.58257 0.91174,-0.4214 2.60437,-0.18201 z m 1.81361,1.42375 q -0.33091,-0.20213 -0.79781,-0.32143 -0.47064,-0.12423 -1.14073,-0.219 -0.66139,-0.0935 -1.15672,-0.10592 -0.49472,-0.0167 -0.85627,0.0919 -0.35658,0.10491 -0.56382,0.34633 -0.20663,0.23708 -0.26509,0.65044 -0.0578,0.40901 0.0737,0.70279 0.13216,0.28943 0.45375,0.49468 0.30107,0.19349 0.81087,0.32329 0.51042,0.12541 1.12829,0.2128 0.67879,0.096 1.14243,0.11279 0.46365,0.0168 0.84696,-0.0888 0.3597,-0.0956 0.57503,-0.33144 0.21593,-0.24019 0.27747,-0.67531 0.0579,-0.40902 -0.0737,-0.7028 -0.13154,-0.29377 -0.45436,-0.49034 z" />
  <path
     inkscape:connector-curvature="0"
     id="path4621"
     style="font-style:normal;font-size:medium;text-anchor:middle;fill:none;fill-opacity:1;stroke:#000000;stroke-width:0.25;stroke-linecap:butt;stroke-linejoin:bevel;stroke-dasharray:none;stroke-opacity:1"
     d="m 268.4631,141.40536 -0.45595,-3.51252 0.66241,-0.086 0.17537,1.35096 4.34925,-0.56457 -0.17537,-1.35096 0.59268,-0.0769 q 0.0356,0.27455 0.1199,0.58268 0.0886,0.30755 0.19676,0.45748 0.13497,0.18632 0.31529,0.27813 0.18523,0.0956 0.47076,0.0763 l 0.0877,0.67548 -5.8484,0.75917 0.17198,1.32482 z" />
  <path
     inkscape:connector-curvature="0"
     id="path4623"
     style="font-style:normal;font-size:medium;text-anchor:middle;fill:none;fill-opacity:1;stroke:#000000;stroke-width:0.25;stroke-linecap:butt;stroke-linejoin:bevel;stroke-dasharray:none;stroke-opacity:1"
     d="m 269.20078,147.08816 -0.45596,-3.51253 0.66241,-0.086 0.17537,1.35097 4.34925,-0.56456 -0.17537,-1.35098 0.59268,-0.0769 q 0.0356,0.27455 0.11991,0.58268 0.0886,0.30755 0.19675,0.45748 0.13497,0.18632 0.31529,0.27814 0.18523,0.0956 0.47076,0.0763 l 0.0877,0.67548 -5.8484,0.75917 0.17198,1.32483 z" />
  <path
     inkscape:connector-curvature="0"
     id="path4625"
     style="font-style:normal;font-size:medium;text-anchor:middle;fill:none;fill-opacity:1;stroke:#000000;stroke-width:0.25;stroke-linecap:butt;stroke-linejoin:bevel;stroke-dasharray:none;stroke-opacity:1"
     d="m 273.28199,150.12565 -0.1352,-1.04155 1.24202,-0.16123 0.1352,1.04156 z m -3.62583,0.47066 -0.1352,-1.04155 1.24202,-0.16122 0.1352,1.04155 z" />
  <path
     inkscape:connector-curvature="0"
     id="path4627"
     style="font-style:normal;font-size:medium;text-anchor:middle;fill:none;fill-opacity:1;stroke:#000000;stroke-width:0.25;stroke-linecap:butt;stroke-linejoin:bevel;stroke-dasharray:none;stroke-opacity:1"
     d="m 270.46568,156.83257 -0.45595,-3.51252 0.66241,-0.086 0.17536,1.35097 4.34925,-0.56457 -0.17536,-1.35096 0.59268,-0.0769 q 0.0356,0.27455 0.1199,0.58267 0.0886,0.30755 0.19676,0.45748 0.13497,0.18633 0.31528,0.27814 0.18523,0.0956 0.47077,0.0763 l 0.0877,0.67549 -5.84839,0.75917 0.17197,1.32482 z" />
  <path
     inkscape:connector-curvature="0"
     id="path4630"
     style="font-style:normal;font-size:medium;text-anchor:middle;fill:none;fill-opacity:1;stroke:#000000;stroke-width:0.25;stroke-linecap:butt;stroke-linejoin:bevel;stroke-dasharray:none;stroke-opacity:1"
     d="m 221.86322,499.8715 3.43144,0.87803 -0.16559,0.64712 -1.31978,-0.3377 -1.08719,4.24885 1.31978,0.3377 -0.14815,0.57901 q -0.26821,-0.0686 -0.58563,-0.10454 -0.31851,-0.0316 -0.49782,0.0132 -0.22307,0.0563 -0.37516,0.18978 -0.15743,0.13662 -0.24528,0.409 l -0.65989,-0.16885 1.46194,-5.71339 -1.29424,-0.33117 z" />
  <path
     inkscape:connector-curvature="0"
     id="path4632"
     style="font-style:normal;font-size:medium;text-anchor:middle;fill:none;fill-opacity:1;stroke:#000000;stroke-width:0.25;stroke-linecap:butt;stroke-linejoin:bevel;stroke-dasharray:none;stroke-opacity:1"
     d="m 215.34854,500.10516 0.94088,0.24075 0.45644,-1.78383 0.81742,0.20915 -0.45645,1.78384 3.0355,0.77672 -0.25055,0.9792 -3.98463,2.79075 -0.78336,-0.20044 0.99133,-3.87421 -0.94088,-0.24075 z m 1.58399,1.13109 -0.73206,2.86095 3.18857,-2.23239 z" />
  <path
     inkscape:connector-curvature="0"
     id="path4634"
     style="font-style:normal;font-size:medium;text-anchor:middle;fill:none;fill-opacity:1;stroke:#000000;stroke-width:0.25;stroke-linecap:butt;stroke-linejoin:bevel;stroke-dasharray:none;stroke-opacity:1"
     d="m 211.97807,501.11615 1.01752,0.26036 -0.31047,1.21335 -1.01752,-0.26037 z m 0.90636,-3.54213 1.01752,0.26036 -0.31047,1.21335 -1.01752,-0.26036 z" />
  <path
     inkscape:connector-curvature="0"
     id="path4636"
     style="font-style:normal;font-size:medium;text-anchor:middle;fill:none;fill-opacity:1;stroke:#000000;stroke-width:0.25;stroke-linecap:butt;stroke-linejoin:bevel;stroke-dasharray:none;stroke-opacity:1"
     d="m 205.96608,497.94934 q 0.1133,-0.44277 0.37856,-0.80582 0.26527,-0.36306 0.61707,-0.56788 0.38279,-0.21958 0.84992,-0.27243 0.46179,-0.0497 1.0195,0.093 0.5194,0.13291 0.97216,0.3667 0.45385,0.22953 0.7467,0.46776 l -0.22986,0.89831 -0.0596,-0.0152 q -0.29245,-0.31071 -0.72046,-0.58806 -0.42909,-0.2731 -0.88037,-0.38857 -0.30227,-0.0774 -0.60505,-0.0641 -0.30703,0.0122 -0.58288,0.16838 -0.23417,0.13513 -0.3932,0.36662 -0.16327,0.23038 -0.24934,0.56672 -0.0839,0.32781 -0.0267,0.58287 0.053,0.25396 0.21819,0.44139 0.18,0.21843 0.48296,0.36399 0.29761,0.14872 0.68929,0.24894 0.37465,0.0959 0.73682,0.13414 0.35791,0.0372 0.62217,0.0503 l -0.83555,3.2654 -3.8146,-0.97608 0.19064,-0.74504 2.99294,0.76583 0.43139,-1.68592 q -0.18744,-0.0298 -0.3812,-0.0703 -0.19381,-0.0403 -0.3343,-0.0762 -0.51514,-0.13181 -0.87968,-0.32036 -0.36564,-0.18429 -0.63255,-0.48846 -0.28067,-0.32131 -0.37322,-0.73963 -0.0925,-0.41831 0.0502,-0.97604 z" />
  <path
     inkscape:connector-curvature="0"
     style="fill:#000000;stroke:#000000;stroke-width:0.24999999;stroke-linecap:butt;stroke-linejoin:bevel;stroke-dasharray:none;stroke-opacity:1"
     id="path854"
     d="m 180.81547,442.82881 8.17826,-11.5376 -5.71378,11.11768 9.07312,8.59818 z"
     class="arrow" />
  <path
     d="m 192.92841,444.47094 -3.74346,1.21449 -0.22904,-0.70596 1.43979,-0.46711 -1.5038,-4.63521 -1.4398,0.46711 -0.20493,-0.63165 q 0.29261,-0.0949 0.61194,-0.24986 0.31783,-0.15959 0.45954,-0.30823 0.17598,-0.18542 0.23948,-0.40109 0.0666,-0.22182 -0.0127,-0.52974 l 0.71989,-0.23356 2.02216,6.23292 1.41192,-0.45808 z"
     style="font-style:normal;font-size:medium;text-anchor:middle;fill:none;fill-opacity:1;stroke:#000000;stroke-width:0.25;stroke-linecap:butt;stroke-linejoin:bevel;stroke-dasharray:none;stroke-opacity:1"
     id="path4639"
     inkscape:connector-curvature="0" />
  <path
     inkscape:connector-curvature="0"
     id="path4642"
     style="font-style:normal;font-size:medium;text-anchor:middle;fill:none;fill-opacity:1;stroke:#000000;stroke-width:0.25;stroke-linecap:butt;stroke-linejoin:bevel;stroke-dasharray:none;stroke-opacity:1"
     d="m 180.02864,448.92753 0.59494,3.49167 -0.65848,0.11219 -0.22882,-1.34294 -4.32343,0.73666 0.22882,1.34295 -0.58917,0.10038 q -0.0465,-0.27291 -0.14296,-0.57745 -0.1008,-0.30379 -0.21475,-0.44931 -0.14226,-0.18082 -0.32607,-0.26541 -0.18888,-0.0882 -0.47342,-0.0575 l -0.11441,-0.67147 5.81368,-0.99059 -0.2244,-1.31695 z" />
  <path
     inkscape:connector-curvature="0"
     id="path4644"
     style="font-style:normal;font-size:medium;text-anchor:middle;fill:none;fill-opacity:1;stroke:#000000;stroke-width:0.25;stroke-linecap:butt;stroke-linejoin:bevel;stroke-dasharray:none;stroke-opacity:1"
     d="m 177.19743,443.16893 q 0.83609,-0.14246 1.50206,0.4172 0.66522,0.55533 0.83352,1.54304 0.17863,1.04838 -0.25658,1.76446 -0.43597,0.71176 -1.28072,0.8557 -0.53718,0.0915 -1.02354,-0.14657 -0.49069,-0.23736 -0.84298,-0.76132 l -0.026,0.004 q -0.18868,0.5671 -0.47511,0.87446 -0.28716,0.30303 -0.78102,0.38717 -0.72779,0.12401 -1.31485,-0.39115 -0.58706,-0.51515 -0.74428,-1.43789 -0.16461,-0.96606 0.20075,-1.62121 0.36537,-0.65515 1.08016,-0.77694 0.43754,-0.0745 0.90859,0.12603 0.46672,0.20133 0.79504,0.68924 l 0.026,-0.004 q 0.15659,-0.65078 0.48319,-1.03631 0.3266,-0.38553 0.91577,-0.48591 z m -2.9745,1.56333 q -0.46353,0.079 -0.67519,0.48505 -0.21673,0.40247 -0.12224,0.95698 0.093,0.54584 0.41272,0.85245 0.31897,0.30228 0.76085,0.22699 0.31191,-0.0532 0.51198,-0.26555 0.19501,-0.216 0.3121,-0.6015 0.0507,-0.17357 0.12536,-0.49389 0.074,-0.32466 0.10756,-0.6246 -0.359,-0.38015 -0.69463,-0.49237 -0.33562,-0.11221 -0.73851,-0.0436 z m 3.20886,-0.68495 q -0.39855,0.0679 -0.60655,0.28613 -0.21307,0.21461 -0.36857,0.76713 -0.0606,0.21985 -0.10159,0.47648 -0.041,0.25661 -0.11962,0.68459 0.27871,0.35373 0.6832,0.52999 0.40376,0.17193 0.86296,0.0937 0.58483,-0.0996 0.89741,-0.5675 0.31258,-0.46784 0.20703,-1.08733 -0.10777,-0.63248 -0.4969,-0.95401 -0.38986,-0.32587 -0.95737,-0.22917 z" />
  <path
     inkscape:connector-curvature="0"
     id="path4646"
     style="font-style:normal;font-size:medium;text-anchor:middle;fill:none;fill-opacity:1;stroke:#000000;stroke-width:0.25;stroke-linecap:butt;stroke-linejoin:bevel;stroke-dasharray:none;stroke-opacity:1"
     d="m 174.8676,440.40527 0.17642,1.03537 -1.23465,0.21037 -0.17641,-1.03537 z m 3.60431,-0.61413 0.17641,1.03537 -1.23464,0.21037 -0.17642,-1.03538 z" />
  <path
     inkscape:connector-curvature="0"
     id="path4648"
     style="font-style:normal;font-size:medium;text-anchor:middle;fill:none;fill-opacity:1;stroke:#000000;stroke-width:0.25;stroke-linecap:butt;stroke-linejoin:bevel;stroke-dasharray:none;stroke-opacity:1"
     d="m 177.41563,433.59191 0.59494,3.49167 -0.65848,0.11219 -0.22882,-1.34294 -4.32343,0.73666 0.22882,1.34295 -0.58917,0.10038 q -0.0465,-0.27291 -0.14296,-0.57745 -0.1008,-0.30379 -0.21475,-0.44931 -0.14226,-0.18082 -0.32607,-0.26541 -0.18888,-0.0882 -0.47342,-0.0575 l -0.11441,-0.67147 5.81368,-0.99058 -0.2244,-1.31696 z" />
  <path
     inkscape:connector-curvature="0"
     id="path4651"
     style="font-style:normal;font-size:medium;text-anchor:middle;fill:none;fill-opacity:1;stroke:#000000;stroke-width:0.25;stroke-linecap:butt;stroke-linejoin:bevel;stroke-dasharray:none;stroke-opacity:1"
     d="m 212.06934,97.803124 -3.50689,0.497375 -0.0938,-0.661351 1.3488,-0.191298 -0.61586,-4.342284 -1.3488,0.191297 -0.0839,-0.591738 q 0.27411,-0.03888 0.58122,-0.126772 0.30648,-0.09225 0.45513,-0.202143 0.18471,-0.137167 0.27439,-0.318548 0.0934,-0.186343 0.0707,-0.471631 l 0.6744,-0.09565 0.82813,5.839026 1.32271,-0.187596 z" />
  <path
     inkscape:connector-curvature="0"
     id="path4653"
     style="font-style:normal;font-size:medium;text-anchor:middle;fill:none;fill-opacity:1;stroke:#000000;stroke-width:0.25;stroke-linecap:butt;stroke-linejoin:bevel;stroke-dasharray:none;stroke-opacity:1"
     d="m 217.91053,94.830878 q 0.14008,0.987676 -0.42371,1.70678 -0.56005,0.714139 -1.50422,0.848049 -0.4786,0.06788 -0.89117,-0.02451 -0.41258,-0.0924 -0.75414,-0.341334 -0.4254,-0.308066 -0.71445,-0.875147 -0.28467,-0.567699 -0.40377,-1.407436 -0.12219,-0.861498 -0.0339,-1.553114 0.0927,-0.692242 0.42388,-1.2674 0.31316,-0.545964 0.87907,-0.905847 0.56529,-0.364239 1.37022,-0.478401 0.25672,-0.03641 0.43384,-0.03931 0.17713,-0.0029 0.36354,0.02833 l 0.11787,0.831043 -0.0435,0.0062 q -0.13108,-0.04797 -0.38711,-0.06938 -0.25229,-0.02633 -0.509,0.01007 -0.93546,0.132675 -1.40908,0.799044 -0.47424,0.662023 -0.4243,1.671352 0.33401,-0.273735 0.6704,-0.436848 0.34012,-0.168076 0.80568,-0.234105 0.41334,-0.05862 0.73773,-0.02474 0.32811,0.02891 0.69148,0.212626 0.42054,0.21111 0.66937,0.588598 0.25318,0.376872 0.33525,0.955551 z m -0.87831,0.160121 q -0.0574,-0.40464 -0.21686,-0.652777 -0.15512,-0.248751 -0.457,-0.405665 -0.21989,-0.110841 -0.46971,-0.119799 -0.24983,-0.0089 -0.51523,0.02873 -0.36984,0.05245 -0.67512,0.18453 -0.30528,0.132077 -0.61439,0.362325 0.005,0.09701 0.0135,0.188941 0.008,0.08759 0.0275,0.222461 0.0975,0.68746 0.29351,1.068006 0.19973,0.375574 0.48044,0.571003 0.2273,0.163058 0.47086,0.221718 0.2473,0.0537 0.52141,0.01483 0.63089,-0.08948 0.93772,-0.523586 0.30621,-0.438453 0.20377,-1.160715 z" />
  <path
     inkscape:connector-curvature="0"
     id="path4655"
     style="font-style:normal;font-size:medium;text-anchor:middle;fill:none;fill-opacity:1;stroke:#000000;stroke-width:0.25;stroke-linecap:butt;stroke-linejoin:bevel;stroke-dasharray:none;stroke-opacity:1"
     d="m 220.73216,92.881653 -1.03989,0.147486 -0.17588,-1.24003 1.0399,-0.147486 z m 0.51342,3.620023 -1.03989,0.147486 -0.17588,-1.24003 1.0399,-0.147486 z" />
  <path
     inkscape:connector-curvature="0"
     id="path4657"
     style="font-style:normal;font-size:medium;text-anchor:middle;fill:none;fill-opacity:1;stroke:#000000;stroke-width:0.25;stroke-linecap:butt;stroke-linejoin:bevel;stroke-dasharray:none;stroke-opacity:1"
     d="m 227.47184,95.618618 -3.5069,0.497376 -0.0938,-0.661352 1.3488,-0.191298 -0.61586,-4.342284 -1.3488,0.191298 -0.0839,-0.591738 q 0.27411,-0.03888 0.58122,-0.126773 0.30649,-0.09225 0.45513,-0.202142 0.18471,-0.137168 0.27439,-0.318548 0.0934,-0.186343 0.0707,-0.471632 l 0.6744,-0.09565 0.82813,5.839026 1.32271,-0.187596 z" />
  <path
     inkscape:connector-curvature="0"
     style="fill:#000000;stroke:#000000;stroke-width:0.25;stroke-linecap:butt;stroke-linejoin:bevel;stroke-dasharray:none;stroke-opacity:1"
     id="path870"
     d="m 258.72278,448.01536 -12.1668,7.20895 9.74483,-7.82868 -4.78698,-11.54707 z"
     class="arrow" />
  <path
     d="m 253.63928,448.81008 -4.68165,1.51887 -0.31493,-0.9707 q 0.35206,-0.57622 0.70412,-1.15244 0.3567,-0.57772 0.64524,-1.12821 0.61148,-1.15318 0.77699,-1.76642 0.16401,-0.61787 -0.0273,-1.20773 -0.17479,-0.53876 -0.63036,-0.72462 -0.45243,-0.19202 -1.08873,0.0144 -0.42265,0.13712 -0.86675,0.44547 -0.4441,0.30835 -0.81374,0.76707 l -0.0464,0.0151 -0.31643,-0.97534 q 0.27702,-0.26955 0.78138,-0.58204 0.50899,-0.314 1.02453,-0.48126 1.06359,-0.34506 1.83463,-0.0254 0.76954,0.31501 1.05433,1.19282 0.12808,0.39478 0.1374,0.77162 0.0125,0.37069 -0.0831,0.74052 -0.0877,0.34672 -0.24346,0.70525 -0.15111,0.35703 -0.38945,0.80909 -0.33874,0.6489 -0.71904,1.28048 -0.38181,0.62694 -0.71504,1.16625 l 3.72024,-1.20696 z"
     style="font-style:normal;font-size:medium;text-anchor:middle;fill:none;fill-opacity:1;stroke:#000000;stroke-width:0.25;stroke-linecap:butt;stroke-linejoin:bevel;stroke-dasharray:none;stroke-opacity:1"
     id="path4660"
     inkscape:connector-curvature="0" />
  <path
     inkscape:connector-curvature="0"
     id="path4663"
     style="font-style:normal;font-size:medium;text-anchor:middle;fill:none;fill-opacity:1;stroke:#000000;stroke-width:0.25;stroke-linecap:butt;stroke-linejoin:bevel;stroke-dasharray:none;stroke-opacity:1"
     d="m 261.92424,442.76525 0.87803,-3.43143 0.64712,0.16558 -0.3377,1.31978 4.24885,1.08719 0.3377,-1.31978 0.579,0.14816 q -0.0686,0.2682 -0.10453,0.58562 -0.0316,0.31851 0.0132,0.49782 0.0563,0.22308 0.18978,0.37517 0.13662,0.15743 0.409,0.24527 l -0.16886,0.65989 -5.71338,-1.46194 -0.33117,1.29425 z" />
  <path
     inkscape:connector-curvature="0"
     id="path4665"
     style="font-style:normal;font-size:medium;text-anchor:middle;fill:none;fill-opacity:1;stroke:#000000;stroke-width:0.25;stroke-linecap:butt;stroke-linejoin:bevel;stroke-dasharray:none;stroke-opacity:1"
     d="m 260.5037,448.31686 0.87803,-3.43144 0.64712,0.16559 -0.3377,1.31978 4.24885,1.08719 0.3377,-1.31978 0.57901,0.14815 q -0.0686,0.26821 -0.10454,0.58563 -0.0316,0.3185 0.0132,0.49782 0.0563,0.22308 0.18978,0.37516 0.13662,0.15744 0.409,0.24528 l -0.16886,0.65989 -5.71338,-1.46194 -0.33117,1.29424 z" />
  <path
     inkscape:connector-curvature="0"
     id="path4667"
     style="font-style:normal;font-size:medium;text-anchor:middle;fill:none;fill-opacity:1;stroke:#000000;stroke-width:0.25;stroke-linecap:butt;stroke-linejoin:bevel;stroke-dasharray:none;stroke-opacity:1"
     d="m 263.16888,452.6504 0.26036,-1.01752 1.21335,0.31047 -0.26036,1.01752 z m -3.54213,-0.90636 0.26036,-1.01751 1.21335,0.31047 -0.26036,1.01751 z" />
  <path
     inkscape:connector-curvature="0"
     id="path4669"
     style="font-style:normal;font-size:medium;text-anchor:middle;fill:none;fill-opacity:1;stroke:#000000;stroke-width:0.25;stroke-linecap:butt;stroke-linejoin:bevel;stroke-dasharray:none;stroke-opacity:1"
     d="m 257.97527,458.19821 1.09808,-4.29143 0.8898,0.22768 q 0.26877,0.54506 0.53755,1.09013 0.26769,0.54933 0.54746,1.0337 0.58272,1.02004 0.96942,1.44105 0.39097,0.42211 0.93165,0.56046 0.49386,0.12637 0.85447,-0.13064 0.36378,-0.25167 0.51302,-0.83493 0.0991,-0.38741 0.0784,-0.87355 -0.0208,-0.48615 -0.19172,-0.98804 l 0.0109,-0.0425 0.89405,0.22877 q 0.0717,0.3404 0.0666,0.87436 -0.006,0.53821 -0.1271,1.01078 -0.24946,0.97494 -0.86366,1.40748 -0.60992,0.43363 -1.41456,0.22773 -0.36188,-0.0926 -0.65295,-0.26689 -0.28791,-0.16894 -0.52315,-0.41963 -0.22147,-0.23358 -0.41917,-0.52458 -0.1988,-0.28675 -0.42789,-0.68558 -0.33045,-0.56992 -0.62774,-1.16311 -0.29304,-0.5921 -0.54282,-1.10508 l -0.87258,3.41015 z" />
  <path
     inkscape:connector-curvature="0"
     style="fill:#000000;stroke:#000000;stroke-width:0.25;stroke-linecap:butt;stroke-linejoin:bevel;stroke-dasharray:none;stroke-opacity:1"
     id="path882"
     d="m 180.45316,320.40059 10.09782,-9.90121 -7.59794,9.92579 7.40133,10.07324 z"
     class="arrow" />
  <path
     d="m 191.3995,320.38211 q 0.28773,0.12738 0.52965,0.38256 0.24193,0.25518 0.39713,0.73357 0.15369,0.47374 0.10993,0.92427 -0.0438,0.45053 -0.26002,0.8441 -0.24286,0.43812 -0.66537,0.74973 -0.41937,0.30546 -0.98135,0.48778 -0.57592,0.18685 -1.17846,0.22833 -0.60104,0.0461 -1.0114,-4e-4 l -0.31493,-0.9707 0.0697,-0.0226 q 0.47916,0.13201 1.06903,0.13057 0.58987,-0.001 1.08683,-0.16267 0.29261,-0.0949 0.59072,-0.29945 0.29812,-0.20452 0.4407,-0.46124 0.14734,-0.27367 0.16966,-0.55298 0.027,-0.28081 -0.0951,-0.65702 -0.12055,-0.37156 -0.31966,-0.5739 -0.19597,-0.20848 -0.45018,-0.28001 -0.25571,-0.0762 -0.56954,-0.0308 -0.31533,0.0407 -0.65902,0.15221 l -0.418,0.13561 -0.25013,-0.77098 0.32511,-0.10548 q 0.70596,-0.22904 1.02904,-0.65725 0.32621,-0.43437 0.14238,-1.001 -0.0814,-0.2508 -0.24847,-0.40193 -0.1686,-0.15576 -0.3982,-0.21474 -0.23889,-0.056 -0.48154,-0.0286 -0.24265,0.0274 -0.53061,0.12082 -0.44122,0.14314 -0.88695,0.46229 -0.44573,0.31914 -0.79354,0.75025 l -0.0464,0.0151 -0.31493,-0.9707 q 0.27702,-0.26955 0.78138,-0.58204 0.50749,-0.31865 1.02303,-0.48591 0.50625,-0.16424 0.92188,-0.19641 0.41563,-0.0322 0.79311,0.0712 0.40673,0.11444 0.68104,0.37452 0.27431,0.26007 0.41143,0.68272 0.18684,0.57592 -0.0817,1.14046 -0.26544,0.55838 -0.78197,0.84916 l 0.0211,0.065 q 0.23499,-0.0352 0.56213,-0.008 0.32563,0.0227 0.5826,0.13439 z"
     style="font-style:normal;font-size:medium;text-anchor:middle;fill:none;fill-opacity:1;stroke:#000000;stroke-width:0.25;stroke-linecap:butt;stroke-linejoin:bevel;stroke-dasharray:none;stroke-opacity:1"
     id="path4672"
     inkscape:connector-curvature="0" />
  <path
     inkscape:connector-curvature="0"
     id="path4675"
     style="font-style:normal;font-size:medium;text-anchor:middle;fill:none;fill-opacity:1;stroke:#000000;stroke-width:0.25;stroke-linecap:butt;stroke-linejoin:bevel;stroke-dasharray:none;stroke-opacity:1"
     d="m 176.54823,323.05621 q 0.457,0.004 0.87282,0.17558 0.41582,0.1711 0.69861,0.46393 0.30449,0.31941 0.46715,0.76048 0.15832,0.43664 0.15266,1.0123 -0.005,0.5361 -0.12441,1.03154 -0.11474,0.49547 -0.27631,0.83668 l -0.92719,-0.009 6e-4,-0.0615 q 0.23204,-0.35809 0.39939,-0.83987 0.16294,-0.48181 0.16752,-0.9476 0.003,-0.31201 -0.082,-0.6029 -0.085,-0.29528 -0.30246,-0.52594 -0.18705,-0.19521 -0.44976,-0.29447 -0.26266,-0.10367 -0.60981,-0.10708 -0.33837,-0.003 -0.57243,0.11302 -0.23402,0.11197 -0.37668,0.31713 -0.16923,0.22685 -0.23838,0.55578 -0.0735,0.32449 -0.0775,0.72876 -0.004,0.3867 0.0453,0.74755 0.0492,0.35647 0.0994,0.61625 l -3.37044,-0.0331 0.0387,-3.93731 0.769,0.008 -0.0304,3.0892 1.74016,0.0171 q -0.0157,-0.18912 -0.0226,-0.38696 -0.007,-0.19783 -0.006,-0.34284 0.005,-0.53171 0.10146,-0.93069 0.0918,-0.39901 0.3236,-0.73074 0.24515,-0.34917 0.62935,-0.53876 0.38421,-0.18959 0.95987,-0.18393 z" />
  <path
     inkscape:connector-curvature="0"
     id="path4677"
     style="font-style:normal;font-size:medium;text-anchor:middle;fill:none;fill-opacity:1;stroke:#000000;stroke-width:0.25;stroke-linecap:butt;stroke-linejoin:bevel;stroke-dasharray:none;stroke-opacity:1"
     d="m 175.0023,319.82407 -0.0103,1.05024 -1.25239,-0.0123 0.0103,-1.05024 z m 3.65607,0.0359 -0.0103,1.05024 -1.25239,-0.0123 0.0103,-1.05024 z" />
  <path
     inkscape:connector-curvature="0"
     id="path4679"
     style="font-style:normal;font-size:medium;text-anchor:middle;fill:none;fill-opacity:1;stroke:#000000;stroke-width:0.25;stroke-linecap:butt;stroke-linejoin:bevel;stroke-dasharray:none;stroke-opacity:1"
     d="m 175.56748,313.7429 q 0.19102,-0.20907 0.478,-0.34249 0.28696,-0.13341 0.73958,-0.12896 0.44822,0.004 0.82013,0.17067 0.37193,0.16626 0.64588,0.4634 0.30435,0.3326 0.44936,0.78229 0.14065,0.44525 0.13542,0.97696 -0.005,0.5449 -0.14237,1.07092 -0.13262,0.52607 -0.28975,0.86292 l -0.91842,-0.009 6.5e-4,-0.0659 q 0.24976,-0.3711 0.41731,-0.87485 0.16756,-0.50374 0.17219,-0.97393 0.003,-0.27685 -0.0865,-0.58975 -0.0892,-0.3129 -0.26748,-0.50802 -0.19136,-0.20405 -0.42331,-0.30301 -0.23191,-0.10336 -0.58785,-0.10685 -0.35154,-0.003 -0.58117,0.10854 -0.23398,0.10757 -0.36775,0.30402 -0.13818,0.1964 -0.18928,0.47716 -0.0555,0.28072 -0.0587,0.6059 l -0.004,0.39549 -0.72945,-0.007 0.003,-0.3076 q 0.007,-0.66794 -0.26639,-1.06615 -0.27731,-0.40265 -0.81341,-0.40792 -0.23729,-0.002 -0.41406,0.097 -0.18116,0.0993 -0.29718,0.27834 -0.11612,0.18783 -0.16217,0.40272 -0.046,0.21489 -0.0487,0.48734 -0.004,0.41746 0.14068,0.88912 0.14478,0.47167 0.41312,0.89181 l -4.3e-4,0.0439 -0.91841,-0.009 q -0.15073,-0.3135 -0.27307,-0.83329 -0.12669,-0.52421 -0.12189,-1.01199 0.005,-0.47897 0.0962,-0.84284 0.0915,-0.36386 0.28772,-0.65639 0.21404,-0.31431 0.51444,-0.47396 0.30042,-0.15966 0.7003,-0.15572 0.5449,0.005 0.94977,0.39607 0.40052,0.38628 0.50083,0.91024 l 0.0615,6e-4 q 0.0373,-0.21057 0.15416,-0.48189 0.11253,-0.27138 0.28138,-0.45869 z" />
  <path
     inkscape:connector-curvature="0"
     id="path4682"
     style="font-style:normal;font-size:medium;text-anchor:middle;fill:none;fill-opacity:1;stroke:#000000;stroke-width:0.25;stroke-linecap:butt;stroke-linejoin:bevel;stroke-dasharray:none;stroke-opacity:1"
     d="m 169.84639,231.1913 q 0.44527,-0.10307 0.88966,-0.0345 0.44438,0.0685 0.78807,0.28669 0.37105,0.23888 0.63284,0.62936 0.25652,0.38718 0.38635,0.94803 0.1209,0.52232 0.12157,1.03188 0.005,0.50857 -0.0719,0.87819 l -0.90336,0.2091 -0.0139,-0.0599 q 0.14136,-0.40261 0.19076,-0.91022 0.0451,-0.50662 -0.0599,-0.96044 -0.0704,-0.30397 -0.2214,-0.56672 -0.15204,-0.26703 -0.41762,-0.44011 -0.22771,-0.14576 -0.50639,-0.18049 -0.27967,-0.039 -0.6179,0.0393 -0.32966,0.0763 -0.52982,0.24443 -0.20114,0.16384 -0.29156,0.39678 -0.11116,0.26028 -0.10106,0.59625 0.005,0.33267 0.096,0.72655 0.0872,0.37676 0.21982,0.71594 0.13162,0.33491 0.2415,0.57561 l -3.28378,0.76012 -0.88797,-3.83607 0.74923,-0.17343 0.6967,3.00976 1.69541,-0.39244 q -0.0598,-0.18013 -0.11293,-0.3708 -0.0534,-0.19063 -0.0861,-0.33192 -0.11992,-0.51804 -0.12018,-0.92845 -0.005,-0.40943 0.14275,-0.78634 0.15619,-0.39701 0.48507,-0.67161 0.32886,-0.2746 0.88971,-0.40442 z" />
  <path
     inkscape:connector-curvature="0"
     id="path4684"
     style="font-style:normal;font-size:medium;text-anchor:middle;fill:none;fill-opacity:1;stroke:#000000;stroke-width:0.25;stroke-linecap:butt;stroke-linejoin:bevel;stroke-dasharray:none;stroke-opacity:1"
     d="m 167.58397,228.41315 0.23686,1.02323 -1.22018,0.28245 -0.23686,-1.02324 z m 3.56207,-0.82454 0.23685,1.02324 -1.22018,0.28244 -0.23685,-1.02323 z" />
  <path
     inkscape:connector-curvature="0"
     id="path4686"
     style="font-style:normal;font-size:medium;text-anchor:middle;fill:none;fill-opacity:1;stroke:#000000;stroke-width:0.25;stroke-linecap:butt;stroke-linejoin:bevel;stroke-dasharray:none;stroke-opacity:1"
     d="m 169.72787,221.46203 0.79877,3.45074 -0.65076,0.15064 -0.30722,-1.32721 -4.27276,0.98905 0.30721,1.32721 -0.58226,0.13478 q -0.0624,-0.26972 -0.17656,-0.56808 -0.11841,-0.29736 -0.24074,-0.43594 -0.15262,-0.17217 -0.34107,-0.24582 -0.19373,-0.077 -0.47598,-0.0297 l -0.15361,-0.6636 5.74554,-1.32996 -0.30127,-1.30153 z" />
  <path
     inkscape:connector-curvature="0"
     id="path4688"
     style="font-style:normal;font-size:medium;text-anchor:middle;fill:none;fill-opacity:1;stroke:#000000;stroke-width:0.25;stroke-linecap:butt;stroke-linejoin:bevel;stroke-dasharray:none;stroke-opacity:1"
     d="m 166.52376,215.78494 0.21902,0.94618 1.79388,-0.41524 0.19027,0.82201 -1.79387,0.41524 0.7066,3.05259 -0.9847,0.22794 -4.31085,-2.25438 -0.18235,-0.78776 3.896,-0.90184 -0.21902,-0.94618 z m -0.27572,1.92676 -2.87705,0.66597 3.44887,1.80435 z" />
  <path
     d="m 94.468244,440.30965 2.462619,0.61834 -2.316401,9.22535 -2.462619,-0.61834 0.170044,-0.67722 1.638588,0.41144 1.976312,-7.87091 -1.638588,-0.41143 z"
     style="font-style:normal;font-size:medium;text-anchor:middle;fill:none;fill-opacity:1;stroke:#000000;stroke-width:0.25;stroke-linecap:butt;stroke-linejoin:bevel;stroke-dasharray:none;stroke-opacity:1"
     id="path4691"
     inkscape:connector-curvature="0" />
  <path
     d="m 88.049201,440.67137 3.817058,0.95843 -0.180744,0.71984 -1.468099,-0.36863 -1.186739,4.72634 1.468099,0.36862 -0.16172,0.64407 q -0.298355,-0.0749 -0.651217,-0.1132 -0.354056,-0.0335 -0.553067,0.0172 -0.247574,0.0637 -0.415892,0.21274 -0.174243,0.15259 -0.270479,0.45566 l -0.734049,-0.18431 1.595797,-6.35546 -1.439685,-0.36149 z"
     style="font-style:normal;font-size:medium;text-anchor:middle;fill:none;fill-opacity:1;stroke:#000000;stroke-width:0.25;stroke-linecap:butt;stroke-linejoin:bevel;stroke-dasharray:none;stroke-opacity:1"
     id="path4693"
     inkscape:connector-curvature="0" />
  <path
     d="m 81.873709,439.12076 3.81706,0.95843 -0.180744,0.71984 -1.4681,-0.36863 -1.18674,4.72634 1.4681,0.36862 -0.161719,0.64407 q -0.298356,-0.0749 -0.651219,-0.1132 -0.354055,-0.0335 -0.553065,0.0172 -0.247576,0.0637 -0.415894,0.21274 -0.174242,0.15259 -0.270477,0.45566 l -0.73405,-0.18431 1.595797,-6.35546 -1.439685,-0.36149 z"
     style="font-style:normal;font-size:medium;text-anchor:middle;fill:none;fill-opacity:1;stroke:#000000;stroke-width:0.25;stroke-linecap:butt;stroke-linejoin:bevel;stroke-dasharray:none;stroke-opacity:1"
     id="path4695"
     inkscape:connector-curvature="0" />
  <path
     d="m 78.025526,436.18103 2.462619,0.61834 -0.170046,0.67723 -1.638589,-0.41143 -1.976312,7.8709 1.638589,0.41144 -0.170043,0.67722 -2.462619,-0.61834 z"
     style="font-style:normal;font-size:medium;text-anchor:middle;fill:none;fill-opacity:1;stroke:#000000;stroke-width:0.25;stroke-linecap:butt;stroke-linejoin:bevel;stroke-dasharray:none;stroke-opacity:1"
     id="path4697"
     inkscape:connector-curvature="0" />
  <path
     d="m 69.574821,436.03263 2.784654,0.6992 -0.180744,0.71983 -0.923482,-0.23188 -1.409106,5.61194 0.923483,0.23188 -0.180744,0.71983 -2.784655,-0.6992 0.180744,-0.71983 0.923482,0.23188 1.409106,-5.61194 -0.923482,-0.23188 z"
     style="font-style:normal;font-size:medium;text-anchor:middle;fill:none;fill-opacity:1;stroke:#000000;stroke-width:0.25;stroke-linecap:butt;stroke-linejoin:bevel;stroke-dasharray:none;stroke-opacity:1"
     id="path4699"
     inkscape:connector-curvature="0" />
  <path
     d="m 60.37315,433.72217 3.81706,0.95843 -0.180744,0.71983 -1.4681,-0.36862 -1.18674,4.72634 1.4681,0.36862 -0.161719,0.64407 q -0.298356,-0.0749 -0.651219,-0.1132 -0.354055,-0.0335 -0.553066,0.0172 -0.247574,0.0637 -0.415893,0.21274 -0.174243,0.15259 -0.270478,0.45566 l -0.73405,-0.18431 1.595797,-6.35546 -1.439685,-0.36149 z"
     style="font-style:normal;font-size:medium;text-anchor:middle;fill:none;fill-opacity:1;stroke:#000000;stroke-width:0.25;stroke-linecap:butt;stroke-linejoin:bevel;stroke-dasharray:none;stroke-opacity:1"
     id="path4701"
     inkscape:connector-curvature="0" />
  <path
     d="m 54.197659,432.17156 3.81706,0.95843 -0.180744,0.71984 -1.4681,-0.36863 -1.18674,4.72634 1.4681,0.36862 -0.161719,0.64407 q -0.298357,-0.0749 -0.651218,-0.1132 -0.354057,-0.0335 -0.553067,0.0172 -0.247575,0.0637 -0.415893,0.21274 -0.174242,0.15259 -0.270477,0.45566 l -0.73405,-0.18431 1.595797,-6.35546 -1.439685,-0.36149 z"
     style="font-style:normal;font-size:medium;text-anchor:middle;fill:none;fill-opacity:1;stroke:#000000;stroke-width:0.25;stroke-linecap:butt;stroke-linejoin:bevel;stroke-dasharray:none;stroke-opacity:1"
     id="path4703"
     inkscape:connector-curvature="0" />
  <path
     inkscape:connector-curvature="0"
     style="fill:#e5e5e5;fill-opacity:1;stroke:#000000;stroke-width:0.25;stroke-linecap:butt;stroke-linejoin:bevel;stroke-dasharray:none;stroke-opacity:1"
     id="path830-8"
     d="m 137.03562,431.31854 9.66067,2.58767 -26.78549,106.67642 -9.73719,-2.28295 z M 30.210429,150.98627 l 0.07294,-10.00096 36.67732,-0.30862 0.241228,9.99832 z m 40.255636,387.6475 -0.07296,10.00097 -36.677295,0.30858 -0.241214,-9.99833 z m -38.294008,-154.50141 -10.000972,-0.073 -0.383422,-45.57162 9.998314,-0.24122 z m -0.781302,-92.8612 -10.000976,-0.0729 -0.392583,-46.66123 9.998326,-0.24123 z m -0.395233,-46.9754 -10.000965,-0.0729 -0.782444,-92.99532 9.998316,-0.24123 z m 2.479074,294.64923 -10.000979,-0.0729 -0.895494,-106.43344 9.998323,-0.24122 z m 33.727324,-388.26998 8.147127,-5.80078 68.066543,92.4888 -7.9609,6.05382 z m 77.21764,139.64516 9.85169,-1.72306 8.90586,46.59471 -9.7927,2.03166 z m 0.98006,92.85954 9.82551,1.86659 -8.31022,47.82926 -9.87929,-1.55702 z m -35.22601,155.11997 -1.13982,10.00994 -38.326513,0.32249 -0.241212,-9.99834 z m -78.387633,-200.05312 -10.000962,-0.0729 -0.392583,-46.66123 9.998323,-0.24122 z m 103.668713,-94.82971 9.85169,-1.72306 8.90588,46.59473 -9.7927,2.03165 z m -102.878244,188.78054 -10.00095,-0.073 -0.401781,-47.75086 9.998342,-0.24121 z m 120.807964,-94.97391 9.8255,1.8666 -7.93101,45.64668 -9.87928,-1.55705 z"
     class="sticker" />
  <path
     class="arrow"
     d="m 123.60463,484.80907 -12.13425,7.26362 9.70952,-7.87245 -4.83889,-11.52542 z"
     id="path834"
     style="fill:#000000;stroke:#000000;stroke-width:0.25000003;stroke-linecap:butt;stroke-linejoin:bevel;stroke-dasharray:none;stroke-opacity:1"
     inkscape:connector-curvature="0" />
  <path
     inkscape:connector-curvature="0"
     id="path4706"
     style="font-style:normal;font-size:medium;text-anchor:middle;fill:none;fill-opacity:1;stroke:#000000;stroke-width:0.25;stroke-linecap:butt;stroke-linejoin:bevel;stroke-dasharray:none;stroke-opacity:1"
     d="m 113.80385,478.22401 3.81706,0.95843 -0.18075,0.71984 -1.4681,-0.36863 -1.18674,4.72634 1.4681,0.36863 -0.16172,0.64407 q -0.29835,-0.0749 -0.65122,-0.11318 -0.35406,-0.0335 -0.55307,0.0172 -0.24757,0.0637 -0.41589,0.21274 -0.17424,0.15259 -0.27048,0.45566 l -0.73405,-0.18431 1.5958,-6.35546 -1.43969,-0.36149 z" />
  <path
     d="m 126.78235,479.54459 0.86259,-3.43535 0.64786,0.16267 -0.33177,1.32128 4.25371,1.06807 0.33176,-1.32129 0.57966,0.14555 q -0.0674,0.26852 -0.10185,0.5861 -0.0302,0.31865 0.0155,0.49776 0.0573,0.22282 0.19147,0.3743 0.13733,0.15682 0.41009,0.24343 l -0.16588,0.66065 -5.7199,-1.43622 -0.32535,1.29572 z"
     style="font-style:normal;font-size:medium;text-anchor:middle;fill:none;fill-opacity:1;stroke:#000000;stroke-width:0.25;stroke-linecap:butt;stroke-linejoin:bevel;stroke-dasharray:none;stroke-opacity:1"
     id="path4709"
     inkscape:connector-curvature="0" />
  <path
     d="m 128.49205,485.67381 q -0.23464,0.15857 -0.54487,0.22113 -0.31022,0.0626 -0.74923,-0.0477 -0.43474,-0.10917 -0.75743,-0.35784 -0.3227,-0.24867 -0.51951,-0.60166 -0.21809,-0.39458 -0.25385,-0.86571 -0.0326,-0.46581 0.0969,-0.98154 0.1327,-0.52851 0.38899,-1.00788 0.25203,-0.48042 0.48362,-0.77116 l 0.8908,0.22367 -0.0161,0.0639 q -0.32965,0.30235 -0.61043,0.75292 -0.28077,0.45056 -0.39528,0.90661 -0.0674,0.26852 -0.0539,0.59362 0.0135,0.32508 0.14118,0.5565 0.13831,0.24316 0.34067,0.39365 0.20128,0.15474 0.54652,0.24143 0.34098,0.0856 0.59044,0.0305 0.25265,-0.0498 0.42868,-0.20952 0.18029,-0.15863 0.29566,-0.41964 0.11965,-0.25994 0.19884,-0.57534 l 0.0963,-0.3836 0.70753,0.17765 -0.0749,0.29836 q -0.16267,0.64786 0.01,1.09887 0.17539,0.45637 0.69538,0.58693 0.23016,0.0578 0.42527,0.003 0.19936,-0.0541 0.35406,-0.20107 0.15684,-0.15545 0.2519,-0.3536 0.0951,-0.19815 0.16141,-0.46241 0.10167,-0.40491 0.0713,-0.89735 -0.0304,-0.49245 -0.19299,-0.96371 l 0.0107,-0.0426 0.89079,0.22367 q 0.0732,0.34007 0.0705,0.87405 5.1e-4,0.53931 -0.11828,1.01242 -0.11665,0.46458 -0.29073,0.79695 -0.17407,0.33235 -0.43331,0.57083 -0.28164,0.25551 -0.61107,0.34044 -0.32943,0.0849 -0.71729,-0.0125 -0.52852,-0.1327 -0.83073,-0.60731 -0.29901,-0.46928 -0.27395,-1.00217 l -0.0597,-0.015 q -0.0855,0.19603 -0.26264,0.43246 -0.1729,0.2375 -0.38089,0.38012 z"
     style="font-style:normal;font-size:medium;text-anchor:middle;fill:none;fill-opacity:1;stroke:#000000;stroke-width:0.25;stroke-linecap:butt;stroke-linejoin:bevel;stroke-dasharray:none;stroke-opacity:1"
     id="path4711"
     inkscape:connector-curvature="0" />
  <path
     d="m 128.07146,489.42403 0.25578,-1.01867 1.21474,0.30501 -0.25578,1.01867 z m -3.54617,-0.89041 0.25578,-1.01867 1.21473,0.30501 -0.25577,1.01866 z"
     style="font-style:normal;font-size:medium;text-anchor:middle;fill:none;fill-opacity:1;stroke:#000000;stroke-width:0.25;stroke-linecap:butt;stroke-linejoin:bevel;stroke-dasharray:none;stroke-opacity:1"
     id="path4713"
     inkscape:connector-curvature="0" />
  <path
     d="m 122.99383,494.63287 0.86258,-3.43536 0.64786,0.16268 -0.33176,1.32128 4.2537,1.06807 0.33176,-1.32129 0.57966,0.14555 q -0.0674,0.26851 -0.10185,0.5861 -0.0302,0.31865 0.0155,0.49776 0.0573,0.22281 0.19146,0.3743 0.13733,0.15682 0.4101,0.24343 l -0.16589,0.66064 -5.7199,-1.43621 -0.32535,1.29572 z"
     style="font-style:normal;font-size:medium;text-anchor:middle;fill:none;fill-opacity:1;stroke:#000000;stroke-width:0.25;stroke-linecap:butt;stroke-linejoin:bevel;stroke-dasharray:none;stroke-opacity:1"
     id="path4715"
     inkscape:connector-curvature="0" />
  <path
     class="arrow"
     d="m 48.706171,150.83064 10.083787,9.9155 -10.062752,-7.41559 -9.93654,7.58388 z"
     id="path846"
     style="fill:#000000;stroke:#000000;stroke-width:0.25;stroke-linecap:butt;stroke-linejoin:bevel;stroke-dasharray:none;stroke-opacity:1"
     inkscape:connector-curvature="0" />
  <path
     inkscape:connector-curvature="0"
     id="path4718"
     style="font-style:normal;font-size:medium;text-anchor:middle;fill:none;fill-opacity:1;stroke:#000000;stroke-width:0.25;stroke-linecap:butt;stroke-linejoin:bevel;stroke-dasharray:none;stroke-opacity:1"
     d="m 47.30761,155.33598 4.773693,1.19863 -0.248526,0.98978 q -0.60428,0.30137 -1.20856,0.60273 -0.609016,0.30018 -1.145806,0.61345 -1.130451,0.65255 -1.596307,1.08433 -0.467045,0.43651 -0.618063,1.03796 -0.137937,0.54935 0.149427,0.94874 0.28144,0.40294 0.930245,0.56585 0.430958,0.10821 0.971006,0.0827 0.540047,-0.0255 1.096845,-0.21797 l 0.04736,0.0119 -0.249715,0.99452 q -0.377861,0.0813 -0.971171,0.0783 -0.598045,-0.004 -1.123719,-0.13616 -1.0845,-0.2723 -1.568163,-0.95256 -0.484852,-0.67553 -0.260108,-1.57059 0.101075,-0.40255 0.293257,-0.72684 0.186258,-0.32074 0.463643,-0.58336 0.258422,-0.24724 0.580767,-0.46837 0.317609,-0.22231 0.7596,-0.47884 0.631588,-0.37003 1.289193,-0.70331 0.656415,-0.32855 1.225146,-0.60864 l -3.793381,-0.95248 z" />
  <path
     d="m 42.811377,149.08025 -3.541868,0.0298 -0.0056,-0.66794 1.362257,-0.0115 -0.0369,-4.38558 -1.362257,0.0115 -0.005,-0.59763 q 0.276846,-0.002 0.592871,-0.0489 0.315989,-0.051 0.477841,-0.14025 0.201218,-0.11156 0.314066,-0.27951 0.117206,-0.17238 0.13238,-0.45817 l 0.681128,-0.006 0.04962,5.89725 1.335891,-0.0112 z"
     style="font-style:normal;font-size:medium;text-anchor:middle;fill:none;fill-opacity:1;stroke:#000000;stroke-width:0.25;stroke-linecap:butt;stroke-linejoin:bevel;stroke-dasharray:none;stroke-opacity:1"
     id="path4721"
     inkscape:connector-curvature="0" />
  <path
     d="m 49.049081,147.1864 -0.971157,0.008 0.01549,1.84124 -0.84372,0.007 -0.01549,-1.84124 -3.133191,0.0264 -0.0085,-1.01071 3.137287,-3.71793 0.808566,-0.007 0.03365,3.99888 0.971157,-0.008 z m -1.820793,-0.68783 -0.02485,-2.95302 -2.510708,2.97435 z"
     style="font-style:normal;font-size:medium;text-anchor:middle;fill:none;fill-opacity:1;stroke:#000000;stroke-width:0.25;stroke-linecap:butt;stroke-linejoin:bevel;stroke-dasharray:none;stroke-opacity:1"
     id="path4723"
     inkscape:connector-curvature="0" />
  <path
     d="m 52.048352,145.34615 -1.050255,0.009 -0.01054,-1.2524 1.050256,-0.009 z m 0.03076,3.65612 -1.050256,0.009 -0.01054,-1.2524 1.050256,-0.009 z"
     style="font-style:normal;font-size:medium;text-anchor:middle;fill:none;fill-opacity:1;stroke:#000000;stroke-width:0.25;stroke-linecap:butt;stroke-linejoin:bevel;stroke-dasharray:none;stroke-opacity:1"
     id="path4725"
     inkscape:connector-curvature="0" />
  <path
     d="m 58.740988,148.94622 -4.42953,0.0373 -0.0077,-0.91842 q 0.458082,-0.39938 0.916164,-0.79875 0.462476,-0.39942 0.859073,-0.79388 0.836843,-0.82445 1.144814,-1.30607 0.307934,-0.48601 0.303238,-1.04409 -0.0043,-0.50975 -0.345059,-0.79253 -0.336414,-0.28722 -0.938442,-0.28216 -0.399889,0.003 -0.864509,0.14791 -0.464621,0.14454 -0.906013,0.4383 l -0.04395,3.7e-4 -0.0078,-0.92282 q 0.310706,-0.15643 0.82817,-0.28822 0.521859,-0.13184 1.009634,-0.13594 1.006313,-0.008 1.581686,0.4745 0.575336,0.47857 0.582324,1.3091 0.0031,0.37353 -0.0908,0.69952 -0.08958,0.32158 -0.271706,0.61315 -0.169088,0.2739 -0.399772,0.53952 -0.226289,0.26558 -0.553169,0.58915 -0.466315,0.46537 -0.963614,0.90462 -0.497334,0.43487 -0.929272,0.80765 l 3.519894,-0.0296 z"
     style="font-style:normal;font-size:medium;text-anchor:middle;fill:none;fill-opacity:1;stroke:#000000;stroke-width:0.25;stroke-linecap:butt;stroke-linejoin:bevel;stroke-dasharray:none;stroke-opacity:1"
     id="path4727"
     inkscape:connector-curvature="0" />
  <path
     class="arrow"
     d="m 51.970332,538.78937 -10.08378,-9.91551 10.062747,7.4156 9.936547,-7.58387 z"
     id="path858"
     style="fill:#000000;stroke:#000000;stroke-width:0.25000003;stroke-linecap:butt;stroke-linejoin:bevel;stroke-dasharray:none;stroke-opacity:1"
     inkscape:connector-curvature="0" />
  <path
     inkscape:connector-curvature="0"
     id="path4730"
     style="font-style:normal;font-size:medium;text-anchor:middle;fill:none;fill-opacity:1;stroke:#000000;stroke-width:0.25;stroke-linecap:butt;stroke-linejoin:bevel;stroke-dasharray:none;stroke-opacity:1"
     d="m 50.188125,528.84668 q -0.176186,-0.26072 -0.245704,-0.60541 -0.06952,-0.34469 0.05296,-0.83248 0.12129,-0.48305 0.39759,-0.8416 0.2763,-0.35854 0.668513,-0.57723 0.438424,-0.24232 0.961906,-0.28205 0.517557,-0.0362 1.09059,0.10771 0.58724,0.14745 1.119863,0.43221 0.533812,0.28004 0.85685,0.53735 l -0.248525,0.98979 -0.07104,-0.0178 q -0.335953,-0.36628 -0.836574,-0.67825 -0.50062,-0.31198 -1.007351,-0.43921 -0.298356,-0.0749 -0.65957,-0.0599 -0.361213,0.015 -0.618343,0.15687 -0.270168,0.15367 -0.437379,0.37851 -0.171946,0.22365 -0.268265,0.60725 -0.09513,0.37886 -0.03383,0.65604 0.05537,0.28073 0.23281,0.47631 0.176249,0.20032 0.46626,0.32852 0.288822,0.13293 0.639272,0.22093 l 0.426222,0.10702 -0.197393,0.78614 -0.331507,-0.0832 q -0.719842,-0.18074 -1.220979,0.0106 -0.507062,0.19489 -0.652134,0.77265 -0.06421,0.25574 -0.0029,0.47252 0.06017,0.22152 0.223421,0.3934 0.172723,0.17427 0.392886,0.27989 0.220163,0.10562 0.513783,0.17935 0.449902,0.11297 0.997063,0.0792 0.547161,-0.0338 1.070788,-0.21443 l 0.04736,0.0119 -0.248525,0.98978 q -0.377862,0.0813 -0.971171,0.0784 -0.599235,5.7e-4 -1.124909,-0.13142 -0.516203,-0.12961 -0.885493,-0.32303 -0.369289,-0.19341 -0.634267,-0.48146 -0.2839,-0.31293 -0.378265,-0.67896 -0.09437,-0.36604 0.01384,-0.79699 0.14745,-0.58724 0.674789,-0.92303 0.521414,-0.33224 1.113514,-0.3044 l 0.01665,-0.0663 q -0.217805,-0.095 -0.480508,-0.29182 -0.263892,-0.19212 -0.422346,-0.42321 z" />
  <path
     d="m 56.300618,544.21819 q -0.0072,-0.85691 0.184658,-1.55728 0.187474,-0.70033 0.578827,-1.19583 0.395673,-0.50432 0.99541,-0.78183 0.599737,-0.27752 1.412696,-0.28436 0.228507,-0.002 0.430871,0.0228 0.202326,0.0203 0.360967,0.0717 l 0.0071,0.83932 -0.04394,3.7e-4 q -0.127991,-0.0648 -0.361411,-0.1244 -0.233383,-0.0551 -0.519017,-0.0527 -0.971158,0.008 -1.515574,0.59285 -0.548773,0.58912 -0.628045,1.61375 0.406606,-0.24952 0.766057,-0.35802 0.359451,-0.1085 0.785706,-0.11209 0.404282,-0.003 0.734526,0.0729 0.32585,0.0764 0.65735,0.3021 0.388961,0.2648 0.590183,0.6762 0.196828,0.41145 0.201671,0.98711 0.0084,1.00192 -0.645438,1.63586 -0.653869,0.63394 -1.603055,0.64193 -0.474592,0.004 -0.880132,-0.14201 -0.405503,-0.14161 -0.711191,-0.43349 -0.376592,-0.36159 -0.583576,-0.93555 -0.206948,-0.56957 -0.214601,-1.4792 z m 0.889254,0.18148 q 0.0057,0.68113 0.149826,1.09302 0.144096,0.41188 0.392104,0.63833 0.208199,0.196 0.446197,0.2775 0.238037,0.0859 0.514882,0.0836 0.63279,-0.005 0.998591,-0.40392 0.361405,-0.39856 0.355378,-1.11484 -0.0035,-0.41747 -0.124379,-0.68014 -0.120867,-0.26266 -0.403771,-0.45804 -0.198893,-0.13456 -0.436596,-0.1809 -0.237665,-0.0419 -0.527694,-0.0395 -0.342762,0.003 -0.693535,0.0981 -0.350774,0.0953 -0.656901,0.2736 -0.0036,0.0923 -0.0073,0.18025 -0.008,0.0924 -0.0068,0.23297 z"
     style="font-style:normal;font-size:medium;text-anchor:middle;fill:none;fill-opacity:1;stroke:#000000;stroke-width:0.25;stroke-linecap:butt;stroke-linejoin:bevel;stroke-dasharray:none;stroke-opacity:1"
     id="path4733"
     inkscape:connector-curvature="0" />
  <path
     d="m 53.505719,540.57654 1.050256,-0.009 0.01054,1.25239 -1.050256,0.009 z"
     style="font-style:normal;font-size:medium;text-anchor:middle;fill:none;fill-opacity:1;stroke:#000000;stroke-width:0.25;stroke-linecap:butt;stroke-linejoin:bevel;stroke-dasharray:none;stroke-opacity:1"
     id="path4735"
     inkscape:connector-curvature="0" />
  <path
     d="m 49.858389,544.2636 1.050256,-0.009 0.01054,1.25239 -1.050256,0.009 z m -0.03076,-3.65612 1.050256,-0.009 0.01054,1.25239 -1.050255,0.009 z"
     style="font-style:normal;font-size:medium;text-anchor:middle;fill:none;fill-opacity:1;stroke:#000000;stroke-width:0.25;stroke-linecap:butt;stroke-linejoin:bevel;stroke-dasharray:none;stroke-opacity:1"
     id="path4737"
     inkscape:connector-curvature="0" />
  <path
     d="m 43.767927,543.80946 q -0.212521,-0.18719 -0.351149,-0.47167 -0.138629,-0.2845 -0.142437,-0.73712 -0.0038,-0.44822 0.155677,-0.82311 0.15945,-0.37489 0.451543,-0.65421 0.32699,-0.31038 0.773959,-0.46356 0.442612,-0.14875 0.974331,-0.15322 0.544903,-0.005 1.073338,0.1228 0.528397,0.123 0.868058,0.27396 l 0.0077,0.91842 -0.06592,5.6e-4 q -0.375592,-0.24294 -0.882314,-0.40128 -0.506721,-0.15834 -0.976919,-0.15439 -0.276846,0.002 -0.58807,0.0972 -0.311224,0.0949 -0.503061,0.27671 -0.200514,0.19505 -0.295231,0.42877 -0.09911,0.23375 -0.09612,0.58968 0.003,0.35156 0.119135,0.5791 0.111818,0.23198 0.310675,0.36215 0.198893,0.13456 0.48054,0.18053 0.281683,0.0503 0.606866,0.0476 l 0.395494,-0.003 0.0061,0.72947 -0.307606,0.003 q -0.667945,0.006 -1.06111,0.28579 -0.397522,0.28461 -0.393011,0.82072 0.002,0.2373 0.104546,0.41222 0.102587,0.17932 0.283718,0.29206 0.189919,0.11266 0.405613,0.15479 0.215695,0.0422 0.488146,0.0399 0.417465,-0.004 0.886407,-0.15687 0.468941,-0.15337 0.884115,-0.42933 l 0.04395,-3.7e-4 0.0077,0.91842 q -0.310707,0.15643 -0.828172,0.28823 -0.521821,0.13623 -1.009597,0.14033 -0.478987,0.004 -0.844459,-0.0808 -0.365473,-0.0848 -0.661522,-0.27569 -0.318171,-0.20826 -0.483276,-0.50571 -0.165107,-0.29745 -0.168471,-0.69734 -0.0046,-0.5449 0.378682,-0.95684 0.378909,-0.40749 0.900952,-0.51736 l -5.18e-4,-0.0615 q -0.211225,-0.0334 -0.484638,-0.14535 -0.273376,-0.10757 -0.463739,-0.27296 z"
     style="font-style:normal;font-size:medium;text-anchor:middle;fill:none;fill-opacity:1;stroke:#000000;stroke-width:0.25;stroke-linecap:butt;stroke-linejoin:bevel;stroke-dasharray:none;stroke-opacity:1"
     id="path4739"
     inkscape:connector-curvature="0" />
  <path
     class="arrow"
     d="m 30.602969,197.64102 9.915511,-10.08378 -7.415599,10.06275 7.58387,9.93654 z"
     id="path870-5"
     style="fill:#000000;stroke:#000000;stroke-width:0.25000003;stroke-linecap:butt;stroke-linejoin:bevel;stroke-dasharray:none;stroke-opacity:1"
     inkscape:connector-curvature="0" />
  <path
     inkscape:connector-curvature="0"
     id="path4742"
     style="font-style:normal;font-size:medium;text-anchor:middle;fill:none;fill-opacity:1;stroke:#000000;stroke-width:0.25;stroke-linecap:butt;stroke-linejoin:bevel;stroke-dasharray:none;stroke-opacity:1"
     d="m 37.4691,195.01482 1.046613,0.26279 0.49824,-1.9843 0.909275,0.22831 -0.49824,1.98431 3.376629,0.84784 -0.273497,1.08923 -4.413374,3.12072 -0.871389,-0.21879 1.082097,-4.30959 -1.046613,-0.26279 z m 1.765629,1.24883 -0.799087,3.18247 3.531647,-2.49635 z" />
  <path
     d="m 28.852598,203.53588 0.0298,3.54186 -0.667945,0.006 -0.01146,-1.36226 -4.385587,0.0369 0.01146,1.36226 -0.597635,0.005 q -0.0023,-0.27685 -0.04894,-0.59287 -0.051,-0.31599 -0.140256,-0.47784 -0.11156,-0.20122 -0.279508,-0.31406 -0.172379,-0.11722 -0.458162,-0.13238 l -0.0057,-0.68114 5.897253,-0.0496 -0.01124,-1.33588 z"
     style="font-style:normal;font-size:medium;text-anchor:middle;fill:none;fill-opacity:1;stroke:#000000;stroke-width:0.25;stroke-linecap:butt;stroke-linejoin:bevel;stroke-dasharray:none;stroke-opacity:1"
     id="path4745"
     inkscape:connector-curvature="0" />
  <path
     d="m 23.237813,197.46132 5.588201,2.915 0.0079,0.9404 -5.80072,-3.10219 0.03135,3.72643 -0.769016,0.006 -0.03768,-4.47787 z"
     style="font-style:normal;font-size:medium;text-anchor:middle;fill:none;fill-opacity:1;stroke:#000000;stroke-width:0.25;stroke-linecap:butt;stroke-linejoin:bevel;stroke-dasharray:none;stroke-opacity:1"
     id="path4747"
     inkscape:connector-curvature="0" />
  <path
     d="m 25.118499,194.2989 0.0088,1.05025 -1.252397,0.0105 -0.0088,-1.05025 z m 3.656121,-0.0308 0.0088,1.05025 -1.252396,0.0105 -0.0088,-1.05025 z"
     style="font-style:normal;font-size:medium;text-anchor:middle;fill:none;fill-opacity:1;stroke:#000000;stroke-width:0.25;stroke-linecap:butt;stroke-linejoin:bevel;stroke-dasharray:none;stroke-opacity:1"
     id="path4749"
     inkscape:connector-curvature="0" />
  <path
     d="m 26.876066,187.47235 0.0082,0.97116 1.841244,-0.0155 0.0071,0.84372 -1.841244,0.0155 0.02636,3.13319 -1.010706,0.008 -3.717934,-3.13729 -0.0068,-0.80856 3.998881,-0.0336 -0.0082,-0.97115 z m -0.68783,1.82079 -2.95302,0.0249 2.974354,2.5107 z"
     style="font-style:normal;font-size:medium;text-anchor:middle;fill:none;fill-opacity:1;stroke:#000000;stroke-width:0.25;stroke-linecap:butt;stroke-linejoin:bevel;stroke-dasharray:none;stroke-opacity:1"
     id="path4751"
     inkscape:connector-curvature="0" />
  <path
     class="arrow"
     d="m 33.025523,485.57117 9.915513,-10.08378 -7.415602,10.06275 7.583868,9.93654 z"
     id="path882-8"
     style="fill:#000000;stroke:#000000;stroke-width:0.25;stroke-linecap:butt;stroke-linejoin:bevel;stroke-dasharray:none;stroke-opacity:1"
     inkscape:connector-curvature="0" />
  <path
     inkscape:connector-curvature="0"
     id="path4754"
     style="font-style:normal;font-size:medium;text-anchor:middle;fill:none;fill-opacity:1;stroke:#000000;stroke-width:0.25;stroke-linecap:butt;stroke-linejoin:bevel;stroke-dasharray:none;stroke-opacity:1"
     d="m 40.045304,483.25539 q 0.123669,-0.49252 0.416595,-0.89723 0.292927,-0.40472 0.682783,-0.63406 0.424216,-0.24589 0.942983,-0.30694 0.512842,-0.0575 1.133233,0.0983 0.577768,0.14507 1.081997,0.40257 0.505418,0.25277 0.832003,0.51601 l -0.250904,0.99925 -0.0663,-0.0166 q -0.326502,-0.34377 -0.803443,-0.6498 -0.47813,-0.30129 -0.980126,-0.42734 -0.336242,-0.0844 -0.672588,-0.0682 -0.341081,0.015 -0.646799,0.19 -0.259507,0.15132 -0.435042,0.4093 -0.18027,0.2568 -0.274211,0.63093 -0.09156,0.36466 -0.02672,0.64776 0.06011,0.28192 0.244639,0.48935 0.201075,0.2418 0.538424,0.40202 0.331424,0.16376 0.767118,0.27316 0.416751,0.10465 0.819356,0.14532 0.39787,0.0395 0.691552,0.0528 l -0.912053,3.63236 -4.243282,-1.06545 0.208095,-0.82876 3.329271,0.83595 0.470891,-1.87538 q -0.208396,-0.0322 -0.423886,-0.0762 -0.21549,-0.044 -0.371772,-0.0833 -0.573032,-0.14389 -0.979019,-0.35155 -0.407176,-0.20292 -0.705263,-0.53956 -0.313464,-0.3556 -0.418386,-0.81993 -0.104922,-0.46434 0.05085,-1.08473 z" />
  <path
     d="m 31.275093,491.46605 0.0298,3.54187 -0.667946,0.006 -0.01146,-1.36226 -4.385586,0.0369 0.01146,1.36226 -0.597636,0.005 q -0.0023,-0.27685 -0.04894,-0.59287 -0.051,-0.31599 -0.140255,-0.47784 -0.111561,-0.20122 -0.279509,-0.31406 -0.172379,-0.11722 -0.458161,-0.13239 l -0.0057,-0.68113 5.897252,-0.0496 -0.01124,-1.33589 z"
     style="font-style:normal;font-size:medium;text-anchor:middle;fill:none;fill-opacity:1;stroke:#000000;stroke-width:0.25;stroke-linecap:butt;stroke-linejoin:bevel;stroke-dasharray:none;stroke-opacity:1"
     id="path4757"
     inkscape:connector-curvature="0" />
  <path
     d="m 25.660308,485.39149 5.5882,2.91501 0.0079,0.9404 -5.800721,-3.10219 0.03135,3.72643 -0.769015,0.006 -0.03768,-4.47787 z"
     style="font-style:normal;font-size:medium;text-anchor:middle;fill:none;fill-opacity:1;stroke:#000000;stroke-width:0.25;stroke-linecap:butt;stroke-linejoin:bevel;stroke-dasharray:none;stroke-opacity:1"
     id="path4759"
     inkscape:connector-curvature="0" />
  <path
     d="m 27.540994,482.22908 0.0088,1.05025 -1.252398,0.0105 -0.0088,-1.05025 z m 3.656121,-0.0308 0.0088,1.05025 -1.252397,0.0105 -0.0088,-1.05026 z"
     style="font-style:normal;font-size:medium;text-anchor:middle;fill:none;fill-opacity:1;stroke:#000000;stroke-width:0.25;stroke-linecap:butt;stroke-linejoin:bevel;stroke-dasharray:none;stroke-opacity:1"
     id="path4761"
     inkscape:connector-curvature="0" />
  <path
     d="m 29.062965,475.60666 q 0.457016,-0.004 0.875886,0.15964 0.41887,0.16347 0.706946,0.45109 0.310268,0.3138 0.480951,0.75184 0.166253,0.43367 0.171097,1.00934 0.0045,0.53611 -0.105565,1.03364 -0.105681,0.49749 -0.260995,0.84158 l -0.927213,0.008 -5.18e-4,-0.0615 q 0.225475,-0.36227 0.384001,-0.84701 0.15413,-0.48471 0.150211,-0.95051 -0.0026,-0.31201 -0.09295,-0.60129 -0.09036,-0.29369 -0.312006,-0.52035 -0.190585,-0.19176 -0.45506,-0.28622 -0.264513,-0.0989 -0.611669,-0.0959 -0.338367,0.003 -0.57027,0.12346 -0.231941,0.1162 -0.370823,0.32393 -0.165064,0.22991 -0.228207,0.56004 -0.06757,0.32578 -0.06417,0.73005 0.0033,0.38671 0.05901,0.7466 0.05572,0.35551 0.110642,0.61434 l -3.370486,0.0283 -0.03313,-3.93736 0.769015,-0.006 0.02599,3.08924 1.740173,-0.0146 q -0.01917,-0.1888 -0.02962,-0.38647 -0.01046,-0.19768 -0.01168,-0.3427 -0.0045,-0.53172 0.08445,-0.93238 0.08452,-0.40062 0.31022,-0.73653 0.238732,-0.35358 0.619416,-0.55015 0.380685,-0.19657 0.956347,-0.20141 z"
     style="font-style:normal;font-size:medium;text-anchor:middle;fill:none;fill-opacity:1;stroke:#000000;stroke-width:0.25;stroke-linecap:butt;stroke-linejoin:bevel;stroke-dasharray:none;stroke-opacity:1"
     id="path4763"
     inkscape:connector-curvature="0" />
  <path
     d="m 99.292817,191.24337 -2.099444,-2.85272 0.537976,-0.39592 0.807482,1.0972 3.532289,-2.59956 -0.80748,-1.09721 0.48135,-0.35424 q 0.1641,0.22298 0.387,0.45179 0.22644,0.2262 0.39364,0.30504 0.2083,0.0977 0.41051,0.0907 0.20838,-0.006 0.44885,-0.16119 l 0.40375,0.54861 -4.749833,3.49561 0.791845,1.07596 z"
     style="font-style:normal;font-size:medium;text-anchor:middle;fill:none;fill-opacity:1;stroke:#000000;stroke-width:0.25;stroke-linecap:butt;stroke-linejoin:bevel;stroke-dasharray:none;stroke-opacity:1"
     id="path4766"
     inkscape:connector-curvature="0" />
  <path
     d="m 105.10733,193.82827 q -0.0272,0.28189 -0.17646,0.56092 -0.14932,0.27903 -0.51388,0.54733 -0.36101,0.26568 -0.75823,0.35613 -0.39722,0.0905 -0.79472,0.0174 -0.44311,-0.0831 -0.82913,-0.35557 -0.37989,-0.27152 -0.69506,-0.69978 -0.32299,-0.43888 -0.52939,-0.94174 -0.20993,-0.50026 -0.28662,-0.86396 l 0.73973,-0.5444 0.0391,0.0531 q 0.0232,0.44672 0.1918,0.95011 0.16859,0.50341 0.4473,0.88212 0.1641,0.22298 0.42338,0.41956 0.25928,0.1966 0.519,0.24554 0.27554,0.0482 0.52043,-0.012 0.2475,-0.0566 0.53419,-0.26762 0.28314,-0.20838 0.39947,-0.43586 0.12247,-0.22653 0.11143,-0.46395 -0.007,-0.24002 -0.13526,-0.49519 -0.12426,-0.25776 -0.31702,-0.51967 l -0.23442,-0.31854 0.58753,-0.43239 0.18233,0.24775 q 0.39592,0.53798 0.85334,0.69242 0.46355,0.15538 0.89535,-0.1624 0.19113,-0.14066 0.2728,-0.32625 0.0852,-0.18821 0.0704,-0.40104 -0.02,-0.21992 -0.11223,-0.41939 -0.0923,-0.19945 -0.25377,-0.41889 -0.24745,-0.33624 -0.6465,-0.6264 -0.39905,-0.29014 -0.86595,-0.46488 l -0.026,-0.0354 0.73973,-0.5444 q 0.30882,0.16013 0.71882,0.50224 0.41615,0.34304 0.70528,0.73591 0.28391,0.38579 0.42932,0.73166 0.1454,0.34587 0.16419,0.69761 0.0177,0.37986 -0.12664,0.68794 -0.1443,0.30808 -0.46638,0.54511 -0.43889,0.323 -0.99727,0.25378 -0.55223,-0.0683 -0.94714,-0.42696 l -0.0495,0.0364 q 0.0968,0.1907 0.16619,0.47789 0.073,0.28456 0.0505,0.53574 z"
     style="font-style:normal;font-size:medium;text-anchor:middle;fill:none;fill-opacity:1;stroke:#000000;stroke-width:0.25;stroke-linecap:butt;stroke-linejoin:bevel;stroke-dasharray:none;stroke-opacity:1"
     id="path4768"
     inkscape:connector-curvature="0" />
  <path
     d="m 107.73103,196.54072 -0.62254,-0.84591 1.00872,-0.74236 0.62253,0.84591 z m -2.94475,2.16716 -0.62254,-0.8459 1.00872,-0.74236 0.62254,0.84591 z"
     style="font-style:normal;font-size:medium;text-anchor:middle;fill:none;fill-opacity:1;stroke:#000000;stroke-width:0.25;stroke-linecap:butt;stroke-linejoin:bevel;stroke-dasharray:none;stroke-opacity:1"
     id="path4770"
     inkscape:connector-curvature="0" />
  <path
     d="m 108.73511,204.07356 -2.62561,-3.56768 0.73972,-0.54439 q 0.59205,0.1372 1.18409,0.2744 0.59465,0.14074 1.14669,0.23101 1.15843,0.19507 1.72917,0.16244 0.57426,-0.0352 1.02376,-0.36604 0.41057,-0.30215 0.44006,-0.74399 0.0356,-0.44091 -0.32122,-0.9258 -0.23704,-0.32209 -0.6264,-0.6139 -0.38937,-0.29182 -0.88605,-0.47739 l -0.026,-0.0353 0.74327,-0.547 q 0.30881,0.16012 0.71882,0.50223 0.4126,0.34564 0.70174,0.73852 0.59649,0.81051 0.54224,1.55975 -0.0507,0.74664 -0.71965,1.23894 -0.30085,0.22141 -0.62007,0.33628 -0.31309,0.11581 -0.65607,0.13908 -0.32104,0.0235 -0.67145,-0.008 -0.3478,-0.0278 -0.80154,-0.10307 -0.65035,-0.10521 -1.29768,-0.25083 -0.6438,-0.14821 -1.19898,-0.27981 l 2.08642,2.83503 z"
     style="font-style:normal;font-size:medium;text-anchor:middle;fill:none;fill-opacity:1;stroke:#000000;stroke-width:0.25;stroke-linecap:butt;stroke-linejoin:bevel;stroke-dasharray:none;stroke-opacity:1"
     id="path4772"
     inkscape:connector-curvature="0" />
  <path
     class="arrow"
     d="m 90.319845,538.46671 -10.083781,-9.91551 10.062747,7.4156 9.936549,-7.58387 z"
     id="path898"
     style="fill:#000000;stroke:#000000;stroke-width:0.25;stroke-linecap:butt;stroke-linejoin:bevel;stroke-dasharray:none;stroke-opacity:1"
     inkscape:connector-curvature="0" />
  <path
     inkscape:connector-curvature="0"
     id="path4775"
     style="font-style:normal;font-size:medium;text-anchor:middle;fill:none;fill-opacity:1;stroke:#000000;stroke-width:0.25;stroke-linecap:butt;stroke-linejoin:bevel;stroke-dasharray:none;stroke-opacity:1"
     d="m 89.853032,527.67626 q 0.269929,-1.07503 1.151533,-1.57862 0.875679,-0.50004 1.903349,-0.242 0.520938,0.1308 0.906731,0.39884 0.385793,0.26804 0.632892,0.66738 0.308583,0.49534 0.368257,1.20003 0.05494,0.70351 -0.174562,1.61752 -0.235445,0.93769 -0.616284,1.61232 -0.385575,0.67345 -0.967509,1.12642 -0.551122,0.43051 -1.284313,0.56358 -0.734381,0.1378 -1.610505,-0.0822 -0.279412,-0.0702 -0.462899,-0.1414 -0.183487,-0.0712 -0.362196,-0.18156 l 0.227121,-0.90454 0.04736,0.0119 q 0.114766,0.10433 0.369249,0.23368 0.248557,0.13289 0.52797,0.20305 1.018198,0.25566 1.784912,-0.23147 0.765525,-0.48239 1.137285,-1.54192 -0.458453,0.14164 -0.87297,0.16845 -0.420443,0.0304 -0.927174,-0.0969 -0.449901,-0.11297 -0.769475,-0.28383 -0.325499,-0.16731 -0.622397,-0.50868 -0.344215,-0.39353 -0.442002,-0.88628 -0.102524,-0.49394 0.05563,-1.1238 z m 0.970881,0.2035 q -0.110588,0.44043 -0.05052,0.76261 0.05533,0.32099 0.300176,0.60902 0.179795,0.20624 0.433109,0.32019 0.253314,0.11395 0.542198,0.18648 0.402544,0.10108 0.77204,0.0932 0.369496,-0.008 0.784096,-0.11525 0.03564,-0.10181 0.06534,-0.20008 0.02851,-0.0935 0.06538,-0.24033 0.187881,-0.74826 0.145734,-1.22201 -0.04807,-0.4702 -0.25499,-0.78897 -0.165526,-0.26308 -0.391552,-0.42555 -0.231951,-0.15893 -0.530307,-0.23385 -0.686692,-0.17242 -1.184406,0.14564 -0.498904,0.32279 -0.696297,1.10893 z" />
  <path
     inkscape:connector-curvature="0"
     id="path4777"
     style="font-style:normal;font-size:medium;text-anchor:middle;fill:none;fill-opacity:1;stroke:#000000;stroke-width:0.25;stroke-linecap:butt;stroke-linejoin:bevel;stroke-dasharray:none;stroke-opacity:1"
     d="m 87.562213,524.66945 1.131857,0.28419 -0.338898,1.34971 -1.131858,-0.2842 z" />
  <path
     d="m 96.284842,543.88174 q -0.0072,-0.85691 0.184658,-1.55728 0.187473,-0.70034 0.578826,-1.19584 0.395674,-0.50431 0.99541,-0.78183 0.599738,-0.27752 1.412697,-0.28436 0.228508,-0.002 0.430871,0.0228 0.202326,0.0203 0.360966,0.0717 l 0.007,0.83932 -0.0439,3.7e-4 q -0.12799,-0.0648 -0.361406,-0.12441 -0.233383,-0.0551 -0.519018,-0.0527 -0.971156,0.008 -1.515572,0.59285 -0.548774,0.58911 -0.628047,1.61374 0.406607,-0.24952 0.766058,-0.35802 0.359452,-0.10849 0.785706,-0.11208 0.404282,-0.003 0.734526,0.0729 0.325849,0.0764 0.657353,0.3021 0.38896,0.2648 0.59018,0.67621 0.19683,0.41145 0.20167,0.98711 0.008,1.00191 -0.64544,1.63586 -0.653866,0.63394 -1.603051,0.64193 -0.474593,0.004 -0.880132,-0.14202 -0.405503,-0.14161 -0.711193,-0.43348 -0.37659,-0.36159 -0.583575,-0.93556 -0.206948,-0.56957 -0.214602,-1.47919 z m 0.889253,0.18148 q 0.0057,0.68113 0.149827,1.09302 0.144095,0.41188 0.392103,0.63832 0.2082,0.19601 0.446199,0.27751 0.238036,0.0859 0.514881,0.0836 0.632791,-0.005 0.99859,-0.40393 0.361405,-0.39856 0.355375,-1.11484 -0.004,-0.41746 -0.124375,-0.68013 -0.120866,-0.26267 -0.40377,-0.45804 -0.198893,-0.13457 -0.436597,-0.18091 -0.237666,-0.042 -0.527695,-0.0396 -0.342761,0.003 -0.693535,0.0981 -0.350773,0.0953 -0.6569,0.2736 -0.0036,0.0923 -0.0073,0.18024 -0.008,0.0924 -0.0068,0.23298 z"
     style="font-style:normal;font-size:medium;text-anchor:middle;fill:none;fill-opacity:1;stroke:#000000;stroke-width:0.25;stroke-linecap:butt;stroke-linejoin:bevel;stroke-dasharray:none;stroke-opacity:1"
     id="path4780"
     inkscape:connector-curvature="0" />
  <path
     d="m 93.489943,540.24008 1.050256,-0.009 0.01054,1.2524 -1.050256,0.009 z"
     style="font-style:normal;font-size:medium;text-anchor:middle;fill:none;fill-opacity:1;stroke:#000000;stroke-width:0.25;stroke-linecap:butt;stroke-linejoin:bevel;stroke-dasharray:none;stroke-opacity:1"
     id="path4782"
     inkscape:connector-curvature="0" />
  <path
     d="m 89.842613,543.92715 1.050256,-0.009 0.01054,1.2524 -1.050256,0.009 z m -0.03076,-3.65612 1.050255,-0.009 0.01054,1.2524 -1.050256,0.009 z"
     style="font-style:normal;font-size:medium;text-anchor:middle;fill:none;fill-opacity:1;stroke:#000000;stroke-width:0.25;stroke-linecap:butt;stroke-linejoin:bevel;stroke-dasharray:none;stroke-opacity:1"
     id="path4784"
     inkscape:connector-curvature="0" />
  <path
     d="m 83.071159,542.45037 q -0.0084,-0.99752 0.645439,-1.63586 0.649475,-0.6339 1.603054,-0.64192 0.483382,-0.004 0.880133,0.14201 0.39675,0.14608 0.70244,0.43796 0.380985,0.36154 0.592586,0.96183 0.207207,0.60033 0.214343,1.44845 0.0073,0.87009 -0.171586,1.54398 -0.183301,0.67393 -0.587578,1.2003 -0.382527,0.49981 -0.991016,0.7818 -0.608452,0.28638 -1.421411,0.29322 -0.259269,0.002 -0.435229,-0.0183 -0.17596,-0.0205 -0.35661,-0.0761 l -0.0071,-0.83933 0.04394,-3.7e-4 q 0.123597,0.0649 0.374557,0.1199 0.246603,0.0594 0.505871,0.0572 0.944791,-0.008 1.502279,-0.60592 0.557526,-0.59358 0.64134,-1.60067 -0.367241,0.22722 -0.722224,0.34446 -0.359341,0.12169 -0.829539,0.12565 -0.417465,0.004 -0.734527,-0.0729 -0.321417,-0.072 -0.65735,-0.30209 -0.38896,-0.26481 -0.585751,-0.67186 -0.201186,-0.40701 -0.206103,-0.99147 z m 0.891762,-0.0427 q 0.0034,0.40868 0.128737,0.67571 0.120903,0.26705 0.399413,0.46247 0.203324,0.13892 0.449779,0.18079 0.246455,0.0418 0.514511,0.0396 0.373522,-0.003 0.693572,-0.0937 0.32005,-0.0906 0.656865,-0.278 0.008,-0.0968 0.01159,-0.18906 0.0037,-0.0879 0.0025,-0.22416 -0.0058,-0.69431 -0.149863,-1.09741 -0.14838,-0.39867 -0.400818,-0.62946 -0.203768,-0.19165 -0.437447,-0.28198 -0.238035,-0.0859 -0.514882,-0.0836 -0.637184,0.005 -0.998663,0.39514 -0.361443,0.39417 -0.355305,1.12363 z"
     style="font-style:normal;font-size:medium;text-anchor:middle;fill:none;fill-opacity:1;stroke:#000000;stroke-width:0.25;stroke-linecap:butt;stroke-linejoin:bevel;stroke-dasharray:none;stroke-opacity:1"
     id="path4786"
     inkscape:connector-curvature="0" />
  <path
     d="m 80.394704,540.35026 1.050256,-0.009 0.01054,1.25239 -1.050256,0.009 z"
     style="font-style:normal;font-size:medium;text-anchor:middle;fill:none;fill-opacity:1;stroke:#000000;stroke-width:0.25;stroke-linecap:butt;stroke-linejoin:bevel;stroke-dasharray:none;stroke-opacity:1"
     id="path4788"
     inkscape:connector-curvature="0" />
</svg>
