<?xml version="1.0" encoding="UTF-8" standalone="no"?>
<svg
   xmlns:dc="http://purl.org/dc/elements/1.1/"
   xmlns:cc="http://creativecommons.org/ns#"
   xmlns:rdf="http://www.w3.org/1999/02/22-rdf-syntax-ns#"
   xmlns:svg="http://www.w3.org/2000/svg"
   xmlns="http://www.w3.org/2000/svg"
   xmlns:sodipodi="http://sodipodi.sourceforge.net/DTD/sodipodi-0.dtd"
   xmlns:inkscape="http://www.inkscape.org/namespaces/inkscape"
   version="1.1"
   width="320.00mm"
   height="620.00mm"
   viewBox="0 0 320.00 620.00"
   id="svg16179"
   sodipodi:docname="backrest_page6.svg"
   inkscape:version="0.92.2 (5c3e80d, 2017-08-06)">
  <metadata
     id="metadata16185">
    <rdf:RDF>
      <cc:Work
         rdf:about="">
        <dc:format>image/svg+xml</dc:format>
        <dc:type
           rdf:resource="http://purl.org/dc/dcmitype/StillImage" />
      </cc:Work>
    </rdf:RDF>
  </metadata>
  <defs
     id="defs16183" />
  <sodipodi:namedview
     pagecolor="#ffffff"
     bordercolor="#666666"
     borderopacity="1"
     objecttolerance="10"
     gridtolerance="10"
     guidetolerance="10"
     inkscape:pageopacity="0"
     inkscape:pageshadow="2"
     inkscape:window-width="1920"
     inkscape:window-height="1017"
     id="namedview16181"
     showgrid="false"
     inkscape:zoom="0.56971518"
     inkscape:cx="1101.6275"
     inkscape:cy="1880.1387"
     inkscape:window-x="-8"
     inkscape:window-y="209"
     inkscape:window-maximized="1"
     inkscape:current-layer="svg16179"
     inkscape:snap-global="false" />
  <style
     type="text/css"
     id="style16111">
    path {
        fill: none;
        stroke-linecap: butt;
        stroke-linejoin: bevel;
        stroke-dasharray: none;
    }
    path.outer {
        stroke: #000000;
        stroke-dasharray: none;
        stroke-dashoffset: 0;
        stroke-width: 0.3;
        stroke-opacity: 1.0;
    }
    path.convex {
        stroke: #000000;
        stroke-dasharray: 0.50,1.00;
        stroke-dashoffset:0;
        stroke-width:0.2;
        stroke-opacity: 1.0
    }
    path.concave {
        stroke: #000000;
        stroke-dasharray: 1.00,0.50,0.20,0.50;
        stroke-dashoffset: 0;
        stroke-width: 0.2;
        stroke-opacity: 1.0
    }
    path.freestyle {
        stroke: #000000;
        stroke-dasharray: none;
        stroke-dashoffset: 0;
        stroke-width: 0.2;
        stroke-opacity: 1.0
    }
    path.outer_background {
        stroke: #ffffff;
        stroke-opacity: 1.0;
        stroke-width: 0.5
    }
    path.inner_background {
        stroke: #ffffff;
        stroke-opacity: 1.0;
        stroke-width: 0.2
    }
    path.sticker {
        fill: #e5e5e5;
        stroke: none;
        fill-opacity: 1.0;
    }
    path.arrow {
        fill: #000000;
    }
    text {
        font-style: normal;
        fill: #000000;
        fill-opacity: 1.0;
        stroke: none;
    }
    text, tspan {
        text-anchor:middle;
    }
    </style>
  <g
     id="g1328">
    <path
       inkscape:connector-curvature="0"
       id="path899"
       style="font-style:normal;font-size:medium;text-anchor:middle;fill:none;fill-opacity:1;stroke:#000000;stroke-width:0.06614583;stroke-linecap:butt;stroke-linejoin:bevel;stroke-dasharray:none;stroke-opacity:1"
       d="m 145.8756,253.11391 h -2.53907 v -9.51172 h 2.53907 v 0.69825 h -1.68946 v 8.11523 h 1.68946 z" />
    <path
       inkscape:connector-curvature="0"
       id="path901"
       style="font-style:normal;font-size:medium;text-anchor:middle;fill:none;fill-opacity:1;stroke:#000000;stroke-width:0.06614583;stroke-linecap:butt;stroke-linejoin:bevel;stroke-dasharray:none;stroke-opacity:1"
       d="m 151.78868,247.69887 q 0.23438,0.20996 0.38574,0.52735 0.15137,0.31738 0.15137,0.82031 0,0.49805 -0.18066,0.91309 -0.18067,0.41503 -0.50782,0.72265 -0.36621,0.3418 -0.86425,0.50781 -0.49317,0.16114 -1.08399,0.16114 -0.60547,0 -1.1914,-0.14649 -0.58594,-0.1416 -0.96192,-0.3125 v -1.02051 h 0.0732 q 0.41504,0.27344 0.97656,0.45411 0.56153,0.18066 1.08399,0.18066 0.30762,0 0.6543,-0.10254 0.34668,-0.10254 0.56152,-0.30273 0.22461,-0.21485 0.33203,-0.47364 0.11231,-0.25878 0.11231,-0.65429 0,-0.39063 -0.12696,-0.64453 -0.12207,-0.25879 -0.34179,-0.40528 -0.21973,-0.15136 -0.53223,-0.20508 -0.3125,-0.0586 -0.67383,-0.0586 h -0.43945 v -0.81055 h 0.34179 q 0.74219,0 1.18165,-0.30761 0.44433,-0.3125 0.44433,-0.90821 0,-0.26367 -0.1123,-0.45898 -0.11231,-0.2002 -0.3125,-0.32715 -0.20996,-0.12695 -0.44922,-0.17578 -0.23926,-0.0488 -0.54199,-0.0488 -0.46387,0 -0.98633,0.16602 -0.52246,0.16601 -0.98633,0.46875 h -0.0488 v -1.02051 q 0.34668,-0.1709 0.92285,-0.3125 0.58106,-0.14649 1.12305,-0.14649 0.53222,0 0.9375,0.0977 0.40527,0.0977 0.73242,0.3125 0.35156,0.23438 0.53223,0.56641 0.18066,0.33203 0.18066,0.77636 0,0.60547 -0.42969,1.05957 -0.4248,0.44922 -1.00586,0.56641 v 0.0684 q 0.23438,0.0391 0.53711,0.16602 0.30274,0.12207 0.5127,0.30761 z" />
    <path
       inkscape:connector-curvature="0"
       id="path903"
       style="font-style:normal;font-size:medium;text-anchor:middle;fill:none;fill-opacity:1;stroke:#000000;stroke-width:0.06614583;stroke-linecap:butt;stroke-linejoin:bevel;stroke-dasharray:none;stroke-opacity:1"
       d="m 156.46153,253.11391 h -2.53906 v -0.69824 h 1.68945 v -8.11523 h -1.68945 v -0.69825 h 2.53906 z" />
    <path
       inkscape:connector-curvature="0"
       id="path905"
       style="font-style:normal;font-size:medium;text-anchor:middle;fill:none;fill-opacity:1;stroke:#000000;stroke-width:0.06614583;stroke-linecap:butt;stroke-linejoin:bevel;stroke-dasharray:none;stroke-opacity:1"
       d="m 164.69396,251.19985 h -2.8711 v -0.74219 h 0.95215 v -5.78613 h -0.95215 v -0.74219 h 2.8711 v 0.74219 h -0.95215 v 5.78613 h 0.95215 z" />
    <path
       inkscape:connector-curvature="0"
       id="path907"
       style="font-style:normal;font-size:medium;text-anchor:middle;fill:none;fill-opacity:1;stroke:#000000;stroke-width:0.06614583;stroke-linecap:butt;stroke-linejoin:bevel;stroke-dasharray:none;stroke-opacity:1"
       d="m 173.95665,247.69887 q 0.23438,0.20996 0.38574,0.52735 0.15137,0.31738 0.15137,0.82031 0,0.49805 -0.18066,0.91309 -0.18067,0.41503 -0.50782,0.72265 -0.36621,0.3418 -0.86425,0.50781 -0.49317,0.16114 -1.08399,0.16114 -0.60547,0 -1.19141,-0.14649 -0.58593,-0.1416 -0.96191,-0.3125 v -1.02051 h 0.0732 q 0.41504,0.27344 0.97656,0.45411 0.56153,0.18066 1.08399,0.18066 0.30761,0 0.65429,-0.10254 0.34669,-0.10254 0.56153,-0.30273 0.22461,-0.21485 0.33203,-0.47364 0.1123,-0.25878 0.1123,-0.65429 0,-0.39063 -0.12695,-0.64453 -0.12207,-0.25879 -0.3418,-0.40528 -0.21972,-0.15136 -0.53222,-0.20508 -0.3125,-0.0586 -0.67383,-0.0586 h -0.43945 v -0.81055 h 0.34179 q 0.74219,0 1.18164,-0.30761 0.44434,-0.3125 0.44434,-0.90821 0,-0.26367 -0.11231,-0.45898 -0.1123,-0.2002 -0.3125,-0.32715 -0.20996,-0.12695 -0.44921,-0.17578 -0.23926,-0.0488 -0.542,-0.0488 -0.46386,0 -0.98632,0.16602 -0.52247,0.16601 -0.98633,0.46875 h -0.0488 v -1.02051 q 0.34668,-0.1709 0.92285,-0.3125 0.58105,-0.14649 1.12305,-0.14649 0.53222,0 0.9375,0.0977 0.40527,0.0977 0.73242,0.3125 0.35156,0.23438 0.53223,0.56641 0.18066,0.33203 0.18066,0.77636 0,0.60547 -0.42969,1.05957 -0.4248,0.44922 -1.00586,0.56641 v 0.0684 q 0.23438,0.0391 0.53711,0.16602 0.30274,0.12207 0.5127,0.30761 z" />
    <path
       class="sticker"
       d="m 256.21252,376.12778 9.99999,0.15708 v 106.43723 l -9.99999,0.15708 z m 0,154.8181 10,0.15712 -10e-6,45.57323 -9.99999,0.15709 z M 61.212497,482.87917 51.212506,482.72206 V 376.28485 l 9.999991,-0.15707 z m 0,93.95415 -9.999991,-0.15709 v -45.57326 l 9.999991,-0.15709 z m 168.113203,0 -0.15711,10.00002 -21.54897,-3e-5 -0.15709,-9.99999 z m -92.24126,0 -0.15709,9.99999 -75.557736,3e-5 -0.157117,-10.00002 z m 70.37806,-419.7973 6.71107,-6.31023 12.6266,13.01295 -6.50955,6.51792 z m -146.250003,13.22424 -6.579996,-0.10335 3e-5,-12.95325 6.579966,-0.10339 z m 195.000023,107.02026 9.99999,0.15712 v 98.53303 l -9.99999,0.15711 z m -97.0735,-138.39546 3.66335,-9.30616 48.02935,18.04048 -3.36922,9.41664 z m -97.926523,18.21521 -9.10759,-0.14305 v -17.92908 l 9.10756,-0.14305 z m 0,-92.999989 0.157088,-9.999991 h 45.785785 l 0.15712,9.999991 z m 97.926513,37.671769 9.99999,0.15709 4e-5,36.79883 -10.00002,0.15709 z m -97.926513,3e-5 -10.000021,-0.15709 3e-5,-37.357591 9.999991,-0.157118 z m 159.078123,68.48458 7.26035,-6.87841 27.40489,28.03141 -7.04071,7.10303 z m -159.078123,107.02386 -9.999991,-0.15706 -3e-5,-38.97738 9.999991,-0.15712 z m 186.702653,-78.76783 9.81848,-1.90318 8.23274,39.16877 -9.75385,2.21068 z m -40.45262,378.32063 -0.15711,9.99999 -70.06389,3e-5 -0.15709,-10.00002 z M 107.31249,64.100281 l 3.3254,-9.432197 27.8818,9.340286 -3.0275,9.531975 z m 28.1797,9.440064 7.76696,-6.300688 23.4451,27.990876 -7.56524,6.541517 z m -74.279723,65.344745 -9.999991,-0.15712 v -36.7988 l 10.000021,-0.15709 z m 195.000053,437.94823 -0.15709,9.99999 h -26.57265 l -0.15708,-9.99999 z M 61.212467,237.98896 51.212476,237.83187 v -44.70822 l 10.000021,-0.15709 z m 195.000053,0 9.99999,0.15709 v 38.97741 l -9.99999,0.15706 z m -195.000023,138.13882 -9.999991,-0.15712 -3e-5,-98.53302 10.000021,-0.15712 z m 195.000023,106.75139 9.99999,0.15709 10e-6,47.75253 -10,0.15709 z m -195.000023,48.06671 -9.999991,-0.15709 v -47.75256 l 9.999991,-0.15706 z m 0,-337.97932 -10.000051,-0.15709 6e-5,-22.39212 9.999991,-0.15709 z"
       id="path16117"
       inkscape:connector-curvature="0"
       style="fill:#e5e5e5;fill-opacity:1;stroke:#000000;stroke-width:0.06614583;stroke-linecap:butt;stroke-linejoin:bevel;stroke-dasharray:none;stroke-opacity:1" />
    <path
       style="fill:#000000;stroke:#000000;stroke-width:0.0661458;stroke-linecap:butt;stroke-linejoin:bevel;stroke-dasharray:none;stroke-opacity:1"
       inkscape:connector-curvature="0"
       id="path16121"
       d="m 256.21252,553.88961 -10,10 7.5,-10 -7.5,-10 z"
       class="arrow" />
    <path
       d="m 249.32188,557.88961 h -3.93554 v -0.74219 h 1.51367 v -4.87304 h -1.51367 v -0.66407 q 0.30762,0 0.65918,-0.0488 0.35156,-0.0537 0.53222,-0.15137 0.22461,-0.12207 0.35157,-0.30762 0.13183,-0.19043 0.15136,-0.50781 h 0.75684 v 6.55273 h 1.48437 z"
       style="font-style:normal;font-size:medium;text-anchor:middle;fill:none;fill-opacity:1;stroke:#000000;stroke-width:0.06614583;stroke-linecap:butt;stroke-linejoin:bevel;stroke-dasharray:none;stroke-opacity:1"
       id="path910"
       inkscape:connector-curvature="0" />
    <path
       inkscape:connector-curvature="0"
       id="path913"
       style="font-style:normal;font-size:medium;text-anchor:middle;fill:none;fill-opacity:1;stroke:#000000;stroke-width:0.06614583;stroke-linecap:butt;stroke-linejoin:bevel;stroke-dasharray:none;stroke-opacity:1"
       d="m 260.13508,549.7104 q -0.99756,0 -1.63037,-0.65918 -0.62842,-0.65478 -0.62842,-1.6084 0,-0.4834 0.14941,-0.8789 0.14942,-0.39551 0.44385,-0.69873 0.36475,-0.37793 0.9668,-0.58448 0.60205,-0.20215 1.45019,-0.20215 0.87012,0 1.54248,0.18458 0.67237,0.18896 1.19532,0.59765 0.49658,0.38672 0.77343,0.99756 0.28125,0.61084 0.28125,1.42383 0,0.25928 -0.022,0.43506 -0.022,0.17578 -0.0791,0.35595 h -0.83936 v -0.0439 q 0.0659,-0.12305 0.12305,-0.37354 0.0615,-0.24609 0.0615,-0.50537 0,-0.94482 -0.59326,-1.50732 -0.58887,-0.5625 -1.59521,-0.65479 0.22412,0.36914 0.33838,0.7251 0.11865,0.36035 0.11865,0.83057 0,0.41748 -0.0791,0.73388 -0.0747,0.3208 -0.30762,0.65479 -0.26807,0.38672 -0.67676,0.58008 -0.40869,0.19775 -0.99316,0.19775 z m -0.0352,-0.89209 q 0.40869,0 0.67676,-0.12305 0.26807,-0.11865 0.46582,-0.3955 0.14063,-0.20215 0.18457,-0.44825 0.0439,-0.24609 0.0439,-0.51416 0,-0.37353 -0.0879,-0.69433 -0.0879,-0.3208 -0.27247,-0.65918 -0.0967,-0.009 -0.18896,-0.0132 -0.0879,-0.004 -0.22412,-0.004 -0.69434,0 -1.09863,0.14063 -0.39991,0.14502 -0.63282,0.39551 -0.19336,0.20215 -0.28564,0.43506 -0.0879,0.2373 -0.0879,0.51416 0,0.6372 0.38672,1.00195 0.39111,0.36474 1.1206,0.36474 z" />
    <path
       inkscape:connector-curvature="0"
       id="path915"
       style="font-style:normal;font-size:medium;text-anchor:middle;fill:none;fill-opacity:1;stroke:#000000;stroke-width:0.06614583;stroke-linecap:butt;stroke-linejoin:bevel;stroke-dasharray:none;stroke-opacity:1"
       d="m 258.01252,552.36909 v -1.05029 h 1.25244 v 1.05029 z" />
    <path
       inkscape:connector-curvature="0"
       id="path917"
       style="font-style:normal;font-size:medium;text-anchor:middle;fill:none;fill-opacity:1;stroke:#000000;stroke-width:0.06614583;stroke-linecap:butt;stroke-linejoin:bevel;stroke-dasharray:none;stroke-opacity:1"
       d="m 261.66877,556.04731 v -1.05029 h 1.25244 v 1.05029 z m -3.65625,0 v -1.05029 h 1.25244 v 1.05029 z" />
    <path
       inkscape:connector-curvature="0"
       id="path919"
       style="font-style:normal;font-size:medium;text-anchor:middle;fill:none;fill-opacity:1;stroke:#000000;stroke-width:0.06614583;stroke-linecap:butt;stroke-linejoin:bevel;stroke-dasharray:none;stroke-opacity:1"
       d="m 258.01252,562.33589 v -3.54199 h 0.66797 v 1.3623 h 4.38574 v -1.3623 h 0.59766 q 0,0.27685 0.0439,0.59326 0.0483,0.3164 0.13623,0.479 0.10987,0.20215 0.27686,0.31641 0.17138,0.11865 0.45703,0.13623 v 0.68115 h -5.89746 v 1.33594 z" />
    <path
       style="fill:#000000;stroke:#000000;stroke-width:0.0661458;stroke-linecap:butt;stroke-linejoin:bevel;stroke-dasharray:none;stroke-opacity:1"
       inkscape:connector-curvature="0"
       id="path16133"
       d="m 61.212497,553.88958 10,-10 -7.5,10 7.5,10 z"
       class="arrow" />
    <path
       d="m 72.73691,557.88959 h -4.921875 v -1.02051 q 0.512695,-0.43945 1.025391,-0.8789 0.517578,-0.43946 0.961914,-0.87403 0.9375,-0.9082 1.284179,-1.44043 0.34668,-0.53711 0.34668,-1.15722 0,-0.56641 -0.375976,-0.88379 -0.371094,-0.32227 -1.040039,-0.32227 -0.444336,0 -0.961915,0.15625 -0.517578,0.15625 -1.010742,0.47852 h -0.04883 v -1.02539 q 0.34668,-0.1709 0.922852,-0.3125 0.581054,-0.14161 1.123047,-0.14161 1.118164,0 1.752929,0.542 0.634766,0.53711 0.634766,1.45996 0,0.41504 -0.107422,0.77637 -0.102539,0.35644 -0.307617,0.67871 -0.19043,0.30273 -0.449219,0.5957 -0.253906,0.29297 -0.620117,0.64941 -0.522461,0.5127 -1.079102,0.9961 -0.55664,0.47851 -1.040039,0.88867 h 3.911133 z"
       style="font-style:normal;font-size:medium;text-anchor:middle;fill:none;fill-opacity:1;stroke:#000000;stroke-width:0.06614583;stroke-linecap:butt;stroke-linejoin:bevel;stroke-dasharray:none;stroke-opacity:1"
       id="path922"
       inkscape:connector-curvature="0" />
    <path
       inkscape:connector-curvature="0"
       id="path925"
       style="font-style:normal;font-size:medium;text-anchor:middle;fill:none;fill-opacity:1;stroke:#000000;stroke-width:0.06614583;stroke-linecap:butt;stroke-linejoin:bevel;stroke-dasharray:none;stroke-opacity:1"
       d="m 59.41249,556.5307 v 4.42969 h -0.918457 q -0.395508,-0.46143 -0.791016,-0.92285 -0.395508,-0.46582 -0.786621,-0.86572 -0.817383,-0.84375 -1.296387,-1.15577 -0.483398,-0.31201 -1.041503,-0.31201 -0.509766,0 -0.795411,0.33838 -0.290039,0.33399 -0.290039,0.93604 0,0.3999 0.140625,0.86572 0.140625,0.46582 0.430664,0.90967 v 0.0439 h -0.922851 q -0.153809,-0.31201 -0.28125,-0.83056 -0.127442,-0.52295 -0.127442,-1.01075 0,-1.00634 0.487793,-1.57763 0.483399,-0.57129 1.313965,-0.57129 0.373535,0 0.698731,0.0967 0.320801,0.0923 0.61084,0.27685 0.272461,0.17139 0.536132,0.4043 0.263672,0.22852 0.584473,0.55811 0.461426,0.47021 0.896484,0.97119 0.430664,0.50097 0.799805,0.93603 v -3.52002 z" />
    <path
       inkscape:connector-curvature="0"
       id="path927"
       style="font-style:normal;font-size:medium;text-anchor:middle;fill:none;fill-opacity:1;stroke:#000000;stroke-width:0.06614583;stroke-linecap:butt;stroke-linejoin:bevel;stroke-dasharray:none;stroke-opacity:1"
       d="m 55.75624,553.36664 v 1.05029 h -1.252441 v -1.05029 z m 3.65625,0 v 1.05029 h -1.252441 v -1.05029 z" />
    <path
       inkscape:connector-curvature="0"
       id="path929"
       style="font-style:normal;font-size:medium;text-anchor:middle;fill:none;fill-opacity:1;stroke:#000000;stroke-width:0.06614583;stroke-linecap:butt;stroke-linejoin:bevel;stroke-dasharray:none;stroke-opacity:1"
       d="m 59.41249,546.70453 v 4.42969 h -0.918457 q -0.395508,-0.46143 -0.791016,-0.92285 -0.395508,-0.46582 -0.786621,-0.86573 -0.817383,-0.84375 -1.296387,-1.15576 -0.483398,-0.31201 -1.041503,-0.31201 -0.509766,0 -0.795411,0.33838 -0.290039,0.33398 -0.290039,0.93604 0,0.3999 0.140625,0.86572 0.140625,0.46582 0.430664,0.90967 v 0.0439 h -0.922851 q -0.153809,-0.31201 -0.28125,-0.83057 -0.127442,-0.52294 -0.127442,-1.01074 0,-1.00635 0.487793,-1.57763 0.483399,-0.57129 1.313965,-0.57129 0.373535,0 0.698731,0.0967 0.320801,0.0923 0.61084,0.27685 0.272461,0.17139 0.536132,0.4043 0.263672,0.22851 0.584473,0.5581 0.461426,0.47022 0.896484,0.9712 0.430664,0.50097 0.799805,0.93603 v -3.52002 z" />
    <path
       inkscape:connector-curvature="0"
       id="path932"
       style="font-style:normal;font-size:medium;text-anchor:middle;fill:none;fill-opacity:1;stroke:#000000;stroke-width:0.06614583;stroke-linecap:butt;stroke-linejoin:bevel;stroke-dasharray:none;stroke-opacity:1"
       d="m 101.772,584.19682 2.96192,-5.56348 h 0.94043 l -3.15088,5.77441 h 3.72656 v 0.76905 H 101.772 Z" />
    <path
       inkscape:connector-curvature="0"
       id="path934"
       style="font-style:normal;font-size:medium;text-anchor:middle;fill:none;fill-opacity:1;stroke:#000000;stroke-width:0.06614583;stroke-linecap:butt;stroke-linejoin:bevel;stroke-dasharray:none;stroke-opacity:1"
       d="m 98.625519,582.28959 h 1.050293 v 1.25244 h -1.050293 z m 0,-3.65625 h 1.050293 v 1.25244 h -1.050293 z" />
    <path
       inkscape:connector-curvature="0"
       id="path936"
       style="font-style:normal;font-size:medium;text-anchor:middle;fill:none;fill-opacity:1;stroke:#000000;stroke-width:0.06614583;stroke-linecap:butt;stroke-linejoin:bevel;stroke-dasharray:none;stroke-opacity:1"
       d="m 91.963409,578.63334 h 4.429688 v 0.91846 q -0.461426,0.3955 -0.922852,0.79101 -0.46582,0.39551 -0.865722,0.78662 -0.84375,0.81739 -1.155762,1.29639 -0.312012,0.4834 -0.312012,1.0415 0,0.50977 0.338379,0.79541 0.333985,0.29004 0.936035,0.29004 0.399903,0 0.865723,-0.14062 0.46582,-0.14063 0.909668,-0.43067 h 0.04394 v 0.92286 q -0.312012,0.1538 -0.830566,0.28125 -0.52295,0.12744 -1.010743,0.12744 -1.006347,0 -1.577636,-0.4878 -0.571289,-0.48339 -0.571289,-1.31396 0,-0.37354 0.09668,-0.69873 0.09229,-0.3208 0.276855,-0.61084 0.171387,-0.27246 0.404297,-0.53613 0.228516,-0.26368 0.558105,-0.58448 0.470215,-0.46142 0.971192,-0.89648 0.500976,-0.43066 0.936035,-0.79981 h -3.52002 z" />
    <path
       inkscape:connector-curvature="0"
       id="path939"
       style="font-style:normal;font-size:medium;text-anchor:middle;fill:none;fill-opacity:1;stroke:#000000;stroke-width:0.06614583;stroke-linecap:butt;stroke-linejoin:bevel;stroke-dasharray:none;stroke-opacity:1"
       d="m 81.247829,62.30028 h -3.541993 v -0.667969 h 1.362305 v -4.385742 h -1.362305 v -0.597656 q 0.276856,0 0.593262,-0.04395 0.316406,-0.04834 0.479004,-0.136231 0.202148,-0.109863 0.316406,-0.276855 0.118653,-0.171387 0.136231,-0.457031 h 0.681152 v 5.897461 h 1.335938 z" />
    <path
       inkscape:connector-curvature="0"
       id="path941"
       style="font-style:normal;font-size:medium;text-anchor:middle;fill:none;fill-opacity:1;stroke:#000000;stroke-width:0.06614583;stroke-linecap:butt;stroke-linejoin:bevel;stroke-dasharray:none;stroke-opacity:1"
       d="m 84.785426,58.64403 h -1.050293 v -1.252441 h 1.050293 z m 0,3.65625 h -1.050293 v -1.252441 h 1.050293 z" />
    <path
       inkscape:connector-curvature="0"
       id="path943"
       style="font-style:normal;font-size:medium;text-anchor:middle;fill:none;fill-opacity:1;stroke:#000000;stroke-width:0.06614583;stroke-linecap:butt;stroke-linejoin:bevel;stroke-dasharray:none;stroke-opacity:1"
       d="m 91.074,62.30028 h -3.541992 v -0.667969 h 1.362305 v -4.385742 h -1.362305 v -0.597656 q 0.276856,0 0.593262,-0.04395 0.316406,-0.04834 0.479004,-0.136231 0.202148,-0.109863 0.316406,-0.276855 0.118652,-0.171387 0.136231,-0.457031 h 0.681152 v 5.897461 H 91.074 Z" />
    <path
       inkscape:connector-curvature="0"
       id="path946"
       style="font-style:normal;font-size:medium;text-anchor:middle;fill:none;fill-opacity:1;stroke:#000000;stroke-width:0.06614583;stroke-linecap:butt;stroke-linejoin:bevel;stroke-dasharray:none;stroke-opacity:1"
       d="m 59.412497,85.577296 v 4.429688 H 58.49404 q -0.395508,-0.461426 -0.791016,-0.922852 -0.395508,-0.46582 -0.786621,-0.865722 -0.817383,-0.84375 -1.296387,-1.155762 -0.483398,-0.312012 -1.041503,-0.312012 -0.509766,0 -0.795411,0.338379 -0.290039,0.333984 -0.290039,0.936035 0,0.399903 0.140625,0.865723 0.140625,0.46582 0.430664,0.909668 v 0.04394 h -0.922851 q -0.153809,-0.312012 -0.28125,-0.830567 -0.127442,-0.522949 -0.127442,-1.010742 0,-1.006347 0.487793,-1.577637 0.483399,-0.571289 1.313965,-0.571289 0.373535,0 0.698731,0.09668 0.320801,0.09229 0.61084,0.276856 0.272461,0.171387 0.536132,0.404297 0.263672,0.228516 0.584473,0.558105 0.461426,0.470215 0.896484,0.971192 0.430664,0.500976 0.799805,0.936035 v -3.52002 z" />
    <path
       inkscape:connector-curvature="0"
       id="path948"
       style="font-style:normal;font-size:medium;text-anchor:middle;fill:none;fill-opacity:1;stroke:#000000;stroke-width:0.06614583;stroke-linecap:butt;stroke-linejoin:bevel;stroke-dasharray:none;stroke-opacity:1"
       d="m 55.756247,82.413234 v 1.050293 h -1.252441 v -1.050293 z m 3.65625,0 v 1.050293 h -1.252441 v -1.050293 z" />
    <path
       inkscape:connector-curvature="0"
       id="path950"
       style="font-style:normal;font-size:medium;text-anchor:middle;fill:none;fill-opacity:1;stroke:#000000;stroke-width:0.06614583;stroke-linecap:butt;stroke-linejoin:bevel;stroke-dasharray:none;stroke-opacity:1"
       d="m 59.412497,76.12466 v 3.541992 h -0.667969 v -1.362305 h -4.385742 v 1.362305 H 53.76113 q 0,-0.276856 -0.04395,-0.593262 -0.04834,-0.316406 -0.136231,-0.479004 -0.109863,-0.202148 -0.276855,-0.316406 -0.171387,-0.118652 -0.457031,-0.136231 v -0.681152 h 5.897461 V 76.12466 Z" />
    <path
       inkscape:connector-curvature="0"
       id="path953"
       style="font-style:normal;font-size:medium;text-anchor:middle;fill:none;fill-opacity:1;stroke:#000000;stroke-width:0.06614583;stroke-linecap:butt;stroke-linejoin:bevel;stroke-dasharray:none;stroke-opacity:1"
       d="m 253.20519,214.93038 -0.72856,-3.46626 0.65369,-0.13739 0.28021,1.33317 4.29196,-0.90211 -0.28021,-1.33317 0.58487,-0.12294 q 0.0569,0.27094 0.16504,0.57154 0.11239,0.2997 0.23184,0.44074 0.1491,0.17523 0.33602,0.25269 0.19213,0.0809 0.47528,0.0393 l 0.14011,0.66659 -5.77136,1.21306 0.2748,1.30737 z" />
    <path
       inkscape:connector-curvature="0"
       id="path955"
       style="font-style:normal;font-size:medium;text-anchor:middle;fill:none;fill-opacity:1;stroke:#000000;stroke-width:0.06614583;stroke-linecap:butt;stroke-linejoin:bevel;stroke-dasharray:none;stroke-opacity:1"
       d="m 257.51091,217.64027 -0.21603,-1.02784 1.22566,-0.25761 0.21603,1.02783 z m -3.57806,0.75206 -0.21604,-1.02784 1.22566,-0.25761 0.21604,1.02783 z" />
    <path
       inkscape:connector-curvature="0"
       id="path957"
       style="font-style:normal;font-size:medium;text-anchor:middle;fill:none;fill-opacity:1;stroke:#000000;stroke-width:0.06614583;stroke-linecap:butt;stroke-linejoin:bevel;stroke-dasharray:none;stroke-opacity:1"
       d="m 255.30319,224.91198 -0.91115,-4.33497 0.89882,-0.18892 q 0.48196,0.37021 0.96392,0.74042 0.48287,0.3745 0.94787,0.68541 0.97346,0.65757 1.5064,0.86439 0.53724,0.20591 1.08341,0.0911 0.49887,-0.10486 0.7088,-0.49475 0.21514,-0.38651 0.0913,-0.97568 -0.0822,-0.39135 -0.31569,-0.81829 -0.23343,-0.42693 -0.60856,-0.80163 l -0.009,-0.043 0.90312,-0.18982 q 0.21469,0.2737 0.44607,0.75496 0.23228,0.48555 0.33262,0.96291 0.207,0.98483 -0.15286,1.64424 -0.35555,0.6585 -1.16835,0.82934 -0.36555,0.0768 -0.70368,0.0491 -0.33292,-0.0243 -0.65472,-0.14529 -0.30189,-0.11167 -0.60783,-0.28537 -0.30504,-0.16939 -0.68678,-0.42595 -0.54827,-0.36525 -1.07708,-0.76602 -0.5245,-0.40168 -0.97523,-0.75151 l 0.72404,3.44475 z" />
    <path
       inkscape:connector-curvature="0"
       id="path960"
       style="font-style:normal;font-size:medium;text-anchor:middle;fill:none;fill-opacity:1;stroke:#000000;stroke-width:0.06614583;stroke-linecap:butt;stroke-linejoin:bevel;stroke-dasharray:none;stroke-opacity:1"
       d="m 245.39264,584.19682 2.96191,-5.56348 h 0.94043 l -3.15088,5.77441 h 3.72656 v 0.76905 h -4.47802 z" />
    <path
       inkscape:connector-curvature="0"
       id="path962"
       style="font-style:normal;font-size:medium;text-anchor:middle;fill:none;fill-opacity:1;stroke:#000000;stroke-width:0.06614583;stroke-linecap:butt;stroke-linejoin:bevel;stroke-dasharray:none;stroke-opacity:1"
       d="m 242.24615,582.28959 h 1.05029 v 1.25244 h -1.05029 z m 0,-3.65625 h 1.05029 v 1.25244 h -1.05029 z" />
    <path
       inkscape:connector-curvature="0"
       id="path964"
       style="font-style:normal;font-size:medium;text-anchor:middle;fill:none;fill-opacity:1;stroke:#000000;stroke-width:0.06614583;stroke-linecap:butt;stroke-linejoin:bevel;stroke-dasharray:none;stroke-opacity:1"
       d="m 235.43463,580.47465 h 0.97119 v -1.84131 h 0.84375 v 1.84131 h 3.1333 v 1.01074 l -3.16846,3.69141 h -0.80859 v -3.99903 h -0.97119 z m 1.81494,0.70312 v 2.95313 l 2.53564,-2.95313 z" />
    <path
       style="fill:#000000;stroke:#000000;stroke-width:0.0661458;stroke-linecap:butt;stroke-linejoin:bevel;stroke-dasharray:none;stroke-opacity:1"
       inkscape:connector-curvature="0"
       id="path16165"
       d="m 256.21252,257.63474 -10,10 7.5,-10 -7.5,-10 z"
       class="arrow" />
    <path
       d="m 249.09728,258.13377 q 0.23437,0.20996 0.38574,0.52735 0.15136,0.31738 0.15136,0.82031 0,0.49805 -0.18066,0.91309 -0.18066,0.41503 -0.50781,0.72265 -0.36621,0.3418 -0.86426,0.50781 -0.49316,0.16114 -1.08398,0.16114 -0.60547,0 -1.19141,-0.14649 -0.58594,-0.1416 -0.96191,-0.3125 v -1.02051 h 0.0732 q 0.41504,0.27344 0.97656,0.45411 0.56152,0.18066 1.08398,0.18066 0.30762,0 0.6543,-0.10254 0.34668,-0.10254 0.56153,-0.30273 0.2246,-0.21485 0.33203,-0.47364 0.1123,-0.25878 0.1123,-0.65429 0,-0.39063 -0.12695,-0.64453 -0.12207,-0.25879 -0.3418,-0.40528 -0.21973,-0.15136 -0.53223,-0.20508 -0.3125,-0.0586 -0.67382,-0.0586 h -0.43946 v -0.81055 h 0.3418 q 0.74219,0 1.18164,-0.30761 0.44434,-0.3125 0.44434,-0.90821 0,-0.26367 -0.11231,-0.45898 -0.1123,-0.2002 -0.3125,-0.32715 -0.20996,-0.12695 -0.44922,-0.17578 -0.23925,-0.0488 -0.54199,-0.0488 -0.46387,0 -0.98633,0.16602 -0.52246,0.16601 -0.98633,0.46875 h -0.0488 v -1.02051 q 0.34668,-0.1709 0.92285,-0.3125 0.58105,-0.14649 1.12305,-0.14649 0.53222,0 0.9375,0.0977 0.40527,0.0977 0.73242,0.3125 0.35156,0.23438 0.53222,0.56641 0.18067,0.33203 0.18067,0.77636 0,0.60547 -0.42969,1.05957 -0.4248,0.44922 -1.00586,0.56641 v 0.0684 q 0.23438,0.0391 0.53711,0.16602 0.30273,0.12207 0.5127,0.30761 z"
       style="font-style:normal;font-size:medium;text-anchor:middle;fill:none;fill-opacity:1;stroke:#000000;stroke-width:0.06614583;stroke-linecap:butt;stroke-linejoin:bevel;stroke-dasharray:none;stroke-opacity:1"
       id="path967"
       inkscape:connector-curvature="0" />
    <path
       inkscape:connector-curvature="0"
       id="path970"
       style="font-style:normal;font-size:medium;text-anchor:middle;fill:none;fill-opacity:1;stroke:#000000;stroke-width:0.06614583;stroke-linecap:butt;stroke-linejoin:bevel;stroke-dasharray:none;stroke-opacity:1"
       d="m 260.13508,253.45554 q -0.99756,0 -1.63037,-0.65918 -0.62842,-0.65478 -0.62842,-1.6084 0,-0.48339 0.14941,-0.8789 0.14942,-0.39551 0.44385,-0.69873 0.36475,-0.37793 0.9668,-0.58448 0.60205,-0.20214 1.45019,-0.20214 0.87012,0 1.54248,0.18457 0.67237,0.18896 1.19531,0.59765 0.49659,0.38672 0.77344,0.99756 0.28125,0.61084 0.28125,1.42383 0,0.25928 -0.022,0.43506 -0.022,0.17578 -0.0791,0.35596 h -0.83936 v -0.0439 q 0.0659,-0.12305 0.12305,-0.37353 0.0615,-0.2461 0.0615,-0.50538 0,-0.94482 -0.59326,-1.50732 -0.58887,-0.5625 -1.59521,-0.65479 0.22412,0.36915 0.33837,0.7251 0.11866,0.36035 0.11866,0.83057 0,0.41748 -0.0791,0.73389 -0.0747,0.3208 -0.30761,0.65478 -0.26807,0.38672 -0.67676,0.58008 -0.40869,0.19775 -0.99316,0.19775 z m -0.0352,-0.89209 q 0.40869,0 0.67676,-0.12304 0.26807,-0.11866 0.46582,-0.39551 0.14062,-0.20215 0.18457,-0.44824 0.0439,-0.2461 0.0439,-0.51416 0,-0.37354 -0.0879,-0.69434 -0.0879,-0.3208 -0.27246,-0.65918 -0.0967,-0.009 -0.18896,-0.0132 -0.0879,-0.004 -0.22412,-0.004 -0.69434,0 -1.09864,0.14062 -0.3999,0.14502 -0.63281,0.39551 -0.19336,0.20215 -0.28564,0.43506 -0.0879,0.2373 -0.0879,0.51416 0,0.6372 0.38672,1.00195 0.39111,0.36475 1.1206,0.36475 z" />
    <path
       inkscape:connector-curvature="0"
       id="path972"
       style="font-style:normal;font-size:medium;text-anchor:middle;fill:none;fill-opacity:1;stroke:#000000;stroke-width:0.06614583;stroke-linecap:butt;stroke-linejoin:bevel;stroke-dasharray:none;stroke-opacity:1"
       d="m 258.01252,256.11423 v -1.05029 h 1.25244 v 1.05029 z" />
    <path
       inkscape:connector-curvature="0"
       id="path974"
       style="font-style:normal;font-size:medium;text-anchor:middle;fill:none;fill-opacity:1;stroke:#000000;stroke-width:0.06614583;stroke-linecap:butt;stroke-linejoin:bevel;stroke-dasharray:none;stroke-opacity:1"
       d="m 261.66877,259.79246 v -1.0503 h 1.25244 v 1.0503 z m -3.65625,0 v -1.0503 h 1.25244 v 1.0503 z" />
    <path
       inkscape:connector-curvature="0"
       id="path976"
       style="font-style:normal;font-size:medium;text-anchor:middle;fill:none;fill-opacity:1;stroke:#000000;stroke-width:0.06614583;stroke-linecap:butt;stroke-linejoin:bevel;stroke-dasharray:none;stroke-opacity:1"
       d="m 261.1634,265.87888 q -0.18897,0.21094 -0.47461,0.34717 -0.28565,0.13623 -0.73828,0.13623 -0.44825,0 -0.82178,-0.1626 -0.37354,-0.16259 -0.65039,-0.45703 -0.30762,-0.32959 -0.45703,-0.77783 -0.14502,-0.44385 -0.14502,-0.97559 0,-0.54492 0.13183,-1.07226 0.12745,-0.52735 0.28125,-0.86572 h 0.91846 v 0.0659 q -0.24609,0.37354 -0.40869,0.87891 -0.1626,0.50537 -0.1626,0.97559 0,0.27685 0.0923,0.58886 0.0923,0.31201 0.27246,0.50537 0.19336,0.20215 0.42627,0.29883 0.23291,0.10108 0.58886,0.10108 0.35157,0 0.58008,-0.11426 0.23291,-0.10986 0.36475,-0.30762 0.13623,-0.19775 0.18457,-0.479 0.0527,-0.28125 0.0527,-0.60645 v -0.39551 h 0.7295 v 0.30762 q 0,0.66797 0.27685,1.06348 0.28125,0.3999 0.81738,0.3999 0.23731,0 0.41309,-0.10107 0.18018,-0.10108 0.29443,-0.28125 0.11426,-0.18897 0.15821,-0.4043 0.0439,-0.21533 0.0439,-0.48779 0,-0.41748 -0.14941,-0.8877 -0.14942,-0.47021 -0.42188,-0.88769 v -0.0439 h 0.91846 q 0.15381,0.31201 0.28125,0.83057 0.13184,0.52295 0.13184,1.01074 0,0.479 -0.0879,0.84375 -0.0879,0.36475 -0.28125,0.65918 -0.21093,0.31641 -0.50976,0.479 -0.29883,0.1626 -0.69873,0.1626 -0.54492,0 -0.95362,-0.38672 -0.40429,-0.38232 -0.50976,-0.90527 h -0.0615 q -0.0352,0.21094 -0.14942,0.4834 -0.10986,0.27246 -0.27685,0.46142 z" />
    <path
       inkscape:connector-curvature="0"
       id="path979"
       style="font-style:normal;font-size:medium;text-anchor:middle;fill:none;fill-opacity:1;stroke:#000000;stroke-width:0.06614583;stroke-linecap:butt;stroke-linejoin:bevel;stroke-dasharray:none;stroke-opacity:1"
       d="m 262.26215,116.08938 1.67735,-1.90613 7.14066,6.28361 -1.67734,1.90612 -0.52419,-0.46126 1.11608,-1.26831 -6.09229,-5.36107 -1.11608,1.26831 z" />
    <path
       inkscape:connector-curvature="0"
       id="path981"
       style="font-style:normal;font-size:medium;text-anchor:middle;fill:none;fill-opacity:1;stroke:#000000;stroke-width:0.06614583;stroke-linecap:butt;stroke-linejoin:bevel;stroke-dasharray:none;stroke-opacity:1"
       d="m 259.64441,121.96155 2.59989,-2.95451 0.55718,0.4903 -0.99996,1.13635 3.65831,3.21922 0.99996,-1.13634 0.49853,0.43869 q -0.20322,0.23093 -0.39884,0.5271 -0.19193,0.2994 -0.23796,0.49955 -0.0567,0.24926 -0.001,0.46714 0.0559,0.22477 0.28124,0.44911 l -0.49998,0.56817 -4.91929,-4.32886 -0.9806,1.11436 z" />
    <path
       inkscape:connector-curvature="0"
       id="path983"
       style="font-style:normal;font-size:medium;text-anchor:middle;fill:none;fill-opacity:1;stroke:#000000;stroke-width:0.06614583;stroke-linecap:butt;stroke-linejoin:bevel;stroke-dasharray:none;stroke-opacity:1"
       d="m 258.21478,128.88573 q -0.31245,0.0372 -0.65071,-0.0588 -0.33827,-0.096 -0.71584,-0.42828 -0.37388,-0.32901 -0.56611,-0.73883 -0.19223,-0.40981 -0.20705,-0.85862 -0.0147,-0.50073 0.18972,-0.98429 0.20483,-0.47667 0.59513,-0.92022 0.39999,-0.45454 0.89704,-0.79765 0.49338,-0.34633 0.87005,-0.51568 l 0.76612,0.67417 -0.0484,0.055 q -0.47946,0.13094 -0.98603,0.43314 -0.50659,0.3022 -0.85174,0.69442 -0.20321,0.23093 -0.35525,0.55893 -0.15205,0.328 -0.14369,0.62155 0.0129,0.31055 0.13622,0.56215 0.12009,0.25527 0.41701,0.51655 0.29325,0.25805 0.56773,0.33048 0.27492,0.0793 0.53005,0.0111 0.25878,-0.0649 0.50555,-0.26407 0.25043,-0.19589 0.48913,-0.46714 l 0.29032,-0.32992 0.6085,0.53547 -0.2258,0.25659 q -0.49031,0.55718 -0.54968,1.09031 -0.0589,0.54002 0.38827,0.93355 0.19794,0.17418 0.41876,0.21889 0.22448,0.048 0.45204,-0.0185 0.23402,-0.0738 0.42873,-0.22111 0.19469,-0.14738 0.39468,-0.37465 0.30644,-0.34823 0.52696,-0.85013 0.22051,-0.5019 0.29968,-1.05012 l 0.0322,-0.0366 0.76611,0.67416 q -0.10072,0.37316 -0.37505,0.89925 -0.27388,0.53298 -0.63193,0.93987 -0.3516,0.39955 -0.69268,0.63926 -0.341,0.23977 -0.71845,0.3434 -0.40819,0.10909 -0.7768,0.0254 -0.36862,-0.0837 -0.70219,-0.37726 -0.45454,-0.39998 -0.51159,-1.02254 -0.0566,-0.61567 0.23928,-1.12931 l -0.0514,-0.0452 q -0.18419,0.15012 -0.47945,0.29355 -0.29164,0.14663 -0.56964,0.18168 z" />
    <path
       inkscape:connector-curvature="0"
       id="path985"
       style="font-style:normal;font-size:medium;text-anchor:middle;fill:none;fill-opacity:1;stroke:#000000;stroke-width:0.06614583;stroke-linecap:butt;stroke-linejoin:bevel;stroke-dasharray:none;stroke-opacity:1"
       d="m 251.06262,128.81647 1.67735,-1.90613 0.52418,0.46127 -1.11608,1.26831 6.09229,5.36107 1.11608,-1.26831 0.52419,0.46127 -1.67735,1.90613 z" />
    <path
       inkscape:connector-curvature="0"
       id="path987"
       style="font-style:normal;font-size:medium;text-anchor:middle;fill:none;fill-opacity:1;stroke:#000000;stroke-width:0.06614583;stroke-linecap:butt;stroke-linejoin:bevel;stroke-dasharray:none;stroke-opacity:1"
       d="m 247.06106,136.2612 1.8967,-2.15539 0.55718,0.4903 -0.629,0.71479 4.34377,3.82242 0.629,-0.71479 0.55718,0.4903 -1.89669,2.15539 -0.55718,-0.4903 0.62901,-0.7148 -4.34378,-3.82242 -0.62901,0.7148 z" />
    <path
       inkscape:connector-curvature="0"
       id="path989"
       style="font-style:normal;font-size:medium;text-anchor:middle;fill:none;fill-opacity:1;stroke:#000000;stroke-width:0.06614583;stroke-linecap:butt;stroke-linejoin:bevel;stroke-dasharray:none;stroke-opacity:1"
       d="m 240.79359,143.38353 2.59988,-2.9545 0.55718,0.4903 -0.99995,1.13635 3.65831,3.21922 0.99995,-1.13634 0.49853,0.43869 q -0.20322,0.23093 -0.39883,0.5271 -0.19194,0.29939 -0.23796,0.49954 -0.0567,0.24926 -0.001,0.46715 0.0559,0.22477 0.28124,0.4491 l -0.49999,0.56818 -4.91928,-4.32886 -0.98061,1.11435 z" />
    <path
       inkscape:connector-curvature="0"
       id="path991"
       style="font-style:normal;font-size:medium;text-anchor:middle;fill:none;fill-opacity:1;stroke:#000000;stroke-width:0.06614583;stroke-linecap:butt;stroke-linejoin:bevel;stroke-dasharray:none;stroke-opacity:1"
       d="m 239.36396,150.30771 q -0.31246,0.0373 -0.65072,-0.0588 -0.33827,-0.096 -0.71583,-0.42829 -0.37389,-0.32901 -0.56612,-0.73882 -0.19223,-0.40981 -0.20705,-0.85862 -0.0147,-0.50073 0.18972,-0.98429 0.20484,-0.47668 0.59514,-0.92022 0.39999,-0.45454 0.89703,-0.79765 0.49338,-0.34633 0.87006,-0.51569 l 0.76612,0.67417 -0.0484,0.055 q -0.47946,0.13093 -0.98604,0.43313 -0.50658,0.3022 -0.85173,0.69442 -0.20322,0.23094 -0.35526,0.55894 -0.15205,0.328 -0.14368,0.62154 0.0129,0.31054 0.13622,0.56215 0.12009,0.25527 0.41701,0.51655 0.29324,0.25805 0.56772,0.33049 0.27492,0.0793 0.53005,0.0111 0.25879,-0.065 0.50556,-0.26408 0.25043,-0.19589 0.48913,-0.46715 l 0.29031,-0.3299 0.6085,0.53546 -0.2258,0.2566 q -0.4903,0.55718 -0.54967,1.0903 -0.0589,0.54001 0.38827,0.93354 0.19794,0.17419 0.41875,0.21891 0.22449,0.0479 0.45205,-0.0185 0.23401,-0.0737 0.42872,-0.22112 0.1947,-0.14738 0.39468,-0.37464 0.30644,-0.34824 0.52696,-0.85013 0.22051,-0.5019 0.29969,-1.05013 l 0.0322,-0.0366 0.76611,0.67416 q -0.10072,0.37316 -0.37506,0.89925 -0.27388,0.53298 -0.63192,0.93987 -0.3516,0.39955 -0.69268,0.63926 -0.341,0.23977 -0.71845,0.3434 -0.4082,0.1091 -0.77681,0.0254 -0.36862,-0.0837 -0.70219,-0.37725 -0.45454,-0.39998 -0.51158,-1.02255 -0.0566,-0.61567 0.23927,-1.1293 l -0.0514,-0.0452 q -0.18418,0.15012 -0.47945,0.29356 -0.29163,0.14662 -0.56963,0.18167 z" />
    <path
       style="fill:#e5e5e5;fill-opacity:1;stroke:#000000;stroke-width:0.06614583;stroke-linecap:butt;stroke-linejoin:bevel;stroke-dasharray:none;stroke-opacity:1"
       inkscape:connector-curvature="0"
       id="path10898"
       d="m 221.50676,10.261547 8.46524,-5.3258029 50.67563,77.8087829 -8.29377,5.589078 z m 108.46871,198.370063 -1.959,9.8075 -38.80801,-7.11973 1.64998,-9.86419 z m -57.62161,-120.298005 5.99413,-8.005924 55.03792,39.873949 -5.7397,8.19027 z m -107.15047,-14.089187 -7.40345,-6.724099 56.09581,-63.7470089 7.61101,6.4882369 z m 94.08775,102.096542 -7.70193,6.38002 -25.33304,-29.62218 7.49774,-6.6188 z m 31.5673,25.11423 -6.34875,7.72775 -31.32145,-24.91864 6.1029,-7.92334 z M 233.75391,146.48 226.3921,153.24967 158.05786,81.242 l 7.14553,-6.997582 z m 93.8923,-18.0881 10.00034,-0.13315 2.32016,79.92567 -9.99124,0.44719 z"
       class="sticker" />
    <path
       inkscape:connector-curvature="0"
       id="path994"
       style="font-style:normal;font-size:medium;text-anchor:middle;fill:none;fill-opacity:1;stroke:#000000;stroke-width:0.06614583;stroke-linecap:butt;stroke-linejoin:bevel;stroke-dasharray:none;stroke-opacity:1"
       d="m 248.62167,45.222329 -0.53002,-0.81381 -1.54293,1.004884 -0.46047,-0.707022 1.54292,-1.004884 -1.70998,-2.625554 0.84696,-0.551606 4.82239,0.640451 0.44128,0.677559 -3.35098,2.182443 0.53002,0.81381 z m -0.40131,-1.904561 2.47458,-1.611649 -3.85839,-0.513095 z" />
    <path
       inkscape:connector-curvature="0"
       id="path996"
       style="font-style:normal;font-size:medium;text-anchor:middle;fill:none;fill-opacity:1;stroke:#000000;stroke-width:0.06614583;stroke-linecap:butt;stroke-linejoin:bevel;stroke-dasharray:none;stroke-opacity:1"
       d="m 251.78773,46.757967 -0.57319,-0.880092 1.04949,-0.683517 0.57319,0.880092 z m -3.06376,1.995378 -0.57319,-0.880093 1.04949,-0.683517 0.57319,0.880092 z" />
    <path
       inkscape:connector-curvature="0"
       id="path998"
       style="font-style:normal;font-size:medium;text-anchor:middle;fill:none;fill-opacity:1;stroke:#000000;stroke-width:0.06614583;stroke-linecap:butt;stroke-linejoin:bevel;stroke-dasharray:none;stroke-opacity:1"
       d="m 254.07278,53.157292 q -0.38297,0.249421 -0.82393,0.33732 -0.44097,0.08791 -0.83862,7.61e-4 -0.43044,-0.09725 -0.8102,-0.374359 -0.37368,-0.275813 -0.68786,-0.758213 -0.29259,-0.449251 -0.46785,-0.927718 -0.17895,-0.476066 -0.23345,-0.849641 l 0.77699,-0.506036 0.0336,0.05153 q 0.005,0.426664 0.13274,0.920468 0.13124,0.491394 0.38546,0.881729 0.17029,0.261457 0.40222,0.456518 0.23435,0.198755 0.54317,0.270325 0.26387,0.0589 0.53757,-0.004 0.27611,-0.0592 0.56702,-0.248662 0.28355,-0.184669 0.41395,-0.41121 0.13282,-0.222845 0.13794,-0.472672 0.0152,-0.282614 -0.10941,-0.59477 -0.11857,-0.310868 -0.33921,-0.649644 -0.21105,-0.324052 -0.45187,-0.597247 -0.23842,-0.269517 -0.42413,-0.457988 l 2.8244,-1.839485 2.14886,3.299435 -0.64441,0.419699 -1.686,-2.588726 -1.45824,0.949726 q 0.11787,0.148734 0.23317,0.309636 0.11547,0.160802 0.19461,0.282322 0.2902,0.445572 0.4311,0.831041 0.14458,0.383068 0.13538,0.787638 -0.0107,0.426497 -0.22551,0.797172 -0.21485,0.370681 -0.69724,0.684855 z" />
    <path
       inkscape:connector-curvature="0"
       id="path1001"
       style="font-style:normal;font-size:medium;text-anchor:middle;fill:none;fill-opacity:1;stroke:#000000;stroke-width:0.06614583;stroke-linecap:butt;stroke-linejoin:bevel;stroke-dasharray:none;stroke-opacity:1"
       d="m 315.87559,207.87478 3.48384,0.63915 -0.12053,0.657 -1.33995,-0.24582 -0.7914,4.31374 1.33995,0.24583 -0.10785,0.58785 q -0.27231,-0.05 -0.59145,-0.0638 -0.31994,-0.01 -0.49573,0.0476 -0.21866,0.0716 -0.36117,0.21522 -0.14763,0.14716 -0.21646,0.42494 l -0.66998,-0.12291 1.06419,-5.80065 -1.314,-0.24107 z" />
    <path
       inkscape:connector-curvature="0"
       id="path1003"
       style="font-style:normal;font-size:medium;text-anchor:middle;fill:none;fill-opacity:1;stroke:#000000;stroke-width:0.06614583;stroke-linecap:butt;stroke-linejoin:bevel;stroke-dasharray:none;stroke-opacity:1"
       d="m 311.73629,210.83265 1.03305,0.18953 -0.226,1.23188 -1.03305,-0.18952 z m 0.65977,-3.59623 1.03305,0.18953 -0.226,1.23188 -1.03305,-0.18952 z" />
    <path
       inkscape:connector-curvature="0"
       id="path1005"
       style="font-style:normal;font-size:medium;text-anchor:middle;fill:none;fill-opacity:1;stroke:#000000;stroke-width:0.06614583;stroke-linecap:butt;stroke-linejoin:bevel;stroke-dasharray:none;stroke-opacity:1"
       d="m 306.21071,206.10166 3.48386,0.63915 -0.12054,0.657 -1.33994,-0.24583 -0.79141,4.31375 1.33995,0.24583 -0.10785,0.58784 q -0.27231,-0.05 -0.59146,-0.0638 -0.31993,-0.01 -0.49572,0.0476 -0.21865,0.0716 -0.36117,0.21521 -0.14763,0.14716 -0.21647,0.42495 l -0.66996,-0.12292 1.06419,-5.80065 -1.31401,-0.24107 z" />
    <path
       inkscape:connector-curvature="0"
       id="path1007"
       style="font-style:normal;font-size:medium;text-anchor:middle;fill:none;fill-opacity:1;stroke:#000000;stroke-width:0.06614583;stroke-linecap:butt;stroke-linejoin:bevel;stroke-dasharray:none;stroke-opacity:1"
       d="m 299.62478,208.22196 q 0.31799,-1.73328 1.01169,-2.44597 0.6886,-0.70916 1.8297,-0.49982 1.15841,0.21253 1.54371,1.13211 0.38099,0.91879 0.0685,2.62182 -0.31481,1.71599 -1.00499,2.43379 -0.69097,0.72213 -1.8364,0.51199 -1.1584,-0.21252 -1.53701,-1.14428 -0.38372,-0.92823 -0.0752,-2.60964 z m 1.49681,-1.75381 q -0.21552,0.32236 -0.35382,0.78399 -0.14339,0.46516 -0.26551,1.1308 -0.12054,0.65701 -0.15319,1.15142 -0.037,0.49362 0.0568,0.85932 0.0902,0.36058 0.32297,0.57752 0.22841,0.21615 0.63904,0.29149 0.40631,0.0745 0.70522,-0.0449 0.2946,-0.1202 0.51285,-0.43312 0.20564,-0.2929 0.35619,-0.79695 0.14621,-0.50486 0.25881,-1.11864 0.12371,-0.67429 0.15946,-1.13686 0.0358,-0.46256 -0.0541,-0.84988 -0.0808,-0.36331 -0.30762,-0.58811 -0.23115,-0.22559 -0.66339,-0.30489 -0.4063,-0.0745 -0.70522,0.0449 -0.29892,0.1194 -0.50852,0.43391 z" />
    <path
       inkscape:connector-curvature="0"
       id="path1010"
       style="font-style:normal;font-size:medium;text-anchor:middle;fill:none;fill-opacity:1;stroke:#000000;stroke-width:0.06614583;stroke-linecap:butt;stroke-linejoin:bevel;stroke-dasharray:none;stroke-opacity:1"
       d="m 298.79475,102.9931 -0.78648,-0.56979 -1.08028,1.49111 -0.68328,-0.49502 1.08028,-1.49111 -2.53738,-1.83828 0.593,-0.818516 4.73157,-1.130424 0.6548,0.474393 -2.34619,3.238447 0.78648,0.56979 z m -1.05724,-1.63421 1.73257,-2.391467 -3.78596,0.903821 z" />
    <path
       inkscape:connector-curvature="0"
       id="path1012"
       style="font-style:normal;font-size:medium;text-anchor:middle;fill:none;fill-opacity:1;stroke:#000000;stroke-width:0.06614583;stroke-linecap:butt;stroke-linejoin:bevel;stroke-dasharray:none;stroke-opacity:1"
       d="m 302.30085,103.29202 -0.85053,-0.6162 0.7348,-1.01425 0.85053,0.6162 z m -2.14509,2.96086 -0.85054,-0.61619 0.73481,-1.01425 0.85053,0.6162 z" />
    <path
       inkscape:connector-curvature="0"
       id="path1014"
       style="font-style:normal;font-size:medium;text-anchor:middle;fill:none;fill-opacity:1;stroke:#000000;stroke-width:0.06614583;stroke-linecap:butt;stroke-linejoin:bevel;stroke-dasharray:none;stroke-opacity:1"
       d="m 306.87439,108.49934 q -0.58526,0.80784 -1.49034,0.93356 -0.89894,0.12474 -1.67119,-0.43474 -0.39146,-0.28361 -0.62408,-0.63665 -0.23263,-0.35303 -0.30544,-0.76937 -0.0921,-0.5171 0.0939,-1.12582 0.18951,-0.60615 0.68712,-1.29299 0.51048,-0.70462 1.05442,-1.14083 0.5475,-0.43362 1.18527,-0.61733 0.60451,-0.17525 1.26161,-0.0411 0.65967,0.13061 1.31804,0.60759 0.20996,0.15211 0.3394,0.27306 0.12944,0.12094 0.24185,0.27289 l -0.49244,0.67971 -0.0356,-0.0258 q -0.061,-0.12555 -0.2303,-0.3188 -0.16321,-0.19418 -0.37318,-0.3463 -0.76513,-0.55432 -1.56871,-0.40391 -0.801,0.14686 -1.46615,0.90768 0.43042,0.0351 0.78572,0.15138 0.36143,0.11533 0.74221,0.3912 0.33808,0.24493 0.5479,0.49462 0.21596,0.24871 0.34978,0.63328 0.15589,0.44396 0.0727,0.88836 -0.0796,0.44699 -0.42254,0.9203 z m -0.74308,-0.49488 q 0.23978,-0.33096 0.2974,-0.62023 0.0612,-0.28669 -0.047,-0.60927 -0.0812,-0.23248 -0.2547,-0.41245 -0.17353,-0.17993 -0.39061,-0.3372 -0.30249,-0.21915 -0.61386,-0.33618 -0.31135,-0.11703 -0.69365,-0.16609 -0.064,0.073 -0.12156,0.14528 -0.0548,0.0688 -0.13472,0.17915 -0.40736,0.56228 -0.53069,0.97218 -0.11718,0.40893 -0.051,0.7445 0.0503,0.27519 0.18473,0.48657 0.14059,0.2104 0.3648,0.37284 0.51602,0.37384 1.03827,0.27466 0.52484,-0.10273 0.95283,-0.69348 z" />
    <path
       inkscape:connector-curvature="0"
       id="path1016"
       style="font-style:normal;font-size:medium;text-anchor:middle;fill:none;fill-opacity:1;stroke:#000000;stroke-width:0.06614583;stroke-linecap:butt;stroke-linejoin:bevel;stroke-dasharray:none;stroke-opacity:1"
       d="m 307.78213,111.77804 -0.85053,-0.61619 0.7348,-1.01425 0.85053,0.6162 z" />
    <path
       class="arrow"
       d="m 193.35507,42.252983 14.1134,-0.90105 -12.23659,2.552594 -0.97576,12.461858 z"
       id="path10914"
       inkscape:connector-curvature="0"
       style="fill:#000000;stroke:#000000;stroke-width:0.0661458;stroke-linecap:butt;stroke-linejoin:bevel;stroke-dasharray:none;stroke-opacity:1" />
    <path
       d="m 195.71519,47.13962 2.59989,-2.954504 0.55718,0.490302 -0.99996,1.136347 3.65831,3.219221 0.99996,-1.136348 0.49852,0.438692 q -0.20322,0.230935 -0.39881,0.527117 -0.19192,0.299409 -0.23796,0.499551 -0.0567,0.249261 -0.001,0.467143 0.0559,0.224773 0.28123,0.449105 l -0.49998,0.568173 -4.91929,-4.328851 -0.9806,1.114354 z"
       style="font-style:normal;font-size:medium;text-anchor:middle;fill:none;fill-opacity:1;stroke:#000000;stroke-width:0.06614583;stroke-linecap:butt;stroke-linejoin:bevel;stroke-dasharray:none;stroke-opacity:1"
       id="path1019"
       inkscape:connector-curvature="0" />
    <path
       inkscape:connector-curvature="0"
       id="path1022"
       style="font-style:normal;font-size:medium;text-anchor:middle;fill:none;fill-opacity:1;stroke:#000000;stroke-width:0.06614583;stroke-linecap:butt;stroke-linejoin:bevel;stroke-dasharray:none;stroke-opacity:1"
       d="m 186.42182,41.859296 q 0.64332,0.56611 1.03723,1.176166 0.39681,0.606753 0.50504,1.228813 0.1119,0.631171 -0.0813,1.263135 -0.19319,0.631965 -0.73026,1.242295 -0.15096,0.171547 -0.30432,0.305866 -0.15006,0.137225 -0.29414,0.221174 l -0.63012,-0.554496 0.029,-0.03296 q 0.13367,-0.05214 0.33374,-0.186335 0.19673,-0.13713 0.38543,-0.351566 0.64158,-0.729094 0.569,-1.524686 -0.073,-0.8018 -0.78361,-1.5442 -0.0852,0.469384 -0.24411,0.809582 -0.15889,0.340206 -0.44048,0.660209 -0.26709,0.303517 -0.5442,0.498693 -0.27422,0.19188 -0.66351,0.288346 -0.45672,0.113228 -0.89746,-0.0112 -0.43786,-0.127735 -0.87003,-0.508039 -0.75219,-0.661906 -0.78849,-1.571912 -0.0363,-0.910007 0.59077,-1.622608 0.31353,-0.3563 0.69279,-0.561115 0.37595,-0.207706 0.79731,-0.240836 0.52058,-0.03946 1.0863,0.189089 0.56243,0.225646 1.24533,0.826583 z m -0.72829,0.541586 q -0.51136,-0.44998 -0.91437,-0.617308 -0.40302,-0.16732 -0.73714,-0.133532 -0.2849,0.02441 -0.50435,0.147409 -0.22275,0.120078 -0.40565,0.327923 -0.41805,0.475065 -0.36499,1.013468 0.0559,0.5351 0.5937,1.008307 0.31341,0.275795 0.58974,0.360907 0.27634,0.08511 0.61059,0.0046 0.23291,-0.05846 0.42596,-0.204672 0.18973,-0.149153 0.38134,-0.366892 0.22644,-0.257325 0.38939,-0.582225 0.16296,-0.324906 0.23422,-0.671953 -0.0667,-0.06398 -0.12931,-0.12578 -0.0633,-0.06773 -0.16891,-0.160621 z" />
    <path
       inkscape:connector-curvature="0"
       id="path1024"
       style="font-style:normal;font-size:medium;text-anchor:middle;fill:none;fill-opacity:1;stroke:#000000;stroke-width:0.06614583;stroke-linecap:butt;stroke-linejoin:bevel;stroke-dasharray:none;stroke-opacity:1"
       d="m 190.9993,42.205368 -0.69385,0.788484 -0.94024,-0.827384 0.69385,-0.788483 z" />
    <path
       inkscape:connector-curvature="0"
       id="path1026"
       style="font-style:normal;font-size:medium;text-anchor:middle;fill:none;fill-opacity:1;stroke:#000000;stroke-width:0.06614583;stroke-linecap:butt;stroke-linejoin:bevel;stroke-dasharray:none;stroke-opacity:1"
       d="m 190.68436,37.028662 -0.69384,0.788477 -0.94023,-0.827384 0.69384,-0.788476 z m 2.74483,2.415384 -0.69384,0.788476 -0.94023,-0.827384 0.69384,-0.788476 z" />
    <path
       inkscape:connector-curvature="0"
       id="path1028"
       style="font-style:normal;font-size:medium;text-anchor:middle;fill:none;fill-opacity:1;stroke:#000000;stroke-width:0.06614583;stroke-linecap:butt;stroke-linejoin:bevel;stroke-dasharray:none;stroke-opacity:1"
       d="m 197.58353,34.723074 -2.3399,2.659052 -0.50146,-0.441273 0.89997,-1.022717 -3.29248,-2.897297 -0.89996,1.022717 -0.44867,-0.394818 q 0.1829,-0.207845 0.35896,-0.474375 0.17277,-0.269444 0.21417,-0.449599 0.0511,-0.224334 0.001,-0.420427 -0.0503,-0.202298 -0.25311,-0.404193 l 0.44999,-0.511363 4.42735,3.895966 0.88254,-1.002913 z" />
    <path
       inkscape:connector-curvature="0"
       id="path1031"
       style="font-style:normal;font-size:medium;text-anchor:middle;fill:none;fill-opacity:1;stroke:#000000;stroke-width:0.06614583;stroke-linecap:butt;stroke-linejoin:bevel;stroke-dasharray:none;stroke-opacity:1"
       d="m 245.32573,165.97855 q 0.34734,-0.29704 0.77316,-0.44148 0.42582,-0.14442 0.8314,-0.10965 0.43943,0.0405 0.85196,0.26597 0.40634,0.22496 0.7805,0.66248 0.34846,0.40745 0.58437,0.8591 0.23925,0.4488 0.3418,0.81213 l -0.70468,0.60265 -0.04,-0.0467 q -0.0605,-0.42238 -0.25116,-0.89544 -0.19395,-0.4702 -0.4967,-0.82421 -0.20279,-0.23713 -0.4581,-0.40042 -0.25817,-0.16663 -0.57367,-0.19751 -0.26929,-0.0241 -0.5325,0.0738 -0.26608,0.0945 -0.52993,0.32019 -0.25716,0.21992 -0.35705,0.46147 -0.10275,0.23822 -0.0754,0.48659 0.0216,0.2822 0.18573,0.57553 0.15792,0.29283 0.4207,0.60009 0.25134,0.2939 0.5256,0.53351 0.2714,0.23627 0.48002,0.39902 l -2.5616,2.1907 -2.55915,-2.99243 0.58446,-0.49983 2.00788,2.34783 1.32255,-1.13106 q -0.13619,-0.13216 -0.27141,-0.27674 -0.13536,-0.14444 -0.22962,-0.25465 -0.3456,-0.40411 -0.53536,-0.76802 -0.19311,-0.36105 -0.23653,-0.76339 -0.0448,-0.42427 0.12008,-0.81971 0.16489,-0.39544 0.6024,-0.76959 z" />
    <path
       inkscape:connector-curvature="0"
       id="path1033"
       style="font-style:normal;font-size:medium;text-anchor:middle;fill:none;fill-opacity:1;stroke:#000000;stroke-width:0.06614583;stroke-linecap:butt;stroke-linejoin:bevel;stroke-dasharray:none;stroke-opacity:1"
       d="m 242.03603,164.5592 0.68263,0.79821 -0.95183,0.81402 -0.68264,-0.79821 z m 2.77869,-2.37635 0.68263,0.79821 -0.95183,0.81402 -0.68264,-0.79821 z" />
    <path
       inkscape:connector-curvature="0"
       id="path1035"
       style="font-style:normal;font-size:medium;text-anchor:middle;fill:none;fill-opacity:1;stroke:#000000;stroke-width:0.06614583;stroke-linecap:butt;stroke-linejoin:bevel;stroke-dasharray:none;stroke-opacity:1"
       d="m 238.46428,159.60516 q 0.007,-0.28312 0.13505,-0.57231 0.12855,-0.28919 0.47254,-0.58337 0.34066,-0.29133 0.73022,-0.41054 0.38956,-0.1192 0.79133,-0.0754 0.448,0.0506 0.85288,0.29409 0.39869,0.24307 0.74429,0.64718 0.35417,0.41413 0.59671,0.90059 0.2459,0.48361 0.34893,0.84074 l -0.69801,0.59694 -0.0428,-0.0501 q -0.0558,-0.44383 -0.26064,-0.93359 -0.20489,-0.48974 -0.5105,-0.8471 -0.17995,-0.21041 -0.45288,-0.38754 -0.27294,-0.17713 -0.53553,-0.20699 -0.27833,-0.028 -0.51818,0.0499 -0.2427,0.0746 -0.51323,0.30591 -0.26718,0.22849 -0.36659,0.46385 -0.10559,0.23488 -0.0773,0.47085 0.025,0.23883 0.17106,0.48399 0.14274,0.248 0.3541,0.49514 l 0.25706,0.30059 -0.5544,0.47412 -0.19994,-0.23378 q -0.43414,-0.50765 -0.90161,-0.62829 -0.47365,-0.12112 -0.8811,0.22733 -0.18035,0.15423 -0.24825,0.34529 -0.0712,0.19393 -0.041,0.40512 0.036,0.21787 0.14254,0.41008 0.10659,0.19218 0.28367,0.39924 0.27134,0.31728 0.69051,0.57753 0.41916,0.26024 0.89757,0.40044 l 0.0285,0.0334 -0.698,0.59694 q -0.31969,-0.13716 -0.75357,-0.44843 -0.44008,-0.31174 -0.75712,-0.68246 -0.31132,-0.36403 -0.48159,-0.69836 -0.17025,-0.33433 -0.21468,-0.68376 -0.0453,-0.37756 0.0761,-0.69536 0.12141,-0.31779 0.42534,-0.5777 0.41413,-0.35417 0.97607,-0.32589 0.55575,0.0278 0.97579,0.35667 l 0.0467,-0.04 q -0.11034,-0.18318 -0.20063,-0.46448 -0.0936,-0.27848 -0.0895,-0.53062 z" />
    <path
       inkscape:connector-curvature="0"
       id="path1038"
       style="font-style:normal;font-size:medium;text-anchor:middle;fill:none;fill-opacity:1;stroke:#000000;stroke-width:0.06614583;stroke-linecap:butt;stroke-linejoin:bevel;stroke-dasharray:none;stroke-opacity:1"
       d="m 278.55545,193.96743 2.77179,2.20518 -0.41586,0.52272 -1.06608,-0.84814 -2.73048,3.43208 1.06607,0.84814 -0.37209,0.4677 q -0.21665,-0.17236 -0.49159,-0.335 -0.27768,-0.15919 -0.45966,-0.19161 -0.22659,-0.0399 -0.41997,0.0197 -0.19956,0.0602 -0.39115,0.27283 l -0.53304,-0.42407 3.67166,-4.61508 -1.04545,-0.83173 z" />
    <path
       inkscape:connector-curvature="0"
       id="path1040"
       style="font-style:normal;font-size:medium;text-anchor:middle;fill:none;fill-opacity:1;stroke:#000000;stroke-width:0.06614583;stroke-linecap:butt;stroke-linejoin:bevel;stroke-dasharray:none;stroke-opacity:1"
       d="m 273.51076,194.62619 0.82191,0.65389 -0.77974,0.98011 -0.82191,-0.6539 z m 2.27632,-2.86121 0.82191,0.65389 -0.77975,0.9801 -0.8219,-0.65389 z" />
    <path
       inkscape:connector-curvature="0"
       id="path1042"
       style="font-style:normal;font-size:medium;text-anchor:middle;fill:none;fill-opacity:1;stroke:#000000;stroke-width:0.06614583;stroke-linecap:butt;stroke-linejoin:bevel;stroke-dasharray:none;stroke-opacity:1"
       d="m 270.86594,187.84982 2.7718,2.20519 -0.41587,0.52272 -1.06607,-0.84815 -2.73049,3.43208 1.06607,0.84815 -0.37209,0.4677 q -0.21666,-0.17237 -0.49159,-0.335 -0.27768,-0.1592 -0.45966,-0.19162 -0.22659,-0.0399 -0.41997,0.0197 -0.19956,0.0602 -0.39115,0.27283 l -0.53304,-0.42407 3.67166,-4.61508 -1.04544,-0.83174 z" />
    <path
       inkscape:connector-curvature="0"
       id="path1044"
       style="font-style:normal;font-size:medium;text-anchor:middle;fill:none;fill-opacity:1;stroke:#000000;stroke-width:0.06614583;stroke-linecap:butt;stroke-linejoin:bevel;stroke-dasharray:none;stroke-opacity:1"
       d="m 266.08922,184.04957 3.46647,2.75785 -0.57182,0.71875 q -0.60732,0.0222 -1.21465,0.0445 -0.61076,0.0195 -1.1672,0.0766 -1.16918,0.11435 -1.71156,0.29494 -0.54513,0.18403 -0.8926,0.62078 -0.31737,0.39892 -0.23041,0.83312 0.0808,0.4349 0.55194,0.80973 0.31294,0.24897 0.76502,0.42894 0.45208,0.17996 0.97999,0.22933 l 0.0344,0.0273 -0.57455,0.72218 q -0.33992,-0.0739 -0.82506,-0.297 -0.48858,-0.22585 -0.87031,-0.52955 -0.78751,-0.62652 -0.93089,-1.36392 -0.14611,-0.73396 0.37099,-1.38393 0.23255,-0.29231 0.51069,-0.48659 0.27196,-0.19358 0.59695,-0.30565 0.30375,-0.10651 0.65017,-0.16784 0.34299,-0.0641 0.80064,-0.10992 0.65524,-0.0683 1.31814,-0.0969 0.66016,-0.0251 1.23044,-0.0431 l -2.75461,-2.1915 z" />
    <path
       inkscape:connector-curvature="0"
       id="path1047"
       style="font-style:normal;font-size:medium;text-anchor:middle;fill:none;fill-opacity:1;stroke:#000000;stroke-width:0.06614583;stroke-linecap:butt;stroke-linejoin:bevel;stroke-dasharray:none;stroke-opacity:1"
       d="m 198.51944,114.98623 q 0.33152,-0.3146 0.74929,-0.48085 0.41779,-0.16624 0.82463,-0.15248 0.44094,0.0177 0.86457,0.22158 0.41742,0.20364 0.8137,0.62122 0.36906,0.3889 0.628,0.82775 0.26214,0.43583 0.38334,0.79337 l -0.67259,0.63828 -0.0423,-0.0446 q -0.0823,-0.41869 -0.2971,-0.88125 -0.21799,-0.45954 -0.53864,-0.79743 -0.21479,-0.22633 -0.4782,-0.37621 -0.26643,-0.15306 -0.58311,-0.16757 -0.27017,-0.0102 -0.52798,0.10119 -0.26084,0.10818 -0.51266,0.34716 -0.24545,0.23293 -0.33272,0.47932 -0.0903,0.24321 -0.0501,0.48983 0.0362,0.2807 0.21523,0.56516 0.17286,0.28428 0.45116,0.57754 0.26621,0.28051 0.55248,0.50562 0.28326,0.22192 0.50002,0.37367 l -2.44493,2.3202 -2.71043,-2.85613 0.55784,-0.52938 2.1266,2.24091 1.2623,-1.19791 q -0.14284,-0.12495 -0.28535,-0.26234 -0.14265,-0.13725 -0.24248,-0.24244 -0.36603,-0.38571 -0.57435,-0.73932 -0.21152,-0.35058 -0.27567,-0.75014 -0.0667,-0.42139 0.0775,-0.82482 0.14422,-0.40343 0.5618,-0.79972 z" />
    <path
       inkscape:connector-curvature="0"
       id="path1049"
       style="font-style:normal;font-size:medium;text-anchor:middle;fill:none;fill-opacity:1;stroke:#000000;stroke-width:0.06614583;stroke-linecap:butt;stroke-linejoin:bevel;stroke-dasharray:none;stroke-opacity:1"
       d="m 195.16076,113.73887 0.72298,0.76184 -0.90848,0.86214 -0.72298,-0.76185 z m 2.65212,-2.51683 0.72298,0.76185 -0.90848,0.86213 -0.72298,-0.76184 z" />
    <path
       inkscape:connector-curvature="0"
       id="path1051"
       style="font-style:normal;font-size:medium;text-anchor:middle;fill:none;fill-opacity:1;stroke:#000000;stroke-width:0.06614583;stroke-linecap:butt;stroke-linejoin:bevel;stroke-dasharray:none;stroke-opacity:1"
       d="m 191.78845,107.54867 0.66853,0.70447 1.33563,-1.26749 0.58081,0.61203 -1.33563,1.26749 2.15685,2.27279 -0.73316,0.69576 -4.85867,0.24274 -0.55661,-0.58653 2.90076,-2.75279 -0.66853,-0.70447 z m 0.73932,1.8005 -2.1421,2.03283 3.88755,-0.19355 z" />
    <path
       inkscape:connector-curvature="0"
       id="path1054"
       style="font-style:normal;font-size:medium;text-anchor:middle;fill:none;fill-opacity:1;stroke:#000000;stroke-width:0.06614583;stroke-linecap:butt;stroke-linejoin:bevel;stroke-dasharray:none;stroke-opacity:1"
       d="m 332.31045,164.1811 q -0.8478,0.0246 -1.42931,-0.62236 -0.58139,-0.64258 -0.61047,-1.64412 -0.0309,-1.06302 0.49987,-1.71151 0.53085,-0.6441 1.38742,-0.66896 0.54469,-0.0158 0.99315,0.28771 0.45283,0.3034 0.72871,0.87131 l 0.0264,-7.6e-4 q 0.26583,-0.53528 0.59227,-0.79976 0.32658,-0.26006 0.82734,-0.2746 0.73797,-0.0214 1.24755,0.57048 0.50958,0.59191 0.53674,1.52755 0.0284,0.97957 -0.42463,1.57744 -0.45305,0.59787 -1.17784,0.61891 -0.44367,0.0129 -0.88218,-0.25136 -0.43412,-0.26437 -0.69128,-0.79327 l -0.0264,7.7e-4 q -0.2457,0.62263 -0.62282,0.95891 -0.37712,0.33628 -0.97452,0.35362 z m 3.16325,-1.13377 q 0.47002,-0.0136 0.73617,-0.38627 0.27068,-0.36836 0.25436,-0.93062 -0.0161,-0.55348 -0.28996,-0.90164 -0.27376,-0.34376 -0.72181,-0.33076 -0.31628,0.009 -0.54399,0.19165 -0.22318,0.18673 -0.39283,0.55216 -0.0743,0.16482 -0.19294,0.47162 -0.11846,0.31118 -0.19351,0.60352 0.30254,0.42646 0.61927,0.58433 0.31672,0.15787 0.72524,0.14601 z m -3.27299,0.2313 q 0.40413,-0.0117 0.6405,-0.19885 0.24089,-0.18284 0.47184,-0.70832 0.0907,-0.20926 0.16696,-0.45767 0.0763,-0.24842 0.21381,-0.66127 -0.22671,-0.3891 -0.60271,-0.61998 -0.37587,-0.2265 -0.8415,-0.21298 -0.59301,0.0172 -0.9677,0.43696 -0.3747,0.41974 -0.35647,1.04789 0.0186,0.64133 0.35916,1.01393 0.34068,0.37699 0.91611,0.36029 z" />
    <path
       inkscape:connector-curvature="0"
       id="path1056"
       style="font-style:normal;font-size:medium;text-anchor:middle;fill:none;fill-opacity:1;stroke:#000000;stroke-width:0.06614583;stroke-linecap:butt;stroke-linejoin:bevel;stroke-dasharray:none;stroke-opacity:1"
       d="m 334.2326,167.24234 -0.0305,-1.04986 1.25191,-0.0363 0.0305,1.04985 z m -3.65471,0.10609 -0.0305,-1.04985 1.25191,-0.0363 0.0305,1.04986 z" />
    <path
       inkscape:connector-curvature="0"
       id="path1058"
       style="font-style:normal;font-size:medium;text-anchor:middle;fill:none;fill-opacity:1;stroke:#000000;stroke-width:0.06614583;stroke-linecap:butt;stroke-linejoin:bevel;stroke-dasharray:none;stroke-opacity:1"
       d="m 332.89567,174.04278 q -0.99714,0.0289 -1.64881,-0.61159 -0.64715,-0.63628 -0.67482,-1.58949 -0.014,-0.48319 0.12384,-0.88287 0.13788,-0.39968 0.42339,-0.71132 0.35363,-0.38835 0.94943,-0.61228 0.59594,-0.21953 1.44372,-0.24414 0.86975,-0.0252 1.54718,0.13974 0.67757,0.16937 1.21215,0.56272 0.5076,0.37214 0.80206,0.97469 0.29886,0.60242 0.32245,1.41507 0.008,0.25917 -0.009,0.43551 -0.0169,0.17635 -0.0687,0.35811 l -0.839,0.0243 -10e-4,-0.0439 q 0.0623,-0.12491 0.11216,-0.37695 0.0543,-0.24777 0.0468,-0.50694 -0.0274,-0.94443 -0.63675,-1.48948 -0.60494,-0.54517 -1.61353,-0.60822 0.23473,0.36248 0.35927,0.71498 0.12906,0.35675 0.1427,0.82677 0.0121,0.4173 -0.0578,0.73587 -0.0654,0.32284 -0.28849,0.66344 -0.25674,0.39433 -0.65964,0.59947 -0.40278,0.20953 -0.98701,0.22649 z m -0.0611,-0.89069 q 0.40852,-0.0119 0.67291,-0.14263 0.26451,-0.12639 0.45415,-0.40886 0.13469,-0.20615 0.17148,-0.45341 0.0367,-0.24726 0.029,-0.51522 -0.0108,-0.37338 -0.10801,-0.69149 -0.0972,-0.31812 -0.29147,-0.651 -0.0969,-0.006 -0.18926,-0.008 -0.088,-0.002 -0.22415,0.002 -0.69405,0.0201 -1.0941,0.17244 -0.39553,0.15656 -0.62107,0.4137 -0.18741,0.20768 -0.27289,0.44317 -0.081,0.23975 -0.073,0.51649 0.0185,0.63694 0.41563,0.99031 0.40153,0.35324 1.13071,0.33208 z" />
    <path
       inkscape:connector-curvature="0"
       id="path1060"
       style="font-style:normal;font-size:medium;text-anchor:middle;fill:none;fill-opacity:1;stroke:#000000;stroke-width:0.06614583;stroke-linecap:butt;stroke-linejoin:bevel;stroke-dasharray:none;stroke-opacity:1"
       d="m 330.85115,176.76194 -0.0305,-1.04985 1.25191,-0.0363 0.0305,1.04985 z" />
  </g>
</svg>
