<?xml version="1.0" encoding="UTF-8" standalone="no"?>
<svg
   version="1.1"
   width="320.00mm"
   height="620.00mm"
   viewBox="0 0 320.00 620.00"
   id="svg4782"
   sodipodi:docname="backrest_page9_12x11.svg"
   inkscape:version="1.1.1 (c3084ef, 2021-09-22)"
   xmlns:inkscape="http://www.inkscape.org/namespaces/inkscape"
   xmlns:sodipodi="http://sodipodi.sourceforge.net/DTD/sodipodi-0.dtd"
   xmlns="http://www.w3.org/2000/svg"
   xmlns:svg="http://www.w3.org/2000/svg">
  <defs
     id="defs4786" />
  <sodipodi:namedview
     id="namedview4784"
     pagecolor="#ffffff"
     bordercolor="#666666"
     borderopacity="1.0"
     inkscape:pageshadow="2"
     inkscape:pageopacity="0.0"
     inkscape:pagecheckerboard="0"
     inkscape:document-units="mm"
     showgrid="false"
     inkscape:zoom="0.33926411"
     inkscape:cx="257.91116"
     inkscape:cy="1112.7024"
     inkscape:window-width="1296"
     inkscape:window-height="975"
     inkscape:window-x="0"
     inkscape:window-y="25"
     inkscape:window-maximized="0"
     inkscape:current-layer="svg4782" />
  <style
     type="text/css"
     id="style4734">
    path {
        fill: none;
        stroke-linecap: butt;
        stroke-linejoin: bevel;
        stroke-dasharray: none;
    }
    path.outer {
        stroke: #000000;
        stroke-dasharray: none;
        stroke-dashoffset: 0;
        stroke-width: 0.3;
        stroke-opacity: 1.0;
    }
    path.convex {
        stroke: #000000;
        stroke-dasharray: 0.50,1.00;
        stroke-dashoffset:0;
        stroke-width:0.2;
        stroke-opacity: 1.0
    }
    path.concave {
        stroke: #000000;
        stroke-dasharray: 1.00,0.50,0.20,0.50;
        stroke-dashoffset: 0;
        stroke-width: 0.2;
        stroke-opacity: 1.0
    }
    path.freestyle {
        stroke: #000000;
        stroke-dasharray: none;
        stroke-dashoffset: 0;
        stroke-width: 0.2;
        stroke-opacity: 1.0
    }
    path.outer_background {
        stroke: #ffffff;
        stroke-opacity: 1.0;
        stroke-width: 0.5
    }
    path.inner_background {
        stroke: #ffffff;
        stroke-opacity: 1.0;
        stroke-width: 0.2
    }
    path.sticker {
        fill: #e5e5e5;
        stroke: none;
        fill-opacity: 1.0;
    }
    path.arrow {
        fill: #000000;
    }
    text {
        font-style: normal;
        fill: #000000;
        fill-opacity: 1.0;
        stroke: none;
    }
    text, tspan {
        text-anchor:middle;
    }
    </style>
  <g
     id="g6938"
     transform="rotate(-58.230563,-148.85409,215.2973)">
    <text
       style="font-size:10px"
       id="text6715"
       x="98.703331"
       y="375.56717"><tspan
         id="tspan6713">[6.] I 6</tspan></text>
    <path
       class="sticker"
       d="M 32.891288,363.64409 24.121121,368.45127 3e-5,326.0394 8.614868,320.95912 Z m -2.9e-5,75.87192 -10.000006,-0.15709 3e-5,-75.55774 10.000005,-0.15709 z m 44.677198,-159.65575 6.80232,-6.36286 12.733012,13.1909 -6.599105,6.57338 z m 100.398153,85.37611 9.53199,-3.0275 9.34026,27.88176 -9.4322,3.32542 z m -28.23173,-23.64683 6.54154,-7.56523 27.99088,23.44507 -6.30069,7.76699 z m 37.67178,51.82651 10,0.1571 -3e-5,45.78584 -9.99999,0.15709 z m -74.78479,-51.82654 0.15709,-9.99999 36.79884,3e-5 0.15708,9.99999 z m -22.117186,-48.32783 9.15838,-4.01858 21.986436,48.04218 -9.02763,4.30423 z m -81.889816,27.69744 -4.98496,-8.67033 66.983633,-39.92471 6.954916,7.49618 z m -3e-5,237.11374 L 0,552.99258 l 24.121091,-42.41183 8.770168,4.80717 z m 24.276421,-42.68494 -10.000006,-0.15709 v -75.55772 l 10.000006,-0.1571 z m 57.613313,70.38245 6.599083,6.57338 -12.73302,13.19086 -6.802305,-6.36285 z m 96.902058,-100.15425 9.43218,3.32541 -9.34027,27.88176 -9.53199,-3.0275 z m -9.44008,28.17967 6.30067,7.76699 -27.99089,23.44505 -6.54154,-7.56524 z m 9.44009,-74.27971 9.99999,0.15709 -1e-5,45.78586 -9.99999,0.15709 z m -37.67185,97.92651 -0.1571,9.99999 -36.79882,-5e-5 -0.15708,-9.99999 z m -37.113,-5e-5 9.02762,4.30426 -21.986465,48.04214 -9.158373,-4.01857 z m -35.05346,61.72922 -6.954938,7.49612 -66.983514,-39.92468 4.98496,-8.67034 z"
       id="path6717" />
    <path
       class="outer"
       d="m 84.370777,273.4974 12.733012,13.1909 -6.599105,6.57338 9.15838,-4.01858 21.986436,48.04218 -9.02763,4.30423 0.15709,-9.99999 36.79884,3e-5 0.15708,9.99999 6.54154,-7.56523 27.99088,23.44507 -6.30069,7.76699 9.53199,-3.0275 9.34026,27.88176 -9.4322,3.32542 10,0.1571 -3e-5,45.78584 -9.99999,0.15709 9.99999,0.15709 -1e-5,45.78586 -9.99999,0.15709 9.43218,3.32541 -9.34027,27.88176 -9.53199,-3.0275 6.30067,7.76699 -27.99089,23.44505 -6.54154,-7.56524 -0.1571,9.99999 -36.79882,-5e-5 -0.15708,-9.99999 9.02762,4.30426 -21.986465,48.04214 -9.158373,-4.01857 6.599083,6.57338 -12.73302,13.19086 -6.802305,-6.36285 -6.954938,7.49612 L 3.629878,566.7432 8.614838,558.07286 0,552.99258 l 24.121091,-42.41183 8.770168,4.80717 -10.000006,-0.15709 v -75.55772 l 10.000006,-0.1571 -10.000006,-0.15709 3e-5,-75.55774 10.000005,-0.15709 -8.770167,4.80718 L 3e-5,326.0394 l 8.614838,-5.08028 -4.98496,-8.67033 66.983633,-39.92471 6.954916,7.49618 z"
       id="path6719" />
    <g
       id="g6727">
      <path
         transform="matrix(-4.943727,-8.6925,8.6925,-4.943727,20.753071,342.30161)"
         class="arrow"
         d="M 0,0 1,1 0,0.25 -1,1 Z"
         id="path6721" />
      <text
         transform="translate(28.576322,341.85225)"
         style="font-size:10px"
         id="text6725"><tspan
           id="tspan6723">1</tspan></text>
    </g>
    <text
       transform="rotate(-119.62841)"
       style="font-size:9px"
       id="text6731"
       x="-307.80539"
       y="-152.98503"><tspan
         id="tspan6729">4:1</tspan></text>
    <g
       id="g6739">
      <path
         transform="matrix(6.94509,7.19484,-7.19484,6.94509,84.036574,286.56095)"
         class="arrow"
         d="M 0,0 1,1 0,0.25 -1,1 Z"
         id="path6733" />
      <text
         transform="translate(77.561215,296.81155)"
         style="font-size:10px"
         id="text6737"><tspan
           id="tspan6735">2</tspan></text>
    </g>
    <text
       transform="rotate(46.011896)"
       style="font-size:8.38px"
       id="text6743"
       x="264.54019"
       y="136.87981"><tspan
         id="tspan6741">1:2</tspan></text>
    <g
       id="g6751">
      <path
         transform="matrix(8.589911,-5.119904,5.119904,8.589911,43.091655,300.40967)"
         class="arrow"
         d="M 0,0 1,1 0,0.25 -1,1 Z"
         id="path6745" />
      <text
         transform="translate(47.699567,312.14061)"
         style="font-size:10px"
         id="text6749"><tspan
           id="tspan6747">3</tspan></text>
    </g>
    <text
       transform="rotate(-30.796486)"
       style="font-size:9px"
       id="text6755"
       x="-116.79163"
       y="278.3118"><tspan
         id="tspan6753">16:3</tspan></text>
    <g
       id="g6763">
      <path
         transform="matrix(4.943729,-8.692499,8.692499,4.943729,20.753041,536.73038)"
         class="arrow"
         d="M 0,0 1,1 0,0.25 -1,1 Z"
         id="path6757" />
      <text
         transform="translate(28.57629,545.17973)"
         style="font-size:10px"
         id="text6761"><tspan
           id="tspan6759">4</tspan></text>
    </g>
    <text
       transform="rotate(-60.37159)"
       style="font-size:9px"
       id="text6767"
       x="-456.29303"
       y="281.58459"><tspan
         id="tspan6765">4:4</tspan></text>
    <g
       id="g6775">
      <path
         transform="matrix(-6.945105,7.194827,-7.194827,-6.945105,84.036455,592.47106)"
         class="arrow"
         d="M 0,0 1,1 0,0.25 -1,1 Z"
         id="path6769" />
      <text
         transform="translate(77.56111,590.22047)"
         style="font-size:10px"
         id="text6773"><tspan
           id="tspan6771">5</tspan></text>
    </g>
    <text
       transform="rotate(133.98819)"
       style="font-size:8.38px"
       id="text6779"
       x="367.90869"
       y="-473.6163"><tspan
         id="tspan6777">1:5</tspan></text>
    <g
       id="g6787">
      <path
         transform="matrix(-8.589909,-5.11991,5.11991,-8.589909,43.09158,578.62231)"
         class="arrow"
         d="M 0,0 1,1 0,0.25 -1,1 Z"
         id="path6781" />
      <text
         transform="translate(47.6995,574.8914)"
         style="font-size:10px"
         id="text6785"><tspan
           id="tspan6783">6.</tspan></text>
    </g>
    <text
       transform="rotate(-149.20347)"
       style="font-size:9px"
       id="text6791"
       x="-333.26462"
       y="-476.76874"><tspan
         id="tspan6789">15:6.</tspan></text>
  </g>
</svg>
