<?xml version="1.0" encoding="UTF-8" standalone="no"?>
<svg
   xmlns:dc="http://purl.org/dc/elements/1.1/"
   xmlns:cc="http://creativecommons.org/ns#"
   xmlns:rdf="http://www.w3.org/1999/02/22-rdf-syntax-ns#"
   xmlns:svg="http://www.w3.org/2000/svg"
   xmlns="http://www.w3.org/2000/svg"
   xmlns:sodipodi="http://sodipodi.sourceforge.net/DTD/sodipodi-0.dtd"
   xmlns:inkscape="http://www.inkscape.org/namespaces/inkscape"
   version="1.1"
   width="300.00mm"
   height="600.00mm"
   viewBox="0 0 300.00 600.00"
   id="svg900"
   sodipodi:docname="backrest_page5.svg"
   inkscape:version="0.92.2 (5c3e80d, 2017-08-06)">
  <metadata
     id="metadata86">
    <rdf:RDF>
      <cc:Work
         rdf:about="">
        <dc:format>image/svg+xml</dc:format>
        <dc:type
           rdf:resource="http://purl.org/dc/dcmitype/StillImage" />
      </cc:Work>
    </rdf:RDF>
  </metadata>
  <defs
     id="defs904" />
  <sodipodi:namedview
     id="namedview902"
     pagecolor="#ffffff"
     bordercolor="#666666"
     borderopacity="1.0"
     inkscape:pageshadow="2"
     inkscape:pageopacity="0.0"
     inkscape:pagecheckerboard="0"
     inkscape:document-units="mm"
     showgrid="false"
     inkscape:zoom="0.35057292"
     inkscape:cx="-540.97646"
     inkscape:cy="1399.6743"
     inkscape:window-width="1920"
     inkscape:window-height="1017"
     inkscape:window-x="1912"
     inkscape:window-y="-8"
     inkscape:window-maximized="1"
     inkscape:current-layer="svg900" />
  <style
     type="text/css"
     id="style824">
    path {
        fill: none;
        stroke-linecap: butt;
        stroke-linejoin: bevel;
        stroke-dasharray: none;
    }
    path.outer {
        stroke: #000000;
        stroke-dasharray: none;
        stroke-dashoffset: 0;
        stroke-width: 0.3;
        stroke-opacity: 1.0;
    }
    path.convex {
        stroke: #000000;
        stroke-dasharray: 0.50,1.00;
        stroke-dashoffset:0;
        stroke-width:0.2;
        stroke-opacity: 1.0
    }
    path.concave {
        stroke: #000000;
        stroke-dasharray: 1.00,0.50,0.20,0.50;
        stroke-dashoffset: 0;
        stroke-width: 0.2;
        stroke-opacity: 1.0
    }
    path.freestyle {
        stroke: #000000;
        stroke-dasharray: none;
        stroke-dashoffset: 0;
        stroke-width: 0.2;
        stroke-opacity: 1.0
    }
    path.outer_background {
        stroke: #ffffff;
        stroke-opacity: 1.0;
        stroke-width: 0.5
    }
    path.inner_background {
        stroke: #ffffff;
        stroke-opacity: 1.0;
        stroke-width: 0.2
    }
    path.sticker {
        fill: #e5e5e5;
        stroke: none;
        fill-opacity: 1.0;
    }
    path.arrow {
        fill: #000000;
    }
    text {
        font-style: normal;
        fill: #000000;
        fill-opacity: 1.0;
        stroke: none;
    }
    text, tspan {
        text-anchor:middle;
    }
    </style>
  <path
     d="m 107.73795,417.57166 2.43409,-0.72251 2.70664,9.11849 -2.43409,0.72251 -0.1987,-0.66938 1.61961,-0.48075 -2.30925,-7.77974 -1.61961,0.48075 z"
     style="font-style:normal;font-size:medium;text-anchor:middle;fill:none;fill-opacity:1;stroke:#000000;stroke-width:0.25;stroke-linecap:butt;stroke-linejoin:bevel;stroke-dasharray:none;stroke-opacity:1"
     id="path893"
     inkscape:connector-curvature="0" />
  <path
     d="m 102.39866,421.15312 3.77284,-1.11989 0.2112,0.7115 -1.4511,0.43073 1.38667,4.67158 1.45109,-0.43072 0.18897,0.63661 q -0.2949,0.0875 -0.61805,0.23436 -0.32174,0.15152 -0.46714,0.29656 -0.18059,0.18094 -0.2495,0.39494 -0.0722,0.22008 -6e-4,0.52989 l -0.72555,0.21537 -1.86463,-6.28184 -1.42301,0.42239 z"
     style="font-style:normal;font-size:medium;text-anchor:middle;fill:none;fill-opacity:1;stroke:#000000;stroke-width:0.25;stroke-linecap:butt;stroke-linejoin:bevel;stroke-dasharray:none;stroke-opacity:1"
     id="path895"
     inkscape:connector-curvature="0" />
  <path
     d="m 95.896816,423.08305 4.718394,-1.40055 0.29039,0.97832 q -0.36644,0.56717 -0.7329,1.13434 -0.371118,0.56857 -0.673428,1.11162 -0.640307,1.13743 -0.821205,1.7463 -0.179509,0.61356 -0.0031,1.20803 0.161177,0.543 0.611926,0.74027 0.447453,0.20335 1.088749,0.013 0.42596,-0.12643 0.87768,-0.4235 0.45172,-0.29708 0.83279,-0.74636 l 0.0468,-0.0139 0.29178,0.983 q -0.28371,0.26248 -0.79577,0.56218 -0.51674,0.30109 -1.03633,0.45532 -1.071932,0.31818 -1.834688,-0.0208 -0.761357,-0.33428 -1.023961,-1.21898 -0.118103,-0.39788 -0.117943,-0.77484 -0.0031,-0.37089 0.10177,-0.73819 0.0964,-0.3444 0.261128,-0.6989 0.160046,-0.35311 0.409689,-0.79902 0.354968,-0.64018 0.751041,-1.26199 0.397464,-0.61712 0.744165,-1.14788 l -3.749439,1.11294 z"
     style="font-style:normal;font-size:medium;text-anchor:middle;fill:none;fill-opacity:1;stroke:#000000;stroke-width:0.25;stroke-linecap:butt;stroke-linejoin:bevel;stroke-dasharray:none;stroke-opacity:1"
     id="path897"
     inkscape:connector-curvature="0" />
  <path
     d="m 91.485693,422.3958 2.434092,-0.72251 0.19869,0.66937 -1.619607,0.48075 2.309253,7.77974 1.619606,-0.48075 0.198692,0.66939 -2.434092,0.7225 z"
     style="font-style:normal;font-size:medium;text-anchor:middle;fill:none;fill-opacity:1;stroke:#000000;stroke-width:0.25;stroke-linecap:butt;stroke-linejoin:bevel;stroke-dasharray:none;stroke-opacity:1"
     id="path899"
     inkscape:connector-curvature="0" />
  <path
     d="m 84.138261,426.57333 2.752406,-0.81699 0.211196,0.71151 -0.912787,0.27094 1.646488,5.54692 0.912787,-0.27094 0.211196,0.71151 -2.752405,0.81699 -0.211196,-0.71151 0.912787,-0.27094 -1.646489,-5.54692 -0.912787,0.27094 z"
     style="font-style:normal;font-size:medium;text-anchor:middle;fill:none;fill-opacity:1;stroke:#000000;stroke-width:0.25;stroke-linecap:butt;stroke-linejoin:bevel;stroke-dasharray:none;stroke-opacity:1"
     id="path901"
     inkscape:connector-curvature="0" />
  <path
     d="m 75.043177,429.27302 3.77285,-1.11989 0.211196,0.7115 -1.451103,0.43073 1.386662,4.67159 1.451102,-0.43073 0.188967,0.63661 q -0.294903,0.0875 -0.618043,0.23436 -0.321754,0.15152 -0.467153,0.29656 -0.180588,0.18094 -0.24949,0.39495 -0.0722,0.22007 -6.11e-4,0.52989 l -0.725552,0.21536 -1.86463,-6.28183 -1.423005,0.42239 z"
     style="font-style:normal;font-size:medium;text-anchor:middle;fill:none;fill-opacity:1;stroke:#000000;stroke-width:0.25;stroke-linecap:butt;stroke-linejoin:bevel;stroke-dasharray:none;stroke-opacity:1"
     id="path903"
     inkscape:connector-curvature="0" />
  <path
     d="m 68.541332,431.20296 4.718404,-1.40056 0.290394,0.97832 q -0.366456,0.56717 -0.732901,1.13434 -0.371131,0.56858 -0.673441,1.11162 -0.640308,1.13743 -0.821205,1.74631 -0.179509,0.61355 -0.0031,1.20803 0.161176,0.54299 0.611926,0.74026 0.447453,0.20335 1.088748,0.013 0.42597,-0.12644 0.877681,-0.42351 0.451721,-0.29707 0.832798,-0.74636 l 0.04678,-0.0139 0.291782,0.983 q -0.283717,0.26248 -0.795774,0.56218 -0.516735,0.30109 -1.036319,0.45532 -1.071943,0.31818 -1.834689,-0.0208 -0.761367,-0.33427 -1.023971,-1.21897 -0.118103,-0.39788 -0.117943,-0.77484 -0.0031,-0.37088 0.10177,-0.73819 0.09641,-0.3444 0.261138,-0.6989 0.160037,-0.35311 0.409679,-0.79902 0.354978,-0.64018 0.751051,-1.26199 0.397464,-0.61712 0.744165,-1.14788 l -3.749449,1.11294 z"
     style="font-style:normal;font-size:medium;text-anchor:middle;fill:none;fill-opacity:1;stroke:#000000;stroke-width:0.25;stroke-linecap:butt;stroke-linejoin:bevel;stroke-dasharray:none;stroke-opacity:1"
     id="path905"
     inkscape:connector-curvature="0" />
  <path
     inkscape:connector-curvature="0"
     style="fill:#e5e5e5;fill-opacity:1;stroke:#000000;stroke-width:0.25;stroke-linecap:butt;stroke-linejoin:bevel;stroke-dasharray:none;stroke-opacity:1"
     id="path830"
     d="m 135.27938,150.48457 9.98601,-0.55156 6.69294,94.26196 -9.96376,0.86494 z m -6.79036,145.84493 9.95471,0.96356 -3.69504,45.63941 -9.98007,-0.65038 z m -4.67827,93.20464 9.95644,-0.94558 5.76031,51.96603 -9.92183,1.25785 z M 33.80948,244.8899 l -9.848676,-1.74024 17.43465,-108.59725 9.898471,1.43004 z m 77.07102,289.83756 2.03295,9.79244 -55.771694,12.49536 -2.339543,-9.72377 z m 18.72517,-92.91502 9.77189,2.12959 -18.34203,91.01377 -10.15503,-0.22834 z m -78.311745,-305.82999 1.856348,-9.82746 81.083517,14.00104 1.04559,10.32854 z m 3.508288,411.30904 -9.792433,2.03297 -25.105803,-112.05726 9.723741,-2.33956 z m -28.795514,-159.97853 -9.982992,0.60372 -3.60664,-47.29375 9.959121,-0.91703 z m 2.257846,-93.87869 -9.917546,-1.29089 5.509253,-48.23229 9.953228,0.97881 z m 96.504075,48.84782 9.99475,0.35972 -0.9515,46.93795 -10.00112,-0.0456 z m -95.140902,92.64555 -9.983127,0.60166 -3.597187,-47.3014 9.959295,-0.91494 z m 112.366852,-189.86773 9.63009,2.69924 -13.42551,50.96577 -9.71013,-2.39542 z m -119.618382,94.64599 -9.900182,-1.41823 5.848708,-45.95995 9.939831,1.10655 z"
     class="sticker" />
  <path
     d="m 142.31511,194.81035 q -0.45589,0.0324 -0.88415,-0.10464 -0.42825,-0.137 -0.73372,-0.40608 -0.32926,-0.29383 -0.52695,-0.72035 -0.19301,-0.42245 -0.23378,-0.99668 -0.038,-0.5348 0.0408,-1.03822 0.0744,-0.50312 0.20794,-0.85623 l 0.92492,-0.0657 0.004,0.0613 q -0.20242,0.37563 -0.33037,0.86933 -0.12358,0.49339 -0.0906,0.95804 0.0221,0.31123 0.13032,0.59432 0.10853,0.28746 0.34388,0.49985 0.20219,0.17949 0.47205,0.25725 0.27016,0.0821 0.61646,0.0576 0.33753,-0.024 0.56145,-0.15881 0.22424,-0.13047 0.34987,-0.34645 0.15039,-0.23977 0.1928,-0.5732 0.0471,-0.32936 0.0185,-0.73264 -0.0274,-0.38575 -0.10548,-0.74146 -0.0778,-0.35134 -0.14878,-0.60622 l 3.36215,-0.23872 0.27887,3.92761 -0.76712,0.0545 -0.2188,-3.0816 -1.73586,0.12325 q 0.0309,0.18725 0.0537,0.38388 0.023,0.19661 0.0333,0.34127 0.0377,0.5304 -0.0261,0.93584 -0.0594,0.40513 -0.26364,0.75445 -0.21618,0.3678 -0.58386,0.58775 -0.36766,0.21995 -0.94191,0.26073 z"
     style="font-style:normal;font-size:medium;text-anchor:middle;fill:none;fill-opacity:1;stroke:#000000;stroke-width:0.25;stroke-linecap:butt;stroke-linejoin:bevel;stroke-dasharray:none;stroke-opacity:1"
     id="path908"
     inkscape:connector-curvature="0" />
  <path
     d="m 144.11661,197.90733 -0.0744,-1.04765 1.24929,-0.0887 0.0744,1.04766 z m -3.64706,0.25895 -0.0744,-1.04765 1.24929,-0.0887 0.0744,1.04765 z"
     style="font-style:normal;font-size:medium;text-anchor:middle;fill:none;fill-opacity:1;stroke:#000000;stroke-width:0.25;stroke-linecap:butt;stroke-linejoin:bevel;stroke-dasharray:none;stroke-opacity:1"
     id="path910"
     inkscape:connector-curvature="0" />
  <path
     d="m 140.91494,204.43906 -0.25087,-3.53309 0.6663,-0.0473 0.0965,1.35889 4.37473,-0.31062 -0.0965,-1.35889 0.59616,-0.0423 q 0.0196,0.27616 0.0858,0.58866 0.0706,0.31219 0.16981,0.46816 0.12391,0.19386 0.29858,0.29599 0.17936,0.10623 0.46553,0.10352 l 0.0482,0.67945 -5.88265,0.41769 0.0946,1.33258 z"
     style="font-style:normal;font-size:medium;text-anchor:middle;fill:none;fill-opacity:1;stroke:#000000;stroke-width:0.25;stroke-linecap:butt;stroke-linejoin:bevel;stroke-dasharray:none;stroke-opacity:1"
     id="path912"
     inkscape:connector-curvature="0" />
  <path
     d="m 130.71223,316.93362 q -0.45555,-0.0369 -0.85819,-0.23702 -0.40264,-0.20013 -0.66395,-0.51227 -0.28108,-0.34021 -0.41206,-0.7917 -0.12696,-0.44676 -0.0805,-1.02056 0.0433,-0.5344 0.19723,-1.02014 0.14957,-0.48609 0.33493,-0.81498 l 0.92421,0.0748 -0.005,0.0613 q -0.25684,0.34073 -0.45792,0.80944 -0.1967,0.46905 -0.23429,0.93335 -0.0252,0.311 0.039,0.60718 0.0639,0.30057 0.26441,0.54607 0.17275,0.20798 0.42776,0.32562 0.25465,0.12202 0.60069,0.15004 0.33728,0.0273 0.579,-0.0722 0.24137,-0.0951 0.3982,-0.28961 0.1849,-0.21429 0.27719,-0.53749 0.0963,-0.31846 0.12894,-0.72144 0.0312,-0.38546 0.008,-0.74888 -0.0238,-0.35906 -0.0555,-0.62174 l 3.35961,0.272 -0.31774,3.92466 -0.76653,-0.0621 0.2493,-3.07929 -1.73456,-0.14043 q 0.002,0.18977 -0.005,0.38759 -0.007,0.19783 -0.0187,0.34238 -0.0429,0.53 -0.16718,0.92115 -0.11988,0.39151 -0.37459,0.70597 -0.26928,0.33091 -0.66597,0.49278 -0.39667,0.16188 -0.97048,0.11542 z"
     style="font-style:normal;font-size:medium;text-anchor:middle;fill:none;fill-opacity:1;stroke:#000000;stroke-width:0.25;stroke-linecap:butt;stroke-linejoin:bevel;stroke-dasharray:none;stroke-opacity:1"
     id="path915"
     inkscape:connector-curvature="0" />
  <path
     d="m 132.02513,320.26724 0.0848,-1.04687 1.24835,0.10107 -0.0848,1.04687 z m -3.64433,-0.29505 0.0848,-1.04687 1.24836,0.10107 -0.0848,1.04687 z"
     style="font-style:normal;font-size:medium;text-anchor:middle;fill:none;fill-opacity:1;stroke:#000000;stroke-width:0.25;stroke-linecap:butt;stroke-linejoin:bevel;stroke-dasharray:none;stroke-opacity:1"
     id="path917"
     inkscape:connector-curvature="0" />
  <path
     d="m 127.84319,326.61257 0.35746,-4.41524 0.91547,0.0741 q 0.35698,0.49184 0.71396,0.98367 0.35663,0.49622 0.7142,0.92638 0.74663,0.90695 1.19888,1.25661 0.45665,0.35 1.01294,0.39504 0.5081,0.0411 0.82012,-0.27309 0.31605,-0.30949 0.36463,-0.90958 0.0323,-0.3986 -0.0703,-0.87424 -0.10257,-0.47565 -0.35585,-0.94146 l 0.004,-0.0438 0.91984,0.0745 q 0.12813,0.32341 0.21331,0.85055 0.0848,0.53153 0.0455,1.01774 -0.0812,1.00306 -0.6135,1.53312 -0.52793,0.53042 -1.35579,0.46339 -0.37231,-0.0301 -0.68865,-0.15277 -0.3123,-0.11788 -0.58651,-0.32524 -0.25774,-0.19282 -0.50175,-0.44624 -0.24437,-0.24906 -0.53753,-0.60346 -0.42198,-0.50591 -0.81519,-1.04037 -0.38883,-0.53408 -0.72166,-0.99751 l -0.28405,3.50854 z"
     style="font-style:normal;font-size:medium;text-anchor:middle;fill:none;fill-opacity:1;stroke:#000000;stroke-width:0.25;stroke-linecap:butt;stroke-linejoin:bevel;stroke-dasharray:none;stroke-opacity:1"
     id="path919"
     inkscape:connector-curvature="0" />
  <path
     d="m 130.26639,412.56863 q -0.45425,0.0504 -0.88759,-0.0696 -0.43333,-0.11998 -0.7492,-0.37678 -0.34059,-0.28058 -0.55499,-0.69897 -0.20954,-0.41449 -0.27296,-0.98667 -0.0591,-0.53287 -2.2e-4,-1.03901 0.0545,-0.50567 0.17396,-0.86379 l 0.9216,-0.10216 0.007,0.0611 q -0.18743,0.38334 -0.29578,0.88171 -0.10398,0.49788 -0.0527,0.96087 0.0344,0.31012 0.1537,0.5887 0.1198,0.28296 0.36336,0.48587 0.20911,0.17137 0.48183,0.23841 0.27321,0.0714 0.61826,0.0332 0.33632,-0.0373 0.55473,-0.18087 0.21891,-0.13922 0.33593,-0.36001 0.1408,-0.24551 0.17,-0.58036 0.0341,-0.33096 -0.0105,-0.73279 -0.0426,-0.38437 -0.13468,-0.73672 -0.0916,-0.34799 -0.17261,-0.59987 l 3.35008,-0.37135 0.4338,3.91353 -0.76435,0.0847 -0.34037,-3.07054 -1.72963,0.19173 q 0.0383,0.18587 0.0688,0.38145 0.0307,0.19556 0.0467,0.3397 0.0586,0.5285 0.0109,0.93613 -0.0433,0.40715 -0.23362,0.76429 -0.2015,0.37605 -0.56019,0.61035 -0.3587,0.23431 -0.93087,0.29773 z"
     style="font-style:normal;font-size:medium;text-anchor:middle;fill:none;fill-opacity:1;stroke:#000000;stroke-width:0.25;stroke-linecap:butt;stroke-linejoin:bevel;stroke-dasharray:none;stroke-opacity:1"
     id="path922"
     inkscape:connector-curvature="0" />
  <path
     d="m 132.18883,415.59202 -0.11571,-1.04389 1.24481,-0.13799 0.11572,1.0439 z m -3.63399,0.40282 -0.11572,-1.04389 1.24482,-0.13799 0.11571,1.0439 z"
     style="font-style:normal;font-size:medium;text-anchor:middle;fill:none;fill-opacity:1;stroke:#000000;stroke-width:0.25;stroke-linecap:butt;stroke-linejoin:bevel;stroke-dasharray:none;stroke-opacity:1"
     id="path924"
     inkscape:connector-curvature="0" />
  <path
     d="m 132.3571,421.69708 q -0.16458,0.23047 -0.43347,0.39734 -0.26891,0.16688 -0.71879,0.21675 -0.44551,0.0494 -0.83468,-0.0711 -0.38918,-0.12045 -0.69678,-0.38259 -0.34206,-0.29369 -0.53995,-0.72274 -0.19304,-0.42517 -0.25162,-0.95368 -0.06,-0.5416 0.0129,-1.08025 0.0686,-0.53818 0.18416,-0.89145 l 0.91287,-0.10119 0.007,0.0655 q -0.20345,0.39838 -0.30937,0.91859 -0.10593,0.5202 -0.0541,0.98755 0.0305,0.27518 0.15662,0.57512 0.12611,0.29994 0.32649,0.47227 0.21445,0.17962 0.4566,0.25005 0.24262,0.0748 0.59641,0.0356 0.34942,-0.0387 0.56396,-0.17747 0.21939,-0.13486 0.32864,-0.34593 0.11361,-0.21156 0.13067,-0.49643 0.0214,-0.28534 -0.0144,-0.60855 l -0.0436,-0.3931 0.72505,-0.0804 0.0339,0.30574 q 0.0736,0.66391 0.39234,1.02651 0.3236,0.36648 0.85646,0.30741 0.23587,-0.0262 0.39944,-0.14598 0.16794,-0.1203 0.26165,-0.31197 0.0927,-0.2004 0.1127,-0.41926 0.0199,-0.21887 -0.0101,-0.48967 -0.046,-0.41494 -0.2463,-0.86582 -0.20032,-0.4509 -0.51711,-0.83582 l -0.005,-0.0436 0.91287,-0.10119 q 0.18725,0.29316 0.37104,0.79451 0.18865,0.50525 0.24239,0.99008 0.0528,0.47608 0.006,0.84829 -0.0472,0.37221 -0.20691,0.68616 -0.17479,0.33771 -0.45389,0.53224 -0.27909,0.19454 -0.67656,0.2386 -0.5416,0.06 -0.99042,-0.27931 -0.44395,-0.33546 -0.60639,-0.84359 l -0.0611,0.007 q -0.0117,0.21353 -0.0952,0.49691 -0.0792,0.28291 -0.22433,0.48912 z"
     style="font-style:normal;font-size:medium;text-anchor:middle;fill:none;fill-opacity:1;stroke:#000000;stroke-width:0.25;stroke-linecap:butt;stroke-linejoin:bevel;stroke-dasharray:none;stroke-opacity:1"
     id="path926"
     inkscape:connector-curvature="0" />
  <path
     d="m 39.842415,195.95645 -0.561457,3.49722 -0.659524,-0.10588 0.215945,-1.34509 -4.33029,-0.6952 -0.215945,1.34509 -0.590094,-0.0947 q 0.04389,-0.27336 0.0507,-0.59273 0.0025,-0.32005 -0.05858,-0.49454 -0.07643,-0.217 -0.223204,-0.35629 -0.150405,-0.14432 -0.429657,-0.20696 l 0.107972,-0.67253 5.822896,0.93483 0.211766,-1.31905 z"
     style="font-style:normal;font-size:medium;text-anchor:middle;fill:none;fill-opacity:1;stroke:#000000;stroke-width:0.25;stroke-linecap:butt;stroke-linejoin:bevel;stroke-dasharray:none;stroke-opacity:1"
     id="path929"
     inkscape:connector-curvature="0" />
  <path
     d="m 37.576064,189.41934 q 1.73992,0.27934 2.467883,0.95701 0.724306,0.67263 0.540406,1.81812 -0.186689,1.16284 -1.097469,1.56852 -0.910085,0.40135 -2.619634,0.12689 -1.722572,-0.27655 -2.455566,-0.95058 -0.737329,-0.67473 -0.552732,-1.82456 0.186687,-1.16284 1.109785,-1.56209 0.91946,-0.40428 2.607327,-0.13331 z m 1.786681,1.4574 q -0.327069,-0.20829 -0.791664,-0.33628 -0.468227,-0.133 -1.136431,-0.24028 -0.659525,-0.10588 -1.154543,-0.12752 -0.494321,-0.026 -0.857839,0.0759 -0.358482,0.0982 -0.570198,0.33574 -0.211009,0.23317 -0.277185,0.64537 -0.06548,0.40787 0.06054,0.70405 0.126732,0.29184 0.444434,0.50308 0.297395,0.19907 0.804677,0.33837 0.507985,0.13493 1.124125,0.23385 0.676872,0.10867 1.140125,0.13412 0.463252,0.0255 0.848465,-0.073 0.361424,-0.0888 0.581121,-0.32063 0.220395,-0.23612 0.290054,-0.67001 0.06548,-0.40786 -0.06055,-0.70405 -0.126034,-0.29618 -0.445131,-0.49874 z"
     style="font-style:normal;font-size:medium;text-anchor:middle;fill:none;fill-opacity:1;stroke:#000000;stroke-width:0.25;stroke-linecap:butt;stroke-linejoin:bevel;stroke-dasharray:none;stroke-opacity:1"
     id="path931"
     inkscape:connector-curvature="0" />
  <path
     d="m 37.701508,186.226 -0.166485,1.03701 -1.236605,-0.19852 0.166485,-1.03702 z m 3.610023,0.57957 -0.166485,1.03701 -1.236605,-0.19853 0.166485,-1.03701 z"
     style="font-style:normal;font-size:medium;text-anchor:middle;fill:none;fill-opacity:1;stroke:#000000;stroke-width:0.25;stroke-linecap:butt;stroke-linejoin:bevel;stroke-dasharray:none;stroke-opacity:1"
     id="path933"
     inkscape:connector-curvature="0" />
  <path
     d="m 42.308359,180.5965 -0.561455,3.49721 -0.659524,-0.10589 0.215943,-1.34507 -4.33029,-0.6952 -0.215943,1.34507 -0.590094,-0.0947 q 0.04388,-0.27335 0.0507,-0.59272 0.0025,-0.32006 -0.05858,-0.49454 -0.07643,-0.21701 -0.223204,-0.3563 -0.150405,-0.14431 -0.429657,-0.20695 l 0.107972,-0.67254 5.822897,0.93483 0.211765,-1.31905 z"
     style="font-style:normal;font-size:medium;text-anchor:middle;fill:none;fill-opacity:1;stroke:#000000;stroke-width:0.25;stroke-linecap:butt;stroke-linejoin:bevel;stroke-dasharray:none;stroke-opacity:1"
     id="path935"
     inkscape:connector-curvature="0" />
  <path
     d="m 88.97192,541.48145 3.456307,-0.77437 0.146034,0.65181 -1.329354,0.29784 0.958829,4.27964 1.329354,-0.29783 0.130663,0.5832 q -0.270162,0.0605 -0.569311,0.17254 -0.298196,0.11631 -0.437639,0.23766 -0.17324,0.1514 -0.248218,0.33933 -0.07832,0.19319 -0.03302,0.47576 l -0.664683,0.14892 -1.289327,-5.7548 -1.303613,0.29207 z"
     style="font-style:normal;font-size:medium;text-anchor:middle;fill:none;fill-opacity:1;stroke:#000000;stroke-width:0.25;stroke-linecap:butt;stroke-linejoin:bevel;stroke-dasharray:none;stroke-opacity:1"
     id="path938"
     inkscape:connector-curvature="0" />
  <path
     d="m 83.272331,544.64536 0.947696,-0.21232 -0.402555,-1.79677 0.823339,-0.18446 0.402555,1.79676 3.057503,-0.68501 0.220972,0.98629 -2.28478,4.29481 -0.78903,0.17678 -0.874285,-3.90229 -0.947696,0.21232 z m 1.924754,0.28932 0.645626,2.8817 1.828675,-3.43605 z"
     style="font-style:normal;font-size:medium;text-anchor:middle;fill:none;fill-opacity:1;stroke:#000000;stroke-width:0.25;stroke-linecap:butt;stroke-linejoin:bevel;stroke-dasharray:none;stroke-opacity:1"
     id="path940"
     inkscape:connector-curvature="0" />
  <path
     d="m 80.727398,547.07547 1.024883,-0.22961 0.273813,1.22214 -1.024882,0.22962 z m -0.799345,-3.5678 1.024883,-0.22962 0.273813,1.22215 -1.024882,0.22961 z"
     style="font-style:normal;font-size:medium;text-anchor:middle;fill:none;fill-opacity:1;stroke:#000000;stroke-width:0.25;stroke-linecap:butt;stroke-linejoin:bevel;stroke-dasharray:none;stroke-opacity:1"
     id="path942"
     inkscape:connector-curvature="0" />
  <path
     d="m 73.427105,544.96417 4.322532,-0.96844 0.200798,0.89625 q -0.363802,0.48681 -0.727592,0.97363 -0.368083,0.48778 -0.672813,0.95686 -0.644637,0.98208 -0.844378,1.5177 -0.19878,0.53992 -0.07677,1.08452 0.111449,0.49744 0.504091,0.70219 0.38931,0.21001 0.976796,0.0784 0.390236,-0.0874 0.814044,-0.32649 0.423807,-0.23907 0.7935,-0.61913 l 0.04284,-0.01 0.20176,0.90053 q -0.270838,0.21829 -0.74899,0.45603 -0.482438,0.23869 -0.958428,0.34533 -0.982006,0.22001 -1.64612,-0.13109 -0.663151,-0.3468 -0.844734,-1.15728 -0.08167,-0.3645 -0.0584,-0.70296 0.01993,-0.33322 0.136618,-0.6566 0.107677,-0.30333 0.277308,-0.61155 0.165336,-0.30725 0.416818,-0.69235 0.357967,-0.55306 0.751704,-1.08712 0.394708,-0.52977 0.738538,-0.9851 l -3.434867,0.76956 z"
     style="font-style:normal;font-size:medium;text-anchor:middle;fill:none;fill-opacity:1;stroke:#000000;stroke-width:0.25;stroke-linecap:butt;stroke-linejoin:bevel;stroke-dasharray:none;stroke-opacity:1"
     id="path944"
     inkscape:connector-curvature="0" />
  <path
     class="arrow"
     d="m 120.24309,488.26995 -11.77849,7.82733 9.32776,-8.32123 -5.3766,-11.28459 z"
     id="path854"
     style="fill:#000000;stroke:#000000;stroke-width:0.25;stroke-linecap:butt;stroke-linejoin:bevel;stroke-dasharray:none;stroke-opacity:1"
     inkscape:connector-curvature="0" />
  <path
     inkscape:connector-curvature="0"
     id="path947"
     style="font-style:normal;font-size:medium;text-anchor:middle;fill:none;fill-opacity:1;stroke:#000000;stroke-width:0.25;stroke-linecap:butt;stroke-linejoin:bevel;stroke-dasharray:none;stroke-opacity:1"
     d="m 108.26007,483.25752 3.77285,-1.11989 0.21119,0.7115 -1.45109,0.43073 1.38666,4.67159 1.45109,-0.43073 0.18897,0.63661 q -0.2949,0.0875 -0.61804,0.23438 -0.32174,0.15153 -0.46715,0.29656 -0.18058,0.18094 -0.24949,0.39494 -0.0722,0.22008 -6.1e-4,0.52989 l -0.72555,0.21537 -1.86463,-6.28184 -1.42301,0.42239 z" />
  <path
     d="m 123.16924,482.86148 0.69974,-3.47219 0.65481,0.13197 -0.26913,1.33545 4.2993,0.86643 0.26913,-1.33545 0.58587,0.11807 q -0.0547,0.2714 -0.0742,0.59024 -0.0152,0.31972 0.0389,0.49648 0.0678,0.21987 0.20889,0.36487 0.14456,0.15017 0.42111,0.22383 l -0.13456,0.66773 -5.78123,-1.16509 -0.26393,1.30961 z"
     style="font-style:normal;font-size:medium;text-anchor:middle;fill:none;fill-opacity:1;stroke:#000000;stroke-width:0.25;stroke-linecap:butt;stroke-linejoin:bevel;stroke-dasharray:none;stroke-opacity:1"
     id="path950"
     inkscape:connector-curvature="0" />
  <path
     d="m 123.74158,489.25285 q -0.83143,-0.16756 -1.25176,-0.92917 -0.42118,-0.75732 -0.22324,-1.73952 0.2101,-1.04252 0.87361,-1.55434 0.66264,-0.50751 1.50268,-0.33822 0.53418,0.10766 0.90246,0.50465 0.3726,0.39785 0.51304,1.01341 l 0.0259,0.005 q 0.37988,-0.46139 0.75764,-0.64527 0.37689,-0.17957 0.86799,-0.0806 0.72373,0.14585 1.08641,0.83759 0.36268,0.69172 0.17776,1.60931 -0.19361,0.96067 -0.77003,1.44072 -0.5764,0.48006 -1.28721,0.33681 -0.43511,-0.0877 -0.80258,-0.44416 -0.36318,-0.35562 -0.4942,-0.92893 l -0.0259,-0.005 q -0.38001,0.55101 -0.82336,0.7934 -0.44334,0.24238 -1.02921,0.12431 z m 3.33761,-0.38981 q 0.46095,0.0929 0.80441,-0.20997 0.34689,-0.29769 0.45802,-0.8491 0.10939,-0.5428 -0.0788,-0.94383 -0.18902,-0.39672 -0.62843,-0.48528 -0.31017,-0.0625 -0.57322,0.0638 -0.25961,0.13148 -0.50742,0.44913 -0.10966,0.14377 -0.2945,0.41584 -0.18571,0.27638 -0.32485,0.54421 0.19837,0.48378 0.47124,0.70912 0.27287,0.22534 0.67351,0.30608 z m -3.24062,-0.51411 q 0.39633,0.0799 0.66886,-0.049 0.27597,-0.1237 0.61966,-0.58341 0.1356,-0.18336 0.26604,-0.40812 0.13048,-0.22475 0.35768,-0.59587 -0.13295,-0.43025 -0.44706,-0.74011 -0.31499,-0.30556 -0.77163,-0.39759 -0.58156,-0.1172 -1.0414,0.20704 -0.45984,0.32424 -0.58399,0.94027 -0.12675,0.62896 0.12081,1.06886 0.24669,0.44421 0.81103,0.55794 z"
     style="font-style:normal;font-size:medium;text-anchor:middle;fill:none;fill-opacity:1;stroke:#000000;stroke-width:0.25;stroke-linecap:butt;stroke-linejoin:bevel;stroke-dasharray:none;stroke-opacity:1"
     id="path952"
     inkscape:connector-curvature="0" />
  <path
     d="m 124.92245,492.6692 0.20749,-1.0296 1.22776,0.24743 -0.2075,1.0296 z m -3.58419,-0.72232 0.20749,-1.0296 1.22776,0.24743 -0.2075,1.0296 z"
     style="font-style:normal;font-size:medium;text-anchor:middle;fill:none;fill-opacity:1;stroke:#000000;stroke-width:0.25;stroke-linecap:butt;stroke-linejoin:bevel;stroke-dasharray:none;stroke-opacity:1"
     id="path954"
     inkscape:connector-curvature="0" />
  <path
     d="m 120.0959,498.11151 0.69975,-3.47218 0.6548,0.13196 -0.26913,1.33545 4.2993,0.86644 0.26914,-1.33545 0.58587,0.11807 q -0.0547,0.2714 -0.0742,0.59024 -0.0152,0.31972 0.0389,0.49647 0.0678,0.21987 0.2089,0.36487 0.14456,0.15017 0.42111,0.22384 l -0.13457,0.66772 -5.78123,-1.16508 -0.26392,1.30961 z"
     style="font-style:normal;font-size:medium;text-anchor:middle;fill:none;fill-opacity:1;stroke:#000000;stroke-width:0.25;stroke-linecap:butt;stroke-linejoin:bevel;stroke-dasharray:none;stroke-opacity:1"
     id="path956"
     inkscape:connector-curvature="0" />
  <path
     d="m 87.798776,140.45936 -3.490338,-0.60269 0.113659,-0.65823 1.342434,0.2318 0.74626,-4.32178 -1.342434,-0.2318 0.101696,-0.58895 q 0.272813,0.0471 0.592078,0.0577 0.320015,0.006 0.495195,-0.0527 0.217896,-0.0739 0.358904,-0.21897 0.146083,-0.14871 0.21201,-0.42719 l 0.671217,0.1159 -1.003489,5.81146 1.316459,0.22732 z"
     style="font-style:normal;font-size:medium;text-anchor:middle;fill:none;fill-opacity:1;stroke:#000000;stroke-width:0.25;stroke-linecap:butt;stroke-linejoin:bevel;stroke-dasharray:none;stroke-opacity:1"
     id="path959"
     inkscape:connector-curvature="0" />
  <path
     d="m 94.428739,137.8849 q -0.145812,0.84444 -0.459581,1.49933 -0.309434,0.65564 -0.782925,1.07335 -0.479313,0.42563 -1.118944,0.59167 -0.639631,0.16605 -1.440766,0.0277 -0.225177,-0.0389 -0.419887,-0.0993 -0.195459,-0.0561 -0.342385,-0.13493 l 0.142821,-0.82711 0.04326,0.007 q 0.114368,0.0866 0.33341,0.1869 0.219798,0.0959 0.501282,0.1445 0.957027,0.16526 1.597041,-0.31289 0.645086,-0.48173 0.905922,-1.47578 -0.444605,0.17297 -0.817656,0.21559 -0.37304,0.0426 -0.793094,-0.0299 -0.398394,-0.0688 -0.709719,-0.20282 -0.306998,-0.13328 -0.592899,-0.41454 -0.335467,-0.32996 -0.460043,-0.77068 -0.120253,-0.43995 -0.0223,-1.00725 0.170488,-0.98734 0.926985,-1.49443 0.756497,-0.50709 1.691874,-0.34558 0.467689,0.0808 0.840659,0.29679 0.373728,0.2117 0.622427,0.55343 0.306028,0.423 0.407275,1.02468 0.101994,0.59735 -0.05279,1.49376 z m -0.842601,-0.33726 q 0.115902,-0.67121 0.04762,-1.1022 -0.06829,-0.43099 -0.271907,-0.69805 -0.169889,-0.23002 -0.389521,-0.35268 -0.218893,-0.12699 -0.491705,-0.1741 -0.623582,-0.10768 -1.054637,0.21925 -0.42673,0.32768 -0.548614,1.03354 -0.07104,0.4114 0.001,0.69141 0.07205,0.28001 0.315553,0.52275 0.171696,0.16789 0.39731,0.2559 0.226379,0.0836 0.51219,0.13299 0.337771,0.0583 0.69991,0.0272 0.362148,-0.0311 0.695181,-0.152 0.01965,-0.0903 0.03953,-0.17602 0.02457,-0.0894 0.0485,-0.22799 z"
     style="font-style:normal;font-size:medium;text-anchor:middle;fill:none;fill-opacity:1;stroke:#000000;stroke-width:0.25;stroke-linecap:butt;stroke-linejoin:bevel;stroke-dasharray:none;stroke-opacity:1"
     id="path961"
     inkscape:connector-curvature="0" />
  <path
     d="m 97.553824,138.43345 -1.034984,-0.17872 0.21311,-1.23418 1.034984,0.17872 z m -0.622133,3.60293 -1.034984,-0.17872 0.213111,-1.23417 1.034983,0.17871 z"
     style="font-style:normal;font-size:medium;text-anchor:middle;fill:none;fill-opacity:1;stroke:#000000;stroke-width:0.25;stroke-linecap:butt;stroke-linejoin:bevel;stroke-dasharray:none;stroke-opacity:1"
     id="path963"
     inkscape:connector-curvature="0" />
  <path
     d="m 103.12856,143.10641 -3.490342,-0.60269 0.113659,-0.65823 1.342433,0.23181 0.74626,-4.32179 -1.34243,-0.2318 0.10169,-0.58894 q 0.27282,0.0471 0.59208,0.0577 0.32002,0.006 0.4952,-0.0527 0.21789,-0.0739 0.3589,-0.21898 0.14608,-0.1487 0.21201,-0.42718 l 0.67122,0.1159 -1.00349,5.81146 1.31646,0.22731 z"
     style="font-style:normal;font-size:medium;text-anchor:middle;fill:none;fill-opacity:1;stroke:#000000;stroke-width:0.25;stroke-linecap:butt;stroke-linejoin:bevel;stroke-dasharray:none;stroke-opacity:1"
     id="path965"
     inkscape:connector-curvature="0" />
  <path
     class="arrow"
     d="m 42.214953,491.10956 7.571845,-11.94434 -5.132322,11.39778 9.504812,8.11841 z"
     id="path870"
     style="fill:#000000;stroke:#000000;stroke-width:0.25;stroke-linecap:butt;stroke-linejoin:bevel;stroke-dasharray:none;stroke-opacity:1"
     inkscape:connector-curvature="0" />
  <path
     inkscape:connector-curvature="0"
     id="path968"
     style="font-style:normal;font-size:medium;text-anchor:middle;fill:none;fill-opacity:1;stroke:#000000;stroke-width:0.25;stroke-linecap:butt;stroke-linejoin:bevel;stroke-dasharray:none;stroke-opacity:1"
     d="m 47.438954,486.02563 4.718399,-1.40056 0.290393,0.97832 q -0.36645,0.56717 -0.7329,1.13435 -0.371131,0.56857 -0.673437,1.11161 -0.640306,1.13743 -0.821205,1.74631 -0.179508,0.61355 -0.003,1.20803 0.161175,0.54299 0.611922,0.74027 0.447456,0.20334 1.088746,0.013 0.425967,-0.12644 0.877685,-0.42351 0.451719,-0.29707 0.832792,-0.74635 l 0.04681,-0.0139 0.291783,0.983 q -0.283717,0.26248 -0.795775,0.56218 -0.51674,0.30109 -1.036325,0.45532 -1.071938,0.31818 -1.83469,-0.0208 -0.761362,-0.33428 -1.023967,-1.21898 -0.118103,-0.39788 -0.11794,-0.77484 -0.0031,-0.37089 0.101767,-0.73819 0.09641,-0.34441 0.261135,-0.6989 0.160043,-0.35311 0.409686,-0.79903 0.35497,-0.64017 0.751044,-1.26198 0.397463,-0.61713 0.744164,-1.14788 l -3.749443,1.11294 z" />
  <path
     d="m 41.743912,497.24072 0.774367,3.45632 -0.651811,0.14603 -0.297834,-1.32935 -4.279645,0.95883 0.297834,1.32935 -0.583192,0.13066 q -0.06053,-0.27016 -0.172542,-0.56932 -0.116304,-0.29818 -0.237655,-0.43763 -0.151397,-0.17324 -0.339328,-0.24823 -0.193183,-0.0783 -0.475767,-0.033 l -0.148916,-0.66467 5.754796,-1.28933 -0.292069,-1.30362 z"
     style="font-style:normal;font-size:medium;text-anchor:middle;fill:none;fill-opacity:1;stroke:#000000;stroke-width:0.25;stroke-linecap:butt;stroke-linejoin:bevel;stroke-dasharray:none;stroke-opacity:1"
     id="path971"
     inkscape:connector-curvature="0" />
  <path
     d="m 37.216631,492.00872 q 1.719571,-0.38526 2.646819,-0.0256 0.921985,0.35638 1.175622,1.48846 0.257483,1.14925 -0.438146,1.86353 -0.696589,0.71 -2.386144,1.08853 -1.702426,0.38142 -2.632998,0.027 -0.934856,-0.35349 -1.189455,-1.48987 -0.257481,-1.14924 0.451979,-1.86212 0.704206,-0.7162 2.372323,-1.08993 z m 2.199533,0.69162 q -0.380975,-0.0723 -0.859926,-0.019 -0.48418,0.05 -1.144568,0.19792 -0.651811,0.14603 -1.119612,0.30936 -0.468762,0.15903 -0.768645,0.38838 -0.296569,0.22405 -0.405197,0.52311 -0.109599,0.29476 -0.01833,0.70214 0.09031,0.4031 0.317122,0.6315 0.22584,0.22411 0.599199,0.30259 0.349997,0.0747 0.872777,0.0161 0.521821,-0.0629 1.130755,-0.19934 0.668956,-0.14987 1.108664,-0.29788 0.439708,-0.14802 0.761028,-0.38218 0.302773,-0.21645 0.420949,-0.51313 0.117217,-0.30097 0.02114,-0.7298 -0.09031,-0.40308 -0.31712,-0.63148 -0.226812,-0.22841 -0.598239,-0.29831 z"
     style="font-style:normal;font-size:medium;text-anchor:middle;fill:none;fill-opacity:1;stroke:#000000;stroke-width:0.25;stroke-linecap:butt;stroke-linejoin:bevel;stroke-dasharray:none;stroke-opacity:1"
     id="path973"
     inkscape:connector-curvature="0" />
  <path
     d="m 36.149888,488.99621 0.229619,1.02488 -1.222143,0.27382 -0.229619,-1.02489 z m 3.567802,-0.79934 0.229619,1.02488 -1.222143,0.27381 -0.229619,-1.02488 z"
     style="font-style:normal;font-size:medium;text-anchor:middle;fill:none;fill-opacity:1;stroke:#000000;stroke-width:0.25;stroke-linecap:butt;stroke-linejoin:bevel;stroke-dasharray:none;stroke-opacity:1"
     id="path975"
     inkscape:connector-curvature="0" />
  <path
     d="m 38.261191,481.69592 0.968438,4.32253 -0.896232,0.2008 q -0.486822,-0.3638 -0.973644,-0.7276 -0.487782,-0.36809 -0.956859,-0.67281 -0.982071,-0.64464 -1.517706,-0.84438 -0.539919,-0.19877 -1.084518,-0.0768 -0.497438,0.11145 -0.70219,0.50409 -0.210008,0.38931 -0.07839,0.9768 0.08743,0.39022 0.326495,0.81403 0.239058,0.42381 0.619118,0.79351 l 0.0096,0.0429 -0.900526,0.20175 q -0.218302,-0.27083 -0.456029,-0.74899 -0.238687,-0.48243 -0.345329,-0.95842 -0.220013,-0.98201 0.131079,-1.64612 0.346809,-0.66316 1.157277,-0.84474 0.364503,-0.0817 0.702968,-0.0584 0.333228,0.0199 0.656591,0.13662 0.303349,0.10768 0.61156,0.27731 0.30725,0.16534 0.692346,0.41682 0.553069,0.35796 1.087119,0.7517 0.529778,0.39471 0.985103,0.73854 l -0.769562,-3.43487 z"
     style="font-style:normal;font-size:medium;text-anchor:middle;fill:none;fill-opacity:1;stroke:#000000;stroke-width:0.25;stroke-linecap:butt;stroke-linejoin:bevel;stroke-dasharray:none;stroke-opacity:1"
     id="path977"
     inkscape:connector-curvature="0" />
  <path
     class="arrow"
     d="m 124.28968,365.9081 -10.20062,9.79527 7.70113,-9.84594 -7.29578,-10.14995 z"
     id="path882"
     style="fill:#000000;stroke:#000000;stroke-width:0.25000003;stroke-linecap:butt;stroke-linejoin:bevel;stroke-dasharray:none;stroke-opacity:1"
     inkscape:connector-curvature="0" />
  <path
     inkscape:connector-curvature="0"
     id="path980"
     style="font-style:normal;font-size:medium;text-anchor:middle;fill:none;fill-opacity:1;stroke:#000000;stroke-width:0.25;stroke-linecap:butt;stroke-linejoin:bevel;stroke-dasharray:none;stroke-opacity:1"
     d="m 113.34268,365.78363 q -0.28444,-0.13459 -0.51986,-0.39578 -0.23542,-0.26118 -0.37853,-0.74332 -0.14173,-0.47746 -0.0866,-0.92675 0.0551,-0.44929 0.28119,-0.83728 0.25381,-0.43188 0.68402,-0.73275 0.42693,-0.29481 0.99332,-0.46293 0.58044,-0.17229 1.18384,-0.1986 0.60201,-0.031 1.01107,0.0259 l 0.29039,0.97832 -0.0702,0.0208 q -0.47569,-0.14403 -1.06541,-0.15744 -0.58972,-0.0134 -1.09058,0.13527 -0.2949,0.0875 -0.59807,0.28448 -0.30317,0.19695 -0.45216,0.45001 -0.15419,0.26987 -0.18353,0.54853 -0.034,0.28005 0.0785,0.6592 0.11116,0.37448 0.30511,0.58177 0.19067,0.21335 0.44299,0.29125 0.25372,0.0826 0.56858,0.0452 0.31626,-0.0328 0.66265,-0.13557 l 0.42128,-0.12505 0.23065,0.77704 -0.32767,0.0973 q -0.7115,0.2112 -1.04525,0.63115 -0.33704,0.42602 -0.16753,0.99709 0.075,0.25277 0.23827,0.40805 0.16463,0.15997 0.39267,0.2247 0.23741,0.062 0.48067,0.0407 0.24326,-0.0213 0.53348,-0.10742 0.44469,-0.132 0.89831,-0.43982 0.45362,-0.30782 0.81217,-0.73004 l 0.0468,-0.0139 0.29039,0.97832 q -0.28372,0.26248 -0.79578,0.56218 -0.51535,0.30577 -1.03493,0.46 -0.51023,0.15145 -0.92653,0.17316 -0.41631,0.0217 -0.79107,-0.0912 -0.40372,-0.12464 -0.6714,-0.39154 -0.26768,-0.26689 -0.39412,-0.69286 -0.17229,-0.58044 0.11042,-1.13804 0.27941,-0.55153 0.8031,-0.82921 l -0.0194,-0.0655 q -0.2358,0.0293 -0.56215,-0.006 -0.32495,-0.0309 -0.57903,-0.14901 z" />
  <path
     d="m 128.22207,363.29351 q -0.45694,-0.009 -0.87095,-0.18468 -0.41402,-0.17542 -0.69372,-0.47118 -0.30115,-0.32258 -0.4592,-0.76533 -0.15374,-0.43826 -0.14208,-1.01383 0.0109,-0.53602 0.13517,-1.03019 0.1199,-0.49425 0.28503,-0.83374 l 0.92705,0.0188 -0.001,0.0615 q -0.23577,0.35564 -0.40813,0.83565 -0.16797,0.48009 -0.17741,0.94582 -0.006,0.31194 0.0757,0.6037 0.0819,0.29615 0.29696,0.52908 0.185,0.19715 0.44666,0.29915 0.26157,0.1064 0.60867,0.11343 0.33831,0.007 0.57357,-0.10704 0.23518,-0.10952 0.37997,-0.31317 0.17159,-0.22509 0.24417,-0.55327 0.0769,-0.3237 0.0851,-0.72792 0.008,-0.38664 -0.0376,-0.74798 -0.0455,-0.35695 -0.093,-0.61724 l 3.3699,0.0683 -0.0798,3.93669 -0.76888,-0.0156 0.0626,-3.08873 -1.73988,-0.0353 q 0.0138,0.18929 0.0186,0.38718 0.005,0.1979 0.002,0.34288 -0.0108,0.53163 -0.11117,0.92959 -0.096,0.39803 -0.33121,0.72731 -0.24877,0.34659 -0.63494,0.53216 -0.38616,0.18557 -0.96172,0.17391 z"
     style="font-style:normal;font-size:medium;text-anchor:middle;fill:none;fill-opacity:1;stroke:#000000;stroke-width:0.25;stroke-linecap:butt;stroke-linejoin:bevel;stroke-dasharray:none;stroke-opacity:1"
     id="path983"
     inkscape:connector-curvature="0" />
  <path
     d="m 129.73418,366.54163 0.0213,-1.05008 1.2522,0.0254 -0.0213,1.05008 z m -3.6555,-0.0741 0.0213,-1.05007 1.2522,0.0254 -0.0213,1.05008 z"
     style="font-style:normal;font-size:medium;text-anchor:middle;fill:none;fill-opacity:1;stroke:#000000;stroke-width:0.25;stroke-linecap:butt;stroke-linejoin:bevel;stroke-dasharray:none;stroke-opacity:1"
     id="path985"
     inkscape:connector-curvature="0" />
  <path
     d="m 129.10555,372.61656 q -0.19319,0.20706 -0.48154,0.33747 -0.28835,0.13041 -0.74089,0.12124 -0.44815,-0.009 -0.81832,-0.17921 -0.37016,-0.17014 -0.64099,-0.47012 -0.30087,-0.33576 -0.44118,-0.78694 -0.13599,-0.44669 -0.12521,-0.97832 0.011,-0.54481 0.15354,-1.06938 0.1381,-0.52465 0.29874,-0.85984 l 0.91827,0.0186 -0.001,0.0659 q -0.25362,0.36847 -0.42643,0.87044 -0.1728,0.50197 -0.18233,0.97209 -0.006,0.27679 0.0803,0.59062 0.086,0.31382 0.26217,0.51079 0.18922,0.20603 0.42012,0.30741 0.23082,0.10577 0.5867,0.11298 0.35149,0.007 0.58228,-0.10248 0.23509,-0.10512 0.3709,-0.30015 0.14021,-0.19496 0.19424,-0.47517 0.0584,-0.28013 0.065,-0.60525 l 0.008,-0.39543 0.72934,0.0148 -0.006,0.30755 q -0.0135,0.66782 0.25525,1.06886 0.27309,0.40552 0.80911,0.41639 0.23725,0.005 0.41505,-0.0927 0.18218,-0.0974 0.30007,-0.27522 0.11807,-0.18661 0.16636,-0.40101 0.0483,-0.2144 0.0538,-0.4868 0.008,-0.4174 -0.1314,-0.89055 -0.13985,-0.47314 -0.40379,-0.89606 l 8.9e-4,-0.0439 0.91827,0.0186 q 0.14744,0.31507 0.26436,0.8361 0.1212,0.52551 0.11132,1.0132 -0.01,0.47891 -0.10499,0.8418 -0.0953,0.36289 -0.29455,0.65334 -0.21731,0.31207 -0.51936,0.46858 -0.30207,0.1565 -0.70189,0.14839 -0.54481,-0.011 -0.94558,-0.40595 -0.39647,-0.39045 -0.49131,-0.91543 l -0.0615,-0.001 q -0.0395,0.21019 -0.15917,0.48028 -0.11537,0.27017 -0.28616,0.45572 z"
     style="font-style:normal;font-size:medium;text-anchor:middle;fill:none;fill-opacity:1;stroke:#000000;stroke-width:0.25;stroke-linecap:butt;stroke-linejoin:bevel;stroke-dasharray:none;stroke-opacity:1"
     id="path987"
     inkscape:connector-curvature="0" />
  <path
     d="m 139.67873,269.07768 q -0.44195,-0.11642 -0.80312,-0.38425 -0.36117,-0.26783 -0.56351,-0.62106 -0.21687,-0.38433 -0.26641,-0.85182 -0.0464,-0.46213 0.10023,-1.01882 0.13657,-0.51845 0.37356,-0.96955 0.23273,-0.45221 0.47303,-0.74338 l 0.89666,0.2362 -0.0157,0.0595 q -0.31277,0.29025 -0.59313,0.71629 -0.27613,0.42715 -0.39479,0.8776 -0.0795,0.30172 -0.0684,0.60458 0.01,0.30711 0.16426,0.58406 0.13348,0.23512 0.36382,0.39578 0.22923,0.1649 0.56495,0.25333 0.32721,0.0862 0.58266,0.0308 0.25434,-0.0512 0.44293,-0.21507 0.21969,-0.17844 0.36739,-0.48036 0.15082,-0.29656 0.25381,-0.68752 0.0985,-0.37396 0.13934,-0.73585 0.0397,-0.35764 0.0547,-0.62181 l 3.25942,0.8586 -1.00301,3.80761 -0.74368,-0.1959 0.78696,-2.98744 -1.68282,-0.44329 q -0.0311,0.18721 -0.073,0.38068 -0.0417,0.19352 -0.0786,0.33376 -0.13545,0.5142 -0.32657,0.87739 -0.18687,0.36432 -0.49292,0.62908 -0.32328,0.2784 -0.74224,0.36799 -0.41896,0.0896 -0.97566,-0.0571 z"
     style="font-style:normal;font-size:medium;text-anchor:middle;fill:none;fill-opacity:1;stroke:#000000;stroke-width:0.25;stroke-linecap:butt;stroke-linejoin:bevel;stroke-dasharray:none;stroke-opacity:1"
     id="path990"
     inkscape:connector-curvature="0" />
  <path
     d="m 140.3849,272.59024 0.26755,-1.01565 1.21112,0.31903 -0.26754,1.01565 z m -3.53563,-0.93137 0.26754,-1.01565 1.21113,0.31904 -0.26755,1.01565 z"
     style="font-style:normal;font-size:medium;text-anchor:middle;fill:none;fill-opacity:1;stroke:#000000;stroke-width:0.25;stroke-linecap:butt;stroke-linejoin:bevel;stroke-dasharray:none;stroke-opacity:1"
     id="path992"
     inkscape:connector-curvature="0" />
  <path
     d="m 140.52769,279.5354 -4.62546,-4.2814 0.23956,-0.90941 4.78129,4.51787 0.94927,-3.60363 0.74368,0.1959 -1.14069,4.3303 z"
     style="font-style:normal;font-size:medium;text-anchor:middle;fill:none;fill-opacity:1;stroke:#000000;stroke-width:0.25;stroke-linecap:butt;stroke-linejoin:bevel;stroke-dasharray:none;stroke-opacity:1"
     id="path994"
     inkscape:connector-curvature="0" />
  <path
     d="m 197.43539,270.46241 -2.4688,0.59319 -2.22216,-9.24851 2.4688,-0.59318 0.16313,0.67892 -1.6427,0.39469 1.8959,7.89067 1.64271,-0.39469 z"
     style="font-style:normal;font-size:medium;text-anchor:middle;fill:none;fill-opacity:1;stroke:#000000;stroke-width:0.25;stroke-linecap:butt;stroke-linejoin:bevel;stroke-dasharray:none;stroke-opacity:1"
     id="path997"
     inkscape:connector-curvature="0" />
  <path
     d="m 202.95607,267.16741 -3.82664,0.91944 -0.17339,-0.72165 1.47178,-0.35363 -1.13846,-4.7382 -1.47178,0.35363 -0.15514,-0.64569 q 0.2991,-0.0719 0.62954,-0.20145 0.32929,-0.13434 0.48213,-0.27152 0.18988,-0.17116 0.26997,-0.38123 0.0837,-0.21596 0.0285,-0.52913 l 0.73589,-0.17681 1.53087,6.37141 1.4433,-0.34679 z"
     style="font-style:normal;font-size:medium;text-anchor:middle;fill:none;fill-opacity:1;stroke:#000000;stroke-width:0.25;stroke-linecap:butt;stroke-linejoin:bevel;stroke-dasharray:none;stroke-opacity:1"
     id="path999"
     inkscape:connector-curvature="0" />
  <path
     d="m 208.69127,262.04817 q 0.45743,1.90383 0.0737,2.94013 -0.38014,1.03041 -1.63353,1.33156 -1.27238,0.30572 -2.07784,-0.45489 -0.8007,-0.76175 -1.25015,-2.63234 -0.45288,-1.88483 -0.075,-2.92474 0.37672,-1.04466 1.63486,-1.34695 1.27238,-0.30572 2.07651,0.47028 0.80774,0.77011 1.25149,2.61695 z m -0.73075,2.45547 q 0.0738,-0.42449 0.006,-0.95568 -0.0638,-0.53708 -0.23943,-1.26822 -0.17339,-0.72165 -0.36288,-1.23855 -0.18473,-0.51806 -0.44463,-0.84732 -0.25401,-0.32564 -0.5881,-0.44121 -0.32935,-0.11672 -0.78038,-0.008 -0.44629,0.10723 -0.69616,0.36312 -0.24512,0.25474 -0.32591,0.67088 -0.077,0.39011 -0.003,0.96991 0.0788,0.57867 0.24076,1.25284 0.17796,0.74064 0.34996,1.2266 0.172,0.48596 0.4376,0.83895 0.24565,0.33268 0.57728,0.45888 0.33638,0.12508 0.81115,0.011 0.44628,-0.10723 0.69615,-0.36311 0.24987,-0.25589 0.32117,-0.66974 z"
     style="font-style:normal;font-size:medium;text-anchor:middle;fill:none;fill-opacity:1;stroke:#000000;stroke-width:0.25;stroke-linecap:butt;stroke-linejoin:bevel;stroke-dasharray:none;stroke-opacity:1"
     id="path1001"
     inkscape:connector-curvature="0" />
  <path
     d="m 213.91937,266.50177 -2.46879,0.59318 -0.16313,-0.67891 1.6427,-0.3947 -1.89591,-7.89067 -1.6427,0.3947 -0.16312,-0.67892 2.4688,-0.59318 z"
     style="font-style:normal;font-size:medium;text-anchor:middle;fill:none;fill-opacity:1;stroke:#000000;stroke-width:0.25;stroke-linecap:butt;stroke-linejoin:bevel;stroke-dasharray:none;stroke-opacity:1"
     id="path1003"
     inkscape:connector-curvature="0" />
  <path
     d="m 221.47682,262.71739 -2.79165,0.67076 -0.17339,-0.72166 0.9258,-0.22244 -1.35178,-5.62601 -0.9258,0.22244 -0.17339,-0.72165 2.79165,-0.67075 0.17339,0.72165 -0.9258,0.22244 1.35177,5.62601 0.9258,-0.22244 z"
     style="font-style:normal;font-size:medium;text-anchor:middle;fill:none;fill-opacity:1;stroke:#000000;stroke-width:0.25;stroke-linecap:butt;stroke-linejoin:bevel;stroke-dasharray:none;stroke-opacity:1"
     id="path1005"
     inkscape:connector-curvature="0" />
  <path
     d="m 230.70158,260.50094 -3.82665,0.91943 -0.17339,-0.72165 1.47179,-0.35363 -1.13845,-4.7382 -1.4718,0.35363 -0.15514,-0.64568 q 0.29911,-0.0719 0.62954,-0.20145 0.3293,-0.13435 0.48214,-0.27152 0.18988,-0.17117 0.26997,-0.38123 0.0837,-0.21596 0.0285,-0.52913 l 0.7359,-0.17682 1.53087,6.37141 1.44329,-0.34679 z"
     style="font-style:normal;font-size:medium;text-anchor:middle;fill:none;fill-opacity:1;stroke:#000000;stroke-width:0.25;stroke-linecap:butt;stroke-linejoin:bevel;stroke-dasharray:none;stroke-opacity:1"
     id="path1007"
     inkscape:connector-curvature="0" />
  <path
     d="m 236.43677,255.3817 q 0.45744,1.90382 0.0737,2.94012 -0.38014,1.03041 -1.63354,1.33156 -1.27237,0.30572 -2.07783,-0.45488 -0.80071,-0.76176 -1.25016,-2.63234 -0.45287,-1.88484 -0.075,-2.92474 0.37671,-1.04466 1.63485,-1.34696 1.27239,-0.30572 2.07651,0.47028 0.80774,0.77011 1.25148,2.61696 z m -0.73074,2.45547 q 0.0738,-0.42449 0.006,-0.95568 -0.0637,-0.53709 -0.23941,-1.26823 -0.17339,-0.72165 -0.3629,-1.23855 -0.18474,-0.51806 -0.44462,-0.84731 -0.25401,-0.32564 -0.5881,-0.44122 -0.32936,-0.11671 -0.78039,-0.008 -0.44628,0.10723 -0.69615,0.36311 -0.24512,0.25475 -0.32592,0.67088 -0.077,0.39011 -0.003,0.96992 0.0788,0.57867 0.24076,1.25284 0.17796,0.74064 0.34995,1.2266 0.17199,0.48596 0.43759,0.83895 0.24565,0.33268 0.57729,0.45888 0.33637,0.12508 0.81114,0.011 0.44629,-0.10723 0.69615,-0.36311 0.24988,-0.25589 0.32118,-0.66974 z"
     style="font-style:normal;font-size:medium;text-anchor:middle;fill:none;fill-opacity:1;stroke:#000000;stroke-width:0.25;stroke-linecap:butt;stroke-linejoin:bevel;stroke-dasharray:none;stroke-opacity:1"
     id="path1009"
     inkscape:connector-curvature="0" />
  <path
     inkscape:connector-curvature="0"
     style="fill:#e5e5e5;fill-opacity:1;stroke:#000000;stroke-width:0.25;stroke-linecap:butt;stroke-linejoin:bevel;stroke-dasharray:none;stroke-opacity:1"
     id="path830-8"
     d="m 199.31954,558.90324 -9.75998,2.18349 -25.69573,-106.94419 9.68657,-2.48899 z m 46.92413,-387.16606 0.34321,-9.99535 36.67227,0.68279 -0.0291,10.00119 z m 29.76433,388.59384 -0.34321,9.99533 -36.67226,-0.68276 0.0291,-10.00118 z m 3.73613,-200.67073 9.99533,0.34321 -0.84834,45.56532 -10.00119,-0.0291 z m 1.74893,-93.93787 9.99535,0.34321 -0.86861,46.65483 -10.0012,-0.0291 z m 1.73702,-93.29661 9.99533,0.34322 -1.73115,92.98247 -10.0012,-0.0291 z m -5.23493,281.17233 9.99536,0.34321 -1.98135,106.41876 -10.00116,-0.0291 z m -100.94683,-189.82036 -7.89873,-6.1347 69.00658,-91.78952 8.0875,5.88362 z m -18.88585,93.61883 -9.77147,-2.13147 9.3808,-46.50141 9.8336,1.82347 z m 15.38793,94.25694 -9.89466,1.45618 -7.8218,-47.91155 9.84404,-1.76626 z m 65.4712,107.98886 -0.3432,9.99533 -38.32122,-0.71345 -1.03764,-10.02105 z m 41.597,-246.95106 9.99536,0.34323 -0.86865,46.65481 -10.00118,-0.0291 z m -113.0132,-2.10415 -9.77145,-2.13149 9.38077,-46.50138 9.8336,1.82345 z m 111.28453,94.95255 9.99535,0.3432 -0.88893,47.74428 -10.0012,-0.0291 z m -113.21195,-2.10783 -9.89465,1.45618 -7.46488,-45.72522 9.84402,-1.76627 z"
     class="sticker" />
  <path
     class="arrow"
     d="m 186.43497,505.27839 7.38704,-12.05951 -4.95622,11.47545 9.62869,7.9711 z"
     id="path834"
     style="fill:#000000;stroke:#000000;stroke-width:0.25;stroke-linecap:butt;stroke-linejoin:bevel;stroke-dasharray:none;stroke-opacity:1"
     inkscape:connector-curvature="0" />
  <path
     inkscape:connector-curvature="0"
     id="path1012"
     style="font-style:normal;font-size:medium;text-anchor:middle;fill:none;fill-opacity:1;stroke:#000000;stroke-width:0.25;stroke-linecap:butt;stroke-linejoin:bevel;stroke-dasharray:none;stroke-opacity:1"
     d="m 198.17141,506.57229 -3.82663,0.91944 -0.1734,-0.72165 1.47179,-0.35363 -1.13846,-4.7382 -1.47178,0.35363 -0.15514,-0.64568 q 0.2991,-0.0719 0.62953,-0.20148 0.32928,-0.13436 0.48213,-0.27152 0.18988,-0.17117 0.26997,-0.38124 0.0837,-0.21596 0.0285,-0.52912 l 0.73589,-0.17682 1.53087,6.37141 1.4433,-0.34679 z" />
  <path
     d="m 186.05844,511.4161 0.82749,3.44397 -0.64948,0.15606 -0.31827,-1.3246 -4.26438,1.02461 0.31827,1.3246 -0.58112,0.13962 q -0.0647,-0.26919 -0.18133,-0.56657 -0.12092,-0.29636 -0.24437,-0.43393 -0.15404,-0.17088 -0.34311,-0.24296 -0.19436,-0.0753 -0.47621,-0.0257 l -0.15913,-0.6623 5.73426,-1.37779 -0.31211,-1.29897 z"
     style="font-style:normal;font-size:medium;text-anchor:middle;fill:none;fill-opacity:1;stroke:#000000;stroke-width:0.25;stroke-linecap:butt;stroke-linejoin:bevel;stroke-dasharray:none;stroke-opacity:1"
     id="path1015"
     inkscape:connector-curvature="0" />
  <path
     d="m 184.6324,505.48101 1.03488,4.3071 -0.89304,0.21458 q -0.49236,-0.35625 -0.98473,-0.71252 -0.49339,-0.36053 -0.9671,-0.65799 -0.99189,-0.62944 -1.53053,-0.82091 -0.54291,-0.19045 -1.08558,-0.0601 -0.49565,0.11909 -0.69434,0.51484 -0.20399,0.39251 -0.0633,0.9779 0.0934,0.38883 0.33898,0.80891 0.24556,0.42007 0.63127,0.78388 l 0.0103,0.0427 -0.89732,0.21559 q -0.22244,-0.26744 -0.4675,-0.74186 -0.24609,-0.47871 -0.36005,-0.953 -0.23511,-0.9785 0.10572,-1.64794 0.33656,-0.66842 1.14414,-0.86246 0.3632,-0.0873 0.70198,-0.0692 0.33349,0.0148 0.65862,0.12648 0.30496,0.10299 0.61575,0.26786 0.30976,0.16059 0.69868,0.40612 0.55851,0.3494 1.09857,0.73487 0.53579,0.38651 0.99635,0.72328 l -0.82235,-3.42261 z"
     style="font-style:normal;font-size:medium;text-anchor:middle;fill:none;fill-opacity:1;stroke:#000000;stroke-width:0.25;stroke-linecap:butt;stroke-linejoin:bevel;stroke-dasharray:none;stroke-opacity:1"
     id="path1017"
     inkscape:connector-curvature="0" />
  <path
     d="m 180.33813,503.25869 0.24537,1.02122 -1.21778,0.2926 -0.24537,-1.02122 z m 3.55507,-0.85419 0.24537,1.02123 -1.21778,0.2926 -0.24537,-1.02123 z"
     style="font-style:normal;font-size:medium;text-anchor:middle;fill:none;fill-opacity:1;stroke:#000000;stroke-width:0.25;stroke-linecap:butt;stroke-linejoin:bevel;stroke-dasharray:none;stroke-opacity:1"
     id="path1019"
     inkscape:connector-curvature="0" />
  <path
     d="m 182.42405,496.28996 0.82749,3.44397 -0.64949,0.15605 -0.31826,-1.3246 -4.26438,1.02461 0.31827,1.3246 -0.58112,0.13963 q -0.0647,-0.2692 -0.18133,-0.56658 -0.12092,-0.29636 -0.24437,-0.43392 -0.15405,-0.17088 -0.34311,-0.24297 -0.19436,-0.0753 -0.47621,-0.0257 l -0.15913,-0.6623 5.73426,-1.37778 -0.31211,-1.29897 z"
     style="font-style:normal;font-size:medium;text-anchor:middle;fill:none;fill-opacity:1;stroke:#000000;stroke-width:0.25;stroke-linecap:butt;stroke-linejoin:bevel;stroke-dasharray:none;stroke-opacity:1"
     id="path1021"
     inkscape:connector-curvature="0" />
  <path
     class="arrow"
     d="m 264.73688,172.08148 9.81212,10.18442 -9.85866,-7.68485 -10.13788,7.31255 z"
     id="path846"
     style="fill:#000000;stroke:#000000;stroke-width:0.25000003;stroke-linecap:butt;stroke-linejoin:bevel;stroke-dasharray:none;stroke-opacity:1"
     inkscape:connector-curvature="0" />
  <path
     inkscape:connector-curvature="0"
     id="path1024"
     style="font-style:normal;font-size:medium;text-anchor:middle;fill:none;fill-opacity:1;stroke:#000000;stroke-width:0.25;stroke-linecap:butt;stroke-linejoin:bevel;stroke-dasharray:none;stroke-opacity:1"
     d="m 267.9584,184.37948 -4.78568,1.14987 -0.23841,-0.99227 q 0.39584,-0.54707 0.79168,-1.09414 0.40059,-0.54821 0.7311,-1.07456 0.69938,-1.10209 0.91213,-1.70059 0.2116,-0.60323 0.0667,-1.20619 -0.13233,-0.55073 -0.57205,-0.7715 -0.43611,-0.22665 -1.08654,-0.0704 -0.43204,0.10381 -0.89879,0.37666 -0.46676,0.27284 -0.87098,0.7014 l -0.0475,0.0114 -0.23956,-0.99702 q 0.29716,-0.24716 0.82431,-0.51945 0.53189,-0.27343 1.05889,-0.40005 1.08722,-0.26123 1.83104,0.11747 0.74268,0.37395 0.95828,1.27126 0.097,0.40356 0.0769,0.77998 -0.0164,0.37054 -0.14054,0.7318 -0.11444,0.33884 -0.29762,0.68416 -0.17843,0.34418 -0.45124,0.77632 -0.38822,0.62057 -0.81653,1.22063 -0.42944,0.59532 -0.80364,1.10706 l 3.8029,-0.91373 z" />
  <path
     d="m 258.89134,170.17253 -3.54138,-0.0659 0.0124,-0.66785 1.36206,0.0254 0.0816,-4.38498 -1.36206,-0.0254 0.0111,-0.59755 q 0.27681,0.005 0.59398,-0.0328 0.31725,-0.0424 0.48145,-0.12729 0.20416,-0.10607 0.32151,-0.27092 0.12182,-0.16914 0.14471,-0.45441 l 0.68104,0.0127 -0.10979,5.89643 1.33571,0.0249 z"
     style="font-style:normal;font-size:medium;text-anchor:middle;fill:none;fill-opacity:1;stroke:#000000;stroke-width:0.25;stroke-linecap:butt;stroke-linejoin:bevel;stroke-dasharray:none;stroke-opacity:1"
     id="path1027"
     inkscape:connector-curvature="0" />
  <path
     d="m 265.17795,168.44795 -0.97102,-0.0181 -0.0343,1.84099 -0.8436,-0.0157 0.0343,-1.84099 -3.13276,-0.0583 0.0188,-1.01056 3.23662,-3.63178 0.80846,0.0151 -0.0744,3.99833 0.97102,0.0181 z m -1.80154,-0.73679 0.055,-2.95262 -2.59019,2.90542 z"
     style="font-style:normal;font-size:medium;text-anchor:middle;fill:none;fill-opacity:1;stroke:#000000;stroke-width:0.25;stroke-linecap:butt;stroke-linejoin:bevel;stroke-dasharray:none;stroke-opacity:1"
     id="path1029"
     inkscape:connector-curvature="0" />
  <path
     d="m 268.22586,166.68944 -1.05011,-0.0195 0.0233,-1.25223 1.05012,0.0196 z m -0.0681,3.65561 -1.05012,-0.0195 0.0233,-1.25222 1.05012,0.0195 z"
     style="font-style:normal;font-size:medium;text-anchor:middle;fill:none;fill-opacity:1;stroke:#000000;stroke-width:0.25;stroke-linecap:butt;stroke-linejoin:bevel;stroke-dasharray:none;stroke-opacity:1"
     id="path1031"
     inkscape:connector-curvature="0" />
  <path
     d="m 274.81876,170.46907 -4.42892,-0.0825 0.0171,-0.91829 q 0.46871,-0.38685 0.93742,-0.7737 0.4731,-0.38677 0.88021,-0.77037 0.85882,-0.80153 1.17969,-1.27465 0.32097,-0.47751 0.33136,-1.03551 0.009,-0.50968 -0.32352,-0.80157 -0.32853,-0.29621 -0.93048,-0.30742 -0.39983,-0.007 -0.86818,0.12448 -0.46836,0.13194 -0.91753,0.41366 l -0.0439,-8.1e-4 0.0172,-0.92269 q 0.31482,-0.14798 0.83565,-0.26574 0.52524,-0.11769 1.01294,-0.10861 1.00618,0.0187 1.56829,0.51708 0.56219,0.49395 0.54673,1.32436 -0.007,0.37348 -0.10969,0.69681 -0.0983,0.31903 -0.28818,0.60558 -0.17643,0.26923 -0.4142,0.52852 -0.23339,0.25937 -0.5689,0.57398 -0.47872,0.45259 -0.98771,0.87825 -0.50891,0.42127 -0.95075,0.78225 l 3.51941,0.0655 z"
     style="font-style:normal;font-size:medium;text-anchor:middle;fill:none;fill-opacity:1;stroke:#000000;stroke-width:0.25;stroke-linecap:butt;stroke-linejoin:bevel;stroke-dasharray:none;stroke-opacity:1"
     id="path1033"
     inkscape:connector-curvature="0" />
  <path
     class="arrow"
     d="m 257.5148,559.98671 -9.81212,-10.18441 9.85866,7.68484 10.13787,-7.31255 z"
     id="path858"
     style="fill:#000000;stroke:#000000;stroke-width:0.25;stroke-linecap:butt;stroke-linejoin:bevel;stroke-dasharray:none;stroke-opacity:1"
     inkscape:connector-curvature="0" />
  <path
     inkscape:connector-curvature="0"
     id="path1036"
     style="font-style:normal;font-size:medium;text-anchor:middle;fill:none;fill-opacity:1;stroke:#000000;stroke-width:0.25;stroke-linecap:butt;stroke-linejoin:bevel;stroke-dasharray:none;stroke-opacity:1"
     d="m 259.63152,551.03317 q 0.27694,0.14939 0.49827,0.42263 0.22133,0.27324 0.33882,0.76225 0.11636,0.48426 0.0377,0.93003 -0.0787,0.44576 -0.32493,0.82129 -0.27623,0.41789 -0.72171,0.69567 -0.44187,0.27189 -1.01634,0.40992 -0.58872,0.14145 -1.19266,0.13591 -0.6028,-8e-4 -1.0083,-0.0791 l -0.23842,-0.99227 0.0712,-0.0171 q 0.46743,0.16891 1.05562,0.21339 0.5882,0.0445 1.0962,-0.0776 0.2991,-0.0719 0.61223,-0.25256 0.31314,-0.18069 0.47526,-0.42554 0.1682,-0.26137 0.21219,-0.5381 0.0487,-0.27786 -0.0437,-0.66243 -0.0913,-0.37981 -0.27401,-0.59703 -0.17916,-0.22311 -0.42702,-0.31421 -0.24901,-0.0958 -0.56541,-0.0751 -0.31754,0.016 -0.66887,0.10045 l -0.4273,0.10267 -0.18936,-0.78812 0.33234,-0.0798 q 0.72165,-0.1734 1.07707,-0.57517 0.35904,-0.40766 0.21987,-0.98687 -0.0616,-0.25638 -0.21643,-0.42005 -0.15597,-0.16842 -0.38028,-0.24509 -0.23381,-0.0744 -0.47786,-0.066 -0.24404,0.008 -0.5384,0.0792 -0.45103,0.10837 -0.92025,0.39185 -0.46921,0.28348 -0.84952,0.68621 l -0.0475,0.0114 -0.23842,-0.99226 q 0.29716,-0.24717 0.82431,-0.51946 0.53075,-0.27817 1.05774,-0.4048 0.5175,-0.12434 0.93438,-0.12406 0.41687,2.7e-4 0.78516,0.13274 0.39659,0.14575 0.64982,0.42639 0.25324,0.28063 0.35704,0.71267 0.14145,0.58872 -0.17025,1.13064 -0.30811,0.53603 -0.8457,0.78572 l 0.016,0.0665 q 0.23701,-0.0168 0.56103,0.0359 0.32287,0.048 0.57037,0.17933 z" />
  <path
     d="m 260.03962,563.65807 q 0.0158,-0.848 0.68972,-1.39805 0.66954,-0.55013 1.67131,-0.53148 1.0633,0.0198 1.68578,0.5808 0.61808,0.56091 0.60213,1.4177 -0.0101,0.54483 -0.33468,0.97831 -0.32462,0.43788 -0.90502,0.6864 l -4.9e-4,0.0264 q 0.52201,0.29102 0.77064,0.62968 0.24423,0.33859 0.2349,0.83948 -0.0137,0.73815 -0.62925,1.21897 -0.6155,0.48082 -1.55137,0.46339 -0.97981,-0.0182 -1.55543,-0.49926 -0.57562,-0.48101 -0.56213,-1.20598 0.008,-0.44377 0.29309,-0.86921 0.28474,-0.42104 0.82529,-0.65272 l 4.9e-4,-0.0264 q -0.61023,-0.27508 -0.92816,-0.66779 -0.31795,-0.3927 -0.30682,-0.99025 z m 0.98186,3.21366 q -0.009,0.47013 0.35077,0.75373 0.35505,0.2879 0.91745,0.29838 0.55363,0.0103 0.91442,-0.2467 0.35641,-0.25708 0.36475,-0.70524 0.006,-0.31635 -0.16552,-0.5525 -0.17588,-0.23183 -0.53282,-0.41868 -0.1611,-0.0821 -0.46189,-0.21518 -0.3052,-0.13315 -0.59363,-0.22202 -0.44039,0.28189 -0.61316,0.59074 -0.17276,0.30885 -0.18037,0.71747 z m -0.0752,-3.28029 q -0.008,0.40423 0.16811,0.64924 0.17117,0.24932 0.68506,0.50502 0.2047,0.10053 0.4492,0.18857 0.2445,0.0881 0.65034,0.24506 0.39945,-0.20793 0.64798,-0.57251 0.24413,-0.36465 0.2528,-0.83039 0.011,-0.59317 -0.39038,-0.98742 -0.40142,-0.39426 -1.02973,-0.40596 -0.64149,-0.0119 -1.02989,0.31047 -0.39278,0.32234 -0.40349,0.89792 z"
     style="font-style:normal;font-size:medium;text-anchor:middle;fill:none;fill-opacity:1;stroke:#000000;stroke-width:0.25;stroke-linecap:butt;stroke-linejoin:bevel;stroke-dasharray:none;stroke-opacity:1"
     id="path1039"
     inkscape:connector-curvature="0" />
  <path
     d="m 256.89033,565.43228 1.0501,0.0195 -0.0233,1.25222 -1.05011,-0.0196 z m 0.0681,-3.65562 1.0501,0.0195 -0.0233,1.25222 -1.05011,-0.0196 z"
     style="font-style:normal;font-size:medium;text-anchor:middle;fill:none;fill-opacity:1;stroke:#000000;stroke-width:0.25;stroke-linecap:butt;stroke-linejoin:bevel;stroke-dasharray:none;stroke-opacity:1"
     id="path1041"
     inkscape:connector-curvature="0" />
  <path
     d="m 250.81436,564.8137 q -0.20738,-0.19286 -0.33827,-0.48099 -0.13089,-0.28814 -0.12246,-0.7407 0.008,-0.44816 0.17786,-0.8186 0.16952,-0.37045 0.46906,-0.64177 0.33525,-0.30143 0.78621,-0.44247 0.44646,-0.13673 0.97811,-0.12684 0.54482,0.0102 1.06963,0.15177 0.52488,0.13723 0.86033,0.29732 l -0.0171,0.9183 -0.0659,-0.001 q -0.36889,-0.25301 -0.87114,-0.42498 -0.50226,-0.17198 -0.9724,-0.18073 -0.2768,-0.005 -0.59048,0.0813 -0.31368,0.0865 -0.51036,0.26302 -0.20571,0.18956 -0.30671,0.42063 -0.10539,0.23099 -0.11201,0.58688 -0.007,0.3515 0.10344,0.5821 0.1055,0.23492 0.30078,0.37042 0.19518,0.13988 0.47548,0.19345 0.28022,0.0579 0.60535,0.064 l 0.39544,0.007 -0.0136,0.72937 -0.30756,-0.006 q -0.66785,-0.0124 -1.06844,0.25702 -0.40507,0.27375 -0.41505,0.80979 -0.004,0.23727 0.0934,0.4149 0.0977,0.18202 0.27572,0.29962 0.18681,0.11775 0.40128,0.16569 0.21448,0.0479 0.48689,0.053 0.41741,0.008 0.89033,-0.13286 0.47291,-0.14065 0.89539,-0.40529 l 0.0439,8.2e-4 -0.0171,0.9183 q -0.31483,0.14798 -0.83566,0.26574 -0.52531,0.12207 -1.01302,0.11299 -0.47893,-0.009 -0.84197,-0.10359 -0.36305,-0.0947 -0.65383,-0.29347 -0.31243,-0.21678 -0.46943,-0.51859 -0.157,-0.3018 -0.14956,-0.70163 0.0101,-0.54483 0.40439,-0.94626 0.38979,-0.3971 0.91462,-0.49282 l 0.001,-0.0615 q -0.21025,-0.0391 -0.48053,-0.15838 -0.27037,-0.11491 -0.4562,-0.28539 z"
     style="font-style:normal;font-size:medium;text-anchor:middle;fill:none;fill-opacity:1;stroke:#000000;stroke-width:0.25;stroke-linecap:butt;stroke-linejoin:bevel;stroke-dasharray:none;stroke-opacity:1"
     id="path1043"
     inkscape:connector-curvature="0" />
  <path
     class="arrow"
     d="m 282.36155,219.07412 -10.18442,9.81212 7.68485,-9.85866 -7.31255,-10.13788 z"
     id="path870-3"
     style="fill:#000000;stroke:#000000;stroke-width:0.24999999;stroke-linecap:butt;stroke-linejoin:bevel;stroke-dasharray:none;stroke-opacity:1"
     inkscape:connector-curvature="0" />
  <path
     inkscape:connector-curvature="0"
     id="path1046"
     style="font-style:normal;font-size:medium;text-anchor:middle;fill:none;fill-opacity:1;stroke:#000000;stroke-width:0.25;stroke-linecap:butt;stroke-linejoin:bevel;stroke-dasharray:none;stroke-opacity:1"
     d="m 276.4356,220.17806 -1.04924,0.25211 0.47797,1.98928 -0.91156,0.21902 -0.47797,-1.98928 -3.3851,0.81334 -0.26237,-1.09196 2.46487,-4.81054 0.87357,-0.20989 1.03807,4.3204 1.04924,-0.25211 z m -2.14331,-0.2885 -0.76658,-3.19045 -1.97284,3.84865 z" />
  <path
     d="m 284.26375,213.60226 0.0824,-4.42892 0.9183,0.0171 q 0.38685,0.4687 0.7737,0.93741 0.38677,0.4731 0.77037,0.88022 0.80154,0.85881 1.27465,1.17969 0.47751,0.32096 1.03551,0.33135 0.50968,0.009 0.80157,-0.32352 0.29621,-0.32853 0.30741,-0.93047 0.007,-0.39984 -0.12448,-0.86819 -0.13193,-0.46836 -0.41366,-0.91753 l 8.2e-4,-0.0439 0.9227,0.0172 q 0.14796,0.31482 0.26574,0.83566 0.11768,0.52523 0.1086,1.01294 -0.0187,1.00617 -0.51708,1.56828 -0.49394,0.56219 -1.32437,0.54673 -0.37347,-0.007 -0.69681,-0.10969 -0.31902,-0.0983 -0.60558,-0.28817 -0.26922,-0.17643 -0.52851,-0.41421 -0.25938,-0.23339 -0.57399,-0.56889 -0.45258,-0.47872 -0.87824,-0.98771 -0.42127,-0.5089 -0.78225,-0.95076 l -0.0655,3.51941 z"
     style="font-style:normal;font-size:medium;text-anchor:middle;fill:none;fill-opacity:1;stroke:#000000;stroke-width:0.25;stroke-linecap:butt;stroke-linejoin:bevel;stroke-dasharray:none;stroke-opacity:1"
     id="path1049"
     inkscape:connector-curvature="0" />
  <path
     d="m 287.4306,219.3839 q -1.7619,-0.0328 -2.57762,-0.6018 -0.81141,-0.56452 -0.78982,-1.72448 0.0219,-1.17753 0.86688,-1.70681 0.84488,-0.52489 2.57603,-0.49266 1.74433,0.0325 2.56452,0.59716 0.82459,0.56475 0.80291,1.7291 -0.0219,1.17754 -0.87998,1.70218 -0.85374,0.52913 -2.56292,0.49731 z m -1.97326,-1.19271 q 0.35304,0.16041 0.83097,0.22205 0.48226,0.0661 1.1589,0.0787 0.66784,0.0124 1.16101,-0.0355 0.49309,-0.0435 0.83874,-0.19537 0.34119,-0.14748 0.51754,-0.41231 0.17626,-0.26044 0.18403,-0.67785 0.008,-0.413 -0.15859,-0.68861 -0.16637,-0.27121 -0.51054,-0.43585 -0.32235,-0.15544 -0.84415,-0.2223 -0.52187,-0.0624 -1.14579,-0.074 -0.68543,-0.0128 -1.14768,0.0269 -0.46224,0.0397 -0.82987,0.19113 -0.34541,0.13861 -0.53046,0.39888 -0.18513,0.26467 -0.19331,0.70405 -0.008,0.41302 0.15859,0.68862 0.16628,0.2756 0.51061,0.43145 z"
     style="font-style:normal;font-size:medium;text-anchor:middle;fill:none;fill-opacity:1;stroke:#000000;stroke-width:0.25;stroke-linecap:butt;stroke-linejoin:bevel;stroke-dasharray:none;stroke-opacity:1"
     id="path1051"
     inkscape:connector-curvature="0" />
  <path
     d="m 287.7538,222.56331 0.0195,-1.05012 1.25222,0.0233 -0.0196,1.05012 z m -3.65562,-0.0681 0.0195,-1.05011 1.25222,0.0233 -0.0196,1.05012 z"
     style="font-style:normal;font-size:medium;text-anchor:middle;fill:none;fill-opacity:1;stroke:#000000;stroke-width:0.25;stroke-linecap:butt;stroke-linejoin:bevel;stroke-dasharray:none;stroke-opacity:1"
     id="path1053"
     inkscape:connector-curvature="0" />
  <path
     d="m 285.81238,229.33987 0.0181,-0.97102 -1.84099,-0.0343 0.0157,-0.8436 1.84099,0.0343 0.0583,-3.13275 1.01056,0.0188 3.63179,3.23662 -0.015,0.80845 -3.99834,-0.0744 -0.0181,0.97103 z m 0.73678,-1.80154 2.95262,0.055 -2.90542,-2.59017 z"
     style="font-style:normal;font-size:medium;text-anchor:middle;fill:none;fill-opacity:1;stroke:#000000;stroke-width:0.25;stroke-linecap:butt;stroke-linejoin:bevel;stroke-dasharray:none;stroke-opacity:1"
     id="path1055"
     inkscape:connector-curvature="0" />
  <path
     class="arrow"
     d="m 277.00158,506.96457 -10.18442,9.81212 7.68485,-9.85866 -7.31255,-10.13788 z"
     id="path882-4"
     style="fill:#000000;stroke:#000000;stroke-width:0.25;stroke-linecap:butt;stroke-linejoin:bevel;stroke-dasharray:none;stroke-opacity:1"
     inkscape:connector-curvature="0" />
  <path
     inkscape:connector-curvature="0"
     id="path1058"
     style="font-style:normal;font-size:medium;text-anchor:middle;fill:none;fill-opacity:1;stroke:#000000;stroke-width:0.25;stroke-linecap:butt;stroke-linejoin:bevel;stroke-dasharray:none;stroke-opacity:1"
     d="m 270.79564,507.86463 q 0.11864,0.49376 0.0466,0.98814 -0.072,0.49438 -0.31124,0.87826 -0.26199,0.41448 -0.69341,0.70896 -0.42781,0.2886 -1.04976,0.43804 -0.57922,0.13917 -1.14536,0.14463 -0.56501,0.0102 -0.9764,-0.0717 l -0.24069,-1.00176 0.0665,-0.016 q 0.44863,0.15334 1.01309,0.20352 0.56331,0.0454 1.06656,-0.0755 0.33709,-0.081 0.62762,-0.25124 0.29528,-0.17138 0.48513,-0.46808 0.15984,-0.25435 0.19585,-0.5643 0.0408,-0.3111 -0.0494,-0.68617 -0.0878,-0.36557 -0.27648,-0.5864 -0.1839,-0.22197 -0.44355,-0.32028 -0.29022,-0.12109 -0.66341,-0.10675 -0.36958,0.008 -0.80637,0.1134 -0.4178,0.10038 -0.79342,0.25089 -0.37087,0.14938 -0.6373,0.27365 l -0.87495,-3.64148 4.25394,-1.0221 0.19963,0.83085 -3.33763,0.80194 0.45173,1.88008 q 0.19959,-0.068 0.41095,-0.12887 0.21137,-0.0608 0.36804,-0.0985 0.57447,-0.13803 1.03047,-0.14213 0.45485,-0.009 0.87499,0.15133 0.44256,0.16986 0.7507,0.53272 0.30815,0.36286 0.45758,0.9848 z" />
  <path
     d="m 278.9037,501.49266 0.0825,-4.42893 0.91829,0.0171 q 0.38686,0.4687 0.77371,0.93742 0.38677,0.4731 0.77037,0.88021 0.80153,0.85882 1.27465,1.17969 0.4775,0.32097 1.03551,0.33135 0.50968,0.009 0.80157,-0.32351 0.29621,-0.32853 0.30741,-0.93048 0.007,-0.39983 -0.12448,-0.86819 -0.13193,-0.46835 -0.41366,-0.91753 l 8.2e-4,-0.0439 0.92269,0.0172 q 0.14797,0.31482 0.26574,0.83565 0.11769,0.52523 0.10861,1.01294 -0.0187,1.00618 -0.51708,1.56829 -0.49395,0.56219 -1.32437,0.54673 -0.37347,-0.007 -0.69681,-0.10969 -0.31902,-0.0983 -0.60558,-0.28819 -0.26922,-0.17642 -0.52852,-0.4142 -0.25937,-0.23339 -0.57398,-0.56889 -0.45258,-0.47872 -0.87824,-0.98771 -0.42127,-0.50891 -0.78225,-0.95076 l -0.0655,3.51941 z"
     style="font-style:normal;font-size:medium;text-anchor:middle;fill:none;fill-opacity:1;stroke:#000000;stroke-width:0.25;stroke-linecap:butt;stroke-linejoin:bevel;stroke-dasharray:none;stroke-opacity:1"
     id="path1061"
     inkscape:connector-curvature="0" />
  <path
     d="m 282.07055,507.27428 q -1.7619,-0.0328 -2.57763,-0.6018 -0.8114,-0.56451 -0.7898,-1.72447 0.0219,-1.17753 0.86688,-1.70682 0.84488,-0.52488 2.57602,-0.49265 1.74432,0.0325 2.56453,0.59715 0.82458,0.56477 0.80291,1.72912 -0.0219,1.17753 -0.87998,1.70217 -0.85375,0.52912 -2.56293,0.4973 z m -1.97325,-1.1927 q 0.35302,0.16041 0.83097,0.22206 0.48225,0.0661 1.15888,0.0787 0.66786,0.0124 1.16102,-0.0355 0.49309,-0.0435 0.83875,-0.19536 0.34118,-0.14749 0.51753,-0.41232 0.17626,-0.26043 0.18403,-0.67784 0.008,-0.41301 -0.15859,-0.68862 -0.16637,-0.27121 -0.51053,-0.43585 -0.32235,-0.15544 -0.84415,-0.22229 -0.52188,-0.0624 -1.1458,-0.074 -0.68542,-0.0128 -1.14767,0.0269 -0.46224,0.0397 -0.82987,0.19112 -0.34541,0.13861 -0.53047,0.39888 -0.18514,0.26467 -0.19332,0.70405 -0.008,0.41302 0.1586,0.68862 0.16629,0.2756 0.51062,0.43145 z"
     style="font-style:normal;font-size:medium;text-anchor:middle;fill:none;fill-opacity:1;stroke:#000000;stroke-width:0.25;stroke-linecap:butt;stroke-linejoin:bevel;stroke-dasharray:none;stroke-opacity:1"
     id="path1063"
     inkscape:connector-curvature="0" />
  <path
     d="m 282.39375,510.45371 0.0195,-1.05012 1.25222,0.0233 -0.0196,1.05012 z m -3.65562,-0.0681 0.0195,-1.05011 1.25222,0.0233 -0.0196,1.05012 z"
     style="font-style:normal;font-size:medium;text-anchor:middle;fill:none;fill-opacity:1;stroke:#000000;stroke-width:0.25;stroke-linecap:butt;stroke-linejoin:bevel;stroke-dasharray:none;stroke-opacity:1"
     id="path1065"
     inkscape:connector-curvature="0" />
  <path
     d="m 280.69334,517.03256 q -0.45695,-0.009 -0.87125,-0.18324 -0.41429,-0.17473 -0.6945,-0.47004 -0.30166,-0.32208 -0.46045,-0.76456 -0.15447,-0.43801 -0.14375,-1.01359 0.01,-0.53605 0.13346,-1.03042 0.11909,-0.49445 0.28364,-0.83421 l 0.92709,0.0173 -0.001,0.0615 q -0.23519,0.35603 -0.40676,0.83632 -0.16717,0.48037 -0.17584,0.94611 -0.006,0.31196 0.0767,0.60358 0.0824,0.29602 0.29784,0.52859 0.18532,0.19684 0.44716,0.29842 0.26174,0.10596 0.60885,0.11242 0.33831,0.006 0.57339,-0.108 0.235,-0.1099 0.37945,-0.31379 0.17121,-0.22537 0.24326,-0.55367 0.0763,-0.32383 0.0839,-0.72806 0.007,-0.38665 -0.0388,-0.74792 -0.0461,-0.35688 -0.094,-0.61709 l 3.37002,0.0627 -0.0733,3.93681 -0.76891,-0.0143 0.0575,-3.08883 -1.73993,-0.0324 q 0.0141,0.18926 0.0192,0.38714 0.005,0.19789 0.003,0.34288 -0.01,0.53165 -0.10963,0.92976 -0.0953,0.39821 -0.33002,0.72788 -0.2482,0.34699 -0.63405,0.5332 -0.38586,0.18621 -0.96145,0.1755 z"
     style="font-style:normal;font-size:medium;text-anchor:middle;fill:none;fill-opacity:1;stroke:#000000;stroke-width:0.25;stroke-linecap:butt;stroke-linejoin:bevel;stroke-dasharray:none;stroke-opacity:1"
     id="path1067"
     inkscape:connector-curvature="0" />
  <path
     d="m 206.67394,221.37569 -2.12844,2.83115 -0.53391,-0.40139 0.81863,-1.08891 -3.50558,-2.63546 -0.81863,1.08891 -0.47772,-0.35915 q 0.16637,-0.22129 0.32141,-0.50058 0.15153,-0.28193 0.17895,-0.46473 0.0337,-0.22761 -0.0312,-0.41928 -0.0657,-0.19783 -0.28345,-0.38353 l 0.40932,-0.54445 4.71391,3.54388 0.80279,-1.06783 z"
     style="font-style:normal;font-size:medium;text-anchor:middle;fill:none;fill-opacity:1;stroke:#000000;stroke-width:0.25;stroke-linecap:butt;stroke-linejoin:bevel;stroke-dasharray:none;stroke-opacity:1"
     id="path1070"
     inkscape:connector-curvature="0" />
  <path
     d="m 210.34194,216.49668 -2.66187,3.5407 -0.73414,-0.55191 q -0.0388,-0.60649 -0.0777,-1.21298 -0.0362,-0.61 -0.10853,-1.16467 -0.14632,-1.16561 -0.3417,-1.70284 -0.1989,-0.53988 -0.64499,-0.87525 -0.40747,-0.30633 -0.83912,-0.2075 -0.43253,0.0927 -0.79431,0.57389 -0.24031,0.31965 -0.40783,0.77648 -0.16751,0.45685 -0.20239,0.98591 l -0.0264,0.0351 -0.73766,-0.55456 q 0.0646,-0.34182 0.2743,-0.83289 0.21238,-0.49458 0.50551,-0.88448 0.60473,-0.80439 1.33793,-0.9679 0.72967,-0.16616 1.39356,0.33294 0.29857,0.22447 0.5004,0.49716 0.20097,0.26653 0.32189,0.58835 0.11479,0.30072 0.18559,0.64533 0.0734,0.34111 0.1318,0.79733 0.0863,0.65312 0.13297,1.31499 0.0432,0.65923 0.0768,1.2288 l 2.11523,-2.81359 z"
     style="font-style:normal;font-size:medium;text-anchor:middle;fill:none;fill-opacity:1;stroke:#000000;stroke-width:0.25;stroke-linecap:butt;stroke-linejoin:bevel;stroke-dasharray:none;stroke-opacity:1"
     id="path1072"
     inkscape:connector-curvature="0" />
  <path
     d="m 209.32079,211.77051 -0.63114,0.83951 -1.00109,-0.75261 0.63114,-0.83951 z m 2.92248,2.1971 -0.63114,0.83951 -1.00109,-0.75261 0.63114,-0.83951 z"
     style="font-style:normal;font-size:medium;text-anchor:middle;fill:none;fill-opacity:1;stroke:#000000;stroke-width:0.25;stroke-linecap:butt;stroke-linejoin:bevel;stroke-dasharray:none;stroke-opacity:1"
     id="path1074"
     inkscape:connector-curvature="0" />
  <path
     d="m 216.24664,208.6425 -2.66187,3.54071 -0.73414,-0.55192 q -0.0388,-0.60649 -0.0777,-1.21298 -0.0362,-0.61 -0.10853,-1.16467 -0.14633,-1.16561 -0.34171,-1.70284 -0.19889,-0.53988 -0.64499,-0.87525 -0.40746,-0.30633 -0.83912,-0.2075 -0.43252,0.0927 -0.79431,0.57389 -0.2403,0.31965 -0.40782,0.77649 -0.16752,0.45684 -0.2024,0.9859 l -0.0264,0.0351 -0.73765,-0.55456 q 0.0646,-0.34182 0.27429,-0.83289 0.21239,-0.49458 0.50551,-0.88448 0.60473,-0.80439 1.33793,-0.9679 0.72968,-0.16616 1.39356,0.33294 0.29858,0.22447 0.50041,0.49716 0.20097,0.26653 0.32188,0.58836 0.1148,0.30071 0.18559,0.64533 0.0734,0.3411 0.13181,0.79732 0.0863,0.65312 0.13296,1.31499 0.0432,0.65923 0.0768,1.22881 l 2.11524,-2.8136 z"
     style="font-style:normal;font-size:medium;text-anchor:middle;fill:none;fill-opacity:1;stroke:#000000;stroke-width:0.25;stroke-linecap:butt;stroke-linejoin:bevel;stroke-dasharray:none;stroke-opacity:1"
     id="path1076"
     inkscape:connector-curvature="0" />
  <path
     class="arrow"
     d="m 219.17058,559.27283 -9.81212,-10.18441 9.85866,7.68484 10.13787,-7.31255 z"
     id="path898"
     style="fill:#000000;stroke:#000000;stroke-width:0.24999999;stroke-linecap:butt;stroke-linejoin:bevel;stroke-dasharray:none;stroke-opacity:1"
     inkscape:connector-curvature="0" />
  <path
     inkscape:connector-curvature="0"
     id="path1079"
     style="font-style:normal;font-size:medium;text-anchor:middle;fill:none;fill-opacity:1;stroke:#000000;stroke-width:0.25;stroke-linecap:butt;stroke-linejoin:bevel;stroke-dasharray:none;stroke-opacity:1"
     d="m 220.51449,551.68007 q 0.25895,1.07773 -0.28894,1.93251 -0.54428,0.84889 -1.57453,1.09643 -0.52224,0.12548 -0.98832,0.0667 -0.46608,-0.0587 -0.8701,-0.29813 -0.50298,-0.29596 -0.8824,-0.89278 -0.37468,-0.59796 -0.59484,-1.51426 -0.22587,-0.94005 -0.201,-1.71435 0.0296,-0.77545 0.33541,-1.44652 0.28889,-0.63687 0.87695,-1.09454 0.58693,-0.46241 1.46525,-0.67345 0.28011,-0.0673 0.47572,-0.0892 0.19562,-0.0219 0.4051,-0.007 l 0.21788,0.9068 -0.0475,0.0114 q -0.15004,-0.0393 -0.43549,-0.036 -0.28184,-0.003 -0.56195,0.0647 -1.02076,0.24526 -1.47446,1.03221 -0.45485,0.7822 -0.29332,1.89338 0.34063,-0.33795 0.69553,-0.55379 0.35851,-0.22173 0.86652,-0.34379 0.45103,-0.10837 0.81339,-0.10505 0.36598,-0.003 0.78726,0.16237 0.48738,0.18923 0.80237,0.58057 0.31973,0.3902 0.47145,1.02164 z m -0.95465,0.26956 q -0.10609,-0.44154 -0.30861,-0.69921 -0.19777,-0.25881 -0.54821,-0.40059 -0.2549,-0.0995 -0.53218,-0.083 -0.27728,0.0164 -0.56689,0.086 -0.40355,0.097 -0.72732,0.27519 -0.32376,0.17823 -0.64142,0.46547 0.0156,0.10673 0.0348,0.20758 0.0181,0.0961 0.0534,0.24327 0.18023,0.75013 0.43711,1.15042 0.26048,0.39439 0.59156,0.581 0.26858,0.15642 0.54417,0.19567 0.27919,0.0334 0.57829,-0.0385 0.68842,-0.1654 0.98209,-0.67788 0.29253,-0.51723 0.10317,-1.30535 z" />
  <path
     inkscape:connector-curvature="0"
     id="path1081"
     style="font-style:normal;font-size:medium;text-anchor:middle;fill:none;fill-opacity:1;stroke:#000000;stroke-width:0.25;stroke-linecap:butt;stroke-linejoin:bevel;stroke-dasharray:none;stroke-opacity:1"
     d="m 223.93782,553.28306 -1.1347,0.27264 -0.32511,-1.35309 1.1347,-0.27264 z" />
  <path
     d="m 223.32987,562.97462 q 0.0158,-0.848 0.68972,-1.39805 0.66954,-0.55013 1.67132,-0.53148 1.06329,0.0198 1.68577,0.5808 0.61808,0.56091 0.60213,1.4177 -0.0101,0.54483 -0.33468,0.97831 -0.32461,0.43788 -0.90502,0.6864 l -4.9e-4,0.0264 q 0.52201,0.29102 0.77064,0.62968 0.24423,0.33859 0.2349,0.83948 -0.0137,0.73815 -0.62925,1.21897 -0.6155,0.48082 -1.55137,0.46339 -0.97981,-0.0182 -1.55543,-0.49926 -0.57562,-0.48101 -0.56212,-1.20598 0.008,-0.44377 0.29309,-0.86921 0.28473,-0.42104 0.82528,-0.65272 l 4.9e-4,-0.0264 q -0.61023,-0.27508 -0.92816,-0.66778 -0.31795,-0.39271 -0.30682,-0.99026 z m 0.98186,3.21366 q -0.009,0.47013 0.35077,0.75373 0.35505,0.2879 0.91745,0.29838 0.55362,0.0103 0.91443,-0.2467 0.3564,-0.25708 0.36475,-0.70524 0.006,-0.31635 -0.16553,-0.5525 -0.17588,-0.23183 -0.53282,-0.41868 -0.1611,-0.0821 -0.46189,-0.21518 -0.3052,-0.13315 -0.59363,-0.22202 -0.44039,0.28189 -0.61315,0.59074 -0.17277,0.30885 -0.18038,0.71747 z m -0.0752,-3.28029 q -0.008,0.40423 0.16811,0.64924 0.17117,0.24932 0.68506,0.50502 0.2047,0.10053 0.4492,0.18857 0.2445,0.0881 0.65034,0.24506 0.39945,-0.20793 0.64798,-0.57251 0.24413,-0.36465 0.2528,-0.83039 0.011,-0.59317 -0.39038,-0.98742 -0.40142,-0.39426 -1.02973,-0.40596 -0.64149,-0.0119 -1.02989,0.31047 -0.39278,0.32234 -0.40349,0.89792 z"
     style="font-style:normal;font-size:medium;text-anchor:middle;fill:none;fill-opacity:1;stroke:#000000;stroke-width:0.25;stroke-linecap:butt;stroke-linejoin:bevel;stroke-dasharray:none;stroke-opacity:1"
     id="path1084"
     inkscape:connector-curvature="0" />
  <path
     d="m 220.18058,564.74883 1.05011,0.0195 -0.0233,1.25222 -1.05011,-0.0195 z m 0.0681,-3.65562 1.05011,0.0195 -0.0233,1.25222 -1.05011,-0.0195 z"
     style="font-style:normal;font-size:medium;text-anchor:middle;fill:none;fill-opacity:1;stroke:#000000;stroke-width:0.25;stroke-linecap:butt;stroke-linejoin:bevel;stroke-dasharray:none;stroke-opacity:1"
     id="path1086"
     inkscape:connector-curvature="0" />
  <path
     d="m 213.45151,563.08958 q 0.0186,-0.99737 0.68941,-1.61782 0.66638,-0.61611 1.61982,-0.59836 0.48332,0.009 0.87597,0.16575 0.39266,0.15674 0.69035,0.45678 0.37108,0.37171 0.56638,0.9775 0.19091,0.60572 0.17512,1.45371 -0.0162,0.86997 -0.21325,1.53878 -0.20146,0.66872 -0.61981,1.18398 -0.3959,0.48929 -1.01178,0.75473 -0.61597,0.26983 -1.42882,0.2547 -0.25923,-0.005 -0.43458,-0.0301 -0.17534,-0.0253 -0.35441,-0.0857 l 0.0156,-0.83921 0.0439,8.2e-4 q 0.12181,0.0682 0.37119,0.12998 0.2449,0.0661 0.50414,0.0709 0.94465,0.0176 1.5181,-0.56509 0.57336,-0.5783 0.68437,-1.58276 -0.37325,0.21722 -0.73127,0.32482 -0.3625,0.11194 -0.83264,0.10318 -0.41741,-0.008 -0.73228,-0.0927 -0.31935,-0.0807 -0.64895,-0.31975 -0.38166,-0.27522 -0.56738,-0.68744 -0.19011,-0.4123 -0.17923,-0.99668 z m 0.89259,-0.0186 q -0.008,0.40862 0.11043,0.67894 0.11364,0.27022 0.38677,0.4731 0.19949,0.14436 0.44473,0.19288 0.24523,0.0485 0.51325,0.0535 0.37347,0.007 0.69585,-0.075 0.32238,-0.0819 0.66413,-0.26014 0.0108,-0.0965 0.0167,-0.18868 0.006,-0.0878 0.008,-0.22402 0.0129,-0.69421 -0.12014,-1.10105 -0.13756,-0.40253 -0.38367,-0.64007 -0.19851,-0.19709 -0.42966,-0.2937 -0.23563,-0.0923 -0.51244,-0.0974 -0.6371,-0.0119 -1.00897,0.368 -0.37197,0.38426 -0.38555,1.11363 z"
     style="font-style:normal;font-size:medium;text-anchor:middle;fill:none;fill-opacity:1;stroke:#000000;stroke-width:0.25;stroke-linecap:butt;stroke-linejoin:bevel;stroke-dasharray:none;stroke-opacity:1"
     id="path1088"
     inkscape:connector-curvature="0" />
  <path
     d="m 210.83279,560.91791 1.05011,0.0195 -0.0233,1.25222 -1.0501,-0.0195 z"
     style="font-style:normal;font-size:medium;text-anchor:middle;fill:none;fill-opacity:1;stroke:#000000;stroke-width:0.25;stroke-linecap:butt;stroke-linejoin:bevel;stroke-dasharray:none;stroke-opacity:1"
     id="path1090"
     inkscape:connector-curvature="0" />
</svg>
