<?xml version="1.0" encoding="UTF-8" standalone="no"?>
<svg
   xmlns:dc="http://purl.org/dc/elements/1.1/"
   xmlns:cc="http://creativecommons.org/ns#"
   xmlns:rdf="http://www.w3.org/1999/02/22-rdf-syntax-ns#"
   xmlns:svg="http://www.w3.org/2000/svg"
   xmlns="http://www.w3.org/2000/svg"
   xmlns:sodipodi="http://sodipodi.sourceforge.net/DTD/sodipodi-0.dtd"
   xmlns:inkscape="http://www.inkscape.org/namespaces/inkscape"
   version="1.1"
   width="320.00mm"
   height="620.00mm"
   viewBox="0 0 320.00 620.00"
   id="svg934"
   sodipodi:docname="backrest_page2.svg"
   inkscape:version="0.92.2 (5c3e80d, 2017-08-06)">
  <metadata
     id="metadata60">
    <rdf:RDF>
      <cc:Work
         rdf:about="">
        <dc:format>image/svg+xml</dc:format>
        <dc:type
           rdf:resource="http://purl.org/dc/dcmitype/StillImage" />
      </cc:Work>
    </rdf:RDF>
  </metadata>
  <defs
     id="defs938" />
  <sodipodi:namedview
     id="namedview936"
     pagecolor="#ffffff"
     bordercolor="#666666"
     borderopacity="1.0"
     inkscape:pageshadow="2"
     inkscape:pageopacity="0.0"
     inkscape:pagecheckerboard="0"
     inkscape:document-units="mm"
     showgrid="false"
     inkscape:zoom="0.23989595"
     inkscape:cx="2051.2141"
     inkscape:cy="505.95275"
     inkscape:window-width="1920"
     inkscape:window-height="1017"
     inkscape:window-x="-8"
     inkscape:window-y="-8"
     inkscape:window-maximized="1"
     inkscape:current-layer="g932" />
  <style
     type="text/css"
     id="style824">
    path {
        fill: none;
        stroke-linecap: butt;
        stroke-linejoin: bevel;
        stroke-dasharray: none;
    }
    path.outer {
        stroke: #000000;
        stroke-dasharray: none;
        stroke-dashoffset: 0;
        stroke-width: 0.3;
        stroke-opacity: 1.0;
    }
    path.convex {
        stroke: #000000;
        stroke-dasharray: 0.50,1.00;
        stroke-dashoffset:0;
        stroke-width:0.2;
        stroke-opacity: 1.0
    }
    path.concave {
        stroke: #000000;
        stroke-dasharray: 1.00,0.50,0.20,0.50;
        stroke-dashoffset: 0;
        stroke-width: 0.2;
        stroke-opacity: 1.0
    }
    path.freestyle {
        stroke: #000000;
        stroke-dasharray: none;
        stroke-dashoffset: 0;
        stroke-width: 0.2;
        stroke-opacity: 1.0
    }
    path.outer_background {
        stroke: #ffffff;
        stroke-opacity: 1.0;
        stroke-width: 0.5
    }
    path.inner_background {
        stroke: #ffffff;
        stroke-opacity: 1.0;
        stroke-width: 0.2
    }
    path.sticker {
        fill: #e5e5e5;
        stroke: none;
        fill-opacity: 1.0;
    }
    path.arrow {
        fill: #000000;
    }
    text {
        font-style: normal;
        fill: #000000;
        fill-opacity: 1.0;
        stroke: none;
    }
    text, tspan {
        text-anchor:middle;
    }
    </style>
  <g
     id="g932"
     transform="translate(23.283334)">
    <g
       id="g1212">
      <path
         d="m 131.07889,303.90111 h -2.53907 v -9.51172 h 2.53907 v 0.69825 h -1.68946 v 8.11523 h 1.68946 z"
         style="font-style:normal;font-size:medium;text-anchor:middle;fill:none;fill-opacity:1;stroke:#000000;stroke-width:0.25;stroke-linecap:butt;stroke-linejoin:bevel;stroke-dasharray:none;stroke-opacity:1"
         id="path885"
         inkscape:connector-curvature="0" />
      <path
         d="m 137.79764,299.94115 h -1.07911 v 2.0459 h -0.9375 v -2.0459 h -3.48144 v -1.12305 l 3.52051,-4.10156 h 0.89843 v 4.44336 h 1.07911 z m -2.01661,-0.78125 v -3.28125 l -2.81738,3.28125 z"
         style="font-style:normal;font-size:medium;text-anchor:middle;fill:none;fill-opacity:1;stroke:#000000;stroke-width:0.25;stroke-linecap:butt;stroke-linejoin:bevel;stroke-dasharray:none;stroke-opacity:1"
         id="path887"
         inkscape:connector-curvature="0" />
      <path
         d="m 141.66482,303.90111 h -2.53906 v -0.69824 h 1.68945 v -8.11523 h -1.68945 v -0.69825 h 2.53906 z"
         style="font-style:normal;font-size:medium;text-anchor:middle;fill:none;fill-opacity:1;stroke:#000000;stroke-width:0.25;stroke-linecap:butt;stroke-linejoin:bevel;stroke-dasharray:none;stroke-opacity:1"
         id="path889"
         inkscape:connector-curvature="0" />
      <path
         d="m 149.89725,301.98705 h -2.8711 v -0.74219 h 0.95215 v -5.78613 h -0.95215 v -0.74219 h 2.8711 v 0.74219 h -0.95215 v 5.78613 h 0.95215 z"
         style="font-style:normal;font-size:medium;text-anchor:middle;fill:none;fill-opacity:1;stroke:#000000;stroke-width:0.25;stroke-linecap:butt;stroke-linejoin:bevel;stroke-dasharray:none;stroke-opacity:1"
         id="path891"
         inkscape:connector-curvature="0" />
      <path
         d="m 159.9656,299.94115 h -1.0791 v 2.0459 h -0.9375 v -2.0459 h -3.48144 v -1.12305 l 3.52051,-4.10156 h 0.89843 v 4.44336 h 1.0791 z m -2.0166,-0.78125 v -3.28125 l -2.81738,3.28125 z"
         style="font-style:normal;font-size:medium;text-anchor:middle;fill:none;fill-opacity:1;stroke:#000000;stroke-width:0.25;stroke-linecap:butt;stroke-linejoin:bevel;stroke-dasharray:none;stroke-opacity:1"
         id="path893"
         inkscape:connector-curvature="0" />
      <path
         style="stroke:#000000;stroke-opacity:1;stroke-width:0.25"
         id="path830"
         d="m 144.13345,597.99993 -0.15709,10 H 68.418622 l -0.157088,-10 z M 33.602931,306.40992 l -9.957169,0.93779 -10.337689,-93.93215 9.9228,-1.25009 z m 0.07108,99.0662 -10.000041,-0.15448 -0.01196,-45.7596 9.999959,-0.15971 z m -10.4402,99.22433 -9.869897,-1.6155 7.634007,-51.72416 9.915769,1.30469 z M 26.989743,53.859532 21.50945,45.493484 61.902143,18.117487 l 5.740374,8.189798 z m 40.652774,-27.552247 0.138529,-10.000289 75.557604,-0.140249 0.17565,9.999692 z M 43.722287,597.99987 43.565232,607.99988 10.476594,608 10.319464,598 Z M 23.230873,212.16547 12.934509,210.84005 0,121.54677 9.874187,119.95768 Z m 45.030661,385.83446 -0.157118,10 -24.225056,-6e-5 -0.157073,-10 z m -57.94207,7e-5 -9.884018,-1.52672 12.871267,-92.98833 9.927096,1.2155 z M 9.874187,119.95768 0.232851,117.2989 17.269649,51.50485 l 9.720094,2.354682 z m 21.039501,332.7078 -9.97376,-0.74077 2.741973,-46.87571 9.992108,0.42712 z m 2.748281,-93.26315 -10.000167,-0.14594 -0.05869,-52.67823 9.999819,-0.16824 z m 186.343391,238.5976 -0.15709,10 h -75.55773 l -0.15709,-10 z m 44.48217,-386.28232 9.92737,1.21325 -9.98882,93.96985 -9.96059,-0.90081 z m -9.96205,147.43885 10.00005,0.15461 0.0114,45.94674 -9.99996,0.15956 z m 2.79689,93.44175 9.91499,-1.31057 7.66477,51.71959 -9.86892,1.62138 z M 219.3861,26.025593 l 5.70992,-8.211076 40.49408,27.225792 -5.44917,8.386374 z m -75.8718,0.140846 0.13856,-10.000288 75.55759,-0.14025 0.17565,9.999692 z m 134.43313,571.833571 -0.15712,10 -33.08866,-1.3e-4 -0.15706,-10 z m -0.44564,-478.53919 9.88001,1.5524 -12.6029,89.34075 -10.29137,1.36364 z m -32.9572,478.53906 -0.15708,10 -24.22503,5e-5 -0.15712,-10 z m 20.48862,-93.37127 9.92722,-1.21445 12.87117,93.06018 -9.88417,1.52567 z m -4.89228,-451.201927 9.71129,-2.390742 17.28097,65.730269 -9.6314,2.69461 z m -5.604,351.990687 9.99188,-0.43254 2.76694,46.86721 -9.97338,0.74617 z m -0.0714,-99.41747 10.0002,0.14583 0.0596,52.84238 -9.99981,0.16835 z"
         class="sticker" />
      <path
         style="stroke:#000000;stroke-opacity:1;stroke-width:0.25"
         id="path832"
         d="m 219.55979,119.56847 -75.8718,0.14114 m 0.17366,93.5432 75.8706,-0.77653 m 0,0 -75.8706,0.77653 m 0.17366,93.54317 75.87069,-0.73191 m -76.21801,-186.35446 75.8718,-0.14114 m 0,0 57.942,-0.10765 m 0,0 -57.942,0.10765 m 0.17246,92.90781 44.75528,-0.75867 m 0,0 -44.75528,0.75867 m 0.17375,93.58779 34.55949,-0.0642 m -231.234617,-93.83443 44.757806,0.5925 m -0.172496,-92.90781 -57.941996,0.10752 m 0,0 57.941996,-0.10752 m -34.213252,186.55976 34.559488,-0.0642 m -0.17374,-93.58779 -44.757806,-0.5925 m 44.931546,94.18029 75.872891,0.45022 m -0.17366,-93.54317 -75.872971,-0.49484 m 0,0 75.872971,0.49484 m -0.17366,-93.5432 -75.871807,0.14055 m 0,0 75.871807,-0.14055 m -75.525571,186.63615 75.872891,0.45022 m -75.872891,-0.45022 -34.559488,0.0642 m 220.862559,-0.41002 -34.55949,0.0642 m -75.87069,0.73191 75.87069,-0.73191 m -151.672465,99.4028 75.871985,0.1592 m 0,0 75.87189,-0.19955 m -186.303401,0.0496 34.559526,-0.009 m 151.743875,-0.0403 34.55952,-0.009 M 68.261527,504.68714 144.13345,504.4566 m -120.899641,0.24385 45.027718,-0.0133 m 151.743953,-0.0451 45.02773,-0.0134 m -120.89976,-0.17201 75.87203,0.18545 m -151.771945,-99.17518 75.871985,0.1592 m -75.871985,-0.1592 -34.559526,0.009 m 220.862921,-0.0587 -34.55952,0.009 m -75.87189,0.19955 75.87189,-0.19955 m 0.0281,99.21553 -75.87203,-0.18545 m 0,0 -75.871923,0.23054 m 0,0 -45.027718,0.0133 m 241.799401,-0.0718 -45.02773,0.0134"
         class="freestyle" />
      <path
         class="arrow"
         d="m 28.416902,259.28768 8.846041,-11.03393 -6.361045,10.76044 8.548931,9.11953 z"
         id="path836"
         style="fill:#000000;stroke:#000000;stroke-width:0.25;stroke-linecap:butt;stroke-linejoin:bevel;stroke-dasharray:none;stroke-opacity:1"
         inkscape:connector-curvature="0" />
      <path
         inkscape:connector-curvature="0"
         id="path896"
         style="font-style:normal;font-size:medium;text-anchor:middle;fill:none;fill-opacity:1;stroke:#000000;stroke-width:0.25;stroke-linecap:butt;stroke-linejoin:bevel;stroke-dasharray:none;stroke-opacity:1"
         d="m 39.472263,262.30314 h -3.935547 v -0.74219 h 1.513672 v -4.87304 h -1.513672 v -0.66407 q 0.307617,0 0.65918,-0.0488 0.351562,-0.0537 0.532226,-0.15137 0.22461,-0.12207 0.351563,-0.30762 0.131836,-0.19043 0.151367,-0.50781 h 0.756836 v 6.55273 h 1.484375 z" />
      <path
         d="m 27.270883,265.32925 0.387473,3.52074 -0.66396,0.0731 -0.149028,-1.35413 -4.359421,0.47977 0.149028,1.35413 -0.594069,0.0654 q -0.03029,-0.27519 -0.108581,-0.58489 -0.08266,-0.30922 -0.187813,-0.46123 -0.131318,-0.18892 -0.309807,-0.28422 -0.183338,-0.0992 -0.469191,-0.0854 l -0.07451,-0.67706 5.862067,-0.64515 -0.146144,-1.32792 z"
         style="font-style:normal;font-size:medium;text-anchor:middle;fill:none;fill-opacity:1;stroke:#000000;stroke-width:0.25;stroke-linecap:butt;stroke-linejoin:bevel;stroke-dasharray:none;stroke-opacity:1"
         id="path899"
         inkscape:connector-curvature="0" />
      <path
         d="m 23.349826,259.62876 q 1.751631,-0.19277 2.633417,0.26724 0.876937,0.45612 1.003852,1.60931 0.128837,1.17067 -0.641502,1.80366 -0.770819,0.62862 -2.491873,0.81803 -1.734159,0.19086 -2.619833,-0.2643 -0.890041,-0.45468 -1.017436,-1.61225 -0.128837,-1.17066 0.655086,-1.80073 0.779075,-0.63395 2.478289,-0.82096 z m 2.109576,0.93058 q -0.370646,-0.11395 -0.852544,-0.11397 -0.486747,-0.004 -1.159443,0.0701 -0.66396,0.0731 -1.146944,0.1837 -0.483465,0.10626 -0.806875,0.30101 -0.319522,0.1899 -0.460555,0.47511 -0.141514,0.28084 -0.09584,0.69581 0.04519,0.41061 0.245352,0.66269 0.199683,0.24771 0.562074,0.36698 0.339589,0.11294 0.865649,0.11252 0.52558,-0.005 1.145858,-0.073 0.681433,-0.075 1.134801,-0.17352 0.453369,-0.0985 0.798619,-0.29569 0.324852,-0.18164 0.475102,-0.46344 0.14977,-0.28617 0.101696,-0.72298 -0.04519,-0.41061 -0.245352,-0.66269 -0.200164,-0.25208 -0.561594,-0.36261 z"
         style="font-style:normal;font-size:medium;text-anchor:middle;fill:none;fill-opacity:1;stroke:#000000;stroke-width:0.25;stroke-linecap:butt;stroke-linejoin:bevel;stroke-dasharray:none;stroke-opacity:1"
         id="path901"
         inkscape:connector-curvature="0" />
      <path
         d="m 22.622705,256.51678 0.114896,1.04399 -1.244925,0.13701 -0.114896,-1.04399 z m 3.634307,-0.39997 0.114896,1.04399 -1.244925,0.13701 -0.114896,-1.04399 z"
         style="font-style:normal;font-size:medium;text-anchor:middle;fill:none;fill-opacity:1;stroke:#000000;stroke-width:0.25;stroke-linecap:butt;stroke-linejoin:bevel;stroke-dasharray:none;stroke-opacity:1"
         id="path903"
         inkscape:connector-curvature="0" />
      <path
         d="m 25.569079,249.86597 0.387473,3.52074 -0.66396,0.0731 -0.149028,-1.35413 -4.359421,0.47978 0.149028,1.35412 -0.594069,0.0654 q -0.03029,-0.27519 -0.108581,-0.58489 -0.08266,-0.30922 -0.187813,-0.46123 -0.131318,-0.18891 -0.309807,-0.28422 -0.183338,-0.0992 -0.469191,-0.0854 l -0.07451,-0.67707 5.862067,-0.64514 -0.146143,-1.32792 z"
         style="font-style:normal;font-size:medium;text-anchor:middle;fill:none;fill-opacity:1;stroke:#000000;stroke-width:0.25;stroke-linecap:butt;stroke-linejoin:bevel;stroke-dasharray:none;stroke-opacity:1"
         id="path905"
         inkscape:connector-curvature="0" />
      <path
         d="m 41.655918,39.181016 q 0.559664,0.825773 0.369028,1.719432 -0.189463,0.887557 -0.978858,1.422565 -0.400154,0.271203 -0.811379,0.369412 -0.411225,0.09821 -0.827418,0.0246 -0.517482,-0.0899 -1.026227,-0.4724 -0.505108,-0.384961 -0.980945,-1.08705 -0.488165,-0.720277 -0.712597,-1.380405 -0.220794,-0.662593 -0.175874,-1.324776 0.04152,-0.62803 0.391848,-1.19991 0.347859,-0.575518 1.020845,-1.031632 0.214628,-0.145463 0.372466,-0.225893 0.157838,-0.08043 0.339038,-0.134224 l 0.470906,0.694813 -0.03638,0.02465 q -0.13884,0.01447 -0.378244,0.107708 -0.238231,0.08714 -0.452859,0.232602 -0.782119,0.530077 -0.914913,1.336757 -0.13526,0.803041 0.352942,1.687864 0.179832,-0.392626 0.410389,-0.686912 0.231728,-0.300389 0.620969,-0.564195 0.345588,-0.23422 0.651886,-0.346254 0.307469,-0.118138 0.71461,-0.112713 0.470517,0.0049 0.859868,0.234772 0.392989,0.227366 0.720898,0.711188 z m -0.718742,0.529594 q -0.22929,-0.338312 -0.481541,-0.491182 -0.248614,-0.155336 -0.588739,-0.16371 -0.246233,-0.003 -0.474602,0.09869 -0.22837,0.101689 -0.450273,0.252083 -0.30921,0.209566 -0.525457,0.462301 -0.216247,0.252736 -0.392805,0.595363 0.04696,0.08496 0.0951,0.163821 0.04568,0.07522 0.122105,0.187989 0.389546,0.574766 0.732778,0.830545 0.344405,0.249676 0.682428,0.301945 0.275818,0.04665 0.520394,-0.0076 0.245749,-0.06038 0.474928,-0.215706 0.527476,-0.357494 0.612448,-0.882252 0.08251,-0.528396 -0.326762,-1.132265 z"
         style="font-style:normal;font-size:medium;text-anchor:middle;fill:none;fill-opacity:1;stroke:#000000;stroke-width:0.25;stroke-linecap:butt;stroke-linejoin:bevel;stroke-dasharray:none;stroke-opacity:1"
         id="path908"
         inkscape:connector-curvature="0" />
      <path
         d="m 45.047591,39.446442 -0.869425,0.589249 -0.702662,-1.036763 0.869426,-0.589249 z"
         style="font-style:normal;font-size:medium;text-anchor:middle;fill:none;fill-opacity:1;stroke:#000000;stroke-width:0.25;stroke-linecap:butt;stroke-linejoin:bevel;stroke-dasharray:none;stroke-opacity:1"
         id="path910"
         inkscape:connector-curvature="0" />
      <path
         d="m 46.041121,34.356218 -0.869425,0.589249 -0.702661,-1.036763 0.869425,-0.589249 z m 2.051278,3.026619 -0.869425,0.589249 -0.702662,-1.036763 0.869426,-0.589249 z"
         style="font-style:normal;font-size:medium;text-anchor:middle;fill:none;fill-opacity:1;stroke:#000000;stroke-width:0.25;stroke-linecap:butt;stroke-linejoin:bevel;stroke-dasharray:none;stroke-opacity:1"
         id="path912"
         inkscape:connector-curvature="0" />
      <path
         d="m 53.298039,33.854738 -2.932038,1.987175 -0.374752,-0.55294 1.127706,-0.764298 -2.460547,-3.630488 -1.127706,0.764298 -0.335305,-0.494736 q 0.229179,-0.155325 0.466443,-0.369217 0.234799,-0.21753 0.320086,-0.381508 0.105701,-0.204355 0.106594,-0.406693 0.0021,-0.208441 -0.143639,-0.454757 l 0.563854,-0.382149 3.308671,4.881878 1.10588,-0.749505 z"
         style="font-style:normal;font-size:medium;text-anchor:middle;fill:none;fill-opacity:1;stroke:#000000;stroke-width:0.25;stroke-linecap:butt;stroke-linejoin:bevel;stroke-dasharray:none;stroke-opacity:1"
         id="path914"
         inkscape:connector-curvature="0" />
      <path
         d="m 32.900771,599.79992 3.541992,-1e-5 3e-6,0.66797 -1.362305,0 1.7e-5,4.38574 1.362305,0 3e-6,0.59766 q -0.276856,0 -0.593262,0.0439 -0.316406,0.0483 -0.479003,0.13623 -0.202148,0.10987 -0.316406,0.27686 -0.118651,0.17139 -0.136228,0.45703 l -0.681152,1e-5 -2.4e-5,-5.89746 -1.335938,0 z"
         style="font-style:normal;font-size:medium;text-anchor:middle;fill:none;fill-opacity:1;stroke:#000000;stroke-width:0.25;stroke-linecap:butt;stroke-linejoin:bevel;stroke-dasharray:none;stroke-opacity:1"
         id="path917"
         inkscape:connector-curvature="0" />
      <path
         d="m 27.170302,599.79995 3.541992,-2e-5 3e-6,0.66797 -1.362305,10e-6 1.8e-5,4.38574 1.362304,-10e-6 3e-6,0.59766 q -0.276856,0 -0.593262,0.044 -0.316406,0.0483 -0.479003,0.13623 -0.202148,0.10986 -0.316405,0.27685 -0.118652,0.17139 -0.136229,0.45704 l -0.681152,0 -2.4e-5,-5.89746 -1.335937,0 z"
         style="font-style:normal;font-size:medium;text-anchor:middle;fill:none;fill-opacity:1;stroke:#000000;stroke-width:0.25;stroke-linecap:butt;stroke-linejoin:bevel;stroke-dasharray:none;stroke-opacity:1"
         id="path919"
         inkscape:connector-curvature="0" />
      <path
         d="m 23.632719,603.45621 1.050293,0 5e-6,1.25244 -1.050293,0 z m -1.5e-5,-3.65625 1.050293,0 5e-6,1.25244 -1.050293,0 z"
         style="font-style:normal;font-size:medium;text-anchor:middle;fill:none;fill-opacity:1;stroke:#000000;stroke-width:0.25;stroke-linecap:butt;stroke-linejoin:bevel;stroke-dasharray:none;stroke-opacity:1"
         id="path921"
         inkscape:connector-curvature="0" />
      <path
         d="m 17.34413,599.79998 3.541992,-10e-6 3e-6,0.66797 -1.362305,0 1.8e-5,4.38575 1.362305,-10e-6 2e-6,0.59766 q -0.276856,0 -0.593262,0.0439 -0.316406,0.0484 -0.479003,0.13624 -0.202148,0.10986 -0.316405,0.27685 -0.118652,0.17139 -0.136229,0.45704 l -0.681152,0 -2.4e-5,-5.89746 -1.335937,0 z"
         style="font-style:normal;font-size:medium;text-anchor:middle;fill:none;fill-opacity:1;stroke:#000000;stroke-width:0.25;stroke-linecap:butt;stroke-linejoin:bevel;stroke-dasharray:none;stroke-opacity:1"
         id="path923"
         inkscape:connector-curvature="0" />
      <path
         class="arrow"
         d="m 16.55253,166.06161 8.463128,-11.33029 -5.988951,10.97189 8.856111,8.82153 z"
         id="path856"
         style="fill:#000000;stroke:#000000;stroke-width:0.24999999;stroke-linecap:butt;stroke-linejoin:bevel;stroke-dasharray:none;stroke-opacity:1"
         inkscape:connector-curvature="0" />
      <path
         inkscape:connector-curvature="0"
         id="path926"
         style="font-style:normal;font-size:medium;text-anchor:middle;fill:none;fill-opacity:1;stroke:#000000;stroke-width:0.25;stroke-linecap:butt;stroke-linejoin:bevel;stroke-dasharray:none;stroke-opacity:1"
         d="m 27.983983,168.77139 h -4.921875 v -1.02051 q 0.512695,-0.43945 1.025391,-0.8789 0.517578,-0.43946 0.961914,-0.87403 0.9375,-0.9082 1.284179,-1.44043 0.34668,-0.53711 0.34668,-1.15722 0,-0.56641 -0.375976,-0.88379 -0.371094,-0.32227 -1.04004,-0.32227 -0.444335,0 -0.961914,0.15625 -0.517578,0.15625 -1.010742,0.47852 h -0.04883 v -1.02539 q 0.34668,-0.1709 0.922852,-0.3125 0.581054,-0.14161 1.123047,-0.14161 1.118164,0 1.752929,0.542 0.634766,0.53711 0.634766,1.45996 0,0.41504 -0.107422,0.77637 -0.102539,0.35644 -0.307617,0.67871 -0.19043,0.30273 -0.449219,0.5957 -0.253906,0.29297 -0.620117,0.64941 -0.522461,0.5127 -1.079102,0.9961 -0.55664,0.47851 -1.040039,0.88867 h 3.911133 z" />
      <path
         d="m 15.614055,172.13881 0.507773,3.5054 -0.661069,0.0958 -0.195297,-1.34823 -4.340442,0.62873 0.195298,1.34823 -0.591483,0.0857 q -0.03969,-0.27399 -0.12854,-0.58083 -0.0932,-0.30621 -0.203493,-0.45453 -0.137708,-0.18431 -0.3193548,-0.27345 -0.1866263,-0.0928 -0.4718403,-0.0693 l -0.097649,-0.67412 5.8365457,-0.84545 -0.191518,-1.32213 z"
         style="font-style:normal;font-size:medium;text-anchor:middle;fill:none;fill-opacity:1;stroke:#000000;stroke-width:0.25;stroke-linecap:butt;stroke-linejoin:bevel;stroke-dasharray:none;stroke-opacity:1"
         id="path929"
         inkscape:connector-curvature="0" />
      <path
         d="m 12.624503,166.30646 q 0.987255,-0.14301 1.70803,0.41864 0.715796,0.55793 0.852504,1.5017 0.0693,0.4784 -0.02187,0.89125 -0.09117,0.41284 -0.339094,0.75514 -0.3068,0.42631 -0.873022,0.71703 -0.566853,0.28637 -1.406237,0.40796 -0.861129,0.12474 -1.553007,0.0385 -0.692508,-0.0906 -1.2686452,-0.42012 -0.546892,-0.31154 -0.9084566,-0.87638 -0.3659137,-0.56421 -0.4824621,-1.3688 -0.037169,-0.2566 -0.040623,-0.43372 -0.00345,-0.17711 0.027256,-0.36362 l 0.8306857,-0.12033 0.0063,0.0435 q -0.047597,0.13122 -0.068227,0.38731 -0.025608,0.25237 0.011562,0.50897 0.1354481,0.93507 0.8032208,1.40671 0.6634231,0.47227 1.6726061,0.41933 -0.274725,-0.33319 -0.438832,-0.66909 -0.169086,-0.33962 -0.236495,-0.80498 -0.05985,-0.41317 -0.02692,-0.73765 0.02795,-0.32819 0.210571,-0.69212 0.209859,-0.42115 0.586609,-0.6711 0.376121,-0.2543 0.954556,-0.33809 z m 0.162682,0.87783 q -0.404471,0.0586 -0.652128,0.2188 -0.248288,0.15585 -0.40431,0.4582 -0.110193,0.22022 -0.118405,0.47007 -0.0082,0.24985 0.03022,0.51515 0.05355,0.36968 0.186522,0.67456 0.132972,0.30489 0.364145,0.61332 0.09694,-0.005 0.188903,-0.014 0.08761,-0.008 0.222436,-0.0278 0.687164,-0.0995 1.067125,-0.29667 0.374982,-0.20085 0.569577,-0.48214 0.162382,-0.22778 0.220325,-0.47152 0.05296,-0.24745 0.01327,-0.52145 -0.09135,-0.63062 -0.526363,-0.93616 -0.439362,-0.30491 -1.161319,-0.20033 z"
         style="font-style:normal;font-size:medium;text-anchor:middle;fill:none;fill-opacity:1;stroke:#000000;stroke-width:0.25;stroke-linecap:butt;stroke-linejoin:bevel;stroke-dasharray:none;stroke-opacity:1"
         id="path931"
         inkscape:connector-curvature="0" />
      <path
         d="m 10.66692,163.49062 0.150568,1.03945 -1.239505,0.17955 -0.1505679,-1.03945 z m 3.618484,-0.52415 0.150568,1.03945 -1.239505,0.17954 -0.150568,-1.03944 z"
         style="font-style:normal;font-size:medium;text-anchor:middle;fill:none;fill-opacity:1;stroke:#000000;stroke-width:0.25;stroke-linecap:butt;stroke-linejoin:bevel;stroke-dasharray:none;stroke-opacity:1"
         id="path933"
         inkscape:connector-curvature="0" />
      <path
         d="m 13.330338,156.37318 0.635031,4.38393 -0.908971,0.13167 q -0.457571,-0.39996 -0.915143,-0.79992 -0.458202,-0.40431 -0.902604,-0.74402 -0.929898,-0.71785 -1.448684,-0.95797 -0.5231347,-0.23949 -1.0754755,-0.15948 -0.5045002,0.0731 -0.7386849,0.44891 -0.2391639,0.37211 -0.1528551,0.96794 0.057329,0.39578 0.2632807,0.83663 0.2059515,0.44084 0.5566239,0.83853 l 0.0063,0.0435 -0.9133193,0.1323 q -0.1969493,-0.28674 -0.3974133,-0.78167 -0.201094,-0.49928 -0.271023,-0.98203 -0.144268,-0.99596 0.2565877,-1.63127 0.3965065,-0.63469 1.2184939,-0.75376 0.3696769,-0.0536 0.7053731,-0.004 0.330717,0.0453 0.6442198,0.18643 0.2942162,0.13056 0.5885542,0.32326 0.293708,0.18836 0.658445,0.46856 0.524068,0.3992 1.026452,0.83264 0.498035,0.43406 0.925732,0.81171 l -0.504623,-3.48367 z"
         style="font-style:normal;font-size:medium;text-anchor:middle;fill:none;fill-opacity:1;stroke:#000000;stroke-width:0.25;stroke-linecap:butt;stroke-linejoin:bevel;stroke-dasharray:none;stroke-opacity:1"
         id="path935"
         inkscape:connector-curvature="0" />
      <path
         d="m 14.187536,556.92768 -0.485646,3.50855 -0.66166,-0.0916 0.186787,-1.34944 -4.3443222,-0.60133 -0.1867869,1.34944 -0.5920119,-0.082 q 0.03796,-0.27424 0.037813,-0.59368 -0.0045,-0.32005 -0.069267,-0.49316 -0.081109,-0.2153 -0.2308579,-0.35138 -0.1534996,-0.14103 -0.4340363,-0.19761 l 0.093394,-0.67472 5.8417632,0.80861 0.183172,-1.32332 z"
         style="font-style:normal;font-size:medium;text-anchor:middle;fill:none;fill-opacity:1;stroke:#000000;stroke-width:0.25;stroke-linecap:butt;stroke-linejoin:bevel;stroke-dasharray:none;stroke-opacity:1"
         id="path938"
         inkscape:connector-curvature="0" />
      <path
         d="m 11.780251,550.44114 q 1.745564,0.24162 2.488013,0.90338 0.738699,0.6568 0.579629,1.806 -0.16148,1.16661 -1.06327,1.59191 -0.901188,0.42094 -2.616281,0.18354 -1.7281517,-0.23921 -2.4755567,-0.89722 -0.7517581,-0.65861 -0.5920854,-1.81216 0.1614803,-1.16661 1.075727,-1.58575 0.9104961,-0.42408 2.6038241,-0.1897 z m 1.817807,1.4184 q -0.331506,-0.20116 -0.798756,-0.31907 -0.471,-0.12287 -1.141366,-0.21566 -0.661661,-0.0916 -1.157033,-0.10248 -0.494769,-0.0153 -0.855997,0.0945 -0.356272,0.10596 -0.5627949,0.348 -0.2059204,0.23768 -0.2631615,0.65122 -0.056639,0.40918 0.075772,0.70257 0.1330132,0.28903 0.455211,0.49334 0.3016378,0.19259 0.8118153,0.32088 0.51078,0.12394 1.12891,0.2095 0.679072,0.094 1.142768,0.10938 0.463696,0.0154 0.846689,-0.0913 0.359419,-0.0967 0.574046,-0.33313 0.215229,-0.24083 0.275483,-0.67614 0.05664,-0.40918 -0.07577,-0.70257 -0.132411,-0.29338 -0.455814,-0.48899 z"
         style="font-style:normal;font-size:medium;text-anchor:middle;fill:none;fill-opacity:1;stroke:#000000;stroke-width:0.25;stroke-linecap:butt;stroke-linejoin:bevel;stroke-dasharray:none;stroke-opacity:1"
         id="path940"
         inkscape:connector-curvature="0" />
      <path
         d="m 11.83657,547.24584 -0.144007,1.04037 -1.240613,-0.17172 0.144007,-1.04038 z m 3.621719,0.50131 -0.144006,1.04037 -1.240613,-0.17172 0.144006,-1.04037 z"
         style="font-style:normal;font-size:medium;text-anchor:middle;fill:none;fill-opacity:1;stroke:#000000;stroke-width:0.25;stroke-linecap:butt;stroke-linejoin:bevel;stroke-dasharray:none;stroke-opacity:1"
         id="path942"
         inkscape:connector-curvature="0" />
      <path
         d="m 16.320522,541.51797 -0.485646,3.50854 -0.66166,-0.0916 0.186787,-1.34944 -4.344322,-0.60133 -0.186787,1.34944 -0.592012,-0.082 q 0.03796,-0.27424 0.03781,-0.59368 -0.0045,-0.32005 -0.06927,-0.49316 -0.08111,-0.2153 -0.2308575,-0.35138 -0.1534997,-0.14103 -0.4340363,-0.19761 l 0.093393,-0.67472 5.8417633,0.80861 0.183172,-1.32332 z"
         style="font-style:normal;font-size:medium;text-anchor:middle;fill:none;fill-opacity:1;stroke:#000000;stroke-width:0.25;stroke-linecap:butt;stroke-linejoin:bevel;stroke-dasharray:none;stroke-opacity:1"
         id="path944"
         inkscape:connector-curvature="0" />
      <path
         class="arrow"
         d="m 18.431965,86.908638 12.187455,-7.173977 -9.767276,7.800662 4.753798,11.56077 z"
         id="path872"
         style="fill:#000000;stroke:#000000;stroke-width:0.25;stroke-linecap:butt;stroke-linejoin:bevel;stroke-dasharray:none;stroke-opacity:1"
         inkscape:connector-curvature="0" />
      <path
         inkscape:connector-curvature="0"
         id="path947"
         style="font-style:normal;font-size:medium;text-anchor:middle;fill:none;fill-opacity:1;stroke:#000000;stroke-width:0.25;stroke-linecap:butt;stroke-linejoin:bevel;stroke-dasharray:none;stroke-opacity:1"
         d="m 29.029375,89.663705 q 0.234375,0.209961 0.385742,0.527344 0.151367,0.317383 0.151367,0.820313 0,0.498047 -0.180664,0.913086 -0.180664,0.415039 -0.507813,0.722656 -0.366211,0.341797 -0.864257,0.507812 -0.493164,0.161133 -1.083985,0.161133 -0.605469,0 -1.191406,-0.146484 -0.585938,-0.141602 -0.961914,-0.3125 v -1.020508 h 0.07324 q 0.415039,0.273437 0.976562,0.454102 0.561524,0.180664 1.083985,0.180664 0.307617,0 0.654297,-0.102539 0.346679,-0.10254 0.561523,-0.302735 0.224609,-0.214844 0.332031,-0.473633 0.112305,-0.258789 0.112305,-0.654297 0,-0.390625 -0.126953,-0.644531 -0.12207,-0.258789 -0.341797,-0.405273 -0.219727,-0.151367 -0.532227,-0.205078 -0.3125,-0.05859 -0.673828,-0.05859 h -0.439453 v -0.810547 h 0.341797 q 0.742188,0 1.181641,-0.307617 0.444336,-0.3125 0.444336,-0.908203 0,-0.263672 -0.112305,-0.458985 -0.112305,-0.200195 -0.3125,-0.327148 -0.209961,-0.126953 -0.449219,-0.175782 -0.239258,-0.04883 -0.541992,-0.04883 -0.463867,0 -0.986328,0.166016 -0.522461,0.166016 -0.986328,0.46875 h -0.04883 v -1.020508 q 0.346679,-0.170898 0.922851,-0.3125 0.581055,-0.146484 1.123047,-0.146484 0.532227,0 0.9375,0.09766 0.405274,0.09766 0.732422,0.3125 0.351563,0.234375 0.532227,0.566406 0.180664,0.332031 0.180664,0.776367 0,0.605469 -0.429688,1.059571 -0.424805,0.449218 -1.005859,0.566406 v 0.06836 q 0.234375,0.03906 0.537109,0.166015 0.302735,0.122071 0.512696,0.307618 z" />
      <path
         d="m 15.215524,92.149556 -0.887885,3.428902 -0.646641,-0.167442 0.341494,-1.318809 -4.2457126,-1.099391 -0.3414942,1.318809 -0.5785741,-0.149817 q 0.0694,-0.268016 0.1061733,-0.585336 0.032518,-0.318421 -0.011807,-0.497859 Q 8.8953952,92.855379 8.7623762,92.702908 8.6262046,92.545082 8.3540866,92.456462 l 0.1707471,-0.659405 5.7091643,1.47834 0.334885,-1.293283 z"
         style="font-style:normal;font-size:medium;text-anchor:middle;fill:none;fill-opacity:1;stroke:#000000;stroke-width:0.25;stroke-linecap:butt;stroke-linejoin:bevel;stroke-dasharray:none;stroke-opacity:1"
         id="path950"
         inkscape:connector-curvature="0" />
      <path
         d="m 14.715085,85.61478 q 0.965708,0.250062 1.413077,1.046825 0.444216,0.791407 0.20517,1.714573 -0.121176,0.467964 -0.364963,0.81339 -0.243787,0.345425 -0.604829,0.56516 -0.447838,0.27443 -1.082441,0.32346 -0.633502,0.04478 -1.454566,-0.167831 -0.842336,-0.218116 -1.446965,-0.565337 -0.603527,-0.351476 -1.007331,-0.878208 -0.3837867,-0.498852 -0.498681,-1.159589 -0.1191486,-0.661838 0.084646,-1.448869 0.064994,-0.250999 0.1303296,-0.41566 0.06533,-0.164661 0.165805,-0.324763 l 0.812556,0.210404 -0.01102,0.04254 q -0.09466,0.102595 -0.212753,0.330765 -0.121248,0.222814 -0.186242,0.473813 -0.236843,0.914657 0.196473,1.607913 0.429061,0.692154 1.380144,1.033757 -0.124431,-0.413535 -0.145812,-0.786769 -0.02453,-0.378589 0.09334,-0.833791 0.104651,-0.404151 0.260542,-0.690626 0.152738,-0.291831 0.461933,-0.556767 0.356448,-0.307174 0.800561,-0.391912 0.445214,-0.08899 1.011025,0.05752 z m -0.18959,0.87242 q -0.395643,-0.102448 -0.685995,-0.05053 -0.28925,0.04767 -0.550091,0.266111 -0.186808,0.160444 -0.29104,0.387664 -0.104231,0.22722 -0.171428,0.486728 -0.09364,0.361609 -0.08897,0.694199 0.0047,0.33259 0.09852,0.706432 0.09139,0.03274 0.179627,0.06013 0.08398,0.02628 0.215865,0.06043 0.672167,0.174051 1.098806,0.139263 0.423487,-0.04014 0.711751,-0.22425 0.237859,-0.147224 0.385582,-0.349565 0.144571,-0.207696 0.213971,-0.475711 0.159732,-0.616863 -0.123208,-1.066903 -0.287193,-0.451142 -0.993394,-0.634007 z"
         style="font-style:normal;font-size:medium;text-anchor:middle;fill:none;fill-opacity:1;stroke:#000000;stroke-width:0.25;stroke-linecap:butt;stroke-linejoin:bevel;stroke-dasharray:none;stroke-opacity:1"
         id="path952"
         inkscape:connector-curvature="0" />
      <path
         d="m 13.999275,82.260878 -0.263281,1.016759 -1.212453,-0.313955 0.263281,-1.016759 z m 3.539511,0.916526 -0.263281,1.016759 -1.212453,-0.313954 0.263281,-1.016759 z"
         style="font-style:normal;font-size:medium;text-anchor:middle;fill:none;fill-opacity:1;stroke:#000000;stroke-width:0.25;stroke-linecap:butt;stroke-linejoin:bevel;stroke-dasharray:none;stroke-opacity:1"
         id="path954"
         inkscape:connector-curvature="0" />
      <path
         d="m 16.014218,76.495465 q 0.235808,-0.156834 0.546482,-0.217111 0.310674,-0.06028 0.748858,0.05319 0.433931,0.112363 0.754781,0.363404 0.320849,0.251042 0.515058,0.605475 0.215176,0.396178 0.247457,0.867563 0.02913,0.466029 -0.104164,0.98079 -0.136598,0.527523 -0.396416,1.004982 -0.255564,0.47856 -0.489284,0.767579 l -0.889132,-0.230233 0.01652,-0.06381 q 0.331871,-0.29992 0.615961,-0.748396 0.28409,-0.448477 0.40196,-0.903678 0.0694,-0.268016 0.05827,-0.593199 -0.01112,-0.325184 -0.137078,-0.557535 -0.136513,-0.244164 -0.337751,-0.396141 -0.200137,-0.156232 -0.544729,-0.245461 -0.340338,-0.08813 -0.590199,-0.0348 -0.253013,0.04797 -0.430212,0.206364 -0.181452,0.15729 -0.298751,0.417443 -0.121552,0.259051 -0.20307,0.573863 l -0.09914,0.38288 -0.7062,-0.182865 0.07711,-0.297795 q 0.167443,-0.646642 -0.0014,-1.098922 -0.172025,-0.457636 -0.69104,-0.592031 -0.229728,-0.05949 -0.425233,-0.0057 -0.19976,0.05268 -0.355535,0.198463 -0.157978,0.15429 -0.254499,0.351731 -0.09652,0.197441 -0.164819,0.461203 -0.104651,0.40415 -0.07788,0.896806 0.02677,0.492656 0.185883,0.965106 l -0.01102,0.04254 -0.889132,-0.230233 q -0.07068,-0.340606 -0.06407,-0.87455 0.0035,-0.5393 0.12574,-1.011519 0.120074,-0.46371 0.296591,-0.794778 0.176517,-0.331069 0.437509,-0.567631 0.283518,-0.253428 0.613564,-0.335925 0.330046,-0.0825 0.71718,0.01775 0.527523,0.136598 0.826226,0.613417 0.295549,0.471464 0.266561,1.004155 l 0.05956,0.01542 q 0.08691,-0.19539 0.265819,-0.43051 0.174655,-0.236222 0.383683,-0.377293 z"
         style="font-style:normal;font-size:medium;text-anchor:middle;fill:none;fill-opacity:1;stroke:#000000;stroke-width:0.25;stroke-linecap:butt;stroke-linejoin:bevel;stroke-dasharray:none;stroke-opacity:1"
         id="path956"
         inkscape:connector-curvature="0" />
      <path
         class="arrow"
         d="m 259.47651,258.85877 -11.001,8.88695 8.51501,-9.15121 -6.40096,-10.73674 z"
         id="path884"
         style="fill:#000000;stroke:#000000;stroke-width:0.24999999;stroke-linecap:butt;stroke-linejoin:bevel;stroke-dasharray:none;stroke-opacity:1"
         inkscape:connector-curvature="0" />
      <path
         inkscape:connector-curvature="0"
         id="path959"
         style="font-style:normal;font-size:medium;text-anchor:middle;fill:none;fill-opacity:1;stroke:#000000;stroke-width:0.25;stroke-linecap:butt;stroke-linejoin:bevel;stroke-dasharray:none;stroke-opacity:1"
         d="m 253.21736,259.86156 h -1.0791 v 2.0459 h -0.9375 v -2.0459 h -3.48145 v -1.12305 l 3.52051,-4.10156 h 0.89844 v 4.44336 h 1.0791 z m -2.0166,-0.78125 v -3.28125 l -2.81738,3.28125 z" />
      <path
         d="m 265.36378,255.17576 q -0.85213,-0.0906 -1.52604,-0.36108 -0.67438,-0.26614 -1.122,-0.71146 -0.4559,-0.45061 -0.6632,-1.07809 -0.2073,-0.62748 -0.12136,-1.43591 0.0242,-0.22724 0.0717,-0.42547 0.0432,-0.19869 0.11238,-0.35043 l 0.83465,0.0887 -0.005,0.0437 q -0.079,0.11976 -0.16482,0.34486 -0.0814,0.22557 -0.11162,0.50961 -0.10266,0.96575 0.41611,1.57331 0.52266,0.61239 1.53156,0.80802 -0.20151,-0.43242 -0.2683,-0.8019 -0.0668,-0.36948 -0.0217,-0.79336 0.0427,-0.40203 0.15623,-0.72142 0.11304,-0.31501 0.37511,-0.6186 0.30744,-0.35621 0.73912,-0.5092 0.43121,-0.14861 1.00367,-0.0878 0.99634,0.10591 1.55156,0.82783 0.55522,0.72191 0.45488,1.66581 -0.0502,0.47195 -0.24148,0.85819 -0.18694,0.3867 -0.51178,0.6571 -0.40218,0.33289 -0.99601,0.47305 -0.58946,0.14063 -1.49403,0.0445 z m 0.28174,-0.86275 q 0.67734,0.072 1.10297,-0.0242 0.42564,-0.0962 0.67889,-0.31673 0.21848,-0.18449 0.32659,-0.41164 0.11248,-0.22668 0.14174,-0.50199 0.0669,-0.62926 -0.28738,-1.03814 -0.35474,-0.40451 -1.06703,-0.48023 -0.41514,-0.0441 -0.68988,0.046 -0.27474,0.0901 -0.50111,0.34889 -0.15637,0.18224 -0.22952,0.41311 -0.0688,0.23133 -0.0994,0.51974 -0.0362,0.34086 0.0184,0.70021 0.0546,0.35934 0.19689,0.68382 0.0913,0.0141 0.17823,0.0278 0.0908,0.0185 0.23068,0.0334 z"
         style="font-style:normal;font-size:medium;text-anchor:middle;fill:none;fill-opacity:1;stroke:#000000;stroke-width:0.25;stroke-linecap:butt;stroke-linejoin:bevel;stroke-dasharray:none;stroke-opacity:1"
         id="path962"
         inkscape:connector-curvature="0" />
      <path
         d="m 261.4271,257.53703 0.11101,-1.04441 1.24543,0.13239 -0.11102,1.04441 z"
         style="font-style:normal;font-size:medium;text-anchor:middle;fill:none;fill-opacity:1;stroke:#000000;stroke-width:0.25;stroke-linecap:butt;stroke-linejoin:bevel;stroke-dasharray:none;stroke-opacity:1"
         id="path964"
         inkscape:connector-curvature="0" />
      <path
         d="m 264.67406,261.58112 0.11102,-1.04441 1.24543,0.13239 -0.11102,1.04441 z m -3.63576,-0.38648 0.11102,-1.0444 1.24542,0.13238 -0.11102,1.04441 z"
         style="font-style:normal;font-size:medium;text-anchor:middle;fill:none;fill-opacity:1;stroke:#000000;stroke-width:0.25;stroke-linecap:butt;stroke-linejoin:bevel;stroke-dasharray:none;stroke-opacity:1"
         id="path966"
         inkscape:connector-curvature="0" />
      <path
         d="m 262.14929,268.16264 0.10266,-0.96575 -1.83099,-0.19463 0.0892,-0.83903 1.831,0.19464 0.3312,-3.11575 1.00508,0.10684 3.33581,3.5409 -0.0855,0.80406 -3.97662,-0.42271 -0.10266,0.96575 z m 0.89103,-1.73045 2.93658,0.31215 -2.66855,-2.83359 z"
         style="font-style:normal;font-size:medium;text-anchor:middle;fill:none;fill-opacity:1;stroke:#000000;stroke-width:0.25;stroke-linecap:butt;stroke-linejoin:bevel;stroke-dasharray:none;stroke-opacity:1"
         id="path968"
         inkscape:connector-curvature="0" />
      <path
         d="m 238.48397,34.139068 q -0.5566,0.827845 -1.45671,0.985205 -0.89402,0.156165 -1.68539,-0.375908 -0.40116,-0.269715 -0.64602,-0.614385 -0.24485,-0.34467 -0.33221,-0.758196 -0.11012,-0.51356 0.0544,-1.128426 0.16816,-0.612415 0.64138,-1.316265 0.48549,-0.722086 1.01381,-1.177079 0.53196,-0.452541 1.16291,-0.65849 0.59799,-0.196327 1.25938,-0.08526 0.66385,0.10742 1.33852,0.561031 0.21517,0.144665 0.34879,0.260978 0.13361,0.116313 0.25126,0.264252 l -0.46832,0.696557 -0.0365,-0.02452 q -0.0653,-0.123358 -0.24133,-0.310529 -0.1699,-0.188365 -0.38507,-0.333031 -0.78408,-0.527169 -1.5819,-0.348688 -0.79536,0.174834 -1.43344,0.958482 0.43139,0.01997 0.79054,0.123761 0.36524,0.102594 0.75546,0.364953 0.34646,0.232935 0.5649,0.47512 0.22454,0.24099 0.37175,0.620623 0.17136,0.438233 0.10379,0.88528 -0.0639,0.449499 -0.39003,0.934536 z m -0.75994,-0.468571 q 0.22803,-0.339161 0.27549,-0.630277 0.0511,-0.288663 -0.0683,-0.607246 -0.0893,-0.22949 -0.26901,-0.403269 -0.1797,-0.173778 -0.40216,-0.323347 -0.30999,-0.208415 -0.62525,-0.31447 -0.31526,-0.106054 -0.69906,-0.141685 -0.0612,0.07533 -0.11637,0.149461 -0.0527,0.07049 -0.12869,0.183542 -0.38741,0.576209 -0.49629,0.990186 -0.10278,0.412782 -0.0249,0.745828 0.0599,0.273253 0.20166,0.479792 0.1479,0.205343 0.37765,0.359816 0.5288,0.355533 1.04727,0.238118 0.52091,-0.121062 0.92793,-0.726446 z"
         style="font-style:normal;font-size:medium;text-anchor:middle;fill:none;fill-opacity:1;stroke:#000000;stroke-width:0.25;stroke-linecap:butt;stroke-linejoin:bevel;stroke-dasharray:none;stroke-opacity:1"
         id="path971"
         inkscape:connector-curvature="0" />
      <path
         d="m 239.50605,37.383949 -0.87161,-0.586017 0.6988,-1.039365 0.87161,0.586017 z"
         style="font-style:normal;font-size:medium;text-anchor:middle;fill:none;fill-opacity:1;stroke:#000000;stroke-width:0.25;stroke-linecap:butt;stroke-linejoin:bevel;stroke-dasharray:none;stroke-opacity:1"
         id="path973"
         inkscape:connector-curvature="0" />
      <path
         d="m 244.59852,36.402015 -0.87161,-0.586016 0.69881,-1.039365 0.87161,0.586016 z m -2.04002,3.034217 -0.87161,-0.586017 0.6988,-1.039365 0.87161,0.586017 z"
         style="font-style:normal;font-size:medium;text-anchor:middle;fill:none;fill-opacity:1;stroke:#000000;stroke-width:0.25;stroke-linecap:butt;stroke-linejoin:bevel;stroke-dasharray:none;stroke-opacity:1"
         id="path975"
         inkscape:connector-curvature="0" />
      <path
         d="m 249.23855,41.708707 -0.80596,-0.541881 -1.02737,1.528049 -0.7002,-0.470775 1.02736,-1.528049 -2.60023,-1.748241 0.56395,-0.838786 4.68905,-1.295534 0.67102,0.451159 -2.23127,3.318674 0.80596,0.541881 z m -1.11385,-1.596159 1.64771,-2.450713 -3.75197,1.035937 z"
         style="font-style:normal;font-size:medium;text-anchor:middle;fill:none;fill-opacity:1;stroke:#000000;stroke-width:0.25;stroke-linecap:butt;stroke-linejoin:bevel;stroke-dasharray:none;stroke-opacity:1"
         id="path977"
         inkscape:connector-curvature="0" />
      <path
         d="m 268.76064,599.79997 3.542,2e-5 -10e-6,0.66797 -1.3623,-10e-6 -2e-5,4.38574 1.36231,10e-6 -10e-6,0.59766 q -0.27685,-10e-6 -0.59326,0.0439 -0.3164,0.0483 -0.479,0.13623 -0.20215,0.10986 -0.31641,0.27685 -0.11865,0.17139 -0.13623,0.45703 l -0.68115,0 2e-5,-5.89746 -1.33594,-10e-6 z"
         style="font-style:normal;font-size:medium;text-anchor:middle;fill:none;fill-opacity:1;stroke:#000000;stroke-width:0.25;stroke-linecap:butt;stroke-linejoin:bevel;stroke-dasharray:none;stroke-opacity:1"
         id="path980"
         inkscape:connector-curvature="0" />
      <path
         d="m 263.03018,599.79995 3.54199,2e-5 0,0.66796 -1.36231,0 -2e-5,4.38574 1.36231,1e-5 0,0.59765 q -0.27686,0 -0.59327,0.0439 -0.3164,0.0483 -0.479,0.13622 -0.20215,0.10987 -0.31641,0.27686 -0.11865,0.17138 -0.13623,0.45703 l -0.68115,0 2e-5,-5.89746 -1.33594,-10e-6 z"
         style="font-style:normal;font-size:medium;text-anchor:middle;fill:none;fill-opacity:1;stroke:#000000;stroke-width:0.25;stroke-linecap:butt;stroke-linejoin:bevel;stroke-dasharray:none;stroke-opacity:1"
         id="path982"
         inkscape:connector-curvature="0" />
      <path
         d="m 259.49256,603.45619 1.0503,0 -1e-5,1.25244 -1.05029,0 z m 2e-5,-3.65625 1.05029,0 0,1.25244 -1.0503,0 z"
         style="font-style:normal;font-size:medium;text-anchor:middle;fill:none;fill-opacity:1;stroke:#000000;stroke-width:0.25;stroke-linecap:butt;stroke-linejoin:bevel;stroke-dasharray:none;stroke-opacity:1"
         id="path984"
         inkscape:connector-curvature="0" />
      <path
         d="m 252.73378,601.92247 q 0,-0.99756 0.65919,-1.63037 0.65478,-0.62842 1.6084,-0.62841 0.4834,0 0.8789,0.14942 0.39551,0.14941 0.69873,0.44385 0.37793,0.36474 0.58447,0.9668 0.20215,0.60205 0.20214,1.45019 0,0.87012 -0.18457,1.54248 -0.18897,0.67236 -0.59766,1.19531 -0.38672,0.49658 -0.99757,0.77344 -0.61084,0.28124 -1.42383,0.28124 -0.25927,0 -0.43505,-0.022 -0.17578,-0.022 -0.35596,-0.0791 l 0,-0.83935 0.0439,0 q 0.12304,0.0659 0.37353,0.12304 0.2461,0.0615 0.50537,0.0615 0.94483,0 1.50733,-0.59326 0.5625,-0.58886 0.65479,-1.59521 -0.36914,0.22412 -0.7251,0.33838 -0.36035,0.11865 -0.83056,0.11865 -0.41748,0 -0.73389,-0.0791 -0.3208,-0.0747 -0.65478,-0.30762 -0.38672,-0.26807 -0.58008,-0.67676 -0.19775,-0.40869 -0.19775,-0.99316 z m 0.89209,-0.0351 q 0,0.40869 0.12304,0.67675 0.11866,0.26807 0.39551,0.46583 0.20215,0.14062 0.44824,0.18457 0.2461,0.0439 0.51416,0.0439 0.37354,0 0.69434,-0.0879 0.3208,-0.0879 0.65918,-0.27246 0.009,-0.0967 0.0132,-0.18897 0.004,-0.0879 0.004,-0.22412 10e-6,-0.69433 -0.14062,-1.09863 -0.14501,-0.3999 -0.3955,-0.63281 -0.20215,-0.19336 -0.43506,-0.28565 -0.2373,-0.0879 -0.51416,-0.0879 -0.63721,-10e-6 -1.00195,0.38671 -0.36475,0.39111 -0.36475,1.12061 z"
         style="font-style:normal;font-size:medium;text-anchor:middle;fill:none;fill-opacity:1;stroke:#000000;stroke-width:0.25;stroke-linecap:butt;stroke-linejoin:bevel;stroke-dasharray:none;stroke-opacity:1"
         id="path986"
         inkscape:connector-curvature="0" />
      <path
         d="m 250.0751,599.7999 1.05029,0 0,1.25245 -1.0503,-1e-5 z"
         style="font-style:normal;font-size:medium;text-anchor:middle;fill:none;fill-opacity:1;stroke:#000000;stroke-width:0.25;stroke-linecap:butt;stroke-linejoin:bevel;stroke-dasharray:none;stroke-opacity:1"
         id="path988"
         inkscape:connector-curvature="0" />
      <path
         class="arrow"
         d="m 270.99466,165.58924 -11.29879,8.50514 8.8233,-8.85435 -6.02965,-10.94958 z"
         id="path904"
         style="fill:#000000;stroke:#000000;stroke-width:0.25;stroke-linecap:butt;stroke-linejoin:bevel;stroke-dasharray:none;stroke-opacity:1"
         inkscape:connector-curvature="0" />
      <path
         inkscape:connector-curvature="0"
         id="path991"
         style="font-style:normal;font-size:medium;text-anchor:middle;fill:none;fill-opacity:1;stroke:#000000;stroke-width:0.25;stroke-linecap:butt;stroke-linejoin:bevel;stroke-dasharray:none;stroke-opacity:1"
         d="m 264.54872,166.02253 q 0,0.50781 -0.18555,0.97168 -0.18554,0.46387 -0.50781,0.78125 -0.35156,0.3418 -0.83984,0.52734 -0.4834,0.18067 -1.12305,0.18067 -0.5957,0 -1.14746,-0.12696 -0.55176,-0.12207 -0.93262,-0.29785 v -1.03027 h 0.0684 q 0.40039,0.25391 0.9375,0.43457 0.53711,0.17578 1.05469,0.17578 0.34668,0 0.66894,-0.0977 0.32715,-0.0976 0.58106,-0.34179 0.21484,-0.20996 0.32226,-0.50293 0.11231,-0.29297 0.11231,-0.67871 0,-0.37598 -0.13184,-0.63477 -0.12695,-0.25879 -0.35644,-0.41504 -0.25391,-0.18554 -0.62012,-0.25879 -0.36133,-0.0781 -0.81055,-0.0781 -0.42968,0 -0.83007,0.0586 -0.39551,0.0586 -0.6836,0.11719 v -3.74512 h 4.375 v 0.85449 h -3.43262 v 1.9336 q 0.20997,-0.0195 0.42969,-0.0293 0.21973,-0.01 0.38086,-0.01 0.59082,0 1.03516,0.10254 0.44433,0.0977 0.81543,0.35156 0.39062,0.26856 0.60547,0.69336 0.21484,0.42481 0.21484,1.06446 z" />
      <path
         d="m 273.59839,160.01843 0.49476,-3.50727 0.66142,0.0933 -0.19029,1.34895 4.34274,0.61261 0.19029,-1.34895 0.5918,0.0835 q -0.0387,0.27414 -0.0394,0.59359 0.004,0.32005 0.068,0.49333 0.0806,0.21552 0.22995,0.35198 0.15313,0.14143 0.43352,0.19873 l -0.0951,0.67448 -5.83964,-0.82378 -0.18661,1.32284 z"
         style="font-style:normal;font-size:medium;text-anchor:middle;fill:none;fill-opacity:1;stroke:#000000;stroke-width:0.25;stroke-linecap:butt;stroke-linejoin:bevel;stroke-dasharray:none;stroke-opacity:1"
         id="path994"
         inkscape:connector-curvature="0" />
      <path
         d="m 274.81137,166.30072 q -0.45255,-0.0638 -0.84261,-0.28751 -0.39007,-0.22367 -0.6324,-0.55076 -0.2604,-0.35628 -0.36437,-0.81475 -0.10024,-0.4535 -0.0198,-1.02354 0.0749,-0.53088 0.25739,-1.00663 0.17815,-0.47637 0.38268,-0.79368 l 0.91816,0.12952 -0.009,0.0609 q -0.27661,0.32489 -0.50513,0.78084 -0.22418,0.45656 -0.28925,0.91782 -0.0436,0.30895 0.003,0.60842 0.0459,0.30383 0.23155,0.56079 0.1601,0.21786 0.40769,0.35042 0.24696,0.13692 0.59073,0.18541 0.33506,0.0473 0.58226,-0.0377 0.24659,-0.0806 0.41468,-0.26548 0.19728,-0.20295 0.30859,-0.5201 0.11505,-0.31218 0.17152,-0.71252 0.054,-0.38292 0.0521,-0.74711 -0.002,-0.35983 -0.0185,-0.62393 l 3.33756,0.47081 -0.55,3.8989 -0.76151,-0.10742 0.43154,-3.05907 -1.72318,-0.24308 q -0.009,0.18957 -0.0279,0.38661 -0.0189,0.19704 -0.0392,0.34064 -0.0743,0.52653 -0.22152,0.90962 -0.14289,0.3837 -0.41581,0.68249 -0.28844,0.31436 -0.69403,0.45242 -0.40558,0.13806 -0.97562,0.0576 z"
         style="font-style:normal;font-size:medium;text-anchor:middle;fill:none;fill-opacity:1;stroke:#000000;stroke-width:0.25;stroke-linecap:butt;stroke-linejoin:bevel;stroke-dasharray:none;stroke-opacity:1"
         id="path996"
         inkscape:connector-curvature="0" />
      <path
         d="m 275.92421,169.70635 0.1467,-1.03999 1.24017,0.17494 -0.14671,1.04 z m -3.62041,-0.51071 0.14671,-1.04 1.24016,0.17494 -0.14671,1.04 z"
         style="font-style:normal;font-size:medium;text-anchor:middle;fill:none;fill-opacity:1;stroke:#000000;stroke-width:0.25;stroke-linecap:butt;stroke-linejoin:bevel;stroke-dasharray:none;stroke-opacity:1"
         id="path998"
         inkscape:connector-curvature="0" />
      <path
         d="m 273.43882,176.03056 q -0.45255,-0.0638 -0.84261,-0.28751 -0.39007,-0.22367 -0.6324,-0.55076 -0.2604,-0.35628 -0.36437,-0.81475 -0.10023,-0.4535 -0.0198,-1.02354 0.0749,-0.53088 0.25739,-1.00663 0.17815,-0.47637 0.38268,-0.79369 l 0.91816,0.12952 -0.009,0.0609 q -0.27661,0.3249 -0.50513,0.78085 -0.22418,0.45656 -0.28925,0.91782 -0.0436,0.30895 0.003,0.60842 0.0459,0.30382 0.23155,0.56079 0.1601,0.21786 0.40769,0.35042 0.24697,0.13692 0.59073,0.18541 0.33506,0.0473 0.58226,-0.0377 0.24659,-0.0806 0.41469,-0.26548 0.19727,-0.20295 0.30858,-0.5201 0.11505,-0.31218 0.17152,-0.71252 0.054,-0.38293 0.0521,-0.74711 -0.002,-0.35983 -0.0185,-0.62393 l 3.33756,0.47081 -0.55,3.8989 -0.7615,-0.10742 0.43153,-3.05907 -1.72318,-0.24308 q -0.009,0.18957 -0.0279,0.38661 -0.0189,0.19704 -0.0392,0.34064 -0.0743,0.52652 -0.22152,0.90962 -0.14289,0.3837 -0.41581,0.68249 -0.28844,0.31436 -0.69403,0.45241 -0.40558,0.13806 -0.97562,0.0576 z"
         style="font-style:normal;font-size:medium;text-anchor:middle;fill:none;fill-opacity:1;stroke:#000000;stroke-width:0.25;stroke-linecap:butt;stroke-linejoin:bevel;stroke-dasharray:none;stroke-opacity:1"
         id="path1000"
         inkscape:connector-curvature="0" />
      <path
         d="m 276.31687,546.32132 q -0.84885,0.11741 -1.56808,0.0172 -0.71864,-0.0958 -1.26037,-0.42015 -0.55104,-0.3275 -0.90342,-0.88654 -0.35237,-0.55905 -0.46376,-1.36437 -0.0313,-0.22636 -0.0329,-0.43022 -0.006,-0.20325 0.0246,-0.36718 l 0.83144,-0.115 0.006,0.0435 q -0.0478,0.13527 -0.0769,0.37441 -0.0247,0.23854 0.0145,0.5215 0.13305,0.96203 0.78292,1.42669 0.65483,0.46841 1.68114,0.41519 -0.29977,-0.37112 -0.45361,-0.71362 -0.15385,-0.34251 -0.21225,-0.76476 -0.0554,-0.40048 -0.0222,-0.7378 0.0338,-0.33297 0.21501,-0.69076 0.21255,-0.4198 0.59465,-0.67228 0.3827,-0.24813 0.95295,-0.327 0.99251,-0.13728 1.70531,0.42959 0.7128,0.56687 0.84285,1.50713 0.065,0.47014 -0.0276,0.89109 -0.0883,0.42036 -0.33837,0.76106 -0.31013,0.41998 -0.85269,0.6991 -0.53821,0.27851 -1.4393,0.40314 z m 0.0656,-0.90521 q 0.67473,-0.0933 1.06465,-0.28922 0.38992,-0.19589 0.58257,-0.47097 0.16759,-0.23169 0.21779,-0.4782 0.0546,-0.24711 0.0166,-0.52135 -0.0867,-0.62685 -0.52906,-0.93832 -0.44175,-0.30712 -1.1513,-0.20898 -0.41354,0.0572 -0.65847,0.21085 -0.24493,0.15366 -0.40229,0.45935 -0.10785,0.21456 -0.12322,0.45625 -0.011,0.24108 0.0287,0.52839 0.047,0.33954 0.18654,0.67514 0.13958,0.33561 0.35585,0.61624 0.092,-0.008 0.17968,-0.016 0.0926,-0.004 0.23192,-0.0232 z"
         style="font-style:normal;font-size:medium;text-anchor:middle;fill:none;fill-opacity:1;stroke:#000000;stroke-width:0.25;stroke-linecap:butt;stroke-linejoin:bevel;stroke-dasharray:none;stroke-opacity:1"
         id="path1003"
         inkscape:connector-curvature="0" />
      <path
         d="m 273.0651,549.56155 -0.14389,-1.04039 1.24063,-0.17159 0.14389,1.04039 z"
         style="font-style:normal;font-size:medium;text-anchor:middle;fill:none;fill-opacity:1;stroke:#000000;stroke-width:0.25;stroke-linecap:butt;stroke-linejoin:bevel;stroke-dasharray:none;stroke-opacity:1"
         id="path1005"
         inkscape:connector-curvature="0" />
      <path
         d="m 277.19081,552.70416 -0.14389,-1.04039 1.24063,-0.17159 0.14389,1.04039 z m -3.62177,0.50093 -0.1439,-1.04039 1.24064,-0.17159 0.14389,1.04038 z"
         style="font-style:normal;font-size:medium;text-anchor:middle;fill:none;fill-opacity:1;stroke:#000000;stroke-width:0.25;stroke-linecap:butt;stroke-linejoin:bevel;stroke-dasharray:none;stroke-opacity:1"
         id="path1007"
         inkscape:connector-curvature="0" />
      <path
         d="m 274.43061,559.43436 -0.48527,-3.50859 0.66167,-0.0915 0.18664,1.34946 4.34439,-0.60087 -0.18665,-1.34946 0.59203,-0.0819 q 0.0379,0.27424 0.12481,0.58164 0.0912,0.3068 0.20057,0.45583 0.13652,0.18519 0.31759,0.27549 0.18603,0.094 0.47139,0.0723 l 0.0933,0.67473 -5.84185,0.80798 0.18303,1.32334 z"
         style="font-style:normal;font-size:medium;text-anchor:middle;fill:none;fill-opacity:1;stroke:#000000;stroke-width:0.25;stroke-linecap:butt;stroke-linejoin:bevel;stroke-dasharray:none;stroke-opacity:1"
         id="path1009"
         inkscape:connector-curvature="0" />
      <path
         class="arrow"
         d="m 268.82136,86.443722 -7.12867,12.21401 4.71083,-11.578343 -9.79617,-7.764341 z"
         id="path920"
         style="fill:#000000;stroke:#000000;stroke-width:0.25000003;stroke-linecap:butt;stroke-linejoin:bevel;stroke-dasharray:none;stroke-opacity:1"
         inkscape:connector-curvature="0" />
      <path
         inkscape:connector-curvature="0"
         id="path1012"
         style="font-style:normal;font-size:medium;text-anchor:middle;fill:none;fill-opacity:1;stroke:#000000;stroke-width:0.25;stroke-linecap:butt;stroke-linejoin:bevel;stroke-dasharray:none;stroke-opacity:1"
         d="m 260.93257,90.373733 q 0,1.108398 -0.73242,1.811523 -0.72754,0.698242 -1.78711,0.698242 -0.53711,0 -0.97656,-0.166015 -0.43946,-0.166016 -0.77637,-0.493165 -0.41992,-0.405273 -0.64942,-1.074218 -0.2246,-0.668946 -0.2246,-1.611328 0,-0.966797 0.20507,-1.713868 0.20996,-0.74707 0.66407,-1.328125 0.42968,-0.551757 1.10839,-0.859375 0.67872,-0.3125 1.58204,-0.3125 0.28808,0 0.48339,0.02441 0.19532,0.02441 0.39551,0.08789 v 0.932618 h -0.0488 q -0.13672,-0.07324 -0.41504,-0.136719 -0.27343,-0.06836 -0.56152,-0.06836 -1.0498,0 -1.6748,0.65918 -0.625,0.654296 -0.72754,1.77246 0.41015,-0.249023 0.80566,-0.375976 0.40039,-0.131836 0.92285,-0.131836 0.46387,0 0.81543,0.08789 0.35645,0.08301 0.72754,0.341797 0.42969,0.297851 0.64453,0.751953 0.21973,0.454102 0.21973,1.103516 z m -0.99121,0.03906 q 0,-0.454102 -0.13672,-0.751954 -0.13184,-0.297852 -0.43945,-0.517578 -0.22461,-0.15625 -0.49805,-0.205078 -0.27344,-0.04883 -0.57129,-0.04883 -0.41504,0 -0.77148,0.09766 -0.35645,0.09766 -0.73243,0.302734 -0.01,0.107422 -0.0146,0.209961 -0.005,0.09766 -0.005,0.249023 0,0.771485 0.15625,1.220704 0.16113,0.444335 0.43945,0.703125 0.22461,0.214843 0.4834,0.317382 0.26367,0.09766 0.57129,0.09766 0.708,0 1.11328,-0.429688 0.40527,-0.43457 0.40527,-1.245117 z" />
      <path
         inkscape:connector-curvature="0"
         id="path1014"
         style="font-style:normal;font-size:medium;text-anchor:middle;fill:none;fill-opacity:1;stroke:#000000;stroke-width:0.25;stroke-linecap:butt;stroke-linejoin:bevel;stroke-dasharray:none;stroke-opacity:1"
         d="m 263.88667,92.732131 h -1.16699 v -1.391602 h 1.16699 z" />
      <path
         d="m 268.65148,78.718334 -0.90061,-3.425581 0.64602,-0.169843 0.34639,1.317532 4.2416,-1.11515 -0.34639,-1.317531 0.57801,-0.151965 q 0.0704,0.267757 0.19335,0.56259 0.1272,0.293716 0.25355,0.428623 0.15765,0.16757 0.3482,0.235612 0.19593,0.07117 0.47665,0.01555 l 0.1732,0.658765 -5.70364,1.49953 0.33969,1.292031 z"
         style="font-style:normal;font-size:medium;text-anchor:middle;fill:none;fill-opacity:1;stroke:#000000;stroke-width:0.25;stroke-linecap:butt;stroke-linejoin:bevel;stroke-dasharray:none;stroke-opacity:1"
         id="path1017"
         inkscape:connector-curvature="0" />
      <path
         d="m 272.20042,84.0422 q -0.44201,0.116208 -0.88823,0.06086 -0.44622,-0.05535 -0.79623,-0.263229 -0.37796,-0.22779 -0.6512,-0.61034 -0.26787,-0.379417 -0.41425,-0.93618 -0.13632,-0.518512 -0.15208,-1.027826 -0.02,-0.508196 0.0458,-0.879929 l 0.89677,-0.235768 0.0156,0.0595 q -0.12938,0.406612 -0.16372,0.915466 -0.0301,0.507737 0.0883,0.958248 0.0793,0.301757 0.23808,0.559916 0.15987,0.262409 0.43048,0.427545 0.23192,0.138957 0.51151,0.165416 0.2807,0.03071 0.61646,-0.05756 0.32726,-0.08604 0.52234,-0.260013 0.19621,-0.169724 0.27969,-0.405235 0.1034,-0.263466 0.0833,-0.598984 -0.0147,-0.332385 -0.11748,-0.723395 -0.0983,-0.374009 -0.24096,-0.709108 -0.14151,-0.33085 -0.25844,-0.568197 l 3.25983,-0.857034 1.00118,3.80809 -0.74377,0.195543 -0.78552,-2.987821 -1.68304,0.442484 q 0.065,0.178285 0.12383,0.367305 0.0588,0.189019 0.0957,0.329272 0.1352,0.514263 0.14763,0.924487 0.0167,0.409107 -0.11941,0.790218 -0.14436,0.401464 -0.46495,0.685681 -0.3206,0.284217 -0.87736,0.430595 z"
         style="font-style:normal;font-size:medium;text-anchor:middle;fill:none;fill-opacity:1;stroke:#000000;stroke-width:0.25;stroke-linecap:butt;stroke-linejoin:bevel;stroke-dasharray:none;stroke-opacity:1"
         id="path1019"
         inkscape:connector-curvature="0" />
      <path
         d="m 274.54413,86.752133 -0.26706,-1.015774 1.21128,-0.318455 0.26706,1.015775 z m -3.53608,0.929664 -0.26706,-1.015774 1.21128,-0.318455 0.26705,1.015774 z"
         style="font-style:normal;font-size:medium;text-anchor:middle;fill:none;fill-opacity:1;stroke:#000000;stroke-width:0.25;stroke-linecap:butt;stroke-linejoin:bevel;stroke-dasharray:none;stroke-opacity:1"
         id="path1021"
         inkscape:connector-curvature="0" />
      <path
         d="m 274.77938,93.678755 q -0.96477,0.253646 -1.74439,-0.222965 -0.77426,-0.473479 -1.01673,-1.395751 -0.12291,-0.467511 -0.079,-0.888011 0.0439,-0.420501 0.25159,-0.788622 0.25667,-0.458252 0.78641,-0.811088 0.53087,-0.348587 1.35114,-0.564242 0.84152,-0.221242 1.53871,-0.213697 0.69831,0.01179 1.30799,0.274085 0.57859,0.247744 1.00167,0.768113 0.42732,0.519251 0.63404,1.30552 0.0659,0.250756 0.0894,0.426347 0.0234,0.175591 0.014,0.364371 l -0.81177,0.213421 -0.0112,-0.0425 q 0.0325,-0.135764 0.024,-0.392545 -0.003,-0.253649 -0.069,-0.504405 -0.24024,-0.913772 -0.95703,-1.306938 -0.71254,-0.394283 -1.70928,-0.227654 0.31062,0.300021 0.51163,0.615228 0.20638,0.318339 0.32594,0.773099 0.10615,0.40376 0.1101,0.72988 0.009,0.329253 -0.13102,0.711482 -0.16092,0.442169 -0.50702,0.733091 -0.34498,0.295171 -0.91024,0.443783 z m -0.26083,-0.853831 q 0.39526,-0.103917 0.62323,-0.29108 0.22909,-0.182913 0.34995,-0.500952 0.0846,-0.231261 0.0645,-0.48044 -0.0201,-0.24918 -0.0882,-0.508436 -0.095,-0.361259 -0.26154,-0.649168 -0.16658,-0.28791 -0.43112,-0.568237 -0.0957,0.01608 -0.1861,0.0353 -0.0861,0.0181 -0.21788,0.05274 -0.67151,0.176547 -1.02677,0.41535 -0.34988,0.241935 -0.51144,0.543412 -0.13561,0.24467 -0.16564,0.49339 -0.0247,0.251853 0.0457,0.519609 0.16202,0.616265 0.62877,0.870694 0.47101,0.253311 1.17652,0.06782 z"
         style="font-style:normal;font-size:medium;text-anchor:middle;fill:none;fill-opacity:1;stroke:#000000;stroke-width:0.25;stroke-linecap:butt;stroke-linejoin:bevel;stroke-dasharray:none;stroke-opacity:1"
         id="path1023"
         inkscape:connector-curvature="0" />
      <path
         d="m 273.4026,96.789762 -0.26705,-1.015774 1.21127,-0.318454 0.26706,1.015774 z"
         style="font-style:normal;font-size:medium;text-anchor:middle;fill:none;fill-opacity:1;stroke:#000000;stroke-width:0.25;stroke-linecap:butt;stroke-linejoin:bevel;stroke-dasharray:none;stroke-opacity:1"
         id="path1025"
         inkscape:connector-curvature="0" />
      <path
         d="m 104.97289,346.3374 q 0,0.6836 -0.19531,1.23047 -0.19043,0.54688 -0.51758,0.91797 -0.34668,0.38574 -0.76172,0.58105 -0.41504,0.19043 -0.91308,0.19043 -0.46387,0 -0.81055,-0.1123 -0.34668,-0.10742 -0.68359,-0.29297 l -0.0586,0.25391 h -0.85937 v -7.59766 h 0.91797 v 2.71484 q 0.38574,-0.31738 0.82031,-0.51757 0.43457,-0.20508 0.97656,-0.20508 0.9668,0 1.52344,0.74219 0.56152,0.74218 0.56152,2.09472 z m -0.94726,0.0244 q 0,-0.97657 -0.32227,-1.4795 -0.32226,-0.50781 -1.04004,-0.50781 -0.40039,0 -0.81054,0.17578 -0.41016,0.1709 -0.76172,0.44434 v 3.125 q 0.39062,0.17578 0.66894,0.24414 0.28321,0.0684 0.63965,0.0684 0.76172,0 1.19141,-0.49805 0.43457,-0.50293 0.43457,-1.57226 z"
         style="font-style:normal;font-size:medium;text-anchor:middle;fill:none;fill-opacity:1;stroke:#000000;stroke-width:0.25;stroke-linecap:butt;stroke-linejoin:bevel;stroke-dasharray:none;stroke-opacity:1"
         id="path1028"
         inkscape:connector-curvature="0" />
      <path
         d="m 110.64184,349.10596 h -0.91309 v -0.58106 q -0.12207,0.083 -0.33203,0.23438 -0.20508,0.14648 -0.40039,0.23437 -0.22949,0.11231 -0.52734,0.18555 -0.29786,0.0781 -0.69825,0.0781 -0.7373,0 -1.25,-0.48828 -0.51269,-0.48828 -0.51269,-1.24511 0,-0.62012 0.26367,-1.00098 0.26856,-0.38574 0.76172,-0.60547 0.49805,-0.21973 1.19629,-0.29785 0.69824,-0.0781 1.49902,-0.11719 v -0.1416 q 0,-0.3125 -0.1123,-0.51758 -0.10742,-0.20508 -0.3125,-0.32226 -0.19532,-0.11231 -0.46875,-0.15137 -0.27344,-0.0391 -0.57129,-0.0391 -0.36133,0 -0.80567,0.0976 -0.44433,0.0928 -0.91796,0.27344 h -0.0488 v -0.93262 q 0.26855,-0.0732 0.77636,-0.16113 0.50782,-0.0879 1.00098,-0.0879 0.57617,0 1.00098,0.0977 0.42969,0.0928 0.74219,0.32226 0.30761,0.22461 0.46875,0.58106 0.16113,0.35644 0.16113,0.88379 z m -0.91309,-1.34278 v -1.51855 q -0.41992,0.0244 -0.99121,0.0732 -0.56641,0.0488 -0.89844,0.1416 -0.3955,0.11231 -0.63964,0.35157 -0.24415,0.23437 -0.24415,0.64941 0,0.46875 0.28321,0.70801 0.2832,0.23437 0.86426,0.23437 0.48339,0 0.88378,-0.18554 0.4004,-0.19043 0.74219,-0.45411 z"
         style="font-style:normal;font-size:medium;text-anchor:middle;fill:none;fill-opacity:1;stroke:#000000;stroke-width:0.25;stroke-linecap:butt;stroke-linejoin:bevel;stroke-dasharray:none;stroke-opacity:1"
         id="path1030"
         inkscape:connector-curvature="0" />
      <path
         d="m 116.45238,348.76416 q -0.45898,0.21973 -0.87402,0.3418 -0.41015,0.12207 -0.87402,0.12207 -0.59082,0 -1.08399,-0.1709 -0.49316,-0.17578 -0.84472,-0.52734 -0.35645,-0.35157 -0.55176,-0.88868 -0.19531,-0.53711 -0.19531,-1.25488 0,-1.33789 0.73242,-2.09961 0.7373,-0.76172 1.94336,-0.76172 0.46875,0 0.91797,0.13184 0.4541,0.13183 0.83007,0.32226 v 1.02051 h -0.0488 q -0.41993,-0.32715 -0.86914,-0.50293 -0.44434,-0.17578 -0.86914,-0.17578 -0.78125,0 -1.23536,0.52734 -0.44921,0.52247 -0.44921,1.53809 0,0.98633 0.43945,1.51856 0.44433,0.52734 1.24512,0.52734 0.27832,0 0.5664,-0.0732 0.28809,-0.0732 0.51758,-0.19043 0.2002,-0.10254 0.37598,-0.21485 0.17578,-0.11718 0.27832,-0.20019 h 0.0488 z"
         style="font-style:normal;font-size:medium;text-anchor:middle;fill:none;fill-opacity:1;stroke:#000000;stroke-width:0.25;stroke-linecap:butt;stroke-linejoin:bevel;stroke-dasharray:none;stroke-opacity:1"
         id="path1032"
         inkscape:connector-curvature="0" />
      <path
         d="m 122.5852,349.10596 h -1.21094 l -2.1875,-2.3877 -0.5957,0.56641 v 1.82129 h -0.91797 v -7.59766 h 0.91797 v 4.87305 l 2.65136,-2.72949 h 1.15723 l -2.53418,2.51953 z"
         style="font-style:normal;font-size:medium;text-anchor:middle;fill:none;fill-opacity:1;stroke:#000000;stroke-width:0.25;stroke-linecap:butt;stroke-linejoin:bevel;stroke-dasharray:none;stroke-opacity:1"
         id="path1034"
         inkscape:connector-curvature="0" />
      <path
         d="m 126.95531,344.65283 h -0.0488 q -0.20508,-0.0488 -0.40039,-0.0684 -0.19043,-0.0244 -0.45411,-0.0244 -0.4248,0 -0.82031,0.19043 -0.39551,0.18555 -0.76172,0.4834 v 3.87207 h -0.91797 v -5.4541 h 0.91797 v 0.80566 q 0.54688,-0.43945 0.96192,-0.62012 0.41992,-0.18554 0.85449,-0.18554 0.23926,0 0.34668,0.0146 0.10742,0.01 0.32226,0.0439 z"
         style="font-style:normal;font-size:medium;text-anchor:middle;fill:none;fill-opacity:1;stroke:#000000;stroke-width:0.25;stroke-linecap:butt;stroke-linejoin:bevel;stroke-dasharray:none;stroke-opacity:1"
         id="path1036"
         inkscape:connector-curvature="0" />
      <path
         d="m 132.39477,346.47412 h -4.01856 q 0,0.50293 0.15137,0.87891 0.15137,0.37109 0.41504,0.61035 0.25391,0.23437 0.60059,0.35156 0.35156,0.11719 0.77148,0.11719 0.55664,0 1.11816,-0.21973 0.56641,-0.22461 0.80567,-0.43945 h 0.0488 v 1.00098 q -0.46387,0.19531 -0.94727,0.32714 -0.4834,0.13184 -1.01562,0.13184 -1.35743,0 -2.11915,-0.73242 -0.76171,-0.73731 -0.76171,-2.08985 0,-1.33789 0.72753,-2.12402 0.73243,-0.78613 1.92383,-0.78613 1.10352,0 1.69922,0.64453 0.60059,0.64453 0.60059,1.83105 z m -0.89356,-0.70312 q -0.005,-0.72266 -0.36621,-1.11817 -0.35644,-0.39551 -1.08887,-0.39551 -0.7373,0 -1.17675,0.43457 -0.43457,0.43457 -0.49317,1.07911 z"
         style="font-style:normal;font-size:medium;text-anchor:middle;fill:none;fill-opacity:1;stroke:#000000;stroke-width:0.25;stroke-linecap:butt;stroke-linejoin:bevel;stroke-dasharray:none;stroke-opacity:1"
         id="path1038"
         inkscape:connector-curvature="0" />
      <path
         d="m 137.68285,347.53369 q 0,0.74707 -0.62011,1.22559 -0.61524,0.47851 -1.68457,0.47851 -0.60547,0 -1.11329,-0.1416 -0.50292,-0.14648 -0.84472,-0.31738 v -1.03027 h 0.0488 q 0.43457,0.32714 0.96679,0.52246 0.53223,0.19043 1.02051,0.19043 0.60547,0 0.94727,-0.19532 0.34179,-0.19531 0.34179,-0.61523 0,-0.32227 -0.18554,-0.48828 -0.18555,-0.16602 -0.71289,-0.28321 -0.19532,-0.0439 -0.5127,-0.10253 -0.3125,-0.0586 -0.57129,-0.12696 -0.71777,-0.19043 -1.02051,-0.55664 -0.29785,-0.37109 -0.29785,-0.9082 0,-0.33692 0.13672,-0.63477 0.1416,-0.29785 0.42481,-0.53222 0.27343,-0.2295 0.69336,-0.36133 0.4248,-0.13672 0.94726,-0.13672 0.48828,0 0.98633,0.12207 0.50293,0.11719 0.83496,0.28809 v 0.98144 h -0.0488 q -0.35156,-0.25879 -0.85449,-0.43457 -0.50293,-0.18066 -0.98633,-0.18066 -0.50293,0 -0.84961,0.19531 -0.34668,0.19043 -0.34668,0.57129 0,0.33691 0.20996,0.50781 0.20508,0.1709 0.66407,0.27832 0.2539,0.0586 0.5664,0.11719 0.31738,0.0586 0.52735,0.10742 0.63964,0.14648 0.98632,0.50293 0.34668,0.36133 0.34668,0.95703 z"
         style="font-style:normal;font-size:medium;text-anchor:middle;fill:none;fill-opacity:1;stroke:#000000;stroke-width:0.25;stroke-linecap:butt;stroke-linejoin:bevel;stroke-dasharray:none;stroke-opacity:1"
         id="path1040"
         inkscape:connector-curvature="0" />
      <path
         d="m 141.83324,349.05713 q -0.25878,0.0684 -0.5664,0.1123 -0.30274,0.0439 -0.54199,0.0439 -0.83497,0 -1.26954,-0.44922 -0.43457,-0.44922 -0.43457,-1.44043 v -2.90039 h -0.62011 v -0.77148 h 0.62011 v -1.56739 h 0.91797 v 1.56739 h 1.89453 v 0.77148 h -1.89453 v 2.48535 q 0,0.42969 0.0195,0.67383 0.0195,0.23926 0.13672,0.44922 0.10742,0.19531 0.29297,0.28808 0.19043,0.0879 0.57617,0.0879 0.22461,0 0.46875,-0.0635 0.24414,-0.0684 0.35157,-0.11231 h 0.0488 z"
         style="font-style:normal;font-size:medium;text-anchor:middle;fill:none;fill-opacity:1;stroke:#000000;stroke-width:0.25;stroke-linecap:butt;stroke-linejoin:bevel;stroke-dasharray:none;stroke-opacity:1"
         id="path1042"
         inkscape:connector-curvature="0" />
    </g>
  </g>
</svg>
