<?xml version="1.0" encoding="UTF-8" standalone="no"?>
<svg
   xmlns:dc="http://purl.org/dc/elements/1.1/"
   xmlns:cc="http://creativecommons.org/ns#"
   xmlns:rdf="http://www.w3.org/1999/02/22-rdf-syntax-ns#"
   xmlns:svg="http://www.w3.org/2000/svg"
   xmlns="http://www.w3.org/2000/svg"
   xmlns:sodipodi="http://sodipodi.sourceforge.net/DTD/sodipodi-0.dtd"
   xmlns:inkscape="http://www.inkscape.org/namespaces/inkscape"
   version="1.1"
   width="320.00mm"
   height="620.00mm"
   viewBox="0 0 320.00 620.00"
   id="svg4058"
   sodipodi:docname="backrest_page4.svg"
   inkscape:version="0.92.3 (2405546, 2018-03-11)">
  <metadata
     id="metadata4064">
    <rdf:RDF>
      <cc:Work
         rdf:about="">
        <dc:format>image/svg+xml</dc:format>
        <dc:type
           rdf:resource="http://purl.org/dc/dcmitype/StillImage" />
      </cc:Work>
    </rdf:RDF>
  </metadata>
  <defs
     id="defs4062" />
  <sodipodi:namedview
     pagecolor="#ffffff"
     bordercolor="#666666"
     borderopacity="1"
     objecttolerance="10"
     gridtolerance="10"
     guidetolerance="10"
     inkscape:pageopacity="0"
     inkscape:pageshadow="2"
     inkscape:window-width="1853"
     inkscape:window-height="1025"
     id="namedview4060"
     showgrid="false"
     inkscape:zoom="0.20142473"
     inkscape:cx="-129.7225"
     inkscape:cy="836.57334"
     inkscape:window-x="67"
     inkscape:window-y="27"
     inkscape:window-maximized="1"
     inkscape:current-layer="svg4058" />
  <style
     type="text/css"
     id="style3966">
    path {
        fill: none;
        stroke-linecap: butt;
        stroke-linejoin: bevel;
        stroke-dasharray: none;
    }
    path.outer {
        stroke: #000000;
        stroke-dasharray: none;
        stroke-dashoffset: 0;
        stroke-width: 0.3;
        stroke-opacity: 1.0;
    }
    path.convex {
        stroke: #000000;
        stroke-dasharray: 0.50,1.00;
        stroke-dashoffset:0;
        stroke-width:0.2;
        stroke-opacity: 1.0
    }
    path.concave {
        stroke: #000000;
        stroke-dasharray: 1.00,0.50,0.20,0.50;
        stroke-dashoffset: 0;
        stroke-width: 0.2;
        stroke-opacity: 1.0
    }
    path.freestyle {
        stroke: #000000;
        stroke-dasharray: none;
        stroke-dashoffset: 0;
        stroke-width: 0.2;
        stroke-opacity: 1.0
    }
    path.outer_background {
        stroke: #ffffff;
        stroke-opacity: 1.0;
        stroke-width: 0.5
    }
    path.inner_background {
        stroke: #ffffff;
        stroke-opacity: 1.0;
        stroke-width: 0.2
    }
    path.sticker {
        fill: #e5e5e5;
        stroke: none;
        fill-opacity: 1.0;
    }
    path.arrow {
        fill: #000000;
    }
    text {
        font-style: normal;
        fill: #000000;
        fill-opacity: 1.0;
        stroke: none;
    }
    text, tspan {
        text-anchor:middle;
    }
    </style>
  <g
     id="g4274"
     transform="rotate(21.375234,296.42859,638.93875)">
    <text
       y="311.07611"
       x="110.4783"
       style="font-style:normal;font-size:10px;text-anchor:middle;fill:#000000;fill-opacity:1;stroke:none"
       id="text3970">
      <tspan
         id="tspan3968"
         style="text-anchor:middle">[5] I 5</tspan>
    </text>
    <path
       class="sticker"
       d="m 231.66314,496.40305 9.37426,-3.48542 33.77512,86.6485 -9.26012,3.77816 z m -107.01378,-274.54008 9.37425,-3.48541 38.65549,99.1697 -9.26014,3.7781 z m 56.22631,144.24715 9.37425,-3.48544 16.55123,42.46142 -9.26015,3.77816 z m 33.72644,86.52353 9.37423,-3.48544 16.94694,43.47668 -9.26014,3.77816 z M 88.750347,129.765 l 9.374261,-3.48538 35.784912,91.80516 -9.26016,3.77819 z m -19.298478,-34.648564 -0.940592,-2.529799 4.949749,-1.929403 1.019567,2.498985 z M 61.060067,361.224 l -9.949714,1.01387 -12.867264,-109.23266 9.91296,-1.32588 z M 260.5232,585.30487 264.00858,594.67912 229.83441,608 226.05625,598.73986 Z M 34.984928,108.55132 31.499524,99.177063 65.673739,85.856259 l 3.77813,9.260177 z M 74.480593,93.156219 83.854854,89.670837 98.01051,125.98687 88.750347,129.765 Z m 151.575657,505.583641 -5.55429,8.31711 -96.4883,-62.26751 5.29032,-8.48747 z M 104.25822,495.6449 l -8.59655,5.11118 -24.880961,-40.38962 8.431763,-5.37867 z M 70.346802,409.19337 60.499225,410.93981 51.27221,363.27893 61.060067,361.224 Z M 23.529936,155.18737 14.15569,158.67275 0,122.35677 9.260152,118.57861 Z M 9.260152,118.57861 5.774748,109.20435 31.20679,99.291146 l 3.778138,9.260174 z m 38.895897,133.10072 -9.728275,2.32068 -24.548404,-96.18756 9.650566,-2.62508 z m 217.396351,331.66496 0.9408,2.53001 -4.95022,1.92979 -1.01978,-2.49922 z m -68.0114,-174.48003 9.37426,-3.48541 16.94697,43.47664 -9.26012,3.77816 z m -68.23702,127.43773 -8.59654,5.11118 -24.880963,-40.38959 8.431743,-5.37868 z m 34.11498,-214.97663 9.37425,-3.48535 17.3426,44.49198 -9.26014,3.77813 z m -84.206488,133.66243 -9.847567,1.74645 -8.805964,-45.48597 9.787861,-2.0549 z"
       id="path3972"
       inkscape:connector-curvature="0"
       style="fill:#e5e5e5;fill-opacity:1;stroke:none;stroke-linecap:butt;stroke-linejoin:bevel;stroke-dasharray:none" />
    <path
       class="outer"
       d="m 83.854854,89.670837 14.155656,36.316033 -9.260163,3.77813 9.374261,-3.48538 35.784912,91.80516 -9.26016,3.77819 9.37425,-3.48541 38.65549,99.1697 -9.26014,3.7781 9.37425,-3.48535 17.3426,44.49198 -9.26014,3.77813 9.37425,-3.48544 16.55123,42.46142 -9.26015,3.77816 9.37426,-3.48541 16.94697,43.47664 -9.26012,3.77816 9.37423,-3.48544 16.94694,43.47668 -9.26014,3.77816 9.37426,-3.48542 33.77512,86.6485 -9.26012,3.77816 0.9408,2.53001 -4.95022,1.92979 -1.01978,-2.49922 3.48538,9.37425 L 229.83441,608 l -3.77816,-9.26014 -5.55429,8.31711 -96.4883,-62.26751 5.29032,-8.48747 -8.59654,5.11118 -24.880963,-40.38959 8.431743,-5.37868 -8.59655,5.11118 -24.880961,-40.38962 8.431763,-5.37867 -9.847567,1.74645 -8.805964,-45.48597 9.787861,-2.0549 -9.847577,1.74644 -9.227015,-47.66088 9.787857,-2.05493 -9.949714,1.01387 -12.867264,-109.23266 9.91296,-1.32588 -9.728275,2.32068 -24.548404,-96.18756 9.650566,-2.62508 -9.374246,3.48538 L 0,122.35677 l 9.260152,-3.77816 -3.485404,-9.37426 25.432042,-9.913204 3.778138,9.260174 -3.485404,-9.374257 34.174215,-13.320804 3.77813,9.260177 -0.940592,-2.529799 4.949749,-1.929403 1.019567,2.498985 z"
       id="path3974"
       inkscape:connector-curvature="0"
       style="fill:none;stroke:#000000;stroke-width:0.30000001;stroke-linecap:butt;stroke-linejoin:bevel;stroke-dasharray:none;stroke-dashoffset:0;stroke-opacity:1" />
    <text
       y="-37.361992"
       x="593.29999"
       transform="rotate(68.704434)"
       style="font-style:normal;font-size:9px;text-anchor:middle;fill:#000000;fill-opacity:1;stroke:none"
       id="text3978">
      <tspan
         id="tspan3976"
         style="text-anchor:middle">7:6.</tspan>
    </text>
    <text
       y="-37.36195"
       x="429.74588"
       transform="rotate(68.704434)"
       style="font-style:normal;font-size:9px;text-anchor:middle;fill:#000000;fill-opacity:1;stroke:none"
       id="text3982">
      <tspan
         id="tspan3980"
         style="text-anchor:middle">2:2</tspan>
    </text>
    <text
       y="113.35942"
       x="32.864193"
       transform="rotate(-21.295492)"
       style="font-style:normal;font-size:2.43000007px;text-anchor:middle;fill:#000000;fill-opacity:1;stroke:none"
       id="text3986">
      <tspan
         id="tspan3984"
         style="text-anchor:middle">1:9.</tspan>
    </text>
    <g
       id="g3994">
      <path
         transform="matrix(-1.16988,-9.931334,9.931334,-1.16988,54.608058,306.45168)"
         class="arrow"
         d="M 0,0 1,1 0,0.25 -1,1 Z"
         id="path3988"
         inkscape:connector-curvature="0"
         style="fill:#000000;stroke-linecap:butt;stroke-linejoin:bevel;stroke-dasharray:none" />
      <text
         transform="translate(63.546255,309.3988)"
         style="font-style:normal;font-size:10px;text-anchor:middle;fill:#000000;fill-opacity:1;stroke:none"
         id="text3992">
        <tspan
           id="tspan3990"
           style="text-anchor:middle">1</tspan>
      </text>
    </g>
    <text
       y="16.581856"
       x="-310.7359"
       transform="rotate(-96.718305)"
       style="font-style:normal;font-size:9px;text-anchor:middle;fill:#000000;fill-opacity:1;stroke:none"
       id="text3998">
      <tspan
         id="tspan3996"
         style="text-anchor:middle">9.:1</tspan>
    </text>
    <g
       id="g4006">
      <path
         transform="matrix(-9.317196,3.631785,-3.631785,-9.317196,243.28971,592.02237)"
         class="arrow"
         d="M 0,0 1,1 0,0.25 -1,1 Z"
         id="path4000"
         inkscape:connector-curvature="0"
         style="fill:#000000;stroke-linecap:butt;stroke-linejoin:bevel;stroke-dasharray:none" />
      <text
         transform="translate(240.02111,587.63689)"
         style="font-style:normal;font-size:10px;text-anchor:middle;fill:#000000;fill-opacity:1;stroke:none"
         id="text4004">
        <tspan
           id="tspan4002"
           style="text-anchor:middle">2</tspan>
      </text>
    </g>
    <text
       y="-641.75641"
       x="-11.667781"
       transform="rotate(158.70445)"
       style="font-style:normal;font-size:9px;text-anchor:middle;fill:#000000;fill-opacity:1;stroke:none"
       id="text4010">
      <tspan
         id="tspan4008"
         style="text-anchor:middle">11:2</tspan>
    </text>
    <text
       y="-37.362976"
       x="133.49092"
       transform="rotate(68.704615)"
       style="font-style:normal;font-size:9px;text-anchor:middle;fill:#000000;fill-opacity:1;stroke:none"
       id="text4014">
      <tspan
         id="tspan4012"
         style="text-anchor:middle">2:3</tspan>
    </text>
    <text
       y="-382.30411"
       x="-457.01968"
       transform="rotate(-147.16434)"
       style="font-style:normal;font-size:9px;text-anchor:middle;fill:#000000;fill-opacity:1;stroke:none"
       id="text4018">
      <tspan
         id="tspan4016"
         style="text-anchor:middle">9.:2</tspan>
    </text>
    <g
       id="g4026">
      <path
         transform="matrix(-3.631771,-9.317203,9.317203,-3.631771,16.395044,136.88299)"
         class="arrow"
         d="M 0,0 1,1 0,0.25 -1,1 Z"
         id="path4020"
         inkscape:connector-curvature="0"
         style="fill:#000000;stroke-linecap:butt;stroke-linejoin:bevel;stroke-dasharray:none" />
      <text
         transform="translate(24.780527,137.6144)"
         style="font-style:normal;font-size:10px;text-anchor:middle;fill:#000000;fill-opacity:1;stroke:none"
         id="text4024">
        <tspan
           id="tspan4022"
           style="text-anchor:middle">3</tspan>
      </text>
    </g>
    <text
       y="-36.237179"
       x="-133.49095"
       transform="rotate(-111.29544)"
       style="font-style:normal;font-size:9px;text-anchor:middle;fill:#000000;fill-opacity:1;stroke:none"
       id="text4030">
      <tspan
         id="tspan4028"
         style="text-anchor:middle">13:3</tspan>
    </text>
    <text
       y="112.04517"
       x="-20.632221"
       transform="rotate(-21.295439)"
       style="font-style:normal;font-size:9px;text-anchor:middle;fill:#000000;fill-opacity:1;stroke:none"
       id="text4034">
      <tspan
         id="tspan4032"
         style="text-anchor:middle">1:11</tspan>
    </text>
    <g
       id="g4042">
      <path
         transform="matrix(-2.472876,-9.689421,9.689421,-2.472876,35.842996,203.43333)"
         class="arrow"
         d="M 0,0 1,1 0,0.25 -1,1 Z"
         id="path4036"
         inkscape:connector-curvature="0"
         style="fill:#000000;stroke-linecap:butt;stroke-linejoin:bevel;stroke-dasharray:none" />
      <text
         transform="translate(44.563472,205.20776)"
         style="font-style:normal;font-size:10px;text-anchor:middle;fill:#000000;fill-opacity:1;stroke:none"
         id="text4040">
        <tspan
           id="tspan4038"
           style="text-anchor:middle">4</tspan>
      </text>
    </g>
    <text
       y="-17.37685"
       x="-205.97867"
       transform="rotate(-104.31709)"
       style="font-style:normal;font-size:9px;text-anchor:middle;fill:#000000;fill-opacity:1;stroke:none"
       id="text4046">
      <tspan
         id="tspan4044"
         style="text-anchor:middle">13:4</tspan>
    </text>
    <text
       y="-640.4433"
       x="-32.838955"
       transform="rotate(158.70229)"
       style="font-style:normal;font-size:2.43000007px;text-anchor:middle;fill:#000000;fill-opacity:1;stroke:none"
       id="text4050">
      <tspan
         id="tspan4048"
         style="text-anchor:middle">14:2</tspan>
    </text>
    <text
       y="-37.361973"
       x="476.17807"
       transform="rotate(68.704434)"
       style="font-style:normal;font-size:9px;text-anchor:middle;fill:#000000;fill-opacity:1;stroke:none"
       id="text4054">
      <tspan
         id="tspan4052"
         style="text-anchor:middle">7:10</tspan>
    </text>
  </g>
  <g
     transform="rotate(159.01264,105.08765,376.85409)"
     id="g3439">
    <text
       y="351.61011"
       x="152.27536"
       style="font-style:normal;font-size:10px;text-anchor:middle;fill:#000000;fill-opacity:1;stroke:none"
       id="text3335">
      <tspan
         id="tspan3333"
         style="text-anchor:middle">[10] I 10</tspan>
    </text>
    <path
       class="sticker"
       d="M 9.665281,559.41492 0,556.84444 l 22.850275,-91.69501 9.741232,2.2656 z m 51.656261,-136.55947 -9.165943,-4.00127 17.657667,-42.24708 9.287104,3.71139 z m 33.333897,-87.16561 -9.759262,-2.18665 10.628611,-51.19259 9.823132,1.87904 z m 40.741731,165.41556 8.8244,4.70686 -50.232667,97.84686 -8.967899,-4.42737 z m 16.55018,-299.45261 1.10201,-9.94032 56.8982,5.40468 -0.78923,9.97004 z m -46.59943,82.53685 -8.630734,-5.05322 45.645764,-80.84774 9.5844,3.36411 z M 85.021004,599.23175 80.210343,608.00001 7.458359,569.55895 9.665281,559.41492 Z m 124.137326,-392.14456 9.94033,1.102 -10.85912,114.32063 -9.97004,-0.78922 z m -22.20285,161.02591 9.67857,2.51994 -11.22823,46.08289 -9.75294,-2.21465 z m -31.24153,88.55659 9.02916,4.30101 -20.18614,44.14999 -9.1598,-4.01529 z m -76.61358,-76.3512 -9.391158,-3.4396 15.451677,-44.33194 9.49455,3.14289 z m 119.16913,-58.59789 9.67804,2.52193 -11.23958,46.08728 -9.75248,-2.21671 z m -165.677993,145.69443 -8.319378,-5.55089 28.559774,-44.29552 8.489639,5.28683 z m 143.061373,-52.91375 8.97316,4.41666 -19.80462,41.88438 -9.10747,-4.13263 z"
       id="path3337"
       inkscape:connector-curvature="0"
       style="fill:#e5e5e5;fill-opacity:1;stroke:none;stroke-linecap:butt;stroke-linejoin:bevel;stroke-dasharray:none" />
    <path
       class="outer"
       d="m 52.155599,418.85418 17.657667,-42.24708 9.287104,3.71139 -9.391158,-3.4396 15.451677,-44.33194 9.49455,3.14289 -9.759262,-2.18665 10.628611,-51.19259 9.823132,1.87904 -8.630734,-5.05322 45.645764,-80.84774 9.5844,3.36411 1.10201,-9.94032 56.8982,5.40468 -0.78923,9.97004 9.94033,1.102 -10.85912,114.32063 -9.97004,-0.78922 9.67804,2.52193 -11.23958,46.08728 -9.75248,-2.21671 9.67857,2.51994 -11.22823,46.08289 -9.75294,-2.21465 8.97316,4.41666 -19.80462,41.88438 -9.10747,-4.13263 9.02916,4.30101 -20.18614,44.14999 -9.1598,-4.01529 8.8244,4.70686 -50.232667,97.84686 -8.967899,-4.42737 -4.810661,8.76826 L 7.458359,569.55895 9.665281,559.41492 0,556.84444 l 22.850275,-91.69501 9.741232,2.2656 -8.319378,-5.55089 28.559774,-44.29552 8.489639,5.28683 z"
       id="path3339"
       inkscape:connector-curvature="0"
       style="fill:none;stroke:#000000;stroke-width:0.30000001;stroke-linecap:butt;stroke-linejoin:bevel;stroke-dasharray:none;stroke-dashoffset:0;stroke-opacity:1" />
    <text
       y="142.8472"
       x="-493.07056"
       transform="rotate(-76.00696)"
       style="font-style:normal;font-size:9px;text-anchor:middle;fill:#000000;fill-opacity:1;stroke:none"
       id="text3343">
      <tspan
         id="tspan3341"
         style="text-anchor:middle">4:1</tspan>
    </text>
    <text
       y="-351.11179"
       x="439.10458"
       transform="rotate(117.17508)"
       style="font-style:normal;font-size:9px;text-anchor:middle;fill:#000000;fill-opacity:1;stroke:none"
       id="text3347">
      <tspan
         id="tspan3345"
         style="text-anchor:middle">6.:1</tspan>
    </text>
    <text
       y="184.58083"
       x="199.06935"
       transform="rotate(5.4261677)"
       style="font-style:normal;font-size:9px;text-anchor:middle;fill:#000000;fill-opacity:1;stroke:none"
       id="text3351">
      <tspan
         id="tspan3349"
         style="text-anchor:middle">11:2</tspan>
    </text>
    <g
       id="g3359">
      <path
         transform="matrix(4.916428,-8.70797,8.70797,4.916428,128.64762,242.92123)"
         class="arrow"
         d="M 0,0 1,1 0,0.25 -1,1 Z"
         id="path3353"
         inkscape:connector-curvature="0"
         style="fill:#000000;stroke-linecap:butt;stroke-linejoin:bevel;stroke-dasharray:none" />
      <text
         transform="translate(136.4848,251.34602)"
         style="font-style:normal;font-size:10px;text-anchor:middle;fill:#000000;fill-opacity:1;stroke:none"
         id="text3357">
        <tspan
           id="tspan3355"
           style="text-anchor:middle">1</tspan>
      </text>
    </g>
    <text
       y="229.65648"
       x="-148.28633"
       transform="rotate(-60.551376)"
       style="font-style:normal;font-size:9px;text-anchor:middle;fill:#000000;fill-opacity:1;stroke:none"
       id="text3363">
      <tspan
         id="tspan3361"
         style="text-anchor:middle">4:1</tspan>
    </text>
    <text
       y="-491.89877"
       x="-312.50629"
       transform="rotate(-152.14872)"
       style="font-style:normal;font-size:9px;text-anchor:middle;fill:#000000;fill-opacity:1;stroke:none"
       id="text3367">
      <tspan
         id="tspan3365"
         style="text-anchor:middle">12:1</tspan>
    </text>
    <g
       id="g3375">
      <path
         transform="matrix(-0.945626,9.95519,-9.95519,-0.945626,203.71391,264.40391)"
         class="arrow"
         d="M 0,0 1,1 0,0.25 -1,1 Z"
         id="path3369"
         inkscape:connector-curvature="0"
         style="fill:#000000;stroke-linecap:butt;stroke-linejoin:bevel;stroke-dasharray:none" />
      <text
         transform="translate(194.75424,267.55285)"
         style="font-style:normal;font-size:10px;text-anchor:middle;fill:#000000;fill-opacity:1;stroke:none"
         id="text3373">
        <tspan
           id="tspan3371"
           style="text-anchor:middle">2</tspan>
      </text>
    </g>
    <text
       y="-229.60384"
       x="243.95526"
       transform="rotate(95.426168)"
       style="font-style:normal;font-size:9px;text-anchor:middle;fill:#000000;fill-opacity:1;stroke:none"
       id="text3379">
      <tspan
         id="tspan3377"
         style="text-anchor:middle">6.:2</tspan>
    </text>
  </g>
</svg>
