<?xml version="1.0" encoding="UTF-8" standalone="no"?>
<svg
   xmlns:dc="http://purl.org/dc/elements/1.1/"
   xmlns:cc="http://creativecommons.org/ns#"
   xmlns:rdf="http://www.w3.org/1999/02/22-rdf-syntax-ns#"
   xmlns:svg="http://www.w3.org/2000/svg"
   xmlns="http://www.w3.org/2000/svg"
   xmlns:sodipodi="http://sodipodi.sourceforge.net/DTD/sodipodi-0.dtd"
   xmlns:inkscape="http://www.inkscape.org/namespaces/inkscape"
   version="1.1"
   width="320.00mm"
   height="620.00mm"
   viewBox="0 0 320.00 620.00"
   id="svg18112"
   sodipodi:docname="backrest_page2.svg"
   inkscape:version="0.92.2 (5c3e80d, 2017-08-06)">
  <metadata
     id="metadata18118">
    <rdf:RDF>
      <cc:Work
         rdf:about="">
        <dc:format>image/svg+xml</dc:format>
        <dc:type
           rdf:resource="http://purl.org/dc/dcmitype/StillImage" />
      </cc:Work>
    </rdf:RDF>
  </metadata>
  <defs
     id="defs18116" />
  <sodipodi:namedview
     pagecolor="#ffffff"
     bordercolor="#666666"
     borderopacity="1"
     objecttolerance="10"
     gridtolerance="10"
     guidetolerance="10"
     inkscape:pageopacity="0"
     inkscape:pageshadow="2"
     inkscape:window-width="1920"
     inkscape:window-height="1017"
     id="namedview18114"
     showgrid="false"
     inkscape:zoom="0.28485759"
     inkscape:cx="642.67406"
     inkscape:cy="1273.5068"
     inkscape:window-x="-8"
     inkscape:window-y="209"
     inkscape:window-maximized="1"
     inkscape:current-layer="svg18112" />
  <style
     type="text/css"
     id="style18002">
    path {
        fill: none;
        stroke-linecap: butt;
        stroke-linejoin: bevel;
        stroke-dasharray: none;
    }
    path.outer {
        stroke: #000000;
        stroke-dasharray: none;
        stroke-dashoffset: 0;
        stroke-width: 0.3;
        stroke-opacity: 1.0;
    }
    path.convex {
        stroke: #000000;
        stroke-dasharray: 0.50,1.00;
        stroke-dashoffset:0;
        stroke-width:0.2;
        stroke-opacity: 1.0
    }
    path.concave {
        stroke: #000000;
        stroke-dasharray: 1.00,0.50,0.20,0.50;
        stroke-dashoffset: 0;
        stroke-width: 0.2;
        stroke-opacity: 1.0
    }
    path.freestyle {
        stroke: #000000;
        stroke-dasharray: none;
        stroke-dashoffset: 0;
        stroke-width: 0.2;
        stroke-opacity: 1.0
    }
    path.outer_background {
        stroke: #ffffff;
        stroke-opacity: 1.0;
        stroke-width: 0.5
    }
    path.inner_background {
        stroke: #ffffff;
        stroke-opacity: 1.0;
        stroke-width: 0.2
    }
    path.sticker {
        fill: #e5e5e5;
        stroke: none;
        fill-opacity: 1.0;
    }
    path.arrow {
        fill: #000000;
    }
    text {
        font-style: normal;
        fill: #000000;
        fill-opacity: 1.0;
        stroke: none;
    }
    text, tspan {
        text-anchor:middle;
    }
    </style>
  <path
     d="m 131.14844,302.57945 h -2.54001 v -9.81781 h 2.54001 v 0.72071 h -1.69008 v 8.37639 h 1.69008 z"
     style="font-style:normal;font-size:medium;text-anchor:middle;fill:none;fill-opacity:1;stroke:#000000;stroke-width:0.06614583;stroke-linecap:butt;stroke-linejoin:bevel;stroke-dasharray:none;stroke-opacity:1"
     id="path1073"
     inkscape:connector-curvature="0" />
  <path
     d="m 137.86969,298.49205 h -1.07951 v 2.11174 h -0.93785 v -2.11174 h -3.48274 v -1.15918 l 3.52182,-4.23355 h 0.89877 v 4.58634 h 1.07951 z m -2.01736,-0.80639 v -3.38684 l -2.81843,3.38684 z"
     style="font-style:normal;font-size:medium;text-anchor:middle;fill:none;fill-opacity:1;stroke:#000000;stroke-width:0.06614583;stroke-linecap:butt;stroke-linejoin:bevel;stroke-dasharray:none;stroke-opacity:1"
     id="path1075"
     inkscape:connector-curvature="0" />
  <path
     d="m 141.73831,302.57945 h -2.54 v -0.72071 h 1.69008 v -8.37639 h -1.69008 v -0.72071 h 2.54 z"
     style="font-style:normal;font-size:medium;text-anchor:middle;fill:none;fill-opacity:1;stroke:#000000;stroke-width:0.06614583;stroke-linecap:butt;stroke-linejoin:bevel;stroke-dasharray:none;stroke-opacity:1"
     id="path1077"
     inkscape:connector-curvature="0" />
  <path
     d="m 149.9738,300.60379 h -2.87217 v -0.76607 h 0.95251 v -5.97233 h -0.95251 v -0.76607 h 2.87217 v 0.76607 h -0.95251 v 5.97233 h 0.95251 z"
     style="font-style:normal;font-size:medium;text-anchor:middle;fill:none;fill-opacity:1;stroke:#000000;stroke-width:0.06614583;stroke-linecap:butt;stroke-linejoin:bevel;stroke-dasharray:none;stroke-opacity:1"
     id="path1079"
     inkscape:connector-curvature="0" />
  <path
     d="m 160.0459,298.49205 h -1.0795 v 2.11174 h -0.93785 v -2.11174 h -3.48274 v -1.15918 l 3.52182,-4.23355 h 0.89877 v 4.58634 h 1.0795 z m -2.01735,-0.80639 v -3.38684 l -2.81843,3.38684 z"
     style="font-style:normal;font-size:medium;text-anchor:middle;fill:none;fill-opacity:1;stroke:#000000;stroke-width:0.06614583;stroke-linecap:butt;stroke-linejoin:bevel;stroke-dasharray:none;stroke-opacity:1"
     id="path1081"
     inkscape:connector-curvature="0" />
  <path
     d="m 167.88085,302.68025 h -1.11858 q -0.86458,-1.02311 -1.34328,-2.2327 -0.47869,-1.20958 -0.47869,-2.72661 0,-1.51702 0.47869,-2.72661 0.4787,-1.20958 1.34328,-2.23269 h 1.11858 v 0.0504 q -0.39566,0.36791 -0.75712,0.85175 -0.35658,0.47879 -0.66431,1.11887 -0.29308,0.61991 -0.47869,1.36582 -0.18074,0.74591 -0.18074,1.57246 0,0.86183 0.17585,1.5775 0.18073,0.71568 0.48358,1.36079 0.29308,0.61991 0.66919,1.11887 0.37612,0.50399 0.75224,0.85175 z"
     style="font-style:normal;font-size:medium;text-anchor:middle;fill:none;fill-opacity:1;stroke:#000000;stroke-width:0.06614583;stroke-linecap:butt;stroke-linejoin:bevel;stroke-dasharray:none;stroke-opacity:1"
     id="path1083"
     inkscape:connector-curvature="0" />
  <path
     d="m 172.44797,293.67891 h -0.0488 q -0.15143,-0.0454 -0.39566,-0.0907 -0.24423,-0.0504 -0.42985,-0.0504 -0.59104,0 -0.85969,0.27216 -0.26377,0.26711 -0.26377,0.97271 v 0.19151 h 1.65589 v 0.79631 h -1.62658 v 4.83331 h -0.91831 v -4.8333 h -0.62035 v -0.79632 h 0.62035 v -0.18647 q 0,-1.00295 0.48358,-1.53719 0.48358,-0.53927 1.397,-0.53927 0.30773,0 0.55196,0.0302 0.24912,0.0302 0.45427,0.0706 z"
     style="font-style:normal;font-size:medium;text-anchor:middle;fill:none;fill-opacity:1;stroke:#000000;stroke-width:0.06614583;stroke-linecap:butt;stroke-linejoin:bevel;stroke-dasharray:none;stroke-opacity:1"
     id="path1085"
     inkscape:connector-curvature="0" />
  <path
     d="m 177.2691,300.60379 h -0.91342 v -0.59975 q -0.12212,0.0857 -0.33216,0.24191 -0.20515,0.1512 -0.40054,0.24192 -0.22957,0.11592 -0.52754,0.19152 -0.29796,0.0806 -0.6985,0.0806 -0.73758,0 -1.25046,-0.504 -0.51289,-0.50399 -0.51289,-1.28518 0,-0.64007 0.26377,-1.03319 0.26865,-0.39815 0.762,-0.62495 0.49823,-0.2268 1.19674,-0.30744 0.6985,-0.0806 1.49958,-0.12096 v -0.14616 q 0,-0.32255 -0.11235,-0.53423 -0.10746,-0.21168 -0.31262,-0.33264 -0.19538,-0.11591 -0.46892,-0.15623 -0.27354,-0.0403 -0.5715,-0.0403 -0.36146,0 -0.80596,0.10079 -0.44451,0.0958 -0.91832,0.28224 h -0.0488 v -0.96263 q 0.26865,-0.0756 0.77665,-0.16632 0.508,-0.0907 1.00135,-0.0907 0.57639,0 1.00135,0.1008 0.42985,0.0958 0.74246,0.33264 0.30774,0.23184 0.46893,0.59975 0.16119,0.36792 0.16119,0.91223 z m -0.91342,-1.38598 v -1.56743 q -0.42008,0.0252 -0.99158,0.0756 -0.56662,0.0504 -0.89877,0.14616 -0.39566,0.11592 -0.63989,0.36288 -0.24423,0.24191 -0.24423,0.67031 0,0.48383 0.28331,0.73079 0.2833,0.24192 0.86458,0.24192 0.48357,0 0.88411,-0.19152 0.40054,-0.19656 0.74247,-0.46871 z"
     style="font-style:normal;font-size:medium;text-anchor:middle;fill:none;fill-opacity:1;stroke:#000000;stroke-width:0.06614583;stroke-linecap:butt;stroke-linejoin:bevel;stroke-dasharray:none;stroke-opacity:1"
     id="path1087"
     inkscape:connector-curvature="0" />
  <path
     d="m 183.08181,300.25099 q -0.45915,0.2268 -0.87435,0.3528 -0.41031,0.126 -0.87435,0.126 -0.59104,0 -1.08438,-0.1764 -0.49335,-0.18144 -0.84504,-0.54431 -0.35658,-0.36288 -0.55197,-0.91727 -0.19538,-0.5544 -0.19538,-1.29527 0,-1.38094 0.73269,-2.16717 0.73758,-0.78623 1.94408,-0.78623 0.46893,0 0.91831,0.13607 0.45428,0.13608 0.83039,0.33264 v 1.05335 h -0.0488 q -0.42008,-0.33768 -0.86946,-0.51912 -0.4445,-0.18143 -0.86946,-0.18143 -0.78155,0 -1.23582,0.54431 -0.44938,0.53927 -0.44938,1.58758 0,1.01807 0.43962,1.56742 0.4445,0.54432 1.24558,0.54432 0.27842,0 0.56661,-0.0756 0.2882,-0.0756 0.51777,-0.19656 0.20027,-0.10584 0.37612,-0.22176 0.17585,-0.12095 0.27842,-0.20663 h 0.0488 z"
     style="font-style:normal;font-size:medium;text-anchor:middle;fill:none;fill-opacity:1;stroke:#000000;stroke-width:0.06614583;stroke-linecap:butt;stroke-linejoin:bevel;stroke-dasharray:none;stroke-opacity:1"
     id="path1089"
     inkscape:connector-curvature="0" />
  <path
     d="m 188.83102,297.88726 h -4.02005 q 0,0.51912 0.15142,0.90719 0.15143,0.38304 0.4152,0.62999 0.254,0.24192 0.60081,0.36288 0.35169,0.12096 0.77177,0.12096 0.55685,0 1.11858,-0.2268 0.56661,-0.23184 0.80596,-0.45359 h 0.0488 v 1.03318 q -0.46404,0.2016 -0.94762,0.33768 -0.48358,0.13608 -1.016,0.13608 -1.35793,0 -2.11993,-0.75599 -0.762,-0.76103 -0.762,-2.1571 0,-1.38094 0.72781,-2.19237 0.73269,-0.81143 1.92454,-0.81143 1.10393,0 1.69985,0.66527 0.60081,0.66527 0.60081,1.88998 z m -0.89389,-0.72575 q -0.005,-0.74591 -0.36634,-1.15415 -0.35658,-0.40823 -1.08928,-0.40823 -0.73758,0 -1.17719,0.44855 -0.43473,0.44856 -0.49335,1.11383 z"
     style="font-style:normal;font-size:medium;text-anchor:middle;fill:none;fill-opacity:1;stroke:#000000;stroke-width:0.06614583;stroke-linecap:butt;stroke-linejoin:bevel;stroke-dasharray:none;stroke-opacity:1"
     id="path1091"
     inkscape:connector-curvature="0" />
  <path
     d="m 192.97807,297.72094 q 0,1.51703 -0.47869,2.72661 -0.4787,1.20959 -1.34328,2.2327 h -1.11858 v -0.0504 q 0.37612,-0.34776 0.75224,-0.85175 0.381,-0.49896 0.66919,-1.11887 0.30285,-0.64511 0.47869,-1.36078 0.18073,-0.71568 0.18073,-1.57751 0,-0.82655 -0.18073,-1.57246 -0.18073,-0.74591 -0.47869,-1.36582 -0.30773,-0.64008 -0.66919,-1.11887 -0.35658,-0.48383 -0.75224,-0.85175 v -0.0504 h 1.11858 q 0.86458,1.02311 1.34328,2.23269 0.47869,1.20959 0.47869,2.72661 z"
     style="font-style:normal;font-size:medium;text-anchor:middle;fill:none;fill-opacity:1;stroke:#000000;stroke-width:0.06614583;stroke-linecap:butt;stroke-linejoin:bevel;stroke-dasharray:none;stroke-opacity:1"
     id="path1093"
     inkscape:connector-curvature="0" />
  <path
     sodipodi:nodetypes="cccccccccccccccccccccccccccccccccccccccccccccccccccccccccccccccccccccccccccccccccccccccccccccccccccccccccccccccccccccccccccccccccc"
     style="fill:#e5e5e5;fill-opacity:1;stroke:#000000;stroke-width:0.06614583;stroke-linecap:butt;stroke-linejoin:bevel;stroke-dasharray:none;stroke-opacity:1"
     inkscape:connector-curvature="0"
     id="path18008"
     d="m 160.65633,606.14241 -0.38697,2.89118 -75.585833,-10e-6 0.07267,-2.89117 z M 50.084697,305.16895 l -9.960873,0.968 -10.341533,-96.9549 9.92649,-1.29032 z m 0.07111,102.25421 -10.003759,-0.15946 -0.01197,-47.23215 10.003677,-0.16485 z m -10.444084,102.41738 -9.873568,-1.66748 7.636846,-53.38866 9.919458,1.34668 z M 43.469051,44.491476 37.98672,35.856206 71.919709,13.346078 84.136948,16.052592 Z m 40.667897,-28.438884 -0.02393,-2.769116 75.585722,-0.144762 0.33823,2.768499 z M 60.20782,606.14236 l -0.386936,2.89117 -36.819576,1.3e-4 0.07263,-2.89117 z m -20.499037,-398.25063 -10.30019,-1.36807 -12.939251,-92.16678 9.877862,-1.64013 z m 45.047412,398.25068 -0.386988,2.89117 -24.234075,-5e-5 0.07269,-2.89117 z m -61.682252,8e-5 -8.409291,-1.8 15.171019,-96.15372 9.876047,1.65177 z m 3.273259,-493.42574 -9.644925,-2.74441 17.04306,-67.911259 9.723712,2.430395 z m 21.047252,343.41433 -9.977471,-0.76461 2.742994,-48.38418 9.995825,0.44087 z m 2.749303,-96.26438 -10.003886,-0.15063 -0.05871,-54.37343 10.00354,-0.17369 z m 186.412713,246.27572 -0.38696,2.89117 h -75.58585 l 0.0726,-2.89118 z m 44.49875,-398.71296 9.93105,1.25229 -9.99255,96.99379 -9.9643,-0.9298 z m -9.96579,152.18346 10.00377,0.15959 0.0113,47.42531 -10.00368,0.1647 z m 2.79793,96.44872 9.91868,-1.35274 7.66759,53.38395 -9.87259,1.67354 z m -37.95038,-440.299805 9.64091,-2.408335 36.58025,22.034948 -5.45121,8.656249 z m -75.90001,0.145378 -0.0239,-2.769114 75.5857,-0.144763 0.33823,2.768499 z m 138.2018,590.235277 -0.38698,2.89117 -36.81966,-1.2e-4 0.0727,-2.89117 z m -4.16457,-493.9386 9.88371,1.60229 -12.60749,92.21569 -10.2952,1.40759 z m -32.96937,493.93848 -0.38694,2.89117 -24.23405,5e-5 0.0726,-2.89117 z m 20.49621,-96.37598 9.87627,-1.65042 14.13707,95.79163 -7.37561,2.23489 z m -4.89411,-465.721693 9.71492,-2.467676 17.28732,67.845539 -9.63497,2.78133 z m -5.60605,363.317823 9.99561,-0.44646 2.76792,48.3754 -9.97705,0.77018 z m -0.0714,-102.61678 10.00391,0.15055 0.0596,54.54286 -10.00353,0.17377 z"
     class="sticker" />
  <path
     style="fill:none;stroke:#000000;stroke-width:0.06614583;stroke-linecap:butt;stroke-linejoin:bevel;stroke-dasharray:none;stroke-dashoffset:0;stroke-opacity:1"
     inkscape:connector-curvature="0"
     id="path18010"
     d="m 236.11073,112.31494 -75.90002,0.14568 m 0.17373,96.55341 75.89882,-0.80152 m 0,0 -75.89882,0.80152 m 0.17373,96.55341 75.89892,-0.75543 m -76.24638,-192.35139 75.90002,-0.14568 m 0,0 57.96347,-0.11105 m 0,0 -57.96347,0.11105 m 0.17253,95.89757 44.77196,-0.78305 m 0,0 -44.77196,0.78305 m 0.17383,96.5995 34.57233,-0.0663 M 39.708781,207.8917 l 44.774456,0.61154 m -0.17256,-95.89757 -57.963475,0.11105 m 0,0 57.963475,-0.11105 m -34.22598,192.56325 34.572344,-0.0662 M 84.483237,208.5033 39.708781,207.89176 m 44.94826,97.21103 75.901129,0.46468 m -0.17373,-96.55341 -75.901203,-0.51076 m 0,0 75.901203,0.51076 m -0.17373,-96.55341 -75.900033,0.14508 m 0,0 75.900033,-0.14508 m -75.553669,192.64214 75.901129,0.46468 m -75.901129,-0.46468 -34.572344,0.0662 m 220.944723,-0.42321 -34.57233,0.0663 m -75.89892,0.75543 75.89892,-0.75543 M 84.728184,407.41368 160.6284,407.578 m 0,0 75.9001,-0.20597 m -186.372698,0.0512 34.572382,-0.009 m 151.800316,-0.0416 34.57238,-0.009 M 84.756185,509.82681 160.65633,509.58885 m -120.944612,0.25169 45.044467,-0.0137 m 151.800405,-0.0466 45.04445,-0.0138 m -120.94471,-0.17754 75.90026,0.19142 M 84.728184,407.41365 160.6284,407.57797 m -75.900216,-0.16432 -34.572382,0.009 m 220.945078,-0.0606 -34.57238,0.009 m -75.9001,0.20597 75.9001,-0.20597 m 0.0281,102.40831 -75.90026,-0.19142 m 0,0 -75.900145,0.23796 m 0,0 -45.044467,0.0137 m 241.889322,-0.0741 -45.04445,0.0138"
     class="freestyle" />
  <path
     sodipodi:nodetypes="ccccccccccccccccccccccccccccccccccccccccccccccccccccccccccccccccccccccccccccccc"
     style="fill:none;stroke:#000000;stroke-width:0.06614583;stroke-linecap:butt;stroke-linejoin:bevel;stroke-dasharray:none;stroke-dashoffset:0;stroke-opacity:1"
     inkscape:connector-curvature="0"
     id="path18012"
     d="m 40.123824,306.13695 -10.341533,-96.9549 9.92649,-1.29032 -10.30019,-1.36807 -12.939251,-92.16678 9.877862,-1.64013 -9.644925,-2.74441 17.04306,-67.911259 9.723712,2.430395 -5.482331,-8.63527 33.932991,-22.510128 12.217237,2.706514 -0.02392,-2.769116 75.585724,-0.144762 0.17572,10.321484 0.13859,-10.322099 75.5857,-0.144763 0.33822,2.768499 9.64091,-2.408335 36.58025,22.034948 -5.45121,8.656249 9.71492,-2.467676 17.28732,67.845539 -9.63497,2.78133 9.88371,1.60229 -12.60749,92.21569 -10.2952,1.40759 9.93105,1.25229 -9.99255,96.99379 -9.9643,-0.9298 10.00391,0.15055 0.0596,54.54286 -10.00353,0.17377 10.00377,0.15959 0.0113,47.42531 -10.00368,0.1647 9.99561,-0.44646 2.76792,48.3754 -9.97705,0.77018 9.91868,-1.35274 7.66759,53.38395 -9.87259,1.67354 9.87627,-1.65042 14.13713,95.79163 -7.37567,2.23489 -0.38698,2.89117 -36.81966,-1.2e-4 0.0727,-2.89117 -0.38694,2.89117 -24.23405,5e-5 0.0726,-2.89117 -0.38696,2.89117 h -75.58585 l 0.0726,-2.89118 -0.38697,2.89118 -75.585833,-10e-6 0.07267,-2.89117 -0.386988,2.89117 -24.234075,-5e-5 0.07269,-2.89117 -0.386936,2.89117 -36.819515,1.3e-4 0.07266,-2.89117 -8.409291,-1.8 15.171019,-96.15372 9.876047,1.65177 -9.873568,-1.66748 7.636846,-53.38866 9.919458,1.34668 -9.977471,-0.76461 2.742994,-48.38418 9.995825,0.44087 -10.003759,-0.15946 -0.01196,-47.23215 10.003677,-0.16485 -10.003886,-0.15063 -0.05871,-54.37343 10.00354,-0.17369 z"
     class="outer" />
  <path
     class="arrow"
     d="m 44.896739,256.53031 8.849332,-11.389 -6.363412,11.10671 8.552112,9.413 z"
     id="path18014"
     inkscape:connector-curvature="0"
     style="fill:#000000;stroke:#000000;stroke-width:0.06614588;stroke-linecap:butt;stroke-linejoin:bevel;stroke-dasharray:none;stroke-opacity:1" />
  <path
     inkscape:connector-curvature="0"
     id="path1096"
     style="font-style:normal;font-size:medium;text-anchor:middle;fill:none;fill-opacity:1;stroke:#000000;stroke-width:0.06614583;stroke-linecap:butt;stroke-linejoin:bevel;stroke-dasharray:none;stroke-opacity:1"
     d="m 56.537484,257.53107 h -1.079503 v 2.11174 h -0.937849 v -2.11174 h -3.482741 v -1.15918 l 3.521818,-4.23355 h 0.898772 v 4.58634 h 1.079503 z m -2.017352,-0.80639 v -3.38684 l -2.818431,3.38684 z" />
  <path
     d="m 39.752426,259.86626 q 0.852107,-0.0968 1.568544,0.0272 0.715956,0.11949 1.248654,0.4697 0.541918,0.35373 0.87873,0.94066 0.336811,0.58693 0.425781,1.42104 0.02501,0.23446 0.02091,0.44483 2.73e-4,0.20989 -0.03485,0.37816 l -0.834628,0.0948 -0.0048,-0.0451 q 0.0516,-0.13819 0.08729,-0.3841 0.03132,-0.24541 6e-5,-0.53848 -0.106282,-0.99643 -0.743208,-1.49452 -0.641776,-0.50211 -1.669554,-0.47666 0.289433,0.39152 0.433743,0.74933 0.14431,0.3578 0.190958,0.79515 0.04424,0.4148 0.0017,0.76189 -0.04307,0.34258 -0.234228,0.70653 -0.224236,0.42704 -0.613355,0.67657 -0.389599,0.24503 -0.96204,0.31003 -0.996311,0.11314 -1.693327,-0.49221 -0.697016,-0.60535 -0.800893,-1.57924 -0.05194,-0.48694 0.05239,-0.91861 0.09996,-0.43118 0.359551,-0.77553 0.321815,-0.42443 0.872134,-0.69683 0.54595,-0.27191 1.450494,-0.37462 z m -0.09076,0.9321 q -0.677316,0.0769 -1.072686,0.26783 -0.395371,0.19092 -0.595668,0.46921 -0.174037,0.23424 -0.231094,0.48714 -0.06143,0.2534 -0.03113,0.53745 0.06925,0.64925 0.502929,0.98333 0.433196,0.32956 1.145471,0.24868 0.415129,-0.0471 0.664331,-0.19864 0.249203,-0.15151 0.415064,-0.4624 0.113822,-0.21828 0.135921,-0.4672 0.01773,-0.24844 -0.01401,-0.54601 -0.03751,-0.35168 -0.167749,-0.70196 -0.130239,-0.35028 -0.338694,-0.64604 -0.09225,0.006 -0.180123,0.0113 -0.09273,0.001 -0.232561,0.0173 z"
     style="font-style:normal;font-size:medium;text-anchor:middle;fill:none;fill-opacity:1;stroke:#000000;stroke-width:0.06614583;stroke-linecap:butt;stroke-linejoin:bevel;stroke-dasharray:none;stroke-opacity:1"
     id="path1099"
     inkscape:connector-curvature="0" />
  <path
     d="m 39.413945,256.60996 0.114939,1.07759 -1.245388,0.14142 -0.114939,-1.07759 z m 3.635659,-0.41284 0.114939,1.07759 -1.245388,0.14142 -0.114939,-1.07759 z"
     style="font-style:normal;font-size:medium;text-anchor:middle;fill:none;fill-opacity:1;stroke:#000000;stroke-width:0.06614583;stroke-linecap:butt;stroke-linejoin:bevel;stroke-dasharray:none;stroke-opacity:1"
     id="path1101"
     inkscape:connector-curvature="0" />
  <path
     d="m 40.473248,249.41651 0.106282,0.99643 1.830939,-0.20791 0.09234,0.86567 -1.830939,0.20791 0.342892,3.21472 -1.00505,0.11413 -4.017357,-2.83398 -0.08849,-0.8296 3.976502,-0.45155 -0.106282,-0.99643 z m -0.500547,1.94149 -2.936494,0.33345 3.213981,2.26809 z"
     style="font-style:normal;font-size:medium;text-anchor:middle;fill:none;fill-opacity:1;stroke:#000000;stroke-width:0.06614583;stroke-linecap:butt;stroke-linejoin:bevel;stroke-dasharray:none;stroke-opacity:1"
     id="path1103"
     inkscape:connector-curvature="0" />
  <path
     d="m 59.622117,28.677253 q 0.476014,0.724682 0.242206,1.589567 -0.230169,0.862341 -1.059887,1.442559 -0.880666,0.615846 -1.712999,0.512946 -0.828693,-0.105444 -1.30964,-0.837636 -0.305833,-0.465598 -0.290456,-1.024308 0.01291,-0.562464 0.344118,-1.11737 l -0.0148,-0.02253 q -0.594543,0.06507 -0.993058,-0.0727 -0.394875,-0.140313 -0.676044,-0.568363 -0.414355,-0.630811 -0.188393,-1.402537 0.225962,-0.771725 1.001094,-1.313771 0.811523,-0.567495 1.55943,-0.504189 0.747906,0.06331 1.154862,0.682853 0.249105,0.379237 0.261548,0.907534 0.01,0.524542 -0.298345,1.041525 l 0.0148,0.02253 q 0.65746,-0.130985 1.143797,0.01112 0.486337,0.142108 0.821767,0.652765 z m -2.65554,-2.126638 q -0.263904,-0.401766 -0.721334,-0.427101 -0.456257,-0.03163 -0.922063,0.294103 -0.458529,0.320647 -0.605314,0.752067 -0.143146,0.428875 0.108427,0.811867 0.17758,0.270348 0.453864,0.367561 0.277456,0.09091 0.676986,0.03619 0.179043,-0.02657 0.501667,-0.09327 0.326263,-0.06925 0.613307,-0.165864 0.19749,-0.499755 0.160663,-0.863051 -0.03683,-0.363296 -0.266203,-0.712495 z m 1.952744,2.722212 q -0.226909,-0.345444 -0.511764,-0.447622 -0.283683,-0.108478 -0.851217,-0.01846 -0.225299,0.037 -0.475951,0.108169 -0.250652,0.07117 -0.672948,0.180172 -0.206667,0.41302 -0.199641,0.86839 0.01067,0.452826 0.272103,0.850838 0.332963,0.506901 0.888444,0.600658 0.55548,0.09376 1.075874,-0.270152 0.531311,-0.371543 0.662935,-0.874555 0.135262,-0.505556 -0.187835,-0.997438 z"
     style="font-style:normal;font-size:medium;text-anchor:middle;fill:none;fill-opacity:1;stroke:#000000;stroke-width:0.06614583;stroke-linecap:butt;stroke-linejoin:bevel;stroke-dasharray:none;stroke-opacity:1"
     id="path1106"
     inkscape:connector-curvature="0" />
  <path
     d="m 61.173764,25.307214 -0.869749,0.608212 -0.702922,-1.070126 0.869749,-0.608212 z m 2.052041,3.124017 -0.869749,0.608211 -0.702923,-1.070126 0.869749,-0.608211 z"
     style="font-style:normal;font-size:medium;text-anchor:middle;fill:none;fill-opacity:1;stroke:#000000;stroke-width:0.06614583;stroke-linecap:butt;stroke-linejoin:bevel;stroke-dasharray:none;stroke-opacity:1"
     id="path1108"
     inkscape:connector-curvature="0" />
  <path
     d="m 67.833016,22.913491 -0.804245,0.562405 1.03342,1.573272 -0.69871,0.488605 -1.03342,-1.573273 -2.59469,1.814455 -0.567271,-0.86361 0.552031,-4.988868 0.669598,-0.468247 2.244419,3.416893 0.804245,-0.562405 z m -1.897578,0.450237 -1.657418,-2.523244 -0.442352,3.991604 z"
     style="font-style:normal;font-size:medium;text-anchor:middle;fill:none;fill-opacity:1;stroke:#000000;stroke-width:0.06614583;stroke-linecap:butt;stroke-linejoin:bevel;stroke-dasharray:none;stroke-opacity:1"
     id="path1110"
     inkscape:connector-curvature="0" />
  <path
     d="m 48.442226,597.08661 3.54331,-10e-6 2e-6,0.68947 h -1.362811 l 1.3e-5,4.52688 1.362811,-10e-6 2e-6,0.6169 q -0.276959,0 -0.593482,0.0453 -0.316524,0.0498 -0.479182,0.14063 -0.202223,0.11339 -0.316523,0.28576 -0.118697,0.1769 -0.13628,0.47173 l -0.681406,1e-5 -1.7e-5,-6.08725 -1.336435,10e-6 z"
     style="font-style:normal;font-size:medium;text-anchor:middle;fill:none;fill-opacity:1;stroke:#000000;stroke-width:0.06614583;stroke-linecap:butt;stroke-linejoin:bevel;stroke-dasharray:none;stroke-opacity:1"
     id="path1113"
     inkscape:connector-curvature="0" />
  <path
     d="m 42.709626,597.08663 3.54331,-10e-6 2e-6,0.68947 h -1.362812 l 1.3e-5,4.52687 h 1.362812 l 10e-7,0.61689 q -0.276959,0 -0.593482,0.0453 -0.316524,0.0499 -0.479182,0.14062 -0.202223,0.1134 -0.316523,0.28576 -0.118695,0.17691 -0.13628,0.47174 h -0.681406 l -1.7e-5,-6.08724 -1.336434,10e-6 z"
     style="font-style:normal;font-size:medium;text-anchor:middle;fill:none;fill-opacity:1;stroke:#000000;stroke-width:0.06614583;stroke-linecap:butt;stroke-linejoin:bevel;stroke-dasharray:none;stroke-opacity:1"
     id="path1115"
     inkscape:connector-curvature="0" />
  <path
     d="m 39.170723,600.86055 h 1.050684 l 3e-6,1.29274 h -1.050683 z m -1.1e-5,-3.77391 h 1.050684 l 3e-6,1.29274 -1.050683,10e-6 z"
     style="font-style:normal;font-size:medium;text-anchor:middle;fill:none;fill-opacity:1;stroke:#000000;stroke-width:0.06614583;stroke-linecap:butt;stroke-linejoin:bevel;stroke-dasharray:none;stroke-opacity:1"
     id="path1117"
     inkscape:connector-curvature="0" />
  <path
     d="m 32.356661,598.98723 0.971552,-10e-6 -6e-6,-1.90056 h 0.844064 l 6e-6,1.90056 3.134466,-10e-6 3e-6,1.04327 -3.169624,3.81021 h -0.808895 l -1.2e-5,-4.12771 h -0.971552 z m 1.815618,0.72575 9e-6,3.04815 2.536578,-3.04816 z"
     style="font-style:normal;font-size:medium;text-anchor:middle;fill:none;fill-opacity:1;stroke:#000000;stroke-width:0.06614583;stroke-linecap:butt;stroke-linejoin:bevel;stroke-dasharray:none;stroke-opacity:1"
     id="path1119"
     inkscape:connector-curvature="0" />
  <path
     class="arrow"
     d="m 33.027991,160.30421 8.466284,-11.69489 -5.991186,11.32496 8.859399,9.10541 z"
     id="path18034"
     inkscape:connector-curvature="0"
     style="fill:#000000;stroke:#000000;stroke-width:0.06614587;stroke-linecap:butt;stroke-linejoin:bevel;stroke-dasharray:none;stroke-opacity:1" />
  <path
     inkscape:connector-curvature="0"
     id="path1122"
     style="font-style:normal;font-size:medium;text-anchor:middle;fill:none;fill-opacity:1;stroke:#000000;stroke-width:0.06614583;stroke-linecap:butt;stroke-linejoin:bevel;stroke-dasharray:none;stroke-opacity:1"
     d="M 44.463696,163.10122 H 39.53999 v -1.05335 q 0.512886,-0.45359 1.025772,-0.90719 0.517771,-0.45359 0.962272,-0.90215 0.937849,-0.93743 1.284658,-1.48678 0.346808,-0.55439 0.346808,-1.19447 0,-0.58463 -0.376116,-0.91223 -0.371232,-0.33263 -1.040426,-0.33263 -0.444501,0 -0.962272,0.16128 -0.517771,0.16127 -1.011118,0.49391 h -0.04885 v -1.05839 q 0.346808,-0.1764 0.923194,-0.32255 0.581271,-0.14616 1.123465,-0.14616 1.11858,0 1.753582,0.55943 0.635002,0.55439 0.635002,1.50694 0,0.4284 -0.107462,0.80135 -0.102577,0.36792 -0.307732,0.70056 -0.1905,0.31247 -0.449386,0.61487 -0.254,0.3024 -0.620348,0.67031 -0.522655,0.5292 -1.079503,1.02815 -0.556847,0.49391 -1.040425,0.91727 h 3.912587 z" />
  <path
     d="m 32.089154,166.57695 0.507958,3.61821 -0.661315,0.0988 -0.195369,-1.39162 -4.342056,0.64896 0.195368,1.39162 -0.591703,0.0884 q -0.0397,-0.28282 -0.128587,-0.59953 -0.09323,-0.31606 -0.203568,-0.46915 -0.137759,-0.19024 -0.319473,-0.28225 -0.186696,-0.0959 -0.472016,-0.0715 l -0.09768,-0.69581 5.838717,-0.87265 -0.191587,-1.36469 z"
     style="font-style:normal;font-size:medium;text-anchor:middle;fill:none;fill-opacity:1;stroke:#000000;stroke-width:0.06614583;stroke-linecap:butt;stroke-linejoin:bevel;stroke-dasharray:none;stroke-opacity:1"
     id="path1125"
     inkscape:connector-curvature="0" />
  <path
     d="m 28.176842,161.3959 q 0.156832,-0.24343 0.420095,-0.42486 0.263262,-0.18143 0.71139,-0.24841 0.443777,-0.0663 0.83691,0.0445 0.393133,0.11082 0.709455,0.37063 0.35182,0.29116 0.564028,0.72694 0.207228,0.43194 0.283484,0.97512 0.07815,0.55665 0.02325,1.11485 -0.05055,0.55755 -0.154295,0.92597 l -0.909309,0.1359 -0.0095,-0.0673 q 0.190073,-0.41799 0.278576,-0.9583 0.0885,-0.5403 0.02107,-1.02064 -0.0397,-0.28281 -0.175816,-0.58788 -0.136111,-0.30507 -0.342222,-0.47593 -0.220424,-0.17789 -0.464879,-0.24218 -0.245085,-0.0688 -0.597496,-0.0161 -0.348061,0.052 -0.557915,0.20255 -0.214834,0.14669 -0.316997,0.36821 -0.106514,0.22217 -0.114038,0.51662 -0.01187,0.29511 0.03476,0.6273 l 0.05672,0.40402 -0.722226,0.10794 -0.04412,-0.31423 q -0.09579,-0.68235 -0.426612,-1.0454 -0.335798,-0.36689 -0.866591,-0.28756 -0.234941,0.0351 -0.394476,0.16438 -0.163886,0.12991 -0.251167,0.33087 -0.08602,0.20993 -0.09865,0.4364 -0.01263,0.22647 0.02645,0.50479 0.05987,0.42647 0.27523,0.88469 0.21536,0.45823 0.544978,0.84438 l 0.0063,0.0449 -0.909309,0.1359 q -0.197022,-0.29597 -0.39756,-0.80682 -0.205519,-0.5147 -0.275474,-1.01299 -0.06869,-0.48931 -0.03399,-0.87491 0.03471,-0.3856 0.183916,-0.71498 0.16346,-0.35443 0.435994,-0.56474 0.272533,-0.21032 0.668452,-0.26949 0.539494,-0.0806 0.999574,0.25393 0.455099,0.33073 0.634513,0.84933 l 0.06091,-0.009 q 0.0046,-0.22067 0.0786,-0.5159 0.0697,-0.29459 0.207924,-0.51233 z"
     style="font-style:normal;font-size:medium;text-anchor:middle;fill:none;fill-opacity:1;stroke:#000000;stroke-width:0.06614583;stroke-linecap:butt;stroke-linejoin:bevel;stroke-dasharray:none;stroke-opacity:1"
     id="path1127"
     inkscape:connector-curvature="0" />
  <path
     d="m 27.140187,157.65046 0.150622,1.0729 -1.239966,0.18532 -0.150622,-1.07289 z m 3.61983,-0.54101 0.150623,1.07289 -1.239966,0.18532 -0.150623,-1.07289 z"
     style="font-style:normal;font-size:medium;text-anchor:middle;fill:none;fill-opacity:1;stroke:#000000;stroke-width:0.06614583;stroke-linecap:butt;stroke-linejoin:bevel;stroke-dasharray:none;stroke-opacity:1"
     id="path1129"
     inkscape:connector-curvature="0" />
  <path
     d="m 27.754256,150.66542 q 0.452479,-0.0676 0.889749,0.0412 0.437271,0.10881 0.761665,0.36283 0.349929,0.27769 0.57828,0.70189 0.22337,0.42036 0.305929,1.00844 0.07689,0.54767 0.03498,1.07184 -0.03755,0.52352 -0.145024,0.89708 l -0.91801,0.13721 -0.0088,-0.0628 q 0.174561,-0.40192 0.266215,-0.91978 0.0873,-0.51721 0.0205,-0.99305 -0.04474,-0.31873 -0.173355,-0.602 -0.12924,-0.28777 -0.379549,-0.48869 -0.214813,-0.16956 -0.489723,-0.2293 -0.275541,-0.0642 -0.619251,-0.0129 -0.335008,0.0501 -0.548582,0.20573 -0.214205,0.15118 -0.323809,0.38298 -0.132557,0.25814 -0.150552,0.60458 -0.02298,0.3426 0.035,0.75559 0.05546,0.39504 0.159346,0.75535 0.103257,0.35581 0.192649,0.61286 l -3.337031,0.49875 -0.564678,-4.02223 0.761383,-0.11379 0.443045,3.15583 1.7229,-0.2575 q -0.0445,-0.19043 -0.08156,-0.39114 -0.03706,-0.20071 -0.05786,-0.34885 -0.07626,-0.54318 -0.04224,-0.96534 0.02967,-0.42152 0.208007,-0.7965 0.188874,-0.39489 0.539661,-0.64899 0.350786,-0.25409 0.920736,-0.33927 z"
     style="font-style:normal;font-size:medium;text-anchor:middle;fill:none;fill-opacity:1;stroke:#000000;stroke-width:0.06614583;stroke-linecap:butt;stroke-linejoin:bevel;stroke-dasharray:none;stroke-opacity:1"
     id="path1131"
     inkscape:connector-curvature="0" />
  <path
     d="m 25.545552,559.69415 q 0.843949,0.15522 1.497374,0.48274 0.654196,0.32306 1.06949,0.81411 0.423179,0.49711 0.585816,1.15825 0.162636,0.66113 0.01991,1.48726 -0.04012,0.23221 -0.101575,0.43285 -0.05713,0.20143 -0.136838,0.35264 l -0.826636,-0.15204 0.0077,-0.0447 q 0.08729,-0.11756 0.188773,-0.34309 0.09715,-0.22632 0.1473,-0.51658 0.170502,-0.98689 -0.304349,-1.65016 -0.478407,-0.66853 -1.471387,-0.94332 0.170615,0.45988 0.211223,0.84516 0.04061,0.38528 -0.03423,0.81843 -0.07098,0.41084 -0.206743,0.73142 -0.134994,0.31613 -0.417909,0.60965 -0.331897,0.34441 -0.773441,0.47053 -0.440772,0.12166 -1.007732,0.0174 -0.98677,-0.1815 -1.489941,-0.96516 -0.50317,-0.78367 -0.336526,-1.74823 0.08332,-0.48228 0.30145,-0.86604 0.2138,-0.38456 0.557006,-0.63935 0.424796,-0.3135 1.027245,-0.41464 0.598121,-0.10193 1.494004,0.0629 z m -0.341944,0.86781 q -0.670831,-0.12338 -1.102345,-0.0553 -0.431514,0.0681 -0.699771,0.27674 -0.231018,0.17406 -0.35491,0.40008 -0.12822,0.22522 -0.176825,0.50655 -0.111096,0.64304 0.213613,1.08979 0.32548,0.44228 1.030934,0.57203 0.411154,0.0756 0.691661,0.003 0.280507,-0.0728 0.524641,-0.32278 0.168883,-0.17628 0.258152,-0.40866 0.08494,-0.23318 0.135859,-0.52791 0.06018,-0.34831 0.03101,-0.72227 -0.02917,-0.37396 -0.148279,-0.71839 -0.09012,-0.0212 -0.175902,-0.0416 -0.08934,-0.0256 -0.227838,-0.0511 z"
     style="font-style:normal;font-size:medium;text-anchor:middle;fill:none;fill-opacity:1;stroke:#000000;stroke-width:0.06614583;stroke-linecap:butt;stroke-linejoin:bevel;stroke-dasharray:none;stroke-opacity:1"
     id="path1134"
     inkscape:connector-curvature="0" />
  <path
     d="m 26.111232,556.47161 -0.184389,1.06727 -1.233463,-0.22687 0.184389,-1.06727 z m 3.600846,0.6623 -0.184389,1.06727 -1.233463,-0.22687 0.184389,-1.06727 z"
     style="font-style:normal;font-size:medium;text-anchor:middle;fill:none;fill-opacity:1;stroke:#000000;stroke-width:0.06614583;stroke-linecap:butt;stroke-linejoin:bevel;stroke-dasharray:none;stroke-opacity:1"
     id="path1136"
     inkscape:connector-curvature="0" />
  <path
     d="m 30.816095,550.7437 -0.62183,3.59924 -0.657847,-0.121 0.239166,-1.38432 -4.319284,-0.79444 -0.239165,1.38432 -0.5886,-0.10826 q 0.0486,-0.28133 0.06087,-0.61081 0.0079,-0.33027 -0.05007,-0.51142 -0.07271,-0.22532 -0.217113,-0.37167 -0.147959,-0.15161 -0.426189,-0.22122 l 0.119583,-0.69216 5.808095,1.06827 0.234536,-1.35752 z"
     style="font-style:normal;font-size:medium;text-anchor:middle;fill:none;fill-opacity:1;stroke:#000000;stroke-width:0.06614583;stroke-linecap:butt;stroke-linejoin:bevel;stroke-dasharray:none;stroke-opacity:1"
     id="path1138"
     inkscape:connector-curvature="0" />
  <path
     class="arrow"
     d="m 34.908125,78.604108 12.191979,-7.40485 -9.7709,8.051699 4.755579,11.932792 z"
     id="path18050"
     inkscape:connector-curvature="0"
     style="fill:#000000;stroke:#000000;stroke-width:0.06614583;stroke-linecap:butt;stroke-linejoin:bevel;stroke-dasharray:none;stroke-opacity:1" />
  <path
     inkscape:connector-curvature="0"
     id="path1141"
     style="font-style:normal;font-size:medium;text-anchor:middle;fill:none;fill-opacity:1;stroke:#000000;stroke-width:0.06614583;stroke-linecap:butt;stroke-linejoin:bevel;stroke-dasharray:none;stroke-opacity:1"
     d="m 46.256827,82.627181 q 0,1.144067 -0.732694,1.869818 -0.72781,0.720712 -1.787775,0.720712 -0.537309,0 -0.976925,-0.171358 -0.439617,-0.171358 -0.776656,-0.509034 -0.420078,-0.418315 -0.649656,-1.108787 -0.224693,-0.690472 -0.224693,-1.663181 0,-0.997909 0.205155,-1.76902 0.210039,-0.771111 0.664309,-1.370864 0.429847,-0.569514 1.108811,-0.88703 0.678963,-0.322557 1.58262,-0.322557 0.288193,0 0.483578,0.0252 0.195385,0.0252 0.395655,0.09072 v 0.962629 h -0.04885 q -0.13677,-0.0756 -0.415194,-0.141118 -0.273539,-0.07056 -0.561732,-0.07056 -1.050195,0 -1.675428,0.680392 -0.625233,0.675353 -0.72781,1.8295 0.410309,-0.257038 0.805964,-0.388076 0.40054,-0.136078 0.923195,-0.136078 0.46404,0 0.815733,0.09072 0.356578,0.08568 0.72781,0.352796 0.429847,0.307436 0.644771,0.776151 0.219808,0.468715 0.219808,1.139027 z m -0.99158,0.04032 q 0,-0.468715 -0.136769,-0.776151 -0.131885,-0.307437 -0.439617,-0.534234 -0.224693,-0.161278 -0.498232,-0.211678 -0.273539,-0.0504 -0.571502,-0.0504 -0.415193,0 -0.771771,0.100799 -0.356578,0.100798 -0.732694,0.312476 -0.0098,0.110879 -0.01465,0.216718 -0.0049,0.100798 -0.0049,0.257037 0,0.79631 0.156308,1.259985 0.161193,0.458635 0.439617,0.725752 0.224693,0.221757 0.483578,0.327596 0.26377,0.100799 0.571502,0.100799 0.708271,0 1.113695,-0.443515 0.405425,-0.448555 0.405425,-1.285185 z" />
  <path
     d="m 31.690481,84.013694 -0.888212,3.539246 -0.646882,-0.17283 0.34162,-1.361248 -4.247293,-1.134766 -0.34162,1.361249 -0.578789,-0.154638 q 0.06943,-0.276641 0.106212,-0.604172 0.03253,-0.328668 -0.01181,-0.513881 -0.0557,-0.230417 -0.188772,-0.387794 -0.136222,-0.162905 -0.408442,-0.254377 l 0.17081,-0.680624 5.71129,1.525907 0.335008,-1.334902 z"
     style="font-style:normal;font-size:medium;text-anchor:middle;fill:none;fill-opacity:1;stroke:#000000;stroke-width:0.06614583;stroke-linecap:butt;stroke-linejoin:bevel;stroke-dasharray:none;stroke-opacity:1"
     id="path1144"
     inkscape:connector-curvature="0" />
  <path
     d="m 30.025385,77.674404 q 0.235896,-0.161882 0.546685,-0.224099 0.310789,-0.06222 0.749137,0.0549 0.434092,0.115978 0.755062,0.375098 0.320969,0.25912 0.515251,0.624959 0.215256,0.408927 0.247549,0.895481 0.02914,0.481025 -0.104202,1.012351 -0.136648,0.5445 -0.396562,1.037323 -0.255658,0.493961 -0.489466,0.792281 l -0.889463,-0.237641 0.01653,-0.06587 q 0.331995,-0.309571 0.61619,-0.77248 0.284195,-0.462909 0.402109,-0.932759 0.06943,-0.276641 0.0583,-0.612288 -0.01113,-0.335648 -0.13713,-0.575476 -0.136563,-0.252022 -0.337877,-0.408889 -0.200212,-0.161259 -0.544932,-0.25336 -0.340464,-0.09096 -0.590418,-0.03592 -0.253108,0.04951 -0.430372,0.213005 -0.18152,0.162352 -0.298862,0.430877 -0.121597,0.267387 -0.203145,0.59233 l -0.09918,0.395201 -0.706463,-0.188748 0.07714,-0.307379 q 0.167504,-0.667451 -0.0014,-1.134285 -0.17209,-0.472363 -0.691298,-0.611082 -0.229813,-0.0614 -0.425391,-0.0059 -0.199834,0.05438 -0.355667,0.204851 -0.158037,0.159255 -0.254593,0.36305 -0.09656,0.203794 -0.16488,0.476044 -0.10469,0.417157 -0.07791,0.925666 0.02678,0.50851 0.185954,0.996163 l -0.01102,0.04391 -0.889463,-0.237641 q -0.07071,-0.351566 -0.06409,-0.902693 0.0035,-0.556655 0.125786,-1.04407 0.120118,-0.478632 0.2967,-0.820355 0.176583,-0.341722 0.437672,-0.585898 0.283623,-0.261583 0.613791,-0.346736 0.330169,-0.08515 0.717447,0.01832 0.52772,0.140993 0.826534,0.633157 0.29566,0.486635 0.266661,1.036468 l 0.05958,0.01592 q 0.08694,-0.201678 0.265917,-0.444364 0.174719,-0.243824 0.383825,-0.389434 z"
     style="font-style:normal;font-size:medium;text-anchor:middle;fill:none;fill-opacity:1;stroke:#000000;stroke-width:0.06614583;stroke-linecap:butt;stroke-linejoin:bevel;stroke-dasharray:none;stroke-opacity:1"
     id="path1146"
     inkscape:connector-curvature="0" />
  <path
     d="m 30.47377,73.806798 -0.263378,1.049478 -1.212905,-0.324056 0.263378,-1.049478 z m 3.540829,0.946017 -0.263378,1.049478 -1.212904,-0.324056 0.263378,-1.049479 z"
     style="font-style:normal;font-size:medium;text-anchor:middle;fill:none;fill-opacity:1;stroke:#000000;stroke-width:0.06614583;stroke-linecap:butt;stroke-linejoin:bevel;stroke-dasharray:none;stroke-opacity:1"
     id="path1148"
     inkscape:connector-curvature="0" />
  <path
     d="m 33.653921,67.450076 q 0.966068,0.258108 1.413604,1.080511 0.444382,0.816874 0.205248,1.769748 -0.12122,0.483023 -0.365097,0.839565 -0.243878,0.356542 -0.605055,0.583348 -0.448004,0.283262 -1.082843,0.33387 -0.633737,0.04622 -1.455107,-0.173231 -0.842649,-0.225134 -1.447504,-0.583528 -0.603752,-0.362785 -1.007706,-0.906468 -0.38393,-0.514904 -0.498868,-1.196904 -0.119193,-0.683136 0.08468,-1.495494 0.06502,-0.259076 0.130377,-0.429036 0.06536,-0.16996 0.165867,-0.335214 l 0.812858,0.217174 -0.01102,0.04391 q -0.09469,0.105896 -0.212833,0.341408 -0.121293,0.229985 -0.186311,0.489061 -0.23693,0.944092 0.196548,1.659656 0.429222,0.714427 1.380659,1.067023 -0.124478,-0.426844 -0.145867,-0.812088 -0.02454,-0.390772 0.09337,-0.860622 0.10469,-0.417157 0.260639,-0.712851 0.152795,-0.301222 0.462104,-0.574685 0.35658,-0.317059 0.800858,-0.404524 0.44538,-0.09186 1.011402,0.05937 z m -0.189659,0.900495 q -0.39579,-0.105745 -0.68625,-0.05215 -0.289359,0.0492 -0.550296,0.274675 -0.186877,0.165607 -0.291147,0.400139 -0.10427,0.234533 -0.171492,0.502391 -0.09367,0.373246 -0.089,0.716539 0.0047,0.343293 0.09856,0.729165 0.09142,0.0338 0.179694,0.06207 0.08401,0.02713 0.215945,0.06238 0.672417,0.179652 1.099215,0.143744 0.423644,-0.04144 0.712016,-0.231468 0.237947,-0.151962 0.385725,-0.360813 0.144624,-0.21438 0.21405,-0.491021 0.15979,-0.636713 -0.123255,-1.101236 -0.2873,-0.46566 -0.993764,-0.654408 z"
     style="font-style:normal;font-size:medium;text-anchor:middle;fill:none;fill-opacity:1;stroke:#000000;stroke-width:0.06614583;stroke-linecap:butt;stroke-linejoin:bevel;stroke-dasharray:none;stroke-opacity:1"
     id="path1150"
     inkscape:connector-curvature="0" />
  <path
     class="arrow"
     d="m 276.04234,256.0876 -11.0051,9.17293 8.51818,-9.44569 -6.40333,-11.08226 z"
     id="path18062"
     inkscape:connector-curvature="0"
     style="fill:#000000;stroke:#000000;stroke-width:0.06614587;stroke-linecap:butt;stroke-linejoin:bevel;stroke-dasharray:none;stroke-opacity:1" />
  <path
     inkscape:connector-curvature="0"
     id="path1153"
     style="font-style:normal;font-size:medium;text-anchor:middle;fill:none;fill-opacity:1;stroke:#000000;stroke-width:0.06614583;stroke-linecap:butt;stroke-linejoin:bevel;stroke-dasharray:none;stroke-opacity:1"
     d="m 269.19959,259.2344 h -3.93701 v -0.76607 h 1.51423 v -5.02986 h -1.51423 v -0.68544 q 0.30773,0 0.65942,-0.0504 0.3517,-0.0554 0.53243,-0.15623 0.22469,-0.126 0.35169,-0.31752 0.13189,-0.19656 0.15143,-0.52415 h 0.75711 v 6.7636 h 1.48493 z" />
  <path
     d="m 278.45461,250.24887 0.37454,-3.63549 0.66447,0.0729 -0.14405,1.39826 4.3628,0.47851 0.14405,-1.39827 0.59453,0.0652 q -0.0293,0.28416 -0.019,0.61372 0.0146,0.33003 0.0849,0.50651 0.0879,0.21947 0.24195,0.35496 0.15794,0.14049 0.44023,0.18969 l -0.072,0.69914 -5.8666,-0.64344 -0.14126,1.3712 z"
     style="font-style:normal;font-size:medium;text-anchor:middle;fill:none;fill-opacity:1;stroke:#000000;stroke-width:0.06614583;stroke-linecap:butt;stroke-linejoin:bevel;stroke-dasharray:none;stroke-opacity:1"
     id="path1156"
     inkscape:connector-curvature="0" />
  <path
     d="m 281.06689,256.86219 q -1.75299,-0.19227 -2.51629,-0.85074 -0.75939,-0.65347 -0.63671,-1.84425 0.12453,-1.20883 1.01275,-1.67704 0.88775,-0.46369 2.61013,-0.27479 1.7355,0.19035 2.50364,0.84479 0.7725,0.65491 0.64936,1.8502 -0.12454,1.20883 -1.0254,1.67109 -0.89696,0.46725 -2.59748,0.28074 z m -1.86247,-1.40395 q 0.33783,0.1967 0.80875,0.30309 0.47483,0.11138 1.14805,0.18522 0.66447,0.0729 1.16012,0.0679 0.49519,-4.3e-4 0.8529,-0.12541 0.35287,-0.12095 0.55171,-0.37739 0.19837,-0.25194 0.24252,-0.68044 0.0437,-0.42399 -0.098,-0.72234 -0.14215,-0.29384 -0.47077,-0.4941 -0.30769,-0.18884 -0.82187,-0.30453 -0.51463,-0.11118 -1.13539,-0.17927 -0.68196,-0.0748 -1.14608,-0.0755 -0.46413,-7.3e-4 -0.84369,0.12186 -0.35632,0.11145 -0.56343,0.36242 -0.20758,0.25548 -0.25405,0.70654 -0.0437,0.42399 0.098,0.72234 0.14168,0.29835 0.47123,0.48959 z"
     style="font-style:normal;font-size:medium;text-anchor:middle;fill:none;fill-opacity:1;stroke:#000000;stroke-width:0.06614583;stroke-linecap:butt;stroke-linejoin:bevel;stroke-dasharray:none;stroke-opacity:1"
     id="path1158"
     inkscape:connector-curvature="0" />
  <path
     d="m 281.1117,260.16051 0.11107,-1.07802 1.24588,0.13665 -0.11106,1.07801 z m -3.63711,-0.39892 0.11106,-1.07801 1.24588,0.13664 -0.11106,1.07802 z"
     style="font-style:normal;font-size:medium;text-anchor:middle;fill:none;fill-opacity:1;stroke:#000000;stroke-width:0.06614583;stroke-linecap:butt;stroke-linejoin:bevel;stroke-dasharray:none;stroke-opacity:1"
     id="path1160"
     inkscape:connector-curvature="0" />
  <path
     d="m 276.80962,266.21617 0.37454,-3.63549 0.66447,0.0729 -0.14405,1.39826 4.36279,0.47851 0.14405,-1.39827 0.59453,0.0652 q -0.0293,0.28416 -0.019,0.61372 0.0146,0.33003 0.0849,0.50651 0.0879,0.21947 0.24195,0.35496 0.15794,0.14049 0.44024,0.18969 l -0.072,0.69914 -5.8666,-0.64344 -0.14127,1.3712 z"
     style="font-style:normal;font-size:medium;text-anchor:middle;fill:none;fill-opacity:1;stroke:#000000;stroke-width:0.06614583;stroke-linecap:butt;stroke-linejoin:bevel;stroke-dasharray:none;stroke-opacity:1"
     id="path1162"
     inkscape:connector-curvature="0" />
  <path
     d="m 255.66288,27.422863 q -0.47341,0.726505 -1.33826,0.826172 -0.8612,0.102195 -1.693,-0.474839 -0.88288,-0.61247 -1.10161,-1.447447 -0.2151,-0.832439 0.26321,-1.566474 0.30416,-0.466765 0.81212,-0.660963 0.51041,-0.197973 1.13306,-0.08852 l 0.0147,-0.02261 q -0.28081,-0.544619 -0.30599,-0.977486 -0.0215,-0.430339 0.25809,-0.859467 0.41208,-0.632393 1.19027,-0.70473 0.77817,-0.07234 1.55525,0.466733 0.81356,0.564381 1.03632,1.303763 0.22276,0.739373 -0.18196,1.360477 -0.24775,0.380191 -0.71796,0.589643 -0.46777,0.205686 -1.04776,0.103957 l -0.0147,0.02261 q 0.36358,0.580171 0.4177,1.098713 0.0541,0.518535 -0.27947,1.030468 z m 0.9186,-3.336418 q 0.26246,-0.402779 0.11418,-0.849986 -0.14217,-0.448441 -0.60915,-0.772391 -0.45968,-0.318888 -0.90235,-0.29803 -0.43904,0.02338 -0.68923,0.407332 -0.17661,0.27103 -0.16068,0.571768 0.022,0.299513 0.22062,0.661372 0.0908,0.161398 0.27143,0.445196 0.18424,0.286324 0.37843,0.524877 0.52307,0.0021 0.83585,-0.168975 0.31278,-0.171089 0.5409,-0.521163 z m -1.71674,2.886587 q 0.22566,-0.346314 0.211,-0.65711 -0.009,-0.312034 -0.30171,-0.821468 -0.11749,-0.201779 -0.27521,-0.415018 -0.15769,-0.21325 -0.41358,-0.5766 -0.44853,-0.04333 -0.85523,0.133667 -0.40304,0.179533 -0.66304,0.578543 -0.33114,0.508181 -0.20771,1.074797 0.12344,0.566624 0.64514,0.928538 0.53264,0.369504 1.034,0.307367 0.50501,-0.0596 0.82634,-0.552716 z"
     style="font-style:normal;font-size:medium;text-anchor:middle;fill:none;fill-opacity:1;stroke:#000000;stroke-width:0.06614583;stroke-linecap:butt;stroke-linejoin:bevel;stroke-dasharray:none;stroke-opacity:1"
     id="path1165"
     inkscape:connector-curvature="0" />
  <path
     d="m 259.27234,27.647553 -0.87194,-0.604879 0.69907,-1.072811 0.87194,0.60488 z m -2.04078,3.131856 -0.87194,-0.604879 0.69906,-1.07281 0.87194,0.604879 z"
     style="font-style:normal;font-size:medium;text-anchor:middle;fill:none;fill-opacity:1;stroke:#000000;stroke-width:0.06614583;stroke-linecap:butt;stroke-linejoin:bevel;stroke-dasharray:none;stroke-opacity:1"
     id="path1167"
     inkscape:connector-curvature="0" />
  <path
     d="m 263.91409,33.125024 -0.80627,-0.559319 -1.02774,1.577214 -0.70047,-0.485925 1.02775,-1.577213 -2.6012,-1.804502 0.56416,-0.865784 4.6908,-1.337215 0.67127,0.465676 -2.23211,3.425465 0.80627,0.559319 z m -1.11427,-1.647528 1.64832,-2.529572 -3.75336,1.069269 z"
     style="font-style:normal;font-size:medium;text-anchor:middle;fill:none;fill-opacity:1;stroke:#000000;stroke-width:0.06614583;stroke-linecap:butt;stroke-linejoin:bevel;stroke-dasharray:none;stroke-opacity:1"
     id="path1169"
     inkscape:connector-curvature="0" />
  <path
     d="m 283.71535,595.69337 3.54331,1e-5 v 0.68947 h -1.36282 l -1e-5,4.52688 h 1.36282 v 0.61689 q -0.27697,0 -0.59349,0.0453 -0.31652,0.0498 -0.47918,0.14061 -0.20223,0.11339 -0.31653,0.28576 -0.1187,0.1769 -0.13628,0.47173 h -0.68141 l 2e-5,-6.08724 h -1.33644 z"
     style="font-style:normal;font-size:medium;text-anchor:middle;fill:none;fill-opacity:1;stroke:#000000;stroke-width:0.06614583;stroke-linecap:butt;stroke-linejoin:bevel;stroke-dasharray:none;stroke-opacity:1"
     id="path1172"
     inkscape:connector-curvature="0" />
  <path
     d="m 277.98275,595.69336 3.54331,10e-6 v 0.68946 h -1.36282 l -10e-6,4.52688 1.36282,10e-6 -10e-6,0.61688 q -0.27696,0 -0.59348,0.0453 -0.31652,0.0498 -0.47919,0.14061 -0.20222,0.1134 -0.31651,0.28576 -0.11871,0.17691 -0.13629,0.47174 h -0.68141 l 2e-5,-6.08725 h -1.33643 z"
     style="font-style:normal;font-size:medium;text-anchor:middle;fill:none;fill-opacity:1;stroke:#000000;stroke-width:0.06614583;stroke-linecap:butt;stroke-linejoin:bevel;stroke-dasharray:none;stroke-opacity:1"
     id="path1174"
     inkscape:connector-curvature="0" />
  <path
     d="m 274.44383,599.46725 1.05068,10e-6 -10e-6,1.29275 h -1.05068 z m 1e-5,-3.7739 h 1.05068 l -1e-5,1.29275 h -1.05068 z"
     style="font-style:normal;font-size:medium;text-anchor:middle;fill:none;fill-opacity:1;stroke:#000000;stroke-width:0.06614583;stroke-linecap:butt;stroke-linejoin:bevel;stroke-dasharray:none;stroke-opacity:1"
     id="path1176"
     inkscape:connector-curvature="0" />
  <path
     d="m 268.15292,595.69333 3.54332,1e-5 -10e-6,0.68946 h -1.36281 l -2e-5,4.52688 1.36282,10e-6 v 0.61688 q -0.27696,0 -0.59349,0.0453 -0.31652,0.0498 -0.47918,0.14061 -0.20223,0.1134 -0.31653,0.28576 -0.11869,0.17691 -0.13628,0.47174 h -0.6814 l 10e-6,-6.08725 h -1.33643 z"
     style="font-style:normal;font-size:medium;text-anchor:middle;fill:none;fill-opacity:1;stroke:#000000;stroke-width:0.06614583;stroke-linecap:butt;stroke-linejoin:bevel;stroke-dasharray:none;stroke-opacity:1"
     id="path1178"
     inkscape:connector-curvature="0" />
  <path
     class="arrow"
     d="m 287.56471,159.81664 -11.30298,8.77885 8.82657,-9.13929 -6.0319,-11.30193 z"
     id="path18082"
     inkscape:connector-curvature="0"
     style="fill:#000000;stroke:#000000;stroke-width:0.06614587;stroke-linecap:butt;stroke-linejoin:bevel;stroke-dasharray:none;stroke-opacity:1" />
  <path
     inkscape:connector-curvature="0"
     id="path1181"
     style="font-style:normal;font-size:medium;text-anchor:middle;fill:none;fill-opacity:1;stroke:#000000;stroke-width:0.06614583;stroke-linecap:butt;stroke-linejoin:bevel;stroke-dasharray:none;stroke-opacity:1"
     d="m 281.11638,160.2639 q 0,0.52415 -0.18562,1.00295 -0.18561,0.47879 -0.508,0.80639 -0.35169,0.35279 -0.84016,0.54431 -0.48357,0.18648 -1.12346,0.18648 -0.59593,0 -1.14789,-0.13104 -0.55196,-0.126 -0.93296,-0.30744 v -1.06342 h 0.0684 q 0.40054,0.26207 0.93785,0.44855 0.53731,0.18144 1.05508,0.18144 0.34681,0 0.66919,-0.1008 0.32727,-0.1008 0.58128,-0.3528 0.21492,-0.21671 0.32238,-0.51911 0.11235,-0.3024 0.11235,-0.70055 0,-0.38808 -0.13189,-0.6552 -0.127,-0.26711 -0.35658,-0.42839 -0.254,-0.19152 -0.62034,-0.26712 -0.36147,-0.0806 -0.81085,-0.0806 -0.42985,0 -0.83039,0.0605 -0.39565,0.0605 -0.68385,0.12096 v -3.86563 h 4.37663 v 0.88199 h -3.43389 v 1.99581 q 0.21004,-0.0202 0.42984,-0.0302 0.21981,-0.0101 0.38101,-0.0101 0.59104,0 1.03554,0.10584 0.4445,0.1008 0.81573,0.36287 0.39077,0.2772 0.60569,0.71568 0.21493,0.43847 0.21493,1.0987 z" />
  <path
     d="m 290.16925,154.06657 0.49494,-3.62013 0.66166,0.0963 -0.19036,1.39236 4.34437,0.63232 0.19035,-1.39236 0.59202,0.0862 q -0.0387,0.28296 -0.0394,0.61268 0.004,0.33036 0.068,0.50922 0.0806,0.22244 0.23003,0.3633 0.15319,0.14598 0.43368,0.20513 l -0.0952,0.69618 -5.84182,-0.85028 -0.18667,1.36541 z"
     style="font-style:normal;font-size:medium;text-anchor:middle;fill:none;fill-opacity:1;stroke:#000000;stroke-width:0.06614583;stroke-linecap:butt;stroke-linejoin:bevel;stroke-dasharray:none;stroke-opacity:1"
     id="path1184"
     inkscape:connector-curvature="0" />
  <path
     d="m 289.31632,160.30524 0.61898,-4.52742 0.90979,0.13242 q 0.3273,0.52863 0.6546,1.05726 0.32668,0.53312 0.65823,0.99823 0.69177,0.98021 1.12265,1.36817 0.43524,0.38859 0.98808,0.46905 0.50496,0.0735 0.83519,-0.23116 0.33397,-0.29954 0.4181,-0.91487 0.0559,-0.40872 -0.0183,-0.9051 -0.0742,-0.49637 -0.29949,-0.99182 l 0.006,-0.0449 0.91414,0.13305 q 0.10876,0.34108 0.16254,0.88944 0.0532,0.55286 -0.015,1.05142 -0.14062,1.02855 -0.70364,1.54211 -0.55867,0.5142 -1.3814,0.39445 -0.37001,-0.0539 -0.67862,-0.19955 -0.30488,-0.14057 -0.56639,-0.37103 -0.24595,-0.21445 -0.47459,-0.49052 -0.22925,-0.27157 -0.50097,-0.65468 -0.39137,-0.54712 -0.75232,-1.12187 -0.35659,-0.57412 -0.66146,-1.072 l -0.49186,3.59768 z"
     style="font-style:normal;font-size:medium;text-anchor:middle;fill:none;fill-opacity:1;stroke:#000000;stroke-width:0.06614583;stroke-linecap:butt;stroke-linejoin:bevel;stroke-dasharray:none;stroke-opacity:1"
     id="path1186"
     inkscape:connector-curvature="0" />
  <path
     d="m 292.49595,164.06624 0.14676,-1.07346 1.24063,0.18057 -0.14676,1.07347 z m -3.62175,-0.52714 0.14676,-1.07346 1.24062,0.18057 -0.14676,1.07346 z"
     style="font-style:normal;font-size:medium;text-anchor:middle;fill:none;fill-opacity:1;stroke:#000000;stroke-width:0.06614583;stroke-linecap:butt;stroke-linejoin:bevel;stroke-dasharray:none;stroke-opacity:1"
     id="path1188"
     inkscape:connector-curvature="0" />
  <path
     d="m 287.94328,170.34819 0.61898,-4.52742 0.90979,0.13242 q 0.3273,0.52863 0.6546,1.05726 0.32668,0.53312 0.65823,0.99823 0.69177,0.98021 1.12265,1.36817 0.43524,0.38859 0.98808,0.46905 0.50496,0.0735 0.83519,-0.23116 0.33397,-0.29954 0.4181,-0.91487 0.0559,-0.40872 -0.0183,-0.9051 -0.0742,-0.49637 -0.29949,-0.99182 l 0.006,-0.0449 0.91414,0.13305 q 0.10876,0.34108 0.16254,0.88944 0.0532,0.55286 -0.015,1.05142 -0.14062,1.02855 -0.70364,1.54211 -0.55866,0.5142 -1.38139,0.39445 -0.37002,-0.0538 -0.67863,-0.19955 -0.30488,-0.14057 -0.56639,-0.37103 -0.24595,-0.21445 -0.47458,-0.49052 -0.22926,-0.27157 -0.50098,-0.65468 -0.39136,-0.54712 -0.75232,-1.12187 -0.35659,-0.57412 -0.66146,-1.072 l -0.49186,3.59768 z"
     style="font-style:normal;font-size:medium;text-anchor:middle;fill:none;fill-opacity:1;stroke:#000000;stroke-width:0.06614583;stroke-linecap:butt;stroke-linejoin:bevel;stroke-dasharray:none;stroke-opacity:1"
     id="path1190"
     inkscape:connector-curvature="0" />
  <path
     d="m 285.78597,551.98199 -0.62136,-3.59932 0.65787,-0.1209 0.23898,1.38436 4.31939,-0.79384 -0.23899,-1.38436 0.58862,-0.10818 q 0.0486,0.28134 0.14731,0.59491 0.10307,0.31279 0.2182,0.46211 0.14367,0.18553 0.32818,0.27141 0.1896,0.0896 0.47401,0.0557 l 0.11949,0.69218 -5.80823,1.06747 0.23436,1.35755 z"
     style="font-style:normal;font-size:medium;text-anchor:middle;fill:none;fill-opacity:1;stroke:#000000;stroke-width:0.06614583;stroke-linecap:butt;stroke-linejoin:bevel;stroke-dasharray:none;stroke-opacity:1"
     id="path1193"
     inkscape:connector-curvature="0" />
  <path
     d="m 290.07964,557.58327 q -1.73555,0.31897 -2.64636,-0.0942 -0.90571,-0.40947 -1.10923,-1.58839 -0.20661,-1.19681 0.52013,-1.90168 0.7275,-0.70041 2.43275,-1.01381 1.71824,-0.31579 2.6326,0.0921 0.91869,0.40707 1.12298,1.59047 0.20661,1.1968 -0.53388,1.89959 -0.73539,0.70647 -2.41899,1.01589 z m -2.16769,-0.81334 q 0.37756,0.0919 0.85856,0.0587 0.48611,-0.0295 1.15263,-0.15197 0.65785,-0.1209 1.13258,-0.26802 0.47549,-0.14264 0.78532,-0.36548 0.30628,-0.21755 0.42805,-0.52097 0.12254,-0.29896 0.0493,-0.7232 -0.0725,-0.41978 -0.28906,-0.66562 -0.21582,-0.24139 -0.58549,-0.33931 -0.34648,-0.093 -0.87154,-0.0564 -0.52428,0.0411 -1.13886,0.15406 -0.67518,0.12409 -1.12116,0.25669 -0.44596,0.1326 -0.77743,0.35942 -0.31215,0.20941 -0.44335,0.50998 -0.13041,0.30501 -0.0533,0.75158 0.0725,0.41976 0.28905,0.66561 0.21659,0.24585 0.58472,0.33485 z"
     style="font-style:normal;font-size:medium;text-anchor:middle;fill:none;fill-opacity:1;stroke:#000000;stroke-width:0.06614583;stroke-linecap:butt;stroke-linejoin:bevel;stroke-dasharray:none;stroke-opacity:1"
     id="path1195"
     inkscape:connector-curvature="0" />
  <path
     d="m 291.01278,560.73827 -0.18425,-1.06729 1.23349,-0.2267 0.18425,1.06729 z m -3.60093,0.6618 -0.18425,-1.06729 1.23349,-0.2267 0.18425,1.06729 z"
     style="font-style:normal;font-size:medium;text-anchor:middle;fill:none;fill-opacity:1;stroke:#000000;stroke-width:0.06614583;stroke-linecap:butt;stroke-linejoin:bevel;stroke-dasharray:none;stroke-opacity:1"
     id="path1197"
     inkscape:connector-curvature="0" />
  <path
     d="m 288.51503,567.79043 -0.62136,-3.59932 0.65786,-0.12091 0.23899,1.38436 4.31939,-0.79384 -0.23899,-1.38436 0.58862,-0.10818 q 0.0486,0.28134 0.14731,0.59492 0.10307,0.31279 0.2182,0.4621 0.14367,0.18554 0.32817,0.27141 0.18961,0.0896 0.47402,0.0557 l 0.11949,0.69218 -5.80823,1.06748 0.23436,1.35755 z"
     style="font-style:normal;font-size:medium;text-anchor:middle;fill:none;fill-opacity:1;stroke:#000000;stroke-width:0.06614583;stroke-linecap:butt;stroke-linejoin:bevel;stroke-dasharray:none;stroke-opacity:1"
     id="path1199"
     inkscape:connector-curvature="0" />
  <path
     class="arrow"
     d="m 285.39056,78.124293 -7.13134,12.607051 4.7126,-11.950931 -9.79981,-8.014209 z"
     id="path18098"
     inkscape:connector-curvature="0"
     style="fill:#000000;stroke:#000000;stroke-width:0.06614579;stroke-linecap:butt;stroke-linejoin:bevel;stroke-dasharray:none;stroke-opacity:1" />
  <path
     inkscape:connector-curvature="0"
     id="path1202"
     style="font-style:normal;font-size:medium;text-anchor:middle;fill:none;fill-opacity:1;stroke:#000000;stroke-width:0.06614583;stroke-linecap:butt;stroke-linejoin:bevel;stroke-dasharray:none;stroke-opacity:1"
     d="m 276.75149,81.001425 q 0.23447,0.216718 0.38589,0.544314 0.15142,0.327596 0.15142,0.84671 0,0.514075 -0.18073,0.94247 -0.18073,0.428395 -0.508,0.745911 -0.36635,0.352796 -0.86458,0.524154 -0.49335,0.166318 -1.08439,0.166318 -0.60569,0 -1.19185,-0.151198 -0.58615,-0.146158 -0.96227,-0.322556 V 83.2442 h 0.0733 q 0.4152,0.282236 0.97693,0.468714 0.56173,0.186478 1.08439,0.186478 0.30773,0 0.65454,-0.105839 0.3468,-0.105838 0.56173,-0.312476 0.22469,-0.221758 0.33215,-0.488874 0.11235,-0.267117 0.11235,-0.675353 0,-0.403195 -0.127,-0.665272 -0.12212,-0.267117 -0.34192,-0.418315 -0.21981,-0.156239 -0.53243,-0.211678 -0.31262,-0.06048 -0.67408,-0.06048 h -0.43961 v -0.836631 h 0.34192 q 0.74246,0 1.18208,-0.317516 0.4445,-0.322557 0.4445,-0.937429 0,-0.272157 -0.11235,-0.473755 -0.11234,-0.206638 -0.31261,-0.337676 -0.21004,-0.131039 -0.44939,-0.181438 -0.23934,-0.0504 -0.54219,-0.0504 -0.46404,0 -0.9867,0.171358 -0.52265,0.171358 -0.98669,0.483834 h -0.0489 v -1.053348 q 0.34681,-0.176398 0.9232,-0.322556 0.58127,-0.151199 1.12346,-0.151199 0.53243,0 0.93785,0.100799 0.40542,0.100799 0.73269,0.322556 0.3517,0.241918 0.53243,0.584634 0.18073,0.342716 0.18073,0.80135 0,0.624953 -0.42985,1.093668 -0.42496,0.463675 -1.00623,0.584633 v 0.07056 q 0.23446,0.04032 0.53731,0.171358 0.30285,0.125999 0.51288,0.317517 z" />
  <path
     inkscape:connector-curvature="0"
     id="path1204"
     style="font-style:normal;font-size:medium;text-anchor:middle;fill:none;fill-opacity:1;stroke:#000000;stroke-width:0.06614583;stroke-linecap:butt;stroke-linejoin:bevel;stroke-dasharray:none;stroke-opacity:1"
     d="m 280.45404,84.615064 h -1.16742 V 83.17868 h 1.16742 z" />
  <path
     d="m 285.22069,70.150267 -0.90094,-3.535819 0.64625,-0.175307 0.34652,1.35993 4.24318,-1.151031 -0.34652,-1.35993 0.57823,-0.156854 q 0.0704,0.276373 0.19342,0.580694 0.12725,0.303168 0.25364,0.442416 0.15771,0.172962 0.34834,0.243194 0.19599,0.07347 0.47682,0.01605 l 0.17326,0.679965 -5.70576,1.547779 0.33981,1.333609 z"
     style="font-style:normal;font-size:medium;text-anchor:middle;fill:none;fill-opacity:1;stroke:#000000;stroke-width:0.06614583;stroke-linecap:butt;stroke-linejoin:bevel;stroke-dasharray:none;stroke-opacity:1"
     id="path1207"
     inkscape:connector-curvature="0" />
  <path
     d="m 286.77331,76.24363 -1.12674,-4.421966 0.8886,-0.241047 q 0.50002,0.356821 1.00004,0.713642 0.50114,0.361208 0.98126,0.657766 1.00543,0.627758 1.54822,0.813512 0.54705,0.184601 1.08702,0.03813 0.49319,-0.133787 0.68348,-0.546543 0.19566,-0.409522 0.0425,-1.010524 -0.10172,-0.399205 -0.35626,-0.827307 -0.25454,-0.428101 -0.64805,-0.795055 l -0.0112,-0.04387 0.89285,-0.242201 q 0.22817,0.271101 0.48337,0.755305 0.25632,0.488591 0.38039,0.975533 0.25598,1.004594 -0.0707,1.702908 -0.32237,0.69716 -1.12594,0.915141 -0.36139,0.09803 -0.7006,0.08687 -0.33385,-0.0079 -0.66141,-0.116059 -0.3072,-0.09958 -0.62154,-0.262885 -0.31323,-0.158917 -0.70744,-0.403738 -0.56603,-0.348295 -1.11437,-0.734218 -0.5441,-0.387076 -1.0119,-0.724496 l 0.89536,3.513884 z"
     style="font-style:normal;font-size:medium;text-anchor:middle;fill:none;fill-opacity:1;stroke:#000000;stroke-width:0.06614583;stroke-linecap:butt;stroke-linejoin:bevel;stroke-dasharray:none;stroke-opacity:1"
     id="path1209"
     inkscape:connector-curvature="0" />
  <path
     d="m 291.11552,78.442601 -0.26715,-1.048463 1.21173,-0.328701 0.26715,1.048462 z m -3.5374,0.959577 -0.26715,-1.048463 1.21173,-0.328701 0.26715,1.048462 z"
     style="font-style:normal;font-size:medium;text-anchor:middle;fill:none;fill-opacity:1;stroke:#000000;stroke-width:0.06614583;stroke-linecap:butt;stroke-linejoin:bevel;stroke-dasharray:none;stroke-opacity:1"
     id="path1211"
     inkscape:connector-curvature="0" />
  <path
     d="m 292.17472,84.651051 q -0.12916,0.260163 -0.37087,0.471123 -0.24171,0.21096 -0.67963,0.329754 -0.43367,0.11764 -0.83643,0.05336 -0.40275,-0.06428 -0.7455,-0.285541 -0.38145,-0.248282 -0.64002,-0.656529 -0.2532,-0.405014 -0.38846,-0.935825 -0.1386,-0.543972 -0.14519,-1.104997 -0.0108,-0.559871 0.0519,-0.938027 l 0.88861,-0.241048 0.0168,0.0658 q -0.14308,0.437471 -0.17185,0.984635 -0.0288,0.547164 0.0908,1.016559 0.0704,0.276373 0.23907,0.563621 0.16865,0.287247 0.39215,0.432983 0.2385,0.151049 0.48843,0.186433 0.25105,0.03977 0.59543,-0.05365 0.34014,-0.09227 0.53216,-0.266299 0.1974,-0.170799 0.27465,-0.402808 0.0815,-0.233163 0.0567,-0.526609 -0.0205,-0.2946 -0.10324,-0.619228 l -0.1006,-0.394819 0.70578,-0.191454 0.0782,0.307081 q 0.16991,0.666804 0.53837,0.988962 0.37382,0.325392 0.89253,0.184685 0.22959,-0.06228 0.37395,-0.209312 0.14861,-0.148185 0.21332,-0.358033 0.0625,-0.218622 0.0502,-0.445113 -0.0123,-0.22649 -0.0816,-0.498476 -0.10619,-0.416752 -0.37036,-0.846934 -0.26416,-0.430182 -0.63395,-0.775427 l -0.0112,-0.04387 0.8886,-0.241047 q 0.22818,0.271101 0.48337,0.755305 0.26057,0.487437 0.38465,0.97438 0.12184,0.478169 0.12958,0.865346 0.008,0.387177 -0.10444,0.731844 -0.1236,0.371215 -0.37135,0.611956 -0.24776,0.240741 -0.63466,0.345695 -0.52721,0.143014 -1.02098,-0.13577 -0.48841,-0.275551 -0.72347,-0.769909 l -0.0595,0.01615 q 0.0196,0.219797 -0.0216,0.521769 -0.037,0.30082 -0.15049,0.533282 z"
     style="font-style:normal;font-size:medium;text-anchor:middle;fill:none;fill-opacity:1;stroke:#000000;stroke-width:0.06614583;stroke-linecap:butt;stroke-linejoin:bevel;stroke-dasharray:none;stroke-opacity:1"
     id="path1213"
     inkscape:connector-curvature="0" />
  <path
     d="m 289.97356,88.803242 -0.26716,-1.048462 1.21173,-0.328702 0.26716,1.048463 z"
     style="font-style:normal;font-size:medium;text-anchor:middle;fill:none;fill-opacity:1;stroke:#000000;stroke-width:0.06614583;stroke-linecap:butt;stroke-linejoin:bevel;stroke-dasharray:none;stroke-opacity:1"
     id="path1215"
     inkscape:connector-curvature="0" />
</svg>
