<?xml version="1.0" encoding="UTF-8" standalone="no"?>
<svg
   xmlns:dc="http://purl.org/dc/elements/1.1/"
   xmlns:cc="http://creativecommons.org/ns#"
   xmlns:rdf="http://www.w3.org/1999/02/22-rdf-syntax-ns#"
   xmlns:svg="http://www.w3.org/2000/svg"
   xmlns="http://www.w3.org/2000/svg"
   xmlns:sodipodi="http://sodipodi.sourceforge.net/DTD/sodipodi-0.dtd"
   xmlns:inkscape="http://www.inkscape.org/namespaces/inkscape"
   version="1.1"
   width="320.00mm"
   height="620.00mm"
   viewBox="0 0 320.00 620.00"
   id="svg4058"
   sodipodi:docname="backrest_page4.svg"
   inkscape:version="0.92.2 (5c3e80d, 2017-08-06)">
  <metadata
     id="metadata4064">
    <rdf:RDF>
      <cc:Work
         rdf:about="">
        <dc:format>image/svg+xml</dc:format>
        <dc:type
           rdf:resource="http://purl.org/dc/dcmitype/StillImage" />
      </cc:Work>
    </rdf:RDF>
  </metadata>
  <defs
     id="defs4062" />
  <sodipodi:namedview
     pagecolor="#ffffff"
     bordercolor="#666666"
     borderopacity="1"
     objecttolerance="10"
     gridtolerance="10"
     guidetolerance="10"
     inkscape:pageopacity="0"
     inkscape:pageshadow="2"
     inkscape:window-width="1920"
     inkscape:window-height="1017"
     id="namedview4060"
     showgrid="false"
     inkscape:zoom="0.28485758"
     inkscape:cx="-905.14534"
     inkscape:cy="849.36526"
     inkscape:window-x="-8"
     inkscape:window-y="209"
     inkscape:window-maximized="1"
     inkscape:current-layer="svg4058" />
  <style
     type="text/css"
     id="style3966">
    path {
        fill: none;
        stroke-linecap: butt;
        stroke-linejoin: bevel;
        stroke-dasharray: none;
    }
    path.outer {
        stroke: #000000;
        stroke-dasharray: none;
        stroke-dashoffset: 0;
        stroke-width: 0.3;
        stroke-opacity: 1.0;
    }
    path.convex {
        stroke: #000000;
        stroke-dasharray: 0.50,1.00;
        stroke-dashoffset:0;
        stroke-width:0.2;
        stroke-opacity: 1.0
    }
    path.concave {
        stroke: #000000;
        stroke-dasharray: 1.00,0.50,0.20,0.50;
        stroke-dashoffset: 0;
        stroke-width: 0.2;
        stroke-opacity: 1.0
    }
    path.freestyle {
        stroke: #000000;
        stroke-dasharray: none;
        stroke-dashoffset: 0;
        stroke-width: 0.2;
        stroke-opacity: 1.0
    }
    path.outer_background {
        stroke: #ffffff;
        stroke-opacity: 1.0;
        stroke-width: 0.5
    }
    path.inner_background {
        stroke: #ffffff;
        stroke-opacity: 1.0;
        stroke-width: 0.2
    }
    path.sticker {
        fill: #e5e5e5;
        stroke: none;
        fill-opacity: 1.0;
    }
    path.arrow {
        fill: #000000;
    }
    text {
        font-style: normal;
        fill: #000000;
        fill-opacity: 1.0;
        stroke: none;
    }
    text, tspan {
        text-anchor:middle;
    }
    </style>
  <g
     id="g1512">
    <g
       id="g1370">
      <path
         d="m 230.11516,262.94256 -2.36441,-0.92547 3.46677,-8.85787 2.36441,0.92547 -0.25449,0.65025 -1.57324,-0.61579 -2.95779,7.55738 1.57324,0.61579 z"
         style="font-style:normal;font-size:medium;text-anchor:middle;fill:none;fill-opacity:1;stroke:#000000;stroke-width:0.06614743;stroke-linecap:butt;stroke-linejoin:bevel;stroke-dasharray:none;stroke-opacity:1"
         id="path882"
         inkscape:connector-curvature="0" />
      <path
         d="m 237.70199,261.37633 q -0.18508,0.4729 -0.52694,0.83725 -0.34185,0.36436 -0.75762,0.54246 -0.45196,0.19016 -0.97427,0.18498 -0.516,-0.008 -1.11165,-0.24109 -0.55473,-0.21713 -1.02226,-0.53648 -0.46931,-0.3148 -0.75991,-0.61731 l 0.37551,-0.95945 0.0637,0.0249 q 0.2803,0.3824 0.71462,0.74642 0.4361,0.35947 0.91807,0.54812 0.32284,0.12636 0.6585,0.15293 0.34026,0.0283 0.66567,-0.10651 0.27659,-0.11722 0.4834,-0.3509 0.21136,-0.23189 0.35196,-0.59112 0.13703,-0.35013 0.10858,-0.63919 -0.0239,-0.28727 -0.18065,-0.51642 -0.16882,-0.26534 -0.48314,-0.46703 -0.30801,-0.20443 -0.72633,-0.36817 -0.40013,-0.15662 -0.79434,-0.24798 -0.38966,-0.0896 -0.67928,-0.14004 l 1.365,-3.48767 4.07406,1.59465 -0.31145,0.79576 -3.1965,-1.25117 -0.70474,1.80068 q 0.20262,0.0584 0.41081,0.12933 0.20826,0.0708 0.35831,0.12951 0.55018,0.21534 0.92658,0.4728 0.37819,0.25284 0.6312,0.62461 0.26588,0.39247 0.3111,0.86638 0.0453,0.47391 -0.18789,1.06959 z"
         style="font-style:normal;font-size:medium;text-anchor:middle;fill:none;fill-opacity:1;stroke:#000000;stroke-width:0.06614743;stroke-linecap:butt;stroke-linejoin:bevel;stroke-dasharray:none;stroke-opacity:1"
         id="path884"
         inkscape:connector-curvature="0" />
      <path
         d="m 239.97293,266.80105 -2.36442,-0.92547 0.25449,-0.65024 1.57325,0.61579 2.95779,-7.55738 -1.57325,-0.61579 0.2545,-0.65025 2.36442,0.92547 z"
         style="font-style:normal;font-size:medium;text-anchor:middle;fill:none;fill-opacity:1;stroke:#000000;stroke-width:0.06614743;stroke-linecap:butt;stroke-linejoin:bevel;stroke-dasharray:none;stroke-opacity:1"
         id="path886"
         inkscape:connector-curvature="0" />
      <path
         d="m 248.33669,268.01921 -2.6736,-1.04649 0.27051,-0.69117 0.88665,0.34706 2.1089,-5.38838 -0.88666,-0.34706 0.27051,-0.69118 2.67361,1.04651 -0.27051,0.69116 -0.88666,-0.34705 -2.10889,5.38838 0.88665,0.34706 z"
         style="font-style:normal;font-size:medium;text-anchor:middle;fill:none;fill-opacity:1;stroke:#000000;stroke-width:0.06614743;stroke-linecap:butt;stroke-linejoin:bevel;stroke-dasharray:none;stroke-opacity:1"
         id="path888"
         inkscape:connector-curvature="0" />
      <path
         d="m 258.3451,269.45637 q -0.18508,0.47291 -0.52693,0.83726 -0.34186,0.36435 -0.75763,0.54245 -0.45195,0.19017 -0.97428,0.18498 -0.51599,-0.008 -1.11164,-0.24109 -0.55473,-0.21713 -1.02226,-0.53648 -0.46931,-0.31478 -0.75991,-0.6173 l 0.37551,-0.95945 0.0637,0.0249 q 0.2803,0.38239 0.71462,0.74641 0.4361,0.35947 0.91807,0.54812 0.32284,0.12637 0.6585,0.15294 0.34026,0.0283 0.66567,-0.10652 0.27659,-0.11721 0.4834,-0.3509 0.21136,-0.23189 0.35195,-0.59111 0.13704,-0.35014 0.10859,-0.6392 -0.0239,-0.28727 -0.18065,-0.51642 -0.16882,-0.26533 -0.48314,-0.46703 -0.30801,-0.20443 -0.72633,-0.36817 -0.40013,-0.15662 -0.79434,-0.24798 -0.38965,-0.0896 -0.67928,-0.14004 l 1.365,-3.48767 4.07406,1.59465 -0.31145,0.79576 -3.1965,-1.25116 -0.70474,1.80067 q 0.20262,0.0584 0.41081,0.12933 0.20826,0.0708 0.35831,0.12952 0.55018,0.21534 0.92658,0.47279 0.37819,0.25284 0.63119,0.62461 0.26588,0.39247 0.31111,0.86638 0.0453,0.47391 -0.18789,1.06959 z"
         style="font-style:normal;font-size:medium;text-anchor:middle;fill:none;fill-opacity:1;stroke:#000000;stroke-width:0.06614743;stroke-linecap:butt;stroke-linejoin:bevel;stroke-dasharray:none;stroke-opacity:1"
         id="path890"
         inkscape:connector-curvature="0" />
      <path
         style="fill:#e5e5e5;fill-opacity:1;stroke:#000000;stroke-width:0.06614743;stroke-linecap:butt;stroke-linejoin:bevel;stroke-dasharray:none;stroke-opacity:1"
         inkscape:connector-curvature="0"
         id="path3972"
         d="m 288.06873,482.59724 9.99979,0.17101 -0.12931,93.00293 -10.00019,0.14319 z m 0.41014,-294.67348 9.99977,0.17102 -0.1483,106.44225 -10.00019,0.14315 z m -0.21569,154.82544 9.99978,0.171 -0.0634,45.57535 -10.00021,0.14319 z m -0.12909,92.8688 9.99977,0.17098 -0.0649,46.66506 -10.00021,0.1432 z m 0.48248,-346.546169 9.99976,0.171052 -0.13723,98.537657 -10.00023,0.14322 z m -5.3425,-39.300914 0.0462,-2.698736 5.31249,0.0074 0.0386,2.698826 z m -104.80392,244.756213 -9.63484,-2.68241 27.83033,-106.41387 9.71433,2.37845 z m 104.07103,281.37995 -0.17104,10.00025 -36.67857,-0.051 -0.14319,-10.0007 z m -36.25985,-526.187735 0.17102,-10.000259 36.67858,0.05111 0.14314,10.000718 z m 42.39001,0.05903 9.99977,0.171051 -0.0543,38.979241 -10.00021,0.143161 z m -43.12296,526.077225 -8.2036,5.72089 -67.15629,-93.15637 8.01988,-5.97575 z m -75.8445,-140.40247 -9.86811,1.62646 -8.44851,-46.68209 9.81216,-1.93563 z m -0.0694,-92.86917 -9.80673,-1.96298 8.77884,-47.74777 9.86356,1.65392 z m 48.98216,-253.609648 -9.99975,-0.171047 0.0543,-38.979205 10.00022,-0.143193 z m 0.0547,-39.293445 0.17102,-10.000262 27.29577,0.03802 0.14316,10.000718 z m -12.29141,138.128433 -9.90493,-1.38472 12.19809,-98.523194 9.94351,1.072926 z m 81.55905,388.10507 -0.046,2.69902 -5.31307,-0.007 -0.0387,-2.69913 z m 0.26036,-187.27563 9.99978,0.17102 -0.0649,46.66503 -10.00019,0.14321 z m -109.99101,93.80563 -9.86811,1.62646 -8.44852,-46.68206 9.81214,-1.93564 z m 110.12178,-187.76419 9.99975,0.17107 -0.0665,47.75478 -10.0002,0.14317 z m -127.13073,93.78169 -9.80672,-1.96296 8.37823,-45.5689 9.86355,1.65395 z"
         class="sticker" />
      <path
         d="m 295.37344,525.00764 -5.55935,-2.9698 10e-4,-0.94047 5.77003,3.15906 0.005,-3.72674 0.76904,0.001 -0.006,4.47825 z"
         style="font-style:normal;font-size:medium;text-anchor:middle;fill:none;fill-opacity:1;stroke:#000000;stroke-width:0.06614743;stroke-linecap:butt;stroke-linejoin:bevel;stroke-dasharray:none;stroke-opacity:1"
         id="path893"
         inkscape:connector-curvature="0" />
      <path
         d="m 293.46184,528.15162 0.001,-1.05034 1.25244,0.002 -0.001,1.05034 z m -3.65624,-0.005 10e-4,-1.05034 1.25244,0.002 -10e-4,1.05034 z"
         style="font-style:normal;font-size:medium;text-anchor:middle;fill:none;fill-opacity:1;stroke:#000000;stroke-width:0.06614743;stroke-linecap:butt;stroke-linejoin:bevel;stroke-dasharray:none;stroke-opacity:1"
         id="path895"
         inkscape:connector-curvature="0" />
      <path
         d="m 291.91876,534.9086 q -0.99756,-10e-4 -1.62946,-0.66149 -0.6275,-0.65568 -0.62618,-1.60934 6.7e-4,-0.48343 0.15064,-0.87874 0.14996,-0.39532 0.44482,-0.69814 0.36527,-0.37744 0.96761,-0.58317 0.60233,-0.20132 1.45047,-0.20014 0.87012,0.001 1.54222,0.18672 0.6721,0.18992 1.19448,0.59936 0.49605,0.38743 0.77205,0.99868 0.2804,0.61126 0.27927,1.42429 -3.6e-4,0.25929 -0.0226,0.43505 -0.0222,0.17576 -0.0796,0.35586 l -0.83935,-0.001 6e-5,-0.0439 q 0.0661,-0.12296 0.12357,-0.37338 0.0619,-0.24602 0.0622,-0.50531 0.001,-0.94487 -0.59117,-1.50821 -0.58808,-0.56335 -1.5943,-0.65704 0.22361,0.36946 0.33737,0.7256 0.11815,0.36053 0.1175,0.83077 -5.8e-4,0.4175 -0.0801,0.73381 -0.0752,0.32071 -0.30853,0.65439 -0.2686,0.38637 -0.67756,0.57917 -0.40897,0.19719 -0.99344,0.19638 z m -0.0339,-0.89219 q 0.40869,5.7e-4 0.67692,-0.12211 0.26824,-0.11828 0.46637,-0.39487 0.14091,-0.20196 0.1852,-0.44801 0.0443,-0.24605 0.0447,-0.51413 5.2e-4,-0.37355 -0.0869,-0.69448 -0.0874,-0.32094 -0.27155,-0.65959 -0.0967,-0.009 -0.18894,-0.0135 -0.0879,-0.004 -0.22412,-0.004 -0.69433,-9.7e-4 -1.09882,0.1391 -0.40011,0.14447 -0.63337,0.39465 -0.19364,0.20189 -0.28624,0.43468 -0.0882,0.2372 -0.0886,0.51407 -8.9e-4,0.63724 0.38533,1.00253 0.3906,0.36531 1.12009,0.36632 z"
         style="font-style:normal;font-size:medium;text-anchor:middle;fill:none;fill-opacity:1;stroke:#000000;stroke-width:0.06614743;stroke-linecap:butt;stroke-linejoin:bevel;stroke-dasharray:none;stroke-opacity:1"
         id="path897"
         inkscape:connector-curvature="0" />
      <path
         d="m 289.7925,537.56446 10e-4,-1.05034 1.25244,0.002 -10e-4,1.05034 z"
         style="font-style:normal;font-size:medium;text-anchor:middle;fill:none;fill-opacity:1;stroke:#000000;stroke-width:0.06614743;stroke-linecap:butt;stroke-linejoin:bevel;stroke-dasharray:none;stroke-opacity:1"
         id="path899"
         inkscape:connector-curvature="0" />
      <path
         d="m 290.0351,363.05528 0.006,-4.42989 0.91845,0.001 q 0.39487,0.462 0.78974,0.92398 0.39486,0.4664 0.78541,0.86686 0.81621,0.84493 1.29478,1.15763 0.48296,0.3127 1.04107,0.31348 0.50976,7.1e-4 0.79588,-0.3373 0.2905,-0.3336 0.29134,-0.93568 5.6e-4,-0.39992 -0.13942,-0.86596 -0.13998,-0.46603 -0.4294,-0.9103 l 6e-5,-0.0439 0.92285,10e-4 q 0.15338,0.31223 0.2801,0.83099 0.12671,0.52315 0.12603,1.01097 -10e-4,1.00638 -0.48998,1.57703 -0.4842,0.57064 -1.31476,0.56949 -0.37354,-5.2e-4 -0.6986,-0.0977 -0.32067,-0.0928 -0.61045,-0.27771 -0.27222,-0.17178 -0.53557,-0.40507 -0.26335,-0.22889 -0.5837,-0.55895 -0.46077,-0.47087 -0.89513,-0.97248 -0.42997,-0.50159 -0.7985,-0.93719 l -0.005,3.52019 z"
         style="font-style:normal;font-size:medium;text-anchor:middle;fill:none;fill-opacity:1;stroke:#000000;stroke-width:0.06614743;stroke-linecap:butt;stroke-linejoin:bevel;stroke-dasharray:none;stroke-opacity:1"
         id="path902"
         inkscape:connector-curvature="0" />
      <path
         d="m 293.68695,366.22459 10e-4,-1.05034 1.25244,0.002 -10e-4,1.05034 z m -3.65625,-0.005 10e-4,-1.05035 1.25244,0.002 -10e-4,1.05035 z"
         style="font-style:normal;font-size:medium;text-anchor:middle;fill:none;fill-opacity:1;stroke:#000000;stroke-width:0.06614743;stroke-linecap:butt;stroke-linejoin:bevel;stroke-dasharray:none;stroke-opacity:1"
         id="path904"
         inkscape:connector-curvature="0" />
      <path
         d="m 290.02144,372.88193 0.006,-4.42991 0.91846,10e-4 q 0.39487,0.46201 0.78973,0.924 0.39486,0.46638 0.78542,0.86686 0.81621,0.84492 1.29478,1.15762 0.48296,0.31269 1.04107,0.31347 0.50976,7.1e-4 0.79588,-0.33729 0.2905,-0.33359 0.29134,-0.93568 5.5e-4,-0.39992 -0.13942,-0.86596 -0.13998,-0.46603 -0.4294,-0.91031 l 6e-5,-0.0439 0.92285,0.001 q 0.15337,0.31224 0.28009,0.831 0.12672,0.52315 0.12604,1.01097 -10e-4,1.00639 -0.48999,1.57703 -0.48419,0.57064 -1.31475,0.56949 -0.37354,-5.2e-4 -0.6986,-0.0977 -0.32067,-0.0927 -0.61045,-0.27771 -0.27223,-0.17178 -0.53557,-0.40507 -0.26336,-0.22888 -0.5837,-0.55894 -0.46077,-0.47088 -0.89513,-0.9725 -0.42997,-0.50158 -0.79851,-0.93718 l -0.005,3.52019 z"
         style="font-style:normal;font-size:medium;text-anchor:middle;fill:none;fill-opacity:1;stroke:#000000;stroke-width:0.06614743;stroke-linecap:butt;stroke-linejoin:bevel;stroke-dasharray:none;stroke-opacity:1"
         id="path906"
         inkscape:connector-curvature="0" />
      <path
         d="m 284.7181,49.28707 -0.95634,-0.0013 2.5e-4,-0.180359 0.36782,5.12e-4 0.002,-1.184207 -0.36782,-5.12e-4 2.3e-4,-0.161377 q 0.0747,1.04e-4 0.16019,-0.01168 0.0854,-0.01298 0.12939,-0.03662 0.0546,-0.02962 0.0855,-0.07458 0.0321,-0.04626 0.0369,-0.123355 l 0.18391,2.56e-4 -0.002,1.592396 0.3607,5.02e-4 z"
         style="font-style:normal;font-size:medium;text-anchor:middle;fill:none;fill-opacity:1;stroke:#000000;stroke-width:0.06614743;stroke-linecap:butt;stroke-linejoin:bevel;stroke-dasharray:none;stroke-opacity:1"
         id="path909"
         inkscape:connector-curvature="0" />
      <path
         d="m 285.67462,48.301162 -0.28358,-3.95e-4 4.8e-4,-0.338177 0.28357,3.95e-4 z m -10e-4,0.987237 -0.28358,-3.95e-4 4.7e-4,-0.338176 0.28358,3.94e-4 z"
         style="font-style:normal;font-size:medium;text-anchor:middle;fill:none;fill-opacity:1;stroke:#000000;stroke-width:0.06614743;stroke-linecap:butt;stroke-linejoin:bevel;stroke-dasharray:none;stroke-opacity:1"
         id="path911"
         inkscape:connector-curvature="0" />
      <path
         d="m 287.47102,48.301292 q -3.2e-4,0.231381 -0.054,0.419975 -0.0525,0.188596 -0.15944,0.321345 -0.10817,0.135115 -0.27082,0.208463 -0.16266,0.07337 -0.38216,0.07307 -0.0617,-8.6e-5 -0.11627,-0.0072 -0.0546,-0.0061 -0.0973,-0.02034 l 3.2e-4,-0.226641 0.0119,1.7e-5 q 0.0344,0.01785 0.0972,0.03453 0.0629,0.01549 0.13999,0.0156 0.26222,3.65e-4 0.41076,-0.156057 0.14972,-0.157609 0.17383,-0.434049 -0.11044,0.06625 -0.20777,0.09462 -0.0973,0.02836 -0.21243,0.0282 -0.10916,-1.52e-4 -0.19812,-0.02168 -0.0878,-0.02152 -0.17667,-0.08334 -0.10432,-0.07255 -0.15756,-0.184139 -0.0521,-0.111607 -0.0518,-0.267055 3.7e-4,-0.270533 0.17859,-0.439973 0.17821,-0.169431 0.4345,-0.169075 0.12814,1.79e-4 0.23725,0.04063 0.1091,0.03935 0.19086,0.118931 0.10072,0.09864 0.15508,0.254138 0.0544,0.154334 0.054,0.399956 z m -0.2396,-0.05133 q 2.5e-4,-0.183918 -0.0376,-0.295506 -0.0378,-0.111598 -0.10418,-0.173393 -0.0557,-0.05348 -0.11973,-0.07607 -0.064,-0.02379 -0.13879,-0.02389 -0.17086,-2.38e-4 -0.27067,0.106418 -0.0986,0.106658 -0.0989,0.300068 -1.6e-4,0.112725 0.0318,0.183962 0.0319,0.07124 0.1078,0.124746 0.0533,0.03688 0.1174,0.04996 0.0641,0.01199 0.14236,0.0121 0.0926,1.29e-4 0.18751,-0.02464 0.0949,-0.02477 0.17808,-0.07215 0.001,-0.0249 0.002,-0.0486 0.002,-0.0249 0.002,-0.0629 z"
         style="font-style:normal;font-size:medium;text-anchor:middle;fill:none;fill-opacity:1;stroke:#000000;stroke-width:0.06614743;stroke-linecap:butt;stroke-linejoin:bevel;stroke-dasharray:none;stroke-opacity:1"
         id="path913"
         inkscape:connector-curvature="0" />
      <path
         d="m 288.21597,49.291938 -0.28358,-3.95e-4 4.7e-4,-0.338176 0.28358,3.95e-4 z"
         style="font-style:normal;font-size:medium;text-anchor:middle;fill:none;fill-opacity:1;stroke:#000000;stroke-width:0.06614743;stroke-linecap:butt;stroke-linejoin:bevel;stroke-dasharray:none;stroke-opacity:1"
         id="path915"
         inkscape:connector-curvature="0" />
      <path
         class="arrow"
         d="m 192.42505,241.16823 12.20489,-7.14461 -9.78624,7.77722 4.72562,11.57287 z"
         id="path3988"
         inkscape:connector-curvature="0"
         style="fill:#000000;stroke:#000000;stroke-width:0.0661474;stroke-linecap:butt;stroke-linejoin:bevel;stroke-dasharray:none;stroke-opacity:1" />
      <g
         aria-label="1"
         transform="matrix(0.93121344,0.36449198,-0.3644743,0.93125861,199.67427,247.17066)"
         style="font-style:normal;font-size:10px;text-anchor:middle;fill:#000000;fill-opacity:1;stroke:#000000;stroke-width:0.06614583;stroke-opacity:1"
         id="text3992">
        <path
           d="M 2.109375,0 H -1.8261719 V -0.7421875 H -0.3125 v -4.8730469 h -1.5136719 v -0.6640625 q 0.3076172,0 0.6591797,-0.048828 0.35156251,-0.053711 0.53222658,-0.1513672 0.22460937,-0.1220703 0.35156249,-0.3076172 0.13183594,-0.1904297 0.15136719,-0.5078125 H 0.625 v 6.5527344 h 1.484375 z"
           style="text-anchor:middle;fill:none;stroke:#000000;stroke-width:0.06614583;stroke-linecap:butt;stroke-linejoin:bevel;stroke-dasharray:none;stroke-opacity:1"
           id="path918"
           inkscape:connector-curvature="0" />
      </g>
      <path
         d="m 186.05365,243.93081 q 0.82904,0.21684 1.455,0.58496 0.62707,0.36389 1.00316,0.8711 0.38349,0.51367 0.49474,1.1651 0.11126,0.65143 -0.0944,1.438 -0.0578,0.2211 -0.13448,0.41 -0.0724,0.19002 -0.16346,0.32974 l -0.81204,-0.21239 0.0111,-0.0425 q 0.096,-0.10662 0.21448,-0.3164 0.1142,-0.21088 0.18648,-0.48724 0.24574,-0.93964 -0.17647,-1.61788 -0.42534,-0.68362 -1.39371,-1.02775 0.13467,0.45768 0.14553,0.83301 0.0109,0.37533 -0.097,0.78775 -0.1023,0.39116 -0.26223,0.69002 -0.1588,0.29462 -0.46328,0.55567 -0.3572,0.30631 -0.80688,0.39313 -0.44857,0.0825 -1.00552,-0.0631 -0.96934,-0.25353 -1.41052,-1.0503 -0.44118,-0.79678 -0.201,-1.71515 0.1201,-0.45918 0.36695,-0.81254 0.2426,-0.35447 0.60417,-0.57333 0.4474,-0.26909 1.0555,-0.319 0.60384,-0.051 1.48391,0.17917 z m -0.40743,0.81102 q -0.65899,-0.17235 -1.09422,-0.14082 -0.43522,0.0315 -0.71857,0.2118 -0.24358,0.14979 -0.38441,0.35826 -0.14507,0.20735 -0.21512,0.47521 -0.16012,0.61224 0.12911,1.06947 0.29035,0.45296 0.98335,0.63422 0.40389,0.10565 0.689,0.0576 0.28512,-0.0481 0.5476,-0.27015 0.18183,-0.15685 0.28865,-0.37422 0.10255,-0.21847 0.17594,-0.49908 0.0867,-0.33164 0.0864,-0.69513 -3.2e-4,-0.36348 -0.0925,-0.70559 -0.0883,-0.0272 -0.17203,-0.0543 -0.087,-0.0321 -0.22305,-0.0676 z"
         style="font-style:normal;font-size:medium;text-anchor:middle;fill:none;fill-opacity:1;stroke:#000000;stroke-width:0.06614743;stroke-linecap:butt;stroke-linejoin:bevel;stroke-dasharray:none;stroke-opacity:1"
         id="path921"
         inkscape:connector-curvature="0" />
      <path
         d="m 190.29884,242.18388 -0.26576,1.01616 -1.21168,-0.31693 0.26575,-1.01615 z"
         style="font-style:normal;font-size:medium;text-anchor:middle;fill:none;fill-opacity:1;stroke:#000000;stroke-width:0.06614743;stroke-linecap:butt;stroke-linejoin:bevel;stroke-dasharray:none;stroke-opacity:1"
         id="path923"
         inkscape:connector-curvature="0" />
      <path
         d="m 187.69227,237.69999 -0.26576,1.01616 -1.21168,-0.31692 0.26575,-1.01616 z m 3.53727,0.92519 -0.26576,1.01616 -1.21168,-0.31692 0.26575,-1.01616 z"
         style="font-style:normal;font-size:medium;text-anchor:middle;fill:none;fill-opacity:1;stroke:#000000;stroke-width:0.06614743;stroke-linecap:butt;stroke-linejoin:bevel;stroke-dasharray:none;stroke-opacity:1"
         id="path925"
         inkscape:connector-curvature="0" />
      <path
         d="m 192.82074,232.54094 -0.89623,3.4269 -0.64623,-0.16903 0.3447,-1.31802 -4.24302,-1.10979 -0.3447,1.31804 -0.57821,-0.15124 q 0.07,-0.26785 0.10759,-0.5851 0.0333,-0.31835 -0.0106,-0.49791 -0.0551,-0.22338 -0.18779,-0.37618 -0.13578,-0.15817 -0.40769,-0.24745 l 0.17236,-0.65902 5.70554,1.49231 0.33804,-1.29252 z"
         style="font-style:normal;font-size:medium;text-anchor:middle;fill:none;fill-opacity:1;stroke:#000000;stroke-width:0.06614743;stroke-linecap:butt;stroke-linejoin:bevel;stroke-dasharray:none;stroke-opacity:1"
         id="path927"
         inkscape:connector-curvature="0" />
      <path
         class="arrow"
         d="m 264.04477,575.88134 -9.98608,-10.01438 9.98956,7.51426 10.01042,-7.48644 z"
         id="path4000"
         inkscape:connector-curvature="0"
         style="fill:#000000;stroke:#000000;stroke-width:0.0661474;stroke-linecap:butt;stroke-linejoin:bevel;stroke-dasharray:none;stroke-opacity:1" />
      <g
         aria-label="2"
         transform="matrix(0.93121344,0.36449198,-0.3644743,0.93125861,262.59939,570.60596)"
         style="font-style:normal;font-size:10px;text-anchor:middle;fill:#000000;fill-opacity:1;stroke:#000000;stroke-width:0.06614583;stroke-opacity:1"
         id="text4004">
        <path
           d="m 2.5244141,0 h -4.921875 v -1.0205078 q 0.5126953,-0.4394531 1.0253906,-0.8789063 0.51757811,-0.4394531 0.96191405,-0.8740234 0.9375,-0.9082031 1.28417969,-1.4404297 0.34667966,-0.5371094 0.34667966,-1.1572265 0,-0.5664063 -0.37597654,-0.8837891 -0.37109375,-0.3222656 -1.04003906,-0.3222656 -0.44433594,0 -0.9619141,0.15625 -0.5175781,0.15625 -1.0107422,0.4785156 h -0.048828 v -1.0253906 q 0.3466797,-0.1708985 0.9228516,-0.3125 0.58105468,-0.1416016 1.12304686,-0.1416016 1.11816407,0 1.75292964,0.5419922 0.6347657,0.5371094 0.6347657,1.4599609 0,0.4150391 -0.1074219,0.7763672 -0.1025391,0.3564453 -0.3076172,0.6787109 -0.1904297,0.3027344 -0.4492187,0.5957032 -0.2539063,0.2929687 -0.62011723,0.649414 -0.52246093,0.5126953 -1.07910156,0.9960938 -0.55664062,0.4785156 -1.04003901,0.88867186 h 3.9111328 z"
           style="text-anchor:middle;fill:none;stroke:#000000;stroke-width:0.06614583;stroke-linecap:butt;stroke-linejoin:bevel;stroke-dasharray:none;stroke-opacity:1"
           id="path930"
           inkscape:connector-curvature="0" />
      </g>
      <path
         d="m 269.92224,577.68958 3.54198,0.005 -9.3e-4,0.668 -1.3623,-0.002 -0.006,4.38595 1.36231,0.002 -8.4e-4,0.59769 q -0.27685,-4e-4 -0.59332,0.0431 -0.31647,0.0479 -0.47919,0.13556 -0.2023,0.10959 -0.31679,0.27644 -0.11889,0.17123 -0.13687,0.45686 l -0.68115,-9.4e-4 0.008,-5.89775 -1.33593,-0.002 z"
         style="font-style:normal;font-size:medium;text-anchor:middle;fill:none;fill-opacity:1;stroke:#000000;stroke-width:0.06614743;stroke-linecap:butt;stroke-linejoin:bevel;stroke-dasharray:none;stroke-opacity:1"
         id="path933"
         inkscape:connector-curvature="0" />
      <path
         d="m 264.19177,577.68161 3.54199,0.005 -9.3e-4,0.668 -1.3623,-0.002 -0.006,4.38595 1.3623,0.002 -8.3e-4,0.59768 q -0.27685,-3.9e-4 -0.59332,0.0431 -0.31647,0.0479 -0.47919,0.13556 -0.20231,0.10959 -0.3168,0.27644 -0.11889,0.17122 -0.13686,0.45686 l -0.68115,-9.4e-4 0.008,-5.89775 -1.33594,-0.002 z"
         style="font-style:normal;font-size:medium;text-anchor:middle;fill:none;fill-opacity:1;stroke:#000000;stroke-width:0.06614743;stroke-linecap:butt;stroke-linejoin:bevel;stroke-dasharray:none;stroke-opacity:1"
         id="path935"
         inkscape:connector-curvature="0" />
      <path
         d="m 260.64909,581.33311 1.05029,10e-4 -0.002,1.2525 -1.05029,-10e-4 z m 0.005,-3.65642 1.05029,10e-4 -0.002,1.2525 -1.05029,-0.001 z"
         style="font-style:normal;font-size:medium;text-anchor:middle;fill:none;fill-opacity:1;stroke:#000000;stroke-width:0.06614743;stroke-linecap:butt;stroke-linejoin:bevel;stroke-dasharray:none;stroke-opacity:1"
         id="path937"
         inkscape:connector-curvature="0" />
      <path
         d="m 253.99207,577.66742 4.42969,0.006 -0.001,0.9185 q -0.46198,0.39488 -0.92395,0.78977 -0.46637,0.39488 -0.86682,0.78545 -0.84488,0.81626 -1.15756,1.29484 -0.31268,0.483 -0.31346,1.04112 -7.1e-4,0.5098 0.33727,0.79592 0.33358,0.29052 0.93563,0.29136 0.39991,5.6e-4 0.86592,-0.13943 0.46602,-0.13999 0.91027,-0.42942 l 0.0439,6e-5 -10e-4,0.92289 q -0.31223,0.15339 -0.83096,0.28011 -0.52312,0.12673 -1.01092,0.12605 -1.00634,-10e-4 -1.57695,-0.49002 -0.57062,-0.48421 -0.56946,-1.31481 5.2e-4,-0.37356 0.0977,-0.69863 0.0927,-0.32068 0.2777,-0.61049 0.17177,-0.27223 0.40504,-0.53558 0.22889,-0.26339 0.55892,-0.58374 0.47086,-0.46078 0.97244,-0.89517 0.50157,-0.43 0.93715,-0.79854 l -3.52002,-0.005 z"
         style="font-style:normal;font-size:medium;text-anchor:middle;fill:none;fill-opacity:1;stroke:#000000;stroke-width:0.06614743;stroke-linecap:butt;stroke-linejoin:bevel;stroke-dasharray:none;stroke-opacity:1"
         id="path939"
         inkscape:connector-curvature="0" />
      <path
         d="m 290.44765,66.786364 0.006,-4.4299 0.91846,0.0013 q 0.39486,0.462002 0.78972,0.923995 0.39486,0.466394 0.78542,0.866857 0.8162,0.84493 1.29477,1.157633 0.48297,0.312698 1.04107,0.313476 0.50977,7.11e-4 0.79588,-0.337288 0.29051,-0.333601 0.29135,-0.93568 5.5e-4,-0.399918 -0.13942,-0.865957 -0.13998,-0.466038 -0.4294,-0.910313 l 6e-5,-0.0439 0.92285,0.0013 q 0.15338,0.312239 0.28009,0.830991 0.12672,0.523152 0.12604,1.010976 -10e-4,1.006388 -0.48999,1.577025 -0.4842,0.570643 -1.31476,0.569486 -0.37354,-5.21e-4 -0.6986,-0.09767 -0.32067,-0.09275 -0.61045,-0.277714 -0.27222,-0.171778 -0.53557,-0.405067 -0.26335,-0.228898 -0.58369,-0.558951 -0.46078,-0.470875 -0.89513,-0.972485 -0.42997,-0.501594 -0.7985,-0.937189 l -0.005,3.520187 z"
         style="font-style:normal;font-size:medium;text-anchor:middle;fill:none;fill-opacity:1;stroke:#000000;stroke-width:0.06614743;stroke-linecap:butt;stroke-linejoin:bevel;stroke-dasharray:none;stroke-opacity:1"
         id="path942"
         inkscape:connector-curvature="0" />
      <path
         d="m 294.09948,69.955671 10e-4,-1.05034 1.25244,0.0017 -10e-4,1.05034 z m -3.65624,-0.0051 10e-4,-1.05034 1.25244,0.0017 -0.001,1.05034 z"
         style="font-style:normal;font-size:medium;text-anchor:middle;fill:none;fill-opacity:1;stroke:#000000;stroke-width:0.06614743;stroke-linecap:butt;stroke-linejoin:bevel;stroke-dasharray:none;stroke-opacity:1"
         id="path944"
         inkscape:connector-curvature="0" />
      <path
         d="m 293.58563,76.041685 q -0.18926,0.210677 -0.47509,0.346516 -0.28584,0.135838 -0.73847,0.135207 -0.44824,-6.25e-4 -0.82155,-0.163742 -0.37331,-0.163129 -0.64976,-0.457959 -0.30715,-0.330035 -0.45594,-0.778514 -0.1444,-0.444063 -0.14366,-0.975829 7.6e-4,-0.544945 0.13333,-1.072137 0.12817,-0.527187 0.28245,-0.865369 l 0.91846,0.0013 -9e-5,0.0659 q -0.24662,0.373204 -0.40992,0.878371 -0.1633,0.505168 -0.16395,0.97541 -3.9e-4,0.276864 0.0915,0.589027 0.0919,0.312153 0.27176,0.505774 0.19308,0.202428 0.42585,0.299438 0.23277,0.101399 0.58873,0.101895 0.35156,4.9e-4 0.58024,-0.113456 0.23306,-0.109541 0.36517,-0.307116 0.13651,-0.19758 0.18524,-0.478777 0.0531,-0.281189 0.0536,-0.606395 l 5.5e-4,-0.395528 0.7295,0.001 -4.3e-4,0.307635 q -9.3e-4,0.667991 0.27537,1.063906 0.28069,0.400311 0.81683,0.401059 0.2373,3.3e-4 0.41322,-0.1005 0.18032,-0.100823 0.29483,-0.280853 0.11452,-0.18881 0.15876,-0.404098 0.0443,-0.21528 0.0446,-0.487752 5.8e-4,-0.4175 -0.14817,-0.887951 -0.14876,-0.470441 -0.42064,-0.88832 l 6e-5,-0.0439 0.91846,0.0013 q 0.15337,0.312249 0.28009,0.831001 0.13111,0.52316 0.13043,1.010972 -6.7e-4,0.479033 -0.0891,0.843668 -0.0884,0.364645 -0.28217,0.658819 -0.21138,0.316131 -0.51043,0.478322 -0.29906,0.162182 -0.69896,0.161624 -0.54492,-7.59e-4 -0.95307,-0.388057 -0.40376,-0.382911 -0.5085,-0.906034 l -0.0615,-8.6e-5 q -0.0355,0.210902 -0.15009,0.483216 -0.11025,0.272319 -0.2775,0.461065 z"
         style="font-style:normal;font-size:medium;text-anchor:middle;fill:none;fill-opacity:1;stroke:#000000;stroke-width:0.06614743;stroke-linecap:butt;stroke-linejoin:bevel;stroke-dasharray:none;stroke-opacity:1"
         id="path946"
         inkscape:connector-curvature="0" />
      <path
         d="m 209.95095,535.82202 q 0.69513,-0.50116 1.37757,-0.74939 0.67987,-0.25178 1.31041,-0.21879 0.64025,0.0314 1.21334,0.36048 0.57309,0.32905 1.04853,0.98856 0.13364,0.18537 0.23044,0.3648 0.10037,0.17685 0.15014,0.336 l -0.68087,0.49089 -0.0257,-0.0356 q -0.0211,-0.14192 -0.10736,-0.36686 -0.0899,-0.22233 -0.25693,-0.45405 -0.56796,-0.78784 -1.35974,-0.89422 -0.79793,-0.10735 -1.6799,0.42017 0.43862,0.18761 0.73491,0.41825 0.29629,0.23064 0.54557,0.57644 0.23644,0.32798 0.36502,0.6416 0.12602,0.31007 0.13339,0.71109 0.009,0.47047 -0.21073,0.87248 -0.22201,0.39845 -0.68899,0.73512 -0.81275,0.58597 -1.708,0.41875 -0.89525,-0.1672 -1.45036,-0.93723 -0.27755,-0.38501 -0.39279,-0.80036 -0.1188,-0.41278 -0.0573,-0.83096 0.0774,-0.51633 0.42619,-1.017 0.3452,-0.49809 1.08309,-1.03009 z m 0.36585,0.83062 q -0.55253,0.39836 -0.80539,0.75402 -0.25284,0.35567 -0.29429,0.68894 -0.0396,0.2832 0.0314,0.52455 0.0675,0.2439 0.22938,0.4685 0.37007,0.51334 0.90677,0.58149 0.53413,0.0646 1.11518,-0.35434 0.33865,-0.24415 0.48315,-0.4946 0.1445,-0.25048 0.14043,-0.59428 -0.005,-0.24008 -0.10471,-0.46087 -0.10316,-0.21818 -0.27278,-0.45346 -0.20045,-0.27806 -0.48092,-0.50927 -0.28046,-0.23121 -0.60294,-0.37796 -0.0772,0.0507 -0.15141,0.0981 -0.0801,0.0467 -0.19419,0.12891 z"
         style="font-style:normal;font-size:medium;text-anchor:middle;fill:none;fill-opacity:1;stroke:#000000;stroke-width:0.06614743;stroke-linecap:butt;stroke-linejoin:bevel;stroke-dasharray:none;stroke-opacity:1"
         id="path949"
         inkscape:connector-curvature="0" />
      <path
         d="m 211.30745,531.43626 0.61421,0.85201 -1.01595,0.73246 -0.61421,-0.85201 z"
         style="font-style:normal;font-size:medium;text-anchor:middle;fill:none;fill-opacity:1;stroke:#000000;stroke-width:0.06614743;stroke-linecap:butt;stroke-linejoin:bevel;stroke-dasharray:none;stroke-opacity:1"
         id="path951"
         inkscape:connector-curvature="0" />
      <path
         d="m 206.19055,530.59073 0.61422,0.85201 -1.01595,0.73246 -0.61422,-0.85201 z m 2.96586,-2.1383 0.61421,0.85201 -1.01594,0.73247 -0.61422,-0.85201 z"
         style="font-style:normal;font-size:medium;text-anchor:middle;fill:none;fill-opacity:1;stroke:#000000;stroke-width:0.06614743;stroke-linecap:butt;stroke-linejoin:bevel;stroke-dasharray:none;stroke-opacity:1"
         id="path953"
         inkscape:connector-curvature="0" />
      <path
         d="m 205.26039,523.04803 2.59049,3.59344 -0.74502,0.53713 q -0.59067,-0.14301 -1.18134,-0.28601 -0.59324,-0.14658 -1.14437,-0.24225 -1.15647,-0.20643 -1.72749,-0.1794 -0.57459,0.0296 -1.0273,0.35599 -0.41352,0.29813 -0.44734,0.73968 -0.04,0.44055 0.31213,0.92895 0.23386,0.32441 0.62034,0.62005 0.38649,0.29564 0.88133,0.48606 l 0.0257,0.0356 -0.74859,0.53972 q -0.30724,-0.16316 -0.71387,-0.50929 -0.4092,-0.3497 -0.69447,-0.74539 -0.58851,-0.81636 -0.52691,-1.56509 0.058,-0.74614 0.73176,-1.23187 0.30301,-0.21846 0.62334,-0.3302 0.31421,-0.11274 0.65741,-0.13264 0.32124,-0.0203 0.67134,0.0144 0.34752,0.0312 0.80049,0.11092 0.64927,0.1116 1.29515,0.26356 0.64233,0.15452 1.19619,0.29157 l -2.05852,-2.8555 z"
         style="font-style:normal;font-size:medium;text-anchor:middle;fill:none;fill-opacity:1;stroke:#000000;stroke-width:0.06614743;stroke-linecap:butt;stroke-linejoin:bevel;stroke-dasharray:none;stroke-opacity:1"
         id="path955"
         inkscape:connector-curvature="0" />
      <path
         class="arrow"
         d="m 218.64401,69.327593 10.01392,-9.98655 -7.51392,9.990032 7.48606,10.010922 z"
         id="path4020"
         inkscape:connector-curvature="0"
         style="fill:#000000;stroke:#000000;stroke-width:0.06614741;stroke-linecap:butt;stroke-linejoin:bevel;stroke-dasharray:none;stroke-opacity:1" />
      <g
         aria-label="3"
         transform="matrix(0.93121344,0.36449198,-0.3644743,0.93125861,226.1861,73.065166)"
         style="font-style:normal;font-size:10px;text-anchor:middle;fill:#000000;fill-opacity:1;stroke:#000000;stroke-width:0.06614583;stroke-opacity:1"
         id="text4024">
        <path
           d="m 1.8847656,-3.5009766 q 0.234375,0.209961 0.3857422,0.5273438 0.1513672,0.3173828 0.1513672,0.8203125 0,0.4980469 -0.1806641,0.9130859 -0.180664,0.41503909 -0.5078125,0.72265628 -0.3662109,0.34179687 -0.86425777,0.50781249 -0.49316407,0.16113282 -1.08398438,0.16113282 -0.60546875,0 -1.19140625,-0.14648438 -0.5859375,-0.14160156 -0.9619141,-0.3125 V -1.328125 h 0.073242 q 0.4150391,0.2734375 0.9765625,0.45410156 0.56152346,0.18066407 1.0839844,0.18066407 0.30761719,0 0.65429688,-0.10253907 Q 0.76660136,-0.8984375 0.98144511,-1.0986328 1.2060545,-1.3134766 1.3134764,-1.5722656 1.425781,-1.8310547 1.425781,-2.2265625 q 0,-0.390625 -0.1269531,-0.6445313 -0.1220703,-0.258789 -0.34179685,-0.4052734 -0.21972656,-0.1513672 -0.53222656,-0.2050781 -0.3125,-0.058594 -0.67382813,-0.058594 h -0.43945312 v -0.8105468 h 0.34179687 q 0.7421875,0 1.18164063,-0.3076172 0.44433596,-0.3125 0.44433596,-0.9082031 0,-0.2636719 -0.1123047,-0.4589844 -0.1123047,-0.2001953 -0.31250001,-0.3271485 -0.20996094,-0.1269531 -0.44921875,-0.1757812 -0.23925782,-0.048828 -0.54199219,-0.048828 -0.46386719,0 -0.98632815,0.1660156 -0.5224609,0.1660156 -0.9863281,0.46875 h -0.048828 v -1.0205078 q 0.3466797,-0.1708985 0.9228515,-0.3125 0.58105473,-0.1464844 1.12304691,-0.1464844 0.53222657,0 0.9375,0.097656 0.40527339,0.097656 0.73242189,0.3125 0.3515625,0.234375 0.5322266,0.5664062 0.180664,0.3320313 0.180664,0.7763672 0,0.6054687 -0.4296875,1.0595703 -0.4248047,0.4492188 -1.00585936,0.5664063 v 0.068359 q 0.23437496,0.039063 0.53710936,0.1660156 0.3027344,0.1220704 0.5126954,0.3076179 z"
           style="text-anchor:middle;fill:none;stroke:#000000;stroke-width:0.06614583;stroke-linecap:butt;stroke-linejoin:bevel;stroke-dasharray:none;stroke-opacity:1"
           id="path958"
           inkscape:connector-curvature="0" />
      </g>
      <path
         d="m 216.83581,75.205258 -0.005,3.542168 -0.66797,-9.31e-4 0.002,-1.362374 -4.38574,-0.0061 -0.002,1.362375 -0.59765,-8.33e-4 q 3.8e-4,-0.276872 -0.0431,-0.593359 -0.0479,-0.316482 -0.13556,-0.479213 -0.10958,-0.202312 -0.27641,-0.31681 -0.17123,-0.118894 -0.45684,-0.136873 l 9.4e-4,-0.681183 5.89746,0.0082 0.002,-1.336003 z"
         style="font-style:normal;font-size:medium;text-anchor:middle;fill:none;fill-opacity:1;stroke:#000000;stroke-width:0.06614743;stroke-linecap:butt;stroke-linejoin:bevel;stroke-dasharray:none;stroke-opacity:1"
         id="path961"
         inkscape:connector-curvature="0" />
      <path
         d="m 213.69263,69.672286 q 0.18926,-0.210676 0.4751,-0.346515 0.28583,-0.135838 0.73847,-0.135208 0.44824,6.24e-4 0.82155,0.163742 0.37331,0.163128 0.64975,0.457958 0.30716,0.330034 0.45595,0.778513 0.1444,0.444063 0.14366,0.975828 -7.6e-4,0.544947 -0.13333,1.072138 -0.12818,0.527188 -0.28245,0.865369 l -0.91846,-0.0013 9e-5,-0.0659 q 0.24661,-0.373205 0.40992,-0.878373 0.1633,-0.505167 0.16395,-0.975409 3.9e-4,-0.276864 -0.0915,-0.589027 -0.0918,-0.312154 -0.27175,-0.505773 -0.19308,-0.202429 -0.42586,-0.299439 -0.23277,-0.101399 -0.58872,-0.101895 -0.35157,-4.89e-4 -0.58024,0.113458 -0.23306,0.109541 -0.36517,0.307117 -0.13651,0.197579 -0.18524,0.478776 -0.0531,0.28119 -0.0536,0.606395 l -5.5e-4,0.395529 -0.72949,-0.001 4.3e-4,-0.307634 q 9.3e-4,-0.667993 -0.27537,-1.063907 -0.2807,-0.40031 -0.81683,-0.401057 -0.2373,-3.3e-4 -0.41323,0.100499 -0.18031,0.100824 -0.29482,0.280853 -0.11452,0.18881 -0.15877,0.4041 -0.0443,0.215278 -0.0446,0.487751 -5.8e-4,0.417501 0.14818,0.88795 0.14876,0.470441 0.42064,0.88832 l -6e-5,0.0439 -0.91846,-0.0013 q -0.15337,-0.312249 -0.28009,-0.831001 -0.13111,-0.523158 -0.13043,-1.010972 6.7e-4,-0.479032 0.0891,-0.843668 0.0884,-0.364644 0.28216,-0.658819 0.21138,-0.316131 0.51044,-0.478323 0.29905,-0.162182 0.69895,-0.161625 0.54492,7.59e-4 0.95308,0.388057 0.40376,0.382912 0.5085,0.906033 l 0.0615,8.6e-5 q 0.0354,-0.210901 0.15009,-0.483215 0.11024,-0.27232 0.2775,-0.461067 z"
         style="font-style:normal;font-size:medium;text-anchor:middle;fill:none;fill-opacity:1;stroke:#000000;stroke-width:0.06614743;stroke-linecap:butt;stroke-linejoin:bevel;stroke-dasharray:none;stroke-opacity:1"
         id="path963"
         inkscape:connector-curvature="0" />
      <path
         d="m 213.19247,65.931665 -10e-4,1.05034 -1.25244,-0.0017 0.001,-1.05034 z m 3.65625,0.0051 -10e-4,1.05034 -1.25244,-0.0017 0.001,-1.05034 z"
         style="font-style:normal;font-size:medium;text-anchor:middle;fill:none;fill-opacity:1;stroke:#000000;stroke-width:0.06614743;stroke-linecap:butt;stroke-linejoin:bevel;stroke-dasharray:none;stroke-opacity:1"
         id="path965"
         inkscape:connector-curvature="0" />
      <path
         d="m 213.70632,59.84565 q 0.18926,-0.210688 0.47509,-0.346526 0.28584,-0.135839 0.73847,-0.135208 0.44824,6.24e-4 0.82155,0.163752 0.37331,0.163128 0.64976,0.457958 0.30715,0.330034 0.45594,0.778503 0.14441,0.444073 0.14366,0.975839 -7.5e-4,0.544945 -0.13332,1.072137 -0.12818,0.527187 -0.28246,0.86537 l -0.91846,-0.0013 1e-4,-0.0659 q 0.24661,-0.373205 0.40991,-0.878382 0.1633,-0.505168 0.16396,-0.975401 3.8e-4,-0.276873 -0.0915,-0.589026 -0.0919,-0.312153 -0.27176,-0.505774 -0.19308,-0.202429 -0.42585,-0.299437 -0.23277,-0.101399 -0.58873,-0.101895 -0.35156,-4.9e-4 -0.58024,0.113457 -0.23306,0.109541 -0.36517,0.307117 -0.13651,0.19758 -0.18524,0.478775 -0.0531,0.28119 -0.0536,0.606396 l -5.5e-4,0.395529 -0.72949,-10e-4 4.2e-4,-0.307635 q 9.3e-4,-0.668001 -0.27537,-1.063906 -0.28069,-0.400321 -0.81682,-0.401067 -0.23731,-3.31e-4 -0.41323,0.100509 -0.18032,0.100824 -0.29483,0.280854 -0.11452,0.18881 -0.15876,0.404098 -0.0443,0.21528 -0.0446,0.487752 -5.8e-4,0.4175 0.14818,0.887941 0.14876,0.47045 0.42063,0.888329 l -6e-5,0.0439 -0.91845,-0.0013 q -0.15338,-0.312239 -0.2801,-0.830991 -0.1311,-0.523159 -0.13042,-1.010971 6.6e-4,-0.479034 0.0891,-0.843668 0.0884,-0.364645 0.28217,-0.65882 0.21138,-0.316132 0.51043,-0.478322 0.29906,-0.162192 0.69896,-0.161635 0.54492,7.59e-4 0.95307,0.388067 0.40377,0.38291 0.50851,0.906033 l 0.0615,8.5e-5 q 0.0354,-0.210901 0.15008,-0.483215 0.11024,-0.27232 0.2775,-0.461066 z"
         style="font-style:normal;font-size:medium;text-anchor:middle;fill:none;fill-opacity:1;stroke:#000000;stroke-width:0.06614743;stroke-linecap:butt;stroke-linejoin:bevel;stroke-dasharray:none;stroke-opacity:1"
         id="path967"
         inkscape:connector-curvature="0" />
      <path
         d="m 226.59894,47.891839 -3.54199,-0.0049 9.3e-4,-0.668003 1.3623,0.0019 0.006,-4.385948 -1.3623,-0.0019 8.3e-4,-0.597679 q 0.27686,3.86e-4 0.59332,-0.04307 0.31648,-0.04786 0.4792,-0.13557 0.2023,-0.109584 0.31679,-0.276422 0.11889,-0.171234 0.13686,-0.456872 l 0.68116,9.48e-4 -0.008,5.897741 1.33594,0.0019 z"
         style="font-style:normal;font-size:medium;text-anchor:middle;fill:none;fill-opacity:1;stroke:#000000;stroke-width:0.06614743;stroke-linecap:butt;stroke-linejoin:bevel;stroke-dasharray:none;stroke-opacity:1"
         id="path970"
         inkscape:connector-curvature="0" />
      <path
         d="m 230.14163,44.240342 -1.0503,-0.0015 0.002,-1.2525 1.05029,0.0015 z m -0.005,3.656423 -1.05029,-0.0015 0.002,-1.2525 1.05029,0.0015 z"
         style="font-style:normal;font-size:medium;text-anchor:middle;fill:none;fill-opacity:1;stroke:#000000;stroke-width:0.06614743;stroke-linecap:butt;stroke-linejoin:bevel;stroke-dasharray:none;stroke-opacity:1"
         id="path972"
         inkscape:connector-curvature="0" />
      <path
         d="m 236.4251,47.905524 -3.54199,-0.0049 9.3e-4,-0.668002 1.36231,0.0019 0.006,-4.385948 -1.3623,-0.0019 8.3e-4,-0.597678 q 0.27686,3.86e-4 0.59332,-0.04307 0.31648,-0.04786 0.4792,-0.135568 0.2023,-0.109585 0.31679,-0.276424 0.11889,-0.171232 0.13687,-0.456871 l 0.68115,9.48e-4 -0.008,5.897741 1.33594,0.0019 z"
         style="font-style:normal;font-size:medium;text-anchor:middle;fill:none;fill-opacity:1;stroke:#000000;stroke-width:0.06614743;stroke-linecap:butt;stroke-linejoin:bevel;stroke-dasharray:none;stroke-opacity:1"
         id="path974"
         inkscape:connector-curvature="0" />
      <path
         d="m 242.15556,47.913505 -3.54199,-0.0049 9.4e-4,-0.668002 1.3623,0.0019 0.006,-4.385949 -1.36231,-0.0019 8.4e-4,-0.597678 q 0.27685,3.85e-4 0.59332,-0.04307 0.31647,-0.04786 0.47919,-0.13557 0.2023,-0.109583 0.31679,-0.276422 0.11889,-0.171233 0.13687,-0.456872 l 0.68115,9.49e-4 -0.008,5.89774 1.33593,0.0019 z"
         style="font-style:normal;font-size:medium;text-anchor:middle;fill:none;fill-opacity:1;stroke:#000000;stroke-width:0.06614743;stroke-linecap:butt;stroke-linejoin:bevel;stroke-dasharray:none;stroke-opacity:1"
         id="path976"
         inkscape:connector-curvature="0" />
      <path
         class="arrow"
         d="m 212.49832,138.39179 11.15299,-8.69587 -8.67194,9.00307 6.2144,10.84633 z"
         id="path4036"
         inkscape:connector-curvature="0"
         style="fill:#000000;stroke:#000000;stroke-width:0.0661474;stroke-linecap:butt;stroke-linejoin:bevel;stroke-dasharray:none;stroke-opacity:1" />
      <g
         aria-label="4"
         transform="matrix(0.93121344,0.36449198,-0.3644743,0.93125861,219.9722,143.22279)"
         style="font-style:normal;font-size:10px;text-anchor:middle;fill:#000000;fill-opacity:1;stroke:#000000;stroke-width:0.06614583;stroke-opacity:1"
         id="text4040">
        <path
           d="M 2.6904297,-2.0458984 H 1.6113281 V 0 H 0.67382812 V -2.0458984 H -2.8076172 V -3.1689453 L 0.71289062,-7.2705078 H 1.6113281 v 4.4433594 h 1.0791016 z m -2.01660158,-0.78125 v -3.28125 l -2.81738282,3.28125 z"
           style="text-anchor:middle;fill:none;stroke:#000000;stroke-width:0.06614583;stroke-linecap:butt;stroke-linejoin:bevel;stroke-dasharray:none;stroke-opacity:1"
           id="path979"
           inkscape:connector-curvature="0" />
      </g>
      <path
         d="m 209.98945,144.00623 -0.43523,3.51532 -0.6629,-0.0821 0.16739,-1.35204 -4.35251,-0.53894 -0.16739,1.35205 -0.59313,-0.0734 q 0.034,-0.27477 0.0293,-0.5942 -0.009,-0.31996 -0.0763,-0.49213 -0.0842,-0.21413 -0.23588,-0.34805 -0.1555,-0.13882 -0.43682,-0.19136 l 0.0837,-0.67602 5.85277,0.72469 0.16416,-1.32588 z"
         style="font-style:normal;font-size:medium;text-anchor:middle;fill:none;fill-opacity:1;stroke:#000000;stroke-width:0.06614743;stroke-linecap:butt;stroke-linejoin:bevel;stroke-dasharray:none;stroke-opacity:1"
         id="path982"
         inkscape:connector-curvature="0" />
      <path
         d="m 207.54175,138.13236 q 0.21345,-0.18614 0.51367,-0.28624 0.30022,-0.1001 0.74943,-0.0445 0.44484,0.0551 0.79557,0.26235 0.35072,0.20728 0.5893,0.53351 0.26479,0.36492 0.35799,0.82814 0.0894,0.45832 0.024,0.98606 -0.067,0.54082 -0.26259,1.04799 -0.19127,0.50771 -0.38549,0.82465 l -0.9115,-0.11287 0.008,-0.0654 q 0.29012,-0.34049 0.51359,-0.82207 0.22346,-0.48159 0.28124,-0.94826 0.034,-0.27477 -0.0192,-0.59577 -0.0533,-0.321 -0.2083,-0.53504 -0.16706,-0.22439 -0.38632,-0.34897 -0.21873,-0.12893 -0.57199,-0.17267 -0.34889,-0.0432 -0.58972,0.0421 -0.24464,0.0804 -0.39978,0.26049 -0.1595,0.17953 -0.24203,0.45272 -0.0869,0.27265 -0.12685,0.59539 l -0.0486,0.39254 -0.72396,-0.0896 0.0378,-0.3053 q 0.0821,-0.66294 -0.14408,-1.0895 -0.22998,-0.43145 -0.76205,-0.49733 -0.23551,-0.0292 -0.42238,0.0496 -0.19123,0.0782 -0.32676,0.24295 -0.13661,0.1735 -0.20668,0.3818 -0.0701,0.20832 -0.10356,0.47874 -0.0513,0.41433 0.0392,0.89936 0.0905,0.48504 0.3096,0.93286 l -0.005,0.0436 -0.91149,-0.11287 q -0.11431,-0.32855 -0.17706,-0.85886 -0.0666,-0.53522 -0.007,-1.01934 0.0589,-0.47539 0.1909,-0.8266 0.13204,-0.3512 0.36011,-0.61965 0.24822,-0.2881 0.56476,-0.41276 0.31655,-0.12466 0.71342,-0.0755 0.54079,0.067 0.89887,0.50099 0.35425,0.42913 0.39466,0.9611 l 0.0611,0.008 q 0.0608,-0.20502 0.20768,-0.46139 0.14251,-0.25692 0.33145,-0.42393 z"
         style="font-style:normal;font-size:medium;text-anchor:middle;fill:none;fill-opacity:1;stroke:#000000;stroke-width:0.06614743;stroke-linecap:butt;stroke-linejoin:bevel;stroke-dasharray:none;stroke-opacity:1"
         id="path984"
         inkscape:connector-curvature="0" />
      <path
         d="m 207.49974,134.35866 -0.12906,1.04239 -1.24295,-0.1539 0.12905,-1.0424 z m 3.62854,0.44929 -0.12906,1.04239 -1.24295,-0.1539 0.12906,-1.04239 z"
         style="font-style:normal;font-size:medium;text-anchor:middle;fill:none;fill-opacity:1;stroke:#000000;stroke-width:0.06614743;stroke-linecap:butt;stroke-linejoin:bevel;stroke-dasharray:none;stroke-opacity:1"
         id="path986"
         inkscape:connector-curvature="0" />
      <path
         d="m 210.1379,127.82146 -0.11934,0.96387 1.82736,0.22626 -0.10368,0.8374 -1.82735,-0.22626 -0.38501,3.1097 -1.00309,-0.1242 -3.2741,-3.5982 0.0994,-0.80251 3.96872,0.49141 0.11933,-0.96388 z m -0.92081,1.71487 -2.93075,-0.36289 2.61918,2.87944 z"
         style="font-style:normal;font-size:medium;text-anchor:middle;fill:none;fill-opacity:1;stroke:#000000;stroke-width:0.06614743;stroke-linecap:butt;stroke-linejoin:bevel;stroke-dasharray:none;stroke-opacity:1"
         id="path988"
         inkscape:connector-curvature="0" />
      <path
         d="m 286.82704,576.39861 0.95634,0.001 -2.5e-4,0.18036 -0.36782,-5e-4 -0.002,1.1842 0.36782,5e-4 -2.2e-4,0.16138 q -0.0747,-1e-4 -0.16019,0.0117 -0.0855,0.013 -0.12938,0.0366 -0.0546,0.0296 -0.0855,0.0747 -0.0321,0.0463 -0.0369,0.12334 l -0.18391,-2.5e-4 0.002,-1.59238 -0.3607,-4.9e-4 z"
         style="font-style:normal;font-size:medium;text-anchor:middle;fill:none;fill-opacity:1;stroke:#000000;stroke-width:0.06614743;stroke-linecap:butt;stroke-linejoin:bevel;stroke-dasharray:none;stroke-opacity:1"
         id="path991"
         inkscape:connector-curvature="0" />
      <path
         d="m 285.13795,576.8935 0.26222,3.5e-4 6.7e-4,-0.49716 0.22781,3e-4 -6.7e-4,0.49717 0.84599,10e-4 -3.7e-4,0.27292 -0.85683,0.99556 -0.21832,-3e-4 10e-4,-1.07978 -0.26222,-3.5e-4 z m 0.48978,0.19052 -10e-4,0.79738 0.6857,-0.79645 z"
         style="font-style:normal;font-size:medium;text-anchor:middle;fill:none;fill-opacity:1;stroke:#000000;stroke-width:0.06614743;stroke-linecap:butt;stroke-linejoin:bevel;stroke-dasharray:none;stroke-opacity:1"
         id="path993"
         inkscape:connector-curvature="0" />
      <path
         d="m 284.32333,577.38247 0.28358,3.8e-4 -4.6e-4,0.33817 -0.28358,-3.8e-4 z m 10e-4,-0.98724 0.28358,3.8e-4 -4.6e-4,0.33817 -0.28358,-3.8e-4 z"
         style="font-style:normal;font-size:medium;text-anchor:middle;fill:none;fill-opacity:1;stroke:#000000;stroke-width:0.06614743;stroke-linecap:butt;stroke-linejoin:bevel;stroke-dasharray:none;stroke-opacity:1"
         id="path995"
         inkscape:connector-curvature="0" />
      <path
         d="m 282.5259,576.3928 1.19601,0.002 -3.3e-4,0.24799 q -0.12473,0.10663 -0.24946,0.21326 -0.12592,0.10662 -0.23403,0.21207 -0.22811,0.2204 -0.31253,0.34963 -0.0844,0.1304 -0.0846,0.28109 -1.9e-4,0.13765 0.0911,0.2149 0.0901,0.0784 0.25262,0.0786 0.10797,1.4e-4 0.2338,-0.0377 0.12582,-0.0378 0.24576,-0.11594 l 0.0119,10e-6 -3.3e-4,0.24918 q -0.0843,0.0414 -0.22436,0.0756 -0.14124,0.0342 -0.27295,0.034 -0.27171,-3.7e-4 -0.42578,-0.13229 -0.15407,-0.13073 -0.15377,-0.35499 1.4e-4,-0.10086 0.0264,-0.18864 0.025,-0.0866 0.075,-0.16483 0.0464,-0.0735 0.10936,-0.14461 0.0618,-0.0711 0.1509,-0.15762 0.12713,-0.12441 0.26255,-0.2417 0.13542,-0.11611 0.25302,-0.21562 l -0.9504,-10e-4 z"
         style="font-style:normal;font-size:medium;text-anchor:middle;fill:none;fill-opacity:1;stroke:#000000;stroke-width:0.06614743;stroke-linecap:butt;stroke-linejoin:bevel;stroke-dasharray:none;stroke-opacity:1"
         id="path997"
         inkscape:connector-curvature="0" />
      <path
         d="m 295.53799,406.64963 -5.55935,-2.96979 0.001,-0.94047 5.77003,3.15905 0.005,-3.72674 0.76905,0.001 -0.006,4.47824 z"
         style="font-style:normal;font-size:medium;text-anchor:middle;fill:none;fill-opacity:1;stroke:#000000;stroke-width:0.06614743;stroke-linecap:butt;stroke-linejoin:bevel;stroke-dasharray:none;stroke-opacity:1"
         id="path1000"
         inkscape:connector-curvature="0" />
      <path
         d="m 293.62639,409.7936 10e-4,-1.05034 1.25244,0.002 -0.001,1.05033 z m -3.65625,-0.005 10e-4,-1.05034 1.25244,0.002 -0.001,1.05034 z"
         style="font-style:normal;font-size:medium;text-anchor:middle;fill:none;fill-opacity:1;stroke:#000000;stroke-width:0.06614743;stroke-linecap:butt;stroke-linejoin:bevel;stroke-dasharray:none;stroke-opacity:1"
         id="path1002"
         inkscape:connector-curvature="0" />
      <path
         d="m 289.9614,416.07739 0.005,-3.54215 0.66797,9.3e-4 -0.002,1.36236 4.38574,0.006 0.002,-1.36237 0.59766,8.3e-4 q -3.9e-4,0.27687 0.0431,0.59336 0.0479,0.31648 0.13557,0.4792 0.10958,0.20232 0.27641,0.31682 0.17122,0.1189 0.45684,0.13687 l -9.5e-4,0.68118 -5.89745,-0.008 -0.002,1.336 z"
         style="font-style:normal;font-size:medium;text-anchor:middle;fill:none;fill-opacity:1;stroke:#000000;stroke-width:0.06614743;stroke-linecap:butt;stroke-linejoin:bevel;stroke-dasharray:none;stroke-opacity:1"
         id="path1004"
         inkscape:connector-curvature="0" />
      <path
         d="m 293.22685,422.17745 q -1.76221,-0.002 -2.58761,-0.55734 -0.82101,-0.55047 -0.8194,-1.71069 0.002,-1.17779 0.83736,-1.72158 0.83571,-0.53939 2.56715,-0.53698 1.74463,0.002 2.57443,0.55292 0.8342,0.5505 0.83258,1.71511 -0.002,1.17779 -0.85054,1.71716 -0.8445,0.54378 -2.55397,0.5414 z m -1.99351,-1.15859 q 0.35574,0.15431 0.83467,0.20772 0.48332,0.0578 1.16008,0.0587 0.66797,9.3e-4 1.16023,-0.0555 0.49226,-0.052 0.83526,-0.20978 0.33859,-0.15334 0.51035,-0.4212 0.17175,-0.26344 0.17233,-0.68094 5.7e-4,-0.41311 -0.17043,-0.68581 -0.17102,-0.26832 -0.51796,-0.42701 -0.32499,-0.14988 -0.84786,-0.20773 -0.52288,-0.0534 -1.1469,-0.0543 -0.68554,-9.5e-4 -1.14704,0.0467 -0.46149,0.0477 -0.82646,0.2054 -0.34297,0.14454 -0.52351,0.40798 -0.18055,0.26783 -0.18116,0.7073 -5.8e-4,0.41311 0.17043,0.68582 0.17101,0.27271 0.51797,0.42261 z"
         style="font-style:normal;font-size:medium;text-anchor:middle;fill:none;fill-opacity:1;stroke:#000000;stroke-width:0.06614743;stroke-linecap:butt;stroke-linejoin:bevel;stroke-dasharray:none;stroke-opacity:1"
         id="path1006"
         inkscape:connector-curvature="0" />
    </g>
    <g
       id="g1408">
      <path
         d="m 87.316378,408.65036 2.370618,-0.90944 3.406736,8.88114 -2.370617,0.90943 -0.250083,-0.65195 1.577371,-0.60512 -2.906571,-7.57723 -1.577371,0.60512 z"
         style="font-style:normal;font-size:medium;text-anchor:middle;fill:none;fill-opacity:1;stroke:#000000;stroke-width:0.06614743;stroke-linecap:butt;stroke-linejoin:bevel;stroke-dasharray:none;stroke-opacity:1"
         id="path1009"
         inkscape:connector-curvature="0" />
      <path
         d="m 82.271409,412.63592 3.674454,-1.40963 0.265825,0.69299 -1.413253,0.54216 1.745342,4.54999 1.413252,-0.54217 0.237841,0.62004 q -0.287203,0.11018 -0.597971,0.28168 -0.309004,0.17605 -0.442701,0.33195 -0.165985,0.19443 -0.218069,0.41315 -0.05488,0.22502 0.04056,0.52836 l -0.706631,0.27108 -2.346939,-6.11832 -1.385896,0.53168 z"
         style="font-style:normal;font-size:medium;text-anchor:middle;fill:none;fill-opacity:1;stroke:#000000;stroke-width:0.06614743;stroke-linecap:butt;stroke-linejoin:bevel;stroke-dasharray:none;stroke-opacity:1"
         id="path1011"
         inkscape:connector-curvature="0" />
      <path
         d="m 77.251124,418.45821 q -0.701285,-1.8282 -0.455652,-2.90567 0.242829,-1.07116 1.446372,-1.53289 1.221787,-0.46871 2.119367,0.18065 0.893015,0.65111 1.582058,2.4474 0.69429,1.80997 0.45496,2.89025 -0.237581,1.08484 -1.44569,1.54832 -1.221777,0.4687 -2.120048,-0.19608 -0.901071,-0.65848 -1.581367,-2.43198 z m 0.405004,-2.52979 q -0.0179,0.43049 0.118015,0.94842 0.133082,0.52425 0.402405,1.22635 0.265825,0.69299 0.52098,1.18086 0.250584,0.48963 0.551109,0.78228 0.294224,0.28984 0.640519,0.36095 0.341739,0.0729 0.774826,-0.0933 0.428541,-0.1644 0.642983,-0.45063 0.209885,-0.2845 0.235856,-0.70763 0.02558,-0.39684 -0.123259,-0.9621 -0.153401,-0.56353 -0.401737,-1.21092 -0.272819,-0.71123 -0.506582,-1.17069 -0.233767,-0.45947 -0.543048,-0.77492 -0.28685,-0.29789 -0.632088,-0.37988 -0.3498,-0.0802 -0.805688,0.0947 -0.428531,0.1644 -0.642982,0.45063 -0.214442,0.28625 -0.231291,0.70588 z"
         style="font-style:normal;font-size:medium;text-anchor:middle;fill:none;fill-opacity:1;stroke:#000000;stroke-width:0.06614743;stroke-linecap:butt;stroke-linejoin:bevel;stroke-dasharray:none;stroke-opacity:1"
         id="path1013"
         inkscape:connector-curvature="0" />
      <path
         d="m 71.487937,414.72262 2.370618,-0.90945 0.250083,0.65196 -1.577371,0.60512 2.90657,7.57724 1.577371,-0.60513 0.250083,0.65195 -2.370617,0.90945 z"
         style="font-style:normal;font-size:medium;text-anchor:middle;fill:none;fill-opacity:1;stroke:#000000;stroke-width:0.06614743;stroke-linecap:butt;stroke-linejoin:bevel;stroke-dasharray:none;stroke-opacity:1"
         id="path1015"
         inkscape:connector-curvature="0" />
      <path
         d="m 64.487196,419.45847 2.680629,-1.02837 0.265825,0.69299 -0.888984,0.34104 2.072371,5.40254 0.888983,-0.34105 0.265825,0.69299 -2.680629,1.02837 -0.265824,-0.69299 0.888983,-0.34103 -2.072371,-5.40255 -0.888984,0.34105 z"
         style="font-style:normal;font-size:medium;text-anchor:middle;fill:none;fill-opacity:1;stroke:#000000;stroke-width:0.06614743;stroke-linecap:butt;stroke-linejoin:bevel;stroke-dasharray:none;stroke-opacity:1"
         id="path1017"
         inkscape:connector-curvature="0" />
      <path
         d="m 55.629288,422.85662 3.674464,-1.40963 0.265824,0.69299 -1.413262,0.54216 1.745341,4.54999 1.413262,-0.54216 0.237841,0.62004 q -0.287212,0.11017 -0.597971,0.28166 -0.309014,0.17607 -0.44271,0.33197 -0.165985,0.19443 -0.21806,0.41314 -0.05489,0.22503 0.04055,0.52836 l -0.70663,0.27109 -2.346939,-6.11832 -1.385896,0.53168 z"
         style="font-style:normal;font-size:medium;text-anchor:middle;fill:none;fill-opacity:1;stroke:#000000;stroke-width:0.06614743;stroke-linecap:butt;stroke-linejoin:bevel;stroke-dasharray:none;stroke-opacity:1"
         id="path1019"
         inkscape:connector-curvature="0" />
      <path
         d="m 50.609003,428.67891 q -0.701285,-1.82819 -0.455652,-2.90567 0.242829,-1.07116 1.446381,-1.53288 1.221778,-0.46871 2.119358,0.18065 0.893024,0.65111 1.582067,2.4474 0.69429,1.80996 0.454951,2.89025 -0.237581,1.08484 -1.445681,1.5483 -1.221786,0.46871 -2.120048,-0.19607 -0.90108,-0.65848 -1.581376,-2.43198 z m 0.405013,-2.5298 q -0.01791,0.4305 0.118016,0.94844 0.133081,0.52423 0.402405,1.22635 0.265824,0.69298 0.520979,1.18085 0.250584,0.48964 0.5511,0.78228 0.294224,0.28985 0.640519,0.36096 0.341739,0.0729 0.774836,-0.0933 0.428531,-0.1644 0.642982,-0.45065 0.209886,-0.28448 0.235847,-0.70761 0.02558,-0.39684 -0.123259,-0.96211 -0.153401,-0.56352 -0.401737,-1.21092 -0.272819,-0.71122 -0.506582,-1.17068 -0.233768,-0.45947 -0.543048,-0.77492 -0.28685,-0.29789 -0.632088,-0.37989 -0.349791,-0.0802 -0.805678,0.0947 -0.428541,0.1644 -0.642983,0.45064 -0.214451,0.28624 -0.23129,0.70587 z"
         style="font-style:normal;font-size:medium;text-anchor:middle;fill:none;fill-opacity:1;stroke:#000000;stroke-width:0.06614743;stroke-linecap:butt;stroke-linejoin:bevel;stroke-dasharray:none;stroke-opacity:1"
         id="path1021"
         inkscape:connector-curvature="0" />
      <path
         style="fill:#e5e5e5;fill-opacity:1;stroke:#000000;stroke-width:0.06614743;stroke-linecap:butt;stroke-linejoin:bevel;stroke-dasharray:none;stroke-opacity:1"
         inkscape:connector-curvature="0"
         id="path3337"
         d="m 128.7933,172.20772 9.94473,-1.06183 11.50729,93.80055 -9.90645,1.37371 z m 0.68105,146.00843 9.99097,0.45295 -1.35495,45.77091 -10.00027,-0.1389 z m 0.0969,93.32645 9.895,-1.45388 8.41174,51.60572 -9.84446,1.76397 z m -97.284465,-139.85644 -9.924803,-1.2341 11.85518,-109.35238 9.958679,0.92173 z m 91.800305,285.52825 2.53135,9.67605 -55.059298,15.33338 -2.834018,-9.59176 z m 13.94644,-93.756 9.86804,1.62687 -13.66102,91.83728 -10.15346,0.29185 z m -93.857689,-301.437 1.351062,-9.91004 81.693707,9.83434 1.57269,10.26201 z m 24.549283,410.61067 -9.675576,2.53148 -30.806584,-110.63123 9.591291,-2.83416 z m -36.943457,-158.30326 -9.939035,1.11378 -6.021796,-47.04953 9.899128,-1.42547 z m -2.548654,-93.87577 -9.970619,-0.78182 3.034133,-48.45331 9.990258,0.46824 z m 98.877087,43.84806 10.00008,-0.15214 1.45141,46.92741 -9.99034,0.46622 z m -90.275845,97.39706 -9.939253,1.11173 -6.012771,-47.05769 9.899436,-1.42339 z m 102.504615,-195.37802 9.75559,2.20307 -10.80013,51.58845 -9.81998,-1.89552 z M 25.719964,366.9676 l -9.959755,-0.90985 3.489378,-46.20125 9.983426,0.59655 z"
         class="sticker" />
      <path
         d="m 137.8769,216.34717 -0.11827,-0.96401 -1.8276,0.22423 -0.10275,-0.83751 1.82761,-0.22423 -0.38154,-3.11013 1.00321,-0.12309 4.04977,2.6955 0.0985,0.80262 -3.96926,0.48699 0.11826,0.964 z m 0.47689,-1.88714 2.93114,-0.35963 -3.23991,-2.15727 z"
         style="font-style:normal;font-size:medium;text-anchor:middle;fill:none;fill-opacity:1;stroke:#000000;stroke-width:0.06614743;stroke-linecap:butt;stroke-linejoin:bevel;stroke-dasharray:none;stroke-opacity:1"
         id="path1024"
         inkscape:connector-curvature="0" />
      <path
         d="m 140.04543,219.11851 -0.1279,-1.04252 1.24312,-0.15252 0.1279,1.04252 z m -3.62904,0.44525 -0.1279,-1.04253 1.24312,-0.15251 0.1279,1.04253 z"
         style="font-style:normal;font-size:medium;text-anchor:middle;fill:none;fill-opacity:1;stroke:#000000;stroke-width:0.06614743;stroke-linecap:butt;stroke-linejoin:bevel;stroke-dasharray:none;stroke-opacity:1"
         id="path1026"
         inkscape:connector-curvature="0" />
      <path
         d="m 137.18215,225.80585 -0.43131,-3.51581 0.663,-0.0813 0.16589,1.35224 4.3531,-0.53409 -0.16589,-1.35223 0.59321,-0.0728 q 0.0337,0.27482 0.11582,0.58354 0.0865,0.30819 0.19354,0.45887 0.13367,0.18728 0.31333,0.28036 0.18457,0.0969 0.47022,0.0796 l 0.083,0.67611 -5.85358,0.71818 0.16268,1.32605 z"
         style="font-style:normal;font-size:medium;text-anchor:middle;fill:none;fill-opacity:1;stroke:#000000;stroke-width:0.06614743;stroke-linecap:butt;stroke-linejoin:bevel;stroke-dasharray:none;stroke-opacity:1"
         id="path1028"
         inkscape:connector-curvature="0" />
      <path
         d="m 33.8811,220.586 q 0.991739,0.10753 1.549822,0.83111 0.554172,0.71874 0.451386,1.66683 -0.0521,0.48061 -0.243274,0.85774 -0.19117,0.37711 -0.516578,0.64684 -0.40335,0.33643 -1.024155,0.47688 -0.620331,0.13609 -1.46354,0.0447 -0.865051,-0.0938 -1.5136,-0.34976 -0.648075,-0.26035 -1.123926,-0.72306 -0.452005,-0.438 -0.661412,-1.07515 -0.213772,-0.63763 -0.126142,-1.44592 0.02795,-0.25778 0.06877,-0.43018 0.04082,-0.17239 0.117007,-0.34538 l 0.83447,0.0905 -0.0047,0.0436 q -0.07878,0.11522 -0.162595,0.3581 -0.08767,0.23806 -0.115613,0.49583 -0.10184,0.93936 0.427334,1.56256 0.524809,0.62273 1.51535,0.82295 -0.183026,-0.39116 -0.258254,-0.75737 -0.07913,-0.37107 -0.02845,-0.83856 0.045,-0.41507 0.157743,-0.72113 0.108843,-0.31089 0.376394,-0.61784 0.308191,-0.35558 0.735342,-0.50377 0.427624,-0.15256 1.008699,-0.0896 z m -0.06126,0.89072 q -0.406309,-0.044 -0.686079,0.0494 -0.279287,0.0891 -0.505737,0.34302 -0.16159,0.18581 -0.231809,0.42575 -0.07017,0.23994 -0.09906,0.50645 -0.04026,0.37139 0.01255,0.6998 0.05281,0.32843 0.199822,0.68475 0.09517,0.0194 0.186437,0.0335 0.08696,0.0135 0.222393,0.0281 0.690285,0.0748 1.107387,-0.0214 0.413201,-0.10107 0.671754,-0.32502 0.214022,-0.18013 0.330879,-0.40175 0.112966,-0.22646 0.142808,-0.50171 0.06868,-0.63352 -0.276471,-1.03785 -0.349527,-0.40479 -1.074767,-0.48342 z"
         style="font-style:normal;font-size:medium;text-anchor:middle;fill:none;fill-opacity:1;stroke:#000000;stroke-width:0.06614743;stroke-linecap:butt;stroke-linejoin:bevel;stroke-dasharray:none;stroke-opacity:1"
         id="path1031"
         inkscape:connector-curvature="0" />
      <path
         d="m 36.277856,218.17146 -0.113208,1.04423 -1.245143,-0.13501 0.113208,-1.04423 z"
         style="font-style:normal;font-size:medium;text-anchor:middle;fill:none;fill-opacity:1;stroke:#000000;stroke-width:0.06614743;stroke-linecap:butt;stroke-linejoin:bevel;stroke-dasharray:none;stroke-opacity:1"
         id="path1033"
         inkscape:connector-curvature="0" />
      <path
         d="m 33.039369,214.12037 -0.113207,1.04422 -1.245144,-0.135 0.113207,-1.04422 z m 3.634949,0.39412 -0.113207,1.04422 -1.245144,-0.13501 0.113207,-1.04422 z"
         style="font-style:normal;font-size:medium;text-anchor:middle;fill:none;fill-opacity:1;stroke:#000000;stroke-width:0.06614743;stroke-linecap:butt;stroke-linejoin:bevel;stroke-dasharray:none;stroke-opacity:1"
         id="path1035"
         inkscape:connector-curvature="0" />
      <path
         d="m 37.352139,208.26225 -0.381778,3.52153 -0.664068,-0.072 0.146838,-1.35443 -4.360199,-0.47276 -0.146838,1.35445 -0.594168,-0.0644 q 0.02984,-0.27527 0.0203,-0.59457 -0.01391,-0.31979 -0.08381,-0.49093 -0.08743,-0.21281 -0.241133,-0.34441 -0.157603,-0.13644 -0.439694,-0.18471 l 0.07342,-0.67722 5.863112,0.6357 0.143994,-1.32822 z"
         style="font-style:normal;font-size:medium;text-anchor:middle;fill:none;fill-opacity:1;stroke:#000000;stroke-width:0.06614743;stroke-linecap:butt;stroke-linejoin:bevel;stroke-dasharray:none;stroke-opacity:1"
         id="path1037"
         inkscape:connector-curvature="0" />
      <path
         d="m 102.55349,565.07957 3.41216,-0.95025 0.17919,0.64352 -1.31236,0.36548 1.17655,4.2252 1.31237,-0.36548 0.16033,0.57577 q -0.2667,0.0743 -0.55974,0.20145 -0.29184,0.13141 -0.4249,0.25975 -0.16526,0.16007 -0.23054,0.3516 -0.0683,0.19695 -0.009,0.47685 l -0.65618,0.18274 -1.5821,-5.68157 -1.28697,0.35841 z"
         style="font-style:normal;font-size:medium;text-anchor:middle;fill:none;fill-opacity:1;stroke:#000000;stroke-width:0.06614743;stroke-linecap:butt;stroke-linejoin:bevel;stroke-dasharray:none;stroke-opacity:1"
         id="path1040"
         inkscape:connector-curvature="0" />
      <path
         d="m 97.033076,566.61694 3.412164,-0.95024 0.1792,0.64351 -1.312377,0.36549 1.176557,4.22518 1.31237,-0.36548 0.16033,0.57577 q -0.26671,0.0743 -0.55975,0.20146 -0.29184,0.13142 -0.42489,0.25975 -0.16527,0.16007 -0.23054,0.3516 -0.0683,0.19695 -0.009,0.47684 l -0.65619,0.18274 -1.582093,-5.68155 -1.28697,0.3584 z"
         style="font-style:normal;font-size:medium;text-anchor:middle;fill:none;fill-opacity:1;stroke:#000000;stroke-width:0.06614743;stroke-linecap:butt;stroke-linejoin:bevel;stroke-dasharray:none;stroke-opacity:1"
         id="path1042"
         inkscape:connector-curvature="0" />
      <path
         d="m 94.60601,571.08841 1.011792,-0.28177 0.335991,1.2066 -1.011791,0.28177 z m -0.980852,-3.5224 1.011791,-0.28177 0.335991,1.20659 -1.011791,0.28178 z"
         style="font-style:normal;font-size:medium;text-anchor:middle;fill:none;fill-opacity:1;stroke:#000000;stroke-width:0.06614743;stroke-linecap:butt;stroke-linejoin:bevel;stroke-dasharray:none;stroke-opacity:1"
         id="path1044"
         inkscape:connector-curvature="0" />
      <path
         d="m 87.207251,569.35333 4.267308,-1.1884 0.246393,0.88483 q -0.338404,0.50483 -0.676818,1.00965 -0.342645,0.50599 -0.622962,0.99008 -0.593546,1.01382 -0.765619,1.55898 -0.170892,0.54941 -0.02117,1.0871 0.136752,0.49109 0.53935,0.67551 0.399555,0.18982 0.979537,0.0283 0.385241,-0.10728 0.79626,-0.36774 0.411021,-0.26044 0.760794,-0.65894 l 0.04229,-0.0118 0.247571,0.88906 q -0.259321,0.2319 -0.724675,0.49379 -0.469593,0.26307 -0.939503,0.39394 -0.969461,0.26998 -1.650669,-0.0467 -0.680029,-0.31244 -0.902844,-1.1126 -0.100206,-0.35986 -0.09429,-0.69909 0.0029,-0.33382 0.102843,-0.66276 0.09201,-0.30846 0.245644,-0.62497 0.14941,-0.31532 0.380858,-0.7128 0.329188,-0.57069 0.695092,-1.12421 0.367084,-0.5493 0.687169,-1.02165 l -3.390992,0.94435 z"
         style="font-style:normal;font-size:medium;text-anchor:middle;fill:none;fill-opacity:1;stroke:#000000;stroke-width:0.06614743;stroke-linecap:butt;stroke-linejoin:bevel;stroke-dasharray:none;stroke-opacity:1"
         id="path1046"
         inkscape:connector-curvature="0" />
      <path
         class="arrow"
         d="m 131.06032,510.33639 -11.36256,8.42016 8.88977,-8.78802 -5.94696,-10.99525 z"
         id="path3353"
         inkscape:connector-curvature="0"
         style="fill:#000000;stroke:#000000;stroke-width:0.0661474;stroke-linecap:butt;stroke-linejoin:bevel;stroke-dasharray:none;stroke-opacity:1" />
      <g
         aria-label="1"
         transform="matrix(-0.93365946,0.35817935,-0.35816198,-0.93370474,120.72563,505.27725)"
         style="font-style:normal;font-size:10px;text-anchor:middle;fill:#000000;fill-opacity:1;stroke:#000000;stroke-width:0.06614583;stroke-opacity:1"
         id="text3357">
        <path
           d="M 2.109375,0 H -1.8261719 V -0.7421875 H -0.3125 v -4.8730469 h -1.5136719 v -0.6640625 q 0.3076172,0 0.6591797,-0.048828 0.35156251,-0.053711 0.53222658,-0.1513672 0.22460937,-0.1220703 0.35156249,-0.3076172 0.13183594,-0.1904297 0.15136719,-0.5078125 H 0.625 v 6.5527344 h 1.484375 z"
           style="text-anchor:middle;fill:none;stroke:#000000;stroke-width:0.06614583;stroke-linecap:butt;stroke-linejoin:bevel;stroke-dasharray:none;stroke-opacity:1"
           id="path1049"
           inkscape:connector-curvature="0" />
      </g>
      <path
         d="m 135.0286,508.40753 0.1429,-0.96067 -1.82127,-0.27094 0.12415,-0.83461 1.82127,0.27095 0.46104,-3.09935 0.99973,0.14873 3.18503,3.6773 -0.11898,0.79984 -3.9555,-0.58845 -0.1429,0.96067 z m 0.96252,-1.69181 2.92098,0.43455 -2.54789,-2.94272 z"
         style="font-style:normal;font-size:medium;text-anchor:middle;fill:none;fill-opacity:1;stroke:#000000;stroke-width:0.06614743;stroke-linecap:butt;stroke-linejoin:bevel;stroke-dasharray:none;stroke-opacity:1"
         id="path1052"
         inkscape:connector-curvature="0" />
      <path
         d="m 136.38021,511.65658 0.15454,-1.03891 1.2388,0.1843 -0.15454,1.03891 z m -3.61646,-0.53801 0.15454,-1.03891 1.23881,0.18429 -0.15454,1.03891 z"
         style="font-style:normal;font-size:medium;text-anchor:middle;fill:none;fill-opacity:1;stroke:#000000;stroke-width:0.06614743;stroke-linecap:butt;stroke-linejoin:bevel;stroke-dasharray:none;stroke-opacity:1"
         id="path1054"
         inkscape:connector-curvature="0" />
      <path
         d="m 131.83845,517.33899 0.52117,-3.50361 0.6607,0.0983 -0.20045,1.34753 4.338,0.64536 0.20045,-1.34754 0.59116,0.0879 q -0.0407,0.27387 -0.0439,0.59329 0.001,0.32009 0.0643,0.49387 0.0789,0.21612 0.22729,0.35371 0.15207,0.14258 0.43201,0.202 l -0.10022,0.67378 -5.83327,-0.86781 -0.19657,1.32147 z"
         style="font-style:normal;font-size:medium;text-anchor:middle;fill:none;fill-opacity:1;stroke:#000000;stroke-width:0.06614743;stroke-linecap:butt;stroke-linejoin:bevel;stroke-dasharray:none;stroke-opacity:1"
         id="path1056"
         inkscape:connector-curvature="0" />
      <path
         d="m 80.861942,164.62455 -3.516604,-0.42333 0.07983,-0.66321 1.352536,0.16281 0.524147,-4.35452 -1.352536,-0.16281 0.07143,-0.5934 q 0.274866,0.0331 0.594254,0.0273 0.319915,-0.0101 0.491848,-0.078 0.213831,-0.0849 0.34723,-0.23707 0.138282,-0.15598 0.189874,-0.43749 l 0.676268,0.0814 -0.704816,5.85547 1.326365,0.15967 z"
         style="font-style:normal;font-size:medium;text-anchor:middle;fill:none;fill-opacity:1;stroke:#000000;stroke-width:0.06614743;stroke-linecap:butt;stroke-linejoin:bevel;stroke-dasharray:none;stroke-opacity:1"
         id="path1059"
         inkscape:connector-curvature="0" />
      <path
         d="m 86.922194,165.35409 -4.397932,-0.52943 0.109767,-0.91192 q 0.505381,-0.33755 1.010772,-0.67509 0.509748,-0.33701 0.953525,-0.67755 0.935389,-0.71072 1.302409,-1.14902 0.367546,-0.44267 0.434246,-0.9968 0.06092,-0.50614 -0.240884,-0.83019 -0.296933,-0.3279 -0.894668,-0.39985 -0.397034,-0.0478 -0.876322,0.0362 -0.479287,0.0839 -0.954619,0.31887 l -0.04358,-0.005 0.110291,-0.91628 q 0.328166,-0.11542 0.85823,-0.17998 0.534432,-0.064 1.018726,-0.006 0.999137,0.12028 1.508036,0.67287 0.509424,0.54824 0.410161,1.3729 -0.04464,0.37087 -0.179513,0.6822 -0.129978,0.30749 -0.347879,0.5734 -0.202713,0.25004 -0.465466,0.48399 -0.258393,0.23448 -0.623961,0.51361 -0.521986,0.40195 -1.07137,0.77404 -0.548858,0.36771 -1.024917,0.68223 l 3.494792,0.4207 z"
         style="font-style:normal;font-size:medium;text-anchor:middle;fill:none;fill-opacity:1;stroke:#000000;stroke-width:0.06614743;stroke-linecap:butt;stroke-linejoin:bevel;stroke-dasharray:none;stroke-opacity:1"
         id="path1061"
         inkscape:connector-curvature="0" />
      <path
         d="m 90.500551,162.10203 -1.042773,-0.12553 0.149681,-1.24353 1.042773,0.12554 z m -0.436965,3.63021 -1.042772,-0.12552 0.149681,-1.24352 1.042772,0.12552 z"
         style="font-style:normal;font-size:medium;text-anchor:middle;fill:none;fill-opacity:1;stroke:#000000;stroke-width:0.06614743;stroke-linecap:butt;stroke-linejoin:bevel;stroke-dasharray:none;stroke-opacity:1"
         id="path1063"
         inkscape:connector-curvature="0" />
      <path
         d="m 96.307085,166.48384 -3.516604,-0.42333 0.07983,-0.66321 1.352536,0.16282 0.524147,-4.35453 -1.352536,-0.16281 0.07143,-0.5934 q 0.274866,0.0331 0.594255,0.0273 0.319915,-0.0101 0.491848,-0.078 0.213831,-0.0849 0.347229,-0.23706 0.138283,-0.15598 0.189874,-0.43749 l 0.676268,0.0814 -0.704815,5.85547 1.326365,0.15967 z"
         style="font-style:normal;font-size:medium;text-anchor:middle;fill:none;fill-opacity:1;stroke:#000000;stroke-width:0.06614743;stroke-linecap:butt;stroke-linejoin:bevel;stroke-dasharray:none;stroke-opacity:1"
         id="path1065"
         inkscape:connector-curvature="0" />
      <path
         class="arrow"
         d="m 53.27969,517.16511 6.950767,-12.31672 -4.542406,11.64601 9.907761,7.62181 z"
         id="path3369"
         inkscape:connector-curvature="0"
         style="fill:#000000;stroke:#000000;stroke-width:0.0661474;stroke-linecap:butt;stroke-linejoin:bevel;stroke-dasharray:none;stroke-opacity:1" />
      <g
         aria-label="2"
         transform="matrix(-0.93365946,0.35817935,-0.35816198,-0.93370474,60.51714,511.01576)"
         style="font-style:normal;font-size:10px;text-anchor:middle;fill:#000000;fill-opacity:1;stroke:#000000;stroke-width:0.06614583;stroke-opacity:1"
         id="text3373">
        <path
           d="m 2.5244141,0 h -4.921875 v -1.0205078 q 0.5126953,-0.4394531 1.0253906,-0.8789063 0.51757811,-0.4394531 0.96191405,-0.8740234 0.9375,-0.9082031 1.28417969,-1.4404297 0.34667966,-0.5371094 0.34667966,-1.1572265 0,-0.5664063 -0.37597654,-0.8837891 -0.37109375,-0.3222656 -1.04003906,-0.3222656 -0.44433594,0 -0.9619141,0.15625 -0.5175781,0.15625 -1.0107422,0.4785156 h -0.048828 v -1.0253906 q 0.3466797,-0.1708985 0.9228516,-0.3125 0.58105468,-0.1416016 1.12304686,-0.1416016 1.11816407,0 1.75292964,0.5419922 0.6347657,0.5371094 0.6347657,1.4599609 0,0.4150391 -0.1074219,0.7763672 -0.1025391,0.3564453 -0.3076172,0.6787109 -0.1904297,0.3027344 -0.4492187,0.5957032 -0.2539063,0.2929687 -0.62011723,0.649414 -0.52246093,0.5126953 -1.07910156,0.9960938 -0.55664062,0.4785156 -1.04003901,0.88867186 h 3.9111328 z"
           style="text-anchor:middle;fill:none;stroke:#000000;stroke-width:0.06614583;stroke-linecap:butt;stroke-linejoin:bevel;stroke-dasharray:none;stroke-opacity:1"
           id="path1068"
           inkscape:connector-curvature="0" />
      </g>
      <path
         d="m 50.622093,522.24367 q 0.960984,-0.26762 1.747444,0.19765 0.781032,0.46221 1.036857,1.38093 0.129677,0.46569 0.09185,0.8868 -0.03783,0.42112 -0.240134,0.79223 -0.249984,0.46195 -0.774555,0.82246 -0.525754,0.35626 -1.342815,0.5838 -0.838225,0.23343 -1.535454,0.236 -0.698406,-0.002 -1.311825,-0.25509 -0.582122,-0.23934 -1.012702,-0.75354 -0.434809,-0.51302 -0.652908,-1.29625 -0.06956,-0.24979 -0.09552,-0.42504 -0.02596,-0.17525 -0.01929,-0.36414 l 0.808593,-0.22518 0.01178,0.0423 q -0.03047,0.13623 -0.01833,0.39288 0.0068,0.25357 0.07633,0.50336 0.253464,0.91024 0.975878,1.29299 0.718185,0.38392 1.712405,0.20285 -0.314942,-0.2955 -0.520497,-0.60778 -0.21098,-0.31532 -0.337125,-0.76833 -0.111996,-0.4022 -0.120676,-0.72824 -0.0141,-0.3291 0.120676,-0.71334 0.154499,-0.44448 0.496337,-0.74041 0.340659,-0.30015 0.903715,-0.45695 z m 0.273228,0.84998 q -0.393709,0.10965 -0.618945,0.3001 -0.226402,0.18624 -0.342643,0.506 -0.08123,0.23248 -0.05756,0.48136 0.02373,0.24886 0.09564,0.50711 0.100209,0.35986 0.270947,0.64533 0.170738,0.28548 0.439309,0.56196 0.09557,-0.0173 0.185575,-0.038 0.08575,-0.0197 0.216987,-0.0563 0.668879,-0.18627 1.020633,-0.43022 0.346337,-0.247 0.503514,-0.55079 0.132042,-0.24663 0.158467,-0.49577 0.02102,-0.2522 -0.05325,-0.51891 -0.170943,-0.61389 -0.641338,-0.86153 -0.474631,-0.24647 -1.177381,-0.0507 z"
         style="font-style:normal;font-size:medium;text-anchor:middle;fill:none;fill-opacity:1;stroke:#000000;stroke-width:0.06614743;stroke-linecap:butt;stroke-linejoin:bevel;stroke-dasharray:none;stroke-opacity:1"
         id="path1071"
         inkscape:connector-curvature="0" />
      <path
         d="m 51.9536,519.11287 0.281758,1.01184 -1.206531,0.33601 -0.281758,-1.01184 z"
         style="font-style:normal;font-size:medium;text-anchor:middle;fill:none;fill-opacity:1;stroke:#000000;stroke-width:0.06614743;stroke-linecap:butt;stroke-linejoin:bevel;stroke-dasharray:none;stroke-opacity:1"
         id="path1073"
         inkscape:connector-curvature="0" />
      <path
         d="m 47.444623,516.5502 0.281761,1.01184 -1.206531,0.33601 -0.281762,-1.01185 z m 3.522228,-0.9809 0.281761,1.01185 -1.206531,0.336 -0.281761,-1.01185 z"
         style="font-style:normal;font-size:medium;text-anchor:middle;fill:none;fill-opacity:1;stroke:#000000;stroke-width:0.06614743;stroke-linecap:butt;stroke-linejoin:bevel;stroke-dasharray:none;stroke-opacity:1"
         id="path1075"
         inkscape:connector-curvature="0" />
      <path
         d="m 49.179624,509.15108 1.188342,4.26752 -0.884784,0.24641 q -0.504797,-0.33843 -1.009596,-0.67686 -0.505976,-0.34265 -0.99003,-0.62299 -1.013769,-0.59358 -1.558923,-0.76565 -0.549376,-0.17091 -1.087028,-0.0212 -0.491084,0.13676 -0.675477,0.53939 -0.18981,0.39957 -0.0283,0.97959 0.10728,0.38526 0.36772,0.7963 0.260429,0.41104 0.658908,0.76082 l 0.01178,0.0423 -0.889022,0.24758 q -0.231874,-0.25932 -0.493753,-0.7247 -0.263059,-0.46962 -0.393917,-0.93955 -0.269971,-0.96951 0.04668,-1.65075 0.312423,-0.68007 1.112538,-0.90289 0.359848,-0.10021 0.699059,-0.0943 0.333812,0.003 0.662722,0.10284 0.308458,0.092 0.624945,0.24567 0.31531,0.14941 0.712769,0.38086 0.570658,0.32921 1.124158,0.69514 0.54928,0.3671 1.021599,0.68719 l -0.944307,-3.39116 z"
         style="font-style:normal;font-size:medium;text-anchor:middle;fill:none;fill-opacity:1;stroke:#000000;stroke-width:0.06614743;stroke-linecap:butt;stroke-linejoin:bevel;stroke-dasharray:none;stroke-opacity:1"
         id="path1077"
         inkscape:connector-curvature="0" />
    </g>
  </g>
</svg>
