<?xml version="1.0" encoding="UTF-8" standalone="no"?>
<svg
   xmlns:dc="http://purl.org/dc/elements/1.1/"
   xmlns:cc="http://creativecommons.org/ns#"
   xmlns:rdf="http://www.w3.org/1999/02/22-rdf-syntax-ns#"
   xmlns:svg="http://www.w3.org/2000/svg"
   xmlns="http://www.w3.org/2000/svg"
   xmlns:sodipodi="http://sodipodi.sourceforge.net/DTD/sodipodi-0.dtd"
   xmlns:inkscape="http://www.inkscape.org/namespaces/inkscape"
   version="1.1"
   width="320.00mm"
   height="620.00mm"
   viewBox="0 0 320.00 620.00"
   id="svg522"
   sodipodi:docname="backrest_page3.svg"
   inkscape:version="0.92.3 (2405546, 2018-03-11)">
  <metadata
     id="metadata528">
    <rdf:RDF>
      <cc:Work
         rdf:about="">
        <dc:format>image/svg+xml</dc:format>
        <dc:type
           rdf:resource="http://purl.org/dc/dcmitype/StillImage" />
      </cc:Work>
    </rdf:RDF>
  </metadata>
  <defs
     id="defs526" />
  <sodipodi:namedview
     pagecolor="#ffffff"
     bordercolor="#666666"
     borderopacity="1"
     objecttolerance="10"
     gridtolerance="10"
     guidetolerance="10"
     inkscape:pageopacity="0"
     inkscape:pageshadow="2"
     inkscape:window-width="1853"
     inkscape:window-height="1025"
     id="namedview524"
     showgrid="false"
     inkscape:zoom="0.28485759"
     inkscape:cx="994.95255"
     inkscape:cy="1378.8416"
     inkscape:window-x="67"
     inkscape:window-y="27"
     inkscape:window-maximized="1"
     inkscape:current-layer="svg522" />
  <style
     type="text/css"
     id="style430">
    path {
        fill: none;
        stroke-linecap: butt;
        stroke-linejoin: bevel;
        stroke-dasharray: none;
    }
    path.outer {
        stroke: #000000;
        stroke-dasharray: none;
        stroke-dashoffset: 0;
        stroke-width: 0.3;
        stroke-opacity: 1.0;
    }
    path.convex {
        stroke: #000000;
        stroke-dasharray: 0.50,1.00;
        stroke-dashoffset:0;
        stroke-width:0.2;
        stroke-opacity: 1.0
    }
    path.concave {
        stroke: #000000;
        stroke-dasharray: 1.00,0.50,0.20,0.50;
        stroke-dashoffset: 0;
        stroke-width: 0.2;
        stroke-opacity: 1.0
    }
    path.freestyle {
        stroke: #000000;
        stroke-dasharray: none;
        stroke-dashoffset: 0;
        stroke-width: 0.2;
        stroke-opacity: 1.0
    }
    path.outer_background {
        stroke: #ffffff;
        stroke-opacity: 1.0;
        stroke-width: 0.5
    }
    path.inner_background {
        stroke: #ffffff;
        stroke-opacity: 1.0;
        stroke-width: 0.2
    }
    path.sticker {
        fill: #e5e5e5;
        stroke: none;
        fill-opacity: 1.0;
    }
    path.arrow {
        fill: #000000;
    }
    text {
        font-style: normal;
        fill: #000000;
        fill-opacity: 1.0;
        stroke: none;
    }
    text, tspan {
        text-anchor:middle;
    }
    </style>
  <g
     id="g520"
     transform="rotate(21.504941,204.89342,137.25396)">
    <text
       transform="translate(139.91708,271.84254)"
       style="font-style:normal;font-size:10px;text-anchor:middle;fill:#000000;fill-opacity:1;stroke:none"
       id="text434">
      <tspan
         id="tspan432"
         style="text-anchor:middle">[6.] I 6</tspan>
    </text>
    <path
       class="sticker"
       d="m 202.00892,600.72227 -9.36225,3.51753 -34.06982,-86.52716 9.24715,-3.80986 z M 98.980471,339.06916 l -9.362056,3.51804 -39.001108,-99.03431 9.246901,-3.8104 z m 34.423639,87.41744 -9.36226,3.5175 -16.69563,-42.40192 9.24714,-3.80988 z m 34.41989,87.41618 -9.36225,3.51753 -17.09485,-43.41576 9.24715,-3.80987 z M 59.864208,239.74249 l -9.362042,3.51804 -36.104783,-91.67984 9.246915,-3.81038 z M 9.246916,111.21154 l -0.949368,-2.52646 4.943013,-1.94657 1.028255,2.49547 z m 127.006094,98.44795 8.17526,-5.76112 64.76153,88.90042 -7.99024,6.01503 z m 105.21512,375.53859 3.51806,9.36204 L 210.85864,608 207.04825,598.75308 Z M 14.268816,109.23398 10.750756,99.871874 44.878304,86.43198 l 3.810391,9.246946 z m 9.375482,38.53633 -9.362042,3.51805 L 0,115.02194 l 9.246916,-3.8104 z m 246.409212,325.88249 9.64799,2.63462 -28.50741,111.24093 -9.72596,-2.33027 z m -18.47923,-93.69992 9.84141,-1.7808 9.17885,46.54172 -9.78065,2.08903 z m -50.37472,-81.13906 8.57867,-5.14111 25.60588,41.24361 -8.41296,5.40805 z M 74.378267,85.561812 l 9.362072,-3.518045 14.282211,36.266503 -9.2469,3.81038 z m -25.689572,10.117114 -3.51812,-9.362102 25.397241,-10.001898 3.810451,9.246886 z m 40.086955,26.441724 8.865282,-4.6294 47.327578,87.26263 -8.7155,4.90561 z m 118.2726,476.63243 0.94502,2.53514 -4.96018,1.93825 -1.02417,-2.5042 z m -56.4342,-128.5584 -9.36225,3.51754 -17.09483,-43.41575 9.24714,-3.80987 z m 110.19984,-43.39185 9.84144,-1.78078 9.17882,46.54172 -9.78064,2.08903 z m -144.22053,-43.01053 -9.36202,3.51813 -17.497784,-44.43084 9.246915,-3.81043 z m 110.37779,-43.46793 8.57869,-5.14111 24.43739,39.36158 -8.41295,5.40804 z"
       id="path436"
       inkscape:connector-curvature="0"
       style="fill:#e5e5e5;fill-opacity:1;stroke:none;stroke-linecap:butt;stroke-linejoin:bevel;stroke-dasharray:none" />
    <path
       class="outer"
       d="m 209.77823,293.67271 25.60588,41.24361 -8.41296,5.40805 8.57869,-5.14111 24.43739,39.36158 -8.41295,5.40804 9.84141,-1.7808 9.17885,46.54172 -9.78065,2.08903 9.84144,-1.78078 9.17882,46.54172 -9.78064,2.08903 9.64799,2.63462 -28.50741,111.24093 -9.72596,-2.33027 3.51806,9.36204 L 210.85864,608 l -3.81039,-9.24692 0.94502,2.53514 -4.96018,1.93825 -1.02417,-2.5042 -9.36225,3.51753 -34.06982,-86.52716 9.24715,-3.80986 -9.36225,3.51753 -17.09485,-43.41576 9.24715,-3.80987 -9.36225,3.51754 -17.09483,-43.41575 9.24714,-3.80987 -9.36226,3.5175 -16.69563,-42.40192 9.24714,-3.80988 -9.36202,3.51813 -17.497784,-44.43084 9.246915,-3.81043 -9.362056,3.51804 -39.001108,-99.03431 9.246901,-3.8104 -9.362042,3.51804 -36.104783,-91.67984 9.246915,-3.81038 -9.362042,3.51805 L 0,115.02194 l 9.246916,-3.8104 -0.949368,-2.52646 4.943013,-1.94657 1.028255,2.49547 -3.51806,-9.362106 34.127548,-13.439894 3.810391,9.246946 -3.51812,-9.362102 25.397241,-10.001898 3.810451,9.246886 9.362072,-3.518045 14.282211,36.266503 -9.2469,3.81038 8.865282,-4.6294 47.327578,87.26263 -8.7155,4.90561 8.17526,-5.76112 64.76153,88.90042 -7.99024,6.01503 z"
       id="path438"
       inkscape:connector-curvature="0"
       style="fill:none;stroke:#000000;stroke-width:0.30000001;stroke-linecap:butt;stroke-linejoin:bevel;stroke-dasharray:none;stroke-dashoffset:0;stroke-opacity:1" />
    <text
       transform="rotate(-111.49192,281.6044,216.59421)"
       style="font-style:normal;font-size:9px;text-anchor:middle;fill:#000000;fill-opacity:1;stroke:none"
       id="text442">
      <tspan
         id="tspan440"
         style="text-anchor:middle">7:1</tspan>
    </text>
    <text
       transform="matrix(-0.366369,-0.930469,0.930469,-0.366369,123.32389,405.79893)"
       style="font-style:normal;font-size:9px;text-anchor:middle;fill:#000000;fill-opacity:1;stroke:none"
       id="text446">
      <tspan
         id="tspan444"
         style="text-anchor:middle">3:1</tspan>
    </text>
    <text
       transform="rotate(-21.494499,294.95533,24.380676)"
       style="font-style:normal;font-size:2.43000007px;text-anchor:middle;fill:#000000;fill-opacity:1;stroke:none"
       id="text450">
      <tspan
         id="tspan448"
         style="text-anchor:middle">1:3</tspan>
    </text>
    <g
       id="g458">
      <path
         transform="matrix(5.888062,8.082744,-8.082744,5.888062,168.72629,254.23664)"
         class="arrow"
         d="M 0,0 1,1 0,0.25 -1,1 Z"
         id="path452"
         inkscape:connector-curvature="0"
         style="fill:#000000;stroke-linecap:butt;stroke-linejoin:bevel;stroke-dasharray:none" />
      <text
         transform="translate(161.45183,263.53592)"
         style="font-style:normal;font-size:10px;text-anchor:middle;fill:#000000;fill-opacity:1;stroke:none"
         id="text456">
        <tspan
           id="tspan454"
           style="text-anchor:middle">1</tspan>
      </text>
    </g>
    <text
       transform="rotate(53.927663,-163.74127,293.84913)"
       style="font-style:normal;font-size:9px;text-anchor:middle;fill:#000000;fill-opacity:1;stroke:none"
       id="text462">
      <tspan
         id="tspan460"
         style="text-anchor:middle">10:1</tspan>
    </text>
    <g
       id="g470">
      <path
         transform="matrix(-9.304484,3.664231,-3.664231,-9.304484,224.25818,591.97558)"
         class="arrow"
         d="M 0,0 1,1 0,0.25 -1,1 Z"
         id="path464"
         inkscape:connector-curvature="0"
         style="fill:#000000;stroke-linecap:butt;stroke-linejoin:bevel;stroke-dasharray:none" />
      <text
         transform="translate(220.96038,587.60155)"
         style="font-style:normal;font-size:10px;text-anchor:middle;fill:#000000;fill-opacity:1;stroke:none"
         id="text468">
        <tspan
           id="tspan466"
           style="text-anchor:middle">2</tspan>
      </text>
    </g>
    <text
       transform="rotate(158.50481,56.117781,318.17134)"
       style="font-style:normal;font-size:9px;text-anchor:middle;fill:#000000;fill-opacity:1;stroke:none"
       id="text474">
      <tspan
         id="tspan472"
         style="text-anchor:middle">11:2</tspan>
    </text>
    <text
       transform="rotate(-111.49524,51.69749,60.046252)"
       style="font-style:normal;font-size:9px;text-anchor:middle;fill:#000000;fill-opacity:1;stroke:none"
       id="text478">
      <tspan
         id="tspan476"
         style="text-anchor:middle">3:3</tspan>
    </text>
    <text
       transform="rotate(104.37369,-76.850728,364.85403)"
       style="font-style:normal;font-size:9px;text-anchor:middle;fill:#000000;fill-opacity:1;stroke:none"
       id="text482">
      <tspan
         id="tspan480"
         style="text-anchor:middle">10:2</tspan>
    </text>
    <g
       id="g490">
      <path
         transform="matrix(3.664235,9.304482,-9.304482,3.664235,81.576958,103.84125)"
         class="arrow"
         d="M 0,0 1,1 0,0.25 -1,1 Z"
         id="path484"
         inkscape:connector-curvature="0"
         style="fill:#000000;stroke-linecap:butt;stroke-linejoin:bevel;stroke-dasharray:none" />
      <text
         transform="translate(73.202923,111.13906)"
         style="font-style:normal;font-size:10px;text-anchor:middle;fill:#000000;fill-opacity:1;stroke:none"
         id="text488">
        <tspan
           id="tspan486"
           style="text-anchor:middle">3</tspan>
      </text>
    </g>
    <text
       transform="rotate(68.504809,-34.138581,112.72118)"
       style="font-style:normal;font-size:9px;text-anchor:middle;fill:#000000;fill-opacity:1;stroke:none"
       id="text494">
      <tspan
         id="tspan492"
         style="text-anchor:middle">12:3</tspan>
    </text>
    <text
       transform="rotate(-21.495499,264.73225,-115.87748)"
       style="font-style:normal;font-size:9px;text-anchor:middle;fill:#000000;fill-opacity:1;stroke:none"
       id="text498">
      <tspan
         id="tspan496"
         style="text-anchor:middle">1:5</tspan>
    </text>
    <g
       id="g506">
      <path
         transform="matrix(4.767528,8.790374,-8.790374,4.767528,112.51435,165.89007)"
         class="arrow"
         d="M 0,0 1,1 0,0.25 -1,1 Z"
         id="path500"
         inkscape:connector-curvature="0"
         style="fill:#000000;stroke-linecap:butt;stroke-linejoin:bevel;stroke-dasharray:none" />
      <text
         transform="translate(104.60301,174.18086)"
         style="font-style:normal;font-size:10px;text-anchor:middle;fill:#000000;fill-opacity:1;stroke:none"
         id="text504">
        <tspan
           id="tspan502"
           style="text-anchor:middle">4</tspan>
      </text>
    </g>
    <text
       transform="rotate(61.526443,-81.57574,178.35524)"
       style="font-style:normal;font-size:9px;text-anchor:middle;fill:#000000;fill-opacity:1;stroke:none"
       id="text510">
      <tspan
         id="tspan508"
         style="text-anchor:middle">12:4</tspan>
    </text>
    <text
       transform="rotate(158.65629,45.801896,319.38329)"
       style="font-style:normal;font-size:2.43000007px;text-anchor:middle;fill:#000000;fill-opacity:1;stroke:none"
       id="text514">
      <tspan
         id="tspan512"
         style="text-anchor:middle">14:1</tspan>
    </text>
    <text
       transform="rotate(-111.49192,223.04693,176.71776)"
       style="font-style:normal;font-size:9px;text-anchor:middle;fill:#000000;fill-opacity:1;stroke:none"
       id="text518">
      <tspan
         id="tspan516"
         style="text-anchor:middle">7:5</tspan>
    </text>
  </g>
  <g
     transform="rotate(-18.401192,33.117568,-15.753361)"
     id="g5032">
    <text
       y="327.21097"
       x="131.27629"
       style="font-style:normal;font-size:10px;text-anchor:middle;fill:#000000;fill-opacity:1;stroke:none"
       id="text4924">
      <tspan
         id="tspan4922"
         style="text-anchor:middle">[9.] I 9</tspan>
    </text>
    <path
       class="sticker"
       d="m 85.42119,286.48731 -8.974627,-4.41369 40.366877,-85.44371 9.10884,4.12962 z m -19.142434,96.86308 -9.538468,-3.00706 13.079565,-43.88089 9.628206,2.70596 z m -40.544313,91.02666 -8.793276,-4.76478 24.184049,-46.35492 8.938595,4.4862 z m 183.726007,-256.72848 9.74468,2.25079 -23.06635,107.54201 -9.81055,-1.94359 z M 57.273857,599.78299 51.572517,608 4.108521,576.16001 9.548945,567.76796 Z M 9.548945,567.76796 0,564.30522 l 15.854497,-91.48103 9.879946,1.55286 z m 116.373335,-367.00843 4.71414,-9.24927 80.65169,16.30548 -1.82766,9.83283 z m -4.50002,303.39726 8.21702,5.70134 -63.973379,95.36528 -8.392044,-5.44042 z m 41.23503,-86.13614 8.95143,4.46057 -20.48487,42.7794 -9.08711,-4.17719 z m 23.67094,-92.52287 9.63234,2.69123 -12.32723,46.9547 -9.71211,-2.38736 z m -136.264419,102.24577 -9.339135,-3.57842 16.107146,-44.09806 9.446934,3.28332 z m 91.972929,33.33988 8.95237,4.45868 -20.47885,42.78994 -9.088,-4.17526 z M 79.448059,339.1684 l -9.918645,-1.28272 5.93774,-52.36885 9.954036,0.97048 z m 94.473171,33.58795 9.66611,2.56727 -11.18806,44.95943 -9.74199,-2.2624 z"
       id="path4926"
       inkscape:connector-curvature="0"
       style="fill:#e5e5e5;fill-opacity:1;stroke:none;stroke-linecap:butt;stroke-linejoin:bevel;stroke-dasharray:none" />
    <path
       class="outer"
       d="m 56.740288,380.34333 13.079565,-43.88089 9.628206,2.70596 -9.918645,-1.28272 5.93774,-52.36885 9.954036,0.97048 -8.974627,-4.41369 40.366877,-85.44371 9.10884,4.12962 4.71414,-9.24927 80.65169,16.30548 -1.82766,9.83283 9.74468,2.25079 -23.06635,107.54201 -9.81055,-1.94359 9.63234,2.69123 -12.32723,46.9547 -9.71211,-2.38736 9.66611,2.56727 -11.18806,44.95943 -9.74199,-2.2624 8.95143,4.46057 -20.48487,42.7794 -9.08711,-4.17719 8.95237,4.45868 -20.47885,42.78994 -9.088,-4.17526 8.21702,5.70134 -63.973379,95.36528 -8.392044,-5.44042 L 51.572517,608 4.108521,576.16001 9.548945,567.76796 0,564.30522 l 15.854497,-91.48103 9.879946,1.55286 -8.793276,-4.76478 24.184049,-46.35492 8.938595,4.4862 -9.339135,-3.57842 16.107146,-44.09806 9.446934,3.28332 z"
       id="path4928"
       inkscape:connector-curvature="0"
       style="fill:none;stroke:#000000;stroke-width:0.30000001;stroke-linecap:butt;stroke-linejoin:bevel;stroke-dasharray:none;stroke-dashoffset:0;stroke-opacity:1" />
    <text
       y="197.81319"
       x="-175.13844"
       transform="rotate(-64.712153)"
       style="font-style:normal;font-size:9px;text-anchor:middle;fill:#000000;fill-opacity:1;stroke:none"
       id="text4932">
      <tspan
         id="tspan4930"
         style="text-anchor:middle">4:4</tspan>
    </text>
    <text
       y="-252.24715"
       x="224.03217"
       transform="rotate(102.10577)"
       style="font-style:normal;font-size:9px;text-anchor:middle;fill:#000000;fill-opacity:1;stroke:none"
       id="text4936">
      <tspan
         id="tspan4934"
         style="text-anchor:middle">5:1</tspan>
    </text>
    <text
       y="-467.98529"
       x="-352.96109"
       transform="rotate(-146.14533)"
       style="font-style:normal;font-size:9px;text-anchor:middle;fill:#000000;fill-opacity:1;stroke:none"
       id="text4940">
      <tspan
         id="tspan4938"
         style="text-anchor:middle">11:5</tspan>
    </text>
    <path
       style="fill:#000000;stroke-width:10;stroke-linecap:butt;stroke-linejoin:bevel;stroke-dasharray:none"
       inkscape:connector-curvature="0"
       id="path4942"
       d="m 17.641695,521.07251 11.560756,-8.14548 -9.097476,8.57239 5.682204,11.13385 z"
       class="arrow" />
    <text
       y="526.60938"
       x="26.509502"
       id="text4946"
       style="font-style:normal;font-size:10px;text-anchor:middle;fill:#000000;fill-opacity:1;stroke:none">
      <tspan
         style="text-anchor:middle"
         id="tspan4944">1</tspan>
    </text>
    <text
       y="104.56301"
       x="-510.4064"
       transform="rotate(-80.167758)"
       style="font-style:normal;font-size:9px;text-anchor:middle;fill:#000000;fill-opacity:1;stroke:none"
       id="text4952">
      <tspan
         id="tspan4950"
         style="text-anchor:middle">4:1</tspan>
    </text>
    <text
       y="170.02504"
       x="205.82251"
       transform="rotate(11.429502)"
       style="font-style:normal;font-size:9px;text-anchor:middle;fill:#000000;fill-opacity:1;stroke:none"
       id="text4956">
      <tspan
         id="tspan4954"
         style="text-anchor:middle">13:1</tspan>
    </text>
    <path
       style="fill:#000000;stroke-width:10;stroke-linecap:butt;stroke-linejoin:bevel;stroke-dasharray:none"
       inkscape:connector-curvature="0"
       id="path4958"
       d="m 89.348055,551.96989 -13.875416,2.73365 11.799283,-4.12637 -0.657515,-12.4827 z"
       class="arrow" />
    <text
       y="550.95612"
       x="81.873978"
       id="text4962"
       style="font-style:normal;font-size:10px;text-anchor:middle;fill:#000000;fill-opacity:1;stroke:none">
      <tspan
         style="text-anchor:middle"
         id="tspan4960">2</tspan>
    </text>
    <text
       y="-383.49545"
       x="408.6105"
       transform="rotate(123.85467)"
       style="font-style:normal;font-size:9px;text-anchor:middle;fill:#000000;fill-opacity:1;stroke:none"
       id="text4968">
      <tspan
         id="tspan4966"
         style="text-anchor:middle">5:2</tspan>
    </text>
  </g>
</svg>
