<?xml version="1.0" encoding="UTF-8" standalone="no"?>
<svg
   xmlns:dc="http://purl.org/dc/elements/1.1/"
   xmlns:cc="http://creativecommons.org/ns#"
   xmlns:rdf="http://www.w3.org/1999/02/22-rdf-syntax-ns#"
   xmlns:svg="http://www.w3.org/2000/svg"
   xmlns="http://www.w3.org/2000/svg"
   xmlns:sodipodi="http://sodipodi.sourceforge.net/DTD/sodipodi-0.dtd"
   xmlns:inkscape="http://www.inkscape.org/namespaces/inkscape"
   version="1.1"
   width="300.00mm"
   height="600.00mm"
   viewBox="0 0 300.00 600.00"
   id="svg94"
   sodipodi:docname="backrest_page3.svg"
   inkscape:version="0.92.2 (5c3e80d, 2017-08-06)">
  <metadata
     id="metadata100">
    <rdf:RDF>
      <cc:Work
         rdf:about="">
        <dc:format>image/svg+xml</dc:format>
        <dc:type
           rdf:resource="http://purl.org/dc/dcmitype/StillImage" />
      </cc:Work>
    </rdf:RDF>
  </metadata>
  <defs
     id="defs98" />
  <sodipodi:namedview
     pagecolor="#ffffff"
     bordercolor="#666666"
     borderopacity="1"
     objecttolerance="10"
     gridtolerance="10"
     guidetolerance="10"
     inkscape:pageopacity="0"
     inkscape:pageshadow="2"
     inkscape:window-width="1920"
     inkscape:window-height="1017"
     id="namedview96"
     showgrid="false"
     inkscape:zoom="0.41627778"
     inkscape:cx="120.83642"
     inkscape:cy="844.66784"
     inkscape:window-x="-8"
     inkscape:window-y="209"
     inkscape:window-maximized="1"
     inkscape:current-layer="svg94" />
  <style
     type="text/css"
     id="style2">
    path {
        fill: none;
        stroke-linecap: butt;
        stroke-linejoin: bevel;
        stroke-dasharray: none;
    }
    path.outer {
        stroke: #000000;
        stroke-dasharray: none;
        stroke-dashoffset: 0;
        stroke-width: 0.3;
        stroke-opacity: 1.0;
    }
    path.convex {
        stroke: #000000;
        stroke-dasharray: 0.50,1.00;
        stroke-dashoffset:0;
        stroke-width:0.2;
        stroke-opacity: 1.0
    }
    path.concave {
        stroke: #000000;
        stroke-dasharray: 1.00,0.50,0.20,0.50;
        stroke-dashoffset: 0;
        stroke-width: 0.2;
        stroke-opacity: 1.0
    }
    path.freestyle {
        stroke: #000000;
        stroke-dasharray: none;
        stroke-dashoffset: 0;
        stroke-width: 0.2;
        stroke-opacity: 1.0
    }
    path.outer_background {
        stroke: #ffffff;
        stroke-opacity: 1.0;
        stroke-width: 0.5
    }
    path.inner_background {
        stroke: #ffffff;
        stroke-opacity: 1.0;
        stroke-width: 0.2
    }
    path.sticker {
        fill: #e5e5e5;
        stroke: none;
        fill-opacity: 1.0;
    }
    path.arrow {
        fill: #000000;
    }
    text {
        font-style: normal;
        fill: #000000;
        fill-opacity: 1.0;
        stroke: none;
    }
    text, tspan {
        text-anchor:middle;
    }
    </style>
  <path
     d="m 103.51588,219.91406 h -2.53907 v -9.51172 h 2.53907 v 0.69825 h -1.68946 v 8.11523 h 1.68946 z"
     style="font-style:normal;font-size:medium;text-anchor:middle;fill:none;fill-opacity:1;stroke:#000000;stroke-width:0.06614583;stroke-linecap:butt;stroke-linejoin:bevel;stroke-dasharray:none;stroke-opacity:1"
     id="path907"
     inkscape:connector-curvature="0" />
  <path
     d="m 109.42896,214.49902 q 0.23438,0.20996 0.38574,0.52735 0.15137,0.31738 0.15137,0.82031 0,0.49805 -0.18066,0.91309 -0.18067,0.41503 -0.50782,0.72265 -0.36621,0.3418 -0.86425,0.50781 -0.49317,0.16114 -1.08399,0.16114 -0.60547,0 -1.1914,-0.14649 -0.58594,-0.1416 -0.96192,-0.3125 v -1.02051 h 0.0732 q 0.41504,0.27344 0.97657,0.45411 0.56152,0.18066 1.08398,0.18066 0.30762,0 0.6543,-0.10254 0.34668,-0.10254 0.56152,-0.30273 0.22461,-0.21485 0.33203,-0.47364 0.11231,-0.25878 0.11231,-0.65429 0,-0.39063 -0.12696,-0.64453 -0.12207,-0.25879 -0.34179,-0.40528 -0.21973,-0.15136 -0.53223,-0.20508 -0.3125,-0.0586 -0.67383,-0.0586 h -0.43945 v -0.81055 h 0.34179 q 0.74219,0 1.18165,-0.30761 0.44433,-0.3125 0.44433,-0.90821 0,-0.26367 -0.1123,-0.45898 -0.11231,-0.2002 -0.3125,-0.32715 -0.20996,-0.12695 -0.44922,-0.17578 -0.23926,-0.0488 -0.54199,-0.0488 -0.46387,0 -0.98633,0.16602 -0.52246,0.16601 -0.98633,0.46875 h -0.0488 v -1.02051 q 0.34668,-0.1709 0.92285,-0.3125 0.58106,-0.14649 1.12305,-0.14649 0.53222,0 0.9375,0.0977 0.40527,0.0977 0.73242,0.3125 0.35156,0.23438 0.53223,0.56641 0.18066,0.33203 0.18066,0.77636 0,0.60547 -0.42969,1.05957 -0.4248,0.44922 -1.00586,0.56641 v 0.0684 q 0.23438,0.0391 0.53711,0.16602 0.30274,0.12207 0.5127,0.30761 z"
     style="font-style:normal;font-size:medium;text-anchor:middle;fill:none;fill-opacity:1;stroke:#000000;stroke-width:0.06614583;stroke-linecap:butt;stroke-linejoin:bevel;stroke-dasharray:none;stroke-opacity:1"
     id="path909"
     inkscape:connector-curvature="0" />
  <path
     d="m 114.10181,219.91406 h -2.53906 v -0.69824 h 1.68945 v -8.11523 h -1.68945 v -0.69825 h 2.53906 z"
     style="font-style:normal;font-size:medium;text-anchor:middle;fill:none;fill-opacity:1;stroke:#000000;stroke-width:0.06614583;stroke-linecap:butt;stroke-linejoin:bevel;stroke-dasharray:none;stroke-opacity:1"
     id="path911"
     inkscape:connector-curvature="0" />
  <path
     d="m 122.33424,218 h -2.8711 v -0.74219 h 0.95215 v -5.78613 h -0.95215 v -0.74219 h 2.8711 v 0.74219 h -0.95215 v 5.78613 h 0.95215 z"
     style="font-style:normal;font-size:medium;text-anchor:middle;fill:none;fill-opacity:1;stroke:#000000;stroke-width:0.06614583;stroke-linecap:butt;stroke-linejoin:bevel;stroke-dasharray:none;stroke-opacity:1"
     id="path913"
     inkscape:connector-curvature="0" />
  <path
     d="m 131.59693,214.49902 q 0.23438,0.20996 0.38574,0.52735 0.15137,0.31738 0.15137,0.82031 0,0.49805 -0.18066,0.91309 -0.18067,0.41503 -0.50782,0.72265 -0.36621,0.3418 -0.86425,0.50781 -0.49317,0.16114 -1.08399,0.16114 -0.60547,0 -1.19141,-0.14649 -0.58593,-0.1416 -0.96191,-0.3125 v -1.02051 h 0.0732 q 0.41504,0.27344 0.97656,0.45411 0.56153,0.18066 1.08399,0.18066 0.30761,0 0.65429,-0.10254 0.34668,-0.10254 0.56153,-0.30273 0.22461,-0.21485 0.33203,-0.47364 0.1123,-0.25878 0.1123,-0.65429 0,-0.39063 -0.12695,-0.64453 -0.12207,-0.25879 -0.3418,-0.40528 -0.21972,-0.15136 -0.53222,-0.20508 -0.3125,-0.0586 -0.67383,-0.0586 h -0.43945 v -0.81055 h 0.34179 q 0.74219,0 1.18164,-0.30761 0.44434,-0.3125 0.44434,-0.90821 0,-0.26367 -0.11231,-0.45898 -0.1123,-0.2002 -0.3125,-0.32715 -0.20996,-0.12695 -0.44921,-0.17578 -0.23926,-0.0488 -0.542,-0.0488 -0.46386,0 -0.98632,0.16602 -0.52247,0.16601 -0.98633,0.46875 h -0.0488 v -1.02051 q 0.34668,-0.1709 0.92285,-0.3125 0.58105,-0.14649 1.12305,-0.14649 0.53222,0 0.9375,0.0977 0.40527,0.0977 0.73242,0.3125 0.35156,0.23438 0.53222,0.56641 0.18067,0.33203 0.18067,0.77636 0,0.60547 -0.42969,1.05957 -0.4248,0.44922 -1.00586,0.56641 v 0.0684 q 0.23438,0.0391 0.53711,0.16602 0.30274,0.12207 0.5127,0.30761 z"
     style="font-style:normal;font-size:medium;text-anchor:middle;fill:none;fill-opacity:1;stroke:#000000;stroke-width:0.06614583;stroke-linecap:butt;stroke-linejoin:bevel;stroke-dasharray:none;stroke-opacity:1"
     id="path915"
     inkscape:connector-curvature="0" />
  <path
     inkscape:connector-curvature="0"
     style="fill:#e5e5e5;fill-opacity:1;stroke:#000000;stroke-width:0.06614583;stroke-linecap:butt;stroke-linejoin:bevel;stroke-dasharray:none;stroke-opacity:1"
     id="path8"
     d="m 17.000024,376.00004 -10.000005,-0.15709 -1.5e-5,-75.55774 10.000005,-0.15711 z m -3e-5,-146.25001 -10.000005,-0.15706 v -21.54901 l 10.000005,-0.15709 z m 3e-5,-48.74998 0.157088,-9.99999 106.437198,-3e-5 0.1571,9.99999 z m 154.818106,0 0.15708,-10.00002 h 45.57325 l 0.15709,10.00002 z m 45.88742,26.88682 10.00001,0.15709 v 21.54898 l -10.00001,0.15709 z m 0,92.24123 10.00001,0.15709 1e-5,75.55775 -10,0.15709 z m -200.705541,0 -10.000005,-0.15709 -1.5e-5,-70.06386 10.000005,-0.15712 z m 200.705541,-70.37807 10.00001,0.15709 v 70.06389 l -10.00001,0.15709 z M 16.999994,207.88687 6.999989,207.72978 l 3e-5,-26.57264 10.000005,-0.15709 z m 200.705556,-26.88682 10.00001,0.15709 v 26.57261 l -10.00001,0.15712 z m -93.95414,-3e-5 0.15709,-9.99999 h 47.75254 l 0.15709,10.00002 z M 17.000039,451.87196 7.000034,451.71487 l -1.5e-5,-75.55774 10.000005,-0.15709 z m 1.5e-5,92.24125 -10.000005,-0.15708 -1.5e-5,-21.54899 10.000005,-0.15709 z M 123.75141,571 l -0.1571,10 -106.437198,3e-5 -0.157088,-9.99999 z m 93.95417,0 -0.15709,10 h -45.57325 l -0.15708,-10 z m -1e-5,-48.74998 10,0.15709 v 21.54899 l -9.99999,0.15708 z m 0,-146.24999 10,0.15708 v 75.55776 l -9.99999,0.15709 z M 17.000039,522.25005 7.000034,522.09296 v -70.06392 l 10.000005,-0.15708 z m 200.705541,-70.37809 9.99999,0.15708 v 70.06389 l -10,0.15709 z M 17.000024,571.00004 7.000019,570.84292 l 3e-5,-26.57262 10.000005,-0.15709 z m 200.705556,-26.88686 9.99999,0.15709 2e-5,26.57265 L 217.70558,571 Z M 171.81816,571 171.66107,581 H 123.9085 l -0.15709,-10 z"
     class="sticker" />
  <path
     inkscape:connector-curvature="0"
     style="fill:none;stroke:#000000;stroke-width:0.06614583;stroke-linecap:butt;stroke-linejoin:bevel;stroke-dasharray:none;stroke-dashoffset:0;stroke-opacity:1"
     id="path10"
     d="m 6.999989,229.59297 v -21.54901 l 10.000005,-0.15709 -10.000005,-0.15709 3e-5,-26.57264 10.000005,-0.15709 0.157088,-9.99999 106.437198,-3e-5 0.1571,9.99999 0.15709,-9.99999 h 47.75254 l 0.15709,10.00002 0.15708,-10.00002 h 45.57325 l 0.15709,10.00002 10.00001,0.15709 v 26.57261 l -10.00001,0.15712 10.00001,0.15709 v 21.54898 l -10.00001,0.15709 10.00001,0.15709 v 70.06389 l -10.00001,0.15709 10.00001,0.15709 1e-5,75.55775 -10,0.15709 10,0.15708 v 75.55776 l -9.99999,0.15709 9.99999,0.15708 v 70.06389 l -10,0.15709 10,0.15709 v 21.54899 l -9.99999,0.15708 9.99999,0.15709 2e-5,26.57265 -10.00001,0.15708 -0.15709,10 h -45.57325 l -0.15708,-10 -0.15709,10 H 123.9085 l -0.15709,-10 -0.1571,10 -106.437198,3e-5 -0.157088,-9.99999 -10.000005,-0.15712 3e-5,-26.57262 10.000005,-0.15709 -10.000005,-0.15708 -1.5e-5,-21.54899 10.000005,-0.15709 -10.000005,-0.15709 v -70.06392 l 10.000005,-0.15708 -10.000005,-0.15709 -1.5e-5,-75.55774 10.000005,-0.15709 -10.000005,-0.15709 -1.5e-5,-75.55774 10.000005,-0.15711 -10.000005,-0.15709 -1.5e-5,-70.06386 10.000005,-0.15712 z"
     class="outer" />
  <path
     class="arrow"
     d="m 70.375715,181.00005 10.000002,10 -10.000002,-7.5 -9.999998,7.5 z"
     id="path12"
     style="fill:#000000;stroke:#000000;stroke-width:0.0661458;stroke-linecap:butt;stroke-linejoin:bevel;stroke-dasharray:none;stroke-opacity:1"
     inkscape:connector-curvature="0" />
  <path
     inkscape:connector-curvature="0"
     id="path918"
     style="font-style:normal;font-size:medium;text-anchor:middle;fill:none;fill-opacity:1;stroke:#000000;stroke-width:0.06614583;stroke-linecap:butt;stroke-linejoin:bevel;stroke-dasharray:none;stroke-opacity:1"
     d="m 72.48509,194.00006 h -3.935547 v -0.74219 h 1.513672 v -4.87304 h -1.513672 v -0.66407 q 0.307617,0 0.65918,-0.0488 0.351562,-0.0537 0.532226,-0.15137 0.22461,-0.12207 0.351563,-0.30762 0.131836,-0.19043 0.151367,-0.50781 h 0.756836 v 6.55273 h 1.484375 z" />
  <path
     d="M 64.869367,179.20005 H 60.43968 v -0.91846 q 0.461426,-0.3955 0.922851,-0.79101 0.465821,-0.39551 0.865723,-0.78662 0.84375,-0.81739 1.155762,-1.29639 0.312011,-0.4834 0.312011,-1.0415 0,-0.50977 -0.338378,-0.79541 -0.333985,-0.29004 -0.936036,-0.29004 -0.399902,0 -0.865722,0.14062 -0.465821,0.14063 -0.909668,0.43067 h -0.04395 v -0.92286 q 0.312011,-0.1538 0.830566,-0.28125 0.522949,-0.12744 1.010742,-0.12744 1.006348,0 1.577637,0.4878 0.571289,0.48339 0.571289,1.31396 0,0.37354 -0.09668,0.69873 -0.09228,0.3208 -0.276855,0.61084 -0.171387,0.27246 -0.404297,0.53613 -0.228516,0.26368 -0.558106,0.58448 -0.470215,0.46142 -0.971191,0.89648 -0.500977,0.43066 -0.936035,0.79981 h 3.520019 z"
     style="font-style:normal;font-size:medium;text-anchor:middle;fill:none;fill-opacity:1;stroke:#000000;stroke-width:0.06614583;stroke-linecap:butt;stroke-linejoin:bevel;stroke-dasharray:none;stroke-opacity:1"
     id="path921"
     inkscape:connector-curvature="0" />
  <path
     d="m 70.591047,175.92612 q 0,1.76221 -0.553711,2.58838 -0.549316,0.82178 -1.709473,0.82178 -1.177734,0 -1.722656,-0.83496 -0.540527,-0.83496 -0.540527,-2.56641 0,-1.74463 0.549316,-2.57519 0.549317,-0.83496 1.713867,-0.83496 1.177735,0 1.718262,0.84814 0.544922,0.84375 0.544922,2.55322 z m -1.155762,1.99512 q 0.153809,-0.35596 0.206543,-0.83496 0.05713,-0.4834 0.05713,-1.16016 0,-0.66796 -0.05713,-1.16015 -0.05273,-0.49219 -0.210937,-0.83496 -0.153809,-0.33838 -0.421875,-0.50977 -0.263672,-0.17139 -0.681153,-0.17139 -0.413086,0 -0.685546,0.17139 -0.268067,0.17139 -0.42627,0.51856 -0.149414,0.32519 -0.206543,0.84814 -0.05273,0.52295 -0.05273,1.14697 0,0.68555 0.04834,1.14698 0.04834,0.46142 0.206543,0.82617 0.14502,0.34277 0.408692,0.52295 0.268066,0.18017 0.707519,0.18017 0.413086,0 0.685547,-0.17138 0.272461,-0.17139 0.421874,-0.51856 z"
     style="font-style:normal;font-size:medium;text-anchor:middle;fill:none;fill-opacity:1;stroke:#000000;stroke-width:0.06614583;stroke-linecap:butt;stroke-linejoin:bevel;stroke-dasharray:none;stroke-opacity:1"
     id="path923"
     inkscape:connector-curvature="0" />
  <path
     d="m 73.763899,175.5438 h -1.050293 v -1.25244 h 1.050293 z m 0,3.65625 h -1.050293 v -1.25244 h 1.050293 z"
     style="font-style:normal;font-size:medium;text-anchor:middle;fill:none;fill-opacity:1;stroke:#000000;stroke-width:0.06614583;stroke-linecap:butt;stroke-linejoin:bevel;stroke-dasharray:none;stroke-opacity:1"
     id="path925"
     inkscape:connector-curvature="0" />
  <path
     d="m 80.052473,179.20005 h -3.541992 v -0.66797 h 1.362304 v -4.38574 h -1.362304 v -0.59766 q 0.276855,0 0.593261,-0.0439 0.316407,-0.0483 0.479004,-0.13623 0.202149,-0.10987 0.316406,-0.27686 0.118653,-0.17138 0.136231,-0.45703 h 0.681152 v 5.89746 h 1.335938 z"
     style="font-style:normal;font-size:medium;text-anchor:middle;fill:none;fill-opacity:1;stroke:#000000;stroke-width:0.06614583;stroke-linecap:butt;stroke-linejoin:bevel;stroke-dasharray:none;stroke-opacity:1"
     id="path927"
     inkscape:connector-curvature="0" />
  <path
     class="arrow"
     d="m 194.76185,181.00005 10,10 -10,-7.5 -10,7.5 z"
     id="path24"
     style="fill:#000000;stroke:#000000;stroke-width:0.0661458;stroke-linecap:butt;stroke-linejoin:bevel;stroke-dasharray:none;stroke-opacity:1"
     inkscape:connector-curvature="0" />
  <path
     inkscape:connector-curvature="0"
     id="path930"
     style="font-style:normal;font-size:medium;text-anchor:middle;fill:none;fill-opacity:1;stroke:#000000;stroke-width:0.06614583;stroke-linecap:butt;stroke-linejoin:bevel;stroke-dasharray:none;stroke-opacity:1"
     d="m 197.28626,194.00006 h -4.92187 v -1.02051 q 0.51269,-0.43945 1.02539,-0.8789 0.51758,-0.43946 0.96191,-0.87403 0.9375,-0.9082 1.28418,-1.44043 0.34668,-0.53711 0.34668,-1.15722 0,-0.56641 -0.37597,-0.88379 -0.3711,-0.32227 -1.04004,-0.32227 -0.44434,0 -0.96192,0.15625 -0.51757,0.15625 -1.01074,0.47852 h -0.0488 v -1.02539 q 0.34668,-0.1709 0.92285,-0.3125 0.58106,-0.14161 1.12305,-0.14161 1.11817,0 1.75293,0.542 0.63477,0.53711 0.63477,1.45996 0,0.41504 -0.10742,0.77637 -0.10254,0.35644 -0.30762,0.67871 -0.19043,0.30273 -0.44922,0.5957 -0.25391,0.29297 -0.62012,0.64941 -0.52246,0.5127 -1.0791,0.9961 -0.55664,0.47851 -1.04004,0.88867 h 3.91113 z" />
  <path
     d="m 189.2555,179.20005 h -4.42969 v -0.91846 q 0.46143,-0.3955 0.92286,-0.79101 0.46582,-0.39551 0.86572,-0.78662 0.84375,-0.81739 1.15576,-1.29639 0.31201,-0.4834 0.31201,-1.0415 0,-0.50977 -0.33838,-0.79541 -0.33398,-0.29004 -0.93603,-0.29004 -0.3999,0 -0.86572,0.14062 -0.46582,0.14063 -0.90967,0.43067 h -0.044 v -0.92286 q 0.31201,-0.1538 0.83057,-0.28125 0.52295,-0.12744 1.01074,-0.12744 1.00635,0 1.57764,0.4878 0.57129,0.48339 0.57129,1.31396 0,0.37354 -0.0967,0.69873 -0.0923,0.3208 -0.27686,0.61084 -0.17139,0.27246 -0.4043,0.53613 -0.22851,0.26368 -0.5581,0.58448 -0.47022,0.46142 -0.97119,0.89648 -0.50098,0.43066 -0.93604,0.79981 h 3.52002 z"
     style="font-style:normal;font-size:medium;text-anchor:middle;fill:none;fill-opacity:1;stroke:#000000;stroke-width:0.06614583;stroke-linecap:butt;stroke-linejoin:bevel;stroke-dasharray:none;stroke-opacity:1"
     id="path933"
     inkscape:connector-curvature="0" />
  <path
     d="m 194.97718,175.92612 q 0,1.76221 -0.55371,2.58838 -0.54932,0.82178 -1.70947,0.82178 -1.17774,0 -1.72266,-0.83496 -0.54053,-0.83496 -0.54053,-2.56641 0,-1.74463 0.54932,-2.57519 0.54932,-0.83496 1.71387,-0.83496 1.17773,0 1.71826,0.84814 0.54492,0.84375 0.54492,2.55322 z m -1.15576,1.99512 q 0.15381,-0.35596 0.20654,-0.83496 0.0571,-0.4834 0.0571,-1.16016 0,-0.66796 -0.0571,-1.16015 -0.0527,-0.49219 -0.21093,-0.83496 -0.15381,-0.33838 -0.42188,-0.50977 -0.26367,-0.17139 -0.68115,-0.17139 -0.41309,0 -0.68555,0.17139 -0.26806,0.17139 -0.42627,0.51856 -0.14941,0.32519 -0.20654,0.84814 -0.0527,0.52295 -0.0527,1.14697 0,0.68555 0.0483,1.14698 0.0483,0.46142 0.20654,0.82617 0.14502,0.34277 0.40869,0.52295 0.26807,0.18017 0.70752,0.18017 0.41309,0 0.68555,-0.17138 0.27246,-0.17139 0.42187,-0.51856 z"
     style="font-style:normal;font-size:medium;text-anchor:middle;fill:none;fill-opacity:1;stroke:#000000;stroke-width:0.06614583;stroke-linecap:butt;stroke-linejoin:bevel;stroke-dasharray:none;stroke-opacity:1"
     id="path935"
     inkscape:connector-curvature="0" />
  <path
     d="m 198.15003,175.5438 h -1.05029 v -1.25244 h 1.05029 z m 0,3.65625 h -1.05029 v -1.25244 h 1.05029 z"
     style="font-style:normal;font-size:medium;text-anchor:middle;fill:none;fill-opacity:1;stroke:#000000;stroke-width:0.06614583;stroke-linecap:butt;stroke-linejoin:bevel;stroke-dasharray:none;stroke-opacity:1"
     id="path937"
     inkscape:connector-curvature="0" />
  <path
     d="m 204.81214,179.20005 h -4.42968 v -0.91846 q 0.46142,-0.3955 0.92285,-0.79101 0.46582,-0.39551 0.86572,-0.78662 0.84375,-0.81739 1.15576,-1.29639 0.31201,-0.4834 0.31201,-1.0415 0,-0.50977 -0.33838,-0.79541 -0.33398,-0.29004 -0.93603,-0.29004 -0.3999,0 -0.86572,0.14062 -0.46582,0.14063 -0.90967,0.43067 h -0.0439 v -0.92286 q 0.31202,-0.1538 0.83057,-0.28125 0.52295,-0.12744 1.01074,-0.12744 1.00635,0 1.57764,0.4878 0.57129,0.48339 0.57129,1.31396 0,0.37354 -0.0967,0.69873 -0.0923,0.3208 -0.27686,0.61084 -0.17138,0.27246 -0.40429,0.53613 -0.22852,0.26368 -0.55811,0.58448 -0.47021,0.46142 -0.97119,0.89648 -0.50098,0.43066 -0.93604,0.79981 h 3.52002 z"
     style="font-style:normal;font-size:medium;text-anchor:middle;fill:none;fill-opacity:1;stroke:#000000;stroke-width:0.06614583;stroke-linecap:butt;stroke-linejoin:bevel;stroke-dasharray:none;stroke-opacity:1"
     id="path939"
     inkscape:connector-curvature="0" />
  <path
     class="arrow"
     d="m 17.000009,194.44346 10.00001,-9.99999 -7.50001,9.99999 7.49999,10.00001 z"
     id="path36"
     style="fill:#000000;stroke:#000000;stroke-width:0.0661458;stroke-linecap:butt;stroke-linejoin:bevel;stroke-dasharray:none;stroke-opacity:1"
     inkscape:connector-curvature="0" />
  <path
     inkscape:connector-curvature="0"
     id="path942"
     style="font-style:normal;font-size:medium;text-anchor:middle;fill:none;fill-opacity:1;stroke:#000000;stroke-width:0.06614583;stroke-linecap:butt;stroke-linejoin:bevel;stroke-dasharray:none;stroke-opacity:1"
     d="m 27.884775,194.94249 q 0.234375,0.20996 0.385742,0.52735 0.151367,0.31738 0.151367,0.82031 0,0.49805 -0.180664,0.91309 -0.180664,0.41503 -0.507813,0.72265 -0.366211,0.3418 -0.864257,0.50781 -0.493164,0.16114 -1.083985,0.16114 -0.605469,0 -1.191406,-0.14649 -0.585938,-0.1416 -0.961914,-0.3125 v -1.02051 h 0.07324 q 0.415039,0.27344 0.976562,0.45411 0.561524,0.18066 1.083985,0.18066 0.307617,0 0.654297,-0.10254 0.346679,-0.10254 0.561523,-0.30273 0.224609,-0.21485 0.332031,-0.47364 0.112305,-0.25878 0.112305,-0.65429 0,-0.39063 -0.126953,-0.64453 -0.12207,-0.25879 -0.341797,-0.40528 -0.219727,-0.15136 -0.532227,-0.20508 -0.3125,-0.0586 -0.673828,-0.0586 h -0.439453 v -0.81055 h 0.341797 q 0.742188,0 1.181641,-0.30761 0.444336,-0.3125 0.444336,-0.90821 0,-0.26367 -0.112305,-0.45898 -0.112305,-0.2002 -0.3125,-0.32715 -0.209961,-0.12695 -0.449219,-0.17578 -0.239258,-0.0488 -0.541992,-0.0488 -0.463867,0 -0.986328,0.16602 -0.522461,0.16601 -0.986328,0.46875 h -0.04883 v -1.02051 q 0.346679,-0.1709 0.922851,-0.3125 0.581055,-0.14649 1.123047,-0.14649 0.532227,0 0.9375,0.0977 0.405274,0.0977 0.732422,0.3125 0.351563,0.23438 0.532227,0.56641 0.180664,0.33203 0.180664,0.77636 0,0.60547 -0.429688,1.05957 -0.424805,0.44922 -1.005859,0.56641 v 0.0684 q 0.234375,0.0391 0.537109,0.16602 0.302735,0.12207 0.512696,0.30761 z" />
  <path
     d="m 15.200005,197.08457 -4e-6,4.42969 -0.918457,0 q -0.395508,-0.46143 -0.791015,-0.92285 -0.395507,-0.46582 -0.78662,-0.86573 -0.817382,-0.84375 -1.296386,-1.15576 -0.483398,-0.31201 -1.041503,-0.31201 -0.5097661,0 -0.7954109,0.33838 -0.2900394,0.33398 -0.29004,0.93603 -4e-7,0.3999 0.1406241,0.86572 0.1406245,0.46582 0.4306632,0.90967 l -1e-7,0.044 -0.9228516,0 q -0.1538082,-0.31202 -0.2812491,-0.83057 -0.1274409,-0.52295 -0.1274404,-1.01074 10e-7,-1.00635 0.4877945,-1.57764 0.483399,-0.57129 1.3139653,-0.57129 0.373535,0 0.698731,0.0967 0.3208,0.0923 0.610839,0.27686 0.272461,0.17139 0.536132,0.4043 0.263672,0.22851 0.584473,0.5581 0.461425,0.47022 0.896483,0.9712 0.430664,0.50097 0.799804,0.93603 l 3e-6,-3.52002 z"
     style="font-style:normal;font-size:medium;text-anchor:middle;fill:none;fill-opacity:1;stroke:#000000;stroke-width:0.06614583;stroke-linecap:butt;stroke-linejoin:bevel;stroke-dasharray:none;stroke-opacity:1"
     id="path945"
     inkscape:connector-curvature="0" />
  <path
     d="m 11.543758,193.92051 -1e-6,1.05029 -1.252441,0 10e-7,-1.0503 z m 3.65625,0 -1e-6,1.05029 -1.252441,0 10e-7,-1.05029 z"
     style="font-style:normal;font-size:medium;text-anchor:middle;fill:none;fill-opacity:1;stroke:#000000;stroke-width:0.06614583;stroke-linecap:butt;stroke-linejoin:bevel;stroke-dasharray:none;stroke-opacity:1"
     id="path947"
     inkscape:connector-curvature="0" />
  <path
     d="m 12.049135,187.83408 q 0.188965,-0.21094 0.47461,-0.34717 0.285645,-0.13623 0.738281,-0.13623 0.448243,0 0.821778,0.1626 0.373535,0.1626 0.65039,0.45703 0.307617,0.32959 0.45703,0.77784 0.145019,0.44384 0.145019,0.97558 -10e-7,0.54492 -0.131837,1.07227 -0.127442,0.52734 -0.281251,0.86572 l -0.918457,0 0,-0.0659 q 0.246094,-0.37353 0.408692,-0.8789 0.162598,-0.50538 0.162599,-0.97559 0,-0.27686 -0.09229,-0.58887 -0.09228,-0.31201 -0.27246,-0.50537 -0.193359,-0.20215 -0.426269,-0.29883 -0.23291,-0.10107 -0.588867,-0.10107 -0.351563,0 -0.580079,0.11426 -0.23291,0.10986 -0.364746,0.30761 -0.136231,0.19776 -0.184571,0.47901 -0.05273,0.28125 -0.05273,0.60644 l -10e-7,0.39551 -0.729492,0 0,-0.30762 q 10e-7,-0.66797 -0.276854,-1.06348 -0.28125,-0.3999 -0.817382,-0.3999 -0.2373051,0 -0.4130865,0.10107 -0.1801762,0.10108 -0.2944343,0.28125 -0.114258,0.18897 -0.1582035,0.4043 -0.043945,0.21533 -0.043946,0.48779 -4e-7,0.41748 0.1494132,0.8877 0.1494135,0.47021 0.4218741,0.8877 l 0,0.0439 -0.9184571,0 q -0.1538083,-0.31201 -0.2812492,-0.83057 -0.1318354,-0.52295 -0.1318349,-1.01074 5e-7,-0.479 0.087892,-0.84375 0.087891,-0.36475 0.2812507,-0.65918 0.2109378,-0.31641 0.5097662,-0.479 0.2988282,-0.1626 0.6987303,-0.1626 0.544922,0 0.953613,0.38672 0.404296,0.38233 0.509764,0.90527 l 0.06152,0 q 0.03516,-0.21093 0.149415,-0.48339 0.109864,-0.27246 0.276856,-0.46143 z"
     style="font-style:normal;font-size:medium;text-anchor:middle;fill:none;fill-opacity:1;stroke:#000000;stroke-width:0.06614583;stroke-linecap:butt;stroke-linejoin:bevel;stroke-dasharray:none;stroke-opacity:1"
     id="path949"
     inkscape:connector-curvature="0" />
  <path
     d="m 221.34687,191.95176 v -0.97119 h -1.84131 v -0.84375 h 1.84131 v -3.1333 h 1.01074 l 3.6914,3.16846 v 0.80859 h -3.99902 v 0.97119 z m 0.70312,-1.81494 h 2.95313 l -2.95313,-2.53564 z"
     style="font-style:normal;font-size:medium;text-anchor:middle;fill:none;fill-opacity:1;stroke:#000000;stroke-width:0.06614583;stroke-linecap:butt;stroke-linejoin:bevel;stroke-dasharray:none;stroke-opacity:1"
     id="path952"
     inkscape:connector-curvature="0" />
  <path
     d="m 223.16181,194.96641 v -1.05029 h 1.25244 v 1.05029 z m -3.65625,0 v -1.05029 h 1.25244 v 1.05029 z"
     style="font-style:normal;font-size:medium;text-anchor:middle;fill:none;fill-opacity:1;stroke:#000000;stroke-width:0.06614583;stroke-linecap:butt;stroke-linejoin:bevel;stroke-dasharray:none;stroke-opacity:1"
     id="path954"
     inkscape:connector-curvature="0" />
  <path
     d="m 222.65644,201.05284 q -0.18897,0.21094 -0.47461,0.34717 -0.28565,0.13623 -0.73828,0.13623 -0.44825,0 -0.82178,-0.1626 -0.37354,-0.1626 -0.65039,-0.45703 -0.30762,-0.32959 -0.45703,-0.77783 -0.14502,-0.44385 -0.14502,-0.97559 0,-0.54492 0.13183,-1.07227 0.12744,-0.52734 0.28125,-0.86572 h 0.91846 v 0.0659 q -0.24609,0.37353 -0.40869,0.87891 -0.1626,0.50537 -0.1626,0.97558 0,0.27686 0.0923,0.58887 0.0923,0.31201 0.27246,0.50537 0.19336,0.20215 0.42627,0.29883 0.23291,0.10107 0.58886,0.10107 0.35157,0 0.58008,-0.11426 0.23291,-0.10986 0.36475,-0.30761 0.13623,-0.19776 0.18457,-0.47901 0.0527,-0.28125 0.0527,-0.60644 v -0.39551 h 0.72949 v 0.30762 q 0,0.66797 0.27686,1.06347 0.28125,0.39991 0.81738,0.39991 0.23731,0 0.41309,-0.10108 0.18017,-0.10107 0.29443,-0.28125 0.11426,-0.18896 0.15821,-0.4043 0.0439,-0.21533 0.0439,-0.48779 0,-0.41748 -0.14941,-0.88769 -0.14942,-0.47022 -0.42188,-0.8877 v -0.0439 h 0.91846 q 0.15381,0.31201 0.28125,0.83056 0.13183,0.52295 0.13183,1.01075 0,0.479 -0.0879,0.84375 -0.0879,0.36474 -0.28125,0.65917 -0.21093,0.31641 -0.50976,0.47901 -0.29883,0.1626 -0.69873,0.1626 -0.54492,0 -0.95362,-0.38672 -0.40429,-0.38233 -0.50976,-0.90528 h -0.0615 q -0.0352,0.21094 -0.14942,0.4834 -0.10986,0.27246 -0.27685,0.46143 z"
     style="font-style:normal;font-size:medium;text-anchor:middle;fill:none;fill-opacity:1;stroke:#000000;stroke-width:0.06614583;stroke-linecap:butt;stroke-linejoin:bevel;stroke-dasharray:none;stroke-opacity:1"
     id="path956"
     inkscape:connector-curvature="0" />
  <path
     class="arrow"
     d="m 70.375715,571.00004 -10.000002,-10 10.000001,7.5 9.999999,-7.5 z"
     id="path52"
     style="fill:#000000;stroke:#000000;stroke-width:0.0661458;stroke-linecap:butt;stroke-linejoin:bevel;stroke-dasharray:none;stroke-opacity:1"
     inkscape:connector-curvature="0" />
  <path
     inkscape:connector-curvature="0"
     id="path959"
     style="font-style:normal;font-size:medium;text-anchor:middle;fill:none;fill-opacity:1;stroke:#000000;stroke-width:0.06614583;stroke-linecap:butt;stroke-linejoin:bevel;stroke-dasharray:none;stroke-opacity:1"
     d="m 73.066145,563.95414 h -1.079102 v 2.0459 h -0.9375 v -2.0459 h -3.481445 v -1.12305 l 3.520508,-4.10156 h 0.898437 v 4.44336 h 1.079102 z m -2.016602,-0.78125 v -3.28125 l -2.817383,3.28125 z" />
  <path
     d="m 76.255597,572.80004 h 3.541992 v 0.66797 h -1.362305 v 4.38574 h 1.362305 v 0.59766 q -0.276855,0 -0.593262,0.0439 -0.316406,0.0483 -0.479004,0.13623 -0.202148,0.10987 -0.316406,0.27686 -0.118652,0.17138 -0.13623,0.45703 h -0.681153 v -5.89746 h -1.335937 z"
     style="font-style:normal;font-size:medium;text-anchor:middle;fill:none;fill-opacity:1;stroke:#000000;stroke-width:0.06614583;stroke-linecap:butt;stroke-linejoin:bevel;stroke-dasharray:none;stroke-opacity:1"
     id="path962"
     inkscape:connector-curvature="0" />
  <path
     d="m 70.134015,578.36352 2.961914,-5.56348 h 0.94043 l -3.150879,5.77441 h 3.726562 v 0.76905 h -4.478027 z"
     style="font-style:normal;font-size:medium;text-anchor:middle;fill:none;fill-opacity:1;stroke:#000000;stroke-width:0.06614583;stroke-linecap:butt;stroke-linejoin:bevel;stroke-dasharray:none;stroke-opacity:1"
     id="path964"
     inkscape:connector-curvature="0" />
  <path
     d="m 66.98753,576.45629 h 1.050293 v 1.25244 H 66.98753 Z m 0,-3.65625 h 1.050293 v 1.25244 H 66.98753 Z"
     style="font-style:normal;font-size:medium;text-anchor:middle;fill:none;fill-opacity:1;stroke:#000000;stroke-width:0.06614583;stroke-linecap:butt;stroke-linejoin:bevel;stroke-dasharray:none;stroke-opacity:1"
     id="path966"
     inkscape:connector-curvature="0" />
  <path
     d="m 60.176007,574.64135 h 0.971191 v -1.84131 h 0.84375 v 1.84131 h 3.133301 v 1.01074 l -3.168457,3.69141 h -0.808594 v -3.99903 h -0.971191 z m 1.814941,0.70312 v 2.95313 l 2.535645,-2.95313 z"
     style="font-style:normal;font-size:medium;text-anchor:middle;fill:none;fill-opacity:1;stroke:#000000;stroke-width:0.06614583;stroke-linecap:butt;stroke-linejoin:bevel;stroke-dasharray:none;stroke-opacity:1"
     id="path968"
     inkscape:connector-curvature="0" />
  <path
     class="arrow"
     d="m 194.76188,571 -10,-10 10,7.5 10,-7.5 z"
     id="path64"
     style="fill:#000000;stroke:#000000;stroke-width:0.0661458;stroke-linecap:butt;stroke-linejoin:bevel;stroke-dasharray:none;stroke-opacity:1"
     inkscape:connector-curvature="0" />
  <path
     inkscape:connector-curvature="0"
     id="path971"
     style="font-style:normal;font-size:medium;text-anchor:middle;fill:none;fill-opacity:1;stroke:#000000;stroke-width:0.06614583;stroke-linecap:butt;stroke-linejoin:bevel;stroke-dasharray:none;stroke-opacity:1"
     d="m 197.2277,563.69044 q 0,0.50781 -0.18555,0.97168 -0.18554,0.46387 -0.50781,0.78125 -0.35156,0.3418 -0.83984,0.52734 -0.4834,0.18067 -1.12305,0.18067 -0.5957,0 -1.14746,-0.12696 -0.55176,-0.12207 -0.93262,-0.29785 v -1.03027 h 0.0684 q 0.40039,0.25391 0.9375,0.43457 0.53711,0.17578 1.05469,0.17578 0.34668,0 0.66894,-0.0977 0.32715,-0.0976 0.58106,-0.34179 0.21484,-0.20996 0.32226,-0.50293 0.11231,-0.29297 0.11231,-0.67871 0,-0.37598 -0.13184,-0.63477 -0.12695,-0.25879 -0.35644,-0.41504 -0.25391,-0.18554 -0.62012,-0.25879 -0.36133,-0.0781 -0.81055,-0.0781 -0.42968,0 -0.83007,0.0586 -0.39551,0.0586 -0.6836,0.11719 v -3.74512 h 4.375 v 0.85449 h -3.43262 v 1.9336 q 0.20997,-0.0195 0.42969,-0.0293 0.21973,-0.01 0.38086,-0.01 0.59082,0 1.03516,0.10254 0.44433,0.0977 0.81543,0.35156 0.39062,0.26856 0.60547,0.69336 0.21484,0.42481 0.21484,1.06446 z" />
  <path
     d="m 200.64176,572.8 h 3.54199 v 0.66797 h -1.3623 v 4.38574 h 1.3623 v 0.59766 q -0.27685,0 -0.59326,0.0439 -0.31641,0.0483 -0.479,0.13623 -0.20215,0.10987 -0.31641,0.27686 -0.11865,0.17138 -0.13623,0.45703 h -0.68115 v -5.89746 h -1.33594 z"
     style="font-style:normal;font-size:medium;text-anchor:middle;fill:none;fill-opacity:1;stroke:#000000;stroke-width:0.06614583;stroke-linecap:butt;stroke-linejoin:bevel;stroke-dasharray:none;stroke-opacity:1"
     id="path974"
     inkscape:connector-curvature="0" />
  <path
     d="M 194.52018,578.36348 197.48209,572.8 h 0.94043 l -3.15088,5.77441 h 3.72656 v 0.76905 h -4.47802 z"
     style="font-style:normal;font-size:medium;text-anchor:middle;fill:none;fill-opacity:1;stroke:#000000;stroke-width:0.06614583;stroke-linecap:butt;stroke-linejoin:bevel;stroke-dasharray:none;stroke-opacity:1"
     id="path976"
     inkscape:connector-curvature="0" />
  <path
     d="m 191.37369,576.45625 h 1.0503 v 1.25244 h -1.0503 z m 0,-3.65625 h 1.0503 v 1.25244 h -1.0503 z"
     style="font-style:normal;font-size:medium;text-anchor:middle;fill:none;fill-opacity:1;stroke:#000000;stroke-width:0.06614583;stroke-linecap:butt;stroke-linejoin:bevel;stroke-dasharray:none;stroke-opacity:1"
     id="path978"
     inkscape:connector-curvature="0" />
  <path
     d="m 184.76432,574.87861 q 0,-0.45703 0.16699,-0.87451 0.16699,-0.41748 0.45703,-0.70312 0.31641,-0.30762 0.75586,-0.47461 0.43506,-0.1626 1.01074,-0.1626 0.53614,0 1.03272,0.11426 0.49658,0.10986 0.83935,0.26806 v 0.92725 h -0.0615 q -0.36035,-0.22852 -0.84375,-0.39111 -0.4834,-0.15821 -0.94922,-0.15821 -0.31201,0 -0.60205,0.0879 -0.29443,0.0879 -0.52295,0.30762 -0.19336,0.18897 -0.29004,0.45264 -0.10107,0.26367 -0.10107,0.61084 0,0.33838 0.11865,0.57129 0.11426,0.23291 0.3208,0.37353 0.22852,0.16699 0.55811,0.23291 0.32519,0.0703 0.72949,0.0703 0.38672,0 0.74707,-0.0527 0.35596,-0.0527 0.61523,-0.10547 v 3.37061 h -3.9375 v -0.76905 h 3.08936 v -1.74023 q -0.18897,0.0176 -0.38672,0.0264 -0.19775,0.009 -0.34277,0.009 -0.53174,0 -0.93164,-0.0923 -0.39991,-0.0879 -0.73389,-0.3164 -0.35156,-0.2417 -0.54492,-0.62403 -0.19336,-0.38232 -0.19336,-0.95801 z"
     style="font-style:normal;font-size:medium;text-anchor:middle;fill:none;fill-opacity:1;stroke:#000000;stroke-width:0.06614583;stroke-linecap:butt;stroke-linejoin:bevel;stroke-dasharray:none;stroke-opacity:1"
     id="path980"
     inkscape:connector-curvature="0" />
  <path
     class="arrow"
     d="m 17.000039,557.55663 10.00001,-9.99999 -7.50001,9.99999 7.49999,10.00001 z"
     id="path76"
     style="fill:#000000;stroke:#000000;stroke-width:0.0661458;stroke-linecap:butt;stroke-linejoin:bevel;stroke-dasharray:none;stroke-opacity:1"
     inkscape:connector-curvature="0" />
  <path
     inkscape:connector-curvature="0"
     id="path983"
     style="font-style:normal;font-size:medium;text-anchor:middle;fill:none;fill-opacity:1;stroke:#000000;stroke-width:0.06614583;stroke-linecap:butt;stroke-linejoin:bevel;stroke-dasharray:none;stroke-opacity:1"
     d="m 26.815469,559.19823 q 0,1.1084 -0.732422,1.81153 -0.727539,0.69824 -1.78711,0.69824 -0.537109,0 -0.976562,-0.16602 -0.439453,-0.16601 -0.776367,-0.49316 -0.419922,-0.40528 -0.649414,-1.07422 -0.22461,-0.66895 -0.22461,-1.61133 0,-0.9668 0.205078,-1.71387 0.209961,-0.74707 0.664063,-1.32812 0.429687,-0.55176 1.108398,-0.85938 0.678711,-0.3125 1.582032,-0.3125 0.288086,0 0.483398,0.0244 0.195313,0.0244 0.395508,0.0879 v 0.93262 h -0.04883 q -0.136719,-0.0733 -0.415039,-0.13672 -0.273438,-0.0684 -0.561524,-0.0684 -1.049804,0 -1.674804,0.65918 -0.625,0.65429 -0.72754,1.77246 0.410157,-0.24902 0.805665,-0.37598 0.40039,-0.13183 0.922851,-0.13183 0.463867,0 0.81543,0.0879 0.356445,0.083 0.727539,0.34179 0.429687,0.29786 0.644531,0.75196 0.219727,0.4541 0.219727,1.10351 z m -0.991211,0.0391 q 0,-0.4541 -0.136719,-0.75195 -0.131836,-0.29785 -0.439453,-0.51758 -0.22461,-0.15625 -0.498047,-0.20508 -0.273438,-0.0488 -0.571289,-0.0488 -0.415039,0 -0.771484,0.0977 -0.356446,0.0977 -0.732422,0.30274 -0.0098,0.10742 -0.01465,0.20996 -0.0049,0.0977 -0.0049,0.24902 0,0.77149 0.15625,1.2207 0.161133,0.44434 0.439453,0.70313 0.224609,0.21484 0.483398,0.31738 0.263672,0.0977 0.571289,0.0977 0.708008,0 1.113282,-0.42969 0.405273,-0.43457 0.405273,-1.24512 z" />
  <path
     inkscape:connector-curvature="0"
     id="path985"
     style="font-style:normal;font-size:medium;text-anchor:middle;fill:none;fill-opacity:1;stroke:#000000;stroke-width:0.06614583;stroke-linecap:butt;stroke-linejoin:bevel;stroke-dasharray:none;stroke-opacity:1"
     d="m 29.76957,561.55663 h -1.166992 v -1.3916 h 1.166992 z" />
  <path
     d="m 15.200031,561.83251 -5e-6,4.42969 -0.918457,0 q -0.395507,-0.46143 -0.791014,-0.92286 -0.395508,-0.46582 -0.786621,-0.86572 -0.817382,-0.84375 -1.296385,-1.15576 -0.483398,-0.31202 -1.041504,-0.31202 -0.5097653,0 -0.7954102,0.33838 -0.2900394,0.33399 -0.29004,0.93604 -4e-7,0.3999 0.1406241,0.86572 0.1406246,0.46582 0.4306632,0.90967 l 0,0.0439 -0.9228516,0 q -0.1538083,-0.31201 -0.2812492,-0.83056 -0.1274409,-0.52295 -0.1274404,-1.01075 10e-7,-1.00634 0.4877946,-1.57763 0.483399,-0.57129 1.3139655,-0.57129 0.373535,0 0.69873,0.0967 0.320801,0.0923 0.61084,0.27686 0.272461,0.17138 0.536132,0.40429 0.263672,0.22852 0.584472,0.55811 0.461426,0.47021 0.896484,0.97119 0.430663,0.50098 0.799804,0.93604 l 3e-6,-3.52002 z"
     style="font-style:normal;font-size:medium;text-anchor:middle;fill:none;fill-opacity:1;stroke:#000000;stroke-width:0.06614583;stroke-linecap:butt;stroke-linejoin:bevel;stroke-dasharray:none;stroke-opacity:1"
     id="path988"
     inkscape:connector-curvature="0" />
  <path
     d="m 11.543784,558.66844 -1e-6,1.0503 -1.252441,-10e-6 10e-7,-1.05029 z m 3.65625,10e-6 -1e-6,1.05029 -1.252441,0 10e-7,-1.05029 z"
     style="font-style:normal;font-size:medium;text-anchor:middle;fill:none;fill-opacity:1;stroke:#000000;stroke-width:0.06614583;stroke-linecap:butt;stroke-linejoin:bevel;stroke-dasharray:none;stroke-opacity:1"
     id="path990"
     inkscape:connector-curvature="0" />
  <path
     d="m 13.077482,551.90966 q 0.997559,0 1.630371,0.65918 0.628417,0.65478 0.628416,1.6084 -10e-7,0.48339 -0.149415,0.8789 -0.149414,0.39551 -0.443848,0.69873 -0.364747,0.37793 -0.966798,0.58447 -0.602051,0.20215 -1.450195,0.20215 -0.870117,0 -1.542481,-0.18457 -0.672363,-0.18897 -1.1953115,-0.59766 -0.4965816,-0.38672 -0.7734365,-0.99756 -0.2812494,-0.61084 -0.2812486,-1.42383 3e-7,-0.25927 0.021973,-0.43505 0.021973,-0.17579 0.079102,-0.35596 l 0.8393555,0 -10e-8,0.0439 q -0.065918,0.12305 -0.1230472,0.37354 -0.061523,0.24609 -0.061523,0.50537 -1e-6,0.94482 0.5932602,1.50732 0.5888669,0.56251 1.5952139,0.65479 -0.224121,-0.36914 -0.338378,-0.7251 -0.118652,-0.36035 -0.118651,-0.83056 0,-0.41748 0.0791,-0.73389 0.07471,-0.3208 0.307618,-0.65478 0.268067,-0.38672 0.676759,-0.58008 0.408691,-0.19776 0.993164,-0.19775 z m 0.03515,0.89209 q -0.408691,-10e-6 -0.676758,0.12304 -0.268066,0.11865 -0.46582,0.39551 -0.140626,0.20215 -0.184571,0.44824 -0.04395,0.24609 -0.04395,0.51416 0,0.37354 0.08789,0.69434 0.08789,0.3208 0.27246,0.65918 0.09668,0.009 0.188965,0.0132 0.08789,0.004 0.224121,0.004 0.694336,0 1.098633,-0.14062 0.399902,-0.14502 0.632813,-0.39551 0.193359,-0.20215 0.285645,-0.43506 0.08789,-0.2373 0.08789,-0.51416 0,-0.63721 -0.386718,-1.00195 -0.391113,-0.36475 -1.120605,-0.36475 z"
     style="font-style:normal;font-size:medium;text-anchor:middle;fill:none;fill-opacity:1;stroke:#000000;stroke-width:0.06614583;stroke-linecap:butt;stroke-linejoin:bevel;stroke-dasharray:none;stroke-opacity:1"
     id="path992"
     inkscape:connector-curvature="0" />
  <path
     d="m 15.200043,549.25097 -1e-6,1.05029 -1.252441,0 10e-7,-1.0503 z"
     style="font-style:normal;font-size:medium;text-anchor:middle;fill:none;fill-opacity:1;stroke:#000000;stroke-width:0.06614583;stroke-linecap:butt;stroke-linejoin:bevel;stroke-dasharray:none;stroke-opacity:1"
     id="path994"
     inkscape:connector-curvature="0" />
  <path
     d="m 221.34689,555.0649 v -0.97119 h -1.84131 v -0.84375 h 1.84131 v -3.1333 h 1.01074 l 3.69141,3.16846 v 0.80859 h -3.99903 v 0.97119 z m 0.70312,-1.81494 h 2.95313 l -2.95313,-2.53565 z"
     style="font-style:normal;font-size:medium;text-anchor:middle;fill:none;fill-opacity:1;stroke:#000000;stroke-width:0.06614583;stroke-linecap:butt;stroke-linejoin:bevel;stroke-dasharray:none;stroke-opacity:1"
     id="path997"
     inkscape:connector-curvature="0" />
  <path
     d="m 223.16183,558.07955 v -1.05029 h 1.25244 v 1.05029 z m -3.65625,0 v -1.05029 h 1.25244 v 1.05029 z"
     style="font-style:normal;font-size:medium;text-anchor:middle;fill:none;fill-opacity:1;stroke:#000000;stroke-width:0.06614583;stroke-linecap:butt;stroke-linejoin:bevel;stroke-dasharray:none;stroke-opacity:1"
     id="path999"
     inkscape:connector-curvature="0" />
  <path
     d="m 225.06906,564.75924 -5.56348,-2.96192 v -0.94043 l 5.77441,3.15088 v -3.72656 h 0.76905 v 4.47803 z"
     style="font-style:normal;font-size:medium;text-anchor:middle;fill:none;fill-opacity:1;stroke:#000000;stroke-width:0.06614583;stroke-linecap:butt;stroke-linejoin:bevel;stroke-dasharray:none;stroke-opacity:1"
     id="path1001"
     inkscape:connector-curvature="0" />
</svg>
