<?xml version="1.0" encoding="UTF-8" standalone="no"?>
<svg
   xmlns:dc="http://purl.org/dc/elements/1.1/"
   xmlns:cc="http://creativecommons.org/ns#"
   xmlns:rdf="http://www.w3.org/1999/02/22-rdf-syntax-ns#"
   xmlns:svg="http://www.w3.org/2000/svg"
   xmlns="http://www.w3.org/2000/svg"
   xmlns:sodipodi="http://sodipodi.sourceforge.net/DTD/sodipodi-0.dtd"
   xmlns:inkscape="http://www.inkscape.org/namespaces/inkscape"
   version="1.1"
   width="300.00mm"
   height="600.00mm"
   viewBox="0 0 300.00 600.00"
   id="svg938"
   sodipodi:docname="backrest_page14.svg"
   inkscape:version="0.92.2 (5c3e80d, 2017-08-06)">
  <metadata
     id="metadata79">
    <rdf:RDF>
      <cc:Work
         rdf:about="">
        <dc:format>image/svg+xml</dc:format>
        <dc:type
           rdf:resource="http://purl.org/dc/dcmitype/StillImage" />
      </cc:Work>
    </rdf:RDF>
  </metadata>
  <defs
     id="defs942" />
  <sodipodi:namedview
     id="namedview940"
     pagecolor="#ffffff"
     bordercolor="#666666"
     borderopacity="1.0"
     inkscape:pageshadow="2"
     inkscape:pageopacity="0.0"
     inkscape:pagecheckerboard="0"
     inkscape:document-units="mm"
     showgrid="false"
     inkscape:zoom="0.70114584"
     inkscape:cx="491.08141"
     inkscape:cy="1228.272"
     inkscape:window-width="1920"
     inkscape:window-height="1017"
     inkscape:window-x="-8"
     inkscape:window-y="209"
     inkscape:window-maximized="1"
     inkscape:current-layer="svg938" />
  <style
     type="text/css"
     id="style824">
    path {
        fill: none;
        stroke-linecap: butt;
        stroke-linejoin: bevel;
        stroke-dasharray: none;
    }
    path.outer {
        stroke: #000000;
        stroke-dasharray: none;
        stroke-dashoffset: 0;
        stroke-width: 0.3;
        stroke-opacity: 1.0;
    }
    path.convex {
        stroke: #000000;
        stroke-dasharray: 0.50,1.00;
        stroke-dashoffset:0;
        stroke-width:0.2;
        stroke-opacity: 1.0
    }
    path.concave {
        stroke: #000000;
        stroke-dasharray: 1.00,0.50,0.20,0.50;
        stroke-dashoffset: 0;
        stroke-width: 0.2;
        stroke-opacity: 1.0
    }
    path.freestyle {
        stroke: #000000;
        stroke-dasharray: none;
        stroke-dashoffset: 0;
        stroke-width: 0.2;
        stroke-opacity: 1.0
    }
    path.outer_background {
        stroke: #ffffff;
        stroke-opacity: 1.0;
        stroke-width: 0.5
    }
    path.inner_background {
        stroke: #ffffff;
        stroke-opacity: 1.0;
        stroke-width: 0.2
    }
    path.sticker {
        fill: #e5e5e5;
        stroke: none;
        fill-opacity: 1.0;
    }
    path.arrow {
        fill: #000000;
    }
    text {
        font-style: normal;
        fill: #000000;
        fill-opacity: 1.0;
        stroke: none;
    }
    text, tspan {
        text-anchor:middle;
    }
    </style>
  <g
     id="g1245">
    <path
       d="M 68.055733,372.13525 H 65.51667 v -9.51171 h 2.539063 v 0.69824 H 66.36628 v 8.11523 h 1.689453 z"
       style="font-style:normal;font-size:medium;text-anchor:middle;fill:none;fill-opacity:1;stroke:#000000;stroke-width:0.25;stroke-linecap:butt;stroke-linejoin:bevel;stroke-dasharray:none;stroke-opacity:1"
       id="path1174"
       inkscape:connector-curvature="0" />
    <path
       d="m 74.715889,367.86279 q 0,1.1084 -0.732422,1.81153 -0.727539,0.69824 -1.787109,0.69824 -0.53711,0 -0.976563,-0.16602 -0.439453,-0.16601 -0.776367,-0.49316 -0.419922,-0.40527 -0.649414,-1.07422 -0.224609,-0.66895 -0.224609,-1.61133 0,-0.96679 0.205078,-1.71387 0.209961,-0.74707 0.664062,-1.32812 0.429688,-0.55176 1.108399,-0.85938 0.678711,-0.3125 1.582031,-0.3125 0.288086,0 0.483398,0.0244 0.195313,0.0244 0.395508,0.0879 v 0.93262 h -0.04883 q -0.136719,-0.0732 -0.415039,-0.13672 -0.273438,-0.0684 -0.561523,-0.0684 -1.049805,0 -1.674805,0.65918 -0.625,0.6543 -0.727539,1.77246 0.410156,-0.24902 0.805664,-0.37598 0.40039,-0.13183 0.922851,-0.13183 0.463868,0 0.81543,0.0879 0.356445,0.083 0.727539,0.34179 0.429688,0.29786 0.644531,0.75196 0.219727,0.4541 0.219727,1.10351 z m -0.991211,0.0391 q 0,-0.45411 -0.136719,-0.75196 -0.131836,-0.29785 -0.439453,-0.51758 -0.224609,-0.15625 -0.498047,-0.20507 -0.273437,-0.0488 -0.571289,-0.0488 -0.415039,0 -0.771484,0.0976 -0.356445,0.0977 -0.732422,0.30274 -0.0098,0.10742 -0.01465,0.20996 -0.0049,0.0977 -0.0049,0.24902 0,0.77149 0.15625,1.22071 0.161133,0.44433 0.439453,0.70312 0.224609,0.21484 0.483398,0.31738 0.263672,0.0977 0.571289,0.0977 0.708008,0 1.113282,-0.42969 0.405273,-0.43457 0.405273,-1.24511 z"
       style="font-style:normal;font-size:medium;text-anchor:middle;fill:none;fill-opacity:1;stroke:#000000;stroke-width:0.25;stroke-linecap:butt;stroke-linejoin:bevel;stroke-dasharray:none;stroke-opacity:1"
       id="path1176"
       inkscape:connector-curvature="0" />
    <path
       d="m 77.669991,370.22119 h -1.166993 v -1.3916 h 1.166993 z"
       style="font-style:normal;font-size:medium;text-anchor:middle;fill:none;fill-opacity:1;stroke:#000000;stroke-width:0.25;stroke-linecap:butt;stroke-linejoin:bevel;stroke-dasharray:none;stroke-opacity:1"
       id="path1178"
       inkscape:connector-curvature="0" />
    <path
       d="M 82.274483,372.13525 H 79.73542 v -0.69824 h 1.689453 v -8.11523 H 79.73542 v -0.69824 h 2.539063 z"
       style="font-style:normal;font-size:medium;text-anchor:middle;fill:none;fill-opacity:1;stroke:#000000;stroke-width:0.25;stroke-linecap:butt;stroke-linejoin:bevel;stroke-dasharray:none;stroke-opacity:1"
       id="path1180"
       inkscape:connector-curvature="0" />
    <path
       d="M 90.506905,370.22119 H 87.635811 V 369.479 h 0.952148 v -5.78613 h -0.952148 v -0.74219 h 2.871094 v 0.74219 h -0.952149 v 5.78613 h 0.952149 z"
       style="font-style:normal;font-size:medium;text-anchor:middle;fill:none;fill-opacity:1;stroke:#000000;stroke-width:0.25;stroke-linecap:butt;stroke-linejoin:bevel;stroke-dasharray:none;stroke-opacity:1"
       id="path1182"
       inkscape:connector-curvature="0" />
    <path
       d="m 100.51667,367.86279 q 0,1.1084 -0.732422,1.81153 -0.727539,0.69824 -1.787109,0.69824 -0.537109,0 -0.976563,-0.16602 -0.439453,-0.16601 -0.776367,-0.49316 -0.419922,-0.40527 -0.649414,-1.07422 -0.224609,-0.66895 -0.224609,-1.61133 0,-0.96679 0.205078,-1.71387 0.209961,-0.74707 0.664062,-1.32812 0.429688,-0.55176 1.108399,-0.85938 0.678711,-0.3125 1.582031,-0.3125 0.288086,0 0.483399,0.0244 0.195312,0.0244 0.395507,0.0879 v 0.93262 h -0.04883 q -0.136718,-0.0732 -0.415039,-0.13672 -0.273437,-0.0684 -0.561523,-0.0684 -1.049805,0 -1.674805,0.65918 -0.625,0.6543 -0.727539,1.77246 0.410156,-0.24902 0.805664,-0.37598 0.400391,-0.13183 0.922852,-0.13183 0.463867,0 0.815429,0.0879 0.356446,0.083 0.727539,0.34179 0.42969,0.29786 0.64453,0.75196 0.21973,0.4541 0.21973,1.10351 z m -0.991211,0.0391 q 0,-0.45411 -0.136718,-0.75196 -0.131836,-0.29785 -0.439454,-0.51758 -0.224609,-0.15625 -0.498046,-0.20507 -0.273438,-0.0488 -0.57129,-0.0488 -0.415039,0 -0.771484,0.0976 -0.356445,0.0977 -0.732422,0.30274 -0.0098,0.10742 -0.01465,0.20996 -0.0049,0.0977 -0.0049,0.24902 0,0.77149 0.15625,1.22071 0.161133,0.44433 0.439453,0.70312 0.224609,0.21484 0.483399,0.31738 0.263671,0.0977 0.571289,0.0977 0.708007,0 1.113281,-0.42969 0.405273,-0.43457 0.405273,-1.24511 z"
       style="font-style:normal;font-size:medium;text-anchor:middle;fill:none;fill-opacity:1;stroke:#000000;stroke-width:0.25;stroke-linecap:butt;stroke-linejoin:bevel;stroke-dasharray:none;stroke-opacity:1"
       id="path1184"
       inkscape:connector-curvature="0" />
    <path
       style="stroke:#000000;stroke-opacity:1;stroke-width:0.25"
       id="path872"
       d="m 90.452884,276.30496 -7.307924,-5.60821 10.811508,-14.55608 7.480482,5.37587 z m -10.138206,50.61453 -9.774379,-2.11805 10.076493,-50.30647 9.836092,1.80999 z M 22.262787,435.60412 12.367834,437.05826 5,391.86914 14.844407,390.1049 Z m 21.42255,-102.71242 -1.454153,-9.89494 36.319256,-5.92166 1.764238,9.84439 z M 14.844407,390.1049 5,388.34065 l 4.731841,-29.02142 9.894945,1.45416 z m 4.782379,-29.33151 -7.468425,-6.65186 23.853287,-27.6438 7.673689,6.41397 z m 83.877974,-86.5965 9.89495,-1.45417 11.27467,69.1508 -9.84439,1.76427 z m -2.06781,-12.66035 6.34642,-0.93446 2.03532,12.46146 -6.31393,1.13335 z m 13.39304,82.12125 9.89496,-1.45414 12.1587,74.57302 -9.84439,1.76424 z m 37.80453,231.88862 -5.38544,7.47362 -14.8753,-10.36799 5.14804,-7.63908 z m -15.1127,-10.53345 -8.75173,4.84064 -25.53426,-44.50038 8.59538,-5.11312 z m -107.840624,-83.88962 -9.89496,1.45415 -7.367842,-45.18913 9.844393,-1.76424 z m 82.150014,39.11676 1.45415,9.89493 -36.319241,5.92166 -1.764238,-9.84436 z m -68.298312,-12.82345 -8.920573,4.52195 -13.705283,-26.01536 8.774154,-4.7999 z m 31.668983,18.79568 -5.238928,8.51926 -31.39878,-18.6353 4.968725,-8.67964 z m 64.046669,-32.7883 9.89496,-1.45416 11.2746,69.15082 -9.84441,1.76423 z m 11.32515,69.46089 6.34695,-0.93093 2.02843,12.46259 -6.31456,1.12983 z m -23.53444,-144.34401 9.89495,-1.45416 12.15874,74.57302 -9.8444,1.76426 z"
       class="sticker" />
    <path
       d="m 92.958319,270.15125 -1.945365,2.61915 -0.49393,-0.36687 0.748221,-1.00737 -3.243061,-2.40877 -0.748221,1.00736 -0.441933,-0.32824 q 0.15206,-0.20473 0.293323,-0.46284 0.138058,-0.26051 0.162352,-0.42903 0.02978,-0.20982 -0.03094,-0.38603 -0.06157,-0.18187 -0.263137,-0.35175 l 0.37411,-0.50368 4.360908,3.23905 0.733731,-0.98785 z"
       style="font-style:normal;font-size:medium;text-anchor:middle;fill:none;fill-opacity:1;stroke:#000000;stroke-width:0.25;stroke-linecap:butt;stroke-linejoin:bevel;stroke-dasharray:none;stroke-opacity:1"
       id="path1187"
       inkscape:connector-curvature="0" />
    <path
       d="m 92.19764,265.52724 -0.576847,0.77664 -0.926126,-0.68788 0.576848,-0.77664 z m 2.70363,2.00812 -0.576847,0.77664 -0.926118,-0.68787 0.576847,-0.77664 z"
       style="font-style:normal;font-size:medium;text-anchor:middle;fill:none;fill-opacity:1;stroke:#000000;stroke-width:0.25;stroke-linecap:butt;stroke-linejoin:bevel;stroke-dasharray:none;stroke-opacity:1"
       id="path1189"
       inkscape:connector-curvature="0" />
    <path
       d="m 103.33729,265.98949 -0.45778,-2.8028 0.58113,-0.0949 q 0.29793,0.25109 0.59587,0.50217 0.29839,0.25387 0.58718,0.46647 0.60438,0.4494 0.9397,0.59731 0.33811,0.14747 0.69123,0.0898 0.32255,-0.0527 0.46831,-0.2963 0.149,-0.24129 0.0868,-0.62224 -0.0413,-0.25302 -0.17844,-0.53322 -0.13712,-0.28021 -0.3665,-0.53107 l -0.005,-0.0278 0.58391,-0.0954 q 0.12957,0.18152 0.26379,0.49645 0.13467,0.31771 0.18508,0.62635 0.104,0.63675 -0.1456,1.04863 -0.24682,0.41142 -0.77234,0.49726 -0.23635,0.0386 -0.4521,0.011 -0.21252,-0.0253 -0.41511,-0.11206 -0.1901,-0.0803 -0.381,-0.2004 -0.19045,-0.11734 -0.42749,-0.29272 -0.34055,-0.24983 -0.6676,-0.52185 -0.32426,-0.27249 -0.60279,-0.50961 l 0.36377,2.22722 z"
       style="font-style:normal;font-size:medium;text-anchor:middle;fill:none;fill-opacity:1;stroke:#000000;stroke-width:0.25;stroke-linecap:butt;stroke-linejoin:bevel;stroke-dasharray:none;stroke-opacity:1"
       id="path1194"
       inkscape:connector-curvature="0" />
    <path
       d="m 105.97768,267.61362 -0.10854,-0.66455 0.79245,-0.12943 0.10854,0.66455 z m -2.31341,0.37785 -0.10854,-0.66455 0.79245,-0.12943 0.10854,0.66455 z"
       style="font-style:normal;font-size:medium;text-anchor:middle;fill:none;fill-opacity:1;stroke:#000000;stroke-width:0.25;stroke-linecap:butt;stroke-linejoin:bevel;stroke-dasharray:none;stroke-opacity:1"
       id="path1196"
       inkscape:connector-curvature="0" />
    <path
       d="m 104.35276,272.20677 -0.45778,-2.80279 0.58113,-0.0949 q 0.29793,0.25109 0.59587,0.50217 0.29839,0.25387 0.58718,0.46648 0.60438,0.4494 0.9397,0.59731 0.3381,0.14746 0.69123,0.0898 0.32254,-0.0527 0.46831,-0.29629 0.149,-0.24131 0.0868,-0.62224 -0.0413,-0.25303 -0.17844,-0.53323 -0.13712,-0.2802 -0.36651,-0.53106 l -0.005,-0.0278 0.58391,-0.0954 q 0.12957,0.18152 0.26379,0.49646 0.13467,0.31771 0.18508,0.62635 0.104,0.63674 -0.1456,1.04862 -0.24682,0.41143 -0.77234,0.49726 -0.23635,0.0386 -0.4521,0.011 -0.21252,-0.0253 -0.41511,-0.11205 -0.1901,-0.0803 -0.381,-0.2004 -0.19045,-0.11734 -0.42749,-0.29272 -0.34055,-0.24983 -0.6676,-0.52186 -0.32426,-0.27248 -0.60279,-0.5096 l 0.36377,2.22722 z"
       style="font-style:normal;font-size:medium;text-anchor:middle;fill:none;fill-opacity:1;stroke:#000000;stroke-width:0.25;stroke-linecap:butt;stroke-linejoin:bevel;stroke-dasharray:none;stroke-opacity:1"
       id="path1198"
       inkscape:connector-curvature="0" />
    <path
       d="m 146.40821,573.2076 2.67658,1.86555 -0.35182,0.50477 -1.02945,-0.71752 -2.30996,3.31417 1.02945,0.71752 -0.31478,0.45163 q -0.20921,-0.14581 -0.47147,-0.27924 -0.26454,-0.13014 -0.43372,-0.14935 -0.21062,-0.0234 -0.38491,0.0426 -0.17994,0.067 -0.34367,0.27362 l -0.51472,-0.35877 3.10617,-4.45653 -1.00953,-0.70364 z"
       style="font-style:normal;font-size:medium;text-anchor:middle;fill:none;fill-opacity:1;stroke:#000000;stroke-width:0.25;stroke-linecap:butt;stroke-linejoin:bevel;stroke-dasharray:none;stroke-opacity:1"
       id="path1201"
       inkscape:connector-curvature="0" />
    <path
       d="m 141.80922,574.10727 0.79368,0.55319 -0.65966,0.94643 -0.79368,-0.55319 z m 1.92574,-2.76291 0.79367,0.55318 -0.65966,0.94644 -0.79367,-0.55319 z"
       style="font-style:normal;font-size:medium;text-anchor:middle;fill:none;fill-opacity:1;stroke:#000000;stroke-width:0.25;stroke-linecap:butt;stroke-linejoin:bevel;stroke-dasharray:none;stroke-opacity:1"
       id="path1203"
       inkscape:connector-curvature="0" />
    <path
       d="m 138.70061,567.83545 3.34738,2.3331 -0.48375,0.69405 q -0.557,0.0558 -1.114,0.11169 -0.56032,0.0535 -1.06851,0.13844 -1.06811,0.17327 -1.55617,0.37091 -0.49039,0.20095 -0.78434,0.6227 -0.26849,0.38521 -0.16324,0.77929 0.0996,0.39508 0.55457,0.71218 0.3022,0.21063 0.72827,0.34971 0.42607,0.13907 0.91424,0.15368 l 0.0332,0.0232 -0.48606,0.69737 q -0.31679,-0.0481 -0.77577,-0.22493 -0.4623,-0.17913 -0.83091,-0.43605 -0.76046,-0.53004 -0.93525,-1.19955 -0.1771,-0.66618 0.26036,-1.29381 0.19674,-0.28228 0.44111,-0.47707 0.2387,-0.19382 0.53094,-0.31577 0.27302,-0.11562 0.5879,-0.1922 0.31155,-0.0789 0.72958,-0.14772 0.59835,-0.10102 1.20608,-0.16592 0.60539,-0.0616 1.12858,-0.11138 l -2.65997,-1.85399 z"
       style="font-style:normal;font-size:medium;text-anchor:middle;fill:none;fill-opacity:1;stroke:#000000;stroke-width:0.25;stroke-linecap:butt;stroke-linejoin:bevel;stroke-dasharray:none;stroke-opacity:1"
       id="path1205"
       inkscape:connector-curvature="0" />
    <path
       d="m 152.4716,567.33895 -0.45623,-2.80305 0.58119,-0.0946 q 0.29779,0.25125 0.59559,0.5025 0.29825,0.25403 0.58692,0.4668 0.60413,0.44973 0.93937,0.59783 0.33802,0.14765 0.69118,0.0902 0.32257,-0.0525 0.46848,-0.29604 0.14913,-0.24121 0.0871,-0.62219 -0.0412,-0.25305 -0.17815,-0.53333 -0.13696,-0.28027 -0.36621,-0.53127 l -0.005,-0.0278 0.58397,-0.0951 q 0.12946,0.18159 0.26351,0.4966 0.1345,0.31779 0.18474,0.62646 0.10365,0.6368 -0.14618,1.04854 -0.24705,0.41129 -0.77262,0.49683 -0.23637,0.0385 -0.45211,0.0108 -0.21251,-0.0254 -0.41504,-0.11228 -0.19006,-0.0804 -0.3809,-0.20062 -0.19038,-0.11744 -0.42732,-0.29295 -0.34041,-0.25002 -0.66731,-0.52223 -0.32412,-0.27266 -0.60251,-0.50994 l 0.36254,2.22742 z"
       style="font-style:normal;font-size:medium;text-anchor:middle;fill:none;fill-opacity:1;stroke:#000000;stroke-width:0.25;stroke-linecap:butt;stroke-linejoin:bevel;stroke-dasharray:none;stroke-opacity:1"
       id="path1208"
       inkscape:connector-curvature="0" />
    <path
       d="m 155.11109,568.96454 -0.10817,-0.6646 0.79252,-0.12899 0.10818,0.6646 z m -2.31362,0.37657 -0.10817,-0.66461 0.79253,-0.12899 0.10817,0.66461 z"
       style="font-style:normal;font-size:medium;text-anchor:middle;fill:none;fill-opacity:1;stroke:#000000;stroke-width:0.25;stroke-linecap:butt;stroke-linejoin:bevel;stroke-dasharray:none;stroke-opacity:1"
       id="path1210"
       inkscape:connector-curvature="0" />
    <path
       d="m 154.66416,573.4617 -0.10003,-0.61456 -1.16515,0.18964 -0.0869,-0.53391 1.16516,-0.18964 -0.32271,-1.98271 0.63958,-0.1041 2.66219,1.62477 0.0833,0.51166 -2.53052,0.41187 0.10003,0.61456 z m 0.258,-1.22088 1.86869,-0.30415 -2.12984,-1.30037 z"
       style="font-style:normal;font-size:medium;text-anchor:middle;fill:none;fill-opacity:1;stroke:#000000;stroke-width:0.25;stroke-linecap:butt;stroke-linejoin:bevel;stroke-dasharray:none;stroke-opacity:1"
       id="path1212"
       inkscape:connector-curvature="0" />
    <path
       d="m 196.15984,417.93158 h -2.53907 v -9.51172 h 2.53907 v 0.69824 h -1.68946 v 8.11524 h 1.68946 z"
       style="font-style:normal;font-size:medium;text-anchor:middle;fill:none;fill-opacity:1;stroke:#000000;stroke-width:0.25;stroke-linecap:butt;stroke-linejoin:bevel;stroke-dasharray:none;stroke-opacity:1"
       id="path1215"
       inkscape:connector-curvature="0" />
    <path
       d="m 202.29753,416.01752 h -3.93555 v -0.74219 h 1.51368 v -4.87305 h -1.51368 v -0.66406 q 0.30762,0 0.65918,-0.0488 0.35157,-0.0537 0.53223,-0.15137 0.22461,-0.12207 0.35156,-0.30761 0.13184,-0.19043 0.15137,-0.50781 h 0.75684 v 6.55273 h 1.48437 z"
       style="font-style:normal;font-size:medium;text-anchor:middle;fill:none;fill-opacity:1;stroke:#000000;stroke-width:0.25;stroke-linecap:butt;stroke-linejoin:bevel;stroke-dasharray:none;stroke-opacity:1"
       id="path1217"
       inkscape:connector-curvature="0" />
    <path
       d="m 209.06999,411.94525 q 0,0.95215 -0.21972,1.72852 -0.21485,0.77636 -0.6543,1.32324 -0.44434,0.55664 -1.11328,0.85937 -0.66895,0.30274 -1.57227,0.30274 -0.2539,0 -0.47851,-0.0293 -0.22461,-0.0244 -0.40039,-0.083 v -0.93261 h 0.0488 q 0.14161,0.0732 0.40039,0.1416 0.25879,0.0635 0.57618,0.0635 1.0791,0 1.68945,-0.64453 0.61523,-0.64941 0.71289,-1.78711 -0.4541,0.27344 -0.85449,0.39063 -0.40039,0.11719 -0.87403,0.11719 -0.44921,0 -0.81543,-0.0879 -0.36132,-0.0879 -0.72753,-0.3418 -0.42969,-0.29785 -0.64942,-0.75684 -0.21484,-0.45898 -0.21484,-1.09863 0,-1.11328 0.73242,-1.81152 0.73242,-0.69825 1.78711,-0.69825 0.52734,0 0.97656,0.16602 0.44922,0.16113 0.78613,0.48828 0.41504,0.40528 0.63965,1.04492 0.22461,0.63477 0.22461,1.64551 z m -0.98633,-0.20996 q 0,-0.75684 -0.15625,-1.21582 -0.15625,-0.45898 -0.42968,-0.71289 -0.2295,-0.21973 -0.49317,-0.3125 -0.26367,-0.0977 -0.57129,-0.0977 -0.70312,0 -1.11328,0.43946 -0.40527,0.43945 -0.40527,1.23535 0,0.46387 0.13183,0.75683 0.13184,0.29297 0.44434,0.5127 0.21973,0.15137 0.4834,0.20508 0.26367,0.0488 0.58594,0.0488 0.38086,0 0.77148,-0.10254 0.39063,-0.10254 0.73242,-0.29786 0.005,-0.10253 0.01,-0.20019 0.01,-0.10254 0.01,-0.25879 z"
       style="font-style:normal;font-size:medium;text-anchor:middle;fill:none;fill-opacity:1;stroke:#000000;stroke-width:0.25;stroke-linecap:butt;stroke-linejoin:bevel;stroke-dasharray:none;stroke-opacity:1"
       id="path1219"
       inkscape:connector-curvature="0" />
    <path
       d="m 213.11296,417.93158 h -2.53906 v -0.69824 h 1.68945 v -8.11524 h -1.68945 v -0.69824 h 2.53906 z"
       style="font-style:normal;font-size:medium;text-anchor:middle;fill:none;fill-opacity:1;stroke:#000000;stroke-width:0.25;stroke-linecap:butt;stroke-linejoin:bevel;stroke-dasharray:none;stroke-opacity:1"
       id="path1221"
       inkscape:connector-curvature="0" />
    <path
       d="m 221.34538,416.01752 h -2.87109 v -0.74219 h 0.95215 v -5.78613 h -0.95215 v -0.74219 h 2.87109 v 0.74219 h -0.95215 v 5.78613 h 0.95215 z"
       style="font-style:normal;font-size:medium;text-anchor:middle;fill:none;fill-opacity:1;stroke:#000000;stroke-width:0.25;stroke-linecap:butt;stroke-linejoin:bevel;stroke-dasharray:none;stroke-opacity:1"
       id="path1223"
       inkscape:connector-curvature="0" />
    <path
       d="m 230.83269,416.01752 h -3.93555 v -0.74219 h 1.51367 v -4.87305 h -1.51367 v -0.66406 q 0.30762,0 0.65918,-0.0488 0.35156,-0.0537 0.53223,-0.15137 0.22461,-0.12207 0.35156,-0.30761 0.13184,-0.19043 0.15137,-0.50781 h 0.75683 v 6.55273 h 1.48438 z"
       style="font-style:normal;font-size:medium;text-anchor:middle;fill:none;fill-opacity:1;stroke:#000000;stroke-width:0.25;stroke-linecap:butt;stroke-linejoin:bevel;stroke-dasharray:none;stroke-opacity:1"
       id="path1225"
       inkscape:connector-curvature="0" />
    <path
       d="m 237.60515,411.94525 q 0,0.95215 -0.21973,1.72852 -0.21484,0.77636 -0.6543,1.32324 -0.44433,0.55664 -1.11328,0.85937 -0.66894,0.30274 -1.57226,0.30274 -0.25391,0 -0.47852,-0.0293 -0.22461,-0.0244 -0.40039,-0.083 v -0.93261 h 0.0488 q 0.1416,0.0732 0.40039,0.1416 0.25879,0.0635 0.57617,0.0635 1.0791,0 1.68946,-0.64453 0.61523,-0.64941 0.71289,-1.78711 -0.45411,0.27344 -0.8545,0.39063 -0.40039,0.11719 -0.87402,0.11719 -0.44922,0 -0.81543,-0.0879 -0.36133,-0.0879 -0.72754,-0.3418 -0.42969,-0.29785 -0.64941,-0.75684 -0.21485,-0.45898 -0.21485,-1.09863 0,-1.11328 0.73243,-1.81152 0.73242,-0.69825 1.78711,-0.69825 0.52734,0 0.97656,0.16602 0.44922,0.16113 0.78613,0.48828 0.41504,0.40528 0.63965,1.04492 0.22461,0.63477 0.22461,1.64551 z m -0.98633,-0.20996 q 0,-0.75684 -0.15625,-1.21582 -0.15625,-0.45898 -0.42969,-0.71289 -0.22949,-0.21973 -0.49316,-0.3125 -0.26367,-0.0977 -0.57129,-0.0977 -0.70313,0 -1.11328,0.43946 -0.40528,0.43945 -0.40528,1.23535 0,0.46387 0.13184,0.75683 0.13184,0.29297 0.44434,0.5127 0.21972,0.15137 0.4834,0.20508 0.26367,0.0488 0.58593,0.0488 0.38086,0 0.77149,-0.10254 0.39062,-0.10254 0.73242,-0.29786 0.005,-0.10253 0.01,-0.20019 0.01,-0.10254 0.01,-0.25879 z"
       style="font-style:normal;font-size:medium;text-anchor:middle;fill:none;fill-opacity:1;stroke:#000000;stroke-width:0.25;stroke-linecap:butt;stroke-linejoin:bevel;stroke-dasharray:none;stroke-opacity:1"
       id="path1227"
       inkscape:connector-curvature="0" />
    <path
       style="stroke:#000000;stroke-opacity:1;stroke-width:0.25"
       id="path898"
       d="m 242.7533,481.70923 9.78121,-2.08628 20.7941,90.49774 -9.71085,2.3925 z m -68.54436,-91.87271 -8.24345,-5.66307 21.28648,-32.05309 8.9584,4.58648 z m 78.11913,24.26922 9.87915,1.55785 -9.5307,67.29241 -9.92322,-1.24677 z m 11.28969,158.40745 -0.61697,9.98219 -84.82428,-3.9066 0.30314,-9.99664 z m -89.5088,-103.41007 -9.96933,0.79842 -3.72152,-38.79928 9.93932,-1.11117 z m -3.75153,-39.11203 -9.93932,-1.11116 3.82151,-39.84182 9.96932,0.79841 z m 8.12222,138.60105 -10.04409,-0.78393 -4.31007,-98.10925 9.98347,-0.59584 z m 17.73072,-211.8853 7.26025,-6.87848 55.89804,57.17425 -7.04059,7.10313 z"
       class="sticker" />
    <path
       d="m 253.62317,520.9776 -0.79319,-3.45203 0.651,-0.14959 0.30507,1.3277 4.27437,-0.98214 -0.30507,-1.3277 0.58247,-0.13384 q 0.062,0.26982 0.17564,0.56837 0.11793,0.29755 0.24003,0.43632 0.15234,0.17242 0.34068,0.24638 0.19361,0.0773 0.47593,0.0304 l 0.15254,0.66386 -5.74769,1.32067 0.29917,1.30201 z"
       style="font-style:normal;font-size:medium;text-anchor:middle;fill:none;fill-opacity:1;stroke:#000000;stroke-width:0.25;stroke-linecap:butt;stroke-linejoin:bevel;stroke-dasharray:none;stroke-opacity:1"
       id="path1230"
       inkscape:connector-curvature="0" />
    <path
       d="m 257.00411,526.4097 q -0.44542,0.10235 -0.8897,0.0331 -0.44427,-0.0693 -0.78761,-0.28796 -0.37067,-0.23949 -0.63183,-0.63038 -0.2559,-0.3876 -0.38481,-0.94866 -0.12007,-0.52252 -0.11991,-1.03208 -0.004,-0.50857 0.0733,-0.87806 l 0.90369,-0.20765 0.0138,0.0599 q -0.14201,0.40237 -0.19223,0.90991 -0.0459,0.50655 0.0584,0.96054 0.0699,0.30408 0.22049,0.56707 0.1516,0.26727 0.41691,0.44078 0.22747,0.14614 0.50609,0.18131 0.27961,0.0395 0.61796,-0.0383 0.32979,-0.0758 0.53021,-0.24357 0.20141,-0.16352 0.29221,-0.39631 0.11158,-0.26011 0.10202,-0.59609 -0.004,-0.33268 -0.0949,-0.72671 -0.0866,-0.3769 -0.21866,-0.71629 -0.13107,-0.33512 -0.24056,-0.57599 l 3.28499,-0.75481 0.88176,3.8375 -0.74951,0.17222 -0.69182,-3.0109 -1.69605,0.38971 q 0.0595,0.18023 0.11233,0.37098 0.0531,0.19072 0.0855,0.33205 0.11908,0.51824 0.11868,0.92865 0.004,0.40944 -0.14403,0.78611 -0.15683,0.39676 -0.48614,0.67082 -0.32932,0.27407 -0.89038,0.40299 z"
       style="font-style:normal;font-size:medium;text-anchor:middle;fill:none;fill-opacity:1;stroke:#000000;stroke-width:0.25;stroke-linecap:butt;stroke-linejoin:bevel;stroke-dasharray:none;stroke-opacity:1"
       id="path1232"
       inkscape:connector-curvature="0" />
    <path
       d="m 259.26204,529.19152 -0.2352,-1.02363 1.22064,-0.28047 0.2352,1.02362 z m -3.56339,0.81877 -0.23521,-1.02362 1.22065,-0.28048 0.2352,1.02363 z"
       style="font-style:normal;font-size:medium;text-anchor:middle;fill:none;fill-opacity:1;stroke:#000000;stroke-width:0.25;stroke-linecap:butt;stroke-linejoin:bevel;stroke-dasharray:none;stroke-opacity:1"
       id="path1234"
       inkscape:connector-curvature="0" />
    <path
       d="m 257.19055,536.50321 -0.99198,-4.31719 0.89514,-0.20568 q 0.4888,0.36114 0.97759,0.72227 0.48978,0.36542 0.96051,0.66758 0.98557,0.63928 1.52229,0.8361 0.54098,0.19584 1.08492,0.0709 0.49681,-0.11416 0.69943,-0.50791 0.20788,-0.39046 0.0731,-0.97722 -0.0896,-0.38975 -0.33093,-0.81224 -0.24136,-0.4225 -0.62343,-0.79013 l -0.01,-0.0428 0.89941,-0.20667 q 0.21978,0.26965 0.4601,0.74649 0.24132,0.48113 0.35055,0.95654 0.22536,0.98078 -0.12211,1.6468 -0.34318,0.66503 -1.15266,0.85103 -0.36404,0.0836 -0.70264,0.0622 -0.33332,-0.0181 -0.65732,-0.13303 -0.30393,-0.10602 -0.61306,-0.27397 -0.30814,-0.16367 -0.69461,-0.41305 -0.555,-0.35494 -1.0912,-0.74577 -0.53191,-0.39181 -0.98911,-0.73315 l 0.78827,3.43062 z"
       style="font-style:normal;font-size:medium;text-anchor:middle;fill:none;fill-opacity:1;stroke:#000000;stroke-width:0.25;stroke-linecap:butt;stroke-linejoin:bevel;stroke-dasharray:none;stroke-opacity:1"
       id="path1236"
       inkscape:connector-curvature="0" />
    <path
       d="m 180.75661,373.42678 q 0.70653,0.46922 0.80801,1.33319 0.10392,0.8603 -0.45038,1.69497 -0.58834,0.8859 -1.39603,1.10917 -0.80525,0.2196 -1.5191,-0.25447 -0.45394,-0.30146 -0.64498,-0.80815 -0.1947,-0.50913 -0.0922,-1.13213 l -0.022,-0.0146 q -0.52603,0.2837 -0.94526,0.31127 -0.41678,0.0239 -0.83412,-0.25326 -0.61501,-0.40843 -0.68953,-1.18591 -0.0745,-0.77748 0.44332,-1.55723 0.54214,-0.81635 1.2572,-1.04311 0.71504,-0.22676 1.31907,0.17438 0.36975,0.24555 0.57534,0.71443 0.20194,0.46645 0.10668,1.04678 l 0.022,0.0146 q 0.56001,-0.36665 1.06206,-0.4236 0.50206,-0.057 0.99993,0.27366 z m -3.23758,-0.89982 q -0.39171,-0.26014 -0.82412,-0.10945 -0.43365,0.14459 -0.74483,0.61318 -0.30633,0.46126 -0.2836,0.90365 0.0251,0.43873 0.39855,0.68671 0.26358,0.17504 0.55485,0.15746 0.29004,-0.0237 0.63949,-0.22419 0.15584,-0.0917 0.42976,-0.27377 0.27634,-0.18575 0.50634,-0.38118 -9.3e-4,-0.52287 -0.16846,-0.83459 -0.16753,-0.31173 -0.50798,-0.53782 z m 2.80632,1.70014 q -0.3368,-0.22367 -0.63782,-0.20728 -0.30225,0.0103 -0.79412,0.30612 -0.19482,0.11856 -0.4005,0.27738 -0.20571,0.15882 -0.55627,0.41662 -0.0394,0.44859 0.13437,0.85415 0.17623,0.4019 0.56427,0.6596 0.49422,0.32821 1.04246,0.20169 0.54824,-0.12651 0.8959,-0.65001 0.35494,-0.53447 0.29189,-1.0353 -0.0606,-0.50449 -0.54018,-0.82297 z"
       style="font-style:normal;font-size:medium;text-anchor:middle;fill:none;fill-opacity:1;stroke:#000000;stroke-width:0.25;stroke-linecap:butt;stroke-linejoin:bevel;stroke-dasharray:none;stroke-opacity:1"
       id="path1239"
       inkscape:connector-curvature="0" />
    <path
       d="m 180.95373,369.81749 -0.58104,0.87493 -1.04333,-0.69287 0.58104,-0.87493 z m 3.04578,2.02271 -0.58104,0.87493 -1.04332,-0.69287 0.58104,-0.87493 z"
       style="font-style:normal;font-size:medium;text-anchor:middle;fill:none;fill-opacity:1;stroke:#000000;stroke-width:0.25;stroke-linecap:butt;stroke-linejoin:bevel;stroke-dasharray:none;stroke-opacity:1"
       id="path1241"
       inkscape:connector-curvature="0" />
    <path
       d="m 186.23391,365.14731 -0.53728,0.80904 1.53386,1.01865 -0.46677,0.70287 -1.53387,-1.01864 -1.7334,2.61015 -0.842,-0.55917 -1.32221,-4.68159 0.44733,-0.67358 3.33132,2.21233 0.53729,-0.80905 z m -1.5898,1.12293 -2.46005,-1.63372 1.05729,3.746 z"
       style="font-style:normal;font-size:medium;text-anchor:middle;fill:none;fill-opacity:1;stroke:#000000;stroke-width:0.25;stroke-linecap:butt;stroke-linejoin:bevel;stroke-dasharray:none;stroke-opacity:1"
       id="path1243"
       inkscape:connector-curvature="0" />
    <path
       d="m 250.14732,442.33808 0.4967,-3.50699 0.66137,0.0937 -0.19104,1.34884 4.34241,0.61503 0.19104,-1.34884 0.59175,0.0838 q -0.0388,0.27411 -0.0397,0.59355 0.003,0.32006 0.0677,0.49337 0.0804,0.21556 0.22975,0.35211 0.15305,0.14151 0.43341,0.19897 l -0.0955,0.67442 -5.83919,-0.82701 -0.18734,1.32274 z"
       style="font-style:normal;font-size:medium;text-anchor:middle;fill:none;fill-opacity:1;stroke:#000000;stroke-width:0.25;stroke-linecap:butt;stroke-linejoin:bevel;stroke-dasharray:none;stroke-opacity:1"
       id="path1246"
       inkscape:connector-curvature="0" />
    <path
       d="m 251.35682,448.62105 q -0.45252,-0.0641 -0.84245,-0.28798 -0.38994,-0.22389 -0.63209,-0.55111 -0.26021,-0.35642 -0.36393,-0.81495 -0.1,-0.45356 -0.0192,-1.02356 0.0752,-0.53083 0.25795,-1.00648 0.17842,-0.47627 0.38312,-0.79348 l 0.91808,0.13003 -0.009,0.0609 q -0.27679,0.32475 -0.50557,0.78057 -0.22442,0.45644 -0.28975,0.91765 -0.0438,0.30893 0.003,0.60843 0.0457,0.30385 0.23124,0.56092 0.15998,0.21795 0.40749,0.35065 0.24689,0.13705 0.59063,0.18573 0.33504,0.0475 0.58228,-0.0374 0.24663,-0.0805 0.41484,-0.26525 0.19738,-0.20285 0.30887,-0.51994 0.11521,-0.31211 0.1719,-0.71242 0.0542,-0.3829 0.0526,-0.74708 -0.002,-0.35983 -0.0181,-0.62395 l 3.33729,0.47267 -0.55216,3.89859 -0.76144,-0.10784 0.43322,-3.05883 -1.72304,-0.24403 q -0.009,0.18956 -0.0281,0.3866 -0.0188,0.19705 -0.0392,0.34064 -0.0746,0.52649 -0.22203,0.90949 -0.14311,0.38362 -0.4162,0.68227 -0.28861,0.31419 -0.69427,0.45203 -0.40567,0.13783 -0.97566,0.0571 z"
       style="font-style:normal;font-size:medium;text-anchor:middle;fill:none;fill-opacity:1;stroke:#000000;stroke-width:0.25;stroke-linecap:butt;stroke-linejoin:bevel;stroke-dasharray:none;stroke-opacity:1"
       id="path1248"
       inkscape:connector-curvature="0" />
    <path
       d="m 252.46776,452.0273 0.14729,-1.03993 1.24007,0.17564 -0.14728,1.03992 z m -3.62012,-0.51273 0.14729,-1.03992 1.24007,0.17563 -0.14729,1.03993 z"
       style="font-style:normal;font-size:medium;text-anchor:middle;fill:none;fill-opacity:1;stroke:#000000;stroke-width:0.25;stroke-linecap:butt;stroke-linejoin:bevel;stroke-dasharray:none;stroke-opacity:1"
       id="path1250"
       inkscape:connector-curvature="0" />
    <path
       d="m 251.11387,457.98271 q -0.21667,0.18235 -0.5186,0.27718 -0.30192,0.0948 -0.75009,0.0314 -0.44381,-0.0629 -0.79085,-0.27623 -0.34705,-0.21336 -0.57987,-0.54372 -0.25836,-0.36947 -0.34345,-0.83423 -0.0813,-0.4598 -0.007,-0.98629 0.0764,-0.53954 0.28091,-1.04318 0.20013,-0.50426 0.39987,-0.81772 l 0.90938,0.1288 -0.009,0.0652 q -0.29605,0.33534 -0.5279,0.81292 -0.23186,0.47757 -0.2978,0.94315 -0.0388,0.27411 0.009,0.59598 0.0476,0.32187 0.1989,0.53858 0.1631,0.22727 0.38015,0.35566 0.21643,0.13274 0.56888,0.18266 0.34808,0.0493 0.59037,-0.0318 0.24601,-0.0761 0.40428,-0.25343 0.16262,-0.17669 0.24992,-0.44838 0.0916,-0.27108 0.13722,-0.59307 l 0.0555,-0.3916 0.72229,0.1023 -0.0431,0.30458 q -0.0937,0.66137 0.12499,1.09179 0.22239,0.43539 0.75322,0.51057 0.23497,0.0333 0.42318,-0.0421 0.19257,-0.0748 0.33097,-0.23718 0.13963,-0.17108 0.21333,-0.37812 0.0737,-0.20705 0.11187,-0.47682 0.0585,-0.41335 -0.0235,-0.89988 -0.082,-0.48651 -0.29322,-0.93808 l 0.006,-0.0435 0.90938,0.1288 q 0.10854,0.33049 0.162,0.8618 0.0572,0.53627 -0.0112,1.01924 -0.0672,0.47427 -0.20535,0.82308 -0.13818,0.34881 -0.37091,0.61323 -0.25323,0.28369 -0.5719,0.40278 -0.31868,0.11909 -0.71463,0.063 -0.53954,-0.0764 -0.88996,-0.51662 -0.34668,-0.43524 -0.37778,-0.96781 l -0.0609,-0.009 q -0.0643,0.20394 -0.21572,0.45767 -0.14698,0.25437 -0.33883,0.41804 z"
       style="font-style:normal;font-size:medium;text-anchor:middle;fill:none;fill-opacity:1;stroke:#000000;stroke-width:0.25;stroke-linecap:butt;stroke-linejoin:bevel;stroke-dasharray:none;stroke-opacity:1"
       id="path1252"
       inkscape:connector-curvature="0" />
    <path
       class="arrow"
       d="m 221.04872,570.55267 -9.52935,-10.44947 9.64437,7.95212 10.33445,-7.032 z"
       id="path914"
       style="fill:#000000;stroke:#000000;stroke-width:0.25;stroke-linecap:butt;stroke-linejoin:bevel;stroke-dasharray:none;stroke-opacity:1"
       inkscape:connector-curvature="0" />
    <path
       inkscape:connector-curvature="0"
       id="path1255"
       style="font-style:normal;font-size:medium;text-anchor:middle;fill:none;fill-opacity:1;stroke:#000000;stroke-width:0.25;stroke-linecap:butt;stroke-linejoin:bevel;stroke-dasharray:none;stroke-opacity:1"
       d="m 223.57213,565.56219 h -3.93554 V 564.82 h 1.51367 v -4.87304 h -1.51367 v -0.66407 q 0.30762,0 0.65918,-0.0488 0.35156,-0.0537 0.53222,-0.15137 0.22461,-0.12207 0.35157,-0.30762 0.13183,-0.19043 0.15136,-0.50781 h 0.75684 V 564.82 h 1.48437 z" />
    <path
       d="m 226.83958,572.62133 3.53824,0.16296 -0.0307,0.66726 -1.36087,-0.0627 -0.20177,4.3811 1.36087,0.0627 -0.0275,0.59703 q -0.27657,-0.0127 -0.59466,0.0166 -0.31829,0.0337 -0.48477,0.11405 -0.20699,0.10045 -0.3288,0.26201 -0.12642,0.16575 -0.15712,0.45028 l -0.68043,-0.0313 0.27132,-5.89121 -1.33452,-0.0615 z"
       style="font-style:normal;font-size:medium;text-anchor:middle;fill:none;fill-opacity:1;stroke:#000000;stroke-width:0.25;stroke-linecap:butt;stroke-linejoin:bevel;stroke-dasharray:none;stroke-opacity:1"
       id="path1258"
       inkscape:connector-curvature="0" />
    <path
       d="m 220.74204,572.34051 4.425,0.20379 -0.0423,0.91749 q -0.47914,0.37386 -0.95826,0.74772 -0.48353,0.37366 -0.90101,0.74596 -0.88046,0.7777 -1.21417,1.24184 -0.33392,0.46853 -0.3596,1.02604 -0.0234,0.50923 0.30143,0.81015 0.32028,0.30509 0.9217,0.33279 0.39948,0.0184 0.87128,-0.10065 0.47179,-0.11905 0.92852,-0.38835 l 0.0438,0.002 -0.0425,0.92187 q -0.31875,0.13929 -0.84263,0.24274 -0.52824,0.10325 -1.01553,0.0808 -1.00528,-0.0463 -1.55352,-0.55986 -0.54844,-0.50917 -0.51023,-1.33886 0.0172,-0.37313 0.12874,-0.69354 0.10696,-0.31621 0.30466,-0.59746 0.18374,-0.26428 0.42854,-0.51696 0.2404,-0.25288 0.5844,-0.55818 0.49095,-0.4393 1.01141,-0.85085 0.52025,-0.40716 0.97184,-0.75589 l -3.5163,-0.16195 z"
       style="font-style:normal;font-size:medium;text-anchor:middle;fill:none;fill-opacity:1;stroke:#000000;stroke-width:0.25;stroke-linecap:butt;stroke-linejoin:bevel;stroke-dasharray:none;stroke-opacity:1"
       id="path1260"
       inkscape:connector-curvature="0" />
    <path
       d="m 217.41312,575.84732 1.04917,0.0483 -0.0576,1.25112 -1.04917,-0.0483 z m 0.16821,-3.65237 1.04917,0.0483 -0.0576,1.25111 -1.04917,-0.0483 z"
       style="font-style:normal;font-size:medium;text-anchor:middle;fill:none;fill-opacity:1;stroke:#000000;stroke-width:0.25;stroke-linecap:butt;stroke-linejoin:bevel;stroke-dasharray:none;stroke-opacity:1"
       id="path1262"
       inkscape:connector-curvature="0" />
    <path
       d="m 211.2994,571.90563 3.53825,0.16296 -0.0307,0.66726 -1.36086,-0.0627 -0.20177,4.38109 1.36086,0.0627 -0.0275,0.59702 q -0.27657,-0.0127 -0.59466,0.0166 -0.31829,0.0337 -0.48476,0.11405 -0.207,0.10045 -0.32882,0.26201 -0.12641,0.16575 -0.15711,0.45028 l -0.68043,-0.0313 0.27132,-5.89121 -1.33452,-0.0615 z"
       style="font-style:normal;font-size:medium;text-anchor:middle;fill:none;fill-opacity:1;stroke:#000000;stroke-width:0.25;stroke-linecap:butt;stroke-linejoin:bevel;stroke-dasharray:none;stroke-opacity:1"
       id="path1264"
       inkscape:connector-curvature="0" />
    <path
       d="m 172.7878,521.5971 q 0.84733,-0.0372 1.43841,0.60101 0.59089,0.63386 0.63486,1.63486 0.0467,1.06244 -0.47434,1.71875 -0.52121,0.65192 -1.37731,0.68953 -0.5444,0.0239 -0.99731,-0.27289 -0.45731,-0.29662 -0.74161,-0.86037 l -0.0264,0.001 q -0.25784,0.53918 -0.58031,0.80847 -0.32267,0.26491 -0.82316,0.28689 -0.73757,0.0324 -1.2559,-0.55185 -0.51833,-0.58426 -0.55941,-1.51939 -0.043,-0.97904 0.4011,-1.58359 0.44411,-0.60454 1.16851,-0.63637 0.44342,-0.0195 0.88582,0.23821 0.43801,0.25788 0.703,0.78288 l 0.0264,-0.001 q 0.23641,-0.6262 0.60849,-0.96806 0.37207,-0.34185 0.96915,-0.36808 z m -3.14604,1.18071 q -0.46976,0.0206 -0.73034,0.39719 -0.26516,0.37234 -0.24047,0.9343 0.0243,0.55318 0.30334,0.89722 0.27884,0.33965 0.72665,0.31998 0.31611,-0.0139 0.54108,-0.19972 0.22039,-0.19004 0.38457,-0.55795 0.0719,-0.16591 0.1859,-0.47443 0.11382,-0.31292 0.1845,-0.60633 -0.30885,-0.42192 -0.62789,-0.57506 -0.31904,-0.15314 -0.72734,-0.1352 z m 3.26919,-0.27998 q -0.40391,0.0177 -0.63747,0.20836 -0.23814,0.18641 -0.46125,0.71526 -0.0875,0.2106 -0.16013,0.46011 -0.0726,0.24952 -0.20394,0.66438 0.23248,0.38567 0.61187,0.61094 0.3792,0.22088 0.84457,0.20043 0.59269,-0.026 0.9611,-0.4513 0.36841,-0.42528 0.34083,-1.05309 -0.0282,-0.64099 -0.37421,-1.00847 -0.34625,-0.37189 -0.92137,-0.34662 z"
       style="font-style:normal;font-size:medium;text-anchor:middle;fill:none;fill-opacity:1;stroke:#000000;stroke-width:0.25;stroke-linecap:butt;stroke-linejoin:bevel;stroke-dasharray:none;stroke-opacity:1"
       id="path1267"
       inkscape:connector-curvature="0" />
    <path
       d="m 170.82029,518.56481 0.0461,1.04927 -1.25123,0.055 -0.0461,-1.04928 z m 3.65273,-0.16047 0.0461,1.04927 -1.25124,0.055 -0.0461,-1.04927 z"
       style="font-style:normal;font-size:medium;text-anchor:middle;fill:none;fill-opacity:1;stroke:#000000;stroke-width:0.25;stroke-linecap:butt;stroke-linejoin:bevel;stroke-dasharray:none;stroke-opacity:1"
       id="path1269"
       inkscape:connector-curvature="0" />
    <path
       d="m 172.10634,511.89255 q 0.45659,-0.0201 0.88099,0.12845 0.42441,0.14852 0.72251,0.42573 0.3212,0.30261 0.50733,0.7343 0.18153,0.42751 0.20679,1.00264 0.0235,0.53562 -0.0688,1.03673 -0.088,0.50093 -0.23097,0.85032 l -0.92636,0.0407 -0.003,-0.0614 q 0.21248,-0.37003 0.35371,-0.8601 0.13683,-0.48988 0.11639,-0.95525 -0.0137,-0.31171 -0.11424,-0.59761 -0.10074,-0.29029 -0.33028,-0.50894 -0.19726,-0.18488 -0.46493,-0.2699 -0.26785,-0.0894 -0.61468,-0.0742 -0.33805,0.0149 -0.56553,0.14361 -0.22767,0.12437 -0.3591,0.33688 -0.1568,0.23563 -0.20819,0.5678 -0.056,0.32796 -0.0382,0.73187 0.017,0.38635 0.0854,0.74404 0.0683,0.3533 0.13237,0.61001 l -3.36735,0.14794 -0.17281,-3.93371 0.7683,-0.0337 0.13559,3.08637 1.73855,-0.0764 q -0.0259,-0.188 -0.0434,-0.38518 -0.0177,-0.19717 -0.024,-0.34205 -0.0233,-0.53123 0.0513,-0.93479 0.0703,-0.40338 0.28389,-0.74707 0.22604,-0.36183 0.59951,-0.57179 0.37347,-0.20995 0.9486,-0.23521 z"
       style="font-style:normal;font-size:medium;text-anchor:middle;fill:none;fill-opacity:1;stroke:#000000;stroke-width:0.25;stroke-linecap:butt;stroke-linejoin:bevel;stroke-dasharray:none;stroke-opacity:1"
       id="path1271"
       inkscape:connector-curvature="0" />
    <path
       d="m 227.70054,378.38264 -6.04874,1.77144 -0.65744,-0.67245 6.33167,-1.78377 -2.60517,-2.66465 0.54991,-0.53763 3.13049,3.20198 z"
       style="font-style:normal;font-size:medium;text-anchor:middle;fill:none;fill-opacity:1;stroke:#000000;stroke-width:0.25;stroke-linecap:butt;stroke-linejoin:bevel;stroke-dasharray:none;stroke-opacity:1"
       id="path1274"
       inkscape:connector-curvature="0" />
    <path
       d="m 228.53644,381.96582 -0.73425,-0.75101 0.89555,-0.87555 0.73425,0.75101 z m -2.61437,2.55602 -0.73425,-0.75101 0.89555,-0.87556 0.73424,0.75101 z"
       style="font-style:normal;font-size:medium;text-anchor:middle;fill:none;fill-opacity:1;stroke:#000000;stroke-width:0.25;stroke-linecap:butt;stroke-linejoin:bevel;stroke-dasharray:none;stroke-opacity:1"
       id="path1276"
       inkscape:connector-curvature="0" />
    <path
       d="m 232.42998,386.67117 q 0.0123,0.28293 -0.0967,0.58003 -0.10901,0.2971 -0.43266,0.61353 -0.32051,0.31335 -0.70128,0.45822 -0.38076,0.14488 -0.78456,0.12788 -0.45037,-0.0206 -0.87056,-0.23668 -0.41398,-0.21599 -0.78571,-0.59621 -0.38094,-0.38964 -0.65533,-0.85887 -0.27752,-0.46617 -0.40411,-0.81564 l 0.65674,-0.64208 0.0461,0.0471 q 0.0852,0.43914 0.3222,0.91417 0.23703,0.47503 0.56575,0.81126 0.19354,0.19796 0.47766,0.35653 0.28413,0.15858 0.54812,0.1709 0.27957,0.009 0.5137,-0.0843 0.23721,-0.0906 0.49173,-0.33939 0.25138,-0.24577 0.3349,-0.48722 0.0897,-0.24138 0.0458,-0.47495 -0.0408,-0.23664 -0.20288,-0.47154 -0.15894,-0.23794 -0.38628,-0.47047 l -0.27649,-0.2828 0.52163,-0.50998 0.21504,0.21995 q 0.46697,0.47763 0.94142,0.56689 0.48067,0.0893 0.86402,-0.28547 0.16969,-0.1659 0.22472,-0.36105 0.0582,-0.19824 0.0139,-0.40694 -0.0504,-0.21499 -0.16951,-0.39969 -0.11915,-0.18466 -0.30962,-0.37948 -0.29185,-0.29851 -0.72741,-0.53029 -0.43555,-0.23177 -0.92223,-0.33981 l -0.0307,-0.0314 0.65674,-0.64208 q 0.3281,0.11558 0.78174,0.39728 0.45986,0.28176 0.80086,0.63055 0.33486,0.34251 0.527,0.66477 0.19214,0.32226 0.25972,0.66796 0.0704,0.37371 -0.0297,0.69887 -0.10001,0.32518 -0.38595,0.60474 -0.38964,0.38094 -0.95222,0.39013 -0.55637,0.009 -0.99737,-0.29094 l -0.044,0.043 q 0.12229,0.17543 0.23109,0.4501 0.11192,0.27163 0.12461,0.52348 z"
       style="font-style:normal;font-size:medium;text-anchor:middle;fill:none;fill-opacity:1;stroke:#000000;stroke-width:0.25;stroke-linecap:butt;stroke-linejoin:bevel;stroke-dasharray:none;stroke-opacity:1"
       id="path1278"
       inkscape:connector-curvature="0" />
    <path
       d="m 152.63565,189.67326 -1.94971,1.62649 -6.09308,-7.30391 1.94971,-1.62649 0.44729,0.53617 -1.29731,1.08224 5.19851,6.23157 1.29731,-1.08224 z"
       style="font-style:normal;font-size:medium;text-anchor:middle;fill:none;fill-opacity:1;stroke:#000000;stroke-width:0.25;stroke-linecap:butt;stroke-linejoin:bevel;stroke-dasharray:none;stroke-opacity:1"
       id="path903"
       inkscape:connector-curvature="0" />
    <path
       d="m 155.18446,182.41546 q 0.60368,0.72365 0.43788,1.67588 -0.16204,0.94911 -1.01692,1.66227 -0.90736,0.75694 -1.83827,0.73866 -0.92715,-0.0214 -1.53709,-0.75253 -0.38785,-0.46493 -0.43068,-1.06508 -0.046,-0.6039 0.26068,-1.23487 l -0.0188,-0.0225 q -0.65012,0.13538 -1.10531,0.0318 -0.45143,-0.10666 -0.80801,-0.5341 -0.52548,-0.6299 -0.35838,-1.48149 0.16711,-0.85158 0.96574,-1.51781 0.83613,-0.69752 1.66948,-0.71234 0.83336,-0.0148 1.34945,0.60384 0.31592,0.3787 0.38623,0.9432 0.0672,0.56075 -0.21821,1.14857 l 0.0188,0.0225 q 0.71259,-0.21294 1.2653,-0.11445 0.55272,0.0985 0.9781,0.60841 z m -3.16257,-1.98454 q -0.33468,-0.40119 -0.84294,-0.37779 -0.50764,0.0165 -0.98757,0.41689 -0.47243,0.39411 -0.58846,0.87243 -0.11228,0.4752 0.20675,0.85764 0.22521,0.26996 0.54097,0.34357 0.31637,0.0667 0.75207,-0.036 0.19504,-0.0482 0.54445,-0.15533 0.35317,-0.11022 0.66006,-0.24542 0.16476,-0.55712 0.0852,-0.94219 -0.0796,-0.38507 -0.37049,-0.73377 z m 2.44962,2.70012 q -0.28776,-0.34495 -0.61353,-0.42293 -0.32514,-0.0849 -0.94273,0.0743 -0.24503,0.0645 -0.51444,0.16844 -0.26941,0.1039 -0.72444,0.26733 -0.18418,0.46524 -0.12766,0.95222 0.0603,0.48386 0.39182,0.8813 0.42227,0.50617 1.04622,0.54524 0.62395,0.0391 1.16012,-0.40823 0.54742,-0.45667 0.63903,-1.01 0.0954,-0.55647 -0.31439,-1.04764 z"
       style="font-style:normal;font-size:medium;text-anchor:middle;fill:none;fill-opacity:1;stroke:#000000;stroke-width:0.25;stroke-linecap:butt;stroke-linejoin:bevel;stroke-dasharray:none;stroke-opacity:1"
       id="path905"
       inkscape:connector-curvature="0" />
    <path
       d="m 160.76444,182.89205 -1.94971,1.62649 -0.44728,-0.53617 1.2973,-1.08224 -5.19851,-6.23157 -1.2973,1.08224 -0.44729,-0.53618 1.94971,-1.62648 z"
       style="font-style:normal;font-size:medium;text-anchor:middle;fill:none;fill-opacity:1;stroke:#000000;stroke-width:0.25;stroke-linecap:butt;stroke-linejoin:bevel;stroke-dasharray:none;stroke-opacity:1"
       id="path907"
       inkscape:connector-curvature="0" />
    <path
       d="m 165.85988,176.14869 -2.20467,1.83919 -0.47544,-0.56992 0.73114,-0.60994 -3.70652,-4.44308 -0.73114,0.60993 -0.47543,-0.56992 2.20467,-1.83918 0.47544,0.56991 -0.73114,0.60994 3.70652,4.44308 0.73114,-0.60993 z"
       style="font-style:normal;font-size:medium;text-anchor:middle;fill:none;fill-opacity:1;stroke:#000000;stroke-width:0.25;stroke-linecap:butt;stroke-linejoin:bevel;stroke-dasharray:none;stroke-opacity:1"
       id="path909"
       inkscape:connector-curvature="0" />
    <path
       d="m 172.20693,168.21495 q 0.60368,0.72365 0.43789,1.67588 -0.16206,0.94912 -1.01693,1.66227 -0.90737,0.75694 -1.83827,0.73866 -0.92715,-0.0214 -1.53709,-0.75253 -0.38785,-0.46494 -0.43068,-1.06508 -0.046,-0.6039 0.26068,-1.23487 l -0.0188,-0.0225 q -0.65012,0.13538 -1.10531,0.0318 -0.45143,-0.10666 -0.80801,-0.5341 -0.52548,-0.6299 -0.35838,-1.48149 0.1671,-0.85158 0.96573,-1.51781 0.83613,-0.69752 1.66949,-0.71233 0.83336,-0.0148 1.34945,0.60383 0.31592,0.3787 0.38623,0.9432 0.0672,0.56075 -0.21821,1.14857 l 0.0188,0.0225 q 0.71259,-0.21294 1.2653,-0.11445 0.55271,0.0985 0.9781,0.60841 z m -3.16258,-1.98453 q -0.33468,-0.40119 -0.84294,-0.3778 -0.50763,0.0165 -0.98756,0.41689 -0.47243,0.39411 -0.58846,0.87243 -0.11229,0.4752 0.20675,0.85764 0.22521,0.26997 0.54097,0.34357 0.31637,0.0667 0.75207,-0.036 0.19504,-0.0482 0.54445,-0.15533 0.35317,-0.11022 0.66005,-0.24542 0.16477,-0.55712 0.0852,-0.94219 -0.0796,-0.38507 -0.3705,-0.73376 z m 2.44963,2.70012 q -0.28777,-0.34495 -0.61353,-0.42294 -0.32514,-0.0848 -0.94273,0.0743 -0.24504,0.0645 -0.51444,0.16843 -0.26942,0.10391 -0.72444,0.26734 -0.18419,0.46523 -0.12766,0.95221 0.0603,0.48386 0.39182,0.8813 0.42226,0.50618 1.04621,0.54524 0.62396,0.0391 1.16013,-0.40823 0.54742,-0.45667 0.63902,-1.00999 0.0954,-0.55647 -0.31438,-1.04764 z"
       style="font-style:normal;font-size:medium;text-anchor:middle;fill:none;fill-opacity:1;stroke:#000000;stroke-width:0.25;stroke-linecap:butt;stroke-linejoin:bevel;stroke-dasharray:none;stroke-opacity:1"
       id="path911"
       inkscape:connector-curvature="0" />
    <path
       style="fill:#e5e5e5;fill-opacity:1;stroke:#000000;stroke-width:0.25;stroke-linecap:butt;stroke-linejoin:bevel;stroke-dasharray:none;stroke-opacity:1"
       inkscape:connector-curvature="0"
       id="path9681"
       d="m 59.241411,169.11708 -3.65507,9.30942 -45.6907273,-17.11582 3.3608513,-9.41962 z m 48.602529,58.26099 -7.77949,6.28524 -48.40127,-58.01973 7.578231,-6.5265 z M 39.877554,76.161066 l 1.14744,-9.243426 18.227415,1.972505 -0.856538,9.274904 z m 131.785126,1.245363 5.3801,-8.430841 25.03294,15.426758 -5.11263,8.595686 z m -36.8266,-0.07319 0.17697,-9.999657 36.5124,0.07255 0.13723,10.0003 z m 62.12701,15.664792 7.77949,-6.285234 29.32978,35.158312 -7.57822,6.52649 z m -90.62558,8.109288 -6.28523,-7.779477 28.25732,-23.572829 6.52648,7.578226 z m -47.941639,-22.942271 4.45834,-8.952548 47.658259,22.806684 -4.17496,9.088135 z M 13.256465,151.89106 3.8744856,148.42653 29.735019,74.860084 39.877554,76.161066 Z m 151.891915,182.07628 -9.86957,1.61747 -8.64622,-48.01909 9.8139,-1.9267 z m -8.70189,-48.32832 -7.77949,6.28525 -48.40128,-58.0197 7.57822,-6.5265 z m 89.32651,17.13935 9.27816,0.82032 -1.32761,18.28568 -9.29935,-0.52847 z m 10.25222,-138.9812 9.37305,-3.4886 10.68842,27.39326 -9.25885,3.7813 z m 10.80262,27.68596 9.81362,1.92803 -6.47521,35.93372 -9.86935,-1.61882 z m -40.3337,-63.08553 7.77948,-6.28523 29.32982,35.15831 -7.57822,6.52649 z m 33.80276,99.32846 6.28523,7.77949 -28.25732,23.5728 -6.52648,-7.57823 z m -28.49857,23.77406 9.68943,-2.47779 13.89207,50.97511 -9.60683,2.78093 z m 12.62587,69.85578 -0.53868,10.2114 -77.01091,12.25117 -1.72623,-9.85113 z"
       class="sticker" />
    <path
       class="arrow"
       d="m 36.248936,160.50408 -5.856558,-12.87248 6.733548,10.53135 11.995489,-3.51543 z"
       id="path9685"
       inkscape:connector-curvature="0"
       style="fill:#000000;stroke:#000000;stroke-width:0.25;stroke-linecap:butt;stroke-linejoin:bevel;stroke-dasharray:none;stroke-opacity:1" />
    <path
       inkscape:connector-curvature="0"
       id="path915"
       style="font-style:normal;font-size:medium;text-anchor:middle;fill:none;fill-opacity:1;stroke:#000000;stroke-width:0.25;stroke-linecap:butt;stroke-linejoin:bevel;stroke-dasharray:none;stroke-opacity:1"
       d="m 43.588203,153.79631 -3.022051,2.52106 -0.475435,-0.56992 1.162327,-0.96963 -3.12161,-3.74195 -1.162327,0.96964 -0.42539,-0.50992 q 0.236215,-0.19706 0.474897,-0.45976 0.235553,-0.26645 0.311725,-0.45717 0.09428,-0.23762 0.0729,-0.46142 -0.02075,-0.23068 -0.209065,-0.48691 l 0.581163,-0.48482 4.197596,5.03176 1.13983,-0.95088 z" />
    <path
       d="m 37.304934,164.78805 0.909473,0.34069 0.645924,-1.7243 0.790131,0.29599 -0.645924,1.72429 2.934185,1.09915 -0.354563,0.94651 -4.262042,2.34535 -0.757206,-0.28365 1.402843,-3.7449 -0.909473,-0.34069 z m 1.452953,1.29511 -1.035946,2.76547 3.410451,-1.87598 z"
       style="font-style:normal;font-size:medium;text-anchor:middle;fill:none;fill-opacity:1;stroke:#000000;stroke-width:0.25;stroke-linecap:butt;stroke-linejoin:bevel;stroke-dasharray:none;stroke-opacity:1"
       id="path918"
       inkscape:connector-curvature="0" />
    <path
       d="m 33.845186,165.43013 0.983546,0.36844 -0.439351,1.17285 -0.983546,-0.36844 z m 1.282597,-3.4239 0.983546,0.36843 -0.439351,1.17285 -0.983546,-0.36843 z"
       style="font-style:normal;font-size:medium;text-anchor:middle;fill:none;fill-opacity:1;stroke:#000000;stroke-width:0.25;stroke-linecap:butt;stroke-linejoin:bevel;stroke-dasharray:none;stroke-opacity:1"
       id="path920"
       inkscape:connector-curvature="0" />
    <path
       d="m 29.238839,159.80022 3.316904,1.24252 -0.234321,0.62552 -1.275738,-0.47789 -1.5385,4.10703 1.275738,0.47789 -0.209656,0.55968 q -0.259266,-0.0971 -0.57096,-0.167 -0.313246,-0.0658 -0.496359,-0.0405 -0.227845,0.032 -0.393414,0.14827 -0.171243,0.11888 -0.287897,0.3802 l -0.637874,-0.23895 2.068804,-5.52269 -1.251034,-0.46863 z"
       style="font-style:normal;font-size:medium;text-anchor:middle;fill:none;fill-opacity:1;stroke:#000000;stroke-width:0.25;stroke-linecap:butt;stroke-linejoin:bevel;stroke-dasharray:none;stroke-opacity:1"
       id="path922"
       inkscape:connector-curvature="0" />
    <path
       class="arrow"
       d="m 49.136702,77.16304 8.866073,11.017837 -9.135043,-8.532348 -10.748867,6.380584 z"
       id="path9697"
       inkscape:connector-curvature="0"
       style="fill:#000000;stroke:#000000;stroke-width:0.25;stroke-linecap:butt;stroke-linejoin:bevel;stroke-dasharray:none;stroke-opacity:1" />
    <path
       inkscape:connector-curvature="0"
       id="path925"
       style="font-style:normal;font-size:medium;text-anchor:middle;fill:none;fill-opacity:1;stroke:#000000;stroke-width:0.25;stroke-linecap:butt;stroke-linejoin:bevel;stroke-dasharray:none;stroke-opacity:1"
       d="m 52.669228,87.565255 -3.779437,3.152888 -0.653724,-0.783633 q 0.112183,-0.665876 0.224367,-1.331752 0.115933,-0.669003 0.178752,-1.287339 0.13811,-1.297947 0.06338,-1.928714 -0.07785,-0.634517 -0.475094,-1.110696 -0.362832,-0.434936 -0.85485,-0.437804 -0.491397,-0.0097 -1.005071,0.418772 -0.341199,0.284636 -0.638548,0.736172 -0.297349,0.451536 -0.469604,1.014913 l -0.03749,0.03128 -0.656852,-0.787383 q 0.156735,-0.353309 0.508461,-0.831131 0.355476,-0.48095 0.771664,-0.828143 0.858622,-0.716281 1.693243,-0.706715 0.831493,0.0058 1.422659,0.71446 0.265869,0.318703 0.414843,0.664975 0.149596,0.339394 0.198558,0.718228 0.0477,0.354452 0.03665,0.745195 -0.0073,0.387616 -0.06017,0.895915 -0.07276,0.728373 -0.190542,1.456144 -0.120906,0.724022 -0.22936,1.348634 l 3.003304,-2.50542 z" />
    <path
       d="m 46.52639,75.194396 -3.278847,-0.354824 0.06692,-0.61835 1.261097,0.136471 0.439348,-4.059907 -1.261097,-0.136471 0.05987,-0.55325 q 0.256283,0.02773 0.553584,0.01877 0.297741,-0.01304 0.457068,-0.07813 0.198133,-0.08145 0.320634,-0.224587 0.127008,-0.146768 0.171888,-0.409434 l 0.630549,0.06824 -0.590787,5.459316 1.23669,0.133831 z"
       style="font-style:normal;font-size:medium;text-anchor:middle;fill:none;fill-opacity:1;stroke:#000000;stroke-width:0.25;stroke-linecap:butt;stroke-linejoin:bevel;stroke-dasharray:none;stroke-opacity:1"
       id="path928"
       inkscape:connector-curvature="0" />
    <path
       d="m 50.167442,72.164162 -0.972264,-0.105215 0.125465,-1.159391 0.972264,0.105215 z m -0.366271,3.384619 -0.972264,-0.105215 0.125466,-1.159401 0.972264,0.105215 z"
       style="font-style:normal;font-size:medium;text-anchor:middle;fill:none;fill-opacity:1;stroke:#000000;stroke-width:0.25;stroke-linecap:butt;stroke-linejoin:bevel;stroke-dasharray:none;stroke-opacity:1"
       id="path930"
       inkscape:connector-curvature="0" />
    <path
       d="m 55.968325,76.216168 -4.100589,-0.443751 0.09201,-0.850226 q 0.466767,-0.319898 0.933533,-0.639796 0.470833,-0.319459 0.880202,-0.641454 0.862943,-0.672139 1.199761,-1.084294 0.337259,-0.416231 0.393169,-0.932874 0.05107,-0.471895 -0.23356,-0.770219 -0.28012,-0.301941 -0.837437,-0.362251 -0.370198,-0.04006 -0.815497,0.04344 -0.4453,0.08352 -0.885227,0.307545 l -0.04066,-0.0044 0.09245,-0.854293 q 0.304242,-0.111122 0.797035,-0.177146 0.49687,-0.06558 0.948424,-0.01672 0.931581,0.100812 1.411559,0.609585 0.480427,0.504718 0.397224,1.273579 -0.03742,0.345782 -0.159475,0.637141 -0.117538,0.287724 -0.317485,0.537724 -0.185948,0.235048 -0.427963,0.455801 -0.237958,0.221183 -0.575194,0.485142 -0.481502,0.380032 -0.988847,0.732584 -0.506896,0.348487 -0.946614,0.646619 l 3.258506,0.352624 z"
       style="font-style:normal;font-size:medium;text-anchor:middle;fill:none;fill-opacity:1;stroke:#000000;stroke-width:0.25;stroke-linecap:butt;stroke-linejoin:bevel;stroke-dasharray:none;stroke-opacity:1"
       id="path932"
       inkscape:connector-curvature="0" />
    <path
       class="arrow"
       d="m 26.566991,114.02605 12.750412,-6.11776 -10.391891,6.94684 3.759237,11.92133 z"
       id="path9709"
       inkscape:connector-curvature="0"
       style="fill:#000000;stroke:#000000;stroke-width:0.24999999;stroke-linecap:butt;stroke-linejoin:bevel;stroke-dasharray:none;stroke-opacity:1" />
    <path
       inkscape:connector-curvature="0"
       id="path935"
       style="font-style:normal;font-size:medium;text-anchor:middle;fill:none;fill-opacity:1;stroke:#000000;stroke-width:0.25;stroke-linecap:butt;stroke-linejoin:bevel;stroke-dasharray:none;stroke-opacity:1"
       d="m 36.824631,116.1866 q 0.314471,0.0111 0.634015,0.15784 0.319544,0.14675 0.641714,0.53294 0.319043,0.38244 0.446182,0.81687 0.127139,0.43444 0.07298,0.88022 -0.06226,0.49705 -0.338353,0.94357 -0.275474,0.43965 -0.729157,0.81812 -0.464931,0.38786 -1.0087,0.65072 -0.540641,0.26661 -0.938823,0.37622 l -0.653724,-0.78363 0.05624,-0.0469 q 0.493863,-0.0559 1.04078,-0.27687 0.546917,-0.22098 0.948108,-0.55566 0.236214,-0.19706 0.43674,-0.49787 0.200525,-0.30082 0.237258,-0.59217 0.03485,-0.30886 -0.04844,-0.57639 -0.07954,-0.27066 -0.332897,-0.57437 -0.250229,-0.29995 -0.510364,-0.4136 -0.259513,-0.12052 -0.522073,-0.0922 -0.265689,0.0245 -0.54006,0.18346 -0.277499,0.15519 -0.554957,0.38665 l -0.33745,0.28151 -0.519226,-0.62241 0.262461,-0.21895 q 0.569915,-0.47544 0.71031,-0.99316 0.141015,-0.5246 -0.240584,-0.98203 -0.168905,-0.20247 -0.380257,-0.28051 -0.214479,-0.0818 -0.449531,-0.051 -0.242551,0.037 -0.457552,0.15279 -0.215001,0.11577 -0.447466,0.3097 -0.356197,0.29714 -0.65104,0.75931 -0.294843,0.46216 -0.457113,0.99177 l -0.03749,0.0313 -0.653724,-0.78363 q 0.156735,-0.35331 0.508461,-0.83114 0.352348,-0.48469 0.768536,-0.83189 0.408689,-0.34093 0.78245,-0.52556 0.373761,-0.18462 0.7626,-0.22921 0.420097,-0.0452 0.771521,0.094 0.351425,0.13923 0.63606,0.48043 0.387856,0.46493 0.348796,1.08888 -0.03844,0.61708 -0.409552,1.07928 l 0.04379,0.0525 q 0.204997,-0.12014 0.518786,-0.21658 0.310663,-0.10019 0.590748,-0.0922 z" />
    <path
       d="m 22.918833,118.97643 -1.17464,3.34154 -0.630169,-0.22152 0.451787,-1.28521 -4.137544,-1.45446 -0.451787,1.28521 -0.563838,-0.1982 q 0.09182,-0.26119 0.155329,-0.57424 0.05937,-0.31453 0.03034,-0.49708 -0.03661,-0.22715 -0.156263,-0.39032 -0.122339,-0.16878 -0.385988,-0.28008 l 0.225895,-0.64261 5.563714,1.95579 0.443039,-1.26033 z"
       style="font-style:normal;font-size:medium;text-anchor:middle;fill:none;fill-opacity:1;stroke:#000000;stroke-width:0.25;stroke-linecap:butt;stroke-linejoin:bevel;stroke-dasharray:none;stroke-opacity:1"
       id="path938"
       inkscape:connector-curvature="0" />
    <path
       d="m 24.943125,113.21785 -1.469032,4.17901 -0.866483,-0.30459 q -0.220102,-0.56648 -0.440198,-1.13295 -0.218646,-0.57062 -0.455012,-1.0776 -0.491308,-1.06707 -0.839724,-1.52029 -0.352571,-0.45466 -0.879097,-0.63975 -0.480912,-0.16905 -0.862614,0.0554 -0.384389,0.2189 -0.584048,0.78688 -0.13262,0.37727 -0.15443,0.86336 -0.02182,0.4861 0.104612,1.00102 l -0.01456,0.0414 -0.870625,-0.30605 q -0.04163,-0.34536 0.01011,-0.87683 0.0532,-0.53561 0.21497,-0.99581 0.333736,-0.94939 0.983379,-1.32658 0.645503,-0.37865 1.429069,-0.1032 0.352392,0.12387 0.627119,0.32294 0.272036,0.19347 0.484459,0.46376 0.200203,0.25205 0.371711,0.55922 0.172964,0.30303 0.366306,0.72036 0.27938,0.59662 0.523678,1.21353 0.24015,0.61544 0.444119,1.1483 l 1.167355,-3.32082 z"
       style="font-style:normal;font-size:medium;text-anchor:middle;fill:none;fill-opacity:1;stroke:#000000;stroke-width:0.25;stroke-linecap:butt;stroke-linejoin:bevel;stroke-dasharray:none;stroke-opacity:1"
       id="path940"
       inkscape:connector-curvature="0" />
    <path
       d="m 22.543094,109.02032 -0.348311,0.99085 -1.181562,-0.41535 0.348311,-0.99085 z m 3.449337,1.21253 -0.34831,0.99085 -1.181563,-0.41535 0.348311,-0.99085 z"
       style="font-style:normal;font-size:medium;text-anchor:middle;fill:none;fill-opacity:1;stroke:#000000;stroke-width:0.25;stroke-linecap:butt;stroke-linejoin:bevel;stroke-dasharray:none;stroke-opacity:1"
       id="path942"
       inkscape:connector-curvature="0" />
    <path
       d="m 25.038326,103.44593 q 0.248217,-0.13633 0.56288,-0.17012 0.314654,-0.0338 0.741678,0.11632 0.422874,0.14865 0.721354,0.42592 0.298468,0.27727 0.462018,0.64685 0.180898,0.41295 0.173208,0.88539 -0.01038,0.46681 -0.186721,0.96846 -0.180714,0.51408 -0.479979,0.96787 -0.295112,0.45523 -0.552435,0.72345 l -0.866474,-0.30458 0.02185,-0.0622 q 0.356038,-0.27078 0.677034,-0.69363 0.320986,-0.42285 0.476926,-0.86646 0.09181,-0.26118 0.108212,-0.58616 0.0164,-0.32496 -0.08944,-0.56712 -0.115378,-0.25484 -0.303045,-0.42329 -0.186211,-0.17259 -0.522027,-0.29064 -0.331665,-0.11658 -0.585145,-0.0846 -0.256162,0.0264 -0.446116,0.16926 -0.194101,0.14138 -0.332977,0.39068 -0.142989,0.24786 -0.250833,0.55464 l -0.131164,0.37313 -0.688207,-0.24192 0.102014,-0.2902 q 0.22152,-0.63017 0.0915,-1.09511 -0.132714,-0.47054 -0.638513,-0.64835 -0.22387,-0.0787 -0.423221,-0.0416 -0.203501,0.0356 -0.371049,0.16769 -0.170453,0.14039 -0.283326,0.32896 -0.112827,0.18858 -0.203183,0.44562 -0.13845,0.39386 -0.153427,0.88702 -0.01498,0.49315 0.103609,0.97736 l -0.01456,0.0414 -0.866474,-0.30459 q -0.04163,-0.34537 0.01011,-0.87684 0.04905,-0.53708 0.210816,-0.99726 0.158856,-0.45191 0.362741,-0.76685 0.203889,-0.31496 0.483939,-0.52861 0.303935,-0.22855 0.639777,-0.28284 0.33583,-0.0543 0.713108,0.0783 0.514082,0.18071 0.771395,0.68108 0.25463,0.49477 0.180704,1.0231 l 0.05802,0.0204 q 0.103162,-0.18733 0.301266,-0.40649 0.194009,-0.22061 0.414217,-0.3435 z"
       style="font-style:normal;font-size:medium;text-anchor:middle;fill:none;fill-opacity:1;stroke:#000000;stroke-width:0.25;stroke-linecap:butt;stroke-linejoin:bevel;stroke-dasharray:none;stroke-opacity:1"
       id="path944"
       inkscape:connector-curvature="0" />
    <path
       class="arrow"
       d="m 160.79742,309.80318 8.06965,-11.61382 -5.60922,11.1708 9.15339,8.51267 z"
       id="path9721"
       inkscape:connector-curvature="0"
       style="fill:#000000;stroke:#000000;stroke-width:0.25;stroke-linecap:butt;stroke-linejoin:bevel;stroke-dasharray:none;stroke-opacity:1" />
    <path
       inkscape:connector-curvature="0"
       id="path947"
       style="font-style:normal;font-size:medium;text-anchor:middle;fill:none;fill-opacity:1;stroke:#000000;stroke-width:0.25;stroke-linecap:butt;stroke-linejoin:bevel;stroke-dasharray:none;stroke-opacity:1"
       d="m 172.97269,307.98537 -0.82862,0.69126 1.31057,1.57102 -0.71989,0.60055 -1.31058,-1.57102 -2.67335,2.23017 -0.71941,-0.86237 0.0759,-5.40472 0.6899,-0.57553 2.84636,3.41199 0.82863,-0.69126 z m -2.04897,0.6919 -2.10193,-2.51962 -0.0615,4.3244 z" />
    <path
       d="m 157.65532,312.90066 0.1721,0.95582 1.81216,-0.3263 0.14952,0.8304 -1.81216,0.32629 0.55524,3.08371 -0.99475,0.17912 -4.19445,-2.46417 -0.14329,-0.79579 3.93573,-0.70866 -0.17211,-0.95582 z m -0.37038,1.91081 -2.90639,0.52332 3.35572,1.97219 z"
       style="font-style:normal;font-size:medium;text-anchor:middle;fill:none;fill-opacity:1;stroke:#000000;stroke-width:0.25;stroke-linecap:butt;stroke-linejoin:bevel;stroke-dasharray:none;stroke-opacity:1"
       id="path950"
       inkscape:connector-curvature="0" />
    <path
       d="m 155.33487,310.25534 0.18612,1.03367 -1.23262,0.22194 -0.18612,-1.03366 z m 3.59838,-0.64791 0.18612,1.03366 -1.23261,0.22195 -0.18612,-1.03367 z"
       style="font-style:normal;font-size:medium;text-anchor:middle;fill:none;fill-opacity:1;stroke:#000000;stroke-width:0.25;stroke-linecap:butt;stroke-linejoin:bevel;stroke-dasharray:none;stroke-opacity:1"
       id="path952"
       inkscape:connector-curvature="0" />
    <path
       d="m 155.91404,303.23 0.1721,0.95582 1.81216,-0.32629 0.14952,0.8304 -1.81216,0.32629 0.55525,3.08371 -0.99476,0.17911 -4.19445,-2.46417 -0.14329,-0.79579 3.93573,-0.70866 -0.1721,-0.95582 z m -0.37038,1.91082 -2.90638,0.52332 3.35572,1.97219 z"
       style="font-style:normal;font-size:medium;text-anchor:middle;fill:none;fill-opacity:1;stroke:#000000;stroke-width:0.25;stroke-linecap:butt;stroke-linejoin:bevel;stroke-dasharray:none;stroke-opacity:1"
       id="path954"
       inkscape:connector-curvature="0" />
    <path
       class="arrow"
       d="m 245.0986,312.06713 -10.69788,9.24961 8.20444,-9.43064 -6.75617,-10.51685 z"
       id="path9733"
       inkscape:connector-curvature="0"
       style="fill:#000000;stroke:#000000;stroke-width:0.25000003;stroke-linecap:butt;stroke-linejoin:bevel;stroke-dasharray:none;stroke-opacity:1" />
    <path
       inkscape:connector-curvature="0"
       id="path957"
       style="font-style:normal;font-size:medium;text-anchor:middle;fill:none;fill-opacity:1;stroke:#000000;stroke-width:0.25;stroke-linecap:butt;stroke-linejoin:bevel;stroke-dasharray:none;stroke-opacity:1"
       d="m 239.09856,311.13389 q 0.3253,0.38995 0.47997,0.865 0.15467,0.47506 0.11052,0.92521 -0.051,0.48767 -0.3071,0.94293 -0.25546,0.44839 -0.74664,0.85814 -0.45743,0.3816 -0.96244,0.63756 -0.50189,0.25972 -0.90695,0.36871 l -0.65997,-0.79113 0.0525,-0.0438 q 0.4701,-0.0615 0.99827,-0.26685 0.52504,-0.20909 0.92248,-0.54064 0.26621,-0.22208 0.45112,-0.50351 0.18865,-0.28455 0.22723,-0.63467 0.0305,-0.29886 -0.0747,-0.59264 -0.10143,-0.2969 -0.34853,-0.59311 -0.24085,-0.28871 -0.50786,-0.40297 -0.26326,-0.1174 -0.53958,-0.0904 -0.31383,0.0202 -0.64195,0.19852 -0.32751,0.17147 -0.67246,0.45923 -0.32995,0.27525 -0.59987,0.57673 -0.26617,0.29835 -0.44985,0.52789 l -2.39907,-2.87582 3.3595,-2.80257 0.54737,0.65615 -2.63585,2.19889 1.23863,1.48478 q 0.14872,-0.1495 0.31119,-0.29775 0.16246,-0.14825 0.28619,-0.25147 0.45369,-0.37848 0.86057,-0.58437 0.40376,-0.20965 0.85136,-0.2524 0.47199,-0.044 0.90909,0.14457 0.4371,0.18857 0.84685,0.67975 z" />
    <path
       d="m 246.97384,309.38894 0.23881,-3.28933 0.62033,0.045 -0.0918,1.26513 4.07289,0.29571 0.0918,-1.26513 0.55502,0.0403 q -0.0187,0.2571 7.9e-4,0.5539 0.0236,0.29709 0.0942,0.45402 0.0884,0.19514 0.23577,0.31251 0.15116,0.12174 0.41525,0.15732 l -0.0459,0.63256 -5.47677,-0.39763 -0.0901,1.24064 z"
       style="font-style:normal;font-size:medium;text-anchor:middle;fill:none;fill-opacity:1;stroke:#000000;stroke-width:0.25;stroke-linecap:butt;stroke-linejoin:bevel;stroke-dasharray:none;stroke-opacity:1"
       id="path960"
       inkscape:connector-curvature="0" />
    <path
       d="m 250.13076,312.92071 0.0708,-0.97537 1.1631,0.0844 -0.0708,0.97538 z m -3.39544,-0.24652 0.0708,-0.97537 1.1631,0.0844 -0.0708,0.97538 z"
       style="font-style:normal;font-size:medium;text-anchor:middle;fill:none;fill-opacity:1;stroke:#000000;stroke-width:0.25;stroke-linecap:butt;stroke-linejoin:bevel;stroke-dasharray:none;stroke-opacity:1"
       id="path962"
       inkscape:connector-curvature="0" />
    <path
       d="m 248.22002,318.95224 q -0.42442,-0.0308 -0.80087,-0.21404 -0.37644,-0.18323 -0.62215,-0.47184 -0.26434,-0.31458 -0.38979,-0.73394 -0.12166,-0.41498 -0.0828,-0.94961 0.0361,-0.49789 0.17573,-0.95134 0.13552,-0.45376 0.30554,-0.76141 l 0.8611,0.0625 -0.004,0.0572 q -0.23651,0.31924 -0.42011,0.75718 -0.1795,0.43825 -0.21091,0.87085 -0.021,0.28975 0.041,0.56503 0.0617,0.27935 0.25042,0.50638 0.16245,0.19231 0.40079,0.29987 0.23805,0.11163 0.56045,0.13504 0.31424,0.0228 0.53854,-0.0717 0.224,-0.0904 0.36852,-0.27273 0.17049,-0.20095 0.25393,-0.50259 0.0872,-0.29726 0.11451,-0.67271 0.0261,-0.35913 0.001,-0.69734 -0.025,-0.33411 -0.0565,-0.57845 l 3.13017,0.22726 -0.26548,3.65662 -0.71419,-0.0519 0.2083,-2.86898 -1.6161,-0.11733 q 0.004,0.17666 -0.002,0.3609 -0.005,0.18423 -0.0151,0.3189 -0.0359,0.49381 -0.14849,0.85897 -0.10855,0.36545 -0.34332,0.6602 -0.24816,0.31019 -0.61625,0.46398 -0.36809,0.15379 -0.90271,0.11497 z"
       style="font-style:normal;font-size:medium;text-anchor:middle;fill:none;fill-opacity:1;stroke:#000000;stroke-width:0.25;stroke-linecap:butt;stroke-linejoin:bevel;stroke-dasharray:none;stroke-opacity:1"
       id="path964"
       inkscape:connector-curvature="0" />
    <path
       class="arrow"
       d="m 204.78629,327.66162 -11.44689,-8.30474 11.05412,5.83579 8.69751,-8.97794 z"
       id="path9745"
       inkscape:connector-curvature="0"
       style="fill:#000000;stroke:#000000;stroke-width:0.25000003;stroke-linecap:butt;stroke-linejoin:bevel;stroke-dasharray:none;stroke-opacity:1" />
    <path
       inkscape:connector-curvature="0"
       id="path967"
       style="font-style:normal;font-size:medium;text-anchor:middle;fill:none;fill-opacity:1;stroke:#000000;stroke-width:0.25;stroke-linecap:butt;stroke-linejoin:bevel;stroke-dasharray:none;stroke-opacity:1"
       d="m 205.05007,319.5116 q 0.71002,0.85112 0.59802,1.86022 -0.11138,1.00222 -0.92501,1.68097 -0.41244,0.34407 -0.85624,0.49809 -0.4438,0.15403 -0.91208,0.11864 -0.58206,-0.0422 -1.1868,-0.40887 -0.60099,-0.36979 -1.20467,-1.09344 -0.61932,-0.74239 -0.94041,-1.44742 -0.31733,-0.70816 -0.34085,-1.44524 -0.0235,-0.69894 0.30062,-1.36993 0.32099,-0.67473 1.01463,-1.25339 0.22122,-0.18454 0.38684,-0.29091 0.16562,-0.10637 0.36,-0.18587 l 0.59743,0.71615 -0.0375,0.0313 q -0.1519,0.0313 -0.40628,0.16088 -0.25376,0.12267 -0.47498,0.30721 -0.80613,0.67249 -0.86379,1.57903 -0.0608,0.9028 0.57675,1.8271 0.15543,-0.45396 0.37781,-0.8048 0.223,-0.35772 0.62419,-0.6924 0.3562,-0.29715 0.68246,-0.45487 0.32688,-0.16459 0.77762,-0.20359 0.52075,-0.0465 0.97661,0.16454 0.45962,0.20794 0.87563,0.70662 z m -0.73612,0.66495 q -0.29089,-0.3487 -0.58667,-0.48983 -0.29204,-0.14427 -0.66901,-0.11594 -0.27256,0.0239 -0.51381,0.16157 -0.24125,0.13767 -0.46996,0.32847 -0.31871,0.26586 -0.52986,0.56919 -0.21115,0.30332 -0.36849,0.70164 0.0613,0.0887 0.12325,0.17061 0.0588,0.0781 0.15578,0.19435 0.4942,0.59241 0.90194,0.83727 0.40837,0.23798 0.78787,0.25841 0.3101,0.0211 0.5745,-0.0659 0.26503,-0.0939 0.50125,-0.29098 0.54366,-0.45354 0.57962,-1.0431 0.0328,-0.59331 -0.48641,-1.21572 z" />
    <path
       inkscape:connector-curvature="0"
       id="path969"
       style="font-style:normal;font-size:medium;text-anchor:middle;fill:none;fill-opacity:1;stroke:#000000;stroke-width:0.25;stroke-linecap:butt;stroke-linejoin:bevel;stroke-dasharray:none;stroke-opacity:1"
       d="m 208.82924,319.43022 -0.89612,0.74756 -0.89144,-1.06859 0.89612,-0.74756 z" />
    <path
       d="m 212.49041,328.25859 3.498,-0.55647 0.10494,0.65967 -1.34539,0.21403 0.68903,4.33128 1.3454,-0.21403 0.0939,0.59023 q -0.27342,0.0435 -0.57899,0.13656 -0.3049,0.0974 -0.45166,0.20979 -0.18238,0.14026 -0.26898,0.32313 -0.0903,0.1879 -0.0627,0.47276 l -0.6727,0.10702 -0.92654,-5.82423 -1.31934,0.20989 z"
       style="font-style:normal;font-size:medium;text-anchor:middle;fill:none;fill-opacity:1;stroke:#000000;stroke-width:0.25;stroke-linecap:butt;stroke-linejoin:bevel;stroke-dasharray:none;stroke-opacity:1"
       id="path972"
       inkscape:connector-curvature="0" />
    <path
       d="m 207.52577,332.23889 q -0.23801,-0.15349 -0.41743,-0.41418 -0.17941,-0.2607 -0.25052,-0.70771 -0.0704,-0.44268 0.0315,-0.83712 0.10188,-0.39444 0.34917,-0.71411 0.27717,-0.35558 0.69637,-0.57356 0.41555,-0.21295 0.94068,-0.29649 0.53816,-0.0856 1.07967,-0.0383 0.54081,0.043 0.89915,0.14175 l 0.1443,0.90705 -0.0651,0.0104 q -0.40756,-0.18434 -0.9322,-0.26553 -0.52464,-0.0812 -0.98902,-0.007 -0.27341,0.0435 -0.56704,0.18367 -0.29365,0.14018 -0.4563,0.34848 -0.16925,0.22271 -0.22814,0.46792 -0.0632,0.2459 -0.007,0.59743 0.0552,0.3472 0.20398,0.55492 0.14508,0.21276 0.3611,0.31189 0.2167,0.10348 0.50205,0.10703 0.28604,0.008 0.6072,-0.0432 l 0.39059,-0.0621 0.11461,0.72044 -0.30379,0.0483 q -0.65968,0.10494 -1.00678,0.44049 -0.35075,0.34059 -0.26652,0.87006 0.0373,0.23436 0.16472,0.39208 0.12813,0.16206 0.32401,0.24659 0.20457,0.0831 0.42414,0.0927 0.21955,0.01 0.48863,-0.0333 0.41229,-0.0656 0.8532,-0.28702 0.44089,-0.22144 0.81038,-0.5561 l 0.0434,-0.007 0.1443,0.90706 q -0.28398,0.20092 -0.77607,0.40824 -0.49575,0.21236 -0.97748,0.289 -0.47305,0.0752 -0.84708,0.0457 -0.37403,-0.0295 -0.69518,-0.17419 -0.34562,-0.1586 -0.55314,-0.42818 -0.20753,-0.26957 -0.27036,-0.66451 -0.0856,-0.53815 0.2321,-1.00252 0.31406,-0.45934 0.81394,-0.64566 l -0.01,-0.0607 q -0.21385,-0.002 -0.50087,-0.0716 -0.28634,-0.0657 -0.49919,-0.20092 z"
       style="font-style:normal;font-size:medium;text-anchor:middle;fill:none;fill-opacity:1;stroke:#000000;stroke-width:0.25;stroke-linecap:butt;stroke-linejoin:bevel;stroke-dasharray:none;stroke-opacity:1"
       id="path974"
       inkscape:connector-curvature="0" />
    <path
       d="m 203.91186,333.32552 1.03724,-0.165 0.19677,1.23688 -1.03724,0.16501 z m -0.57443,-3.61084 1.03725,-0.16501 0.19677,1.23689 -1.03725,0.16501 z"
       style="font-style:normal;font-size:medium;text-anchor:middle;fill:none;fill-opacity:1;stroke:#000000;stroke-width:0.25;stroke-linecap:butt;stroke-linejoin:bevel;stroke-dasharray:none;stroke-opacity:1"
       id="path976"
       inkscape:connector-curvature="0" />
    <path
       d="m 196.99605,332.87274 q -0.15673,-0.98517 0.39485,-1.71369 0.54793,-0.72349 1.48969,-0.8733 0.4774,-0.076 0.89147,0.009 0.41407,0.0854 0.75979,0.32856 0.43054,0.30084 0.7291,0.86297 0.29423,0.56281 0.42748,1.40042 0.1367,0.85931 0.06,1.55232 -0.081,0.6937 -0.40244,1.27436 -0.3039,0.55118 -0.86366,0.92056 -0.55907,0.37373 -1.36196,0.50146 -0.25605,0.0407 -0.43311,0.0466 -0.17706,0.006 -0.36396,-0.0222 l -0.13187,-0.82893 0.0433,-0.007 q 0.13188,0.0457 0.38824,0.0628 0.25269,0.0221 0.50875,-0.0187 0.93309,-0.14844 1.3954,-0.82271 0.463,-0.66993 0.39604,-1.67827 -0.32935,0.27933 -0.66294,0.44809 -0.33723,0.1738 -0.80161,0.24767 -0.4123,0.0656 -0.73719,0.0372 -0.32856,-0.0234 -0.69499,-0.20093 -0.42404,-0.20398 -0.6792,-0.57722 -0.25951,-0.37254 -0.35133,-0.94975 z m 0.87548,-0.17492 q 0.0642,0.40362 0.22784,0.64903 0.1593,0.24609 0.46379,0.39789 0.22172,0.10712 0.47167,0.11186 0.24993,0.005 0.51467,-0.0374 0.36889,-0.0587 0.6719,-0.1959 0.303,-0.13721 0.60819,-0.37264 -0.006,-0.0969 -0.0167,-0.18868 -0.01,-0.0874 -0.0313,-0.22197 -0.10908,-0.68572 -0.31147,-1.0629 -0.20605,-0.37215 -0.49002,-0.56282 -0.23002,-0.1592 -0.47454,-0.21374 -0.24816,-0.0495 -0.52158,-0.006 -0.6293,0.10011 -0.92875,0.53932 -0.29877,0.44357 -0.18417,1.164 z"
       style="font-style:normal;font-size:medium;text-anchor:middle;fill:none;fill-opacity:1;stroke:#000000;stroke-width:0.25;stroke-linecap:butt;stroke-linejoin:bevel;stroke-dasharray:none;stroke-opacity:1"
       id="path978"
       inkscape:connector-curvature="0" />
    <path
       d="m 194.0369,331.19424 1.03725,-0.16501 0.19677,1.23689 -1.03725,0.16501 z"
       style="font-style:normal;font-size:medium;text-anchor:middle;fill:none;fill-opacity:1;stroke:#000000;stroke-width:0.25;stroke-linecap:butt;stroke-linejoin:bevel;stroke-dasharray:none;stroke-opacity:1"
       id="path980"
       inkscape:connector-curvature="0" />
  </g>
</svg>
