<?xml version="1.0" encoding="UTF-8" standalone="no"?>
<svg
   version="1.1"
   width="300.00mm"
   height="600.00mm"
   viewBox="0 0 300.00 600.00"
   id="svg992"
   sodipodi:docname="backrest_page2.svg"
   inkscape:version="1.1.1 (c3084ef, 2021-09-22)"
   xmlns:inkscape="http://www.inkscape.org/namespaces/inkscape"
   xmlns:sodipodi="http://sodipodi.sourceforge.net/DTD/sodipodi-0.dtd"
   xmlns="http://www.w3.org/2000/svg"
   xmlns:svg="http://www.w3.org/2000/svg">
  <defs
     id="defs996" />
  <sodipodi:namedview
     id="namedview994"
     pagecolor="#ffffff"
     bordercolor="#666666"
     borderopacity="1.0"
     inkscape:pageshadow="2"
     inkscape:pageopacity="0.0"
     inkscape:pagecheckerboard="0"
     inkscape:document-units="mm"
     showgrid="false"
     inkscape:zoom="0.1500648"
     inkscape:cx="163.26281"
     inkscape:cy="1542.6669"
     inkscape:window-width="1792"
     inkscape:window-height="975"
     inkscape:window-x="0"
     inkscape:window-y="25"
     inkscape:window-maximized="1"
     inkscape:current-layer="svg992" />
  <style
     type="text/css"
     id="style824">
    path {
        fill: none;
        stroke-linecap: butt;
        stroke-linejoin: bevel;
        stroke-dasharray: none;
    }
    path.outer {
        stroke: #000000;
        stroke-dasharray: none;
        stroke-dashoffset: 0;
        stroke-width: 0.3;
        stroke-opacity: 1.0;
    }
    path.convex {
        stroke: #000000;
        stroke-dasharray: 0.50,1.00;
        stroke-dashoffset:0;
        stroke-width:0.2;
        stroke-opacity: 1.0
    }
    path.concave {
        stroke: #000000;
        stroke-dasharray: 1.00,0.50,0.20,0.50;
        stroke-dashoffset: 0;
        stroke-width: 0.2;
        stroke-opacity: 1.0
    }
    path.freestyle {
        stroke: #000000;
        stroke-dasharray: none;
        stroke-dashoffset: 0;
        stroke-width: 0.2;
        stroke-opacity: 1.0
    }
    path.outer_background {
        stroke: #ffffff;
        stroke-opacity: 1.0;
        stroke-width: 0.5
    }
    path.inner_background {
        stroke: #ffffff;
        stroke-opacity: 1.0;
        stroke-width: 0.2
    }
    path.sticker {
        fill: #e5e5e5;
        stroke: none;
        fill-opacity: 1.0;
    }
    path.arrow {
        fill: #000000;
    }
    text {
        font-style: normal;
        fill: #000000;
        fill-opacity: 1.0;
        stroke: none;
    }
    text, tspan {
        text-anchor:middle;
    }
    </style>
  <g
     id="g898">
    <text
       transform="translate(118.93604,217.99998)"
       style="font-size:10px"
       id="text828"><tspan
         id="tspan826">[2] I 2</tspan></text>
    <path
       class="sticker"
       d="M 15.000029,451.87196 5.00003,451.71487 v -75.55776 l 9.999999,-0.15708 z m 0,92.24124 -9.999999,-0.1571 v -21.54899 l 9.999999,-0.15709 z m 98.847181,26.88683 -0.1571,10 -98.53302,-1e-5 -0.15709,-10 z m 107.02387,-35.92189 6.87839,7.26034 -28.03135,27.4049 -7.10304,-7.0407 z m -28.256,27.62454 1.90318,9.81848 -39.16881,8.23273 -2.21064,-9.75386 z m -177.615051,-40.45266 -10,-0.15709 v -70.06387 l 10,-0.1571 z m -2.9e-5,48.75 -10,-0.15711 3e-5,-26.57263 9.999999,-0.15708 z m 138.13881,1e-5 -0.15709,10 H 114.0043 l -0.15709,-10 z m 67.72869,-119.12806 10.00001,0.1571 v 70.06387 l -10.00001,0.1571 z m 0,70.37807 6.41409,0.099 0.002,6.50719 -6.41233,6.22194 z m 0,-146.25 10.00001,0.15709 v 75.55775 l -10.00001,0.15709 z m -205.867471,-1e-5 -10,-0.15709 v -75.55775 l 10,-0.15709 z m 0,-146.25 -9.999999,-0.15709 v -21.54898 l 9.999999,-0.15709 z m 3e-5,-48.74998 0.157093,-9.99999 h 98.533018 l 0.1571,9.99999 z m 177.615021,8.29735 7.10304,-7.04071 28.03135,27.40491 -6.87839,7.26032 z m -39.47627,-8.29735 2.21064,-9.75385 39.16881,8.23271 -1.90318,9.81849 z M 15.000029,300.1281 l -10,-0.15709 v -70.06389 l 10,-0.15709 z m 0,-92.24123 -9.999999,-0.15712 2.9e-5,-26.57261 10,-0.15709 z m 98.847241,-26.88682 0.15709,-9.99999 h 38.97736 l 0.15709,9.99999 z m 107.02023,48.74998 10.00001,0.15709 v 70.06392 l -10.00001,0.15709 z m 0.004,-12.82811 6.41233,6.22195 -0.002,6.50719 -6.41409,0.099 z m -0.004,83.20621 10.00001,0.15708 v 75.55774 l -10.00001,0.15709 z"
       id="path830" />
    <path
       class="outer"
       d="m 230.86751,376.15713 v 75.55775 l -10.00001,0.15709 10.00001,0.1571 v 70.06387 l -10.00001,0.1571 6.41409,0.099 0.002,6.50719 -6.41233,6.22194 6.87839,7.26034 -28.03135,27.4049 -7.10304,-7.0407 1.90318,9.81848 -39.16881,8.23273 -2.21064,-9.75386 -0.15709,10 h -38.9776 l -0.15709,-10 -0.1571,10 -98.53302,-10e-6 -0.15709,-10 -10,-0.15711 3e-5,-26.57263 9.999999,-0.15708 -9.999999,-0.1571 v -21.54899 l 9.999999,-0.15709 -10,-0.15709 v -70.06387 l 10,-0.1571 -9.999999,-0.15709 v -75.55776 l 9.999999,-0.15708 -10,-0.15709 v -75.55775 l 10,-0.15709 -10,-0.15709 v -70.06389 l 10,-0.15709 -9.999999,-0.15709 v -21.54898 l 9.999999,-0.15709 -9.999999,-0.15712 2.9e-5,-26.57261 10,-0.15709 0.157093,-9.99999 h 98.533018 l 0.1571,9.99999 0.15709,-9.99999 h 38.97736 l 0.15709,9.99999 2.21064,-9.75385 39.16881,8.23271 -1.90318,9.81849 7.10304,-7.04071 28.03135,27.40491 -6.87839,7.26032 6.41233,6.22195 -0.002,6.50719 -6.41409,0.099 10.00001,0.15709 v 70.06392 l -10.00001,0.15709 10.00001,0.15708 v 75.55774 l -10.00001,0.15709 z"
       id="path832" />
    <g
       id="g840">
      <path
         transform="matrix(-9.999999,-2e-6,2e-6,-9.999999,64.423603,571.00002)"
         class="arrow"
         d="M 0,0 1,1 0,0.25 -1,1 Z"
         id="path834" />
      <text
         transform="translate(64.423603,566.00003)"
         style="font-size:10px"
         id="text838"><tspan
           id="tspan836">1</tspan></text>
    </g>
    <text
       transform="rotate(180,32.211801,286.40001)"
       style="font-size:9px"
       id="text844"><tspan
         id="tspan842">8:1</tspan></text>
    <text
       transform="matrix(-0.715052,0.699072,-0.699072,-0.715052,208.00141,550.1775)"
       style="font-size:9px"
       id="text848"><tspan
         id="tspan846">8:1</tspan></text>
    <text
       transform="rotate(-90,285.37859,272.17829)"
       style="font-size:9px"
       id="text852"><tspan
         id="tspan850">3:3</tspan></text>
    <g
       id="g860">
      <path
         transform="matrix(0.002788,9.999999,-9.999999,0.002788,220.86929,528.66409)"
         class="arrow"
         d="M 0,0 1,1 0,0.25 -1,1 Z"
         id="path854" />
      <text
         transform="translate(211.86929,532.6666)"
         style="font-size:10px"
         id="text858"><tspan
           id="tspan856">2</tspan></text>
    </g>
    <text
       transform="rotate(89.984014,-153.39374,375.37476)"
       style="font-size:5.77px"
       id="text864"><tspan
         id="tspan862">6.:2</tspan></text>
    <g
       id="g872">
      <path
         transform="matrix(9.999999,0,0,9.999999,64.423663,181.00005)"
         class="arrow"
         d="M 0,0 1,1 0,0.25 -1,1 Z"
         id="path866" />
      <text
         transform="translate(64.423663,194.00006)"
         style="font-size:10px"
         id="text870"><tspan
           id="tspan868">3</tspan></text>
    </g>
    <text
       transform="translate(64.423663,179.20005)"
       style="font-size:9px"
       id="text876"><tspan
         id="tspan874">9.:3</tspan></text>
    <text
       transform="rotate(44.352528,-143.56791,356.0594)"
       style="font-size:9px"
       id="text880"><tspan
         id="tspan878">9.:1</tspan></text>
    <text
       transform="rotate(-90,103.82185,90.621701)"
       style="font-size:9px"
       id="text884"><tspan
         id="tspan882">3:6.</tspan></text>
    <g
       id="g892">
      <path
         transform="matrix(-0.002788,9.999999,-9.999999,-0.002788,220.86929,223.33598)"
         class="arrow"
         d="M 0,0 1,1 0,0.25 -1,1 Z"
         id="path886" />
      <text
         transform="translate(211.86929,227.33348)"
         style="font-size:10px"
         id="text890"><tspan
           id="tspan888">4</tspan></text>
    </g>
    <text
       transform="rotate(90.015986,-0.62509575,222.64909)"
       style="font-size:5.77px"
       id="text896"><tspan
         id="tspan894">6.:4</tspan></text>
  </g>
  <path
     class="sticker"
     d="m 244.8721,453.87196 -10.00002,-0.15709 10e-6,-75.55775 10.00001,-0.1571 z m 0,61.65934 -10.00002,-1.78239 10e-6,-35.18063 10.00001,-0.15709 z m 0,-37.12011 -9.99999,-0.15709 v -24.22505 l 9.99999,-0.15709 z m 3e-5,94.58885 -10.00001,-0.15712 -3e-5,-57.15453 10.00001,-0.15709 z m 36.99276,-3e-5 -0.15706,10.00002 h -36.6786 l -0.1571,-9.99999 z m 0,-194.99999 9.99999,0.1571 v 194.62022 l -9.99999,0.15712 z m -36.99279,0 -9.99999,-0.15709 -2e-5,-75.55774 10.00001,-0.15709 z m 0,-100.41118 -9.99999,-0.15706 -3e-5,-35.18063 9.99999,-1.78241 z m 0,24.53926 -10.00001,-0.15709 2e-5,-24.22505 9.99999,-0.15712 z m -3e-5,-61.65936 -9.99999,-0.15709 10e-6,-57.15451 10.00001,-0.15709 z m 3e-5,-57.46869 0.15709,-10.00002 h 36.67858 l 0.15709,9.99999 z m 36.99276,-9.98865 10.00002,0.15712 v 204.67441 l -9.99999,0.15709 z"
     id="path904"
     sodipodi:nodetypes="cccccccccccccccccccccccccccccccccccccccccccccccccccccccccccc" />
  <path
     class="outer"
     d="m 281.86489,518.41366 v 27.69953 26.88682 l -0.15706,10.00002 h -36.6786 l -0.1571,-9.99999 -10.00001,-0.15712 -3e-5,-57.15453 10.00001,-0.15709 -10.00002,-1.78239 10e-6,-35.18063 10.00001,-0.15709 -9.99999,-0.15709 v -24.22505 l 9.99999,-0.15709 -10.00002,-0.15709 10e-6,-75.55775 10.00001,-0.1571 -9.99999,-0.15709 -2e-5,-75.55774 10.00001,-0.15709 -10.00001,-0.15709 2e-5,-24.22505 9.99999,-0.15712 -9.99999,-0.15706 -3e-5,-35.18063 9.99999,-1.78241 -9.99999,-0.15709 10e-6,-57.15451 10.00001,-0.15709 0.15709,-10.00002 h 36.67858 l 0.15709,9.99999 v 26.88685 27.6995 64.5417 l 10.00002,0.15712 v 75.55774 l -9.99999,0.15709 9.99999,0.1571 v 75.55772 l -9.99999,0.15712 z"
     id="path906" />
  <g
     id="g914">
    <path
       transform="matrix(1e-6,-10,10,1e-6,244.87208,496.97124)"
       class="arrow"
       d="M 0,0 1,1 0,0.25 -1,1 Z"
       id="path908" />
    <text
       transform="translate(253.87209,500.97125)"
       style="font-size:10px"
       id="text912"><tspan
         id="tspan910">1</tspan></text>
  </g>
  <text
     transform="rotate(-90)"
     style="font-size:9px"
     id="text918"
     x="-496.97125"
     y="243.07208"><tspan
       id="tspan916">18:1</tspan></text>
  <g
     id="g926">
    <path
       transform="matrix(-6e-6,-10,10,-6e-6,244.87211,544.26565)"
       class="arrow"
       d="M 0,0 1,1 0,0.25 -1,1 Z"
       id="path920" />
    <text
       transform="translate(253.87212,548.26565)"
       style="font-size:10px"
       id="text924"><tspan
         id="tspan922">2</tspan></text>
  </g>
  <text
     transform="rotate(-90)"
     style="font-size:9px"
     id="text930"
     x="-544.2655"
     y="243.07172"><tspan
       id="tspan928">12:2</tspan></text>
  <text
     transform="scale(-1)"
     style="font-size:9px"
     id="text934"
     x="-263.3685"
     y="-574.80005"><tspan
       id="tspan932">10:2</tspan></text>
  <g
     id="g942">
    <path
       transform="matrix(1e-6,10,-10,1e-6,281.86489,415.936)"
       class="arrow"
       d="M 0,0 1,1 0,0.25 -1,1 Z"
       id="path936" />
    <text
       transform="translate(272.86488,419.936)"
       style="font-size:10px"
       id="text940"><tspan
         id="tspan938">3</tspan></text>
  </g>
  <text
     transform="rotate(90)"
     style="font-size:9px"
     id="text946"
     x="415.936"
     y="-283.66489"><tspan
       id="tspan944">21:3</tspan></text>
  <g
     id="g954">
    <path
       transform="matrix(-7e-6,-10.000001,10.000001,-7e-6,244.87208,259.02879)"
       class="arrow"
       d="M 0,0 1,1 0,0.25 -1,1 Z"
       id="path948" />
    <text
       transform="translate(253.87209,263.0288)"
       style="font-size:10px"
       id="text952"><tspan
         id="tspan950">4</tspan></text>
  </g>
  <text
     transform="rotate(-90)"
     style="font-size:9px"
     id="text958"
     x="-259.02878"
     y="243.07184"><tspan
       id="tspan956">18:4</tspan></text>
  <g
     id="g966">
    <path
       transform="matrix(3e-6,-10,10,3e-6,244.87208,211.73441)"
       class="arrow"
       d="M 0,0 1,1 0,0.25 -1,1 Z"
       id="path960" />
    <text
       transform="translate(253.87209,215.73442)"
       style="font-size:10px"
       id="text964"><tspan
         id="tspan962">5</tspan></text>
  </g>
  <text
     transform="rotate(-90)"
     style="font-size:9px"
     id="text970"
     x="-211.73442"
     y="243.07208"><tspan
       id="tspan968">13:5</tspan></text>
  <text
     style="font-size:9px"
     id="text974"
     x="263.36847"
     y="181.20004"><tspan
       id="tspan972">11:2</tspan></text>
  <g
     id="g982">
    <path
       transform="matrix(1e-6,10,-10,1e-6,281.86486,340.06404)"
       class="arrow"
       d="M 0,0 1,1 0,0.25 -1,1 Z"
       id="path976" />
    <text
       transform="translate(272.86485,344.06405)"
       style="font-size:10px"
       id="text980"><tspan
         id="tspan978">6.</tspan></text>
  </g>
  <text
     transform="rotate(90)"
     style="font-size:9px"
     id="text986"
     x="340.06409"
     y="-283.66486"><tspan
       id="tspan984">21:6.</tspan></text>
  <text
     style="font-size:10px"
     id="text902"
     x="262.12692"
     y="315.01282"><tspan
       id="tspan900">[14] I 14</tspan></text>
</svg>
