<?xml version="1.0" encoding="UTF-8" standalone="no"?>
<svg
   xmlns:dc="http://purl.org/dc/elements/1.1/"
   xmlns:cc="http://creativecommons.org/ns#"
   xmlns:rdf="http://www.w3.org/1999/02/22-rdf-syntax-ns#"
   xmlns:svg="http://www.w3.org/2000/svg"
   xmlns="http://www.w3.org/2000/svg"
   xmlns:sodipodi="http://sodipodi.sourceforge.net/DTD/sodipodi-0.dtd"
   xmlns:inkscape="http://www.inkscape.org/namespaces/inkscape"
   version="1.1"
   width="300.00mm"
   height="600.00mm"
   viewBox="0 0 300.00 600.00"
   id="svg992"
   sodipodi:docname="backrest_page2.svg"
   inkscape:version="0.92.2 (5c3e80d, 2017-08-06)">
  <metadata
     id="metadata87">
    <rdf:RDF>
      <cc:Work
         rdf:about="">
        <dc:format>image/svg+xml</dc:format>
        <dc:type
           rdf:resource="http://purl.org/dc/dcmitype/StillImage" />
      </cc:Work>
    </rdf:RDF>
  </metadata>
  <defs
     id="defs996" />
  <sodipodi:namedview
     id="namedview994"
     pagecolor="#ffffff"
     bordercolor="#666666"
     borderopacity="1.0"
     inkscape:pageshadow="2"
     inkscape:pageopacity="0.0"
     inkscape:pagecheckerboard="0"
     inkscape:document-units="mm"
     showgrid="false"
     inkscape:zoom="0.8488947"
     inkscape:cx="482.76854"
     inkscape:cy="1289.1022"
     inkscape:window-width="1920"
     inkscape:window-height="1017"
     inkscape:window-x="1912"
     inkscape:window-y="-8"
     inkscape:window-maximized="1"
     inkscape:current-layer="svg992" />
  <style
     type="text/css"
     id="style824">
    path {
        fill: none;
        stroke-linecap: butt;
        stroke-linejoin: bevel;
        stroke-dasharray: none;
    }
    path.outer {
        stroke: #000000;
        stroke-dasharray: none;
        stroke-dashoffset: 0;
        stroke-width: 0.3;
        stroke-opacity: 1.0;
    }
    path.convex {
        stroke: #000000;
        stroke-dasharray: 0.50,1.00;
        stroke-dashoffset:0;
        stroke-width:0.2;
        stroke-opacity: 1.0
    }
    path.concave {
        stroke: #000000;
        stroke-dasharray: 1.00,0.50,0.20,0.50;
        stroke-dashoffset: 0;
        stroke-width: 0.2;
        stroke-opacity: 1.0
    }
    path.freestyle {
        stroke: #000000;
        stroke-dasharray: none;
        stroke-dashoffset: 0;
        stroke-width: 0.2;
        stroke-opacity: 1.0
    }
    path.outer_background {
        stroke: #ffffff;
        stroke-opacity: 1.0;
        stroke-width: 0.5
    }
    path.inner_background {
        stroke: #ffffff;
        stroke-opacity: 1.0;
        stroke-width: 0.2
    }
    path.sticker {
        fill: #e5e5e5;
        stroke: none;
        fill-opacity: 1.0;
    }
    path.arrow {
        fill: #000000;
    }
    text {
        font-style: normal;
        fill: #000000;
        fill-opacity: 1.0;
        stroke: none;
    }
    text, tspan {
        text-anchor:middle;
    }
    </style>
  <path
     inkscape:connector-curvature="0"
     id="path1162"
     style="font-style:normal;font-size:medium;text-anchor:middle;fill:none;fill-opacity:1;stroke:#000000;stroke-width:0.25;stroke-linecap:butt;stroke-linejoin:bevel;stroke-dasharray:none;stroke-opacity:1"
     d="m 106.09913,219.91405 h -2.53906 v -9.51172 h 2.53906 v 0.69824 h -1.68945 v 8.11524 h 1.68945 z" />
  <path
     inkscape:connector-curvature="0"
     id="path1164"
     style="font-style:normal;font-size:medium;text-anchor:middle;fill:none;fill-opacity:1;stroke:#000000;stroke-width:0.25;stroke-linecap:butt;stroke-linejoin:bevel;stroke-dasharray:none;stroke-opacity:1"
     d="m 112.65186,217.99998 h -4.92187 v -1.0205 q 0.51269,-0.43946 1.02539,-0.87891 0.51758,-0.43945 0.96191,-0.87402 0.9375,-0.90821 1.28418,-1.44043 0.34668,-0.53711 0.34668,-1.15723 0,-0.56641 -0.37597,-0.88379 -0.3711,-0.32226 -1.04004,-0.32226 -0.44434,0 -0.96192,0.15625 -0.51758,0.15625 -1.01074,0.47851 h -0.0488 v -1.02539 q 0.34668,-0.1709 0.92285,-0.3125 0.58106,-0.1416 1.12305,-0.1416 1.11816,0 1.75293,0.54199 0.63477,0.53711 0.63477,1.45996 0,0.41504 -0.10743,0.77637 -0.10254,0.35645 -0.30761,0.67871 -0.19043,0.30274 -0.44922,0.5957 -0.25391,0.29297 -0.62012,0.64942 -0.52246,0.51269 -1.0791,0.99609 -0.55664,0.47852 -1.04004,0.88867 h 3.91113 z" />
  <path
     inkscape:connector-curvature="0"
     id="path1166"
     style="font-style:normal;font-size:medium;text-anchor:middle;fill:none;fill-opacity:1;stroke:#000000;stroke-width:0.25;stroke-linecap:butt;stroke-linejoin:bevel;stroke-dasharray:none;stroke-opacity:1"
     d="M 116.68507,219.91405 H 114.146 v -0.69824 h 1.68946 v -8.11524 H 114.146 v -0.69824 h 2.53907 z" />
  <path
     inkscape:connector-curvature="0"
     id="path1168"
     style="font-style:normal;font-size:medium;text-anchor:middle;fill:none;fill-opacity:1;stroke:#000000;stroke-width:0.25;stroke-linecap:butt;stroke-linejoin:bevel;stroke-dasharray:none;stroke-opacity:1"
     d="m 124.91749,217.99998 h -2.8711 v -0.74218 h 0.95215 v -5.78614 h -0.95215 v -0.74218 h 2.8711 v 0.74218 h -0.95215 v 5.78614 h 0.95215 z" />
  <path
     inkscape:connector-curvature="0"
     id="path1170"
     style="font-style:normal;font-size:medium;text-anchor:middle;fill:none;fill-opacity:1;stroke:#000000;stroke-width:0.25;stroke-linecap:butt;stroke-linejoin:bevel;stroke-dasharray:none;stroke-opacity:1"
     d="m 134.81983,217.99998 h -4.92187 v -1.0205 q 0.51269,-0.43946 1.02539,-0.87891 0.51758,-0.43945 0.96191,-0.87402 0.9375,-0.90821 1.28418,-1.44043 0.34668,-0.53711 0.34668,-1.15723 0,-0.56641 -0.37598,-0.88379 -0.37109,-0.32226 -1.04003,-0.32226 -0.44434,0 -0.96192,0.15625 -0.51758,0.15625 -1.01074,0.47851 h -0.0488 v -1.02539 q 0.34668,-0.1709 0.92285,-0.3125 0.58106,-0.1416 1.12305,-0.1416 1.11816,0 1.75293,0.54199 0.63476,0.53711 0.63476,1.45996 0,0.41504 -0.10742,0.77637 -0.10254,0.35645 -0.30761,0.67871 -0.19043,0.30274 -0.44922,0.5957 -0.25391,0.29297 -0.62012,0.64942 -0.52246,0.51269 -1.0791,0.99609 -0.55664,0.47852 -1.04004,0.88867 h 3.91113 z" />
  <path
     style="fill:#e5e5e5;fill-opacity:1;stroke:#000000;stroke-linecap:butt;stroke-linejoin:bevel;stroke-dasharray:none;stroke-opacity:1;stroke-width:0.25"
     inkscape:connector-curvature="0"
     id="path830"
     d="M 15.000029,451.87196 5.00003,451.71487 v -75.55776 l 9.999999,-0.15708 z m 0,92.24124 -9.999999,-0.1571 v -21.54899 l 9.999999,-0.15709 z m 98.847181,26.88683 -0.1571,10 -98.53302,-1e-5 -0.15709,-10 z m 107.02387,-35.92189 6.87839,7.26034 -28.03135,27.4049 -7.10304,-7.0407 z m -28.256,27.62454 1.90318,9.81848 -39.16881,8.23273 -2.21064,-9.75386 z m -177.615051,-40.45266 -10,-0.15709 v -70.06387 l 10,-0.1571 z m -2.9e-5,48.75 -10,-0.15711 3e-5,-26.57263 9.999999,-0.15708 z m 138.13881,1e-5 -0.15709,10 H 114.0043 l -0.15709,-10 z m 67.72869,-119.12806 10.00001,0.1571 v 70.06387 l -10.00001,0.1571 z m 0,70.37807 6.41409,0.099 0.002,6.50719 -6.41233,6.22194 z m 0,-146.25 10.00001,0.15709 v 75.55775 l -10.00001,0.15709 z m -205.867471,-1e-5 -10,-0.15709 v -75.55775 l 10,-0.15709 z m 0,-146.25 -9.999999,-0.15709 v -21.54898 l 9.999999,-0.15709 z m 3e-5,-48.74998 0.157093,-9.99999 h 98.533018 l 0.1571,9.99999 z m 177.615021,8.29735 7.10304,-7.04071 28.03135,27.40491 -6.87839,7.26032 z m -39.47627,-8.29735 2.21064,-9.75385 39.16881,8.23271 -1.90318,9.81849 z M 15.000029,300.1281 l -10,-0.15709 v -70.06389 l 10,-0.15709 z m 0,-92.24123 -9.999999,-0.15712 2.9e-5,-26.57261 10,-0.15709 z m 98.847241,-26.88682 0.15709,-9.99999 h 38.97736 l 0.15709,9.99999 z m 107.02023,48.74998 10.00001,0.15709 v 70.06392 l -10.00001,0.15709 z m 0.004,-12.82811 6.41233,6.22195 -0.002,6.50719 -6.41409,0.099 z m -0.004,83.20621 10.00001,0.15708 v 75.55774 l -10.00001,0.15709 z"
     class="sticker" />
  <path
     class="arrow"
     d="m 64.423603,571.00002 -9.999997,-10 9.999997,7.5 10.000001,-7.5 z"
     id="path834"
     inkscape:connector-curvature="0"
     style="fill:#000000;stroke:#000000;stroke-width:0.24999999;stroke-linecap:butt;stroke-linejoin:bevel;stroke-dasharray:none;stroke-opacity:1" />
  <path
     d="m 66.532978,566.00003 h -3.935547 v -0.74219 h 1.513672 v -4.87304 h -1.513672 v -0.66407 q 0.307617,0 0.65918,-0.0488 0.351562,-0.0537 0.532226,-0.15137 0.22461,-0.12207 0.351563,-0.30762 0.131836,-0.19043 0.151367,-0.50781 h 0.756836 v 6.55273 h 1.484375 z"
     style="font-style:normal;font-size:medium;text-anchor:middle;fill:none;fill-opacity:1;stroke:#000000;stroke-width:0.25;stroke-linecap:butt;stroke-linejoin:bevel;stroke-dasharray:none;stroke-opacity:1"
     id="path1173"
     inkscape:connector-curvature="0" />
  <path
     inkscape:connector-curvature="0"
     id="path1176"
     style="font-style:normal;font-size:medium;text-anchor:middle;fill:none;fill-opacity:1;stroke:#000000;stroke-width:0.25;stroke-linecap:butt;stroke-linejoin:bevel;stroke-dasharray:none;stroke-opacity:1"
     d="m 67.016373,574.62378 q 0,-0.84815 0.663574,-1.41065 0.65918,-0.5625 1.661133,-0.5625 1.063476,0 1.696289,0.54932 0.628418,0.54932 0.628418,1.40625 0,0.54492 -0.316407,0.98438 -0.316406,0.44384 -0.892089,0.70312 v 0.0264 q 0.527343,0.28125 0.782226,0.61523 0.250488,0.33399 0.250488,0.83496 0,0.73828 -0.606445,1.23047 -0.606445,0.49219 -1.54248,0.49219 -0.979981,0 -1.564453,-0.47021 -0.584473,-0.47022 -0.584473,-1.19532 0,-0.44385 0.276855,-0.87451 0.276856,-0.42627 0.812989,-0.66797 v -0.0264 q -0.615235,-0.26367 -0.94043,-0.65039 -0.325195,-0.38671 -0.325195,-0.98437 z m 1.041504,3.19482 q 0,0.47022 0.364746,0.74707 0.360351,0.28125 0.922851,0.28125 0.553711,0 0.909668,-0.26367 0.351563,-0.26367 0.351563,-0.71191 0,-0.31641 -0.175782,-0.54932 -0.180175,-0.22851 -0.540527,-0.40869 -0.162598,-0.0791 -0.46582,-0.20654 -0.307617,-0.12744 -0.597656,-0.21094 -0.435059,0.29004 -0.602051,0.60205 -0.166992,0.31201 -0.166992,0.7207 z m -0.136231,-3.27832 q 0,0.4043 0.180176,0.646 0.175781,0.24609 0.694336,0.49219 0.206543,0.0967 0.452637,0.18017 0.246093,0.0835 0.654785,0.23291 0.395508,-0.21533 0.637207,-0.58447 0.237304,-0.36914 0.237304,-0.83496 0,-0.59326 -0.408691,-0.97998 -0.408691,-0.38672 -1.037109,-0.38672 -0.641602,0 -1.023926,0.32959 -0.386719,0.32959 -0.386719,0.90527 z" />
  <path
     inkscape:connector-curvature="0"
     id="path1178"
     style="font-style:normal;font-size:medium;text-anchor:middle;fill:none;fill-opacity:1;stroke:#000000;stroke-width:0.25;stroke-linecap:butt;stroke-linejoin:bevel;stroke-dasharray:none;stroke-opacity:1"
     d="m 63.90065,576.4563 h 1.050293 v 1.25244 H 63.90065 Z m 0,-3.65625 h 1.050293 v 1.25244 H 63.90065 Z" />
  <path
     inkscape:connector-curvature="0"
     id="path1180"
     style="font-style:normal;font-size:medium;text-anchor:middle;fill:none;fill-opacity:1;stroke:#000000;stroke-width:0.25;stroke-linecap:butt;stroke-linejoin:bevel;stroke-dasharray:none;stroke-opacity:1"
     d="m 57.612076,572.80005 h 3.541992 v 0.66797 h -1.362305 v 4.38574 h 1.362305 v 0.59766 q -0.276855,0 -0.593262,0.0439 -0.316406,0.0483 -0.479004,0.13623 -0.202148,0.10987 -0.316406,0.27686 -0.118652,0.17138 -0.13623,0.45703 h -0.681153 v -5.89746 h -1.335937 z" />
  <path
     inkscape:connector-curvature="0"
     id="path1183"
     style="font-style:normal;font-size:medium;text-anchor:middle;fill:none;fill-opacity:1;stroke:#000000;stroke-width:0.25;stroke-linecap:butt;stroke-linejoin:bevel;stroke-dasharray:none;stroke-opacity:1"
     d="m 211.13032,549.66904 q -0.59291,-0.60646 -0.51165,-1.47256 0.0781,-0.86303 0.79457,-1.56347 0.76043,-0.74345 1.59694,-0.79305 0.83336,-0.0465 1.43242,0.56624 0.38094,0.38965 0.46191,0.92507 0.084,0.53857 -0.14636,1.1264 l 0.0185,0.0189 q 0.57369,-0.16754 0.98943,-0.1069 0.41259,0.0637 0.76281,0.42193 0.51611,0.52791 0.42655,1.30379 -0.0896,0.77589 -0.75889,1.43024 -0.70073,0.68508 -1.44738,0.75745 -0.74664,0.0724 -1.25353,-0.44613 -0.31028,-0.31737 -0.41338,-0.81887 -0.10003,-0.49834 0.11437,-1.04596 l -0.0185,-0.0189 q -0.62424,0.24155 -1.12712,0.19236 -0.50288,-0.0492 -0.92068,-0.47655 z m 2.97814,1.55639 q 0.32871,0.33622 0.78307,0.2792 0.45428,-0.0508 0.8565,-0.44403 0.39593,-0.38708 0.46613,-0.82446 0.0671,-0.43431 -0.24629,-0.75482 -0.22119,-0.22625 -0.5097,-0.26991 -0.28859,-0.0374 -0.67222,0.0856 -0.17156,0.0571 -0.47747,0.17796 -0.30906,0.12392 -0.57482,0.26696 -0.10833,0.51154 -0.01,0.85138 0.0987,0.33985 0.38442,0.63209 z m -2.38919,-2.24894 q 0.28262,0.28909 0.58043,0.33596 0.29773,0.0531 0.84056,-0.13344 0.21529,-0.0752 0.44962,-0.18759 0.23433,-0.11233 0.63102,-0.29121 0.13227,-0.43046 0.047,-0.86338 -0.0884,-0.42985 -0.41401,-0.76293 -0.41473,-0.42422 -0.97731,-0.41504 -0.56258,0.009 -1.01193,0.44849 -0.45878,0.44853 -0.50175,0.95148 -0.0461,0.50602 0.35633,0.91766 z" />
  <path
     inkscape:connector-curvature="0"
     id="path1185"
     style="font-style:normal;font-size:medium;text-anchor:middle;fill:none;fill-opacity:1;stroke:#000000;stroke-width:0.25;stroke-linecap:butt;stroke-linejoin:bevel;stroke-dasharray:none;stroke-opacity:1"
     d="m 210.18348,553.1575 0.75101,-0.73423 0.87555,0.89556 -0.75102,0.73423 z m -2.55598,-2.61441 0.75101,-0.73423 0.87555,0.89556 -0.75102,0.73423 z" />
  <path
     inkscape:connector-curvature="0"
     id="path1187"
     style="font-style:normal;font-size:medium;text-anchor:middle;fill:none;fill-opacity:1;stroke:#000000;stroke-width:0.25;stroke-linecap:butt;stroke-linejoin:bevel;stroke-dasharray:none;stroke-opacity:1"
     d="m 203.13084,554.93926 2.5327,-2.4761 0.46696,0.47763 -0.97411,0.95234 3.06595,3.13603 0.97411,-0.95234 0.41781,0.42736 q -0.19796,0.19353 -0.39352,0.44612 -0.19248,0.25572 -0.24727,0.43227 -0.0677,0.21988 -0.0327,0.41916 0.035,0.2055 0.22208,0.42203 l -0.48706,0.47618 -4.12274,-4.21699 -0.95527,0.93391 z" />
  <path
     inkscape:connector-curvature="0"
     id="path1190"
     style="font-style:normal;font-size:medium;text-anchor:middle;fill:none;fill-opacity:1;stroke:#000000;stroke-width:0.25;stroke-linecap:butt;stroke-linejoin:bevel;stroke-dasharray:none;stroke-opacity:1"
     d="m 10.049421,560.77368 q 0.188965,-0.21094 0.47461,-0.34717 0.285644,-0.13623 0.738281,-0.13623 0.448242,0 0.821777,0.1626 0.373535,0.1626 0.650391,0.45703 0.307617,0.32959 0.457031,0.77783 0.14502,0.44385 0.14502,0.97559 0,0.54492 -0.131836,1.07227 -0.127442,0.52734 -0.28125,0.86572 h -0.918457 v -0.0659 q 0.246093,-0.37353 0.408691,-0.87891 0.162598,-0.50537 0.162598,-0.97558 0,-0.27686 -0.09228,-0.58887 -0.09229,-0.31201 -0.272461,-0.50537 -0.19336,-0.20215 -0.42627,-0.29883 -0.23291,-0.10107 -0.588867,-0.10107 -0.351563,0 -0.580078,0.11426 -0.23291,0.10986 -0.364746,0.30761 -0.136231,0.19776 -0.184571,0.47901 -0.05273,0.28125 -0.05273,0.60644 v 0.39551 H 9.2847729 V 562.782 q 0,-0.66797 -0.2768555,-1.06347 -0.28125,-0.39991 -0.8173828,-0.39991 -0.2373047,0 -0.4130859,0.10108 -0.1801758,0.10107 -0.2944336,0.28125 -0.1142579,0.18896 -0.1582032,0.40429 -0.043945,0.21534 -0.043945,0.4878 0,0.41748 0.1494141,0.88769 0.149414,0.47022 0.421875,0.8877 v 0.0439 H 6.933699 q -0.1538086,-0.31201 -0.28125,-0.83056 -0.131836,-0.52295 -0.131836,-1.01075 0,-0.479 0.087891,-0.84375 0.087891,-0.36474 0.28125,-0.65917 0.2109375,-0.31641 0.5097657,-0.47901 0.2988281,-0.1626 0.6987304,-0.1626 0.5449219,0 0.9536133,0.38672 0.4042969,0.38233 0.5097656,0.90528 h 0.061523 q 0.035156,-0.21094 0.149414,-0.4834 0.1098633,-0.27246 0.276855,-0.46143 z" />
  <path
     inkscape:connector-curvature="0"
     id="path1192"
     style="font-style:normal;font-size:medium;text-anchor:middle;fill:none;fill-opacity:1;stroke:#000000;stroke-width:0.25;stroke-linecap:butt;stroke-linejoin:bevel;stroke-dasharray:none;stroke-opacity:1"
     d="m 9.5440502,557.03394 v 1.05029 H 8.2916088 v -1.05029 z m 3.6562498,0 v 1.05029 h -1.252441 v -1.05029 z" />
  <path
     inkscape:connector-curvature="0"
     id="path1194"
     style="font-style:normal;font-size:medium;text-anchor:middle;fill:none;fill-opacity:1;stroke:#000000;stroke-width:0.25;stroke-linecap:butt;stroke-linejoin:bevel;stroke-dasharray:none;stroke-opacity:1"
     d="m 10.049421,550.94751 q 0.188965,-0.21094 0.47461,-0.34717 0.285644,-0.13623 0.738281,-0.13623 0.448242,0 0.821777,0.1626 0.373535,0.1626 0.650391,0.45703 0.307617,0.32959 0.457031,0.77783 0.14502,0.44385 0.14502,0.97559 0,0.54492 -0.131836,1.07226 -0.127442,0.52735 -0.28125,0.86573 h -0.918457 v -0.0659 q 0.246093,-0.37354 0.408691,-0.87891 0.162598,-0.50537 0.162598,-0.97558 0,-0.27686 -0.09228,-0.58887 -0.09229,-0.31201 -0.272461,-0.50537 -0.19336,-0.20215 -0.42627,-0.29883 -0.23291,-0.10107 -0.588867,-0.10107 -0.351563,0 -0.580078,0.11425 -0.23291,0.10987 -0.364746,0.30762 -0.136231,0.19775 -0.184571,0.479 -0.05273,0.28125 -0.05273,0.60645 v 0.39551 H 9.2847729 v -0.30762 q 0,-0.66797 -0.2768555,-1.06348 -0.28125,-0.3999 -0.8173828,-0.3999 -0.2373047,0 -0.4130859,0.10108 -0.1801758,0.10107 -0.2944336,0.28125 -0.1142579,0.18896 -0.1582032,0.40429 -0.043945,0.21533 -0.043945,0.4878 0,0.41748 0.1494141,0.88769 0.149414,0.47022 0.421875,0.8877 v 0.0439 H 6.933699 q -0.1538086,-0.31201 -0.28125,-0.83056 -0.131836,-0.52295 -0.131836,-1.01075 0,-0.479 0.087891,-0.84375 0.087891,-0.36474 0.28125,-0.65918 0.2109375,-0.3164 0.5097657,-0.479 0.2988281,-0.1626 0.6987304,-0.1626 0.5449219,0 0.9536133,0.38672 0.4042969,0.38232 0.5097656,0.90527 h 0.061523 q 0.035156,-0.21093 0.149414,-0.48339 0.1098633,-0.27247 0.276855,-0.46143 z" />
  <path
     class="arrow"
     d="m 220.86929,528.66409 -9.99721,10.00279 7.49721,-10.00209 -7.50279,-9.99791 z"
     id="path854"
     inkscape:connector-curvature="0"
     style="fill:#000000;stroke:#000000;stroke-width:0.24999999;stroke-linecap:butt;stroke-linejoin:bevel;stroke-dasharray:none;stroke-opacity:1" />
  <path
     d="m 214.3937,532.6666 h -4.92187 v -1.02051 q 0.51269,-0.43945 1.02539,-0.8789 0.51758,-0.43946 0.96191,-0.87403 0.9375,-0.9082 1.28418,-1.44043 0.34668,-0.53711 0.34668,-1.15722 0,-0.56641 -0.37597,-0.88379 -0.3711,-0.32227 -1.04004,-0.32227 -0.44434,0 -0.96192,0.15625 -0.51757,0.15625 -1.01074,0.47852 h -0.0488 v -1.02539 q 0.34668,-0.1709 0.92285,-0.3125 0.58106,-0.1416 1.12305,-0.1416 1.11817,0 1.75293,0.54199 0.63477,0.53711 0.63477,1.45996 0,0.41504 -0.10742,0.77637 -0.10254,0.35644 -0.30762,0.67871 -0.19043,0.30273 -0.44922,0.5957 -0.25391,0.29297 -0.62012,0.64941 -0.52246,0.5127 -1.0791,0.9961 -0.55664,0.47851 -1.04004,0.88867 h 3.91113 z"
     style="font-style:normal;font-size:medium;text-anchor:middle;fill:none;fill-opacity:1;stroke:#000000;stroke-width:0.25;stroke-linecap:butt;stroke-linejoin:bevel;stroke-dasharray:none;stroke-opacity:1"
     id="path1197"
     inkscape:connector-curvature="0" />
  <path
     inkscape:connector-curvature="0"
     id="path1200"
     style="font-style:normal;font-size:medium;text-anchor:middle;fill:none;fill-opacity:1;stroke:#000000;stroke-width:0.25;stroke-linecap:butt;stroke-linejoin:bevel;stroke-dasharray:none;stroke-opacity:1"
     d="m 223.38385,525.98407 q -0.63954,1.8e-4 -1.04537,-0.42231 -0.40299,-0.41968 -0.40316,-1.03105 -9e-5,-0.30991 0.0956,-0.56351 0.0957,-0.25358 0.28442,-0.44804 0.23379,-0.24236 0.61973,-0.37488 0.38594,-0.12971 0.9297,-0.12986 0.55784,-1.6e-4 0.98894,0.11805 0.43109,0.12102 0.76642,0.38295 0.31844,0.24784 0.49604,0.63941 0.18043,0.39156 0.18058,0.91278 4e-5,0.16622 -0.014,0.27893 -0.0141,0.11269 -0.0506,0.22822 l -0.53812,1.5e-4 -1e-5,-0.0282 q 0.0423,-0.0789 0.0788,-0.23949 0.0395,-0.15779 0.0394,-0.32401 -1.7e-4,-0.60574 -0.38062,-0.96627 -0.37763,-0.36051 -1.02282,-0.4195 0.14375,0.23662 0.21707,0.46481 0.0762,0.23101 0.0763,0.53247 7e-5,0.26765 -0.0506,0.47051 -0.0478,0.20568 -0.19711,0.41985 -0.17179,0.24797 -0.43377,0.37201 -0.26199,0.12686 -0.6367,0.12696 z m -0.0227,-0.57192 q 0.26202,-7e-5 0.43386,-0.079 0.17184,-0.0761 0.29857,-0.25364 0.0902,-0.12963 0.11825,-0.28742 0.0282,-0.15777 0.0281,-0.32963 -7e-5,-0.23948 -0.0565,-0.44514 -0.0563,-0.20565 -0.17479,-0.42255 -0.062,-0.006 -0.12116,-0.008 -0.0563,-0.003 -0.14368,-0.003 -0.44515,1.3e-4 -0.70432,0.0903 -0.25636,0.0931 -0.40563,0.25368 -0.12393,0.12964 -0.18305,0.27897 -0.0564,0.15216 -0.0563,0.32965 1.1e-4,0.40852 0.24811,0.6423 0.25081,0.23377 0.71849,0.23364 z" />
  <path
     inkscape:connector-curvature="0"
     id="path1202"
     style="font-style:normal;font-size:medium;text-anchor:middle;fill:none;fill-opacity:1;stroke:#000000;stroke-width:0.25;stroke-linecap:butt;stroke-linejoin:bevel;stroke-dasharray:none;stroke-opacity:1"
     d="m 222.02354,527.68896 -1.9e-4,-0.67335 0.80295,-2.2e-4 1.9e-4,0.67335 z" />
  <path
     inkscape:connector-curvature="0"
     id="path1204"
     style="font-style:normal;font-size:medium;text-anchor:middle;fill:none;fill-opacity:1;stroke:#000000;stroke-width:0.25;stroke-linecap:butt;stroke-linejoin:bevel;stroke-dasharray:none;stroke-opacity:1"
     d="m 224.36826,530.04646 -1.9e-4,-0.67335 0.80295,-2.2e-4 1.9e-4,0.67335 z m -2.34406,6.5e-4 -1.9e-4,-0.67335 0.80295,-2.2e-4 1.9e-4,0.67335 z" />
  <path
     inkscape:connector-curvature="0"
     id="path1206"
     style="font-style:normal;font-size:medium;text-anchor:middle;fill:none;fill-opacity:1;stroke:#000000;stroke-width:0.25;stroke-linecap:butt;stroke-linejoin:bevel;stroke-dasharray:none;stroke-opacity:1"
     d="m 222.02539,534.31827 -7.9e-4,-2.83993 0.58883,-1.6e-4 q 0.25364,0.29576 0.50729,0.59151 0.25364,0.29858 0.50447,0.55489 0.52418,0.54079 0.83133,0.74074 0.30997,0.19994 0.66778,0.19984 0.32681,-9e-5 0.50988,-0.21707 0.18589,-0.21418 0.18578,-0.60016 -7e-5,-0.25638 -0.0902,-0.555 -0.0903,-0.29861 -0.27628,-0.58312 l -1e-5,-0.0282 0.59165,-1.7e-4 q 0.0987,0.2 0.18046,0.53243 0.0818,0.33525 0.0819,0.64798 1.8e-4,0.64518 -0.31244,1.01153 -0.30981,0.36634 -0.8423,0.36649 -0.23948,7e-5 -0.44798,-0.0619 -0.20569,-0.0591 -0.39167,-0.17739 -0.17471,-0.10984 -0.34379,-0.25911 -0.16908,-0.14645 -0.37481,-0.35769 -0.29591,-0.30138 -0.57492,-0.62249 -0.27619,-0.32111 -0.51293,-0.59996 l 6.3e-4,2.25673 z" />
  <path
     class="arrow"
     d="m 64.423663,181.00005 9.999999,10 -9.999999,-7.5 -9.999999,7.5 z"
     id="path866"
     inkscape:connector-curvature="0"
     style="fill:#000000;stroke:#000000;stroke-width:0.24999999;stroke-linecap:butt;stroke-linejoin:bevel;stroke-dasharray:none;stroke-opacity:1" />
  <path
     d="m 66.308429,190.49908 q 0.234375,0.20996 0.385742,0.52735 0.151367,0.31738 0.151367,0.82031 0,0.49805 -0.180664,0.91309 -0.180664,0.41503 -0.507813,0.72265 -0.36621,0.3418 -0.864257,0.50781 -0.493164,0.16114 -1.083985,0.16114 -0.605468,0 -1.191406,-0.14649 -0.585937,-0.1416 -0.961914,-0.3125 v -1.02051 h 0.07324 q 0.415039,0.27344 0.976562,0.45411 0.561524,0.18066 1.083985,0.18066 0.307617,0 0.654297,-0.10254 0.346679,-0.10254 0.561523,-0.30273 0.224609,-0.21485 0.332031,-0.47364 0.112305,-0.25878 0.112305,-0.65429 0,-0.39063 -0.126953,-0.64453 -0.12207,-0.25879 -0.341797,-0.40528 -0.219727,-0.15136 -0.532227,-0.20508 -0.3125,-0.0586 -0.673828,-0.0586 h -0.439453 v -0.81055 h 0.341797 q 0.742188,0 1.181641,-0.30761 0.444336,-0.3125 0.444336,-0.90821 0,-0.26367 -0.112305,-0.45898 -0.112305,-0.2002 -0.3125,-0.32715 -0.209961,-0.12695 -0.449219,-0.17578 -0.239258,-0.0488 -0.541992,-0.0488 -0.463867,0 -0.986328,0.16602 -0.522461,0.16601 -0.986328,0.46875 h -0.04883 v -1.02051 q 0.34668,-0.1709 0.922851,-0.3125 0.581055,-0.14649 1.123047,-0.14649 0.532227,0 0.9375,0.0977 0.405274,0.0977 0.732422,0.3125 0.351563,0.23438 0.532227,0.56641 0.180664,0.33203 0.180664,0.77636 0,0.60547 -0.429688,1.05957 -0.424804,0.44922 -1.005859,0.56641 v 0.0684 q 0.234375,0.0391 0.537109,0.16602 0.302735,0.12207 0.512696,0.30761 z"
     style="font-style:normal;font-size:medium;text-anchor:middle;fill:none;fill-opacity:1;stroke:#000000;stroke-width:0.25;stroke-linecap:butt;stroke-linejoin:bevel;stroke-dasharray:none;stroke-opacity:1"
     id="path1209"
     inkscape:connector-curvature="0" />
  <path
     inkscape:connector-curvature="0"
     id="path1212"
     style="font-style:normal;font-size:medium;text-anchor:middle;fill:none;fill-opacity:1;stroke:#000000;stroke-width:0.25;stroke-linecap:butt;stroke-linejoin:bevel;stroke-dasharray:none;stroke-opacity:1"
     d="m 60.138992,175.535 q 0,0.85694 -0.197754,1.55567 -0.193359,0.69873 -0.588867,1.19092 -0.399902,0.50097 -1.001953,0.77343 -0.602051,0.27246 -1.415039,0.27246 -0.228516,0 -0.430664,-0.0264 -0.202148,-0.022 -0.360352,-0.0747 v -0.83936 h 0.04395 q 0.127441,0.0659 0.360351,0.12745 0.23291,0.0571 0.518555,0.0571 0.971191,0 1.520508,-0.58007 0.553711,-0.58448 0.641601,-1.6084 -0.408691,0.24609 -0.769043,0.35156 -0.360351,0.10547 -0.786621,0.10547 -0.404297,0 -0.733886,-0.0791 -0.325196,-0.0791 -0.654786,-0.30762 -0.386718,-0.26807 -0.584472,-0.68115 -0.19336,-0.41309 -0.19336,-0.98877 0,-1.00195 0.65918,-1.63037 0.65918,-0.62842 1.608398,-0.62842 0.47461,0 0.878907,0.14941 0.404297,0.14502 0.707519,0.43946 0.373535,0.36474 0.575684,0.94043 0.202148,0.57129 0.202148,1.48095 z m -0.887695,-0.18896 q 0,-0.68115 -0.140625,-1.09424 -0.140625,-0.41309 -0.386719,-0.6416 -0.206543,-0.19775 -0.443847,-0.28125 -0.237305,-0.0879 -0.514161,-0.0879 -0.632812,0 -1.001953,0.39551 -0.364746,0.3955 -0.364746,1.11181 0,0.41748 0.118653,0.68115 0.118652,0.26368 0.399902,0.46143 0.197754,0.13623 0.435058,0.18457 0.237305,0.044 0.527344,0.044 0.342774,0 0.694336,-0.0923 0.351563,-0.0923 0.65918,-0.26807 0.0044,-0.0923 0.0088,-0.18017 0.0088,-0.0923 0.0088,-0.23291 z" />
  <path
     inkscape:connector-curvature="0"
     id="path1214"
     style="font-style:normal;font-size:medium;text-anchor:middle;fill:none;fill-opacity:1;stroke:#000000;stroke-width:0.25;stroke-linecap:butt;stroke-linejoin:bevel;stroke-dasharray:none;stroke-opacity:1"
     d="m 62.903152,179.20004 h -1.050293 v -1.25244 h 1.050293 z" />
  <path
     inkscape:connector-curvature="0"
     id="path1216"
     style="font-style:normal;font-size:medium;text-anchor:middle;fill:none;fill-opacity:1;stroke:#000000;stroke-width:0.25;stroke-linecap:butt;stroke-linejoin:bevel;stroke-dasharray:none;stroke-opacity:1"
     d="m 66.581375,175.54379 h -1.050293 v -1.25244 h 1.050293 z m 0,3.65625 h -1.050293 v -1.25244 h 1.050293 z" />
  <path
     inkscape:connector-curvature="0"
     id="path1218"
     style="font-style:normal;font-size:medium;text-anchor:middle;fill:none;fill-opacity:1;stroke:#000000;stroke-width:0.25;stroke-linecap:butt;stroke-linejoin:bevel;stroke-dasharray:none;stroke-opacity:1"
     d="m 72.667801,176.04916 q 0.210937,0.18897 0.347168,0.47461 0.13623,0.28565 0.13623,0.73828 0,0.44825 -0.162597,0.82178 -0.162598,0.37354 -0.457032,0.65039 -0.329589,0.30762 -0.777832,0.45703 -0.443847,0.14502 -0.975586,0.14502 -0.544921,0 -1.072265,-0.13183 -0.527344,-0.12744 -0.865723,-0.28125 v -0.91846 h 0.06592 q 0.373535,0.24609 0.878906,0.40869 0.505371,0.1626 0.975586,0.1626 0.276856,0 0.588868,-0.0923 0.312011,-0.0923 0.505371,-0.27246 0.202148,-0.19336 0.298828,-0.42627 0.101074,-0.23291 0.101074,-0.58886 0,-0.35157 -0.114258,-0.58008 -0.109863,-0.23291 -0.307617,-0.36475 -0.197754,-0.13623 -0.479004,-0.18457 -0.28125,-0.0527 -0.606445,-0.0527 h -0.395508 v -0.72949 H 70.6595 q 0.667969,0 1.063477,-0.27686 0.399902,-0.28125 0.399902,-0.81738 0,-0.23731 -0.101074,-0.41309 -0.101074,-0.18017 -0.28125,-0.29443 -0.188965,-0.11426 -0.404297,-0.15821 -0.215332,-0.0439 -0.487793,-0.0439 -0.417481,0 -0.887695,0.14941 -0.470215,0.14942 -0.887696,0.42188 h -0.04395 v -0.91846 q 0.312012,-0.15381 0.830566,-0.28125 0.52295,-0.13183 1.010743,-0.13183 0.479004,0 0.84375,0.0879 0.364746,0.0879 0.659179,0.28125 0.316407,0.21093 0.479004,0.50976 0.162598,0.29883 0.162598,0.69873 0,0.54492 -0.386719,0.95362 -0.382324,0.40429 -0.905273,0.50976 v 0.0615 q 0.210937,0.0352 0.483398,0.14942 0.272461,0.10986 0.461426,0.27685 z" />
  <path
     inkscape:connector-curvature="0"
     id="path1221"
     style="font-style:normal;font-size:medium;text-anchor:middle;fill:none;fill-opacity:1;stroke:#000000;stroke-width:0.25;stroke-linecap:butt;stroke-linejoin:bevel;stroke-dasharray:none;stroke-opacity:1"
     d="m 207.49984,196.20657 q -0.59906,0.61275 -1.22892,0.97414 -0.62673,0.36445 -1.25361,0.4399 -0.63617,0.0787 -1.25713,-0.14738 -0.62097,-0.22606 -1.2023,-0.79439 -0.1634,-0.15976 -0.28951,-0.31992 -0.12919,-0.15703 -0.20545,-0.30534 l 0.58677,-0.60018 0.0314,0.0307 q 0.045,0.13622 0.16857,0.34304 0.12661,0.20367 0.33087,0.40336 0.69445,0.67893 1.49275,0.64815 0.80452,-0.0308 1.58317,-0.70156 -0.46428,-0.10974 -0.79568,-0.28623 -0.3314,-0.1765 -0.63621,-0.47449 -0.28909,-0.28264 -0.46947,-0.5696 -0.17723,-0.2839 -0.25315,-0.6777 -0.0891,-0.46203 0.0582,-0.89565 0.15052,-0.43055 0.55296,-0.84219 0.70044,-0.71645 1.6111,-0.70499 0.91065,0.0115 1.58939,0.67503 0.33937,0.33178 0.52401,0.72126 0.18772,0.38633 0.19871,0.80883 0.0121,0.52195 -0.24579,1.0749 -0.25482,0.54982 -0.89074,1.20028 z m -0.50264,-0.75568 q 0.47617,-0.48706 0.66439,-0.88075 0.18822,-0.39368 0.172,-0.72912 -0.009,-0.28579 -0.12076,-0.51139 -0.10824,-0.22874 -0.30621,-0.42228 -0.45249,-0.44238 -0.99294,-0.41763 -0.53729,0.0278 -1.03804,0.54003 -0.29185,0.29852 -0.39134,0.57 -0.0995,0.27148 -0.0366,0.6095 0.0462,0.23566 0.18207,0.43612 0.13896,0.19731 0.34635,0.40007 0.24511,0.23963 0.561,0.4194 0.3159,0.17978 0.65875,0.26914 0.0674,-0.0632 0.13239,-0.12255 0.071,-0.0597 0.16926,-0.16025 z" />
  <path
     inkscape:connector-curvature="0"
     id="path1223"
     style="font-style:normal;font-size:medium;text-anchor:middle;fill:none;fill-opacity:1;stroke:#000000;stroke-width:0.25;stroke-linecap:butt;stroke-linejoin:bevel;stroke-dasharray:none;stroke-opacity:1"
     d="m 206.91424,200.7596 -0.75102,-0.73422 0.87555,-0.89556 0.75101,0.73422 z" />
  <path
     inkscape:connector-curvature="0"
     id="path1225"
     style="font-style:normal;font-size:medium;text-anchor:middle;fill:none;fill-opacity:1;stroke:#000000;stroke-width:0.25;stroke-linecap:butt;stroke-linejoin:bevel;stroke-dasharray:none;stroke-opacity:1"
     d="m 212.10034,200.71654 -0.75102,-0.73423 0.87555,-0.89557 0.75102,0.73424 z m -2.55598,2.61441 -0.75102,-0.73424 0.87555,-0.89556 0.75102,0.73424 z" />
  <path
     inkscape:connector-curvature="0"
     id="path1227"
     style="font-style:normal;font-size:medium;text-anchor:middle;fill:none;fill-opacity:1;stroke:#000000;stroke-width:0.25;stroke-linecap:butt;stroke-linejoin:bevel;stroke-dasharray:none;stroke-opacity:1"
     d="m 214.04102,207.72711 -2.53271,-2.47611 0.46696,-0.47763 0.97411,0.95235 3.06595,-3.13604 -0.97412,-0.95234 0.41781,-0.42736 q 0.19796,0.19354 0.45493,0.38331 0.26004,0.18663 0.43775,0.23744 0.22135,0.0628 0.41979,0.0232 0.20465,-0.0396 0.41691,-0.23157 l 0.48705,0.47618 -4.12274,4.21699 0.95527,0.93391 z" />
  <path
     inkscape:connector-curvature="0"
     id="path1230"
     style="font-style:normal;font-size:medium;text-anchor:middle;fill:none;fill-opacity:1;stroke:#000000;stroke-width:0.25;stroke-linecap:butt;stroke-linejoin:bevel;stroke-dasharray:none;stroke-opacity:1"
     d="m 10.04927,199.29512 q 0.188965,-0.21094 0.474609,-0.34717 0.285645,-0.13623 0.738281,-0.13623 0.448242,0 0.821778,0.1626 0.373535,0.1626 0.65039,0.45703 0.307617,0.32959 0.457032,0.77783 0.145019,0.44385 0.145019,0.97559 0,0.54492 -0.131836,1.07226 -0.127441,0.52735 -0.28125,0.86573 h -0.918457 v -0.0659 q 0.246094,-0.37354 0.408691,-0.87891 0.162598,-0.50537 0.162598,-0.97558 0,-0.27686 -0.09228,-0.58887 -0.09229,-0.31201 -0.272461,-0.50537 -0.193359,-0.20215 -0.426269,-0.29883 -0.232911,-0.10107 -0.588868,-0.10107 -0.351562,0 -0.580078,0.11425 -0.23291,0.10987 -0.364746,0.30762 -0.13623,0.19776 -0.18457,0.47901 -0.05274,0.28125 -0.05274,0.60644 v 0.39551 H 9.2846212 v -0.30762 q 0,-0.66797 -0.2768554,-1.06348 -0.28125,-0.3999 -0.8173828,-0.3999 -0.2373047,0 -0.413086,0.10108 -0.1801758,0.10107 -0.2944336,0.28125 -0.1142578,0.18896 -0.1582031,0.40429 -0.043945,0.21534 -0.043945,0.4878 0,0.41748 0.1494141,0.88769 0.149414,0.47022 0.421875,0.8877 v 0.0439 H 6.933547 q -0.1538086,-0.31201 -0.28125,-0.83056 -0.1318359,-0.52295 -0.1318359,-1.01075 0,-0.479 0.087891,-0.84375 0.087891,-0.36474 0.28125,-0.65918 0.2109375,-0.3164 0.5097656,-0.479 0.2988282,-0.1626 0.6987305,-0.1626 0.5449219,0 0.9536133,0.38672 0.4042969,0.38233 0.5097656,0.90527 h 0.061523 q 0.035156,-0.21093 0.1494141,-0.48339 0.1098633,-0.27246 0.2768558,-0.46143 z" />
  <path
     inkscape:connector-curvature="0"
     id="path1232"
     style="font-style:normal;font-size:medium;text-anchor:middle;fill:none;fill-opacity:1;stroke:#000000;stroke-width:0.25;stroke-linecap:butt;stroke-linejoin:bevel;stroke-dasharray:none;stroke-opacity:1"
     d="m 9.5438986,195.55537 v 1.0503 H 8.2914572 v -1.0503 z m 3.6562504,0 v 1.0503 h -1.252442 v -1.0503 z" />
  <path
     inkscape:connector-curvature="0"
     id="path1234"
     style="font-style:normal;font-size:medium;text-anchor:middle;fill:none;fill-opacity:1;stroke:#000000;stroke-width:0.25;stroke-linecap:butt;stroke-linejoin:bevel;stroke-dasharray:none;stroke-opacity:1"
     d="m 11.07759,188.79659 q 0.997559,0 1.630371,0.65917 0.628418,0.65479 0.628418,1.6084 0,0.4834 -0.149414,0.87891 -0.149414,0.39551 -0.443848,0.69873 -0.364746,0.37793 -0.966797,0.58447 -0.60205,0.20215 -1.450195,0.20215 -0.870117,0 -1.5424803,-0.18457 -0.6723633,-0.18896 -1.1953125,-0.59766 -0.4965821,-0.38671 -0.7734375,-0.99755 -0.28125,-0.61084 -0.28125,-1.42383 0,-0.25928 0.021973,-0.43506 0.021973,-0.17578 0.079102,-0.35596 h 0.8393555 v 0.044 q -0.065918,0.12304 -0.1230469,0.37353 -0.061523,0.2461 -0.061523,0.50537 0,0.94483 0.5932617,1.50733 0.5888672,0.5625 1.5952148,0.65478 -0.2241211,-0.36914 -0.3383789,-0.72509 -0.1186523,-0.36036 -0.1186523,-0.83057 0,-0.41748 0.079102,-0.73389 0.074707,-0.3208 0.3076172,-0.65478 0.2680664,-0.38672 0.6767582,-0.58008 0.408691,-0.19775 0.993164,-0.19775 z m 0.03516,0.89208 q -0.408691,0 -0.676758,0.12305 -0.268066,0.11865 -0.4658199,0.39551 -0.140625,0.20215 -0.1845703,0.44824 -0.043945,0.2461 -0.043945,0.51416 0,0.37354 0.087891,0.69434 0.087891,0.3208 0.2724612,0.65918 0.09668,0.009 0.188965,0.0132 0.08789,0.004 0.224121,0.004 0.694336,0 1.098633,-0.14063 0.399902,-0.14502 0.632812,-0.39551 0.19336,-0.20215 0.285645,-0.43506 0.08789,-0.2373 0.08789,-0.51416 0,-0.6372 -0.386718,-1.00195 -0.391114,-0.36475 -1.120606,-0.36475 z" />
  <path
     inkscape:connector-curvature="0"
     id="path1236"
     style="font-style:normal;font-size:medium;text-anchor:middle;fill:none;fill-opacity:1;stroke:#000000;stroke-width:0.25;stroke-linecap:butt;stroke-linejoin:bevel;stroke-dasharray:none;stroke-opacity:1"
     d="m 13.200149,186.13789 v 1.0503 h -1.252442 v -1.0503 z" />
  <path
     class="arrow"
     d="m 220.86929,223.33598 -10.00279,9.99721 7.50279,-9.99791 -7.49721,-10.00209 z"
     id="path886"
     inkscape:connector-curvature="0"
     style="fill:#000000;stroke:#000000;stroke-width:0.24999999;stroke-linecap:butt;stroke-linejoin:bevel;stroke-dasharray:none;stroke-opacity:1" />
  <path
     d="m 214.55972,225.28758 h -1.0791 v 2.0459 h -0.9375 v -2.0459 h -3.48145 v -1.12305 l 3.52051,-4.10156 h 0.89844 v 4.44336 h 1.0791 z m -2.0166,-0.78125 v -3.28125 l -2.81738,3.28125 z"
     style="font-style:normal;font-size:medium;text-anchor:middle;fill:none;fill-opacity:1;stroke:#000000;stroke-width:0.25;stroke-linecap:butt;stroke-linejoin:bevel;stroke-dasharray:none;stroke-opacity:1"
     id="path1239"
     inkscape:connector-curvature="0" />
  <path
     inkscape:connector-curvature="0"
     id="path1242"
     style="font-style:normal;font-size:medium;text-anchor:middle;fill:none;fill-opacity:1;stroke:#000000;stroke-width:0.25;stroke-linecap:butt;stroke-linejoin:bevel;stroke-dasharray:none;stroke-opacity:1"
     d="m 223.38536,220.65735 q -0.63955,-1.7e-4 -1.04513,-0.4229 -0.40277,-0.4199 -0.4026,-1.03127 9e-5,-0.30991 0.096,-0.56344 0.0959,-0.25355 0.28468,-0.44789 0.23391,-0.24223 0.61993,-0.37454 0.38601,-0.12949 0.92977,-0.12934 0.55784,1.6e-4 0.98887,0.11861 0.43103,0.12127 0.76622,0.38337 0.31829,0.24802 0.49568,0.63969 0.1802,0.39167 0.18006,0.91288 -5e-5,0.16623 -0.0142,0.27891 -0.0141,0.1127 -0.0508,0.2282 l -0.53812,-1.5e-4 1e-5,-0.0282 q 0.0423,-0.0789 0.079,-0.23946 0.0394,-0.15776 0.0395,-0.32399 1.7e-4,-0.60574 -0.38008,-0.96646 -0.37743,-0.36074 -1.02259,-0.42008 0.14362,0.2367 0.21681,0.46493 0.076,0.23104 0.0759,0.5325 -7e-5,0.26765 -0.0508,0.4705 -0.048,0.20565 -0.19734,0.41973 -0.17193,0.24788 -0.43397,0.37177 -0.26206,0.12671 -0.63677,0.1266 z m -0.0223,-0.57193 q 0.26201,7e-5 0.4339,-0.0788 0.17188,-0.0761 0.29872,-0.25349 0.0901,-0.12957 0.11841,-0.28733 0.0282,-0.15777 0.0283,-0.32963 6e-5,-0.23948 -0.0563,-0.44516 -0.0562,-0.20569 -0.17455,-0.42266 -0.062,-0.006 -0.12115,-0.008 -0.0564,-0.003 -0.14369,-0.003 -0.44514,-1.3e-4 -0.70436,0.09 -0.25642,0.0929 -0.40578,0.25345 -0.124,0.12956 -0.18321,0.27886 -0.0563,0.15213 -0.0564,0.32963 -1.2e-4,0.40852 0.24774,0.64243 0.25068,0.23391 0.71837,0.23404 z" />
  <path
     inkscape:connector-curvature="0"
     id="path1244"
     style="font-style:normal;font-size:medium;text-anchor:middle;fill:none;fill-opacity:1;stroke:#000000;stroke-width:0.25;stroke-linecap:butt;stroke-linejoin:bevel;stroke-dasharray:none;stroke-opacity:1"
     d="m 222.02409,222.3615 1.9e-4,-0.67336 0.80295,2.2e-4 -1.9e-4,0.67336 z" />
  <path
     inkscape:connector-curvature="0"
     id="path1246"
     style="font-style:normal;font-size:medium;text-anchor:middle;fill:none;fill-opacity:1;stroke:#000000;stroke-width:0.25;stroke-linecap:butt;stroke-linejoin:bevel;stroke-dasharray:none;stroke-opacity:1"
     d="m 224.36749,224.7203 1.9e-4,-0.67336 0.80296,2.2e-4 -1.9e-4,0.67336 z m -2.34406,-6.5e-4 1.9e-4,-0.67336 0.80295,2.2e-4 -1.9e-4,0.67336 z" />
  <path
     inkscape:connector-curvature="0"
     id="path1248"
     style="font-style:normal;font-size:medium;text-anchor:middle;fill:none;fill-opacity:1;stroke:#000000;stroke-width:0.25;stroke-linecap:butt;stroke-linejoin:bevel;stroke-dasharray:none;stroke-opacity:1"
     d="m 223.20269,229.08691 1.8e-4,-0.62264 -1.18048,-3.3e-4 1.5e-4,-0.54093 1.18048,3.2e-4 5.6e-4,-2.00879 0.648,1.9e-4 2.36603,2.03199 -1.4e-4,0.5184 -2.56381,-7.2e-4 -1.8e-4,0.62264 z m 0.45112,-1.16345 1.89328,5.3e-4 -1.89283,-1.62616 z" />
  <path
     class="sticker"
     d="m 244.8721,453.87196 -10.00002,-0.15709 10e-6,-75.55775 10.00001,-0.1571 z m 0,61.65934 -10.00002,-1.78239 10e-6,-35.18063 10.00001,-0.15709 z m 0,-37.12011 -9.99999,-0.15709 v -24.22505 l 9.99999,-0.15709 z m 3e-5,94.58885 -10.00001,-0.15712 -3e-5,-57.15453 10.00001,-0.15709 z m 36.99276,-3e-5 -0.15706,10.00002 h -36.6786 l -0.1571,-9.99999 z m 0,-194.99999 9.99999,0.1571 v 194.62022 l -9.99999,0.15712 z m -36.99279,0 -9.99999,-0.15709 -2e-5,-75.55774 10.00001,-0.15709 z m 0,-100.41118 -9.99999,-0.15706 -3e-5,-35.18063 9.99999,-1.78241 z m 0,24.53926 -10.00001,-0.15709 2e-5,-24.22505 9.99999,-0.15712 z m -3e-5,-61.65936 -9.99999,-0.15709 10e-6,-57.15451 10.00001,-0.15709 z m 3e-5,-57.46869 0.15709,-10.00002 h 36.67858 l 0.15709,9.99999 z m 36.99276,-9.98865 10.00002,0.15712 v 204.67441 l -9.99999,0.15709 z"
     id="path904"
     sodipodi:nodetypes="cccccccccccccccccccccccccccccccccccccccccccccccccccccccccccc"
     style="stroke:#000000;stroke-opacity:1;stroke-width:0.25" />
  <path
     class="outer"
     d="m 281.86489,518.41366 v 27.69953 26.88682 l -0.15706,10.00002 h -36.6786 l -0.1571,-9.99999 -10.00001,-0.15712 -3e-5,-57.15453 10.00001,-0.15709 -10.00002,-1.78239 10e-6,-35.18063 10.00001,-0.15709 -9.99999,-0.15709 v -24.22505 l 9.99999,-0.15709 -10.00002,-0.15709 10e-6,-75.55775 10.00001,-0.1571 -9.99999,-0.15709 -2e-5,-75.55774 10.00001,-0.15709 -10.00001,-0.15709 2e-5,-24.22505 9.99999,-0.15712 -9.99999,-0.15706 -3e-5,-35.18063 9.99999,-1.78241 -9.99999,-0.15709 10e-6,-57.15451 10.00001,-0.15709 0.15709,-10.00002 h 36.67858 l 0.15709,9.99999 v 26.88685 27.6995 64.5417 l 10.00002,0.15712 v 75.55774 l -9.99999,0.15709 9.99999,0.1571 v 75.55772 l -9.99999,0.15712 z"
     id="path906"
     style="stroke:#000000;stroke-opacity:1;stroke-width:0.25" />
  <path
     style="fill:#000000;stroke-width:0.25;stroke-linecap:butt;stroke-linejoin:bevel;stroke-dasharray:none;stroke:#000000;stroke-opacity:1"
     inkscape:connector-curvature="0"
     id="path908"
     d="m 244.87208,496.97124 10,-10 -7.5,10 7.5,10 z"
     class="arrow" />
  <path
     inkscape:connector-curvature="0"
     id="path1251"
     style="font-style:normal;font-size:medium;text-anchor:middle;fill:none;fill-opacity:1;stroke:#000000;stroke-width:0.25;stroke-linecap:butt;stroke-linejoin:bevel;stroke-dasharray:none;stroke-opacity:1"
     d="m 255.98146,500.97125 h -3.93555 v -0.74219 h 1.51368 v -4.87304 h -1.51368 v -0.66406 q 0.30762,0 0.65918,-0.0488 0.35157,-0.0537 0.53223,-0.15137 0.22461,-0.12207 0.35156,-0.30762 0.13184,-0.19043 0.15137,-0.50781 h 0.75684 v 6.55273 h 1.48437 z" />
  <path
     inkscape:connector-curvature="0"
     id="path1254"
     style="font-style:normal;font-size:medium;text-anchor:middle;fill:none;fill-opacity:1;stroke:#000000;stroke-width:0.25;stroke-linecap:butt;stroke-linejoin:bevel;stroke-dasharray:none;stroke-opacity:1"
     d="m 243.07208,502.85114 v 3.54199 h -0.66797 v -1.36231 h -4.38574 v 1.36231 h -0.59765 q 0,-0.27686 -0.0439,-0.59326 -0.0483,-0.31641 -0.13623,-0.47901 -0.10986,-0.20215 -0.27686,-0.3164 -0.17138,-0.11866 -0.45703,-0.13623 v -0.68116 h 5.89746 v -1.33593 z" />
  <path
     inkscape:connector-curvature="0"
     id="path1256"
     style="font-style:normal;font-size:medium;text-anchor:middle;fill:none;fill-opacity:1;stroke:#000000;stroke-width:0.25;stroke-linecap:butt;stroke-linejoin:bevel;stroke-dasharray:none;stroke-opacity:1"
     d="m 241.24835,496.69879 q 0.84815,0 1.41065,0.66358 0.5625,0.65918 0.5625,1.66113 0,1.06348 -0.54932,1.69629 -0.54932,0.62842 -1.40625,0.62842 -0.54492,0 -0.98437,-0.31641 -0.44385,-0.31641 -0.70313,-0.89209 h -0.0264 q -0.28125,0.52734 -0.61523,0.78223 -0.33399,0.25048 -0.83496,0.25048 -0.73828,0 -1.23047,-0.60644 -0.49219,-0.60645 -0.49219,-1.54248 0,-0.97998 0.47022,-1.56445 0.47021,-0.58448 1.19531,-0.58448 0.44385,0 0.87451,0.27686 0.42627,0.27685 0.66797,0.81299 h 0.0264 q 0.26367,-0.61524 0.65039,-0.94043 0.38672,-0.3252 0.98437,-0.3252 z m -3.19482,1.04151 q -0.47022,0 -0.74707,0.36474 -0.28125,0.36035 -0.28125,0.92285 0,0.55371 0.26367,0.90967 0.26367,0.35156 0.71191,0.35156 0.31641,0 0.54932,-0.17578 0.22852,-0.18017 0.40869,-0.54053 0.0791,-0.16259 0.20654,-0.46582 0.12745,-0.30761 0.21094,-0.59765 -0.29004,-0.43506 -0.60205,-0.60205 -0.31201,-0.16699 -0.7207,-0.16699 z m 3.27832,-0.13624 q -0.4043,0 -0.646,0.18018 -0.24609,0.17578 -0.49219,0.69434 -0.0967,0.20654 -0.18017,0.45263 -0.0835,0.2461 -0.23291,0.65479 0.21533,0.39551 0.58447,0.63721 0.36914,0.2373 0.83496,0.2373 0.59326,0 0.97998,-0.40869 0.38672,-0.40869 0.38672,-1.03711 0,-0.6416 -0.32959,-1.02393 -0.32959,-0.38672 -0.90527,-0.38672 z" />
  <path
     inkscape:connector-curvature="0"
     id="path1258"
     style="font-style:normal;font-size:medium;text-anchor:middle;fill:none;fill-opacity:1;stroke:#000000;stroke-width:0.25;stroke-linecap:butt;stroke-linejoin:bevel;stroke-dasharray:none;stroke-opacity:1"
     d="m 239.41583,493.58307 v 1.05029 h -1.25244 v -1.05029 z m 3.65625,0 v 1.05029 h -1.25244 v -1.05029 z" />
  <path
     inkscape:connector-curvature="0"
     id="path1260"
     style="font-style:normal;font-size:medium;text-anchor:middle;fill:none;fill-opacity:1;stroke:#000000;stroke-width:0.25;stroke-linecap:butt;stroke-linejoin:bevel;stroke-dasharray:none;stroke-opacity:1"
     d="m 243.07208,487.29449 v 3.542 h -0.66797 v -1.36231 h -4.38574 v 1.36231 h -0.59765 q 0,-0.27686 -0.0439,-0.59326 -0.0483,-0.31641 -0.13623,-0.47901 -0.10986,-0.20215 -0.27686,-0.31641 -0.17138,-0.11865 -0.45703,-0.13623 v -0.68115 h 5.89746 v -1.33594 z" />
  <path
     style="fill:#000000;stroke-width:0.25;stroke-linecap:butt;stroke-linejoin:bevel;stroke-dasharray:none;stroke:#000000;stroke-opacity:1"
     inkscape:connector-curvature="0"
     id="path920"
     d="m 244.87211,544.26565 9.99999,-10.00001 -7.49999,10.00001 7.50001,9.99999 z"
     class="arrow" />
  <path
     inkscape:connector-curvature="0"
     id="path1263"
     style="font-style:normal;font-size:medium;text-anchor:middle;fill:none;fill-opacity:1;stroke:#000000;stroke-width:0.25;stroke-linecap:butt;stroke-linejoin:bevel;stroke-dasharray:none;stroke-opacity:1"
     d="m 256.39653,548.26562 h -4.92187 v -1.0205 q 0.51269,-0.43946 1.02539,-0.87891 0.51757,-0.43945 0.96191,-0.87402 0.9375,-0.90821 1.28418,-1.44043 0.34668,-0.53711 0.34668,-1.15723 0,-0.56641 -0.37598,-0.88379 -0.37109,-0.32226 -1.04004,-0.32226 -0.44433,0 -0.96191,0.15625 -0.51758,0.15625 -1.01074,0.47851 h -0.0488 v -1.02539 q 0.34668,-0.1709 0.92285,-0.3125 0.58106,-0.1416 1.12305,-0.1416 1.11816,0 1.75293,0.54199 0.63476,0.53711 0.63476,1.45996 0,0.41504 -0.10742,0.77637 -0.10254,0.35645 -0.30762,0.67871 -0.19043,0.30274 -0.44921,0.5957 -0.25391,0.29297 -0.62012,0.64942 -0.52246,0.51269 -1.0791,0.99609 -0.55664,0.47852 -1.04004,0.88867 h 3.91113 z" />
  <path
     inkscape:connector-curvature="0"
     id="path1266"
     style="font-style:normal;font-size:medium;text-anchor:middle;fill:none;fill-opacity:1;stroke:#000000;stroke-width:0.25;stroke-linecap:butt;stroke-linejoin:bevel;stroke-dasharray:none;stroke-opacity:1"
     d="m 243.07172,550.14539 v 3.54199 h -0.66797 v -1.36231 h -4.38574 v 1.36231 h -0.59766 q 0,-0.27686 -0.044,-0.59326 -0.0483,-0.31641 -0.13623,-0.47901 -0.10986,-0.20215 -0.27685,-0.3164 -0.17139,-0.11866 -0.45703,-0.13623 v -0.68116 h 5.89746 v -1.33593 z" />
  <path
     inkscape:connector-curvature="0"
     id="path1268"
     style="font-style:normal;font-size:medium;text-anchor:middle;fill:none;fill-opacity:1;stroke:#000000;stroke-width:0.25;stroke-linecap:butt;stroke-linejoin:bevel;stroke-dasharray:none;stroke-opacity:1"
     d="m 243.07172,544.04138 v 4.42969 h -0.91846 q -0.39551,-0.46143 -0.79102,-0.92285 -0.3955,-0.46582 -0.78662,-0.86572 -0.81738,-0.84375 -1.29638,-1.15577 -0.4834,-0.31201 -1.04151,-0.31201 -0.50976,0 -0.79541,0.33838 -0.29004,0.33398 -0.29004,0.93604 0,0.3999 0.14063,0.86572 0.14062,0.46582 0.43066,0.90967 v 0.0439 h -0.92285 q -0.15381,-0.31201 -0.28125,-0.83056 -0.12744,-0.52295 -0.12744,-1.01075 0,-1.00634 0.48779,-1.57763 0.4834,-0.57129 1.31397,-0.57129 0.37353,0 0.69873,0.0967 0.3208,0.0923 0.61084,0.27685 0.27246,0.17139 0.53613,0.4043 0.26367,0.22851 0.58447,0.5581 0.46143,0.47022 0.89649,0.9712 0.43066,0.50097 0.7998,0.93603 v -3.52002 z" />
  <path
     inkscape:connector-curvature="0"
     id="path1270"
     style="font-style:normal;font-size:medium;text-anchor:middle;fill:none;fill-opacity:1;stroke:#000000;stroke-width:0.25;stroke-linecap:butt;stroke-linejoin:bevel;stroke-dasharray:none;stroke-opacity:1"
     d="m 239.41547,540.87732 v 1.05029 h -1.25245 v -1.05029 z m 3.65625,0 v 1.05029 h -1.25245 v -1.05029 z" />
  <path
     inkscape:connector-curvature="0"
     id="path1272"
     style="font-style:normal;font-size:medium;text-anchor:middle;fill:none;fill-opacity:1;stroke:#000000;stroke-width:0.25;stroke-linecap:butt;stroke-linejoin:bevel;stroke-dasharray:none;stroke-opacity:1"
     d="m 243.07172,534.21521 v 4.42969 h -0.91846 q -0.39551,-0.46143 -0.79102,-0.92285 -0.3955,-0.46582 -0.78662,-0.86573 -0.81738,-0.84375 -1.29638,-1.15576 -0.4834,-0.31201 -1.04151,-0.31201 -0.50976,0 -0.79541,0.33838 -0.29004,0.33398 -0.29004,0.93603 0,0.39991 0.14063,0.86573 0.14062,0.46582 0.43066,0.90966 v 0.0439 h -0.92285 q -0.15381,-0.31201 -0.28125,-0.83057 -0.12744,-0.52295 -0.12744,-1.01074 0,-1.00635 0.48779,-1.57764 0.4834,-0.57128 1.31397,-0.57128 0.37353,0 0.69873,0.0967 0.3208,0.0923 0.61084,0.27685 0.27246,0.17139 0.53613,0.4043 0.26367,0.22851 0.58447,0.5581 0.46143,0.47022 0.89649,0.97119 0.43066,0.50098 0.7998,0.93604 v -3.52002 z" />
  <path
     inkscape:connector-curvature="0"
     id="path1275"
     style="font-style:normal;font-size:medium;text-anchor:middle;fill:none;fill-opacity:1;stroke:#000000;stroke-width:0.25;stroke-linecap:butt;stroke-linejoin:bevel;stroke-dasharray:none;stroke-opacity:1"
     d="m 269.24838,574.80005 h 3.54199 v 0.66797 h -1.3623 v 4.38574 h 1.3623 v 0.59766 q -0.27685,0 -0.59326,0.0439 -0.3164,0.0483 -0.479,0.13623 -0.20215,0.10987 -0.31641,0.27686 -0.11865,0.17138 -0.13623,0.45703 h -0.68115 v -5.89746 h -1.33594 z" />
  <path
     inkscape:connector-curvature="0"
     id="path1277"
     style="font-style:normal;font-size:medium;text-anchor:middle;fill:none;fill-opacity:1;stroke:#000000;stroke-width:0.25;stroke-linecap:butt;stroke-linejoin:bevel;stroke-dasharray:none;stroke-opacity:1"
     d="m 263.15317,578.07397 q 0,-1.7622 0.55371,-2.58837 0.54932,-0.82178 1.70947,-0.82178 1.17774,0 1.72266,0.83496 0.54052,0.83496 0.54052,2.56641 0,1.74462 -0.54931,2.57519 -0.54932,0.83496 -1.71387,0.83496 -1.17773,0 -1.71826,-0.84814 -0.54492,-0.84375 -0.54492,-2.55323 z m 1.15576,-1.99511 q -0.15381,0.35595 -0.20654,0.83496 -0.0571,0.4834 -0.0571,1.16015 0,0.66797 0.0571,1.16016 0.0527,0.49219 0.21093,0.83496 0.15381,0.33838 0.42188,0.50977 0.26367,0.17138 0.68115,0.17138 0.41309,0 0.68555,-0.17138 0.26806,-0.17139 0.42627,-0.51856 0.14941,-0.32519 0.20654,-0.84814 0.0527,-0.52295 0.0527,-1.14697 0,-0.68555 -0.0483,-1.14698 -0.0483,-0.46142 -0.20655,-0.82617 -0.14502,-0.34277 -0.40869,-0.52295 -0.26807,-0.18017 -0.70752,-0.18017 -0.41308,0 -0.68555,0.17138 -0.27246,0.17139 -0.42187,0.51856 z" />
  <path
     inkscape:connector-curvature="0"
     id="path1279"
     style="font-style:normal;font-size:medium;text-anchor:middle;fill:none;fill-opacity:1;stroke:#000000;stroke-width:0.25;stroke-linecap:butt;stroke-linejoin:bevel;stroke-dasharray:none;stroke-opacity:1"
     d="m 259.98032,578.4563 h 1.05029 v 1.25244 h -1.05029 z m 0,-3.65625 h 1.05029 v 1.25244 h -1.05029 z" />
  <path
     inkscape:connector-curvature="0"
     id="path1281"
     style="font-style:normal;font-size:medium;text-anchor:middle;fill:none;fill-opacity:1;stroke:#000000;stroke-width:0.25;stroke-linecap:butt;stroke-linejoin:bevel;stroke-dasharray:none;stroke-opacity:1"
     d="m 253.31821,574.80005 h 4.42968 v 0.91846 q -0.46142,0.3955 -0.92285,0.79101 -0.46582,0.39551 -0.86572,0.78662 -0.84375,0.81739 -1.15576,1.29639 -0.31201,0.4834 -0.31201,1.0415 0,0.50977 0.33838,0.79541 0.33398,0.29004 0.93603,0.29004 0.3999,0 0.86572,-0.14062 0.46582,-0.14063 0.90967,-0.43067 h 0.0439 v 0.92285 q -0.31202,0.15381 -0.83057,0.28125 -0.52295,0.12745 -1.01074,0.12745 -1.00635,0 -1.57764,-0.4878 -0.57129,-0.4834 -0.57129,-1.31396 0,-0.37354 0.0967,-0.69873 0.0923,-0.3208 0.27686,-0.61084 0.17138,-0.27246 0.40429,-0.53613 0.22852,-0.26368 0.55811,-0.58448 0.47021,-0.46142 0.97119,-0.89648 0.50098,-0.43067 0.93604,-0.79981 h -3.52002 z" />
  <path
     style="fill:#000000;stroke-width:0.25;stroke-linecap:butt;stroke-linejoin:bevel;stroke-dasharray:none;stroke:#000000;stroke-opacity:1"
     inkscape:connector-curvature="0"
     id="path936"
     d="m 281.86489,415.936 -10,10 7.5,-10 -7.5,-10 z"
     class="arrow" />
  <path
     inkscape:connector-curvature="0"
     id="path1284"
     style="font-style:normal;font-size:medium;text-anchor:middle;fill:none;fill-opacity:1;stroke:#000000;stroke-width:0.25;stroke-linecap:butt;stroke-linejoin:bevel;stroke-dasharray:none;stroke-opacity:1"
     d="m 274.74963,416.43503 q 0.23438,0.20996 0.38575,0.52734 0.15136,0.31738 0.15136,0.82031 0,0.49805 -0.18066,0.91309 -0.18066,0.41504 -0.50781,0.72266 -0.36621,0.34179 -0.86426,0.50781 -0.49317,0.16113 -1.08399,0.16113 -0.60546,0 -1.1914,-0.14648 -0.58594,-0.1416 -0.96192,-0.3125 v -1.02051 h 0.0733 q 0.41504,0.27344 0.97656,0.4541 0.56152,0.18067 1.08398,0.18067 0.30762,0 0.6543,-0.10254 0.34668,-0.10254 0.56152,-0.30274 0.22461,-0.21484 0.33203,-0.47363 0.11231,-0.25879 0.11231,-0.6543 0,-0.39062 -0.12695,-0.64453 -0.12207,-0.25879 -0.3418,-0.40527 -0.21973,-0.15137 -0.53223,-0.20508 -0.3125,-0.0586 -0.67383,-0.0586 h -0.43945 v -0.81055 h 0.3418 q 0.74219,0 1.18164,-0.30762 0.44434,-0.3125 0.44434,-0.9082 0,-0.26367 -0.11231,-0.45899 -0.1123,-0.20019 -0.3125,-0.32714 -0.20996,-0.12696 -0.44922,-0.17579 -0.23926,-0.0488 -0.54199,-0.0488 -0.46387,0 -0.98633,0.16601 -0.52246,0.16602 -0.98633,0.46875 h -0.0488 v -1.02051 q 0.34667,-0.17089 0.92285,-0.3125 0.58105,-0.14648 1.12304,-0.14648 0.53223,0 0.9375,0.0977 0.40528,0.0976 0.73243,0.3125 0.35156,0.23437 0.53222,0.5664 0.18067,0.33203 0.18067,0.77637 0,0.60547 -0.42969,1.05957 -0.42481,0.44922 -1.00586,0.56641 v 0.0684 q 0.23437,0.0391 0.53711,0.16601 0.30273,0.12207 0.51269,0.30762 z" />
  <path
     inkscape:connector-curvature="0"
     id="path1287"
     style="font-style:normal;font-size:medium;text-anchor:middle;fill:none;fill-opacity:1;stroke:#000000;stroke-width:0.25;stroke-linecap:butt;stroke-linejoin:bevel;stroke-dasharray:none;stroke-opacity:1"
     d="m 283.66489,410.42966 v -4.42969 h 0.91845 q 0.39551,0.46143 0.79102,0.92285 0.39551,0.46582 0.78662,0.86572 0.81738,0.84375 1.29639,1.15577 0.4834,0.31201 1.0415,0.31201 0.50977,0 0.79541,-0.33838 0.29004,-0.33399 0.29004,-0.93604 0,-0.3999 -0.14062,-0.86572 -0.14063,-0.46582 -0.43067,-0.90967 v -0.0439 h 0.92285 q 0.15381,0.31201 0.28125,0.83056 0.12744,0.52295 0.12744,1.01075 0,1.00634 -0.48779,1.57763 -0.4834,0.57129 -1.31396,0.57129 -0.37354,0 -0.69873,-0.0967 -0.32081,-0.0923 -0.61084,-0.27685 -0.27247,-0.17139 -0.53614,-0.4043 -0.26367,-0.22852 -0.58447,-0.55811 -0.46143,-0.47021 -0.89648,-0.97119 -0.43067,-0.50097 -0.79981,-0.93603 v 3.52002 z" />
  <path
     inkscape:connector-curvature="0"
     id="path1289"
     style="font-style:normal;font-size:medium;text-anchor:middle;fill:none;fill-opacity:1;stroke:#000000;stroke-width:0.25;stroke-linecap:butt;stroke-linejoin:bevel;stroke-dasharray:none;stroke-opacity:1"
     d="m 283.66489,415.78659 v -3.54199 h 0.66797 v 1.3623 h 4.38574 v -1.3623 h 0.59765 q 0,0.27685 0.0439,0.59326 0.0483,0.31641 0.13623,0.479 0.10986,0.20215 0.27685,0.31641 0.17139,0.11865 0.45704,0.13623 v 0.68115 h -5.89746 v 1.33594 z" />
  <path
     inkscape:connector-curvature="0"
     id="path1291"
     style="font-style:normal;font-size:medium;text-anchor:middle;fill:none;fill-opacity:1;stroke:#000000;stroke-width:0.25;stroke-linecap:butt;stroke-linejoin:bevel;stroke-dasharray:none;stroke-opacity:1"
     d="m 287.32114,419.32419 v -1.05029 h 1.25244 v 1.05029 z m -3.65625,0 v -1.05029 h 1.25244 v 1.05029 z" />
  <path
     inkscape:connector-curvature="0"
     id="path1293"
     style="font-style:normal;font-size:medium;text-anchor:middle;fill:none;fill-opacity:1;stroke:#000000;stroke-width:0.25;stroke-linecap:butt;stroke-linejoin:bevel;stroke-dasharray:none;stroke-opacity:1"
     d="m 286.81577,425.41061 q -0.18897,0.21094 -0.47461,0.34717 -0.28565,0.13623 -0.73829,0.13623 -0.44824,0 -0.82177,-0.1626 -0.37354,-0.16259 -0.65039,-0.45703 -0.30762,-0.32959 -0.45703,-0.77783 -0.14502,-0.44385 -0.14502,-0.97558 0,-0.54493 0.13183,-1.07227 0.12744,-0.52734 0.28125,-0.86572 h 0.91846 v 0.0659 q -0.24609,0.37353 -0.40869,0.8789 -0.1626,0.50537 -0.1626,0.97559 0,0.27685 0.0923,0.58886 0.0923,0.31202 0.27246,0.50538 0.19336,0.20214 0.42627,0.29882 0.23291,0.10108 0.58886,0.10108 0.35157,0 0.58008,-0.11426 0.23291,-0.10986 0.36475,-0.30762 0.13623,-0.19775 0.18457,-0.479 0.0527,-0.28125 0.0527,-0.60645 v -0.3955 h 0.72949 v 0.30761 q 0,0.66797 0.27686,1.06348 0.28125,0.3999 0.81738,0.3999 0.23731,0 0.41309,-0.10107 0.18017,-0.10108 0.29443,-0.28125 0.11426,-0.18897 0.1582,-0.4043 0.0439,-0.21533 0.0439,-0.48779 0,-0.41748 -0.14941,-0.8877 -0.14942,-0.47021 -0.42188,-0.88769 v -0.044 h 0.91846 q 0.15381,0.31201 0.28125,0.83057 0.13183,0.52295 0.13183,1.01074 0,0.479 -0.0879,0.84375 -0.0879,0.36475 -0.28125,0.65918 -0.21093,0.31641 -0.50976,0.479 -0.29883,0.1626 -0.69873,0.1626 -0.54492,0 -0.95362,-0.38672 -0.40429,-0.38232 -0.50976,-0.90527 h -0.0615 q -0.0351,0.21094 -0.14941,0.4834 -0.10986,0.27246 -0.27685,0.46142 z" />
  <path
     style="fill:#000000;stroke-width:0.25;stroke-linecap:butt;stroke-linejoin:bevel;stroke-dasharray:none;stroke:#000000;stroke-opacity:1"
     inkscape:connector-curvature="0"
     id="path948"
     d="m 244.87208,259.02879 9.99999,-10.00001 -7.49999,10.00001 7.50001,9.99999 z"
     class="arrow" />
  <path
     inkscape:connector-curvature="0"
     id="path1296"
     style="font-style:normal;font-size:medium;text-anchor:middle;fill:none;fill-opacity:1;stroke:#000000;stroke-width:0.25;stroke-linecap:butt;stroke-linejoin:bevel;stroke-dasharray:none;stroke-opacity:1"
     d="m 256.56252,260.98291 h -1.07911 v 2.0459 h -0.9375 v -2.0459 h -3.48144 v -1.12305 l 3.52051,-4.10156 h 0.89843 v 4.44336 h 1.07911 z m -2.01661,-0.78125 v -3.28125 l -2.81738,3.28125 z" />
  <path
     inkscape:connector-curvature="0"
     id="path1299"
     style="font-style:normal;font-size:medium;text-anchor:middle;fill:none;fill-opacity:1;stroke:#000000;stroke-width:0.25;stroke-linecap:butt;stroke-linejoin:bevel;stroke-dasharray:none;stroke-opacity:1"
     d="m 243.07184,264.90866 v 3.54199 h -0.66797 v -1.3623 h -4.38574 v 1.3623 h -0.59766 q 0,-0.27685 -0.0439,-0.59326 -0.0483,-0.3164 -0.13623,-0.479 -0.10987,-0.20215 -0.27686,-0.31641 -0.17139,-0.11865 -0.45703,-0.13623 v -0.68115 h 5.89746 v -1.33594 z" />
  <path
     inkscape:connector-curvature="0"
     id="path1301"
     style="font-style:normal;font-size:medium;text-anchor:middle;fill:none;fill-opacity:1;stroke:#000000;stroke-width:0.25;stroke-linecap:butt;stroke-linejoin:bevel;stroke-dasharray:none;stroke-opacity:1"
     d="m 241.24811,258.75632 q 0.84814,0 1.41064,0.66357 0.5625,0.65918 0.5625,1.66113 0,1.06348 -0.54931,1.69629 -0.54932,0.62842 -1.40625,0.62842 -0.54493,0 -0.98438,-0.31641 -0.44385,-0.3164 -0.70312,-0.89208 h -0.0264 q -0.28125,0.52734 -0.61524,0.78222 -0.33398,0.25049 -0.83496,0.25049 -0.73828,0 -1.23047,-0.60645 -0.49218,-0.60644 -0.49218,-1.54248 0,-0.97998 0.47021,-1.56445 0.47022,-0.58447 1.19531,-0.58447 0.44385,0 0.87452,0.27685 0.42627,0.27686 0.66797,0.81299 h 0.0264 q 0.26367,-0.61523 0.65039,-0.94043 0.38672,-0.32519 0.98438,-0.32519 z m -3.19483,1.0415 q -0.47021,0 -0.74707,0.36475 -0.28125,0.36035 -0.28125,0.92285 0,0.55371 0.26368,0.90967 0.26367,0.35156 0.71191,0.35156 0.31641,0 0.54932,-0.17578 0.22851,-0.18018 0.40869,-0.54053 0.0791,-0.1626 0.20654,-0.46582 0.12744,-0.30762 0.21094,-0.59766 -0.29004,-0.43505 -0.60205,-0.60205 -0.31201,-0.16699 -0.72071,-0.16699 z m 3.27832,-0.13623 q -0.40429,0 -0.64599,0.18018 -0.2461,0.17578 -0.49219,0.69433 -0.0967,0.20655 -0.18018,0.45264 -0.0835,0.24609 -0.23291,0.65478 0.21534,0.39551 0.58448,0.63721 0.36914,0.23731 0.83496,0.23731 0.59326,0 0.97998,-0.4087 0.38672,-0.40869 0.38672,-1.0371 0,-0.64161 -0.32959,-1.02393 -0.32959,-0.38672 -0.90528,-0.38672 z" />
  <path
     inkscape:connector-curvature="0"
     id="path1303"
     style="font-style:normal;font-size:medium;text-anchor:middle;fill:none;fill-opacity:1;stroke:#000000;stroke-width:0.25;stroke-linecap:butt;stroke-linejoin:bevel;stroke-dasharray:none;stroke-opacity:1"
     d="m 239.41559,255.64059 v 1.0503 h -1.25244 v -1.0503 z m 3.65625,0 v 1.0503 h -1.25244 v -1.0503 z" />
  <path
     inkscape:connector-curvature="0"
     id="path1305"
     style="font-style:normal;font-size:medium;text-anchor:middle;fill:none;fill-opacity:1;stroke:#000000;stroke-width:0.25;stroke-linecap:butt;stroke-linejoin:bevel;stroke-dasharray:none;stroke-opacity:1"
     d="m 241.23053,248.82907 v 0.97119 h 1.84131 v 0.84375 h -1.84131 v 3.1333 h -1.01074 l -3.69141,-3.16845 v -0.8086 h 3.99902 v -0.97119 z m -0.70313,1.81494 h -2.95312 l 2.95312,2.53565 z" />
  <path
     style="fill:#000000;stroke-width:0.25;stroke-linecap:butt;stroke-linejoin:bevel;stroke-dasharray:none;stroke:#000000;stroke-opacity:1"
     inkscape:connector-curvature="0"
     id="path960"
     d="m 244.87208,211.73441 10,-10 -7.5,10 7.5,10 z"
     class="arrow" />
  <path
     inkscape:connector-curvature="0"
     id="path1308"
     style="font-style:normal;font-size:medium;text-anchor:middle;fill:none;fill-opacity:1;stroke:#000000;stroke-width:0.25;stroke-linecap:butt;stroke-linejoin:bevel;stroke-dasharray:none;stroke-opacity:1"
     d="m 256.33791,213.42485 q 0,0.50781 -0.18555,0.97168 -0.18555,0.46387 -0.50781,0.78125 -0.35157,0.3418 -0.83985,0.52734 -0.4834,0.18067 -1.12304,0.18067 -0.59571,0 -1.14747,-0.12696 -0.55175,-0.12207 -0.93261,-0.29785 v -1.03027 h 0.0684 q 0.40039,0.25391 0.9375,0.43457 0.53711,0.17578 1.05468,0.17578 0.34668,0 0.66895,-0.0976 0.32715,-0.0977 0.58105,-0.3418 0.21485,-0.20996 0.32227,-0.50293 0.1123,-0.29297 0.1123,-0.67871 0,-0.37598 -0.13183,-0.63477 -0.12695,-0.25879 -0.35645,-0.41504 -0.2539,-0.18554 -0.62011,-0.25879 -0.36133,-0.0781 -0.81055,-0.0781 -0.42969,0 -0.83008,0.0586 -0.39551,0.0586 -0.68359,0.11719 v -3.74512 h 4.375 v 0.8545 h -3.43262 v 1.93359 q 0.20996,-0.0195 0.42969,-0.0293 0.21972,-0.01 0.38086,-0.01 0.59082,0 1.03515,0.10254 0.44434,0.0976 0.81543,0.35156 0.39063,0.26855 0.60547,0.69336 0.21485,0.4248 0.21485,1.06445 z" />
  <path
     inkscape:connector-curvature="0"
     id="path1311"
     style="font-style:normal;font-size:medium;text-anchor:middle;fill:none;fill-opacity:1;stroke:#000000;stroke-width:0.25;stroke-linecap:butt;stroke-linejoin:bevel;stroke-dasharray:none;stroke-opacity:1"
     d="m 243.07208,217.6143 v 3.542 h -0.66797 v -1.36231 h -4.38574 v 1.36231 h -0.59765 q 0,-0.27686 -0.0439,-0.59327 -0.0483,-0.3164 -0.13623,-0.479 -0.10986,-0.20215 -0.27686,-0.31641 -0.17138,-0.11865 -0.45703,-0.13623 v -0.68115 h 5.89746 v -1.33594 z" />
  <path
     inkscape:connector-curvature="0"
     id="path1313"
     style="font-style:normal;font-size:medium;text-anchor:middle;fill:none;fill-opacity:1;stroke:#000000;stroke-width:0.25;stroke-linecap:butt;stroke-linejoin:bevel;stroke-dasharray:none;stroke-opacity:1"
     d="m 239.9212,212.08598 q 0.18897,-0.21093 0.47461,-0.34716 0.28565,-0.13624 0.73828,-0.13624 0.44825,0 0.82178,0.1626 0.37354,0.1626 0.65039,0.45703 0.30762,0.32959 0.45703,0.77784 0.14502,0.44384 0.14502,0.97558 0,0.54492 -0.13183,1.07227 -0.12744,0.52734 -0.28125,0.86572 h -0.91846 v -0.0659 q 0.24609,-0.37353 0.40869,-0.8789 0.1626,-0.50538 0.1626,-0.97559 0,-0.27686 -0.0923,-0.58887 -0.0923,-0.31201 -0.27246,-0.50537 -0.19336,-0.20215 -0.42627,-0.29883 -0.23291,-0.10107 -0.58886,-0.10107 -0.35157,0 -0.58008,0.11426 -0.23291,0.10986 -0.36475,0.30761 -0.13623,0.19776 -0.18457,0.47901 -0.0527,0.28125 -0.0527,0.60644 v 0.39551 h -0.72949 v -0.30762 q 0,-0.66796 -0.27686,-1.06347 -0.28125,-0.3999 -0.81738,-0.3999 -0.23731,0 -0.41309,0.10107 -0.18017,0.10107 -0.29443,0.28125 -0.11426,0.18896 -0.15821,0.4043 -0.0439,0.21533 -0.0439,0.48779 0,0.41748 0.14941,0.88769 0.14942,0.47022 0.42188,0.8877 v 0.0439 h -0.91846 q -0.15381,-0.31202 -0.28125,-0.83057 -0.13183,-0.52295 -0.13183,-1.01074 0,-0.47901 0.0879,-0.84375 0.0879,-0.36475 0.28125,-0.65918 0.21093,-0.31641 0.50976,-0.47901 0.29883,-0.16259 0.69873,-0.16259 0.54492,0 0.95362,0.38671 0.40429,0.38233 0.50976,0.90528 h 0.0615 q 0.0352,-0.21094 0.14942,-0.4834 0.10986,-0.27246 0.27685,-0.46143 z" />
  <path
     inkscape:connector-curvature="0"
     id="path1315"
     style="font-style:normal;font-size:medium;text-anchor:middle;fill:none;fill-opacity:1;stroke:#000000;stroke-width:0.25;stroke-linecap:butt;stroke-linejoin:bevel;stroke-dasharray:none;stroke-opacity:1"
     d="m 239.41583,208.34624 v 1.05029 h -1.25244 v -1.05029 z m 3.65625,0 v 1.05029 h -1.25244 v -1.05029 z" />
  <path
     inkscape:connector-curvature="0"
     id="path1317"
     style="font-style:normal;font-size:medium;text-anchor:middle;fill:none;fill-opacity:1;stroke:#000000;stroke-width:0.25;stroke-linecap:butt;stroke-linejoin:bevel;stroke-dasharray:none;stroke-opacity:1"
     d="m 240.99347,201.73686 q 0.45703,0 0.87451,0.16699 0.41748,0.167 0.70313,0.45704 0.30761,0.3164 0.47461,0.75585 0.16259,0.43506 0.16259,1.01075 0,0.53613 -0.11425,1.03271 -0.10987,0.49658 -0.26807,0.83936 h -0.92725 v -0.0615 q 0.22852,-0.36035 0.39112,-0.84375 0.1582,-0.48339 0.1582,-0.94921 0,-0.31202 -0.0879,-0.60206 -0.0879,-0.29443 -0.30762,-0.52294 -0.18896,-0.19336 -0.45264,-0.29004 -0.26367,-0.10108 -0.61084,-0.10108 -0.33837,0 -0.57128,0.11865 -0.23291,0.11426 -0.37354,0.32081 -0.16699,0.22851 -0.23291,0.5581 -0.0703,0.3252 -0.0703,0.72949 0,0.38672 0.0527,0.74707 0.0527,0.35596 0.10547,0.61524 h -3.3706 v -3.9375 h 0.76904 v 3.08935 h 1.74023 q -0.0176,-0.18896 -0.0264,-0.38672 -0.009,-0.19775 -0.009,-0.34277 0,-0.53174 0.0923,-0.93164 0.0879,-0.3999 0.31641,-0.73389 0.2417,-0.35156 0.62402,-0.54492 0.38233,-0.19336 0.95801,-0.19336 z" />
  <path
     inkscape:connector-curvature="0"
     id="path1320"
     style="font-style:normal;font-size:medium;text-anchor:middle;fill:none;fill-opacity:1;stroke:#000000;stroke-width:0.25;stroke-linecap:butt;stroke-linejoin:bevel;stroke-dasharray:none;stroke-opacity:1"
     d="m 257.48859,181.20004 h -3.542 v -0.66797 h 1.36231 v -4.38574 h -1.36231 v -0.59765 q 0.27686,0 0.59327,-0.0439 0.3164,-0.0483 0.479,-0.13623 0.20215,-0.10986 0.31641,-0.27686 0.11865,-0.17138 0.13623,-0.45703 h 0.68115 v 5.89746 h 1.33594 z" />
  <path
     inkscape:connector-curvature="0"
     id="path1322"
     style="font-style:normal;font-size:medium;text-anchor:middle;fill:none;fill-opacity:1;stroke:#000000;stroke-width:0.25;stroke-linecap:butt;stroke-linejoin:bevel;stroke-dasharray:none;stroke-opacity:1"
     d="m 263.21906,181.20004 h -3.542 v -0.66797 h 1.36231 v -4.38574 h -1.36231 v -0.59765 q 0.27686,0 0.59326,-0.0439 0.31641,-0.0483 0.47901,-0.13623 0.20215,-0.10986 0.3164,-0.27686 0.11866,-0.17138 0.13624,-0.45703 h 0.68115 v 5.89746 h 1.33594 z" />
  <path
     inkscape:connector-curvature="0"
     id="path1324"
     style="font-style:normal;font-size:medium;text-anchor:middle;fill:none;fill-opacity:1;stroke:#000000;stroke-width:0.25;stroke-linecap:butt;stroke-linejoin:bevel;stroke-dasharray:none;stroke-opacity:1"
     d="m 266.75665,177.54379 h -1.05029 v -1.25244 h 1.05029 z m 0,3.65625 h -1.05029 v -1.25244 h 1.05029 z" />
  <path
     inkscape:connector-curvature="0"
     id="path1326"
     style="font-style:normal;font-size:medium;text-anchor:middle;fill:none;fill-opacity:1;stroke:#000000;stroke-width:0.25;stroke-linecap:butt;stroke-linejoin:bevel;stroke-dasharray:none;stroke-opacity:1"
     d="m 273.41876,181.20004 h -4.42969 v -0.91845 q 0.46143,-0.39551 0.92286,-0.79102 0.46582,-0.39551 0.86572,-0.78662 0.84375,-0.81738 1.15576,-1.29639 0.31201,-0.4834 0.31201,-1.0415 0,-0.50977 -0.33838,-0.79541 -0.33398,-0.29004 -0.93603,-0.29004 -0.3999,0 -0.86572,0.14062 -0.46582,0.14063 -0.90967,0.43067 h -0.0439 v -0.92285 q 0.31201,-0.15381 0.83057,-0.28125 0.52295,-0.12744 1.01074,-0.12744 1.00635,0 1.57764,0.48779 0.57129,0.4834 0.57129,1.31396 0,0.37354 -0.0967,0.69873 -0.0923,0.3208 -0.27686,0.61084 -0.17139,0.27246 -0.4043,0.53614 -0.22851,0.26367 -0.5581,0.58447 -0.47022,0.46142 -0.97119,0.89648 -0.50098,0.43067 -0.93604,0.79981 h 3.52002 z" />
  <path
     style="fill:#000000;stroke-width:0.25;stroke-linecap:butt;stroke-linejoin:bevel;stroke-dasharray:none;stroke:#000000;stroke-opacity:1"
     inkscape:connector-curvature="0"
     id="path976"
     d="m 281.86486,340.06404 -10,10 7.5,-10 -7.5,-10 z"
     class="arrow" />
  <path
     inkscape:connector-curvature="0"
     id="path1329"
     style="font-style:normal;font-size:medium;text-anchor:middle;fill:none;fill-opacity:1;stroke:#000000;stroke-width:0.25;stroke-linecap:butt;stroke-linejoin:bevel;stroke-dasharray:none;stroke-opacity:1"
     d="m 273.68027,341.70566 q 0,1.1084 -0.73242,1.81152 -0.72754,0.69824 -1.78711,0.69824 -0.53711,0 -0.97657,-0.16601 -0.43945,-0.16602 -0.77636,-0.49317 -0.41993,-0.40527 -0.64942,-1.07421 -0.22461,-0.66895 -0.22461,-1.61133 0,-0.9668 0.20508,-1.71387 0.20996,-0.74707 0.66406,-1.32813 0.42969,-0.55175 1.1084,-0.85937 0.67871,-0.3125 1.58203,-0.3125 0.28809,0 0.4834,0.0244 0.19531,0.0244 0.39551,0.0879 v 0.93262 h -0.0488 q -0.13672,-0.0732 -0.41504,-0.13672 -0.27344,-0.0684 -0.56152,-0.0684 -1.04981,0 -1.67481,0.65918 -0.625,0.6543 -0.72753,1.77246 0.41015,-0.24902 0.80566,-0.37597 0.40039,-0.13184 0.92285,-0.13184 0.46387,0 0.81543,0.0879 0.35645,0.083 0.72754,0.3418 0.42969,0.29785 0.64453,0.75195 0.21973,0.4541 0.21973,1.10352 z m -0.99121,0.0391 q 0,-0.4541 -0.13672,-0.75195 -0.13184,-0.29785 -0.43946,-0.51758 -0.2246,-0.15625 -0.49804,-0.20508 -0.27344,-0.0488 -0.57129,-0.0488 -0.41504,0 -0.77149,0.0977 -0.35644,0.0977 -0.73242,0.30273 -0.01,0.10743 -0.0147,0.20996 -0.005,0.0977 -0.005,0.24903 0,0.77148 0.15625,1.2207 0.16113,0.44434 0.43945,0.70313 0.22461,0.21484 0.4834,0.31738 0.26367,0.0977 0.57129,0.0977 0.70801,0 1.11328,-0.42969 0.40528,-0.43457 0.40528,-1.24512 z" />
  <path
     inkscape:connector-curvature="0"
     id="path1331"
     style="font-style:normal;font-size:medium;text-anchor:middle;fill:none;fill-opacity:1;stroke:#000000;stroke-width:0.25;stroke-linecap:butt;stroke-linejoin:bevel;stroke-dasharray:none;stroke-opacity:1"
     d="m 276.63437,344.06406 h -1.16699 v -1.39161 h 1.16699 z" />
  <path
     inkscape:connector-curvature="0"
     id="path1334"
     style="font-style:normal;font-size:medium;text-anchor:middle;fill:none;fill-opacity:1;stroke:#000000;stroke-width:0.25;stroke-linecap:butt;stroke-linejoin:bevel;stroke-dasharray:none;stroke-opacity:1"
     d="m 283.66486,332.92297 v -4.42968 h 0.91845 q 0.39551,0.46142 0.79102,0.92285 0.39551,0.46582 0.78662,0.86572 0.81738,0.84375 1.29639,1.15576 0.48339,0.31201 1.0415,0.31201 0.50977,0 0.79541,-0.33838 0.29004,-0.33398 0.29004,-0.93603 0,-0.3999 -0.14063,-0.86572 -0.14062,-0.46582 -0.43066,-0.90967 v -0.0439 h 0.92285 q 0.15381,0.31202 0.28125,0.83057 0.12744,0.52295 0.12744,1.01074 0,1.00635 -0.48779,1.57764 -0.4834,0.57129 -1.31396,0.57129 -0.37354,0 -0.69873,-0.0967 -0.32081,-0.0923 -0.61084,-0.27686 -0.27247,-0.17138 -0.53614,-0.40429 -0.26367,-0.22852 -0.58447,-0.55811 -0.46143,-0.47021 -0.89648,-0.97119 -0.43067,-0.50098 -0.79981,-0.93604 v 3.52002 z" />
  <path
     inkscape:connector-curvature="0"
     id="path1336"
     style="font-style:normal;font-size:medium;text-anchor:middle;fill:none;fill-opacity:1;stroke:#000000;stroke-width:0.25;stroke-linecap:butt;stroke-linejoin:bevel;stroke-dasharray:none;stroke-opacity:1"
     d="m 283.66486,338.27991 v -3.54199 h 0.66796 v 1.3623 h 4.38575 v -1.3623 h 0.59765 q 0,0.27685 0.0439,0.59326 0.0483,0.3164 0.13623,0.479 0.10986,0.20215 0.27685,0.31641 0.17139,0.11865 0.45704,0.13623 v 0.68115 h -5.89747 v 1.33594 z" />
  <path
     inkscape:connector-curvature="0"
     id="path1338"
     style="font-style:normal;font-size:medium;text-anchor:middle;fill:none;fill-opacity:1;stroke:#000000;stroke-width:0.25;stroke-linecap:butt;stroke-linejoin:bevel;stroke-dasharray:none;stroke-opacity:1"
     d="m 287.32111,341.8175 v -1.05029 h 1.25244 v 1.05029 z m -3.65625,0 v -1.05029 h 1.25244 v 1.05029 z" />
  <path
     inkscape:connector-curvature="0"
     id="path1340"
     style="font-style:normal;font-size:medium;text-anchor:middle;fill:none;fill-opacity:1;stroke:#000000;stroke-width:0.25;stroke-linecap:butt;stroke-linejoin:bevel;stroke-dasharray:none;stroke-opacity:1"
     d="m 285.78741,348.57629 q -0.99755,0 -1.63037,-0.65918 -0.62841,-0.65478 -0.62841,-1.60839 0,-0.4834 0.14941,-0.87891 0.14941,-0.39551 0.44385,-0.69873 0.36474,-0.37793 0.96679,-0.58447 0.60205,-0.20215 1.4502,-0.20215 0.87012,0 1.54248,0.18457 0.67236,0.18896 1.19531,0.59765 0.49658,0.38672 0.77344,0.99756 0.28125,0.61084 0.28125,1.42383 0,0.25928 -0.022,0.43506 -0.022,0.17578 -0.0791,0.35596 h -0.83936 v -0.0439 q 0.0659,-0.12305 0.12305,-0.37353 0.0615,-0.2461 0.0615,-0.50537 0,-0.94483 -0.59326,-1.50733 -0.58887,-0.5625 -1.59522,-0.65478 0.22413,0.36914 0.33838,0.72509 0.11866,0.36036 0.11866,0.83057 0,0.41748 -0.0791,0.73389 -0.0747,0.3208 -0.30761,0.65478 -0.26807,0.38672 -0.67676,0.58008 -0.40869,0.19775 -0.99317,0.19775 z m -0.0352,-0.89209 q 0.40869,0 0.67676,-0.12304 0.26806,-0.11866 0.46582,-0.39551 0.14062,-0.20215 0.18457,-0.44824 0.0439,-0.2461 0.0439,-0.51416 0,-0.37354 -0.0879,-0.69434 -0.0879,-0.3208 -0.27246,-0.65918 -0.0967,-0.009 -0.18896,-0.0132 -0.0879,-0.004 -0.22413,-0.004 -0.69433,0 -1.09863,0.14063 -0.3999,0.14502 -0.63281,0.39551 -0.19336,0.20214 -0.28565,0.43505 -0.0879,0.23731 -0.0879,0.51416 0,0.63721 0.38672,1.00196 0.39112,0.36474 1.12061,0.36474 z" />
  <path
     inkscape:connector-curvature="0"
     id="path1342"
     style="font-style:normal;font-size:medium;text-anchor:middle;fill:none;fill-opacity:1;stroke:#000000;stroke-width:0.25;stroke-linecap:butt;stroke-linejoin:bevel;stroke-dasharray:none;stroke-opacity:1"
     d="m 283.66486,351.23499 v -1.0503 h 1.25244 v 1.0503 z" />
  <path
     inkscape:connector-curvature="0"
     id="path1345"
     style="font-style:normal;font-size:medium;text-anchor:middle;fill:none;fill-opacity:1;stroke:#000000;stroke-width:0.25;stroke-linecap:butt;stroke-linejoin:bevel;stroke-dasharray:none;stroke-opacity:1"
     d="m 242.92282,316.92688 h -2.53906 v -9.51172 h 2.53906 v 0.69824 h -1.68945 v 8.11524 h 1.68945 z" />
  <path
     inkscape:connector-curvature="0"
     id="path1347"
     style="font-style:normal;font-size:medium;text-anchor:middle;fill:none;fill-opacity:1;stroke:#000000;stroke-width:0.25;stroke-linecap:butt;stroke-linejoin:bevel;stroke-dasharray:none;stroke-opacity:1"
     d="m 249.06052,315.01282 h -3.93555 v -0.74219 h 1.51367 v -4.87305 h -1.51367 v -0.66406 q 0.30762,0 0.65918,-0.0488 0.35156,-0.0537 0.53223,-0.15136 0.22461,-0.12208 0.35156,-0.30762 0.13183,-0.19043 0.15137,-0.50781 h 0.75683 v 6.55273 h 1.48438 z" />
  <path
     inkscape:connector-curvature="0"
     id="path1349"
     style="font-style:normal;font-size:medium;text-anchor:middle;fill:none;fill-opacity:1;stroke:#000000;stroke-width:0.25;stroke-linecap:butt;stroke-linejoin:bevel;stroke-dasharray:none;stroke-opacity:1"
     d="m 256.00876,312.96692 h -1.0791 v 2.0459 h -0.9375 v -2.0459 h -3.48145 v -1.12305 l 3.52051,-4.10156 h 0.89844 v 4.44336 h 1.0791 z m -2.0166,-0.78125 v -3.28125 l -2.81739,3.28125 z" />
  <path
     inkscape:connector-curvature="0"
     id="path1351"
     style="font-style:normal;font-size:medium;text-anchor:middle;fill:none;fill-opacity:1;stroke:#000000;stroke-width:0.25;stroke-linecap:butt;stroke-linejoin:bevel;stroke-dasharray:none;stroke-opacity:1"
     d="m 259.87595,316.92688 h -2.53907 v -0.69824 h 1.68946 v -8.11524 h -1.68946 v -0.69824 h 2.53907 z" />
  <path
     inkscape:connector-curvature="0"
     id="path1353"
     style="font-style:normal;font-size:medium;text-anchor:middle;fill:none;fill-opacity:1;stroke:#000000;stroke-width:0.25;stroke-linecap:butt;stroke-linejoin:bevel;stroke-dasharray:none;stroke-opacity:1"
     d="m 268.10837,315.01282 h -2.8711 v -0.74219 h 0.95215 v -5.78613 h -0.95215 v -0.74219 h 2.8711 v 0.74219 h -0.95215 v 5.78613 h 0.95215 z" />
  <path
     inkscape:connector-curvature="0"
     id="path1355"
     style="font-style:normal;font-size:medium;text-anchor:middle;fill:none;fill-opacity:1;stroke:#000000;stroke-width:0.25;stroke-linecap:butt;stroke-linejoin:bevel;stroke-dasharray:none;stroke-opacity:1"
     d="m 277.59567,315.01282 h -3.93554 v -0.74219 h 1.51367 v -4.87305 h -1.51367 v -0.66406 q 0.30761,0 0.65918,-0.0488 0.35156,-0.0537 0.53222,-0.15136 0.22461,-0.12208 0.35156,-0.30762 0.13184,-0.19043 0.15137,-0.50781 h 0.75684 v 6.55273 h 1.48437 z" />
  <path
     inkscape:connector-curvature="0"
     id="path1357"
     style="font-style:normal;font-size:medium;text-anchor:middle;fill:none;fill-opacity:1;stroke:#000000;stroke-width:0.25;stroke-linecap:butt;stroke-linejoin:bevel;stroke-dasharray:none;stroke-opacity:1"
     d="m 284.54391,312.96692 h -1.0791 v 2.0459 h -0.9375 v -2.0459 h -3.48144 v -1.12305 l 3.52051,-4.10156 h 0.89843 v 4.44336 h 1.0791 z m -2.0166,-0.78125 v -3.28125 l -2.81738,3.28125 z" />
</svg>
