<?xml version="1.0" encoding="UTF-8" standalone="no"?>
<svg
   xmlns:dc="http://purl.org/dc/elements/1.1/"
   xmlns:cc="http://creativecommons.org/ns#"
   xmlns:rdf="http://www.w3.org/1999/02/22-rdf-syntax-ns#"
   xmlns:svg="http://www.w3.org/2000/svg"
   xmlns="http://www.w3.org/2000/svg"
   xmlns:sodipodi="http://sodipodi.sourceforge.net/DTD/sodipodi-0.dtd"
   xmlns:inkscape="http://www.inkscape.org/namespaces/inkscape"
   version="1.1"
   width="320.00mm"
   height="620.00mm"
   viewBox="0 0 320.00 620.00"
   id="svg62"
   sodipodi:docname="backrest_page3_fabric.svg"
   inkscape:version="0.92.2 (5c3e80d, 2017-08-06)">
  <metadata
     id="metadata68">
    <rdf:RDF>
      <cc:Work
         rdf:about="">
        <dc:format>image/svg+xml</dc:format>
        <dc:type
           rdf:resource="http://purl.org/dc/dcmitype/StillImage" />
      </cc:Work>
    </rdf:RDF>
  </metadata>
  <defs
     id="defs66" />
  <sodipodi:namedview
     pagecolor="#ffffff"
     bordercolor="#666666"
     borderopacity="1"
     objecttolerance="10"
     gridtolerance="10"
     guidetolerance="10"
     inkscape:pageopacity="0"
     inkscape:pageshadow="2"
     inkscape:window-width="1920"
     inkscape:window-height="1017"
     id="namedview64"
     showgrid="false"
     inkscape:zoom="0.28485759"
     inkscape:cx="1006.2512"
     inkscape:cy="698.60635"
     inkscape:window-x="-8"
     inkscape:window-y="-8"
     inkscape:window-maximized="1"
     inkscape:current-layer="g60" />
  <style
     type="text/css"
     id="style2">
    path {
        fill: none;
        stroke-linecap: butt;
        stroke-linejoin: bevel;
        stroke-dasharray: none;
    }
    path.outer {
        stroke: #000000;
        stroke-dasharray: none;
        stroke-dashoffset: 0;
        stroke-width: 0.3;
        stroke-opacity: 1.0;
    }
    path.convex {
        stroke: #000000;
        stroke-dasharray: 0.50,1.00;
        stroke-dashoffset:0;
        stroke-width:0.2;
        stroke-opacity: 1.0
    }
    path.concave {
        stroke: #000000;
        stroke-dasharray: 1.00,0.50,0.20,0.50;
        stroke-dashoffset: 0;
        stroke-width: 0.2;
        stroke-opacity: 1.0
    }
    path.freestyle {
        stroke: #000000;
        stroke-dasharray: none;
        stroke-dashoffset: 0;
        stroke-width: 0.2;
        stroke-opacity: 1.0
    }
    path.outer_background {
        stroke: #ffffff;
        stroke-opacity: 1.0;
        stroke-width: 0.5
    }
    path.inner_background {
        stroke: #ffffff;
        stroke-opacity: 1.0;
        stroke-width: 0.2
    }
    path.sticker {
        fill: #e5e5e5;
        stroke: none;
        fill-opacity: 1.0;
    }
    path.arrow {
        fill: #000000;
    }
    text {
        font-style: normal;
        fill: #000000;
        fill-opacity: 1.0;
        stroke: none;
    }
    text, tspan {
        text-anchor:middle;
    }
    </style>
  <g
     id="g60">
    <g
       id="g4785">
      <path
         d="m 95.663086,274.28064 h -2.539063 v -9.51172 h 2.539063 v 0.69825 h -1.689453 v 8.11523 h 1.689453 z"
         style="font-style:normal;font-size:medium;text-anchor:middle;fill:none;fill-opacity:1;stroke:#000000;stroke-width:0.06614583;stroke-linecap:butt;stroke-linejoin:bevel;stroke-dasharray:none;stroke-opacity:1"
         id="path4679"
         inkscape:connector-curvature="0" />
      <path
         d="m 101.57617,268.8656 q 0.23438,0.20996 0.38574,0.52735 0.15137,0.31738 0.15137,0.82031 0,0.49805 -0.18066,0.91309 -0.18067,0.41503 -0.50782,0.72265 -0.36621,0.3418 -0.86425,0.50781 -0.49317,0.16114 -1.083988,0.16114 -0.605468,0 -1.191406,-0.14649 -0.585937,-0.1416 -0.961914,-0.3125 v -1.02051 h 0.07324 q 0.415039,0.27344 0.976563,0.45411 0.561523,0.18066 1.083984,0.18066 0.307617,0 0.654301,-0.10254 0.34668,-0.10254 0.56152,-0.30273 0.22461,-0.21485 0.33203,-0.47364 0.11231,-0.25878 0.11231,-0.65429 0,-0.39063 -0.12696,-0.64453 -0.12207,-0.25879 -0.34179,-0.40528 -0.21973,-0.15136 -0.53223,-0.20508 -0.312501,-0.0586 -0.673829,-0.0586 h -0.439453 v -0.81055 h 0.341797 q 0.742185,0 1.181645,-0.30761 0.44433,-0.3125 0.44433,-0.90821 0,-0.26367 -0.1123,-0.45898 -0.11231,-0.2002 -0.3125,-0.32715 -0.20996,-0.12695 -0.44922,-0.17578 -0.23926,-0.0488 -0.541994,-0.0488 -0.463868,0 -0.986329,0.16602 -0.522461,0.16601 -0.986328,0.46875 h -0.04883 v -1.02051 q 0.34668,-0.1709 0.922852,-0.3125 0.581054,-0.14649 1.123047,-0.14649 0.532222,0 0.937502,0.0977 0.40527,0.0977 0.73242,0.3125 0.35156,0.23438 0.53223,0.56641 0.18066,0.33203 0.18066,0.77636 0,0.60547 -0.42969,1.05957 -0.4248,0.44922 -1.00586,0.56641 v 0.0684 q 0.23438,0.0391 0.53711,0.16602 0.30274,0.12207 0.5127,0.30761 z"
         style="font-style:normal;font-size:medium;text-anchor:middle;fill:none;fill-opacity:1;stroke:#000000;stroke-width:0.06614583;stroke-linecap:butt;stroke-linejoin:bevel;stroke-dasharray:none;stroke-opacity:1"
         id="path4681"
         inkscape:connector-curvature="0" />
      <path
         d="m 106.24902,274.28064 h -2.53906 v -0.69824 h 1.68945 v -8.11523 h -1.68945 v -0.69825 h 2.53906 z"
         style="font-style:normal;font-size:medium;text-anchor:middle;fill:none;fill-opacity:1;stroke:#000000;stroke-width:0.06614583;stroke-linecap:butt;stroke-linejoin:bevel;stroke-dasharray:none;stroke-opacity:1"
         id="path4683"
         inkscape:connector-curvature="0" />
      <path
         d="m 114.48145,272.36658 h -2.8711 v -0.74219 h 0.95215 v -5.78613 h -0.95215 v -0.74219 h 2.8711 v 0.74219 h -0.95215 v 5.78613 h 0.95215 z"
         style="font-style:normal;font-size:medium;text-anchor:middle;fill:none;fill-opacity:1;stroke:#000000;stroke-width:0.06614583;stroke-linecap:butt;stroke-linejoin:bevel;stroke-dasharray:none;stroke-opacity:1"
         id="path4685"
         inkscape:connector-curvature="0" />
      <path
         d="m 123.74414,268.8656 q 0.23438,0.20996 0.38574,0.52735 0.15137,0.31738 0.15137,0.82031 0,0.49805 -0.18066,0.91309 -0.18067,0.41503 -0.50782,0.72265 -0.36621,0.3418 -0.86425,0.50781 -0.49317,0.16114 -1.08399,0.16114 -0.60547,0 -1.1914,-0.14649 -0.58594,-0.1416 -0.96192,-0.3125 v -1.02051 h 0.0732 q 0.41504,0.27344 0.97656,0.45411 0.56153,0.18066 1.08399,0.18066 0.30762,0 0.6543,-0.10254 0.34667,-0.10254 0.56152,-0.30273 0.22461,-0.21485 0.33203,-0.47364 0.1123,-0.25878 0.1123,-0.65429 0,-0.39063 -0.12695,-0.64453 -0.12207,-0.25879 -0.3418,-0.40528 -0.21972,-0.15136 -0.53222,-0.20508 -0.3125,-0.0586 -0.67383,-0.0586 h -0.43945 v -0.81055 h 0.34179 q 0.74219,0 1.18164,-0.30761 0.44434,-0.3125 0.44434,-0.90821 0,-0.26367 -0.1123,-0.45898 -0.11231,-0.2002 -0.3125,-0.32715 -0.20997,-0.12695 -0.44922,-0.17578 -0.23926,-0.0488 -0.542,-0.0488 -0.46386,0 -0.98632,0.16602 -0.52246,0.16601 -0.98633,0.46875 h -0.0488 v -1.02051 q 0.34668,-0.1709 0.92285,-0.3125 0.58105,-0.14649 1.12305,-0.14649 0.53222,0 0.9375,0.0977 0.40527,0.0977 0.73242,0.3125 0.35156,0.23438 0.53222,0.56641 0.18067,0.33203 0.18067,0.77636 0,0.60547 -0.42969,1.05957 -0.4248,0.44922 -1.00586,0.56641 v 0.0684 q 0.23438,0.0391 0.53711,0.16602 0.30274,0.12207 0.5127,0.30761 z"
         style="font-style:normal;font-size:medium;text-anchor:middle;fill:none;fill-opacity:1;stroke:#000000;stroke-width:0.06614583;stroke-linecap:butt;stroke-linejoin:bevel;stroke-dasharray:none;stroke-opacity:1"
         id="path4687"
         inkscape:connector-curvature="0" />
      <path
         style="stroke:#000000;stroke-opacity:1;stroke-width:0.06614583"
         id="path8"
         d=" M 205.000043 397.294402 L 215.000033 397.451460 L 215.000033 503.888696 L 205.000043 504.045755 Z M 205.000058 552.112520 L 215.000063 552.269638 L 215.000063 597.842872 L 205.000058 597.999930 Z M 205.000013 178.266913 L 211.580023 178.370267 L 211.580023 191.323519 L 205.000013 191.426903 Z M 205.000013 160.051703 L 214.107618 160.194784 L 214.107618 178.123832 L 205.000013 178.266913 Z M 204.999998 85.266888 L 214.999989 85.423946 L 215.000004 122.781605 L 204.999998 122.938693 Z M 205.000013 259.155601 L 215.000018 259.312689 L 215.000018 298.290044 L 205.000013 298.447132 Z M 204.999998 122.938693 L 215.000004 123.095781 L 215.000018 159.894586 L 205.000013 160.051703 Z M 205.000013 214.133143 L 215.000004 214.290231 L 215.000018 258.998513 L 205.000013 259.155601 Z M 205.000013 298.447132 L 215.000018 298.604250 L 215.000033 397.137284 L 205.000043 397.294402 Z M 205.000043 504.045755 L 215.000033 504.202843 L 215.000078 551.955462 L 205.000058 552.112520 Z M 205.000013 191.426903 L 215.000018 191.583991 L 215.000004 213.976026 L 205.000013 214.133143 Z M 10.000065 504.045814 L 0.000030 503.888696 L 0.000060 397.451490 L 10.000020 397.294402 Z M 10.000035 597.999930 L 0.000000 597.842872 L 0.000060 552.269608 L 10.000050 552.112550 Z M 58.750048 597.999990 L 58.592945 607.999980 L 37.043929 607.999980 L 36.886841 597.999930 Z M 205.000058 597.999930 L 204.842970 607.999980 L 129.285201 607.999980 L 129.128098 597.999930 Z M 45.921907 191.423357 L 39.412305 184.905469 L 52.038893 171.892464 L 58.750004 178.202629 Z M 10.000020 397.294402 L 0.000060 397.137314 L 0.000030 298.604250 L 10.000020 298.447192 Z M 58.750004 178.202629 L 55.380806 168.786019 L 103.410147 150.745511 L 107.073486 160.051703 Z M 158.899978 85.266888 L 159.057066 75.266898 L 204.842895 75.266838 L 204.999998 85.266888 Z M 107.073486 160.051703 L 97.073488 159.894586 L 97.073473 123.095781 L 107.073471 122.938693 Z M 18.297344 219.679296 L 11.256665 212.576240 L 38.661599 184.544981 L 45.921907 191.423357 Z M 10.000020 259.155631 L 0.246152 256.944984 L 8.478880 217.776120 L 18.297344 219.679296 Z M 129.128098 597.999930 L 128.971025 607.999980 L 58.907107 607.999980 L 58.750048 597.999990 Z M 130.720317 94.706953 L 127.692789 85.174978 L 155.574545 75.834692 L 158.899978 85.266888 Z M 107.073471 122.938693 L 99.508233 116.397142 L 122.953340 88.406265 L 130.720317 94.706953 Z M 36.886841 597.999930 L 36.729723 607.999980 L 10.157108 607.999980 L 10.000035 597.999930 Z M 10.000020 298.447192 L 0.000015 298.290074 L 0.000015 259.312749 L 10.000020 259.155631 Z M 10.000050 552.112550 L 0.000060 551.955432 L 0.000060 504.202873 L 10.000065 504.045814 Z "
         class="sticker" />
      <path
         style="stroke:#000000;stroke-opacity:1;stroke-width:0.06614583"
         id="path10"
         d=" M 215.000018 298.604250 L 215.000033 397.137284 L 205.000043 397.294402 L 215.000033 397.451460 L 215.000033 503.888696 L 205.000043 504.045755 L 215.000033 504.202843 L 215.000078 551.955462 L 205.000058 552.112520 L 215.000063 552.269638 L 215.000063 597.842872 L 205.000058 597.999930 L 204.842970 607.999980 L 129.285201 607.999980 L 129.128098 597.999930 L 128.971025 607.999980 L 58.907107 607.999980 L 58.750048 597.999990 L 58.592945 607.999980 L 37.043929 607.999980 L 36.886841 597.999930 L 36.729723 607.999980 L 10.157108 607.999980 L 10.000035 597.999930 L 0.000000 597.842872 L 0.000060 552.269608 L 10.000050 552.112550 L 0.000060 551.955432 L 0.000060 504.202873 L 10.000065 504.045814 L 0.000030 503.888696 L 0.000060 397.451490 L 10.000020 397.294402 L 0.000060 397.137314 L 0.000030 298.604250 L 10.000020 298.447192 L 0.000015 298.290074 L 0.000015 259.312749 L 10.000020 259.155631 L 0.246152 256.944984 L 8.478880 217.776120 L 18.297344 219.679296 L 11.256665 212.576240 L 38.661599 184.544981 L 45.921907 191.423357 L 39.412305 184.905469 L 52.038893 171.892464 L 58.750004 178.202629 L 55.380806 168.786019 L 103.410147 150.745511 L 107.073486 160.051703 L 97.073488 159.894586 L 97.073473 123.095781 L 107.073471 122.938693 L 99.508233 116.397142 L 122.953340 88.406265 L 130.720317 94.706953 L 127.692789 85.174978 L 155.574545 75.834692 L 158.899978 85.266888 L 159.057066 75.266898 L 204.842895 75.266838 L 204.999998 85.266888 L 214.999989 85.423946 L 215.000004 122.781605 L 204.999998 122.938693 L 215.000004 123.095781 L 215.000018 159.894586 L 205.000013 160.051703 L 214.107618 160.194784 L 214.107618 178.123832 L 205.000013 178.266913 L 211.580023 178.370267 L 211.580023 191.323519 L 205.000013 191.426903 L 215.000018 191.583991 L 215.000004 213.976026 L 205.000013 214.133143 L 215.000004 214.290231 L 215.000018 258.998513 L 205.000013 259.155601 L 215.000018 259.312689 L 215.000018 298.290044 L 205.000013 298.447132 Z "
         class="outer" />
      <path
         d="m 206.80006,572.41515 v -4.42969 h 0.91846 q 0.3955,0.46142 0.79101,0.92285 0.39551,0.46582 0.78662,0.86572 0.81739,0.84375 1.29639,1.15577 0.4834,0.31201 1.0415,0.31201 0.50977,0 0.79541,-0.33838 0.29004,-0.33399 0.29004,-0.93604 0,-0.3999 -0.14062,-0.86572 -0.14063,-0.46582 -0.43067,-0.90967 v -0.0439 h 0.92286 q 0.1538,0.31201 0.28125,0.83056 0.12744,0.52295 0.12744,1.01075 0,1.00634 -0.4878,1.57763 -0.48339,0.57129 -1.31396,0.57129 -0.37354,0 -0.69873,-0.0967 -0.3208,-0.0923 -0.61084,-0.27685 -0.27246,-0.17139 -0.53613,-0.4043 -0.26368,-0.22852 -0.58448,-0.55811 -0.46142,-0.47021 -0.89648,-0.97119 -0.43066,-0.50097 -0.79981,-0.93603 v 3.52002 z"
         style="font-style:normal;font-size:medium;text-anchor:middle;fill:none;fill-opacity:1;stroke:#000000;stroke-width:0.06614583;stroke-linecap:butt;stroke-linejoin:bevel;stroke-dasharray:none;stroke-opacity:1"
         id="path4672"
         inkscape:connector-curvature="0" />
      <path
         d="m 210.45631,575.57921 v -1.05029 h 1.25244 v 1.05029 z m -3.65625,0 v -1.05029 h 1.25244 v 1.05029 z"
         style="font-style:normal;font-size:medium;text-anchor:middle;fill:none;fill-opacity:1;stroke:#000000;stroke-width:0.06614583;stroke-linecap:butt;stroke-linejoin:bevel;stroke-dasharray:none;stroke-opacity:1"
         id="path4674"
         inkscape:connector-curvature="0" />
      <path
         d="m 206.80006,581.86778 v -3.54199 h 0.66797 v 1.36231 h 4.38574 v -1.36231 h 0.59766 q 0,0.27686 0.0439,0.59326 0.0483,0.31641 0.13623,0.47901 0.10987,0.20215 0.27686,0.3164 0.17138,0.11866 0.45703,0.13623 v 0.68116 h -5.89746 v 1.33593 z"
         style="font-style:normal;font-size:medium;text-anchor:middle;fill:none;fill-opacity:1;stroke:#000000;stroke-width:0.06614583;stroke-linecap:butt;stroke-linejoin:bevel;stroke-dasharray:none;stroke-opacity:1"
         id="path4676"
         inkscape:connector-curvature="0" />
      <path
         class="arrow"
         d="m 205,104.10279 -10,10 7.5,-10 -7.5,-9.999998 z"
         id="path16"
         inkscape:connector-curvature="0"
         style="fill:#000000;stroke-width:0.06614583;stroke-linecap:butt;stroke-linejoin:bevel;stroke-dasharray:none;stroke:#000000;stroke-opacity:1" />
      <path
         d="m 198.10937,108.1028 h -3.93554 v -0.74219 h 1.51367 v -4.87305 h -1.51367 v -0.66406 q 0.30762,0 0.65918,-0.0488 0.35156,-0.0537 0.53222,-0.15136 0.22461,-0.12207 0.35157,-0.30762 0.13183,-0.19043 0.15136,-0.50781 h 0.75684 v 6.55273 h 1.48437 z"
         style="font-style:normal;font-size:medium;text-anchor:middle;fill:none;fill-opacity:1;stroke:#000000;stroke-width:0.06614583;stroke-linecap:butt;stroke-linejoin:bevel;stroke-dasharray:none;stroke-opacity:1"
         id="path4669"
         inkscape:connector-curvature="0" />
      <path
         d="m 206.79999,101.46167 v -4.429686 h 0.91846 q 0.39551,0.461426 0.79102,0.922852 0.39551,0.46582 0.78662,0.865722 0.81738,0.84375 1.29639,1.155762 0.48339,0.31201 1.0415,0.31201 0.50976,0 0.79541,-0.338377 0.29004,-0.333984 0.29004,-0.936035 0,-0.399903 -0.14063,-0.865723 -0.14062,-0.46582 -0.43066,-0.909668 v -0.04395 h 0.92285 q 0.15381,0.312012 0.28125,0.830567 0.12744,0.522949 0.12744,1.010742 0,1.006349 -0.48779,1.577639 -0.4834,0.57129 -1.31397,0.57129 -0.37353,0 -0.69873,-0.0967 -0.3208,-0.0923 -0.61084,-0.27686 -0.27246,-0.17139 -0.53613,-0.4043 -0.26367,-0.22851 -0.58447,-0.558101 -0.46143,-0.470215 -0.89649,-0.971192 -0.43066,-0.500976 -0.7998,-0.936035 v 3.520018 z"
         style="font-style:normal;font-size:medium;text-anchor:middle;fill:none;fill-opacity:1;stroke:#000000;stroke-width:0.06614583;stroke-linecap:butt;stroke-linejoin:bevel;stroke-dasharray:none;stroke-opacity:1"
         id="path4662"
         inkscape:connector-curvature="0" />
      <path
         d="m 210.45624,104.62573 v -1.05029 h 1.25245 v 1.05029 z m -3.65625,0 v -1.05029 h 1.25245 v 1.05029 z"
         style="font-style:normal;font-size:medium;text-anchor:middle;fill:none;fill-opacity:1;stroke:#000000;stroke-width:0.06614583;stroke-linecap:butt;stroke-linejoin:bevel;stroke-dasharray:none;stroke-opacity:1"
         id="path4664"
         inkscape:connector-curvature="0" />
      <path
         d="m 206.79999,110.91431 v -3.54199 h 0.66797 v 1.3623 h 4.38575 v -1.3623 h 0.59765 q 0,0.27685 0.0439,0.59326 0.0483,0.3164 0.13623,0.479 0.10986,0.20215 0.27685,0.31641 0.17139,0.11865 0.45703,0.13623 v 0.68115 h -5.89746 v 1.33594 z"
         style="font-style:normal;font-size:medium;text-anchor:middle;fill:none;fill-opacity:1;stroke:#000000;stroke-width:0.06614583;stroke-linecap:butt;stroke-linejoin:bevel;stroke-dasharray:none;stroke-opacity:1"
         id="path4666"
         inkscape:connector-curvature="0" />
      <path
         d="m 8.20008,456.55 v 3.54199 H 7.5321113 l 0,-1.3623 H 3.1463691 v 1.3623 H 2.5487128 q 0,-0.27685 -0.043945,-0.59326 -0.04834,-0.3164 -0.1362305,-0.479 -0.1098632,-0.20215 -0.2768554,-0.31641 -0.1713868,-0.11865 -0.4570313,-0.13623 l 0,-0.68115 h 5.897461 V 456.55 Z"
         style="font-style:normal;font-size:medium;text-anchor:middle;fill:none;fill-opacity:1;stroke:#000000;stroke-width:0.06614583;stroke-linecap:butt;stroke-linejoin:bevel;stroke-dasharray:none;stroke-opacity:1"
         id="path4653"
         inkscape:connector-curvature="0" />
      <path
         d="m 5.0492011,451.02168 q 0.1889648,-0.21094 0.4746094,-0.34717 0.2856445,-0.13623 0.7382812,-0.13623 0.4482422,0 0.8217774,0.1626 0.3735351,0.1626 0.6503906,0.45703 0.3076172,0.32959 0.4570312,0.77783 0.1450196,0.44385 0.1450196,0.97559 0,0.54492 -0.131836,1.07227 -0.1274414,0.52734 -0.28125,0.86572 h -0.918457 v -0.0659 q 0.2460938,-0.37353 0.4086914,-0.87891 0.1625977,-0.50537 0.1625977,-0.97558 0,-0.27686 -0.092285,-0.58887 -0.092285,-0.31201 -0.272461,-0.50537 -0.1933593,-0.20215 -0.4262695,-0.29883 -0.2329101,-0.10107 -0.5888672,-0.10107 -0.3515625,0 -0.5800782,0.11426 -0.23291,0.10986 -0.3647461,0.30761 -0.1362304,0.19776 -0.1845703,0.47901 -0.052734,0.28125 -0.052734,0.60644 v 0.39551 h -0.729492 v -0.30762 q 0,-0.66797 -0.2768555,-1.06347 -0.28125,-0.39991 -0.8173828,-0.39991 -0.2373047,0 -0.413086,0.10108 -0.1801757,0.10107 -0.2944336,0.28125 -0.1142578,0.18896 -0.1582031,0.4043 -0.043945,0.21533 -0.043945,0.48779 0,0.41748 0.1494141,0.88769 0.149414,0.47022 0.421875,0.8877 v 0.0439 H 1.9334791 q -0.1538086,-0.31201 -0.28125,-0.83056 -0.1318359,-0.52295 -0.1318359,-1.01074 0,-0.47901 0.087891,-0.84375 0.087891,-0.36475 0.28125,-0.65918 0.2109375,-0.31641 0.5097657,-0.47901 0.2988281,-0.1626 0.6987304,-0.1626 0.5449219,0 0.9536133,0.38672 0.4042968,0.38233 0.5097655,0.90528 h 0.061523 q 0.035156,-0.21094 0.149414,-0.4834 0.1098633,-0.27246 0.276855,-0.46143 z"
         style="font-style:normal;font-size:medium;text-anchor:middle;fill:none;fill-opacity:1;stroke:#000000;stroke-width:0.06614583;stroke-linecap:butt;stroke-linejoin:bevel;stroke-dasharray:none;stroke-opacity:1"
         id="path4655"
         inkscape:connector-curvature="0" />
      <path
         d="m 4.54383,447.28194 v 1.05029 H 3.2913886 v -1.05029 z m 3.65625,0 v 1.05029 H 6.9476386 v -1.05029 z"
         style="font-style:normal;font-size:medium;text-anchor:middle;fill:none;fill-opacity:1;stroke:#000000;stroke-width:0.06614583;stroke-linecap:butt;stroke-linejoin:bevel;stroke-dasharray:none;stroke-opacity:1"
         id="path4657"
         inkscape:connector-curvature="0" />
      <path
         d="m 5.0492011,441.19551 q 0.1889648,-0.21094 0.4746094,-0.34717 0.2856445,-0.13623 0.7382812,-0.13623 0.4482422,0 0.8217774,0.1626 0.3735351,0.1626 0.6503906,0.45703 0.3076172,0.32959 0.4570312,0.77783 0.1450196,0.44385 0.1450196,0.97559 0,0.54492 -0.131836,1.07226 -0.1274414,0.52735 -0.28125,0.86573 h -0.918457 v -0.0659 q 0.2460938,-0.37354 0.4086914,-0.87891 0.1625977,-0.50537 0.1625977,-0.97558 0,-0.27686 -0.092285,-0.58887 -0.092285,-0.31201 -0.272461,-0.50537 -0.1933593,-0.20215 -0.4262695,-0.29883 -0.2329101,-0.10107 -0.5888672,-0.10107 -0.3515625,0 -0.5800782,0.11425 -0.23291,0.10987 -0.364746,0.30762 -0.1362304,0.19776 -0.1845703,0.47901 -0.052734,0.28125 -0.052734,0.60644 v 0.39551 H 4.2845531 v -0.30762 q 0,-0.66797 -0.2768555,-1.06348 -0.28125,-0.3999 -0.8173828,-0.3999 -0.2373047,0 -0.413086,0.10108 -0.1801757,0.10107 -0.2944336,0.28125 -0.1142578,0.18896 -0.1582031,0.40429 -0.043945,0.21534 -0.043945,0.4878 0,0.41748 0.1494141,0.88769 0.149414,0.47022 0.421875,0.8877 v 0.0439 H 1.9334791 q -0.1538086,-0.31201 -0.28125,-0.83056 -0.1318359,-0.52295 -0.1318359,-1.01075 0,-0.479 0.087891,-0.84375 0.087891,-0.36474 0.28125,-0.65918 0.2109375,-0.3164 0.5097657,-0.479 0.2988281,-0.1626 0.6987304,-0.1626 0.5449219,0 0.9536133,0.38672 0.4042969,0.38233 0.5097656,0.90527 h 0.061523 q 0.035156,-0.21093 0.149414,-0.48339 0.1098633,-0.27246 0.2768549,-0.46143 z"
         style="font-style:normal;font-size:medium;text-anchor:middle;fill:none;fill-opacity:1;stroke:#000000;stroke-width:0.06614583;stroke-linecap:butt;stroke-linejoin:bevel;stroke-dasharray:none;stroke-opacity:1"
         id="path4659"
         inkscape:connector-curvature="0" />
      <path
         d="m 8.20005,580.93613 v 3.54199 H 7.5320813 l 0,-1.3623 H 3.1463391 v 1.3623 H 2.5486828 q 0,-0.27685 -0.043945,-0.59326 -0.04834,-0.3164 -0.1362305,-0.479 -0.1098632,-0.20215 -0.2768554,-0.31641 -0.1713868,-0.11865 -0.4570313,-0.13623 l 0,-0.68115 h 5.897461 v -1.33594 z"
         style="font-style:normal;font-size:medium;text-anchor:middle;fill:none;fill-opacity:1;stroke:#000000;stroke-width:0.06614583;stroke-linecap:butt;stroke-linejoin:bevel;stroke-dasharray:none;stroke-opacity:1"
         id="path4644"
         inkscape:connector-curvature="0" />
      <path
         d="m 5.0491711,575.40781 q 0.1889648,-0.21094 0.4746094,-0.34717 0.2856445,-0.13623 0.7382812,-0.13623 0.4482422,0 0.8217774,0.1626 0.3735351,0.1626 0.6503906,0.45703 0.3076172,0.32959 0.4570312,0.77783 0.1450196,0.44385 0.1450196,0.97559 0,0.54492 -0.131836,1.07227 -0.1274414,0.52734 -0.28125,0.86572 h -0.918457 v -0.0659 q 0.2460938,-0.37353 0.4086914,-0.87891 0.1625977,-0.50537 0.1625977,-0.97558 0,-0.27686 -0.092285,-0.58887 -0.092285,-0.31201 -0.272461,-0.50537 -0.1933593,-0.20215 -0.4262695,-0.29883 -0.2329101,-0.10107 -0.5888672,-0.10107 -0.3515625,0 -0.5800782,0.11426 -0.23291,0.10986 -0.3647461,0.30761 -0.1362304,0.19776 -0.1845703,0.47901 -0.052734,0.28125 -0.052734,0.60644 v 0.39551 h -0.729492 v -0.30762 q 0,-0.66797 -0.2768555,-1.06347 -0.28125,-0.39991 -0.8173828,-0.39991 -0.2373047,0 -0.413086,0.10108 -0.1801757,0.10107 -0.2944336,0.28125 -0.1142578,0.18896 -0.1582031,0.4043 -0.043945,0.21533 -0.043945,0.48779 0,0.41748 0.1494141,0.88769 0.149414,0.47022 0.421875,0.8877 v 0.0439 H 1.9334491 q -0.1538086,-0.31201 -0.28125,-0.83056 -0.1318359,-0.52295 -0.1318359,-1.01074 0,-0.47901 0.087891,-0.84375 0.087891,-0.36475 0.28125,-0.65918 0.2109375,-0.31641 0.5097657,-0.47901 0.2988281,-0.1626 0.6987304,-0.1626 0.5449219,0 0.9536133,0.38672 0.4042968,0.38233 0.5097655,0.90528 h 0.061523 q 0.035156,-0.21094 0.149414,-0.4834 0.1098633,-0.27246 0.276855,-0.46143 z"
         style="font-style:normal;font-size:medium;text-anchor:middle;fill:none;fill-opacity:1;stroke:#000000;stroke-width:0.06614583;stroke-linecap:butt;stroke-linejoin:bevel;stroke-dasharray:none;stroke-opacity:1"
         id="path4646"
         inkscape:connector-curvature="0" />
      <path
         d="m 4.5438,571.66807 v 1.05029 H 3.2913586 v -1.05029 z m 3.65625,0 v 1.05029 H 6.9476086 v -1.05029 z"
         style="font-style:normal;font-size:medium;text-anchor:middle;fill:none;fill-opacity:1;stroke:#000000;stroke-width:0.06614583;stroke-linecap:butt;stroke-linejoin:bevel;stroke-dasharray:none;stroke-opacity:1"
         id="path4648"
         inkscape:connector-curvature="0" />
      <path
         d="m 6.3587414,564.85654 v 0.97119 H 8.20005 v 0.84375 H 6.3587414 v 3.13331 H 5.3479992 L 1.656593,566.63633 v -0.8086 h 3.9990234 v -0.97119 z m -0.703125,1.81494 h -2.953125 l 2.953125,2.53565 z"
         style="font-style:normal;font-size:medium;text-anchor:middle;fill:none;fill-opacity:1;stroke:#000000;stroke-width:0.06614583;stroke-linecap:butt;stroke-linejoin:bevel;stroke-dasharray:none;stroke-opacity:1"
         id="path4650"
         inkscape:connector-curvature="0" />
      <path
         d="m 169.75793,601.87855 q 0,-0.45703 0.167,-0.87451 0.16699,-0.41748 0.45703,-0.70312 0.3164,-0.30762 0.75586,-0.47461 0.43506,-0.1626 1.01074,-0.1626 0.53613,0 1.03271,0.11426 0.49659,0.10986 0.83936,0.26806 v 0.92725 h -0.0615 q -0.36036,-0.22852 -0.84375,-0.39111 -0.4834,-0.15821 -0.94922,-0.15821 -0.31201,0 -0.60205,0.0879 -0.29444,0.0879 -0.52295,0.30762 -0.19336,0.18897 -0.29004,0.45264 -0.10108,0.26367 -0.10108,0.61084 0,0.33838 0.11866,0.57129 0.11425,0.23291 0.3208,0.37353 0.22851,0.16699 0.5581,0.23291 0.3252,0.0703 0.72949,0.0703 0.38672,0 0.74708,-0.0527 0.35595,-0.0527 0.61523,-0.10547 v 3.37061 h -3.9375 v -0.76905 h 3.08935 v -1.74023 q -0.18896,0.0176 -0.38671,0.0264 -0.19776,0.009 -0.34278,0.009 -0.53174,0 -0.93164,-0.0923 -0.3999,-0.0879 -0.73388,-0.3164 -0.35157,-0.2417 -0.54493,-0.62403 -0.19336,-0.38232 -0.19336,-0.95801 z"
         style="font-style:normal;font-size:medium;text-anchor:middle;fill:none;fill-opacity:1;stroke:#000000;stroke-width:0.06614583;stroke-linecap:butt;stroke-linejoin:bevel;stroke-dasharray:none;stroke-opacity:1"
         id="path4637"
         inkscape:connector-curvature="0" />
      <path
         d="m 166.54114,603.45619 h 1.05029 v 1.25244 h -1.05029 z m 0,-3.65625 h 1.05029 v 1.25244 h -1.05029 z"
         style="font-style:normal;font-size:medium;text-anchor:middle;fill:none;fill-opacity:1;stroke:#000000;stroke-width:0.06614583;stroke-linecap:butt;stroke-linejoin:bevel;stroke-dasharray:none;stroke-opacity:1"
         id="path4639"
         inkscape:connector-curvature="0" />
      <path
         d="m 160.45471,602.95082 q -0.21094,-0.18897 -0.34717,-0.47461 -0.13623,-0.28565 -0.13623,-0.73828 0,-0.44824 0.1626,-0.82178 0.1626,-0.37353 0.45703,-0.65039 0.32959,-0.30762 0.77783,-0.45703 0.44385,-0.14502 0.97559,-0.14502 0.54492,0 1.07227,0.13184 0.52734,0.12744 0.86572,0.28125 v 0.91845 h -0.0659 q -0.37354,-0.24609 -0.87891,-0.40869 -0.50537,-0.1626 -0.97558,-0.1626 -0.27686,0 -0.58887,0.0923 -0.31201,0.0923 -0.50537,0.27246 -0.20215,0.19336 -0.29883,0.42627 -0.10107,0.23291 -0.10107,0.58887 0,0.35156 0.11425,0.58007 0.10987,0.23291 0.30762,0.36475 0.19776,0.13623 0.47901,0.18457 0.28125,0.0527 0.60644,0.0527 h 0.39551 v 0.7295 h -0.30762 q -0.66797,0 -1.06347,0.27685 -0.39991,0.28125 -0.39991,0.81739 0,0.2373 0.10108,0.41308 0.10107,0.18018 0.28125,0.29444 0.18896,0.11425 0.40429,0.1582 0.21534,0.0439 0.4878,0.0439 0.41748,0 0.88769,-0.14941 0.47022,-0.14941 0.8877,-0.42188 h 0.0439 v 0.91846 q -0.31201,0.15381 -0.83056,0.28125 -0.52295,0.13184 -1.01075,0.13184 -0.479,0 -0.84375,-0.0879 -0.36474,-0.0879 -0.65918,-0.28125 -0.3164,-0.21094 -0.479,-0.50977 -0.1626,-0.29883 -0.1626,-0.69873 0,-0.54492 0.38672,-0.95361 0.38233,-0.4043 0.90528,-0.50977 v -0.0615 q -0.21094,-0.0352 -0.4834,-0.14942 -0.27246,-0.10986 -0.46143,-0.27685 z"
         style="font-style:normal;font-size:medium;text-anchor:middle;fill:none;fill-opacity:1;stroke:#000000;stroke-width:0.06614583;stroke-linecap:butt;stroke-linejoin:bevel;stroke-dasharray:none;stroke-opacity:1"
         id="path4641"
         inkscape:connector-curvature="0" />
      <path
         d="m 2.6365734,350.49431 5.5634766,2.96191 v 0.94043 l -5.7744141,-3.15088 v 3.72656 H 1.656593 v -4.47802 z"
         style="font-style:normal;font-size:medium;text-anchor:middle;fill:none;fill-opacity:1;stroke:#000000;stroke-width:0.06614583;stroke-linecap:butt;stroke-linejoin:bevel;stroke-dasharray:none;stroke-opacity:1"
         id="path4630"
         inkscape:connector-curvature="0" />
      <path
         d="m 4.5438,347.34782 v 1.05029 H 3.2913586 v -1.05029 z m 3.65625,0 v 1.05029 H 6.9476086 v -1.05029 z"
         style="font-style:normal;font-size:medium;text-anchor:middle;fill:none;fill-opacity:1;stroke:#000000;stroke-width:0.06614583;stroke-linecap:butt;stroke-linejoin:bevel;stroke-dasharray:none;stroke-opacity:1"
         id="path4632"
         inkscape:connector-curvature="0" />
      <path
         d="m 8.20005,341.05925 v 3.54199 H 7.5320813 v -1.36231 H 3.1463391 v 1.36231 H 2.5486828 q 0,-0.27686 -0.043945,-0.59326 -0.04834,-0.31641 -0.1362305,-0.47901 -0.1098632,-0.20215 -0.2768554,-0.3164 -0.1713868,-0.11866 -0.4570313,-0.13623 v -0.68116 h 5.897461 v -1.33593 z"
         style="font-style:normal;font-size:medium;text-anchor:middle;fill:none;fill-opacity:1;stroke:#000000;stroke-width:0.06614583;stroke-linecap:butt;stroke-linejoin:bevel;stroke-dasharray:none;stroke-opacity:1"
         id="path4634"
         inkscape:connector-curvature="0" />
      <path
         d="m 178.93534,83.466887 h -3.54199 v -0.667969 h 1.3623 v -4.385742 h -1.3623 V 77.81552 q 0.27685,0 0.59326,-0.04395 0.31641,-0.04834 0.47901,-0.136231 0.20214,-0.109863 0.3164,-0.276855 0.11865,-0.171387 0.13623,-0.457031 h 0.68115 v 5.897461 h 1.33594 z"
         style="font-style:normal;font-size:medium;text-anchor:middle;fill:none;fill-opacity:1;stroke:#000000;stroke-width:0.06614583;stroke-linecap:butt;stroke-linejoin:bevel;stroke-dasharray:none;stroke-opacity:1"
         id="path4623"
         inkscape:connector-curvature="0" />
      <path
         d="m 182.47294,79.810637 h -1.05029 v -1.252441 h 1.05029 z m 0,3.65625 h -1.05029 v -1.252441 h 1.05029 z"
         style="font-style:normal;font-size:medium;text-anchor:middle;fill:none;fill-opacity:1;stroke:#000000;stroke-width:0.06614583;stroke-linecap:butt;stroke-linejoin:bevel;stroke-dasharray:none;stroke-opacity:1"
         id="path4625"
         inkscape:connector-curvature="0" />
      <path
         d="m 189.15263,77.90341 -2.96192,5.563477 h -0.94043 l 3.15088,-5.774414 H 184.6746 V 76.92343 h 4.47803 z"
         style="font-style:normal;font-size:medium;text-anchor:middle;fill:none;fill-opacity:1;stroke:#000000;stroke-width:0.06614583;stroke-linecap:butt;stroke-linejoin:bevel;stroke-dasharray:none;stroke-opacity:1"
         id="path4627"
         inkscape:connector-curvature="0" />
      <path
         d="m 11.767077,241.99741 -0.728556,3.46626 -0.653686,-0.1374 0.280214,-1.33317 -4.2919615,-0.90211 -0.2802138,1.33317 -0.5848766,-0.12293 q 0.056947,-0.27093 0.079023,-0.58961 0.017776,-0.31959 -0.034791,-0.49679 -0.065934,-0.22042 -0.2058534,-0.36658 -0.1433164,-0.15137 -0.4192373,-0.22733 l 0.1401069,-0.66659 5.7713552,1.21306 0.274791,-1.30737 z"
         style="font-style:normal;font-size:medium;text-anchor:middle;fill:none;fill-opacity:1;stroke:#000000;stroke-width:0.06614583;stroke-linecap:butt;stroke-linejoin:bevel;stroke-dasharray:none;stroke-opacity:1"
         id="path4616"
         inkscape:connector-curvature="0" />
      <path
         d="m 8.9166605,237.7834 -0.2160358,1.02784 -1.2256604,-0.25762 0.2160358,-1.02783 z m 3.5780685,0.75206 -0.216036,1.02783 -1.22566,-0.25761 0.216035,-1.02784 z"
         style="font-style:normal;font-size:medium;text-anchor:middle;fill:none;fill-opacity:1;stroke:#000000;stroke-width:0.06614583;stroke-linecap:butt;stroke-linejoin:bevel;stroke-dasharray:none;stroke-opacity:1"
         id="path4618"
         inkscape:connector-curvature="0" />
      <path
         d="m 12.090274,231.59337 q 0.830009,0.17446 1.24399,0.93955 0.414884,0.76078 0.208792,1.74131 -0.218748,1.04074 -0.886482,1.54703 -0.66683,0.50199 -1.50544,0.32573 -0.53327,-0.11209 -0.898244,-0.51212 -0.3692753,-0.40094 -0.5045955,-1.01764 l -0.025803,-0.005 q -0.3837059,0.45822 -0.7629758,0.63896 -0.378366,0.17643 -0.8686301,0.0734 -0.7224946,-0.15185 -1.0794173,-0.84657 -0.3569227,-0.69472 -0.1643888,-1.61074 0.2015732,-0.95902 0.7819542,-1.43428 0.580381,-0.47525 1.2899739,-0.32611 0.4343568,0.0913 0.7988654,0.45082 0.3602082,0.35861 0.4864612,0.933 l 0.0258,0.005 q 0.384582,-0.54784 0.829921,-0.78654 0.44534,-0.2387 1.030216,-0.11577 z m -3.3407371,0.36209 q -0.4601601,-0.0967 -0.8061206,0.20328 -0.3493571,0.2948 -0.4650583,0.84527 -0.1138934,0.54187 0.070923,0.94445 0.1857206,0.39828 0.6243779,0.49048 0.3096406,0.0651 0.573727,-0.059 0.2606898,-0.12932 0.511134,-0.44491 0.1108555,-0.14285 0.2979415,-0.41337 0.1879904,-0.27483 0.3293595,-0.54149 -0.1943495,-0.48542 -0.4653407,-0.71302 -0.2709912,-0.22759 -0.6709436,-0.31166 z m 3.2362411,0.541 q -0.395652,-0.0832 -0.669243,0.0434 -0.276988,0.12141 -0.624482,0.57825 -0.137096,0.18224 -0.269426,0.4059 -0.13233,0.22366 -0.362613,0.59288 0.129375,0.43134 0.440907,0.7438 0.312436,0.30816 0.768295,0.40397 0.580576,0.12203 1.04309,-0.19838 0.462514,-0.3204 0.591774,-0.93538 0.131971,-0.62789 -0.11193,-1.06983 -0.242998,-0.44624 -0.806372,-0.56466 z"
         style="font-style:normal;font-size:medium;text-anchor:middle;fill:none;fill-opacity:1;stroke:#000000;stroke-width:0.06614583;stroke-linecap:butt;stroke-linejoin:bevel;stroke-dasharray:none;stroke-opacity:1"
         id="path4620"
         inkscape:connector-curvature="0" />
      <path
         d="m 26.137294,601.87861 q 0,-0.45703 0.166992,-0.87451 0.166992,-0.41748 0.457031,-0.70312 0.316406,-0.30762 0.755859,-0.47461 0.435059,-0.1626 1.010743,-0.1626 0.536132,0 1.032714,0.11426 0.496582,0.10986 0.839356,0.26806 v 0.92725 h -0.06152 q -0.360352,-0.22852 -0.84375,-0.39111 -0.483398,-0.15821 -0.949219,-0.15821 -0.312011,0 -0.602051,0.0879 -0.294433,0.0879 -0.522949,0.30762 -0.193359,0.18897 -0.290039,0.45264 -0.101074,0.26367 -0.101074,0.61084 0,0.33838 0.118652,0.57129 0.114258,0.23291 0.320801,0.37353 0.228516,0.16699 0.558106,0.23291 0.325195,0.0703 0.729492,0.0703 0.386718,0 0.74707,-0.0527 0.355957,-0.0527 0.615234,-0.10547 v 3.37061 h -3.9375 v -0.76905 l 3.089356,0 v -1.74023 q -0.188965,0.0176 -0.386719,0.0264 -0.197754,0.009 -0.342773,0.009 -0.531739,0 -0.931641,-0.0923 -0.399902,-0.0879 -0.733887,-0.3164 -0.351562,-0.2417 -0.544922,-0.62403 -0.193359,-0.38232 -0.193359,-0.95801 z"
         style="font-style:normal;font-size:medium;text-anchor:middle;fill:none;fill-opacity:1;stroke:#000000;stroke-width:0.06614583;stroke-linecap:butt;stroke-linejoin:bevel;stroke-dasharray:none;stroke-opacity:1"
         id="path4609"
         inkscape:connector-curvature="0" />
      <path
         d="m 22.920497,603.45625 h 1.050293 v 1.25244 h -1.050293 z m 0,-3.65625 h 1.050293 v 1.25244 h -1.050293 z"
         style="font-style:normal;font-size:medium;text-anchor:middle;fill:none;fill-opacity:1;stroke:#000000;stroke-width:0.06614583;stroke-linecap:butt;stroke-linejoin:bevel;stroke-dasharray:none;stroke-opacity:1"
         id="path4611"
         inkscape:connector-curvature="0" />
      <path
         d="m 16.108973,601.64131 h 0.971192 V 599.8 h 0.84375 v 1.84131 h 3.1333 v 1.01074 l -3.168457,3.69141 h -0.808593 l 0,-3.99903 h -0.971192 z m 1.814942,0.70312 0,2.95313 2.535644,-2.95313 z"
         style="font-style:normal;font-size:medium;text-anchor:middle;fill:none;fill-opacity:1;stroke:#000000;stroke-width:0.06614583;stroke-linecap:butt;stroke-linejoin:bevel;stroke-dasharray:none;stroke-opacity:1"
         id="path4613"
         inkscape:connector-curvature="0" />
      <path
         d="m 2.6365434,281.42496 5.5634766,2.96191 v 0.94043 l -5.7744141,-3.15088 v 3.72656 H 1.656563 v -4.47802 z"
         style="font-style:normal;font-size:medium;text-anchor:middle;fill:none;fill-opacity:1;stroke:#000000;stroke-width:0.06614583;stroke-linecap:butt;stroke-linejoin:bevel;stroke-dasharray:none;stroke-opacity:1"
         id="path4602"
         inkscape:connector-curvature="0" />
      <path
         d="m 4.54377,278.27847 v 1.05029 H 3.2913286 v -1.05029 z m 3.65625,0 v 1.05029 H 6.9475786 v -1.05029 z"
         style="font-style:normal;font-size:medium;text-anchor:middle;fill:none;fill-opacity:1;stroke:#000000;stroke-width:0.06614583;stroke-linecap:butt;stroke-linejoin:bevel;stroke-dasharray:none;stroke-opacity:1"
         id="path4604"
         inkscape:connector-curvature="0" />
      <path
         d="m 5.0491411,272.19204 q 0.1889648,-0.21093 0.4746094,-0.34716 0.2856445,-0.13623 0.7382812,-0.13623 0.4482422,0 0.8217774,0.16259 0.3735351,0.1626 0.6503906,0.45704 0.3076172,0.32959 0.4570312,0.77783 0.1450196,0.44385 0.1450196,0.97558 0,0.54493 -0.131836,1.07227 -0.1274414,0.52734 -0.28125,0.86572 h -0.918457 v -0.0659 q 0.2460937,-0.37353 0.4086914,-0.8789 0.1625977,-0.50537 0.1625977,-0.97559 0,-0.27685 -0.092285,-0.58887 -0.092285,-0.31201 -0.272461,-0.50537 -0.1933593,-0.20215 -0.4262695,-0.29882 -0.2329101,-0.10108 -0.5888672,-0.10108 -0.3515625,0 -0.5800782,0.11426 -0.23291,0.10986 -0.364746,0.30762 -0.1362304,0.19775 -0.1845703,0.479 -0.052734,0.28125 -0.052734,0.60645 v 0.3955 H 4.2844931 v -0.30761 q 0,-0.66797 -0.2768555,-1.06348 -0.28125,-0.3999 -0.8173828,-0.3999 -0.2373047,0 -0.413086,0.10107 -0.1801761,0.10108 -0.294434,0.28125 -0.1142578,0.18897 -0.1582031,0.4043 -0.043945,0.21533 -0.043945,0.48779 0,0.41748 0.1494141,0.8877 0.149414,0.47021 0.421875,0.88769 v 0.0439 H 1.9334184 q -0.1538086,-0.31202 -0.28125,-0.83057 -0.1318359,-0.52295 -0.1318359,-1.01074 0,-0.47901 0.087891,-0.84375 0.087891,-0.36475 0.28125,-0.65918 0.2109375,-0.31641 0.5097657,-0.47901 0.2988281,-0.16259 0.6987304,-0.16259 0.5449219,0 0.9536133,0.38672 0.4042965,0.38232 0.5097652,0.90527 h 0.061523 q 0.035156,-0.21094 0.149414,-0.4834 0.1098633,-0.27246 0.276856,-0.46143 z"
         style="font-style:normal;font-size:medium;text-anchor:middle;fill:none;fill-opacity:1;stroke:#000000;stroke-width:0.06614583;stroke-linecap:butt;stroke-linejoin:bevel;stroke-dasharray:none;stroke-opacity:1"
         id="path4606"
         inkscape:connector-curvature="0" />
      <path
         d="m 93.139198,293.65375 q 0,0.68359 -0.195312,1.23047 -0.19043,0.54687 -0.517578,0.91797 -0.34668,0.38574 -0.761719,0.58105 -0.415039,0.19043 -0.913086,0.19043 -0.463867,0 -0.810547,-0.11231 -0.34668,-0.10742 -0.683594,-0.29296 l -0.05859,0.2539 h -0.859375 v -7.59765 h 0.917968 v 2.71484 q 0.385743,-0.31738 0.820313,-0.51758 0.43457,-0.20508 0.976562,-0.20508 0.966797,0 1.523438,0.74219 0.561523,0.74219 0.561523,2.09473 z m -0.947265,0.0244 q 0,-0.97656 -0.322266,-1.47949 -0.322266,-0.50781 -1.040039,-0.50781 -0.400391,0 -0.810547,0.17578 -0.410156,0.1709 -0.761719,0.44433 v 3.125 q 0.390625,0.17579 0.668946,0.24414 0.283203,0.0684 0.639648,0.0684 0.761719,0 1.191406,-0.49804 0.434571,-0.50293 0.434571,-1.57227 z"
         style="font-style:normal;font-size:medium;text-anchor:middle;fill:none;fill-opacity:1;stroke:#000000;stroke-width:0.06614583;stroke-linecap:butt;stroke-linejoin:bevel;stroke-dasharray:none;stroke-opacity:1"
         id="path4585"
         inkscape:connector-curvature="0" />
      <path
         d="m 98.808144,296.4223 h -0.913086 v -0.58105 q -0.122071,0.083 -0.332032,0.23437 -0.205078,0.14649 -0.40039,0.23438 -0.229492,0.1123 -0.527344,0.18554 -0.297852,0.0781 -0.698242,0.0781 -0.737305,0 -1.25,-0.48828 -0.512695,-0.48828 -0.512695,-1.24512 0,-0.62012 0.263671,-1.00098 0.268555,-0.38574 0.761719,-0.60546 0.498047,-0.21973 1.196289,-0.29786 0.698242,-0.0781 1.499024,-0.11718 v -0.1416 q 0,-0.3125 -0.112305,-0.51758 -0.107422,-0.20508 -0.3125,-0.32227 -0.195313,-0.1123 -0.46875,-0.15137 -0.273438,-0.0391 -0.571289,-0.0391 -0.361328,0 -0.805664,0.0977 -0.444336,0.0928 -0.917969,0.27344 h -0.04883 v -0.93262 q 0.268555,-0.0732 0.776367,-0.16113 0.507813,-0.0879 1.000977,-0.0879 0.576172,0 1.000976,0.0977 0.429688,0.0928 0.742188,0.32227 0.307617,0.22461 0.46875,0.58105 0.161133,0.35645 0.161133,0.88379 z m -0.913086,-1.34277 v -1.51856 q -0.419922,0.0244 -0.991211,0.0733 -0.566407,0.0488 -0.898438,0.1416 -0.395508,0.1123 -0.639648,0.35156 -0.244141,0.23438 -0.244141,0.64941 0,0.46875 0.283203,0.70801 0.283203,0.23438 0.864258,0.23438 0.483399,0 0.883789,-0.18555 0.400391,-0.19043 0.742188,-0.4541 z"
         style="font-style:normal;font-size:medium;text-anchor:middle;fill:none;fill-opacity:1;stroke:#000000;stroke-width:0.06614583;stroke-linecap:butt;stroke-linejoin:bevel;stroke-dasharray:none;stroke-opacity:1"
         id="path4587"
         inkscape:connector-curvature="0" />
      <path
         d="m 104.61869,296.08051 q -0.45898,0.21972 -0.87402,0.34179 -0.41016,0.12207 -0.87403,0.12207 -0.59082,0 -1.08398,-0.1709 -0.49316,-0.17578 -0.84473,-0.52734 -0.35644,-0.35156 -0.55176,-0.88867 -0.19531,-0.53711 -0.19531,-1.25488 0,-1.33789 0.73242,-2.09961 0.73731,-0.76172 1.94336,-0.76172 0.46875,0 0.91797,0.13183 0.4541,0.13184 0.83008,0.32227 v 1.02051 h -0.0488 q -0.41992,-0.32715 -0.86914,-0.50293 -0.44433,-0.17578 -0.86914,-0.17578 -0.78125,0 -1.23535,0.52734 -0.44922,0.52246 -0.44922,1.53809 0,0.98632 0.43945,1.51855 0.44434,0.52734 1.24512,0.52734 0.27832,0 0.56641,-0.0732 0.28808,-0.0732 0.51758,-0.19043 0.20019,-0.10254 0.37597,-0.21484 0.17578,-0.11719 0.27832,-0.2002 h 0.0488 z"
         style="font-style:normal;font-size:medium;text-anchor:middle;fill:none;fill-opacity:1;stroke:#000000;stroke-width:0.06614583;stroke-linecap:butt;stroke-linejoin:bevel;stroke-dasharray:none;stroke-opacity:1"
         id="path4589"
         inkscape:connector-curvature="0" />
      <path
         d="m 110.7515,296.4223 h -1.21093 l -2.1875,-2.38769 -0.59571,0.5664 v 1.82129 h -0.91797 v -7.59765 h 0.91797 v 4.87304 l 2.65137,-2.72949 h 1.15723 l -2.53418,2.51953 z"
         style="font-style:normal;font-size:medium;text-anchor:middle;fill:none;fill-opacity:1;stroke:#000000;stroke-width:0.06614583;stroke-linecap:butt;stroke-linejoin:bevel;stroke-dasharray:none;stroke-opacity:1"
         id="path4591"
         inkscape:connector-curvature="0" />
      <path
         d="m 115.12162,291.96918 h -0.0488 q -0.20508,-0.0488 -0.40039,-0.0684 -0.19043,-0.0244 -0.4541,-0.0244 -0.4248,0 -0.82031,0.19043 -0.39551,0.18555 -0.76172,0.4834 v 3.87207 h -0.91797 v -5.4541 h 0.91797 v 0.80566 q 0.54687,-0.43945 0.96191,-0.62011 0.41992,-0.18555 0.85449,-0.18555 0.23926,0 0.34668,0.0146 0.10743,0.01 0.32227,0.0439 z"
         style="font-style:normal;font-size:medium;text-anchor:middle;fill:none;fill-opacity:1;stroke:#000000;stroke-width:0.06614583;stroke-linecap:butt;stroke-linejoin:bevel;stroke-dasharray:none;stroke-opacity:1"
         id="path4593"
         inkscape:connector-curvature="0" />
      <path
         d="m 120.56107,293.79047 h -4.01855 q 0,0.50293 0.15137,0.8789 0.15136,0.3711 0.41503,0.61035 0.25391,0.23438 0.60059,0.35157 0.35156,0.11718 0.77149,0.11718 0.55664,0 1.11816,-0.21972 0.56641,-0.22461 0.80566,-0.43946 h 0.0488 v 1.00098 q -0.46387,0.19531 -0.94726,0.32715 -0.4834,0.13184 -1.01563,0.13184 -1.35742,0 -2.11914,-0.73243 -0.76172,-0.7373 -0.76172,-2.08984 0,-1.33789 0.72754,-2.12402 0.73242,-0.78614 1.92383,-0.78614 1.10351,0 1.69922,0.64453 0.60058,0.64454 0.60058,1.83106 z m -0.89355,-0.70313 q -0.005,-0.72265 -0.36621,-1.11816 -0.35645,-0.39551 -1.08887,-0.39551 -0.7373,0 -1.17676,0.43457 -0.43457,0.43457 -0.49316,1.0791 z"
         style="font-style:normal;font-size:medium;text-anchor:middle;fill:none;fill-opacity:1;stroke:#000000;stroke-width:0.06614583;stroke-linecap:butt;stroke-linejoin:bevel;stroke-dasharray:none;stroke-opacity:1"
         id="path4595"
         inkscape:connector-curvature="0" />
      <path
         d="m 125.84916,294.85004 q 0,0.74707 -0.62012,1.22558 -0.61523,0.47852 -1.68457,0.47852 -0.60547,0 -1.11328,-0.1416 -0.50293,-0.14649 -0.84473,-0.31739 v -1.03027 h 0.0488 q 0.43457,0.32715 0.9668,0.52246 0.53223,0.19043 1.02051,0.19043 0.60547,0 0.94726,-0.19531 0.3418,-0.19531 0.3418,-0.61524 0,-0.32226 -0.18555,-0.48828 -0.18554,-0.16601 -0.71289,-0.2832 -0.19531,-0.0439 -0.51269,-0.10254 -0.3125,-0.0586 -0.57129,-0.12695 -0.71778,-0.19043 -1.02051,-0.55664 -0.29785,-0.3711 -0.29785,-0.90821 0,-0.33691 0.13672,-0.63476 0.1416,-0.29785 0.4248,-0.53223 0.27344,-0.22949 0.69336,-0.36133 0.42481,-0.13672 0.94727,-0.13672 0.48828,0 0.98632,0.12208 0.50293,0.11718 0.83497,0.28808 v 0.98145 h -0.0488 q -0.35157,-0.25879 -0.85449,-0.43457 -0.50293,-0.18067 -0.98633,-0.18067 -0.50293,0 -0.84961,0.19531 -0.34668,0.19043 -0.34668,0.57129 0,0.33692 0.20996,0.50782 0.20508,0.17089 0.66406,0.27832 0.25391,0.0586 0.56641,0.11718 0.31738,0.0586 0.52734,0.10743 0.63965,0.14648 0.98633,0.50293 0.34668,0.36132 0.34668,0.95703 z"
         style="font-style:normal;font-size:medium;text-anchor:middle;fill:none;fill-opacity:1;stroke:#000000;stroke-width:0.06614583;stroke-linecap:butt;stroke-linejoin:bevel;stroke-dasharray:none;stroke-opacity:1"
         id="path4597"
         inkscape:connector-curvature="0" />
      <path
         d="m 129.99955,296.37347 q -0.25879,0.0684 -0.56641,0.11231 -0.30273,0.0439 -0.54199,0.0439 -0.83496,0 -1.26953,-0.44921 -0.43457,-0.44922 -0.43457,-1.44043 v -2.90039 h -0.62012 v -0.77149 h 0.62012 v -1.56738 h 0.91797 v 1.56738 h 1.89453 v 0.77149 h -1.89453 v 2.48535 q 0,0.42968 0.0195,0.67382 0.0195,0.23926 0.13672,0.44922 0.10742,0.19532 0.29297,0.28809 0.19043,0.0879 0.57617,0.0879 0.22461,0 0.46875,-0.0635 0.24414,-0.0684 0.35156,-0.1123 h 0.0488 z"
         style="font-style:normal;font-size:medium;text-anchor:middle;fill:none;fill-opacity:1;stroke:#000000;stroke-width:0.06614583;stroke-linecap:butt;stroke-linejoin:bevel;stroke-dasharray:none;stroke-opacity:1"
         id="path4599"
         inkscape:connector-curvature="0" />
    </g>
  </g>
</svg>
