<?xml version="1.0" encoding="UTF-8" standalone="no"?>
<svg
   version="1.1"
   width="320.00mm"
   height="620.00mm"
   viewBox="0 0 320.00 620.00"
   id="svg5573"
   sodipodi:docname="backrest_page10_black_11x10.svg"
   inkscape:version="1.1.1 (c3084ef, 2021-09-22)"
   xmlns:inkscape="http://www.inkscape.org/namespaces/inkscape"
   xmlns:sodipodi="http://sodipodi.sourceforge.net/DTD/sodipodi-0.dtd"
   xmlns="http://www.w3.org/2000/svg"
   xmlns:svg="http://www.w3.org/2000/svg">
  <defs
     id="defs5577" />
  <sodipodi:namedview
     id="namedview5575"
     pagecolor="#ffffff"
     bordercolor="#666666"
     borderopacity="1.0"
     inkscape:pageshadow="2"
     inkscape:pageopacity="0.0"
     inkscape:pagecheckerboard="0"
     inkscape:document-units="mm"
     showgrid="false"
     inkscape:zoom="0.2425677"
     inkscape:cx="232.92466"
     inkscape:cy="1395.4867"
     inkscape:window-width="1296"
     inkscape:window-height="975"
     inkscape:window-x="0"
     inkscape:window-y="25"
     inkscape:window-maximized="0"
     inkscape:current-layer="svg5573" />
  <style
     type="text/css"
     id="style5423">
    path {
        fill: none;
        stroke-linecap: butt;
        stroke-linejoin: bevel;
        stroke-dasharray: none;
    }
    path.outer {
        stroke: #000000;
        stroke-dasharray: none;
        stroke-dashoffset: 0;
        stroke-width: 0.3;
        stroke-opacity: 1.0;
    }
    path.convex {
        stroke: #000000;
        stroke-dasharray: 0.50,1.00;
        stroke-dashoffset:0;
        stroke-width:0.2;
        stroke-opacity: 1.0
    }
    path.concave {
        stroke: #000000;
        stroke-dasharray: 1.00,0.50,0.20,0.50;
        stroke-dashoffset: 0;
        stroke-width: 0.2;
        stroke-opacity: 1.0
    }
    path.freestyle {
        stroke: #000000;
        stroke-dasharray: none;
        stroke-dashoffset: 0;
        stroke-width: 0.2;
        stroke-opacity: 1.0
    }
    path.outer_background {
        stroke: #ffffff;
        stroke-opacity: 1.0;
        stroke-width: 0.5
    }
    path.inner_background {
        stroke: #ffffff;
        stroke-opacity: 1.0;
        stroke-width: 0.2
    }
    path.sticker {
        fill: #e5e5e5;
        stroke: none;
        fill-opacity: 1.0;
    }
    path.arrow {
        fill: #000000;
    }
    text {
        font-style: normal;
        fill: #000000;
        fill-opacity: 1.0;
        stroke: none;
    }
    text, tspan {
        text-anchor:middle;
    }
    </style>
  <g
     id="g6241"
     transform="translate(-194.4355,-345.77117)">
    <text
       style="font-size:10px"
       id="text5427"
       x="292.19839"
       y="465.61813"><tspan
         id="tspan5425">[16] I 16</tspan></text>
    <path
       class="sticker"
       d="m 322.17399,505.7658 9.62705,-2.7101 26.56275,88.9756 -9.53716,3.01116 z m -74.30255,-87.28132 -8.59009,-5.12198 19.67186,-34.2018 8.74674,4.84964 z m 79.51638,19.20259 9.95881,0.92023 -5.18981,67.76549 -9.98283,-0.60699 z m 21.43881,157.35539 0.0253,10.0012 -84.89999,1.54861 -0.33943,-9.99548 z m -95.96472,-97.44856 -9.89747,1.43697 -6.20541,-38.48026 9.84745,-1.74714 z m -6.25543,-38.79043 -9.99015,-0.4706 1.25511,-40.00497 10,0.15658 z m 17.00603,137.79332 -9.95852,0.92337 -10.71668,-98.69054 9.9246,-1.23572 z m 4.08744,-212.58645 6.80355,-7.3305 59.45424,53.46662 -6.56992,7.54061 z"
       id="path5429" />
    <path
       class="outer"
       d="m 242.96444,499.03087 -6.20541,-38.48026 9.84745,-1.74714 -9.99015,-0.4706 1.25511,-40.00497 10,0.15658 -8.59009,-5.12198 19.67186,-34.2018 8.74674,4.84964 6.80355,-7.3305 59.45424,53.46662 -6.56992,7.54061 9.95881,0.92023 -5.18981,67.76549 -9.98283,-0.60699 9.62705,-2.7101 26.56275,88.9756 -9.53716,3.01116 0.0253,10.0012 -84.89999,1.54861 -0.33943,-9.99548 -9.95852,0.92337 -10.71668,-98.69054 9.9246,-1.23572 z"
       id="path5431" />
    <text
       transform="rotate(73.377549)"
       style="font-size:9px"
       id="text5435"
       x="623.37744"
       y="-165.82899"><tspan
         id="tspan5433">4:2</tspan></text>
    <text
       transform="rotate(-60.093754)"
       style="font-size:9px"
       id="text5439"
       x="-219.29111"
       y="421.71442"><tspan
         id="tspan5437">1:4</tspan></text>
    <text
       transform="rotate(94.379427)"
       style="font-size:9px"
       id="text5443"
       x="445.54852"
       y="-361.65421"><tspan
         id="tspan5441">4:3</tspan></text>
    <g
       id="g5451"
       transform="translate(68.79167)">
      <path
         transform="matrix(-9.998337,0.182373,-0.182373,-9.998337,237.42789,595.81963)"
         class="arrow"
         d="M 0,0 1,1 0,0.25 -1,1 Z"
         id="path5445" />
      <text
         transform="translate(237.26377,590.82113)"
         style="font-size:10px"
         id="text5449"><tspan
           id="tspan5447">1</tspan></text>
    </g>
    <text
       transform="rotate(178.95504)"
       style="font-size:9px"
       id="text5455"
       x="-295.30267"
       y="-603.10498"><tspan
         id="tspan5453">10:1</tspan></text>
    <text
       transform="rotate(-99.16075)"
       style="font-size:9px"
       id="text5459"
       x="-511.85831"
       y="168.61746"><tspan
         id="tspan5457">8:4</tspan></text>
    <text
       transform="rotate(-88.203024)"
       style="font-size:9px"
       id="text5463"
       x="-430.67542"
       y="259.07236"><tspan
         id="tspan5461">1:6.</tspan></text>
    <text
       transform="rotate(-96.197385)"
       style="font-size:9px"
       id="text5467"
       x="-571.77576"
       y="195.86693"><tspan
         id="tspan5465">8:5</tspan></text>
    <text
       transform="rotate(41.964752)"
       style="font-size:9px"
       id="text5471"
       x="495.96436"
       y="104.72927"><tspan
         id="tspan5469">6.:3</tspan></text>
  </g>
  <g
     id="g6191"
     transform="translate(127.61901,-103.62227)">
    <text
       style="font-size:10px"
       id="text5523"
       x="121.63576"
       y="312.24454"><tspan
         id="tspan5521">[15] I 15</tspan></text>
    <path
       class="sticker"
       d="m 71.58181,352.67985 -9.59049,-2.83674 24.93561,-89.44526 9.67487,2.53409 z m 77.26459,-212.47667 8.65686,-5.00834 20.29231,33.83744 -8.49527,5.27781 z m -52.2446,122.72876 -9.97007,0.78893 -6.42476,-67.65962 9.94036,-1.10167 z m 60.20835,89.74791 -0.15709,9.99999 H 71.73891 l -0.1571,-9.99999 z m 14.49015,-138.08054 9.87766,1.56725 -5.50259,38.58697 -9.92202,-1.25623 z m -2,-40.28922 9.99549,-0.33891 1.98442,39.9754 -9.97991,0.65273 z m -3.54695,79.18721 9.94548,1.0545 -8.91498,98.86962 -9.9737,-0.74157 z m -75.60602,-58.53772 -6.70634,-7.41955 58.46931,-54.5421 6.9361,7.20525 z"
       id="path5525" />
    <path
       class="outer"
       d="m 61.99132,349.84311 24.93561,-89.44526 9.67487,2.53409 -9.97007,0.78893 -6.42476,-67.65962 9.94036,-1.10167 -6.70634,-7.41955 58.46931,-54.5421 6.9361,7.20525 8.65686,-5.00834 20.29231,33.83744 -8.49527,5.27781 9.99549,-0.33891 1.98442,39.9754 -9.97991,0.65273 9.87766,1.56725 -5.50259,38.58697 -9.92202,-1.25623 9.94548,1.0545 -8.91498,98.86962 -9.9737,-0.74157 -0.15709,9.99999 H 71.73891 l -0.1571,-9.99999 z"
       id="path5527" />
    <text
       transform="rotate(-74.42253)"
       style="font-size:9px"
       id="text5531"
       x="-273.9176"
       y="161.86148"><tspan
         id="tspan5529">4:5</tspan></text>
    <text
       transform="rotate(59.048929)"
       style="font-size:9px"
       id="text5535"
       x="216.67671"
       y="-57.344303"><tspan
         id="tspan5533">1:10</tspan></text>
    <text
       transform="rotate(-95.424383)"
       style="font-size:9px"
       id="text5539"
       x="-236.74733"
       y="69.513741"><tspan
         id="tspan5537">4:6.</tspan></text>
    <g
       id="g5547"
       transform="translate(-105.83334)">
      <path
         transform="matrix(-10,0,0,-10,220.02932,352.67985)"
         class="arrow"
         d="M 0,0 1,1 0,0.25 -1,1 Z"
         id="path5541" />
      <text
         transform="translate(220.02932,347.67985)"
         style="font-size:10px"
         id="text5545"><tspan
           id="tspan5543">1</tspan></text>
    </g>
    <text
       transform="scale(-1)"
       style="font-size:9px"
       id="text5551"
       x="-114.19598"
       y="-354.47983"><tspan
         id="tspan5549">9.:1</tspan></text>
    <text
       transform="rotate(98.115785)"
       style="font-size:9px"
       id="text5555"
       x="207.91266"
       y="-201.68047"><tspan
         id="tspan5553">7:4</tspan></text>
    <text
       transform="rotate(87.15811)"
       style="font-size:9px"
       id="text5559"
       x="202.65903"
       y="-162.24983"><tspan
         id="tspan5557">1:12</tspan></text>
    <text
       transform="rotate(95.152391)"
       style="font-size:9px"
       id="text5563"
       x="287.37997"
       y="-189.64905"><tspan
         id="tspan5561">7:5</tspan></text>
    <text
       transform="rotate(-43.009744)"
       style="font-size:9px"
       id="text5567"
       x="-26.930313"
       y="202.25325"><tspan
         id="tspan5565">6.:6.</tspan></text>
  </g>
</svg>
