<?xml version="1.0" encoding="UTF-8" standalone="no"?>
<svg
   xmlns:dc="http://purl.org/dc/elements/1.1/"
   xmlns:cc="http://creativecommons.org/ns#"
   xmlns:rdf="http://www.w3.org/1999/02/22-rdf-syntax-ns#"
   xmlns:svg="http://www.w3.org/2000/svg"
   xmlns="http://www.w3.org/2000/svg"
   xmlns:sodipodi="http://sodipodi.sourceforge.net/DTD/sodipodi-0.dtd"
   xmlns:inkscape="http://www.inkscape.org/namespaces/inkscape"
   version="1.1"
   width="320.00mm"
   height="620.00mm"
   viewBox="0 0 320.00 620.00"
   id="svg4782"
   sodipodi:docname="backrest_page8.svg"
   inkscape:version="0.92.2 (5c3e80d, 2017-08-06)">
  <metadata
     id="metadata52">
    <rdf:RDF>
      <cc:Work
         rdf:about="">
        <dc:format>image/svg+xml</dc:format>
        <dc:type
           rdf:resource="http://purl.org/dc/dcmitype/StillImage" />
      </cc:Work>
    </rdf:RDF>
  </metadata>
  <defs
     id="defs4786" />
  <sodipodi:namedview
     id="namedview4784"
     pagecolor="#ffffff"
     bordercolor="#666666"
     borderopacity="1.0"
     inkscape:pageshadow="2"
     inkscape:pageopacity="0.0"
     inkscape:pagecheckerboard="0"
     inkscape:document-units="mm"
     showgrid="false"
     inkscape:zoom="0.23989595"
     inkscape:cx="-1237.2975"
     inkscape:cy="2343.6947"
     inkscape:window-width="1920"
     inkscape:window-height="1017"
     inkscape:window-x="-8"
     inkscape:window-y="-8"
     inkscape:window-maximized="1"
     inkscape:current-layer="g1358"
     inkscape:snap-global="false" />
  <style
     type="text/css"
     id="style4734">
    path {
        fill: none;
        stroke-linecap: butt;
        stroke-linejoin: bevel;
        stroke-dasharray: none;
    }
    path.outer {
        stroke: #000000;
        stroke-dasharray: none;
        stroke-dashoffset: 0;
        stroke-width: 0.3;
        stroke-opacity: 1.0;
    }
    path.convex {
        stroke: #000000;
        stroke-dasharray: 0.50,1.00;
        stroke-dashoffset:0;
        stroke-width:0.2;
        stroke-opacity: 1.0
    }
    path.concave {
        stroke: #000000;
        stroke-dasharray: 1.00,0.50,0.20,0.50;
        stroke-dashoffset: 0;
        stroke-width: 0.2;
        stroke-opacity: 1.0
    }
    path.freestyle {
        stroke: #000000;
        stroke-dasharray: none;
        stroke-dashoffset: 0;
        stroke-width: 0.2;
        stroke-opacity: 1.0
    }
    path.outer_background {
        stroke: #ffffff;
        stroke-opacity: 1.0;
        stroke-width: 0.5
    }
    path.inner_background {
        stroke: #ffffff;
        stroke-opacity: 1.0;
        stroke-width: 0.2
    }
    path.sticker {
        fill: #e5e5e5;
        stroke: none;
        fill-opacity: 1.0;
    }
    path.arrow {
        fill: #000000;
    }
    text {
        font-style: normal;
        fill: #000000;
        fill-opacity: 1.0;
        stroke: none;
    }
    text, tspan {
        text-anchor:middle;
    }
    </style>
  <g
     id="g1358">
    <path
       inkscape:connector-curvature="0"
       id="path1005"
       style="font-style:normal;font-size:medium;text-anchor:middle;fill:none;fill-opacity:1;stroke:#000000;stroke-width:0.25;stroke-linecap:butt;stroke-linejoin:bevel;stroke-dasharray:none;stroke-opacity:1"
       d="m 204.93795,297.78208 -2.44363,0.68956 -2.58321,-9.15422 2.44363,-0.68956 0.18963,0.67199 -1.62595,0.45883 2.20395,7.81023 1.62595,-0.45883 z" />
    <path
       inkscape:connector-curvature="0"
       id="path1007"
       style="font-style:normal;font-size:medium;text-anchor:middle;fill:none;fill-opacity:1;stroke:#000000;stroke-width:0.25;stroke-linecap:butt;stroke-linejoin:bevel;stroke-dasharray:none;stroke-opacity:1"
       d="m 209.60923,290.24379 q 0.25858,0.91637 0.25796,1.72323 0.004,0.80554 -0.27033,1.4512 -0.27647,0.65639 -0.83805,1.12943 -0.56159,0.47302 -1.43096,0.71835 -0.24436,0.069 -0.46849,0.10176 -0.22279,0.0375 -0.40788,0.0289 l -0.25328,-0.89757 0.047,-0.0133 q 0.15616,0.032 0.4238,0.0275 0.26631,-0.009 0.57176,-0.0954 1.03855,-0.29307 1.45092,-1.07914 0.41574,-0.79209 0.20075,-1.91354 -0.36278,0.38648 -0.71629,0.608 -0.35352,0.22153 -0.80935,0.35016 -0.43234,0.122 -0.80866,0.13686 -0.37162,0.0135 -0.79302,-0.13137 -0.49442,-0.16996 -0.83055,-0.55203 -0.33141,-0.38338 -0.50513,-0.99899 -0.30235,-1.07143 0.21292,-1.94234 0.51526,-0.87091 1.53031,-1.15735 0.50752,-0.14321 0.98494,-0.10544 0.4761,0.0331 0.88919,0.25643 0.50951,0.27733 0.89939,0.83193 0.38856,0.54991 0.66306,1.52266 z m -1.00628,0.0658 q -0.20554,-0.72838 -0.48057,-1.12769 -0.27503,-0.39929 -0.60715,-0.5694 -0.28054,-0.14914 -0.5595,-0.16682 -0.28029,-0.0224 -0.57635,0.0611 -0.67669,0.19095 -0.95209,0.72529 -0.27069,0.53299 -0.0545,1.29898 0.12598,0.44644 0.33242,0.69259 0.20645,0.24615 0.56688,0.37275 0.25257,0.086 0.52093,0.0661 0.26701,-0.0247 0.57716,-0.11217 0.36654,-0.10343 0.71464,-0.3082 0.3481,-0.20478 0.62401,-0.48557 -0.023,-0.10005 -0.0447,-0.19539 -0.0182,-0.10141 -0.0607,-0.25178 z" />
    <path
       inkscape:connector-curvature="0"
       id="path1009"
       style="font-style:normal;font-size:medium;text-anchor:middle;fill:none;fill-opacity:1;stroke:#000000;stroke-width:0.25;stroke-linecap:butt;stroke-linejoin:bevel;stroke-dasharray:none;stroke-opacity:1"
       d="m 213.67104,293.3289 -1.12313,0.31693 -0.37793,-1.33929 1.12313,-0.31694 z" />
    <path
       inkscape:connector-curvature="0"
       id="path1011"
       style="font-style:normal;font-size:medium;text-anchor:middle;fill:none;fill-opacity:1;stroke:#000000;stroke-width:0.25;stroke-linecap:butt;stroke-linejoin:bevel;stroke-dasharray:none;stroke-opacity:1"
       d="m 218.6223,293.92052 -2.44363,0.68957 -0.18963,-0.672 1.62595,-0.45883 -2.20396,-7.81023 -1.62595,0.45883 -0.18963,-0.672 2.44363,-0.68956 z" />
    <path
       inkscape:connector-curvature="0"
       id="path1013"
       style="font-style:normal;font-size:medium;text-anchor:middle;fill:none;fill-opacity:1;stroke:#000000;stroke-width:0.25;stroke-linecap:butt;stroke-linejoin:bevel;stroke-dasharray:none;stroke-opacity:1"
       d="m 226.02548,289.84262 -2.76318,0.77974 -0.20157,-0.71429 0.91637,-0.25859 -1.57141,-5.56866 -0.91637,0.25859 -0.20156,-0.7143 2.76318,-0.77974 0.20156,0.7143 -0.91636,0.25859 1.57141,5.56866 0.91636,-0.25859 z" />
    <path
       inkscape:connector-curvature="0"
       id="path1015"
       style="font-style:normal;font-size:medium;text-anchor:middle;fill:none;fill-opacity:1;stroke:#000000;stroke-width:0.25;stroke-linecap:butt;stroke-linejoin:bevel;stroke-dasharray:none;stroke-opacity:1"
       d="m 234.44029,283.23676 q 0.25859,0.91637 0.25797,1.72323 0.004,0.80554 -0.27033,1.4512 -0.27647,0.65639 -0.83805,1.12943 -0.56159,0.47303 -1.43096,0.71835 -0.24437,0.069 -0.46849,0.10176 -0.22279,0.0375 -0.40789,0.0289 l -0.25328,-0.89757 0.047,-0.0133 q 0.15616,0.032 0.4238,0.0275 0.2663,-0.009 0.57176,-0.0954 1.03855,-0.29307 1.45091,-1.07914 0.41574,-0.79209 0.20075,-1.91354 -0.36277,0.38648 -0.71628,0.608 -0.35352,0.22153 -0.80936,0.35016 -0.43233,0.122 -0.80865,0.13686 -0.37161,0.0135 -0.79302,-0.13137 -0.49443,-0.16996 -0.83055,-0.55202 -0.33142,-0.38339 -0.50513,-0.999 -0.30235,-1.07143 0.21291,-1.94234 0.51526,-0.87091 1.53031,-1.15735 0.50752,-0.14321 0.98495,-0.10544 0.47609,0.0331 0.88919,0.25643 0.5095,0.27733 0.89939,0.83193 0.38856,0.54991 0.66306,1.52266 z m -1.00628,0.0658 q -0.20554,-0.72838 -0.48057,-1.12769 -0.27503,-0.39929 -0.60714,-0.5694 -0.28055,-0.14914 -0.5595,-0.16682 -0.2803,-0.0224 -0.57635,0.0611 -0.6767,0.19095 -0.95209,0.72529 -0.27069,0.53299 -0.0545,1.29898 0.12598,0.44644 0.33242,0.69259 0.20645,0.24615 0.56687,0.37275 0.25259,0.086 0.52093,0.0661 0.26702,-0.0246 0.57717,-0.11217 0.36654,-0.10343 0.71464,-0.3082 0.34809,-0.20478 0.624,-0.48557 -0.023,-0.10005 -0.0447,-0.19539 -0.0182,-0.1014 -0.0607,-0.25178 z" />
    <path
       class="sticker"
       d="m 174.96853,309.23398 -9.8754,-1.58146 13.47558,-93.53356 9.92021,1.27052 z m 10.16752,98.21157 -10.00098,-0.0712 -0.39305,-45.78708 9.99829,-0.24293 z m -11.28417,99.04993 -9.83168,-1.83378 8.77806,-51.54213 9.88443,1.52406 z m 99.44985,-299.51169 9.97583,-0.71221 9.55504,109.57208 -9.94855,1.02526 z m -45.74759,398.85835 -1.37982,9.90559 -44.68,-5.50985 1.068,-9.94404 z m -44.99182,-5.5483 -10.08505,-0.45256 -8.56802,-92.26472 9.94263,-1.08108 z m 5.9266,-384.90436 1.78796,-10.22619 81.88226,-8.11525 1.14259,9.93575 z m 98.95864,196.87316 9.86698,1.63309 -7.00895,46.91035 -9.91344,-1.32235 z m -4.56351,-95.39372 9.99791,-0.25822 2.01541,48.50399 -9.98486,0.57211 z m -100.20136,137.77471 -9.97837,-0.67599 2.43706,-46.88431 9.99467,0.36222 z m 97.70946,4.8401 9.70603,2.41191 -11.14321,48.05566 -9.77701,-2.10584 z m -95.65184,-98.13943 -9.85764,1.68869 -9.71386,-51.80148 9.79972,-1.99753 z m 100.1722,4.3425 9.99379,-0.38661 2.51794,46.26211 -9.97668,0.70034 z m -35.28593,231.81258 3.38864,9.40967 -21.77854,8.23167 -3.68254,-9.29858 z m 19.55138,-89.65392 9.7369,2.28417 -19.48444,89.34695 -9.80384,-1.9772 z"
       id="path4740"
       style="fill:#e5e5e5;fill-opacity:1;stroke:#000000;stroke-width:0.25;stroke-linecap:butt;stroke-linejoin:bevel;stroke-dasharray:none;stroke-opacity:1"
       inkscape:connector-curvature="0" />
    <path
       class="outer"
       d="m 294.9063,365.30019 2.51794,46.26211 -9.97668,0.70034 9.86698,1.63309 -7.00895,46.91035 -9.91344,-1.32235 9.70603,2.41191 -11.14321,48.05566 -9.77701,-2.10584 9.7369,2.28417 -19.48444,89.34695 -9.80384,-1.9772 3.38864,9.40967 -21.77854,8.23167 -3.68254,-9.29858 -1.37982,9.90559 -44.68,-5.50985 1.068,-9.94404 -10.08505,-0.45256 -8.56802,-92.26472 9.94263,-1.08108 -9.83168,-1.83378 8.77806,-51.54213 9.88443,1.52406 -9.97837,-0.67599 2.43706,-46.88431 9.99467,0.36222 -10.00098,-0.0712 -0.39305,-45.78708 9.99829,-0.24293 -9.85764,1.68869 -9.71386,-51.80148 9.79972,-1.99753 -9.8754,-1.58146 13.47558,-93.53356 9.92021,1.27052 1.78796,-10.22619 81.88226,-8.11525 1.14259,9.93575 9.97583,-0.71221 9.55504,109.57208 -9.94855,1.02526 9.99791,-0.25822 2.01541,48.50399 -9.98486,0.57211 z"
       id="path4742"
       style="fill:none;stroke:#000000;stroke-width:0.25;stroke-linecap:butt;stroke-linejoin:bevel;stroke-dasharray:none;stroke-dashoffset:0;stroke-opacity:1"
       inkscape:connector-curvature="0" />
    <path
       inkscape:connector-curvature="0"
       id="path1018"
       style="font-style:normal;font-size:medium;text-anchor:middle;fill:none;fill-opacity:1;stroke:#000000;stroke-width:0.25;stroke-linecap:butt;stroke-linejoin:bevel;stroke-dasharray:none;stroke-opacity:1"
       d="m 177.11987,265.27235 -0.1385,0.96126 1.8225,0.26257 -0.12032,0.83513 -1.82249,-0.26257 -0.44681,3.10129 -1.00042,-0.14414 -3.20186,-3.66247 0.11531,-0.80034 3.95815,0.57026 0.13849,-0.96126 z m -0.95476,1.69612 -2.92294,-0.42111 2.56136,2.93085 z" />
    <path
       inkscape:connector-curvature="0"
       id="path1020"
       style="font-style:normal;font-size:medium;text-anchor:middle;fill:none;fill-opacity:1;stroke:#000000;stroke-width:0.25;stroke-linecap:butt;stroke-linejoin:bevel;stroke-dasharray:none;stroke-opacity:1"
       d="m 175.75336,262.02969 -0.14977,1.03957 -1.23965,-0.1786 0.14977,-1.03957 z m 3.61889,0.52139 -0.14977,1.03956 -1.23966,-0.1786 0.14978,-1.03956 z" />
    <path
       inkscape:connector-curvature="0"
       id="path1022"
       style="font-style:normal;font-size:medium;text-anchor:middle;fill:none;fill-opacity:1;stroke:#000000;stroke-width:0.25;stroke-linecap:butt;stroke-linejoin:bevel;stroke-dasharray:none;stroke-opacity:1"
       d="m 179.17052,254.53302 -0.13849,0.96126 1.82249,0.26257 -0.12032,0.83513 -1.82249,-0.26257 -0.44681,3.10128 -1.00042,-0.14414 -3.20186,-3.66246 0.11531,-0.80034 3.95815,0.57026 0.13849,-0.96126 z m -0.95476,1.69612 -2.92294,-0.42111 2.56136,2.93085 z" />
    <path
       inkscape:connector-curvature="0"
       id="path1025"
       style="font-style:normal;font-size:medium;text-anchor:middle;fill:none;fill-opacity:1;stroke:#000000;stroke-width:0.25;stroke-linecap:butt;stroke-linejoin:bevel;stroke-dasharray:none;stroke-opacity:1"
       d="m 285.20061,258.67304 -5.79975,-2.46741 -0.0817,-0.93687 6.0263,2.63732 -0.32374,-3.71247 0.76614,-0.0668 0.38902,4.4611 z" />
    <path
       inkscape:connector-curvature="0"
       id="path1027"
       style="font-style:normal;font-size:medium;text-anchor:middle;fill:none;fill-opacity:1;stroke:#000000;stroke-width:0.25;stroke-linecap:butt;stroke-linejoin:bevel;stroke-dasharray:none;stroke-opacity:1"
       d="m 283.57395,261.97331 -0.0912,-1.04632 1.2477,-0.1088 0.0912,1.04632 z m -3.64243,0.31763 -0.0912,-1.04632 1.2477,-0.1088 0.0913,1.04632 z" />
    <path
       inkscape:connector-curvature="0"
       id="path1029"
       style="font-style:normal;font-size:medium;text-anchor:middle;fill:none;fill-opacity:1;stroke:#000000;stroke-width:0.25;stroke-linecap:butt;stroke-linejoin:bevel;stroke-dasharray:none;stroke-opacity:1"
       d="m 280.51028,268.92786 -0.38482,-4.41294 0.91498,-0.0798 q 0.4341,0.42533 0.8682,0.85064 0.43448,0.4297 0.85885,0.79412 0.88759,0.76956 1.3919,1.03877 0.50867,0.26884 1.06466,0.22035 0.50785,-0.0443 0.76301,-0.4062 0.25993,-0.35791 0.20763,-0.95768 -0.0347,-0.3984 -0.2153,-0.85024 -0.18056,-0.45185 -0.50807,-0.86881 l -0.004,-0.0438 0.91936,-0.0802 q 0.18034,0.29747 0.35234,0.803 0.17239,0.5099 0.21477,0.99585 0.0874,1.00254 -0.34889,1.61405 -0.43195,0.61111 -1.25937,0.68327 -0.37212,0.0324 -0.70449,-0.0356 -0.3276,-0.0641 -0.63258,-0.22273 -0.28632,-0.14708 -0.56923,-0.3562 -0.28253,-0.20474 -0.63075,-0.50521 -0.50052,-0.42836 -0.97746,-0.88964 -0.47256,-0.46167 -0.8781,-0.86302 l 0.30579,3.50671 z" />
    <path
       inkscape:connector-curvature="0"
       id="path1032"
       style="font-style:normal;font-size:medium;text-anchor:middle;fill:none;fill-opacity:1;stroke:#000000;stroke-width:0.25;stroke-linecap:butt;stroke-linejoin:bevel;stroke-dasharray:none;stroke-opacity:1"
       d="m 210.67358,605.57402 3.51537,0.43351 -0.0817,0.66294 -1.35207,-0.16674 -0.53677,4.35278 1.35207,0.16674 -0.0731,0.59315 q -0.27478,-0.0339 -0.59418,-0.029 -0.31994,0.009 -0.49208,0.0766 -0.21407,0.0843 -0.34791,0.23605 -0.13873,0.15558 -0.19114,0.43692 l -0.67603,-0.0834 0.72179,-5.85312 -1.32589,-0.16351 z" />
    <path
       inkscape:connector-curvature="0"
       id="path1034"
       style="font-style:normal;font-size:medium;text-anchor:middle;fill:none;fill-opacity:1;stroke:#000000;stroke-width:0.25;stroke-linecap:butt;stroke-linejoin:bevel;stroke-dasharray:none;stroke-opacity:1"
       d="m 204.9862,604.87267 3.51536,0.4335 -0.0817,0.66294 -1.35207,-0.16673 -0.53677,4.35278 1.35207,0.16673 -0.0731,0.59316 q -0.27478,-0.0339 -0.59417,-0.029 -0.31994,0.009 -0.49208,0.0766 -0.21408,0.0843 -0.34791,0.23604 -0.13874,0.15558 -0.19114,0.43692 l -0.67604,-0.0834 0.72179,-5.85312 -1.32588,-0.1635 z" />
    <path
       inkscape:connector-curvature="0"
       id="path1036"
       style="font-style:normal;font-size:medium;text-anchor:middle;fill:none;fill-opacity:1;stroke:#000000;stroke-width:0.25;stroke-linecap:butt;stroke-linejoin:bevel;stroke-dasharray:none;stroke-opacity:1"
       d="m 201.02771,608.06846 1.04239,0.12855 -0.15328,1.24302 -1.0424,-0.12854 z m 0.44749,-3.62876 1.04239,0.12854 -0.15328,1.24303 -1.0424,-0.12855 z" />
    <path
       inkscape:connector-curvature="0"
       id="path1038"
       style="font-style:normal;font-size:medium;text-anchor:middle;fill:none;fill-opacity:1;stroke:#000000;stroke-width:0.25;stroke-linecap:butt;stroke-linejoin:bevel;stroke-dasharray:none;stroke-opacity:1"
       d="m 194.16481,609.14381 3.62056,-5.15913 0.93336,0.1151 -3.83392,5.34536 3.69855,0.45609 -0.0941,0.76326 -4.44436,-0.54807 z" />
    <path
       inkscape:connector-curvature="0"
       style="fill:#000000;stroke:#000000;stroke-width:0.25000003;stroke-linecap:butt;stroke-linejoin:bevel;stroke-dasharray:none;stroke-opacity:1"
       id="path4756"
       d="m 178.2071,553.39465 9.0325,-10.88182 -6.54321,10.65066 8.39253,9.26366 z"
       class="arrow" />
    <path
       d="m 190.28496,555.83923 -3.78763,1.06883 -0.20157,-0.71429 1.45678,-0.41109 -1.32343,-4.6899 -1.45678,0.41109 -0.18035,-0.6391 q 0.29606,-0.0836 0.62115,-0.22602 0.32376,-0.14717 0.47111,-0.29022 0.18302,-0.17848 0.25481,-0.39153 0.0752,-0.21908 0.008,-0.52984 l 0.72839,-0.20554 1.77961,6.30645 1.42858,-0.40313 z"
       style="font-style:normal;font-size:medium;text-anchor:middle;fill:none;fill-opacity:1;stroke:#000000;stroke-width:0.25;stroke-linecap:butt;stroke-linejoin:bevel;stroke-dasharray:none;stroke-opacity:1"
       id="path1041"
       inkscape:connector-curvature="0" />
    <path
       inkscape:connector-curvature="0"
       id="path1044"
       style="font-style:normal;font-size:medium;text-anchor:middle;fill:none;fill-opacity:1;stroke:#000000;stroke-width:0.25;stroke-linecap:butt;stroke-linejoin:bevel;stroke-dasharray:none;stroke-opacity:1"
       d="m 171.82268,530.7103 0.0898,0.96703 1.83342,-0.17026 0.078,0.84014 -1.83342,0.17026 0.28972,3.11987 -1.00641,0.0935 -3.96857,-2.81355 -0.0748,-0.80513 3.98189,-0.36977 -0.0898,-0.96703 z m -0.53229,1.87218 -2.94048,0.27307 3.17494,2.25171 z" />
    <path
       inkscape:connector-curvature="0"
       id="path1046"
       style="font-style:normal;font-size:medium;text-anchor:middle;fill:none;fill-opacity:1;stroke:#000000;stroke-width:0.25;stroke-linecap:butt;stroke-linejoin:bevel;stroke-dasharray:none;stroke-opacity:1"
       d="m 169.73676,527.87639 0.0971,1.04579 -1.24708,0.11581 -0.0971,-1.04579 z m 3.64059,-0.33808 0.0971,1.04579 -1.24707,0.11581 -0.0971,-1.04579 z" />
    <path
       inkscape:connector-curvature="0"
       id="path1048"
       style="font-style:normal;font-size:medium;text-anchor:middle;fill:none;fill-opacity:1;stroke:#000000;stroke-width:0.25;stroke-linecap:butt;stroke-linejoin:bevel;stroke-dasharray:none;stroke-opacity:1"
       d="m 172.79587,521.27668 0.32751,3.52682 -0.6651,0.0618 -0.12597,-1.35647 -4.36695,0.40553 0.12596,1.35647 -0.5951,0.0553 q -0.0256,-0.27567 -0.0986,-0.58665 -0.0773,-0.31059 -0.17994,-0.46437 -0.12809,-0.19112 -0.30493,-0.28944 -0.18162,-0.1023 -0.46767,-0.0934 l -0.063,-0.67824 5.87219,-0.54531 -0.12353,-1.33021 z" />
    <path
       inkscape:connector-curvature="0"
       id="path1051"
       style="font-style:normal;font-size:medium;text-anchor:middle;fill:none;fill-opacity:1;stroke:#000000;stroke-width:0.25;stroke-linecap:butt;stroke-linejoin:bevel;stroke-dasharray:none;stroke-opacity:1"
       d="m 224.8667,209.97519 -3.52472,0.34933 -0.0659,-0.66471 1.35566,-0.13436 -0.43255,-4.36436 -1.35565,0.13436 -0.059,-0.59474 q 0.27551,-0.0273 0.58604,-0.1022 0.3101,-0.0793 0.46324,-0.18281 0.19032,-0.12927 0.28755,-0.30671 0.10117,-0.18226 0.0905,-0.46824 l 0.67783,-0.0672 0.58164,5.86871 1.32943,-0.13176 z" />
    <path
       inkscape:connector-curvature="0"
       id="path1053"
       style="font-style:normal;font-size:medium;text-anchor:middle;fill:none;fill-opacity:1;stroke:#000000;stroke-width:0.25;stroke-linecap:butt;stroke-linejoin:bevel;stroke-dasharray:none;stroke-opacity:1"
       d="m 230.68347,207.3099 q 0.0451,0.45481 -0.0799,0.88672 -0.125,0.43191 -0.38546,0.74477 -0.28452,0.33732 -0.70536,0.54684 -0.4169,0.20472 -0.98978,0.26149 -0.53352,0.0529 -1.03895,-0.0119 -0.505,-0.0603 -0.8617,-0.18397 l -0.0914,-0.92273 0.0612,-0.006 q 0.38113,0.19186 0.87821,0.30598 0.49665,0.10977 0.9602,0.0638 0.31049,-0.0308 0.59044,-0.14685 0.28433,-0.11651 0.49006,-0.3577 0.17378,-0.20712 0.24399,-0.47904 0.0746,-0.27235 0.0403,-0.61783 -0.0334,-0.33673 -0.17441,-0.5568 -0.13668,-0.22051 -0.35608,-0.34007 -0.24388,-0.14364 -0.57836,-0.17673 -0.33054,-0.0379 -0.73287,0.002 -0.38483,0.0381 -0.73823,0.12612 -0.34902,0.0875 -0.60183,0.16563 l -0.33242,-3.35417 3.9183,-0.38834 0.0759,0.7653 -3.0743,0.30469 0.17163,1.73174 q 0.18631,-0.0361 0.38223,-0.0644 0.1959,-0.0285 0.34021,-0.0428 0.52915,-0.0524 0.9362,-3e-5 0.40663,0.048 0.76152,0.24248 0.37368,0.20584 0.60381,0.56724 0.23012,0.36138 0.2869,0.93427 z" />
    <path
       inkscape:connector-curvature="0"
       id="path1055"
       style="font-style:normal;font-size:medium;text-anchor:middle;fill:none;fill-opacity:1;stroke:#000000;stroke-width:0.25;stroke-linecap:butt;stroke-linejoin:bevel;stroke-dasharray:none;stroke-opacity:1"
       d="m 233.72899,205.4227 -1.04517,0.10358 -0.12352,-1.24633 1.04516,-0.10359 z m 0.3606,3.63842 -1.04517,0.10359 -0.12352,-1.24634 1.04517,-0.10358 z" />
    <path
       inkscape:connector-curvature="0"
       id="path1057"
       style="font-style:normal;font-size:medium;text-anchor:middle;fill:none;fill-opacity:1;stroke:#000000;stroke-width:0.25;stroke-linecap:butt;stroke-linejoin:bevel;stroke-dasharray:none;stroke-opacity:1"
       d="m 240.3475,208.44091 -3.52472,0.34933 -0.0659,-0.66472 1.35567,-0.13436 -0.43255,-4.36435 -1.35567,0.13436 -0.0589,-0.59475 q 0.27551,-0.0273 0.58603,-0.1022 0.31011,-0.0793 0.46324,-0.18281 0.19032,-0.12927 0.28756,-0.30671 0.10117,-0.18226 0.0905,-0.46824 l 0.67783,-0.0672 0.58165,5.86871 1.32941,-0.13176 z" />
    <path
       inkscape:connector-curvature="0"
       id="path1060"
       style="font-style:normal;font-size:medium;text-anchor:middle;fill:none;fill-opacity:1;stroke:#000000;stroke-width:0.25;stroke-linecap:butt;stroke-linejoin:bevel;stroke-dasharray:none;stroke-opacity:1"
       d="m 247.40708,600.26264 3.31322,-1.2523 0.23617,0.62483 -1.27432,0.48165 1.55062,4.10247 1.27432,-0.48165 0.21131,0.55906 q -0.25898,0.0979 -0.53943,0.25082 -0.27889,0.15704 -0.3999,0.29678 -0.15025,0.17424 -0.19808,0.37085 -0.0504,0.20226 0.0341,0.47568 l -0.63715,0.24082 -2.08511,-5.51655 -1.24965,0.47233 z" />
    <path
       inkscape:connector-curvature="0"
       id="path1062"
       style="font-style:normal;font-size:medium;text-anchor:middle;fill:none;fill-opacity:1;stroke:#000000;stroke-width:0.25;stroke-linecap:butt;stroke-linejoin:bevel;stroke-dasharray:none;stroke-opacity:1"
       d="m 242.04673,602.28871 3.31322,-1.25231 0.23617,0.62483 -1.27432,0.48165 1.55062,4.10248 1.27432,-0.48166 0.21131,0.55906 q -0.25898,0.0979 -0.53943,0.25082 -0.27889,0.15705 -0.3999,0.29679 -0.15025,0.17423 -0.19808,0.37084 -0.0504,0.20226 0.0342,0.47568 l -0.63715,0.24083 -2.08511,-5.51656 -1.24965,0.47234 z" />
    <path
       inkscape:connector-curvature="0"
       id="path1064"
       style="font-style:normal;font-size:medium;text-anchor:middle;fill:none;fill-opacity:1;stroke:#000000;stroke-width:0.25;stroke-linecap:butt;stroke-linejoin:bevel;stroke-dasharray:none;stroke-opacity:1"
       d="m 240.03032,606.95956 0.98246,-0.37134 0.44281,1.17154 -0.98246,0.37134 z m -1.2927,-3.4201 0.98245,-0.37134 0.44281,1.17154 -0.98245,0.37134 z" />
    <path
       inkscape:connector-curvature="0"
       id="path1066"
       style="font-style:normal;font-size:medium;text-anchor:middle;fill:none;fill-opacity:1;stroke:#000000;stroke-width:0.25;stroke-linecap:butt;stroke-linejoin:bevel;stroke-dasharray:none;stroke-opacity:1"
       d="m 232.85521,605.76284 3.31322,-1.2523 0.23617,0.62482 -1.27432,0.48166 1.55062,4.10247 1.27432,-0.48165 0.21131,0.55906 q -0.25898,0.0979 -0.53943,0.25081 -0.27889,0.15705 -0.3999,0.29679 -0.15025,0.17424 -0.19808,0.37085 -0.0504,0.20226 0.0342,0.47568 l -0.63716,0.24082 -2.08511,-5.51655 -1.24965,0.47233 z" />
    <path
       inkscape:connector-curvature="0"
       id="path1068"
       style="font-style:normal;font-size:medium;text-anchor:middle;fill:none;fill-opacity:1;stroke:#000000;stroke-width:0.25;stroke-linecap:butt;stroke-linejoin:bevel;stroke-dasharray:none;stroke-opacity:1"
       d="m 228.3112,610.98033 q -0.62305,-1.64838 -0.3972,-2.61697 0.22329,-0.96291 1.30851,-1.3731 1.10167,-0.4164 1.90661,0.17197 0.80082,0.58993 1.41299,2.20954 0.61683,1.63194 0.39665,2.60308 -0.21863,0.97525 -1.30797,1.38699 -1.10166,0.4164 -1.90715,-0.18585 -0.80804,-0.59659 -1.41244,-2.19566 z m 0.37572,-2.27488 q -0.018,0.38734 0.10201,0.85405 0.11747,0.47238 0.35674,1.10542 0.23617,0.62483 0.46362,1.06503 0.22335,0.44176 0.49252,0.70645 0.26352,0.26215 0.57487,0.32769 0.30723,0.0671 0.69775,-0.0805 0.3864,-0.14605 0.58067,-0.40269 0.19016,-0.2551 0.2154,-0.63578 0.0248,-0.35701 -0.10667,-0.86638 -0.13556,-0.50782 -0.35619,-1.09155 -0.24238,-0.64126 -0.45074,-1.0558 -0.20836,-0.41452 -0.48531,-0.69978 -0.25684,-0.26936 -0.56719,-0.34468 -0.31445,-0.0738 -0.72552,0.0816 -0.3864,0.14605 -0.58068,0.40269 -0.19426,0.25665 -0.21128,0.63423 z" />
    <path
       inkscape:connector-curvature="0"
       id="path1071"
       style="font-style:normal;font-size:medium;text-anchor:middle;fill:none;fill-opacity:1;stroke:#000000;stroke-width:0.25;stroke-linecap:butt;stroke-linejoin:bevel;stroke-dasharray:none;stroke-opacity:1"
       d="m 267.15566,551.67808 -4.80464,-4.0793 0.20038,-0.91884 4.97047,4.30888 0.79401,-3.64099 0.75138,0.16386 -0.95412,4.37519 z" />
    <path
       inkscape:connector-curvature="0"
       id="path1073"
       style="font-style:normal;font-size:medium;text-anchor:middle;fill:none;fill-opacity:1;stroke:#000000;stroke-width:0.25;stroke-linecap:butt;stroke-linejoin:bevel;stroke-dasharray:none;stroke-opacity:1"
       d="m 264.62181,554.34595 0.22378,-1.02618 1.22368,0.26686 -0.22378,1.02617 z m -3.57229,-0.77904 0.22378,-1.02617 1.22368,0.26686 -0.22378,1.02617 z" />
    <path
       inkscape:connector-curvature="0"
       id="path1075"
       style="font-style:normal;font-size:medium;text-anchor:middle;fill:none;fill-opacity:1;stroke:#000000;stroke-width:0.25;stroke-linecap:butt;stroke-linejoin:bevel;stroke-dasharray:none;stroke-opacity:1"
       d="m 261.40158,560.51185 q -0.82866,-0.18071 -1.23686,-0.9489 -0.40913,-0.7639 -0.19565,-1.74284 0.2266,-1.03906 0.89813,-1.5403 0.6706,-0.49694 1.50785,-0.31436 0.53242,0.11611 0.89436,0.51889 0.36624,0.40371 0.4969,1.02141 l 0.0258,0.006 q 0.38715,-0.45531 0.76778,-0.63318 0.37968,-0.17357 0.86916,-0.0668 0.72133,0.15731 1.073,0.85469 0.35166,0.6974 0.15223,1.61193 -0.20881,0.95748 -0.79275,1.42834 -0.58396,0.47087 -1.2924,0.31638 -0.43366,-0.0946 -0.79545,-0.45684 -0.35749,-0.36132 -0.4794,-0.93664 l -0.0258,-0.006 q -0.3887,0.54494 -0.83583,0.78026 -0.44713,0.23534 -1.03107,0.10799 z m 3.34338,-0.33687 q 0.45942,0.10018 0.80763,-0.19719 0.35157,-0.29215 0.47143,-0.84173 0.11797,-0.541 -0.0638,-0.94497 -0.18272,-0.39966 -0.62066,-0.49517 -0.30914,-0.0674 -0.57415,0.0547 -0.26166,0.12735 -0.51449,0.44103 -0.11192,0.14201 -0.30105,0.41112 -0.19005,0.2734 -0.33343,0.53899 0.19068,0.48687 0.45994,0.7165 0.26928,0.22964 0.66858,0.31672 z m -3.23206,-0.56541 q 0.395,0.0861 0.66954,-0.0384 0.2779,-0.11931 0.62883,-0.57353 0.13849,-0.18119 0.27249,-0.40384 0.13401,-0.22266 0.36707,-0.59013 -0.12612,-0.43231 -0.43529,-0.74711 -0.3101,-0.31051 -0.76522,-0.40976 -0.57964,-0.1264 -1.04456,0.19051 -0.46492,0.3169 -0.59881,0.93089 -0.13671,0.62687 0.10385,1.07065 0.23963,0.44805 0.8021,0.57071 z" />
    <path
       inkscape:connector-curvature="0"
       id="path988"
       style="font-style:normal;font-size:medium;text-anchor:middle;fill:none;fill-opacity:1;stroke:#000000;stroke-width:0.25;stroke-linecap:butt;stroke-linejoin:bevel;stroke-dasharray:none;stroke-opacity:1"
       d="m 202.97912,321.87277 q -0.10278,0.67583 -0.3781,1.18712 -0.27049,0.51203 -0.64972,0.82971 -0.40073,0.32923 -0.84042,0.45992 -0.43896,0.12586 -0.93133,0.051 -0.4586,-0.0697 -0.78445,-0.2329 -0.32659,-0.15832 -0.63177,-0.39242 l -0.0961,0.24222 -0.84961,-0.12921 1.14235,-7.51129 0.90754,0.13802 -0.40819,2.68398 q 0.42907,-0.25578 0.8888,-0.38835 0.46047,-0.13741 0.9963,-0.0559 0.9558,0.14536 1.39453,0.9628 0.44354,0.81818 0.24018,2.15534 z m -0.94016,-0.1183 q 0.14683,-0.96547 -0.0962,-1.51113 -0.24224,-0.5505 -0.95186,-0.65842 -0.39584,-0.0602 -0.82776,0.0519 -0.43119,0.10728 -0.81987,0.32476 l -0.46986,3.08947 q 0.35975,0.23251 0.62463,0.34194 0.26971,0.11021 0.62209,0.1638 0.75307,0.11453 1.25275,-0.31325 0.50525,-0.43188 0.66603,-1.48905 z" />
    <path
       inkscape:connector-curvature="0"
       id="path990"
       style="font-style:normal;font-size:medium;text-anchor:middle;fill:none;fill-opacity:1;stroke:#000000;stroke-width:0.25;stroke-linecap:butt;stroke-linejoin:bevel;stroke-dasharray:none;stroke-opacity:1"
       d="m 208.16736,325.46222 -0.90271,-0.13729 0.0874,-0.57445 q -0.13316,0.0637 -0.36349,0.18179 -0.22478,0.11398 -0.43108,0.1715 -0.24377,0.0765 -0.54924,0.10416 -0.30621,0.0324 -0.70206,-0.0278 -0.72892,-0.11085 -1.16237,-0.67067 -0.43345,-0.55982 -0.31966,-1.30805 0.0932,-0.61306 0.41118,-0.94995 0.3235,-0.34097 0.84409,-0.48406 0.52543,-0.14234 1.22748,-0.11459 0.70204,0.0278 1.4996,0.10953 l 0.0213,-0.14 q 0.047,-0.30894 -0.0332,-0.52858 -0.0754,-0.2189 -0.2605,-0.36558 -0.1762,-0.1404 -0.44066,-0.22013 -0.26445,-0.0798 -0.55892,-0.12455 -0.35722,-0.0543 -0.81118,-0.0246 -0.45323,0.0249 -0.94864,0.13232 l -0.0482,-0.007 0.14023,-0.92202 q 0.2765,-0.032 0.79177,-0.0426 0.51525,-0.0105 1.00281,0.0636 0.56962,0.0866 0.97492,0.247 0.41086,0.15635 0.6853,0.4302 0.27034,0.2683 0.37606,0.64493 0.1057,0.37661 0.0264,0.89796 z m -0.70082,-1.46481 0.22832,-1.50128 q -0.41881,-0.039 -0.99095,-0.0767 -0.56729,-0.0369 -0.90951,0.005 -0.40789,0.0516 -0.68523,0.25139 -0.2766,0.19501 -0.33901,0.60533 -0.0705,0.46342 0.17353,0.74254 0.24474,0.27429 0.8192,0.36165 0.47789,0.0727 0.90164,-0.0506 0.42447,-0.12806 0.80202,-0.33734 z" />
    <path
       inkscape:connector-curvature="0"
       id="path992"
       style="font-style:normal;font-size:medium;text-anchor:middle;fill:none;fill-opacity:1;stroke:#000000;stroke-width:0.25;stroke-linecap:butt;stroke-linejoin:bevel;stroke-dasharray:none;stroke-opacity:1"
       d="m 213.96324,325.99795 q -0.48681,0.14822 -0.91548,0.2065 -0.42384,0.059 -0.88244,-0.0107 -0.5841,-0.0888 -1.04597,-0.33194 -0.46113,-0.24793 -0.75583,-0.64837 -0.29954,-0.40115 -0.41187,-0.96152 -0.11233,-0.56037 -0.004,-1.26998 0.20116,-1.32268 1.03978,-1.96562 0.84345,-0.64221 2.0358,-0.46087 0.46342,0.0705 0.88771,0.26837 0.42911,0.1986 0.77219,0.4434 l -0.15344,1.00891 -0.0482,-0.007 q -0.36595,-0.38657 -0.78364,-0.62789 -0.41286,-0.24059 -0.83283,-0.30446 -0.77237,-0.11747 -1.3006,0.3356 -0.52266,0.44898 -0.67537,1.45306 -0.1483,0.97512 0.20614,1.56736 0.35999,0.58817 1.15167,0.70857 0.27516,0.0419 0.57097,0.0128 0.29583,-0.0292 0.54033,-0.11044 0.21334,-0.0713 0.40401,-0.15588 0.1914,-0.0894 0.30525,-0.15607 l 0.0482,0.007 z" />
    <path
       inkscape:connector-curvature="0"
       id="path994"
       style="font-style:normal;font-size:medium;text-anchor:middle;fill:none;fill-opacity:1;stroke:#000000;stroke-width:0.25;stroke-linecap:butt;stroke-linejoin:bevel;stroke-dasharray:none;stroke-opacity:1"
       d="m 219.97494,327.25797 -1.19717,-0.18208 -1.80363,-2.68945 -0.67409,0.4704 -0.27384,1.80059 -0.90753,-0.13803 1.14234,-7.51129 0.90754,0.13803 -0.73269,4.81765 3.03161,-2.29983 1.14408,0.174 -2.8842,2.10987 z" />
    <path
       inkscape:connector-curvature="0"
       id="path996"
       style="font-style:normal;font-size:medium;text-anchor:middle;fill:none;fill-opacity:1;stroke:#000000;stroke-width:0.25;stroke-linecap:butt;stroke-linejoin:bevel;stroke-dasharray:none;stroke-opacity:1"
       d="m 224.96494,323.51253 -0.0483,-0.007 q -0.19541,-0.0791 -0.38555,-0.12782 -0.1846,-0.0528 -0.44528,-0.0924 -0.41997,-0.0639 -0.83962,0.0649 -0.41891,0.12396 -0.82574,0.36337 l -0.58219,3.82805 -0.90753,-0.13802 0.82005,-5.3921 0.90754,0.13802 -0.12114,0.79651 q 0.60674,-0.35223 1.04422,-0.46844 0.44305,-0.12031 0.87268,-0.055 0.23654,0.036 0.34053,0.0667 0.10469,0.026 0.312,0.0919 z" />
    <path
       inkscape:connector-curvature="0"
       id="path998"
       style="font-style:normal;font-size:medium;text-anchor:middle;fill:none;fill-opacity:1;stroke:#000000;stroke-width:0.25;stroke-linecap:butt;stroke-linejoin:bevel;stroke-dasharray:none;stroke-opacity:1"
       d="m 230.06871,326.13097 -3.97288,-0.60422 q -0.0756,0.49722 0.0175,0.89168 0.0939,0.38963 0.31856,0.66582 0.21578,0.26988 0.5409,0.43786 0.32994,0.16872 0.74509,0.23186 0.55031,0.0837 1.13849,-0.0491 0.59374,-0.1369 0.86258,-0.31332 l 0.0482,0.007 -0.1505,0.98959 q -0.48797,0.12335 -0.9857,0.181 -0.49772,0.0577 -1.02389,-0.0224 -1.342,-0.2041 -1.98493,-1.04272 -0.6422,-0.84346 -0.43884,-2.18062 0.20116,-1.32268 1.03863,-1.99049 0.84229,-0.66707 2.02015,-0.48793 1.09097,0.16592 1.58299,0.89269 0.49686,0.7275 0.31846,1.90053 z m -0.77768,-0.82948 q 0.10371,-0.7152 -0.19393,-1.16052 -0.29292,-0.44461 -1.01701,-0.55473 -0.72893,-0.11086 -1.22872,0.2527 -0.49497,0.36428 -0.64982,0.99269 z" />
    <path
       inkscape:connector-curvature="0"
       id="path1000"
       style="font-style:normal;font-size:medium;text-anchor:middle;fill:none;fill-opacity:1;stroke:#000000;stroke-width:0.25;stroke-linecap:butt;stroke-linejoin:bevel;stroke-dasharray:none;stroke-opacity:1"
       d="m 235.13736,327.97358 q -0.11232,0.73858 -0.79733,1.11842 -0.68019,0.38057 -1.73737,0.21979 -0.59858,-0.091 -1.07933,-0.30738 -0.47519,-0.22043 -0.78741,-0.44078 l 0.15491,-1.01857 0.0482,0.007 q 0.38044,0.38877 0.87724,0.66189 0.49755,0.26828 0.98028,0.3417 0.59858,0.091 0.96586,-0.0507 0.36727,-0.1417 0.43041,-0.55684 0.0485,-0.31861 -0.11001,-0.51063 -0.15848,-0.19203 -0.66221,-0.38718 -0.1865,-0.0728 -0.49145,-0.17846 -0.30014,-0.10492 -0.54571,-0.2114 -0.68098,-0.29619 -0.92521,-0.70375 -0.23867,-0.41166 -0.15792,-0.94266 0.0507,-0.33309 0.23061,-0.607 0.18477,-0.27317 0.5,-0.4623 0.30483,-0.18578 0.73981,-0.25297 0.44053,-0.0713 0.95705,0.007 0.48273,0.0734 0.95676,0.26898 0.47959,0.19148 0.78216,0.41035 l -0.14757,0.97029 -0.0482,-0.007 q -0.30865,-0.30871 -0.77943,-0.55811 -0.47005,-0.25423 -0.94796,-0.32691 -0.49721,-0.0756 -0.86931,0.0654 -0.37138,0.13614 -0.42864,0.51267 -0.0507,0.33308 0.13122,0.5336 0.17705,0.1998 0.61468,0.37501 0.2422,0.0961 0.54234,0.20102 0.30497,0.10565 0.5052,0.18548 0.61034,0.24099 0.89949,0.64552 0.28841,0.40934 0.19884,0.99827 z" />
    <path
       inkscape:connector-curvature="0"
       id="path1002"
       style="font-style:normal;font-size:medium;text-anchor:middle;fill:none;fill-opacity:1;stroke:#000000;stroke-width:0.25;stroke-linecap:butt;stroke-linejoin:bevel;stroke-dasharray:none;stroke-opacity:1"
       d="m 239.01152,330.10374 q -0.26613,0.0287 -0.57685,0.0259 -0.3059,-0.002 -0.54243,-0.0381 -0.82547,-0.12554 -1.18756,-0.635 -0.36209,-0.50945 -0.21306,-1.48939 l 0.43609,-2.86742 -0.61306,-0.0932 0.116,-0.76272 0.61306,0.0932 0.23566,-1.54956 0.90754,0.13802 -0.23567,1.54956 1.873,0.28485 -0.116,0.76272 -1.873,-0.28485 -0.37368,2.4571 q -0.0646,0.4248 -0.082,0.6691 -0.0167,0.23947 0.0676,0.46467 0.0768,0.20924 0.24632,0.32885 0.17505,0.11554 0.55641,0.17354 0.22205,0.0338 0.47296,0.008 0.25165,-0.0309 0.36446,-0.0582 l 0.0482,0.007 z" />
  </g>
</svg>
