<?xml version="1.0" encoding="UTF-8" standalone="no"?>
<svg
   xmlns:dc="http://purl.org/dc/elements/1.1/"
   xmlns:cc="http://creativecommons.org/ns#"
   xmlns:rdf="http://www.w3.org/1999/02/22-rdf-syntax-ns#"
   xmlns:svg="http://www.w3.org/2000/svg"
   xmlns="http://www.w3.org/2000/svg"
   xmlns:sodipodi="http://sodipodi.sourceforge.net/DTD/sodipodi-0.dtd"
   xmlns:inkscape="http://www.inkscape.org/namespaces/inkscape"
   version="1.1"
   width="300.00mm"
   height="600.00mm"
   viewBox="0 0 300.00 600.00"
   id="svg926"
   sodipodi:docname="backrest_page15.svg"
   inkscape:version="0.92.2 (5c3e80d, 2017-08-06)">
  <metadata
     id="metadata90">
    <rdf:RDF>
      <cc:Work
         rdf:about="">
        <dc:format>image/svg+xml</dc:format>
        <dc:type
           rdf:resource="http://purl.org/dc/dcmitype/StillImage" />
      </cc:Work>
    </rdf:RDF>
  </metadata>
  <defs
     id="defs930" />
  <sodipodi:namedview
     id="namedview928"
     pagecolor="#ffffff"
     bordercolor="#666666"
     borderopacity="1.0"
     inkscape:pageshadow="2"
     inkscape:pageopacity="0.0"
     inkscape:pagecheckerboard="0"
     inkscape:document-units="mm"
     showgrid="false"
     inkscape:zoom="0.99156996"
     inkscape:cx="237.39141"
     inkscape:cy="1068.8379"
     inkscape:window-width="1920"
     inkscape:window-height="1017"
     inkscape:window-x="-8"
     inkscape:window-y="209"
     inkscape:window-maximized="1"
     inkscape:current-layer="svg926" />
  <style
     type="text/css"
     id="style824">
    path {
        fill: none;
        stroke-linecap: butt;
        stroke-linejoin: bevel;
        stroke-dasharray: none;
    }
    path.outer {
        stroke: #000000;
        stroke-dasharray: none;
        stroke-dashoffset: 0;
        stroke-width: 0.3;
        stroke-opacity: 1.0;
    }
    path.convex {
        stroke: #000000;
        stroke-dasharray: 0.50,1.00;
        stroke-dashoffset:0;
        stroke-width:0.2;
        stroke-opacity: 1.0
    }
    path.concave {
        stroke: #000000;
        stroke-dasharray: 1.00,0.50,0.20,0.50;
        stroke-dashoffset: 0;
        stroke-width: 0.2;
        stroke-opacity: 1.0
    }
    path.freestyle {
        stroke: #000000;
        stroke-dasharray: none;
        stroke-dashoffset: 0;
        stroke-width: 0.2;
        stroke-opacity: 1.0
    }
    path.outer_background {
        stroke: #ffffff;
        stroke-opacity: 1.0;
        stroke-width: 0.5
    }
    path.inner_background {
        stroke: #ffffff;
        stroke-opacity: 1.0;
        stroke-width: 0.2
    }
    path.sticker {
        fill: #e5e5e5;
        stroke: none;
        fill-opacity: 1.0;
    }
    path.arrow {
        fill: #000000;
    }
    text {
        font-style: normal;
        fill: #000000;
        fill-opacity: 1.0;
        stroke: none;
    }
    text, tspan {
        text-anchor:middle;
    }
    </style>
  <path
     d="m 195.37651,240.59804 2.40356,-0.81838 3.06579,9.00409 -2.40356,0.81839 -0.22505,-0.66098 1.59929,-0.54454 -2.61568,-7.68214 -1.59929,0.54454 z"
     style="font-style:normal;font-size:medium;text-anchor:middle;fill:none;fill-opacity:1;stroke:#000000;stroke-width:0.25;stroke-linecap:butt;stroke-linejoin:bevel;stroke-dasharray:none;stroke-opacity:1"
     id="path871"
     inkscape:connector-curvature="0" />
  <path
     d="m 191.76438,250.38004 1.12293,-6.91248 0.98916,-0.3368 -1.24614,7.20203 3.91964,-1.33459 0.27542,0.80889 -4.71005,1.60371 z"
     style="font-style:normal;font-size:medium;text-anchor:middle;fill:none;fill-opacity:1;stroke:#000000;stroke-width:0.25;stroke-linecap:butt;stroke-linejoin:bevel;stroke-dasharray:none;stroke-opacity:1"
     id="path873"
     inkscape:connector-curvature="0" />
  <path
     d="m 185.35553,244.01007 2.40356,-0.81838 0.22505,0.66098 -1.59929,0.54454 2.61568,7.68214 1.59929,-0.54454 0.22506,0.66097 -2.40356,0.81839 z"
     style="font-style:normal;font-size:medium;text-anchor:middle;fill:none;fill-opacity:1;stroke:#000000;stroke-width:0.25;stroke-linecap:butt;stroke-linejoin:bevel;stroke-dasharray:none;stroke-opacity:1"
     id="path875"
     inkscape:connector-curvature="0" />
  <path
     d="m 178.17939,248.47544 2.71787,-0.92541 0.23922,0.70258 -0.90133,0.3069 1.86497,5.47733 0.90133,-0.3069 0.23922,0.70259 -2.71787,0.9254 -0.23922,-0.70258 0.90133,-0.30689 -1.86497,-5.47734 -0.90133,0.3069 z"
     style="font-style:normal;font-size:medium;text-anchor:middle;fill:none;fill-opacity:1;stroke:#000000;stroke-width:0.25;stroke-linecap:butt;stroke-linejoin:bevel;stroke-dasharray:none;stroke-opacity:1"
     id="path877"
     inkscape:connector-curvature="0" />
  <path
     d="m 170.77948,257.52516 1.12293,-6.91248 0.98916,-0.3368 -1.24614,7.20203 3.91964,-1.33459 0.27541,0.80888 -4.71004,1.60372 z"
     style="font-style:normal;font-size:medium;text-anchor:middle;fill:none;fill-opacity:1;stroke:#000000;stroke-width:0.25;stroke-linecap:butt;stroke-linejoin:bevel;stroke-dasharray:none;stroke-opacity:1"
     id="path879"
     inkscape:connector-curvature="0" />
  <path
     inkscape:connector-curvature="0"
     style="fill:#e5e5e5;fill-opacity:1;stroke:#000000;stroke-width:0.25;stroke-linecap:butt;stroke-linejoin:bevel;stroke-dasharray:none;stroke-opacity:1"
     id="path830-9"
     d="m 246.00917,224.94686 6.75269,-7.37741 36.50386,32.37378 -6.51762,7.58586 z m -24.4548,-71.82278 9.51696,-3.07447 24.35353,71.52537 -9.41569,3.37188 z m 9.16695,165.53543 -4.38843,8.21579 -16.30513,-8.38286 4.12821,-8.34957 z m -122.55827,-48.45968 -8.04746,5.93825 -17.828563,-23.38323 7.856979,-6.18811 z m 34.34684,13.28527 -3.75403,9.26993 -34.0538,-13.1719 3.46099,-9.3833 z m -52.365884,-36.91836 -9.516953,3.07446 -14.757537,-43.34234 9.415675,-3.37187 z m 87.498244,24.95622 3.07446,9.51694 -34.83496,11.86087 -3.37186,-9.41567 z m 36.51372,38.61991 -7.37435,6.75602 -36.29789,-38.39165 7.15852,-6.98428 z m 68.59213,-52.61378 7.51352,6.60087 -50.54041,59.38398 -8.99989,-4.85443 z m -76.42581,-224.459392 9.79254,2.032444 -9.16373,47.923026 -9.85155,-1.723843 z m -9.22274,48.231627 9.51695,-3.074468 24.35356,71.525333 -9.41569,3.37189 z m -77.22407,-48.056495 -8.36562,-4.09557 7.80185,-16.59096 8.49013,3.830776 z m -59.449118,126.04239 -10.000638,-0.10778 -0.144976,-29.40429 9.9991,-0.2064 z m -0.146514,-29.71847 -8.467849,-5.32166 18.940323,-31.215765 8.630834,5.053035 z m 15.005343,73.35824 -9.516941,3.07446 -14.757563,-43.34235 9.415675,-3.37188 z m 4.097965,-104.84263 -3.074454,-9.516944 34.834948,-11.860837 3.37187,9.415678 z m 35.132364,-11.962103 -9.93317,-1.164791 5.32828,-52.564841 9.96485,0.852205 z m 13.28632,-69.733181 4.16764,-9.3377615 76.27713,16.2040355 -1.92432,9.814348 z"
     class="sticker" />
  <path
     inkscape:connector-curvature="0"
     style="fill:#000000;stroke:#000000;stroke-width:0.25;stroke-linecap:butt;stroke-linejoin:bevel;stroke-dasharray:none;stroke-opacity:1"
     id="path834-6"
     d="m 264.37864,241.23797 0.84649,14.11678 -2.50527,-12.24638 -12.45799,-1.02392 z"
     class="arrow" />
  <path
     d="m 255.12095,244.86481 3.72551,-1.26849 0.23922,0.70257 -1.43289,0.48788 1.57066,4.61298 1.43289,-0.48788 0.21404,0.62862 q -0.2912,0.0992 -0.60827,0.25866 -0.31549,0.16415 -0.45503,0.31484 -0.17328,0.18795 -0.23365,0.40451 -0.0634,0.22276 0.0204,0.5295 l -0.71645,0.24395 -2.11206,-6.20304 -1.40516,0.47844 z"
     style="font-style:normal;font-size:medium;text-anchor:middle;fill:none;fill-opacity:1;stroke:#000000;stroke-width:0.25;stroke-linecap:butt;stroke-linejoin:bevel;stroke-dasharray:none;stroke-opacity:1"
     id="path883"
     inkscape:connector-curvature="0" />
  <path
     d="m 261.17385,235.98992 -2.64999,-2.35017 0.44321,-0.49975 1.01923,0.90391 2.91,-3.28126 -1.01923,-0.90391 0.39655,-0.44714 q 0.20714,0.1837 0.47306,0.36073 0.26877,0.1738 0.44876,0.2159 0.22414,0.0519 0.42042,0.003 0.20249,-0.0495 0.40517,-0.25154 l 0.50961,0.45195 -3.91305,4.41226 0.9995,0.88642 z"
     style="font-style:normal;font-size:medium;text-anchor:middle;fill:none;fill-opacity:1;stroke:#000000;stroke-width:0.25;stroke-linecap:butt;stroke-linejoin:bevel;stroke-dasharray:none;stroke-opacity:1"
     id="path886"
     inkscape:connector-curvature="0" />
  <path
     d="m 267.08038,238.44988 q -0.30324,0.34193 -0.70519,0.54347 -0.40194,0.20154 -0.80847,0.22281 -0.44083,0.0202 -0.88042,-0.14644 -0.43338,-0.16702 -0.86408,-0.54899 -0.40112,-0.35573 -0.69682,-0.7707 -0.29863,-0.4117 -0.45011,-0.75749 l 0.61523,-0.69373 0.046,0.0408 q 0.11799,0.41006 0.37176,0.85245 0.25669,0.4391 0.6052,0.74818 0.23344,0.20703 0.50876,0.33371 0.27861,0.1296 0.59536,0.11683 0.27004,-0.0131 0.51732,-0.14619 0.25058,-0.1302 0.48093,-0.38994 0.22452,-0.25317 0.29028,-0.50615 0.0691,-0.25007 0.008,-0.49233 -0.0602,-0.27655 -0.26301,-0.54456 -0.19666,-0.26837 -0.49913,-0.53662 -0.28933,-0.2566 -0.5939,-0.45627 -0.30128,-0.19675 -0.53028,-0.32931 l 2.23644,-2.52176 2.94589,2.61259 -0.51026,0.57537 -2.31134,-2.04983 -1.15468,1.30198 q 0.15305,0.11221 0.30684,0.23684 0.15393,0.12448 0.26243,0.2207 0.39783,0.35282 0.63577,0.68722 0.24087,0.3311 0.33912,0.72366 0.10266,0.41411 -0.006,0.82844 -0.10901,0.41434 -0.49098,0.84505 z"
     style="font-style:normal;font-size:medium;text-anchor:middle;fill:none;fill-opacity:1;stroke:#000000;stroke-width:0.25;stroke-linecap:butt;stroke-linejoin:bevel;stroke-dasharray:none;stroke-opacity:1"
     id="path888"
     inkscape:connector-curvature="0" />
  <path
     d="m 270.53385,239.40394 -0.78579,-0.69688 0.83102,-0.93704 0.78579,0.69688 z m -2.42598,2.73547 -0.78578,-0.69688 0.83101,-0.93704 0.78579,0.69688 z"
     style="font-style:normal;font-size:medium;text-anchor:middle;fill:none;fill-opacity:1;stroke:#000000;stroke-width:0.25;stroke-linecap:butt;stroke-linejoin:bevel;stroke-dasharray:none;stroke-opacity:1"
     id="path890"
     inkscape:connector-curvature="0" />
  <path
     d="m 272.81276,246.31198 -2.64999,-2.35017 0.44321,-0.49975 1.01922,0.90391 2.91001,-3.28126 -1.01922,-0.9039 0.39655,-0.44714 q 0.20713,0.18369 0.47305,0.36071 0.26877,0.1738 0.44876,0.2159 0.22413,0.0519 0.42042,0.003 0.20249,-0.0495 0.40517,-0.25154 l 0.50961,0.45195 -3.91305,4.41226 0.9995,0.88642 z"
     style="font-style:normal;font-size:medium;text-anchor:middle;fill:none;fill-opacity:1;stroke:#000000;stroke-width:0.25;stroke-linecap:butt;stroke-linejoin:bevel;stroke-dasharray:none;stroke-opacity:1"
     id="path892"
     inkscape:connector-curvature="0" />
  <path
     inkscape:connector-curvature="0"
     style="fill:#000000;stroke:#000000;stroke-width:0.25;stroke-linecap:butt;stroke-linejoin:bevel;stroke-dasharray:none;stroke-opacity:1"
     id="path846"
     d="m 222.43865,314.40121 -4.32112,-13.46581 5.4642,11.24244 12.32272,-2.09775 z"
     class="arrow" />
  <path
     d="m 222.87479,303.4242 4.65921,-1.58641 0.32892,0.96604 q -0.34369,0.58126 -0.68738,1.1625 -0.34831,0.58283 -0.62886,1.13742 -0.59474,1.16191 -0.75137,1.77747 -0.15506,0.62019 0.0448,1.20721 0.18257,0.53618 0.64078,0.71544 0.45515,0.18545 1.0884,-0.0302 0.42062,-0.14322 0.86022,-0.45795 0.43959,-0.31474 0.80256,-0.77875 l 0.0462,-0.0157 0.3305,0.97066 q -0.27309,0.27352 -0.77288,0.59328 -0.5044,0.32132 -1.01747,0.49602 -1.05849,0.3604 -1.83407,0.0519 -0.77401,-0.30385 -1.07146,-1.17745 -0.13377,-0.39289 -0.14855,-0.76956 -0.0178,-0.37047 0.0724,-0.74164 0.0827,-0.34796 0.23324,-0.70869 0.14593,-0.35918 0.37771,-0.81464 0.32932,-0.65373 0.70045,-1.29074 0.3727,-0.6324 0.6981,-1.17647 l -3.7024,1.26063 z"
     style="font-style:normal;font-size:medium;text-anchor:middle;fill:none;fill-opacity:1;stroke:#000000;stroke-width:0.25;stroke-linecap:butt;stroke-linejoin:bevel;stroke-dasharray:none;stroke-opacity:1"
     id="path895"
     inkscape:connector-curvature="0" />
  <path
     d="m 224.16851,317.17552 2.93305,1.50795 -0.28437,0.55313 -1.1281,-0.57998 -1.86717,3.63174 1.1281,0.57998 -0.25445,0.49492 q -0.22925,-0.11787 -0.50996,-0.2162 -0.28259,-0.0947 -0.45466,-0.0911 -0.21416,0.005 -0.37987,0.0946 -0.17122,0.0914 -0.30738,0.32047 l -0.56405,-0.28999 2.51076,-4.88357 -1.10627,-0.56876 z"
     style="font-style:normal;font-size:medium;text-anchor:middle;fill:none;fill-opacity:1;stroke:#000000;stroke-width:0.25;stroke-linecap:butt;stroke-linejoin:bevel;stroke-dasharray:none;stroke-opacity:1"
     id="path898"
     inkscape:connector-curvature="0" />
  <path
     d="m 219.6825,318.6971 0.86973,0.44715 -0.53321,1.03712 -0.86972,-0.44715 z m 1.5566,-3.02766 0.86973,0.44715 -0.53321,1.03712 -0.86973,-0.44715 z"
     style="font-style:normal;font-size:medium;text-anchor:middle;fill:none;fill-opacity:1;stroke:#000000;stroke-width:0.25;stroke-linecap:butt;stroke-linejoin:bevel;stroke-dasharray:none;stroke-opacity:1"
     id="path900"
     inkscape:connector-curvature="0" />
  <path
     d="m 215.72233,312.83314 3.66814,1.88587 -0.39102,0.76055 q -0.55048,0.13107 -1.10095,0.26215 -0.55412,0.12919 -1.05179,0.28281 -1.04668,0.31764 -1.50898,0.58146 -0.46417,0.26746 -0.70177,0.72961 -0.21703,0.42213 -0.0584,0.80273 0.15309,0.38237 0.65163,0.63868 0.33116,0.17025 0.77677,0.25212 0.4456,0.0819 0.93662,0.0307 l 0.0364,0.0187 -0.39289,0.7642 q -0.32386,-0.005 -0.80752,-0.1207 -0.4873,-0.11711 -0.89124,-0.32479 -0.83333,-0.42843 -1.09873,-1.07558 -0.26727,-0.64351 0.0863,-1.33129 0.15903,-0.30931 0.37752,-0.53745 0.21297,-0.22638 0.48931,-0.38796 0.25792,-0.15266 0.56303,-0.27184 0.3015,-0.12105 0.71099,-0.24638 0.58582,-0.18191 1.1859,-0.32889 0.59819,-0.14334 1.11561,-0.26381 l -2.91485,-1.4986 z"
     style="font-style:normal;font-size:medium;text-anchor:middle;fill:none;fill-opacity:1;stroke:#000000;stroke-width:0.25;stroke-linecap:butt;stroke-linejoin:bevel;stroke-dasharray:none;stroke-opacity:1"
     id="path902"
     inkscape:connector-curvature="0" />
  <path
     inkscape:connector-curvature="0"
     style="fill:#000000;stroke:#000000;stroke-width:0.25;stroke-linecap:butt;stroke-linejoin:bevel;stroke-dasharray:none;stroke-opacity:1"
     id="path858"
     d="m 256.73473,288.09432 -14.09659,1.13409 12.19275,-2.75441 0.76975,-12.47627 z"
     class="arrow" />
  <path
     d="m 247.93589,282.39628 q -0.28954,-0.12321 -0.53512,-0.37487 -0.24559,-0.25165 -0.40769,-0.72774 -0.16053,-0.47147 -0.12328,-0.92259 0.0372,-0.45112 0.24778,-0.84777 0.2365,-0.44159 0.65446,-0.75928 0.41491,-0.31148 0.9742,-0.50191 0.57316,-0.19516 1.17504,-0.24535 0.6003,-0.0548 1.0113,-0.0142 l 0.32893,0.96605 -0.0693,0.0236 q -0.48102,-0.12507 -1.07081,-0.1151 -0.58978,0.01 -1.08436,0.17836 -0.2912,0.0992 -0.58633,0.30796 -0.29513,0.20881 -0.43398,0.46757 -0.14337,0.27577 -0.16165,0.55537 -0.0229,0.28118 0.10458,0.65558 0.12591,0.36977 0.32792,0.56921 0.19897,0.20564 0.45418,0.27348 0.25679,0.0725 0.56993,0.0226 0.31471,-0.0453 0.65675,-0.16172 l 0.416,-0.14164 0.26126,0.76729 -0.32356,0.11017 q -0.70258,0.23922 -1.01943,0.67207 -0.3199,0.43904 -0.12789,1.00294 0.085,0.2496 0.25425,0.3983 0.17084,0.15331 0.40127,0.20896 0.23967,0.0525 0.4819,0.0216 0.24222,-0.0309 0.5288,-0.1285 0.43911,-0.14951 0.88018,-0.47506 0.44107,-0.32556 0.7826,-0.76165 l 0.0462,-0.0157 0.32892,0.96605 q -0.27309,0.27351 -0.77287,0.59327 -0.50283,0.32595 -1.0159,0.50064 -0.50382,0.17155 -0.91896,0.20969 -0.4151,0.0382 -0.79406,-0.0597 -0.40834,-0.10855 -0.68638,-0.36463 -0.27804,-0.25607 -0.42126,-0.6767 -0.19515,-0.57316 0.0652,-1.14152 0.25734,-0.56217 0.76961,-0.86039 l -0.022,-0.0648 q -0.23447,0.0385 -0.56196,0.016 -0.32592,-0.018 -0.58448,-0.12595 z"
     style="font-style:normal;font-size:medium;text-anchor:middle;fill:none;fill-opacity:1;stroke:#000000;stroke-width:0.25;stroke-linecap:butt;stroke-linejoin:bevel;stroke-dasharray:none;stroke-opacity:1"
     id="path905"
     inkscape:connector-curvature="0" />
  <path
     d="m 261.91648,284.78306 2.29566,-2.69734 0.50868,0.43292 -0.88295,1.03745 3.33989,2.84251 0.88295,-1.03745 0.45513,0.38735 q -0.17944,0.21084 -0.35108,0.48025 -0.16829,0.27226 -0.20671,0.45307 -0.0473,0.22514 0.006,0.42039 0.0536,0.20143 0.25975,0.39996 l -0.44148,0.51872 -4.49111,-3.82229 -0.86585,1.01736 z"
     style="font-style:normal;font-size:medium;text-anchor:middle;fill:none;fill-opacity:1;stroke:#000000;stroke-width:0.25;stroke-linecap:butt;stroke-linejoin:bevel;stroke-dasharray:none;stroke-opacity:1"
     id="path908"
     inkscape:connector-curvature="0" />
  <path
     d="m 260.75707,291.80018 q -0.65259,-0.5554 -1.05652,-1.15886 -0.40679,-0.60012 -0.52527,-1.22031 -0.12232,-0.62923 0.0604,-1.2643 0.18271,-0.63507 0.70963,-1.25419 0.14811,-0.17402 0.29923,-0.31086 0.14777,-0.13968 0.29044,-0.226 l 0.6392,0.54401 -0.0284,0.0334 q -0.13279,0.0543 -0.33062,0.19183 -0.19444,0.14036 -0.37957,0.35788 -0.62945,0.73959 -0.54373,1.53389 0.0862,0.80048 0.80902,1.53104 0.0775,-0.47073 0.23071,-0.81351 0.15324,-0.34278 0.4295,-0.66739 0.26204,-0.30789 0.53589,-0.50762 0.27101,-0.19638 0.65865,-0.29926 0.45479,-0.12076 0.89753,-0.004 0.43991,0.12049 0.87831,0.4936 0.76301,0.64939 0.81435,1.55867 0.0513,0.90928 -0.56388,1.63215 -0.30761,0.36143 -0.68343,0.57248 -0.37247,0.21389 -0.79322,0.25397 -0.51986,0.0481 -1.08929,-0.17111 -0.56607,-0.21633 -1.25881,-0.8059 z m 0.71924,-0.55354 q 0.51872,0.44147 0.92444,0.60212 0.40572,0.16063 0.73924,0.12133 0.28446,-0.0291 0.50185,-0.15572 0.22074,-0.12374 0.40018,-0.33458 0.41014,-0.4819 0.3482,-1.01936 -0.0648,-0.5341 -0.61028,-0.99836 -0.31792,-0.27058 -0.59563,-0.35112 -0.2777,-0.0805 -0.61057,0.005 -0.23191,0.0623 -0.42253,0.21168 -0.18724,0.15227 -0.37522,0.37314 -0.22216,0.26103 -0.37972,0.58858 -0.15757,0.32755 -0.22309,0.67572 0.0677,0.0629 0.13138,0.12364 0.0645,0.0667 0.17153,0.1578 z"
     style="font-style:normal;font-size:medium;text-anchor:middle;fill:none;fill-opacity:1;stroke:#000000;stroke-width:0.25;stroke-linecap:butt;stroke-linejoin:bevel;stroke-dasharray:none;stroke-opacity:1"
     id="path910"
     inkscape:connector-curvature="0" />
  <path
     d="m 258.69397,294.21072 0.68072,-0.79984 0.95378,0.81174 -0.68072,0.79984 z m -2.78436,-2.36971 0.68073,-0.79983 0.95377,0.81173 -0.68072,0.79984 z"
     style="font-style:normal;font-size:medium;text-anchor:middle;fill:none;fill-opacity:1;stroke:#000000;stroke-width:0.25;stroke-linecap:butt;stroke-linejoin:bevel;stroke-dasharray:none;stroke-opacity:1"
     id="path912"
     inkscape:connector-curvature="0" />
  <path
     d="m 254.36435,298.51819 q -0.28062,0.0382 -0.58644,-0.0432 -0.30583,-0.0814 -0.65052,-0.37476 -0.34136,-0.29052 -0.52043,-0.65644 -0.17908,-0.36592 -0.19908,-0.76957 -0.0207,-0.45037 0.15609,-0.88856 0.17723,-0.432 0.52186,-0.83694 0.35318,-0.41497 0.79536,-0.73112 0.43883,-0.31899 0.77528,-0.47699 l 0.69944,0.59528 -0.0427,0.0502 q -0.4295,0.12496 -0.88087,0.40443 -0.45137,0.27947 -0.75613,0.63756 -0.17944,0.21083 -0.31137,0.50826 -0.13193,0.29743 -0.12005,0.56145 0.0162,0.27926 0.13094,0.50384 0.11186,0.22793 0.38292,0.45863 0.26774,0.22786 0.51581,0.28895 0.24857,0.0673 0.47714,0.002 0.23192,-0.0623 0.45101,-0.24515 0.22242,-0.18003 0.43319,-0.42767 l 0.25634,-0.3012 0.55553,0.47281 -0.19938,0.23426 q -0.43292,0.50868 -0.47842,0.98931 -0.045,0.48682 0.36327,0.8343 0.18072,0.15381 0.38009,0.19077 0.20272,0.0398 0.40651,-0.0234 0.20948,-0.0698 0.38251,-0.20534 0.173,-0.13553 0.34959,-0.34302 0.27058,-0.31793 0.46155,-0.77285 0.19097,-0.45493 0.25406,-0.94944 l 0.0285,-0.0335 0.69944,0.59528 q -0.0851,0.33729 -0.32413,0.81479 -0.23854,0.48368 -0.5547,0.85515 -0.31045,0.36478 -0.61379,0.58558 -0.30334,0.22079 -0.64141,0.3197 -0.3657,0.10425 -0.69866,0.0344 -0.33295,-0.0699 -0.63749,-0.32904 -0.41497,-0.35318 -0.47557,-0.91257 -0.0601,-0.55318 0.19853,-1.01978 l -0.0468,-0.0399 q -0.16352,0.13782 -0.42709,0.27128 -0.26025,0.13629 -0.5099,0.17196 z"
     style="font-style:normal;font-size:medium;text-anchor:middle;fill:none;fill-opacity:1;stroke:#000000;stroke-width:0.25;stroke-linecap:butt;stroke-linejoin:bevel;stroke-dasharray:none;stroke-opacity:1"
     id="path914"
     inkscape:connector-curvature="0" />
  <path
     inkscape:connector-curvature="0"
     style="fill:#000000;stroke:#000000;stroke-width:0.25;stroke-linecap:butt;stroke-linejoin:bevel;stroke-dasharray:none;stroke-opacity:1"
     id="path870"
     d="m 201.71093,57.185519 -11.7002,7.943896 9.24469,-8.413431 -5.48839,-11.23066 z"
     class="arrow" />
  <path
     d="m 189.6944,54.51255 1.02151,-0.347813 -0.65942,-1.936714 0.88746,-0.302172 0.65943,1.936713 3.29565,-1.122129 0.36198,1.063114 -2.01062,5.017388 -0.85049,0.289581 -1.43218,-4.206225 -1.02151,0.347813 z m 2.16079,0.08957 1.05761,3.106136 1.60942,-4.014227 z"
     style="font-style:normal;font-size:medium;text-anchor:middle;fill:none;fill-opacity:1;stroke:#000000;stroke-width:0.25;stroke-linecap:butt;stroke-linejoin:bevel;stroke-dasharray:none;stroke-opacity:1"
     id="path917"
     inkscape:connector-curvature="0" />
  <path
     d="m 204.5832,51.748389 0.66524,-3.478959 0.65608,0.125455 -0.25586,1.338057 4.3077,0.823707 0.25586,-1.338057 0.58701,0.112248 q -0.052,0.271933 -0.0683,0.590947 -0.012,0.319851 0.0438,0.496072 0.0699,0.219176 0.21251,0.362768 0.14604,0.148726 0.42331,0.219643 l -0.12793,0.669028 -5.79251,-1.10763 -0.25091,1.312166 z"
     style="font-style:normal;font-size:medium;text-anchor:middle;fill:none;fill-opacity:1;stroke:#000000;stroke-width:0.25;stroke-linecap:butt;stroke-linejoin:bevel;stroke-dasharray:none;stroke-opacity:1"
     id="path920"
     inkscape:connector-curvature="0" />
  <path
     d="m 205.4883,58.082367 q -0.44889,-0.08584 -0.82758,-0.328265 -0.37869,-0.242427 -0.60478,-0.580955 -0.24271,-0.368553 -0.3242,-0.831548 -0.078,-0.457854 0.0301,-1.02329 0.1007,-0.526599 0.30618,-0.992884 0.20118,-0.467108 0.42094,-0.774066 l 0.91075,0.174151 -0.0115,0.06041 q -0.29213,0.311018 -0.54263,0.755277 -0.24617,0.445085 -0.33366,0.902616 -0.0586,0.306457 -0.0267,0.607845 0.031,0.305699 0.20393,0.571419 0.14928,0.225409 0.39011,0.369891 0.23999,0.148793 0.58099,0.213997 0.33234,0.06355 0.58339,-0.0092 0.25023,-0.06848 0.42715,-0.244935 0.20694,-0.19309 0.33358,-0.504434 0.13013,-0.3062 0.20606,-0.703305 0.0726,-0.379838 0.0885,-0.743673 0.0151,-0.359524 0.012,-0.624091 l 3.31062,0.633049 -0.73953,3.86743 -0.75535,-0.144437 0.58023,-3.034383 -1.70926,-0.326841 q -0.0182,0.188912 -0.0467,0.384796 -0.0283,0.195921 -0.0555,0.338361 -0.0999,0.522277 -0.26564,0.897725 -0.16144,0.376285 -0.44861,0.661404 -0.30343,0.299909 -0.71526,0.418022 -0.41184,0.118112 -0.97728,0.01 z"
     style="font-style:normal;font-size:medium;text-anchor:middle;fill:none;fill-opacity:1;stroke:#000000;stroke-width:0.25;stroke-linecap:butt;stroke-linejoin:bevel;stroke-dasharray:none;stroke-opacity:1"
     id="path922"
     inkscape:connector-curvature="0" />
  <path
     d="m 206.43371,61.538226 0.19726,-1.031599 1.23015,0.235227 -0.19726,1.031599 z m -3.59119,-0.686698 0.19726,-1.031599 1.23015,0.235226 -0.19726,1.0316 z"
     style="font-style:normal;font-size:medium;text-anchor:middle;fill:none;fill-opacity:1;stroke:#000000;stroke-width:0.25;stroke-linecap:butt;stroke-linejoin:bevel;stroke-dasharray:none;stroke-opacity:1"
     id="path924"
     inkscape:connector-curvature="0" />
  <path
     d="m 203.37176,67.887659 0.1824,-0.953907 -1.80854,-0.345826 0.15847,-0.828735 1.80854,0.345826 0.58848,-3.077542 0.99275,0.189832 3.03063,3.805376 -0.15186,0.7942 -3.92786,-0.751075 -0.1824,0.953907 z m 1.03148,-1.650586 2.90058,0.554642 -2.42435,-3.045159 z"
     style="font-style:normal;font-size:medium;text-anchor:middle;fill:none;fill-opacity:1;stroke:#000000;stroke-width:0.25;stroke-linecap:butt;stroke-linejoin:bevel;stroke-dasharray:none;stroke-opacity:1"
     id="path926"
     inkscape:connector-curvature="0" />
  <path
     inkscape:connector-curvature="0"
     style="fill:#000000;stroke:#000000;stroke-width:0.25;stroke-linecap:butt;stroke-linejoin:bevel;stroke-dasharray:none;stroke-opacity:1"
     id="path882"
     d="m 123.83866,24.816959 13.30482,-4.793937 -11.04248,5.8578 2.5316,12.240953 z"
     class="arrow" />
  <path
     d="m 129.10401,27.841384 q -0.16368,-0.480709 -0.13755,-0.979628 0.0261,-0.498919 0.22891,-0.903233 0.22263,-0.436873 0.62505,-0.769892 0.39936,-0.326836 1.00488,-0.533006 0.56391,-0.192005 1.12714,-0.249662 0.56166,-0.06229 0.97885,-0.01864 l 0.33207,0.975286 -0.0647,0.02203 q -0.46086,-0.111307 -1.02754,-0.109205 -0.5651,0.0067 -1.05506,0.173545 -0.32817,0.11174 -0.60175,0.308098 -0.27823,0.197837 -0.43988,0.510833 -0.1357,0.268003 -0.14296,0.579961 -0.0119,0.313533 0.11244,0.678687 0.12119,0.355914 0.3294,0.5584 0.20359,0.20406 0.4712,0.278002 0.30016,0.0938 0.67043,0.0451 0.36722,-0.04253 0.79247,-0.187321 0.40675,-0.138496 0.76689,-0.323022 0.35551,-0.182951 0.60934,-0.331269 l 1.20711,3.545249 -4.14151,1.410138 -0.27542,-0.808887 3.24943,-1.106392 L 133.1,28.776153 q -0.19247,0.08613 -0.39731,0.166232 -0.20478,0.08029 -0.35731,0.132224 -0.55929,0.190432 -1.01296,0.236591 -0.45211,0.05073 -0.88523,-0.06998 -0.45633,-0.128313 -0.79663,-0.461203 -0.3403,-0.332882 -0.54647,-0.938395 z"
     style="font-style:normal;font-size:medium;text-anchor:middle;fill:none;fill-opacity:1;stroke:#000000;stroke-width:0.25;stroke-linecap:butt;stroke-linejoin:bevel;stroke-dasharray:none;stroke-opacity:1"
     id="path929"
     inkscape:connector-curvature="0" />
  <path
     d="m 121.12716,26.643694 -1.40343,2.984468 -0.56284,-0.264671 0.53978,-1.147869 -3.69541,-1.737754 -0.53978,1.147869 -0.50358,-0.236806 q 0.10969,-0.233275 0.19805,-0.517284 0.0847,-0.285753 0.075,-0.457582 -0.0125,-0.213866 -0.1079,-0.376301 -0.0974,-0.167886 -0.33112,-0.295881 l 0.26989,-0.573939 4.96919,2.33674 0.52933,-1.125652 z"
     style="font-style:normal;font-size:medium;text-anchor:middle;fill:none;fill-opacity:1;stroke:#000000;stroke-width:0.25;stroke-linecap:butt;stroke-linejoin:bevel;stroke-dasharray:none;stroke-opacity:1"
     id="path932"
     inkscape:connector-curvature="0" />
  <path
     d="m 119.44811,22.214207 -0.41616,0.884975 -1.0553,-0.496251 0.41615,-0.884975 z m 3.08075,1.448712 -0.41616,0.884975 -1.0553,-0.496252 0.41616,-0.884975 z"
     style="font-style:normal;font-size:medium;text-anchor:middle;fill:none;fill-opacity:1;stroke:#000000;stroke-width:0.25;stroke-linecap:butt;stroke-linejoin:bevel;stroke-dasharray:none;stroke-opacity:1"
     id="path934"
     inkscape:connector-curvature="0" />
  <path
     d="m 123.39624,17.270271 q 0.38509,0.181086 0.67069,0.487212 0.28561,0.306121 0.41137,0.663686 0.13383,0.388493 0.10042,0.824943 -0.0354,0.431004 -0.26349,0.916069 -0.21243,0.451745 -0.50546,0.824901 -0.28933,0.374883 -0.55845,0.601021 l -0.78129,-0.367402 0.0244,-0.05185 q 0.33533,-0.213091 0.66387,-0.555976 0.32483,-0.34463 0.50941,-0.737129 0.12362,-0.262902 0.16452,-0.54209 0.0426,-0.282899 -0.052,-0.56253 -0.0826,-0.2378 -0.26647,-0.423733 -0.18212,-0.18963 -0.47465,-0.327187 -0.28511,-0.134076 -0.52838,-0.126386 -0.24152,0.004 -0.44185,0.122301 -0.23126,0.126385 -0.41739,0.377972 -0.18812,0.246133 -0.34832,0.586797 -0.15323,0.32585 -0.25158,0.650369 -0.0966,0.320827 -0.15491,0.560192 l -2.84006,-1.33553 1.56014,-3.317729 0.648,0.304719 -1.22409,2.603081 1.46632,0.689529 q 0.06,-0.166202 0.13106,-0.336276 0.0711,-0.17003 0.12858,-0.292224 0.21069,-0.448044 0.44687,-0.748443 0.23248,-0.302144 0.55739,-0.493002 0.34296,-0.200454 0.74172,-0.21189 0.39876,-0.01144 0.88383,0.216664 z"
     style="font-style:normal;font-size:medium;text-anchor:middle;fill:none;fill-opacity:1;stroke:#000000;stroke-width:0.25;stroke-linecap:butt;stroke-linejoin:bevel;stroke-dasharray:none;stroke-opacity:1"
     id="path936"
     inkscape:connector-curvature="0" />
  <path
     inkscape:connector-curvature="0"
     style="fill:#000000;stroke:#000000;stroke-width:0.25;stroke-linecap:butt;stroke-linejoin:bevel;stroke-dasharray:none;stroke-opacity:1"
     id="path894"
     d="m 167.06207,24.729386 7.70372,11.85971 -8.22322,-9.414279 -11.34021,5.258292 z"
     class="arrow" />
  <path
     d="m 163.89084,32.241759 q -0.35726,-1.049246 0.10945,-1.950914 0.46365,-0.895484 1.46668,-1.237002 0.50844,-0.17312 0.97795,-0.157603 0.46951,0.01552 0.89389,0.216604 0.52814,0.248303 0.96099,0.807574 0.42824,0.560853 0.73199,1.45294 0.31161,0.915204 0.35827,1.688504 0.042,0.774874 -0.20054,1.471279 -0.22892,0.660809 -0.77225,1.170772 -0.54177,0.514583 -1.39688,0.805739 -0.27271,0.09286 -0.46547,0.13271 -0.19275,0.03986 -0.40273,0.04427 l -0.3006,-0.882838 0.0462,-0.01574 q 0.15301,0.02523 0.43695,-0.0044 0.28089,-0.02338 0.5536,-0.11624 0.99378,-0.338369 1.37296,-1.163818 0.38076,-0.82082 0.11742,-1.912366 -0.308,0.36794 -0.64148,0.615594 -0.33653,0.253857 -0.83111,0.422255 -0.43911,0.149512 -0.80024,0.179618 -0.36418,0.03632 -0.79888,-0.08906 -0.50276,-0.143459 -0.8525,-0.504076 -0.35437,-0.359053 -0.56369,-0.973806 z m 0.92571,-0.356497 q 0.14636,0.429865 0.37179,0.667752 0.2208,0.239462 0.58282,0.348315 0.26299,0.07552 0.53757,0.03361 0.27457,-0.04194 0.55653,-0.137941 0.39289,-0.133774 0.69882,-0.341148 0.30593,-0.207375 0.59576,-0.522656 -0.0254,-0.104846 -0.0538,-0.203477 -0.0268,-0.09407 -0.0756,-0.237309 -0.24867,-0.730308 -0.54137,-1.105191 -0.29575,-0.368691 -0.64263,-0.523962 -0.28187,-0.130979 -0.5599,-0.144634 -0.28109,-0.0075 -0.57229,0.09165 -0.67022,0.228203 -0.91537,0.765588 -0.24357,0.542004 0.0177,1.309297 z"
     style="font-style:normal;font-size:medium;text-anchor:middle;fill:none;fill-opacity:1;stroke:#000000;stroke-width:0.25;stroke-linecap:butt;stroke-linejoin:bevel;stroke-dasharray:none;stroke-opacity:1"
     id="path939"
     inkscape:connector-curvature="0" />
  <path
     d="m 160.33424,30.961381 1.10471,-0.376142 0.44854,1.317333 -1.10471,0.376141 z"
     style="font-style:normal;font-size:medium;text-anchor:middle;fill:none;fill-opacity:1;stroke:#000000;stroke-width:0.25;stroke-linecap:butt;stroke-linejoin:bevel;stroke-dasharray:none;stroke-opacity:1"
     id="path941"
     inkscape:connector-curvature="0" />
  <path
     d="m 160.08548,21.407193 -3.46468,-0.736024 0.1388,-0.653389 1.33258,0.283086 0.91135,-4.290005 -1.33257,-0.283087 0.12419,-0.584614 q 0.27082,0.05753 0.58943,0.08034 0.31954,0.0185 0.49687,-0.03372 0.22056,-0.06546 0.36703,-0.205066 0.15167,-0.142984 0.22823,-0.418746 l 0.66628,0.141543 -1.22549,5.768727 1.30678,0.277607 z"
     style="font-style:normal;font-size:medium;text-anchor:middle;fill:none;fill-opacity:1;stroke:#000000;stroke-width:0.25;stroke-linecap:butt;stroke-linejoin:bevel;stroke-dasharray:none;stroke-opacity:1"
     id="path944"
     inkscape:connector-curvature="0" />
  <path
     d="m 166.59188,20.619462 q -0.20729,0.975785 -0.98358,1.457804 -0.77108,0.478638 -1.70388,0.280479 -0.47285,-0.10045 -0.82868,-0.328786 -0.35581,-0.228343 -0.59124,-0.579357 -0.29389,-0.435321 -0.37081,-1.067148 -0.0726,-0.630915 0.10361,-1.460541 0.18081,-0.851127 0.50106,-1.470457 0.32457,-0.618425 0.83301,-1.045035 0.48146,-0.40538 1.1365,-0.549255 0.65595,-0.148178 1.45119,0.02076 0.25361,0.05388 0.42098,0.111923 0.16738,0.05805 0.33176,0.151342 l -0.17442,0.821038 -0.0429,-0.0091 q -0.10667,-0.09003 -0.33982,-0.197985 -0.22794,-0.111295 -0.48156,-0.165173 -0.9242,-0.196333 -1.5977,0.26709 -0.67258,0.459129 -0.97198,1.424324 0.40766,-0.14252 0.77959,-0.180318 0.37714,-0.04118 0.8371,0.05653 0.40836,0.08675 0.70142,0.229873 0.29828,0.139731 0.57657,0.43697 0.32258,0.342578 0.42679,0.782527 0.10851,0.440861 -0.0129,1.012573 z m -0.87993,-0.150944 q 0.0849,-0.399769 0.0203,-0.687557 -0.0603,-0.286874 -0.29008,-0.537838 -0.1685,-0.179555 -0.4001,-0.273685 -0.23159,-0.09408 -0.49381,-0.149784 -0.36538,-0.07762 -0.69744,-0.0583 -0.33207,0.01932 -0.70141,0.129535 -0.0289,0.09272 -0.0522,0.182093 -0.0222,0.08515 -0.0505,0.218396 -0.14429,0.679184 -0.0907,1.10387 0.0588,0.421315 0.25538,0.701193 0.15756,0.231146 0.36621,0.36981 0.21385,0.135292 0.48467,0.192823 0.6233,0.132412 1.06044,-0.170074 0.43806,-0.306778 0.58965,-1.020344 z"
     style="font-style:normal;font-size:medium;text-anchor:middle;fill:none;fill-opacity:1;stroke:#000000;stroke-width:0.25;stroke-linecap:butt;stroke-linejoin:bevel;stroke-dasharray:none;stroke-opacity:1"
     id="path946"
     inkscape:connector-curvature="0" />
  <path
     d="m 169.911,19.756649 -1.02736,-0.218249 0.26025,-1.225101 1.02737,0.218249 z m -0.75976,3.57644 -1.02737,-0.21825 0.26026,-1.225101 1.02736,0.21825 z"
     style="font-style:normal;font-size:medium;text-anchor:middle;fill:none;fill-opacity:1;stroke:#000000;stroke-width:0.25;stroke-linecap:butt;stroke-linejoin:bevel;stroke-dasharray:none;stroke-opacity:1"
     id="path948"
     inkscape:connector-curvature="0" />
  <path
     d="m 176.20356,22.661332 q -0.20729,0.975785 -0.98358,1.457805 -0.77107,0.478639 -1.70388,0.280478 -0.47285,-0.10045 -0.82867,-0.328783 -0.35582,-0.228345 -0.59124,-0.579357 -0.29389,-0.435322 -0.37082,-1.067151 -0.0726,-0.630915 0.10361,-1.460541 0.18081,-0.851127 0.50107,-1.470455 0.32456,-0.618427 0.83299,-1.045036 0.48147,-0.405381 1.13651,-0.549255 0.65595,-0.148179 1.45119,0.02076 0.25362,0.05388 0.42099,0.111924 0.16737,0.05805 0.33175,0.15134 l -0.17442,0.821038 -0.0429,-0.0091 q -0.10667,-0.09003 -0.33982,-0.197986 -0.22794,-0.111295 -0.48156,-0.165173 -0.9242,-0.196333 -1.5977,0.26709 -0.67258,0.459129 -0.97198,1.424325 0.40766,-0.142521 0.77959,-0.180319 0.37714,-0.04118 0.8371,0.05653 0.40836,0.08675 0.70142,0.229873 0.29827,0.139731 0.57657,0.43697 0.32258,0.342578 0.42679,0.782527 0.10851,0.440861 -0.0129,1.012573 z m -0.87993,-0.150944 q 0.0849,-0.399769 0.0203,-0.687557 -0.0603,-0.286874 -0.29007,-0.537836 -0.16851,-0.179557 -0.40011,-0.273687 -0.23159,-0.09408 -0.49381,-0.149784 -0.36538,-0.07762 -0.69744,-0.0583 -0.33207,0.01932 -0.70141,0.129535 -0.0289,0.09272 -0.0522,0.182093 -0.0222,0.08515 -0.0505,0.218396 -0.14429,0.679184 -0.0907,1.103872 0.0588,0.421313 0.25537,0.701191 0.15756,0.231146 0.36621,0.36981 0.21386,0.135294 0.48467,0.192823 0.6233,0.132412 1.06044,-0.170074 0.43806,-0.306778 0.58965,-1.020344 z"
     style="font-style:normal;font-size:medium;text-anchor:middle;fill:none;fill-opacity:1;stroke:#000000;stroke-width:0.25;stroke-linecap:butt;stroke-linejoin:bevel;stroke-dasharray:none;stroke-opacity:1"
     id="path950"
     inkscape:connector-curvature="0" />
  <path
     d="m 178.36315,25.290033 -1.02737,-0.218249 0.26026,-1.225101 1.02736,0.218249 z"
     style="font-style:normal;font-size:medium;text-anchor:middle;fill:none;fill-opacity:1;stroke:#000000;stroke-width:0.25;stroke-linecap:butt;stroke-linejoin:bevel;stroke-dasharray:none;stroke-opacity:1"
     id="path952"
     inkscape:connector-curvature="0" />
  <path
     d="m 61.426133,351.43656 -2.585818,0.34762 -1.324254,-9.52569 2.585818,-0.34762 0.09721,0.69927 -1.720564,0.2313 1.129832,8.12715 1.720564,-0.23129 z"
     style="font-style:normal;font-size:medium;text-anchor:middle;fill:none;fill-opacity:1;stroke:#000000;stroke-width:0.25;stroke-linecap:butt;stroke-linejoin:bevel;stroke-dasharray:none;stroke-opacity:1"
     id="path955"
     inkscape:connector-curvature="0" />
  <path
     d="m 67.410371,348.6794 -4.008019,0.5388 -0.10333,-0.74328 1.541545,-0.20723 -0.678443,-4.88021 -1.541545,0.20724 -0.09245,-0.66504 q 0.313281,-0.0421 0.664523,-0.13912 0.350561,-0.10191 0.520954,-0.22446 0.21175,-0.153 0.315209,-0.35619 0.107752,-0.20876 0.08345,-0.52929 l 0.770773,-0.10361 0.912295,6.56236 1.51171,-0.20322 z"
     style="font-style:normal;font-size:medium;text-anchor:middle;fill:none;fill-opacity:1;stroke:#000000;stroke-width:0.25;stroke-linecap:butt;stroke-linejoin:bevel;stroke-dasharray:none;stroke-opacity:1"
     id="path957"
     inkscape:connector-curvature="0" />
  <path
     d="m 74.090073,345.71417 q 0.131201,0.94376 -0.532666,1.67062 -0.658895,0.72619 -1.792677,0.87861 -1.203401,0.16177 -2.004449,-0.35321 -0.796075,-0.51565 -0.928636,-1.4692 -0.0843,-0.60636 0.205761,-1.14349 0.289377,-0.54202 0.900696,-0.9181 l -0.0041,-0.0293 q -0.640236,-0.23274 -0.980318,-0.56561 -0.33511,-0.33353 -0.412609,-0.89099 -0.114206,-0.82152 0.495893,-1.46144 0.610098,-0.63994 1.669289,-0.78233 1.108918,-0.14907 1.84303,0.28525 0.734112,0.43432 0.84628,1.24117 0.06866,0.49388 -0.178001,1.01522 -0.247342,0.51644 -0.816625,0.86695 l 0.0041,0.0293 q 0.73697,0.19982 1.164775,0.58067 0.427805,0.38085 0.520257,1.04589 z m -1.672754,-3.39659 q -0.07274,-0.52323 -0.528301,-0.77581 -0.451272,-0.25814 -1.087781,-0.17257 -0.626563,0.0842 -0.988568,0.43176 -0.35703,0.34688 -0.287689,0.84566 0.04895,0.35208 0.283884,0.58451 0.239232,0.22688 0.674867,0.37254 0.196229,0.0633 0.559061,0.15898 0.367805,0.095 0.708921,0.1438 0.447433,-0.38892 0.588131,-0.76151 0.140698,-0.37259 0.07748,-0.82736 z m 0.661288,3.6272 q -0.06254,-0.44988 -0.303813,-0.69141 -0.236978,-0.24711 -0.861829,-0.44207 -0.248674,-0.0762 -0.540063,-0.13163 -0.291392,-0.0555 -0.776966,-0.15956 -0.414235,0.29977 -0.630633,0.74729 -0.211423,0.44687 -0.139364,0.96521 0.09177,0.66014 0.614059,1.02828 0.522287,0.36816 1.233387,0.27256 0.726018,-0.0976 1.107661,-0.5225 0.386615,-0.42558 0.297561,-1.06617 z"
     style="font-style:normal;font-size:medium;text-anchor:middle;fill:none;fill-opacity:1;stroke:#000000;stroke-width:0.25;stroke-linecap:butt;stroke-linejoin:bevel;stroke-dasharray:none;stroke-opacity:1"
     id="path959"
     inkscape:connector-curvature="0" />
  <path
     d="m 78.691447,349.11556 -2.585819,0.34762 -0.09721,-0.69927 1.720564,-0.23129 -1.129832,-8.12716 -1.720564,0.2313 -0.09721,-0.69927 2.585818,-0.34761 z"
     style="font-style:normal;font-size:medium;text-anchor:middle;fill:none;fill-opacity:1;stroke:#000000;stroke-width:0.25;stroke-linecap:butt;stroke-linejoin:bevel;stroke-dasharray:none;stroke-opacity:1"
     id="path961"
     inkscape:connector-curvature="0" />
  <path
     d="m 86.808985,346.07162 -2.923965,0.39307 -0.10333,-0.74328 0.969683,-0.13036 -0.805565,-5.79462 -0.969683,0.13035 -0.10333,-0.74328 2.923965,-0.39307 0.10333,0.74328 -0.969682,0.13036 0.805565,5.79462 0.969682,-0.13035 z"
     style="font-style:normal;font-size:medium;text-anchor:middle;fill:none;fill-opacity:1;stroke:#000000;stroke-width:0.25;stroke-linecap:butt;stroke-linejoin:bevel;stroke-dasharray:none;stroke-opacity:1"
     id="path963"
     inkscape:connector-curvature="0" />
  <path
     d="m 96.471001,344.77274 -4.008023,0.5388 -0.103331,-0.74328 1.541546,-0.20723 -0.678443,-4.8802 -1.541545,0.20723 -0.09245,-0.66504 q 0.313282,-0.0421 0.664523,-0.13911 0.350561,-0.10191 0.520954,-0.22446 0.21175,-0.153 0.31521,-0.35619 0.107751,-0.20876 0.08345,-0.52929 l 0.770773,-0.10362 0.912295,6.56236 1.511714,-0.20322 z"
     style="font-style:normal;font-size:medium;text-anchor:middle;fill:none;fill-opacity:1;stroke:#000000;stroke-width:0.25;stroke-linecap:butt;stroke-linejoin:bevel;stroke-dasharray:none;stroke-opacity:1"
     id="path965"
     inkscape:connector-curvature="0" />
  <path
     d="m 103.1507,341.80751 q 0.1312,0.94376 -0.53267,1.67062 -0.65889,0.72619 -1.79267,0.87861 -1.20341,0.16178 -2.004452,-0.35321 -0.796073,-0.51565 -0.928635,-1.4692 -0.0843,-0.60636 0.205758,-1.14349 0.289375,-0.54201 0.900695,-0.9181 l -0.0041,-0.0293 q -0.640238,-0.23274 -0.980317,-0.5656 -0.33511,-0.33353 -0.412608,-0.891 -0.114207,-0.82152 0.495894,-1.46144 0.6101,-0.63994 1.669292,-0.78232 1.108913,-0.14908 1.843033,0.28524 0.7341,0.43432 0.84627,1.24117 0.0687,0.49389 -0.178,1.01522 -0.24734,0.51644 -0.81663,0.86695 l 0.004,0.0294 q 0.73698,0.19981 1.16479,0.58066 0.42779,0.38085 0.52025,1.04589 z m -1.67275,-3.39659 q -0.0727,-0.52323 -0.52831,-0.7758 -0.45127,-0.25815 -1.08778,-0.17258 -0.626559,0.0842 -0.988565,0.43177 -0.357025,0.34688 -0.287685,0.84566 0.04895,0.35207 0.283882,0.5845 0.239226,0.22688 0.67486,0.37255 0.196235,0.0633 0.559068,0.15897 0.3678,0.095 0.70891,0.1438 0.44744,-0.38892 0.58814,-0.7615 0.1407,-0.37259 0.0775,-0.82737 z m 0.66128,3.62721 q -0.0625,-0.44988 -0.30381,-0.69142 -0.23697,-0.2471 -0.86183,-0.44206 -0.24868,-0.0762 -0.54007,-0.13163 -0.29138,-0.0555 -0.776954,-0.15957 -0.414242,0.29978 -0.630634,0.7473 -0.211422,0.44686 -0.139363,0.9652 0.09177,0.66015 0.614057,1.02829 0.522284,0.36815 1.233384,0.27256 0.72602,-0.0976 1.10766,-0.52251 0.38661,-0.42558 0.29756,-1.06616 z"
     style="font-style:normal;font-size:medium;text-anchor:middle;fill:none;fill-opacity:1;stroke:#000000;stroke-width:0.25;stroke-linecap:butt;stroke-linejoin:bevel;stroke-dasharray:none;stroke-opacity:1"
     id="path967"
     inkscape:connector-curvature="0" />
  <path
     style="fill:#e5e5e5;fill-opacity:1;stroke:#000000;stroke-width:0.25;stroke-linecap:butt;stroke-linejoin:bevel;stroke-dasharray:none;stroke-opacity:1"
     id="path2619"
     d="m 39.304593,442.18899 -10.279287,-0.13031 -0.218844,-76.37219 10.278373,-0.18727 z m 95.694867,-76.95553 10.27963,0.0996 0.45487,76.37156 -10.27777,0.21796 z m -95.985646,-24.538 -10.27928,-0.13025 -0.106728,-37.2026 10.278368,-0.18735 z m 95.855276,-20.97511 10.27928,0.13031 0.12946,45.19552 -10.27837,0.18728 z m -95.784255,45.77887 -10.279282,-0.13032 -0.07012,-24.48619 10.278376,-0.18725 z m -0.178661,-62.32396 1.934153,-9.92853 95.644803,16.49023 -1.61604,9.98339 z m 0.618171,215.70348 -10.279285,-0.1303 -0.218842,-76.37218 10.278375,-0.18727 z m 95.931845,-76.95619 10.27883,0.16102 -0.0171,76.37286 -10.2789,0.15654 z m -95.753335,139.28018 -10.279286,-0.13034 -0.106474,-37.20266 10.278374,-0.18724 z m 95.736115,-62.58976 10.27929,0.13031 0.12953,45.19555 -10.27838,0.18727 z m -95.843501,25.06952 -10.279284,-0.13027 -0.07021,-24.48619 10.278374,-0.18729 z m 95.973941,20.44361 1.67325,9.97427 -95.548784,17.02004 -1.991021,-9.91768 z"
     class="sticker"
     inkscape:connector-curvature="0" />
  <path
     d="m 139.1983,400.83216 q -0.46977,0.003 -0.89989,-0.16362 -0.43012,-0.16632 -0.72548,-0.45779 -0.31809,-0.31799 -0.49239,-0.76119 -0.16974,-0.43878 -0.1732,-1.02066 -0.003,-0.5419 0.11122,-1.0445 0.10994,-0.50259 0.27049,-0.84998 l 0.95309,-0.005 3.7e-4,0.0622 q -0.23272,0.36558 -0.39694,0.85515 -0.1597,0.48954 -0.1569,0.96037 0.002,0.31537 0.094,0.60801 0.0921,0.29709 0.31935,0.52676 0.19539,0.19433 0.46699,0.29049 0.27163,0.1006 0.62847,0.0986 0.34781,-0.002 0.5865,-0.12332 0.23871,-0.11686 0.38201,-0.32646 0.17027,-0.23196 0.23605,-0.56549 0.0703,-0.32912 0.0679,-0.73777 -0.002,-0.39087 -0.0587,-0.7548 -0.0563,-0.35947 -0.11211,-0.62123 l 3.46453,-0.0199 0.0237,3.97989 -0.79047,0.005 -0.0186,-3.12262 -1.78873,0.0103 q 0.0192,0.1909 0.0295,0.39073 0.0104,0.19983 0.0113,0.34642 0.003,0.53745 -0.0893,0.94221 -0.0879,0.40473 -0.32081,0.74366 -0.24632,0.35678 -0.63813,0.55449 -0.39182,0.1977 -0.98355,0.20111 z"
     style="font-style:normal;font-size:medium;text-anchor:middle;fill:none;fill-opacity:1;stroke:#000000;stroke-width:0.25;stroke-linecap:butt;stroke-linejoin:bevel;stroke-dasharray:none;stroke-opacity:1"
     id="path970"
     inkscape:connector-curvature="0" />
  <path
     d="m 140.83927,404.07424 -0.006,-1.06159 1.28735,-0.007 0.006,1.0616 z m -3.75815,0.0216 -0.006,-1.06159 1.28734,-0.007 0.006,1.0616 z"
     style="font-style:normal;font-size:medium;text-anchor:middle;fill:none;fill-opacity:1;stroke:#000000;stroke-width:0.25;stroke-linecap:butt;stroke-linejoin:bevel;stroke-dasharray:none;stroke-opacity:1"
     id="path972"
     inkscape:connector-curvature="0" />
  <path
     d="m 139.25744,410.76412 q -0.46977,0.003 -0.89989,-0.16363 -0.43012,-0.16631 -0.72547,-0.45778 -0.31809,-0.31799 -0.49239,-0.76119 -0.16974,-0.43877 -0.17321,-1.02066 -0.003,-0.5419 0.11122,-1.04451 0.10995,-0.50257 0.27049,-0.84998 l 0.95309,-0.005 3.7e-4,0.0622 q -0.23272,0.36558 -0.39694,0.85514 -0.1597,0.48953 -0.15689,0.96037 0.002,0.31538 0.094,0.60801 0.0921,0.29709 0.31934,0.52676 0.19539,0.19432 0.46699,0.29048 0.27164,0.10061 0.62847,0.0986 0.34781,-0.002 0.5865,-0.12332 0.23871,-0.11686 0.38202,-0.32647 0.17027,-0.23196 0.23604,-0.56548 0.0703,-0.32912 0.0679,-0.73776 -0.002,-0.39089 -0.0587,-0.75481 -0.0563,-0.35948 -0.11211,-0.62123 l 3.46454,-0.02 0.0237,3.9799 -0.79047,0.005 -0.0186,-3.12261 -1.78873,0.0103 q 0.0192,0.19089 0.0295,0.39072 0.0104,0.19983 0.0113,0.34641 0.003,0.53747 -0.0893,0.94222 -0.088,0.40472 -0.32082,0.74366 -0.24632,0.35678 -0.63813,0.55448 -0.39182,0.19771 -0.98354,0.20111 z"
     style="font-style:normal;font-size:medium;text-anchor:middle;fill:none;fill-opacity:1;stroke:#000000;stroke-width:0.25;stroke-linecap:butt;stroke-linejoin:bevel;stroke-dasharray:none;stroke-opacity:1"
     id="path974"
     inkscape:connector-curvature="0" />
  <path
     d="m 37.126878,327.88372 0.01027,3.58017 -0.686593,0.002 -0.004,-1.37698 -4.508031,0.0125 0.0039,1.37699 -0.61432,0.002 q -8.03e-4,-0.27983 -0.04689,-0.59953 -0.0506,-0.31967 -0.141418,-0.48377 -0.113512,-0.20402 -0.285492,-0.31904 -0.17651,-0.11944 -0.470169,-0.13639 l -0.002,-0.68849 6.0619,-0.0168 -0.0039,-1.35034 z"
     style="font-style:normal;font-size:medium;text-anchor:middle;fill:none;fill-opacity:1;stroke:#000000;stroke-width:0.25;stroke-linecap:butt;stroke-linejoin:bevel;stroke-dasharray:none;stroke-opacity:1"
     id="path977"
     inkscape:connector-curvature="0" />
  <path
     d="m 35.216098,321.56814 0.0028,0.98166 1.892649,-0.005 0.0024,0.85284 -1.892649,0.005 0.0091,3.16709 -1.038925,0.003 -3.803521,-3.19209 -0.0023,-0.81731 4.110529,-0.0114 -0.0028,-0.98165 z m -0.717468,1.83651 -3.035467,0.008 3.042819,2.55456 z"
     style="font-style:normal;font-size:medium;text-anchor:middle;fill:none;fill-opacity:1;stroke:#000000;stroke-width:0.25;stroke-linecap:butt;stroke-linejoin:bevel;stroke-dasharray:none;stroke-opacity:1"
     id="path979"
     inkscape:connector-curvature="0" />
  <path
     d="m 33.341809,318.52617 0.003,1.06162 -1.287362,0.004 -0.003,-1.06162 z m 3.758197,-0.0104 0.003,1.06162 -1.287363,0.004 -0.003,-1.06162 z"
     style="font-style:normal;font-size:medium;text-anchor:middle;fill:none;fill-opacity:1;stroke:#000000;stroke-width:0.25;stroke-linecap:butt;stroke-linejoin:bevel;stroke-dasharray:none;stroke-opacity:1"
     id="path981"
     inkscape:connector-curvature="0" />
  <path
     d="m 37.081773,312.15939 0.01027,3.58017 -0.686593,0.002 -0.004,-1.37698 -4.50803,0.0125 0.0039,1.37699 -0.61432,0.002 q -8.03e-4,-0.27983 -0.04688,-0.59953 -0.05061,-0.31968 -0.141419,-0.48377 -0.113512,-0.20402 -0.285492,-0.31903 -0.176509,-0.11944 -0.470169,-0.1364 l -0.002,-0.68849 6.0619,-0.0168 -0.0039,-1.35034 z"
     style="font-style:normal;font-size:medium;text-anchor:middle;fill:none;fill-opacity:1;stroke:#000000;stroke-width:0.25;stroke-linecap:butt;stroke-linejoin:bevel;stroke-dasharray:none;stroke-opacity:1"
     id="path983"
     inkscape:connector-curvature="0" />
  <path
     d="m 138.90859,338.09063 q -0.46977,0.001 -0.89938,-0.1663 -0.4296,-0.1676 -0.72405,-0.45995 -0.31711,-0.31895 -0.49003,-0.76266 -0.16839,-0.43929 -0.17006,-1.02117 -0.002,-0.54192 0.11446,-1.04418 0.11148,-0.50225 0.2731,-0.84917 l 0.9531,-0.003 1.8e-4,0.0622 q -0.23385,0.36489 -0.39957,0.85396 -0.16122,0.48906 -0.15987,0.9599 9e-4,0.31538 0.0921,0.60829 0.0912,0.29735 0.31771,0.52771 0.1948,0.19491 0.46611,0.29188 0.27131,0.10141 0.62816,0.10042 0.34782,-9.6e-4 0.58688,-0.12156 0.23907,-0.11615 0.38301,-0.32532 0.17099,-0.23146 0.23779,-0.56479 0.0713,-0.32889 0.0701,-0.73755 -0.001,-0.39089 -0.0563,-0.75497 -0.0552,-0.35965 -0.11019,-0.62158 l 3.46459,-0.01 0.0114,3.97994 -0.7905,0.002 -0.009,-3.12265 -1.78876,0.005 q 0.0186,0.19095 0.0283,0.39082 0.01,0.19985 0.0102,0.34644 0.002,0.53747 -0.0922,0.94194 -0.0892,0.40446 -0.32311,0.7427 -0.24741,0.35604 -0.63984,0.55257 -0.39242,0.19654 -0.98416,0.19818 z"
     style="font-style:normal;font-size:medium;text-anchor:middle;fill:none;fill-opacity:1;stroke:#000000;stroke-width:0.25;stroke-linecap:butt;stroke-linejoin:bevel;stroke-dasharray:none;stroke-opacity:1"
     id="path986"
     inkscape:connector-curvature="0" />
  <path
     d="m 140.53954,341.33761 -0.003,-1.06162 1.28737,-0.004 0.003,1.06162 z m -3.7582,0.0104 -0.003,-1.06162 1.28736,-0.004 0.003,1.06163 z"
     style="font-style:normal;font-size:medium;text-anchor:middle;fill:none;fill-opacity:1;stroke:#000000;stroke-width:0.25;stroke-linecap:butt;stroke-linejoin:bevel;stroke-dasharray:none;stroke-opacity:1"
     id="path988"
     inkscape:connector-curvature="0" />
  <path
     d="m 138.98266,348.17362 q -1.02538,0.003 -1.67774,-0.66164 -0.64784,-0.66006 -0.6506,-1.62395 -0.001,-0.48861 0.15103,-0.88881 0.15244,-0.4002 0.4542,-0.70752 0.37383,-0.38305 0.99207,-0.59353 0.61825,-0.20604 1.49004,-0.20846 0.89438,-0.002 1.58602,0.18217 0.69166,0.18909 1.23038,0.6007 0.51155,0.38947 0.79788,1.00611 0.29087,0.61662 0.29322,1.43837 7.5e-4,0.26207 -0.0213,0.43981 -0.0221,0.17774 -0.0803,0.36002 l -0.86276,0.002 -1.3e-4,-0.0444 q 0.0674,-0.12456 0.1254,-0.37791 0.0625,-0.24893 0.0618,-0.51099 -0.003,-0.95502 -0.61417,-1.52189 -0.6069,-0.56689 -1.64158,-0.65729 0.23144,0.37248 0.34991,0.73195 0.12301,0.36389 0.12437,0.83917 0.001,0.42198 -0.0792,0.74203 -0.0759,0.32447 -0.3143,0.66271 -0.27443,0.39165 -0.69395,0.58826 -0.41952,0.20106 -1.02028,0.20272 z m -0.0388,-0.9016 q 0.42009,-10e-4 0.69528,-0.12631 0.2752,-0.12069 0.47766,-0.4011 0.14397,-0.20473 0.18842,-0.45359 0.0444,-0.24887 0.0436,-0.51983 -10e-4,-0.37757 -0.0924,-0.70158 -0.0913,-0.324 -0.28198,-0.66551 -0.0994,-0.009 -0.19426,-0.0128 -0.0904,-0.004 -0.23038,-0.003 -0.7137,0.002 -1.12886,0.14526 -0.41064,0.14772 -0.64932,0.40158 -0.19816,0.20488 -0.29234,0.44056 -0.0897,0.24011 -0.0889,0.51995 0.002,0.64407 0.40041,1.01165 0.40307,0.36757 1.1529,0.36549 z"
     style="font-style:normal;font-size:medium;text-anchor:middle;fill:none;fill-opacity:1;stroke:#000000;stroke-width:0.25;stroke-linecap:butt;stroke-linejoin:bevel;stroke-dasharray:none;stroke-opacity:1"
     id="path990"
     inkscape:connector-curvature="0" />
  <path
     d="m 136.80861,350.86702 -0.003,-1.06163 1.28736,-0.004 0.003,1.06162 z"
     style="font-style:normal;font-size:medium;text-anchor:middle;fill:none;fill-opacity:1;stroke:#000000;stroke-width:0.25;stroke-linecap:butt;stroke-linejoin:bevel;stroke-dasharray:none;stroke-opacity:1"
     id="path992"
     inkscape:connector-curvature="0" />
  <path
     d="m 81.253958,308.62943 -3.586065,-0.61828 0.118572,-0.66503 1.379252,0.2378 0.778513,-4.36643 -1.379252,-0.23779 0.10609,-0.59503 q 0.280295,0.0483 0.608435,0.0598 0.328921,0.007 0.509143,-0.052 0.224167,-0.0741 0.369491,-0.2204 0.15055,-0.14992 0.219053,-0.43124 l 0.689626,0.1189 -1.046859,5.87149 1.352564,0.2332 z"
     style="font-style:normal;font-size:medium;text-anchor:middle;fill:none;fill-opacity:1;stroke:#000000;stroke-width:0.25;stroke-linecap:butt;stroke-linejoin:bevel;stroke-dasharray:none;stroke-opacity:1"
     id="path995"
     inkscape:connector-curvature="0" />
  <path
     d="m 87.433914,309.69492 -4.484801,-0.77323 0.163036,-0.91441 q 0.537369,-0.31323 1.074747,-0.62645 0.541822,-0.31245 1.016126,-0.63204 0.999343,-0.6665 1.400262,-1.08893 0.401701,-0.4268 0.500772,-0.98246 0.09049,-0.50751 -0.201398,-0.85097 -0.286651,-0.34706 -0.896192,-0.45215 -0.404877,-0.0698 -0.901456,-0.0111 -0.496578,0.0587 -0.997436,0.26997 l -0.04455,-0.008 0.163815,-0.91878 q 0.343206,-0.0987 0.89083,-0.13503 0.55208,-0.0356 1.045939,0.0496 1.018873,0.17566 1.510684,0.76103 0.492591,0.58099 0.345156,1.40791 -0.0663,0.37188 -0.221935,0.67877 -0.150393,0.30327 -0.388735,0.55982 -0.221877,0.24135 -0.504489,0.4632 -0.278168,0.22262 -0.668805,0.48447 -0.557969,0.37732 -1.142411,0.72302 -0.58366,0.34131 -1.08966,0.63289 l 3.563822,0.61444 z"
     style="font-style:normal;font-size:medium;text-anchor:middle;fill:none;fill-opacity:1;stroke:#000000;stroke-width:0.25;stroke-linecap:butt;stroke-linejoin:bevel;stroke-dasharray:none;stroke-opacity:1"
     id="path997"
     inkscape:connector-curvature="0" />
  <path
     d="m 91.286378,306.60708 -1.06337,-0.18334 0.222321,-1.24692 1.06337,0.18333 z m -0.649021,3.64015 -1.06337,-0.18334 0.222321,-1.24692 1.063369,0.18333 z"
     style="font-style:normal;font-size:medium;text-anchor:middle;fill:none;fill-opacity:1;stroke:#000000;stroke-width:0.25;stroke-linecap:butt;stroke-linejoin:bevel;stroke-dasharray:none;stroke-opacity:1"
     id="path999"
     inkscape:connector-curvature="0" />
  <path
     d="m 97.004179,311.34494 -3.586065,-0.61828 0.118571,-0.66503 1.379252,0.2378 0.778513,-4.36643 -1.379252,-0.23779 0.106091,-0.59503 q 0.280295,0.0483 0.608435,0.0598 0.328921,0.007 0.509143,-0.052 0.224166,-0.0741 0.369491,-0.2204 0.15055,-0.14992 0.219052,-0.43124 l 0.689626,0.1189 -1.046858,5.87149 1.352563,0.2332 z"
     style="font-style:normal;font-size:medium;text-anchor:middle;fill:none;fill-opacity:1;stroke:#000000;stroke-width:0.25;stroke-linecap:butt;stroke-linejoin:bevel;stroke-dasharray:none;stroke-opacity:1"
     id="path1001"
     inkscape:connector-curvature="0" />
  <path
     d="m 139.43557,474.64954 q -0.46978,-10e-5 -0.89886,-0.16899 -0.42908,-0.16889 -0.72263,-0.46211 -0.31612,-0.31989 -0.48768,-0.76412 -0.16702,-0.43979 -0.16689,-1.02168 1.2e-4,-0.54191 0.11767,-1.04382 0.11304,-0.50191 0.27573,-0.84835 l 0.95311,2e-4 -1e-5,0.0622 q -0.23498,0.36418 -0.40222,0.85276 -0.16272,0.48857 -0.16283,0.95942 -7e-5,0.31537 0.0902,0.60856 0.0903,0.29762 0.31608,0.52866 0.19418,0.19547 0.46518,0.29325 0.27101,0.10223 0.62786,0.10231 0.34781,8e-5 0.58724,-0.1198 0.23943,-0.11544 0.38403,-0.32418 0.1717,-0.23094 0.23954,-0.56407 0.0723,-0.32869 0.0724,-0.73734 9e-5,-0.39089 -0.054,-0.75514 -0.0541,-0.35981 -0.10827,-0.6219 l 3.4646,7.5e-4 -9e-4,3.97996 -0.79048,-1.7e-4 7e-4,-3.12266 -1.78876,-3.9e-4 q 0.018,0.191 0.0271,0.3909 0.009,0.19988 0.009,0.34646 -1.2e-4,0.53748 -0.0951,0.94167 -0.0904,0.40419 -0.3254,0.74173 -0.24852,0.3553 -0.64154,0.55066 -0.39304,0.19536 -0.98477,0.19523 z"
     style="font-style:normal;font-size:medium;text-anchor:middle;fill:none;fill-opacity:1;stroke:#000000;stroke-width:0.25;stroke-linecap:butt;stroke-linejoin:bevel;stroke-dasharray:none;stroke-opacity:1"
     id="path1004"
     inkscape:connector-curvature="0" />
  <path
     d="m 141.05648,477.90138 2.3e-4,-1.06163 1.28737,2.8e-4 -2.4e-4,1.06163 z m -3.75822,-8.2e-4 2.4e-4,-1.06162 1.28737,2.8e-4 -2.4e-4,1.06162 z"
     style="font-style:normal;font-size:medium;text-anchor:middle;fill:none;fill-opacity:1;stroke:#000000;stroke-width:0.25;stroke-linecap:butt;stroke-linejoin:bevel;stroke-dasharray:none;stroke-opacity:1"
     id="path1006"
     inkscape:connector-curvature="0" />
  <path
     d="m 137.29684,484.25694 8e-4,-3.58018 0.6866,1.5e-4 -3.1e-4,1.37699 4.50804,9.8e-4 3.1e-4,-1.37699 0.61432,1.3e-4 q -6e-5,0.27984 0.045,0.59967 0.0496,0.31983 0.13992,0.48419 0.11288,0.20436 0.28451,0.31989 0.17613,0.11996 0.46974,0.1378 l -1.5e-4,0.68849 -6.06192,-10e-4 -3.1e-4,1.35034 z"
     style="font-style:normal;font-size:medium;text-anchor:middle;fill:none;fill-opacity:1;stroke:#000000;stroke-width:0.25;stroke-linecap:butt;stroke-linejoin:bevel;stroke-dasharray:none;stroke-opacity:1"
     id="path1008"
     inkscape:connector-curvature="0" />
  <path
     d="m 137.29545,490.42676 0.001,-4.47744 0.94406,2e-4 q 0.40643,0.46649 0.81287,0.93298 0.40643,0.47093 0.80836,0.87523 0.83998,0.85303 1.33228,1.16851 0.49681,0.31549 1.07047,0.31561 0.52399,1.1e-4 0.81767,-0.34185 0.29821,-0.33752 0.29834,-0.94606 9e-5,-0.40421 -0.14434,-0.87509 -0.14445,-0.47087 -0.44248,-0.91957 l 1e-5,-0.0444 0.94859,2.1e-4 q 0.15803,0.31542 0.2889,0.83959 0.13088,0.52862 0.13077,1.02167 -2.3e-4,1.0172 -0.50175,1.59454 -0.49701,0.57734 -1.35073,0.57716 -0.38396,-9e-5 -0.7182,-0.0979 -0.32972,-0.0934 -0.62781,-0.27998 -0.28002,-0.17329 -0.551,-0.40877 -0.27097,-0.23105 -0.60064,-0.56426 -0.47419,-0.47538 -0.92126,-0.98186 -0.44257,-0.50648 -0.8219,-0.94632 l -8e-4,3.55798 z"
     style="font-style:normal;font-size:medium;text-anchor:middle;fill:none;fill-opacity:1;stroke:#000000;stroke-width:0.25;stroke-linecap:butt;stroke-linejoin:bevel;stroke-dasharray:none;stroke-opacity:1"
     id="path1010"
     inkscape:connector-curvature="0" />
  <path
     d="m 37.815978,568.39104 0.01025,3.58017 -0.686593,0.002 -0.0039,-1.37699 -4.508031,0.0125 0.0039,1.377 -0.61432,0.002 q -8.01e-4,-0.27985 -0.04688,-0.59953 -0.0506,-0.31968 -0.141415,-0.48379 -0.113511,-0.20401 -0.28549,-0.31902 -0.176509,-0.11945 -0.470168,-0.1364 l -0.002,-0.6885 6.0619,-0.0168 -0.0039,-1.35033 z"
     style="font-style:normal;font-size:medium;text-anchor:middle;fill:none;fill-opacity:1;stroke:#000000;stroke-width:0.25;stroke-linecap:butt;stroke-linejoin:bevel;stroke-dasharray:none;stroke-opacity:1"
     id="path1013"
     inkscape:connector-curvature="0" />
  <path
     d="m 35.905237,562.07545 0.0028,0.98166 1.892649,-0.005 0.0024,0.85285 -1.892649,0.005 0.0091,3.16707 -1.038924,0.003 -3.803502,-3.19212 -0.0023,-0.8173 4.110529,-0.0114 -0.0028,-0.98166 z m -0.717479,1.83651 -3.035467,0.008 3.042803,2.55457 z"
     style="font-style:normal;font-size:medium;text-anchor:middle;fill:none;fill-opacity:1;stroke:#000000;stroke-width:0.25;stroke-linecap:butt;stroke-linejoin:bevel;stroke-dasharray:none;stroke-opacity:1"
     id="path1015"
     inkscape:connector-curvature="0" />
  <path
     d="m 34.030967,559.03347 0.003,1.06161 -1.287363,0.004 -0.003,-1.06161 z m 3.758198,-0.0104 0.003,1.06161 -1.287363,0.004 -0.003,-1.06161 z"
     style="font-style:normal;font-size:medium;text-anchor:middle;fill:none;fill-opacity:1;stroke:#000000;stroke-width:0.25;stroke-linecap:butt;stroke-linejoin:bevel;stroke-dasharray:none;stroke-opacity:1"
     id="path1017"
     inkscape:connector-curvature="0" />
  <path
     d="m 35.876809,552.14336 0.0028,0.98166 1.89265,-0.005 0.0024,0.85285 -1.892649,0.005 0.0091,3.16707 -1.038925,0.003 -3.803501,-3.19211 -0.0023,-0.81731 4.110529,-0.0114 -0.0028,-0.98166 z m -0.71748,1.83651 -3.035467,0.008 3.042803,2.55457 z"
     style="font-style:normal;font-size:medium;text-anchor:middle;fill:none;fill-opacity:1;stroke:#000000;stroke-width:0.25;stroke-linecap:butt;stroke-linejoin:bevel;stroke-dasharray:none;stroke-opacity:1"
     id="path1019"
     inkscape:connector-curvature="0" />
  <path
     d="m 139.47485,535.73948 q -0.46977,0.001 -0.89937,-0.1663 -0.42961,-0.1676 -0.72405,-0.45995 -0.31712,-0.31895 -0.49004,-0.76266 -0.16839,-0.43928 -0.17006,-1.02118 -0.002,-0.54191 0.11445,-1.04417 0.11149,-0.50224 0.27311,-0.84917 l 0.9531,-0.003 1.8e-4,0.0622 q -0.23385,0.36489 -0.39957,0.85396 -0.16122,0.48906 -0.15987,0.95991 9e-4,0.31537 0.0921,0.60828 0.0912,0.29736 0.31772,0.52772 0.19479,0.1949 0.4661,0.29187 0.27131,0.10141 0.62816,0.10042 0.34782,-9.6e-4 0.58688,-0.12156 0.23907,-0.11615 0.38301,-0.32532 0.17099,-0.23146 0.23779,-0.56479 0.0713,-0.32889 0.0701,-0.73755 -0.001,-0.39089 -0.0563,-0.75497 -0.0552,-0.35965 -0.11019,-0.62157 l 3.46459,-0.01 0.0114,3.97995 -0.79049,0.002 -0.009,-3.12265 -1.78876,0.005 q 0.0186,0.19095 0.0283,0.39082 0.01,0.19985 0.0102,0.34644 0.002,0.53747 -0.0922,0.94194 -0.0892,0.40446 -0.32311,0.7427 -0.24741,0.35604 -0.63984,0.55258 -0.39242,0.19653 -0.98416,0.19817 z"
     style="font-style:normal;font-size:medium;text-anchor:middle;fill:none;fill-opacity:1;stroke:#000000;stroke-width:0.25;stroke-linecap:butt;stroke-linejoin:bevel;stroke-dasharray:none;stroke-opacity:1"
     id="path1022"
     inkscape:connector-curvature="0" />
  <path
     d="m 141.1058,538.98646 -0.003,-1.06162 1.28736,-0.004 0.003,1.06162 z m -3.7582,0.0104 -0.003,-1.06162 1.28736,-0.004 0.003,1.06162 z"
     style="font-style:normal;font-size:medium;text-anchor:middle;fill:none;fill-opacity:1;stroke:#000000;stroke-width:0.25;stroke-linecap:butt;stroke-linejoin:bevel;stroke-dasharray:none;stroke-opacity:1"
     id="path1024"
     inkscape:connector-curvature="0" />
  <path
     d="m 137.36582,545.35323 -0.0103,-3.58017 0.6866,-0.002 0.004,1.37698 4.50803,-0.0125 -0.004,-1.37699 0.61432,-0.002 q 8e-4,0.27984 0.0468,0.59953 0.0506,0.31968 0.14142,0.48378 0.11352,0.20401 0.2855,0.31903 0.17651,0.11944 0.47016,0.1364 l 0.002,0.68849 -6.0619,0.0168 0.004,1.35034 z"
     style="font-style:normal;font-size:medium;text-anchor:middle;fill:none;fill-opacity:1;stroke:#000000;stroke-width:0.25;stroke-linecap:butt;stroke-linejoin:bevel;stroke-dasharray:none;stroke-opacity:1"
     id="path1026"
     inkscape:connector-curvature="0" />
  <path
     d="m 140.62058,550.93217 q -0.19363,0.21375 -0.48684,0.35226 -0.29321,0.13851 -0.75847,0.1398 -0.46074,0.001 -0.84517,-0.16201 -0.38441,-0.16329 -0.66985,-0.4601 -0.31715,-0.33227 -0.47202,-0.78491 -0.15035,-0.44823 -0.15189,-0.9857 -0.002,-0.55079 0.13241,-1.08419 0.12946,-0.5334 0.28658,-0.87586 l 0.94406,-0.003 1.9e-4,0.0666 q -0.25187,0.37827 -0.41754,0.88955 -0.16567,0.51128 -0.16431,0.98656 8.1e-4,0.27984 0.0966,0.59495 0.0958,0.31511 0.28153,0.51004 0.19933,0.20378 0.43902,0.30084 0.23969,0.10151 0.60558,0.10049 0.36136,-10e-4 0.59591,-0.11714 0.23909,-0.11172 0.37403,-0.31198 0.13946,-0.20027 0.18833,-0.48469 0.0533,-0.28443 0.0524,-0.61313 l -0.001,-0.39978 0.74983,-0.002 8.9e-4,0.31094 q 0.002,0.67517 0.28765,1.07415 0.29025,0.40341 0.84134,0.40189 0.24392,-6.8e-4 0.4243,-0.10334 0.18492,-0.10268 0.30184,-0.28512 0.11689,-0.19133 0.16144,-0.40911 0.0445,-0.21778 0.0437,-0.49317 -0.001,-0.42199 -0.15615,-0.89684 -0.15494,-0.47486 -0.43621,-0.89607 l -1.3e-4,-0.0444 0.94407,-0.003 q 0.159,0.31493 0.2915,0.83872 0.13703,0.52821 0.13844,1.02126 0.001,0.48416 -0.0879,0.85309 -0.0893,0.36893 -0.28719,0.66709 -0.2159,0.32041 -0.52259,0.48562 -0.30669,0.1652 -0.71774,0.16634 -0.56012,0.002 -0.98132,-0.38817 -0.41669,-0.38529 -0.52661,-0.91358 l -0.0632,1.8e-4 q -0.0356,0.2133 -0.15218,0.48903 -0.11214,0.27571 -0.28323,0.46719 z"
     style="font-style:normal;font-size:medium;text-anchor:middle;fill:none;fill-opacity:1;stroke:#000000;stroke-width:0.25;stroke-linecap:butt;stroke-linejoin:bevel;stroke-dasharray:none;stroke-opacity:1"
     id="path1028"
     inkscape:connector-curvature="0" />
  <path
     d="m 93.912991,573.3954 3.582467,-0.63814 0.122381,0.66436 -1.377872,0.24544 0.803527,4.36204 1.377872,-0.24544 0.109499,0.59443 q -0.280019,0.0499 -0.591998,0.15055 -0.311172,0.10504 -0.459518,0.22179 -0.184329,0.1457 -0.269297,0.33237 -0.08861,0.19184 -0.05405,0.47911 l -0.688937,0.12272 -1.080494,-5.8656 -1.351203,0.24069 z"
     style="font-style:normal;font-size:medium;text-anchor:middle;fill:none;fill-opacity:1;stroke:#000000;stroke-width:0.25;stroke-linecap:butt;stroke-linejoin:bevel;stroke-dasharray:none;stroke-opacity:1"
     id="path1031"
     inkscape:connector-curvature="0" />
  <path
     d="m 88.898781,577.52526 q -0.247969,-0.14994 -0.43809,-0.40949 -0.190119,-0.25956 -0.273049,-0.70975 -0.08212,-0.44582 0.0139,-0.84664 0.09602,-0.4008 0.343093,-0.72921 0.276996,-0.36534 0.702986,-0.5947 0.422351,-0.2242 0.960165,-0.32 0.551149,-0.0982 1.108673,-0.0621 0.556718,0.0317 0.927144,0.12376 l 0.168272,0.91348 -0.06667,0.0119 q -0.42289,-0.17746 -0.963827,-0.24813 -0.540936,-0.0707 -1.016524,0.014 -0.280019,0.0499 -0.578686,0.1979 -0.298667,0.14801 -0.461227,0.36203 -0.169033,0.22874 -0.224145,0.47781 -0.05956,0.24986 0.0057,0.6039 0.06441,0.34966 0.221842,0.55636 0.153791,0.21186 0.377958,0.30735 0.224973,0.0999 0.518293,0.0973 0.294119,0.002 0.623031,-0.0569 l 0.400027,-0.0712 0.133652,0.72555 -0.311132,0.0554 q -0.675602,0.12034 -1.024906,0.46695 -0.352944,0.35178 -0.254715,0.88503 0.04348,0.23601 0.177911,0.39263 0.135241,0.161 0.33841,0.24218 0.212055,0.0796 0.4379,0.0845 0.225836,0.005 0.50141,-0.0442 0.422252,-0.0752 0.870466,-0.30854 0.448214,-0.23332 0.820546,-0.57952 l 0.04445,-0.008 0.168285,0.91356 q -0.287396,0.20919 -0.788528,0.42937 -0.50477,0.22534 -0.998137,0.31323 -0.484478,0.0863 -0.869496,0.0646 -0.385019,-0.0217 -0.718242,-0.16096 -0.358668,-0.1528 -0.577874,-0.42072 -0.219206,-0.26792 -0.292473,-0.66566 -0.09984,-0.54198 0.216424,-1.01813 0.31262,-0.471 0.822222,-0.67012 l -0.01127,-0.0612 q -0.219797,0.003 -0.516296,-0.0615 -0.295705,-0.0602 -0.517424,-0.19223 z"
     style="font-style:normal;font-size:medium;text-anchor:middle;fill:none;fill-opacity:1;stroke:#000000;stroke-width:0.25;stroke-linecap:butt;stroke-linejoin:bevel;stroke-dasharray:none;stroke-opacity:1"
     id="path1033"
     inkscape:connector-curvature="0" />
  <path
     d="m 85.208892,578.70167 1.062294,-0.18922 0.229464,1.24567 -1.062295,0.18923 z m -0.669875,-3.63649 1.062295,-0.18923 0.229464,1.24568 -1.062295,0.18922 z"
     style="font-style:normal;font-size:medium;text-anchor:middle;fill:none;fill-opacity:1;stroke:#000000;stroke-width:0.25;stroke-linecap:butt;stroke-linejoin:bevel;stroke-dasharray:none;stroke-opacity:1"
     id="path1035"
     inkscape:connector-curvature="0" />
  <path
     d="m 78.178583,576.19816 3.582467,-0.63814 0.122381,0.66436 -1.377871,0.24544 0.803526,4.36204 1.377872,-0.24544 0.109499,0.59443 q -0.280019,0.0499 -0.591997,0.15055 -0.311174,0.10504 -0.459519,0.22179 -0.184329,0.1457 -0.269298,0.33237 -0.08861,0.19184 -0.05405,0.47911 l -0.688936,0.12272 -1.080494,-5.8656 -1.351204,0.24069 z"
     style="font-style:normal;font-size:medium;text-anchor:middle;fill:none;fill-opacity:1;stroke:#000000;stroke-width:0.25;stroke-linecap:butt;stroke-linejoin:bevel;stroke-dasharray:none;stroke-opacity:1"
     id="path1037"
     inkscape:connector-curvature="0" />
</svg>
