<?xml version="1.0" encoding="UTF-8" standalone="no"?>
<svg
   version="1.1"
   width="320.00mm"
   height="620.00mm"
   viewBox="0 0 320.00 620.00"
   id="svg4782"
   sodipodi:docname="backrest_page8.svg"
   inkscape:version="1.1.1 (c3084ef, 2021-09-22)"
   xmlns:inkscape="http://www.inkscape.org/namespaces/inkscape"
   xmlns:sodipodi="http://sodipodi.sourceforge.net/DTD/sodipodi-0.dtd"
   xmlns="http://www.w3.org/2000/svg"
   xmlns:svg="http://www.w3.org/2000/svg">
  <defs
     id="defs4786" />
  <sodipodi:namedview
     id="namedview4784"
     pagecolor="#ffffff"
     bordercolor="#666666"
     borderopacity="1.0"
     inkscape:pageshadow="2"
     inkscape:pageopacity="0.0"
     inkscape:pagecheckerboard="0"
     inkscape:document-units="mm"
     showgrid="false"
     inkscape:zoom="0.33926411"
     inkscape:cx="257.91116"
     inkscape:cy="1112.7024"
     inkscape:window-width="1296"
     inkscape:window-height="975"
     inkscape:window-x="0"
     inkscape:window-y="25"
     inkscape:window-maximized="0"
     inkscape:current-layer="svg4782" />
  <style
     type="text/css"
     id="style4734">
    path {
        fill: none;
        stroke-linecap: butt;
        stroke-linejoin: bevel;
        stroke-dasharray: none;
    }
    path.outer {
        stroke: #000000;
        stroke-dasharray: none;
        stroke-dashoffset: 0;
        stroke-width: 0.3;
        stroke-opacity: 1.0;
    }
    path.convex {
        stroke: #000000;
        stroke-dasharray: 0.50,1.00;
        stroke-dashoffset:0;
        stroke-width:0.2;
        stroke-opacity: 1.0
    }
    path.concave {
        stroke: #000000;
        stroke-dasharray: 1.00,0.50,0.20,0.50;
        stroke-dashoffset: 0;
        stroke-width: 0.2;
        stroke-opacity: 1.0
    }
    path.freestyle {
        stroke: #000000;
        stroke-dasharray: none;
        stroke-dashoffset: 0;
        stroke-width: 0.2;
        stroke-opacity: 1.0
    }
    path.outer_background {
        stroke: #ffffff;
        stroke-opacity: 1.0;
        stroke-width: 0.5
    }
    path.inner_background {
        stroke: #ffffff;
        stroke-opacity: 1.0;
        stroke-width: 0.2
    }
    path.sticker {
        fill: #e5e5e5;
        stroke: none;
        fill-opacity: 1.0;
    }
    path.arrow {
        fill: #000000;
    }
    text {
        font-style: normal;
        fill: #000000;
        fill-opacity: 1.0;
        stroke: none;
    }
    text, tspan {
        text-anchor:middle;
    }
    </style>
  <g
     id="g4889"
     transform="rotate(-15.758431,167.6152,-34.569271)">
    <text
       style="font-size:10px"
       id="text4738"
       x="127.92784"
       y="293.51288"><tspan
         id="tspan4736">[9.] I 9</tspan></text>
    <path
       class="sticker"
       d="m 81.321359,298.30927 -9.07474,-4.20401 38.371141,-86.3584 9.20231,3.91692 z m -16.887129,97.28163 -9.605743,-2.78465 12.056671,-44.17293 9.688482,2.48155 z m -37.760241,92.26258 -8.964141,-4.43496 22.446062,-47.22097 9.099022,4.15121 z m 177.054061,-261.24583 9.79432,2.02382 -20.5619,108.04882 -9.85308,-1.71512 z M 51.377099,598.0508 47.358956,607.20936 5.854618,589.77231 9.5831,580.49206 Z M 9.5831,580.49206 0,577.31759 l 16.811447,-91.1239 9.862542,1.65979 z m 110.23697,-368.82828 4.49801,-9.35626 81.0087,14.42751 -1.59873,9.87262 z m 41.77209,216.34913 9.05261,4.2514 -19.48553,43.24374 -9.18172,-3.96496 z m 21.51523,-93.04774 9.69227,2.46674 -11.23315,47.22833 -9.76496,-2.1611 z m -133.852458,105.38359 -9.419747,-3.36053 15.078399,-44.46031 9.520646,3.06298 z m 92.722588,31.19433 8.6862,4.95724 -23.77545,43.2232 -8.83763,-4.68195 z m -65.40388,-120.42822 -9.945758,-1.05193 4.719586,-52.49265 9.973891,0.73898 z m 95.22791,31.38427 9.72317,2.34205 -10.14065,45.20719 -9.79191,-2.03547 z m -96.915854,213.51694 0.705779,9.9763 -23.195572,2.00763 -1.018804,-9.94921 z m 43.164944,-80.9745 8.7506,4.84269 -43.017152,80.69725 -8.898392,-4.56544 z"
       id="path4740" />
    <path
       class="outer"
       d="m 181.52472,384.84119 -10.14065,45.20719 -9.79191,-2.03547 9.05261,4.2514 -19.48553,43.24374 -9.18172,-3.96496 8.6862,4.95724 -23.77545,43.2232 -8.83763,-4.68195 8.7506,4.84269 -43.017152,80.69725 -8.898392,-4.56544 0.705779,9.9763 -23.195572,2.00763 -1.018804,-9.94921 -4.018143,9.15856 L 5.854618,589.77231 9.5831,580.49206 0,577.31759 l 16.811447,-91.1239 9.862542,1.65979 -8.964141,-4.43496 22.446062,-47.22097 9.099022,4.15121 -9.419747,-3.36053 15.078399,-44.46031 9.520646,3.06298 -9.605743,-2.78465 12.056671,-44.17293 9.688482,2.48155 -9.945758,-1.05193 4.719586,-52.49265 9.973891,0.73898 -9.07474,-4.20401 38.371141,-86.3584 9.20231,3.91692 4.49801,-9.35626 81.0087,14.42751 -1.59873,9.87262 9.79432,2.02382 -20.5619,108.04882 -9.85308,-1.71512 9.69227,2.46674 -11.23315,47.22833 -9.76496,-2.1611 z"
       id="path4742" />
    <text
       transform="rotate(-66.043241)"
       style="font-size:9px"
       id="text4746"
       x="-192.18359"
       y="193.6433"><tspan
         id="tspan4744">4:4</tspan></text>
    <text
       transform="rotate(100.77467)"
       style="font-size:9px"
       id="text4750"
       x="239.67726"
       y="-244.29996"><tspan
         id="tspan4748">7:2</tspan></text>
    <text
       transform="rotate(-157.21148)"
       style="font-size:9px"
       id="text4754"
       x="-256.34384"
       y="-533.2674"><tspan
         id="tspan4752">11:7</tspan></text>
    <g
       id="g4762">
      <path
         transform="matrix(1.814282,-9.834043,9.834043,1.814282,18.128544,534.17276)"
         class="arrow"
         d="M 0,0 1,1 0,0.25 -1,1 Z"
         id="path4756" />
      <text
         transform="translate(26.979182,539.80561)"
         style="font-size:10px"
         id="text4760"><tspan
           id="tspan4758">1</tspan></text>
    </g>
    <text
       transform="rotate(-79.54705)"
       style="font-size:9px"
       id="text4766"
       x="-522.0188"
       y="112.94155"><tspan
         id="tspan4764">4:1</tspan></text>
    <text
       transform="rotate(10.098388)"
       style="font-size:9px"
       id="text4770"
       x="197.69106"
       y="185.57547"><tspan
         id="tspan4768">15:1</tspan></text>
    <text
       transform="rotate(175.05324)"
       style="font-size:9px"
       id="text4774"
       x="-11.414044"
       y="-602.05353"><tspan
         id="tspan4772">11:10</tspan></text>
    <text
       transform="rotate(118.06066)"
       style="font-size:9px"
       id="text4778"
       x="444.84726"
       y="-348.2525"><tspan
         id="tspan4776">7:8</tspan></text>
  </g>
  <g
     id="g5829"
     transform="rotate(8.6475191,149.39207,442.39941)">
    <text
       style="font-size:10px"
       id="text5477"
       x="83.912331"
       y="338.76227"><tspan
         id="tspan5475">[10] I 10</tspan></text>
    <path
       class="sticker"
       d="m 72.730422,598.15103 -9.622946,2.72462 -27.169213,-90.50939 9.532601,-3.02552 z M 47.423229,454.3581 l -9.924129,1.23942 -6.387353,-45.34104 9.880304,-1.55052 z m -15.842393,-91.96743 -9.550035,2.97007 -16.309172,-49.67556 9.452045,-3.26857 z m 119.487314,121.4288 9.99072,-0.45833 6.76579,109.77958 -9.97138,0.77191 z M 9.906948,218.36203 l -2.527863,-9.67651 43.372616,-12.06139 2.83055,9.59232 z m 5.266726,94.05458 -9.993136,0.40224 L 0,220.30318 9.906948,218.36203 Z m 142.679606,281.49602 0.3404,9.99543 -82.18159,4.09195 -3.281668,-9.84898 z m -30.35516,-250.76884 9.60858,-2.77486 13.87407,45.35654 -9.51667,3.07532 z m 18.35164,92.09514 9.95958,-0.91185 5.18483,48.26818 -9.92602,1.22421 z m -104.857709,-26.53297 -9.831011,1.83736 -9.348661,-46.00745 9.768457,-2.1452 z m 68.258269,-111.73181 9.35774,-3.52958 18.1323,45.87746 -9.24224,3.82176 z m -63.779456,210.36659 -9.987429,-0.52523 1.940802,-52.66866 9.998992,0.21125 z m 95.993236,-118.53995 9.97047,-0.78382 4.35613,46.12534 -9.94094,1.09662 z m -87.881849,-182.58434 2.2659,-9.74118 22.75692,4.91804 -1.958803,9.80752 z m 23.064017,4.98438 9.403289,-3.40631 32.492413,85.47964 -9.29165,3.69999 z"
       id="path5479" />
    <path
       class="outer"
       d="m 137.1067,340.36893 13.87407,45.35654 -9.51667,3.07532 9.97047,-0.78382 4.35613,46.12534 -9.94094,1.09662 9.95958,-0.91185 5.18483,48.26818 -9.92602,1.22421 9.99072,-0.45833 6.76579,109.77958 -9.97138,0.77191 0.3404,9.99543 -82.18159,4.09195 -3.281668,-9.84898 -9.622946,2.72462 -27.169213,-90.50939 9.532601,-3.02552 -9.987429,-0.52523 1.940802,-52.66866 9.998992,0.21125 -9.924129,1.23942 -6.387353,-45.34104 9.880304,-1.55052 -9.831011,1.83736 -9.348661,-46.00745 9.768457,-2.1452 -9.550035,2.97007 -16.309172,-49.67556 9.452045,-3.26857 -9.993136,0.40224 L 0,220.30318 l 9.906948,-1.94115 -2.527863,-9.67651 43.372616,-12.06139 2.83055,9.59232 2.2659,-9.74118 22.75692,4.91804 -1.958803,9.80752 9.403289,-3.40631 32.492413,85.47964 -9.29165,3.69999 9.35774,-3.52958 18.1323,45.87746 -9.24224,3.82176 z"
       id="path5481" />
    <text
       transform="rotate(-106.70875)"
       style="font-size:9px"
       id="text5485"
       x="-546.3999"
       y="-104.11276"><tspan
         id="tspan5483">4:1</tspan></text>
    <text
       transform="rotate(86.47328)"
       style="font-size:9px"
       id="text5489"
       x="547.34711"
       y="-122.82047"><tspan
         id="tspan5487">8:2</tspan></text>
    <text
       transform="rotate(-15.54059)"
       style="font-size:9px"
       id="text5493"
       x="-26.29261"
       y="211.23318"><tspan
         id="tspan5491">11:2</tspan></text>
    <g
       id="g5501">
      <path
         transform="matrix(-0.559089,-9.984359,9.984359,-0.559089,12.540326,265.38932)"
         class="arrow"
         d="M 0,0 1,1 0,0.25 -1,1 Z"
         id="path5495" />
      <text
         transform="translate(21.526247,268.88615)"
         style="font-size:10px"
         id="text5499"><tspan
           id="tspan5497">1</tspan></text>
    </g>
    <text
       transform="rotate(-93.205021)"
       style="font-size:9px"
       id="text5505"
       x="-265.67529"
       y="-4.1169262"><tspan
         id="tspan5503">4:1</tspan></text>
    <text
       transform="rotate(177.14951)"
       style="font-size:9px"
       id="text5509"
       x="-85.508545"
       y="-602.8277"><tspan
         id="tspan5507">16:1</tspan></text>
    <text
       transform="rotate(12.194684)"
       style="font-size:9px"
       id="text5513"
       x="107.73138"
       y="188.44489"><tspan
         id="tspan5511">11:5</tspan></text>
    <text
       transform="rotate(69.187256)"
       style="font-size:9px"
       id="text5517"
       x="270.53329"
       y="1.5980252"><tspan
         id="tspan5515">8:8</tspan></text>
  </g>
</svg>
