<?xml version="1.0" encoding="UTF-8" standalone="no"?>
<svg
   version="1.1"
   width="300.00mm"
   height="600.00mm"
   viewBox="0 0 300.00 600.00"
   id="svg5022"
   sodipodi:docname="bottom_page5.svg"
   inkscape:version="1.1.1 (c3084ef, 2021-09-22)"
   xmlns:inkscape="http://www.inkscape.org/namespaces/inkscape"
   xmlns:sodipodi="http://sodipodi.sourceforge.net/DTD/sodipodi-0.dtd"
   xmlns="http://www.w3.org/2000/svg"
   xmlns:svg="http://www.w3.org/2000/svg">
  <defs
     id="defs5026" />
  <sodipodi:namedview
     id="namedview5024"
     pagecolor="#ffffff"
     bordercolor="#666666"
     borderopacity="1.0"
     inkscape:pageshadow="2"
     inkscape:pageopacity="0.0"
     inkscape:pagecheckerboard="0"
     inkscape:document-units="mm"
     showgrid="false"
     inkscape:zoom="0.25292865"
     inkscape:cx="638.52"
     inkscape:cy="848.06526"
     inkscape:window-width="1792"
     inkscape:window-height="975"
     inkscape:window-x="0"
     inkscape:window-y="25"
     inkscape:window-maximized="1"
     inkscape:current-layer="svg5022" />
  <style
     type="text/css"
     id="style4754">
    path {
        fill: none;
        stroke-linecap: butt;
        stroke-linejoin: bevel;
        stroke-dasharray: none;
    }
    path.outer {
        stroke: #000000;
        stroke-dasharray: none;
        stroke-dashoffset: 0;
        stroke-width: 0.3;
        stroke-opacity: 1.0;
    }
    path.convex {
        stroke: #000000;
        stroke-dasharray: 0.50,1.00;
        stroke-dashoffset:0;
        stroke-width:0.2;
        stroke-opacity: 1.0
    }
    path.concave {
        stroke: #000000;
        stroke-dasharray: 1.00,0.50,0.20,0.50;
        stroke-dashoffset: 0;
        stroke-width: 0.2;
        stroke-opacity: 1.0
    }
    path.freestyle {
        stroke: #000000;
        stroke-dasharray: none;
        stroke-dashoffset: 0;
        stroke-width: 0.2;
        stroke-opacity: 1.0
    }
    path.outer_background {
        stroke: #ffffff;
        stroke-opacity: 1.0;
        stroke-width: 0.5
    }
    path.inner_background {
        stroke: #ffffff;
        stroke-opacity: 1.0;
        stroke-width: 0.2
    }
    path.sticker {
        fill: #e5e5e5;
        stroke: none;
        fill-opacity: 1.0;
    }
    path.arrow {
        fill: #000000;
    }
    text {
        font-style: normal;
        fill: #000000;
        fill-opacity: 1.0;
        stroke: none;
    }
    text, tspan {
        text-anchor:middle;
    }
    </style>
  <g
     id="g4872"
     transform="translate(0,9.5250005)">
    <text
       transform="translate(146.53992,216.39026)"
       style="font-size:10px"
       id="text4758"><tspan
         id="tspan4756">[1] I 1</tspan></text>
    <path
       class="sticker"
       d="m 256.20082,573.00004 -0.15708,9.99999 h -75.07122 l -0.15709,-9.99999 z m -74.60171,-138.34974 0.15711,-10.00002 74.28752,10e-6 0.15708,10.00001 z m 96.4807,27.84756 9.99999,0.15708 v 24.05948 l -9.99999,0.15709 z m -261.066077,0.009 -10.00002,-0.15637 -0.00194,-27.53338 9.99999,-0.1578 z m -0.0037,-52.34545 -10.00002,-0.15637 -0.00229,-32.22847 9.99999,-0.15781 z m 140.204457,162.83837 -0.073,4.64421 h -9.14252 l -0.0729,-4.64421 z m -9.28843,0 -9.98916,-0.49129 0.77321,-23.11799 9.99966,0.17726 z m 130.15374,-23.43202 7.20191,6.93953 -21.66456,23.20236 -7.41634,-6.70987 z m 0,-62.69651 9.99999,0.15708 v 62.38234 l -9.99999,0.15709 z m -261.064075,3.94389 -10.00002,-0.15638 -0.00197,-27.99409 9.99999,-0.15781 z m 239.185085,-56.1651 7.96041,-6.05448 21.68489,27.60051 -7.7663,6.30153 z m -75.38539,138.34974 -0.1571,9.99999 h -23.28675 l -0.15708,-9.99999 z m -22.81727,-195.39027 10.00001,0.15709 -2e-5,32.22845 -10,0.15709 z m -140.986389,57.0498 -10.00002,-0.15638 -0.0017,-24.18372 9.999991,-0.1578 z m 140.986379,-24.50717 7.31066,-6.82487 23.38299,24.27161 -7.09269,7.05116 z m -9.28837,139.41562 -4.2177,9.0684 -131.407122,-58.62462 3.930777,-9.1964 z m 32.10568,-367.34849 0.15709,-10.00002 75.07122,3e-5 0.15709,9.99999 z m 75.38539,138.34974 -0.15711,10.00002 -74.28752,-3e-5 -0.15709,-9.99999 z m 21.87899,-52.22118 9.99999,0.15712 v 24.05942 l -9.99999,0.15711 z m -261.076145,52.23042 -10.00002,-0.1564 -0.00194,-27.53335 9.999991,-0.15781 z m 0.004,57.04051 -10.00002,-0.15637 -0.00226,-32.22844 9.99999,-0.1578 z m 130.918415,-195.3992 0.0729,-4.64422 9.14252,-3e-5 0.073,4.64422 z m 0.78374,23.43202 -9.99966,0.17726 -0.77324,-23.11799 9.98916,-0.49129 z m 107.49101,-23.43205 7.41634,-6.70987 21.66459,23.20239 -7.20194,6.93953 z m 21.87899,23.43205 9.99999,0.15708 v 62.38235 l -9.99999,0.15708 z m -261.078117,87.07937 -10.00002,-0.15637 -0.002,-27.9941 9.99999,-0.1578 z m 261.078117,-0.009 7.76628,6.30153 -21.68489,27.60049 -7.96038,-6.05449 z m -120.86531,-110.50221 0.15708,-10.00002 h 23.28676 l 0.15709,10.00002 z m 0.78363,162.84762 10.00001,0.15709 v 32.22844 l -10.00001,0.15709 z m -140.992742,0.009 -10.00002,-0.15638 -0.0017,-24.18372 9.999991,-0.1578 z m 164.593712,-24.50714 7.09268,7.05111 -23.38297,24.27164 -7.31068,-6.82487 z M 16.999696,264.42268 13.068263,255.22655 144.4915,196.58347 l 4.21834,9.06811 z"
       id="path4760" />
    <path
       class="convex"
       d="m 278.07981,549.56802 v -62.69651 m -129.37,-3e-5 -3e-5,62.69654 m 32.10565,23.43202 h 75.38539 m 0,-138.34974 h -74.60171 m 96.4807,27.84756 -21.87899,-27.84756 m -107.491,0 -1e-5,27.84756 m 129.37,24.37365 v -24.37365 m -129.37,0 v 24.37362 m 9.28834,62.69654 -0.78365,23.43202 m 0,0 h 23.60093 m 75.38539,0 21.87899,-23.43202 m -130.15374,23.43202 h 9.28843 M 148.70982,410.1524 v 24.4979 m 32.88929,0 -23.60096,-24.4979 m 1e-5,-32.54263 v -32.54262 m -9.28834,0 v 32.54262 m 0,0 v 32.54263 m 9.28833,0 1e-5,-32.54263 M 278.07984,268.34809 v -62.69651 m -129.37,0 10e-6,62.69651 m 107.491,-86.12856 h -75.38539 m 0.78367,138.34974 h 74.60172 m 0,0 21.87899,-27.84753 m -129.37002,-3e-5 v 27.84756 m 129.37002,-27.84753 v -24.37365 m -129.36999,0 -3e-5,24.37362 m 32.10564,-110.50218 h -23.60093 m 0,0 0.78365,23.43205 m 120.08166,0 -21.87899,-23.43205 m -98.98632,0 -9.28843,3e-5 m 10.07206,162.84759 23.60097,-24.49788 m -32.88931,0 v 24.49788"
       id="path4762" />
    <path
       class="concave"
       d="m 148.70978,549.56802 -0.78371,23.43202 m 3e-5,-390.78048 0.78374,23.43202 m -131.698074,229.00799 0.002,27.84755 m 0,0 0.002,28.30828 m -0.0057,-80.65373 0.0017,24.4979 m -0.0063,-89.58316 0.0023,32.54261 m 0,0 0.0023,32.54265 m -0.01034,-145.73899 0.002,28.30827 m 0,0 0.002,27.84756 m 0,0 0.0017,24.4979 M 148.70984,205.65158 16.999696,264.42268 m 0.01603,226.39272 131.694054,58.75262"
       id="path4764" />
    <path
       class="outer"
       d="m 180.97255,172.21951 75.07122,3e-5 0.15708,9.99999 7.41634,-6.70987 21.66459,23.20239 -7.20194,6.93953 9.99999,0.15708 v 62.38235 l -9.99999,0.15708 9.99999,0.15712 v 24.05942 l -9.99999,0.15711 7.76628,6.30153 -21.68489,27.60049 -7.96038,-6.05449 -0.15711,10.00002 -74.28752,-3e-5 -0.15709,-9.99999 7.09268,7.05111 -23.38297,24.27164 -7.31068,-6.82487 10.00001,0.15709 v 32.22844 l -10.00001,0.15709 10.00001,0.15709 -2e-5,32.22845 -10,0.15709 7.31066,-6.82487 23.38299,24.27161 -7.09269,7.05116 0.15711,-10.00002 74.28752,10e-6 0.15708,10.00001 7.96041,-6.05448 21.68489,27.60051 -7.76631,6.30153 9.99999,0.15708 v 24.05948 l -9.99999,0.15709 9.99999,0.15708 v 62.38234 l -9.99999,0.15709 7.20191,6.93953 -21.66456,23.20236 -7.41634,-6.70987 -0.15708,9.99999 h -75.07122 l -0.15709,-9.99999 -0.1571,9.99999 h -23.28675 l -0.15708,-9.99999 -0.073,4.64421 h -9.14252 l -0.0729,-4.64421 -9.98916,-0.49129 0.77321,-23.11799 9.99966,0.17726 -4.2177,9.0684 -131.407127,-58.62462 3.930777,-9.1964 -10.00002,-0.15638 -0.00197,-27.99409 9.99999,-0.15781 -10.00002,-0.15637 -0.00194,-27.53338 9.99999,-0.1578 -10.00002,-0.15638 -0.0017,-24.18372 9.999991,-0.1578 -10.00002,-0.15637 -0.00229,-32.22847 9.99999,-0.15781 -10.00002,-0.15637 -0.00226,-32.22844 9.99999,-0.1578 -10.00002,-0.15638 -0.0017,-24.18372 9.999991,-0.1578 -10.00002,-0.1564 -0.00194,-27.53335 9.999991,-0.15781 -10.00002,-0.15637 -0.002,-27.9941 9.99999,-0.1578 -3.931433,-9.19613 131.42324,-58.64308 4.21834,9.06811 -9.99966,0.17726 -0.77324,-23.11799 9.98916,-0.49129 0.0729,-4.64422 9.14252,-3e-5 0.073,4.64422 0.15708,-10.00002 h 23.28676 l 0.15709,10.00002 z"
       id="path4766" />
    <text
       transform="rotate(180,109.25406,287.40002)"
       style="font-size:9px"
       id="text4770"><tspan
         id="tspan4768">6.:3</tspan></text>
    <text
       transform="translate(218.89997,432.8503)"
       style="font-size:9px"
       id="text4774"><tspan
         id="tspan4772">17:1</tspan></text>
    <text
       transform="rotate(180,76.285141,286.918)"
       style="font-size:4.18px"
       id="text4778"><tspan
         id="tspan4776">6.:4</tspan></text>
    <text
       transform="rotate(-88.08436,363.41386,204.86125)"
       style="font-size:9px"
       id="text4782"><tspan
         id="tspan4780">12:2</tspan></text>
    <text
       transform="rotate(133.03694,12.042069,339.56873)"
       style="font-size:9px"
       id="text4786"><tspan
         id="tspan4784">11:2</tspan></text>
    <g
       id="g4794">
      <path
         transform="matrix(-7.04e-4,-10,10,-7.04e-4,17.014747,476.66126)"
         class="arrow"
         d="M 0,0 1,1 0,0.25 -1,1 Z"
         id="path4788" />
      <text
         transform="translate(26.014746,480.66063)"
         style="font-size:10px"
         id="text4792"><tspan
           id="tspan4790">1</tspan></text>
    </g>
    <text
       transform="rotate(-90.004011,245.92138,230.72385)"
       style="font-size:9px"
       id="text4798"><tspan
         id="tspan4796">8:1</tspan></text>
    <text
       transform="rotate(51.844334,-326.0246,499.99344)"
       style="font-size:9px"
       id="text4802"><tspan
         id="tspan4800">11:4</tspan></text>
    <text
       transform="matrix(0.6938,0.720167,-0.720167,0.6938,171.09494,421.15251)"
       style="font-size:9px"
       id="text4806"><tspan
         id="tspan4804">14:3</tspan></text>
    <g
       id="g4814">
      <path
         transform="matrix(-9.132394,-4.074231,4.074231,-9.132394,82.862754,520.19169)"
         class="arrow"
         d="M 0,0 1,1 0,0.25 -1,1 Z"
         id="path4808" />
      <text
         transform="translate(86.529565,515.97254)"
         style="font-size:10px"
         id="text4812"><tspan
           id="tspan4810">2</tspan></text>
    </g>
    <text
       transform="matrix(-0.913239,-0.407423,0.407423,-0.913239,82.129394,521.83553)"
       style="font-size:9px"
       id="text4818"><tspan
         id="tspan4816">12:2</tspan></text>
    <text
       transform="translate(218.50816,180.41953)"
       style="font-size:9px"
       id="text4822"><tspan
         id="tspan4820">7:3</tspan></text>
    <text
       transform="rotate(180,109.44999,161.18464)"
       style="font-size:9px"
       id="text4826"><tspan
         id="tspan4824">18:1</tspan></text>
    <text
       transform="rotate(-1.7188734e-4,60461192,-1723.0925)"
       style="font-size:4.18px"
       id="text4830"><tspan
         id="tspan4828">7:4</tspan></text>
    <text
       transform="rotate(-91.915698,167.06725,26.147782)"
       style="font-size:9px"
       id="text4834"><tspan
         id="tspan4832">13:2</tspan></text>
    <text
       transform="rotate(46.963097,-87.565152,405.329)"
       style="font-size:9px"
       id="text4838"><tspan
         id="tspan4836">10:2</tspan></text>
    <g
       id="g4846">
      <path
         transform="matrix(-7.15e-4,-9.999999,9.999999,-7.15e-4,17.00071,278.57682)"
         class="arrow"
         d="M 0,0 1,1 0,0.25 -1,1 Z"
         id="path4840" />
      <text
         transform="translate(26.000709,282.57617)"
         style="font-size:10px"
         id="text4844"><tspan
           id="tspan4842">3</tspan></text>
    </g>
    <text
       transform="rotate(-90.004125,146.87879,131.68866)"
       style="font-size:9px"
       id="text4850"><tspan
         id="tspan4848">8:3</tspan></text>
    <text
       transform="rotate(128.15567,59.484781,219.14484)"
       style="font-size:9px"
       id="text4854"><tspan
         id="tspan4852">10:4</tspan></text>
    <text
       transform="matrix(-0.6938,0.720167,-0.720167,-0.6938,171.09496,334.06704)"
       style="font-size:9px"
       id="text4858"><tspan
         id="tspan4856">14:6.</tspan></text>
    <g
       id="g4866">
      <path
         transform="matrix(9.132103,-4.074886,4.074886,9.132103,82.854767,235.03711)"
         class="arrow"
         d="M 0,0 1,1 0,0.25 -1,1 Z"
         id="path4860" />
      <text
         transform="translate(86.522167,247.25601)"
         style="font-size:10px"
         id="text4864"><tspan
           id="tspan4862">4</tspan></text>
    </g>
    <text
       transform="rotate(-24.047198,588.9656,-76.087853)"
       style="font-size:9px"
       id="text4870"><tspan
         id="tspan4868">13:4</tspan></text>
  </g>
  <g
     id="g4327"
     transform="rotate(-89.997677,-65.202491,246.64534)">
    <text
       style="font-size:10px"
       id="text4155"
       x="89.22831"
       y="392.30957"><tspan
         id="tspan4153">[8] I 8</tspan></text>
    <path
       class="sticker"
       d="m 164.96604,573.00002 -0.15711,10.00001 h -40.12245 l -0.15708,-10.00001 z m 0,-56.15583 10,0.15709 -1e-5,27.5334 -9.99999,0.15709 z m 0,-57.04049 10,0.15708 v 32.22844 l -10,0.15709 z m 0,84.88807 9.99999,0.15708 v 27.99409 l -9.99999,0.15708 z m 0,-52.34546 10,0.15709 v 24.1837 l -10,0.15709 z M 15.000005,492.3463 5,492.18921 v -32.22846 l 10.000005,-0.15708 z m 0,52.34544 L 5,544.53465 v -27.53338 l 10.000005,-0.15709 z m 0,-27.84756 L 5,516.68709 v -24.18371 l 10.000005,-0.15708 z m 0,56.15583 L 5,572.84292 v -27.99409 l 10.000005,-0.15709 z M 124.52941,346.60734 124.6865,336.60733 h 40.12246 l 0.15709,10.00002 z m 40.43664,28.30827 9.99999,0.15709 v 27.53338 l -9.99999,0.15709 z m 0,52.34545 9.99999,0.15711 v 32.22842 l -10,0.15711 z m 0,-80.65371 10.00001,0.15709 -2e-5,27.99408 -9.99999,0.15709 z m 0,56.15582 9.99999,0.1571 v 24.18369 l -9.99999,0.1571 z M 15.000005,459.80367 5,459.64658 l 1.5e-5,-32.22844 10.000005,-0.15711 z m 1.5e-5,-57.04052 -10.000005,-0.15709 v -27.53338 l 10.000005,-0.15709 z m 0,24.49788 -10.000005,-0.1571 v -24.18369 l 10.000005,-0.15709 z m 0,-52.34544 -10.000005,-0.1571 v -27.99408 l 10.000005,-0.15709 z m 109.52938,198.08443 -0.15711,10.00001 -109.215197,-2e-5 -0.157088,-10 z M 15.00002,346.60732 15.157108,336.60733 H 124.37232 l 0.15709,10.00001 z"
       id="path4157" />
    <path
       class="concave"
       d="m 15.000005,492.3463 v 24.49788 m 0,0 v 27.84756 m 0,0 v 28.30827 m 0,0 109.529395,10e-6 M 15.00002,427.26103 l -1.5e-5,32.54264 m 0,0 v 32.54263 m 1.5e-5,-117.43071 v 27.84756 m 0,0 v 24.49788 m 109.52939,-80.65369 -109.52939,-2e-5 m 0,0 v 28.30827 m 149.96602,84.88811 1e-5,-32.54264 m -1e-5,65.08525 V 459.8037 m 1e-5,-84.88809 v -28.30826 m 0,0 -40.43664,-10e-6 m -1e-5,226.39268 h 40.43664 m 0,0 v -28.30825 m 1e-5,-141.9286 v -27.84756 m -1e-5,169.77616 v -27.84758 m 1e-5,-89.58313 v -24.49789 m -1e-5,114.08102 v -24.49788"
       id="path4159" />
    <path
       class="outer"
       d="M 5,516.68709 V 492.50338 L 15.000005,492.3463 5,492.18921 V 459.96075 L 15.000005,459.80367 5,459.64658 5.000015,427.41814 15.00002,427.26103 5.000015,427.10393 V 402.92024 L 15.00002,402.76315 5.000015,402.60606 v -27.53338 l 10.000005,-0.15709 -10.000005,-0.1571 v -27.99408 l 10.000005,-0.15709 0.157088,-9.99999 H 124.37232 l 0.15709,10.00001 0.15709,-10.00001 h 40.12246 l 0.15709,10.00002 10.00001,0.15709 -2e-5,27.99408 -9.99999,0.15709 9.99999,0.15709 v 27.53338 l -9.99999,0.15709 9.99999,0.1571 v 24.18369 l -9.99999,0.1571 9.99999,0.15711 v 32.22842 l -10,0.15711 10,0.15708 v 32.22844 l -10,0.15709 10,0.15709 v 24.1837 l -10,0.15709 10,0.15709 -1e-5,27.5334 -9.99999,0.15709 9.99999,0.15708 v 27.99409 l -9.99999,0.15708 -0.15711,10.00001 h -40.12245 l -0.15708,-10.00001 -0.15711,10.00001 -109.215197,-2e-5 -0.157088,-10 L 5,572.84292 V 544.84883 L 15.000005,544.69174 5,544.53465 v -27.53338 l 10.000005,-0.15709 z"
       id="path4161" />
    <text
       transform="scale(-1)"
       style="font-size:9px"
       id="text4165"
       x="-144.74771"
       y="-574.80005"><tspan
         id="tspan4163">12:1</tspan></text>
    <text
       transform="rotate(90)"
       style="font-size:9px"
       id="text4169"
       x="558.84589"
       y="-166.76604"><tspan
         id="tspan4167">1:1</tspan></text>
    <text
       transform="rotate(-90)"
       style="font-size:9px"
       id="text4173"
       x="-558.84589"
       y="13.20001"><tspan
         id="tspan4171">5:2</tspan></text>
    <text
       style="font-size:9px"
       id="text4177"
       x="144.74774"
       y="344.80734"><tspan
         id="tspan4175">13:1</tspan></text>
    <text
       transform="rotate(90)"
       style="font-size:9px"
       id="text4181"
       x="360.76147"
       y="-166.76605"><tspan
         id="tspan4179">1:3</tspan></text>
    <text
       transform="rotate(-90)"
       style="font-size:9px"
       id="text4185"
       x="-360.76147"
       y="13.20002"><tspan
         id="tspan4183">5:5</tspan></text>
    <text
       transform="scale(-1)"
       style="font-size:9px"
       id="text4189"
       x="-69.764694"
       y="-574.80005"><tspan
         id="tspan4187">12:3</tspan></text>
    <text
       style="font-size:9px"
       id="text4193"
       x="69.764717"
       y="344.80731"><tspan
         id="tspan4191">13:3</tspan></text>
  </g>
</svg>
