<?xml version="1.0" encoding="UTF-8" standalone="no"?>
<svg
   xmlns:dc="http://purl.org/dc/elements/1.1/"
   xmlns:cc="http://creativecommons.org/ns#"
   xmlns:rdf="http://www.w3.org/1999/02/22-rdf-syntax-ns#"
   xmlns:svg="http://www.w3.org/2000/svg"
   xmlns="http://www.w3.org/2000/svg"
   xmlns:sodipodi="http://sodipodi.sourceforge.net/DTD/sodipodi-0.dtd"
   xmlns:inkscape="http://www.inkscape.org/namespaces/inkscape"
   version="1.1"
   width="300.00mm"
   height="600.00mm"
   viewBox="0 0 300.00 600.00"
   id="svg12682"
   sodipodi:docname="bottom_page3.svg"
   inkscape:version="0.92.3 (2405546, 2018-03-11)">
  <metadata
     id="metadata12688">
    <rdf:RDF>
      <cc:Work
         rdf:about="">
        <dc:format>image/svg+xml</dc:format>
        <dc:type
           rdf:resource="http://purl.org/dc/dcmitype/StillImage" />
      </cc:Work>
    </rdf:RDF>
  </metadata>
  <defs
     id="defs12686" />
  <sodipodi:namedview
     pagecolor="#ffffff"
     bordercolor="#666666"
     borderopacity="1"
     objecttolerance="10"
     gridtolerance="10"
     guidetolerance="10"
     inkscape:pageopacity="0"
     inkscape:pageshadow="2"
     inkscape:window-width="1853"
     inkscape:window-height="1025"
     id="namedview12684"
     showgrid="false"
     inkscape:zoom="0.29435284"
     inkscape:cx="-387.06115"
     inkscape:cy="1282.2175"
     inkscape:window-x="67"
     inkscape:window-y="27"
     inkscape:window-maximized="1"
     inkscape:current-layer="svg12682" />
  <style
     type="text/css"
     id="style12546">
    path {
        fill: none;
        stroke-linecap: butt;
        stroke-linejoin: bevel;
        stroke-dasharray: none;
    }
    path.outer {
        stroke: #000000;
        stroke-dasharray: none;
        stroke-dashoffset: 0;
        stroke-width: 0.3;
        stroke-opacity: 1.0;
    }
    path.convex {
        stroke: #000000;
        stroke-dasharray: 0.50,1.00;
        stroke-dashoffset:0;
        stroke-width:0.2;
        stroke-opacity: 1.0
    }
    path.concave {
        stroke: #000000;
        stroke-dasharray: 1.00,0.50,0.20,0.50;
        stroke-dashoffset: 0;
        stroke-width: 0.2;
        stroke-opacity: 1.0
    }
    path.freestyle {
        stroke: #000000;
        stroke-dasharray: none;
        stroke-dashoffset: 0;
        stroke-width: 0.2;
        stroke-opacity: 1.0
    }
    path.outer_background {
        stroke: #ffffff;
        stroke-opacity: 1.0;
        stroke-width: 0.5
    }
    path.inner_background {
        stroke: #ffffff;
        stroke-opacity: 1.0;
        stroke-width: 0.2
    }
    path.sticker {
        fill: #e5e5e5;
        stroke: none;
        fill-opacity: 1.0;
    }
    path.arrow {
        fill: #000000;
    }
    text {
        font-style: normal;
        fill: #000000;
        fill-opacity: 1.0;
        stroke: none;
    }
    text, tspan {
        text-anchor:middle;
    }
    </style>
  <g
     id="g12680"
     transform="rotate(-15.68892,-253.35578,523.83783)">
    <text
       transform="translate(125.91699,252.00008)"
       style="font-style:normal;font-size:10px;text-anchor:middle;fill:#000000;fill-opacity:1;stroke:none"
       id="text12550">
      <tspan
         id="tspan12548"
         style="text-anchor:middle">[7] I 7</tspan>
    </text>
    <path
       class="sticker"
       d="m 123.79103,545.66917 9.39362,3.43288 -8.27613,23.79964 -9.49681,-3.13612 z m 113.45129,-405.98664 9.59167,2.83277 -20.12969,72.32204 -9.67595,-2.5301 z m -49.85047,179.03906 9.5917,2.83274 -56.25886,202.12698 -9.67593,-2.53007 z m 23.30813,-83.67768 4.45214,1.32382 -2.44546,8.72385 -4.51377,-1.104 z m -181.212673,335.78713 -2.189977,7.41525 -14.661636,-4.08083 1.955979,-7.48038 z m 82.384003,-353.65309 -4.45459,-1.31556 2.45148,-8.80772 4.4937,1.17502 z M 14.591673,566.68508 5,563.85232 17.416656,519.2417 l 9.675921,2.53008 z m 116.457087,-45.53384 9.54412,2.98905 -7.16856,24.21668 -9.63329,-2.6878 z m -103.956183,0.62054 -9.591674,-2.83275 6.771096,-24.32723 9.67592,2.53008 z m 93.597853,-336.27888 -9.59164,-2.83289 20.13073,-72.3221 9.67589,2.53022 z m 37.27076,-67.87703 2.83274,-9.59167 78.97848,21.98244 -2.53009,9.67589 z m 59.06716,94.69137 9.5917,2.8328 -6.24415,22.43394 -9.67592,-2.53007 z m -102.66645,-4.07755 -9.59166,-2.83277 6.24428,-22.43415 9.67591,2.53013 z m -80.413981,288.91219 -9.591676,-2.83276 56.828074,-204.1721 9.67592,2.53007 z m 81.463791,72.62369 -0.0331,10.00118 -85.610232,1.06157 -0.281071,-9.99728 z m 25.4937,-456.89744 2.50787,-8.4906 16.78783,4.67316 -2.23992,8.56518 z m 67.28748,131.11945 9.59167,2.83281 -20.71679,74.43127 -9.67592,-2.53007 z m -117.332653,48.67951 -9.591676,-2.83274 20.926819,-75.18647 9.67593,2.53007 z"
       id="path12552"
       inkscape:connector-curvature="0"
       style="fill:#e5e5e5;fill-opacity:1;stroke:none;stroke-linecap:butt;stroke-linejoin:bevel;stroke-dasharray:none" />
    <path
       class="outer"
       d="m 143.41328,104.37753 16.78783,4.67316 -2.23992,8.56518 2.83274,-9.59167 78.97848,21.98244 -2.53009,9.67589 9.59167,2.83277 -20.12969,72.32204 -9.67595,-2.5301 9.5917,2.8328 -6.24415,22.43394 -9.67592,-2.53007 4.45214,1.32382 -2.44546,8.72385 -4.51377,-1.104 9.59167,2.83281 -20.71679,74.43127 -9.67592,-2.53007 9.5917,2.83274 -56.25886,202.12698 -9.67593,-2.53007 9.54412,2.98905 -7.16856,24.21668 -9.63329,-2.6878 9.39362,3.43288 -8.27613,23.79964 -9.49681,-3.13612 -0.0331,10.00118 -85.610232,1.06157 -0.281071,-9.99728 -2.189977,7.41525 -14.661636,-4.08083 1.955979,-7.48038 L 5,563.85232 17.416656,519.2417 l 9.675921,2.53008 -9.591674,-2.83275 6.771096,-24.32723 9.67592,2.53008 -9.591676,-2.83276 56.828074,-204.1721 9.67592,2.53007 -9.591676,-2.83274 20.926819,-75.18647 9.67593,2.53007 -4.45459,-1.31556 2.45148,-8.80772 4.4937,1.17502 -9.59166,-2.83277 6.24428,-22.43415 9.67591,2.53013 -9.59164,-2.83289 20.13073,-72.3221 9.67589,2.53022 z"
       id="path12554"
       inkscape:connector-curvature="0"
       style="fill:none;stroke:#000000;stroke-width:0.30000001;stroke-linecap:butt;stroke-linejoin:bevel;stroke-dasharray:none;stroke-dashoffset:0;stroke-opacity:1" />
    <g
       id="g12562">
      <path
         transform="matrix(-3.284495,9.445214,-9.445214,-3.284495,119.60137,557.71737)"
         class="arrow"
         d="M 0,0 1,1 0,0.25 -1,1 Z"
         id="path12556"
         inkscape:connector-curvature="0"
         style="fill:#000000;stroke-linecap:butt;stroke-linejoin:bevel;stroke-dasharray:none" />
      <text
         transform="translate(111.10068,558.76133)"
         style="font-style:normal;font-size:10px;text-anchor:middle;fill:#000000;fill-opacity:1;stroke:none"
         id="text12560">
        <tspan
           id="tspan12558"
           style="text-anchor:middle">1</tspan>
      </text>
    </g>
    <text
       transform="matrix(-0.328449,0.944521,-0.944521,-0.328449,121.30151,558.30858)"
       style="font-style:normal;font-size:9px;text-anchor:middle;fill:#000000;fill-opacity:1;stroke:none"
       id="text12566">
      <tspan
         id="tspan12564"
         style="text-anchor:middle">5:1</tspan>
    </text>
    <g
       id="g12574">
      <path
         transform="matrix(-2.681415,9.633796,-9.633796,-2.681415,227.13533,175.9949)"
         class="arrow"
         d="M 0,0 1,1 0,0.25 -1,1 Z"
         id="path12568"
         inkscape:connector-curvature="0"
         style="fill:#000000;stroke-linecap:butt;stroke-linejoin:bevel;stroke-dasharray:none" />
      <text
         transform="translate(218.46492,177.58163)"
         style="font-style:normal;font-size:10px;text-anchor:middle;fill:#000000;fill-opacity:1;stroke:none"
         id="text12572">
        <tspan
           id="tspan12570"
           style="text-anchor:middle">2</tspan>
      </text>
    </g>
    <text
       transform="matrix(-0.268142,0.96338,-0.96338,-0.268142,228.86944,176.47752)"
       style="font-style:normal;font-size:9px;text-anchor:middle;fill:#000000;fill-opacity:1;stroke:none"
       id="text12578">
      <tspan
         id="tspan12576"
         style="text-anchor:middle">1:2</tspan>
    </text>
    <g
       id="g12586">
      <path
         transform="matrix(-2.699156,9.628839,-9.628839,-2.699156,209.44643,239.51578)"
         class="arrow"
         d="M 0,0 1,1 0,0.25 -1,1 Z"
         id="path12580"
         inkscape:connector-curvature="0"
         style="fill:#000000;stroke-linecap:butt;stroke-linejoin:bevel;stroke-dasharray:none" />
      <text
         transform="translate(200.78049,241.08654)"
         style="font-style:normal;font-size:10px;text-anchor:middle;fill:#000000;fill-opacity:1;stroke:none"
         id="text12584">
        <tspan
           id="tspan12582"
           style="text-anchor:middle">3</tspan>
      </text>
    </g>
    <text
       transform="rotate(105.65927,14.236544,199.57975)"
       style="font-style:normal;font-size:4.17999983px;text-anchor:middle;fill:#000000;fill-opacity:1;stroke:none"
       id="text12590">
      <tspan
         id="tspan12588"
         style="text-anchor:middle">1:3</tspan>
    </text>
    <g
       id="g12598">
      <path
         transform="matrix(-9.633797,-2.681412,2.681412,-9.633797,22.039491,568.75806)"
         class="arrow"
         d="M 0,0 1,1 0,0.25 -1,1 Z"
         id="path12592"
         inkscape:connector-curvature="0"
         style="fill:#000000;stroke-linecap:butt;stroke-linejoin:bevel;stroke-dasharray:none" />
      <text
         transform="translate(24.452762,564.08764)"
         style="font-style:normal;font-size:10px;text-anchor:middle;fill:#000000;fill-opacity:1;stroke:none"
         id="text12596">
        <tspan
           id="tspan12594"
           style="text-anchor:middle">4</tspan>
      </text>
    </g>
    <text
       transform="rotate(-164.44633,49.762675,283.56979)"
       style="font-style:normal;font-size:6.96000004px;text-anchor:middle;fill:#000000;fill-opacity:1;stroke:none"
       id="text12602">
      <tspan
         id="tspan12600"
         style="text-anchor:middle">4:4</tspan>
    </text>
    <g
       id="g12610">
      <path
         transform="matrix(2.681414,-9.633796,9.633796,2.681414,20.842125,544.22843)"
         class="arrow"
         d="M 0,0 1,1 0,0.25 -1,1 Z"
         id="path12604"
         inkscape:connector-curvature="0"
         style="fill:#000000;stroke-linecap:butt;stroke-linejoin:bevel;stroke-dasharray:none" />
      <text
         transform="translate(29.51254,550.6417)"
         style="font-style:normal;font-size:10px;text-anchor:middle;fill:#000000;fill-opacity:1;stroke:none"
         id="text12608">
        <tspan
           id="tspan12606"
           style="text-anchor:middle">5</tspan>
      </text>
    </g>
    <text
       transform="rotate(-74.44633,367.43278,259.29638)"
       style="font-style:normal;font-size:9px;text-anchor:middle;fill:#000000;fill-opacity:1;stroke:none"
       id="text12614">
      <tspan
         id="tspan12612"
         style="text-anchor:middle">13:5</tspan>
    </text>
    <g
       id="g12622">
      <path
         transform="matrix(-2.838424,9.58871,-9.58871,-2.838424,127.41989,533.4102)"
         class="arrow"
         d="M 0,0 1,1 0,0.25 -1,1 Z"
         id="path12616"
         inkscape:connector-curvature="0"
         style="fill:#000000;stroke-linecap:butt;stroke-linejoin:bevel;stroke-dasharray:none" />
      <text
         transform="translate(118.79006,534.85562)"
         style="font-style:normal;font-size:10px;text-anchor:middle;fill:#000000;fill-opacity:1;stroke:none"
         id="text12620">
        <tspan
           id="tspan12618"
           style="text-anchor:middle">6.</tspan>
      </text>
    </g>
    <text
       transform="rotate(106.48964,-134.81356,315.18856)"
       style="font-style:normal;font-size:9px;text-anchor:middle;fill:#000000;fill-opacity:1;stroke:none"
       id="text12626">
      <tspan
         id="tspan12624"
         style="text-anchor:middle">14:6.</tspan>
    </text>
    <g
       id="g12634">
      <path
         transform="matrix(2.681542,-9.63376,9.63376,2.681542,130.79793,149.18053)"
         class="arrow"
         d="M 0,0 1,1 0,0.25 -1,1 Z"
         id="path12628"
         inkscape:connector-curvature="0"
         style="fill:#000000;stroke-linecap:butt;stroke-linejoin:bevel;stroke-dasharray:none" />
      <text
         transform="translate(139.46832,155.59393)"
         style="font-style:normal;font-size:10px;text-anchor:middle;fill:#000000;fill-opacity:1;stroke:none"
         id="text12632">
        <tspan
           id="tspan12630"
           style="text-anchor:middle">7</tspan>
      </text>
    </g>
    <text
       transform="rotate(-74.445551,162.40221,-10.598598)"
       style="font-style:normal;font-size:9px;text-anchor:middle;fill:#000000;fill-opacity:1;stroke:none"
       id="text12638">
      <tspan
         id="tspan12636"
         style="text-anchor:middle">13:7</tspan>
    </text>
    <g
       id="g12646">
      <path
         transform="matrix(9.633795,2.681415,-2.681415,9.633795,197.60174,128.64923)"
         class="arrow"
         d="M 0,0 1,1 0,0.25 -1,1 Z"
         id="path12640"
         inkscape:connector-curvature="0"
         style="fill:#000000;stroke-linecap:butt;stroke-linejoin:bevel;stroke-dasharray:none" />
      <text
         transform="translate(195.18847,141.31966)"
         style="font-style:normal;font-size:10px;text-anchor:middle;fill:#000000;fill-opacity:1;stroke:none"
         id="text12644">
        <tspan
           id="tspan12642"
           style="text-anchor:middle">8</tspan>
      </text>
    </g>
    <text
       transform="matrix(0.96338,0.268142,-0.268142,0.96338,198.08442,126.91515)"
       style="font-style:normal;font-size:9px;text-anchor:middle;fill:#000000;fill-opacity:1;stroke:none"
       id="text12650">
      <tspan
         id="tspan12648"
         style="text-anchor:middle">10:8</tspan>
    </text>
    <text
       transform="rotate(179.28957,34.462489,286.27375)"
       style="font-style:normal;font-size:9px;text-anchor:middle;fill:#000000;fill-opacity:1;stroke:none"
       id="text12654">
      <tspan
         id="tspan12652"
         style="text-anchor:middle">4:6.</tspan>
    </text>
    <g
       id="g12662">
      <path
         transform="matrix(9.633714,2.681706,-2.681706,9.633714,149.43329,115.242)"
         class="arrow"
         d="M 0,0 1,1 0,0.25 -1,1 Z"
         id="path12656"
         inkscape:connector-curvature="0"
         style="fill:#000000;stroke-linecap:butt;stroke-linejoin:bevel;stroke-dasharray:none" />
      <text
         transform="translate(147.01975,127.91234)"
         style="font-style:normal;font-size:10px;text-anchor:middle;fill:#000000;fill-opacity:1;stroke:none"
         id="text12660">
        <tspan
           id="tspan12658"
           style="text-anchor:middle">9.</tspan>
      </text>
    </g>
    <text
       transform="rotate(15.555465,-341.31278,605.44407)"
       style="font-style:normal;font-size:7.96999979px;text-anchor:middle;fill:#000000;fill-opacity:1;stroke:none"
       id="text12666">
      <tspan
         id="tspan12664"
         style="text-anchor:middle">10:9.</tspan>
    </text>
    <g
       id="g12674">
      <path
         transform="matrix(-2.681414,9.633796,-9.633796,-2.681414,197.79239,281.3546)"
         class="arrow"
         d="M 0,0 1,1 0,0.25 -1,1 Z"
         id="path12668"
         inkscape:connector-curvature="0"
         style="fill:#000000;stroke-linecap:butt;stroke-linejoin:bevel;stroke-dasharray:none" />
      <text
         transform="translate(189.12197,282.94134)"
         style="font-style:normal;font-size:10px;text-anchor:middle;fill:#000000;fill-opacity:1;stroke:none"
         id="text12672">
        <tspan
           id="tspan12670"
           style="text-anchor:middle">10</tspan>
      </text>
    </g>
    <text
       transform="rotate(105.55367,-7.2896767,216.7066)"
       style="font-style:normal;font-size:9px;text-anchor:middle;fill:#000000;fill-opacity:1;stroke:none"
       id="text12678">
      <tspan
         id="tspan12676"
         style="text-anchor:middle">14:10</tspan>
    </text>
  </g>
  <g
     id="g17601"
     transform="rotate(165.60974,332.96341,279.70201)">
    <text
       y="399.06247"
       x="396.61002"
       style="font-style:normal;font-size:10px;text-anchor:middle;fill:#000000;fill-opacity:1;stroke:none"
       id="text17243">
      <tspan
         id="tspan17241"
         style="text-anchor:middle">[14] I 14</tspan>
    </text>
    <path
       inkscape:connector-curvature="0"
       class="sticker"
       d="m 444.94181,391.58039 9.6507,2.62462 -9.91989,38.87682 -9.72839,-2.32019 z M 316.444,525.27434 l -9.65048,-2.62543 51.8914,-203.29207 9.72818,2.32106 z m 71.15533,-278.76121 2.47463,-9.69475 22.41782,4.93041 -1.99457,9.80034 z m -77.47928,303.53645 -9.65047,-2.62544 6.24624,-24.4708 9.72818,2.321 z m 23.09076,5.89308 -2.62508,9.65059 -22.78636,-5.81539 2.32068,-9.72828 z m 77.2864,-304.39353 9.74808,-2.23604 34.36955,139.72619 -9.67303,2.54111 z m -2.63306,285.34147 2.3206,9.72829 -74.3489,18.97436 -2.62504,-9.65059 z m 27.08008,-106.12896 9.65069,2.62463 -27.00238,105.8245 -9.72839,-2.32017 z M 368.4131,321.6779 l -9.65048,-2.62547 19.10854,-74.86033 9.72817,2.32103 z"
       id="path17245"
       style="fill:#e5e5e5;fill-opacity:1;stroke:none;stroke-linecap:butt;stroke-linejoin:bevel;stroke-dasharray:none" />
    <path
       inkscape:connector-curvature="0"
       class="outer"
       d="m 358.76262,319.05243 19.10854,-74.86033 9.72817,2.32103 2.47463,-9.69475 22.41782,4.93041 -1.99457,9.80034 9.74808,-2.23604 34.36955,139.72619 -9.67303,2.54111 9.6507,2.62462 -9.91989,38.87682 -9.72839,-2.32019 9.65069,2.62463 -27.00238,105.8245 -9.72839,-2.32017 2.3206,9.72829 -74.3489,18.97436 -2.62504,-9.65059 -2.62508,9.65059 -22.78636,-5.81539 2.32068,-9.72828 -9.65047,-2.62544 6.24624,-24.4708 9.72818,2.321 -9.65048,-2.62543 51.8914,-203.29207 9.72818,2.32106 z"
       id="path17247"
       style="fill:none;stroke:#000000;stroke-width:0.30000001;stroke-linecap:butt;stroke-linejoin:bevel;stroke-dasharray:none;stroke-dashoffset:0;stroke-opacity:1" />
    <g
       transform="translate(295.46958,-17.406784)"
       id="g17255">
      <path
         inkscape:connector-curvature="0"
         transform="matrix(-2.472408,9.689541,-9.689541,-2.472408,144.47344,428.57779)"
         class="arrow"
         d="M 0,0 1,1 0,0.25 -1,1 Z"
         id="path17249"
         style="fill:#000000;stroke-linecap:butt;stroke-linejoin:bevel;stroke-dasharray:none" />
      <text
         transform="translate(135.75285,430.35262)"
         style="font-style:normal;font-size:10px;text-anchor:middle;fill:#000000;fill-opacity:1;stroke:none"
         id="text17253">
        <tspan
           id="tspan17251"
           style="text-anchor:middle">1</tspan>
      </text>
    </g>
    <text
       y="-529.74292"
       x="289.63382"
       transform="rotate(104.31431)"
       style="font-style:normal;font-size:9px;text-anchor:middle;fill:#000000;fill-opacity:1;stroke:none"
       id="text17259">
      <tspan
         id="tspan17257"
         style="text-anchor:middle">6.:1</tspan>
    </text>
    <g
       transform="translate(295.46958,-17.406784)"
       id="g17267">
      <path
         inkscape:connector-curvature="0"
         transform="matrix(9.766582,2.147988,-2.147988,9.766582,103.57869,266.43791)"
         class="arrow"
         d="M 0,0 1,1 0,0.25 -1,1 Z"
         id="path17261"
         style="fill:#000000;stroke-linecap:butt;stroke-linejoin:bevel;stroke-dasharray:none" />
      <text
         transform="translate(101.6455,279.22785)"
         style="font-style:normal;font-size:10px;text-anchor:middle;fill:#000000;fill-opacity:1;stroke:none"
         id="text17265">
        <tspan
           id="tspan17263"
           style="text-anchor:middle">2</tspan>
      </text>
    </g>
    <text
       y="155.70293"
       x="443.22577"
       transform="rotate(12.403739)"
       style="font-style:normal;font-size:9px;text-anchor:middle;fill:#000000;fill-opacity:1;stroke:none"
       id="text17271">
      <tspan
         id="tspan17269"
         style="text-anchor:middle">1:2</tspan>
    </text>
    <text
       y="434.72546"
       x="-443.47665"
       transform="rotate(-75.680841)"
       style="font-style:normal;font-size:9px;text-anchor:middle;fill:#000000;fill-opacity:1;stroke:none"
       id="text17275">
      <tspan
         id="tspan17273"
         style="text-anchor:middle">7:6.</tspan>
    </text>
    <text
       y="-458.07715"
       x="-448.42447"
       transform="rotate(-165.68291)"
       style="font-style:normal;font-size:9px;text-anchor:middle;fill:#000000;fill-opacity:1;stroke:none"
       id="text17279">
      <tspan
         id="tspan17277"
         style="text-anchor:middle">5:4</tspan>
    </text>
    <text
       y="-340.33072"
       x="414.42123"
       transform="rotate(76.180845)"
       style="font-style:normal;font-size:9px;text-anchor:middle;fill:#000000;fill-opacity:1;stroke:none"
       id="text17283">
      <tspan
         id="tspan17281"
         style="text-anchor:middle">1:4</tspan>
    </text>
    <text
       y="-622.87396"
       x="-223.91096"
       transform="rotate(165.68327)"
       style="font-style:normal;font-size:9px;text-anchor:middle;fill:#000000;fill-opacity:1;stroke:none"
       id="text17287">
      <tspan
         id="tspan17285"
         style="text-anchor:middle">5:6.</tspan>
    </text>
    <g
       transform="translate(295.46958,-17.406784)"
       id="g17295">
      <path
         inkscape:connector-curvature="0"
         transform="matrix(-2.472403,9.689541,-9.689541,-2.472403,125.9346,501.2329)"
         class="arrow"
         d="M 0,0 1,1 0,0.25 -1,1 Z"
         id="path17289"
         style="fill:#000000;stroke-linecap:butt;stroke-linejoin:bevel;stroke-dasharray:none" />
      <text
         transform="translate(117.21401,503.00774)"
         style="font-style:normal;font-size:10px;text-anchor:middle;fill:#000000;fill-opacity:1;stroke:none"
         id="text17293">
        <tspan
           id="tspan17291"
           style="text-anchor:middle">3</tspan>
      </text>
    </g>
    <text
       y="-529.74261"
       x="364.61743"
       transform="rotate(104.31425)"
       style="font-style:normal;font-size:9px;text-anchor:middle;fill:#000000;fill-opacity:1;stroke:none"
       id="text17299">
      <tspan
         id="tspan17297"
         style="text-anchor:middle">6.:3</tspan>
    </text>
    <text
       y="434.72662"
       x="-181.77859"
       transform="rotate(-75.680661)"
       style="font-style:normal;font-size:9px;text-anchor:middle;fill:#000000;fill-opacity:1;stroke:none"
       id="text17303">
      <tspan
         id="tspan17301"
         style="text-anchor:middle">7:10</tspan>
    </text>
  </g>
  <g
     id="g11945"
     transform="rotate(179.69172,211.78365,385.83658)">
    <text
       y="316.15771"
       x="256.43851"
       id="text11365"
       style="font-style:normal;font-size:10px;text-anchor:middle;fill:#000000;fill-opacity:1;stroke:none">
      <tspan
         style="text-anchor:middle"
         id="tspan11363">[5] I 5</tspan>
    </text>
    <path
       style="fill:#e5e5e5;fill-opacity:1;stroke:none;stroke-linecap:butt;stroke-linejoin:bevel;stroke-dasharray:none"
       inkscape:connector-curvature="0"
       id="path11367"
       d="m 256.4514,182.21953 0.15709,-10.00002 h 25.19757 l 0.15708,9.99999 z m 25.51172,162.84759 9.99998,0.15711 4e-5,32.22844 -10.00002,0.15708 z m 0,-52.34544 10.00002,0.15712 -4e-5,27.53335 -9.99998,0.15709 z m 0,-28.30824 9.99998,0.15709 4e-5,27.99407 -10.00002,0.15708 z m 0,-58.76189 10.00002,0.15711 v 58.44769 l -10.00002,0.15709 z m 2e-5,-23.43205 10.00002,0.15712 v 23.11784 l -10.00004,0.15709 z m -2e-5,138.34974 9.99998,0.15709 v 24.18369 l -9.99998,0.1571 z M 256.4514,205.8371 l -10,-0.15709 v -23.30339 l 10,-0.15709 z m -50.04912,171.77268 -10.00001,-0.15708 2e-5,-32.22844 10,-0.15709 z m 1e-5,-57.04048 -10,-0.15709 3e-5,-27.53335 9.99999,-0.15712 z m 0,24.49787 -10,-0.15709 v -24.18369 l 10,-0.15709 z m 2e-5,-52.34543 -10.00001,-0.15708 2e-5,-27.99407 10,-0.15712 z m 1e-5,-28.30827 -7.50072,-6.6154 49.84499,-58.33751 7.70481,6.37654 z m 75.56076,308.58656 -0.15708,10 h -25.19757 l -0.15712,-10 z m 4e-5,-195.39028 9.99998,0.15712 4e-5,32.22844 -10.00002,0.15709 z m 0,57.04053 9.99998,0.1571 v 27.53336 l -9.99998,0.15709 z m 0,27.84755 9.99998,0.15711 v 27.99408 l -10.00002,0.15709 z m -4e-5,28.30828 10.00002,0.15709 -5e-5,58.4477 -10,0.15709 z m -3e-5,58.76188 10,0.15708 2e-5,23.11787 -9.99999,0.15709 z m 7e-5,-139.41559 9.99998,0.15709 v 24.1837 l -9.99998,0.15709 z m -25.51181,162.84763 -9.99999,-0.15709 -1e-5,-23.30345 10,-0.15709 z m -50.04905,-162.84763 -10,-0.1571 v -32.22843 l 10.00002,-0.15709 z m -1e-5,52.34543 -10.00002,-0.15711 3e-5,-27.53336 9.99999,-0.15709 z m 0,-27.84756 -10.00001,-0.15711 2e-5,-24.18367 10,-0.15709 z m -2e-5,56.15581 -10,-0.1571 1e-5,-27.99407 10.00001,-0.15708 z m 50.04908,58.57632 -7.70481,6.37656 -49.84499,-58.33745 7.50072,-6.61543 z"
       class="sticker" />
    <path
       style="fill:none;stroke:#000000;stroke-width:0.30000001;stroke-linecap:butt;stroke-linejoin:bevel;stroke-dasharray:none;stroke-dashoffset:0;stroke-opacity:1"
       inkscape:connector-curvature="0"
       id="path11369"
       d="m 291.9631,377.76687 4e-5,32.22844 -10.00002,0.15709 9.99998,0.15709 v 24.1837 l -9.99998,0.15709 9.99998,0.1571 v 27.53336 l -9.99998,0.15709 9.99998,0.15711 v 27.99408 l -10.00002,0.15709 10.00002,0.15709 -5e-5,58.4477 -10,0.15709 10,0.15708 2e-5,23.11787 -9.99999,0.15709 -0.15708,10 h -25.19757 l -0.15712,-10 -9.99999,-0.15709 -1e-5,-23.30345 10,-0.15709 -7.70481,6.37656 -49.84499,-58.33745 7.50072,-6.61543 -10,-0.1571 1e-5,-27.99407 10.00001,-0.15708 -10.00002,-0.15711 3e-5,-27.53336 9.99999,-0.15709 -10.00001,-0.15711 2e-5,-24.18367 10,-0.15709 -10,-0.1571 v -32.22843 l 10.00002,-0.15709 -10.00001,-0.15708 2e-5,-32.22844 10,-0.15709 -10,-0.15709 v -24.18369 l 10,-0.15709 -10,-0.15709 3e-5,-27.53335 9.99999,-0.15712 -10.00001,-0.15708 2e-5,-27.99407 10,-0.15712 -7.50072,-6.6154 49.84499,-58.33751 7.70481,6.37654 -10,-0.15709 v -23.30339 l 10,-0.15709 0.15709,-10.00002 h 25.19757 l 0.15708,9.99999 10.00002,0.15712 v 23.11784 l -10.00004,0.15709 10.00002,0.15711 v 58.44769 l -10.00002,0.15709 9.99998,0.15709 4e-5,27.99407 -10.00002,0.15708 10.00002,0.15712 -4e-5,27.53335 -9.99998,0.15709 9.99998,0.15709 v 24.18369 l -9.99998,0.1571 9.99998,0.15711 4e-5,32.22844 -10.00002,0.15708 z"
       class="outer" />
    <text
       y="180.41953"
       x="269.20728"
       id="text11373"
       style="font-style:normal;font-size:9px;text-anchor:middle;fill:#000000;fill-opacity:1;stroke:none">
      <tspan
         style="text-anchor:middle"
         id="tspan11371">8:1</tspan>
    </text>
    <text
       y="-283.76334"
       x="193.93529"
       id="text11377"
       style="font-style:normal;font-size:9px;text-anchor:middle;fill:#000000;fill-opacity:1;stroke:none"
       transform="rotate(90.000057)">
      <tspan
         style="text-anchor:middle"
         id="tspan11375">4:1</tspan>
    </text>
    <g
       id="g11385">
      <path
         style="fill:#000000;stroke-linecap:butt;stroke-linejoin:bevel;stroke-dasharray:none"
         inkscape:connector-curvature="0"
         id="path11379"
         d="M 0,0 1,1 0,0.25 -1,1 Z"
         class="arrow"
         transform="matrix(3e-6,-10,10,3e-6,256.4514,194.02828)" />
      <text
         id="text11383"
         style="font-style:normal;font-size:10px;text-anchor:middle;fill:#000000;fill-opacity:1;stroke:none"
         transform="translate(265.45141,198.02829)">
        <tspan
           style="text-anchor:middle"
           id="tspan11381">1</tspan>
      </text>
    </g>
    <text
       y="254.65141"
       x="-194.02831"
       id="text11389"
       style="font-style:normal;font-size:9px;text-anchor:middle;fill:#000000;fill-opacity:1;stroke:none"
       transform="rotate(-90)">
      <tspan
         style="text-anchor:middle"
         id="tspan11387">15:1</tspan>
    </text>
    <g
       id="g11397">
      <path
         style="fill:#000000;stroke-linecap:butt;stroke-linejoin:bevel;stroke-dasharray:none"
         inkscape:connector-curvature="0"
         id="path11391"
         d="M 0,0 1,1 0,0.25 -1,1 Z"
         class="arrow"
         transform="matrix(5e-6,-9.999999,9.999999,5e-6,206.40231,278.56761)" />
      <text
         id="text11395"
         style="font-style:normal;font-size:10px;text-anchor:middle;fill:#000000;fill-opacity:1;stroke:none"
         transform="translate(215.40231,282.56762)">
        <tspan
           style="text-anchor:middle"
           id="tspan11393">2</tspan>
      </text>
    </g>
    <text
       y="204.60231"
       x="-278.5676"
       id="text11401"
       style="font-style:normal;font-size:9px;text-anchor:middle;fill:#000000;fill-opacity:1;stroke:none"
       transform="rotate(-90)">
      <tspan
         style="text-anchor:middle"
         id="tspan11399">6.:2</tspan>
    </text>
    <g
       id="g11409">
      <path
         style="fill:#000000;stroke-linecap:butt;stroke-linejoin:bevel;stroke-dasharray:none"
         inkscape:connector-curvature="0"
         id="path11403"
         d="M 0,0 1,1 0,0.25 -1,1 Z"
         class="arrow"
         transform="matrix(6.49599,-7.602769,7.602769,6.49599,231.42685,235.1253)" />
      <text
         id="text11407"
         style="font-style:normal;font-size:10px;text-anchor:middle;fill:#000000;fill-opacity:1;stroke:none"
         transform="translate(238.26935,244.97169)">
        <tspan
           style="text-anchor:middle"
           id="tspan11405">3</tspan>
      </text>
    </g>
    <text
       y="326.88568"
       x="-28.425722"
       id="text11413"
       style="font-style:normal;font-size:9px;text-anchor:middle;fill:#000000;fill-opacity:1;stroke:none"
       transform="rotate(-49.488624)">
      <tspan
         style="text-anchor:middle"
         id="tspan11411">15:3</tspan>
    </text>
    <text
       y="-574.80005"
       x="-269.20718"
       id="text11417"
       style="font-style:normal;font-size:9px;text-anchor:middle;fill:#000000;fill-opacity:1;stroke:none"
       transform="scale(-1)">
      <tspan
         style="text-anchor:middle"
         id="tspan11415">7:1</tspan>
    </text>
    <text
       y="-283.76251"
       x="561.2843"
       id="text11421"
       style="font-style:normal;font-size:9px;text-anchor:middle;fill:#000000;fill-opacity:1;stroke:none"
       transform="rotate(89.999943)">
      <tspan
         style="text-anchor:middle"
         id="tspan11419">4:4</tspan>
    </text>
    <g
       id="g11429">
      <path
         style="fill:#000000;stroke-linecap:butt;stroke-linejoin:bevel;stroke-dasharray:none"
         inkscape:connector-curvature="0"
         id="path11423"
         d="M 0,0 1,1 0,0.25 -1,1 Z"
         class="arrow"
         transform="matrix(-1e-6,-10,10,-1e-6,256.45131,561.19121)" />
      <text
         id="text11427"
         style="font-style:normal;font-size:10px;text-anchor:middle;fill:#000000;fill-opacity:1;stroke:none"
         transform="translate(265.45132,565.19121)">
        <tspan
           style="text-anchor:middle"
           id="tspan11425">4</tspan>
      </text>
    </g>
    <text
       y="254.65132"
       x="-561.19122"
       id="text11433"
       style="font-style:normal;font-size:9px;text-anchor:middle;fill:#000000;fill-opacity:1;stroke:none"
       transform="rotate(-90)">
      <tspan
         style="text-anchor:middle"
         id="tspan11431">14:4</tspan>
    </text>
    <g
       id="g11441">
      <path
         style="fill:#000000;stroke-linecap:butt;stroke-linejoin:bevel;stroke-dasharray:none"
         inkscape:connector-curvature="0"
         id="path11435"
         d="M 0,0 1,1 0,0.25 -1,1 Z"
         class="arrow"
         transform="matrix(3e-6,-10,10,3e-6,206.40225,476.65195)" />
      <text
         id="text11439"
         style="font-style:normal;font-size:10px;text-anchor:middle;fill:#000000;fill-opacity:1;stroke:none"
         transform="translate(215.40225,480.65195)">
        <tspan
           style="text-anchor:middle"
           id="tspan11437">5</tspan>
      </text>
    </g>
    <text
       y="204.60223"
       x="-476.65195"
       id="text11445"
       style="font-style:normal;font-size:9px;text-anchor:middle;fill:#000000;fill-opacity:1;stroke:none"
       transform="rotate(-90)">
      <tspan
         style="text-anchor:middle"
         id="tspan11443">6.:5</tspan>
    </text>
    <g
       id="g11453">
      <path
         style="fill:#000000;stroke-linecap:butt;stroke-linejoin:bevel;stroke-dasharray:none"
         inkscape:connector-curvature="0"
         id="path11447"
         d="M 0,0 1,1 0,0.25 -1,1 Z"
         class="arrow"
         transform="matrix(-6.495996,-7.602766,7.602766,-6.495996,231.42678,520.09423)" />
      <text
         id="text11451"
         style="font-style:normal;font-size:10px;text-anchor:middle;fill:#000000;fill-opacity:1;stroke:none"
         transform="translate(238.26927,518.24784)">
        <tspan
           style="text-anchor:middle"
           id="tspan11449">6.</tspan>
      </text>
    </g>
    <text
       y="-163.70467"
       x="-545.75018"
       id="text11457"
       style="font-style:normal;font-size:9px;text-anchor:middle;fill:#000000;fill-opacity:1;stroke:none"
       transform="rotate(-130.51142)">
      <tspan
         style="text-anchor:middle"
         id="tspan11455">14:6.</tspan>
    </text>
  </g>
</svg>
