<?xml version="1.0" encoding="UTF-8" standalone="no"?>
<svg
   xmlns:dc="http://purl.org/dc/elements/1.1/"
   xmlns:cc="http://creativecommons.org/ns#"
   xmlns:rdf="http://www.w3.org/1999/02/22-rdf-syntax-ns#"
   xmlns:svg="http://www.w3.org/2000/svg"
   xmlns="http://www.w3.org/2000/svg"
   xmlns:sodipodi="http://sodipodi.sourceforge.net/DTD/sodipodi-0.dtd"
   xmlns:inkscape="http://www.inkscape.org/namespaces/inkscape"
   version="1.1"
   width="300.00mm"
   height="600.00mm"
   viewBox="0 0 300.00 600.00"
   id="svg932"
   sodipodi:docname="bottom_page3a_6in.svg"
   inkscape:version="0.92.2 (5c3e80d, 2017-08-06)">
  <metadata
     id="metadata94">
    <rdf:RDF>
      <cc:Work
         rdf:about="">
        <dc:format>image/svg+xml</dc:format>
        <dc:type
           rdf:resource="http://purl.org/dc/dcmitype/StillImage" />
      </cc:Work>
    </rdf:RDF>
  </metadata>
  <defs
     id="defs936" />
  <sodipodi:namedview
     id="namedview934"
     pagecolor="#ffffff"
     bordercolor="#666666"
     borderopacity="1.0"
     inkscape:pageshadow="2"
     inkscape:pageopacity="0.0"
     inkscape:pagecheckerboard="0"
     inkscape:document-units="mm"
     showgrid="false"
     inkscape:zoom="0.33216943"
     inkscape:cx="-378.9637"
     inkscape:cy="1501.6452"
     inkscape:window-width="1296"
     inkscape:window-height="975"
     inkscape:window-x="0"
     inkscape:window-y="25"
     inkscape:window-maximized="0"
     inkscape:current-layer="svg932" />
  <style
     type="text/css"
     id="style824">
    path {
        fill: none;
        stroke-linecap: butt;
        stroke-linejoin: bevel;
        stroke-dasharray: none;
    }
    path.outer {
        stroke: #000000;
        stroke-dasharray: none;
        stroke-dashoffset: 0;
        stroke-width: 0.3;
        stroke-opacity: 1.0;
    }
    path.convex {
        stroke: #000000;
        stroke-dasharray: 0.50,1.00;
        stroke-dashoffset:0;
        stroke-width:0.2;
        stroke-opacity: 1.0
    }
    path.concave {
        stroke: #000000;
        stroke-dasharray: 1.00,0.50,0.20,0.50;
        stroke-dashoffset: 0;
        stroke-width: 0.2;
        stroke-opacity: 1.0
    }
    path.freestyle {
        stroke: #000000;
        stroke-dasharray: none;
        stroke-dashoffset: 0;
        stroke-width: 0.2;
        stroke-opacity: 1.0
    }
    path.outer_background {
        stroke: #ffffff;
        stroke-opacity: 1.0;
        stroke-width: 0.5
    }
    path.inner_background {
        stroke: #ffffff;
        stroke-opacity: 1.0;
        stroke-width: 0.2
    }
    path.sticker {
        fill: #e5e5e5;
        stroke: none;
        fill-opacity: 1.0;
    }
    path.arrow {
        fill: #000000;
    }
    text {
        font-style: normal;
        fill: #000000;
        fill-opacity: 1.0;
        stroke: none;
    }
    text, tspan {
        text-anchor:middle;
    }
    </style>
  <g
     id="g1419">
    <path
       inkscape:connector-curvature="0"
       id="path904"
       style="font-style:normal;font-size:medium;text-anchor:middle;fill:none;fill-opacity:1;stroke:#000000;stroke-width:0.25;stroke-linecap:butt;stroke-linejoin:bevel;stroke-dasharray:none;stroke-opacity:1"
       d="m 97.497677,310.64077 -2.509909,-0.38366 1.437249,-9.4025 2.509908,0.38366 -0.105506,0.69022 -1.670055,-0.25528 -1.226236,8.02206 1.670055,0.25528 z" />
    <path
       inkscape:connector-curvature="0"
       id="path907"
       style="font-style:normal;font-size:medium;text-anchor:middle;fill:none;fill-opacity:1;stroke:#000000;stroke-width:0.25;stroke-linecap:butt;stroke-linejoin:bevel;stroke-dasharray:none;stroke-opacity:1"
       d="m 104.55546,307.44692 q -0.0767,0.50198 -0.33024,0.93249 -0.25351,0.43049 -0.62004,0.69555 -0.39917,0.28474 -0.90988,0.39438 -0.50515,0.10554 -1.13745,0.009 -0.58886,-0.09 -1.1151,-0.29888 -0.52698,-0.20404 -0.876906,-0.43535 l 0.155677,-1.01844 0.06758,0.0103 q 0.357424,0.31148 0.861074,0.57124 0.50438,0.25492 1.01601,0.33313 0.3427,0.0524 0.67603,0.005 0.33814,-0.0471 0.62603,-0.25008 0.2441,-0.17509 0.39456,-0.44845 0.15528,-0.27264 0.21357,-0.65396 0.0568,-0.37165 -0.0344,-0.64739 -0.0864,-0.275 -0.28964,-0.46413 -0.22295,-0.22179 -0.57389,-0.34952 -0.34538,-0.1318 -0.78944,-0.19968 -0.42475,-0.0649 -0.8294,-0.0675 -0.39982,-0.002 -0.69345,0.0125 l 0.5659,-3.70212 4.32476,0.66107 -0.12911,0.84468 -3.39321,-0.51867 -0.29217,1.91139 q 0.2105,0.0125 0.42918,0.036 0.21872,0.0233 0.378,0.0477 0.58404,0.0893 1.00778,0.25778 0.42447,0.16372 0.75294,0.47074 0.34556,0.3245 0.49375,0.77688 0.14819,0.4524 0.0515,1.0847 z" />
    <path
       inkscape:connector-curvature="0"
       id="path909"
       style="font-style:normal;font-size:medium;text-anchor:middle;fill:none;fill-opacity:1;stroke:#000000;stroke-width:0.25;stroke-linecap:butt;stroke-linejoin:bevel;stroke-dasharray:none;stroke-opacity:1"
       d="m 107.96207,312.24034 -2.50991,-0.38366 0.1055,-0.69022 1.67006,0.25528 1.22624,-8.02206 -1.67006,-0.25529 0.10551,-0.69022 2.50991,0.38366 z" />
    <path
       inkscape:connector-curvature="0"
       id="path911"
       style="font-style:normal;font-size:medium;text-anchor:middle;fill:none;fill-opacity:1;stroke:#000000;stroke-width:0.25;stroke-linecap:butt;stroke-linejoin:bevel;stroke-dasharray:none;stroke-opacity:1"
       d="m 116.38918,311.5922 -2.83812,-0.43383 0.11214,-0.73367 0.94122,0.14387 0.8743,-5.71969 -0.94122,-0.14388 0.11215,-0.73366 2.83813,0.43383 -0.11215,0.73366 -0.94121,-0.14387 -0.8743,5.7197 0.94121,0.14387 z" />
    <path
       inkscape:connector-curvature="0"
       id="path913"
       style="font-style:normal;font-size:medium;text-anchor:middle;fill:none;fill-opacity:1;stroke:#000000;stroke-width:0.25;stroke-linecap:butt;stroke-linejoin:bevel;stroke-dasharray:none;stroke-opacity:1"
       d="m 126.46889,310.79656 q -0.0767,0.50198 -0.33024,0.93249 -0.25351,0.4305 -0.62002,0.69555 -0.39918,0.28474 -0.90989,0.39438 -0.50515,0.10554 -1.13746,0.009 -0.58886,-0.09 -1.1151,-0.29888 -0.52697,-0.20404 -0.8769,-0.43535 l 0.15568,-1.01844 0.0676,0.0103 q 0.35742,0.31148 0.86107,0.57124 0.50438,0.25492 1.01601,0.33313 0.3427,0.0524 0.67603,0.005 0.33814,-0.0471 0.62602,-0.25008 0.24411,-0.17508 0.39457,-0.44845 0.15528,-0.27264 0.21356,-0.65396 0.0568,-0.37165 -0.0344,-0.64739 -0.0864,-0.275 -0.28964,-0.46413 -0.22295,-0.22179 -0.57389,-0.34952 -0.34538,-0.1318 -0.78944,-0.19968 -0.42476,-0.0649 -0.8294,-0.0675 -0.39983,-0.002 -0.69345,0.0125 l 0.5659,-3.70212 4.32476,0.66107 -0.12911,0.84468 -3.39321,-0.51867 -0.29217,1.91139 q 0.21049,0.0125 0.42918,0.036 0.21871,0.0233 0.378,0.0477 0.58403,0.0893 1.00777,0.25778 0.42447,0.16372 0.75294,0.47074 0.34557,0.3245 0.49375,0.77688 0.14819,0.4524 0.0515,1.0847 z" />
    <path
       class="sticker"
       d="m 135.80577,403.61726 9.99938,0.1927 -0.11477,32.22826 -10.00049,0.12148 z m -0.20314,57.04017 9.99939,0.19269 -0.098,27.53323 -10.00049,0.12148 z m -0.0991,27.8474 9.99938,0.19272 -0.0997,27.9939 -10.00049,0.12147 z m -0.10082,28.30809 9.99936,0.19269 -0.23075,64.79793 -10.00049,0.12148 z m -101.563785,47.81613 -9.999363,-0.1927 0.184433,-51.79765 10.000504,-0.12147 z m 0.272362,-76.48529 -9.999376,-0.1927 0.09804,-27.53319 10.000501,-0.12149 z m 0.186408,-52.34512 -9.999373,-0.19268 0.114756,-32.22827 10.000491,-0.12148 z m 15.002969,128.88545 -0.148969,7.73045 -15.218857,-0.0542 -0.09391,-7.7313 z m -15.276165,-52.16686 -9.999382,-0.19271 0.08567,-24.05928 10.0005,-0.12148 z m 101.665421,-76.35753 9.99937,0.1927 -0.0861,24.18355 -10.00051,0.12148 z m -101.479466,24.13668 -9.999379,-0.1927 0.08612,-24.18356 10.000499,-0.12148 z m 100.960376,121.62864 -2.12251,9.77341 -85.562127,-17.17907 1.814471,-9.83527 z m 0.75085,-210.85019 9.99937,0.19269 -0.11474,32.22826 -10.00051,0.12148 z m 0.18643,-52.34515 9.99937,0.1927 -0.098,27.53322 -10.00051,0.12149 z m 0.10079,-28.30807 9.99936,0.19272 -0.0997,27.99389 -10.00047,0.12146 z m 0.23188,-65.11212 9.99937,0.1927 -0.23077,64.79796 -10.00048,0.12146 z m -101.638142,68.6857 -9.999378,-0.19269 0.184461,-51.79765 10.00049,-0.12147 z m -0.185946,52.22085 -9.999381,-0.19267 0.09805,-27.53323 10.000493,-0.1215 z m -0.203123,57.04017 -9.999379,-0.19269 0.114768,-32.22826 10.000494,-0.12149 z m 0.574642,-161.37283 0.148978,-7.73045 15.218851,0.0542 0.09393,7.73132 z m -0.272358,76.48526 -9.999379,-0.19269 0.08567,-24.05927 10.000494,-0.12149 z m 101.293077,28.20845 9.99936,0.19269 -0.0861,24.18358 -10.00049,0.12147 z m -101.479478,24.13668 -9.999382,-0.19267 0.08611,-24.18357 10.000508,-0.12149 z m 15.920513,-128.77534 -1.744389,-9.84796 85.682344,-16.56927 2.05286,9.78829 z"
       id="path830"
       style="fill:#e5e5e5;fill-opacity:1;stroke:#000000;stroke-width:0.25;stroke-linecap:butt;stroke-linejoin:bevel;stroke-dasharray:none;stroke-opacity:1"
       inkscape:connector-curvature="0" />
    <path
       class="outer"
       d="m 23.839532,564.43635 0.184433,-51.79765 10.000504,-0.12147 -9.999382,-0.19271 0.08567,-24.05928 10.0005,-0.12148 -9.999376,-0.1927 0.09804,-27.53319 10.000501,-0.12149 -9.999379,-0.1927 0.08612,-24.18356 10.000499,-0.12148 -9.999373,-0.19268 0.114756,-32.22827 10.000491,-0.12148 -9.999379,-0.19269 0.114768,-32.22826 10.000494,-0.12149 -9.999382,-0.19267 0.08611,-24.18357 10.000508,-0.12149 -9.999381,-0.19267 0.09805,-27.53323 10.000493,-0.1215 -9.999379,-0.19269 0.08567,-24.05927 10.000494,-0.12149 -9.999378,-0.19269 0.184461,-51.79765 10.00049,-0.12147 0.148978,-7.73045 15.218851,0.0542 0.09393,7.73132 -1.744389,-9.84796 85.682344,-16.56927 2.05286,9.78829 9.99937,0.1927 -0.23077,64.79796 -10.00048,0.12146 9.99936,0.19272 -0.0997,27.99389 -10.00047,0.12146 9.99937,0.1927 -0.098,27.53322 -10.00051,0.12149 9.99936,0.19269 -0.0861,24.18358 -10.00049,0.12147 9.99937,0.19269 -0.11474,32.22826 -10.00051,0.12148 9.99938,0.1927 -0.11477,32.22826 -10.00049,0.12148 9.99937,0.1927 -0.0861,24.18355 -10.00051,0.12148 9.99939,0.19269 -0.098,27.53323 -10.00049,0.12148 9.99938,0.19272 -0.0997,27.9939 -10.00049,0.12147 9.99936,0.19269 -0.23075,64.79793 -10.00049,0.12148 -2.12251,9.77341 -85.562127,-17.17907 1.814471,-9.83527 -0.148969,7.73045 -15.218857,-0.0542 -0.09391,-7.7313 z"
       id="path832"
       style="fill:none;stroke:#000000;stroke-width:0.25;stroke-linecap:butt;stroke-linejoin:bevel;stroke-dasharray:none;stroke-dashoffset:0;stroke-opacity:1"
       inkscape:connector-curvature="0" />
    <path
       inkscape:connector-curvature="0"
       style="fill:#000000;stroke:#000000;stroke-width:0.25;stroke-linecap:butt;stroke-linejoin:bevel;stroke-dasharray:none;stroke-opacity:1"
       id="path834"
       d="m 135.28674,549.36897 -10.03555,9.96433 7.53557,-9.97323 -7.46435,-10.02665 z"
       class="arrow" />
    <path
       d="m 127.76754,553.60972 -3.89036,-0.59467 0.11215,-0.73366 1.49629,0.22872 0.73633,-4.8171 -1.49629,-0.22872 0.10034,-0.65644 q 0.30408,0.0465 0.65899,0.0513 0.35564,3e-5 0.54899,-0.0692 0.24047,-0.0867 0.394,-0.25096 0.1591,-0.16832 0.22637,-0.47911 l 0.74814,0.11436 -0.99014,6.4775 1.46734,0.22429 z"
       style="font-style:normal;font-size:medium;text-anchor:middle;fill:none;fill-opacity:1;stroke:#000000;stroke-width:0.25;stroke-linecap:butt;stroke-linejoin:bevel;stroke-dasharray:none;stroke-opacity:1"
       id="path916"
       inkscape:connector-curvature="0" />
    <path
       inkscape:connector-curvature="0"
       id="path919"
       style="font-style:normal;font-size:medium;text-anchor:middle;fill:none;fill-opacity:1;stroke:#000000;stroke-width:0.25;stroke-linecap:butt;stroke-linejoin:bevel;stroke-dasharray:none;stroke-opacity:1"
       d="m 138.93682,546.8902 0.003,-0.97119 -1.8413,-0.007 0.003,-0.84375 1.84129,0.007 0.0112,-3.13328 1.01074,0.004 3.6801,3.18158 -0.003,0.80859 -3.999,-0.0142 -0.003,0.97118 z m 0.70958,-1.81243 2.95311,0.0105 -2.94408,-2.54614 z" />
    <path
       inkscape:connector-curvature="0"
       id="path921"
       style="font-style:normal;font-size:medium;text-anchor:middle;fill:none;fill-opacity:1;stroke:#000000;stroke-width:0.25;stroke-linecap:butt;stroke-linejoin:bevel;stroke-dasharray:none;stroke-opacity:1"
       d="m 140.74102,549.91129 0.004,-1.05028 1.25243,0.004 -0.004,1.05028 z m -3.65623,-0.013 0.004,-1.05028 1.25243,0.004 -0.004,1.05028 z" />
    <path
       inkscape:connector-curvature="0"
       id="path923"
       style="font-style:normal;font-size:medium;text-anchor:middle;fill:none;fill-opacity:1;stroke:#000000;stroke-width:0.25;stroke-linecap:butt;stroke-linejoin:bevel;stroke-dasharray:none;stroke-opacity:1"
       d="m 137.0624,556.18681 0.0126,-3.54198 0.66796,0.002 -0.005,1.3623 4.38572,0.0156 0.005,-1.3623 0.59765,0.002 q -9.9e-4,0.27686 0.0418,0.59341 0.0472,0.31658 0.13452,0.47949 0.10914,0.20254 0.27573,0.31739 0.17096,0.11927 0.45654,0.13786 l -0.002,0.68115 -5.89743,-0.021 -0.005,1.33593 z" />
    <path
       inkscape:connector-curvature="0"
       style="fill:#000000;stroke:#000000;stroke-width:0.25000003;stroke-linecap:butt;stroke-linejoin:bevel;stroke-dasharray:none;stroke-opacity:1"
       id="path846"
       d="m 33.931691,538.57314 10.035547,-9.96433 -7.535563,9.97323 7.464343,10.02665 z"
       class="arrow" />
    <path
       d="m 44.82265,542.9407 -4.865362,-0.74371 0.154201,-1.00879 q 0.573211,-0.35694 1.146423,-0.71388 0.578038,-0.3562 1.082937,-0.71864 1.063967,-0.75611 1.487087,-1.22984 0.423858,-0.47856 0.51756,-1.09156 0.08559,-0.5599 -0.238117,-0.93045 -0.318137,-0.37464 -0.979402,-0.47572 -0.439234,-0.0671 -0.974479,0.009 -0.535245,0.0762 -1.071442,0.32029 l -0.04827,-0.007 0.154939,-1.01362 q 0.368522,-0.11655 0.959475,-0.16947 0.59578,-0.0522 1.131549,0.0297 1.105325,0.16896 1.650906,0.80064 0.546318,0.62686 0.406873,1.53912 -0.06271,0.41027 -0.2235,0.75122 -0.155222,0.33686 -0.40664,0.62443 -0.233988,0.27049 -0.534074,0.52099 -0.295259,0.25124 -0.711125,0.54826 -0.593932,0.42786 -1.217224,0.8216 -0.622555,0.38891 -1.162378,0.72131 l 3.866225,0.59099 z"
       style="font-style:normal;font-size:medium;text-anchor:middle;fill:none;fill-opacity:1;stroke:#000000;stroke-width:0.25;stroke-linecap:butt;stroke-linejoin:bevel;stroke-dasharray:none;stroke-opacity:1"
       id="path926"
       inkscape:connector-curvature="0" />
    <path
       inkscape:connector-curvature="0"
       id="path929"
       style="font-style:normal;font-size:medium;text-anchor:middle;fill:none;fill-opacity:1;stroke:#000000;stroke-width:0.25;stroke-linecap:butt;stroke-linejoin:bevel;stroke-dasharray:none;stroke-opacity:1"
       d="m 32.110804,544.4465 -0.01261,3.54197 -0.667963,-0.002 0.0049,-1.36229 -4.385715,-0.0156 -0.0049,1.36229 -0.597652,-0.002 q 9.86e-4,-0.27684 -0.04183,-0.59341 -0.04721,-0.31658 -0.134525,-0.47948 -0.109142,-0.20254 -0.275726,-0.31739 -0.170964,-0.11926 -0.456543,-0.13786 l 0.0024,-0.68115 5.897424,0.021 0.0048,-1.33593 z" />
    <path
       inkscape:connector-curvature="0"
       id="path931"
       style="font-style:normal;font-size:medium;text-anchor:middle;fill:none;fill-opacity:1;stroke:#000000;stroke-width:0.25;stroke-linecap:butt;stroke-linejoin:bevel;stroke-dasharray:none;stroke-opacity:1"
       d="m 32.132539,538.34254 -0.01577,4.42965 -0.918451,-0.003 q -0.393862,-0.46283 -0.787724,-0.92566 -0.393847,-0.46723 -0.783534,-0.86852 -0.814373,-0.84665 -1.292263,-1.16037 -0.482284,-0.31373 -1.040386,-0.31572 -0.509763,-0.002 -0.79661,0.33554 -0.291227,0.33296 -0.29337,0.935 -0.0014,0.3999 0.137541,0.86622 0.138965,0.46632 0.427422,0.9112 l -1.56e-4,0.0439 -0.922846,-0.003 q -0.152696,-0.31255 -0.278291,-0.83155 -0.125578,-0.52341 -0.123841,-1.01119 0.0036,-1.00635 0.493407,-1.5759 0.48543,-0.56956 1.315991,-0.5666 0.373533,0.001 0.698382,0.0992 0.32047,0.0935 0.60985,0.27904 0.271849,0.17235 0.53469,0.40619 0.262856,0.22946 0.582482,0.56019 0.459747,0.47185 0.89302,0.97438 0.428877,0.50251 0.796467,0.93887 l 0.01253,-3.51999 z" />
    <path
       inkscape:connector-curvature="0"
       id="path933"
       style="font-style:normal;font-size:medium;text-anchor:middle;fill:none;fill-opacity:1;stroke:#000000;stroke-width:0.25;stroke-linecap:butt;stroke-linejoin:bevel;stroke-dasharray:none;stroke-opacity:1"
       d="m 28.487579,535.16547 -0.0037,1.05029 -1.252433,-0.004 0.0037,-1.05029 z m 3.656227,0.013 -0.0037,1.05029 -1.252433,-0.004 0.0037,-1.05029 z" />
    <path
       inkscape:connector-curvature="0"
       id="path935"
       style="font-style:normal;font-size:medium;text-anchor:middle;fill:none;fill-opacity:1;stroke:#000000;stroke-width:0.25;stroke-linecap:butt;stroke-linejoin:bevel;stroke-dasharray:none;stroke-opacity:1"
       d="m 32.167528,528.51642 -0.01577,4.42966 -0.918451,-0.003 q -0.393862,-0.46283 -0.787724,-0.92566 -0.393847,-0.46722 -0.783533,-0.86851 -0.814374,-0.84666 -1.292264,-1.16038 -0.482284,-0.31373 -1.040386,-0.31572 -0.509763,-0.002 -0.79661,0.33555 -0.291226,0.33295 -0.29337,0.935 -0.0014,0.39989 0.137541,0.86621 0.138966,0.46632 0.427422,0.9112 l -1.56e-4,0.0439 -0.922846,-0.003 q -0.152696,-0.31255 -0.278291,-0.83155 -0.125578,-0.5234 -0.123841,-1.0112 0.0036,-1.00633 0.493408,-1.57588 0.485429,-0.56957 1.315991,-0.56661 0.373532,0.001 0.698381,0.0992 0.32047,0.0934 0.60985,0.27902 0.271849,0.17236 0.53469,0.40621 0.262857,0.22945 0.582482,0.56018 0.459748,0.47185 0.89302,0.97438 0.428878,0.5025 0.796467,0.93887 l 0.01253,-3.52 z" />
    <path
       inkscape:connector-curvature="0"
       style="fill:#000000;stroke:#000000;stroke-width:0.24999999;stroke-linecap:butt;stroke-linejoin:bevel;stroke-dasharray:none;stroke-opacity:1"
       id="path858"
       d="m 41.569765,564.65657 -9.964332,-10.03554 9.973233,7.53556 10.026639,-7.46435 z"
       class="arrow" />
    <path
       d="m 43.389526,556.43472 q 0.199958,0.24297 0.301629,0.57958 0.101672,0.33661 0.02568,0.83376 -0.07526,0.49233 -0.31656,0.8753 -0.241303,0.38298 -0.611177,0.63763 -0.413652,0.28254 -0.931066,0.37139 -0.511849,0.0848 -1.095886,-0.005 -0.598517,-0.0915 -1.155592,-0.32483 -0.557814,-0.22851 -0.90365,-0.45426 l 0.154202,-1.00879 0.0724,0.0111 q 0.368956,0.33301 0.896733,0.59645 0.527778,0.26344 1.04424,0.34238 0.304085,0.0465 0.662278,-0.002 0.358193,-0.049 0.60082,-0.21441 0.254494,-0.17844 0.399786,-0.41803 0.150119,-0.23885 0.209881,-0.62981 0.05902,-0.38614 -0.0281,-0.65632 -0.08156,-0.27426 -0.276634,-0.45226 -0.194332,-0.18283 -0.495128,-0.28315 -0.300058,-0.10514 -0.657237,-0.15974 l -0.434407,-0.0664 0.122475,-0.80124 0.337873,0.0516 q 0.733666,0.11214 1.214555,-0.12554 0.486454,-0.24177 0.576466,-0.83063 0.03984,-0.26065 -0.04166,-0.47069 -0.08076,-0.21486 -0.259479,-0.37061 -0.188367,-0.15722 -0.4175,-0.24164 -0.229133,-0.0844 -0.528391,-0.13016 -0.458541,-0.0701 -1.000089,0.0151 -0.541547,0.0852 -1.045832,0.31433 l -0.04827,-0.007 0.154202,-1.00879 q 0.368523,-0.11655 0.959475,-0.16946 0.596517,-0.057 1.132286,0.0249 0.526116,0.0804 0.91198,0.23819 0.385864,0.15777 0.676793,0.41958 0.312111,0.28481 0.44053,0.64033 0.128418,0.35552 0.06128,0.79475 -0.09149,0.59852 -0.584858,0.98248 -0.487805,0.37987 -1.079896,0.40791 l -0.01033,0.0676 q 0.225781,0.074 0.505857,0.24526 0.280813,0.16642 0.460327,0.38156 z"
       style="font-style:normal;font-size:medium;text-anchor:middle;fill:none;fill-opacity:1;stroke:#000000;stroke-width:0.25;stroke-linecap:butt;stroke-linejoin:bevel;stroke-dasharray:none;stroke-opacity:1"
       id="path938"
       inkscape:connector-curvature="0" />
    <path
       inkscape:connector-curvature="0"
       id="path941"
       style="font-style:normal;font-size:medium;text-anchor:middle;fill:none;fill-opacity:1;stroke:#000000;stroke-width:0.25;stroke-linecap:butt;stroke-linejoin:bevel;stroke-dasharray:none;stroke-opacity:1"
       d="m 43.578258,570.35767 2.305854,-4.29424 0.727261,0.003 -2.452566,4.45684 2.881856,0.0103 -0.0021,0.59473 -3.462986,-0.0123 z" />
    <path
       inkscape:connector-curvature="0"
       id="path943"
       style="font-style:normal;font-size:medium;text-anchor:middle;fill:none;fill-opacity:1;stroke:#000000;stroke-width:0.25;stroke-linecap:butt;stroke-linejoin:bevel;stroke-dasharray:none;stroke-opacity:1"
       d="m 41.150245,568.87409 0.812221,0.003 -0.0034,0.96854 -0.812221,-0.003 z m 0.01007,-2.82748 0.81222,0.003 -0.0034,0.96855 -0.81222,-0.003 z" />
    <path
       inkscape:connector-curvature="0"
       id="path945"
       style="font-style:normal;font-size:medium;text-anchor:middle;fill:none;fill-opacity:1;stroke:#000000;stroke-width:0.25;stroke-linecap:butt;stroke-linejoin:bevel;stroke-dasharray:none;stroke-opacity:1"
       d="m 36.44483,568.46651 q -0.162603,-0.14672 -0.267168,-0.36798 -0.104565,-0.22127 -0.103318,-0.57131 0.0012,-0.34664 0.128005,-0.63506 0.12677,-0.28842 0.355226,-0.50171 0.255729,-0.23698 0.602779,-0.35129 0.343639,-0.11092 0.754847,-0.10946 0.421404,0.001 0.82885,0.10491 0.40746,0.0999 0.668714,0.21988 l -0.0025,0.71026 -0.05098,-1.8e-4 q -0.288187,-0.19133 -0.678557,-0.31847 -0.390371,-0.12713 -0.754001,-0.12842 -0.2141,-7.6e-4 -0.455642,0.0698 -0.241541,0.0705 -0.391568,0.20931 -0.15686,0.14898 -0.232266,0.32882 -0.0788,0.17984 -0.07978,0.45512 -9.68e-4,0.27187 0.08676,0.4489 0.08432,0.18042 0.236885,0.28291 0.152553,0.1059 0.369918,0.14405 0.217354,0.0416 0.468837,0.0425 l 0.305857,0.001 -0.002,0.56414 -0.237888,-8.5e-4 q -0.51656,-0.002 -0.823179,0.21117 -0.310031,0.2164 -0.311507,0.63101 -6.54e-4,0.1835 0.07702,0.31972 0.07766,0.13962 0.216687,0.22848 0.145818,0.0888 0.312219,0.12345 0.166402,0.0346 0.377103,0.0353 0.322849,0.001 0.686891,-0.11309 0.364042,-0.11426 0.687642,-0.32381 l 0.03399,1.2e-4 -0.0025,0.71027 q -0.241711,0.11809 -0.643075,0.21521 -0.404775,0.10051 -0.781998,0.0992 -0.370428,-0.001 -0.652254,-0.0703 -0.281827,-0.069 -0.508988,-0.21931 -0.244106,-0.16399 -0.369024,-0.39553 -0.124918,-0.23154 -0.123817,-0.5408 0.0015,-0.4214 0.301687,-0.73639 0.296776,-0.3116 0.701477,-0.39173 l 1.7e-4,-0.0476 q -0.163027,-0.0278 -0.373414,-0.11688 -0.2104,-0.0857 -0.356072,-0.21537 z" />
    <path
       inkscape:connector-curvature="0"
       style="fill:#000000;stroke:#000000;stroke-width:0.25;stroke-linecap:butt;stroke-linejoin:bevel;stroke-dasharray:none;stroke-opacity:1"
       id="path870"
       d="m 92.235729,573.30456 -7.835831,-11.77284 8.327957,9.32176 11.280715,-5.38475 z"
       class="arrow" />
    <path
       d="m 96.371656,566.81885 -1.066711,-0.16305 -0.309141,2.0224 -0.926736,-0.14165 0.309141,-2.02241 -3.441471,-0.52606 0.169695,-1.11015 4.099844,-3.52251 0.888121,0.13576 -0.671404,4.39234 1.066711,0.16305 z m -1.875398,-1.07699 0.495807,-3.24358 -3.28084,2.81786 z"
       style="font-style:normal;font-size:medium;text-anchor:middle;fill:none;fill-opacity:1;stroke:#000000;stroke-width:0.25;stroke-linecap:butt;stroke-linejoin:bevel;stroke-dasharray:none;stroke-opacity:1"
       id="path948"
       inkscape:connector-curvature="0" />
    <path
       inkscape:connector-curvature="0"
       id="path951"
       style="font-style:normal;font-size:medium;text-anchor:middle;fill:none;fill-opacity:1;stroke:#000000;stroke-width:0.25;stroke-linecap:butt;stroke-linejoin:bevel;stroke-dasharray:none;stroke-opacity:1"
       d="m 93.358383,581.04039 3.999128,-4.87156 0.922029,0.18512 -4.225924,5.04117 3.653644,0.73358 -0.151386,0.75399 -4.390401,-0.8815 z" />
    <path
       inkscape:connector-curvature="0"
       id="path953"
       style="font-style:normal;font-size:medium;text-anchor:middle;fill:none;fill-opacity:1;stroke:#000000;stroke-width:0.25;stroke-linecap:butt;stroke-linejoin:bevel;stroke-dasharray:none;stroke-opacity:1"
       d="m 90.648896,578.5511 1.02974,0.20675 -0.246544,1.22793 -1.029739,-0.20675 z m 0.719735,-3.58471 1.02974,0.20675 -0.246544,1.22793 -1.02974,-0.20675 z" />
    <path
       inkscape:connector-curvature="0"
       id="path955"
       style="font-style:normal;font-size:medium;text-anchor:middle;fill:none;fill-opacity:1;stroke:#000000;stroke-width:0.25;stroke-linecap:butt;stroke-linejoin:bevel;stroke-dasharray:none;stroke-opacity:1"
       d="m 84.327928,575.43081 0.952187,0.19118 0.362461,-1.80528 0.827241,0.1661 -0.362461,1.80527 3.071992,0.61679 -0.198967,0.99097 -3.833118,2.99546 -0.792769,-0.15917 0.787209,-3.92077 -0.952187,-0.19118 z m 1.641016,1.04664 -0.581323,2.89534 3.067349,-2.3962 z" />
    <path
       inkscape:connector-curvature="0"
       style="fill:#000000;stroke:#000000;stroke-width:0.25;stroke-linecap:butt;stroke-linejoin:bevel;stroke-dasharray:none;stroke-opacity:1"
       id="path882"
       d="m 136.3248,257.86555 -10.03555,9.96432 7.53557,-9.97322 -7.46434,-10.02665 z"
       class="arrow" />
    <path
       d="m 129.50694,259.87712 q -0.0767,0.50198 -0.33024,0.93248 -0.25351,0.43051 -0.62004,0.69555 -0.39917,0.28475 -0.90988,0.39439 -0.50515,0.10554 -1.13745,0.009 -0.58886,-0.09 -1.1151,-0.29888 -0.52698,-0.20404 -0.87691,-0.43535 l 0.15568,-1.01845 0.0676,0.0103 q 0.35742,0.31149 0.86107,0.57124 0.50438,0.25492 1.01601,0.33313 0.3427,0.0524 0.67602,0.005 0.33815,-0.0471 0.62603,-0.25008 0.24411,-0.17508 0.39456,-0.44846 0.15529,-0.27263 0.21357,-0.65395 0.0568,-0.37166 -0.0344,-0.64739 -0.0864,-0.27501 -0.28964,-0.46414 -0.22296,-0.22178 -0.5739,-0.34952 -0.34537,-0.13182 -0.78943,-0.1997 -0.42476,-0.0649 -0.8294,-0.0675 -0.39982,-0.002 -0.69345,0.0125 l 0.56589,-3.70211 4.32477,0.66107 -0.12912,0.84468 -3.3932,-0.51868 -0.29217,1.9114 q 0.2105,0.0124 0.42918,0.036 0.21868,0.0236 0.37796,0.0479 0.58404,0.0893 1.00778,0.25778 0.42448,0.16368 0.75294,0.47074 0.34556,0.3245 0.49375,0.77689 0.14819,0.45239 0.0515,1.08469 z"
       style="font-style:normal;font-size:medium;text-anchor:middle;fill:none;fill-opacity:1;stroke:#000000;stroke-width:0.25;stroke-linecap:butt;stroke-linejoin:bevel;stroke-dasharray:none;stroke-opacity:1"
       id="path958"
       inkscape:connector-curvature="0" />
    <path
       inkscape:connector-curvature="0"
       id="path961"
       style="font-style:normal;font-size:medium;text-anchor:middle;fill:none;fill-opacity:1;stroke:#000000;stroke-width:0.25;stroke-linecap:butt;stroke-linejoin:bevel;stroke-dasharray:none;stroke-opacity:1"
       d="m 139.97493,255.3868 0.003,-0.97119 -1.84129,-0.007 0.003,-0.84374 1.8413,0.007 0.0112,-3.13328 1.01073,0.004 3.6801,3.18158 -0.003,0.80858 -3.99899,-0.0142 -0.003,0.97119 z m 0.70958,-1.81243 2.95311,0.0105 -2.94408,-2.54614 z" />
    <path
       inkscape:connector-curvature="0"
       id="path963"
       style="font-style:normal;font-size:medium;text-anchor:middle;fill:none;fill-opacity:1;stroke:#000000;stroke-width:0.25;stroke-linecap:butt;stroke-linejoin:bevel;stroke-dasharray:none;stroke-opacity:1"
       d="m 141.77912,258.40789 0.004,-1.05028 1.25244,0.004 -0.004,1.05028 z m -3.65623,-0.013 0.004,-1.05028 1.25244,0.004 -0.004,1.05028 z" />
    <path
       inkscape:connector-curvature="0"
       id="path965"
       style="font-style:normal;font-size:medium;text-anchor:middle;fill:none;fill-opacity:1;stroke:#000000;stroke-width:0.25;stroke-linecap:butt;stroke-linejoin:bevel;stroke-dasharray:none;stroke-opacity:1"
       d="m 140.17796,265.01161 q -0.45703,-0.002 -0.87391,-0.17011 -0.41689,-0.16848 -0.70149,-0.45953 -0.30649,-0.3175 -0.47192,-0.75755 -0.16105,-0.43563 -0.159,-1.01131 0.002,-0.53613 0.11794,-1.0323 0.11163,-0.49619 0.27105,-0.8384 l 0.92724,0.003 -2.2e-4,0.0615 q -0.2298,0.35955 -0.39411,0.84235 -0.15993,0.48284 -0.16159,0.94865 -0.001,0.31202 0.0857,0.60236 0.0868,0.29476 0.30575,0.52405 0.18828,0.19403 0.4516,0.29165 0.26332,0.10201 0.61048,0.10325 0.33838,0.001 0.57171,-0.11662 0.23331,-0.11342 0.37467,-0.31947 0.16781,-0.22792 0.2349,-0.55727 0.0715,-0.32495 0.0729,-0.72923 0.001,-0.38672 -0.0501,-0.74726 -0.0515,-0.35614 -0.10328,-0.61561 l 3.37058,0.012 -0.014,3.93748 -0.76903,-0.003 0.011,-3.08933 -1.74023,-0.006 q 0.0169,0.18902 0.025,0.3868 0.008,0.19779 0.008,0.34281 -0.002,0.53174 -0.0956,0.93131 -0.0893,0.39958 -0.31902,0.73276 -0.24295,0.35069 -0.62596,0.54269 -0.38301,0.192 -0.95869,0.18995 z" />
    <path
       inkscape:connector-curvature="0"
       style="fill:#000000;stroke:#000000;stroke-width:0.25000003;stroke-linecap:butt;stroke-linejoin:bevel;stroke-dasharray:none;stroke-opacity:1"
       id="path894"
       d="m 34.895401,267.93929 10.035547,-9.96433 -7.535563,9.97323 7.464343,10.02665 z"
       class="arrow" />
    <path
       d="m 44.453358,269.71733 q -0.167482,1.09567 -0.997739,1.68005 -0.824691,0.58029 -1.872096,0.42019 -0.530942,-0.0812 -0.940264,-0.31167 -0.409322,-0.23052 -0.692935,-0.60482 -0.353862,-0.46407 -0.479639,-1.16001 -0.120951,-0.6952 0.02144,-1.62677 0.146086,-0.95569 0.461694,-1.6632 0.320435,-0.70676 0.857121,-1.21253 0.508126,-0.4805 1.225526,-0.68203 0.718138,-0.20635 1.611086,-0.0699 0.284779,0.0435 0.474159,0.0972 0.189381,0.0536 0.377686,0.14664 l -0.140921,0.92191 -0.04827,-0.007 q -0.124082,-0.0931 -0.389615,-0.19786 -0.259969,-0.10889 -0.544747,-0.15242 -1.037751,-0.15863 -1.755179,0.39854 -0.716689,0.55235 -0.987009,1.64218 0.443075,-0.18419 0.853225,-0.24992 0.415714,-0.0698 0.932176,0.009 0.458541,0.0701 0.792786,0.2101 0.33981,0.13591 0.667539,0.4478 0.379748,0.35936 0.523509,0.84071 0.148587,0.48209 0.05046,1.12405 z m -0.985732,-0.11116 q 0.06862,-0.44889 -0.02153,-0.76398 -0.08532,-0.31435 -0.3562,-0.57804 -0.19842,-0.18839 -0.46134,-0.27798 -0.26292,-0.0896 -0.557352,-0.13459 -0.410273,-0.0627 -0.777382,-0.02 -0.367109,0.0427 -0.769756,0.18859 -0.02589,0.10471 -0.04621,0.20533 -0.01958,0.0958 -0.04245,0.24543 -0.116573,0.76263 -0.03,1.2303 0.09214,0.46358 0.328164,0.76145 0.189566,0.24632 0.42989,0.38678 0.245888,0.13638 0.549974,0.18286 0.699878,0.10698 1.165425,-0.25653 0.466285,-0.36834 0.588761,-1.16958 z"
       style="font-style:normal;font-size:medium;text-anchor:middle;fill:none;fill-opacity:1;stroke:#000000;stroke-width:0.25;stroke-linecap:butt;stroke-linejoin:bevel;stroke-dasharray:none;stroke-opacity:1"
       id="path968"
       inkscape:connector-curvature="0" />
    <path
       d="m 47.01718,272.49502 -1.153593,-0.17634 0.210275,-1.37562 1.153593,0.17634 z"
       style="font-style:normal;font-size:medium;text-anchor:middle;fill:none;fill-opacity:1;stroke:#000000;stroke-width:0.25;stroke-linecap:butt;stroke-linejoin:bevel;stroke-dasharray:none;stroke-opacity:1"
       id="path970"
       inkscape:connector-curvature="0" />
    <path
       inkscape:connector-curvature="0"
       id="path973"
       style="font-style:normal;font-size:medium;text-anchor:middle;fill:none;fill-opacity:1;stroke:#000000;stroke-width:0.25;stroke-linecap:butt;stroke-linejoin:bevel;stroke-dasharray:none;stroke-opacity:1"
       d="m 33.068678,275.44745 -0.01261,3.54196 -0.667964,-0.002 0.0049,-1.3623 -4.385715,-0.0156 -0.0049,1.3623 -0.597652,-0.002 q 9.86e-4,-0.27686 -0.04184,-0.59341 -0.04721,-0.31658 -0.134524,-0.4795 -0.109143,-0.20254 -0.275727,-0.31738 -0.170963,-0.11927 -0.456544,-0.13786 l 0.0024,-0.68115 5.897424,0.021 0.0048,-1.33592 z" />
    <path
       inkscape:connector-curvature="0"
       id="path975"
       style="font-style:normal;font-size:medium;text-anchor:middle;fill:none;fill-opacity:1;stroke:#000000;stroke-width:0.25;stroke-linecap:butt;stroke-linejoin:bevel;stroke-dasharray:none;stroke-opacity:1"
       d="m 33.090413,269.34347 -0.01577,4.42967 -0.918451,-0.003 q -0.393863,-0.46284 -0.787725,-0.92567 -0.393846,-0.46722 -0.783534,-0.86851 -0.814373,-0.84666 -1.292262,-1.16038 -0.482285,-0.31373 -1.040386,-0.31572 -0.509763,-0.002 -0.79661,0.33555 -0.291228,0.33295 -0.293371,0.935 -0.0014,0.3999 0.137541,0.86622 0.138966,0.46631 0.427423,0.91119 l -1.56e-4,0.0439 -0.922846,-0.003 q -0.152697,-0.31256 -0.278291,-0.83156 -0.125578,-0.5234 -0.123841,-1.0112 0.0036,-1.00633 0.493408,-1.57588 0.485429,-0.56956 1.315989,-0.56661 0.373534,0.001 0.698383,0.0992 0.32047,0.0934 0.60985,0.27902 0.271849,0.17236 0.534689,0.40621 0.262857,0.22946 0.582482,0.56019 0.459749,0.47185 0.893021,0.97437 0.428877,0.5025 0.796466,0.93888 l 0.01253,-3.52 z" />
    <path
       inkscape:connector-curvature="0"
       id="path977"
       style="font-style:normal;font-size:medium;text-anchor:middle;fill:none;fill-opacity:1;stroke:#000000;stroke-width:0.25;stroke-linecap:butt;stroke-linejoin:bevel;stroke-dasharray:none;stroke-opacity:1"
       d="m 29.445453,266.16641 -0.0037,1.05029 -1.252433,-0.004 0.0037,-1.05029 z m 3.656227,0.013 -0.0037,1.05029 -1.252433,-0.004 0.0037,-1.05029 z" />
    <path
       inkscape:connector-curvature="0"
       id="path979"
       style="font-style:normal;font-size:medium;text-anchor:middle;fill:none;fill-opacity:1;stroke:#000000;stroke-width:0.25;stroke-linecap:butt;stroke-linejoin:bevel;stroke-dasharray:none;stroke-opacity:1"
       d="m 31.003201,259.41313 q 0.997553,0.004 1.628015,0.66498 0.626082,0.65702 0.622686,1.61063 -0.0017,0.48339 -0.152543,0.87836 -0.150822,0.39498 -0.446332,0.69715 -0.36609,0.37663 -0.968873,0.58103 -0.602767,0.2 -1.450905,0.19698 -0.870113,-0.003 -1.541814,-0.19006 -0.671686,-0.19136 -1.193176,-0.60191 -0.495202,-0.38849 -0.769881,-1.00031 -0.279073,-0.61184 -0.276179,-1.42482 9.24e-4,-0.25927 0.02352,-0.43498 0.0226,-0.1757 0.08037,-0.35567 l 0.839351,0.003 -1.56e-4,0.0439 q -0.06636,0.12282 -0.124377,0.3731 -0.06239,0.24587 -0.06332,0.50515 -0.0034,0.94481 0.58789,1.50942 0.586861,0.5646 1.592874,0.66047 -0.222806,-0.36994 -0.335795,-0.7263 -0.117368,-0.36077 -0.115694,-0.83099 0.0015,-0.41748 0.08171,-0.73359 0.07585,-0.32053 0.309947,-0.65369 0.269442,-0.38577 0.678819,-0.57767 0.409393,-0.19629 0.993861,-0.19421 z m 0.03198,0.89221 q -0.408689,-0.001 -0.677191,0.12064 -0.268488,0.11769 -0.467226,0.39385 -0.141344,0.20163 -0.186166,0.44758 -0.04483,0.24593 -0.04578,0.514 -0.0013,0.37352 0.08542,0.69464 0.08675,0.32111 0.270112,0.66014 0.09665,0.009 0.188916,0.0139 0.08788,0.004 0.224105,0.005 0.694332,0.002 1.099127,-0.13671 0.400417,-0.14359 0.634217,-0.39325 0.194078,-0.20146 0.287191,-0.43404 0.08873,-0.23698 0.08972,-0.51384 0.0023,-0.63721 -0.383149,-1.00332 -0.389812,-0.36614 -1.119299,-0.36874 z" />
    <path
       inkscape:connector-curvature="0"
       id="path981"
       style="font-style:normal;font-size:medium;text-anchor:middle;fill:none;fill-opacity:1;stroke:#000000;stroke-width:0.25;stroke-linecap:butt;stroke-linejoin:bevel;stroke-dasharray:none;stroke-opacity:1"
       d="m 33.135214,256.76201 -0.0037,1.05029 -1.252433,-0.004 0.0037,-1.05029 z" />
    <path
       inkscape:connector-curvature="0"
       style="fill:#000000;stroke:#000000;stroke-width:0.25;stroke-linecap:butt;stroke-linejoin:bevel;stroke-dasharray:none;stroke-opacity:1"
       id="path906"
       d="m 42.719059,241.9109 9.964331,10.03554 -9.973233,-7.53556 -10.026641,7.46435 z"
       class="arrow" />
    <path
       d="m 45.531399,249.13866 -4.187292,5.61338 -1.032925,-0.15789 4.430257,-5.81334 -4.093082,-0.62566 0.129116,-0.84468 4.918456,0.75183 z"
       style="font-style:normal;font-size:medium;text-anchor:middle;fill:none;fill-opacity:1;stroke:#000000;stroke-width:0.25;stroke-linecap:butt;stroke-linejoin:bevel;stroke-dasharray:none;stroke-opacity:1"
       id="path984"
       inkscape:connector-curvature="0" />
    <path
       inkscape:connector-curvature="0"
       id="path987"
       style="font-style:normal;font-size:medium;text-anchor:middle;fill:none;fill-opacity:1;stroke:#000000;stroke-width:0.25;stroke-linecap:butt;stroke-linejoin:bevel;stroke-dasharray:none;stroke-opacity:1"
       d="m 40.724275,239.10186 q -0.0023,0.65589 -0.517045,1.08906 -0.511312,0.43318 -1.28615,0.43042 -0.822417,-0.003 -1.310276,-0.42947 -0.484461,-0.42653 -0.482102,-1.08923 0.0015,-0.4214 0.247397,-0.76037 0.245908,-0.34237 0.691814,-0.54129 l 7.3e-5,-0.0204 q -0.407035,-0.21895 -0.603223,-0.47793 -0.19279,-0.25897 -0.191411,-0.64639 0.002,-0.57093 0.47237,-0.94988 0.470336,-0.37896 1.1942,-0.37638 0.757846,0.003 1.20854,0.36793 0.450695,0.36525 0.448699,0.92599 -0.0012,0.34323 -0.216509,0.67552 -0.215275,0.32889 -0.630547,0.51432 l -7.2e-5,0.0204 q 0.475052,0.2056 0.72547,0.50555 0.250418,0.29996 0.248772,0.76215 z m -0.796627,-2.47352 q 0.0013,-0.36363 -0.280011,-0.57874 -0.277896,-0.21849 -0.712893,-0.22004 -0.428201,-0.002 -0.704198,0.20141 -0.272599,0.20293 -0.273834,0.54956 -8.71e-4,0.24469 0.134424,0.4253 0.138706,0.17721 0.41688,0.31753 0.125523,0.0616 0.359663,0.16101 0.237539,0.0993 0.461604,0.16478 0.337242,-0.2231 0.467241,-0.46393 0.129998,-0.24083 0.131124,-0.55688 z m 0.09632,2.53559 q 0.0011,-0.31266 -0.137556,-0.50006 -0.135259,-0.19079 -0.535594,-0.38254 -0.15946,-0.0754 -0.349541,-0.14058 -0.190081,-0.0653 -0.505722,-0.18192 -0.306451,0.16543 -0.49438,0.45023 -0.184531,0.28482 -0.185814,0.64506 -0.0016,0.45878 0.313354,0.75897 0.314988,0.30018 0.800961,0.30191 0.496169,0.002 0.792738,-0.25206 0.299969,-0.25381 0.301554,-0.69901 z" />
    <path
       inkscape:connector-curvature="0"
       id="path989"
       style="font-style:normal;font-size:medium;text-anchor:middle;fill:none;fill-opacity:1;stroke:#000000;stroke-width:0.25;stroke-linecap:butt;stroke-linejoin:bevel;stroke-dasharray:none;stroke-opacity:1"
       d="m 43.138798,237.69329 -0.812221,-0.003 0.0034,-0.96854 0.812221,0.003 z m -0.01007,2.82749 -0.812221,-0.003 0.0034,-0.96854 0.81222,0.003 z" />
    <path
       inkscape:connector-curvature="0"
       id="path991"
       style="font-style:normal;font-size:medium;text-anchor:middle;fill:none;fill-opacity:1;stroke:#000000;stroke-width:0.25;stroke-linecap:butt;stroke-linejoin:bevel;stroke-dasharray:none;stroke-opacity:1"
       d="m 48.309643,236.23678 -2.305853,4.29423 -0.727261,-0.003 2.452565,-4.45684 -2.881856,-0.0103 0.0021,-0.59472 3.462985,0.0123 z" />
    <path
       inkscape:connector-curvature="0"
       style="fill:#000000;stroke:#000000;stroke-width:0.25;stroke-linecap:butt;stroke-linejoin:bevel;stroke-dasharray:none;stroke-opacity:1"
       id="path918"
       d="m 93.445328,233.62399 11.716732,7.91948 -11.242075,-5.46495 -8.394135,9.26221 z"
       class="arrow" />
    <path
       d="m 97.404389,244.80083 q -0.142396,0.93157 -0.965675,1.43798 -0.818451,0.50715 -1.91895,0.33893 -1.168073,-0.17855 -1.770899,-0.88813 -0.597999,-0.70885 -0.454126,-1.65007 0.09149,-0.59852 0.512794,-1.02807 0.422045,-0.43438 1.097879,-0.6225 l 0.0044,-0.029 q -0.53199,-0.39745 -0.755868,-0.80708 -0.219051,-0.40889 -0.134941,-0.95914 0.123951,-0.81089 0.872677,-1.24967 0.748725,-0.43878 1.776823,-0.28162 1.076365,0.16453 1.639377,0.77912 0.563012,0.61459 0.441274,1.411 -0.07452,0.4875 -0.450909,0.91404 -0.375652,0.42172 -1.005095,0.59717 l -0.0044,0.029 q 0.631476,0.3929 0.923729,0.87225 0.292252,0.47936 0.19191,1.13579 z m -0.607553,-3.6839 q 0.07895,-0.51646 -0.275193,-0.88179 -0.348574,-0.36941 -0.966398,-0.46385 -0.60817,-0.093 -1.043405,0.13688 -0.430408,0.23058 -0.505665,0.72291 -0.05312,0.34752 0.100845,0.63285 0.15953,0.28125 0.525073,0.53964 0.16531,0.11418 0.476959,0.30507 0.316476,0.19162 0.621023,0.33202 0.526543,-0.24552 0.762344,-0.56018 0.235801,-0.31467 0.304417,-0.76355 z m -0.400775,3.62362 q 0.06788,-0.44406 -0.08944,-0.73978 -0.151753,-0.29981 -0.679992,-0.65717 -0.210625,-0.14086 -0.466905,-0.27389 -0.25628,-0.13302 -0.680082,-0.36575 -0.47056,0.17011 -0.798006,0.53498 -0.322621,0.3656 -0.400828,0.87724 -0.0996,0.65161 0.284356,1.14498 0.383961,0.49337 1.074186,0.59887 0.704705,0.10772 1.179968,-0.19009 0.480089,-0.29708 0.576742,-0.92939 z"
       style="font-style:normal;font-size:medium;text-anchor:middle;fill:none;fill-opacity:1;stroke:#000000;stroke-width:0.25;stroke-linecap:butt;stroke-linejoin:bevel;stroke-dasharray:none;stroke-opacity:1"
       id="path994"
       inkscape:connector-curvature="0" />
    <path
       inkscape:connector-curvature="0"
       id="path997"
       style="font-style:normal;font-size:medium;text-anchor:middle;fill:none;fill-opacity:1;stroke:#000000;stroke-width:0.25;stroke-linecap:butt;stroke-linejoin:bevel;stroke-dasharray:none;stroke-opacity:1"
       d="m 90.21184,230.5584 q 0.161032,0.83272 -0.383675,1.51098 -0.540392,0.67742 -1.52412,0.86765 -1.044132,0.20192 -1.76973,-0.21727 -0.721283,-0.42001 -0.883982,-1.26135 -0.10346,-0.53501 0.123757,-1.02654 0.22638,-0.49585 0.742364,-0.85972 l -0.005,-0.0259 q -0.57115,-0.17601 -0.884807,-0.45552 -0.309344,-0.28036 -0.404459,-0.77222 -0.140172,-0.72485 0.361794,-1.32323 0.501966,-0.59837 1.420975,-0.77609 0.962156,-0.18606 1.625274,0.16463 0.663117,0.35069 0.800786,1.0626 0.08427,0.43578 -0.105783,0.91117 -0.190887,0.47108 -0.671378,0.81018 l 0.005,0.0259 q 0.654105,0.14206 1.046809,0.46 0.392703,0.31795 0.506175,0.90473 z m -1.629137,-2.93897 q -0.08928,-0.46167 -0.499952,-0.66423 -0.407195,-0.20772 -0.959464,-0.10092 -0.543639,0.10513 -0.84306,0.43159 -0.295108,0.32562 -0.210004,0.76571 0.06007,0.31065 0.27688,0.50595 0.220285,0.19016 0.60829,0.29863 0.174659,0.0468 0.496562,0.11434 0.326219,0.0667 0.626834,0.0936 0.372078,-0.36736 0.476794,-0.7054 0.104715,-0.33804 0.02712,-0.7393 z m 0.756183,3.19282 q -0.07676,-0.39694 -0.299549,-0.60004 -0.219307,-0.20824 -0.775155,-0.35141 -0.221146,-0.0557 -0.478612,-0.091 -0.25747,-0.0353 -0.687096,-0.10435 -0.34743,0.2865 -0.514647,0.69482 -0.162902,0.40748 -0.07446,0.86482 0.112638,0.58247 0.587318,0.88456 0.474681,0.3021 1.091669,0.18278 0.629931,-0.12181 0.942724,-0.518 0.317109,-0.39702 0.207808,-0.96223 z" />
    <path
       inkscape:connector-curvature="0"
       id="path999"
       style="font-style:normal;font-size:medium;text-anchor:middle;fill:none;fill-opacity:1;stroke:#000000;stroke-width:0.25;stroke-linecap:butt;stroke-linejoin:bevel;stroke-dasharray:none;stroke-opacity:1"
       d="m 92.922963,228.16765 -1.031189,0.19941 -0.237791,-1.22966 1.031189,-0.19941 z m 0.694185,3.58975 -1.031189,0.19941 -0.237792,-1.22966 1.031189,-0.19941 z" />
    <path
       inkscape:connector-curvature="0"
       id="path1001"
       style="font-style:normal;font-size:medium;text-anchor:middle;fill:none;fill-opacity:1;stroke:#000000;stroke-width:0.25;stroke-linecap:butt;stroke-linejoin:bevel;stroke-dasharray:none;stroke-opacity:1"
       d="m 99.859281,228.69277 q 0.161029,0.83273 -0.383675,1.51098 -0.540392,0.67743 -1.52412,0.86766 -1.044133,0.20191 -1.76973,-0.21727 -0.721283,-0.42001 -0.883982,-1.26136 -0.10346,-0.535 0.123756,-1.02653 0.226381,-0.49585 0.742365,-0.85972 l -0.005,-0.0259 q -0.571151,-0.17601 -0.884808,-0.45552 -0.309344,-0.28036 -0.404459,-0.77222 -0.140172,-0.72485 0.361794,-1.32323 0.501966,-0.59838 1.420976,-0.77609 0.962155,-0.18607 1.625274,0.16463 0.663116,0.35069 0.800786,1.0626 0.08427,0.43578 -0.105783,0.91117 -0.190887,0.47108 -0.671379,0.81017 l 0.005,0.0259 q 0.654105,0.14207 1.046808,0.46001 0.392704,0.31795 0.506176,0.90472 z m -1.629137,-2.93896 q -0.08928,-0.46167 -0.499952,-0.66423 -0.407196,-0.20772 -0.959464,-0.10092 -0.543639,0.10513 -0.843061,0.43159 -0.295107,0.32562 -0.210003,0.76571 0.06007,0.31065 0.276879,0.50595 0.220286,0.19015 0.608291,0.29863 0.174658,0.0468 0.496562,0.11434 0.326219,0.0667 0.626834,0.0936 0.372078,-0.36736 0.476794,-0.7054 0.104715,-0.33804 0.02712,-0.7393 z m 0.756183,3.19282 q -0.07676,-0.39694 -0.29955,-0.60004 -0.219307,-0.20824 -0.775155,-0.35141 -0.221145,-0.0557 -0.478611,-0.0909 -0.257471,-0.0353 -0.687096,-0.10436 -0.34743,0.28651 -0.514647,0.69483 -0.162903,0.40748 -0.07446,0.86482 0.112638,0.58247 0.587319,0.88456 0.474681,0.30209 1.091669,0.18278 0.629931,-0.12182 0.942724,-0.518 0.317108,-0.39702 0.207808,-0.96223 z" />
    <path
       inkscape:connector-curvature="0"
       id="path1004"
       style="font-style:normal;font-size:medium;text-anchor:middle;fill:none;fill-opacity:1;stroke:#000000;stroke-width:0.25;stroke-linecap:butt;stroke-linejoin:bevel;stroke-dasharray:none;stroke-opacity:1"
       d="m 65.821075,140.96811 h -2.539062 v -9.51172 h 2.539062 v 0.69824 h -1.689453 v 8.11523 h 1.689453 z" />
    <path
       inkscape:connector-curvature="0"
       id="path1006"
       style="font-style:normal;font-size:medium;text-anchor:middle;fill:none;fill-opacity:1;stroke:#000000;stroke-width:0.25;stroke-linecap:butt;stroke-linejoin:bevel;stroke-dasharray:none;stroke-opacity:1"
       d="m 71.958771,139.05404 h -3.935547 v -0.74218 h 1.513672 v -4.87305 h -1.513672 v -0.66406 q 0.307617,0 0.65918,-0.0488 0.351562,-0.0537 0.532226,-0.15137 0.224609,-0.12207 0.351563,-0.30762 0.131836,-0.19043 0.151367,-0.50781 h 0.756836 v 6.55274 h 1.484375 z" />
    <path
       inkscape:connector-curvature="0"
       id="path1008"
       style="font-style:normal;font-size:medium;text-anchor:middle;fill:none;fill-opacity:1;stroke:#000000;stroke-width:0.25;stroke-linecap:butt;stroke-linejoin:bevel;stroke-dasharray:none;stroke-opacity:1"
       d="m 78.731232,135.41635 q 0,1.95801 -0.615235,2.87597 -0.610351,0.91309 -1.899414,0.91309 -1.308594,0 -1.914062,-0.92773 -0.600586,-0.92774 -0.600586,-2.85157 0,-1.93846 0.610351,-2.86133 0.610352,-0.92773 1.904297,-0.92773 1.308594,0 1.90918,0.94239 0.605469,0.9375 0.605469,2.83691 z m -1.28418,2.2168 q 0.170898,-0.3955 0.229492,-0.92773 0.06348,-0.53712 0.06348,-1.28907 0,-0.74218 -0.06348,-1.28907 -0.05859,-0.54686 -0.234375,-0.92773 -0.170898,-0.37598 -0.46875,-0.5664 -0.292969,-0.19044 -0.756836,-0.19044 -0.458984,0 -0.761719,0.19044 -0.297851,0.19042 -0.473632,0.57617 -0.166016,0.36133 -0.229493,0.94238 -0.05859,0.58105 -0.05859,1.27441 0,0.76172 0.05371,1.27442 0.05371,0.5127 0.229492,0.91797 0.161133,0.38086 0.454101,0.58105 0.297852,0.2002 0.786133,0.2002 0.458985,0 0.761719,-0.19043 0.302734,-0.19043 0.46875,-0.57617 z" />
    <path
       inkscape:connector-curvature="0"
       id="path1010"
       style="font-style:normal;font-size:medium;text-anchor:middle;fill:none;fill-opacity:1;stroke:#000000;stroke-width:0.25;stroke-linecap:butt;stroke-linejoin:bevel;stroke-dasharray:none;stroke-opacity:1"
       d="m 82.7742,140.96811 h -2.539062 v -0.69825 h 1.689453 v -8.11523 h -1.689453 v -0.69824 H 82.7742 Z" />
    <path
       inkscape:connector-curvature="0"
       id="path1012"
       style="font-style:normal;font-size:medium;text-anchor:middle;fill:none;fill-opacity:1;stroke:#000000;stroke-width:0.25;stroke-linecap:butt;stroke-linejoin:bevel;stroke-dasharray:none;stroke-opacity:1"
       d="m 91.006622,139.05404 h -2.871093 v -0.74218 h 0.952148 v -5.78614 h -0.952148 v -0.74219 h 2.871093 v 0.74219 h -0.952148 v 5.78614 h 0.952148 z" />
    <path
       inkscape:connector-curvature="0"
       id="path1014"
       style="font-style:normal;font-size:medium;text-anchor:middle;fill:none;fill-opacity:1;stroke:#000000;stroke-width:0.25;stroke-linecap:butt;stroke-linejoin:bevel;stroke-dasharray:none;stroke-opacity:1"
       d="m 100.49393,139.05404 h -3.93555 v -0.74218 h 1.513672 v -4.87305 H 96.55838 v -0.66406 q 0.307617,0 0.65918,-0.0488 0.351562,-0.0537 0.532226,-0.15137 0.22461,-0.12207 0.351563,-0.30762 0.131836,-0.19043 0.151367,-0.50781 h 0.756836 v 6.55274 h 1.484378 z" />
    <path
       inkscape:connector-curvature="0"
       id="path1016"
       style="font-style:normal;font-size:medium;text-anchor:middle;fill:none;fill-opacity:1;stroke:#000000;stroke-width:0.25;stroke-linecap:butt;stroke-linejoin:bevel;stroke-dasharray:none;stroke-opacity:1"
       d="m 107.26639,135.41635 q 0,1.95801 -0.61524,2.87597 -0.61035,0.91309 -1.89941,0.91309 -1.30859,0 -1.91406,-0.92773 -0.60059,-0.92774 -0.60059,-2.85157 0,-1.93846 0.61035,-2.86133 0.61035,-0.92773 1.9043,-0.92773 1.30859,0 1.90918,0.94239 0.60547,0.9375 0.60547,2.83691 z m -1.28418,2.2168 q 0.1709,-0.3955 0.22949,-0.92773 0.0635,-0.53712 0.0635,-1.28907 0,-0.74218 -0.0635,-1.28907 -0.0586,-0.54686 -0.23438,-0.92773 -0.17089,-0.37598 -0.46875,-0.5664 -0.29296,-0.19044 -0.75683,-0.19044 -0.45899,0 -0.76172,0.19044 -0.29785,0.19042 -0.47363,0.57617 -0.16602,0.36133 -0.22949,0.94238 -0.0586,0.58105 -0.0586,1.27441 0,0.76172 0.0537,1.27442 0.0537,0.5127 0.22949,0.91797 0.16113,0.38086 0.4541,0.58105 0.29785,0.2002 0.78613,0.2002 0.45899,0 0.76172,-0.19043 0.30274,-0.19043 0.46875,-0.57617 z" />
    <path
       class="sticker"
       d="m 140.02518,43.569801 10,0.157058 -2e-5,35.100162 -9.99999,0.157118 z m -110.000009,59.787929 -9.999998,-0.15706 8e-6,-24.059473 9.999998,-0.157058 z m 109.999999,0 9.99999,0.15712 v 62.38233 l -9.99999,0.15712 z m -109.999984,94.75511 -9.999998,-0.15709 -1.5e-5,-31.74436 9.999998,-0.15709 z m -1.5e-5,-32.05854 -9.999998,-0.15712 v -62.38233 l 9.999998,-0.15712 z m 109.999999,-87.070161 9.99999,0.157058 v 24.059473 l -9.99999,0.15706 z m 0,87.070161 9.99999,0.15706 3e-5,31.74436 -9.99999,0.15712 z m -27.70519,32.05854 -0.1571,10.00002 -81.980598,-3e-5 -0.157096,-9.99999 z m 17.7052,-154.543098 0.0786,-4.999996 h 9.84291 l 0.0785,5.000055 z m -17.70521,0 0.13907,-8.852602 h 17.42707 l 0.13907,8.852602 z m 27.70523,154.543098 -0.0785,4.99999 h -9.84291 l -0.0786,-4.99999 z M 30.025179,78.984139 20.025181,78.827021 V 43.726859 l 9.999998,-0.157117 z m 100.000011,119.128701 -0.13907,8.8526 h -17.42708 l -0.13906,-8.8526 z M 30.025179,43.569742 30.182267,33.569751 h 81.980613 l 0.15709,9.999991 z"
       id="path5625"
       style="fill:#e5e5e5;fill-opacity:1;stroke:#000000;stroke-width:0.25;stroke-linecap:butt;stroke-linejoin:bevel;stroke-dasharray:none;stroke-opacity:1"
       inkscape:connector-curvature="0" />
    <path
       class="outer"
       d="m 150.02516,103.51485 v 62.38233 l -9.99999,0.15712 9.99999,0.15706 3e-5,31.74436 -9.99999,0.15712 -0.0785,4.99999 h -9.84291 l -0.0786,-4.99999 -0.13907,8.8526 h -17.42708 l -0.13906,-8.8526 -0.1571,10.00002 -81.980598,-3e-5 -0.157096,-9.99999 -9.999998,-0.15709 -1.5e-5,-31.74436 9.999998,-0.15709 -9.999998,-0.15712 v -62.38233 l 9.999998,-0.15712 -9.999998,-0.15706 8e-6,-24.059473 9.999998,-0.157058 -9.999998,-0.157118 V 43.726859 l 9.999998,-0.157117 0.157088,-9.999991 h 81.980613 l 0.15709,9.999991 0.13907,-8.852602 h 17.42707 l 0.13907,8.852602 0.0786,-4.999996 h 9.84291 l 0.0785,5.000055 10,0.157058 -2e-5,35.100162 -9.99999,0.157118 9.99999,0.157058 v 24.059473 l -9.99999,0.15706 z"
       id="path5627"
       style="fill:none;stroke:#000000;stroke-width:0.25;stroke-linecap:butt;stroke-linejoin:bevel;stroke-dasharray:none;stroke-dashoffset:0;stroke-opacity:1"
       inkscape:connector-curvature="0" />
    <path
       inkscape:connector-curvature="0"
       style="fill:#000000;stroke:#000000;stroke-width:0.25;stroke-linecap:butt;stroke-linejoin:bevel;stroke-dasharray:none;stroke-opacity:1"
       id="path5629"
       d="m 140.02517,61.27697 -10,9.999997 7.5,-9.999998 -7.5,-10.000002 z"
       class="arrow" />
    <path
       d="M 133.13454,65.276978 H 129.199 V 64.53479 h 1.51367 V 59.661744 H 129.199 v -0.664063 q 0.30762,0 0.65918,-0.04883 0.35156,-0.05371 0.53222,-0.151367 0.22461,-0.12207 0.35157,-0.307617 0.13183,-0.19043 0.15136,-0.507813 h 0.75684 v 6.552735 h 1.48437 z"
       style="font-style:normal;font-size:medium;text-anchor:middle;fill:none;fill-opacity:1;stroke:#000000;stroke-width:0.25;stroke-linecap:butt;stroke-linejoin:bevel;stroke-dasharray:none;stroke-opacity:1"
       id="path1019"
       inkscape:connector-curvature="0" />
    <path
       inkscape:connector-curvature="0"
       id="path1022"
       style="font-style:normal;font-size:medium;text-anchor:middle;fill:none;fill-opacity:1;stroke:#000000;stroke-width:0.25;stroke-linecap:butt;stroke-linejoin:bevel;stroke-dasharray:none;stroke-opacity:1"
       d="m 144.97605,58.060174 q -0.18897,0.210938 -0.47461,0.347168 -0.28565,0.136231 -0.73828,0.136231 -0.44825,0 -0.82178,-0.162598 -0.37354,-0.162598 -0.65039,-0.457031 -0.30762,-0.32959 -0.45703,-0.777832 -0.14502,-0.443848 -0.14502,-0.975586 0,-0.544922 0.13183,-1.072266 0.12744,-0.527344 0.28125,-0.865723 h 0.91846 v 0.06592 q -0.24609,0.373536 -0.40869,0.878907 -0.1626,0.505371 -0.1626,0.975586 0,0.276855 0.0923,0.588867 0.0923,0.312011 0.27246,0.505371 0.19336,0.202148 0.42627,0.298828 0.23291,0.101074 0.58886,0.101074 0.35157,0 0.58008,-0.114258 0.23291,-0.109863 0.36475,-0.307617 0.13623,-0.197754 0.18457,-0.479004 0.0527,-0.28125 0.0527,-0.606445 v -0.395508 h 0.7295 v 0.307617 q 0,0.667969 0.27685,1.063477 0.28125,0.399902 0.81738,0.399902 0.23731,0 0.41309,-0.101074 0.18018,-0.101074 0.29443,-0.28125 0.11426,-0.188965 0.15821,-0.404297 0.0439,-0.215332 0.0439,-0.487793 0,-0.41748 -0.14941,-0.887695 -0.14942,-0.470215 -0.42188,-0.887695 V 54.4215 h 0.91846 q 0.15381,0.312012 0.28125,0.830567 0.13184,0.522949 0.13184,1.010742 0,0.479004 -0.0879,0.84375 -0.0879,0.364746 -0.28125,0.65918 -0.21093,0.316406 -0.50976,0.479003 -0.29883,0.162598 -0.69873,0.162598 -0.54492,0 -0.95361,-0.386719 -0.4043,-0.382324 -0.50977,-0.905273 h -0.0615 q -0.0352,0.210937 -0.14942,0.483398 -0.10986,0.272461 -0.27685,0.461426 z" />
    <path
       inkscape:connector-curvature="0"
       id="path1024"
       style="font-style:normal;font-size:medium;text-anchor:middle;fill:none;fill-opacity:1;stroke:#000000;stroke-width:0.25;stroke-linecap:butt;stroke-linejoin:bevel;stroke-dasharray:none;stroke-opacity:1"
       d="m 145.48142,61.79992 v -1.050293 h 1.25244 v 1.050293 z m -3.65625,0 v -1.050293 h 1.25244 v 1.050293 z" />
    <path
       inkscape:connector-curvature="0"
       id="path1026"
       style="font-style:normal;font-size:medium;text-anchor:middle;fill:none;fill-opacity:1;stroke:#000000;stroke-width:0.25;stroke-linecap:butt;stroke-linejoin:bevel;stroke-dasharray:none;stroke-opacity:1"
       d="m 141.82517,68.088494 v -3.541992 h 0.66797 v 1.362305 h 4.38574 v -1.362305 h 0.59765 q 0,0.276856 0.0439,0.593262 0.0483,0.316406 0.13623,0.479004 0.10986,0.202148 0.27686,0.316406 0.17138,0.118652 0.45703,0.136231 v 0.681152 h -5.89746 v 1.335937 z" />
    <path
       inkscape:connector-curvature="0"
       style="fill:#000000;stroke:#000000;stroke-width:0.25;stroke-linecap:butt;stroke-linejoin:bevel;stroke-dasharray:none;stroke-opacity:1"
       id="path5641"
       d="m 30.025179,182.08354 9.999996,-10 -7.499996,10 7.500004,10 z"
       class="arrow" />
    <path
       d="m 41.549592,186.08355 h -4.921875 v -1.02051 q 0.512695,-0.43945 1.025391,-0.8789 0.517578,-0.43946 0.961914,-0.87403 0.9375,-0.9082 1.284179,-1.44043 0.34668,-0.53711 0.34668,-1.15722 0,-0.56641 -0.375976,-0.88379 -0.371094,-0.32227 -1.04004,-0.32227 -0.444335,0 -0.961914,0.15625 -0.517578,0.15625 -1.010742,0.47852 h -0.04883 v -1.02539 q 0.34668,-0.1709 0.922852,-0.3125 0.581054,-0.14161 1.123047,-0.14161 1.118164,0 1.752929,0.542 0.634766,0.53711 0.634766,1.45996 0,0.41504 -0.107422,0.77637 -0.102539,0.35644 -0.307617,0.67871 -0.19043,0.30273 -0.449219,0.5957 -0.253906,0.29297 -0.620117,0.64941 -0.522461,0.5127 -1.079102,0.9961 -0.55664,0.47851 -1.040039,0.88867 h 3.911133 z"
       style="font-style:normal;font-size:medium;text-anchor:middle;fill:none;fill-opacity:1;stroke:#000000;stroke-width:0.25;stroke-linecap:butt;stroke-linejoin:bevel;stroke-dasharray:none;stroke-opacity:1"
       id="path1029"
       inkscape:connector-curvature="0" />
    <path
       inkscape:connector-curvature="0"
       id="path1032"
       style="font-style:normal;font-size:medium;text-anchor:middle;fill:none;fill-opacity:1;stroke:#000000;stroke-width:0.25;stroke-linecap:butt;stroke-linejoin:bevel;stroke-dasharray:none;stroke-opacity:1"
       d="m 28.225179,185.09819 v 3.542 H 27.55721 v -1.36231 h -4.385742 v 1.36231 h -0.597657 q 0,-0.27686 -0.04395,-0.59327 -0.04834,-0.3164 -0.13623,-0.479 -0.109863,-0.20215 -0.276855,-0.31641 -0.171387,-0.11865 -0.457032,-0.13623 v -0.68115 h 5.897461 v -1.33594 z" />
    <path
       inkscape:connector-curvature="0"
       id="path1034"
       style="font-style:normal;font-size:medium;text-anchor:middle;fill:none;fill-opacity:1;stroke:#000000;stroke-width:0.25;stroke-linecap:butt;stroke-linejoin:bevel;stroke-dasharray:none;stroke-opacity:1"
       d="m 24.568929,181.5606 v 1.05029 h -1.252442 v -1.05029 z m 3.65625,0 v 1.05029 h -1.252442 v -1.05029 z" />
    <path
       inkscape:connector-curvature="0"
       id="path1036"
       style="font-style:normal;font-size:medium;text-anchor:middle;fill:none;fill-opacity:1;stroke:#000000;stroke-width:0.25;stroke-linecap:butt;stroke-linejoin:bevel;stroke-dasharray:none;stroke-opacity:1"
       d="m 28.225179,174.89849 v 4.42968 h -0.918457 q -0.395508,-0.46142 -0.791016,-0.92285 -0.395508,-0.46582 -0.786621,-0.86572 -0.817383,-0.84375 -1.296387,-1.15576 -0.483398,-0.31201 -1.041504,-0.31201 -0.509765,0 -0.79541,0.33838 -0.290039,0.33398 -0.290039,0.93603 0,0.3999 0.140625,0.86572 0.140625,0.46582 0.430664,0.90967 v 0.0439 h -0.922851 q -0.153809,-0.312 -0.28125,-0.83057 -0.127442,-0.52295 -0.127442,-1.01073 0,-1.00635 0.487793,-1.57765 0.483399,-0.57129 1.313965,-0.57129 0.373535,0 0.69873,0.0967 0.320801,0.0923 0.61084,0.27686 0.272461,0.17138 0.536133,0.40429 0.263672,0.22852 0.584473,0.55811 0.461426,0.47022 0.896484,0.9712 0.430664,0.50097 0.799805,0.93603 v -3.52001 z" />
    <path
       inkscape:connector-curvature="0"
       style="fill:#000000;stroke:#000000;stroke-width:0.25;stroke-linecap:butt;stroke-linejoin:bevel;stroke-dasharray:none;stroke-opacity:1"
       id="path5653"
       d="m 140.02518,182.08354 -9.99999,10.00001 7.49999,-10.00001 -7.50001,-9.99999 z"
       class="arrow" />
    <path
       d="m 132.90996,182.5826 q 0.23437,0.20996 0.38574,0.52735 0.15136,0.31738 0.15136,0.82031 0,0.49805 -0.18066,0.91309 -0.18066,0.41503 -0.50781,0.72265 -0.36621,0.3418 -0.86426,0.50781 -0.49316,0.16114 -1.08398,0.16114 -0.60547,0 -1.19141,-0.14649 -0.58594,-0.1416 -0.96191,-0.3125 v -1.02051 h 0.0732 q 0.41504,0.27344 0.97656,0.45411 0.56152,0.18066 1.08398,0.18066 0.30762,0 0.6543,-0.10254 0.34668,-0.10254 0.56153,-0.30273 0.2246,-0.21485 0.33203,-0.47364 0.1123,-0.25878 0.1123,-0.65429 0,-0.39063 -0.12695,-0.64453 -0.12207,-0.25879 -0.3418,-0.40528 -0.21973,-0.15136 -0.53223,-0.20508 -0.3125,-0.0586 -0.67382,-0.0586 h -0.43946 v -0.81055 h 0.3418 q 0.74219,0 1.18164,-0.30761 0.44434,-0.3125 0.44434,-0.90821 0,-0.26367 -0.11231,-0.45898 -0.1123,-0.2002 -0.3125,-0.32715 -0.20996,-0.12695 -0.44922,-0.17578 -0.23925,-0.0488 -0.54199,-0.0488 -0.46387,0 -0.98633,0.16602 -0.52246,0.16601 -0.98633,0.46875 h -0.0488 v -1.02051 q 0.34668,-0.1709 0.92285,-0.3125 0.58105,-0.14649 1.12305,-0.14649 0.53222,0 0.9375,0.0977 0.40527,0.0977 0.73242,0.3125 0.35156,0.23438 0.53222,0.56641 0.18067,0.33203 0.18067,0.77636 0,0.60547 -0.42969,1.05957 -0.4248,0.44922 -1.00586,0.56641 v 0.0684 q 0.23438,0.0391 0.53711,0.16602 0.30273,0.12207 0.5127,0.30761 z"
       style="font-style:normal;font-size:medium;text-anchor:middle;fill:none;fill-opacity:1;stroke:#000000;stroke-width:0.25;stroke-linecap:butt;stroke-linejoin:bevel;stroke-dasharray:none;stroke-opacity:1"
       id="path1039"
       inkscape:connector-curvature="0" />
    <path
       inkscape:connector-curvature="0"
       id="path1042"
       style="font-style:normal;font-size:medium;text-anchor:middle;fill:none;fill-opacity:1;stroke:#000000;stroke-width:0.25;stroke-linecap:butt;stroke-linejoin:bevel;stroke-dasharray:none;stroke-opacity:1"
       d="m 144.97605,178.86689 q -0.18897,0.21093 -0.47461,0.34716 -0.28565,0.13624 -0.73828,0.13624 -0.44825,0 -0.82178,-0.16259 -0.37354,-0.1626 -0.65039,-0.45703 -0.30762,-0.32959 -0.45703,-0.77784 -0.14502,-0.44384 -0.14502,-0.97559 0,-0.54491 0.13183,-1.07227 0.12744,-0.52734 0.28125,-0.86572 h 0.91846 v 0.0659 q -0.24609,0.37353 -0.40869,0.8789 -0.1626,0.50537 -0.1626,0.97559 0,0.27685 0.0923,0.58887 0.0923,0.31201 0.27246,0.50537 0.19336,0.20215 0.42627,0.29884 0.23291,0.10106 0.58886,0.10106 0.35157,0 0.58008,-0.11426 0.23291,-0.10986 0.36475,-0.30761 0.13623,-0.19776 0.18457,-0.47901 0.0527,-0.28125 0.0527,-0.60643 v -0.39551 h 0.7295 v 0.30762 q 0,0.66796 0.27685,1.06347 0.28125,0.3999 0.81738,0.3999 0.23731,0 0.41309,-0.10107 0.18018,-0.10107 0.29443,-0.28125 0.11426,-0.18896 0.15821,-0.4043 0.0439,-0.21533 0.0439,-0.48779 0,-0.41748 -0.14941,-0.8877 -0.14942,-0.47021 -0.42188,-0.88769 v -0.044 h 0.91846 q 0.15381,0.31202 0.28125,0.83057 0.13184,0.52295 0.13184,1.01074 0,0.47901 -0.0879,0.84375 -0.0879,0.36475 -0.28125,0.65918 -0.21093,0.31641 -0.50976,0.47901 -0.29883,0.16258 -0.69873,0.16258 -0.54492,0 -0.95361,-0.3867 -0.4043,-0.38233 -0.50977,-0.90529 h -0.0615 q -0.0352,0.21094 -0.14942,0.4834 -0.10986,0.27246 -0.27685,0.46143 z" />
    <path
       inkscape:connector-curvature="0"
       id="path1044"
       style="font-style:normal;font-size:medium;text-anchor:middle;fill:none;fill-opacity:1;stroke:#000000;stroke-width:0.25;stroke-linecap:butt;stroke-linejoin:bevel;stroke-dasharray:none;stroke-opacity:1"
       d="m 145.48142,182.60663 v -1.05029 h 1.25244 v 1.05029 z m -3.65625,0 v -1.05029 h 1.25244 v 1.05029 z" />
    <path
       inkscape:connector-curvature="0"
       id="path1046"
       style="font-style:normal;font-size:medium;text-anchor:middle;fill:none;fill-opacity:1;stroke:#000000;stroke-width:0.25;stroke-linecap:butt;stroke-linejoin:bevel;stroke-dasharray:none;stroke-opacity:1"
       d="m 144.97605,188.69306 q -0.18897,0.21094 -0.47461,0.34717 -0.28565,0.13623 -0.73828,0.13623 -0.44825,0 -0.82178,-0.1626 -0.37354,-0.1626 -0.65039,-0.45703 -0.30762,-0.32959 -0.45703,-0.77783 -0.14502,-0.44384 -0.14502,-0.97559 0,-0.54492 0.13183,-1.07227 0.12744,-0.52734 0.28125,-0.86572 h 0.91846 v 0.0659 q -0.24609,0.37353 -0.40869,0.87891 -0.1626,0.50537 -0.1626,0.97558 0,0.27686 0.0923,0.58887 0.0923,0.31201 0.27246,0.50537 0.19336,0.20215 0.42627,0.29883 0.23291,0.10107 0.58886,0.10107 0.35157,0 0.58008,-0.11426 0.23291,-0.10986 0.36475,-0.30761 0.13623,-0.19776 0.18457,-0.47901 0.0527,-0.28125 0.0527,-0.60644 v -0.39551 h 0.7295 v 0.30763 q 0,0.66797 0.27685,1.06347 0.28125,0.39991 0.81738,0.39991 0.23731,0 0.41309,-0.10108 0.18018,-0.10107 0.29443,-0.28125 0.11426,-0.18896 0.15821,-0.4043 0.0439,-0.21533 0.0439,-0.48779 0,-0.41748 -0.14941,-0.88769 -0.14942,-0.47022 -0.42188,-0.8877 v -0.0439 h 0.91846 q 0.15381,0.31201 0.28125,0.83056 0.13184,0.52295 0.13184,1.01074 0,0.479 -0.0879,0.84375 -0.0879,0.36474 -0.28125,0.65918 -0.21093,0.3164 -0.50976,0.479 -0.29883,0.1626 -0.69873,0.1626 -0.54492,0 -0.95361,-0.38672 -0.4043,-0.38233 -0.50977,-0.90528 h -0.0615 q -0.0352,0.21094 -0.14942,0.4834 -0.10986,0.27246 -0.27685,0.46143 z" />
    <path
       inkscape:connector-curvature="0"
       id="path1049"
       style="font-style:normal;font-size:medium;text-anchor:middle;fill:none;fill-opacity:1;stroke:#000000;stroke-width:0.25;stroke-linecap:butt;stroke-linejoin:bevel;stroke-dasharray:none;stroke-opacity:1"
       d="m 75.430881,205.47632 2.961915,-5.56347 h 0.940429 l -3.150879,5.77441 h 3.726563 v 0.76904 h -4.478028 z" />
    <path
       inkscape:connector-curvature="0"
       id="path1051"
       style="font-style:normal;font-size:medium;text-anchor:middle;fill:none;fill-opacity:1;stroke:#000000;stroke-width:0.25;stroke-linecap:butt;stroke-linejoin:bevel;stroke-dasharray:none;stroke-opacity:1"
       d="m 72.284397,203.5691 h 1.050293 v 1.25244 h -1.050293 z m 0,-3.65625 h 1.050293 v 1.25244 h -1.050293 z" />
    <path
       inkscape:connector-curvature="0"
       id="path1053"
       style="font-style:normal;font-size:medium;text-anchor:middle;fill:none;fill-opacity:1;stroke:#000000;stroke-width:0.25;stroke-linecap:butt;stroke-linejoin:bevel;stroke-dasharray:none;stroke-opacity:1"
       d="m 65.525608,202.0354 q 0,-0.99755 0.65918,-1.63037 0.654785,-0.62841 1.608398,-0.62841 0.483399,0 0.878906,0.14941 0.395508,0.14941 0.698731,0.44385 0.37793,0.36474 0.584473,0.96679 0.202148,0.60205 0.202148,1.4502 0,0.87012 -0.18457,1.54248 -0.188965,0.67236 -0.597657,1.19531 -0.386718,0.49658 -0.997558,0.77344 -0.61084,0.28125 -1.423828,0.28125 -0.259278,0 -0.435059,-0.022 -0.175781,-0.022 -0.355957,-0.0791 v -0.83936 h 0.04395 q 0.123047,0.0659 0.373536,0.12305 0.246093,0.0615 0.505371,0.0615 0.944824,0 1.507324,-0.59326 0.5625,-0.58886 0.654785,-1.59522 -0.369141,0.22412 -0.725098,0.33838 -0.360351,0.11865 -0.830566,0.11865 -0.417481,0 -0.733887,-0.0791 -0.320801,-0.0747 -0.654785,-0.30761 -0.386719,-0.26807 -0.580078,-0.67676 -0.197754,-0.40869 -0.197754,-0.99317 z m 0.89209,-0.0352 q 0,0.40869 0.123047,0.67676 0.118652,0.26806 0.395508,0.46582 0.202148,0.14063 0.448242,0.18457 0.246094,0.0439 0.51416,0.0439 0.373535,0 0.694336,-0.0879 0.320801,-0.0879 0.65918,-0.27246 0.0088,-0.0967 0.01318,-0.18896 0.0044,-0.0879 0.0044,-0.22413 0,-0.69433 -0.140625,-1.09863 -0.14502,-0.3999 -0.395508,-0.63281 -0.202149,-0.19336 -0.435059,-0.28565 -0.237304,-0.0879 -0.51416,-0.0879 -0.637207,0 -1.001953,0.38672 -0.364746,0.39112 -0.364746,1.12061 z" />
    <path
       inkscape:connector-curvature="0"
       id="path1055"
       style="font-style:normal;font-size:medium;text-anchor:middle;fill:none;fill-opacity:1;stroke:#000000;stroke-width:0.25;stroke-linecap:butt;stroke-linejoin:bevel;stroke-dasharray:none;stroke-opacity:1"
       d="m 62.866917,199.91285 h 1.050293 v 1.25244 h -1.050293 z" />
    <path
       inkscape:connector-curvature="0"
       id="path1058"
       style="font-style:normal;font-size:medium;text-anchor:middle;fill:none;fill-opacity:1;stroke:#000000;stroke-width:0.25;stroke-linecap:butt;stroke-linejoin:bevel;stroke-dasharray:none;stroke-opacity:1"
       d="m 136.33697,201.79458 1.48094,-2.78175 0.47022,0 -1.57543,2.88722 1.86328,-1e-5 0,0.38452 -2.23901,1e-5 z" />
    <path
       inkscape:connector-curvature="0"
       id="path1060"
       style="font-style:normal;font-size:medium;text-anchor:middle;fill:none;fill-opacity:1;stroke:#000000;stroke-width:0.25;stroke-linecap:butt;stroke-linejoin:bevel;stroke-dasharray:none;stroke-opacity:1"
       d="m 134.76371,200.84097 0.52515,0 1e-5,0.62622 -0.52515,0 z m 0,-1.82813 0.52515,0 0,0.62622 -0.52515,0 z" />
    <path
       inkscape:connector-curvature="0"
       id="path1062"
       style="font-style:normal;font-size:medium;text-anchor:middle;fill:none;fill-opacity:1;stroke:#000000;stroke-width:0.25;stroke-linecap:butt;stroke-linejoin:bevel;stroke-dasharray:none;stroke-opacity:1"
       d="m 131.42388,201.79459 1.48095,-2.78174 0.47021,0 -1.57543,2.88721 1.86328,0 0,0.38452 -2.23901,0 z" />
    <path
       inkscape:connector-curvature="0"
       style="fill:#000000;stroke:#000000;stroke-width:0.25;stroke-linecap:butt;stroke-linejoin:bevel;stroke-dasharray:none;stroke-opacity:1"
       id="path5677"
       d="m 30.025179,61.27697 10,-10 -7.5,10 7.5,10 z"
       class="arrow" />
    <path
       d="m 41.715608,63.23108 h -1.079102 v 2.045898 h -0.9375 V 63.23108 h -3.481445 v -1.123047 l 3.520508,-4.101563 h 0.898437 v 4.44336 h 1.079102 z m -2.016602,-0.78125 v -3.28125 l -2.817383,3.28125 z"
       style="font-style:normal;font-size:medium;text-anchor:middle;fill:none;fill-opacity:1;stroke:#000000;stroke-width:0.25;stroke-linecap:butt;stroke-linejoin:bevel;stroke-dasharray:none;stroke-opacity:1"
       id="path1065"
       inkscape:connector-curvature="0" />
    <path
       inkscape:connector-curvature="0"
       id="path1068"
       style="font-style:normal;font-size:medium;text-anchor:middle;fill:none;fill-opacity:1;stroke:#000000;stroke-width:0.25;stroke-linecap:butt;stroke-linejoin:bevel;stroke-dasharray:none;stroke-opacity:1"
       d="m 28.225178,64.291619 v 3.541993 h -0.667969 v -1.362305 h -4.385742 v 1.362305 h -0.597656 q 0,-0.276856 -0.04395,-0.593262 -0.04834,-0.316406 -0.136231,-0.479004 -0.109863,-0.202148 -0.276855,-0.316406 -0.171387,-0.118653 -0.457032,-0.136231 v -0.681152 h 5.897461 v -1.335938 z" />
    <path
       inkscape:connector-curvature="0"
       id="path1070"
       style="font-style:normal;font-size:medium;text-anchor:middle;fill:none;fill-opacity:1;stroke:#000000;stroke-width:0.25;stroke-linecap:butt;stroke-linejoin:bevel;stroke-dasharray:none;stroke-opacity:1"
       d="m 24.568928,60.754022 v 1.050293 h -1.252442 v -1.050293 z m 3.65625,0 v 1.050293 h -1.252442 v -1.050293 z" />
    <path
       inkscape:connector-curvature="0"
       id="path1072"
       style="font-style:normal;font-size:medium;text-anchor:middle;fill:none;fill-opacity:1;stroke:#000000;stroke-width:0.25;stroke-linecap:butt;stroke-linejoin:bevel;stroke-dasharray:none;stroke-opacity:1"
       d="m 26.383869,53.942498 v 0.971192 h 1.841309 v 0.84375 h -1.841309 v 3.133301 H 25.373127 L 21.681721,55.722284 V 54.91369 h 3.999023 v -0.971192 z m -0.703125,1.814942 h -2.953125 l 2.953125,2.535644 z" />
    <path
       inkscape:connector-curvature="0"
       id="path1075"
       style="font-style:normal;font-size:medium;text-anchor:middle;fill:none;fill-opacity:1;stroke:#000000;stroke-width:0.25;stroke-linecap:butt;stroke-linejoin:bevel;stroke-dasharray:none;stroke-opacity:1"
       d="m 66.993378,39.647182 q 0,0.997558 -0.65918,1.630371 -0.654785,0.628418 -1.608398,0.628418 -0.483399,0 -0.878907,-0.149414 -0.395508,-0.149414 -0.69873,-0.443848 -0.37793,-0.364746 -0.584473,-0.966797 -0.202148,-0.602051 -0.202148,-1.450195 0,-0.870117 0.18457,-1.542481 0.188965,-0.672363 0.597656,-1.195312 0.386719,-0.496582 0.997559,-0.773438 0.61084,-0.28125 1.423828,-0.28125 0.259277,0 0.435059,0.02197 0.175781,0.02197 0.355957,0.0791 v 0.839355 h -0.04395 q -0.123047,-0.06592 -0.373535,-0.123047 -0.246094,-0.06152 -0.505371,-0.06152 -0.944824,0 -1.507324,0.593261 -0.5625,0.588868 -0.654785,1.595215 0.36914,-0.224121 0.725097,-0.338379 0.360352,-0.118652 0.830567,-0.118652 0.41748,0 0.733886,0.0791 0.320801,0.07471 0.654786,0.307617 0.386718,0.268066 0.580078,0.676758 0.197754,0.408691 0.197754,0.993164 z m -0.89209,0.03516 q 0,-0.408691 -0.123047,-0.676758 -0.118652,-0.268066 -0.395508,-0.46582 -0.202148,-0.140625 -0.448242,-0.184571 -0.246094,-0.04395 -0.51416,-0.04395 -0.373535,0 -0.694336,0.08789 -0.320801,0.08789 -0.65918,0.272461 -0.0088,0.09668 -0.01318,0.188965 -0.0044,0.08789 -0.0044,0.224121 0,0.694336 0.140625,1.098632 0.14502,0.399903 0.395508,0.632813 0.202148,0.193359 0.435058,0.285645 0.237305,0.08789 0.514161,0.08789 0.637207,0 1.001953,-0.386719 0.364746,-0.391113 0.364746,-1.120605 z" />
    <path
       inkscape:connector-curvature="0"
       id="path1077"
       style="font-style:normal;font-size:medium;text-anchor:middle;fill:none;fill-opacity:1;stroke:#000000;stroke-width:0.25;stroke-linecap:butt;stroke-linejoin:bevel;stroke-dasharray:none;stroke-opacity:1"
       d="m 69.652069,41.76974 h -1.050293 v -1.252441 h 1.050293 z" />
    <path
       inkscape:connector-curvature="0"
       id="path1079"
       style="font-style:normal;font-size:medium;text-anchor:middle;fill:none;fill-opacity:1;stroke:#000000;stroke-width:0.25;stroke-linecap:butt;stroke-linejoin:bevel;stroke-dasharray:none;stroke-opacity:1"
       d="m 73.330292,38.11349 h -1.050293 v -1.252441 h 1.050293 z m 0,3.65625 h -1.050293 v -1.252441 h 1.050293 z" />
    <path
       inkscape:connector-curvature="0"
       id="path1081"
       style="font-style:normal;font-size:medium;text-anchor:middle;fill:none;fill-opacity:1;stroke:#000000;stroke-width:0.25;stroke-linecap:butt;stroke-linejoin:bevel;stroke-dasharray:none;stroke-opacity:1"
       d="m 79.939667,39.691127 q 0,0.457031 -0.166992,0.874512 -0.166993,0.41748 -0.457032,0.703125 -0.316406,0.307617 -0.755859,0.474609 -0.435059,0.162598 -1.010742,0.162598 -0.536133,0 -1.032715,-0.114258 -0.496582,-0.109863 -0.839356,-0.268066 V 40.5964 h 0.06152 q 0.360351,0.228516 0.84375,0.391114 0.483398,0.158203 0.949219,0.158203 0.312011,0 0.60205,-0.08789 0.294434,-0.08789 0.52295,-0.307617 0.193359,-0.188965 0.290039,-0.452637 0.101074,-0.263672 0.101074,-0.61084 0,-0.338378 -0.118652,-0.571289 -0.114258,-0.23291 -0.320801,-0.373535 -0.228516,-0.166992 -0.558106,-0.23291 -0.325195,-0.07031 -0.729492,-0.07031 -0.386719,0 -0.74707,0.05273 -0.355957,0.05273 -0.615235,0.105469 v -3.370606 h 3.9375 v 0.769043 h -3.089355 v 1.740235 q 0.188965,-0.01758 0.386719,-0.02637 0.197754,-0.0088 0.342773,-0.0088 0.531738,0 0.931641,0.09229 0.399902,0.08789 0.733886,0.316407 0.351563,0.241699 0.544922,0.624023 0.19336,0.382324 0.19336,0.958008 z" />
  </g>
</svg>
