<?xml version="1.0" encoding="UTF-8" standalone="no"?>
<svg
   xmlns:dc="http://purl.org/dc/elements/1.1/"
   xmlns:cc="http://creativecommons.org/ns#"
   xmlns:rdf="http://www.w3.org/1999/02/22-rdf-syntax-ns#"
   xmlns:svg="http://www.w3.org/2000/svg"
   xmlns="http://www.w3.org/2000/svg"
   xmlns:sodipodi="http://sodipodi.sourceforge.net/DTD/sodipodi-0.dtd"
   xmlns:inkscape="http://www.inkscape.org/namespaces/inkscape"
   version="1.1"
   width="300.00mm"
   height="600.00mm"
   viewBox="0 0 300.00 600.00"
   id="svg884"
   sodipodi:docname="bottom_page2_fabric.svg"
   inkscape:version="0.92.2 (5c3e80d, 2017-08-06)">
  <metadata
     id="metadata35">
    <rdf:RDF>
      <cc:Work
         rdf:about="">
        <dc:format>image/svg+xml</dc:format>
        <dc:type
           rdf:resource="http://purl.org/dc/dcmitype/StillImage" />
      </cc:Work>
    </rdf:RDF>
  </metadata>
  <defs
     id="defs888" />
  <sodipodi:namedview
     id="namedview886"
     pagecolor="#ffffff"
     bordercolor="#666666"
     borderopacity="1.0"
     inkscape:pageshadow="2"
     inkscape:pageopacity="0.0"
     inkscape:pagecheckerboard="0"
     inkscape:document-units="mm"
     showgrid="false"
     inkscape:zoom="0.35057292"
     inkscape:cx="102.68905"
     inkscape:cy="1133.8583"
     inkscape:window-width="1920"
     inkscape:window-height="1017"
     inkscape:window-x="-8"
     inkscape:window-y="-8"
     inkscape:window-maximized="1"
     inkscape:current-layer="g882" />
  <style
     type="text/css"
     id="style824">
    path {
        fill: none;
        stroke-linecap: butt;
        stroke-linejoin: bevel;
        stroke-dasharray: none;
    }
    path.outer {
        stroke: #000000;
        stroke-dasharray: none;
        stroke-dashoffset: 0;
        stroke-width: 0.3;
        stroke-opacity: 1.0;
    }
    path.convex {
        stroke: #000000;
        stroke-dasharray: 0.50,1.00;
        stroke-dashoffset:0;
        stroke-width:0.2;
        stroke-opacity: 1.0
    }
    path.concave {
        stroke: #000000;
        stroke-dasharray: 1.00,0.50,0.20,0.50;
        stroke-dashoffset: 0;
        stroke-width: 0.2;
        stroke-opacity: 1.0
    }
    path.freestyle {
        stroke: #000000;
        stroke-dasharray: none;
        stroke-dashoffset: 0;
        stroke-width: 0.2;
        stroke-opacity: 1.0
    }
    path.outer_background {
        stroke: #ffffff;
        stroke-opacity: 1.0;
        stroke-width: 0.5
    }
    path.inner_background {
        stroke: #ffffff;
        stroke-opacity: 1.0;
        stroke-width: 0.2
    }
    path.sticker {
        fill: #e5e5e5;
        stroke: none;
        fill-opacity: 1.0;
    }
    path.arrow {
        fill: #000000;
    }
    text {
        font-style: normal;
        fill: #000000;
        fill-opacity: 1.0;
        stroke: none;
    }
    text, tspan {
        text-anchor:middle;
    }
    </style>
  <g
     id="g882"
     transform="translate(0,13.758335)">
    <g
       id="g1216">
      <path
         d="m 99.858266,269.31415 h -2.539063 v -9.51172 h 2.539063 v 0.69825 h -1.689453 v 8.11523 h 1.689453 z"
         style="font-style:normal;font-size:medium;text-anchor:middle;fill:none;fill-opacity:1;stroke:#000000;stroke-width:0.25;stroke-linecap:butt;stroke-linejoin:bevel;stroke-dasharray:none;stroke-opacity:1"
         id="path865"
         inkscape:connector-curvature="0" />
      <path
         d="m 105.77135,263.89911 q 0.23438,0.20996 0.38574,0.52735 0.15137,0.31738 0.15137,0.82031 0,0.49805 -0.18066,0.91309 -0.18067,0.41503 -0.50782,0.72265 -0.36621,0.3418 -0.86425,0.50781 -0.49317,0.16114 -1.08399,0.16114 -0.60547,0 -1.1914,-0.14649 -0.58594,-0.1416 -0.96192,-0.3125 v -1.02051 h 0.0732 q 0.41504,0.27344 0.97656,0.45411 0.56153,0.18066 1.08399,0.18066 0.30762,0 0.6543,-0.10254 0.34668,-0.10254 0.56152,-0.30273 0.22461,-0.21485 0.33203,-0.47364 0.11231,-0.25878 0.11231,-0.65429 0,-0.39063 -0.12696,-0.64453 -0.12207,-0.25879 -0.34179,-0.40528 -0.21973,-0.15136 -0.53223,-0.20508 -0.3125,-0.0586 -0.67383,-0.0586 h -0.43945 v -0.81055 h 0.34179 q 0.74219,0 1.18165,-0.30761 0.44433,-0.3125 0.44433,-0.90821 0,-0.26367 -0.1123,-0.45898 -0.11231,-0.2002 -0.3125,-0.32715 -0.20996,-0.12695 -0.44922,-0.17578 -0.23926,-0.0488 -0.54199,-0.0488 -0.46387,0 -0.98633,0.16602 -0.52246,0.16601 -0.98633,0.46875 h -0.0488 v -1.02051 q 0.34668,-0.1709 0.92285,-0.3125 0.58106,-0.14649 1.12305,-0.14649 0.53222,0 0.9375,0.0977 0.40527,0.0977 0.73242,0.3125 0.35156,0.23438 0.53223,0.56641 0.18066,0.33203 0.18066,0.77636 0,0.60547 -0.42969,1.05957 -0.4248,0.44922 -1.00586,0.56641 v 0.0684 q 0.23438,0.0391 0.53711,0.16602 0.30274,0.12207 0.5127,0.30761 z"
         style="font-style:normal;font-size:medium;text-anchor:middle;fill:none;fill-opacity:1;stroke:#000000;stroke-width:0.25;stroke-linecap:butt;stroke-linejoin:bevel;stroke-dasharray:none;stroke-opacity:1"
         id="path867"
         inkscape:connector-curvature="0" />
      <path
         d="m 110.4442,269.31415 h -2.53906 v -0.69824 h 1.68945 v -8.11523 h -1.68945 v -0.69825 h 2.53906 z"
         style="font-style:normal;font-size:medium;text-anchor:middle;fill:none;fill-opacity:1;stroke:#000000;stroke-width:0.25;stroke-linecap:butt;stroke-linejoin:bevel;stroke-dasharray:none;stroke-opacity:1"
         id="path869"
         inkscape:connector-curvature="0" />
      <path
         d="m 118.67663,267.40009 h -2.8711 v -0.74219 h 0.95215 v -5.78613 h -0.95215 v -0.74219 h 2.8711 v 0.74219 h -0.95215 v 5.78613 h 0.95215 z"
         style="font-style:normal;font-size:medium;text-anchor:middle;fill:none;fill-opacity:1;stroke:#000000;stroke-width:0.25;stroke-linecap:butt;stroke-linejoin:bevel;stroke-dasharray:none;stroke-opacity:1"
         id="path871"
         inkscape:connector-curvature="0" />
      <path
         d="m 127.93932,263.89911 q 0.23438,0.20996 0.38574,0.52735 0.15137,0.31738 0.15137,0.82031 0,0.49805 -0.18066,0.91309 -0.18067,0.41503 -0.50782,0.72265 -0.36621,0.3418 -0.86425,0.50781 -0.49317,0.16114 -1.08399,0.16114 -0.60547,0 -1.19141,-0.14649 -0.58593,-0.1416 -0.96191,-0.3125 v -1.02051 h 0.0732 q 0.41504,0.27344 0.97656,0.45411 0.56153,0.18066 1.08399,0.18066 0.30761,0 0.65429,-0.10254 0.34668,-0.10254 0.56153,-0.30273 0.22461,-0.21485 0.33203,-0.47364 0.1123,-0.25878 0.1123,-0.65429 0,-0.39063 -0.12695,-0.64453 -0.12207,-0.25879 -0.3418,-0.40528 -0.21972,-0.15136 -0.53222,-0.20508 -0.3125,-0.0586 -0.67383,-0.0586 h -0.43945 v -0.81055 h 0.34179 q 0.74219,0 1.18164,-0.30761 0.44434,-0.3125 0.44434,-0.90821 0,-0.26367 -0.11231,-0.45898 -0.1123,-0.2002 -0.3125,-0.32715 -0.20996,-0.12695 -0.44921,-0.17578 -0.23926,-0.0488 -0.542,-0.0488 -0.46386,0 -0.98632,0.16602 -0.52247,0.16601 -0.98633,0.46875 h -0.0488 v -1.02051 q 0.34668,-0.1709 0.92285,-0.3125 0.58105,-0.14649 1.12305,-0.14649 0.53222,0 0.9375,0.0977 0.40527,0.0977 0.73242,0.3125 0.35156,0.23438 0.53222,0.56641 0.18067,0.33203 0.18067,0.77636 0,0.60547 -0.42969,1.05957 -0.4248,0.44922 -1.00586,0.56641 v 0.0684 q 0.23438,0.0391 0.53711,0.16602 0.30274,0.12207 0.5127,0.30761 z"
         style="font-style:normal;font-size:medium;text-anchor:middle;fill:none;fill-opacity:1;stroke:#000000;stroke-width:0.25;stroke-linecap:butt;stroke-linejoin:bevel;stroke-dasharray:none;stroke-opacity:1"
         id="path873"
         inkscape:connector-curvature="0" />
      <path
         style="fill:#e5e5e5;fill-opacity:1;stroke:#000000;stroke-width:0.25;stroke-linecap:butt;stroke-linejoin:bevel;stroke-dasharray:none;stroke-opacity:1"
         id="path830"
         d="m 15.000074,201.06518 -10,-0.15712 V 177.6213 l 10,-0.15706 z m 195.390216,330.91952 10,0.1571 v 40.70113 l -10,0.15709 z m -32.54262,41.01532 -0.1571,10 -24.18372,-2e-5 -0.15709,-10 z m -52.34536,-492.800127 6.30153,-7.766307 27.60052,21.684885 -6.05448,7.960439 z m -110.502236,97.264347 -10,-0.15712 3e-5,-75.07121 10,-0.15706 z M 125.5022,573 l -0.15709,10 -24.05944,2e-5 -0.1571,-10 z M 38.432148,80.199893 38.589244,70.199843 h 62.382346 l 0.1571,10.00005 z m 171.958212,120.081667 4.64417,0.0729 v 9.14246 l -4.64417,0.073 z M 15,500.95951 l -10,-0.1571 7.4e-5,-210.76133 10,-0.15711 z M 49.016428,573 40.854235,578.77957 7.023375,532.55876 15,526.52567 Z m 161.373862,-67.42398 10,0.15709 v 26.0945 l -10,0.15709 z m -109.26172,67.424 -0.1571,10 L 49.173524,583 49.016428,573 Z m 52.22119,-2e-5 -0.15709,10 h -27.53339 l -0.15708,-10 z m 1.2e-4,-470.92109 10.00001,0.15706 -2e-5,74.28753 -10,0.15712 z m -52.22119,-21.879017 0.15709,-10.00005 h 24.05943 l 0.1571,10.00005 z m -86.128586,21.878957 -6.70987,-7.416367 23.202404,-21.66456 6.93951,7.20197 z m 195.390226,187.80518 10.00001,0.15705 -5e-5,215.37785 -10,0.15709 z m -195.390256,-79.53054 -4.64417,-0.073 v -9.1424 l 4.64417,-0.0729 z m 195.390216,362.64653 -0.15709,10 h -32.22844 l -0.15709,-10 z m -32.54256,-372.71846 0.15709,-10 h 32.22846 l 0.15708,10 z m -24.49786,-23.60094 7.05114,-7.09271 24.2716,23.38302 -6.82488,7.31063 z M 15,526.52567 5,526.36858 v -25.25197 l 10,-0.1571 z m 7.4e-5,-236.6417 -10,-0.15706 v -79.2163 l 10,-0.15712 z m 195.390286,-80.31404 10.00001,0.15706 -3e-5,79.99992 -10.00001,0.15712 z"
         class="sticker"
         inkscape:connector-curvature="0" />
      <path
         d="m 212.19029,549.85126 v -4.42969 h 0.91846 q 0.3955,0.46142 0.79101,0.92285 0.39551,0.46582 0.78662,0.86572 0.81739,0.84375 1.29639,1.15577 0.4834,0.31201 1.0415,0.31201 0.50977,0 0.79541,-0.33838 0.29004,-0.33399 0.29004,-0.93604 0,-0.3999 -0.14062,-0.86572 -0.14063,-0.46582 -0.43067,-0.90967 v -0.0439 h 0.92286 q 0.1538,0.31201 0.28125,0.83056 0.12744,0.52295 0.12744,1.01075 0,1.00634 -0.4878,1.57763 -0.48339,0.57129 -1.31396,0.57129 -0.37354,0 -0.69873,-0.0967 -0.3208,-0.0923 -0.61084,-0.27685 -0.27246,-0.17139 -0.53613,-0.4043 -0.26368,-0.22852 -0.58448,-0.55811 -0.46142,-0.47021 -0.89648,-0.97119 -0.43066,-0.50097 -0.79981,-0.93603 v 3.52002 z"
         style="font-style:normal;font-size:medium;text-anchor:middle;fill:none;fill-opacity:1;stroke:#000000;stroke-width:0.25;stroke-linecap:butt;stroke-linejoin:bevel;stroke-dasharray:none;stroke-opacity:1"
         id="path876"
         inkscape:connector-curvature="0" />
      <path
         d="m 215.84654,553.01532 v -1.05029 h 1.25244 v 1.05029 z m -3.65625,0 v -1.05029 h 1.25244 v 1.05029 z"
         style="font-style:normal;font-size:medium;text-anchor:middle;fill:none;fill-opacity:1;stroke:#000000;stroke-width:0.25;stroke-linecap:butt;stroke-linejoin:bevel;stroke-dasharray:none;stroke-opacity:1"
         id="path878"
         inkscape:connector-curvature="0" />
      <path
         d="m 212.19029,559.30389 v -3.54199 h 0.66797 v 1.36231 h 4.38574 v -1.36231 h 0.59766 q 0,0.27686 0.0439,0.59326 0.0483,0.31641 0.13623,0.47901 0.10987,0.20215 0.27686,0.3164 0.17138,0.11866 0.45703,0.13623 v 0.68116 h -5.89746 v 1.33593 z"
         style="font-style:normal;font-size:medium;text-anchor:middle;fill:none;fill-opacity:1;stroke:#000000;stroke-width:0.25;stroke-linecap:butt;stroke-linejoin:bevel;stroke-dasharray:none;stroke-opacity:1"
         id="path880"
         inkscape:connector-curvature="0" />
      <path
         d="m 135.91463,86.091374 -2.78519,-2.188243 0.41267,-0.525248 1.07123,0.841632 2.70951,-3.448663 -1.07123,-0.841632 0.36923,-0.469958 q 0.2177,0.171041 0.49365,0.331962 0.27867,0.157464 0.46082,0.188805 0.22683,0.0385 0.41985,-0.02223 0.19918,-0.06146 0.38947,-0.275217 l 0.53562,0.420817 -3.64345,4.63738 1.05049,0.825343 z"
         style="font-style:normal;font-size:medium;text-anchor:middle;fill:none;fill-opacity:1;stroke:#000000;stroke-width:0.25;stroke-linecap:butt;stroke-linejoin:bevel;stroke-dasharray:none;stroke-opacity:1"
         id="path883"
         inkscape:connector-curvature="0" />
      <path
         d="m 142.73014,87.282595 q -1.08869,1.385686 -2.0345,1.693251 -0.93964,0.306825 -1.85191,-0.40992 -0.9261,-0.727604 -0.83875,-1.720816 0.0908,-0.990497 1.16049,-2.351994 1.07783,-1.371863 2.0229,-1.685599 0.94779,-0.317191 1.86352,0.402269 0.92609,0.727604 0.82714,1.728468 -0.0928,1.000123 -1.14889,2.344341 z m -2.1414,0.854802 q 0.34086,-0.184879 0.67825,-0.528957 0.34357,-0.344819 0.76167,-0.876978 0.41267,-0.525247 0.67182,-0.947566 0.26261,-0.419603 0.34997,-0.786876 0.0881,-0.361102 -0.0168,-0.661481 -0.10145,-0.297664 -0.42973,-0.555584 -0.32482,-0.255204 -0.64495,-0.288763 -0.31667,-0.03084 -0.65555,0.144408 -0.3184,0.163405 -0.6864,0.539324 -0.36454,0.378634 -0.75007,0.869326 -0.42353,0.539069 -0.67059,0.931769 -0.24705,0.3927 -0.34799,0.777251 -0.0977,0.359127 -0.002,0.663702 0.0995,0.307291 0.44503,0.578785 0.32483,0.255204 0.64496,0.288763 0.32012,0.03356 0.65209,-0.147123 z"
         style="font-style:normal;font-size:medium;text-anchor:middle;fill:none;fill-opacity:1;stroke:#000000;stroke-width:0.25;stroke-linecap:butt;stroke-linejoin:bevel;stroke-dasharray:none;stroke-opacity:1"
         id="path885"
         inkscape:connector-curvature="0" />
      <path
         d="m 145.46127,88.942149 -0.82588,-0.648872 0.77375,-0.984838 0.82589,0.648871 z m -2.25883,2.875038 -0.82589,-0.648872 0.77376,-0.984838 0.82588,0.648871 z"
         style="font-style:normal;font-size:medium;text-anchor:middle;fill:none;fill-opacity:1;stroke:#000000;stroke-width:0.25;stroke-linecap:butt;stroke-linejoin:bevel;stroke-dasharray:none;stroke-opacity:1"
         id="path887"
         inkscape:connector-curvature="0" />
      <path
         d="m 148.14736,95.702269 -2.78519,-2.188244 0.41267,-0.525247 1.07123,0.841632 2.70951,-3.448663 -1.07123,-0.841632 0.36924,-0.469958 q 0.2177,0.171041 0.49365,0.331961 0.27866,0.157465 0.46082,0.188806 0.22683,0.0385 0.41984,-0.02223 0.19918,-0.06146 0.38948,-0.275217 l 0.53561,0.420816 -3.64345,4.637381 1.05049,0.825342 z"
         style="font-style:normal;font-size:medium;text-anchor:middle;fill:none;fill-opacity:1;stroke:#000000;stroke-width:0.25;stroke-linecap:butt;stroke-linejoin:bevel;stroke-dasharray:none;stroke-opacity:1"
         id="path889"
         inkscape:connector-curvature="0" />
      <path
         d="m 7.6366124,142.39505 5.5634766,2.96191 v 0.94043 l -5.7744141,-3.15087 v 3.72656 H 6.656632 v -4.47803 z"
         style="font-style:normal;font-size:medium;text-anchor:middle;fill:none;fill-opacity:1;stroke:#000000;stroke-width:0.25;stroke-linecap:butt;stroke-linejoin:bevel;stroke-dasharray:none;stroke-opacity:1"
         id="path892"
         inkscape:connector-curvature="0" />
      <path
         d="m 9.543839,139.24857 v 1.05029 H 8.2913976 v -1.05029 z m 3.65625,0 v 1.05029 h -1.252441 v -1.05029 z"
         style="font-style:normal;font-size:medium;text-anchor:middle;fill:none;fill-opacity:1;stroke:#000000;stroke-width:0.25;stroke-linecap:butt;stroke-linejoin:bevel;stroke-dasharray:none;stroke-opacity:1"
         id="path894"
         inkscape:connector-curvature="0" />
      <path
         d="m 13.200089,132.95999 v 3.54199 H 12.53212 v -1.3623 H 8.1463781 v 1.3623 H 7.5487218 q 0,-0.27685 -0.043945,-0.59326 -0.04834,-0.3164 -0.1362305,-0.479 -0.1098632,-0.20215 -0.2768554,-0.31641 -0.1713868,-0.11865 -0.4570313,-0.13623 v -0.68115 h 5.8974614 v -1.33594 z"
         style="font-style:normal;font-size:medium;text-anchor:middle;fill:none;fill-opacity:1;stroke:#000000;stroke-width:0.25;stroke-linecap:butt;stroke-linejoin:bevel;stroke-dasharray:none;stroke-opacity:1"
         id="path896"
         inkscape:connector-curvature="0" />
      <path
         d="m 211.22631,203.69906 v -2.05735 h 0.42658 q 0.18369,0.21431 0.36738,0.42862 0.18369,0.21634 0.36534,0.40208 0.37963,0.39187 0.6021,0.53678 0.22451,0.14491 0.48372,0.14491 0.23676,0 0.36942,-0.15715 0.13471,-0.15512 0.13471,-0.43474 0,-0.18573 -0.0653,-0.40208 -0.0653,-0.21635 -0.20002,-0.42249 v -0.0204 h 0.42861 q 0.0714,0.14491 0.13063,0.38575 0.0592,0.24288 0.0592,0.46944 0,0.46739 -0.22656,0.73272 -0.22451,0.26533 -0.61026,0.26533 -0.17349,0 -0.32452,-0.0449 -0.14899,-0.0429 -0.2837,-0.12858 -0.12654,-0.0796 -0.24901,-0.18778 -0.12246,-0.10613 -0.27145,-0.25921 -0.21431,-0.21839 -0.41637,-0.45106 -0.20002,-0.23268 -0.37146,-0.43474 v 1.63486 z"
         style="font-style:normal;font-size:medium;text-anchor:middle;fill:none;fill-opacity:1;stroke:#000000;stroke-width:0.25;stroke-linecap:butt;stroke-linejoin:bevel;stroke-dasharray:none;stroke-opacity:1"
         id="path899"
         inkscape:connector-curvature="0" />
      <path
         d="m 212.92444,205.16859 v -0.48781 h 0.58169 v 0.48781 z m -1.69813,0 v -0.48781 h 0.58169 v 0.48781 z"
         style="font-style:normal;font-size:medium;text-anchor:middle;fill:none;fill-opacity:1;stroke:#000000;stroke-width:0.25;stroke-linecap:butt;stroke-linejoin:bevel;stroke-dasharray:none;stroke-opacity:1"
         id="path901"
         inkscape:connector-curvature="0" />
      <path
         d="m 211.22631,208.26277 v -2.05735 h 0.42658 q 0.18369,0.21431 0.36738,0.42862 0.18369,0.21634 0.36534,0.40208 0.37963,0.39187 0.6021,0.53678 0.22451,0.14492 0.48372,0.14492 0.23676,0 0.36942,-0.15716 0.13471,-0.15512 0.13471,-0.43474 0,-0.18573 -0.0653,-0.40208 -0.0653,-0.21635 -0.20002,-0.42249 v -0.0204 h 0.42861 q 0.0714,0.14491 0.13063,0.38575 0.0592,0.24288 0.0592,0.46944 0,0.46739 -0.22656,0.73272 -0.22451,0.26533 -0.61026,0.26533 -0.17349,0 -0.32452,-0.0449 -0.14899,-0.0429 -0.2837,-0.12858 -0.12654,-0.0796 -0.24901,-0.18778 -0.12246,-0.10613 -0.27145,-0.25921 -0.21431,-0.21838 -0.41637,-0.45106 -0.20002,-0.23268 -0.37146,-0.43474 v 1.63486 z"
         style="font-style:normal;font-size:medium;text-anchor:middle;fill:none;fill-opacity:1;stroke:#000000;stroke-width:0.25;stroke-linecap:butt;stroke-linejoin:bevel;stroke-dasharray:none;stroke-opacity:1"
         id="path903"
         inkscape:connector-curvature="0" />
      <path
         d="m 34.028556,555.57071 2.092014,2.85818 -0.539012,0.39452 -0.804621,-1.0993 -3.539035,2.59036 0.804621,1.0993 -0.482273,0.35299 q -0.16352,-0.2234 -0.385861,-0.45277 -0.225887,-0.22677 -0.392845,-0.30606 -0.208048,-0.0982 -0.410286,-0.0918 -0.208378,0.005 -0.449259,0.16 l -0.40231,-0.54965 4.758903,-3.48323 -0.789048,-1.07802 z"
         style="font-style:normal;font-size:medium;text-anchor:middle;fill:none;fill-opacity:1;stroke:#000000;stroke-width:0.25;stroke-linecap:butt;stroke-linejoin:bevel;stroke-dasharray:none;stroke-opacity:1"
         id="path906"
         inkscape:connector-curvature="0" />
      <path
         d="m 28.777164,551.91539 q 0.368797,-0.26994 0.80431,-0.38177 0.435513,-0.11182 0.837318,-0.0465 0.435108,0.0736 0.829416,0.32962 0.388167,0.25503 0.728184,0.71957 0.316657,0.43263 0.517755,0.90083 0.204644,0.4656 0.279436,0.83563 l -0.748233,0.54767 -0.03634,-0.0497 q -0.02844,-0.42575 -0.18274,-0.91186 -0.15785,-0.48351 -0.432979,-0.8594 -0.184284,-0.25178 -0.426513,-0.43391 -0.244824,-0.18568 -0.557099,-0.2403 -0.266688,-0.0444 -0.536558,0.0333 -0.272465,0.0742 -0.552609,0.27923 -0.273052,0.19985 -0.390917,0.43316 -0.12046,0.22977 -0.111946,0.47949 2.16e-4,0.28303 0.141691,0.58792 0.135333,0.30395 0.374123,0.63019 0.228409,0.31206 0.483797,0.57169 0.252793,0.25609 0.448484,0.43417 l -2.719879,1.99079 -2.325614,-3.17733 0.620572,-0.45422 1.824672,2.49292 1.404267,-1.02784 q -0.125793,-0.1421 -0.249685,-0.29648 -0.123893,-0.15439 -0.209546,-0.27141 -0.314062,-0.42908 -0.475789,-0.80628 -0.165272,-0.37461 -0.178135,-0.77909 -0.01261,-0.42644 0.181702,-0.80828 0.194308,-0.38185 0.658852,-0.72186 z"
         style="font-style:normal;font-size:medium;text-anchor:middle;fill:none;fill-opacity:1;stroke:#000000;stroke-width:0.25;stroke-linecap:butt;stroke-linejoin:bevel;stroke-dasharray:none;stroke-opacity:1"
         id="path908"
         inkscape:connector-curvature="0" />
      <path
         d="m 25.604161,550.25142 0.620337,0.84753 -1.010647,0.73973 -0.620337,-0.84753 z m 2.950378,-2.1595 0.620337,0.84753 -1.010647,0.73973 -0.620336,-0.84752 z"
         style="font-style:normal;font-size:medium;text-anchor:middle;fill:none;fill-opacity:1;stroke:#000000;stroke-width:0.25;stroke-linecap:butt;stroke-linejoin:bevel;stroke-dasharray:none;stroke-opacity:1"
         id="path910"
         inkscape:connector-curvature="0" />
      <path
         d="m 24.619684,542.71599 2.616315,3.5745 -0.74114,0.54247 q -0.591685,-0.13874 -1.183369,-0.27749 -0.59428,-0.14229 -1.14608,-0.23398 -1.157926,-0.19808 -1.728738,-0.16694 -0.574358,0.0337 -1.024716,0.36337 -0.411351,0.30108 -0.441992,0.74284 -0.03678,0.44082 0.318808,0.92663 0.236195,0.3227 0.6248,0.61553 0.388604,0.29284 0.884799,0.47969 l 0.02595,0.0355 -0.744686,0.54507 q -0.308399,-0.16094 -0.717512,-0.50411 -0.411708,-0.34672 -0.699814,-0.74034 -0.594381,-0.81206 -0.538183,-1.56116 0.05265,-0.74651 0.722871,-1.23707 0.301421,-0.22062 0.620936,-0.33468 0.313374,-0.115 0.656432,-0.13737 0.321086,-0.0226 0.671418,0.01 0.347736,0.0287 0.80127,0.10515 0.650067,0.1069 1.297027,0.2542 0.643413,0.14989 1.198247,0.28293 l -2.079036,-2.84045 z"
         style="font-style:normal;font-size:medium;text-anchor:middle;fill:none;fill-opacity:1;stroke:#000000;stroke-width:0.25;stroke-linecap:butt;stroke-linejoin:bevel;stroke-dasharray:none;stroke-opacity:1"
         id="path912"
         inkscape:connector-curvature="0" />
      <path
         d="m 80.952385,574.80002 h 3.541992 v 0.66797 h -1.362305 v 4.38574 h 1.362305 v 0.59766 q -0.276855,0 -0.593262,0.0439 -0.316406,0.0483 -0.479004,0.13623 -0.202148,0.10987 -0.316406,0.27686 -0.118652,0.17138 -0.13623,0.45703 h -0.681153 v -5.89746 h -1.335937 z"
         style="font-style:normal;font-size:medium;text-anchor:middle;fill:none;fill-opacity:1;stroke:#000000;stroke-width:0.25;stroke-linecap:butt;stroke-linejoin:bevel;stroke-dasharray:none;stroke-opacity:1"
         id="path915"
         inkscape:connector-curvature="0" />
      <path
         d="m 74.848381,574.80002 h 4.429687 v 0.91846 q -0.461425,0.3955 -0.922851,0.79101 -0.46582,0.39551 -0.865723,0.78662 -0.84375,0.81739 -1.155761,1.29639 -0.312012,0.4834 -0.312012,1.0415 0,0.50977 0.338379,0.79541 0.333984,0.29004 0.936035,0.29004 0.399902,0 0.865723,-0.14062 0.46582,-0.14063 0.909667,-0.43067 h 0.04395 v 0.92286 q -0.312011,0.1538 -0.830566,0.28125 -0.522949,0.12744 -1.010742,0.12744 -1.006348,0 -1.577637,-0.4878 -0.571289,-0.48339 -0.571289,-1.31396 0,-0.37354 0.09668,-0.69873 0.09229,-0.3208 0.276855,-0.61084 0.171387,-0.27246 0.404297,-0.53613 0.228516,-0.26368 0.558106,-0.58448 0.470214,-0.46142 0.971191,-0.89648 0.500977,-0.43066 0.936035,-0.79981 h -3.520019 z"
         style="font-style:normal;font-size:medium;text-anchor:middle;fill:none;fill-opacity:1;stroke:#000000;stroke-width:0.25;stroke-linecap:butt;stroke-linejoin:bevel;stroke-dasharray:none;stroke-opacity:1"
         id="path917"
         inkscape:connector-curvature="0" />
      <path
         d="m 71.684318,578.45627 h 1.050293 v 1.25244 h -1.050293 z m 0,-3.65625 h 1.050293 v 1.25244 h -1.050293 z"
         style="font-style:normal;font-size:medium;text-anchor:middle;fill:none;fill-opacity:1;stroke:#000000;stroke-width:0.25;stroke-linecap:butt;stroke-linejoin:bevel;stroke-dasharray:none;stroke-opacity:1"
         id="path919"
         inkscape:connector-curvature="0" />
      <path
         d="m 65.395744,574.80002 h 3.541992 v 0.66797 h -1.362304 v 4.38574 h 1.362304 v 0.59766 q -0.276855,0 -0.593261,0.0439 -0.316407,0.0483 -0.479004,0.13623 -0.202149,0.10987 -0.316406,0.27686 -0.118653,0.17138 -0.136231,0.45703 h -0.681152 v -5.89746 h -1.335938 z"
         style="font-style:normal;font-size:medium;text-anchor:middle;fill:none;fill-opacity:1;stroke:#000000;stroke-width:0.25;stroke-linecap:butt;stroke-linejoin:bevel;stroke-dasharray:none;stroke-opacity:1"
         id="path921"
         inkscape:connector-curvature="0" />
      <path
         d="m 157.27242,135.20053 q -0.99755,0 -1.63037,-0.65917 -0.62841,-0.65479 -0.62841,-1.6084 0,-0.4834 0.14941,-0.87891 0.14941,-0.39551 0.44385,-0.69873 0.36474,-0.37793 0.96679,-0.58447 0.60205,-0.20215 1.4502,-0.20215 0.87012,0 1.54248,0.18457 0.67236,0.18896 1.19531,0.59766 0.49658,0.38671 0.77344,0.99755 0.28125,0.61084 0.28125,1.42383 0,0.25928 -0.022,0.43506 -0.022,0.17578 -0.0791,0.35596 h -0.83935 v -0.0439 q 0.0659,-0.12304 0.12305,-0.37353 0.0615,-0.2461 0.0615,-0.50537 0,-0.94483 -0.59326,-1.50733 -0.58887,-0.5625 -1.59522,-0.65478 0.22412,0.36914 0.33838,0.72509 0.11865,0.36036 0.11865,0.83057 0,0.41748 -0.0791,0.73389 -0.0747,0.3208 -0.30762,0.65478 -0.26806,0.38672 -0.67675,0.58008 -0.40869,0.19776 -0.99317,0.19776 z m -0.0352,-0.89209 q 0.40869,0 0.67676,-0.12304 0.26806,-0.11865 0.46582,-0.39551 0.14062,-0.20215 0.18457,-0.44824 0.0439,-0.2461 0.0439,-0.51416 0,-0.37354 -0.0879,-0.69434 -0.0879,-0.3208 -0.27246,-0.65918 -0.0967,-0.009 -0.18896,-0.0132 -0.0879,-0.004 -0.22413,-0.004 -0.69433,0 -1.09863,0.14062 -0.3999,0.14502 -0.63281,0.39551 -0.19336,0.20215 -0.28565,0.43506 -0.0879,0.2373 -0.0879,0.51416 0,0.63721 0.38672,1.00195 0.39112,0.36475 1.12061,0.36475 z"
         style="font-style:normal;font-size:medium;text-anchor:middle;fill:none;fill-opacity:1;stroke:#000000;stroke-width:0.25;stroke-linecap:butt;stroke-linejoin:bevel;stroke-dasharray:none;stroke-opacity:1"
         id="path924"
         inkscape:connector-curvature="0" />
      <path
         d="m 155.14987,137.85923 v -1.0503 h 1.25244 v 1.0503 z"
         style="font-style:normal;font-size:medium;text-anchor:middle;fill:none;fill-opacity:1;stroke:#000000;stroke-width:0.25;stroke-linecap:butt;stroke-linejoin:bevel;stroke-dasharray:none;stroke-opacity:1"
         id="path926"
         inkscape:connector-curvature="0" />
      <path
         d="m 158.80612,141.53745 v -1.05029 h 1.25244 v 1.05029 z m -3.65625,0 v -1.05029 h 1.25244 v 1.05029 z"
         style="font-style:normal;font-size:medium;text-anchor:middle;fill:none;fill-opacity:1;stroke:#000000;stroke-width:0.25;stroke-linecap:butt;stroke-linejoin:bevel;stroke-dasharray:none;stroke-opacity:1"
         id="path928"
         inkscape:connector-curvature="0" />
      <path
         d="m 155.14987,148.19956 v -4.42969 h 0.91845 q 0.39551,0.46143 0.79102,0.92285 0.39551,0.46582 0.78662,0.86572 0.81738,0.84375 1.29639,1.15577 0.48339,0.31201 1.0415,0.31201 0.50977,0 0.79541,-0.33838 0.29004,-0.33398 0.29004,-0.93604 0,-0.3999 -0.14063,-0.86572 -0.14062,-0.46582 -0.43066,-0.90967 v -0.0439 h 0.92285 q 0.15381,0.31201 0.28125,0.83057 0.12744,0.52294 0.12744,1.01074 0,1.00634 -0.48779,1.57763 -0.4834,0.57129 -1.31396,0.57129 -0.37354,0 -0.69873,-0.0967 -0.32081,-0.0923 -0.61084,-0.27685 -0.27247,-0.17139 -0.53614,-0.4043 -0.26367,-0.22851 -0.58447,-0.5581 -0.46143,-0.47022 -0.89648,-0.9712 -0.43067,-0.50097 -0.79981,-0.93603 v 3.52002 z"
         style="font-style:normal;font-size:medium;text-anchor:middle;fill:none;fill-opacity:1;stroke:#000000;stroke-width:0.25;stroke-linecap:butt;stroke-linejoin:bevel;stroke-dasharray:none;stroke-opacity:1"
         id="path930"
         inkscape:connector-curvature="0" />
      <path
         d="M 21.189953,93.836589 18.60106,96.25389 18.145192,95.765662 19.14092,94.835931 16.147786,91.630329 15.152058,92.56006 14.744176,92.123225 q 0.202358,-0.188946 0.403632,-0.437003 0.198276,-0.25127 0.257138,-0.426478 0.07278,-0.218261 0.04232,-0.418296 -0.03024,-0.206245 -0.212337,-0.427023 l 0.497864,-0.464866 4.024836,4.310539 0.976456,-0.911737 z"
         style="font-style:normal;font-size:medium;text-anchor:middle;fill:none;fill-opacity:1;stroke:#000000;stroke-width:0.25;stroke-linecap:butt;stroke-linejoin:bevel;stroke-dasharray:none;stroke-opacity:1"
         id="path933"
         inkscape:connector-curvature="0" />
      <path
         d="m 23.410679,87.283833 q 1.202652,1.288022 1.361774,2.269774 0.159334,0.97554 -0.68864,1.767311 -0.860823,0.803768 -1.82895,0.565375 -0.964914,-0.241391 -2.146572,-1.506929 -1.190656,-1.275175 -1.355989,-2.257139 -0.168332,-0.985177 0.682855,-1.779947 0.860823,-0.803767 1.834735,-0.552739 0.974124,0.244816 2.140787,1.494294 z m 0.516843,2.247031 q -0.130508,-0.365143 -0.41887,-0.751244 -0.288148,-0.392311 -0.750014,-0.886963 -0.455868,-0.488228 -0.833528,-0.808986 -0.374447,-0.323757 -0.724012,-0.466327 -0.343354,-0.142356 -0.656254,-0.08468 -0.309688,0.05468 -0.61483,0.339597 -0.30193,0.281918 -0.38411,0.593133 -0.07897,0.308216 0.04233,0.669935 0.112727,0.339661 0.427868,0.76088 0.318352,0.418221 0.744229,0.874328 0.467865,0.501076 0.818106,0.805348 0.350242,0.304273 0.714802,0.462902 0.33993,0.151567 0.655616,0.103312 0.318898,-0.05125 0.6401,-0.351167 0.301931,-0.281919 0.38411,-0.593134 0.08218,-0.311215 -0.04554,-0.666936 z"
         style="font-style:normal;font-size:medium;text-anchor:middle;fill:none;fill-opacity:1;stroke:#000000;stroke-width:0.25;stroke-linecap:butt;stroke-linejoin:bevel;stroke-dasharray:none;stroke-opacity:1"
         id="path935"
         inkscape:connector-curvature="0" />
      <path
         d="m 25.468837,84.839013 -0.767674,0.716793 -0.854753,-0.915428 0.767674,-0.716792 z m 2.495278,2.672405 -0.767674,0.716793 -0.854753,-0.915427 0.767674,-0.716793 z"
         style="font-style:normal;font-size:medium;text-anchor:middle;fill:none;fill-opacity:1;stroke:#000000;stroke-width:0.25;stroke-linecap:butt;stroke-linejoin:bevel;stroke-dasharray:none;stroke-opacity:1"
         id="path937"
         inkscape:connector-curvature="0" />
      <path
         d="m 30.262393,81.054597 q 0.28314,-0.0058 0.577656,0.109968 0.294516,0.115808 0.603427,0.446647 0.305912,0.327627 0.441993,0.711617 0.136081,0.38399 0.109821,0.787289 -0.03096,0.449777 -0.256619,0.864897 -0.225443,0.40891 -0.614098,0.771805 -0.398291,0.371892 -0.873708,0.635427 -0.472418,0.266747 -0.824714,0.38526 l -0.626819,-0.671314 0.04818,-0.04499 q 0.440973,-0.07505 0.921324,-0.301108 0.480351,-0.226055 0.824038,-0.546962 0.202358,-0.188946 0.36743,-0.469337 0.165071,-0.280391 0.183436,-0.544045 0.01579,-0.27929 -0.0725,-0.515508 -0.08508,-0.239217 -0.328007,-0.499391 -0.239931,-0.256963 -0.479398,-0.34601 -0.239255,-0.09526 -0.47377,-0.05666 -0.237514,0.03539 -0.476074,0.192 -0.241559,0.153401 -0.479249,0.375336 l -0.289083,0.269922 -0.497856,-0.533196 0.224842,-0.209939 q 0.488228,-0.455868 0.588365,-0.928148 0.10035,-0.478491 -0.265544,-0.870358 -0.161953,-0.173449 -0.355795,-0.23295 -0.196841,-0.06271 -0.406512,-0.02326 -0.216094,0.04545 -0.403475,0.160287 -0.18738,0.114837 -0.386526,0.300784 -0.305142,0.284917 -0.546859,0.715033 -0.241716,0.430116 -0.360912,0.91418 l -0.03212,0.02999 -0.626819,-0.671314 q 0.123084,-0.325359 0.415129,-0.772405 0.292257,-0.453258 0.648792,-0.786162 0.35011,-0.326905 0.676691,-0.511592 0.326581,-0.184688 0.673749,-0.244301 0.375224,-0.06176 0.69801,0.04569 0.322786,0.10745 0.595707,0.399744 0.371892,0.398291 0.368153,0.960933 -0.0035,0.556431 -0.313778,0.990417 l 0.04199,0.04497 q 0.17817,-0.118263 0.455293,-0.220696 0.274124,-0.105646 0.526208,-0.112552 z"
         style="font-style:normal;font-size:medium;text-anchor:middle;fill:none;fill-opacity:1;stroke:#000000;stroke-width:0.25;stroke-linecap:butt;stroke-linejoin:bevel;stroke-dasharray:none;stroke-opacity:1"
         id="path939"
         inkscape:connector-curvature="0" />
      <path
         d="m 11.580199,206.92782 2.583926,1.37565 v 0.43677 l -2.681894,-1.46341 v 1.73079 h -0.357178 v -2.0798 z"
         style="font-style:normal;font-size:medium;text-anchor:middle;fill:none;fill-opacity:1;stroke:#000000;stroke-width:0.25;stroke-linecap:butt;stroke-linejoin:bevel;stroke-dasharray:none;stroke-opacity:1"
         id="path942"
         inkscape:connector-curvature="0" />
      <path
         d="m 12.466,205.46645 v 0.48781 h -0.581689 v -0.48781 z m 1.698125,0 v 0.48781 h -0.581689 v -0.48781 z"
         style="font-style:normal;font-size:medium;text-anchor:middle;fill:none;fill-opacity:1;stroke:#000000;stroke-width:0.25;stroke-linecap:butt;stroke-linejoin:bevel;stroke-dasharray:none;stroke-opacity:1"
         id="path944"
         inkscape:connector-curvature="0" />
      <path
         d="m 13.317104,202.34982 q 0.393916,0 0.655166,0.3082 0.26125,0.30615 0.26125,0.7715 0,0.49393 -0.255127,0.78783 -0.255127,0.29187 -0.653125,0.29187 -0.253086,0 -0.457188,-0.14696 -0.206142,-0.14695 -0.326562,-0.41432 h -0.01225 q -0.130625,0.24492 -0.285743,0.3633 -0.155117,0.11634 -0.387793,0.11634 -0.34289,0 -0.571484,-0.28166 -0.228594,-0.28166 -0.228594,-0.7164 0,-0.45515 0.218389,-0.7266 0.218389,-0.27146 0.555156,-0.27146 0.206143,0 0.406162,0.12859 0.197979,0.12858 0.310235,0.37759 h 0.01225 q 0.122461,-0.28575 0.30207,-0.43678 0.179609,-0.15104 0.457188,-0.15104 z m -1.483819,0.48372 q -0.218388,0 -0.346972,0.16941 -0.130625,0.16736 -0.130625,0.42861 0,0.25717 0.122461,0.42249 0.12246,0.16328 0.330644,0.16328 0.146953,0 0.255127,-0.0816 0.106133,-0.0837 0.189814,-0.25104 0.03674,-0.0755 0.09593,-0.21635 0.05919,-0.14287 0.09797,-0.27758 -0.134707,-0.20206 -0.279619,-0.27962 -0.144912,-0.0776 -0.334726,-0.0776 z m 1.522598,-0.0633 q -0.187774,0 -0.300029,0.0837 -0.114297,0.0816 -0.228594,0.32248 -0.0449,0.0959 -0.08368,0.21022 -0.03878,0.1143 -0.108174,0.30411 0.10001,0.18369 0.271455,0.29595 0.171445,0.11021 0.387793,0.11021 0.275537,0 0.455146,-0.18981 0.17961,-0.18982 0.17961,-0.48168 0,-0.29799 -0.153076,-0.47556 -0.153077,-0.17961 -0.420449,-0.17961 z"
         style="font-style:normal;font-size:medium;text-anchor:middle;fill:none;fill-opacity:1;stroke:#000000;stroke-width:0.25;stroke-linecap:butt;stroke-linejoin:bevel;stroke-dasharray:none;stroke-opacity:1"
         id="path946"
         inkscape:connector-curvature="0" />
      <path
         d="m 199.99886,574.80002 h 3.542 v 0.66797 h -1.36231 v 4.38574 h 1.36231 v 0.59766 q -0.27686,0 -0.59327,0.0439 -0.3164,0.0483 -0.479,0.13623 -0.20215,0.10987 -0.31641,0.27686 -0.11865,0.17138 -0.13623,0.45703 h -0.68115 v -5.89746 h -1.33594 z"
         style="font-style:normal;font-size:medium;text-anchor:middle;fill:none;fill-opacity:1;stroke:#000000;stroke-width:0.25;stroke-linecap:butt;stroke-linejoin:bevel;stroke-dasharray:none;stroke-opacity:1"
         id="path949"
         inkscape:connector-curvature="0" />
      <path
         d="m 193.89486,574.80002 h 4.42969 v 0.91846 q -0.46143,0.3955 -0.92286,0.79101 -0.46582,0.39551 -0.86572,0.78662 -0.84375,0.81739 -1.15576,1.29639 -0.31201,0.4834 -0.31201,1.0415 0,0.50977 0.33838,0.79541 0.33398,0.29004 0.93603,0.29004 0.39991,0 0.86573,-0.14062 0.46582,-0.14063 0.90966,-0.43067 h 0.0439 v 0.92286 q -0.31201,0.1538 -0.83057,0.28125 -0.52295,0.12744 -1.01074,0.12744 -1.00635,0 -1.57764,-0.4878 -0.57129,-0.48339 -0.57129,-1.31396 0,-0.37354 0.0967,-0.69873 0.0923,-0.3208 0.27686,-0.61084 0.17139,-0.27246 0.4043,-0.53613 0.22851,-0.26368 0.5581,-0.58448 0.47022,-0.46142 0.97119,-0.89648 0.50098,-0.43066 0.93604,-0.79981 h -3.52002 z"
         style="font-style:normal;font-size:medium;text-anchor:middle;fill:none;fill-opacity:1;stroke:#000000;stroke-width:0.25;stroke-linecap:butt;stroke-linejoin:bevel;stroke-dasharray:none;stroke-opacity:1"
         id="path951"
         inkscape:connector-curvature="0" />
      <path
         d="m 190.7308,578.45627 h 1.05029 v 1.25244 h -1.05029 z m 0,-3.65625 h 1.05029 v 1.25244 h -1.05029 z"
         style="font-style:normal;font-size:medium;text-anchor:middle;fill:none;fill-opacity:1;stroke:#000000;stroke-width:0.25;stroke-linecap:butt;stroke-linejoin:bevel;stroke-dasharray:none;stroke-opacity:1"
         id="path953"
         inkscape:connector-curvature="0" />
      <path
         d="m 184.64437,577.9509 q -0.21094,-0.18897 -0.34717,-0.47461 -0.13623,-0.28564 -0.13623,-0.73828 0,-0.44824 0.1626,-0.82178 0.1626,-0.37353 0.45703,-0.65039 0.32959,-0.30762 0.77783,-0.45703 0.44385,-0.14502 0.97559,-0.14502 0.54492,0 1.07226,0.13184 0.52735,0.12744 0.86573,0.28125 v 0.91845 h -0.0659 q -0.37354,-0.24609 -0.87891,-0.40869 -0.50537,-0.1626 -0.97558,-0.1626 -0.27686,0 -0.58887,0.0923 -0.31201,0.0923 -0.50537,0.27246 -0.20215,0.19336 -0.29883,0.42627 -0.10107,0.23291 -0.10107,0.58887 0,0.35156 0.11425,0.58007 0.10987,0.23291 0.30762,0.36475 0.19776,0.13623 0.47901,0.18457 0.28125,0.0527 0.60644,0.0527 h 0.39551 v 0.7295 h -0.30762 q -0.66797,0 -1.06348,0.27685 -0.3999,0.28125 -0.3999,0.81739 0,0.2373 0.10108,0.41308 0.10107,0.18018 0.28125,0.29443 0.18896,0.11426 0.40429,0.15821 0.21534,0.0439 0.4878,0.0439 0.41748,0 0.88769,-0.14941 0.47022,-0.14942 0.8877,-0.42188 h 0.0439 v 0.91846 q -0.31201,0.15381 -0.83056,0.28125 -0.52295,0.13184 -1.01075,0.13184 -0.479,0 -0.84375,-0.0879 -0.36474,-0.0879 -0.65918,-0.28125 -0.3164,-0.21094 -0.479,-0.50977 -0.1626,-0.29883 -0.1626,-0.69873 0,-0.54492 0.38672,-0.95361 0.38233,-0.4043 0.90527,-0.50977 v -0.0615 q -0.21093,-0.0352 -0.48339,-0.14942 -0.27246,-0.10986 -0.46143,-0.27685 z"
         style="font-style:normal;font-size:medium;text-anchor:middle;fill:none;fill-opacity:1;stroke:#000000;stroke-width:0.25;stroke-linecap:butt;stroke-linejoin:bevel;stroke-dasharray:none;stroke-opacity:1"
         id="path955"
         inkscape:connector-curvature="0" />
      <path
         d="m 189.93986,196.35899 q 0,0.99756 -0.65918,1.63037 -0.65478,0.62842 -1.6084,0.62842 -0.4834,0 -0.8789,-0.14941 -0.39551,-0.14942 -0.69873,-0.44385 -0.37793,-0.36475 -0.58448,-0.9668 -0.20215,-0.60205 -0.20215,-1.45019 0,-0.87012 0.18458,-1.54248 0.18896,-0.67237 0.59765,-1.19532 0.38672,-0.49658 0.99756,-0.77343 0.61084,-0.28125 1.42383,-0.28125 0.25928,0 0.43506,0.022 0.17578,0.022 0.35595,0.0791 v 0.83936 h -0.0439 q -0.12305,-0.0659 -0.37354,-0.12305 -0.24609,-0.0615 -0.50537,-0.0615 -0.94482,0 -1.50732,0.59326 -0.5625,0.58887 -0.65479,1.59521 0.36914,-0.22412 0.7251,-0.33838 0.36035,-0.11865 0.83057,-0.11865 0.41748,0 0.73388,0.0791 0.3208,0.0747 0.65479,0.30762 0.38672,0.26807 0.58008,0.67676 0.19775,0.40869 0.19775,0.99316 z m -0.89209,0.0352 q 0,-0.40869 -0.12305,-0.67676 -0.11865,-0.26807 -0.3955,-0.46582 -0.20215,-0.14063 -0.44825,-0.18457 -0.24609,-0.0439 -0.51416,-0.0439 -0.37353,0 -0.69433,0.0879 -0.3208,0.0879 -0.65918,0.27247 -0.009,0.0967 -0.0132,0.18896 -0.004,0.0879 -0.004,0.22412 0,0.69434 0.14063,1.09863 0.14502,0.39991 0.39551,0.63282 0.20215,0.19336 0.43506,0.28564 0.2373,0.0879 0.51416,0.0879 0.6372,0 1.00195,-0.38672 0.36474,-0.39111 0.36474,-1.1206 z"
         style="font-style:normal;font-size:medium;text-anchor:middle;fill:none;fill-opacity:1;stroke:#000000;stroke-width:0.25;stroke-linecap:butt;stroke-linejoin:bevel;stroke-dasharray:none;stroke-opacity:1"
         id="path958"
         inkscape:connector-curvature="0" />
      <path
         d="m 192.59855,198.48155 h -1.05029 v -1.25244 h 1.05029 z"
         style="font-style:normal;font-size:medium;text-anchor:middle;fill:none;fill-opacity:1;stroke:#000000;stroke-width:0.25;stroke-linecap:butt;stroke-linejoin:bevel;stroke-dasharray:none;stroke-opacity:1"
         id="path960"
         inkscape:connector-curvature="0" />
      <path
         d="m 196.27677,194.8253 h -1.05029 v -1.25244 h 1.05029 z m 0,3.65625 h -1.05029 v -1.25244 h 1.05029 z"
         style="font-style:normal;font-size:medium;text-anchor:middle;fill:none;fill-opacity:1;stroke:#000000;stroke-width:0.25;stroke-linecap:butt;stroke-linejoin:bevel;stroke-dasharray:none;stroke-opacity:1"
         id="path962"
         inkscape:connector-curvature="0" />
      <path
         d="m 203.0883,196.64024 h -0.97119 v 1.84131 h -0.84375 v -1.84131 h -3.1333 v -1.01074 l 3.16845,-3.69141 h 0.8086 v 3.99903 h 0.97119 z m -1.81494,-0.70312 v -2.95313 l -2.53565,2.95313 z"
         style="font-style:normal;font-size:medium;text-anchor:middle;fill:none;fill-opacity:1;stroke:#000000;stroke-width:0.25;stroke-linecap:butt;stroke-linejoin:bevel;stroke-dasharray:none;stroke-opacity:1"
         id="path964"
         inkscape:connector-curvature="0" />
      <path
         d="m 13.20007,255.99861 v 3.542 H 12.532101 V 258.1783 H 8.1463591 v 1.36231 H 7.5487028 q 0,-0.27686 -0.043945,-0.59327 -0.04834,-0.3164 -0.1362305,-0.479 -0.1098632,-0.20215 -0.2768554,-0.31641 -0.1713868,-0.11865 -0.4570313,-0.13623 v -0.68115 h 5.8974614 v -1.33594 z"
         style="font-style:normal;font-size:medium;text-anchor:middle;fill:none;fill-opacity:1;stroke:#000000;stroke-width:0.25;stroke-linecap:butt;stroke-linejoin:bevel;stroke-dasharray:none;stroke-opacity:1"
         id="path967"
         inkscape:connector-curvature="0" />
      <path
         d="m 11.121457,249.94734 q 0.457031,0 0.874511,0.167 0.417481,0.16699 0.703125,0.45703 0.307618,0.3164 0.47461,0.75586 0.162597,0.43505 0.162597,1.01074 0,0.53613 -0.114257,1.03271 -0.109864,0.49659 -0.268067,0.83936 H 12.02673 v -0.0615 q 0.228516,-0.36036 0.391113,-0.84375 0.158204,-0.4834 0.158204,-0.94922 0,-0.31201 -0.08789,-0.60205 -0.08789,-0.29444 -0.307617,-0.52295 -0.188965,-0.19336 -0.452637,-0.29004 -0.263672,-0.10108 -0.61084,-0.10108 -0.338379,0 -0.571289,0.11866 -0.23291,0.11425 -0.373535,0.3208 -0.166992,0.22851 -0.2329102,0.5581 -0.070312,0.3252 -0.070312,0.72949 0,0.38672 0.052734,0.74707 0.052734,0.35596 0.1054682,0.61524 H 6.656613 v -3.9375 h 0.7690429 v 3.08935 h 1.7402344 q -0.017578,-0.18896 -0.026367,-0.38671 -0.00879,-0.19776 -0.00879,-0.34278 0,-0.53174 0.092285,-0.93164 0.087891,-0.3999 0.3164063,-0.73389 0.2416992,-0.35156 0.6240234,-0.54492 0.382324,-0.19336 0.958009,-0.19336 z"
         style="font-style:normal;font-size:medium;text-anchor:middle;fill:none;fill-opacity:1;stroke:#000000;stroke-width:0.25;stroke-linecap:butt;stroke-linejoin:bevel;stroke-dasharray:none;stroke-opacity:1"
         id="path969"
         inkscape:connector-curvature="0" />
      <path
         d="m 9.54382,246.73055 v 1.05029 H 8.2913786 v -1.05029 z m 3.65625,0 v 1.05029 h -1.252441 v -1.05029 z"
         style="font-style:normal;font-size:medium;text-anchor:middle;fill:none;fill-opacity:1;stroke:#000000;stroke-width:0.25;stroke-linecap:butt;stroke-linejoin:bevel;stroke-dasharray:none;stroke-opacity:1"
         id="path971"
         inkscape:connector-curvature="0" />
      <path
         d="m 10.049191,240.64412 q 0.188965,-0.21094 0.474609,-0.34717 0.285645,-0.13623 0.738282,-0.13623 0.448242,0 0.821777,0.1626 0.373535,0.1626 0.650391,0.45703 0.307617,0.32959 0.457031,0.77783 0.145019,0.44385 0.145019,0.97559 0,0.54492 -0.131835,1.07226 -0.127442,0.52735 -0.28125,0.86573 h -0.918458 v -0.0659 q 0.246094,-0.37354 0.408692,-0.87891 0.162598,-0.50537 0.162598,-0.97558 0,-0.27686 -0.09229,-0.58887 -0.09228,-0.31201 -0.272461,-0.50537 -0.193359,-0.20215 -0.426269,-0.29883 -0.23291,-0.10107 -0.588867,-0.10107 -0.351563,0 -0.580079,0.11425 -0.23291,0.10987 -0.364746,0.30762 -0.13623,0.19776 -0.18457,0.47901 -0.05273,0.28125 -0.05273,0.60644 v 0.39551 H 9.2845431 v -0.30762 q 0,-0.66797 -0.2768555,-1.06348 -0.28125,-0.3999 -0.8173828,-0.3999 -0.2373047,0 -0.413086,0.10108 -0.1801757,0.10107 -0.2944336,0.28125 -0.1142578,0.18896 -0.1582031,0.40429 -0.043945,0.21534 -0.043945,0.4878 0,0.41748 0.1494141,0.88769 0.149414,0.47022 0.421875,0.8877 v 0.0439 H 6.9334691 q -0.1538086,-0.31201 -0.28125,-0.83056 -0.1318359,-0.52295 -0.1318359,-1.01075 0,-0.479 0.087891,-0.84375 0.087891,-0.36474 0.28125,-0.65918 0.2109375,-0.3164 0.5097657,-0.479 0.2988281,-0.1626 0.6987304,-0.1626 0.5449219,0 0.9536133,0.38672 0.4042969,0.38233 0.5097656,0.90527 h 0.061523 q 0.035156,-0.21093 0.149414,-0.48339 0.1098633,-0.27246 0.2768548,-0.46143 z"
         style="font-style:normal;font-size:medium;text-anchor:middle;fill:none;fill-opacity:1;stroke:#000000;stroke-width:0.25;stroke-linecap:butt;stroke-linejoin:bevel;stroke-dasharray:none;stroke-opacity:1"
         id="path973"
         inkscape:connector-curvature="0" />
      <path
         d="m 82.596779,307.06964 q 0,0.68359 -0.195313,1.23047 -0.190429,0.54687 -0.517578,0.91797 -0.346679,0.38574 -0.761719,0.58105 -0.415039,0.19043 -0.913085,0.19043 -0.463868,0 -0.810547,-0.1123 -0.34668,-0.10742 -0.683594,-0.29297 l -0.05859,0.25391 h -0.859375 v -7.59766 h 0.917969 v 2.71484 q 0.385742,-0.31738 0.820312,-0.51757 0.434571,-0.20508 0.976563,-0.20508 0.966797,0 1.523437,0.74218 0.561524,0.74219 0.561524,2.09473 z m -0.947266,0.0244 q 0,-0.97657 -0.322265,-1.4795 -0.322266,-0.50781 -1.040039,-0.50781 -0.400391,0 -0.810547,0.17578 -0.410157,0.1709 -0.761719,0.44434 v 3.125 q 0.390625,0.17578 0.668945,0.24414 0.283203,0.0684 0.639649,0.0684 0.761718,0 1.191406,-0.49805 0.43457,-0.50293 0.43457,-1.57226 z"
         style="font-style:normal;font-size:medium;text-anchor:middle;fill:none;fill-opacity:1;stroke:#000000;stroke-width:0.25;stroke-linecap:butt;stroke-linejoin:bevel;stroke-dasharray:none;stroke-opacity:1"
         id="path976"
         inkscape:connector-curvature="0" />
      <path
         d="m 88.67588,307.11359 q 0,1.333 -0.683593,2.10449 -0.683594,0.77148 -1.831055,0.77148 -1.157227,0 -1.84082,-0.77148 -0.678711,-0.77149 -0.678711,-2.10449 0,-1.33301 0.678711,-2.1045 0.683593,-0.77636 1.84082,-0.77636 1.147461,0 1.831055,0.77636 0.683593,0.77149 0.683593,2.1045 z m -0.947265,0 q 0,-1.05957 -0.415039,-1.57227 -0.415039,-0.51758 -1.152344,-0.51758 -0.74707,0 -1.162109,0.51758 -0.410157,0.5127 -0.410157,1.57227 0,1.02539 0.415039,1.55761 0.415039,0.52735 1.157227,0.52735 0.732422,0 1.147461,-0.52246 0.419922,-0.52735 0.419922,-1.5625 z"
         style="font-style:normal;font-size:medium;text-anchor:middle;fill:none;fill-opacity:1;stroke:#000000;stroke-width:0.25;stroke-linecap:butt;stroke-linejoin:bevel;stroke-dasharray:none;stroke-opacity:1"
         id="path978"
         inkscape:connector-curvature="0" />
      <path
         d="m 92.933693,309.78937 q -0.258789,0.0684 -0.566406,0.1123 -0.302735,0.0439 -0.541993,0.0439 -0.83496,0 -1.269531,-0.44922 -0.43457,-0.44922 -0.43457,-1.44043 v -2.90039 h -0.620117 v -0.77149 h 0.620117 v -1.56738 h 0.917969 v 1.56738 h 1.894531 v 0.77149 h -1.894531 v 2.48535 q 0,0.42969 0.01953,0.67383 0.01953,0.23926 0.136719,0.44922 0.107422,0.19531 0.292968,0.28808 0.19043,0.0879 0.576172,0.0879 0.22461,0 0.46875,-0.0635 0.244141,-0.0684 0.351563,-0.11231 h 0.04883 z"
         style="font-style:normal;font-size:medium;text-anchor:middle;fill:none;fill-opacity:1;stroke:#000000;stroke-width:0.25;stroke-linecap:butt;stroke-linejoin:bevel;stroke-dasharray:none;stroke-opacity:1"
         id="path980"
         inkscape:connector-curvature="0" />
      <path
         d="m 96.879005,309.78937 q -0.258789,0.0684 -0.566406,0.1123 -0.302734,0.0439 -0.541992,0.0439 -0.834961,0 -1.269531,-0.44922 -0.434571,-0.44922 -0.434571,-1.44043 v -2.90039 h -0.620117 v -0.77149 h 0.620117 v -1.56738 h 0.917969 v 1.56738 h 1.894531 v 0.77149 h -1.894531 v 2.48535 q 0,0.42969 0.01953,0.67383 0.01953,0.23926 0.136719,0.44922 0.107422,0.19531 0.292969,0.28808 0.19043,0.0879 0.576172,0.0879 0.224609,0 0.46875,-0.0635 0.24414,-0.0684 0.351562,-0.11231 h 0.04883 z"
         style="font-style:normal;font-size:medium;text-anchor:middle;fill:none;fill-opacity:1;stroke:#000000;stroke-width:0.25;stroke-linecap:butt;stroke-linejoin:bevel;stroke-dasharray:none;stroke-opacity:1"
         id="path982"
         inkscape:connector-curvature="0" />
      <path
         d="m 102.64072,307.11359 q 0,1.333 -0.68359,2.10449 -0.68359,0.77148 -1.83105,0.77148 -1.157231,0 -1.840825,-0.77148 -0.678711,-0.77149 -0.678711,-2.10449 0,-1.33301 0.678711,-2.1045 0.683594,-0.77636 1.840825,-0.77636 1.14746,0 1.83105,0.77636 0.68359,0.77149 0.68359,2.1045 z m -0.94726,0 q 0,-1.05957 -0.41504,-1.57227 -0.41504,-0.51758 -1.15234,-0.51758 -0.747075,0 -1.162114,0.51758 -0.410156,0.5127 -0.410156,1.57227 0,1.02539 0.415039,1.55761 0.415039,0.52735 1.157231,0.52735 0.73242,0 1.14746,-0.52246 0.41992,-0.52735 0.41992,-1.5625 z"
         style="font-style:normal;font-size:medium;text-anchor:middle;fill:none;fill-opacity:1;stroke:#000000;stroke-width:0.25;stroke-linecap:butt;stroke-linejoin:bevel;stroke-dasharray:none;stroke-opacity:1"
         id="path984"
         inkscape:connector-curvature="0" />
      <path
         d="m 112.02549,309.8382 h -0.91797 v -3.10547 q 0,-0.35157 -0.0342,-0.67871 -0.0293,-0.32715 -0.13183,-0.52246 -0.11231,-0.20997 -0.32227,-0.31739 -0.20996,-0.10742 -0.60547,-0.10742 -0.38574,0 -0.77148,0.19531 -0.38575,0.19043 -0.77149,0.48828 0.0147,0.11231 0.0244,0.26368 0.01,0.14648 0.01,0.29296 v 3.49122 h -0.91797 v -3.10547 q 0,-0.36133 -0.0342,-0.6836 -0.0293,-0.32715 -0.13183,-0.52246 -0.11231,-0.20996 -0.32227,-0.3125 -0.20996,-0.10742 -0.60547,-0.10742 -0.37597,0 -0.75683,0.18555 -0.37598,0.18554 -0.75196,0.47363 v 4.07227 h -0.91796 v -5.45411 h 0.91796 v 0.60547 q 0.42969,-0.35644 0.8545,-0.55664 0.42968,-0.20019 0.91308,-0.20019 0.55664,0 0.94239,0.23437 0.39062,0.23438 0.58105,0.64942 0.55664,-0.46875 1.01562,-0.67383 0.45899,-0.20996 0.98145,-0.20996 0.89844,0 1.32324,0.54687 0.42969,0.54199 0.42969,1.51856 z"
         style="font-style:normal;font-size:medium;text-anchor:middle;fill:none;fill-opacity:1;stroke:#000000;stroke-width:0.25;stroke-linecap:butt;stroke-linejoin:bevel;stroke-dasharray:none;stroke-opacity:1"
         id="path986"
         inkscape:connector-curvature="0" />
    </g>
  </g>
</svg>
