<?xml version="1.0" encoding="UTF-8" standalone="no"?>
<svg
   xmlns:dc="http://purl.org/dc/elements/1.1/"
   xmlns:cc="http://creativecommons.org/ns#"
   xmlns:rdf="http://www.w3.org/1999/02/22-rdf-syntax-ns#"
   xmlns:svg="http://www.w3.org/2000/svg"
   xmlns="http://www.w3.org/2000/svg"
   xmlns:sodipodi="http://sodipodi.sourceforge.net/DTD/sodipodi-0.dtd"
   xmlns:inkscape="http://www.inkscape.org/namespaces/inkscape"
   version="1.1"
   width="300.00mm"
   height="600.00mm"
   viewBox="0 0 300.00 600.00"
   id="svg14195"
   sodipodi:docname="bottom_page7.svg"
   inkscape:version="0.92.3 (2405546, 2018-03-11)">
  <metadata
     id="metadata14201">
    <rdf:RDF>
      <cc:Work
         rdf:about="">
        <dc:format>image/svg+xml</dc:format>
        <dc:type
           rdf:resource="http://purl.org/dc/dcmitype/StillImage" />
      </cc:Work>
    </rdf:RDF>
  </metadata>
  <defs
     id="defs14199" />
  <sodipodi:namedview
     pagecolor="#ffffff"
     bordercolor="#666666"
     borderopacity="1"
     objecttolerance="10"
     gridtolerance="10"
     guidetolerance="10"
     inkscape:pageopacity="0"
     inkscape:pageshadow="2"
     inkscape:window-width="1853"
     inkscape:window-height="1025"
     id="namedview14197"
     showgrid="false"
     inkscape:zoom="0.29435284"
     inkscape:cx="573.34794"
     inkscape:cy="1050.6204"
     inkscape:window-x="67"
     inkscape:window-y="27"
     inkscape:window-maximized="1"
     inkscape:current-layer="svg14195" />
  <style
     type="text/css"
     id="style13937">
    path {
        fill: none;
        stroke-linecap: butt;
        stroke-linejoin: bevel;
        stroke-dasharray: none;
    }
    path.outer {
        stroke: #000000;
        stroke-dasharray: none;
        stroke-dashoffset: 0;
        stroke-width: 0.3;
        stroke-opacity: 1.0;
    }
    path.convex {
        stroke: #000000;
        stroke-dasharray: 0.50,1.00;
        stroke-dashoffset:0;
        stroke-width:0.2;
        stroke-opacity: 1.0
    }
    path.concave {
        stroke: #000000;
        stroke-dasharray: 1.00,0.50,0.20,0.50;
        stroke-dashoffset: 0;
        stroke-width: 0.2;
        stroke-opacity: 1.0
    }
    path.freestyle {
        stroke: #000000;
        stroke-dasharray: none;
        stroke-dashoffset: 0;
        stroke-width: 0.2;
        stroke-opacity: 1.0
    }
    path.outer_background {
        stroke: #ffffff;
        stroke-opacity: 1.0;
        stroke-width: 0.5
    }
    path.inner_background {
        stroke: #ffffff;
        stroke-opacity: 1.0;
        stroke-width: 0.2
    }
    path.sticker {
        fill: #e5e5e5;
        stroke: none;
        fill-opacity: 1.0;
    }
    path.arrow {
        fill: #000000;
    }
    text {
        font-style: normal;
        fill: #000000;
        fill-opacity: 1.0;
        stroke: none;
    }
    text, tspan {
        text-anchor:middle;
    }
    </style>
  <text
     style="font-style:normal;font-size:10px;text-anchor:middle;fill:#000000;fill-opacity:1;stroke:none"
     id="text13941"
     x="150.13538"
     y="230.77209">
    <tspan
       id="tspan13939"
       style="text-anchor:middle">[1] I 1</tspan>
  </text>
  <path
     class="sticker"
     d="m 259.79628,587.38187 -0.15708,9.99999 h -75.07122 l -0.15709,-9.99999 z m -74.60171,-138.34974 0.15711,-10.00002 74.28752,1e-5 0.15708,10.00001 z m 96.4807,27.84756 9.99999,0.15708 v 24.05948 l -9.99999,0.15709 z m -261.066079,0.009 -10.00002,-0.15637 -0.0019,-27.53338 9.99999,-0.1578 z m -0.0037,-52.34545 -10.00002,-0.15637 -0.0023,-32.22847 9.99999,-0.15781 z m 140.204459,162.83837 -0.073,4.64421 h -9.14252 l -0.0729,-4.64421 z m -9.28843,0 -9.98916,-0.49129 0.77321,-23.11799 9.99966,0.17726 z m 130.15374,-23.43202 7.20191,6.93953 -21.66456,23.20236 -7.41634,-6.70987 z m 0,-62.69651 9.99999,0.15708 v 62.38234 l -9.99999,0.15709 z m -261.064077,3.94389 -10.00002,-0.15638 -0.002,-27.99409 9.99999,-0.15781 z m 239.185087,-56.1651 7.96041,-6.05448 21.68489,27.60051 -7.7663,6.30153 z m -75.38539,138.34974 -0.1571,9.99999 h -23.28675 l -0.15708,-9.99999 z m -22.81727,-195.39027 10.00001,0.15709 -2e-5,32.22845 -10,0.15709 z m -140.986391,57.0498 -10.00002,-0.15638 -0.0017,-24.18372 9.999991,-0.1578 z m 140.986381,-24.50717 7.31066,-6.82487 23.38299,24.27161 -7.09269,7.05116 z m -9.28837,139.41562 -4.2177,9.0684 -131.407124,-58.62462 3.930777,-9.1964 z m 32.10568,-367.34849 0.15709,-10.00002 75.07122,3e-5 0.15709,9.99999 z m 75.38539,138.34974 -0.15711,10.00002 -74.28752,-3e-5 -0.15709,-9.99999 z m 21.87899,-52.22118 9.99999,0.15712 v 24.05942 l -9.99999,0.15711 z m -261.076147,52.23042 -10.00002,-0.1564 -0.0019,-27.53335 9.999991,-0.15781 z m 0.004,57.04051 -10.00002,-0.15637 -0.0023,-32.22844 9.99999,-0.1578 z m 130.918417,-195.3992 0.0729,-4.64422 9.14252,-3e-5 0.073,4.64422 z m 0.78374,23.43202 -9.99966,0.17726 -0.77324,-23.11799 9.98916,-0.49129 z m 107.49101,-23.43205 7.41634,-6.70987 21.66459,23.20239 -7.20194,6.93953 z m 21.87899,23.43205 9.99999,0.15708 v 62.38235 l -9.99999,0.15708 z m -261.078119,87.07937 -10.00002,-0.15637 -0.002,-27.9941 9.99999,-0.1578 z m 261.078119,-0.009 7.76628,6.30153 -21.68489,27.60049 -7.96038,-6.05449 z m -120.86531,-110.50221 0.15708,-10.00002 h 23.28676 l 0.15709,10.00002 z m 0.78363,162.84762 10.00001,0.15709 v 32.22844 l -10.00001,0.15709 z m -140.992744,0.009 -10.00002,-0.15638 -0.0017,-24.18372 9.999991,-0.1578 z m 164.593714,-24.50714 7.09268,7.05111 -23.38297,24.27164 -7.31068,-6.82487 z M 20.595154,278.80451 16.663721,269.60838 148.08696,210.9653 l 4.21834,9.06811 z"
     id="path13943"
     inkscape:connector-curvature="0"
     style="fill:#e5e5e5;fill-opacity:1;stroke:none;stroke-linecap:butt;stroke-linejoin:bevel;stroke-dasharray:none" />
  <path
     class="outer"
     d="m 259.6392,597.38186 h -75.07122 l -0.15709,-9.99999 -0.1571,9.99999 h -23.28675 l -0.15708,-9.99999 -0.073,4.64421 h -9.14252 l -0.0729,-4.64421 -9.98916,-0.49129 0.77321,-23.11799 9.99966,0.17726 -4.2177,9.0684 -131.407129,-58.62462 3.930777,-9.1964 -10.00002,-0.15638 -0.002,-27.99409 9.99999,-0.15781 -10.00002,-0.15637 -0.0019,-27.53338 9.99999,-0.1578 -10.00002,-0.15638 -0.0017,-24.18372 9.999991,-0.1578 -10.00002,-0.15637 -0.0023,-32.22847 9.99999,-0.15781 -10.00002,-0.15637 -0.0023,-32.22844 9.99999,-0.1578 -10.00002,-0.15638 -0.0017,-24.18372 9.999991,-0.1578 -10.00002,-0.1564 -0.0019,-27.53335 9.999991,-0.15781 -10.00002,-0.15637 -0.002,-27.9941 9.99999,-0.1578 -3.931433,-9.19613 131.423242,-58.64308 4.21834,9.06811 -9.99966,0.17726 -0.77324,-23.11799 9.98916,-0.49129 0.0729,-4.64422 9.14252,-3e-5 0.073,4.64422 0.15708,-10.00002 h 23.28676 l 0.15709,10.00002 0.15709,-10.00002 75.07122,3e-5 0.15708,9.99999 7.41634,-6.70987 21.66459,23.20239 -7.20194,6.93953 9.99999,0.15708 v 62.38235 l -9.99999,0.15708 9.99999,0.15712 v 24.05942 l -9.99999,0.15711 7.76628,6.30153 -21.68489,27.60049 -7.96038,-6.05449 -0.15711,10.00002 -74.28752,-3e-5 -0.15709,-9.99999 7.09268,7.05111 -23.38297,24.27164 -7.31068,-6.82487 10.00001,0.15709 v 32.22844 l -10.00001,0.15709 10.00001,0.15709 -2e-5,32.22845 -10,0.15709 7.31066,-6.82487 23.38299,24.27161 -7.09269,7.05116 0.15711,-10.00002 74.28752,1e-5 0.15708,10.00001 7.96041,-6.05448 21.68489,27.60051 -7.76631,6.30153 9.99999,0.15708 v 24.05948 l -9.99999,0.15709 9.99999,0.15708 v 62.38234 l -9.99999,0.15709 7.20191,6.93953 -21.66456,23.20236 -7.41634,-6.70987 z"
     id="path13945"
     inkscape:connector-curvature="0"
     style="fill:none;stroke:#000000;stroke-width:0.30000001;stroke-linecap:butt;stroke-linejoin:bevel;stroke-dasharray:none;stroke-dashoffset:0;stroke-opacity:1" />
  <text
     transform="scale(-1)"
     style="font-style:normal;font-size:9px;text-anchor:middle;fill:#000000;fill-opacity:1;stroke:none"
     id="text13949"
     x="-222.10358"
     y="-589.18188">
    <tspan
       id="tspan13947"
       style="text-anchor:middle">8:2</tspan>
  </text>
  <text
     style="font-style:normal;font-size:9px;text-anchor:middle;fill:#000000;fill-opacity:1;stroke:none"
     id="text13953"
     x="222.49544"
     y="447.23212">
    <tspan
       id="tspan13951"
       style="text-anchor:middle">17:1</tspan>
  </text>
  <text
     transform="scale(-1)"
     style="font-style:normal;font-size:4.17999983px;text-anchor:middle;fill:#000000;fill-opacity:1;stroke:none"
     id="text13957"
     x="-156.16574"
     y="-588.21783">
    <tspan
       id="tspan13955"
       style="text-anchor:middle">8:3</tspan>
  </text>
  <text
     transform="rotate(-88.08436)"
     style="font-style:normal;font-size:9px;text-anchor:middle;fill:#000000;fill-opacity:1;stroke:none"
     id="text13961"
     x="-570.26605"
     y="169.27182">
    <tspan
       id="tspan13959"
       style="text-anchor:middle">15:2</tspan>
  </text>
  <text
     transform="rotate(133.03694)"
     style="font-style:normal;font-size:9px;text-anchor:middle;fill:#000000;fill-opacity:1;stroke:none"
     id="text13965"
     x="235.99316"
     y="-592.55896">
    <tspan
       id="tspan13963"
       style="text-anchor:middle">11:2</tspan>
  </text>
  <g
     id="g13973"
     transform="translate(3.5954582,14.381833)">
    <path
       transform="matrix(-7.04e-4,-10,10,-7.04e-4,17.014747,476.66126)"
       class="arrow"
       d="M 0,0 1,1 0,0.25 -1,1 Z"
       id="path13967"
       inkscape:connector-curvature="0"
       style="fill:#000000;stroke-linecap:butt;stroke-linejoin:bevel;stroke-dasharray:none" />
    <text
       transform="translate(26.014746,480.66063)"
       style="font-style:normal;font-size:10px;text-anchor:middle;fill:#000000;fill-opacity:1;stroke:none"
       id="text13971">
      <tspan
         id="tspan13969"
         style="text-anchor:middle">1</tspan>
    </text>
  </g>
  <text
     transform="rotate(-90.004011)"
     style="font-style:normal;font-size:9px;text-anchor:middle;fill:#000000;fill-opacity:1;stroke:none"
     id="text13977"
     x="-491.04453"
     y="18.775829">
    <tspan
       id="tspan13975"
       style="text-anchor:middle">6.:1</tspan>
  </text>
  <text
     transform="rotate(51.844334)"
     style="font-style:normal;font-size:9px;text-anchor:middle;fill:#000000;fill-opacity:1;stroke:none"
     id="text13981"
     x="531.29919"
     y="71.32505">
    <tspan
       id="tspan13979"
       style="text-anchor:middle">11:4</tspan>
  </text>
  <text
     transform="rotate(46.068301)"
     style="font-style:normal;font-size:9px;text-anchor:middle;fill:#000000;fill-opacity:1;stroke:none"
     id="text13985"
     x="434.85788"
     y="176.36755">
    <tspan
       id="tspan13983"
       style="text-anchor:middle">16:3</tspan>
  </text>
  <g
     id="g13993"
     transform="translate(3.5954582,14.381833)">
    <path
       transform="matrix(-9.132394,-4.074231,4.074231,-9.132394,82.862754,520.19169)"
       class="arrow"
       d="M 0,0 1,1 0,0.25 -1,1 Z"
       id="path13987"
       inkscape:connector-curvature="0"
       style="fill:#000000;stroke-linecap:butt;stroke-linejoin:bevel;stroke-dasharray:none" />
    <text
       transform="translate(86.529565,515.97254)"
       style="font-style:normal;font-size:10px;text-anchor:middle;fill:#000000;fill-opacity:1;stroke:none"
       id="text13991">
      <tspan
         id="tspan13989"
         style="text-anchor:middle">2</tspan>
    </text>
  </g>
  <text
     transform="rotate(-155.95693)"
     style="font-style:normal;font-size:9px;text-anchor:middle;fill:#000000;fill-opacity:1;stroke:none"
     id="text13997"
     x="-296.75473"
     y="-454.76855">
    <tspan
       id="tspan13995"
       style="text-anchor:middle">15:2</tspan>
  </text>
  <text
     style="font-style:normal;font-size:9px;text-anchor:middle;fill:#000000;fill-opacity:1;stroke:none"
     id="text14001"
     x="222.10362"
     y="194.80136">
    <tspan
       id="tspan13999"
       style="text-anchor:middle">7:2</tspan>
  </text>
  <text
     transform="scale(-1)"
     style="font-style:normal;font-size:9px;text-anchor:middle;fill:#000000;fill-opacity:1;stroke:none"
     id="text14005"
     x="-222.49544"
     y="-336.75113">
    <tspan
       id="tspan14003"
       style="text-anchor:middle">18:1</tspan>
  </text>
  <text
     transform="rotate(-91.915698)"
     style="font-style:normal;font-size:9px;text-anchor:middle;fill:#000000;fill-opacity:1;stroke:none"
     id="text14013"
     x="-213.2793"
     y="143.06468">
    <tspan
       id="tspan14011"
       style="text-anchor:middle">14:2</tspan>
  </text>
  <text
     transform="rotate(46.963097)"
     style="font-style:normal;font-size:9px;text-anchor:middle;fill:#000000;fill-opacity:1;stroke:none"
     id="text14017"
     x="337.03107"
     y="-57.514606">
    <tspan
       id="tspan14015"
       style="text-anchor:middle">10:2</tspan>
  </text>
  <g
     id="g14025"
     transform="translate(3.5954582,14.381833)">
    <path
       transform="matrix(-7.15e-4,-9.999999,9.999999,-7.15e-4,17.00071,278.57682)"
       class="arrow"
       d="M 0,0 1,1 0,0.25 -1,1 Z"
       id="path14019"
       inkscape:connector-curvature="0"
       style="fill:#000000;stroke-linecap:butt;stroke-linejoin:bevel;stroke-dasharray:none" />
    <text
       transform="translate(26.000709,282.57617)"
       style="font-style:normal;font-size:10px;text-anchor:middle;fill:#000000;fill-opacity:1;stroke:none"
       id="text14023">
      <tspan
         id="tspan14021"
         style="text-anchor:middle">3</tspan>
    </text>
  </g>
  <text
     transform="rotate(-90.004125)"
     style="font-style:normal;font-size:9px;text-anchor:middle;fill:#000000;fill-opacity:1;stroke:none"
     id="text14029"
     x="-292.96011"
     y="18.77507">
    <tspan
       id="tspan14027"
       style="text-anchor:middle">6.:3</tspan>
  </text>
  <text
     transform="rotate(128.15567)"
     style="font-style:normal;font-size:9px;text-anchor:middle;fill:#000000;fill-opacity:1;stroke:none"
     id="text14033"
     x="85.174461"
     y="-413.01987">
    <tspan
       id="tspan14031"
       style="text-anchor:middle">10:4</tspan>
  </text>
  <text
     transform="rotate(133.9317)"
     style="font-style:normal;font-size:9px;text-anchor:middle;fill:#000000;fill-opacity:1;stroke:none"
     id="text14037"
     x="129.74123"
     y="-367.5603">
    <tspan
       id="tspan14035"
       style="text-anchor:middle">16:6.</tspan>
  </text>
  <g
     id="g14045"
     transform="translate(3.5954582,14.381833)">
    <path
       transform="matrix(9.132103,-4.074886,4.074886,9.132103,82.854767,235.03711)"
       class="arrow"
       d="M 0,0 1,1 0,0.25 -1,1 Z"
       id="path14039"
       inkscape:connector-curvature="0"
       style="fill:#000000;stroke-linecap:butt;stroke-linejoin:bevel;stroke-dasharray:none" />
    <text
       transform="translate(86.522167,247.25601)"
       style="font-style:normal;font-size:10px;text-anchor:middle;fill:#000000;fill-opacity:1;stroke:none"
       id="text14043">
      <tspan
         id="tspan14041"
         style="text-anchor:middle">4</tspan>
    </text>
  </g>
  <text
     transform="rotate(-24.047198)"
     style="font-style:normal;font-size:9px;text-anchor:middle;fill:#000000;fill-opacity:1;stroke:none"
     id="text14049"
     x="-22.688334"
     y="261.19943">
    <tspan
       id="tspan14047"
       style="text-anchor:middle">14:4</tspan>
  </text>
  <g
     id="g17846"
     transform="rotate(-89.758536,98.172543,360.40506)">
    <text
       y="367.7131"
       x="351.173"
       style="font-style:normal;font-size:10px;text-anchor:middle;fill:#000000;fill-opacity:1;stroke:none"
       id="text17683">
      <tspan
         id="tspan17681"
         style="text-anchor:middle">[6.] I 6</tspan>
    </text>
    <path
       inkscape:connector-curvature="0"
       class="sticker"
       d="m 437.5967,526.85576 -0.15711,10.00001 h -40.12245 l -0.15708,-10.00001 z m 0,-56.15583 10,0.15709 -10e-6,27.5334 -9.99999,0.15709 z m 0,-57.04049 10,0.15708 v 32.22844 l -10,0.15709 z m 0,84.88807 9.99999,0.15708 v 27.99409 l -9.99999,0.15708 z m 0,-52.34546 10,0.15709 v 24.1837 l -10,0.15709 z m -149.96604,-10e-6 -10,-0.15709 v -32.22846 l 10,-0.15708 z m 0,52.34544 -10,-0.15709 v -27.53338 l 10,-0.15709 z m 0,-27.84756 -10,-0.15709 v -24.18371 l 10,-0.15708 z m 0,56.15583 -10,-0.15709 v -27.99409 l 10,-0.15709 z m 109.52941,-226.39267 0.15709,-10.00001 h 40.12246 l 0.15709,10.00002 z m 40.43664,28.30827 9.99999,0.15709 v 27.53338 l -9.99999,0.15709 z m 0,52.34545 9.99999,0.15711 v 32.22842 l -10,0.15711 z m 0,-80.65371 10.00001,0.15709 -2e-5,27.99408 -9.99999,0.15709 z m 0,56.15582 9.99999,0.1571 v 24.18369 l -9.99999,0.1571 z m -149.96605,57.0405 -10,-0.15709 1e-5,-32.22844 10.00001,-0.15711 z m 2e-5,-57.04052 -10.00001,-0.15709 v -27.53338 l 10.00001,-0.15709 z m 0,24.49788 -10.00001,-0.1571 v -24.18369 l 10.00001,-0.15709 z m 0,-52.34544 -10.00001,-0.1571 v -27.99408 l 10.00001,-0.15709 z m 109.52938,198.08443 -0.15711,10.00001 -109.2152,-2e-5 -0.15709,-10 z m -109.52938,-226.3927 0.15709,-9.99999 h 109.21521 l 0.15709,10.00001 z"
       id="path17685"
       style="fill:#e5e5e5;fill-opacity:1;stroke:none;stroke-linecap:butt;stroke-linejoin:bevel;stroke-dasharray:none" />
    <path
       inkscape:connector-curvature="0"
       class="outer"
       d="m 287.78777,290.46307 h 109.21521 l 0.15709,10.00001 0.15709,-10.00001 h 40.12246 l 0.15709,10.00002 10.00001,0.15709 -2e-5,27.99408 -9.99999,0.15709 9.99999,0.15709 v 27.53338 l -9.99999,0.15709 9.99999,0.1571 v 24.18369 l -9.99999,0.1571 9.99999,0.15711 v 32.22842 l -10,0.15711 10,0.15708 v 32.22844 l -10,0.15709 10,0.15709 v 24.1837 l -10,0.15709 10,0.15709 -10e-6,27.5334 -9.99999,0.15709 9.99999,0.15708 v 27.99409 l -9.99999,0.15708 -0.15711,10.00001 h -40.12245 l -0.15708,-10.00001 -0.15711,10.00001 -109.2152,-2e-5 -0.15709,-10 -10,-0.15709 v -27.99409 l 10,-0.15709 -10,-0.15709 v -27.53338 l 10,-0.15709 -10,-0.15709 v -24.18371 l 10,-0.15708 -10,-0.15709 v -32.22846 l 10,-0.15708 -10,-0.15709 1e-5,-32.22844 10.00001,-0.15711 -10.00001,-0.1571 v -24.18369 l 10.00001,-0.15709 -10.00001,-0.15709 v -27.53338 l 10.00001,-0.15709 -10.00001,-0.1571 v -27.99408 l 10.00001,-0.15709 z"
       id="path17687"
       style="fill:none;stroke:#000000;stroke-width:0.30000001;stroke-linecap:butt;stroke-linejoin:bevel;stroke-dasharray:none;stroke-dashoffset:0;stroke-opacity:1" />
    <text
       y="-528.65576"
       x="-417.37836"
       transform="scale(-1)"
       style="font-style:normal;font-size:9px;text-anchor:middle;fill:#000000;fill-opacity:1;stroke:none"
       id="text17691">
      <tspan
         id="tspan17689"
         style="text-anchor:middle">15:1</tspan>
    </text>
    <text
       y="-439.3967"
       x="512.70166"
       transform="rotate(90)"
       style="font-style:normal;font-size:9px;text-anchor:middle;fill:#000000;fill-opacity:1;stroke:none"
       id="text17695">
      <tspan
         id="tspan17693"
         style="text-anchor:middle">1:1</tspan>
    </text>
    <text
       y="285.83066"
       x="-512.7016"
       transform="rotate(-90)"
       style="font-style:normal;font-size:9px;text-anchor:middle;fill:#000000;fill-opacity:1;stroke:none"
       id="text17699">
      <tspan
         id="tspan17697"
         style="text-anchor:middle">5:2</tspan>
    </text>
    <text
       y="298.66309"
       x="417.37839"
       style="font-style:normal;font-size:9px;text-anchor:middle;fill:#000000;fill-opacity:1;stroke:none"
       id="text17703">
      <tspan
         id="tspan17701"
         style="text-anchor:middle">14:1</tspan>
    </text>
    <text
       y="-439.3967"
       x="314.61722"
       transform="rotate(90)"
       style="font-style:normal;font-size:9px;text-anchor:middle;fill:#000000;fill-opacity:1;stroke:none"
       id="text17707">
      <tspan
         id="tspan17705"
         style="text-anchor:middle">1:3</tspan>
    </text>
    <text
       y="285.83069"
       x="-314.61719"
       transform="rotate(-90)"
       style="font-style:normal;font-size:9px;text-anchor:middle;fill:#000000;fill-opacity:1;stroke:none"
       id="text17711">
      <tspan
         id="tspan17709"
         style="text-anchor:middle">5:5</tspan>
    </text>
    <text
       y="-528.65576"
       x="-342.39536"
       transform="scale(-1)"
       style="font-style:normal;font-size:9px;text-anchor:middle;fill:#000000;fill-opacity:1;stroke:none"
       id="text17715">
      <tspan
         id="tspan17713"
         style="text-anchor:middle">15:3</tspan>
    </text>
    <text
       y="298.66306"
       x="342.39539"
       style="font-style:normal;font-size:9px;text-anchor:middle;fill:#000000;fill-opacity:1;stroke:none"
       id="text17719">
      <tspan
         id="tspan17717"
         style="text-anchor:middle">14:3</tspan>
    </text>
  </g>
</svg>
