<?xml version="1.0" encoding="UTF-8" standalone="no"?>
<svg
   version="1.1"
   width="300.00mm"
   height="600.00mm"
   viewBox="0 0 300.00 600.00"
   id="svg932"
   sodipodi:docname="bottom_page3b_6in.svg"
   inkscape:version="1.1.1 (c3084ef, 2021-09-22)"
   xmlns:inkscape="http://www.inkscape.org/namespaces/inkscape"
   xmlns:sodipodi="http://sodipodi.sourceforge.net/DTD/sodipodi-0.dtd"
   xmlns="http://www.w3.org/2000/svg"
   xmlns:svg="http://www.w3.org/2000/svg">
  <defs
     id="defs936" />
  <sodipodi:namedview
     id="namedview934"
     pagecolor="#ffffff"
     bordercolor="#666666"
     borderopacity="1.0"
     inkscape:pageshadow="2"
     inkscape:pageopacity="0.0"
     inkscape:pagecheckerboard="0"
     inkscape:document-units="mm"
     showgrid="false"
     inkscape:zoom="0.27268866"
     inkscape:cx="394.22248"
     inkscape:cy="1479.7095"
     inkscape:window-width="1296"
     inkscape:window-height="975"
     inkscape:window-x="0"
     inkscape:window-y="25"
     inkscape:window-maximized="0"
     inkscape:current-layer="svg932" />
  <style
     type="text/css"
     id="style824">
    path {
        fill: none;
        stroke-linecap: butt;
        stroke-linejoin: bevel;
        stroke-dasharray: none;
    }
    path.outer {
        stroke: #000000;
        stroke-dasharray: none;
        stroke-dashoffset: 0;
        stroke-width: 0.3;
        stroke-opacity: 1.0;
    }
    path.convex {
        stroke: #000000;
        stroke-dasharray: 0.50,1.00;
        stroke-dashoffset:0;
        stroke-width:0.2;
        stroke-opacity: 1.0
    }
    path.concave {
        stroke: #000000;
        stroke-dasharray: 1.00,0.50,0.20,0.50;
        stroke-dashoffset: 0;
        stroke-width: 0.2;
        stroke-opacity: 1.0
    }
    path.freestyle {
        stroke: #000000;
        stroke-dasharray: none;
        stroke-dashoffset: 0;
        stroke-width: 0.2;
        stroke-opacity: 1.0
    }
    path.outer_background {
        stroke: #ffffff;
        stroke-opacity: 1.0;
        stroke-width: 0.5
    }
    path.inner_background {
        stroke: #ffffff;
        stroke-opacity: 1.0;
        stroke-width: 0.2
    }
    path.sticker {
        fill: #e5e5e5;
        stroke: none;
        fill-opacity: 1.0;
    }
    path.arrow {
        fill: #000000;
    }
    text {
        font-style: normal;
        fill: #000000;
        fill-opacity: 1.0;
        stroke: none;
    }
    text, tspan {
        text-anchor:middle;
    }
    </style>
  <g
     id="g2304"
     transform="translate(153.11367,-3.7276726)">
    <text
       style="font-size:10px"
       id="text1645"
       x="72.000046"
       y="391.33109"><tspan
         id="tspan1643">[6.] I 6</tspan></text>
    <path
       class="sticker"
       d="m 126.99996,288.67742 10.00001,0.15709 3e-5,74.28749 -10.00001,0.1571 z m -109.999951,74.60171 -9.999998,-0.15709 -7e-6,-74.28747 9.999998,-0.15712 z m -7e-6,-74.60168 0.07856,-5 9.84291,3e-5 0.07853,5 z m 9.999998,3e-5 0.139065,-8.8526 h 17.427064 l 0.139065,8.8526 z m 100.00002,108.61857 9.99999,0.15707 3e-5,32.22847 -10,0.15709 z m -109.999966,32.54268 -9.999998,-0.15709 -7e-6,-32.22844 9.999998,-0.1571 z m -7e-6,-32.54263 -9.999998,-0.15709 -3.8e-5,-33.70279 9.999998,-0.15709 z M 126.99999,363.2791 137,363.43619 l 1e-5,33.70276 -9.99999,0.1571 z m -82.294796,-74.60162 0.157081,-9.99999 81.980585,-6e-5 0.1571,9.99999 z m 82.294876,207.72077 10,0.15709 2e-5,74.28752 -9.99999,0.15709 z m -109.999949,74.60172 -9.999998,-0.15705 -4.5e-5,-74.28754 9.999998,-0.15708 z m 9.999998,-2e-5 -0.07853,4.99999 -9.84291,3e-5 -0.07856,-5 z m 17.705202,0 -0.139065,8.8526 H 27.139184 l -0.139065,-8.8526 z m 82.294719,-141.16127 10,0.15709 2e-5,32.22846 -10.00001,0.15708 z m -109.999971,32.54266 -9.999998,-0.15708 -1.5e-5,-32.22845 9.999998,-0.15708 z m 7e-6,34.01696 -9.999998,-0.15709 -7e-6,-33.70278 9.999998,-0.15709 z m 109.999974,-34.01699 10.00001,0.15709 1e-5,33.70276 -10,0.15709 z m 5e-5,108.61864 -0.1571,9.99999 H 44.862409 l -0.157088,-9.99999 z"
       id="path1647" />
    <path
       class="outer"
       d="m 137.00001,397.45312 3e-5,32.22847 -10,0.15709 10,0.15709 2e-5,32.22846 -10.00001,0.15708 10.00001,0.15709 1e-5,33.70276 -10,0.15709 10,0.15709 2e-5,74.28752 -9.99999,0.15709 -0.1571,9.99999 H 44.862409 l -0.157088,-9.99999 -0.139065,8.8526 H 27.139184 l -0.139065,-8.8526 -0.07853,4.99999 -9.84291,3e-5 -0.07856,-5 -9.999998,-0.15705 -4.5e-5,-74.28754 9.999998,-0.15708 -9.999998,-0.15709 -7e-6,-33.70278 9.999998,-0.15709 -9.999998,-0.15708 -1.5e-5,-32.22845 9.999998,-0.15708 -9.999998,-0.15709 -7e-6,-32.22844 9.999998,-0.1571 -9.999998,-0.15709 -3.8e-5,-33.70279 9.999998,-0.15709 -9.999998,-0.15709 -7e-6,-74.28747 L 17,288.67745 l 0.07856,-5 9.84291,3e-5 0.07853,5 0.139065,-8.8526 h 17.427064 l 0.139065,8.8526 0.157081,-9.99999 81.980585,-6e-5 0.1571,9.99999 10.00001,0.15709 3e-5,74.28749 -10.00001,0.1571 10.00001,0.15709 1e-5,33.70276 -9.99999,0.1571 z"
       id="path1649" />
    <g
       id="g1657">
      <path
         transform="matrix(4e-6,10,-10,4e-6,126.99998,325.97827)"
         class="arrow"
         d="M 0,0 1,1 0,0.25 -1,1 Z"
         id="path1651" />
      <text
         transform="translate(117.99998,329.97828)"
         style="font-size:10px"
         id="text1655"><tspan
           id="tspan1653">1</tspan></text>
    </g>
    <text
       transform="rotate(90)"
       style="font-size:9px"
       id="text1661"
       x="325.97827"
       y="-128.79999"><tspan
         id="tspan1659">1:1</tspan></text>
    <g
       id="g1669">
      <path
         transform="matrix(-1e-6,-10,10,-1e-6,17.000002,325.9783)"
         class="arrow"
         d="M 0,0 1,1 0,0.25 -1,1 Z"
         id="path1663" />
      <text
         transform="translate(26.000001,329.97831)"
         style="font-size:10px"
         id="text1667"><tspan
           id="tspan1665">2</tspan></text>
    </g>
    <text
       transform="rotate(-90)"
       style="font-size:9px"
       id="text1673"
       x="-325.9783"
       y="15.2"><tspan
         id="tspan1671">3:2</tspan></text>
    <g
       id="g1681">
      <path
         transform="matrix(10,2.6e-5,-2.6e-5,10,21.999997,288.67748)"
         class="arrow"
         d="M 0,0 1,1 0,0.25 -1,1 Z"
         id="path1675" />
      <text
         transform="translate(21.999973,301.67749)"
         style="font-size:10px"
         id="text1679"><tspan
           id="tspan1677">3</tspan></text>
    </g>
    <g
       id="g1693">
      <path
         transform="matrix(-4e-6,-10,10,-4e-6,17.000054,413.56742)"
         class="arrow"
         d="M 0,0 1,1 0,0.25 -1,1 Z"
         id="path1687" />
      <text
         transform="translate(26.000054,417.56741)"
         style="font-size:10px"
         id="text1691"><tspan
           id="tspan1689">4</tspan></text>
    </g>
    <text
       transform="rotate(-90)"
       style="font-size:9px"
       id="text1697"
       x="-413.56741"
       y="15.20006"><tspan
         id="tspan1695">3:4</tspan></text>
    <g
       id="g1705">
      <path
         transform="matrix(10,-8e-6,8e-6,10,85.852583,288.67745)"
         class="arrow"
         d="M 0,0 1,1 0,0.25 -1,1 Z"
         id="path1699" />
      <text
         transform="translate(85.85259,301.67746)"
         style="font-size:10px"
         id="text1703"><tspan
           id="tspan1701">5</tspan></text>
    </g>
    <text
       style="font-size:9px"
       id="text1709"
       x="85.852585"
       y="286.87744"><tspan
         id="tspan1707">10:5</tspan></text>
    <g
       id="g1717">
      <path
         transform="matrix(4e-6,10,-10,4e-6,127.00008,533.69909)"
         class="arrow"
         d="M 0,0 1,1 0,0.25 -1,1 Z"
         id="path1711" />
      <text
         transform="translate(118.00008,537.6991)"
         style="font-size:10px"
         id="text1715"><tspan
           id="tspan1713">6.</tspan></text>
    </g>
    <text
       transform="rotate(90)"
       style="font-size:9px"
       id="text1721"
       x="533.6991"
       y="-128.80009"><tspan
         id="tspan1719">1:6.</tspan></text>
    <g
       id="g1729">
      <path
         transform="matrix(-6e-6,-10,10,-6e-6,17.000099,533.69913)"
         class="arrow"
         d="M 0,0 1,1 0,0.25 -1,1 Z"
         id="path1723" />
      <text
         transform="translate(26.000098,537.69913)"
         style="font-size:10px"
         id="text1727"><tspan
           id="tspan1725">7</tspan></text>
    </g>
    <text
       transform="rotate(-90)"
       style="font-size:9px"
       id="text1733"
       x="-533.69885"
       y="15.19982"><tspan
         id="tspan1731">2:7</tspan></text>
    <g
       id="g1741">
      <path
         transform="matrix(-10,3.4e-5,-3.4e-5,-10,22.000124,570.99997)"
         class="arrow"
         d="M 0,0 1,1 0,0.25 -1,1 Z"
         id="path1735" />
      <text
         transform="translate(22.000094,565.99998)"
         style="font-size:10px"
         id="text1739"><tspan
           id="tspan1737">8</tspan></text>
    </g>
    <text
       transform="rotate(179.99983)"
       style="font-size:4.5px"
       id="text1745"
       x="-21.998417"
       y="-571.90002"><tspan
         id="tspan1743">11:8</tspan></text>
    <g
       id="g1753">
      <path
         transform="matrix(-4e-6,-10,10,-4e-6,17.000061,446.11003)"
         class="arrow"
         d="M 0,0 1,1 0,0.25 -1,1 Z"
         id="path1747" />
      <text
         transform="translate(26.000061,450.11003)"
         style="font-size:10px"
         id="text1751"><tspan
           id="tspan1749">9.</tspan></text>
    </g>
    <text
       transform="rotate(-90)"
       style="font-size:9px"
       id="text1757"
       x="-446.11005"
       y="15.20006"><tspan
         id="tspan1755">2:9.</tspan></text>
    <g
       id="g1765">
      <path
         transform="matrix(-10,0,0,-10,85.85271,570.99997)"
         class="arrow"
         d="M 0,0 1,1 0,0.25 -1,1 Z"
         id="path1759" />
      <text
         transform="translate(85.85271,565.99998)"
         style="font-size:10px"
         id="text1763"><tspan
           id="tspan1761">10</tspan></text>
    </g>
    <text
       transform="scale(-1)"
       style="font-size:9px"
       id="text1769"
       x="-85.852707"
       y="-572.79999"><tspan
         id="tspan1767">11:10</tspan></text>
  </g>
  <g
     id="g2276"
     transform="translate(-165.31781,16.308235)">
    <text
       style="font-size:10px"
       id="text1628"
       x="397.17816"
       y="194.14859"><tspan
         id="tspan1626">[11] I 11</tspan></text>
    <path
       class="sticker"
       d="m 444.63095,193.40673 9.99999,0.15708 5e-5,35.1002 -10.00002,0.15708 z m -109.99999,0 -9.99999,-0.15709 v -24.05945 l 9.99999,-0.15709 z m 110.00001,-87.07014 10,0.15706 -3e-5,62.38237 -9.99999,0.15708 z m -109.99999,-6e-5 -10.00001,-0.15706 1e-5,-31.74436 10.00001,-0.157118 z m -2e-5,62.69657 -9.99999,-0.15711 v -62.38234 l 10.00001,-0.15712 z m 109.99999,0 9.99999,0.15712 v 24.05942 l -9.99999,0.15709 z m 5e-5,-94.755048 9.99999,0.157058 -2e-5,31.74436 -10,0.15712 z m -110.00001,-6e-5 0.15709,-9.99999 h 81.9806 l 0.1571,9.99999 z m 109.99998,154.543098 -0.0785,5.00003 -9.84292,3e-5 -0.0786,-5 z m -10.00002,6e-5 -0.13907,8.8526 -17.42707,-6e-5 -0.13906,-8.8526 z m 3e-5,-154.543158 0.0786,-4.999995 h 9.84291 l 0.0786,5.000055 z m -100.00002,154.543098 -9.99999,-0.15711 v -35.10017 l 9.99999,-0.15708 z m 82.29482,-154.543098 0.13906,-8.852601 h 17.42709 l 0.13905,8.852601 z m -3e-5,154.543098 -0.15709,10.00002 -81.98061,-3e-5 -0.15709,-9.99999 z"
       id="path1630" />
    <path
       class="outer"
       d="m 454.63094,193.56381 5e-5,35.1002 -10.00002,0.15708 -0.0785,5.00003 -9.84292,3e-5 -0.0786,-5 -0.13907,8.8526 -17.42707,-6e-5 -0.13906,-8.8526 -0.15709,10.00002 -81.98061,-3e-5 -0.15709,-9.99999 -9.99999,-0.15711 v -35.10017 l 9.99999,-0.15708 -9.99999,-0.15709 v -24.05945 l 9.99999,-0.15709 -9.99999,-0.15711 v -62.38234 l 10.00001,-0.15712 -10.00001,-0.15706 1e-5,-31.74436 10.00001,-0.157118 0.15709,-9.99999 h 81.9806 l 0.1571,9.99999 0.13906,-8.852601 h 17.42709 l 0.13905,8.852601 0.0786,-4.999995 h 9.84291 l 0.0786,5.000055 9.99999,0.157058 -2e-5,31.74436 -10,0.15712 10,0.15706 -3e-5,62.38237 -9.99999,0.15708 9.99999,0.15712 v 24.05942 l -9.99999,0.15709 z"
       id="path1632" />
    <g
       id="g1640"
       transform="translate(183.62089)">
      <path
         transform="matrix(6e-6,10,-10,6e-6,261.01006,211.11392)"
         class="arrow"
         d="M 0,0 1,1 0,0.25 -1,1 Z"
         id="path1634" />
      <text
         transform="translate(252.01007,215.11393)"
         style="font-size:10px"
         id="text1638"><tspan
           id="tspan1636">1</tspan></text>
    </g>
    <text
       transform="rotate(90)"
       style="font-size:9px"
       id="text1644"
       x="211.11415"
       y="-446.43097"><tspan
         id="tspan1642">2:1</tspan></text>
    <g
       id="g1652"
       transform="translate(183.62089)">
      <path
         transform="matrix(3e-6,-10,10,3e-6,151.01009,90.307291)"
         class="arrow"
         d="M 0,0 1,1 0,0.25 -1,1 Z"
         id="path1646" />
      <text
         transform="translate(160.01009,94.307299)"
         style="font-size:10px"
         id="text1650"><tspan
           id="tspan1648">2</tspan></text>
    </g>
    <text
       transform="rotate(-90)"
       style="font-size:9px"
       id="text1656"
       x="-90.307289"
       y="332.83096"><tspan
         id="tspan1654">1:2</tspan></text>
    <g
       id="g1664"
       transform="translate(183.62089)">
      <path
         transform="matrix(-7e-6,10,-10,-7e-6,261.01008,90.307291)"
         class="arrow"
         d="M 0,0 1,1 0,0.25 -1,1 Z"
         id="path1658" />
      <text
         transform="translate(252.01008,94.307299)"
         style="font-size:10px"
         id="text1662"><tspan
           id="tspan1660">3</tspan></text>
    </g>
    <text
       transform="rotate(90)"
       style="font-size:9px"
       id="text1668"
       x="90.307121"
       y="-446.43091"><tspan
         id="tspan1666">2:3</tspan></text>
    <text
       style="font-size:9px"
       id="text1672"
       x="375.77838"
       y="72.477989"><tspan
         id="tspan1670">8:6.</tspan></text>
    <text
       transform="rotate(179.99983)"
       style="font-size:4.5px"
       id="text1676"
       x="-439.63028"
       y="-229.72243"><tspan
         id="tspan1674">6.:8</tspan></text>
    <g
       id="g1688"
       transform="translate(183.62089)">
      <path
         transform="matrix(-3e-6,-10,10,-3e-6,151.01007,211.1139)"
         class="arrow"
         d="M 0,0 1,1 0,0.25 -1,1 Z"
         id="path1682" />
      <text
         transform="translate(160.01007,215.1139)"
         style="font-size:10px"
         id="text1686"><tspan
           id="tspan1684">4</tspan></text>
    </g>
    <text
       transform="rotate(-90)"
       style="font-size:9px"
       id="text1692"
       x="-211.11389"
       y="332.83096"><tspan
         id="tspan1690">1:4</tspan></text>
    <text
       transform="scale(-1)"
       style="font-size:9px"
       id="text1696"
       x="-375.77838"
       y="-230.62109"><tspan
         id="tspan1694">6.:10</tspan></text>
  </g>
</svg>
