<?xml version="1.0" encoding="UTF-8" standalone="no"?>
<svg
   version="1.1"
   width="300.00mm"
   height="600.00mm"
   viewBox="0 0 300.00 600.00"
   id="svg3159"
   sodipodi:docname="bottom_page4.svg"
   inkscape:version="1.1.1 (c3084ef, 2021-09-22)"
   xmlns:inkscape="http://www.inkscape.org/namespaces/inkscape"
   xmlns:sodipodi="http://sodipodi.sourceforge.net/DTD/sodipodi-0.dtd"
   xmlns="http://www.w3.org/2000/svg"
   xmlns:svg="http://www.w3.org/2000/svg">
  <defs
     id="defs3163" />
  <sodipodi:namedview
     id="namedview3161"
     pagecolor="#ffffff"
     bordercolor="#666666"
     borderopacity="1.0"
     inkscape:pageshadow="2"
     inkscape:pageopacity="0.0"
     inkscape:pagecheckerboard="0"
     inkscape:document-units="mm"
     showgrid="false"
     inkscape:zoom="0.35057292"
     inkscape:cx="463.52696"
     inkscape:cy="1299.3017"
     inkscape:window-width="1792"
     inkscape:window-height="975"
     inkscape:window-x="0"
     inkscape:window-y="25"
     inkscape:window-maximized="1"
     inkscape:current-layer="svg3159" />
  <style
     type="text/css"
     id="style2841">
    path {
        fill: none;
        stroke-linecap: butt;
        stroke-linejoin: bevel;
        stroke-dasharray: none;
    }
    path.outer {
        stroke: #000000;
        stroke-dasharray: none;
        stroke-dashoffset: 0;
        stroke-width: 0.3;
        stroke-opacity: 1.0;
    }
    path.convex {
        stroke: #000000;
        stroke-dasharray: 0.50,1.00;
        stroke-dashoffset:0;
        stroke-width:0.2;
        stroke-opacity: 1.0
    }
    path.concave {
        stroke: #000000;
        stroke-dasharray: 1.00,0.50,0.20,0.50;
        stroke-dashoffset: 0;
        stroke-width: 0.2;
        stroke-opacity: 1.0
    }
    path.freestyle {
        stroke: #000000;
        stroke-dasharray: none;
        stroke-dashoffset: 0;
        stroke-width: 0.2;
        stroke-opacity: 1.0
    }
    path.outer_background {
        stroke: #ffffff;
        stroke-opacity: 1.0;
        stroke-width: 0.5
    }
    path.inner_background {
        stroke: #ffffff;
        stroke-opacity: 1.0;
        stroke-width: 0.2
    }
    path.sticker {
        fill: #e5e5e5;
        stroke: none;
        fill-opacity: 1.0;
    }
    path.arrow {
        fill: #000000;
    }
    text {
        font-style: normal;
        fill: #000000;
        fill-opacity: 1.0;
        stroke: none;
    }
    text, tspan {
        text-anchor:middle;
    }
    </style>
  <g
     id="g3597">
    <text
       style="font-size:10px"
       id="text2845"
       x="369.10016"
       y="124.17674"><tspan
         id="tspan2843">[17] I 17</tspan></text>
    <path
       class="sticker"
       d="m 408.70289,148.21952 -0.15709,9.99999 h -74.28753 l -0.15709,-10.00002 z m -74.60171,-110.000013 0.1571,-9.999991 h 74.28752 l 0.15709,9.999991 z m 74.60171,0 4.99999,0.07856 v 9.842932 l -5.00002,0.07856 z m -3e-5,10.00005 8.8526,0.139058 v 17.427027 l -8.8526,0.139117 z m 0,17.705202 10.00002,0.157058 V 148.0624 l -9.99999,0.15712 z"
       id="path2847" />
    <path
       class="convex"
       d="M 408.70286,65.924759 V 48.219557 m -74.60168,99.999933 74.60171,3e-5 m 0,0 -3e-5,-82.294761 m 0,-17.705202 3e-5,-10.00005 m 0,0 h -74.60171"
       id="path2849" />
    <path
       class="outer"
       d="m 417.55546,48.358615 v 17.427027 l -8.8526,0.139117 10.00002,0.157058 V 148.0624 l -9.99999,0.15712 -0.15709,9.99999 h -74.28753 l -0.15709,-10.00002 V 65.924699 48.219497 38.219507 l 0.1571,-9.999991 h 74.28752 l 0.15709,9.999991 4.99999,0.07856 v 9.842932 l -5.00002,0.07856 z"
       id="path2851" />
    <g
       id="g2859"
       transform="translate(139.70003)">
      <path
         transform="matrix(-10,-1e-6,1e-6,-10,231.70201,148.21952)"
         class="arrow"
         d="M 0,0 1,1 0,0.25 -1,1 Z"
         id="path2853" />
      <text
         transform="translate(231.70201,143.21953)"
         style="font-size:10px"
         id="text2857"><tspan
           id="tspan2855">1</tspan></text>
    </g>
    <text
       transform="scale(-1)"
       style="font-size:9px"
       id="text2863"
       x="-371.40201"
       y="-150.01952"><tspan
         id="tspan2861">1:1</tspan></text>
    <g
       id="g2871"
       transform="translate(139.70003)">
      <path
         transform="matrix(10,1e-6,-1e-6,10,231.70201,38.219507)"
         class="arrow"
         d="M 0,0 1,1 0,0.25 -1,1 Z"
         id="path2865" />
      <text
         transform="translate(231.70201,51.219518)"
         style="font-size:10px"
         id="text2869"><tspan
           id="tspan2867">2</tspan></text>
    </g>
    <text
       style="font-size:9px"
       id="text2875"
       x="371.40204"
       y="36.419506"><tspan
         id="tspan2873">3:2</tspan></text>
    <g
       id="g2883"
       transform="translate(139.70003)">
      <path
         transform="matrix(-3.1e-5,10,-10,-3.1e-5,269.00286,43.219562)"
         class="arrow"
         d="M 0,0 1,1 0,0.25 -1,1 Z"
         id="path2877" />
      <text
         transform="translate(260.00286,47.21951)"
         style="font-size:10px"
         id="text2881"><tspan
           id="tspan2879">3</tspan></text>
    </g>
    <text
       transform="rotate(90.000172)"
       style="font-size:4.5px"
       id="text2887"
       x="43.218349"
       y="-409.60303"><tspan
         id="tspan2885">11:3</tspan></text>
    <g
       id="g2895"
       transform="translate(139.70003)">
      <path
         transform="matrix(3e-6,10,-10,3e-6,269.00286,107.07211)"
         class="arrow"
         d="M 0,0 1,1 0,0.25 -1,1 Z"
         id="path2889" />
      <text
         transform="translate(260.00286,111.07212)"
         style="font-size:10px"
         id="text2893"><tspan
           id="tspan2891">4</tspan></text>
    </g>
    <text
       transform="rotate(90)"
       style="font-size:9px"
       id="text2899"
       x="107.07211"
       y="-410.5029"><tspan
         id="tspan2897">11:4</tspan></text>
  </g>
  <g
     id="g3003">
    <text
       transform="translate(243.18161,216.39026)"
       style="font-size:10px"
       id="text2905"><tspan
         id="tspan2903">[5] I 5</tspan></text>
    <path
       class="sticker"
       d="m 256.4503,182.21953 0.15712,-10.00002 h 25.19756 l 0.15706,9.99999 z m 25.51174,162.84759 9.99999,0.15711 v 32.22844 l -9.99999,0.15708 z m 0,-52.34544 9.99999,0.15712 v 27.53335 l -9.99999,0.15709 z m 0,-28.30824 9.99999,0.15709 v 27.99407 l -9.99999,0.15708 z m 0,-58.76189 9.99999,0.15711 v 58.44769 l -9.99999,0.15709 z m 0,-23.43205 10.00002,0.15712 v 23.11784 l -10.00002,0.15709 z m 0,138.34974 9.99999,0.15709 v 24.18369 l -9.99999,0.1571 z M 256.4503,205.8371 l -9.99999,-0.15709 v -23.30339 l 9.99999,-0.15709 z m -50.04911,171.77268 -10.00001,-0.15708 2e-5,-32.22844 10,-0.15709 z m 10e-6,-57.04048 -10,-0.15709 1e-5,-27.53335 10.00001,-0.15712 z m 0,24.49787 -10,-0.15709 v -24.18369 l 10,-0.15709 z m 2e-5,-52.34543 -10.00001,-0.15708 2e-5,-27.99407 10,-0.15712 z m 1e-5,-28.30827 -7.50073,-6.6154 49.84501,-58.33751 7.70479,6.37654 z m 75.56075,308.58656 -0.15709,10 h -25.19753 l -0.15712,-10 z m 6e-5,-195.39028 9.99999,0.15712 v 32.22844 l -9.99999,0.15709 z m -3e-5,57.04053 10.00002,0.1571 -3e-5,27.53336 -9.99999,0.15709 z m 0,27.84755 10.00002,0.15711 v 27.99408 l -10.00005,0.15709 z m -3e-5,28.30828 10.00002,0.15709 -3e-5,58.4477 -9.99999,0.15709 z m 0,58.76188 9.99999,0.15708 v 23.11787 l -9.99999,0.15709 z m 6e-5,-139.41559 9.99999,0.15709 v 24.1837 l -10.00002,0.15709 z m -25.5118,162.84763 -10.00001,-0.15709 -1e-5,-23.30345 10.00002,-0.15709 z m -50.04907,-162.84763 -10,-0.1571 1e-5,-32.22843 10.00001,-0.15709 z m -1e-5,52.34543 -10.00001,-0.15711 v -27.53336 l 10.00001,-0.15709 z m 0,-27.84756 -10.00001,-0.15711 2e-5,-24.18367 10,-0.15709 z m -2e-5,56.15581 -9.99999,-0.1571 v -27.99407 l 10.00001,-0.15708 z m 50.0491,58.57632 -7.70482,6.37656 -49.84498,-58.33745 7.5007,-6.61543 z"
       id="path2907" />
    <path
       class="convex"
       d="m 256.4503,377.60977 v 32.54263 m 25.51174,0 v -32.54265 m 0,0 v -32.54263 m -25.51174,2e-5 v 32.54263 m 25.51174,-32.54265 v -24.49788 m -25.51174,0 v 24.4979 m 0,65.08526 v 24.49787 m 25.51171,1e-5 3e-5,-24.49788 m 0,-89.58316 v -27.84756 m -25.51174,0 v 27.84756 m 25.51174,-27.84756 v -28.30824 m -25.51171,-3e-5 -3e-5,28.30827 m -3e-5,169.77615 3e-5,28.30827 m 25.51168,10e-6 3e-5,-28.30828 m -25.51171,-27.84756 -3e-5,27.84756 m 25.51174,0 v -27.84755 m 3e-5,-170.23684 v -58.76189 m -25.51174,0.18555 3e-5,58.57631 m -3e-5,-82.19388 v 23.61757 m 25.51174,-0.18555 V 182.2195 m 0,0 -25.51174,3e-5 m -6e-5,390.7805 h 25.51174 m 0,0 v -23.43204 m -25.51174,-0.18559 v 23.61763 m 6e-5,-82.19393 -6e-5,58.5763 m 25.51174,0.18559 v -58.76188"
       id="path2909" />
    <path
       class="concave"
       d="m 206.4012,320.5693 v 24.49787 m 2e-5,-52.34543 -2e-5,27.84756 m 3e-5,-56.15583 -1e-5,28.30827 m -3e-5,84.88804 -2e-5,32.54262 m 3e-5,-65.08523 -10e-6,32.54261 m -3e-5,57.04049 v 27.84756 m 1e-5,-52.34543 -1e-5,24.49787 m 0,27.84756 -2e-5,28.30825 m 0,0 50.0491,58.57632 m 6e-5,-343.5453 -50.04907,58.57637"
       id="path2911" />
    <path
       class="outer"
       d="m 256.60742,172.21951 h 25.19756 l 0.15706,9.99999 10.00002,0.15712 v 23.11784 l -10.00002,0.15709 9.99999,0.15711 v 58.44769 l -9.99999,0.15709 9.99999,0.15709 v 27.99407 l -9.99999,0.15708 9.99999,0.15712 v 27.53335 l -9.99999,0.15709 9.99999,0.15709 v 24.18369 l -9.99999,0.1571 9.99999,0.15711 v 32.22844 l -9.99999,0.15708 9.99999,0.15712 v 32.22844 l -9.99999,0.15709 9.99999,0.15709 v 24.1837 l -10.00002,0.15709 10.00002,0.1571 -3e-5,27.53336 -9.99999,0.15709 10.00002,0.15711 v 27.99408 l -10.00005,0.15709 10.00002,0.15709 -3e-5,58.4477 -9.99999,0.15709 9.99999,0.15708 v 23.11787 l -9.99999,0.15709 -0.15709,10 h -25.19753 l -0.15712,-10 -10.00001,-0.15709 -1e-5,-23.30345 10.00002,-0.15709 -7.70482,6.37656 -49.84498,-58.33745 7.5007,-6.61543 -9.99999,-0.1571 v -27.99407 l 10.00001,-0.15708 -10.00001,-0.15711 v -27.53336 l 10.00001,-0.15709 -10.00001,-0.15711 2e-5,-24.18367 10,-0.15709 -10,-0.1571 1e-5,-32.22843 10.00001,-0.15709 -10.00001,-0.15708 2e-5,-32.22844 10,-0.15709 -10,-0.15709 v -24.18369 l 10,-0.15709 -10,-0.15709 1e-5,-27.53335 10.00001,-0.15712 -10.00001,-0.15708 2e-5,-27.99407 10,-0.15712 -7.50073,-6.6154 49.84501,-58.33751 7.70479,6.37654 -9.99999,-0.15709 v -23.30339 l 9.99999,-0.15709 z"
       id="path2913" />
    <text
       transform="translate(269.20617,180.41953)"
       style="font-size:9px"
       id="text2917"><tspan
         id="tspan2915">6.:1</tspan></text>
    <text
       transform="rotate(90,44.913334,238.84866)"
       style="font-size:9px"
       id="text2921"><tspan
         id="tspan2919">4:1</tspan></text>
    <g
       id="g2929">
      <path
         transform="matrix(3e-6,-10,10,3e-6,256.4503,194.02828)"
         class="arrow"
         d="M 0,0 1,1 0,0.25 -1,1 Z"
         id="path2923" />
      <text
         transform="translate(265.4503,198.02829)"
         style="font-size:10px"
         id="text2927"><tspan
           id="tspan2925">1</tspan></text>
    </g>
    <text
       transform="rotate(-90,224.33932,-30.311008)"
       style="font-size:9px"
       id="text2933"><tspan
         id="tspan2931">12:1</tspan></text>
    <g
       id="g2941">
      <path
         transform="matrix(5e-6,-9.999999,9.999999,5e-6,206.40122,278.56761)"
         class="arrow"
         d="M 0,0 1,1 0,0.25 -1,1 Z"
         id="path2935" />
      <text
         transform="translate(215.40122,282.56762)"
         style="font-size:10px"
         id="text2939"><tspan
           id="tspan2937">2</tspan></text>
    </g>
    <text
       transform="rotate(-90,241.58441,36.983195)"
       style="font-size:9px"
       id="text2945"><tspan
         id="tspan2943">8:2</tspan></text>
    <g
       id="g2953">
      <path
         transform="matrix(6.49599,-7.602769,7.602769,6.49599,231.42577,235.1253)"
         class="arrow"
         d="M 0,0 1,1 0,0.25 -1,1 Z"
         id="path2947" />
      <text
         transform="translate(238.26826,244.97169)"
         style="font-size:10px"
         id="text2951"><tspan
           id="tspan2949">3</tspan></text>
    </g>
    <text
       transform="rotate(-49.488624,368.83983,-132.60353)"
       style="font-size:9px"
       id="text2957"><tspan
         id="tspan2955">12:3</tspan></text>
    <text
       transform="rotate(180,134.60306,287.40002)"
       style="font-size:9px"
       id="text2961"><tspan
         id="tspan2959">7:1</tspan></text>
    <text
       transform="rotate(90,-138.7613,422.52314)"
       style="font-size:9px"
       id="text2965"><tspan
         id="tspan2963">4:4</tspan></text>
    <g
       id="g2973">
      <path
         transform="matrix(-1e-6,-10,10,-1e-6,256.45024,561.19121)"
         class="arrow"
         d="M 0,0 1,1 0,0.25 -1,1 Z"
         id="path2967" />
      <text
         transform="translate(265.45024,565.19121)"
         style="font-size:10px"
         id="text2971"><tspan
           id="tspan2969">4</tspan></text>
    </g>
    <text
       transform="rotate(-90,407.92073,153.27049)"
       style="font-size:9px"
       id="text2977"><tspan
         id="tspan2975">13:4</tspan></text>
    <g
       id="g2985">
      <path
         transform="matrix(3e-6,-10,10,3e-6,206.40116,476.65195)"
         class="arrow"
         d="M 0,0 1,1 0,0.25 -1,1 Z"
         id="path2979" />
      <text
         transform="translate(215.40116,480.65195)"
         style="font-size:10px"
         id="text2983"><tspan
           id="tspan2981">5</tspan></text>
    </g>
    <text
       transform="rotate(-90,340.62655,136.0254)"
       style="font-size:9px"
       id="text2989"><tspan
         id="tspan2987">8:5</tspan></text>
    <g
       id="g2997">
      <path
         transform="matrix(-6.495996,-7.602766,7.602766,-6.495996,231.42569,520.09423)"
         class="arrow"
         d="M 0,0 1,1 0,0.25 -1,1 Z"
         id="path2991" />
      <text
         transform="translate(238.26817,518.24784)"
         style="font-size:10px"
         id="text2995"><tspan
           id="tspan2993">6.</tspan></text>
    </g>
    <text
       transform="matrix(-0.6496,-0.760277,0.760277,-0.6496,230.05718,521.26351)"
       style="font-size:9px"
       id="text3001"><tspan
         id="tspan2999">13:6.</tspan></text>
  </g>
  <g
     id="g3155"
     transform="matrix(1,0,-0.14568684,1,42.35047,0)">
    <text
       transform="translate(99.700575,258.18116)"
       style="font-size:10px"
       id="text3007"><tspan
         id="tspan3005">[6.] I 6</tspan></text>
    <path
       class="sticker"
       d="m 64.45614,495.85571 -9.909988,1.3479 -3.500461,-23.02226 9.86275,-1.65847 z m 50.86537,-383.62082 9.80507,-1.9711 5.35348,24.62229 -9.73833,2.27812 z m -39.53335,458.14985 -9.910002,1.34792 -11.284769,-74.21842 9.862751,-1.65853 z m 97.41814,-91.06443 9.90999,-1.3479 11.28486,74.21822 -9.86275,1.65853 z m -48.20846,-316.94323 9.90999,-1.34793 31.5391,207.42624 -9.86275,1.65853 z m 43.24757,284.43018 4.61377,-0.55304 1.37846,8.95467 -4.57906,0.77871 z m -108.733088,16.53278 -0.67389,-4.95497 9.730994,-1.47944 0.82919,4.93133 z m -44.649571,-360.17343 -1.042039,-7.661407 15.04615,-2.287716 1.282185,7.624923 z m 7.008195,46.09087 -9.909988,1.34795 L 5,104.82513 l 9.862751,-1.65852 z m 98.870784,-12.09328 9.88664,-1.50964 4.20381,24.90309 -9.83434,1.81943 z m -95.027596,37.36892 -9.909958,1.34793 -3.795981,-24.96502 9.862751,-1.65855 z m 158.824266,379.31604 1.3479,9.90998 -81.04907,12.32344 -1.65852,-9.86275 z m -98.863856,15.03238 0.673964,4.95502 -9.731084,1.4796 -0.829264,-4.93142 z m -24.766103,-96.35866 -4.602372,0.62594 -1.374185,-9.0386 4.580438,-0.77018 z m 108.750139,-16.53528 9.90998,-1.3479 3.50049,23.02211 -9.86275,1.6585 z m -112.038974,-71.61886 -9.909987,1.34792 -31.858236,-209.52501 9.862751,-1.65853 z m -27.470559,-283.52633 1.481474,-9.890912 84.861039,11.350842 -1.17005,9.93255 z m 73.029663,465.37742 1.19338,8.77297 -17.229201,2.61989 -1.468345,-8.73115 z m 53.40547,-196.10591 9.90999,-1.34792 11.61399,76.38276 -9.86275,1.6585 z m -87.185564,91.72304 -9.909987,1.34796 -11.731774,-77.15765 9.862751,-1.65853 z"
       id="path3009" />
    <path
       class="convex"
       d="m 173.2063,479.32031 -3.54772,-23.33271 m -66.47987,110.23223 81.35969,-12.37067 m 0,0 -11.3321,-74.52885 m -3.54772,-23.33271 -1.41317,-9.18034 m 0,0 -11.66123,-76.69334 m 0,0 -31.58634,-207.73684 m 0,0 -4.25611,-25.21288 m 0,0 -5.42022,-24.92931 m 0,0 -85.172463,-11.39248 m 55.525497,468.03913 17.504166,-2.66171 m -73.029663,-465.37742 -15.286296,2.3242 m 49.593389,392.6891 11.33202,74.52903 m 0,0 9.886384,-1.5032 m -24.766103,-96.35866 3.547699,23.33283 m -4.943818,-32.51567 1.396119,9.18284"
       id="path3011" />
    <path
       class="outer"
       d="m 54.546152,497.20361 -3.500461,-23.02226 9.86275,-1.65847 -4.602372,0.62594 -1.374185,-9.0386 4.580438,-0.77018 -0.67389,-4.95497 9.730994,-1.47944 0.82919,4.93133 -9.909987,1.34796 -11.731774,-77.15765 9.862751,-1.65853 -9.909987,1.34792 -31.858236,-209.52501 9.862751,-1.65853 -9.909958,1.34793 -3.795981,-24.96502 9.862751,-1.65855 -9.909988,1.34795 L 5,104.82513 l 9.862751,-1.65852 -1.042039,-7.661407 15.04615,-2.287716 1.282185,7.624923 1.481474,-9.890912 84.861039,11.350842 -1.17005,9.93255 9.80507,-1.9711 5.35348,24.62229 -9.73833,2.27812 9.88664,-1.50964 4.20381,24.90309 -9.83434,1.81943 9.90999,-1.34793 31.5391,207.42624 -9.86275,1.65853 9.90999,-1.34792 11.61399,76.38276 -9.86275,1.6585 4.61377,-0.55304 1.37846,8.95467 -4.57906,0.77871 9.90998,-1.3479 3.50049,23.02211 -9.86275,1.6585 9.90999,-1.3479 11.28486,74.21822 -9.86275,1.65853 1.3479,9.90998 -81.04907,12.32344 -1.65852,-9.86275 1.19338,8.77297 -17.229201,2.61989 -1.468345,-8.73115 0.673964,4.95502 -9.731084,1.4796 -0.829264,-4.93142 -9.910002,1.34792 -11.284769,-74.21842 9.862751,-1.65853 z"
       id="path3013" />
    <g
       id="g3021">
      <path
         transform="matrix(2.124601,9.771696,-9.771696,2.124601,118.03161,124.69953)"
         class="arrow"
         d="M 0,0 1,1 0,0.25 -1,1 Z"
         id="path3015" />
      <text
         transform="translate(109.23709,130.61168)"
         style="font-size:10px"
         id="text3019"><tspan
           id="tspan3017">1</tspan></text>
    </g>
    <text
       transform="rotate(77.733449,-17.230302,136.47582)"
       style="font-size:9px"
       id="text3025"><tspan
         id="tspan3023">5:1</tspan></text>
    <g
       id="g3033">
      <path
         transform="matrix(-1.503205,-9.886374,9.886374,-1.503205,70.122157,533.12024)"
         class="arrow"
         d="M 0,0 1,1 0,0.25 -1,1 Z"
         id="path3027" />
      <text
         transform="translate(79.019894,535.76736)"
         style="font-size:10px"
         id="text3031"><tspan
           id="tspan3029">2</tspan></text>
    </g>
    <text
       transform="rotate(-98.645532,263.38126,237.32714)"
       style="font-size:9px"
       id="text3037"><tspan
         id="tspan3035">3:2</tspan></text>
    <g
       id="g3045">
      <path
         transform="matrix(1.503221,9.886371,-9.886371,1.503221,178.87235,516.58475)"
         class="arrow"
         d="M 0,0 1,1 0,0.25 -1,1 Z"
         id="path3039" />
      <text
         transform="translate(169.97461,521.93765)"
         style="font-size:10px"
         id="text3043"><tspan
           id="tspan3041">3</tspan></text>
    </g>
    <text
       transform="rotate(81.354412,-210.05098,363.25526)"
       style="font-size:9px"
       id="text3049"><tspan
         id="tspan3047">1:3</tspan></text>
    <g
       id="g3057">
      <path
         transform="matrix(1.521429,9.883585,-9.883585,1.521429,168.95199,451.39744)"
         class="arrow"
         d="M 0,0 1,1 0,0.25 -1,1 Z"
         id="path3051" />
      <text
         transform="translate(160.05677,456.76672)"
         style="font-size:10px"
         id="text3055"><tspan
           id="tspan3053">4</tspan></text>
    </g>
    <text
       transform="rotate(81.248859,-178.13681,324.59166)"
       style="font-size:4.18px"
       id="text3061"><tspan
         id="tspan3059">1:4</tspan></text>
    <text
       transform="rotate(-8.6448346,3086.3755,-194.63817)"
       style="font-size:4.5px"
       id="text3065"><tspan
         id="tspan3063">15:2</tspan></text>
    <g
       id="g3073">
      <path
         transform="matrix(9.886378,-1.503169,1.503169,9.886378,22.505884,102.00449)"
         class="arrow"
         d="M 0,0 1,1 0,0.25 -1,1 Z"
         id="path3067" />
      <text
         transform="translate(23.858736,114.90225)"
         style="font-size:10px"
         id="text3071"><tspan
           id="tspan3069">5</tspan></text>
    </g>
    <text
       transform="rotate(-8.6452963,676.78858,-97.174838)"
       style="font-size:6.96px"
       id="text3077"><tspan
         id="tspan3075">4:5</tspan></text>
    <g
       id="g3085">
      <path
         transform="matrix(-1.503239,-9.886368,9.886368,-1.503239,18.366878,126.21206)"
         class="arrow"
         d="M 0,0 1,1 0,0.25 -1,1 Z"
         id="path3079" />
      <text
         transform="translate(27.264607,128.85916)"
         style="font-size:10px"
         id="text3083"><tspan
           id="tspan3081">6.</tspan></text>
    </g>
    <text
       transform="rotate(-98.645701,62.645905,56.113383)"
       style="font-size:9px"
       id="text3089"><tspan
         id="tspan3087">15:6.</tspan></text>
    <g
       id="g3097">
      <path
         transform="matrix(1.664521,9.860496,-9.860496,1.664521,122.86978,149.77064)"
         class="arrow"
         d="M 0,0 1,1 0,0.25 -1,1 Z"
         id="path3091" />
      <text
         transform="translate(113.99533,155.26872)"
         style="font-size:10px"
         id="text3095"><tspan
           id="tspan3093">7</tspan></text>
    </g>
    <text
       transform="rotate(80.41841,-26.086403,148.45997)"
       style="font-size:9px"
       id="text3101"><tspan
         id="tspan3099">12:7</tspan></text>
    <g
       id="g3109">
      <path
         transform="matrix(-9.886372,1.503215,-1.503215,-9.886372,143.85854,560.03451)"
         class="arrow"
         d="M 0,0 1,1 0,0.25 -1,1 Z"
         id="path3103" />
      <text
         transform="translate(142.50565,555.13677)"
         style="font-size:10px"
         id="text3107"><tspan
           id="tspan3105">8</tspan></text>
    </g>
    <text
       transform="rotate(171.35447,50.830822,286.35439)"
       style="font-size:9px"
       id="text3113"><tspan
         id="tspan3111">11:8</tspan></text>
    <g
       id="g3121">
      <path
         transform="matrix(-9.886371,1.503226,-1.503226,-9.886371,80.731352,569.63315)"
         class="arrow"
         d="M 0,0 1,1 0,0.25 -1,1 Z"
         id="path3115" />
      <text
         transform="translate(79.378446,564.73542)"
         style="font-size:10px"
         id="text3119"><tspan
           id="tspan3117">9.</tspan></text>
    </g>
    <text
       transform="rotate(171.35436,18.870121,288.31785)"
       style="font-size:4.5px"
       id="text3125"><tspan
         id="tspan3123">11:9.</tspan></text>
    <g
       id="g3133">
      <path
         transform="matrix(-1.503102,-9.88639,9.88639,-1.503102,60.210382,467.93144)"
         class="arrow"
         d="M 0,0 1,1 0,0.25 -1,1 Z"
         id="path3127" />
      <text
         transform="translate(69.108133,470.57866)"
         style="font-size:10px"
         id="text3131"><tspan
           id="tspan3129">10</tspan></text>
    </g>
    <text
       transform="rotate(-98.644891,230.82881,208.50964)"
       style="font-size:4.18px"
       id="text3137"><tspan
         id="tspan3135">3:10</tspan></text>
    <text
       transform="rotate(7.6185306,-750.16814,600.37285)"
       style="font-size:9px"
       id="text3141"><tspan
         id="tspan3139">4:3</tspan></text>
    <g
       id="g3149">
      <path
         transform="matrix(1.503223,9.886371,-9.886371,1.503223,162.41479,408.46058)"
         class="arrow"
         d="M 0,0 1,1 0,0.25 -1,1 Z"
         id="path3143" />
      <text
         transform="translate(153.51706,413.81348)"
         style="font-size:10px"
         id="text3147"><tspan
           id="tspan3145">11</tspan></text>
    </g>
    <text
       transform="rotate(81.354412,-155.37618,299.61864)"
       style="font-size:9px"
       id="text3153"><tspan
         id="tspan3151">12:11</tspan></text>
  </g>
</svg>
