<?xml version="1.0" encoding="UTF-8" standalone="no"?>
<svg
   xmlns:dc="http://purl.org/dc/elements/1.1/"
   xmlns:cc="http://creativecommons.org/ns#"
   xmlns:rdf="http://www.w3.org/1999/02/22-rdf-syntax-ns#"
   xmlns:svg="http://www.w3.org/2000/svg"
   xmlns="http://www.w3.org/2000/svg"
   xmlns:sodipodi="http://sodipodi.sourceforge.net/DTD/sodipodi-0.dtd"
   xmlns:inkscape="http://www.inkscape.org/namespaces/inkscape"
   version="1.1"
   width="300.00mm"
   height="600.00mm"
   viewBox="0 0 300.00 600.00"
   id="svg932"
   sodipodi:docname="bottom_page3c_6in.svg"
   inkscape:version="0.92.2 (5c3e80d, 2017-08-06)">
  <metadata
     id="metadata48">
    <rdf:RDF>
      <cc:Work
         rdf:about="">
        <dc:format>image/svg+xml</dc:format>
        <dc:type
           rdf:resource="http://purl.org/dc/dcmitype/StillImage" />
      </cc:Work>
    </rdf:RDF>
  </metadata>
  <defs
     id="defs936" />
  <sodipodi:namedview
     id="namedview934"
     pagecolor="#ffffff"
     bordercolor="#666666"
     borderopacity="1.0"
     inkscape:pageshadow="2"
     inkscape:pageopacity="0.0"
     inkscape:pagecheckerboard="0"
     inkscape:document-units="mm"
     showgrid="false"
     inkscape:zoom="0.98597984"
     inkscape:cx="86.345935"
     inkscape:cy="1019.0168"
     inkscape:window-width="1920"
     inkscape:window-height="1017"
     inkscape:window-x="-8"
     inkscape:window-y="-8"
     inkscape:window-maximized="1"
     inkscape:current-layer="svg932" />
  <style
     type="text/css"
     id="style824">
    path {
        fill: none;
        stroke-linecap: butt;
        stroke-linejoin: bevel;
        stroke-dasharray: none;
    }
    path.outer {
        stroke: #000000;
        stroke-dasharray: none;
        stroke-dashoffset: 0;
        stroke-width: 0.3;
        stroke-opacity: 1.0;
    }
    path.convex {
        stroke: #000000;
        stroke-dasharray: 0.50,1.00;
        stroke-dashoffset:0;
        stroke-width:0.2;
        stroke-opacity: 1.0
    }
    path.concave {
        stroke: #000000;
        stroke-dasharray: 1.00,0.50,0.20,0.50;
        stroke-dashoffset: 0;
        stroke-width: 0.2;
        stroke-opacity: 1.0
    }
    path.freestyle {
        stroke: #000000;
        stroke-dasharray: none;
        stroke-dashoffset: 0;
        stroke-width: 0.2;
        stroke-opacity: 1.0
    }
    path.outer_background {
        stroke: #ffffff;
        stroke-opacity: 1.0;
        stroke-width: 0.5
    }
    path.inner_background {
        stroke: #ffffff;
        stroke-opacity: 1.0;
        stroke-width: 0.2
    }
    path.sticker {
        fill: #e5e5e5;
        stroke: none;
        fill-opacity: 1.0;
    }
    path.arrow {
        fill: #000000;
    }
    text {
        font-style: normal;
        fill: #000000;
        fill-opacity: 1.0;
        stroke: none;
    }
    text, tspan {
        text-anchor:middle;
    }
    </style>
  <path
     inkscape:connector-curvature="0"
     id="path858"
     style="font-style:normal;font-size:medium;text-anchor:middle;fill:none;fill-opacity:1;stroke:#000000;stroke-width:0.25;stroke-linecap:butt;stroke-linejoin:bevel;stroke-dasharray:none;stroke-opacity:1"
     d="m 70.705893,342.66866 -2.349654,0.96227 -3.604824,-8.80216 2.349653,-0.96228 0.264624,0.64616 -1.563422,0.64028 3.075576,7.50986 1.563422,-0.64029 z" />
  <path
     inkscape:connector-curvature="0"
     id="path860"
     style="font-style:normal;font-size:medium;text-anchor:middle;fill:none;fill-opacity:1;stroke:#000000;stroke-width:0.25;stroke-linecap:butt;stroke-linejoin:bevel;stroke-dasharray:none;stroke-opacity:1"
     d="m 75.422659,336.45778 -0.998603,0.40897 0.775371,1.89328 -0.867564,0.3553 -0.775371,-1.89328 -3.221735,1.31942 -0.425622,-1.03927 1.703443,-5.12982 0.831416,-0.3405 1.683978,4.1119 0.998603,-0.40897 z m -2.162251,0.0413 -1.243553,-3.03648 -1.363658,4.10423 z" />
  <path
     inkscape:connector-curvature="0"
     id="path862"
     style="font-style:normal;font-size:medium;text-anchor:middle;fill:none;fill-opacity:1;stroke:#000000;stroke-width:0.25;stroke-linecap:butt;stroke-linejoin:bevel;stroke-dasharray:none;stroke-opacity:1"
     d="m 80.502142,338.65671 -2.34966,0.96228 -0.264625,-0.64615 1.56343,-0.64029 -3.075576,-7.50985 -1.56343,0.64028 -0.264624,-0.64615 2.34966,-0.96228 z" />
  <path
     inkscape:connector-curvature="0"
     id="path864"
     style="font-style:normal;font-size:medium;text-anchor:middle;fill:none;fill-opacity:1;stroke:#000000;stroke-width:0.25;stroke-linecap:butt;stroke-linejoin:bevel;stroke-dasharray:none;stroke-opacity:1"
     d="m 87.395032,333.76545 -2.656921,1.08812 -0.281281,-0.68683 0.881121,-0.36085 -2.192872,-5.3545 -0.881121,0.36086 -0.281281,-0.68683 2.656921,-1.08811 0.281281,0.68683 -0.881121,0.36085 2.192872,5.35449 0.881121,-0.36085 z" />
  <path
     inkscape:connector-curvature="0"
     id="path866"
     style="font-style:normal;font-size:medium;text-anchor:middle;fill:none;fill-opacity:1;stroke:#000000;stroke-width:0.25;stroke-linecap:butt;stroke-linejoin:bevel;stroke-dasharray:none;stroke-opacity:1"
     d="m 95.936939,328.05639 -0.998611,0.40897 0.775371,1.89328 -0.867564,0.3553 -0.775371,-1.89328 -3.22173,1.31942 -0.425622,-1.03927 1.703445,-5.12982 0.831408,-0.34049 1.683979,4.11189 0.99861,-0.40897 z m -2.162259,0.0413 -1.243553,-3.03647 -1.363655,4.10422 z" />
  <path
     class="sticker"
     d="m 124.31708,346.4098 9.99865,0.22745 -0.22673,32.22765 -10.00085,0.0867 z m 0.36826,-52.34415 9.99864,0.22743 -0.1937,27.53269 -10.00087,0.0867 z m 0.19915,-28.30756 9.99862,0.22744 -0.19691,27.99339 -10.00086,0.0867 z m 0.45804,-65.11089 9.98589,2.04107 -0.44308,62.98306 -10.00085,0.0868 z m -0.85312,121.26532 9.99868,0.22745 -0.17014,24.1831 -10.00087,0.0867 z M 99.785441,207.0037 l -9.998664,-0.22742 0.163956,-23.30283 10.000866,-0.0867 z m -51.256269,171.41641 -9.998651,-0.22743 0.226712,-32.22766 10.000868,-0.0867 z m 0.40127,-57.03912 -9.998651,-0.22743 0.193701,-27.53268 10.000868,-0.0867 z m -0.172341,24.49729 -9.998655,-0.22746 0.170139,-24.18306 10.000857,-0.0868 z m 0.368259,-52.34414 -9.998652,-0.22743 0.196926,-27.99342 10.000857,-0.0867 z m 50.825239,-110.14743 5.751801,-8.18177 25.13111,17.08383 -5.49198,8.35843 z m -50.626108,81.83985 -7.453983,-6.66802 50.25417,-57.98541 7.659763,6.43057 z m 74.762659,113.72507 9.99865,0.22744 -0.22673,32.22766 -10.00086,0.0867 z m -0.40128,57.03913 9.99865,0.22743 -0.1937,27.53269 -10.00086,0.0867 z m -0.19591,27.84685 9.99866,0.22745 -0.19695,27.99339 -10.00085,0.0867 z m -0.19914,28.30758 9.99864,0.22744 -0.44311,62.98311 -10.01362,1.90037 z m 0.56739,-80.65171 9.99864,0.22743 -0.17013,24.18311 -10.00085,0.0867 z m -26.656744,162.66415 -9.998648,-0.22743 0.163923,-23.30287 10.00086,-0.0867 z m -48.902242,-163.19571 -9.998648,-0.22743 0.226731,-32.22764 10.000865,-0.0867 z m -0.368254,52.34414 -9.998655,-0.22745 0.193704,-27.53269 10.000859,-0.0867 z m 0.195908,-27.84688 -9.998646,-0.22743 0.170139,-24.18309 10.000853,-0.0867 z m -0.395074,56.15442 -9.998642,-0.22742 0.196944,-27.9934 10.000864,-0.0867 z m 75.100926,65.64251 5.37385,8.43484 -25.36897,16.72857 -5.636144,-8.26189 z m -25.465129,-6.71552 -7.749482,6.3222 -49.433385,-58.68668 7.54707,-6.56251 z"
     id="path5543"
     style="fill:#e5e5e5;fill-opacity:1;stroke:#000000;stroke-width:0.25;stroke-linecap:butt;stroke-linejoin:bevel;stroke-dasharray:none;stroke-opacity:1"
     inkscape:connector-curvature="0" />
  <path
     inkscape:connector-curvature="0"
     id="path869"
     style="font-style:normal;font-size:medium;text-anchor:middle;fill:none;fill-opacity:1;stroke:#000000;stroke-width:0.25;stroke-linecap:butt;stroke-linejoin:bevel;stroke-dasharray:none;stroke-opacity:1"
     d="m 129.01095,230.53617 q -0.45702,-0.003 -0.87331,-0.17314 -0.4163,-0.16993 -0.69989,-0.46197 -0.30539,-0.31856 -0.46929,-0.75918 -0.15953,-0.43619 -0.15548,-1.01186 0.004,-0.53612 0.12152,-1.03188 0.11335,-0.4958 0.27397,-0.83745 l 0.92722,0.007 -4.3e-4,0.0615 q -0.23105,0.35874 -0.39704,0.84098 -0.1616,0.48227 -0.16488,0.94808 -0.002,0.31201 0.0836,0.60266 0.0858,0.29504 0.30393,0.5251 0.1876,0.19468 0.45059,0.29321 0.26295,0.10293 0.61011,0.10537 0.33837,0.002 0.57211,-0.11463 0.23371,-0.11262 0.37579,-0.31817 0.16859,-0.22733 0.23683,-0.55645 0.0726,-0.32469 0.0754,-0.72898 0.003,-0.38671 -0.0475,-0.74742 -0.0502,-0.35632 -0.10114,-0.61596 l 3.37052,0.0237 -0.0277,3.9374 -0.76903,-0.005 0.0217,-3.08928 -1.74019,-0.0122 q 0.0163,0.18908 0.0237,0.3869 0.007,0.19781 0.006,0.34282 -0.004,0.53173 -0.0988,0.93097 -0.0907,0.39927 -0.32156,0.73164 -0.24417,0.34986 -0.62784,0.54052 -0.38368,0.19067 -0.95935,0.18662 z" />
  <path
     inkscape:connector-curvature="0"
     id="path871"
     style="font-style:normal;font-size:medium;text-anchor:middle;fill:none;fill-opacity:1;stroke:#000000;stroke-width:0.25;stroke-linecap:butt;stroke-linejoin:bevel;stroke-dasharray:none;stroke-opacity:1"
     d="m 130.56592,233.76398 0.007,-1.05026 1.25241,0.009 -0.007,1.05026 z m -3.65616,-0.0257 0.007,-1.05026 1.25241,0.009 -0.007,1.05026 z" />
  <path
     inkscape:connector-curvature="0"
     id="path873"
     style="font-style:normal;font-size:medium;text-anchor:middle;fill:none;fill-opacity:1;stroke:#000000;stroke-width:0.25;stroke-linecap:butt;stroke-linejoin:bevel;stroke-dasharray:none;stroke-opacity:1"
     d="m 126.86553,240.02668 0.0249,-3.5419 0.66795,0.005 -0.01,1.36227 4.38564,0.0308 0.01,-1.36227 0.59764,0.004 q -0.002,0.27685 0.0398,0.59356 0.0461,0.31674 0.13286,0.47995 0.10844,0.20291 0.27462,0.31834 0.17055,0.11986 0.45606,0.13945 l -0.005,0.68113 -5.89731,-0.0415 -0.009,1.3359 z" />
  <path
     inkscape:connector-curvature="0"
     id="path876"
     style="font-style:normal;font-size:medium;text-anchor:middle;fill:none;fill-opacity:1;stroke:#000000;stroke-width:0.25;stroke-linecap:butt;stroke-linejoin:bevel;stroke-dasharray:none;stroke-opacity:1"
     d="m 98.027198,201.06225 -0.02492,3.5419 -0.667952,-0.005 0.0096,-1.36227 -4.385634,-0.0308 -0.0096,1.36227 -0.597642,-0.004 q 0.0019,-0.27685 -0.03977,-0.59356 -0.04611,-0.31674 -0.132858,-0.47995 -0.108438,-0.20292 -0.274623,-0.31835 -0.170548,-0.11985 -0.456061,-0.13944 l 0.0048,-0.68113 5.897315,0.0415 0.0094,-1.3359 z" />
  <path
     inkscape:connector-curvature="0"
     id="path878"
     style="font-style:normal;font-size:medium;text-anchor:middle;fill:none;fill-opacity:1;stroke:#000000;stroke-width:0.25;stroke-linecap:butt;stroke-linejoin:bevel;stroke-dasharray:none;stroke-opacity:1"
     d="m 96.229923,194.79603 -0.0068,0.97117 1.841263,0.0129 -0.0059,0.84373 -1.841264,-0.013 -0.02204,3.13322 -1.010718,-0.007 -3.669026,-3.19435 0.0057,-0.80857 3.998924,0.0281 0.0068,-0.97117 z m -0.715874,1.80995 -2.953052,-0.0208 2.935215,2.55635 z" />
  <path
     inkscape:connector-curvature="0"
     id="path880"
     style="font-style:normal;font-size:medium;text-anchor:middle;fill:none;fill-opacity:1;stroke:#000000;stroke-width:0.25;stroke-linecap:butt;stroke-linejoin:bevel;stroke-dasharray:none;stroke-opacity:1"
     d="m 94.436233,191.76869 -0.0074,1.05027 -1.25241,-0.009 0.0074,-1.05027 z m 3.65616,0.0257 -0.0074,1.05027 -1.252411,-0.009 0.0074,-1.05027 z" />
  <path
     inkscape:connector-curvature="0"
     id="path882"
     style="font-style:normal;font-size:medium;text-anchor:middle;fill:none;fill-opacity:1;stroke:#000000;stroke-width:0.25;stroke-linecap:butt;stroke-linejoin:bevel;stroke-dasharray:none;stroke-opacity:1"
     d="m 94.984406,185.68597 q 0.190444,-0.2096 0.47704,-0.34382 0.286596,-0.13422 0.739221,-0.13104 0.448231,0.003 0.820613,0.16838 0.372382,0.16522 0.64716,0.46159 0.305291,0.33175 0.451548,0.78103 0.141894,0.44486 0.138154,0.97658 -0.0038,0.54491 -0.139376,1.07132 -0.131148,0.52643 -0.287333,0.86372 l -0.918434,-0.006 4.64e-4,-0.0659 q 0.248715,-0.37179 0.414864,-0.87601 0.166148,-0.50421 0.169456,-0.97442 0.0019,-0.27685 -0.08814,-0.5895 -0.09009,-0.31265 -0.268899,-0.50727 -0.191933,-0.20351 -0.424157,-0.30182 -0.232193,-0.10271 -0.588142,-0.10522 -0.351553,-0.002 -0.580867,0.11018 -0.233677,0.10822 -0.366901,0.30504 -0.137618,0.19679 -0.187935,0.4777 -0.05471,0.28087 -0.057,0.60605 l -0.0028,0.3955 -0.729474,-0.005 0.0022,-0.30761 q 0.0047,-0.66795 -0.269368,-1.0654 -0.27843,-0.40187 -0.814549,-0.40564 -0.237299,-0.002 -0.413787,0.0982 -0.180882,0.0998 -0.296405,0.27917 -0.115584,0.18816 -0.161043,0.40317 -0.04546,0.21502 -0.04737,0.48748 -0.0029,0.41747 0.143166,0.88872 0.146102,0.47125 0.41562,0.89064 l -3.09e-4,0.0439 -0.918435,-0.006 q -0.15161,-0.31308 -0.2754,-0.83252 -0.128154,-0.52386 -0.124723,-1.01165 0.0034,-0.47899 0.09382,-0.84311 0.09045,-0.36412 0.28588,-0.65718 0.213158,-0.31492 0.513123,-0.47541 0.299964,-0.16049 0.699857,-0.15768 0.544908,0.004 0.950869,0.39342 0.401597,0.38516 0.503385,0.90884 l 0.06152,4.3e-4 q 0.03664,-0.21068 0.152811,-0.48233 0.111777,-0.27169 0.280094,-0.45947 z" />
  <path
     inkscape:connector-curvature="0"
     style="fill:#000000;stroke:#000000;stroke-width:0.24999997;stroke-linecap:butt;stroke-linejoin:bevel;stroke-dasharray:none;stroke-opacity:1"
     id="path5555"
     d="m 49.225928,279.38035 10.070104,-9.9294 -7.570166,9.94699 7.42946,10.05251 z"
     class="arrow" />
  <path
     d="m 61.693679,282.34587 -3.641962,1.49152 -0.28128,-0.68682 1.400755,-0.57366 -1.846825,-4.50953 -1.400754,0.57366 -0.251672,-0.61452 q 0.28467,-0.11658 0.591501,-0.29501 0.304981,-0.18294 0.435157,-0.34178 0.161591,-0.19809 0.208753,-0.41791 0.04983,-0.22619 -0.05238,-0.52729 l 0.700377,-0.28684 2.483406,6.06392 1.373643,-0.56256 z"
     style="font-style:normal;font-size:medium;text-anchor:middle;fill:none;fill-opacity:1;stroke:#000000;stroke-width:0.25;stroke-linecap:butt;stroke-linejoin:bevel;stroke-dasharray:none;stroke-opacity:1"
     id="path885"
     inkscape:connector-curvature="0" />
  <path
     inkscape:connector-curvature="0"
     id="path888"
     style="font-style:normal;font-size:medium;text-anchor:middle;fill:none;fill-opacity:1;stroke:#000000;stroke-width:0.24999987;stroke-linecap:butt;stroke-linejoin:bevel;stroke-dasharray:none;stroke-opacity:1"
     d="m 43.730863,283.62643 q 0.856913,0.006 1.554235,0.20869 0.697353,0.19827 1.186746,0.59723 0.498151,0.40342 0.76637,1.00737 0.268219,0.60396 0.262499,1.41693 -0.0016,0.22851 -0.0294,0.43046 -0.0234,0.20199 -0.07724,0.35982 l -0.839335,-0.006 3.09e-4,-0.0439 q 0.06681,-0.12697 0.129974,-0.35944 0.05877,-0.23251 0.06077,-0.51814 0.0068,-0.97117 -0.569366,-1.52456 -0.580563,-0.55781 -1.603846,-0.6529 0.243212,0.41042 0.346143,0.7715 0.102931,0.36109 0.09993,0.78734 -0.0028,0.40429 -0.08426,0.73332 -0.08139,0.32463 -0.312216,0.6526 -0.270781,0.38483 -0.685248,0.57967 -0.414436,0.19045 -0.990106,0.1864 -1.001929,-0.007 -1.625694,-0.67064 -0.623765,-0.66358 -0.617087,-1.61278 0.0033,-0.4746 0.155594,-0.87783 0.14786,-0.40327 0.44442,-0.70441 0.367365,-0.37096 0.944457,-0.56906 0.572697,-0.19812 1.482343,-0.19172 z m -0.195206,0.88634 q -0.681136,-0.005 -1.095201,0.13293 -0.414065,0.13771 -0.644307,0.38219 -0.199202,0.20515 -0.284365,0.44186 -0.08956,0.23668 -0.09151,0.51353 -0.0045,0.6328 0.388449,1.00471 0.392932,0.36752 1.109223,0.37256 0.41747,0.003 0.681971,-0.11386 0.2645,-0.11679 0.464228,-0.39664 0.137618,-0.19679 0.187626,-0.43375 0.04561,-0.23699 0.04765,-0.52702 0.0024,-0.34277 -0.0874,-0.69497 -0.08981,-0.35221 -0.263422,-0.66105 -0.09225,-0.005 -0.18011,-0.0101 -0.09222,-0.009 -0.232842,-0.0104 z" />
  <path
     inkscape:connector-curvature="0"
     id="path890"
     style="font-style:normal;font-size:medium;text-anchor:middle;fill:none;fill-opacity:1;stroke:#000000;stroke-width:0.24999987;stroke-linecap:butt;stroke-linejoin:bevel;stroke-dasharray:none;stroke-opacity:1"
     d="m 47.41526,280.88812 -0.0074,1.05027 -1.252411,-0.009 0.0074,-1.05027 z" />
  <path
     inkscape:connector-curvature="0"
     id="path892"
     style="font-style:normal;font-size:medium;text-anchor:middle;fill:none;fill-opacity:1;stroke:#000000;stroke-width:0.24999987;stroke-linecap:butt;stroke-linejoin:bevel;stroke-dasharray:none;stroke-opacity:1"
     d="m 43.784976,277.18426 -0.0074,1.05027 -1.252411,-0.009 0.0074,-1.05027 z m 3.656161,0.0257 -0.0074,1.05026 -1.252411,-0.009 0.0074,-1.05026 z" />
  <path
     inkscape:connector-curvature="0"
     id="path894"
     style="font-style:normal;font-size:medium;text-anchor:middle;fill:none;fill-opacity:1;stroke:#000000;stroke-width:0.24999987;stroke-linecap:butt;stroke-linejoin:bevel;stroke-dasharray:none;stroke-opacity:1"
     d="m 47.485379,270.92157 -0.02492,3.5419 -0.667952,-0.005 0.0096,-1.36227 -4.385636,-0.0308 -0.0096,1.36227 -0.597642,-0.004 q 0.0019,-0.27685 -0.03977,-0.59355 -0.04611,-0.31674 -0.132857,-0.47995 -0.108439,-0.20292 -0.274623,-0.31835 -0.170548,-0.11986 -0.456062,-0.13944 l 0.0048,-0.68114 5.897318,0.0415 0.0094,-1.3359 z" />
  <path
     inkscape:connector-curvature="0"
     id="path897"
     style="font-style:normal;font-size:medium;text-anchor:middle;fill:none;fill-opacity:1;stroke:#000000;stroke-width:0.25;stroke-linecap:butt;stroke-linejoin:bevel;stroke-dasharray:none;stroke-opacity:1"
     d="m 113.26507,183.53337 -5.57726,2.93587 -0.77774,-0.5287 5.85212,-3.00409 -3.08189,-2.09504 0.43235,-0.636 3.70336,2.5175 z" />
  <path
     inkscape:connector-curvature="0"
     id="path899"
     style="font-style:normal;font-size:medium;text-anchor:middle;fill:none;fill-opacity:1;stroke:#000000;stroke-width:0.25;stroke-linecap:butt;stroke-linejoin:bevel;stroke-dasharray:none;stroke-opacity:1"
     d="m 114.79502,186.87958 -0.8686,-0.59046 0.70411,-1.03578 0.8686,0.59046 z m -2.05551,3.02375 -0.8686,-0.59047 0.70411,-1.03578 0.8686,0.59047 z" />
  <path
     inkscape:connector-curvature="0"
     id="path901"
     style="font-style:normal;font-size:medium;text-anchor:middle;fill:none;fill-opacity:1;stroke:#000000;stroke-width:0.25;stroke-linecap:butt;stroke-linejoin:bevel;stroke-dasharray:none;stroke-opacity:1"
     d="m 120.3023,190.61275 q -0.48176,0.70869 -1.03812,1.17537 -0.55273,0.46915 -1.15652,0.65384 -0.61237,0.18949 -1.26344,0.0764 -0.65108,-0.11314 -1.32343,-0.57019 -0.18898,-0.12847 -0.34133,-0.26393 -0.15483,-0.13181 -0.25602,-0.26437 l 0.47188,-0.69415 0.0363,0.0247 q 0.0683,0.12616 0.22637,0.30798 0.1605,0.17818 0.39673,0.33877 0.80318,0.546 1.58359,0.37509 0.78651,-0.17208 1.43483,-0.96946 -0.47634,-0.0262 -0.83365,-0.1416 -0.3573,-0.11537 -0.70983,-0.35501 -0.33436,-0.22729 -0.56246,-0.478 -0.22447,-0.24824 -0.36857,-0.62252 -0.16912,-0.4391 -0.10043,-0.8919 0.0723,-0.45033 0.39597,-0.92643 0.56329,-0.82862 1.46172,-0.97774 0.89844,-0.14912 1.68345,0.38452 0.39251,0.26682 0.64286,0.61768 0.25283,0.34722 0.33807,0.76119 0.10386,0.51165 -0.0526,1.10139 -0.154,0.5861 -0.66541,1.33841 z m -0.62789,-0.65533 q 0.38294,-0.56332 0.49887,-0.984 0.11594,-0.42069 0.0409,-0.74802 -0.0596,-0.27966 -0.20895,-0.48213 -0.14684,-0.20609 -0.3758,-0.36174 -0.52334,-0.35576 -1.05097,-0.2362 -0.524,0.12203 -0.9267,0.71442 -0.23471,0.34526 -0.28481,0.63003 -0.0501,0.28476 0.0713,0.60642 0.087,0.22384 0.25603,0.39723 0.17155,0.16975 0.41141,0.33281 0.28348,0.1927 0.62611,0.31403 0.34262,0.12132 0.69585,0.14889 0.0555,-0.0739 0.10856,-0.14407 0.0592,-0.0714 0.13821,-0.18767 z" />
  <path
     inkscape:connector-curvature="0"
     id="path903"
     style="font-style:normal;font-size:medium;text-anchor:middle;fill:none;fill-opacity:1;stroke:#000000;stroke-width:0.25;stroke-linecap:butt;stroke-linejoin:bevel;stroke-dasharray:none;stroke-opacity:1"
     d="m 120.52784,195.19775 -0.86861,-0.59047 0.70412,-1.03578 0.8686,0.59047 z" />
  <path
     inkscape:connector-curvature="0"
     style="fill:#000000;stroke:#000000;stroke-width:0.24999999;stroke-linecap:butt;stroke-linejoin:bevel;stroke-dasharray:none;stroke-opacity:1"
     id="path5571"
     d="m 74.555466,236.11517 14.106196,-1.00757 -12.216976,2.6449 -0.881652,12.46887 z"
     class="arrow" />
  <path
     d="m 85.208709,244.75443 -4.554712,1.86533 -0.386759,-0.94438 q 0.307901,-0.60097 0.615803,-1.20195 0.31242,-0.60282 0.558913,-1.17337 0.523366,-1.19576 0.642477,-1.81967 0.11726,-0.62843 -0.117757,-1.20229 -0.214661,-0.52415 -0.682874,-0.67536 -0.465546,-0.15759 -1.084589,0.0959 -0.411189,0.1684 -0.83094,0.50915 -0.419751,0.34075 -0.753991,0.82588 l -0.04519,0.0185 -0.38861,-0.9489 q 0.25605,-0.28953 0.735575,-0.63893 0.484044,-0.35125 0.985604,-0.55666 1.034751,-0.42377 1.827572,-0.16278 0.790972,0.25647 1.140721,1.11048 0.157295,0.38408 0.194825,0.75916 0.0402,0.36872 -0.02745,0.74467 -0.06149,0.35232 -0.189944,0.72151 -0.123934,0.36734 -0.327737,0.83599 -0.289182,0.67245 -0.621096,1.33075 -0.333764,0.65378 -0.625658,1.21654 l 3.619369,-1.48227 z"
     style="font-style:normal;font-size:medium;text-anchor:middle;fill:none;fill-opacity:1;stroke:#000000;stroke-width:0.25;stroke-linecap:butt;stroke-linejoin:bevel;stroke-dasharray:none;stroke-opacity:1"
     id="path906"
     inkscape:connector-curvature="0" />
  <path
     inkscape:connector-curvature="0"
     id="path909"
     style="font-style:normal;font-size:medium;text-anchor:middle;fill:none;fill-opacity:1;stroke:#000000;stroke-width:0.25;stroke-linecap:butt;stroke-linejoin:bevel;stroke-dasharray:none;stroke-opacity:1"
     d="m 69.344226,239.37985 -2.319762,2.67664 -0.504777,-0.43747 0.892217,-1.02948 -3.314254,-2.87236 -0.892216,1.02948 -0.451642,-0.39143 q 0.181321,-0.20921 0.355337,-0.4771 0.170695,-0.27076 0.210767,-0.4512 0.04937,-0.22471 -0.002,-0.42042 -0.05181,-0.20191 -0.256151,-0.40228 l 0.446108,-0.51473 4.456642,3.86243 0.874947,-1.00955 z" />
  <path
     inkscape:connector-curvature="0"
     id="path911"
     style="font-style:normal;font-size:medium;text-anchor:middle;fill:none;fill-opacity:1;stroke:#000000;stroke-width:0.25;stroke-linecap:butt;stroke-linejoin:bevel;stroke-dasharray:none;stroke-opacity:1"
     d="m 72.048332,233.44828 -0.636064,0.73392 1.391455,1.20593 -0.552599,0.63762 -1.391455,-1.20594 -2.052097,2.3678 -0.763806,-0.66196 -0.71443,-4.81199 0.529574,-0.61104 3.022014,2.61908 0.636064,-0.73391 z m -1.720006,0.91104 -2.231642,-1.9341 0.570968,3.85025 z" />
  <path
     inkscape:connector-curvature="0"
     id="path913"
     style="font-style:normal;font-size:medium;text-anchor:middle;fill:none;fill-opacity:1;stroke:#000000;stroke-width:0.25;stroke-linecap:butt;stroke-linejoin:bevel;stroke-dasharray:none;stroke-opacity:1"
     d="m 72.65119,229.98149 -0.68787,0.79369 -0.946455,-0.82026 0.68787,-0.7937 z m 2.762985,2.39459 -0.68787,0.7937 -0.946455,-0.82027 0.68787,-0.79369 z" />
  <path
     inkscape:connector-curvature="0"
     id="path915"
     style="font-style:normal;font-size:medium;text-anchor:middle;fill:none;fill-opacity:1;stroke:#000000;stroke-width:0.25;stroke-linecap:butt;stroke-linejoin:bevel;stroke-dasharray:none;stroke-opacity:1"
     d="m 79.777401,227.3416 -2.901142,3.34747 -0.694067,-0.60153 q 0.0033,-0.60772 0.0066,-1.21545 0.0062,-0.61104 -0.02745,-1.1694 -0.06509,-1.17294 -0.22272,-1.72244 -0.160952,-0.55237 -0.582706,-0.9179 -0.385223,-0.33386 -0.822697,-0.26523 -0.437916,0.0624 -0.832218,0.5174 -0.261908,0.3022 -0.46072,0.74632 -0.198812,0.44411 -0.270323,0.96948 l -0.02878,0.0332 -0.697388,-0.6044 q 0.08812,-0.33652 0.331427,-0.81185 0.24619,-0.47865 0.565661,-0.84727 0.659089,-0.76048 1.401864,-0.87273 0.739453,-0.11512 1.367103,0.42884 0.282276,0.24464 0.464703,0.53068 0.181985,0.27984 0.280283,0.60928 0.09365,0.30795 0.140363,0.65665 0.04959,0.34537 0.07616,0.80454 0.04074,0.65754 0.0414,1.32106 -0.0027,0.66063 -0.0086,1.23116 l 2.305372,-2.66003 z" />
  <path
     inkscape:connector-curvature="0"
     id="path918"
     style="font-style:normal;font-size:medium;text-anchor:middle;fill:none;fill-opacity:1;stroke:#000000;stroke-width:0.24999987;stroke-linecap:butt;stroke-linejoin:bevel;stroke-dasharray:none;stroke-opacity:1"
     d="m 126.96026,522.03416 q -0.45703,-0.003 -0.87332,-0.17314 -0.4163,-0.16992 -0.69989,-0.46197 -0.30539,-0.31856 -0.46928,-0.75918 -0.15954,-0.43619 -0.15549,-1.01186 0.004,-0.53612 0.12152,-1.03188 0.11336,-0.4958 0.27397,-0.83745 l 0.92722,0.007 -4.3e-4,0.0615 q -0.23105,0.35874 -0.39704,0.84098 -0.1616,0.48227 -0.16488,0.94808 -0.002,0.31201 0.0837,0.60266 0.0858,0.29504 0.30393,0.5251 0.1876,0.19468 0.45058,0.29321 0.26296,0.10293 0.61012,0.10537 0.33837,0.002 0.57211,-0.11463 0.2337,-0.11261 0.37578,-0.31816 0.16859,-0.22734 0.23683,-0.55646 0.0726,-0.32469 0.0754,-0.72898 0.003,-0.3867 -0.0475,-0.74742 -0.0502,-0.35632 -0.10114,-0.61596 l 3.37052,0.0237 -0.0277,3.93741 -0.76902,-0.005 0.0217,-3.08928 -1.74019,-0.0122 q 0.0163,0.18909 0.0236,0.3869 0.007,0.19781 0.006,0.34283 -0.004,0.53172 -0.0988,0.93096 -0.0907,0.39928 -0.32156,0.73165 -0.24416,0.34985 -0.62784,0.54052 -0.38367,0.19066 -0.95934,0.18661 z" />
  <path
     inkscape:connector-curvature="0"
     id="path920"
     style="font-style:normal;font-size:medium;text-anchor:middle;fill:none;fill-opacity:1;stroke:#000000;stroke-width:0.24999987;stroke-linecap:butt;stroke-linejoin:bevel;stroke-dasharray:none;stroke-opacity:1"
     d="m 128.51522,525.26198 0.007,-1.05027 1.25241,0.009 -0.007,1.05027 z m -3.65616,-0.0257 0.007,-1.05027 1.25241,0.009 -0.007,1.05027 z" />
  <path
     inkscape:connector-curvature="0"
     id="path922"
     style="font-style:normal;font-size:medium;text-anchor:middle;fill:none;fill-opacity:1;stroke:#000000;stroke-width:0.24999987;stroke-linecap:butt;stroke-linejoin:bevel;stroke-dasharray:none;stroke-opacity:1"
     d="m 126.89112,531.8601 q -0.45702,-0.003 -0.87331,-0.17315 -0.4163,-0.16992 -0.69989,-0.46196 -0.30539,-0.31857 -0.46928,-0.75918 -0.15954,-0.43619 -0.15549,-1.01186 0.004,-0.53612 0.12152,-1.03189 0.11336,-0.4958 0.27397,-0.83745 l 0.92722,0.007 -4.3e-4,0.0615 q -0.23105,0.35873 -0.39704,0.84097 -0.1616,0.48228 -0.16488,0.94809 -0.002,0.312 0.0837,0.60265 0.0858,0.29505 0.30393,0.5251 0.1876,0.19469 0.45058,0.29322 0.26296,0.10293 0.61012,0.10537 0.33837,0.002 0.57211,-0.11463 0.2337,-0.11262 0.37578,-0.31817 0.16859,-0.22733 0.23683,-0.55645 0.0726,-0.32469 0.0754,-0.72898 0.003,-0.38671 -0.0475,-0.74742 -0.0502,-0.35632 -0.10114,-0.61597 l 3.37052,0.0237 -0.0277,3.9374 -0.76902,-0.005 0.0217,-3.08928 -1.74019,-0.0122 q 0.0163,0.18908 0.0236,0.38689 0.007,0.19781 0.006,0.34283 -0.004,0.53173 -0.0988,0.93097 -0.0907,0.39927 -0.32156,0.73164 -0.24416,0.34986 -0.62784,0.54052 -0.38367,0.19067 -0.95935,0.18662 z" />
  <path
     inkscape:connector-curvature="0"
     id="path925"
     style="font-style:normal;font-size:medium;text-anchor:middle;fill:none;fill-opacity:1;stroke:#000000;stroke-width:0.25;stroke-linecap:butt;stroke-linejoin:bevel;stroke-dasharray:none;stroke-opacity:1"
     d="m 95.444246,568.21613 -0.02492,3.5419 -0.667952,-0.005 0.0096,-1.36227 -4.385633,-0.0308 -0.0096,1.36227 -0.597642,-0.004 q 0.0019,-0.27685 -0.03977,-0.59356 -0.04611,-0.31674 -0.132857,-0.47995 -0.108439,-0.20292 -0.274623,-0.31835 -0.170548,-0.11985 -0.456062,-0.13944 l 0.0048,-0.68113 5.897315,0.0415 0.0094,-1.3359 z" />
  <path
     inkscape:connector-curvature="0"
     id="path927"
     style="font-style:normal;font-size:medium;text-anchor:middle;fill:none;fill-opacity:1;stroke:#000000;stroke-width:0.25;stroke-linecap:butt;stroke-linejoin:bevel;stroke-dasharray:none;stroke-opacity:1"
     d="m 92.332334,562.66578 q 0.190444,-0.2096 0.477039,-0.34382 0.286596,-0.13422 0.739222,-0.13104 0.448231,0.003 0.820613,0.16838 0.372382,0.16522 0.647159,0.46159 0.305292,0.33175 0.451549,0.78103 0.141894,0.44486 0.138153,0.97658 -0.0038,0.54491 -0.139375,1.07131 -0.131148,0.52644 -0.287333,0.86373 l -0.918434,-0.006 4.63e-4,-0.0659 q 0.248715,-0.37179 0.414864,-0.87601 0.166149,-0.50421 0.169456,-0.97442 0.0019,-0.27685 -0.08814,-0.5895 -0.09009,-0.31265 -0.268899,-0.50727 -0.191933,-0.20351 -0.424157,-0.30182 -0.232194,-0.10271 -0.588142,-0.10522 -0.351554,-0.002 -0.580868,0.11018 -0.233677,0.10822 -0.366901,0.30504 -0.137618,0.19679 -0.187935,0.47769 -0.05471,0.28088 -0.057,0.60606 l -0.0028,0.3955 -0.729474,-0.005 0.0022,-0.30761 q 0.0047,-0.66795 -0.269367,-1.0654 -0.27843,-0.40187 -0.81455,-0.40564 -0.237299,-0.002 -0.413787,0.0982 -0.180882,0.0998 -0.296404,0.27917 -0.115585,0.18816 -0.161044,0.40317 -0.04546,0.21502 -0.04738,0.48747 -0.0029,0.41747 0.143166,0.88873 0.146103,0.47125 0.41562,0.89064 l -3.09e-4,0.0439 -0.918434,-0.006 q -0.15161,-0.31308 -0.275401,-0.83252 -0.128154,-0.52386 -0.124722,-1.01165 0.0034,-0.47899 0.09382,-0.84311 0.09045,-0.36412 0.28588,-0.65718 0.213158,-0.31492 0.513122,-0.47541 0.299965,-0.16049 0.699857,-0.15768 0.544909,0.004 0.95087,0.39342 0.401597,0.38516 0.503384,0.90884 l 0.06152,4.3e-4 q 0.03664,-0.21068 0.152811,-0.48233 0.111777,-0.27169 0.280094,-0.45947 z" />
  <path
     inkscape:connector-curvature="0"
     id="path929"
     style="font-style:normal;font-size:medium;text-anchor:middle;fill:none;fill-opacity:1;stroke:#000000;stroke-width:0.25;stroke-linecap:butt;stroke-linejoin:bevel;stroke-dasharray:none;stroke-opacity:1"
     d="m 91.853282,558.92257 -0.0074,1.05027 -1.252411,-0.009 0.0074,-1.05027 z m 3.656159,0.0257 -0.0074,1.05027 -1.25241,-0.009 0.0074,-1.05027 z" />
  <path
     inkscape:connector-curvature="0"
     id="path931"
     style="font-style:normal;font-size:medium;text-anchor:middle;fill:none;fill-opacity:1;stroke:#000000;stroke-width:0.25;stroke-linecap:butt;stroke-linejoin:bevel;stroke-dasharray:none;stroke-opacity:1"
     d="m 92.401455,552.83985 q 0.190444,-0.2096 0.477039,-0.34382 0.286596,-0.13422 0.739222,-0.13103 0.448231,0.003 0.820613,0.16837 0.372382,0.16522 0.64716,0.46159 0.305291,0.33175 0.451548,0.78103 0.141894,0.44486 0.138153,0.97658 -0.0038,0.54491 -0.139375,1.07132 -0.131148,0.52643 -0.287333,0.86372 l -0.918434,-0.006 4.63e-4,-0.0659 q 0.248716,-0.37179 0.414864,-0.87601 0.166149,-0.50421 0.169456,-0.97442 0.0019,-0.27684 -0.08814,-0.5895 -0.09009,-0.31265 -0.268899,-0.50727 -0.191933,-0.20351 -0.424157,-0.30182 -0.232194,-0.10271 -0.588142,-0.10522 -0.351554,-0.002 -0.580867,0.11018 -0.233678,0.10822 -0.366901,0.30504 -0.137618,0.19679 -0.187936,0.4777 -0.05471,0.28087 -0.057,0.60606 l -0.0028,0.39549 -0.729474,-0.005 0.0022,-0.30761 q 0.0047,-0.66795 -0.269367,-1.0654 -0.27843,-0.40187 -0.81455,-0.40564 -0.237299,-0.002 -0.413787,0.0982 -0.180882,0.0998 -0.296404,0.27917 -0.115585,0.18816 -0.161043,0.40317 -0.04546,0.21502 -0.04738,0.48748 -0.0029,0.41747 0.143166,0.88872 0.146103,0.47125 0.41562,0.89064 l -3.09e-4,0.0439 -0.918434,-0.006 q -0.15161,-0.31308 -0.275401,-0.83252 -0.128154,-0.52386 -0.124722,-1.01164 0.0034,-0.479 0.09382,-0.84312 0.09045,-0.36411 0.28588,-0.65718 0.213158,-0.31491 0.513122,-0.47541 0.299965,-0.16049 0.699857,-0.15767 0.544909,0.004 0.95087,0.39341 0.401597,0.38516 0.503385,0.90884 l 0.06152,4.3e-4 q 0.03664,-0.21068 0.152811,-0.48233 0.111777,-0.27168 0.280094,-0.45947 z" />
  <path
     inkscape:connector-curvature="0"
     style="fill:#000000;stroke:#000000;stroke-width:0.25;stroke-linecap:butt;stroke-linejoin:bevel;stroke-dasharray:none;stroke-opacity:1"
     id="path5591"
     d="m 47.832389,477.45983 10.070107,-9.9294 -7.570169,9.94699 7.429461,10.05252 z"
     class="arrow" />
  <path
     d="m 58.765453,477.27064 q 0.296463,0.10547 0.556823,0.34181 0.26036,0.23634 0.450964,0.70175 0.188753,0.4609 0.178861,0.91344 -0.0099,0.45255 -0.196052,0.86121 -0.209356,0.45508 -0.607331,0.79747 -0.395308,0.33602 -0.942054,0.55993 -0.560302,0.22946 -1.158045,0.31597 -0.595893,0.091 -1.008591,0.0754 l -0.38676,-0.94438 0.06778,-0.0278 q 0.487707,0.0957 1.075811,0.0501 0.588104,-0.0456 1.071591,-0.24363 0.284669,-0.11658 0.566626,-0.34286 0.281957,-0.22628 0.404902,-0.49296 0.126431,-0.28394 0.127761,-0.56414 0.0058,-0.28204 -0.144043,-0.64805 -0.148042,-0.36148 -0.361752,-0.54833 -0.211042,-0.19323 -0.469893,-0.24551 -0.260702,-0.0568 -0.570246,0.0119 -0.311394,0.0642 -0.645768,0.20115 l -0.406671,0.16655 -0.307187,-0.75009 0.3163,-0.12953 q 0.686821,-0.28128 0.976909,-0.7325 0.292755,-0.45758 0.06699,-1.00885 -0.09993,-0.244 -0.277876,-0.38218 -0.179799,-0.1427 -0.413173,-0.18431 -0.242412,-0.0379 -0.482327,0.008 -0.239915,0.0455 -0.520066,0.16022 -0.429263,0.1758 -0.849832,0.52744 -0.420568,0.35164 -0.735099,0.80759 l -0.04519,0.0185 -0.386759,-0.94438 q 0.256049,-0.28954 0.735574,-0.63894 0.482194,-0.35577 0.983754,-0.56117 0.492523,-0.20171 0.904575,-0.26493 0.412051,-0.0632 0.796218,0.0116 0.414161,0.0836 0.707184,0.32244 0.293023,0.23879 0.46142,0.64998 0.229466,0.56031 0.0039,1.14338 -0.222867,0.5767 -0.716163,0.90536 l 0.02591,0.0633 q 0.231696,-0.0527 0.55996,-0.0499 0.326414,-0.002 0.591033,0.0904 z"
     style="font-style:normal;font-size:medium;text-anchor:middle;fill:none;fill-opacity:1;stroke:#000000;stroke-width:0.25;stroke-linecap:butt;stroke-linejoin:bevel;stroke-dasharray:none;stroke-opacity:1"
     id="path934"
     inkscape:connector-curvature="0" />
  <path
     inkscape:connector-curvature="0"
     id="path937"
     style="font-style:normal;font-size:medium;text-anchor:middle;fill:none;fill-opacity:1;stroke:#000000;stroke-width:0.25;stroke-linecap:butt;stroke-linejoin:bevel;stroke-dasharray:none;stroke-opacity:1"
     d="m 42.33724,481.70609 q 0.856913,0.006 1.554234,0.20869 0.697353,0.19827 1.186746,0.59723 0.49815,0.40342 0.766369,1.00737 0.268218,0.60396 0.262498,1.41692 -0.0016,0.22851 -0.0294,0.43047 -0.0234,0.20199 -0.07724,0.35982 l -0.839335,-0.006 3.1e-4,-0.0439 q 0.06681,-0.12698 0.129973,-0.35945 0.05877,-0.2325 0.06078,-0.51814 0.0068,-0.97116 -0.569366,-1.52455 -0.580562,-0.55781 -1.603844,-0.6529 0.243212,0.41041 0.346143,0.7715 0.10293,0.36108 0.09993,0.78734 -0.0028,0.40429 -0.08426,0.73331 -0.08139,0.32463 -0.312217,0.65261 -0.27078,0.38482 -0.685247,0.57966 -0.414436,0.19045 -0.990106,0.1864 -1.001928,-0.007 -1.625693,-0.67063 -0.623764,-0.66359 -0.617086,-1.61278 0.0033,-0.4746 0.155594,-0.87784 0.147861,-0.40326 0.44442,-0.70441 0.367366,-0.37096 0.944457,-0.56905 0.572697,-0.19812 1.482342,-0.19172 z m -0.195205,0.88634 q -0.681136,-0.005 -1.095201,0.13292 -0.414065,0.13772 -0.644307,0.3822 -0.199202,0.20515 -0.284365,0.44186 -0.08956,0.23668 -0.09151,0.51353 -0.0045,0.63279 0.388449,1.00471 0.392932,0.36752 1.109223,0.37256 0.41747,0.003 0.68197,-0.11386 0.2645,-0.1168 0.464228,-0.39665 0.137618,-0.19679 0.187627,-0.43375 0.04561,-0.23699 0.04765,-0.52702 0.0024,-0.34276 -0.0874,-0.69497 -0.08981,-0.3522 -0.263422,-0.66105 -0.09225,-0.005 -0.180109,-0.01 -0.09222,-0.009 -0.232843,-0.0104 z" />
  <path
     inkscape:connector-curvature="0"
     id="path939"
     style="font-style:normal;font-size:medium;text-anchor:middle;fill:none;fill-opacity:1;stroke:#000000;stroke-width:0.25;stroke-linecap:butt;stroke-linejoin:bevel;stroke-dasharray:none;stroke-opacity:1"
     d="m 46.021636,478.96778 -0.0074,1.05027 -1.252411,-0.009 0.0074,-1.05027 z" />
  <path
     inkscape:connector-curvature="0"
     id="path941"
     style="font-style:normal;font-size:medium;text-anchor:middle;fill:none;fill-opacity:1;stroke:#000000;stroke-width:0.25;stroke-linecap:butt;stroke-linejoin:bevel;stroke-dasharray:none;stroke-opacity:1"
     d="m 42.391356,475.26393 -0.0074,1.05026 -1.25241,-0.009 0.0074,-1.05027 z m 3.656159,0.0257 -0.0074,1.05027 -1.252411,-0.009 0.0074,-1.05026 z" />
  <path
     inkscape:connector-curvature="0"
     id="path943"
     style="font-style:normal;font-size:medium;text-anchor:middle;fill:none;fill-opacity:1;stroke:#000000;stroke-width:0.25;stroke-linecap:butt;stroke-linejoin:bevel;stroke-dasharray:none;stroke-opacity:1"
     d="m 42.939537,469.18121 q 0.190444,-0.20961 0.47704,-0.34382 0.286596,-0.13422 0.739221,-0.13104 0.448231,0.003 0.820613,0.16838 0.372382,0.16522 0.647159,0.46159 0.305291,0.33175 0.451548,0.78103 0.141893,0.44486 0.138152,0.97658 -0.0038,0.54491 -0.139377,1.07132 -0.131149,0.52643 -0.287334,0.86372 l -0.918435,-0.006 4.64e-4,-0.0659 q 0.248716,-0.37179 0.414865,-0.87601 0.16615,-0.50421 0.169458,-0.97442 0.0019,-0.27685 -0.08814,-0.5895 -0.09009,-0.31265 -0.268899,-0.50727 -0.191932,-0.20351 -0.424156,-0.30182 -0.232193,-0.10271 -0.588142,-0.10522 -0.351553,-0.002 -0.580867,0.11018 -0.233677,0.10822 -0.366902,0.30504 -0.137618,0.19679 -0.187935,0.47769 -0.05471,0.28087 -0.057,0.60606 l -0.0028,0.3955 -0.729474,-0.005 0.0022,-0.30761 q 0.0047,-0.66796 -0.269367,-1.0654 -0.278429,-0.40187 -0.814549,-0.40564 -0.237298,-0.002 -0.413787,0.0982 -0.180882,0.0998 -0.296405,0.27917 -0.115584,0.18816 -0.161043,0.40318 -0.04546,0.21501 -0.04738,0.48747 -0.0029,0.41747 0.143165,0.88872 0.146102,0.47126 0.415619,0.89064 l -3.1e-4,0.0439 -0.918434,-0.006 q -0.151609,-0.31309 -0.275399,-0.83253 -0.128154,-0.52386 -0.124722,-1.01164 0.0034,-0.479 0.09383,-0.84311 0.09045,-0.36412 0.28588,-0.65719 0.213159,-0.31491 0.513124,-0.4754 0.299964,-0.1605 0.699857,-0.15768 0.544908,0.004 0.950868,0.39342 0.401597,0.38516 0.503384,0.90883 l 0.06152,4.4e-4 q 0.03664,-0.21069 0.152811,-0.48234 0.111778,-0.27168 0.280095,-0.45946 z" />
  <path
     inkscape:connector-curvature="0"
     id="path946"
     style="font-style:normal;font-size:medium;text-anchor:middle;fill:none;fill-opacity:1;stroke:#000000;stroke-width:0.25;stroke-linecap:butt;stroke-linejoin:bevel;stroke-dasharray:none;stroke-opacity:1"
     d="m 115.54225,566.40482 q -0.4669,-0.70806 -0.22258,-1.54296 0.24065,-0.83247 1.07712,-1.38404 0.88783,-0.58544 1.71852,-0.47522 0.82702,0.11265 1.29876,0.82805 0.29998,0.45492 0.27775,0.99597 -0.0198,0.54472 -0.35768,1.07809 l 0.0145,0.022 q 0.59507,-0.0555 0.99172,0.083 0.39297,0.14092 0.66876,0.55916 0.40642,0.61634 0.17109,1.36108 -0.23534,0.74475 -1.01677,1.26003 -0.81813,0.53948 -1.56492,0.46868 -0.74679,-0.0708 -1.14595,-0.67614 -0.24434,-0.37054 -0.25029,-0.88248 -0.004,-0.50827 0.31099,-1.00519 l -0.0145,-0.022 q -0.65877,0.11857 -1.14315,-0.0253 -0.48437,-0.14383 -0.81338,-0.64277 z m 2.62823,2.09381 q 0.25886,0.39255 0.71577,0.42288 0.45566,0.0364 0.92526,-0.27323 0.46225,-0.30481 0.61427,-0.72089 0.14834,-0.41366 -0.0984,-0.78787 -0.17418,-0.26414 -0.44915,-0.36182 -0.27621,-0.0916 -0.67624,-0.0436 -0.17928,0.0235 -0.50258,0.084 -0.32697,0.063 -0.61507,0.15291 -0.20353,0.48163 -0.17118,0.83404 0.0323,0.35241 0.25733,0.6936 z m -1.91844,-2.66187 q 0.22257,0.33752 0.50604,0.44012 0.28222,0.10868 0.8506,0.0287 0.22566,-0.033 0.47707,-0.0988 0.25141,-0.0658 0.67485,-0.16602 0.21165,-0.39749 0.21022,-0.83872 -0.005,-0.4388 -0.26154,-0.82769 -0.32659,-0.49527 -0.88067,-0.59314 -0.55408,-0.0979 -1.0787,0.24808 -0.53563,0.35321 -0.67337,0.83883 -0.14141,0.48804 0.1755,0.96864 z" />
  <path
     inkscape:connector-curvature="0"
     id="path948"
     style="font-style:normal;font-size:medium;text-anchor:middle;fill:none;fill-opacity:1;stroke:#000000;stroke-width:0.25;stroke-linecap:butt;stroke-linejoin:bevel;stroke-dasharray:none;stroke-opacity:1"
     d="m 113.94993,569.64987 0.87683,-0.57818 0.68946,1.04558 -0.87682,0.57819 z m -2.01276,-3.05237 0.87683,-0.57818 0.68946,1.04558 -0.87682,0.57819 z" />
  <path
     inkscape:connector-curvature="0"
     id="path950"
     style="font-style:normal;font-size:medium;text-anchor:middle;fill:none;fill-opacity:1;stroke:#000000;stroke-width:0.25;stroke-linecap:butt;stroke-linejoin:bevel;stroke-dasharray:none;stroke-opacity:1"
     d="m 108.40034,573.31986 q -0.47174,-0.7154 -0.6913,-1.40759 -0.22322,-0.68977 -0.16399,-1.31839 0.0581,-0.63838 0.41069,-1.19727 0.35263,-0.55889 1.03134,-1.00644 0.19077,-0.1258 0.37405,-0.21507 0.18085,-0.0929 0.34196,-0.136 l 0.46206,0.70072 -0.0367,0.0242 q -0.14268,0.0151 -0.37099,0.092 -0.22589,0.0805 -0.46435,0.23778 -0.81079,0.53463 -0.95005,1.3213 -0.1405,0.79276 0.34979,1.69595 0.20572,-0.43043 0.44849,-0.71685 0.24278,-0.28642 0.59864,-0.52108 0.33752,-0.22257 0.65622,-0.33797 0.31503,-0.11298 0.71598,-0.10365 0.47042,0.0109 0.86292,0.2469 0.38882,0.23841 0.70574,0.71902 0.55157,0.83646 0.34721,1.72397 -0.20437,0.8875 -0.99681,1.41004 -0.39622,0.26127 -0.81599,0.3591 -0.41736,0.1015 -0.83259,0.0226 -0.51263,-0.0989 -0.9983,-0.46819 -0.48326,-0.36565 -0.98403,-1.12507 z m 0.84511,-0.33092 q 0.37497,0.56865 0.71977,0.83609 0.3448,0.26745 0.67605,0.32274 0.28129,0.0514 0.52537,-0.01 0.24649,-0.0573 0.47762,-0.20967 0.5283,-0.34836 0.61874,-0.88175 0.0868,-0.53098 -0.30755,-1.12898 -0.22982,-0.34853 -0.47403,-0.50333 -0.2442,-0.15481 -0.58787,-0.16507 -0.24008,-0.005 -0.4648,0.0854 -0.22231,0.094 -0.46444,0.25362 -0.28616,0.18869 -0.52885,0.45927 -0.2427,0.27058 -0.40274,0.58667 0.0471,0.0795 0.0919,0.15526 0.0435,0.0819 0.12088,0.19928 z" />
  <path
     inkscape:connector-curvature="0"
     id="path952"
     style="font-style:normal;font-size:medium;text-anchor:middle;fill:none;fill-opacity:1;stroke:#000000;stroke-width:0.25;stroke-linecap:butt;stroke-linejoin:bevel;stroke-dasharray:none;stroke-opacity:1"
     d="m 104.07512,571.78182 0.87682,-0.57819 0.68947,1.04558 -0.87682,0.57819 z" />
  <path
     inkscape:connector-curvature="0"
     style="fill:#000000;stroke:#000000;stroke-width:0.25;stroke-linecap:butt;stroke-linejoin:bevel;stroke-dasharray:none;stroke-opacity:1"
     id="path5607"
     d="m 72.550703,521.0771 1.205926,-14.09063 0.706143,12.48004 12.178557,2.81652 z"
     class="arrow" />
  <path
     d="m 82.664458,516.06767 -0.998602,0.40896 0.77537,1.89328 -0.867564,0.3553 -0.775371,-1.89327 -3.221735,1.31942 -0.425621,-1.03927 1.703442,-5.12982 0.831416,-0.3405 1.683978,4.11189 0.998603,-0.40896 z m -2.162251,0.0413 -1.243553,-3.03648 -1.363658,4.10423 z"
     style="font-style:normal;font-size:medium;text-anchor:middle;fill:none;fill-opacity:1;stroke:#000000;stroke-width:0.25;stroke-linecap:butt;stroke-linejoin:bevel;stroke-dasharray:none;stroke-opacity:1"
     id="path955"
     inkscape:connector-curvature="0" />
  <path
     inkscape:connector-curvature="0"
     id="path958"
     style="font-style:normal;font-size:medium;text-anchor:middle;fill:none;fill-opacity:1;stroke:#000000;stroke-width:0.25;stroke-linecap:butt;stroke-linejoin:bevel;stroke-dasharray:none;stroke-opacity:1"
     d="m 74.962028,526.73377 2.281875,2.70902 -0.510881,0.43032 -0.877644,-1.04192 -3.354337,2.82544 0.877644,1.04193 -0.457104,0.38503 q -0.17836,-0.21174 -0.41581,-0.42543 -0.240812,-0.21085 -0.412784,-0.27859 -0.214257,-0.0838 -0.415587,-0.0636 -0.207521,0.0197 -0.437314,0.19025 l -0.438822,-0.52097 4.510541,-3.79935 -0.860658,-1.02176 z" />
  <path
     inkscape:connector-curvature="0"
     id="path960"
     style="font-style:normal;font-size:medium;text-anchor:middle;fill:none;fill-opacity:1;stroke:#000000;stroke-width:0.25;stroke-linecap:butt;stroke-linejoin:bevel;stroke-dasharray:none;stroke-opacity:1"
     d="m 68.990611,524.53547 q 0.0086,-0.28307 0.139337,-0.57129 0.130704,-0.28821 0.476893,-0.57982 0.342829,-0.28877 0.73327,-0.40506 0.390441,-0.11628 0.791872,-0.0694 0.447607,0.0539 0.850657,0.30047 0.396857,0.24604 0.739421,0.65273 0.351058,0.41677 0.589959,0.90503 0.242263,0.48543 0.342621,0.84332 l -0.702461,0.5917 -0.04247,-0.0504 q -0.05242,-0.44423 -0.253643,-0.93551 -0.201219,-0.49127 -0.504148,-0.8509 -0.17836,-0.21175 -0.449951,-0.39093 -0.271591,-0.17918 -0.533963,-0.21099 -0.278118,-0.03 -0.518538,0.0461 -0.243252,0.0727 -0.515498,0.30207 -0.268885,0.22648 -0.370051,0.46109 -0.107358,0.23408 -0.08079,0.47026 0.02321,0.23901 0.167427,0.48526 0.140858,0.24908 0.350361,0.4978 l 0.254799,0.30249 -0.557935,0.46997 -0.198178,-0.23528 q -0.430329,-0.51088 -0.896875,-0.63501 -0.472739,-0.12467 -0.882788,0.22073 -0.181498,0.15288 -0.250825,0.34343 -0.07269,0.19338 -0.044,0.40479 0.03435,0.21813 0.139464,0.41114 0.105114,0.193 0.280643,0.40138 0.268955,0.3193 0.68616,0.58268 0.417205,0.26338 0.894546,0.40715 l 0.02831,0.0336 -0.702461,0.5917 q -0.318646,-0.13955 -0.750188,-0.45405 -0.437734,-0.31503 -0.751987,-0.68811 -0.308591,-0.36635 -0.476352,-0.70195 -0.167761,-0.33559 -0.209559,-0.68535 -0.04251,-0.37788 0.08129,-0.69476 0.123801,-0.31687 0.429657,-0.57451 0.416771,-0.35105 0.978488,-0.31857 0.555524,0.0319 0.973091,0.36397 l 0.04706,-0.0396 q -0.109005,-0.18398 -0.197147,-0.46597 -0.0915,-0.27917 -0.08552,-0.53127 z" />
  <path
     inkscape:connector-curvature="0"
     id="path962"
     style="font-style:normal;font-size:medium;text-anchor:middle;fill:none;fill-opacity:1;stroke:#000000;stroke-width:0.25;stroke-linecap:butt;stroke-linejoin:bevel;stroke-dasharray:none;stroke-opacity:1"
     d="m 66.194814,522.00078 0.676636,0.8033 -0.957902,0.80686 -0.676635,-0.80329 z m 2.796401,-2.35548 0.676636,0.80329 -0.957902,0.80687 -0.676635,-0.80329 z" />
  <path
     inkscape:connector-curvature="0"
     id="path964"
     style="font-style:normal;font-size:medium;text-anchor:middle;fill:none;fill-opacity:1;stroke:#000000;stroke-width:0.25;stroke-linecap:butt;stroke-linejoin:bevel;stroke-dasharray:none;stroke-opacity:1"
     d="m 63.19471,515.62189 0.625676,0.7428 1.408283,-1.18624 0.543574,0.64532 -1.408284,1.18624 2.018582,2.39644 -0.773044,0.65115 -4.86452,-0.0452 -0.520924,-0.61843 3.058563,-2.57632 -0.625675,-0.74279 z m 0.63148,1.8411 -2.258632,1.9025 3.892182,0.0368 z" />
</svg>
