<?xml version="1.0" encoding="UTF-8" standalone="no"?>
<svg
   version="1.1"
   width="300.00mm"
   height="600.00mm"
   viewBox="0 0 300.00 600.00"
   id="svg5697"
   sodipodi:docname="bottom_page6.svg"
   inkscape:version="1.1.1 (c3084ef, 2021-09-22)"
   xmlns:inkscape="http://www.inkscape.org/namespaces/inkscape"
   xmlns:sodipodi="http://sodipodi.sourceforge.net/DTD/sodipodi-0.dtd"
   xmlns="http://www.w3.org/2000/svg"
   xmlns:svg="http://www.w3.org/2000/svg">
  <defs
     id="defs5701" />
  <sodipodi:namedview
     id="namedview5699"
     pagecolor="#ffffff"
     bordercolor="#666666"
     borderopacity="1.0"
     inkscape:pageshadow="2"
     inkscape:pageopacity="0.0"
     inkscape:pagecheckerboard="0"
     inkscape:document-units="mm"
     showgrid="false"
     inkscape:zoom="0.35057292"
     inkscape:cx="566.21601"
     inkscape:cy="1133.8583"
     inkscape:window-width="1296"
     inkscape:window-height="975"
     inkscape:window-x="0"
     inkscape:window-y="25"
     inkscape:window-maximized="0"
     inkscape:current-layer="svg5697" />
  <style
     type="text/css"
     id="style5537">
    path {
        fill: none;
        stroke-linecap: butt;
        stroke-linejoin: bevel;
        stroke-dasharray: none;
    }
    path.outer {
        stroke: #000000;
        stroke-dasharray: none;
        stroke-dashoffset: 0;
        stroke-width: 0.3;
        stroke-opacity: 1.0;
    }
    path.convex {
        stroke: #000000;
        stroke-dasharray: 0.50,1.00;
        stroke-dashoffset:0;
        stroke-width:0.2;
        stroke-opacity: 1.0
    }
    path.concave {
        stroke: #000000;
        stroke-dasharray: 1.00,0.50,0.20,0.50;
        stroke-dashoffset: 0;
        stroke-width: 0.2;
        stroke-opacity: 1.0
    }
    path.freestyle {
        stroke: #000000;
        stroke-dasharray: none;
        stroke-dashoffset: 0;
        stroke-width: 0.2;
        stroke-opacity: 1.0
    }
    path.outer_background {
        stroke: #ffffff;
        stroke-opacity: 1.0;
        stroke-width: 0.5
    }
    path.inner_background {
        stroke: #ffffff;
        stroke-opacity: 1.0;
        stroke-width: 0.2
    }
    path.sticker {
        fill: #e5e5e5;
        stroke: none;
        fill-opacity: 1.0;
    }
    path.arrow {
        fill: #000000;
    }
    text {
        font-style: normal;
        fill: #000000;
        fill-opacity: 1.0;
        stroke: none;
    }
    text, tspan {
        text-anchor:middle;
    }
    </style>
  <g
     id="g5619"
     transform="translate(127.00002)">
    <g
       id="g6057"
       transform="rotate(-23.104219,116.3906,339.47378)">
      <text
         style="font-size:10px"
         id="text5541"
         x="105.01573"
         y="347.04221"><tspan
           id="tspan5539">[4] I 4</tspan></text>
      <path
         class="sticker"
         d="m 140.37286,372.73631 9.16656,3.99985 -12.4237,29.73759 -9.28767,-3.70994 z m 20.17857,-48.2998 9.16657,3.99983 -10.6138,25.40539 -9.2877,-3.70993 z m 10.91251,-26.12039 9.16655,3.99983 -10.79137,25.8305 -9.28769,-3.70994 z m 25.1001,-60.08014 8.46742,5.67334 -24.27983,58.11671 -9.28769,-3.70991 z m -46.74754,111.89582 9.16659,3.99985 -9.32254,22.31461 -9.28769,-3.70995 z m 20.68793,-115.69932 -9.16659,-3.99983 8.98321,-21.50234 9.28769,3.70994 z m -112.397347,139.20354 -9.166576,-3.99983 12.423686,-29.73761 9.287693,3.70994 z m 21.988459,-52.63202 -9.166576,-3.99983 10.613799,-25.40538 9.287692,3.70994 z m -9.443656,22.60452 -9.166568,-3.99986 9.322531,-22.31457 9.287693,3.70991 z m 20.178571,-48.29979 -9.166576,-3.99983 10.791399,-25.83053 9.28768,3.70994 z m 88.778283,-82.66848 8.42352,-5.39157 16.78181,25.33379 -8.25003,5.65351 z m -77.86578,56.54806 -4.370833,-8.99556 68.481053,-34.61409 4.65125,8.85382 z m 26.08509,133.5755 9.16657,3.99984 -12.4237,29.73761 -9.28769,-3.70993 z m -21.98847,52.63203 9.16657,3.99983 -10.6138,25.40539 -9.287681,-3.70994 z m -10.734911,25.69528 9.166571,3.99985 -10.791401,25.83049 -9.287685,-3.70993 z m -10.912515,26.12041 9.166569,3.99983 -24.279878,58.11675 -9.98684,-2.03643 z m 31.091076,-74.4202 9.16656,3.99983 -9.32253,22.31461 -9.28768,-3.70993 z m -86.31591,140.42711 -9.166572,-3.99983 8.983195,-21.50239 9.287687,3.70993 z m 16.594948,-169.55494 -9.166572,-3.99983 12.423694,-29.73758 9.287693,3.70993 z m -20.178567,48.29979 -9.166571,-3.99985 10.613801,-25.40538 9.287687,3.70993 z m 10.734917,-25.6953 -9.16657,-3.99983 9.322539,-22.31459 9.287681,3.70993 z m -21.647437,51.81567 -9.16657,-3.99982 10.791406,-25.8305 9.287684,3.70995 z m 44.620824,89.20802 1.77627,9.84223 -29.816413,5.86612 -2.084542,-9.78159 z M 38.07163,551.42615 28.504209,554.33977 5,481.29637 l 9.471181,-3.21271 z"
         id="path5543" />
      <path
         class="outer"
         d="m 104.27124,485.09097 -10.791401,25.83049 -9.287685,-3.70993 9.166569,3.99983 -24.279878,58.11675 -9.98684,-2.03643 1.77627,9.84223 -29.816413,5.86612 -2.084542,-9.78159 -9.166572,-3.99983 8.983195,-21.50239 9.287687,3.70993 -9.567421,2.91362 L 5,481.29637 l 9.471181,-3.21271 -9.16657,-3.99982 10.791406,-25.8305 9.287684,3.70995 -9.166571,-3.99985 10.613801,-25.40538 9.287687,3.70993 -9.16657,-3.99983 9.322539,-22.31459 9.287681,3.70993 -9.166572,-3.99983 12.423694,-29.73758 9.287693,3.70993 -9.166576,-3.99983 12.423686,-29.73761 9.287693,3.70994 -9.166568,-3.99986 9.322531,-22.31457 9.287693,3.70991 -9.166576,-3.99983 10.613799,-25.40538 9.287692,3.70994 -9.166576,-3.99983 10.791399,-25.83053 9.28768,3.70994 -4.370833,-8.99556 68.481053,-34.61409 4.65125,8.85382 -9.16659,-3.99983 8.98321,-21.50234 9.28769,3.70994 8.42352,-5.39157 16.78181,25.33379 -8.25003,5.65351 8.46742,5.67334 -24.27983,58.11671 -9.28769,-3.70991 9.16655,3.99983 -10.79137,25.8305 -9.28769,-3.70994 9.16657,3.99983 -10.6138,25.40539 -9.2877,-3.70993 9.16659,3.99985 -9.32254,22.31461 -9.28769,-3.70995 9.16656,3.99985 -12.4237,29.73759 -9.28767,-3.70994 9.16657,3.99984 -12.4237,29.73761 -9.28769,-3.70993 9.16656,3.99983 -9.32253,22.31461 -9.28768,-3.70993 9.16657,3.99983 -10.6138,25.40539 -9.287681,-3.70994 z"
         id="path5545" />
      <text
         transform="rotate(112.67404,3.2725837,196.31321)"
         style="font-size:9px"
         id="text5549"><tspan
           id="tspan5547">5:1</tspan></text>
      <text
         transform="rotate(-67.325964,254.001,-18.758854)"
         style="font-size:9px"
         id="text5553"><tspan
           id="tspan5551">14:3</tspan></text>
      <g
         id="g5561">
        <path
           transform="matrix(3.854887,-9.227124,9.227124,3.854887,96.286711,282.24852)"
           class="arrow"
           d="M 0,0 1,1 0,0.25 -1,1 Z"
           id="path5555" />
        <text
           transform="translate(104.59112,289.71794)"
           style="font-size:10px"
           id="text5559"><tspan
             id="tspan5557">1</tspan></text>
      </g>
      <text
         transform="matrix(0.385489,-0.922713,0.922713,0.385489,94.625828,281.5546)"
         style="font-size:9px"
         id="text5565"><tspan
           id="tspan5563">9.:1</tspan></text>
      <text
         transform="rotate(56.478425,-114.15624,288.721)"
         style="font-size:9px"
         id="text5569"><tspan
           id="tspan5567">7:9.</tspan></text>
      <g
         id="g5577">
        <path
           transform="matrix(8.924712,-4.511042,4.511042,8.924712,136.12368,251.81043)"
           class="arrow"
           d="M 0,0 1,1 0,0.25 -1,1 Z"
           id="path5571" />
        <text
           transform="translate(140.18362,263.84267)"
           style="font-size:10px"
           id="text5575"><tspan
             id="tspan5573">2</tspan></text>
      </g>
      <text
         transform="rotate(-26.814548,592.48373,-158.72729)"
         style="font-size:9px"
         id="text5581"><tspan
           id="tspan5579">14:2</tspan></text>
      <text
         transform="matrix(-0.385489,0.922713,-0.922713,-0.385489,73.302967,537.94549)"
         style="font-size:9px"
         id="text5585"><tspan
           id="tspan5583">5:5</tspan></text>
      <text
         transform="rotate(-67.325964,437.58235,256.89571)"
         style="font-size:9px"
         id="text5589"><tspan
           id="tspan5587">13:3</tspan></text>
      <g
         id="g5597">
        <path
           transform="matrix(3.854889,-9.227125,9.227125,3.854889,19.927441,465.02348)"
           class="arrow"
           d="M 0,0 1,1 0,0.25 -1,1 Z"
           id="path5591" />
        <text
           transform="translate(28.231853,472.49288)"
           style="font-size:10px"
           id="text5595"><tspan
             id="tspan5593">3</tspan></text>
      </g>
      <text
         transform="rotate(-67.325889,357.73792,218.45097)"
         style="font-size:9px"
         id="text5601"><tspan
           id="tspan5599">9.:3</tspan></text>
      <text
         transform="rotate(168.86975,-5.679257,288.17256)"
         style="font-size:9px"
         id="text5605"><tspan
           id="tspan5603">8:9.</tspan></text>
      <g
         id="g5613">
        <path
           transform="matrix(-3.063159,-9.519299,9.519299,-3.063159,26.271404,514.75491)"
           class="arrow"
           d="M 0,0 1,1 0,0.25 -1,1 Z"
           id="path5607" />
        <text
           transform="translate(34.838772,515.99807)"
           style="font-size:10px"
           id="text5611"><tspan
             id="tspan5609">4</tspan></text>
      </g>
      <text
         transform="rotate(-107.83735,200.03425,248.70527)"
         style="font-size:9px"
         id="text5617"><tspan
           id="tspan5615">13:4</tspan></text>
    </g>
  </g>
  <g
     id="g2690"
     transform="rotate(14.228156,279.83905,-55.395629)">
    <text
       style="font-size:10px"
       id="text1844"
       x="221.03145"
       y="394.04761"><tspan
         id="tspan1842">[14] I 14</tspan></text>
    <path
       class="sticker"
       d="m 184.95854,446.23148 -9.73831,2.27813 -9.75182,-38.91928 9.66194,-2.58291 z m 67.00182,-108.79523 9.73812,-2.27898 51.01253,203.51434 -9.66173,2.58375 z m -41.78072,-70.30993 -1.9522,-9.80884 22.43893,-4.83352 2.43274,9.7053 z m 92.86964,274.12904 9.73812,-2.27897 6.14044,24.49754 -9.66171,2.58372 z m 6.21685,24.80229 -4.06328,11.32783 -16.26193,4.07615 -2.58368,-9.66174 z m -134.13578,-159.05023 -9.66194,-2.58288 34.97292,-139.57637 9.73831,2.27815 z m 111.22689,164.79247 -2.65405,9.64266 -74.47325,-19.24481 2.34984,-9.72126 z m -74.77746,-19.32341 -9.7383,2.27813 -26.54489,-105.94022 9.66195,-2.58291 z m 21.51933,-290.28722 9.73812,-2.27898 18.78487,74.94223 -9.66174,2.58374 z"
       id="path1846" />
    <path
       class="outer"
       d="m 242.83723,259.91028 18.78487,74.94223 -9.66174,2.58374 9.73812,-2.27898 51.01253,203.51434 -9.66173,2.58375 9.73812,-2.27897 6.14044,24.49754 -9.66171,2.58372 -4.06328,11.32783 -16.26193,4.07615 -2.58368,-9.66174 -2.65405,9.64266 -74.47325,-19.24481 2.34984,-9.72126 -9.7383,2.27813 -26.54489,-105.94022 9.66195,-2.58291 -9.73831,2.27813 -9.75182,-38.91928 9.66194,-2.58291 -9.66194,-2.58288 34.97292,-139.57637 9.73831,2.27815 -1.9522,-9.80884 22.43893,-4.83352 2.43274,9.7053 z"
       id="path1848" />
    <g
       id="g1856"
       transform="translate(26.458334)">
      <path
         transform="matrix(-2.430516,-9.700134,9.700134,-2.430516,153.58612,426.61946)"
         class="arrow"
         d="M 0,0 1,1 0,0.25 -1,1 Z"
         id="path1850" />
      <text
         transform="translate(162.31624,428.432)"
         style="font-size:10px"
         id="text1854"><tspan
           id="tspan1852">1</tspan></text>
    </g>
    <text
       transform="rotate(-104.06675)"
       style="font-size:9px"
       id="text1860"
       x="-457.58679"
       y="69.154709"><tspan
         id="tspan1858">9.:1</tspan></text>
    <g
       id="g1868"
       transform="translate(26.458334)">
      <path
         transform="matrix(9.775771,-2.105776,2.105776,9.775771,195.18105,264.65779)"
         class="arrow"
         d="M 0,0 1,1 0,0.25 -1,1 Z"
         id="path1862" />
      <text
         transform="translate(197.07624,277.45598)"
         style="font-size:10px"
         id="text1866"><tspan
           id="tspan1864">2</tspan></text>
    </g>
    <text
       transform="rotate(-12.156227)"
       style="font-size:9px"
       id="text1872"
       x="160.93839"
       y="303.59579"><tspan
         id="tspan1870">1:2</tspan></text>
    <text
       transform="rotate(75.928363)"
       style="font-size:9px"
       id="text1876"
       x="611.48029"
       y="-164.1575"><tspan
         id="tspan1874">7:4</tspan></text>
    <g
       id="g1884"
       transform="translate(26.458334)">
      <path
         transform="matrix(-9.699928,2.431337,-2.431337,-9.699928,271.35337,568.92877)"
         class="arrow"
         d="M 0,0 1,1 0,0.25 -1,1 Z"
         id="path1878" />
      <text
         transform="translate(269.16516,564.19884)"
         style="font-size:10px"
         id="text1882"><tspan
           id="tspan1880">3</tspan></text>
    </g>
    <text
       transform="rotate(165.92842)"
       style="font-size:9px"
       id="text1888"
       x="-150.54927"
       y="-626.06482"><tspan
         id="tspan1886">4:3</tspan></text>
    <text
       transform="rotate(-75.93331)"
       style="font-size:9px"
       id="text1892"
       x="-280.13455"
       y="267.00241"><tspan
         id="tspan1890">1:2</tspan></text>
    <text
       transform="rotate(-165.51101)"
       style="font-size:9px"
       id="text1896"
       x="-381.69379"
       y="-483.76932"><tspan
         id="tspan1894">4:2</tspan></text>
    <g
       id="g1904"
       transform="translate(26.458334)">
      <path
         transform="matrix(-2.430512,-9.700134,9.700134,-2.430512,171.81084,499.35399)"
         class="arrow"
         d="M 0,0 1,1 0,0.25 -1,1 Z"
         id="path1898" />
      <text
         transform="translate(180.54095,501.16652)"
         style="font-size:10px"
         id="text1902"><tspan
           id="tspan1900">4</tspan></text>
    </g>
    <text
       transform="rotate(-104.06669)"
       style="font-size:9px"
       id="text1908"
       x="-532.56976"
       y="69.155121"><tspan
         id="tspan1906">9.:4</tspan></text>
    <text
       transform="rotate(75.928293)"
       style="font-size:9px"
       id="text1912"
       x="349.78378"
       y="-164.15674"><tspan
         id="tspan1910">7:10</tspan></text>
  </g>
</svg>
