<?xml version="1.0" encoding="UTF-8" standalone="no"?>
<svg
   version="1.1"
   width="300.00mm"
   height="600.00mm"
   viewBox="0 0 300.00 600.00"
   id="svg1918"
   sodipodi:docname="bottom_page4.svg"
   inkscape:version="1.1.1 (c3084ef, 2021-09-22)"
   xmlns:inkscape="http://www.inkscape.org/namespaces/inkscape"
   xmlns:sodipodi="http://sodipodi.sourceforge.net/DTD/sodipodi-0.dtd"
   xmlns="http://www.w3.org/2000/svg"
   xmlns:svg="http://www.w3.org/2000/svg">
  <defs
     id="defs1922" />
  <sodipodi:namedview
     id="namedview1920"
     pagecolor="#ffffff"
     bordercolor="#666666"
     borderopacity="1.0"
     inkscape:pageshadow="2"
     inkscape:pageopacity="0.0"
     inkscape:pagecheckerboard="0"
     inkscape:document-units="mm"
     showgrid="false"
     inkscape:zoom="0.35057292"
     inkscape:cx="566.21601"
     inkscape:cy="1133.8583"
     inkscape:window-width="1628"
     inkscape:window-height="975"
     inkscape:window-x="0"
     inkscape:window-y="25"
     inkscape:window-maximized="0"
     inkscape:current-layer="svg1918" />
  <style
     type="text/css"
     id="style1624">
    path {
        fill: none;
        stroke-linecap: butt;
        stroke-linejoin: bevel;
        stroke-dasharray: none;
    }
    path.outer {
        stroke: #000000;
        stroke-dasharray: none;
        stroke-dashoffset: 0;
        stroke-width: 0.3;
        stroke-opacity: 1.0;
    }
    path.convex {
        stroke: #000000;
        stroke-dasharray: 0.50,1.00;
        stroke-dashoffset:0;
        stroke-width:0.2;
        stroke-opacity: 1.0
    }
    path.concave {
        stroke: #000000;
        stroke-dasharray: 1.00,0.50,0.20,0.50;
        stroke-dashoffset: 0;
        stroke-width: 0.2;
        stroke-opacity: 1.0
    }
    path.freestyle {
        stroke: #000000;
        stroke-dasharray: none;
        stroke-dashoffset: 0;
        stroke-width: 0.2;
        stroke-opacity: 1.0
    }
    path.outer_background {
        stroke: #ffffff;
        stroke-opacity: 1.0;
        stroke-width: 0.5
    }
    path.inner_background {
        stroke: #ffffff;
        stroke-opacity: 1.0;
        stroke-width: 0.2
    }
    path.sticker {
        fill: #e5e5e5;
        stroke: none;
        fill-opacity: 1.0;
    }
    path.arrow {
        fill: #000000;
    }
    text {
        font-style: normal;
        fill: #000000;
        fill-opacity: 1.0;
        stroke: none;
    }
    text, tspan {
        text-anchor:middle;
    }
    </style>
  <g
     id="g1840"
     transform="translate(0,14.816667)">
    <text
       transform="translate(72.005038,262.70804)"
       style="font-size:10px"
       id="text1702"><tspan
         id="tspan1700">[7] I 7</tspan></text>
    <path
       class="sticker"
       d="m 17.000114,495.61437 -9.999991,-0.15711 1.19e-4,-23.28682 9.999991,-0.15706 z M 16.999935,571 l -10.00002,-0.15711 2.08e-4,-75.07146 9.999991,-0.15706 z m 110.000285,-75.38542 10,0.15712 -1e-4,75.07119 -10.00001,0.15708 z m -0.0167,-320.58865 10.00002,0.15712 -2.8e-4,209.81029 -9.99999,0.15707 z m -3.6e-4,287.69932 4.64449,0.14677 0.0167,9.06012 -4.64406,0.0815 z m -109.982798,-2.4e-4 0.07865,-4.99994 9.842784,1.4e-4 0.0785,4.99995 z m 109.565528,-313.26524 10.00124,-0.006 0.41251,25.25201 -9.99612,0.3204 z M 27.00067,172.1192 17.00065,171.96211 v -25.25196 l 9.999991,-0.15712 z m -2.9e-5,-25.56617 -9.998978,-0.21195 0.314951,-57.39212 10.000766,-0.102162 z m 0.316739,-57.706232 0.163495,-7.72959 15.217602,0.08285 0.07933,7.730901 z m 99.68273,482.153172 -0.1571,10 -81.980616,-1.2e-4 -0.157058,-9.99999 z M 26.999925,571 l -0.07853,5.00003 H 17.078464 L 16.999935,571 Z m -9.999692,-98.98662 -4.644185,-0.073 1.49e-4,-9.14242 4.644155,-0.0729 z m 110.000017,3e-4 9.99999,0.15709 -3e-5,23.28673 -9.99999,0.15708 z m -99.999848,-87.64711 -10.00002,-0.15712 2.98e-4,-211.93317 9.99999,-0.15708 z m 15.777409,-295.43561 3.557831,-9.347022 80.333928,29.142022 -1.55751,10.07262 z m 1.927525,482.0689 -0.138998,8.85266 -17.427236,2e-4 L 26.999925,571 Z m 80.406724,-452.20128 9.99622,-0.31671 1.12926,23.81629 -9.67166,7.16161 z m 1.8712,266.35183 9.99999,0.15711 -1e-4,77.26065 -10,0.15708 z m -99.982977,77.57475 -9.999991,-0.15709 1.2e-4,-78.04441 9.99999,-0.15709 z"
       id="path1704" />
    <path
       class="outer"
       d="m 137.00024,472.17077 -3e-5,23.28673 -9.99999,0.15708 10,0.15712 -1e-4,75.07119 -10.00001,0.15708 -0.1571,10 -81.980616,-1.2e-4 -0.157058,-9.99999 -0.138998,8.85266 -17.427236,2e-4 L 26.999925,571 l -0.07853,5.00003 H 17.078464 L 16.999935,571 l -10.00002,-0.15711 2.08e-4,-75.07146 9.999991,-0.15706 -9.999991,-0.15711 1.19e-4,-23.28682 9.999991,-0.15706 -4.644185,-0.073 1.49e-4,-9.14242 4.644155,-0.0729 0.07865,-4.99994 9.842784,1.4e-4 0.0785,4.99995 -9.999991,-0.15709 1.2e-4,-78.04441 9.99999,-0.15709 -10.00002,-0.15712 2.98e-4,-211.93317 9.99999,-0.15708 -10.00002,-0.15709 V 146.7102 l 9.999991,-0.15712 -9.998978,-0.21195 0.314951,-57.39212 10.000766,-0.102162 0.163495,-7.72959 15.217602,0.08285 0.07933,7.730901 3.557831,-9.347022 80.333929,29.142023 -1.55751,10.07262 9.99622,-0.31671 1.12926,23.81629 -9.67166,7.16161 10.00124,-0.006 0.41251,25.25201 -9.99612,0.3204 10.00002,0.15712 -2.8e-4,209.81029 -9.99999,0.15707 9.99999,0.15711 -1e-4,77.26065 -10,0.15708 4.64449,0.14677 0.0167,9.06012 -4.64406,0.0815 z"
       id="path1706" />
    <g
       id="g1714">
      <path
         transform="matrix(2.9e-5,-9.999999,9.999999,2.9e-5,17.000024,533.30719)"
         class="arrow"
         d="M 0,0 1,1 0,0.25 -1,1 Z"
         id="path1708" />
      <text
         transform="translate(26.000024,537.30722)"
         style="font-size:10px"
         id="text1712"><tspan
           id="tspan1710">1</tspan></text>
    </g>
    <text
       transform="rotate(-89.999828,274.25441,259.05359)"
       style="font-size:9px"
       id="text1718"><tspan
         id="tspan1716">3:1</tspan></text>
    <g
       id="g1726">
      <path
         transform="matrix(-1.3e-5,10,-10,-1.3e-5,127.00017,533.30728)"
         class="arrow"
         d="M 0,0 1,1 0,0.25 -1,1 Z"
         id="path1720" />
      <text
         transform="translate(118.00017,537.30727)"
         style="font-size:10px"
         id="text1724"><tspan
           id="tspan1722">2</tspan></text>
    </g>
    <text
       transform="rotate(90,-202.2533,331.05368)"
       style="font-size:9px"
       id="text1730"><tspan
         id="tspan1728">1:2</tspan></text>
    <g
       id="g1738">
      <path
         transform="matrix(0.018403,9.999983,-9.999983,0.018403,126.99169,467.36943)"
         class="arrow"
         d="M 0,0 1,1 0,0.25 -1,1 Z"
         id="path1732" />
      <text
         transform="translate(117.99171,471.386)"
         style="font-size:10px"
         id="text1736"><tspan
           id="tspan1734">3</tspan></text>
    </g>
    <text
       transform="rotate(89.894576,-170.20048,297.71557)"
       style="font-size:4.18px"
       id="text1742"><tspan
         id="tspan1740">1:3</tspan></text>
    <text
       transform="rotate(8.0214091e-4,-32987507,-2540.0451)"
       style="font-size:4.5px"
       id="text1746"><tspan
         id="tspan1744">15:1</tspan></text>
    <g
       id="g1754">
      <path
         transform="matrix(0.163337,9.998666,-9.998666,0.163337,126.77469,162.24285)"
         class="arrow"
         d="M 0,0 1,1 0,0.25 -1,1 Z"
         id="path1748" />
      <text
         transform="translate(117.77589,166.38988)"
         style="font-size:10px"
         id="text1752"><tspan
           id="tspan1750">4</tspan></text>
    </g>
    <text
       transform="rotate(89.064089,-18.155316,146.4527)"
       style="font-size:9px"
       id="text1758"><tspan
         id="tspan1756">14:4</tspan></text>
    <g
       id="g1766">
      <path
         transform="matrix(0.054882,-9.999849,9.999849,0.054882,27.15901,117.69992)"
         class="arrow"
         d="M 0,0 1,1 0,0.25 -1,1 Z"
         id="path1760" />
      <text
         transform="translate(36.158876,121.74931)"
         style="font-size:10px"
         id="text1764"><tspan
           id="tspan1762">5</tspan></text>
    </g>
    <text
       transform="rotate(-89.685559,71.848362,46.095711)"
       style="font-size:9px"
       id="text1770"><tspan
         id="tspan1768">15:5</tspan></text>
    <text
       transform="rotate(0.31203441,-16048.511,6481.0673)"
       style="font-size:6.96px"
       id="text1774"><tspan
         id="tspan1772">5:3</tspan></text>
    <g
       id="g1782">
      <path
         transform="matrix(-10,-1.8e-5,1.8e-5,-10,85.852717,570.99995)"
         class="arrow"
         d="M 0,0 1,1 0,0.25 -1,1 Z"
         id="path1776" />
      <text
         transform="translate(85.852732,565.99995)"
         style="font-size:10px"
         id="text1780"><tspan
           id="tspan1778">6.</tspan></text>
    </g>
    <text
       transform="rotate(-179.99989,42.926645,286.39993)"
       style="font-size:9px"
       id="text1786"><tspan
         id="tspan1784">10:6.</tspan></text>
    <g
       id="g1794">
      <path
         transform="matrix(-10,1e-6,-1e-6,-10,21.99993,571)"
         class="arrow"
         d="M 0,0 1,1 0,0.25 -1,1 Z"
         id="path1788" />
      <text
         transform="translate(21.99993,566.00001)"
         style="font-size:10px"
         id="text1792"><tspan
           id="tspan1790">7</tspan></text>
    </g>
    <text
       transform="rotate(180,10.999965,285.95002)"
       style="font-size:4.5px"
       id="text1798"><tspan
         id="tspan1796">10:7</tspan></text>
    <g
       id="g1806">
      <path
         transform="matrix(1.52e-4,-10,10,1.52e-4,17.000292,467.36919)"
         class="arrow"
         d="M 0,0 1,1 0,0.25 -1,1 Z"
         id="path1800" />
      <text
         transform="translate(26.000292,471.36933)"
         style="font-size:10px"
         id="text1804"><tspan
           id="tspan1802">8</tspan></text>
    </g>
    <text
       transform="rotate(-89.999141,241.77026,225.60229)"
       style="font-size:4.18px"
       id="text1810"><tspan
         id="tspan1808">3:8</tspan></text>
    <text
       transform="rotate(19.938796,-248.35292,291.61617)"
       style="font-size:9px"
       id="text1814"><tspan
         id="tspan1812">5:4</tspan></text>
    <g
       id="g1822">
      <path
         transform="matrix(0.473624,9.988778,-9.988778,0.473624,125.83897,134.12916)"
         class="arrow"
         d="M 0,0 1,1 0,0.25 -1,1 Z"
         id="path1816" />
      <text
         transform="translate(116.84907,138.55543)"
         style="font-size:10px"
         id="text1820"><tspan
           id="tspan1818">9.</tspan></text>
    </g>
    <text
       transform="rotate(87.285342,-6.4566624,133.93808)"
       style="font-size:9px"
       id="text1826"><tspan
         id="tspan1824">4:9.</tspan></text>
    <g
       id="g1834">
      <path
         transform="matrix(-1.4e-5,10,-10,-1.4e-5,126.9832,423.93785)"
         class="arrow"
         d="M 0,0 1,1 0,0.25 -1,1 Z"
         id="path1828" />
      <text
         transform="translate(117.9832,427.93783)"
         style="font-size:10px"
         id="text1832"><tspan
           id="tspan1830">10</tspan></text>
    </g>
    <text
       transform="rotate(90,-147.57711,276.36046)"
       style="font-size:9px"
       id="text1838"><tspan
         id="tspan1836">14:10</tspan></text>
  </g>
  <g
     id="g4168"
     transform="rotate(164.69362,178.15559,353.63665)">
    <text
       transform="translate(128.78974,257.72575)"
       style="font-size:10px"
       id="text4030"><tspan
         id="tspan4028">[8] I 8</tspan></text>
    <path
       class="sticker"
       d="m 110.02937,197.63132 -9.57128,-2.90089 6.40365,-22.38906 9.65766,2.59882 z m 6.49003,-22.69113 -9.57127,-2.90089 20.64381,-72.177325 9.65768,2.598885 z m 126.48879,-42.23165 9.57129,2.90081 -20.64275,72.17729 -9.65771,-2.59873 z m -51.1206,178.6806 9.57133,2.90078 -57.69271,201.72234 -9.65771,-2.59872 z m 23.90173,-83.5101 4.44265,1.35541 -2.50736,8.70624 -4.50581,-1.13597 z m -98.69929,-18.56726 -1.4505,4.78589 -9.46397,-2.7067 1.29945,-4.82914 z m 17.01847,304.10176 9.52263,3.05675 -7.34032,24.16517 -9.61398,-2.75614 z m -103.957974,-0.11766 -9.571315,-2.9008 6.943678,-24.27853 9.657711,2.59872 z M 14.587085,568.86471 5,566.01647 l 15.478705,-55.2663 9.671821,2.54571 z m 14.887651,4.17031 -2.202093,7.41107 -14.653776,-4.1048 1.968218,-7.47658 z m 134.410994,-462.9555 2.90078,-9.57134 78.82036,22.54268 -2.59868,9.65768 z m -26.63611,-7.61866 1.45047,-4.78566 9.46346,2.70671 -1.29943,4.82884 z m -29.77461,104.10097 -4.44518,-1.3473 2.51421,-8.7902 4.48533,1.20699 z m 114.80401,-1.37392 9.57131,2.90081 -6.4033,22.38908 -9.65771,-2.59876 z M 37.1806,488.71527 l -9.57132,-2.90079 58.276451,-203.7634 9.657718,2.59873 z m 79.66734,78.24351 -1.27226,10.11263 -85.250471,5.92861 -0.850473,-9.965 z m 30.01618,-461.74803 2.56808,-8.472565 16.75421,4.792305 -2.30068,8.54903 z m -20.18729,432.66857 7.32956,9.54503 -7.63467,22.58766 -9.52378,-3.05323 z m 86.54197,-301.0746 9.57133,2.90078 -21.24483,74.28235 -9.65771,-2.59871 z m -117.675351,47.84509 -9.571314,-2.90078 21.460195,-75.03592 9.6577,2.59867 z"
       id="path4032" />
    <path
       class="outer"
       d="m 100.45809,194.73043 6.40365,-22.38906 9.65766,2.59882 -9.57127,-2.90089 20.64381,-72.177325 9.65768,2.598885 1.45047,-4.78566 9.46346,2.70671 -1.29943,4.82884 2.56808,-8.472565 16.75421,4.792305 -2.30068,8.54903 2.90078,-9.57134 78.82036,22.54268 -2.59868,9.65768 9.57129,2.90081 -20.64275,72.17729 -9.65771,-2.59873 9.57131,2.90081 -6.4033,22.38908 -9.65771,-2.59876 4.44265,1.35541 -2.50736,8.70624 -4.50581,-1.13597 9.57133,2.90078 -21.24483,74.28235 -9.65771,-2.59871 9.57133,2.90078 -57.69271,201.72234 -9.65771,-2.59872 9.52263,3.05675 -7.34032,24.16517 -9.61398,-2.75614 7.32956,9.54503 -7.63467,22.58766 -9.52378,-3.05323 -1.27226,10.11263 -85.250471,5.92861 -0.850473,-9.965 -2.202093,7.41107 -14.653776,-4.1048 1.968218,-7.47658 L 5,566.01647 l 15.478705,-55.2663 9.671821,2.54571 -9.571315,-2.9008 6.943678,-24.27853 9.657711,2.59872 -9.57132,-2.90079 58.276451,-203.7634 9.657718,2.59873 -9.571314,-2.90078 21.460195,-75.03592 9.6577,2.59867 -1.4505,4.78589 -9.46397,-2.7067 1.29945,-4.82914 -4.44518,-1.3473 2.51421,-8.7902 4.48533,1.20699 z"
       id="path4034" />
    <g
       id="g4042">
      <path
         transform="matrix(2.749886,-9.614474,9.614474,2.749886,126.88452,138.70051)"
         class="arrow"
         d="M 0,0 1,1 0,0.25 -1,1 Z"
         id="path4036" />
      <text
         transform="translate(135.53754,145.17542)"
         style="font-size:10px"
         id="text4040"><tspan
           id="tspan4038">1</tspan></text>
    </g>
    <text
       transform="rotate(-74.038635,154.21517,-13.881387)"
       style="font-size:9px"
       id="text4046"><tspan
         id="tspan4044">2:1</tspan></text>
    <g
       id="g4054">
      <path
         transform="matrix(-2.749758,9.614511,-9.614511,-2.749758,232.64361,168.94823)"
         class="arrow"
         d="M 0,0 1,1 0,0.25 -1,1 Z"
         id="path4048" />
      <text
         transform="translate(223.99055,170.47345)"
         style="font-size:10px"
         id="text4052"><tspan
           id="tspan4050">2</tspan></text>
    </g>
    <text
       transform="rotate(105.96059,53.299117,173.09163)"
       style="font-size:9px"
       id="text4058"><tspan
         id="tspan4056">1:2</tspan></text>
    <g
       id="g4066">
      <path
         transform="matrix(-2.767459,9.60943,-9.60943,-2.767459,214.5041,232.34188)"
         class="arrow"
         d="M 0,0 1,1 0,0.25 -1,1 Z"
         id="path4060" />
      <text
         transform="translate(205.85561,233.85119)"
         style="font-size:10px"
         id="text4064"><tspan
           id="tspan4062">3</tspan></text>
    </g>
    <text
       transform="rotate(106.06609,20.130573,197.31218)"
       style="font-size:4.18px"
       id="text4070"><tspan
         id="tspan4068">1:3</tspan></text>
    <text
       transform="rotate(-164.03918,70.653732,96.547858)"
       style="font-size:4.5px"
       id="text4074"><tspan
         id="tspan4072">16:1</tspan></text>
    <g
       id="g4082">
      <path
         transform="matrix(-2.906448,9.56831,-9.56831,-2.906448,130.39266,525.64643)"
         class="arrow"
         d="M 0,0 1,1 0,0.25 -1,1 Z"
         id="path4076" />
      <text
         transform="translate(121.78118,527.03063)"
         style="font-size:10px"
         id="text4080"><tspan
           id="tspan4078">4</tspan></text>
    </g>
    <text
       transform="rotate(106.89657,-128.98274,312.05708)"
       style="font-size:9px"
       id="text4086"><tspan
         id="tspan4084">13:4</tspan></text>
    <g
       id="g4094">
      <path
         transform="matrix(2.696969,-9.629453,9.629453,2.696969,22.368805,541.08029)"
         class="arrow"
         d="M 0,0 1,1 0,0.25 -1,1 Z"
         id="path4088" />
      <text
         transform="translate(31.035312,547.50756)"
         style="font-size:10px"
         id="text4092"><tspan
           id="tspan4090">5</tspan></text>
    </g>
    <text
       transform="rotate(-74.353759,366.72,256.69297)"
       style="font-size:9px"
       id="text4098"><tspan
         id="tspan4096">16:5</tspan></text>
    <text
       transform="rotate(-164.35144,50.148313,284.65702)"
       style="font-size:6.96px"
       id="text4102"><tspan
         id="tspan4100">5:7</tspan></text>
    <g
       id="g4110">
      <path
         transform="matrix(9.614513,2.749752,-2.749752,9.614513,203.44696,121.39403)"
         class="arrow"
         d="M 0,0 1,1 0,0.25 -1,1 Z"
         id="path4104" />
      <text
         transform="translate(200.97219,134.04712)"
         style="font-size:10px"
         id="text4108"><tspan
           id="tspan4106">6.</tspan></text>
    </g>
    <text
       transform="rotate(15.96053,-324.81939,787.21112)"
       style="font-size:9px"
       id="text4114"><tspan
         id="tspan4112">11:6.</tspan></text>
    <g
       id="g4122">
      <path
         transform="matrix(9.614471,2.749899,-2.749899,9.614471,142.05687,103.83582)"
         class="arrow"
         d="M 0,0 1,1 0,0.25 -1,1 Z"
         id="path4116" />
      <text
         transform="translate(139.58197,116.48884)"
         style="font-size:10px"
         id="text4120"><tspan
           id="tspan4118">7</tspan></text>
    </g>
    <text
       transform="rotate(15.96142,-296.08124,558.99919)"
       style="font-size:4.5px"
       id="text4126"><tspan
         id="tspan4124">11:7</tspan></text>
    <g
       id="g4134">
      <path
         transform="matrix(2.749978,-9.614449,9.614449,2.749978,108.7522,202.09658)"
         class="arrow"
         d="M 0,0 1,1 0,0.25 -1,1 Z"
         id="path4128" />
      <text
         transform="translate(117.4052,208.57158)"
         style="font-size:10px"
         id="text4132"><tspan
           id="tspan4130">8</tspan></text>
    </g>
    <text
       transform="rotate(-74.038108,187.82464,29.356636)"
       style="font-size:4.18px"
       id="text4138"><tspan
         id="tspan4136">2:8</tspan></text>
    <text
       transform="rotate(176.02185,26.71397,287.16883)"
       style="font-size:9px"
       id="text4142"><tspan
         id="tspan4140">5:8</tspan></text>
    <g
       id="g4150">
      <path
         transform="matrix(-3.202049,9.473483,-9.473483,-3.202049,121.76238,552.41905)"
         class="arrow"
         d="M 0,0 1,1 0,0.25 -1,1 Z"
         id="path4144" />
      <text
         transform="translate(113.23625,553.53721)"
         style="font-size:10px"
         id="text4148"><tspan
           id="tspan4146">9.</tspan></text>
    </g>
    <text
       transform="rotate(108.67533,-136.67447,320.7965)"
       style="font-size:9px"
       id="text4154"><tspan
         id="tspan4152">4:9.</tspan></text>
    <g
       id="g4162">
      <path
         transform="matrix(-2.749759,9.614511,-9.614511,-2.749759,202.5532,274.09693)"
         class="arrow"
         d="M 0,0 1,1 0,0.25 -1,1 Z"
         id="path4156" />
      <text
         transform="translate(193.90014,275.62216)"
         style="font-size:10px"
         id="text4160"><tspan
           id="tspan4158">10</tspan></text>
    </g>
    <text
       transform="rotate(105.96059,-1.392074,214.32051)"
       style="font-size:9px"
       id="text4166"><tspan
         id="tspan4164">13:10</tspan></text>
  </g>
</svg>
