<?xml version="1.0" encoding="UTF-8" standalone="no"?>
<svg
   xmlns:dc="http://purl.org/dc/elements/1.1/"
   xmlns:cc="http://creativecommons.org/ns#"
   xmlns:rdf="http://www.w3.org/1999/02/22-rdf-syntax-ns#"
   xmlns:svg="http://www.w3.org/2000/svg"
   xmlns="http://www.w3.org/2000/svg"
   xmlns:sodipodi="http://sodipodi.sourceforge.net/DTD/sodipodi-0.dtd"
   xmlns:inkscape="http://www.inkscape.org/namespaces/inkscape"
   version="1.1"
   width="300.00mm"
   height="600.00mm"
   viewBox="0 0 300.00 600.00"
   id="svg932"
   sodipodi:docname="bottom_page5.svg"
   inkscape:version="0.92.2 (5c3e80d, 2017-08-06)">
  <metadata
     id="metadata78">
    <rdf:RDF>
      <cc:Work
         rdf:about="">
        <dc:format>image/svg+xml</dc:format>
        <dc:type
           rdf:resource="http://purl.org/dc/dcmitype/StillImage" />
      </cc:Work>
    </rdf:RDF>
  </metadata>
  <defs
     id="defs936" />
  <sodipodi:namedview
     id="namedview934"
     pagecolor="#ffffff"
     bordercolor="#666666"
     borderopacity="1.0"
     inkscape:pageshadow="2"
     inkscape:pageopacity="0.0"
     inkscape:pagecheckerboard="0"
     inkscape:document-units="mm"
     showgrid="false"
     inkscape:zoom="0.24789249"
     inkscape:cx="224.57428"
     inkscape:cy="1611.2631"
     inkscape:window-width="1920"
     inkscape:window-height="1017"
     inkscape:window-x="-8"
     inkscape:window-y="-8"
     inkscape:window-maximized="1"
     inkscape:current-layer="svg932" />
  <style
     type="text/css"
     id="style824">
    path {
        fill: none;
        stroke-linecap: butt;
        stroke-linejoin: bevel;
        stroke-dasharray: none;
    }
    path.outer {
        stroke: #000000;
        stroke-dasharray: none;
        stroke-dashoffset: 0;
        stroke-width: 0.3;
        stroke-opacity: 1.0;
    }
    path.convex {
        stroke: #000000;
        stroke-dasharray: 0.50,1.00;
        stroke-dashoffset:0;
        stroke-width:0.2;
        stroke-opacity: 1.0
    }
    path.concave {
        stroke: #000000;
        stroke-dasharray: 1.00,0.50,0.20,0.50;
        stroke-dashoffset: 0;
        stroke-width: 0.2;
        stroke-opacity: 1.0
    }
    path.freestyle {
        stroke: #000000;
        stroke-dasharray: none;
        stroke-dashoffset: 0;
        stroke-width: 0.2;
        stroke-opacity: 1.0
    }
    path.outer_background {
        stroke: #ffffff;
        stroke-opacity: 1.0;
        stroke-width: 0.5
    }
    path.inner_background {
        stroke: #ffffff;
        stroke-opacity: 1.0;
        stroke-width: 0.2
    }
    path.sticker {
        fill: #e5e5e5;
        stroke: none;
        fill-opacity: 1.0;
    }
    path.arrow {
        fill: #000000;
    }
    text {
        font-style: normal;
        fill: #000000;
        fill-opacity: 1.0;
        stroke: none;
    }
    text, tspan {
        text-anchor:middle;
    }
    </style>
  <g
     id="g1548">
    <path
       inkscape:connector-curvature="0"
       id="path955"
       style="font-style:normal;font-size:medium;text-anchor:middle;fill:none;fill-opacity:1;stroke:#000000;stroke-width:0.25;stroke-linecap:butt;stroke-linejoin:bevel;stroke-dasharray:none;stroke-opacity:1"
       d="m 133.703,250.05434 h -2.53906 v -9.51172 h 2.53906 v 0.69824 h -1.68945 v 8.11523 h 1.68945 z" />
    <path
       inkscape:connector-curvature="0"
       id="path957"
       style="font-style:normal;font-size:medium;text-anchor:middle;fill:none;fill-opacity:1;stroke:#000000;stroke-width:0.25;stroke-linecap:butt;stroke-linejoin:bevel;stroke-dasharray:none;stroke-opacity:1"
       d="m 139.8407,248.14027 h -3.93555 v -0.74218 h 1.51367 v -4.87305 h -1.51367 v -0.66406 q 0.30762,0 0.65918,-0.0488 0.35156,-0.0537 0.53223,-0.15137 0.22461,-0.12207 0.35156,-0.30762 0.13184,-0.19043 0.15137,-0.50781 h 0.75683 v 6.55274 h 1.48438 z" />
    <path
       inkscape:connector-curvature="0"
       id="path959"
       style="font-style:normal;font-size:medium;text-anchor:middle;fill:none;fill-opacity:1;stroke:#000000;stroke-width:0.25;stroke-linecap:butt;stroke-linejoin:bevel;stroke-dasharray:none;stroke-opacity:1"
       d="m 144.28894,250.05434 h -2.53906 v -0.69825 h 1.68945 v -8.11523 h -1.68945 v -0.69824 h 2.53906 z" />
    <path
       inkscape:connector-curvature="0"
       id="path961"
       style="font-style:normal;font-size:medium;text-anchor:middle;fill:none;fill-opacity:1;stroke:#000000;stroke-width:0.25;stroke-linecap:butt;stroke-linejoin:bevel;stroke-dasharray:none;stroke-opacity:1"
       d="m 152.52136,248.14027 h -2.87109 v -0.74218 h 0.95215 v -5.78614 h -0.95215 v -0.74218 h 2.87109 v 0.74218 h -0.95215 v 5.78614 h 0.95215 z" />
    <path
       inkscape:connector-curvature="0"
       id="path963"
       style="font-style:normal;font-size:medium;text-anchor:middle;fill:none;fill-opacity:1;stroke:#000000;stroke-width:0.25;stroke-linecap:butt;stroke-linejoin:bevel;stroke-dasharray:none;stroke-opacity:1"
       d="m 162.00867,248.14027 h -3.93555 v -0.74218 h 1.51367 v -4.87305 h -1.51367 v -0.66406 q 0.30762,0 0.65918,-0.0488 0.35156,-0.0537 0.53223,-0.15137 0.22461,-0.12207 0.35156,-0.30762 0.13183,-0.19043 0.15137,-0.50781 h 0.75683 v 6.55274 h 1.48438 z" />
    <path
       class="sticker"
       d="m 256.20082,583.58337 -0.15708,9.99999 h -75.07122 l -0.15709,-9.99999 z m -74.60171,-138.34974 0.15711,-10.00002 74.28752,10e-6 0.15708,10.00001 z m 96.4807,27.84756 9.99999,0.15708 v 24.05948 l -9.99999,0.15709 z m -261.066077,0.009 -10.00002,-0.15637 -0.00194,-27.53338 9.99999,-0.1578 z m -0.0037,-52.34545 -10.00002,-0.15637 -0.00229,-32.22847 9.99999,-0.15781 z m 140.204457,162.83837 -0.073,4.64421 h -9.14252 l -0.0729,-4.64421 z m -9.28843,0 -9.98916,-0.49129 0.77321,-23.11799 9.99966,0.17726 z m 130.15374,-23.43202 7.20191,6.93953 -21.66456,23.20236 -7.41634,-6.70987 z m 0,-62.69651 9.99999,0.15708 V 559.994 l -9.99999,0.15709 z m -261.064075,3.94389 -10.00002,-0.15638 -0.00197,-27.99409 9.99999,-0.15781 z m 239.185085,-56.1651 7.96041,-6.05448 21.68489,27.60051 -7.7663,6.30153 z m -75.38539,138.34974 -0.1571,9.99999 h -23.28675 l -0.15708,-9.99999 z m -22.81727,-195.39027 10.00001,0.15709 -2e-5,32.22845 -10,0.15709 z m -140.986389,57.0498 -10.00002,-0.15638 -0.0017,-24.18372 9.999991,-0.1578 z m 140.986379,-24.50717 7.31066,-6.82487 23.38299,24.27161 -7.09269,7.05116 z m -9.28837,139.41562 -4.2177,9.0684 -131.407122,-58.62462 3.930777,-9.1964 z m 32.10568,-367.34849 0.15709,-10.00002 75.07122,3e-5 0.15709,9.99999 z m 75.38539,138.34974 -0.15711,10.00002 -74.28752,-3e-5 -0.15709,-9.99999 z m 21.87899,-52.22118 9.99999,0.15712 v 24.05942 l -9.99999,0.15711 z m -261.076145,52.23042 -10.00002,-0.1564 -0.00194,-27.53335 9.999991,-0.15781 z m 0.004,57.04051 -10.00002,-0.15637 -0.00226,-32.22844 9.99999,-0.1578 z m 130.918415,-195.3992 0.0729,-4.64422 9.14252,-3e-5 0.073,4.64422 z m 0.78374,23.43202 -9.99966,0.17726 -0.77324,-23.11799 9.98916,-0.49129 z m 107.49101,-23.43205 7.41634,-6.70987 21.66459,23.20239 -7.20194,6.93953 z m 21.87899,23.43205 9.99999,0.15708 v 62.38235 l -9.99999,0.15708 z m -261.078117,87.07937 -10.00002,-0.15637 -0.002,-27.9941 9.99999,-0.1578 z m 261.078117,-0.009 7.76628,6.30153 -21.68489,27.60049 -7.96038,-6.05449 z m -120.86531,-110.50221 0.15708,-10.00002 h 23.28676 l 0.15709,10.00002 z m 0.78363,162.84762 10.00001,0.15709 v 32.22844 l -10.00001,0.15709 z m -140.992742,0.009 -10.00002,-0.15638 -0.0017,-24.18372 9.999991,-0.1578 z m 164.593712,-24.50714 7.09268,7.05111 -23.38297,24.27164 -7.31068,-6.82487 z M 16.999696,275.00601 13.068263,265.80988 144.4915,207.1668 l 4.21834,9.06811 z"
       id="path830"
       style="fill:#e5e5e5;fill-opacity:1;stroke:#000000;stroke-width:0.25;stroke-linecap:butt;stroke-linejoin:bevel;stroke-dasharray:none;stroke-opacity:1"
       inkscape:connector-curvature="0" />
    <path
       inkscape:connector-curvature="0"
       id="path966"
       style="font-style:normal;font-size:medium;text-anchor:middle;fill:none;fill-opacity:1;stroke:#000000;stroke-width:0.25;stroke-linecap:butt;stroke-linejoin:bevel;stroke-dasharray:none;stroke-opacity:1"
       d="m 221.13165,590.94684 2.96192,-5.56348 h 0.94043 l -3.15088,5.77442 h 3.72656 v 0.76904 h -4.47803 z" />
    <path
       inkscape:connector-curvature="0"
       id="path968"
       style="font-style:normal;font-size:medium;text-anchor:middle;fill:none;fill-opacity:1;stroke:#000000;stroke-width:0.25;stroke-linecap:butt;stroke-linejoin:bevel;stroke-dasharray:none;stroke-opacity:1"
       d="m 217.98517,589.03961 h 1.05029 v 1.25244 h -1.05029 z m 0,-3.65625 h 1.05029 v 1.25244 h -1.05029 z" />
    <path
       inkscape:connector-curvature="0"
       id="path970"
       style="font-style:normal;font-size:medium;text-anchor:middle;fill:none;fill-opacity:1;stroke:#000000;stroke-width:0.25;stroke-linecap:butt;stroke-linejoin:bevel;stroke-dasharray:none;stroke-opacity:1"
       d="m 211.32306,585.38336 h 4.42969 v 0.91846 q -0.46143,0.39551 -0.92285,0.79101 -0.46583,0.39551 -0.86573,0.78663 -0.84375,0.81738 -1.15576,1.29638 -0.31201,0.4834 -0.31201,1.04151 0,0.50976 0.33838,0.79541 0.33398,0.29004 0.93603,0.29004 0.39991,0 0.86573,-0.14063 0.46582,-0.14062 0.90966,-0.43066 h 0.0439 v 0.92285 q -0.31201,0.15381 -0.83057,0.28125 -0.52295,0.12744 -1.01074,0.12744 -1.00635,0 -1.57764,-0.48779 -0.57129,-0.4834 -0.57129,-1.31397 0,-0.37353 0.0967,-0.69873 0.0923,-0.3208 0.27686,-0.61084 0.17139,-0.27246 0.4043,-0.53613 0.22851,-0.26367 0.5581,-0.58447 0.47022,-0.46143 0.97119,-0.89649 0.50098,-0.43066 0.93604,-0.7998 h -3.52002 z" />
    <path
       inkscape:connector-curvature="0"
       id="path973"
       style="font-style:normal;font-size:medium;text-anchor:middle;fill:none;fill-opacity:1;stroke:#000000;stroke-width:0.25;stroke-linecap:butt;stroke-linejoin:bevel;stroke-dasharray:none;stroke-opacity:1"
       d="m 214.72076,441.31107 q 0,0.99755 -0.65918,1.63037 -0.65478,0.62841 -1.60839,0.62841 -0.4834,0 -0.87891,-0.14941 -0.39551,-0.14941 -0.69873,-0.44385 -0.37793,-0.36474 -0.58447,-0.96679 -0.20215,-0.60205 -0.20215,-1.4502 0,-0.87012 0.18457,-1.54248 0.18896,-0.67236 0.59765,-1.19531 0.38672,-0.49658 0.99756,-0.77344 0.61084,-0.28125 1.42383,-0.28125 0.25928,0 0.43506,0.022 0.17578,0.022 0.35596,0.0791 v 0.83936 h -0.0439 q -0.12305,-0.0659 -0.37353,-0.12305 -0.2461,-0.0615 -0.50537,-0.0615 -0.94483,0 -1.50733,0.59326 -0.5625,0.58887 -0.65478,1.59522 0.36914,-0.22412 0.72509,-0.33838 0.36036,-0.11865 0.83057,-0.11865 0.41748,0 0.73389,0.0791 0.3208,0.0747 0.65478,0.30761 0.38672,0.26807 0.58008,0.67676 0.19775,0.40869 0.19775,0.99317 z m -0.89209,0.0352 q 0,-0.40869 -0.12304,-0.67676 -0.11865,-0.26806 -0.39551,-0.46582 -0.20215,-0.14062 -0.44824,-0.18457 -0.2461,-0.0439 -0.51416,-0.0439 -0.37354,0 -0.69434,0.0879 -0.3208,0.0879 -0.65918,0.27246 -0.009,0.0967 -0.0132,0.18896 -0.004,0.0879 -0.004,0.22413 0,0.69433 0.14063,1.09863 0.14502,0.3999 0.39551,0.63281 0.20214,0.19336 0.43505,0.28565 0.23731,0.0879 0.51417,0.0879 0.6372,0 1.00195,-0.38672 0.36474,-0.39112 0.36474,-1.12061 z" />
    <path
       inkscape:connector-curvature="0"
       id="path975"
       style="font-style:normal;font-size:medium;text-anchor:middle;fill:none;fill-opacity:1;stroke:#000000;stroke-width:0.25;stroke-linecap:butt;stroke-linejoin:bevel;stroke-dasharray:none;stroke-opacity:1"
       d="m 217.37946,443.43362 h -1.0503 v -1.25244 h 1.0503 z" />
    <path
       inkscape:connector-curvature="0"
       id="path977"
       style="font-style:normal;font-size:medium;text-anchor:middle;fill:none;fill-opacity:1;stroke:#000000;stroke-width:0.25;stroke-linecap:butt;stroke-linejoin:bevel;stroke-dasharray:none;stroke-opacity:1"
       d="m 221.05768,439.77737 h -1.05029 v -1.25244 h 1.05029 z m 0,3.65625 h -1.05029 v -1.25244 h 1.05029 z" />
    <path
       inkscape:connector-curvature="0"
       id="path979"
       style="font-style:normal;font-size:medium;text-anchor:middle;fill:none;fill-opacity:1;stroke:#000000;stroke-width:0.25;stroke-linecap:butt;stroke-linejoin:bevel;stroke-dasharray:none;stroke-opacity:1"
       d="m 227.34625,443.43362 h -3.54199 v -0.66796 h 1.3623 v -4.38575 h -1.3623 v -0.59765 q 0.27686,0 0.59326,-0.0439 0.31641,-0.0483 0.47901,-0.13623 0.20214,-0.10986 0.3164,-0.27685 0.11865,-0.17139 0.13623,-0.45704 h 0.68115 v 5.89747 h 1.33594 z" />
    <path
       inkscape:connector-curvature="0"
       id="path982"
       style="font-style:normal;font-size:medium;text-anchor:middle;fill:none;fill-opacity:1;stroke:#000000;stroke-width:0.25;stroke-linecap:butt;stroke-linejoin:bevel;stroke-dasharray:none;stroke-opacity:1"
       d="m 153.78877,587.00324 1.37564,-2.58393 h 0.43678 l -1.46341,2.6819 h 1.73078 v 0.35717 h -2.07979 z" />
    <path
       inkscape:connector-curvature="0"
       id="path984"
       style="font-style:normal;font-size:medium;text-anchor:middle;fill:none;fill-opacity:1;stroke:#000000;stroke-width:0.25;stroke-linecap:butt;stroke-linejoin:bevel;stroke-dasharray:none;stroke-opacity:1"
       d="m 152.3274,586.11744 h 0.4878 v 0.58169 h -0.4878 z m 0,-1.69813 h 0.4878 v 0.58169 h -0.4878 z" />
    <path
       inkscape:connector-curvature="0"
       id="path986"
       style="font-style:normal;font-size:medium;text-anchor:middle;fill:none;fill-opacity:1;stroke:#000000;stroke-width:0.25;stroke-linecap:butt;stroke-linejoin:bevel;stroke-dasharray:none;stroke-opacity:1"
       d="m 149.50059,585.88272 q -0.098,-0.0878 -0.16124,-0.22043 -0.0633,-0.13267 -0.0633,-0.34289 0,-0.20818 0.0755,-0.38167 0.0755,-0.17349 0.21227,-0.30207 0.15307,-0.14287 0.36126,-0.21227 0.20614,-0.0674 0.4531,-0.0674 0.25309,0 0.49801,0.0612 0.24492,0.0592 0.40208,0.13063 v 0.42657 h -0.0306 q -0.17348,-0.1143 -0.4082,-0.18982 -0.23472,-0.0755 -0.4531,-0.0755 -0.12859,0 -0.2735,0.0429 -0.14491,0.0429 -0.23472,0.12654 -0.0939,0.0898 -0.13879,0.19798 -0.0469,0.10817 -0.0469,0.27349 0,0.16329 0.0531,0.26942 0.051,0.10817 0.14287,0.1694 0.0918,0.0633 0.22247,0.0857 0.13062,0.0245 0.28166,0.0245 h 0.18369 v 0.33881 h -0.14287 q -0.31024,0 -0.49393,0.12858 -0.18573,0.13063 -0.18573,0.37963 0,0.11021 0.0469,0.19185 0.0469,0.0837 0.13063,0.13675 0.0878,0.0531 0.18777,0.0735 0.10001,0.0204 0.22656,0.0204 0.19389,0 0.41228,-0.0694 0.21839,-0.0694 0.41229,-0.19593 h 0.0204 v 0.42657 q -0.14492,0.0714 -0.38576,0.13062 -0.24288,0.0612 -0.46943,0.0612 -0.22247,0 -0.39187,-0.0408 -0.16941,-0.0408 -0.30616,-0.13062 -0.14695,-0.098 -0.22247,-0.23676 -0.0755,-0.13879 -0.0755,-0.32452 0,-0.25309 0.17961,-0.4429 0.17757,-0.18777 0.42045,-0.23676 v -0.0286 q -0.098,-0.0163 -0.22451,-0.0694 -0.12654,-0.051 -0.21431,-0.12858 z" />
    <path
       inkscape:connector-curvature="0"
       id="path989"
       style="font-style:normal;font-size:medium;text-anchor:middle;fill:none;fill-opacity:1;stroke:#000000;stroke-width:0.25;stroke-linecap:butt;stroke-linejoin:bevel;stroke-dasharray:none;stroke-opacity:1"
       d="m 146.32234,577.68384 -0.1184,3.54001 -0.6676,-0.0223 0.0455,-1.36155 -4.38329,-0.14661 -0.0455,1.36155 -0.59732,-0.02 q 0.009,-0.2767 -0.0241,-0.5944 -0.0377,-0.31784 -0.12014,-0.48329 -0.10304,-0.20571 -0.26612,-0.32548 -0.16732,-0.12432 -0.45222,-0.15143 l 0.0228,-0.68078 5.89417,0.19714 0.0447,-1.33518 z" />
    <path
       inkscape:connector-curvature="0"
       id="path991"
       style="font-style:normal;font-size:medium;text-anchor:middle;fill:none;fill-opacity:1;stroke:#000000;stroke-width:0.25;stroke-linecap:butt;stroke-linejoin:bevel;stroke-dasharray:none;stroke-opacity:1"
       d="m 144.6911,571.37237 -0.0325,0.97064 1.84028,0.0616 -0.0282,0.84327 -1.84028,-0.0616 -0.10474,3.13155 -1.01017,-0.0338 -3.58344,-3.29008 0.027,-0.80814 3.99679,0.13368 0.0325,-0.97065 z m -0.76341,1.79042 -2.95147,-0.0987 2.86671,2.63294 z" />
    <path
       inkscape:connector-curvature="0"
       id="path993"
       style="font-style:normal;font-size:medium;text-anchor:middle;fill:none;fill-opacity:1;stroke:#000000;stroke-width:0.25;stroke-linecap:butt;stroke-linejoin:bevel;stroke-dasharray:none;stroke-opacity:1"
       d="m 142.97795,568.29873 -0.0351,1.04971 -1.25175,-0.0419 0.0351,-1.0497 z m 3.6542,0.12222 -0.0351,1.04971 -1.25175,-0.0419 0.0351,-1.0497 z" />
    <path
       inkscape:connector-curvature="0"
       id="path995"
       style="font-style:normal;font-size:medium;text-anchor:middle;fill:none;fill-opacity:1;stroke:#000000;stroke-width:0.25;stroke-linecap:butt;stroke-linejoin:bevel;stroke-dasharray:none;stroke-opacity:1"
       d="m 146.85486,561.76257 -0.14808,4.42721 -0.91795,-0.0307 q -0.37986,-0.47439 -0.75973,-0.94878 -0.3797,-0.47878 -0.75724,-0.89154 -0.78871,-0.8706 -1.25702,-1.19845 -0.4727,-0.32799 -1.03049,-0.34665 -0.50948,-0.017 -0.80628,0.3116 -0.30104,0.3241 -0.32117,0.92581 -0.0134,0.39969 0.11161,0.86995 0.12497,0.47026 0.40001,0.92356 l -0.001,0.0439 -0.92234,-0.0308 q -0.14329,-0.31698 -0.25333,-0.83951 -0.10988,-0.52692 -0.0936,-1.01444 0.0336,-1.00579 0.54026,-1.56044 0.50222,-0.55481 1.33233,-0.52705 0.37332,0.0125 0.69511,0.12001 0.31753,0.10297 0.60124,0.29711 0.26658,0.1804 0.52231,0.422 0.25589,0.23719 0.56549,0.57732 0.44546,0.48538 0.86353,1.00063 0.41367,0.51508 0.76806,0.96224 l 0.11767,-3.51805 z" />
    <path
       inkscape:connector-curvature="0"
       id="path998"
       style="font-style:normal;font-size:medium;text-anchor:middle;fill:none;fill-opacity:1;stroke:#000000;stroke-width:0.25;stroke-linecap:butt;stroke-linejoin:bevel;stroke-dasharray:none;stroke-opacity:1"
       d="m 272.46873,568.79804 2.41731,-2.5889 0.48823,0.45587 -0.92974,0.99573 3.2056,2.99314 0.92974,-0.99573 0.43683,0.40788 q -0.18894,0.20236 -0.37279,0.46358 -0.18064,0.26424 -0.22734,0.44309 -0.0577,0.22273 -0.0136,0.42021 0.0443,0.20369 0.24107,0.41148 l -0.46486,0.49787 -4.31054,-4.02484 -0.91174,0.97646 z" />
    <path
       inkscape:connector-curvature="0"
       id="path1000"
       style="font-style:normal;font-size:medium;text-anchor:middle;fill:none;fill-opacity:1;stroke:#000000;stroke-width:0.25;stroke-linecap:butt;stroke-linejoin:bevel;stroke-dasharray:none;stroke-opacity:1"
       d="m 270.7019,575.48747 q -1.28803,-1.20265 -1.514,-2.1712 -0.22575,-0.96235 0.56601,-1.81032 0.80378,-0.86083 1.78595,-0.68928 0.97918,0.17475 2.24472,1.35642 1.27518,1.19065 1.50736,2.159 0.23539,0.97134 -0.55938,1.82252 -0.80377,0.86082 -1.79259,0.67707 -0.9886,-0.17755 -2.23807,-1.34421 z m -0.66949,-2.20637 q 0.1552,0.35536 0.46932,0.7208 0.31436,0.37164 0.80901,0.83351 0.48823,0.45587 0.88695,0.75004 0.3957,0.29738 0.75424,0.41565 0.35228,0.11852 0.66051,0.0396 0.30521,-0.0758 0.59013,-0.38089 0.28192,-0.30194 0.3426,-0.61805 0.0577,-0.31291 -0.0881,-0.66546 -0.13573,-0.33115 -0.47897,-0.7298 -0.34626,-0.39542 -0.80237,-0.82129 -0.50108,-0.46787 -0.8713,-0.74747 -0.37023,-0.27961 -0.74482,-0.41287 -0.34952,-0.12794 -0.66115,-0.0582 -0.31464,0.073 -0.61456,0.39417 -0.28191,0.30193 -0.34259,0.61804 -0.0607,0.31611 0.0911,0.66225 z" />
    <path
       inkscape:connector-curvature="0"
       id="path1002"
       style="font-style:normal;font-size:medium;text-anchor:middle;fill:none;fill-opacity:1;stroke:#000000;stroke-width:0.25;stroke-linecap:butt;stroke-linejoin:bevel;stroke-dasharray:none;stroke-opacity:1"
       d="m 268.81597,578.06747 0.71679,-0.76767 0.91542,0.85475 -0.71679,0.76768 z m -2.67241,-2.49528 0.71679,-0.76767 0.91543,0.85475 -0.71679,0.76768 z" />
    <path
       inkscape:connector-curvature="0"
       id="path1004"
       style="font-style:normal;font-size:medium;text-anchor:middle;fill:none;fill-opacity:1;stroke:#000000;stroke-width:0.25;stroke-linecap:butt;stroke-linejoin:bevel;stroke-dasharray:none;stroke-opacity:1"
       d="m 261.59687,580.44162 3.02313,-3.23772 0.67132,0.62682 q -0.0258,0.60719 -0.0517,1.21438 -0.0288,0.61039 -0.0159,1.16961 0.0216,1.17455 0.15878,1.7295 0.14038,0.55796 0.54831,0.93885 0.37259,0.3479 0.81231,0.29552 0.43993,-0.0462 0.85081,-0.48621 0.27293,-0.2923 0.48804,-0.72875 0.21513,-0.43645 0.30605,-0.9588 l 0.03,-0.0321 0.67452,0.62982 q -0.10052,0.33302 -0.36127,0.79902 -0.26375,0.46921 -0.59665,0.82574 -0.68681,0.73555 -1.43323,0.82022 -0.74321,0.0876 -1.35028,-0.47919 -0.27302,-0.25492 -0.44472,-0.54754 -0.17148,-0.2864 -0.25752,-0.61924 -0.0822,-0.31121 -0.11594,-0.6614 -0.0368,-0.34697 -0.0463,-0.8068 -0.0163,-0.65861 0.008,-1.32169 0.0271,-0.66008 0.0542,-1.23 l -2.40231,2.57283 z" />
    <path
       inkscape:connector-curvature="0"
       style="fill:#000000;stroke:#000000;stroke-width:0.25;stroke-linecap:butt;stroke-linejoin:bevel;stroke-dasharray:none;stroke-opacity:1"
       id="path854"
       d="m 17.014747,487.24459 9.999296,-10.0007 -7.499296,10.00052 7.500704,9.99948 z"
       class="arrow" />
    <path
       d="m 28.124121,491.24396 h -3.935547 v -0.74219 h 1.513672 v -4.87304 h -1.513672 v -0.66407 q 0.307617,0 0.65918,-0.0488 0.351562,-0.0537 0.532226,-0.15137 0.22461,-0.12207 0.351563,-0.30762 0.131836,-0.19043 0.151367,-0.50781 h 0.756836 v 6.55273 h 1.484375 z"
       style="font-style:normal;font-size:medium;text-anchor:middle;fill:none;fill-opacity:1;stroke:#000000;stroke-width:0.25;stroke-linecap:butt;stroke-linejoin:bevel;stroke-dasharray:none;stroke-opacity:1"
       id="path1007"
       inkscape:connector-curvature="0" />
    <path
       inkscape:connector-curvature="0"
       id="path1010"
       style="font-style:normal;font-size:medium;text-anchor:middle;fill:none;fill-opacity:1;stroke:#000000;stroke-width:0.25;stroke-linecap:butt;stroke-linejoin:bevel;stroke-dasharray:none;stroke-opacity:1"
       d="m 11.550008,491.52965 q 0.856934,-6e-5 1.555677,0.19764 0.698745,0.19331 1.19096,0.58879 0.501005,0.39987 0.773508,1.0019 0.272503,0.60203 0.27256,1.41502 1.6e-5,0.22852 -0.02634,0.43066 -0.02196,0.20215 -0.07469,0.36036 l -0.839356,6e-5 -3e-6,-0.0439 q 0.06591,-0.12744 0.127416,-0.36036 0.05711,-0.23291 0.05709,-0.51856 -6.8e-5,-0.97119 -0.580185,-1.52046 -0.584511,-0.55367 -1.608443,-0.6415 0.246123,0.40869 0.351616,0.76903 0.105494,0.36034 0.105524,0.78661 2.9e-5,0.4043 -0.07905,0.7339 -0.07908,0.32519 -0.307573,0.6548 -0.268038,0.38674 -0.681111,0.58452 -0.413072,0.19338 -0.988756,0.19343 -1.0019528,7e-5 -1.6304168,-0.65907 -0.6284642,-0.65914 -0.6285306,-1.60836 -3.33e-5,-0.47461 0.1493525,-0.87891 0.1449912,-0.40431 0.4394036,-0.70755 0.3647199,-0.37356 0.9403893,-0.57575 0.571275,-0.20218 1.480943,-0.20225 z m -0.188903,0.88771 q -0.681152,4e-5 -1.094228,0.1407 -0.4130763,0.14065 -0.6415747,0.38677 -0.1977394,0.20655 -0.2812189,0.44386 -0.087874,0.23731 -0.087855,0.51416 4.43e-5,0.63282 0.3955779,1.00194 0.3955337,0.36471 1.1118417,0.36466 0.417481,-3e-5 0.681145,-0.1187 0.263663,-0.11867 0.461397,-0.39993 0.136217,-0.19777 0.184541,-0.43508 0.04392,-0.23731 0.0439,-0.52734 -2.4e-5,-0.34278 -0.09234,-0.69433 -0.0923,-0.35156 -0.268113,-0.65916 -0.09228,-0.004 -0.180176,-0.009 -0.09229,-0.009 -0.232911,-0.009 z" />
    <path
       inkscape:connector-curvature="0"
       id="path1012"
       style="font-style:normal;font-size:medium;text-anchor:middle;fill:none;fill-opacity:1;stroke:#000000;stroke-width:0.25;stroke-linecap:butt;stroke-linejoin:bevel;stroke-dasharray:none;stroke-opacity:1"
       d="m 15.214853,488.76524 7.4e-5,1.05029 -1.252441,8e-5 -7.4e-5,-1.05029 z" />
    <path
       inkscape:connector-curvature="0"
       id="path1014"
       style="font-style:normal;font-size:medium;text-anchor:middle;fill:none;fill-opacity:1;stroke:#000000;stroke-width:0.25;stroke-linecap:butt;stroke-linejoin:bevel;stroke-dasharray:none;stroke-opacity:1"
       d="m 11.558346,485.08726 7.3e-5,1.0503 -1.252441,9e-5 -7.3e-5,-1.0503 z m 3.65625,-2.5e-4 7.3e-5,1.0503 -1.252441,8e-5 -7.3e-5,-1.0503 z" />
    <path
       inkscape:connector-curvature="0"
       id="path1016"
       style="font-style:normal;font-size:medium;text-anchor:middle;fill:none;fill-opacity:1;stroke:#000000;stroke-width:0.25;stroke-linecap:butt;stroke-linejoin:bevel;stroke-dasharray:none;stroke-opacity:1"
       d="m 15.214155,478.79844 2.48e-4,3.54199 -0.667968,4e-5 -9.5e-5,-1.3623 -4.385743,3.1e-4 9.5e-5,1.3623 -0.5976554,4e-5 q -1.94e-5,-0.27685 -0.043987,-0.59326 -0.048362,-0.3164 -0.136264,-0.47899 -0.1098774,-0.20214 -0.2768776,-0.31639 -0.1713951,-0.11863 -0.4570408,-0.13619 l -4.77e-5,-0.68115 5.8974611,-4.2e-4 -9.4e-5,-1.33594 z" />
    <path
       inkscape:connector-curvature="0"
       id="path1019"
       style="font-style:normal;font-size:medium;text-anchor:middle;fill:none;fill-opacity:1;stroke:#000000;stroke-width:0.25;stroke-linecap:butt;stroke-linejoin:bevel;stroke-dasharray:none;stroke-opacity:1"
       d="m 264.92329,453.42184 -2.18824,-2.78519 0.52525,-0.41268 0.84162,1.07123 3.44867,-2.70951 -0.84163,-1.07123 0.46996,-0.36923 q 0.17104,0.2177 0.40107,0.43935 0.23349,0.21894 0.40306,0.2925 0.21127,0.0911 0.41317,0.0778 0.20807,-0.0126 0.44354,-0.17523 l 0.42082,0.53561 -4.63738,3.64346 0.82534,1.05049 z" />
    <path
       inkscape:connector-curvature="0"
       id="path1021"
       style="font-style:normal;font-size:medium;text-anchor:middle;fill:none;fill-opacity:1;stroke:#000000;stroke-width:0.25;stroke-linecap:butt;stroke-linejoin:bevel;stroke-dasharray:none;stroke-opacity:1"
       d="m 271.26332,456.19209 q -1.38568,1.08869 -2.37741,1.1637 -0.98557,0.0757 -1.70231,-0.83653 -0.72761,-0.92609 -0.4077,-1.87042 0.32262,-0.94088 1.68412,-2.01056 1.37186,-1.07783 2.36433,-1.15901 0.99593,-0.0839 1.71539,0.83183 0.7276,0.9261 0.39461,1.87511 -0.32681,0.94977 -1.67103,2.00588 z m -2.28286,0.32376 q 0.37492,-0.099 0.78416,-0.35342 0.41539,-0.25374 0.94755,-0.67184 0.52525,-0.41268 0.87699,-0.76165 0.35447,-0.34551 0.52624,-0.68171 0.17106,-0.32999 0.14022,-0.64666 -0.0281,-0.31323 -0.28605,-0.6415 -0.2552,-0.32482 -0.5583,-0.43319 -0.30038,-0.10491 -0.67111,-0.0148 -0.34802,0.0834 -0.79453,0.36156 -0.44377,0.28164 -0.93446,0.66716 -0.53907,0.42353 -0.87207,0.74658 -0.33299,0.32305 -0.52204,0.67282 -0.17994,0.3258 -0.15873,0.64445 0.0239,0.3221 0.29543,0.66766 0.25521,0.32482 0.5583,0.43319 0.30309,0.10836 0.66839,0.0114 z" />
    <path
       inkscape:connector-curvature="0"
       id="path1023"
       style="font-style:normal;font-size:medium;text-anchor:middle;fill:none;fill-opacity:1;stroke:#000000;stroke-width:0.25;stroke-linecap:butt;stroke-linejoin:bevel;stroke-dasharray:none;stroke-opacity:1"
       d="m 273.52414,458.45082 -0.64887,-0.82588 0.98484,-0.77376 0.64887,0.82588 z m -2.87504,2.25883 -0.64886,-0.82588 0.98483,-0.77376 0.64887,0.82588 z" />
    <path
       inkscape:connector-curvature="0"
       id="path1025"
       style="font-style:normal;font-size:medium;text-anchor:middle;fill:none;fill-opacity:1;stroke:#000000;stroke-width:0.25;stroke-linecap:butt;stroke-linejoin:bevel;stroke-dasharray:none;stroke-opacity:1"
       d="m 276.30515,464.92822 -0.6,-0.76368 -1.44789,1.13756 -0.52127,-0.66347 1.44789,-1.13756 -1.93575,-2.46382 0.79478,-0.62444 4.86016,0.21092 0.49954,0.63582 -3.14457,2.4706 0.6,0.76368 z m -0.56838,-1.86154 2.32215,-1.82444 -3.88867,-0.16942 z" />
    <path
       inkscape:connector-curvature="0"
       style="fill:#000000;stroke:#000000;stroke-width:0.24999997;stroke-linecap:butt;stroke-linejoin:bevel;stroke-dasharray:none;stroke-opacity:1"
       id="path870"
       d="m 82.862754,530.77502 -5.058163,-13.20663 6.076721,10.92353 12.188067,-2.77506 z"
       class="arrow" />
    <path
       d="m 89.053979,526.55587 h -4.921875 v -1.02051 q 0.512695,-0.43945 1.025391,-0.8789 0.517578,-0.43946 0.961914,-0.87403 0.9375,-0.9082 1.284179,-1.44043 0.34668,-0.53711 0.34668,-1.15722 0,-0.56641 -0.375976,-0.88379 -0.371094,-0.32227 -1.040039,-0.32227 -0.444336,0 -0.961915,0.15625 -0.517578,0.15625 -1.010742,0.47852 h -0.04883 v -1.02539 q 0.34668,-0.1709 0.922852,-0.3125 0.581054,-0.1416 1.123047,-0.1416 1.118164,0 1.752929,0.54199 0.634766,0.53711 0.634766,1.45996 0,0.41504 -0.107422,0.77637 -0.102539,0.35644 -0.307617,0.67871 -0.19043,0.30273 -0.449219,0.5957 -0.253906,0.29297 -0.620117,0.64941 -0.522461,0.5127 -1.079102,0.9961 -0.55664,0.47851 -1.040039,0.88867 h 3.911133 z"
       style="font-style:normal;font-size:medium;text-anchor:middle;fill:none;fill-opacity:1;stroke:#000000;stroke-width:0.25;stroke-linecap:butt;stroke-linejoin:bevel;stroke-dasharray:none;stroke-opacity:1"
       id="path1028"
       inkscape:connector-curvature="0" />
    <path
       inkscape:connector-curvature="0"
       id="path1031"
       style="font-style:normal;font-size:medium;text-anchor:middle;fill:none;fill-opacity:1;stroke:#000000;stroke-width:0.25;stroke-linecap:butt;stroke-linejoin:bevel;stroke-dasharray:none;stroke-opacity:1"
       d="m 87.499119,534.81447 3.234685,1.44309 -0.272142,0.61001 -1.244115,-0.55504 -1.786857,4.00524 1.244115,0.55504 -0.243496,0.5458 q -0.252839,-0.1128 -0.559674,-0.20162 -0.308637,-0.0848 -0.492954,-0.0707 -0.229362,0.018 -0.401745,0.12392 -0.178184,0.10818 -0.310619,0.36189 l -0.622062,-0.27752 2.402766,-5.38581 -1.220024,-0.54428 z" />
    <path
       inkscape:connector-curvature="0"
       id="path1033"
       style="font-style:normal;font-size:medium;text-anchor:middle;fill:none;fill-opacity:1;stroke:#000000;stroke-width:0.25;stroke-linecap:butt;stroke-linejoin:bevel;stroke-dasharray:none;stroke-opacity:1"
       d="m 81.038061,533.94823 0.886929,0.39569 0.750189,-1.68155 0.770545,0.34376 -0.750188,1.68155 2.861453,1.27658 -0.411803,0.92306 -4.397525,2.08023 -0.738436,-0.32944 1.629294,-3.65207 -0.886929,-0.39568 z m 1.371003,1.38158 -1.203169,2.6969 3.518825,-1.66382 z" />
    <path
       inkscape:connector-curvature="0"
       id="path1035"
       style="font-style:normal;font-size:medium;text-anchor:middle;fill:none;fill-opacity:1;stroke:#000000;stroke-width:0.25;stroke-linecap:butt;stroke-linejoin:bevel;stroke-dasharray:none;stroke-opacity:1"
       d="m 77.545511,534.37748 0.959166,0.42791 -0.510273,1.14378 -0.959166,-0.42791 z m 1.489641,-3.33903 0.959167,0.42791 -0.510274,1.14378 -0.959166,-0.42792 z" />
    <path
       inkscape:connector-curvature="0"
       id="path1037"
       style="font-style:normal;font-size:medium;text-anchor:middle;fill:none;fill-opacity:1;stroke:#000000;stroke-width:0.25;stroke-linecap:butt;stroke-linejoin:bevel;stroke-dasharray:none;stroke-opacity:1"
       d="m 72.951051,528.32415 4.045367,1.80476 -0.374198,0.83876 q -0.582536,0.1732 -1.165063,0.3464 -0.586545,0.17141 -1.111106,0.36566 -1.103565,0.4027 -1.583665,0.71303 -0.481884,0.31433 -0.709271,0.82402 -0.207692,0.46554 -0.01505,0.86426 0.186834,0.40095 0.736659,0.64624 0.365205,0.16293 0.847906,0.22428 0.482697,0.0614 1.006207,-0.0227 l 0.04009,0.0179 -0.37599,0.84278 q -0.347606,0.0133 -0.873097,-0.0816 -0.529492,-0.0967 -0.97497,-0.29541 -0.919029,-0.41001 -1.242017,-1.08823 -0.324776,-0.67422 0.01361,-1.43272 0.152189,-0.34113 0.37299,-0.59871 0.214997,-0.25537 0.5017,-0.44505 0.267531,-0.179 0.587659,-0.3249 0.31611,-0.1477 0.747806,-0.30638 0.61742,-0.22982 1.252185,-0.42301 0.63297,-0.1892 1.18068,-0.34906 L 72.64487,529.0104 Z" />
    <path
       inkscape:connector-curvature="0"
       id="path1040"
       style="font-style:normal;font-size:medium;text-anchor:middle;fill:none;fill-opacity:1;stroke:#000000;stroke-width:0.25;stroke-linecap:butt;stroke-linejoin:bevel;stroke-dasharray:none;stroke-opacity:1"
       d="m 215.91539,189.17912 q 0,0.84815 -0.66357,1.41065 -0.65918,0.5625 -1.66114,0.5625 -1.06347,0 -1.69629,-0.54932 -0.62841,-0.54932 -0.62841,-1.40625 0,-0.54492 0.3164,-0.98437 0.31641,-0.44385 0.89209,-0.70313 v -0.0264 q -0.52734,-0.28125 -0.78222,-0.61523 -0.25049,-0.33398 -0.25049,-0.83496 0,-0.73828 0.60644,-1.23047 0.60645,-0.49219 1.54248,-0.49219 0.97998,0 1.56446,0.47022 0.58447,0.47021 0.58447,1.19531 0,0.44385 -0.27686,0.87451 -0.27685,0.42627 -0.81298,0.66797 v 0.0264 q 0.61523,0.26367 0.94042,0.65039 0.3252,0.38672 0.3252,0.98437 z m -1.0415,-3.19482 q 0,-0.47022 -0.36475,-0.74707 -0.36035,-0.28125 -0.92285,-0.28125 -0.55371,0 -0.90967,0.26367 -0.35156,0.26367 -0.35156,0.71191 0,0.31641 0.17578,0.54932 0.18018,0.22852 0.54053,0.40869 0.16259,0.0791 0.46582,0.20655 0.30761,0.12744 0.59765,0.21093 0.43506,-0.29004 0.60205,-0.60205 0.167,-0.31201 0.167,-0.7207 z m 0.13623,3.27832 q 0,-0.4043 -0.18018,-0.646 -0.17578,-0.24609 -0.69434,-0.49218 -0.20654,-0.0967 -0.45263,-0.18018 -0.2461,-0.0835 -0.65479,-0.23291 -0.3955,0.21533 -0.6372,0.58447 -0.23731,0.36914 -0.23731,0.83496 0,0.59326 0.40869,0.97998 0.40869,0.38672 1.03711,0.38672 0.6416,0 1.02393,-0.32959 0.38672,-0.32959 0.38672,-0.90527 z" />
    <path
       inkscape:connector-curvature="0"
       id="path1042"
       style="font-style:normal;font-size:medium;text-anchor:middle;fill:none;fill-opacity:1;stroke:#000000;stroke-width:0.25;stroke-linecap:butt;stroke-linejoin:bevel;stroke-dasharray:none;stroke-opacity:1"
       d="m 219.03111,187.3466 h -1.05029 v -1.25244 h 1.05029 z m 0,3.65625 h -1.05029 v -1.25244 h 1.05029 z" />
    <path
       inkscape:connector-curvature="0"
       id="path1044"
       style="font-style:normal;font-size:medium;text-anchor:middle;fill:none;fill-opacity:1;stroke:#000000;stroke-width:0.25;stroke-linecap:butt;stroke-linejoin:bevel;stroke-dasharray:none;stroke-opacity:1"
       d="m 225.69322,191.00285 h -4.42969 v -0.91845 q 0.46143,-0.39551 0.92286,-0.79102 0.46582,-0.39551 0.86572,-0.78662 0.84375,-0.81738 1.15576,-1.29639 0.31201,-0.4834 0.31201,-1.0415 0,-0.50977 -0.33838,-0.79541 -0.33398,-0.29004 -0.93603,-0.29004 -0.3999,0 -0.86572,0.14062 -0.46582,0.14063 -0.90967,0.43067 h -0.0439 v -0.92285 q 0.31201,-0.15381 0.83057,-0.28125 0.52295,-0.12744 1.01074,-0.12744 1.00635,0 1.57764,0.48779 0.57129,0.4834 0.57129,1.31396 0,0.37354 -0.0967,0.69873 -0.0923,0.3208 -0.27686,0.61084 -0.17139,0.27246 -0.4043,0.53614 -0.22851,0.26367 -0.5581,0.58447 -0.47022,0.46143 -0.97119,0.89648 -0.50098,0.43067 -0.93604,0.79981 h 3.52002 z" />
    <path
       inkscape:connector-curvature="0"
       id="path1047"
       style="font-style:normal;font-size:medium;text-anchor:middle;fill:none;fill-opacity:1;stroke:#000000;stroke-width:0.25;stroke-linecap:butt;stroke-linejoin:bevel;stroke-dasharray:none;stroke-opacity:1"
       d="m 224.71394,335.07516 q 0,-0.99755 0.65918,-1.63037 0.65479,-0.62841 1.6084,-0.62841 0.4834,0 0.87891,0.14941 0.39551,0.14941 0.69873,0.44385 0.37793,0.36474 0.58447,0.96679 0.20215,0.60206 0.20215,1.4502 0,0.87012 -0.18457,1.54248 -0.18897,0.67236 -0.59766,1.19531 -0.38672,0.49658 -0.99756,0.77344 -0.61084,0.28125 -1.42382,0.28125 -0.25928,0 -0.43506,-0.022 -0.17578,-0.022 -0.35596,-0.0791 v -0.83936 h 0.044 q 0.12304,0.0659 0.37353,0.12305 0.24609,0.0615 0.50537,0.0615 0.94483,0 1.50733,-0.59326 0.5625,-0.58887 0.65478,-1.59522 -0.36914,0.22413 -0.7251,0.33838 -0.36035,0.11866 -0.83056,0.11866 -0.41748,0 -0.73389,-0.0791 -0.3208,-0.0747 -0.65478,-0.30761 -0.38672,-0.26807 -0.58008,-0.67676 -0.19776,-0.40869 -0.19776,-0.99317 z m 0.89209,-0.0351 q 0,0.40869 0.12305,0.67676 0.11865,0.26806 0.39551,0.46582 0.20215,0.14062 0.44824,0.18457 0.24609,0.0439 0.51416,0.0439 0.37354,0 0.69434,-0.0879 0.3208,-0.0879 0.65918,-0.27246 0.009,-0.0967 0.0132,-0.18896 0.004,-0.0879 0.004,-0.22413 0,-0.69433 -0.14062,-1.09863 -0.14502,-0.3999 -0.39551,-0.63281 -0.20215,-0.19336 -0.43506,-0.28565 -0.2373,-0.0879 -0.51416,-0.0879 -0.6372,0 -1.00195,0.38672 -0.36475,0.39112 -0.36475,1.12061 z" />
    <path
       inkscape:connector-curvature="0"
       id="path1049"
       style="font-style:normal;font-size:medium;text-anchor:middle;fill:none;fill-opacity:1;stroke:#000000;stroke-width:0.25;stroke-linecap:butt;stroke-linejoin:bevel;stroke-dasharray:none;stroke-opacity:1"
       d="m 222.05525,332.95261 h 1.0503 v 1.25244 h -1.0503 z" />
    <path
       inkscape:connector-curvature="0"
       id="path1051"
       style="font-style:normal;font-size:medium;text-anchor:middle;fill:none;fill-opacity:1;stroke:#000000;stroke-width:0.25;stroke-linecap:butt;stroke-linejoin:bevel;stroke-dasharray:none;stroke-opacity:1"
       d="m 218.37703,336.60886 h 1.05029 v 1.25244 h -1.05029 z m 0,-3.65625 h 1.05029 v 1.25244 h -1.05029 z" />
    <path
       inkscape:connector-curvature="0"
       id="path1053"
       style="font-style:normal;font-size:medium;text-anchor:middle;fill:none;fill-opacity:1;stroke:#000000;stroke-width:0.25;stroke-linecap:butt;stroke-linejoin:bevel;stroke-dasharray:none;stroke-opacity:1"
       d="m 211.61824,335.07516 q 0,-0.99755 0.65918,-1.63037 0.65479,-0.62841 1.6084,-0.62841 0.4834,0 0.8789,0.14941 0.39551,0.14941 0.69874,0.44385 0.37792,0.36474 0.58447,0.96679 0.20215,0.60206 0.20215,1.4502 0,0.87012 -0.18457,1.54248 -0.18897,0.67236 -0.59766,1.19531 -0.38672,0.49658 -0.99756,0.77344 -0.61084,0.28125 -1.42383,0.28125 -0.25927,0 -0.43506,-0.022 -0.17578,-0.022 -0.35595,-0.0791 v -0.83936 h 0.0439 q 0.12305,0.0659 0.37354,0.12305 0.24609,0.0615 0.50537,0.0615 0.94482,0 1.50732,-0.59326 0.5625,-0.58887 0.65479,-1.59522 -0.36914,0.22413 -0.7251,0.33838 -0.36035,0.11866 -0.83057,0.11866 -0.41748,0 -0.73388,-0.0791 -0.3208,-0.0747 -0.65479,-0.30761 -0.38672,-0.26807 -0.58008,-0.67676 -0.19775,-0.40869 -0.19775,-0.99317 z m 0.89209,-0.0351 q 0,0.40869 0.12305,0.67676 0.11865,0.26806 0.3955,0.46582 0.20215,0.14062 0.44825,0.18457 0.24609,0.0439 0.51416,0.0439 0.37353,0 0.69433,-0.0879 0.3208,-0.0879 0.65918,-0.27246 0.009,-0.0967 0.0132,-0.18896 0.004,-0.0879 0.004,-0.22413 0,-0.69433 -0.14062,-1.09863 -0.14502,-0.3999 -0.39551,-0.63281 -0.20215,-0.19336 -0.43506,-0.28565 -0.23731,-0.0879 -0.51416,-0.0879 -0.63721,0 -1.00195,0.38672 -0.36475,0.39112 -0.36475,1.12061 z" />
    <path
       inkscape:connector-curvature="0"
       id="path1055"
       style="font-style:normal;font-size:medium;text-anchor:middle;fill:none;fill-opacity:1;stroke:#000000;stroke-width:0.25;stroke-linecap:butt;stroke-linejoin:bevel;stroke-dasharray:none;stroke-opacity:1"
       d="m 208.95955,332.95261 h 1.05029 v 1.25244 h -1.05029 z" />
    <path
       inkscape:connector-curvature="0"
       id="path1058"
       style="font-style:normal;font-size:medium;text-anchor:middle;fill:none;fill-opacity:1;stroke:#000000;stroke-width:0.25;stroke-linecap:butt;stroke-linejoin:bevel;stroke-dasharray:none;stroke-opacity:1"
       d="m 146.71553,210.45568 0.11841,3.54002 -0.6676,0.0223 -0.0455,-1.36155 -4.3833,0.14661 0.0455,1.36155 -0.59731,0.02 q -0.009,-0.27671 -0.0637,-0.59146 -0.0588,-0.31462 -0.15217,-0.47419 -0.11655,-0.19836 -0.28727,-0.30697 -0.17526,-0.11286 -0.46133,-0.12088 l -0.0228,-0.68077 5.89417,-0.19715 -0.0447,-1.33519 z" />
    <path
       inkscape:connector-curvature="0"
       id="path1060"
       style="font-style:normal;font-size:medium;text-anchor:middle;fill:none;fill-opacity:1;stroke:#000000;stroke-width:0.25;stroke-linecap:butt;stroke-linejoin:bevel;stroke-dasharray:none;stroke-opacity:1"
       d="m 143.38161,205.03578 q 0.1818,-0.21713 0.46274,-0.36283 0.28093,-0.1457 0.73331,-0.16083 0.44799,-0.015 0.82675,0.13502 0.37877,0.15003 0.66531,0.43504 0.31846,0.31912 0.48278,0.76212 0.15978,0.43875 0.17755,0.97019 0.0182,0.54462 -0.0959,1.07608 -0.10974,0.5313 -0.25215,0.87464 l -0.91795,0.0307 -0.002,-0.0659 q 0.23347,-0.38155 0.37908,-0.89208 0.14561,-0.51052 0.12989,-0.98048 -0.009,-0.27669 -0.11193,-0.58545 -0.10268,-0.30875 -0.2892,-0.49598 -0.20001,-0.19557 -0.43602,-0.28441 -0.23616,-0.0932 -0.59192,-0.0813 -0.35137,0.0117 -0.57594,0.13359 -0.22911,0.11758 -0.35425,0.31964 -0.12955,0.20219 -0.16846,0.4849 -0.0433,0.28285 -0.0324,0.60786 l 0.0132,0.39529 -0.72908,0.0244 -0.0103,-0.30744 q -0.0223,-0.6676 -0.31225,-1.05363 -0.29446,-0.39028 -0.83029,-0.37235 -0.23717,0.008 -0.40948,0.11482 -0.1767,0.10704 -0.28487,0.29093 -0.10788,0.19269 -0.14459,0.40937 -0.0368,0.21668 -0.0277,0.48899 0.014,0.41724 0.17901,0.8822 0.16504,0.46496 0.45131,0.8731 l 0.001,0.0439 -0.91794,0.0307 q -0.16415,-0.3067 -0.30886,-0.8207 -0.14924,-0.51825 -0.16554,-1.00577 -0.016,-0.47874 0.0596,-0.84621 0.0757,-0.36749 0.25906,-0.66822 0.20024,-0.32328 0.49346,-0.49578 0.29323,-0.17249 0.6929,-0.18586 0.54463,-0.0182 0.96602,0.35463 0.41684,0.36859 0.53974,0.88772 l 0.0615,-0.002 q 0.028,-0.21199 0.13317,-0.48812 0.10069,-0.27598 0.26128,-0.47043 z" />
    <path
       inkscape:connector-curvature="0"
       id="path1062"
       style="font-style:normal;font-size:medium;text-anchor:middle;fill:none;fill-opacity:1;stroke:#000000;stroke-width:0.25;stroke-linecap:butt;stroke-linejoin:bevel;stroke-dasharray:none;stroke-opacity:1"
       d="m 142.75151,201.31502 0.0351,1.04971 -1.25175,0.0419 -0.0351,-1.04971 z m 3.6542,-0.12222 0.0351,1.0497 -1.25175,0.0419 -0.0351,-1.0497 z" />
    <path
       inkscape:connector-curvature="0"
       id="path1064"
       style="font-style:normal;font-size:medium;text-anchor:middle;fill:none;fill-opacity:1;stroke:#000000;stroke-width:0.25;stroke-linecap:butt;stroke-linejoin:bevel;stroke-dasharray:none;stroke-opacity:1"
       d="m 146.18301,194.53441 0.14808,4.42722 -0.91795,0.0307 q -0.41072,-0.44795 -0.82143,-0.8959 -0.41085,-0.45234 -0.81512,-0.83894 -0.84513,-0.81595 -1.33429,-1.11178 -0.49356,-0.29567 -1.05136,-0.27702 -0.50947,0.017 -0.78365,0.36478 -0.27872,0.34349 -0.25859,0.94521 0.0134,0.39968 0.16949,0.86054 0.15611,0.46086 0.46083,0.89476 l 0.001,0.0439 -0.92234,0.0309 q -0.16415,-0.30669 -0.30886,-0.8207 -0.14485,-0.5184 -0.16115,-1.00592 -0.0336,-1.00578 0.43478,-1.59306 0.46403,-0.58713 1.29413,-0.6149 0.37333,-0.0125 0.70158,0.0733 0.3237,0.0815 0.61975,0.25629 0.27804,0.16218 0.54935,0.38615 0.27116,0.21957 0.6028,0.53825 0.47689,0.45453 0.92845,0.94068 0.44717,0.4863 0.83064,0.90878 l -0.11767,-3.51806 z" />
    <path
       inkscape:connector-curvature="0"
       id="path1067"
       style="font-style:normal;font-size:medium;text-anchor:middle;fill:none;fill-opacity:1;stroke:#000000;stroke-width:0.25;stroke-linecap:butt;stroke-linejoin:bevel;stroke-dasharray:none;stroke-opacity:1"
       d="m 264.4433,198.99268 -2.4173,-2.58889 0.48823,-0.45587 0.92973,0.99573 3.2056,-2.99314 -0.92973,-0.99572 0.43684,-0.40788 q 0.18894,0.20235 0.437,0.40362 0.25127,0.19828 0.42648,0.25714 0.21826,0.0728 0.41829,0.0423 0.20625,-0.0302 0.42703,-0.21233 l 0.46486,0.49786 -4.31054,4.02483 0.91174,0.97646 z" />
    <path
       inkscape:connector-curvature="0"
       id="path1069"
       style="font-style:normal;font-size:medium;text-anchor:middle;fill:none;fill-opacity:1;stroke:#000000;stroke-width:0.25;stroke-linecap:butt;stroke-linejoin:bevel;stroke-dasharray:none;stroke-opacity:1"
       d="m 268.35417,203.18116 -2.4173,-2.58889 0.48823,-0.45586 0.92973,0.99572 3.2056,-2.99313 -0.92973,-0.99573 0.43683,-0.40788 q 0.18895,0.20235 0.43701,0.40363 0.25127,0.19828 0.42648,0.25713 0.21826,0.0728 0.41829,0.0423 0.20625,-0.0302 0.42703,-0.21234 l 0.46486,0.49786 -4.31054,4.02484 0.91174,0.97645 z" />
    <path
       inkscape:connector-curvature="0"
       id="path1071"
       style="font-style:normal;font-size:medium;text-anchor:middle;fill:none;fill-opacity:1;stroke:#000000;stroke-width:0.25;stroke-linecap:butt;stroke-linejoin:bevel;stroke-dasharray:none;stroke-opacity:1"
       d="m 273.44088,203.27157 -0.7168,-0.76768 0.91543,-0.85475 0.7168,0.76768 z m -2.67241,2.49528 -0.7168,-0.76768 0.91543,-0.85476 0.7168,0.76768 z" />
    <path
       inkscape:connector-curvature="0"
       id="path1073"
       style="font-style:normal;font-size:medium;text-anchor:middle;fill:none;fill-opacity:1;stroke:#000000;stroke-width:0.25;stroke-linecap:butt;stroke-linejoin:bevel;stroke-dasharray:none;stroke-opacity:1"
       d="m 275.31516,210.63628 -3.02313,-3.23773 0.67131,-0.62681 q 0.60399,0.0673 1.20799,0.13468 0.60699,0.0705 1.16578,0.0959 1.17327,0.0589 1.73631,-0.04 0.56627,-0.10185 0.9742,-0.48274 0.37259,-0.3479 0.35044,-0.79017 -0.0159,-0.44206 -0.42682,-0.88211 -0.27292,-0.29229 -0.69362,-0.53679 -0.42069,-0.2445 -0.9356,-0.37098 l -0.03,-0.0321 0.67453,-0.62982 q 0.32536,0.12308 0.7724,0.41512 0.45005,0.29526 0.78295,0.6518 0.6868,0.73555 0.72015,1.48601 0.0366,0.74747 -0.5705,1.31431 -0.27303,0.25493 -0.57671,0.40618 -0.29747,0.15148 -0.63541,0.21453 -0.31612,0.0607 -0.66779,0.0704 -0.34868,0.0129 -0.8081,-0.009 -0.65816,-0.0288 -1.31806,-0.098 -0.65667,-0.0722 -1.2234,-0.13831 l 2.40231,2.57283 z" />
    <path
       inkscape:connector-curvature="0"
       style="fill:#000000;stroke:#000000;stroke-width:0.24999999;stroke-linecap:butt;stroke-linejoin:bevel;stroke-dasharray:none;stroke-opacity:1"
       id="path902"
       d="m 17.00071,289.16015 9.999284,-10.00071 -7.499284,10.00053 7.500714,9.99946 z"
       class="arrow" />
    <path
       d="m 27.885475,289.65852 q 0.234375,0.20996 0.385742,0.52735 0.151367,0.31738 0.151367,0.82031 0,0.49805 -0.180664,0.91309 -0.180664,0.41503 -0.507813,0.72265 -0.366211,0.3418 -0.864257,0.50781 -0.493164,0.16114 -1.083985,0.16114 -0.605469,0 -1.191406,-0.14649 -0.585938,-0.1416 -0.961914,-0.3125 v -1.02051 h 0.07324 q 0.415039,0.27344 0.976562,0.45411 0.561524,0.18066 1.083985,0.18066 0.307617,0 0.654297,-0.10254 0.346679,-0.10254 0.561523,-0.30273 0.224609,-0.21485 0.332031,-0.47364 0.112305,-0.25878 0.112305,-0.65429 0,-0.39063 -0.126953,-0.64453 -0.12207,-0.25879 -0.341797,-0.40528 -0.219727,-0.15136 -0.532227,-0.20508 -0.3125,-0.0586 -0.673828,-0.0586 h -0.439453 v -0.81055 h 0.341797 q 0.742188,0 1.181641,-0.30761 0.444336,-0.3125 0.444336,-0.90821 0,-0.26367 -0.112305,-0.45898 -0.112305,-0.2002 -0.3125,-0.32715 -0.209961,-0.12695 -0.449219,-0.17578 -0.239258,-0.0488 -0.541992,-0.0488 -0.463867,0 -0.986328,0.16602 -0.522461,0.16601 -0.986328,0.46875 h -0.04883 v -1.02051 q 0.346679,-0.1709 0.922851,-0.3125 0.581055,-0.14649 1.123047,-0.14649 0.532227,0 0.9375,0.0977 0.405274,0.0977 0.732422,0.3125 0.351563,0.23438 0.532227,0.56641 0.180664,0.33203 0.180664,0.77636 0,0.60547 -0.429688,1.05957 -0.424805,0.44922 -1.005859,0.56641 v 0.0684 q 0.234375,0.0391 0.537109,0.16602 0.302735,0.12207 0.512696,0.30761 z"
       style="font-style:normal;font-size:medium;text-anchor:middle;fill:none;fill-opacity:1;stroke:#000000;stroke-width:0.25;stroke-linecap:butt;stroke-linejoin:bevel;stroke-dasharray:none;stroke-opacity:1"
       id="path1076"
       inkscape:connector-curvature="0" />
    <path
       inkscape:connector-curvature="0"
       id="path1079"
       style="font-style:normal;font-size:medium;text-anchor:middle;fill:none;fill-opacity:1;stroke:#000000;stroke-width:0.25;stroke-linecap:butt;stroke-linejoin:bevel;stroke-dasharray:none;stroke-opacity:1"
       d="m 11.535976,293.44521 q 0.856933,-6e-5 1.555678,0.19765 0.698744,0.19331 1.19096,0.58878 0.501005,0.39987 0.773509,1.0019 0.272505,0.60203 0.272563,1.41502 1.7e-5,0.22851 -0.02634,0.43066 -0.02195,0.20215 -0.07468,0.36035 l -0.839356,6e-5 -3e-6,-0.0439 q 0.06591,-0.12744 0.127416,-0.36035 0.05711,-0.23292 0.05709,-0.51857 -7e-5,-0.97119 -0.580188,-1.52047 -0.584513,-0.55366 -1.608445,-0.64148 0.246123,0.40867 0.351618,0.76902 0.105494,0.36035 0.105525,0.78662 2.9e-5,0.40429 -0.07905,0.73388 -0.07908,0.32521 -0.30757,0.65481 -0.268039,0.38674 -0.681111,0.58452 -0.413072,0.19339 -0.988755,0.19343 -1.0019533,8e-5 -1.6304186,-0.65906 -0.6284655,-0.65913 -0.6285338,-1.60835 -3.42e-5,-0.47461 0.1493508,-0.87891 0.1449904,-0.40431 0.4394022,-0.70756 0.3647192,-0.37356 0.9403884,-0.57575 0.571275,-0.20219 1.480943,-0.20226 z m -0.188902,0.88771 q -0.681152,5e-5 -1.094227,0.14071 -0.4130767,0.14065 -0.6415746,0.38676 -0.197739,0.20656 -0.281218,0.44387 -0.087874,0.23732 -0.087854,0.51417 4.56e-5,0.63281 0.39558,1.00192 0.3955346,0.36472 1.1118436,0.36467 0.41748,-3e-5 0.681143,-0.1187 0.263664,-0.11867 0.461397,-0.39994 0.136216,-0.19777 0.184539,-0.43507 0.04392,-0.23731 0.0439,-0.52735 -2.4e-5,-0.34277 -0.09234,-0.69433 -0.0923,-0.35155 -0.268113,-0.65916 -0.09229,-0.004 -0.180177,-0.009 -0.09229,-0.009 -0.232911,-0.009 z" />
    <path
       inkscape:connector-curvature="0"
       id="path1081"
       style="font-style:normal;font-size:medium;text-anchor:middle;fill:none;fill-opacity:1;stroke:#000000;stroke-width:0.25;stroke-linecap:butt;stroke-linejoin:bevel;stroke-dasharray:none;stroke-opacity:1"
       d="m 15.200816,290.68079 7.5e-5,1.0503 -1.252442,9e-5 -7.5e-5,-1.0503 z" />
    <path
       inkscape:connector-curvature="0"
       id="path1083"
       style="font-style:normal;font-size:medium;text-anchor:middle;fill:none;fill-opacity:1;stroke:#000000;stroke-width:0.25;stroke-linecap:butt;stroke-linejoin:bevel;stroke-dasharray:none;stroke-opacity:1"
       d="m 11.544301,287.00283 7.5e-5,1.0503 -1.252442,9e-5 -7.5e-5,-1.0503 z m 3.65625,-2.6e-4 7.5e-5,1.0503 -1.252442,9e-5 -7.5e-5,-1.0503 z" />
    <path
       inkscape:connector-curvature="0"
       id="path1085"
       style="font-style:normal;font-size:medium;text-anchor:middle;fill:none;fill-opacity:1;stroke:#000000;stroke-width:0.25;stroke-linecap:butt;stroke-linejoin:bevel;stroke-dasharray:none;stroke-opacity:1"
       d="m 12.049234,280.91637 q 0.188949,-0.21095 0.474584,-0.3472 0.285635,-0.13625 0.738271,-0.13628 0.448243,-4e-5 0.821789,0.16254 0.373547,0.16256 0.650423,0.45698 0.307642,0.32957 0.457088,0.7778 0.145051,0.44384 0.14509,0.97557 3.9e-5,0.54493 -0.131759,1.07228 -0.127403,0.52735 -0.281188,0.86574 l -0.918457,6e-5 -5e-6,-0.0659 q 0.246067,-0.37356 0.408629,-0.87894 0.162561,-0.50538 0.162527,-0.9756 -2e-5,-0.27685 -0.09233,-0.58885 -0.0923,-0.31202 -0.272497,-0.50536 -0.193373,-0.20213 -0.42629,-0.29879 -0.232918,-0.10106 -0.588875,-0.10104 -0.351563,3e-5 -0.58007,0.1143 -0.232903,0.10988 -0.364724,0.30765 -0.136216,0.19776 -0.184536,0.47901 -0.05271,0.28126 -0.05269,0.60646 l 2.8e-5,0.3955 -0.729492,5e-5 -2.2e-5,-0.30761 q -4.8e-5,-0.66797 -0.276931,-1.06346 -0.281279,-0.39988 -0.817412,-0.39984 -0.2373047,1e-5 -0.4130787,0.1011 -0.1801685,0.10109 -0.2944134,0.28127 -0.1142442,0.18898 -0.158174,0.40431 -0.043929,0.21533 -0.04391,0.48779 3.01e-5,0.41748 0.149478,0.88769 0.1494479,0.4702 0.4219389,0.88766 l 3.1e-6,0.0439 -0.918457,7e-5 q -0.153831,-0.312 -0.2813098,-0.83055 -0.1318735,-0.52294 -0.1319086,-1.01073 -3.45e-5,-0.479 0.08783,-0.84376 0.087865,-0.36476 0.2812026,-0.6592 0.2109147,-0.31642 0.5097311,-0.47904 0.2988164,-0.16262 0.6987195,-0.16265 0.544922,-4e-5 0.95364,0.38666 0.404325,0.38229 0.509832,0.90523 l 0.06152,-1e-5 q 0.03514,-0.21094 0.149379,-0.48341 0.109844,-0.27246 0.276823,-0.46144 z" />
    <path
       inkscape:connector-curvature="0"
       id="path1088"
       style="font-style:normal;font-size:medium;text-anchor:middle;fill:none;fill-opacity:1;stroke:#000000;stroke-width:0.25;stroke-linecap:butt;stroke-linejoin:bevel;stroke-dasharray:none;stroke-opacity:1"
       d="m 272.18836,313.71737 2.18825,-2.7852 0.52525,0.41268 -0.84164,1.07122 3.44867,2.70952 0.84163,-1.07123 0.46995,0.36923 q -0.17104,0.2177 -0.332,0.49362 -0.15749,0.27864 -0.1888,0.46082 -0.0385,0.22683 0.0222,0.41985 0.0615,0.19917 0.27521,0.38947 l -0.42081,0.53562 -4.63738,-3.64346 -0.82535,1.0505 z" />
    <path
       inkscape:connector-curvature="0"
       id="path1090"
       style="font-style:normal;font-size:medium;text-anchor:middle;fill:none;fill-opacity:1;stroke:#000000;stroke-width:0.25;stroke-linecap:butt;stroke-linejoin:bevel;stroke-dasharray:none;stroke-opacity:1"
       d="m 268.64808,318.22344 2.18824,-2.7852 0.52525,0.41268 -0.84163,1.07122 3.44866,2.70951 0.84163,-1.07122 0.46996,0.36922 q -0.17104,0.21771 -0.332,0.49363 -0.1575,0.27864 -0.18881,0.46082 -0.0385,0.22683 0.0222,0.41984 0.0615,0.19918 0.27522,0.38948 l -0.42082,0.53561 -4.63738,-3.64345 -0.82534,1.0505 z" />
    <path
       inkscape:connector-curvature="0"
       id="path1092"
       style="font-style:normal;font-size:medium;text-anchor:middle;fill:none;fill-opacity:1;stroke:#000000;stroke-width:0.25;stroke-linecap:butt;stroke-linejoin:bevel;stroke-dasharray:none;stroke-opacity:1"
       d="m 269.33759,323.26401 0.64887,-0.82589 0.98484,0.77376 -0.64887,0.82588 z m -2.87504,-2.25884 0.64887,-0.82588 0.98484,0.77376 -0.64887,0.82588 z" />
    <path
       inkscape:connector-curvature="0"
       id="path1094"
       style="font-style:normal;font-size:medium;text-anchor:middle;fill:none;fill-opacity:1;stroke:#000000;stroke-width:0.25;stroke-linecap:butt;stroke-linejoin:bevel;stroke-dasharray:none;stroke-opacity:1"
       d="m 263.70228,327.49887 0.6,-0.76368 -1.44789,-1.13756 0.52127,-0.66347 1.44789,1.13756 1.93575,-2.46382 0.79478,0.62443 0.94521,4.77202 -0.49955,0.63583 -3.14457,-2.4706 -0.6,0.76368 z m 1.67416,-0.99276 2.32215,1.82444 -0.75563,-3.81831 z" />
    <path
       inkscape:connector-curvature="0"
       style="fill:#000000;stroke:#000000;stroke-width:0.25;stroke-linecap:butt;stroke-linejoin:bevel;stroke-dasharray:none;stroke-opacity:1"
       id="path918"
       d="m 82.854767,245.62044 13.206989,5.05722 -12.188268,-2.77419 -6.075938,10.92396 z"
       class="arrow" />
    <path
       d="m 89.212597,255.79344 h -1.079102 v 2.0459 h -0.9375 v -2.0459 H 83.71455 v -1.12305 l 3.520508,-4.10156 h 0.898437 v 4.44336 h 1.079102 z m -2.016602,-0.78125 v -3.28125 l -2.817383,3.28125 z"
       style="font-style:normal;font-size:medium;text-anchor:middle;fill:none;fill-opacity:1;stroke:#000000;stroke-width:0.25;stroke-linecap:butt;stroke-linejoin:bevel;stroke-dasharray:none;stroke-opacity:1"
       id="path1097"
       inkscape:connector-curvature="0" />
    <path
       inkscape:connector-curvature="0"
       id="path1100"
       style="font-style:normal;font-size:medium;text-anchor:middle;fill:none;fill-opacity:1;stroke:#000000;stroke-width:0.25;stroke-linecap:butt;stroke-linejoin:bevel;stroke-dasharray:none;stroke-opacity:1"
       d="m 76.751669,246.3727 -3.234583,1.44332 -0.272191,-0.60999 1.244071,-0.55513 -1.787141,-4.0051 -1.244071,0.55512 -0.243536,-0.54578 q 0.252828,-0.11281 0.523885,-0.28183 0.269263,-0.17304 0.381919,-0.3196 0.139836,-0.1827 0.176127,-0.38176 0.03852,-0.20486 -0.06183,-0.47288 l 0.622036,-0.27756 2.40315,5.38562 1.219991,-0.54438 z" />
    <path
       inkscape:connector-curvature="0"
       id="path1102"
       style="font-style:normal;font-size:medium;text-anchor:middle;fill:none;fill-opacity:1;stroke:#000000;stroke-width:0.25;stroke-linecap:butt;stroke-linejoin:bevel;stroke-dasharray:none;stroke-opacity:1"
       d="m 80.516238,241.24255 q 0.269633,0.0866 0.510436,0.29195 0.240806,0.20535 0.425247,0.6187 0.182657,0.40934 0.186381,0.81671 0.0037,0.40738 -0.152339,0.78018 -0.175633,0.41523 -0.524089,0.73432 -0.346233,0.3133 -0.831821,0.52998 -0.497628,0.22205 -1.032923,0.31654 -0.533506,0.0985 -0.905193,0.0959 l -0.374262,-0.83875 0.0602,-0.0269 q 0.441395,0.0725 0.969163,0.0151 0.527768,-0.0574 0.957173,-0.24905 0.252827,-0.11282 0.500148,-0.32425 0.247321,-0.21143 0.350485,-0.45474 0.105813,-0.25895 0.09919,-0.51105 -0.0026,-0.25388 -0.147652,-0.57893 -0.143261,-0.32106 -0.340718,-0.48318 -0.195236,-0.16793 -0.42955,-0.20774 -0.236103,-0.0438 -0.512642,0.0266 -0.278315,0.0665 -0.575287,0.199 l -0.361181,0.16116 -0.297259,-0.66617 0.280919,-0.12536 q 0.609996,-0.27219 0.858359,-0.68618 0.25059,-0.4198 0.03212,-0.9094 -0.0967,-0.21671 -0.260631,-0.33605 -0.16572,-0.12334 -0.376817,-0.15427 -0.219125,-0.0273 -0.433677,0.0203 -0.214532,0.0477 -0.463346,0.15868 -0.381248,0.17012 -0.749771,0.49817 -0.368517,0.32806 -0.63874,0.74699 l -0.04014,0.0179 -0.374262,-0.83875 q 0.222256,-0.2676 0.643875,-0.59529 0.423843,-0.33348 0.8693,-0.53225 0.437432,-0.19519 0.80634,-0.26355 0.368908,-0.0684 0.716576,-0.0118 0.374897,0.0637 0.645153,0.27033 0.270256,0.20664 0.433211,0.57183 0.222049,0.49763 0.03543,1.02844 -0.184399,0.525 -0.618984,0.83441 l 0.02506,0.0562 q 0.206974,-0.0538 0.502331,-0.0605 0.293581,-0.0107 0.534193,0.0648 z" />
    <path
       inkscape:connector-curvature="0"
       id="path1104"
       style="font-style:normal;font-size:medium;text-anchor:middle;fill:none;fill-opacity:1;stroke:#000000;stroke-width:0.25;stroke-linecap:butt;stroke-linejoin:bevel;stroke-dasharray:none;stroke-opacity:1"
       d="m 83.725479,239.25714 -0.959138,0.42798 -0.510356,-1.14374 0.959139,-0.42798 z m 1.489882,3.33892 -0.959138,0.42799 -0.510356,-1.14374 0.959138,-0.42799 z" />
    <path
       inkscape:connector-curvature="0"
       id="path1106"
       style="font-style:normal;font-size:medium;text-anchor:middle;fill:none;fill-opacity:1;stroke:#000000;stroke-width:0.25;stroke-linecap:butt;stroke-linejoin:bevel;stroke-dasharray:none;stroke-opacity:1"
       d="m 90.685399,238.13894 -0.886902,0.39575 0.750314,1.6815 -0.770521,0.34382 -0.750314,-1.6815 -2.861362,1.27678 -0.411865,-0.92301 1.389262,-4.66214 0.738416,-0.32949 1.629557,3.65194 0.886901,-0.39575 z m -1.943936,0.0975 -1.203368,-2.69683 -1.112209,3.73008 z" />
    <path
       inkscape:connector-curvature="0"
       id="path1109"
       style="font-style:normal;font-size:medium;text-anchor:middle;fill:none;fill-opacity:1;stroke:#000000;stroke-width:0.25;stroke-linecap:butt;stroke-linejoin:bevel;stroke-dasharray:none;stroke-opacity:1"
       d="m 184.26691,102.15524 v 2.53907 h -9.51172 v -2.53907 h 0.69824 v 1.68946 h 8.11524 v -1.68946 z" />
    <path
       inkscape:connector-curvature="0"
       id="path1111"
       style="font-style:normal;font-size:medium;text-anchor:middle;fill:none;fill-opacity:1;stroke:#000000;stroke-width:0.25;stroke-linecap:butt;stroke-linejoin:bevel;stroke-dasharray:none;stroke-opacity:1"
       d="m 178.28058,95.61227 q 0.95215,0 1.72852,0.21973 0.77636,0.21484 1.32324,0.6543 0.55664,0.44433 0.85937,1.11328 0.30274,0.66894 0.30274,1.57226 0,0.25391 -0.0293,0.47852 -0.0244,0.22461 -0.083,0.40039 h -0.93261 v -0.0488 q 0.0732,-0.1416 0.1416,-0.40039 0.0635,-0.25879 0.0635,-0.57617 0,-1.0791 -0.64453,-1.68945 -0.64941,-0.61524 -1.78711,-0.71289 0.27344,0.4541 0.39063,0.85449 0.11719,0.40039 0.11719,0.87402 0,0.44922 -0.0879,0.81543 -0.0879,0.36133 -0.3418,0.72754 -0.29785,0.42969 -0.75684,0.64941 -0.45898,0.21485 -1.09863,0.21485 -1.11328,0 -1.81152,-0.73242 -0.69825,-0.73243 -0.69825,-1.78711 0,-0.52735 0.16602,-0.97657 0.16113,-0.44921 0.48828,-0.78613 0.40527,-0.41504 1.04492,-0.63965 0.63477,-0.22461 1.64551,-0.22461 z m -0.20996,0.98633 q -0.75684,0 -1.21582,0.15625 -0.45899,0.15625 -0.71289,0.42969 -0.21973,0.22949 -0.3125,0.49316 -0.0977,0.26368 -0.0977,0.57129 0,0.70313 0.43946,1.11328 0.43945,0.40528 1.23535,0.40528 0.46386,0 0.75683,-0.13184 0.29297,-0.13183 0.5127,-0.44433 0.15137,-0.21973 0.20508,-0.4834 0.0488,-0.26367 0.0488,-0.58594 0,-0.38086 -0.10253,-0.77148 -0.10254,-0.39063 -0.29786,-0.73243 -0.10254,-0.005 -0.20019,-0.01 -0.10254,-0.01 -0.25879,-0.01 z" />
    <path
       inkscape:connector-curvature="0"
       id="path1113"
       style="font-style:normal;font-size:medium;text-anchor:middle;fill:none;fill-opacity:1;stroke:#000000;stroke-width:0.25;stroke-linecap:butt;stroke-linejoin:bevel;stroke-dasharray:none;stroke-opacity:1"
       d="m 182.35285,92.54098 v 1.167 h -1.39161 v -1.167 z" />
    <path
       inkscape:connector-curvature="0"
       id="path1115"
       style="font-style:normal;font-size:medium;text-anchor:middle;fill:none;fill-opacity:1;stroke:#000000;stroke-width:0.25;stroke-linecap:butt;stroke-linejoin:bevel;stroke-dasharray:none;stroke-opacity:1"
       d="m 184.26691,87.93649 v 2.53907 h -0.69824 V 88.7861 h -8.11524 v 1.68946 h -0.69824 v -2.53907 z" />
    <path
       inkscape:connector-curvature="0"
       id="path1117"
       style="font-style:normal;font-size:medium;text-anchor:middle;fill:none;fill-opacity:1;stroke:#000000;stroke-width:0.25;stroke-linecap:butt;stroke-linejoin:bevel;stroke-dasharray:none;stroke-opacity:1"
       d="m 182.35285,79.70407 v 2.87109 h -0.74219 v -0.95214 h -5.78613 v 0.95214 h -0.74219 v -2.87109 h 0.74219 v 0.95215 h 5.78613 v -0.95215 z" />
    <path
       inkscape:connector-curvature="0"
       id="path1119"
       style="font-style:normal;font-size:medium;text-anchor:middle;fill:none;fill-opacity:1;stroke:#000000;stroke-width:0.25;stroke-linecap:butt;stroke-linejoin:bevel;stroke-dasharray:none;stroke-opacity:1"
       d="m 178.28058,69.81149 q 0.95215,0 1.72852,0.21973 0.77636,0.21484 1.32324,0.6543 0.55664,0.44433 0.85937,1.11328 0.30274,0.66894 0.30274,1.57226 0,0.25391 -0.0293,0.47852 -0.0244,0.22461 -0.083,0.40039 h -0.93261 v -0.0488 q 0.0732,-0.1416 0.1416,-0.40039 0.0635,-0.25879 0.0635,-0.57617 0,-1.0791 -0.64453,-1.68945 -0.64941,-0.61524 -1.78711,-0.7129 0.27344,0.45411 0.39063,0.8545 0.11719,0.40039 0.11719,0.87402 0,0.44922 -0.0879,0.81543 -0.0879,0.36133 -0.3418,0.72754 -0.29785,0.42969 -0.75684,0.64941 -0.45898,0.21485 -1.09863,0.21485 -1.11328,0 -1.81152,-0.73242 -0.69825,-0.73243 -0.69825,-1.78711 0,-0.52735 0.16602,-0.97657 0.16113,-0.44922 0.48828,-0.78613 0.40527,-0.41504 1.04492,-0.63965 0.63477,-0.22461 1.64551,-0.22461 z m -0.20996,0.98633 q -0.75684,0 -1.21582,0.15625 -0.45899,0.15625 -0.71289,0.42969 -0.21973,0.22949 -0.3125,0.49316 -0.0977,0.26367 -0.0977,0.57129 0,0.70313 0.43946,1.11328 0.43945,0.40528 1.23535,0.40528 0.46386,0 0.75683,-0.13184 0.29297,-0.13184 0.5127,-0.44434 0.15137,-0.21972 0.20508,-0.48339 0.0488,-0.26368 0.0488,-0.58594 0,-0.38086 -0.10253,-0.77149 -0.10254,-0.39062 -0.29786,-0.73242 -0.10254,-0.005 -0.20019,-0.01 -0.10254,-0.01 -0.25879,-0.01 z" />
    <path
       class="sticker"
       d="m 261.49252,14.78305 9.99999,0.15711 v 40.12245 l -9.99999,0.15708 z m -56.15586,0 0.15712,-10 27.53338,10e-6 0.15709,9.99999 z m -57.04048,0 0.15708,-10 h 32.22844 l 0.15709,10 z m 84.88807,0 0.15709,-9.99999 h 27.99406 l 0.15712,9.99999 z m -52.34546,0 0.15709,-10 h 24.18372 l 0.15706,10 z m 0,149.96604 -0.15712,10 h -32.22844 l -0.15708,-10 z m 52.34543,0 -0.15709,10 h -27.53338 l -0.15709,-10 z m -27.84756,0 -0.15709,10 h -24.18372 l -0.15706,-10 z m 56.15583,0 -0.15709,10 -27.99409,0 -0.15709,-10 z m 3e-5,-109.5294 9.99999,0.15711 V 164.592 l -10.00002,0.15709 z m -226.392687,-1e-5 -9.99999,-0.15709 0,-40.12246 9.99999,-0.15709 z M 63.408106,14.78304 63.565164,4.78305 h 27.533412 l 0.157058,9.99999 z m 52.345454,0 0.15709,-9.99999 h 32.22844 l 0.15709,10 z m -80.653727,0 0.157118,-10.00001 27.994037,2e-5 0.157118,9.99999 z m 56.155801,0 0.157118,-9.99999 h 24.183688 l 0.15712,9.99999 z m 57.040516,149.96605 -0.15709,10 -32.22844,-1e-5 -0.15712,-10.00001 z m -57.040516,-2e-5 -0.157118,10.00001 H 63.565164 l -0.157058,-10.00001 z m 24.497866,0 -0.15709,10.00001 H 91.412752 l -0.157118,-10.00001 z m -52.345394,0 -0.157118,10.00001 H 35.256892 l -0.157059,-10.00001 z m -28.308273,0 -9.99999,-0.15709 0,-109.21521 9.99999,-0.15709 z"
       id="path1777"
       style="fill:#e5e5e5;fill-opacity:1;stroke:#000000;stroke-width:0.25;stroke-linecap:butt;stroke-linejoin:bevel;stroke-dasharray:none;stroke-opacity:1"
       inkscape:connector-curvature="0" />
    <path
       inkscape:connector-curvature="0"
       id="path1122"
       style="font-style:normal;font-size:medium;text-anchor:middle;fill:none;fill-opacity:1;stroke:#000000;stroke-width:0.25;stroke-linecap:butt;stroke-linejoin:bevel;stroke-dasharray:none;stroke-opacity:1"
       d="m 263.29253,29.12151 v -3.542 h 0.66797 v 1.36231 h 4.38574 v -1.36231 h 0.59766 q 0,0.27686 0.0439,0.59327 0.0483,0.3164 0.13623,0.479 0.10986,0.20215 0.27686,0.31641 0.17138,0.11865 0.45703,0.13623 v 0.68115 h -5.89746 v 1.33594 z" />
    <path
       inkscape:connector-curvature="0"
       id="path1124"
       style="font-style:normal;font-size:medium;text-anchor:middle;fill:none;fill-opacity:1;stroke:#000000;stroke-width:0.25;stroke-linecap:butt;stroke-linejoin:bevel;stroke-dasharray:none;stroke-opacity:1"
       d="m 265.13384,35.37492 v -0.97119 h -1.84131 v -0.84375 h 1.84131 v -3.1333 h 1.01074 l 3.69141,3.16846 v 0.80859 h -3.99903 v 0.97119 z m 0.70312,-1.81494 h 2.95313 l -2.95313,-2.53564 z" />
    <path
       inkscape:connector-curvature="0"
       id="path1126"
       style="font-style:normal;font-size:medium;text-anchor:middle;fill:none;fill-opacity:1;stroke:#000000;stroke-width:0.25;stroke-linecap:butt;stroke-linejoin:bevel;stroke-dasharray:none;stroke-opacity:1"
       d="m 266.94878,38.38957 v -1.05029 h 1.25244 v 1.05029 z m -3.65625,0 v -1.05029 h 1.25244 v 1.05029 z" />
    <path
       inkscape:connector-curvature="0"
       id="path1128"
       style="font-style:normal;font-size:medium;text-anchor:middle;fill:none;fill-opacity:1;stroke:#000000;stroke-width:0.25;stroke-linecap:butt;stroke-linejoin:bevel;stroke-dasharray:none;stroke-opacity:1"
       d="m 263.29253,44.67815 v -3.542 h 0.66797 v 1.36231 h 4.38574 v -1.36231 h 0.59766 q 0,0.27686 0.0439,0.59327 0.0483,0.3164 0.13623,0.479 0.10986,0.20215 0.27686,0.31641 0.17138,0.11865 0.45703,0.13623 v 0.68115 h -5.89746 v 1.33594 z" />
    <path
       inkscape:connector-curvature="0"
       id="path1131"
       style="font-style:normal;font-size:medium;text-anchor:middle;fill:none;fill-opacity:1;stroke:#000000;stroke-width:0.25;stroke-linecap:butt;stroke-linejoin:bevel;stroke-dasharray:none;stroke-opacity:1"
       d="m 244.32373,12.98305 h -3.54199 v -0.66797 h 1.3623 V 7.92934 h -1.3623 V 7.33168 q 0.27686,0 0.59326,-0.044 0.31641,-0.0483 0.47901,-0.13623 0.20214,-0.10986 0.3164,-0.27685 0.11865,-0.17139 0.13623,-0.45703 h 0.68115 v 5.89746 h 1.33594 z" />
    <path
       inkscape:connector-curvature="0"
       id="path1133"
       style="font-style:normal;font-size:medium;text-anchor:middle;fill:none;fill-opacity:1;stroke:#000000;stroke-width:0.25;stroke-linecap:butt;stroke-linejoin:bevel;stroke-dasharray:none;stroke-opacity:1"
       d="m 247.86133,9.3268 h -1.05029 V 8.07436 h 1.05029 z m 0,3.65625 h -1.05029 v -1.25244 h 1.05029 z" />
    <path
       inkscape:connector-curvature="0"
       id="path1135"
       style="font-style:normal;font-size:medium;text-anchor:middle;fill:none;fill-opacity:1;stroke:#000000;stroke-width:0.25;stroke-linecap:butt;stroke-linejoin:bevel;stroke-dasharray:none;stroke-opacity:1"
       d="m 254.1499,12.98305 h -3.54199 v -0.66797 h 1.36231 V 7.92934 h -1.36231 V 7.33168 q 0.27686,0 0.59326,-0.044 0.31641,-0.0483 0.47901,-0.13623 0.20215,-0.10986 0.3164,-0.27685 0.11866,-0.17139 0.13623,-0.45703 h 0.68116 v 5.89746 h 1.33593 z" />
    <path
       inkscape:connector-curvature="0"
       id="path1138"
       style="font-style:normal;font-size:medium;text-anchor:middle;fill:none;fill-opacity:1;stroke:#000000;stroke-width:0.25;stroke-linecap:butt;stroke-linejoin:bevel;stroke-dasharray:none;stroke-opacity:1"
       d="m 249.83005,168.39041 h 0.97119 v -1.84131 h 0.84375 v 1.84131 h 3.1333 v 1.01074 l -3.16846,3.6914 h -0.80859 v -3.99902 h -0.97119 z m 1.81494,0.70312 v 2.95313 l 2.53565,-2.95313 z" />
    <path
       inkscape:connector-curvature="0"
       id="path1140"
       style="font-style:normal;font-size:medium;text-anchor:middle;fill:none;fill-opacity:1;stroke:#000000;stroke-width:0.25;stroke-linecap:butt;stroke-linejoin:bevel;stroke-dasharray:none;stroke-opacity:1"
       d="m 246.8154,170.20535 h 1.05029 v 1.25244 h -1.05029 z m 0,-3.65625 h 1.05029 v 1.25244 h -1.05029 z" />
    <path
       inkscape:connector-curvature="0"
       id="path1142"
       style="font-style:normal;font-size:medium;text-anchor:middle;fill:none;fill-opacity:1;stroke:#000000;stroke-width:0.25;stroke-linecap:butt;stroke-linejoin:bevel;stroke-dasharray:none;stroke-opacity:1"
       d="m 240.52683,166.5491 h 3.54199 v 0.66797 h -1.36231 v 4.38574 h 1.36231 v 0.59765 q -0.27686,0 -0.59326,0.0439 -0.31641,0.0483 -0.47901,0.13623 -0.20215,0.10986 -0.3164,0.27686 -0.11866,0.17138 -0.13623,0.45703 h -0.68116 v -5.89746 h -1.33593 z" />
    <path
       inkscape:connector-curvature="0"
       id="path1145"
       style="font-style:normal;font-size:medium;text-anchor:middle;fill:none;fill-opacity:1;stroke:#000000;stroke-width:0.25;stroke-linecap:butt;stroke-linejoin:bevel;stroke-dasharray:none;stroke-opacity:1"
       d="m 263.2925,104.10451 v -3.54199 h 0.66797 v 1.3623 h 4.38574 v -1.3623 h 0.59765 q 0,0.27685 0.0439,0.59326 0.0483,0.3164 0.13623,0.479 0.10986,0.20215 0.27686,0.31641 0.17138,0.11865 0.45703,0.13623 v 0.68115 h -5.89746 v 1.33594 z" />
    <path
       inkscape:connector-curvature="0"
       id="path1147"
       style="font-style:normal;font-size:medium;text-anchor:middle;fill:none;fill-opacity:1;stroke:#000000;stroke-width:0.25;stroke-linecap:butt;stroke-linejoin:bevel;stroke-dasharray:none;stroke-opacity:1"
       d="m 265.13381,110.35793 v -0.9712 h -1.84131 v -0.84375 h 1.84131 v -3.1333 h 1.01074 l 3.6914,3.16846 v 0.80859 h -3.99902 v 0.9712 z m 0.70312,-1.81495 h 2.95313 l -2.95313,-2.53564 z" />
    <path
       inkscape:connector-curvature="0"
       id="path1149"
       style="font-style:normal;font-size:medium;text-anchor:middle;fill:none;fill-opacity:1;stroke:#000000;stroke-width:0.25;stroke-linecap:butt;stroke-linejoin:bevel;stroke-dasharray:none;stroke-opacity:1"
       d="m 266.94875,113.37257 v -1.05029 h 1.25244 v 1.05029 z m -3.65625,0 v -1.05029 h 1.25244 v 1.05029 z" />
    <path
       inkscape:connector-curvature="0"
       id="path1151"
       style="font-style:normal;font-size:medium;text-anchor:middle;fill:none;fill-opacity:1;stroke:#000000;stroke-width:0.25;stroke-linecap:butt;stroke-linejoin:bevel;stroke-dasharray:none;stroke-opacity:1"
       d="m 265.13381,120.1841 v -0.97119 h -1.84131 v -0.84375 h 1.84131 v -3.13331 h 1.01074 l 3.6914,3.16846 v 0.8086 h -3.99902 v 0.97119 z m 0.70312,-1.81494 h 2.95313 l -2.95313,-2.53565 z" />
    <path
       inkscape:connector-curvature="0"
       id="path1154"
       style="font-style:normal;font-size:medium;text-anchor:middle;fill:none;fill-opacity:1;stroke:#000000;stroke-width:0.25;stroke-linecap:butt;stroke-linejoin:bevel;stroke-dasharray:none;stroke-opacity:1"
       d="m 33.299833,40.88124 v 3.54199 h -0.667969 v -1.3623 h -4.385742 v 1.3623 h -0.597656 q 0,-0.27685 -0.04395,-0.59326 -0.04834,-0.31641 -0.136231,-0.479 -0.109863,-0.20215 -0.276855,-0.31641 -0.171387,-0.11865 -0.457032,-0.13623 v -0.68115 h 5.897461 v -1.33594 z" />
    <path
       inkscape:connector-curvature="0"
       id="path1156"
       style="font-style:normal;font-size:medium;text-anchor:middle;fill:none;fill-opacity:1;stroke:#000000;stroke-width:0.25;stroke-linecap:butt;stroke-linejoin:bevel;stroke-dasharray:none;stroke-opacity:1"
       d="m 30.148954,35.35292 q 0.188965,-0.21094 0.47461,-0.34717 0.285644,-0.13623 0.738281,-0.13623 0.448242,0 0.821777,0.1626 0.373535,0.1626 0.650391,0.45703 0.307617,0.32959 0.457031,0.77783 0.14502,0.44385 0.14502,0.97559 0,0.54492 -0.131836,1.07226 -0.127442,0.52735 -0.28125,0.86573 h -0.918457 v -0.0659 q 0.246093,-0.37354 0.408691,-0.87891 0.162598,-0.50537 0.162598,-0.97558 0,-0.27686 -0.09229,-0.58887 -0.09229,-0.31201 -0.272461,-0.50537 -0.19336,-0.20215 -0.42627,-0.29883 -0.23291,-0.10107 -0.588867,-0.10107 -0.351563,0 -0.580078,0.11425 -0.23291,0.10987 -0.364746,0.30762 -0.136231,0.19776 -0.184571,0.47901 -0.05273,0.28125 -0.05273,0.60644 v 0.39551 h -0.729492 v -0.30762 q 0,-0.66797 -0.276856,-1.06348 -0.28125,-0.3999 -0.817382,-0.3999 -0.237305,0 -0.413086,0.10108 -0.180176,0.10107 -0.294434,0.28125 -0.114258,0.18896 -0.158203,0.40429 -0.04395,0.21534 -0.04395,0.4878 0,0.41748 0.149414,0.88769 0.149414,0.47022 0.421875,0.8877 v 0.0439 h -0.918457 q -0.153809,-0.31201 -0.28125,-0.83056 -0.131836,-0.52295 -0.131836,-1.01075 0,-0.479 0.08789,-0.84375 0.08789,-0.36474 0.28125,-0.65918 0.210938,-0.3164 0.509766,-0.479 0.298828,-0.1626 0.69873,-0.1626 0.544922,0 0.953614,0.38672 0.404297,0.38233 0.509765,0.90527 h 0.06152 q 0.03516,-0.21093 0.149414,-0.48339 0.109863,-0.27246 0.276855,-0.46143 z" />
    <path
       inkscape:connector-curvature="0"
       id="path1158"
       style="font-style:normal;font-size:medium;text-anchor:middle;fill:none;fill-opacity:1;stroke:#000000;stroke-width:0.25;stroke-linecap:butt;stroke-linejoin:bevel;stroke-dasharray:none;stroke-opacity:1"
       d="m 29.643583,31.61317 v 1.0503 h -1.252441 v -1.0503 z m 3.65625,0 v 1.0503 h -1.252441 v -1.0503 z" />
    <path
       inkscape:connector-curvature="0"
       id="path1160"
       style="font-style:normal;font-size:medium;text-anchor:middle;fill:none;fill-opacity:1;stroke:#000000;stroke-width:0.25;stroke-linecap:butt;stroke-linejoin:bevel;stroke-dasharray:none;stroke-opacity:1"
       d="m 33.299833,25.3246 v 3.54199 h -0.667969 v -1.3623 h -4.385742 v 1.3623 h -0.597656 q 0,-0.27685 -0.04395,-0.59326 -0.04834,-0.31641 -0.136231,-0.479 -0.109863,-0.20215 -0.276855,-0.31641 -0.171387,-0.11865 -0.457032,-0.13623 v -0.68115 h 5.897461 V 25.3246 Z" />
    <path
       inkscape:connector-curvature="0"
       id="path1163"
       style="font-style:normal;font-size:medium;text-anchor:middle;fill:none;fill-opacity:1;stroke:#000000;stroke-width:0.25;stroke-linecap:butt;stroke-linejoin:bevel;stroke-dasharray:none;stroke-opacity:1"
       d="m 46.239321,12.98302 h -3.541993 v -0.66797 h 1.362305 V 7.92931 H 42.697328 V 7.33165 q 0.276856,0 0.593262,-0.0439 0.316406,-0.0483 0.479004,-0.13623 Q 43.971743,7.04166 44.086,6.87467 44.204653,6.70328 44.222231,6.41764 h 0.681152 v 5.89746 h 1.335938 z" />
    <path
       inkscape:connector-curvature="0"
       id="path1165"
       style="font-style:normal;font-size:medium;text-anchor:middle;fill:none;fill-opacity:1;stroke:#000000;stroke-width:0.25;stroke-linecap:butt;stroke-linejoin:bevel;stroke-dasharray:none;stroke-opacity:1"
       d="M 49.776918,9.32677 H 48.726625 V 8.07433 h 1.050293 z m 0,3.65625 h -1.050293 v -1.25244 h 1.050293 z" />
    <path
       inkscape:connector-curvature="0"
       id="path1167"
       style="font-style:normal;font-size:medium;text-anchor:middle;fill:none;fill-opacity:1;stroke:#000000;stroke-width:0.25;stroke-linecap:butt;stroke-linejoin:bevel;stroke-dasharray:none;stroke-opacity:1"
       d="m 55.863344,9.83214 q 0.210938,0.18896 0.347168,0.47461 0.136231,0.28564 0.136231,0.73828 0,0.44824 -0.162598,0.82178 -0.162598,0.37353 -0.457031,0.65039 -0.32959,0.30761 -0.777832,0.45703 -0.443848,0.14502 -0.975586,0.14502 -0.544922,0 -1.072266,-0.13184 -0.527344,-0.12744 -0.865723,-0.28125 V 11.7877 h 0.06592 q 0.373535,0.2461 0.878907,0.4087 0.505371,0.16259 0.975586,0.16259 0.276855,0 0.588867,-0.0923 0.312011,-0.0923 0.505371,-0.27246 0.202148,-0.19336 0.298828,-0.42627 0.101074,-0.23291 0.101074,-0.58887 0,-0.35156 -0.114258,-0.58008 Q 55.226139,10.1661 55.028385,10.03427 54.830631,9.89804 54.549381,9.8497 54.268131,9.797 53.942936,9.797 H 53.547428 V 9.06751 h 0.307617 q 0.667969,0 1.063477,-0.27686 0.399902,-0.28125 0.399902,-0.81738 0,-0.2373 -0.101074,-0.41308 Q 55.116276,7.38001 54.9361,7.26575 54.747135,7.15149 54.531803,7.10755 54.316471,7.06365 54.04401,7.06365 q -0.41748,0 -0.887695,0.14942 Q 52.6861,7.36248 52.26862,7.63494 H 52.22467 V 6.71649 q 0.312012,-0.15381 0.830567,-0.28125 0.522949,-0.13184 1.010742,-0.13184 0.479004,0 0.84375,0.0879 0.364746,0.0879 0.659179,0.28125 0.316407,0.21094 0.479004,0.50977 0.162598,0.29882 0.162598,0.69873 0,0.54492 -0.386719,0.95361 -0.382324,0.4043 -0.905273,0.50976 v 0.0615 q 0.210937,0.0351 0.483398,0.14941 0.272461,0.10987 0.461426,0.27686 z" />
    <path
       inkscape:connector-curvature="0"
       id="path1170"
       style="font-style:normal;font-size:medium;text-anchor:middle;fill:none;fill-opacity:1;stroke:#000000;stroke-width:0.25;stroke-linecap:butt;stroke-linejoin:bevel;stroke-dasharray:none;stroke-opacity:1"
       d="m 51.745611,168.39039 h 0.971191 v -1.84131 h 0.84375 v 1.84131 h 3.133301 v 1.01074 l -3.168457,3.69141 h -0.808594 v -3.99902 h -0.971191 z m 1.814941,0.70313 v 2.95312 l 2.535645,-2.95312 z" />
    <path
       inkscape:connector-curvature="0"
       id="path1172"
       style="font-style:normal;font-size:medium;text-anchor:middle;fill:none;fill-opacity:1;stroke:#000000;stroke-width:0.25;stroke-linecap:butt;stroke-linejoin:bevel;stroke-dasharray:none;stroke-opacity:1"
       d="m 48.730963,170.20533 h 1.050293 v 1.25244 h -1.050293 z m 0,-3.65625 h 1.050293 v 1.25244 h -1.050293 z" />
    <path
       inkscape:connector-curvature="0"
       id="path1174"
       style="font-style:normal;font-size:medium;text-anchor:middle;fill:none;fill-opacity:1;stroke:#000000;stroke-width:0.25;stroke-linecap:butt;stroke-linejoin:bevel;stroke-dasharray:none;stroke-opacity:1"
       d="m 42.644537,169.69996 q -0.210938,-0.18896 -0.347168,-0.47461 -0.136231,-0.28564 -0.136231,-0.73828 0,-0.44824 0.162598,-0.82178 0.162598,-0.37353 0.457031,-0.65039 0.32959,-0.30761 0.777832,-0.45703 0.443848,-0.14502 0.975586,-0.14502 0.544922,0 1.072266,0.13184 0.527344,0.12744 0.865723,0.28125 v 0.91845 h -0.06592 q -0.373536,-0.24609 -0.878907,-0.40869 -0.505371,-0.16259 -0.975586,-0.16259 -0.276855,0 -0.588867,0.0923 -0.312011,0.0923 -0.505371,0.27246 -0.202148,0.19336 -0.298828,0.42627 -0.101074,0.23291 -0.101074,0.58887 0,0.35156 0.114258,0.58008 0.109863,0.23291 0.307617,0.36474 0.197754,0.13623 0.479004,0.18457 0.28125,0.0527 0.606445,0.0527 h 0.395508 v 0.72949 h -0.307617 q -0.667969,0 -1.063477,0.27685 -0.399902,0.28125 -0.399902,0.81739 0,0.2373 0.101074,0.41308 0.101074,0.18018 0.28125,0.29444 0.188965,0.11425 0.404297,0.1582 0.215332,0.0439 0.487793,0.0439 0.41748,0 0.887695,-0.14942 0.470215,-0.14941 0.887695,-0.42187 h 0.04395 v 0.91845 q -0.312012,0.15381 -0.830567,0.28125 -0.522949,0.13184 -1.010742,0.13184 -0.479004,0 -0.84375,-0.0879 -0.364746,-0.0879 -0.65918,-0.28125 -0.316406,-0.21094 -0.479003,-0.50977 -0.162598,-0.29882 -0.162598,-0.69873 0,-0.54492 0.386719,-0.95361 0.382324,-0.4043 0.905273,-0.50977 v -0.0615 q -0.210937,-0.0352 -0.483398,-0.14941 -0.272461,-0.10987 -0.461426,-0.27686 z" />
    <path
       inkscape:connector-curvature="0"
       id="path1177"
       style="font-style:normal;font-size:medium;text-anchor:middle;fill:none;fill-opacity:1;stroke:#000000;stroke-width:0.25;stroke-linecap:butt;stroke-linejoin:bevel;stroke-dasharray:none;stroke-opacity:1"
       d="m 33.299772,115.86426 v 3.54199 h -0.667969 v -1.3623 h -4.385742 v 1.3623 h -0.597656 q 0,-0.27686 -0.04395,-0.59326 -0.04834,-0.31641 -0.136231,-0.47901 -0.109863,-0.20214 -0.276855,-0.3164 -0.171387,-0.11865 -0.457032,-0.13623 v -0.68115 h 5.897461 v -1.33594 z" />
    <path
       inkscape:connector-curvature="0"
       id="path1179"
       style="font-style:normal;font-size:medium;text-anchor:middle;fill:none;fill-opacity:1;stroke:#000000;stroke-width:0.25;stroke-linecap:butt;stroke-linejoin:bevel;stroke-dasharray:none;stroke-opacity:1"
       d="m 30.148893,110.33594 q 0.188965,-0.21094 0.47461,-0.34717 0.285644,-0.13623 0.738281,-0.13623 0.448242,0 0.821777,0.1626 0.373535,0.16259 0.650391,0.45703 0.307617,0.32959 0.457031,0.77783 0.14502,0.44385 0.14502,0.97559 0,0.54492 -0.131836,1.07226 -0.127442,0.52735 -0.28125,0.86572 H 32.10446 v -0.0659 q 0.246093,-0.37354 0.408691,-0.87891 0.162598,-0.50537 0.162598,-0.97559 0,-0.27685 -0.09229,-0.58886 -0.09229,-0.31202 -0.272461,-0.50537 -0.19336,-0.20215 -0.42627,-0.29883 -0.23291,-0.10108 -0.588867,-0.10108 -0.351563,0 -0.580078,0.11426 -0.23291,0.10986 -0.364746,0.30762 -0.136231,0.19775 -0.184571,0.479 -0.05273,0.28125 -0.05273,0.60645 v 0.39551 h -0.729492 v -0.30762 q 0,-0.66797 -0.276856,-1.06348 -0.28125,-0.3999 -0.817382,-0.3999 -0.237305,0 -0.413086,0.10107 -0.180176,0.10108 -0.294434,0.28125 -0.114258,0.18897 -0.158203,0.4043 -0.04395,0.21533 -0.04395,0.48779 0,0.41748 0.149414,0.8877 0.149414,0.47021 0.421875,0.88769 v 0.0439 h -0.918457 q -0.153809,-0.31201 -0.28125,-0.83057 -0.131836,-0.52295 -0.131836,-1.01074 0,-0.479 0.08789,-0.84375 0.08789,-0.36475 0.28125,-0.65918 0.210938,-0.31641 0.509766,-0.479 0.298828,-0.1626 0.69873,-0.1626 0.544922,0 0.953614,0.38672 0.404297,0.38232 0.509765,0.90527 h 0.06152 q 0.03516,-0.21094 0.149414,-0.4834 0.109863,-0.27246 0.276855,-0.46142 z" />
    <path
       inkscape:connector-curvature="0"
       id="path1181"
       style="font-style:normal;font-size:medium;text-anchor:middle;fill:none;fill-opacity:1;stroke:#000000;stroke-width:0.25;stroke-linecap:butt;stroke-linejoin:bevel;stroke-dasharray:none;stroke-opacity:1"
       d="m 29.643522,106.59619 v 1.05029 h -1.252441 v -1.05029 z m 3.65625,0 v 1.05029 h -1.252441 v -1.05029 z" />
    <path
       inkscape:connector-curvature="0"
       id="path1183"
       style="font-style:normal;font-size:medium;text-anchor:middle;fill:none;fill-opacity:1;stroke:#000000;stroke-width:0.25;stroke-linecap:butt;stroke-linejoin:bevel;stroke-dasharray:none;stroke-opacity:1"
       d="m 31.458464,99.78467 v 0.97119 h 1.841308 v 0.84375 h -1.841308 v 3.1333 h -1.010743 l -3.691406,-3.16846 v -0.80859 h 3.999024 v -0.97119 z m -0.703125,1.81494 h -2.953125 l 2.953125,2.53564 z" />
  </g>
</svg>
