<?xml version="1.0" encoding="UTF-8" standalone="no"?>
<svg
   version="1.1"
   width="300.00mm"
   height="600.00mm"
   viewBox="0 0 300.00 600.00"
   id="svg884"
   sodipodi:docname="bottom_page2.svg"
   inkscape:version="1.1.1 (c3084ef, 2021-09-22)"
   xmlns:inkscape="http://www.inkscape.org/namespaces/inkscape"
   xmlns:sodipodi="http://sodipodi.sourceforge.net/DTD/sodipodi-0.dtd"
   xmlns="http://www.w3.org/2000/svg"
   xmlns:svg="http://www.w3.org/2000/svg">
  <defs
     id="defs888" />
  <sodipodi:namedview
     id="namedview886"
     pagecolor="#ffffff"
     bordercolor="#666666"
     borderopacity="1.0"
     inkscape:pageshadow="2"
     inkscape:pageopacity="0.0"
     inkscape:pagecheckerboard="0"
     inkscape:document-units="mm"
     showgrid="false"
     inkscape:zoom="0.35057292"
     inkscape:cx="566.21602"
     inkscape:cy="1133.8583"
     inkscape:window-width="1792"
     inkscape:window-height="975"
     inkscape:window-x="0"
     inkscape:window-y="25"
     inkscape:window-maximized="1"
     inkscape:current-layer="svg884" />
  <style
     type="text/css"
     id="style824">
    path {
        fill: none;
        stroke-linecap: butt;
        stroke-linejoin: bevel;
        stroke-dasharray: none;
    }
    path.outer {
        stroke: #000000;
        stroke-dasharray: none;
        stroke-dashoffset: 0;
        stroke-width: 0.3;
        stroke-opacity: 1.0;
    }
    path.convex {
        stroke: #000000;
        stroke-dasharray: 0.50,1.00;
        stroke-dashoffset:0;
        stroke-width:0.2;
        stroke-opacity: 1.0
    }
    path.concave {
        stroke: #000000;
        stroke-dasharray: 1.00,0.50,0.20,0.50;
        stroke-dashoffset: 0;
        stroke-width: 0.2;
        stroke-opacity: 1.0
    }
    path.freestyle {
        stroke: #000000;
        stroke-dasharray: none;
        stroke-dashoffset: 0;
        stroke-width: 0.2;
        stroke-opacity: 1.0
    }
    path.outer_background {
        stroke: #ffffff;
        stroke-opacity: 1.0;
        stroke-width: 0.5
    }
    path.inner_background {
        stroke: #ffffff;
        stroke-opacity: 1.0;
        stroke-width: 0.2
    }
    path.sticker {
        fill: #e5e5e5;
        stroke: none;
        fill-opacity: 1.0;
    }
    path.arrow {
        fill: #000000;
    }
    text {
        font-style: normal;
        fill: #000000;
        fill-opacity: 1.0;
        stroke: none;
    }
    text, tspan {
        text-anchor:middle;
    }
    </style>
  <g
     id="g882"
     transform="translate(0,13.758335)">
    <text
       transform="translate(112.69518,267.40009)"
       style="font-size:10px"
       id="text828"><tspan
         id="tspan826">[3] I 3</tspan></text>
    <path
       class="sticker"
       d="m 15.000074,201.06518 -10,-0.15712 V 177.6213 l 10,-0.15706 z m 195.390216,330.91952 10,0.1571 v 40.70113 l -10,0.15709 z m -32.54262,41.01532 -0.1571,10 -24.18372,-2e-5 -0.15709,-10 z m -52.34536,-492.800127 6.30153,-7.766307 27.60052,21.684885 -6.05448,7.960439 z m -110.502236,97.264347 -10,-0.15712 3e-5,-75.07121 10,-0.15706 z M 125.5022,573 l -0.15709,10 -24.05944,2e-5 -0.1571,-10 z M 38.432148,80.199893 38.589244,70.199843 h 62.382346 l 0.1571,10.00005 z m 171.958212,120.081667 4.64417,0.0729 v 9.14246 l -4.64417,0.073 z M 15,500.95951 l -10,-0.1571 7.4e-5,-210.76133 10,-0.15711 z M 49.016428,573 40.854235,578.77957 7.023375,532.55876 15,526.52567 Z m 161.373862,-67.42398 10,0.15709 v 26.0945 l -10,0.15709 z m -109.26172,67.424 -0.1571,10 L 49.173524,583 49.016428,573 Z m 52.22119,-2e-5 -0.15709,10 h -27.53339 l -0.15708,-10 z m 1.2e-4,-470.92109 10.00001,0.15706 -2e-5,74.28753 -10,0.15712 z m -52.22119,-21.879017 0.15709,-10.00005 h 24.05943 l 0.1571,10.00005 z m -86.128586,21.878957 -6.70987,-7.416367 23.202404,-21.66456 6.93951,7.20197 z m 195.390226,187.80518 10.00001,0.15705 -5e-5,215.37785 -10,0.15709 z m -195.390256,-79.53054 -4.64417,-0.073 v -9.1424 l 4.64417,-0.0729 z m 195.390216,362.64653 -0.15709,10 h -32.22844 l -0.15709,-10 z m -32.54256,-372.71846 0.15709,-10 h 32.22846 l 0.15708,10 z m -24.49786,-23.60094 7.05114,-7.09271 24.2716,23.38302 -6.82488,7.31063 z M 15,526.52567 5,526.36858 v -25.25197 l 10,-0.1571 z m 7.4e-5,-236.6417 -10,-0.15706 v -79.2163 l 10,-0.15712 z m 195.390286,-80.31404 10.00001,0.15706 -3e-5,79.99992 -10.00001,0.15712 z"
       id="path830" />
    <path
       class="outer"
       d="m 5,500.80241 7.4e-5,-210.76133 10,-0.15711 -10,-0.15706 v -79.2163 l 10,-0.15712 -4.64417,-0.073 v -9.1424 l 4.64417,-0.0729 -10,-0.15712 V 177.6213 l 10,-0.15706 -10,-0.15712 3e-5,-75.07121 10,-0.15706 -6.70987,-7.416367 23.202404,-21.66456 6.93951,7.20197 0.157096,-10.00005 h 62.382346 l 0.1571,10.00005 0.15709,-10.00005 h 24.05943 l 0.1571,10.00005 6.30153,-7.766307 27.60052,21.684885 -6.05448,7.960439 10.00001,0.15706 -2e-5,74.28753 -10,0.15712 7.05114,-7.09271 24.2716,23.38302 -6.82488,7.31063 0.15709,-10 h 32.22846 l 0.15708,10 4.64417,0.0729 v 9.14246 l -4.64417,0.073 10.00001,0.15706 -3e-5,79.99992 -10.00001,0.15712 10.00001,0.15705 -5e-5,215.37785 -10,0.15709 10,0.15709 v 26.0945 l -10,0.15709 10,0.1571 v 40.70113 l -10,0.15709 -0.15709,10 h -32.22844 l -0.15709,-10 -0.1571,10 -24.18372,-2e-5 -0.15709,-10 -0.15709,10 h -27.53339 l -0.15708,-10 -0.15709,10 -24.05944,2e-5 -0.1571,-10 -0.1571,10 L 49.173524,583 49.016428,573 40.854235,578.77957 7.023375,532.55876 15,526.52567 5,526.36858 v -25.25197 l 10,-0.1571 z"
       id="path832" />
    <text
       transform="rotate(90,-170.15104,382.34133)"
       style="font-size:9px"
       id="text836"><tspan
         id="tspan834">2:1</tspan></text>
    <text
       transform="rotate(38.155666,-59.446867,248.04121)"
       style="font-size:9px"
       id="text840"><tspan
         id="tspan838">10:1</tspan></text>
    <text
       transform="rotate(-90,76.485802,63.285713)"
       style="font-size:9px"
       id="text844"><tspan
         id="tspan842">7:1</tspan></text>
    <text
       transform="rotate(90,3.150304,208.07601)"
       style="font-size:4.18px"
       id="text848"><tspan
         id="tspan846">2:2</tspan></text>
    <text
       transform="rotate(-126.20187,154.99719,267.66241)"
       style="font-size:9px"
       id="text852"><tspan
         id="tspan850">15:2</tspan></text>
    <text
       transform="rotate(180,37.536251,287.40001)"
       style="font-size:9px"
       id="text856"><tspan
         id="tspan854">12:1</tspan></text>
    <text
       transform="rotate(90,7.885066,147.2648)"
       style="font-size:9px"
       id="text860"><tspan
         id="tspan858">6.:2</tspan></text>
    <text
       transform="rotate(-43.036903,126.65167,12.590327)"
       style="font-size:9px"
       id="text864"><tspan
         id="tspan862">10:3</tspan></text>
    <text
       transform="rotate(-90,109.93673,95.772605)"
       style="font-size:4.18px"
       id="text868"><tspan
         id="tspan866">7:8</tspan></text>
    <text
       transform="rotate(180,97.05949,287.40001)"
       style="font-size:9px"
       id="text872"><tspan
         id="tspan870">12:3</tspan></text>
    <text
       transform="translate(194.11906,198.48155)"
       style="font-size:9px"
       id="text876"><tspan
         id="tspan874">6.:4</tspan></text>
    <text
       transform="rotate(-90,131.6594,118.45933)"
       style="font-size:9px"
       id="text880"><tspan
         id="tspan878">15:3</tspan></text>
  </g>
  <g
     id="g2276"
     transform="translate(-157.20949,-48.965749)">
    <text
       style="font-size:10px"
       id="text1628"
       x="397.17816"
       y="194.14859"><tspan
         id="tspan1626">[11] I 11</tspan></text>
    <path
       class="sticker"
       d="m 444.63095,193.40673 9.99999,0.15708 5e-5,35.1002 -10.00002,0.15708 z m -109.99999,0 -9.99999,-0.15709 v -24.05945 l 9.99999,-0.15709 z m 110.00001,-87.07014 10,0.15706 -3e-5,62.38237 -9.99999,0.15708 z m -109.99999,-6e-5 -10.00001,-0.15706 1e-5,-31.74436 10.00001,-0.157118 z m -2e-5,62.69657 -9.99999,-0.15711 v -62.38234 l 10.00001,-0.15712 z m 109.99999,0 9.99999,0.15712 v 24.05942 l -9.99999,0.15709 z m 5e-5,-94.755048 9.99999,0.157058 -2e-5,31.74436 -10,0.15712 z m -110.00001,-6e-5 0.15709,-9.99999 h 81.9806 l 0.1571,9.99999 z m 109.99998,154.543098 -0.0785,5.00003 -9.84292,3e-5 -0.0786,-5 z m -10.00002,6e-5 -0.13907,8.8526 -17.42707,-6e-5 -0.13906,-8.8526 z m 3e-5,-154.543158 0.0786,-4.999995 h 9.84291 l 0.0786,5.000055 z m -100.00002,154.543098 -9.99999,-0.15711 v -35.10017 l 9.99999,-0.15708 z m 82.29482,-154.543098 0.13906,-8.852601 h 17.42709 l 0.13905,8.852601 z m -3e-5,154.543098 -0.15709,10.00002 -81.98061,-3e-5 -0.15709,-9.99999 z"
       id="path1630" />
    <path
       class="outer"
       d="m 454.63094,193.56381 5e-5,35.1002 -10.00002,0.15708 -0.0785,5.00003 -9.84292,3e-5 -0.0786,-5 -0.13907,8.8526 -17.42707,-6e-5 -0.13906,-8.8526 -0.15709,10.00002 -81.98061,-3e-5 -0.15709,-9.99999 -9.99999,-0.15711 v -35.10017 l 9.99999,-0.15708 -9.99999,-0.15709 v -24.05945 l 9.99999,-0.15709 -9.99999,-0.15711 v -62.38234 l 10.00001,-0.15712 -10.00001,-0.15706 1e-5,-31.74436 10.00001,-0.157118 0.15709,-9.99999 h 81.9806 l 0.1571,9.99999 0.13906,-8.852601 h 17.42709 l 0.13905,8.852601 0.0786,-4.999995 h 9.84291 l 0.0786,5.000055 9.99999,0.157058 -2e-5,31.74436 -10,0.15712 10,0.15706 -3e-5,62.38237 -9.99999,0.15708 9.99999,0.15712 v 24.05942 l -9.99999,0.15709 z"
       id="path1632" />
    <g
       id="g1640"
       transform="translate(183.62089)">
      <path
         transform="matrix(6e-6,10,-10,6e-6,261.01006,211.11392)"
         class="arrow"
         d="M 0,0 1,1 0,0.25 -1,1 Z"
         id="path1634" />
      <text
         transform="translate(252.01007,215.11393)"
         style="font-size:10px"
         id="text1638"><tspan
           id="tspan1636">1</tspan></text>
    </g>
    <text
       transform="rotate(90)"
       style="font-size:9px"
       id="text1644"
       x="211.11415"
       y="-446.43097"><tspan
         id="tspan1642">2:1</tspan></text>
    <g
       id="g1652"
       transform="translate(183.62089)">
      <path
         transform="matrix(3e-6,-10,10,3e-6,151.01009,90.307291)"
         class="arrow"
         d="M 0,0 1,1 0,0.25 -1,1 Z"
         id="path1646" />
      <text
         transform="translate(160.01009,94.307299)"
         style="font-size:10px"
         id="text1650"><tspan
           id="tspan1648">2</tspan></text>
    </g>
    <text
       transform="rotate(-90)"
       style="font-size:9px"
       id="text1656"
       x="-90.307289"
       y="332.83096"><tspan
         id="tspan1654">1:2</tspan></text>
    <g
       id="g1664"
       transform="translate(183.62089)">
      <path
         transform="matrix(-7e-6,10,-10,-7e-6,261.01008,90.307291)"
         class="arrow"
         d="M 0,0 1,1 0,0.25 -1,1 Z"
         id="path1658" />
      <text
         transform="translate(252.01008,94.307299)"
         style="font-size:10px"
         id="text1662"><tspan
           id="tspan1660">3</tspan></text>
    </g>
    <text
       transform="rotate(90)"
       style="font-size:9px"
       id="text1668"
       x="90.307121"
       y="-446.43091"><tspan
         id="tspan1666">2:3</tspan></text>
    <text
       style="font-size:9px"
       id="text1672"
       x="375.77838"
       y="72.477989"><tspan
         id="tspan1670">8:6.</tspan></text>
    <text
       transform="rotate(179.99983)"
       style="font-size:4.5px"
       id="text1676"
       x="-439.63028"
       y="-229.72243"><tspan
         id="tspan1674">6.:8</tspan></text>
    <g
       id="g1688"
       transform="translate(183.62089)">
      <path
         transform="matrix(-3e-6,-10,10,-3e-6,151.01007,211.1139)"
         class="arrow"
         d="M 0,0 1,1 0,0.25 -1,1 Z"
         id="path1682" />
      <text
         transform="translate(160.01007,215.1139)"
         style="font-size:10px"
         id="text1686"><tspan
           id="tspan1684">4</tspan></text>
    </g>
    <text
       transform="rotate(-90)"
       style="font-size:9px"
       id="text1692"
       x="-211.11389"
       y="332.83096"><tspan
         id="tspan1690">1:4</tspan></text>
    <text
       transform="scale(-1)"
       style="font-size:9px"
       id="text1696"
       x="-375.77838"
       y="-230.62109"><tspan
         id="tspan1694">6.:10</tspan></text>
  </g>
</svg>
