<?xml version="1.0" encoding="UTF-8" standalone="no"?>
<svg
   version="1.1"
   width="300.00mm"
   height="600.00mm"
   viewBox="0 0 300.00 600.00"
   id="svg6018"
   sodipodi:docname="bottom_page6.svg"
   inkscape:version="1.1.1 (c3084ef, 2021-09-22)"
   xmlns:inkscape="http://www.inkscape.org/namespaces/inkscape"
   xmlns:sodipodi="http://sodipodi.sourceforge.net/DTD/sodipodi-0.dtd"
   xmlns="http://www.w3.org/2000/svg"
   xmlns:svg="http://www.w3.org/2000/svg">
  <defs
     id="defs6022" />
  <sodipodi:namedview
     id="namedview6020"
     pagecolor="#ffffff"
     bordercolor="#666666"
     borderopacity="1.0"
     inkscape:pageshadow="2"
     inkscape:pageopacity="0.0"
     inkscape:pagecheckerboard="0"
     inkscape:document-units="mm"
     showgrid="false"
     inkscape:zoom="0.35057292"
     inkscape:cx="566.21601"
     inkscape:cy="1133.8583"
     inkscape:window-width="1296"
     inkscape:window-height="975"
     inkscape:window-x="0"
     inkscape:window-y="25"
     inkscape:window-maximized="0"
     inkscape:current-layer="svg6018" />
  <style
     type="text/css"
     id="style5776">
    path {
        fill: none;
        stroke-linecap: butt;
        stroke-linejoin: bevel;
        stroke-dasharray: none;
    }
    path.outer {
        stroke: #000000;
        stroke-dasharray: none;
        stroke-dashoffset: 0;
        stroke-width: 0.3;
        stroke-opacity: 1.0;
    }
    path.convex {
        stroke: #000000;
        stroke-dasharray: 0.50,1.00;
        stroke-dashoffset:0;
        stroke-width:0.2;
        stroke-opacity: 1.0
    }
    path.concave {
        stroke: #000000;
        stroke-dasharray: 1.00,0.50,0.20,0.50;
        stroke-dashoffset: 0;
        stroke-width: 0.2;
        stroke-opacity: 1.0
    }
    path.freestyle {
        stroke: #000000;
        stroke-dasharray: none;
        stroke-dashoffset: 0;
        stroke-width: 0.2;
        stroke-opacity: 1.0
    }
    path.outer_background {
        stroke: #ffffff;
        stroke-opacity: 1.0;
        stroke-width: 0.5
    }
    path.inner_background {
        stroke: #ffffff;
        stroke-opacity: 1.0;
        stroke-width: 0.2
    }
    path.sticker {
        fill: #e5e5e5;
        stroke: none;
        fill-opacity: 1.0;
    }
    path.arrow {
        fill: #000000;
    }
    text {
        font-style: normal;
        fill: #000000;
        fill-opacity: 1.0;
        stroke: none;
    }
    text, tspan {
        text-anchor:middle;
    }
    </style>
  <g
     id="g5944">
    <text
       transform="translate(67.696442,218.39031)"
       style="font-size:10px"
       id="text5856"><tspan
         id="tspan5854">[4] I 4</tspan></text>
    <path
       class="sticker"
       d="m 118.39287,375.60971 10.00001,0.15708 v 32.22847 l -10.00001,0.15709 z m 0,57.04054 9.99999,0.15709 v 27.53336 l -9.99999,0.15711 z m 0,27.84756 9.99999,0.15708 v 27.99409 l -9.99999,0.1571 z m 0,28.30827 9.99999,0.15709 2e-5,58.44772 -10.00001,0.15709 z m -85.931002,82.19394 -0.121437,7.73092 -15.218953,2e-5 -0.121457,-7.73092 z M 17.00002,547.56799 7.000021,547.4109 l -1e-5,-62.38236 10,-0.15709 z m -2.4e-5,-87.07015 -10,-0.15709 -3.2e-5,-27.53341 10,-0.15711 z m -5.9e-5,-52.34552 -10,-0.15713 1.04e-4,-32.22862 10,-0.15706 z m 101.392933,139.41566 10.00001,0.15709 v 23.11786 l -9.99999,0.1571 z m -101.392849,23.43206 -9.999998,-0.1571 -2e-6,-23.11786 9.999999,-0.15709 z m -10e-6,-86.12859 -10,-0.15709 -1.5e-5,-24.05944 10,-0.15708 z m 101.392859,-76.7191 10.00001,0.15711 -2e-5,24.1837 -9.99999,0.15709 z m -101.392906,24.49788 -10,-0.15708 -2.7e-5,-24.18373 10,-0.1571 z m 101.392926,138.3498 -0.1571,10 -85.616831,-1e-5 -0.157091,-10 z m -2e-5,-227.93296 9.99999,0.15709 2e-5,32.22846 -10.00001,0.15709 z m 0,-52.34545 9.99999,0.15709 2e-5,27.53338 -10.00001,0.15709 z m -1e-5,-28.30827 10,0.15709 v 27.99409 l -9.99999,0.15709 z m 0,-58.7619 10,0.15709 v 58.44772 l -10,0.15709 z m -101.392842,-23.43204 0.121445,-7.7309 h 15.21893 l 0.121449,7.7309 z M 17,266.348 7,266.19091 l -1e-6,-62.38237 10,-0.15709 z m 8e-6,52.22118 -9.999999,-0.15709 -5e-6,-27.53338 10,-0.15709 z m 3.3e-5,57.04033 -10,-0.15713 1.05e-4,-32.2286 10,-0.15706 z m 101.392829,-195.3901 10.00001,0.15708 -2e-5,23.11787 -10,0.15709 z m -101.392871,23.43204 -10,-0.15711 2e-5,-23.11785 9.999999,-0.15708 z m 5e-6,87.07017 -10,-0.15709 L 7,266.50509 17,266.348 Z m 101.392866,27.84756 10.00001,0.15709 -2e-5,24.18372 -9.99999,0.15708 z m -101.392724,24.49754 -10,-0.15703 -1.37e-4,-24.18336 9.999999,-0.15715 z m 15.461696,-162.84731 0.157095,-9.99999 h 85.616853 l 0.15708,9.99999 z"
       id="path5858" />
    <path
       class="convex"
       d="m 118.39287,547.56798 v -58.7619 m -85.931014,-3.238 1e-5,61.99991 m 85.931004,-58.76191 v -28.30827 m -85.931014,10e-6 v 25.07026 m 85.931014,-25.07027 v -27.84756 m -85.931015,10e-6 10e-7,27.84756 m 85.931014,-27.84757 v -24.4979 m -85.931017,2e-5 2e-6,24.49789 m 85.931015,-24.49791 v -32.54264 m -85.931021,10e-6 4e-6,32.54265 m -4e-6,-65.0853 v 32.54265 m 85.931021,-10e-6 v -32.54264 m -85.931025,-24.49786 4e-6,24.49786 m 85.931021,0 V 318.56918 M 32.461845,290.72162 v 27.84759 m 85.931025,-3e-5 v -27.84756 m -85.931028,-25.07025 3e-6,25.07025 m 85.931025,0 -1e-5,-28.30827 m -85.931018,-58.7619 v 61.99992 m 85.931018,-3.23802 v -58.7619 m -85.930992,367.34857 85.931022,1e-5 m 0,0 -2e-5,-23.43205 m -85.931004,10e-6 2e-6,23.43203 m -2.6e-5,-390.78061 v 23.43204 m 85.931018,0 1e-5,-23.43204 m 0,0 H 32.461842 m -15.461821,390.78063 15.461847,-2e-5 m -2.6e-5,-390.78061 H 17.000018"
       id="path5860" />
    <path
       class="outer"
       d="M 7.000004,290.56453 7,266.50509 17,266.348 7,266.19091 l -1e-6,-62.38237 10,-0.15709 -10,-0.15711 2e-5,-23.11785 9.999999,-0.15708 0.121445,-7.7309 h 15.21893 l 0.121449,7.7309 0.157095,-9.99999 h 85.616853 l 0.15708,9.99999 10.00001,0.15708 -2e-5,23.11787 -10,0.15709 10,0.15709 v 58.44772 l -10,0.15709 10,0.15709 v 27.99409 l -9.99999,0.15709 9.99999,0.15709 2e-5,27.53338 -10.00001,0.15709 10.00001,0.15709 -2e-5,24.18372 -9.99999,0.15708 9.99999,0.15709 2e-5,32.22846 -10.00001,0.15709 10.00001,0.15708 v 32.22847 l -10.00001,0.15709 10.00001,0.15711 -2e-5,24.1837 -9.99999,0.15709 9.99999,0.15709 v 27.53336 l -9.99999,0.15711 9.99999,0.15708 v 27.99409 l -9.99999,0.1571 9.99999,0.15709 2e-5,58.44772 -10.00001,0.15709 10.00001,0.15709 v 23.11786 l -9.99999,0.1571 -0.1571,10 -85.616831,-1e-5 -0.157091,-10 -0.121437,7.73092 -15.218953,2e-5 -0.121457,-7.73092 -9.999998,-0.1571 -2e-6,-23.11786 9.999999,-0.15709 -9.999999,-0.15709 -1e-5,-62.38236 10,-0.15709 -10,-0.15709 -1.5e-5,-24.05944 10,-0.15708 -10,-0.15709 -3.2e-5,-27.53341 10,-0.15711 -10,-0.15708 -2.7e-5,-24.18373 10,-0.1571 -10,-0.15713 1.04e-4,-32.22862 10,-0.15706 -10,-0.15713 1.05e-4,-32.2286 10,-0.15706 -10,-0.15703 -1.37e-4,-24.18336 9.999999,-0.15715 -9.999999,-0.15709 -5e-6,-27.53338 10,-0.15709 z"
       id="path5862" />
    <text
       transform="rotate(179.99994,12.365331,286.1958)"
       style="font-size:6.96px"
       id="text5866"><tspan
         id="tspan5864">6.:5</tspan></text>
    <g
       id="g5874">
      <path
         transform="matrix(2e-6,10,-10,2e-6,118.39289,559.284)"
         class="arrow"
         d="M 0,0 1,1 0,0.25 -1,1 Z"
         id="path5868" />
      <text
         transform="translate(109.39289,563.28401)"
         style="font-size:10px"
         id="text5872"><tspan
           id="tspan5870">1</tspan></text>
    </g>
    <text
       transform="rotate(90,-219.54556,339.73845)"
       style="font-size:9px"
       id="text5878"><tspan
         id="tspan5876">5:1</tspan></text>
    <g
       id="g5886">
      <path
         transform="matrix(-1e-6,-10,10,-1e-6,17.000021,559.28401)"
         class="arrow"
         d="M 0,0 1,1 0,0.25 -1,1 Z"
         id="path5880" />
      <text
         transform="translate(26.00002,563.28401)"
         style="font-size:10px"
         id="text5884"><tspan
           id="tspan5882">2</tspan></text>
    </g>
    <text
       transform="rotate(-90,287.24202,272.04199)"
       style="font-size:9px"
       id="text5890"><tspan
         id="tspan5888">9.:2</tspan></text>
    <g
       id="g5898">
      <path
         transform="matrix(-10,-1e-6,1e-6,-10,75.427373,571.00002)"
         class="arrow"
         d="M 0,0 1,1 0,0.25 -1,1 Z"
         id="path5892" />
      <text
         transform="translate(75.427373,566.00003)"
         style="font-size:10px"
         id="text5896"><tspan
           id="tspan5894">3</tspan></text>
    </g>
    <text
       transform="rotate(180,37.713687,286.40001)"
       style="font-size:9px"
       id="text5902"><tspan
         id="tspan5900">6.:3</tspan></text>
    <text
       transform="translate(24.730929,178.82785)"
       style="font-size:6.96px"
       id="text5906"><tspan
         id="tspan5904">7:5</tspan></text>
    <g
       id="g5914">
      <path
         transform="matrix(-4e-6,10,-10,-4e-6,118.39287,191.93541)"
         class="arrow"
         d="M 0,0 1,1 0,0.25 -1,1 Z"
         id="path5908" />
      <text
         transform="translate(109.39287,195.93542)"
         style="font-size:10px"
         id="text5912"><tspan
           id="tspan5910">4</tspan></text>
    </g>
    <text
       transform="rotate(90,-35.87127,156.06414)"
       style="font-size:9px"
       id="text5918"><tspan
         id="tspan5916">5:4</tspan></text>
    <g
       id="g5926">
      <path
         transform="matrix(8e-6,-10,10,8e-6,17.000008,191.93544)"
         class="arrow"
         d="M 0,0 1,1 0,0.25 -1,1 Z"
         id="path5920" />
      <text
         transform="translate(26.000009,195.93545)"
         style="font-size:10px"
         id="text5924"><tspan
           id="tspan5922">5</tspan></text>
    </g>
    <text
       transform="rotate(-90,103.56782,88.36771)"
       style="font-size:9px"
       id="text5930"><tspan
         id="tspan5928">9.:5</tspan></text>
    <g
       id="g5938">
      <path
         transform="matrix(10,1e-6,-1e-6,10,75.427358,180.21944)"
         class="arrow"
         d="M 0,0 1,1 0,0.25 -1,1 Z"
         id="path5932" />
      <text
         transform="translate(75.427358,193.21945)"
         style="font-size:10px"
         id="text5936"><tspan
           id="tspan5934">6.</tspan></text>
    </g>
    <text
       transform="translate(75.427358,178.41944)"
       style="font-size:9px"
       id="text5942"><tspan
         id="tspan5940">7:6.</tspan></text>
  </g>
  <g
     id="g6390"
     transform="rotate(18.46954,93.690092,-169.45327)">
    <text
       style="font-size:10px"
       id="text5948"
       x="401.97455"
       y="334.12424"><tspan
         id="tspan5946">[12] I 12</tspan></text>
    <path
       class="sticker"
       d="m 374.05335,373.13966 -9.56541,2.92018 -12.31635,-38.1853 9.46897,-3.21919 z m 59.62463,-113.00689 9.56516,-2.92102 64.42271,199.67495 -9.46868,3.22003 z m -46.36029,-67.37835 -2.59965,-9.65744 22.06816,-6.31383 3.07226,9.52223 z m 110.87948,267.35231 9.56518,-2.921 7.75468,24.03538 -9.4687,3.22001 z m 7.85116,24.33439 2.92101,9.56517 -22.17775,7.15531 -3.21999,-9.4687 z m -144.40777,-149.78577 -9.81222,-1.93518 25.62118,-141.59173 9.86817,1.62598 z m 121.93104,157.03755 -2.00746,9.7977 -75.58739,-14.25375 1.6987,-9.85592 z m -75.89615,-14.31197 -9.56541,2.92018 -33.52566,-103.94227 9.46897,-3.21918 z m 2.18301,-291.07555 9.56516,-2.92104 23.72305,73.52843 -9.46869,3.22 z"
       id="path5950" />
    <path
       class="convex"
       d="M 498.19717,460.10673 433.67798,260.13277 m -22.56529,6.53591 64.45266,200.20908 m 0,0 22.63182,-6.77103 M 433.67798,260.13277 409.85846,186.30538 m -22.54077,6.44904 23.795,73.91426 m 94.93564,217.77244 -7.85116,-24.33439 m -22.63182,6.77103 8.00625,24.81514 m 0,0 22.47673,-7.25178 m -98.37288,-7.06019 67.8899,-10.50317"
       id="path5952" />
    <path
       class="concave"
       d="m 409.85846,186.30538 -22.54077,6.44904 m -13.26434,180.38524 33.6221,104.24127 M 387.31769,192.75442 361.64056,334.65535 m 0,0 12.41279,38.48431 m 33.6221,104.24127 75.89615,14.31197"
       id="path5954" />
    <path
       class="outer"
       d="m 443.24314,257.21175 64.42271,199.67495 -9.46868,3.22003 9.56518,-2.921 7.75468,24.03538 -9.4687,3.22001 2.92101,9.56517 -22.17775,7.15531 -3.21999,-9.4687 -2.00746,9.7977 -75.58739,-14.25375 1.6987,-9.85592 -9.56541,2.92018 -33.52566,-103.94227 9.46897,-3.21918 -9.56541,2.92018 -12.31635,-38.1853 9.46897,-3.21919 -9.81222,-1.93518 25.62118,-141.59173 9.86817,1.62598 -2.59965,-9.65744 22.06816,-6.31383 3.07226,9.52223 9.56516,-2.92104 23.72305,73.52843 -9.46869,3.22 z"
       id="path5956" />
    <g
       id="g5964"
       transform="translate(221.43546,-81.509434)">
      <path
         transform="matrix(-3.06969,-9.517196,9.517196,-3.06969,146.4115,435.40692)"
         class="arrow"
         d="M 0,0 1,1 0,0.25 -1,1 Z"
         id="path5958" />
      <text
         transform="translate(154.97698,436.64419)"
         style="font-size:10px"
         id="text5962"><tspan
           id="tspan5960">1</tspan></text>
    </g>
    <text
       transform="rotate(-107.87665)"
       style="font-size:9px"
       id="text5968"
       x="-449.72861"
       y="239.65172"><tspan
         id="tspan5966">8:1</tspan></text>
    <g
       id="g5976"
       transform="translate(221.43546,-81.509434)">
      <path
         transform="matrix(9.614244,-2.750695,2.750695,9.614244,177.15261,271.03933)"
         class="arrow"
         d="M 0,0 1,1 0,0.25 -1,1 Z"
         id="path5970" />
      <text
         transform="translate(179.62824,283.69215)"
         style="font-size:10px"
         id="text5974"><tspan
           id="tspan5972">2</tspan></text>
    </g>
    <text
       transform="rotate(-15.966134)"
       style="font-size:9px"
       id="text5980"
       x="331.078"
       y="290.05817"><tspan
         id="tspan5978">1:2</tspan></text>
    <text
       transform="rotate(72.118399)"
       style="font-size:9px"
       id="text5984"
       x="603.63715"
       y="-334.65457"><tspan
         id="tspan5982">6.:7</tspan></text>
    <text
       transform="rotate(162.11847)"
       style="font-size:9px"
       id="text5988"
       x="-321.04651"
       y="-618.2215"><tspan
         id="tspan5986">5:1</tspan></text>
    <text
       transform="rotate(-79.743279)"
       style="font-size:9px"
       id="text5992"
       x="-192.8114"
       y="413.64993"><tspan
         id="tspan5990">1:2</tspan></text>
    <text
       transform="rotate(-169.32097)"
       style="font-size:9px"
       id="text5996"
       x="-527.69366"
       y="-395.36783"><tspan
         id="tspan5994">5:3</tspan></text>
    <g
       id="g6004"
       transform="translate(221.43546,-81.509434)">
      <path
         transform="matrix(-3.069687,-9.517197,9.517197,-3.069687,169.42895,506.76973)"
         class="arrow"
         d="M 0,0 1,1 0,0.25 -1,1 Z"
         id="path5998" />
      <text
         transform="translate(177.99442,508.00701)"
         style="font-size:10px"
         id="text6002"><tspan
           id="tspan6000">3</tspan></text>
    </g>
    <text
       transform="rotate(-107.87665)"
       style="font-size:9px"
       id="text6008"
       x="-524.71155"
       y="239.65173"><tspan
         id="tspan6006">8:3</tspan></text>
    <text
       transform="rotate(72.118345)"
       style="font-size:9px"
       id="text6012"
       x="341.9407"
       y="-334.65384"><tspan
         id="tspan6010">6.:11</tspan></text>
  </g>
  <g
     id="g1050"
     transform="rotate(179.09638,146.10565,293.4201)">
    <text
       style="font-size:10px"
       id="text828"
       x="90.374512"
       y="379.23386"><tspan
         id="tspan826">[13] I 13</tspan></text>
    <path
       class="sticker"
       d="m 149.47223,408.98717 9.6507,2.62462 -9.91989,38.87682 -9.72839,-2.32019 z m -128.497813,133.69395 -9.650476,-2.62543 51.891401,-203.29207 9.728179,2.32106 z m 71.155332,-278.76121 2.474629,-9.69475 22.417822,4.93041 -1.99457,9.80034 z M 14.650469,567.45636 5,564.83092 l 6.246239,-24.4708 9.728178,2.321 z m 23.090765,5.89308 -2.625086,9.65059 -22.786356,-5.81539 2.320677,-9.72828 z m 77.286396,-304.39353 9.74808,-2.23604 34.36955,139.72619 -9.67303,2.54111 z m -2.63306,285.34147 2.3206,9.72829 -74.348903,18.97436 -2.625033,-9.65059 z m 27.08008,-106.12896 9.65069,2.62463 -27.00238,105.8245 -9.72839,-2.32017 z m -66.531129,-109.08374 -9.650477,-2.62547 19.108534,-74.86033 9.728171,2.32103 z"
       id="path830" />
    <path
       class="convex"
       d="M 95.871327,344.20585 43.983256,548.03287 m 0,0 68.411314,6.26451 m 2.63306,-285.34147 -19.156303,75.24994 m -51.888071,203.82702 -6.242022,25.31657 m -16.766817,-30.66832 23.008839,5.35175 M 72.943521,339.08468 20.974417,542.68112 M 92.129749,263.91991 72.943521,339.08468 m -58.293052,228.37168 23.090765,5.89308 m -16.766817,-30.66832 -6.323948,24.77524"
       id="path832" />
    <path
       class="concave"
       d="m 112.39457,554.29738 27.08008,-106.12896 m 0,0 9.99758,-39.18125 m 0,0 -34.4446,-140.03126 M 37.741234,573.34944 112.39457,554.29738 m 2.63306,-285.34147 -22.897881,-5.036"
       id="path834" />
    <path
       class="outer"
       d="m 5,564.83092 6.246239,-24.4708 9.728178,2.321 -9.650476,-2.62543 51.891401,-203.29207 9.728179,2.32106 -9.650477,-2.62547 19.108534,-74.86033 9.728171,2.32103 2.474629,-9.69475 22.417822,4.93041 -1.99457,9.80034 9.74808,-2.23604 34.36955,139.72619 -9.67303,2.54111 9.6507,2.62462 -9.91989,38.87682 -9.72839,-2.32019 9.65069,2.62463 -27.00238,105.8245 -9.72839,-2.32017 2.3206,9.72829 -74.348903,18.97436 -2.625033,-9.65059 -2.625086,9.65059 -22.786356,-5.81539 2.320677,-9.72828 z"
       id="path836" />
    <g
       id="g844">
      <path
         transform="matrix(-2.472408,9.689541,-9.689541,-2.472408,144.47344,428.57779)"
         class="arrow"
         d="M 0,0 1,1 0,0.25 -1,1 Z"
         id="path838" />
      <text
         transform="translate(135.75285,430.35262)"
         style="font-size:10px"
         id="text842"><tspan
           id="tspan840">1</tspan></text>
    </g>
    <text
       transform="rotate(104.31431)"
       style="font-size:9px"
       id="text848"
       x="379.5524"
       y="-247.75014"><tspan
         id="tspan846">8:1</tspan></text>
    <g
       id="g856">
      <path
         transform="matrix(9.766582,2.147988,-2.147988,9.766582,103.57869,266.43791)"
         class="arrow"
         d="M 0,0 1,1 0,0.25 -1,1 Z"
         id="path850" />
      <text
         transform="translate(101.6455,279.22785)"
         style="font-size:10px"
         id="text854"><tspan
           id="tspan852">2</tspan></text>
    </g>
    <text
       transform="rotate(12.403739)"
       style="font-size:9px"
       id="text860"
       x="158.39191"
       y="236.17"><tspan
         id="tspan858">1:2</tspan></text>
    <text
       transform="rotate(-75.680841)"
       style="font-size:9px"
       id="text864"
       x="-533.41907"
       y="152.74033"><tspan
         id="tspan862">7:7</tspan></text>
    <text
       transform="rotate(-165.68291)"
       style="font-size:9px"
       id="text868"
       x="-166.43608"
       y="-548.0094"><tspan
         id="tspan866">5:4</tspan></text>
    <text
       transform="rotate(76.180845)"
       style="font-size:9px"
       id="text872"
       x="360.74887"
       y="-49.255917"><tspan
         id="tspan870">1:4</tspan></text>
    <text
       transform="rotate(165.68327)"
       style="font-size:9px"
       id="text876"
       x="66.686768"
       y="-566.6759"><tspan
         id="tspan874">5:6.</tspan></text>
    <g
       id="g884">
      <path
         transform="matrix(-2.472403,9.689541,-9.689541,-2.472403,125.9346,501.2329)"
         class="arrow"
         d="M 0,0 1,1 0,0.25 -1,1 Z"
         id="path878" />
      <text
         transform="translate(117.21401,503.00774)"
         style="font-size:10px"
         id="text882"><tspan
           id="tspan880">3</tspan></text>
    </g>
    <text
       transform="rotate(104.31425)"
       style="font-size:9px"
       id="text888"
       x="454.53571"
       y="-247.74977"><tspan
         id="tspan886">8:3</tspan></text>
    <text
       transform="rotate(-75.680661)"
       style="font-size:9px"
       id="text892"
       x="-271.72192"
       y="152.74176"><tspan
         id="tspan890">7:11</tspan></text>
  </g>
</svg>
