<?xml version="1.0" encoding="UTF-8" standalone="no"?>
<svg
   version="1.1"
   width="300.00mm"
   height="600.00mm"
   viewBox="0 0 300.00 600.00"
   id="svg932"
   sodipodi:docname="bottom_page5.svg"
   inkscape:version="1.1.1 (c3084ef, 2021-09-22)"
   xmlns:inkscape="http://www.inkscape.org/namespaces/inkscape"
   xmlns:sodipodi="http://sodipodi.sourceforge.net/DTD/sodipodi-0.dtd"
   xmlns="http://www.w3.org/2000/svg"
   xmlns:svg="http://www.w3.org/2000/svg">
  <defs
     id="defs936" />
  <sodipodi:namedview
     id="namedview934"
     pagecolor="#ffffff"
     bordercolor="#666666"
     borderopacity="1.0"
     inkscape:pageshadow="2"
     inkscape:pageopacity="0.0"
     inkscape:pagecheckerboard="0"
     inkscape:document-units="mm"
     showgrid="false"
     inkscape:zoom="0.35057292"
     inkscape:cx="566.21602"
     inkscape:cy="1133.8583"
     inkscape:window-width="1792"
     inkscape:window-height="975"
     inkscape:window-x="0"
     inkscape:window-y="25"
     inkscape:window-maximized="1"
     inkscape:current-layer="svg932" />
  <style
     type="text/css"
     id="style824">
    path {
        fill: none;
        stroke-linecap: butt;
        stroke-linejoin: bevel;
        stroke-dasharray: none;
    }
    path.outer {
        stroke: #000000;
        stroke-dasharray: none;
        stroke-dashoffset: 0;
        stroke-width: 0.3;
        stroke-opacity: 1.0;
    }
    path.convex {
        stroke: #000000;
        stroke-dasharray: 0.50,1.00;
        stroke-dashoffset:0;
        stroke-width:0.2;
        stroke-opacity: 1.0
    }
    path.concave {
        stroke: #000000;
        stroke-dasharray: 1.00,0.50,0.20,0.50;
        stroke-dashoffset: 0;
        stroke-width: 0.2;
        stroke-opacity: 1.0
    }
    path.freestyle {
        stroke: #000000;
        stroke-dasharray: none;
        stroke-dashoffset: 0;
        stroke-width: 0.2;
        stroke-opacity: 1.0
    }
    path.outer_background {
        stroke: #ffffff;
        stroke-opacity: 1.0;
        stroke-width: 0.5
    }
    path.inner_background {
        stroke: #ffffff;
        stroke-opacity: 1.0;
        stroke-width: 0.2
    }
    path.sticker {
        fill: #e5e5e5;
        stroke: none;
        fill-opacity: 1.0;
    }
    path.arrow {
        fill: #000000;
    }
    text {
        font-style: normal;
        fill: #000000;
        fill-opacity: 1.0;
        stroke: none;
    }
    text, tspan {
        text-anchor:middle;
    }
    </style>
  <g
     id="g2610">
    <text
       style="font-size:10px"
       id="text828"
       x="146.53992"
       y="248.14027"><tspan
         id="tspan826">[1] I 1</tspan></text>
    <path
       class="sticker"
       d="m 256.20082,583.58337 -0.15708,9.99999 h -75.07122 l -0.15709,-9.99999 z m -74.60171,-138.34974 0.15711,-10.00002 74.28752,10e-6 0.15708,10.00001 z m 96.4807,27.84756 9.99999,0.15708 v 24.05948 l -9.99999,0.15709 z m -261.066077,0.009 -10.00002,-0.15637 -0.00194,-27.53338 9.99999,-0.1578 z m -0.0037,-52.34545 -10.00002,-0.15637 -0.00229,-32.22847 9.99999,-0.15781 z m 140.204457,162.83837 -0.073,4.64421 h -9.14252 l -0.0729,-4.64421 z m -9.28843,0 -9.98916,-0.49129 0.77321,-23.11799 9.99966,0.17726 z m 130.15374,-23.43202 7.20191,6.93953 -21.66456,23.20236 -7.41634,-6.70987 z m 0,-62.69651 9.99999,0.15708 V 559.994 l -9.99999,0.15709 z m -261.064075,3.94389 -10.00002,-0.15638 -0.00197,-27.99409 9.99999,-0.15781 z m 239.185085,-56.1651 7.96041,-6.05448 21.68489,27.60051 -7.7663,6.30153 z m -75.38539,138.34974 -0.1571,9.99999 h -23.28675 l -0.15708,-9.99999 z m -22.81727,-195.39027 10.00001,0.15709 -2e-5,32.22845 -10,0.15709 z m -140.986389,57.0498 -10.00002,-0.15638 -0.0017,-24.18372 9.999991,-0.1578 z m 140.986379,-24.50717 7.31066,-6.82487 23.38299,24.27161 -7.09269,7.05116 z m -9.28837,139.41562 -4.2177,9.0684 -131.407122,-58.62462 3.930777,-9.1964 z m 32.10568,-367.34849 0.15709,-10.00002 75.07122,3e-5 0.15709,9.99999 z m 75.38539,138.34974 -0.15711,10.00002 -74.28752,-3e-5 -0.15709,-9.99999 z m 21.87899,-52.22118 9.99999,0.15712 v 24.05942 l -9.99999,0.15711 z m -261.076145,52.23042 -10.00002,-0.1564 -0.00194,-27.53335 9.999991,-0.15781 z m 0.004,57.04051 -10.00002,-0.15637 -0.00226,-32.22844 9.99999,-0.1578 z m 130.918415,-195.3992 0.0729,-4.64422 9.14252,-3e-5 0.073,4.64422 z m 0.78374,23.43202 -9.99966,0.17726 -0.77324,-23.11799 9.98916,-0.49129 z m 107.49101,-23.43205 7.41634,-6.70987 21.66459,23.20239 -7.20194,6.93953 z m 21.87899,23.43205 9.99999,0.15708 v 62.38235 l -9.99999,0.15708 z m -261.078117,87.07937 -10.00002,-0.15637 -0.002,-27.9941 9.99999,-0.1578 z m 261.078117,-0.009 7.76628,6.30153 -21.68489,27.60049 -7.96038,-6.05449 z m -120.86531,-110.50221 0.15708,-10.00002 h 23.28676 l 0.15709,10.00002 z m 0.78363,162.84762 10.00001,0.15709 v 32.22844 l -10.00001,0.15709 z m -140.992742,0.009 -10.00002,-0.15638 -0.0017,-24.18372 9.999991,-0.1578 z m 164.593712,-24.50714 7.09268,7.05111 -23.38297,24.27164 -7.31068,-6.82487 z M 16.999696,275.00601 13.068263,265.80988 144.4915,207.1668 l 4.21834,9.06811 z"
       id="path830" />
    <path
       class="outer"
       d="m 256.04374,593.58336 h -75.07122 l -0.15709,-9.99999 -0.1571,9.99999 h -23.28675 l -0.15708,-9.99999 -0.073,4.64421 h -9.14252 l -0.0729,-4.64421 -9.98916,-0.49129 0.77321,-23.11799 9.99966,0.17726 -4.2177,9.0684 -131.407127,-58.62462 3.930777,-9.1964 -10.00002,-0.15638 -0.00197,-27.99409 9.99999,-0.15781 -10.00002,-0.15637 -0.00194,-27.53338 9.99999,-0.1578 -10.00002,-0.15638 -0.0017,-24.18372 9.999991,-0.1578 -10.00002,-0.15637 -0.00229,-32.22847 9.99999,-0.15781 -10.00002,-0.15637 -0.00226,-32.22844 9.99999,-0.1578 -10.00002,-0.15638 -0.0017,-24.18372 9.999991,-0.1578 -10.00002,-0.1564 -0.00194,-27.53335 9.999991,-0.15781 -10.00002,-0.15637 -0.002,-27.9941 9.99999,-0.1578 -3.931433,-9.19613 131.42324,-58.64308 4.21834,9.06811 -9.99966,0.17726 -0.77324,-23.11799 9.98916,-0.49129 0.0729,-4.64422 9.14252,-3e-5 0.073,4.64422 0.15708,-10.00002 h 23.28676 l 0.15709,10.00002 0.15709,-10.00002 75.07122,3e-5 0.15708,9.99999 7.41634,-6.70987 21.66459,23.20239 -7.20194,6.93953 9.99999,0.15708 v 62.38235 l -9.99999,0.15708 9.99999,0.15712 v 24.05942 l -9.99999,0.15711 7.76628,6.30153 -21.68489,27.60049 -7.96038,-6.05449 -0.15711,10.00002 -74.28752,-3e-5 -0.15709,-9.99999 7.09268,7.05111 -23.38297,24.27164 -7.31068,-6.82487 10.00001,0.15709 v 32.22844 l -10.00001,0.15709 10.00001,0.15709 -2e-5,32.22845 -10,0.15709 7.31066,-6.82487 23.38299,24.27161 -7.09269,7.05116 0.15711,-10.00002 74.28752,10e-6 0.15708,10.00001 7.96041,-6.05448 21.68489,27.60051 -7.76631,6.30153 9.99999,0.15708 v 24.05948 l -9.99999,0.15709 9.99999,0.15708 v 62.38234 l -9.99999,0.15709 7.20191,6.93953 -21.66456,23.20236 -7.41634,-6.70987 z"
       id="path832" />
    <text
       transform="scale(-1)"
       style="font-size:9px"
       id="text836"
       x="-218.50812"
       y="-585.38336"><tspan
         id="tspan834">7:2</tspan></text>
    <text
       style="font-size:9px"
       id="text840"
       x="218.89996"
       y="443.43362"><tspan
         id="tspan838">6.:1</tspan></text>
    <text
       transform="scale(-1)"
       style="font-size:4.18px"
       id="text844"
       x="-152.57028"
       y="-584.41931"><tspan
         id="tspan842">7:3</tspan></text>
    <text
       transform="rotate(-88.08436)"
       style="font-size:9px"
       id="text848"
       x="-566.58984"
       y="165.55138"><tspan
         id="tspan846">14:2</tspan></text>
    <text
       transform="rotate(133.03694)"
       style="font-size:9px"
       id="text852"
       x="235.67058"
       y="-587.33862"><tspan
         id="tspan850">10:2</tspan></text>
    <g
       id="g860"
       transform="translate(0,10.583333)">
      <path
         transform="matrix(-7.04e-4,-10,10,-7.04e-4,17.014747,476.66126)"
         class="arrow"
         d="M 0,0 1,1 0,0.25 -1,1 Z"
         id="path854" />
      <text
         transform="translate(26.014746,480.66063)"
         style="font-size:10px"
         id="text858"><tspan
           id="tspan856">1</tspan></text>
    </g>
    <text
       transform="rotate(-90.004011)"
       style="font-size:9px"
       id="text864"
       x="-487.24579"
       y="15.180637"><tspan
         id="tspan862">9.:1</tspan></text>
    <text
       transform="rotate(51.844334)"
       style="font-size:9px"
       id="text868"
       x="526.09106"
       y="71.805573"><tspan
         id="tspan866">10:4</tspan></text>
    <g
       id="g876"
       transform="translate(0,10.583333)">
      <path
         transform="matrix(-9.132394,-4.074231,4.074231,-9.132394,82.862754,520.19169)"
         class="arrow"
         d="M 0,0 1,1 0,0.25 -1,1 Z"
         id="path870" />
      <text
         transform="translate(86.529565,515.97254)"
         style="font-size:10px"
         id="text874"><tspan
           id="tspan872">2</tspan></text>
    </g>
    <text
       transform="rotate(-155.95693)"
       style="font-size:9px"
       id="text880"
       x="-291.92361"
       y="-452.7645"><tspan
         id="tspan878">14:2</tspan></text>
    <text
       style="font-size:9px"
       id="text884"
       x="218.50816"
       y="191.00285"><tspan
         id="tspan882">8:2</tspan></text>
    <text
       transform="scale(-1)"
       style="font-size:9px"
       id="text888"
       x="-218.89998"
       y="-332.95261"><tspan
         id="tspan886">6.:6.</tspan></text>
    <text
       transform="rotate(-91.915698)"
       style="font-size:9px"
       id="text896"
       x="-209.36273"
       y="139.59821"><tspan
         id="tspan894">13:2</tspan></text>
    <text
       transform="rotate(46.963097)"
       style="font-size:9px"
       id="text900"
       x="331.8009"
       y="-57.478996"><tspan
         id="tspan898">11:2</tspan></text>
    <g
       id="g908"
       transform="translate(0,10.583333)">
      <path
         transform="matrix(-7.15e-4,-9.999999,9.999999,-7.15e-4,17.00071,278.57682)"
         class="arrow"
         d="M 0,0 1,1 0,0.25 -1,1 Z"
         id="path902" />
      <text
         transform="translate(26.000709,282.57617)"
         style="font-size:10px"
         id="text906"><tspan
           id="tspan904">3</tspan></text>
    </g>
    <text
       transform="rotate(-90.004125)"
       style="font-size:9px"
       id="text912"
       x="-289.16138"
       y="15.179888"><tspan
         id="tspan910">9.:3</tspan></text>
    <text
       transform="rotate(128.15567)"
       style="font-size:9px"
       id="text916"
       x="84.408844"
       y="-407.84592"><tspan
         id="tspan914">11:4</tspan></text>
    <g
       id="g924"
       transform="translate(0,10.583333)">
      <path
         transform="matrix(9.132103,-4.074886,4.074886,9.132103,82.854767,235.03711)"
         class="arrow"
         d="M 0,0 1,1 0,0.25 -1,1 Z"
         id="path918" />
      <text
         transform="translate(86.522167,247.25601)"
         style="font-size:10px"
         id="text922"><tspan
           id="tspan920">4</tspan></text>
    </g>
    <text
       transform="rotate(-24.047198)"
       style="font-size:9px"
       id="text928"
       x="-24.423895"
       y="256.2655"><tspan
         id="tspan926">13:4</tspan></text>
  </g>
  <g
     id="g2006"
     transform="rotate(-90,172.65709,165.84204)">
    <text
       style="font-size:10px"
       id="text1775"
       x="250.99721"
       y="175.5378"><tspan
         id="tspan1773">[9.] I 9</tspan></text>
    <path
       class="sticker"
       d="m 323.71608,254.67747 -0.15711,9.99999 h -40.12245 l -0.15708,-9.99999 z m 0,-56.15586 10,0.15712 -10e-6,27.53338 -9.99999,0.15709 z m 0,-57.04048 10,0.15708 v 32.22844 l -10,0.15709 z m 0,84.88807 9.99999,0.15709 v 27.99406 l -9.99999,0.15712 z m 0,-52.34546 10,0.15709 v 24.18372 l -10,0.15706 z m -149.96604,0 -10,-0.15712 v -32.22844 l 10,-0.15708 z m 0,52.34543 -10,-0.15709 V 198.6787 l 10,-0.15709 z m 0,-27.84756 -10,-0.15709 V 174.1808 l 10,-0.15706 z m 0,56.15583 -10,-0.15709 v -27.99409 l 10,-0.15709 z m 109.5294,3e-5 -0.15711,9.99999 h -109.2152 l -0.15709,-10.00002 z m 10e-6,-226.392687 0.15709,-9.99999 H 323.559 l 0.15709,9.99999 z m 40.43664,28.308273 9.99999,0.157058 v 27.533412 l -9.99999,0.157058 z m 0,52.345454 9.99999,0.15709 v 32.22844 l -10,0.15709 z m 0,-80.653727 10.00001,0.157118 -2e-5,27.994037 -9.99999,0.157118 z m 0,56.155801 9.99999,0.157118 v 24.183688 l -9.99999,0.15712 z m -149.96605,57.040516 -10,-0.15709 10e-6,-32.22844 10.00001,-0.15712 z m 2e-5,-57.040516 -10.00001,-0.157118 V 56.750114 l 10.00001,-0.157058 z m 0,24.497866 -10.00001,-0.15709 V 84.597702 l 10.00001,-0.157118 z m 0,-52.345394 -10.00001,-0.157118 V 28.441842 l 10.00001,-0.157059 z m 0,-28.308273 0.15709,-9.99999 h 109.21521 l 0.15709,9.99999 z"
       id="path1777" />
    <path
       class="outer"
       d="M 163.75004,198.36452 V 174.1808 l 10,-0.15706 -10,-0.15712 v -32.22844 l 10,-0.15708 -10,-0.15709 10e-6,-32.22844 10.00001,-0.15712 -10.00001,-0.15709 V 84.597702 l 10.00001,-0.157118 -10.00001,-0.157118 V 56.750114 l 10.00001,-0.157058 -10.00001,-0.157118 V 28.441842 l 10.00001,-0.157059 0.15709,-9.99999 h 109.21521 l 0.15709,9.99999 0.15709,-9.99999 H 323.559 l 0.15709,9.99999 10.00001,0.157118 -2e-5,27.994037 -9.99999,0.157118 9.99999,0.157058 v 27.533412 l -9.99999,0.157058 9.99999,0.157118 v 24.183688 l -9.99999,0.15712 9.99999,0.15709 v 32.22844 l -10,0.15709 10,0.15708 v 32.22844 l -10,0.15709 10,0.15709 v 24.18372 l -10,0.15706 10,0.15712 -10e-6,27.53338 -9.99999,0.15709 9.99999,0.15709 v 27.99406 l -9.99999,0.15712 -0.15711,9.99999 h -40.12245 l -0.15708,-9.99999 -0.15711,9.99999 h -109.2152 l -0.15709,-10.00002 -10,-0.15709 v -27.99409 l 10,-0.15709 -10,-0.15709 V 198.6787 l 10,-0.15709 z"
       id="path1779" />
    <text
       transform="scale(-1)"
       style="font-size:9px"
       id="text1783"
       x="-303.49774"
       y="-256.47748"><tspan
         id="tspan1781">14:1</tspan></text>
    <text
       transform="rotate(90)"
       style="font-size:9px"
       id="text1787"
       x="240.52333"
       y="-325.51608"><tspan
         id="tspan1785">1:1</tspan></text>
    <text
       transform="rotate(-90)"
       style="font-size:9px"
       id="text1791"
       x="-240.5233"
       y="171.95004"><tspan
         id="tspan1789">4:1</tspan></text>
    <text
       transform="scale(-1)"
       style="font-size:9px"
       id="text1795"
       x="-228.51474"
       y="-256.47745"><tspan
         id="tspan1793">14:4</tspan></text>
    <text
       style="font-size:9px"
       id="text1799"
       x="303.49777"
       y="26.484783"><tspan
         id="tspan1797">13:1</tspan></text>
    <text
       transform="rotate(90)"
       style="font-size:9px"
       id="text1803"
       x="42.438919"
       y="-325.51611"><tspan
         id="tspan1801">1:3</tspan></text>
    <text
       transform="rotate(-90)"
       style="font-size:9px"
       id="text1807"
       x="-42.438862"
       y="171.95006"><tspan
         id="tspan1805">4:3</tspan></text>
    <text
       style="font-size:9px"
       id="text1811"
       x="228.51476"
       y="26.484722"><tspan
         id="tspan1809">13:4</tspan></text>
  </g>
</svg>
