<?xml version="1.0" encoding="UTF-8" standalone="no"?>
<svg
   version="1.1"
   width="300.00mm"
   height="600.00mm"
   viewBox="0 0 300.00 600.00"
   id="svg5697"
   sodipodi:docname="bottom_page6_black_12x14.svg"
   inkscape:version="1.1.1 (c3084ef, 2021-09-22)"
   xmlns:inkscape="http://www.inkscape.org/namespaces/inkscape"
   xmlns:sodipodi="http://sodipodi.sourceforge.net/DTD/sodipodi-0.dtd"
   xmlns="http://www.w3.org/2000/svg"
   xmlns:svg="http://www.w3.org/2000/svg">
  <defs
     id="defs5701" />
  <sodipodi:namedview
     id="namedview5699"
     pagecolor="#ffffff"
     bordercolor="#666666"
     borderopacity="1.0"
     inkscape:pageshadow="2"
     inkscape:pageopacity="0.0"
     inkscape:pagecheckerboard="0"
     inkscape:document-units="mm"
     showgrid="false"
     inkscape:zoom="0.35057292"
     inkscape:cx="617.56053"
     inkscape:cy="1133.8583"
     inkscape:window-width="1296"
     inkscape:window-height="975"
     inkscape:window-x="0"
     inkscape:window-y="25"
     inkscape:window-maximized="0"
     inkscape:current-layer="svg5697" />
  <style
     type="text/css"
     id="style5537">
    path {
        fill: none;
        stroke-linecap: butt;
        stroke-linejoin: bevel;
        stroke-dasharray: none;
    }
    path.outer {
        stroke: #000000;
        stroke-dasharray: none;
        stroke-dashoffset: 0;
        stroke-width: 0.3;
        stroke-opacity: 1.0;
    }
    path.convex {
        stroke: #000000;
        stroke-dasharray: 0.50,1.00;
        stroke-dashoffset:0;
        stroke-width:0.2;
        stroke-opacity: 1.0
    }
    path.concave {
        stroke: #000000;
        stroke-dasharray: 1.00,0.50,0.20,0.50;
        stroke-dashoffset: 0;
        stroke-width: 0.2;
        stroke-opacity: 1.0
    }
    path.freestyle {
        stroke: #000000;
        stroke-dasharray: none;
        stroke-dashoffset: 0;
        stroke-width: 0.2;
        stroke-opacity: 1.0
    }
    path.outer_background {
        stroke: #ffffff;
        stroke-opacity: 1.0;
        stroke-width: 0.5
    }
    path.inner_background {
        stroke: #ffffff;
        stroke-opacity: 1.0;
        stroke-width: 0.2
    }
    path.sticker {
        fill: #e5e5e5;
        stroke: none;
        fill-opacity: 1.0;
    }
    path.arrow {
        fill: #000000;
    }
    text {
        font-style: normal;
        fill: #000000;
        fill-opacity: 1.0;
        stroke: none;
    }
    text, tspan {
        text-anchor:middle;
    }
    </style>
  <g
     id="g2690"
     transform="rotate(14.228156,1163.877,-251.84782)">
    <text
       style="font-size:10px"
       id="text1844"
       x="221.03145"
       y="394.04761"><tspan
         id="tspan1842">[14] I 14</tspan></text>
    <path
       class="sticker"
       d="m 184.95854,446.23148 -9.73831,2.27813 -9.75182,-38.91928 9.66194,-2.58291 z m 67.00182,-108.79523 9.73812,-2.27898 51.01253,203.51434 -9.66173,2.58375 z m -41.78072,-70.30993 -1.9522,-9.80884 22.43893,-4.83352 2.43274,9.7053 z m 92.86964,274.12904 9.73812,-2.27897 6.14044,24.49754 -9.66171,2.58372 z m 6.21685,24.80229 -4.06328,11.32783 -16.26193,4.07615 -2.58368,-9.66174 z m -134.13578,-159.05023 -9.66194,-2.58288 34.97292,-139.57637 9.73831,2.27815 z m 111.22689,164.79247 -2.65405,9.64266 -74.47325,-19.24481 2.34984,-9.72126 z m -74.77746,-19.32341 -9.7383,2.27813 -26.54489,-105.94022 9.66195,-2.58291 z m 21.51933,-290.28722 9.73812,-2.27898 18.78487,74.94223 -9.66174,2.58374 z"
       id="path1846" />
    <path
       class="outer"
       d="m 242.83723,259.91028 18.78487,74.94223 -9.66174,2.58374 9.73812,-2.27898 51.01253,203.51434 -9.66173,2.58375 9.73812,-2.27897 6.14044,24.49754 -9.66171,2.58372 -4.06328,11.32783 -16.26193,4.07615 -2.58368,-9.66174 -2.65405,9.64266 -74.47325,-19.24481 2.34984,-9.72126 -9.7383,2.27813 -26.54489,-105.94022 9.66195,-2.58291 -9.73831,2.27813 -9.75182,-38.91928 9.66194,-2.58291 -9.66194,-2.58288 34.97292,-139.57637 9.73831,2.27815 -1.9522,-9.80884 22.43893,-4.83352 2.43274,9.7053 z"
       id="path1848" />
    <g
       id="g1856"
       transform="translate(26.458334)">
      <path
         transform="matrix(-2.430516,-9.700134,9.700134,-2.430516,153.58612,426.61946)"
         class="arrow"
         d="M 0,0 1,1 0,0.25 -1,1 Z"
         id="path1850" />
      <text
         transform="translate(162.31624,428.432)"
         style="font-size:10px"
         id="text1854"><tspan
           id="tspan1852">1</tspan></text>
    </g>
    <text
       transform="rotate(-104.06675)"
       style="font-size:9px"
       id="text1860"
       x="-457.58679"
       y="69.154709"><tspan
         id="tspan1858">9.:1</tspan></text>
    <g
       id="g1868"
       transform="translate(26.458334)">
      <path
         transform="matrix(9.775771,-2.105776,2.105776,9.775771,195.18105,264.65779)"
         class="arrow"
         d="M 0,0 1,1 0,0.25 -1,1 Z"
         id="path1862" />
      <text
         transform="translate(197.07624,277.45598)"
         style="font-size:10px"
         id="text1866"><tspan
           id="tspan1864">2</tspan></text>
    </g>
    <text
       transform="rotate(-12.156227)"
       style="font-size:9px"
       id="text1872"
       x="160.93839"
       y="303.59579"><tspan
         id="tspan1870">1:2</tspan></text>
    <text
       transform="rotate(75.928363)"
       style="font-size:9px"
       id="text1876"
       x="611.48029"
       y="-164.1575"><tspan
         id="tspan1874">7:4</tspan></text>
    <g
       id="g1884"
       transform="translate(26.458334)">
      <path
         transform="matrix(-9.699928,2.431337,-2.431337,-9.699928,271.35337,568.92877)"
         class="arrow"
         d="M 0,0 1,1 0,0.25 -1,1 Z"
         id="path1878" />
      <text
         transform="translate(269.16516,564.19884)"
         style="font-size:10px"
         id="text1882"><tspan
           id="tspan1880">3</tspan></text>
    </g>
    <text
       transform="rotate(165.92842)"
       style="font-size:9px"
       id="text1888"
       x="-150.54927"
       y="-626.06482"><tspan
         id="tspan1886">4:3</tspan></text>
    <text
       transform="rotate(-75.93331)"
       style="font-size:9px"
       id="text1892"
       x="-280.13455"
       y="267.00241"><tspan
         id="tspan1890">1:2</tspan></text>
    <text
       transform="rotate(-165.51101)"
       style="font-size:9px"
       id="text1896"
       x="-381.69379"
       y="-483.76932"><tspan
         id="tspan1894">4:2</tspan></text>
    <g
       id="g1904"
       transform="translate(26.458334)">
      <path
         transform="matrix(-2.430512,-9.700134,9.700134,-2.430512,171.81084,499.35399)"
         class="arrow"
         d="M 0,0 1,1 0,0.25 -1,1 Z"
         id="path1898" />
      <text
         transform="translate(180.54095,501.16652)"
         style="font-size:10px"
         id="text1902"><tspan
           id="tspan1900">4</tspan></text>
    </g>
    <text
       transform="rotate(-104.06669)"
       style="font-size:9px"
       id="text1908"
       x="-532.56976"
       y="69.155121"><tspan
         id="tspan1906">9.:4</tspan></text>
    <text
       transform="rotate(75.928293)"
       style="font-size:9px"
       id="text1912"
       x="349.78378"
       y="-164.15674"><tspan
         id="tspan1910">7:10</tspan></text>
  </g>
  <g
     id="g2817"
     transform="rotate(-18.692167,-608.36678,-88.905312)">
    <text
       style="font-size:10px"
       id="text2080"
       x="111.96451"
       y="414.55173"><tspan
         id="tspan2078">[13] I 13</tspan></text>
    <path
       class="sticker"
       d="m 159.2999,415.43431 9.45961,3.24659 -12.42679,38.14952 -9.55693,-2.94785 z M 22.380841,540.49 l -9.459324,-3.24741 65.000258,-199.4876 9.556659,2.94867 z m 89.130689,-273.54455 3.0998,-9.51332 22.04977,6.37773 -2.62761,9.64987 z M 14.459339,564.8016 5,561.55422 12.824175,537.54135 22.380841,540.49 Z m 22.658721,7.38203 -3.247038,9.45944 -16.14318,-5.2593 -3.268503,-11.58217 z m 96.91543,-298.7239 9.87282,-1.59744 25.21138,141.66525 -9.81779,1.90677 z m -21.18128,284.56634 1.68312,9.85861 -75.425298,14.0998 -1.991972,-9.80085 z m 33.92358,-104.1435 9.45963,3.24659 -33.82629,103.84478 -9.55692,-2.94787 z m -59.297356,-113.17891 -9.459324,-3.24741 23.93576,-73.45951 9.55666,2.94871 z"
       id="path2082" />
    <path
       class="outer"
       d="m 114.61133,257.43213 22.04977,6.37773 -2.62761,9.64987 9.87282,-1.59744 25.21138,141.66525 -9.81779,1.90677 9.45961,3.24659 -12.42679,38.14952 -9.55693,-2.94785 9.45963,3.24659 -33.82629,103.84478 -9.55692,-2.94787 1.68312,9.85861 -75.425298,14.0998 -1.991972,-9.80085 -3.247038,9.45944 -16.14318,-5.2593 L 14.459339,564.8016 5,561.55422 l 7.824175,-24.01287 9.556666,2.94865 -9.459324,-3.24741 65.000258,-199.4876 9.556659,2.94867 -9.459324,-3.24741 23.93576,-73.45951 9.55666,2.94871 z"
       id="path2084" />
    <g
       id="g2092">
      <path
         transform="matrix(-3.097218,9.508272,-9.508272,-3.097218,153.03785,434.65843)"
         class="arrow"
         d="M 0,0 1,1 0,0.25 -1,1 Z"
         id="path2086" />
      <text
         transform="translate(144.48041,435.87093)"
         style="font-size:10px"
         id="text2090"><tspan
           id="tspan2088">1</tspan></text>
    </g>
    <text
       transform="rotate(108.04248)"
       style="font-size:9px"
       id="text2096"
       x="365.88583"
       y="-281.93588"><tspan
         id="tspan2094">9.:1</tspan></text>
    <g
       id="g2104">
      <path
         transform="matrix(9.606237,2.778525,-2.778525,9.606237,122.7725,270.2026)"
         class="arrow"
         d="M 0,0 1,1 0,0.25 -1,1 Z"
         id="path2098" />
      <text
         transform="translate(120.27183,282.84823)"
         style="font-size:10px"
         id="text2102"><tspan
           id="tspan2100">2</tspan></text>
    </g>
    <text
       transform="rotate(16.1321)"
       style="font-size:9px"
       id="text2108"
       x="193.0144"
       y="223.65051"><tspan
         id="tspan2106">1:2</tspan></text>
    <text
       transform="rotate(-71.9527)"
       style="font-size:9px"
       id="text2112"
       x="-519.74969"
       y="186.92461"><tspan
         id="tspan2110">8:4</tspan></text>
    <g
       id="g2120">
      <path
         transform="matrix(-9.508124,-3.09767,3.09767,-9.508124,25.788699,568.49259)"
         class="arrow"
         d="M 0,0 1,1 0,0.25 -1,1 Z"
         id="path2114" />
      <text
         transform="translate(28.576602,563.93528)"
         style="font-size:10px"
         id="text2118"><tspan
           id="tspan2116">3</tspan></text>
    </g>
    <text
       transform="rotate(-161.9548)"
       style="font-size:9px"
       id="text2124"
       x="-200.62057"
       y="-534.34149"><tspan
         id="tspan2122">4:3</tspan></text>
    <text
       transform="rotate(79.909064)"
       style="font-size:9px"
       id="text2128"
       x="364.81635"
       y="-85.846962"><tspan
         id="tspan2126">1:4</tspan></text>
    <text
       transform="rotate(169.4115)"
       style="font-size:9px"
       id="text2132"
       x="30.13199"
       y="-571.06128"><tspan
         id="tspan2130">4:4</tspan></text>
    <g
       id="g2140">
      <path
         transform="matrix(-3.097214,9.508274,-9.508274,-3.097214,129.814,505.95432)"
         class="arrow"
         d="M 0,0 1,1 0,0.25 -1,1 Z"
         id="path2134" />
      <text
         transform="translate(121.25655,507.16683)"
         style="font-size:10px"
         id="text2138"><tspan
           id="tspan2136">4</tspan></text>
    </g>
    <text
       transform="rotate(108.04243)"
       style="font-size:9px"
       id="text2144"
       x="440.86917"
       y="-281.93564"><tspan
         id="tspan2142">9.:4</tspan></text>
    <text
       transform="rotate(-71.952519)"
       style="font-size:9px"
       id="text2148"
       x="-258.0524"
       y="186.92621"><tspan
         id="tspan2146">8:10</tspan></text>
  </g>
</svg>
