<?xml version="1.0" encoding="UTF-8" standalone="no"?>
<svg
   version="1.1"
   width="300.00mm"
   height="600.00mm"
   viewBox="0 0 300.00 600.00"
   id="svg932"
   sodipodi:docname="bottom_page3a_6in.svg"
   inkscape:version="1.1.1 (c3084ef, 2021-09-22)"
   xmlns:inkscape="http://www.inkscape.org/namespaces/inkscape"
   xmlns:sodipodi="http://sodipodi.sourceforge.net/DTD/sodipodi-0.dtd"
   xmlns="http://www.w3.org/2000/svg"
   xmlns:svg="http://www.w3.org/2000/svg">
  <defs
     id="defs936" />
  <sodipodi:namedview
     id="namedview934"
     pagecolor="#ffffff"
     bordercolor="#666666"
     borderopacity="1.0"
     inkscape:pageshadow="2"
     inkscape:pageopacity="0.0"
     inkscape:pagecheckerboard="0"
     inkscape:document-units="mm"
     showgrid="false"
     inkscape:zoom="0.12324748"
     inkscape:cx="-255.58331"
     inkscape:cy="2503.0937"
     inkscape:window-width="1296"
     inkscape:window-height="975"
     inkscape:window-x="0"
     inkscape:window-y="25"
     inkscape:window-maximized="0"
     inkscape:current-layer="svg932" />
  <style
     type="text/css"
     id="style824">
    path {
        fill: none;
        stroke-linecap: butt;
        stroke-linejoin: bevel;
        stroke-dasharray: none;
    }
    path.outer {
        stroke: #000000;
        stroke-dasharray: none;
        stroke-dashoffset: 0;
        stroke-width: 0.3;
        stroke-opacity: 1.0;
    }
    path.convex {
        stroke: #000000;
        stroke-dasharray: 0.50,1.00;
        stroke-dashoffset:0;
        stroke-width:0.2;
        stroke-opacity: 1.0
    }
    path.concave {
        stroke: #000000;
        stroke-dasharray: 1.00,0.50,0.20,0.50;
        stroke-dashoffset: 0;
        stroke-width: 0.2;
        stroke-opacity: 1.0
    }
    path.freestyle {
        stroke: #000000;
        stroke-dasharray: none;
        stroke-dashoffset: 0;
        stroke-width: 0.2;
        stroke-opacity: 1.0
    }
    path.outer_background {
        stroke: #ffffff;
        stroke-opacity: 1.0;
        stroke-width: 0.5
    }
    path.inner_background {
        stroke: #ffffff;
        stroke-opacity: 1.0;
        stroke-width: 0.2
    }
    path.sticker {
        fill: #e5e5e5;
        stroke: none;
        fill-opacity: 1.0;
    }
    path.arrow {
        fill: #000000;
    }
    text {
        font-style: normal;
        fill: #000000;
        fill-opacity: 1.0;
        stroke: none;
    }
    text, tspan {
        text-anchor:middle;
    }
    </style>
  <g
     id="g1122"
     transform="rotate(8.6908455,88.751195,379.12878)">
    <text
       style="font-size:10px"
       id="text828"
       x="99.885429"
       y="308.19147"><tspan
         id="tspan826">[5] I 5</tspan></text>
    <path
       class="sticker"
       d="m 138.96577,396.226 9.91369,-1.32045 4.75633,31.87556 -9.86731,1.63119 z m 8.41813,56.41593 9.91369,-1.32045 4.06345,27.2319 -9.86731,1.63119 z m 4.10983,27.54264 9.91369,-1.32043 4.13139,27.68754 -9.86731,1.63118 z m 4.17777,27.99829 9.91366,-1.32045 9.56306,64.08879 -9.86731,1.63119 z m -93.172479,62.61369 -9.913668,1.32045 -7.644459,-51.23078 9.867325,-1.63118 z m -11.287913,-75.64824 -9.913682,1.32044 -4.063428,-27.23187 9.867318,-1.6312 z m -7.725231,-51.77227 -9.913675,1.32047 -4.756347,-31.87557 9.867311,-1.63118 z m 34.305669,125.13861 1.020834,7.66419 -15.052303,2.24605 -1.261056,-7.62834 z m -22.983327,-49.25961 -9.91369,1.32043 -3.550739,-23.79597 9.867318,-1.63119 z m 88.960261,-90.84274 9.91367,-1.32044 3.56908,23.91888 -9.86733,1.63119 z m -96.667164,39.19338 -9.913683,1.32045 -3.569074,-23.9189 9.867318,-1.63119 z m 118.179594,104.97671 -0.62135,9.98191 -87.175514,-4.05314 0.3075,-9.99651 z m -31.11784,-208.54268 9.91367,-1.32045 4.75636,31.87555 -9.86733,1.63119 z m -7.72522,-51.77229 9.91368,-1.32045 4.06343,27.2319 -9.86733,1.6312 z m -4.1778,-27.99827 9.91367,-1.32042 4.13142,27.68752 -9.86729,1.63117 z m -9.60941,-64.39954 9.91368,-1.32045 9.56304,64.08882 -9.86731,1.63117 z M 22.558113,303.12448 12.64443,304.44493 5,253.21415 l 9.86731,-1.63118 z m 7.70691,51.64935 -9.913683,1.32047 -4.063427,-27.23191 9.86731,-1.6312 z m 8.418143,56.41593 -9.913683,1.32045 -4.756332,-31.87555 9.867311,-1.6312 z M 14.86731,251.58297 l -1.020826,-7.6642 15.052296,-2.24605 1.261071,7.62835 z m 11.287913,75.64822 -9.913683,1.32045 -3.550738,-23.79596 9.867311,-1.6312 z m 104.392407,12.57888 9.91367,-1.32045 3.56908,23.91891 -9.86731,1.63118 z m -96.667168,39.19339 -9.913683,1.32047 -3.569081,-23.9189 9.867325,-1.6312 z m -3.720611,-129.70239 -3.212415,-9.4713 82.194874,-29.32587 3.50833,9.36571 z"
       id="path830" />
    <path
       class="outer"
       d="m 52.585353,572.117 -7.644459,-51.23078 9.867325,-1.63118 -9.91369,1.32043 -3.550739,-23.79597 9.867318,-1.63119 -9.913682,1.32044 -4.063428,-27.23187 9.867318,-1.6312 -9.913683,1.32045 -3.569074,-23.9189 9.867318,-1.63119 -9.913675,1.32047 -4.756347,-31.87557 9.867311,-1.63118 -9.913683,1.32045 -4.756332,-31.87555 9.867311,-1.6312 -9.913683,1.32047 -3.569081,-23.9189 9.867325,-1.6312 -9.913683,1.32047 -4.063427,-27.23191 9.86731,-1.6312 -9.913683,1.32045 -3.550738,-23.79596 9.867311,-1.6312 -9.913683,1.32045 L 5,253.21415 l 9.86731,-1.63118 -1.020826,-7.6642 15.052296,-2.24605 1.261071,7.62835 -3.212415,-9.4713 82.194874,-29.32587 3.50833,9.36571 9.91368,-1.32045 9.56304,64.08882 -9.86731,1.63117 9.91367,-1.32042 4.13142,27.68752 -9.86729,1.63117 9.91368,-1.32045 4.06343,27.2319 -9.86733,1.6312 9.91367,-1.32045 3.56908,23.91891 -9.86731,1.63118 9.91367,-1.32045 4.75636,31.87555 -9.86733,1.63119 9.91369,-1.32045 4.75633,31.87556 -9.86731,1.63119 9.91367,-1.32044 3.56908,23.91888 -9.86733,1.63119 9.91369,-1.32045 4.06345,27.2319 -9.86731,1.63119 9.91369,-1.32043 4.13139,27.68754 -9.86731,1.63118 9.91366,-1.32045 9.56306,64.08879 -9.86731,1.63119 -0.62135,9.98191 -87.175514,-4.05314 0.3075,-9.99651 1.020834,7.66419 -15.052303,2.24605 -1.261056,-7.62834 z"
       id="path832" />
    <g
       id="g840">
      <path
         transform="matrix(1.475819,9.890498,-9.890498,1.475819,160.4762,540.38262)"
         class="arrow"
         d="M 0,0 1,1 0,0.25 -1,1 Z"
         id="path834" />
      <text
         transform="translate(151.57475,545.71086)"
         style="font-size:10px"
         id="text838"><tspan
           id="tspan836">1</tspan></text>
    </g>
    <text
       transform="rotate(81.513176)"
       style="font-size:9px"
       id="text844"
       x="558.14868"
       y="-80.768158"><tspan
         id="tspan842">4:1</tspan></text>
    <g
       id="g852">
      <path
         transform="matrix(-1.475818,-9.890499,9.890499,-1.475818,58.653628,545.02579)"
         class="arrow"
         d="M 0,0 1,1 0,0.25 -1,1 Z"
         id="path846" />
      <text
         transform="translate(67.555075,547.69755)"
         style="font-size:10px"
         id="text850"><tspan
           id="tspan848">2</tspan></text>
    </g>
    <text
       transform="rotate(-98.486824)"
       style="font-size:9px"
       id="text856"
       x="-547.71381"
       y="-24.224585"><tspan
         id="tspan854">12:2</tspan></text>
    <g
       id="g864">
      <path
         transform="matrix(-9.890497,1.475824,-1.475824,-9.890497,70.145284,569.6556)"
         class="arrow"
         d="M 0,0 1,1 0,0.25 -1,1 Z"
         id="path858" />
      <text
         transform="translate(68.817039,564.75415)"
         style="font-size:10px"
         id="text862"><tspan
           id="tspan860">3</tspan></text>
    </g>
    <text
       transform="rotate(171.51318)"
       style="font-size:6.96px"
       id="text868"
       x="14.693714"
       y="-575.16144"><tspan
         id="tspan866">7:3</tspan></text>
    <g
       id="g876">
      <path
         transform="matrix(-9.989209,-0.464439,0.464439,-9.989209,121.53624,570.54852)"
         class="arrow"
         d="M 0,0 1,1 0,0.25 -1,1 Z"
         id="path870" />
      <text
         transform="translate(121.95424,565.55823)"
         style="font-size:10px"
         id="text874"><tspan
           id="tspan872">4</tspan></text>
    </g>
    <text
       transform="rotate(-177.338)"
       style="font-size:9px"
       id="text880"
       x="-147.90361"
       y="-566.0882"><tspan
         id="tspan878">7:4</tspan></text>
    <g
       id="g888">
      <path
         transform="matrix(1.475816,9.890499,-9.890499,1.475816,117.45534,252.06938)"
         class="arrow"
         d="M 0,0 1,1 0,0.25 -1,1 Z"
         id="path882" />
      <text
         transform="translate(108.55389,257.39762)"
         style="font-size:10px"
         id="text886"><tspan
           id="tspan884">5</tspan></text>
    </g>
    <text
       transform="rotate(81.513176)"
       style="font-size:9px"
       id="text892"
       x="266.64343"
       y="-80.768257"><tspan
         id="tspan890">4:5</tspan></text>
    <g
       id="g900">
      <path
         transform="matrix(-1.475818,-9.890499,9.890499,-1.475818,18.712719,277.35373)"
         class="arrow"
         d="M 0,0 1,1 0,0.25 -1,1 Z"
         id="path894" />
      <text
         transform="translate(27.614168,280.02551)"
         style="font-size:10px"
         id="text898"><tspan
           id="tspan896">6.</tspan></text>
    </g>
    <text
       transform="rotate(-98.486824)"
       style="font-size:9px"
       id="text904"
       x="-277.07828"
       y="-24.224577"><tspan
         id="tspan902">12:6.</tspan></text>
    <g
       id="g912">
      <path
         transform="matrix(9.890498,-1.475822,1.475822,9.890498,22.513581,250.44202)"
         class="arrow"
         d="M 0,0 1,1 0,0.25 -1,1 Z"
         id="path906" />
      <text
         transform="translate(23.84182,263.34348)"
         style="font-size:10px"
         id="text910"><tspan
           id="tspan908">7</tspan></text>
    </g>
    <text
       transform="rotate(-8.4868243)"
       style="font-size:6.96px"
       id="text916"
       x="-14.693371"
       y="249.63066"><tspan
         id="tspan914">8:7</tspan></text>
    <g
       id="g924">
      <path
         transform="matrix(9.418487,-3.360373,3.360373,9.418487,71.405237,234.58537)"
         class="arrow"
         d="M 0,0 1,1 0,0.25 -1,1 Z"
         id="path918" />
      <text
         transform="translate(74.429569,247.06202)"
         style="font-size:10px"
         id="text922"><tspan
           id="tspan920">8</tspan></text>
    </g>
    <text
       transform="rotate(-19.635606)"
       style="font-size:9px"
       id="text928"
       x="-11.576267"
       y="243.13873"><tspan
         id="tspan926">8:8</tspan></text>
  </g>
</svg>
