<?xml version="1.0" encoding="UTF-8" standalone="no"?>
<svg
   version="1.1"
   width="300.00mm"
   height="600.00mm"
   viewBox="0 0 300.00 600.00"
   id="svg932"
   sodipodi:docname="bottom_page7.svg"
   inkscape:version="1.1.1 (c3084ef, 2021-09-22)"
   xmlns:inkscape="http://www.inkscape.org/namespaces/inkscape"
   xmlns:sodipodi="http://sodipodi.sourceforge.net/DTD/sodipodi-0.dtd"
   xmlns="http://www.w3.org/2000/svg"
   xmlns:svg="http://www.w3.org/2000/svg">
  <defs
     id="defs936" />
  <sodipodi:namedview
     id="namedview934"
     pagecolor="#ffffff"
     bordercolor="#666666"
     borderopacity="1.0"
     inkscape:pageshadow="2"
     inkscape:pageopacity="0.0"
     inkscape:pagecheckerboard="0"
     inkscape:document-units="mm"
     showgrid="false"
     inkscape:zoom="0.35057292"
     inkscape:cx="503.4616"
     inkscape:cy="882.84059"
     inkscape:window-width="1792"
     inkscape:window-height="975"
     inkscape:window-x="0"
     inkscape:window-y="25"
     inkscape:window-maximized="1"
     inkscape:current-layer="svg932" />
  <style
     type="text/css"
     id="style824">
    path {
        fill: none;
        stroke-linecap: butt;
        stroke-linejoin: bevel;
        stroke-dasharray: none;
    }
    path.outer {
        stroke: #000000;
        stroke-dasharray: none;
        stroke-dashoffset: 0;
        stroke-width: 0.3;
        stroke-opacity: 1.0;
    }
    path.convex {
        stroke: #000000;
        stroke-dasharray: 0.50,1.00;
        stroke-dashoffset:0;
        stroke-width:0.2;
        stroke-opacity: 1.0
    }
    path.concave {
        stroke: #000000;
        stroke-dasharray: 1.00,0.50,0.20,0.50;
        stroke-dashoffset: 0;
        stroke-width: 0.2;
        stroke-opacity: 1.0
    }
    path.freestyle {
        stroke: #000000;
        stroke-dasharray: none;
        stroke-dashoffset: 0;
        stroke-width: 0.2;
        stroke-opacity: 1.0
    }
    path.outer_background {
        stroke: #ffffff;
        stroke-opacity: 1.0;
        stroke-width: 0.5
    }
    path.inner_background {
        stroke: #ffffff;
        stroke-opacity: 1.0;
        stroke-width: 0.2
    }
    path.sticker {
        fill: #e5e5e5;
        stroke: none;
        fill-opacity: 1.0;
    }
    path.arrow {
        fill: #000000;
    }
    text {
        font-style: normal;
        fill: #000000;
        fill-opacity: 1.0;
        stroke: none;
    }
    text, tspan {
        text-anchor:middle;
    }
    </style>
  <g
     id="g1122"
     transform="rotate(8.6908455,88.751195,379.12878)">
    <text
       style="font-size:10px"
       id="text828"
       x="99.885429"
       y="308.19147"><tspan
         id="tspan826">[5] I 5</tspan></text>
    <path
       class="sticker"
       d="m 138.96577,396.226 9.91369,-1.32045 4.75633,31.87556 -9.86731,1.63119 z m 8.41813,56.41593 9.91369,-1.32045 4.06345,27.2319 -9.86731,1.63119 z m 4.10983,27.54264 9.91369,-1.32043 4.13139,27.68754 -9.86731,1.63118 z m 4.17777,27.99829 9.91366,-1.32045 9.56306,64.08879 -9.86731,1.63119 z m -93.172479,62.61369 -9.913668,1.32045 -7.644459,-51.23078 9.867325,-1.63118 z m -11.287913,-75.64824 -9.913682,1.32044 -4.063428,-27.23187 9.867318,-1.6312 z m -7.725231,-51.77227 -9.913675,1.32047 -4.756347,-31.87557 9.867311,-1.63118 z m 34.305669,125.13861 1.020834,7.66419 -15.052303,2.24605 -1.261056,-7.62834 z m -22.983327,-49.25961 -9.91369,1.32043 -3.550739,-23.79597 9.867318,-1.63119 z m 88.960261,-90.84274 9.91367,-1.32044 3.56908,23.91888 -9.86733,1.63119 z m -96.667164,39.19338 -9.913683,1.32045 -3.569074,-23.9189 9.867318,-1.63119 z m 118.179594,104.97671 -0.62135,9.98191 -87.175514,-4.05314 0.3075,-9.99651 z m -31.11784,-208.54268 9.91367,-1.32045 4.75636,31.87555 -9.86733,1.63119 z m -7.72522,-51.77229 9.91368,-1.32045 4.06343,27.2319 -9.86733,1.6312 z m -4.1778,-27.99827 9.91367,-1.32042 4.13142,27.68752 -9.86729,1.63117 z m -9.60941,-64.39954 9.91368,-1.32045 9.56304,64.08882 -9.86731,1.63117 z M 22.558113,303.12448 12.64443,304.44493 5,253.21415 l 9.86731,-1.63118 z m 7.70691,51.64935 -9.913683,1.32047 -4.063427,-27.23191 9.86731,-1.6312 z m 8.418143,56.41593 -9.913683,1.32045 -4.756332,-31.87555 9.867311,-1.6312 z M 14.86731,251.58297 l -1.020826,-7.6642 15.052296,-2.24605 1.261071,7.62835 z m 11.287913,75.64822 -9.913683,1.32045 -3.550738,-23.79596 9.867311,-1.6312 z m 104.392407,12.57888 9.91367,-1.32045 3.56908,23.91891 -9.86731,1.63118 z m -96.667168,39.19339 -9.913683,1.32047 -3.569081,-23.9189 9.867325,-1.6312 z m -3.720611,-129.70239 -3.212415,-9.4713 82.194874,-29.32587 3.50833,9.36571 z"
       id="path830" />
    <path
       class="outer"
       d="m 52.585353,572.117 -7.644459,-51.23078 9.867325,-1.63118 -9.91369,1.32043 -3.550739,-23.79597 9.867318,-1.63119 -9.913682,1.32044 -4.063428,-27.23187 9.867318,-1.6312 -9.913683,1.32045 -3.569074,-23.9189 9.867318,-1.63119 -9.913675,1.32047 -4.756347,-31.87557 9.867311,-1.63118 -9.913683,1.32045 -4.756332,-31.87555 9.867311,-1.6312 -9.913683,1.32047 -3.569081,-23.9189 9.867325,-1.6312 -9.913683,1.32047 -4.063427,-27.23191 9.86731,-1.6312 -9.913683,1.32045 -3.550738,-23.79596 9.867311,-1.6312 -9.913683,1.32045 L 5,253.21415 l 9.86731,-1.63118 -1.020826,-7.6642 15.052296,-2.24605 1.261071,7.62835 -3.212415,-9.4713 82.194874,-29.32587 3.50833,9.36571 9.91368,-1.32045 9.56304,64.08882 -9.86731,1.63117 9.91367,-1.32042 4.13142,27.68752 -9.86729,1.63117 9.91368,-1.32045 4.06343,27.2319 -9.86733,1.6312 9.91367,-1.32045 3.56908,23.91891 -9.86731,1.63118 9.91367,-1.32045 4.75636,31.87555 -9.86733,1.63119 9.91369,-1.32045 4.75633,31.87556 -9.86731,1.63119 9.91367,-1.32044 3.56908,23.91888 -9.86733,1.63119 9.91369,-1.32045 4.06345,27.2319 -9.86731,1.63119 9.91369,-1.32043 4.13139,27.68754 -9.86731,1.63118 9.91366,-1.32045 9.56306,64.08879 -9.86731,1.63119 -0.62135,9.98191 -87.175514,-4.05314 0.3075,-9.99651 1.020834,7.66419 -15.052303,2.24605 -1.261056,-7.62834 z"
       id="path832" />
    <g
       id="g840">
      <path
         transform="matrix(1.475819,9.890498,-9.890498,1.475819,160.4762,540.38262)"
         class="arrow"
         d="M 0,0 1,1 0,0.25 -1,1 Z"
         id="path834" />
      <text
         transform="translate(151.57475,545.71086)"
         style="font-size:10px"
         id="text838"><tspan
           id="tspan836">1</tspan></text>
    </g>
    <text
       transform="rotate(81.513176)"
       style="font-size:9px"
       id="text844"
       x="558.14868"
       y="-80.768158"><tspan
         id="tspan842">4:1</tspan></text>
    <g
       id="g852">
      <path
         transform="matrix(-1.475818,-9.890499,9.890499,-1.475818,58.653628,545.02579)"
         class="arrow"
         d="M 0,0 1,1 0,0.25 -1,1 Z"
         id="path846" />
      <text
         transform="translate(67.555075,547.69755)"
         style="font-size:10px"
         id="text850"><tspan
           id="tspan848">2</tspan></text>
    </g>
    <text
       transform="rotate(-98.486824)"
       style="font-size:9px"
       id="text856"
       x="-547.71381"
       y="-24.224585"><tspan
         id="tspan854">12:2</tspan></text>
    <g
       id="g864">
      <path
         transform="matrix(-9.890497,1.475824,-1.475824,-9.890497,70.145284,569.6556)"
         class="arrow"
         d="M 0,0 1,1 0,0.25 -1,1 Z"
         id="path858" />
      <text
         transform="translate(68.817039,564.75415)"
         style="font-size:10px"
         id="text862"><tspan
           id="tspan860">3</tspan></text>
    </g>
    <text
       transform="rotate(171.51318)"
       style="font-size:6.96px"
       id="text868"
       x="14.693714"
       y="-575.16144"><tspan
         id="tspan866">7:3</tspan></text>
    <g
       id="g876">
      <path
         transform="matrix(-9.989209,-0.464439,0.464439,-9.989209,121.53624,570.54852)"
         class="arrow"
         d="M 0,0 1,1 0,0.25 -1,1 Z"
         id="path870" />
      <text
         transform="translate(121.95424,565.55823)"
         style="font-size:10px"
         id="text874"><tspan
           id="tspan872">4</tspan></text>
    </g>
    <text
       transform="rotate(-177.338)"
       style="font-size:9px"
       id="text880"
       x="-147.90361"
       y="-566.0882"><tspan
         id="tspan878">7:4</tspan></text>
    <g
       id="g888">
      <path
         transform="matrix(1.475816,9.890499,-9.890499,1.475816,117.45534,252.06938)"
         class="arrow"
         d="M 0,0 1,1 0,0.25 -1,1 Z"
         id="path882" />
      <text
         transform="translate(108.55389,257.39762)"
         style="font-size:10px"
         id="text886"><tspan
           id="tspan884">5</tspan></text>
    </g>
    <text
       transform="rotate(81.513176)"
       style="font-size:9px"
       id="text892"
       x="266.64343"
       y="-80.768257"><tspan
         id="tspan890">4:5</tspan></text>
    <g
       id="g900">
      <path
         transform="matrix(-1.475818,-9.890499,9.890499,-1.475818,18.712719,277.35373)"
         class="arrow"
         d="M 0,0 1,1 0,0.25 -1,1 Z"
         id="path894" />
      <text
         transform="translate(27.614168,280.02551)"
         style="font-size:10px"
         id="text898"><tspan
           id="tspan896">6.</tspan></text>
    </g>
    <text
       transform="rotate(-98.486824)"
       style="font-size:9px"
       id="text904"
       x="-277.07828"
       y="-24.224577"><tspan
         id="tspan902">12:6.</tspan></text>
    <g
       id="g912">
      <path
         transform="matrix(9.890498,-1.475822,1.475822,9.890498,22.513581,250.44202)"
         class="arrow"
         d="M 0,0 1,1 0,0.25 -1,1 Z"
         id="path906" />
      <text
         transform="translate(23.84182,263.34348)"
         style="font-size:10px"
         id="text910"><tspan
           id="tspan908">7</tspan></text>
    </g>
    <text
       transform="rotate(-8.4868243)"
       style="font-size:6.96px"
       id="text916"
       x="-14.693371"
       y="249.63066"><tspan
         id="tspan914">8:7</tspan></text>
    <g
       id="g924">
      <path
         transform="matrix(9.418487,-3.360373,3.360373,9.418487,71.405237,234.58537)"
         class="arrow"
         d="M 0,0 1,1 0,0.25 -1,1 Z"
         id="path918" />
      <text
         transform="translate(74.429569,247.06202)"
         style="font-size:10px"
         id="text922"><tspan
           id="tspan920">8</tspan></text>
    </g>
    <text
       transform="rotate(-19.635606)"
       style="font-size:9px"
       id="text928"
       x="-11.576267"
       y="243.13873"><tspan
         id="tspan926">8:8</tspan></text>
  </g>
  <g
     id="g2304"
     transform="translate(153.11367,-3.7276726)">
    <text
       style="font-size:10px"
       id="text1645"
       x="72.000046"
       y="391.33109"><tspan
         id="tspan1643">[6.] I 6</tspan></text>
    <path
       class="sticker"
       d="m 126.99996,288.67742 10.00001,0.15709 3e-5,74.28749 -10.00001,0.1571 z m -109.999951,74.60171 -9.999998,-0.15709 -7e-6,-74.28747 9.999998,-0.15712 z m -7e-6,-74.60168 0.07856,-5 9.84291,3e-5 0.07853,5 z m 9.999998,3e-5 0.139065,-8.8526 h 17.427064 l 0.139065,8.8526 z m 100.00002,108.61857 9.99999,0.15707 3e-5,32.22847 -10,0.15709 z m -109.999966,32.54268 -9.999998,-0.15709 -7e-6,-32.22844 9.999998,-0.1571 z m -7e-6,-32.54263 -9.999998,-0.15709 -3.8e-5,-33.70279 9.999998,-0.15709 z M 126.99999,363.2791 137,363.43619 l 1e-5,33.70276 -9.99999,0.1571 z m -82.294796,-74.60162 0.157081,-9.99999 81.980585,-6e-5 0.1571,9.99999 z m 82.294876,207.72077 10,0.15709 2e-5,74.28752 -9.99999,0.15709 z m -109.999949,74.60172 -9.999998,-0.15705 -4.5e-5,-74.28754 9.999998,-0.15708 z m 9.999998,-2e-5 -0.07853,4.99999 -9.84291,3e-5 -0.07856,-5 z m 17.705202,0 -0.139065,8.8526 H 27.139184 l -0.139065,-8.8526 z m 82.294719,-141.16127 10,0.15709 2e-5,32.22846 -10.00001,0.15708 z m -109.999971,32.54266 -9.999998,-0.15708 -1.5e-5,-32.22845 9.999998,-0.15708 z m 7e-6,34.01696 -9.999998,-0.15709 -7e-6,-33.70278 9.999998,-0.15709 z m 109.999974,-34.01699 10.00001,0.15709 1e-5,33.70276 -10,0.15709 z m 5e-5,108.61864 -0.1571,9.99999 H 44.862409 l -0.157088,-9.99999 z"
       id="path1647" />
    <path
       class="outer"
       d="m 137.00001,397.45312 3e-5,32.22847 -10,0.15709 10,0.15709 2e-5,32.22846 -10.00001,0.15708 10.00001,0.15709 1e-5,33.70276 -10,0.15709 10,0.15709 2e-5,74.28752 -9.99999,0.15709 -0.1571,9.99999 H 44.862409 l -0.157088,-9.99999 -0.139065,8.8526 H 27.139184 l -0.139065,-8.8526 -0.07853,4.99999 -9.84291,3e-5 -0.07856,-5 -9.999998,-0.15705 -4.5e-5,-74.28754 9.999998,-0.15708 -9.999998,-0.15709 -7e-6,-33.70278 9.999998,-0.15709 -9.999998,-0.15708 -1.5e-5,-32.22845 9.999998,-0.15708 -9.999998,-0.15709 -7e-6,-32.22844 9.999998,-0.1571 -9.999998,-0.15709 -3.8e-5,-33.70279 9.999998,-0.15709 -9.999998,-0.15709 -7e-6,-74.28747 L 17,288.67745 l 0.07856,-5 9.84291,3e-5 0.07853,5 0.139065,-8.8526 h 17.427064 l 0.139065,8.8526 0.157081,-9.99999 81.980585,-6e-5 0.1571,9.99999 10.00001,0.15709 3e-5,74.28749 -10.00001,0.1571 10.00001,0.15709 1e-5,33.70276 -9.99999,0.1571 z"
       id="path1649" />
    <g
       id="g1657">
      <path
         transform="matrix(4e-6,10,-10,4e-6,126.99998,325.97827)"
         class="arrow"
         d="M 0,0 1,1 0,0.25 -1,1 Z"
         id="path1651" />
      <text
         transform="translate(117.99998,329.97828)"
         style="font-size:10px"
         id="text1655"><tspan
           id="tspan1653">1</tspan></text>
    </g>
    <text
       transform="rotate(90)"
       style="font-size:9px"
       id="text1661"
       x="325.97827"
       y="-128.79999"><tspan
         id="tspan1659">1:1</tspan></text>
    <g
       id="g1669">
      <path
         transform="matrix(-1e-6,-10,10,-1e-6,17.000002,325.9783)"
         class="arrow"
         d="M 0,0 1,1 0,0.25 -1,1 Z"
         id="path1663" />
      <text
         transform="translate(26.000001,329.97831)"
         style="font-size:10px"
         id="text1667"><tspan
           id="tspan1665">2</tspan></text>
    </g>
    <text
       transform="rotate(-90)"
       style="font-size:9px"
       id="text1673"
       x="-325.9783"
       y="15.2"><tspan
         id="tspan1671">3:2</tspan></text>
    <g
       id="g1681">
      <path
         transform="matrix(10,2.6e-5,-2.6e-5,10,21.999997,288.67748)"
         class="arrow"
         d="M 0,0 1,1 0,0.25 -1,1 Z"
         id="path1675" />
      <text
         transform="translate(21.999973,301.67749)"
         style="font-size:10px"
         id="text1679"><tspan
           id="tspan1677">3</tspan></text>
    </g>
    <g
       id="g1693">
      <path
         transform="matrix(-4e-6,-10,10,-4e-6,17.000054,413.56742)"
         class="arrow"
         d="M 0,0 1,1 0,0.25 -1,1 Z"
         id="path1687" />
      <text
         transform="translate(26.000054,417.56741)"
         style="font-size:10px"
         id="text1691"><tspan
           id="tspan1689">4</tspan></text>
    </g>
    <text
       transform="rotate(-90)"
       style="font-size:9px"
       id="text1697"
       x="-413.56741"
       y="15.20006"><tspan
         id="tspan1695">3:4</tspan></text>
    <g
       id="g1705">
      <path
         transform="matrix(10,-8e-6,8e-6,10,85.852583,288.67745)"
         class="arrow"
         d="M 0,0 1,1 0,0.25 -1,1 Z"
         id="path1699" />
      <text
         transform="translate(85.85259,301.67746)"
         style="font-size:10px"
         id="text1703"><tspan
           id="tspan1701">5</tspan></text>
    </g>
    <text
       style="font-size:9px"
       id="text1709"
       x="85.852585"
       y="286.87744"><tspan
         id="tspan1707">10:5</tspan></text>
    <g
       id="g1717">
      <path
         transform="matrix(4e-6,10,-10,4e-6,127.00008,533.69909)"
         class="arrow"
         d="M 0,0 1,1 0,0.25 -1,1 Z"
         id="path1711" />
      <text
         transform="translate(118.00008,537.6991)"
         style="font-size:10px"
         id="text1715"><tspan
           id="tspan1713">6.</tspan></text>
    </g>
    <text
       transform="rotate(90)"
       style="font-size:9px"
       id="text1721"
       x="533.6991"
       y="-128.80009"><tspan
         id="tspan1719">1:6.</tspan></text>
    <g
       id="g1729">
      <path
         transform="matrix(-6e-6,-10,10,-6e-6,17.000099,533.69913)"
         class="arrow"
         d="M 0,0 1,1 0,0.25 -1,1 Z"
         id="path1723" />
      <text
         transform="translate(26.000098,537.69913)"
         style="font-size:10px"
         id="text1727"><tspan
           id="tspan1725">7</tspan></text>
    </g>
    <text
       transform="rotate(-90)"
       style="font-size:9px"
       id="text1733"
       x="-533.69885"
       y="15.19982"><tspan
         id="tspan1731">2:7</tspan></text>
    <g
       id="g1741">
      <path
         transform="matrix(-10,3.4e-5,-3.4e-5,-10,22.000124,570.99997)"
         class="arrow"
         d="M 0,0 1,1 0,0.25 -1,1 Z"
         id="path1735" />
      <text
         transform="translate(22.000094,565.99998)"
         style="font-size:10px"
         id="text1739"><tspan
           id="tspan1737">8</tspan></text>
    </g>
    <text
       transform="rotate(179.99983)"
       style="font-size:4.5px"
       id="text1745"
       x="-21.998417"
       y="-571.90002"><tspan
         id="tspan1743">11:8</tspan></text>
    <g
       id="g1753">
      <path
         transform="matrix(-4e-6,-10,10,-4e-6,17.000061,446.11003)"
         class="arrow"
         d="M 0,0 1,1 0,0.25 -1,1 Z"
         id="path1747" />
      <text
         transform="translate(26.000061,450.11003)"
         style="font-size:10px"
         id="text1751"><tspan
           id="tspan1749">9.</tspan></text>
    </g>
    <text
       transform="rotate(-90)"
       style="font-size:9px"
       id="text1757"
       x="-446.11005"
       y="15.20006"><tspan
         id="tspan1755">2:9.</tspan></text>
    <g
       id="g1765">
      <path
         transform="matrix(-10,0,0,-10,85.85271,570.99997)"
         class="arrow"
         d="M 0,0 1,1 0,0.25 -1,1 Z"
         id="path1759" />
      <text
         transform="translate(85.85271,565.99998)"
         style="font-size:10px"
         id="text1763"><tspan
           id="tspan1761">10</tspan></text>
    </g>
    <text
       transform="scale(-1)"
       style="font-size:9px"
       id="text1769"
       x="-85.852707"
       y="-572.79999"><tspan
         id="tspan1767">11:10</tspan></text>
  </g>
  <g
     id="g2817"
     transform="rotate(-59.589532,-143.21448,228.82241)">
    <text
       style="font-size:10px"
       id="text2080"
       x="111.96451"
       y="414.55173"><tspan
         id="tspan2078">[13] I 13</tspan></text>
    <path
       class="sticker"
       d="m 159.2999,415.43431 9.45961,3.24659 -12.42679,38.14952 -9.55693,-2.94785 z M 22.380841,540.49 l -9.459324,-3.24741 65.000258,-199.4876 9.556659,2.94867 z m 89.130689,-273.54455 3.0998,-9.51332 22.04977,6.37773 -2.62761,9.64987 z M 14.459339,564.8016 5,561.55422 12.824175,537.54135 22.380841,540.49 Z m 22.658721,7.38203 -3.247038,9.45944 -16.14318,-5.2593 -3.268503,-11.58217 z m 96.91543,-298.7239 9.87282,-1.59744 25.21138,141.66525 -9.81779,1.90677 z m -21.18128,284.56634 1.68312,9.85861 -75.425298,14.0998 -1.991972,-9.80085 z m 33.92358,-104.1435 9.45963,3.24659 -33.82629,103.84478 -9.55692,-2.94787 z m -59.297356,-113.17891 -9.459324,-3.24741 23.93576,-73.45951 9.55666,2.94871 z"
       id="path2082" />
    <path
       class="outer"
       d="m 114.61133,257.43213 22.04977,6.37773 -2.62761,9.64987 9.87282,-1.59744 25.21138,141.66525 -9.81779,1.90677 9.45961,3.24659 -12.42679,38.14952 -9.55693,-2.94785 9.45963,3.24659 -33.82629,103.84478 -9.55692,-2.94787 1.68312,9.85861 -75.425298,14.0998 -1.991972,-9.80085 -3.247038,9.45944 -16.14318,-5.2593 L 14.459339,564.8016 5,561.55422 l 7.824175,-24.01287 9.556666,2.94865 -9.459324,-3.24741 65.000258,-199.4876 9.556659,2.94867 -9.459324,-3.24741 23.93576,-73.45951 9.55666,2.94871 z"
       id="path2084" />
    <g
       id="g2092">
      <path
         transform="matrix(-3.097218,9.508272,-9.508272,-3.097218,153.03785,434.65843)"
         class="arrow"
         d="M 0,0 1,1 0,0.25 -1,1 Z"
         id="path2086" />
      <text
         transform="translate(144.48041,435.87093)"
         style="font-size:10px"
         id="text2090"><tspan
           id="tspan2088">1</tspan></text>
    </g>
    <text
       transform="rotate(108.04248)"
       style="font-size:9px"
       id="text2096"
       x="365.88583"
       y="-281.93588"><tspan
         id="tspan2094">9.:1</tspan></text>
    <g
       id="g2104">
      <path
         transform="matrix(9.606237,2.778525,-2.778525,9.606237,122.7725,270.2026)"
         class="arrow"
         d="M 0,0 1,1 0,0.25 -1,1 Z"
         id="path2098" />
      <text
         transform="translate(120.27183,282.84823)"
         style="font-size:10px"
         id="text2102"><tspan
           id="tspan2100">2</tspan></text>
    </g>
    <text
       transform="rotate(16.1321)"
       style="font-size:9px"
       id="text2108"
       x="193.0144"
       y="223.65051"><tspan
         id="tspan2106">1:2</tspan></text>
    <text
       transform="rotate(-71.9527)"
       style="font-size:9px"
       id="text2112"
       x="-519.74969"
       y="186.92461"><tspan
         id="tspan2110">8:4</tspan></text>
    <g
       id="g2120">
      <path
         transform="matrix(-9.508124,-3.09767,3.09767,-9.508124,25.788699,568.49259)"
         class="arrow"
         d="M 0,0 1,1 0,0.25 -1,1 Z"
         id="path2114" />
      <text
         transform="translate(28.576602,563.93528)"
         style="font-size:10px"
         id="text2118"><tspan
           id="tspan2116">3</tspan></text>
    </g>
    <text
       transform="rotate(-161.9548)"
       style="font-size:9px"
       id="text2124"
       x="-200.62057"
       y="-534.34149"><tspan
         id="tspan2122">4:3</tspan></text>
    <text
       transform="rotate(79.909064)"
       style="font-size:9px"
       id="text2128"
       x="364.81635"
       y="-85.846962"><tspan
         id="tspan2126">1:4</tspan></text>
    <text
       transform="rotate(169.4115)"
       style="font-size:9px"
       id="text2132"
       x="30.13199"
       y="-571.06128"><tspan
         id="tspan2130">4:4</tspan></text>
    <g
       id="g2140">
      <path
         transform="matrix(-3.097214,9.508274,-9.508274,-3.097214,129.814,505.95432)"
         class="arrow"
         d="M 0,0 1,1 0,0.25 -1,1 Z"
         id="path2134" />
      <text
         transform="translate(121.25655,507.16683)"
         style="font-size:10px"
         id="text2138"><tspan
           id="tspan2136">4</tspan></text>
    </g>
    <text
       transform="rotate(108.04243)"
       style="font-size:9px"
       id="text2144"
       x="440.86917"
       y="-281.93564"><tspan
         id="tspan2142">9.:4</tspan></text>
    <text
       transform="rotate(-71.952519)"
       style="font-size:9px"
       id="text2148"
       x="-258.0524"
       y="186.92621"><tspan
         id="tspan2146">8:10</tspan></text>
  </g>
</svg>
