<?xml version="1.0" encoding="UTF-8" standalone="no"?>
<svg
   version="1.1"
   width="300.00mm"
   height="600.00mm"
   viewBox="0 0 300.00 600.00"
   id="svg2630"
   sodipodi:docname="bottom_page3.svg"
   inkscape:version="1.1.1 (c3084ef, 2021-09-22)"
   xmlns:inkscape="http://www.inkscape.org/namespaces/inkscape"
   xmlns:sodipodi="http://sodipodi.sourceforge.net/DTD/sodipodi-0.dtd"
   xmlns="http://www.w3.org/2000/svg"
   xmlns:svg="http://www.w3.org/2000/svg">
  <defs
     id="defs2634" />
  <sodipodi:namedview
     id="namedview2632"
     pagecolor="#ffffff"
     bordercolor="#666666"
     borderopacity="1.0"
     inkscape:pageshadow="2"
     inkscape:pageopacity="0.0"
     inkscape:pagecheckerboard="0"
     inkscape:document-units="mm"
     showgrid="false"
     inkscape:zoom="0.35057292"
     inkscape:cx="566.21601"
     inkscape:cy="1133.8583"
     inkscape:window-width="1296"
     inkscape:window-height="975"
     inkscape:window-x="496"
     inkscape:window-y="25"
     inkscape:window-maximized="0"
     inkscape:current-layer="svg2630" />
  <style
     type="text/css"
     id="style2476">
    path {
        fill: none;
        stroke-linecap: butt;
        stroke-linejoin: bevel;
        stroke-dasharray: none;
    }
    path.outer {
        stroke: #000000;
        stroke-dasharray: none;
        stroke-dashoffset: 0;
        stroke-width: 0.3;
        stroke-opacity: 1.0;
    }
    path.convex {
        stroke: #000000;
        stroke-dasharray: 0.50,1.00;
        stroke-dashoffset:0;
        stroke-width:0.2;
        stroke-opacity: 1.0
    }
    path.concave {
        stroke: #000000;
        stroke-dasharray: 1.00,0.50,0.20,0.50;
        stroke-dashoffset: 0;
        stroke-width: 0.2;
        stroke-opacity: 1.0
    }
    path.freestyle {
        stroke: #000000;
        stroke-dasharray: none;
        stroke-dashoffset: 0;
        stroke-width: 0.2;
        stroke-opacity: 1.0
    }
    path.outer_background {
        stroke: #ffffff;
        stroke-opacity: 1.0;
        stroke-width: 0.5
    }
    path.inner_background {
        stroke: #ffffff;
        stroke-opacity: 1.0;
        stroke-width: 0.2
    }
    path.sticker {
        fill: #e5e5e5;
        stroke: none;
        fill-opacity: 1.0;
    }
    path.arrow {
        fill: #000000;
    }
    text {
        font-style: normal;
        fill: #000000;
        fill-opacity: 1.0;
        stroke: none;
    }
    text, tspan {
        text-anchor:middle;
    }
    </style>
  <g
     id="g2628"
     transform="rotate(-15.861058,85.386669,461.3402)">
    <text
       transform="translate(126.74766,253.65574)"
       style="font-size:10px"
       id="text2480"><tspan
         id="tspan2478">[7] I 7</tspan></text>
    <path
       class="sticker"
       d="m 106.1415,205.85197 -9.580384,-2.87074 6.333014,-22.40908 9.66582,2.56836 z m 17.72038,340.19383 9.37999,3.46993 -8.37001,23.76679 -9.48436,-3.17359 z m -11.30193,-362.90529 -9.58038,-2.87074 20.41609,-72.24208 9.66583,2.56837 z m 126.35495,-42.63031 9.58041,2.87062 -20.41503,72.24202 -9.66586,-2.56825 z m -50.55681,178.84087 9.58042,2.87059 -57.05631,201.9033 -9.66588,-2.56825 z m 23.63823,-83.58502 4.44689,1.34134 -2.47988,8.71414 -4.50937,-1.12176 z m -98.75736,-18.25595 -1.43542,4.79048 -9.47246,-2.6769 1.28423,-4.83322 z m -83.779393,353.3251 -2.219234,7.40655 -14.64541,-4.13867 1.985493,-7.4726 z M 14.580416,566.63048 5,563.75988 l 12.592658,-44.56124 9.665856,2.56824 z m 116.635904,-45.07377 9.53226,3.0267 -7.26409,24.18819 -9.62261,-2.7258 z m -103.957806,0.21017 -9.580414,-2.87059 6.867075,-24.30031 9.665854,2.56826 z M 159.7215,118.13074 l 2.87059,-9.58044 78.89107,22.29405 -2.56826,9.66585 z m -26.66001,-7.53468 1.43538,-4.79019 9.47197,2.6769 -1.28424,4.83293 z m -29.44618,104.1944 -4.449404,-1.3333 2.486494,-8.79806 4.4891,1.19287 z m 114.79911,-1.73587 9.58043,2.87056 -6.33267,22.40914 -9.66586,-2.56824 z m -184.203391,284.10965 -9.580416,-2.87061 57.633584,-203.94618 9.665862,2.56825 z m 81.176471,72.94469 -0.0726,10.00098 -85.613769,0.72361 -0.241604,-9.99832 z m 27.2971,-456.79323 2.54136,-8.48061 16.76925,4.7394 -2.27371,8.55625 z m 66.76936,131.38407 9.58042,2.87062 -21.01043,74.34893 -9.66586,-2.56825 z m -117.523901,48.21593 -9.580419,-2.87056 21.22346,-75.10323 9.66586,2.56819 z"
       id="path2482" />
    <path
       class="convex"
       d="M 218.41442,213.05459 238.9149,140.5102 m 0,0 -79.1934,-22.37946 m 52.27482,117.63531 6.4181,-22.71146 m -8.96046,31.64518 2.54236,-8.93372 m -23.63823,83.58502 21.09587,-74.6513 m -78.23764,276.85694 57.14177,-202.20564 m -64.49621,226.69473 7.35444,-24.48909 M 29.459567,570.8352 115.3875,570.10893 m 0,0 8.47438,-24.06313 M 159.7215,118.13074 142.6846,113.3157 M 14.580416,566.63048 29.459567,570.8352 M 142.6846,113.3157 l -9.62311,-2.71964 m 0,0 -20.50154,72.54445 m 0,0 -6.41845,22.71146 m 0,0 -2.52619,8.93849"
       id="path2484" />
    <path
       class="outer"
       d="m 219.03438,247.57039 -21.01043,74.34893 -9.66586,-2.56825 9.58042,2.87059 -57.05631,201.9033 -9.66588,-2.56825 9.53226,3.0267 -7.26409,24.18819 -9.62261,-2.7258 9.37999,3.46993 -8.37001,23.76679 -9.48436,-3.17359 -0.0726,10.00098 -85.613769,0.72361 -0.241604,-9.99832 -2.219234,7.40655 -14.64541,-4.13867 1.985493,-7.4726 L 5,563.75988 l 12.592658,-44.56124 9.665856,2.56824 -9.580414,-2.87059 6.867075,-24.30031 9.665854,2.56826 -9.580416,-2.87061 57.633584,-203.94618 9.665862,2.56825 -9.580419,-2.87056 21.22346,-75.10323 9.66586,2.56819 -1.43542,4.79048 -9.47246,-2.6769 1.28423,-4.83322 -4.449404,-1.3333 2.486494,-8.79806 4.4891,1.19287 -9.580384,-2.87074 6.333014,-22.40908 9.66582,2.56836 -9.58038,-2.87074 20.41609,-72.24208 9.66583,2.56837 1.43538,-4.79019 9.47197,2.6769 -1.28424,4.83293 2.54136,-8.48061 16.76925,4.7394 -2.27371,8.55625 2.87059,-9.58044 78.89107,22.29405 -2.56826,9.66585 9.58041,2.87062 -20.41503,72.24202 -9.66586,-2.56825 9.58043,2.87056 -6.33267,22.40914 -9.66586,-2.56824 4.44689,1.34134 -2.47988,8.71414 -4.50937,-1.12176 z"
       id="path2486" />
    <g
       id="g2494">
      <path
         transform="matrix(-3.321754,9.432176,-9.432176,-3.321754,119.62469,558.07737)"
         class="arrow"
         d="M 0,0 1,1 0,0.25 -1,1 Z"
         id="path2488" />
      <text
         transform="translate(111.13573,559.08779)"
         style="font-size:10px"
         id="text2492"><tspan
           id="tspan2490">1</tspan></text>
    </g>
    <text
       transform="rotate(109.40084,-137.11778,322.28748)"
       style="font-size:9px"
       id="text2498"><tspan
         id="tspan2496">5:1</tspan></text>
    <g
       id="g2506">
      <path
         transform="matrix(2.719551,-9.623099,9.623099,2.719551,122.81071,146.86828)"
         class="arrow"
         d="M 0,0 1,1 0,0.25 -1,1 Z"
         id="path2500" />
      <text
         transform="translate(131.4715,153.3159)"
         style="font-size:10px"
         id="text2504"><tspan
           id="tspan2502">2</tspan></text>
    </g>
    <text
       transform="rotate(-74.219367,157.27903,-6.8297633)"
       style="font-size:9px"
       id="text2510"><tspan
         id="tspan2508">2:2</tspan></text>
    <g
       id="g2518">
      <path
         transform="matrix(-2.719424,9.623136,-9.623136,-2.719424,228.66466,176.78236)"
         class="arrow"
         d="M 0,0 1,1 0,0.25 -1,1 Z"
         id="path2512" />
      <text
         transform="translate(220.00383,178.33489)"
         style="font-size:10px"
         id="text2516"><tspan
           id="tspan2514">3</tspan></text>
    </g>
    <text
       transform="rotate(105.77985,48.139065,175.79161)"
       style="font-size:9px"
       id="text2522"><tspan
         id="tspan2520">1:3</tspan></text>
    <g
       id="g2530">
      <path
         transform="matrix(-2.737145,9.61811,-9.61811,-2.737145,210.72512,240.23288)"
         class="arrow"
         d="M 0,0 1,1 0,0.25 -1,1 Z"
         id="path2524" />
      <text
         transform="translate(202.06882,241.76946)"
         style="font-size:10px"
         id="text2528"><tspan
           id="tspan2526">4</tspan></text>
    </g>
    <text
       transform="rotate(105.88539,14.975481,200.09616)"
       style="font-size:4.18px"
       id="text2534"><tspan
         id="tspan2532">1:4</tspan></text>
    <text
       transform="matrix(-0.962312,-0.27195,0.27195,-0.962312,108.18236,217.01645)"
       style="font-size:4.5px"
       id="text2538"><tspan
         id="tspan2536">16:2</tspan></text>
    <g
       id="g2546">
      <path
         transform="matrix(-9.623137,-2.71942,2.71942,-9.623137,22.019991,568.73284)"
         class="arrow"
         d="M 0,0 1,1 0,0.25 -1,1 Z"
         id="path2540" />
      <text
         transform="translate(24.467469,564.07202)"
         style="font-size:10px"
         id="text2544"><tspan
           id="tspan2542">5</tspan></text>
    </g>
    <text
       transform="rotate(-164.22015,50.321718,283.53636)"
       style="font-size:6.96px"
       id="text2550"><tspan
         id="tspan2548">4:5</tspan></text>
    <g
       id="g2558">
      <path
         transform="matrix(2.719422,-9.623136,9.623136,2.719422,20.919465,544.19868)"
         class="arrow"
         d="M 0,0 1,1 0,0.25 -1,1 Z"
         id="path2552" />
      <text
         transform="translate(29.580287,550.64616)"
         style="font-size:10px"
         id="text2556"><tspan
           id="tspan2554">6.</tspan></text>
    </g>
    <text
       transform="rotate(-74.220146,368.91853,259.17402)"
       style="font-size:9px"
       id="text2562"><tspan
         id="tspan2560">16:6.</tspan></text>
    <g
       id="g2570">
      <path
         transform="matrix(-2.876253,9.577431,-9.577431,-2.876253,127.5391,533.80125)"
         class="arrow"
         d="M 0,0 1,1 0,0.25 -1,1 Z"
         id="path2564" />
      <text
         transform="translate(118.91941,535.21262)"
         style="font-size:10px"
         id="text2568"><tspan
           id="tspan2566">7</tspan></text>
    </g>
    <text
       transform="rotate(106.71582,-134.08328,315.23281)"
       style="font-size:9px"
       id="text2574"><tspan
         id="tspan2572">13:7</tspan></text>
    <g
       id="g2582">
      <path
         transform="matrix(9.623136,2.719424,-2.719424,9.623136,199.3182,129.3205)"
         class="arrow"
         d="M 0,0 1,1 0,0.25 -1,1 Z"
         id="path2576" />
      <text
         transform="translate(196.87072,141.98133)"
         style="font-size:10px"
         id="text2580"><tspan
           id="tspan2578">8</tspan></text>
    </g>
    <text
       transform="rotate(15.779854,-360.43126,784.69271)"
       style="font-size:9px"
       id="text2586"><tspan
         id="tspan2584">10:8</tspan></text>
    <g
       id="g2594">
      <path
         transform="matrix(9.623083,2.719608,-2.719608,9.623083,137.87304,111.95588)"
         class="arrow"
         d="M 0,0 1,1 0,0.25 -1,1 Z"
         id="path2588" />
      <text
         transform="translate(135.42539,124.61665)"
         style="font-size:10px"
         id="text2592"><tspan
           id="tspan2590">9.</tspan></text>
    </g>
    <text
       transform="rotate(15.780995,-331.71942,553.83306)"
       style="font-size:4.5px"
       id="text2598"><tspan
         id="tspan2596">10:9.</tspan></text>
    <g
       id="g2606">
      <path
         transform="matrix(2.71965,-9.623071,9.623071,2.71965,104.8784,210.32118)"
         class="arrow"
         d="M 0,0 1,1 0,0.25 -1,1 Z"
         id="path2600" />
      <text
         transform="translate(113.53916,216.76889)"
         style="font-size:10px"
         id="text2604"><tspan
           id="tspan2602">10</tspan></text>
    </g>
    <text
       transform="rotate(-74.218768,190.88663,36.265162)"
       style="font-size:4.18px"
       id="text2610"><tspan
         id="tspan2608">2:10</tspan></text>
    <text
       transform="rotate(179.51573,35.010144,286.28911)"
       style="font-size:9px"
       id="text2614"><tspan
         id="tspan2612">4:6.</tspan></text>
    <g
       id="g2622">
      <path
         transform="matrix(-2.719422,9.623136,-9.623136,-2.719422,198.90602,282.02539)"
         class="arrow"
         d="M 0,0 1,1 0,0.25 -1,1 Z"
         id="path2616" />
      <text
         transform="translate(190.2452,283.57791)"
         style="font-size:10px"
         id="text2620"><tspan
           id="tspan2618">11</tspan></text>
    </g>
    <text
       transform="rotate(105.77985,-6.55216,217.15588)"
       style="font-size:9px"
       id="text2626"><tspan
         id="tspan2624">13:11</tspan></text>
  </g>
  <g
     id="g5880"
     transform="rotate(89.971349,364.44,110.65681)">
    <text
       style="font-size:10px"
       id="text4876"
       x="-532.04639"
       y="-265.66296"
       transform="scale(-1)"><tspan
         id="tspan4874">[14] I 14</tspan></text>
    <path
       class="sticker"
       d="m 489.0186,192.18177 0.15709,-9.99999 h 32.22844 l 0.1571,9.99999 z m 32.54262,110.00001 -0.15709,9.99999 h -32.22844 l -0.15709,-9.99999 z m -32.54262,0 -0.15709,9.99999 h -33.70278 l -0.15709,-9.99999 z m -34.01696,-110.00001 0.1571,-9.99999 h 33.70277 l 0.15709,9.99999 z m 66.55959,0 0.1571,-9.99999 h 32.22844 l 0.15709,9.99999 z m 32.54262,110.00001 -0.15709,9.99999 h -32.22844 l -0.1571,-9.99999 z m 34.01694,-3e-5 -0.15709,10.00002 h -33.70275 l -0.1571,-9.99999 z m -34.01693,-109.99998 0.15709,-9.99999 h 33.70275 l 0.15709,9.99999 z"
       id="path4878" />
    <path
       class="convex"
       d="m 554.10386,192.18177 h -32.54263 m -10e-6,110.00001 h 32.54263 m -65.08525,0 h 32.54262 m 10e-6,-110.00001 H 489.0186 m -34.01696,110.00001 h 34.01696 m 0,-110.00001 h -34.01696 m 133.11915,0 h -34.01693 m -1e-5,110.00001 34.01694,-3e-5"
       id="path4880" />
    <path
       class="concave"
       d="m 554.10385,302.18178 1e-5,-110.00001 m -65.08526,0 v 110.00001"
       id="path4882" />
    <path
       class="outer"
       d="m 455.00164,192.18177 0.1571,-9.99999 h 33.70277 l 0.15709,9.99999 0.15709,-9.99999 h 32.22844 l 0.1571,9.99999 0.1571,-9.99999 h 32.22844 l 0.15709,9.99999 0.15709,-9.99999 h 33.70275 l 0.15709,9.99999 v 109.99998 l -0.15709,10.00002 h -33.70275 l -0.1571,-9.99999 -0.15709,9.99999 h -32.22844 l -0.1571,-9.99999 -0.15709,9.99999 h -32.22844 l -0.15709,-9.99999 -0.15709,9.99999 h -33.70278 l -0.15709,-9.99999 z"
       id="path4884" />
    <g
       id="g4892"
       transform="translate(450.00164,153.96226)">
      <path
         transform="matrix(-10,0,0,-10,55.288271,148.21952)"
         class="arrow"
         d="M 0,0 1,1 0,0.25 -1,1 Z"
         id="path4886" />
      <text
         transform="translate(55.288271,143.21953)"
         style="font-size:10px"
         id="text4890"><tspan
           id="tspan4888">1</tspan></text>
    </g>
    <text
       transform="scale(-1)"
       style="font-size:9px"
       id="text4896"
       x="-505.28992"
       y="-303.98178"><tspan
         id="tspan4894">3:1</tspan></text>
    <g
       id="g4904"
       transform="translate(450.00164,153.96226)">
      <path
         transform="matrix(-10,0,0,-10,22.00848,148.21952)"
         class="arrow"
         d="M 0,0 1,1 0,0.25 -1,1 Z"
         id="path4898" />
      <text
         transform="translate(22.00848,143.21953)"
         style="font-size:10px"
         id="text4902"><tspan
           id="tspan4900">2</tspan></text>
    </g>
    <text
       transform="scale(-1)"
       style="font-size:9px"
       id="text4908"
       x="-472.01013"
       y="-303.98178"><tspan
         id="tspan4906">3:2</tspan></text>
    <g
       id="g4916"
       transform="translate(450.00164,153.96226)">
      <path
         transform="matrix(10,0,0,10,22.008483,38.219507)"
         class="arrow"
         d="M 0,0 1,1 0,0.25 -1,1 Z"
         id="path4910" />
      <text
         transform="translate(22.008483,51.219518)"
         style="font-size:10px"
         id="text4914"><tspan
           id="tspan4912">3</tspan></text>
    </g>
    <text
       style="font-size:9px"
       id="text4920"
       x="472.01013"
       y="190.38176"><tspan
         id="tspan4918">1:3</tspan></text>
    <g
       id="g4928"
       transform="translate(450.00164,153.96226)">
      <path
         transform="matrix(-10,0,0,-10,87.830898,148.21952)"
         class="arrow"
         d="M 0,0 1,1 0,0.25 -1,1 Z"
         id="path4922" />
      <text
         transform="translate(87.830898,143.21953)"
         style="font-size:10px"
         id="text4926"><tspan
           id="tspan4924">4</tspan></text>
    </g>
    <text
       transform="scale(-1)"
       style="font-size:9px"
       id="text4932"
       x="-537.83252"
       y="-303.98178"><tspan
         id="tspan4930">2:4</tspan></text>
    <g
       id="g4940"
       transform="translate(450.00164,153.96226)">
      <path
         transform="matrix(-10,4e-6,-4e-6,-10,121.11068,148.21952)"
         class="arrow"
         d="M 0,0 1,1 0,0.25 -1,1 Z"
         id="path4934" />
      <text
         transform="translate(121.11068,143.21953)"
         style="font-size:10px"
         id="text4938"><tspan
           id="tspan4936">5</tspan></text>
    </g>
    <text
       transform="scale(-1)"
       style="font-size:9px"
       id="text4944"
       x="-571.1123"
       y="-303.98178"><tspan
         id="tspan4942">2:5</tspan></text>
    <g
       id="g4952"
       transform="translate(450.00164,153.96226)">
      <path
         transform="matrix(10,-2e-6,2e-6,10,121.11069,38.219507)"
         class="arrow"
         d="M 0,0 1,1 0,0.25 -1,1 Z"
         id="path4946" />
      <text
         transform="translate(121.11069,51.219518)"
         style="font-size:10px"
         id="text4950"><tspan
           id="tspan4948">6.</tspan></text>
    </g>
    <text
       style="font-size:9px"
       id="text4956"
       x="571.1123"
       y="190.38176"><tspan
         id="tspan4954">1:6.</tspan></text>
    <g
       id="g5361"
       transform="rotate(-179.89344,500.77973,171.25149)">
      <text
         style="font-size:10px"
         id="text4962"
         x="379.91058"
         y="115.12012"><tspan
           id="tspan4960">[18] I 18</tspan></text>
      <path
         class="sticker"
         d="m 413.40012,150.48367 -0.15709,9.99999 H 338.9555 l -0.15709,-9.99999 z m -74.60171,-110.000012 0.1571,-9.999991 h 74.28752 l 0.15709,9.999991 z m 3e-5,9.99999 -5,-0.0785 -3e-5,-9.842932 5,-0.07856 z m 0,17.705202 -8.8526,-0.139057 V 50.622706 l 8.8526,-0.139058 z m -3e-5,82.29482 -9.99999,-0.15712 3e-5,-81.980582 9.99999,-0.157118 z"
         id="path4964" />
      <path
         class="convex"
         d="m 338.79844,68.18885 -3e-5,82.29482 m 0,0 h 74.60171 M 338.79844,50.483648 V 68.18885 m 74.60168,-27.705192 h -74.60171 m 0,0 3e-5,9.99999"
         id="path4966" />
      <path
         class="outer"
         d="m 413.40012,150.48367 -0.15709,9.99999 H 338.9555 l -0.15709,-9.99999 -9.99999,-0.15712 3e-5,-81.980582 9.99999,-0.157118 -8.8526,-0.139057 V 50.622706 l 8.8526,-0.139058 -5,-0.0785 -3e-5,-9.842932 5,-0.07856 0.1571,-9.999991 h 74.28752 l 0.15709,9.999991 v 10.00005 17.705202 z"
         id="path4968" />
      <g
         id="g4976"
         transform="translate(188.67925,2.2641509)">
        <path
           transform="matrix(-10,-1e-6,1e-6,-10,187.42001,148.21952)"
           class="arrow"
           d="M 0,0 1,1 0,0.25 -1,1 Z"
           id="path4970" />
        <text
           transform="translate(187.42001,143.21953)"
           style="font-size:10px"
           id="text4974"><tspan
             id="tspan4972">1</tspan></text>
      </g>
      <text
         transform="scale(-1)"
         style="font-size:9px"
         id="text4980"
         x="-376.09927"
         y="-152.28368"><tspan
           id="tspan4978">1:1</tspan></text>
      <g
         id="g4988"
         transform="translate(188.67925,2.2641509)">
        <path
           transform="matrix(10,1e-6,-1e-6,10,187.42001,38.219507)"
           class="arrow"
           d="M 0,0 1,1 0,0.25 -1,1 Z"
           id="path4982" />
        <text
           transform="translate(187.42001,51.219518)"
           style="font-size:10px"
           id="text4986"><tspan
             id="tspan4984">2</tspan></text>
      </g>
      <text
         style="font-size:9px"
         id="text4992"
         x="376.09927"
         y="38.683659"><tspan
           id="tspan4990">2:2</tspan></text>
      <g
         id="g5000"
         transform="translate(188.67925,2.2641509)">
        <path
           transform="matrix(-2.9e-5,-10,10,-2.9e-5,150.11919,43.219502)"
           class="arrow"
           d="M 0,0 1,1 0,0.25 -1,1 Z"
           id="path4994" />
        <text
           transform="translate(159.11918,47.21951)"
           style="font-size:10px"
           id="text4998"><tspan
             id="tspan4996">3</tspan></text>
      </g>
      <text
         transform="rotate(-90.000172)"
         style="font-size:4.5px"
         id="text5004"
         x="-45.484665"
         y="337.89832"><tspan
           id="tspan5002">10:3</tspan></text>
      <g
         id="g5012"
         transform="translate(188.67925,2.2641509)">
        <path
           transform="matrix(4e-6,-9.999999,9.999999,4e-6,150.11918,107.07211)"
           class="arrow"
           d="M 0,0 1,1 0,0.25 -1,1 Z"
           id="path5006" />
        <text
           transform="translate(159.11918,111.07212)"
           style="font-size:10px"
           id="text5010"><tspan
             id="tspan5008">4</tspan></text>
      </g>
      <text
         transform="rotate(-90)"
         style="font-size:9px"
         id="text5016"
         x="-109.33626"
         y="336.99841"><tspan
           id="tspan5014">10:4</tspan></text>
    </g>
    <g
       id="g3597"
       transform="rotate(180,394.62996,170.22767)">
      <text
         style="font-size:10px"
         id="text2845"
         x="369.10016"
         y="124.17674"><tspan
           id="tspan2843">[17] I 17</tspan></text>
      <path
         class="sticker"
         d="m 408.70289,148.21952 -0.15709,9.99999 h -74.28753 l -0.15709,-10.00002 z m -74.60171,-110.000013 0.1571,-9.999991 h 74.28752 l 0.15709,9.999991 z m 74.60171,0 4.99999,0.07856 v 9.842932 l -5.00002,0.07856 z m -3e-5,10.00005 8.8526,0.139058 v 17.427027 l -8.8526,0.139117 z m 0,17.705202 10.00002,0.157058 V 148.0624 l -9.99999,0.15712 z"
         id="path2847" />
      <path
         class="convex"
         d="M 408.70286,65.924759 V 48.219557 m -74.60168,99.999933 74.60171,3e-5 m 0,0 -3e-5,-82.294761 m 0,-17.705202 3e-5,-10.00005 m 0,0 h -74.60171"
         id="path2849" />
      <path
         class="outer"
         d="m 417.55546,48.358615 v 17.427027 l -8.8526,0.139117 10.00002,0.157058 V 148.0624 l -9.99999,0.15712 -0.15709,9.99999 h -74.28753 l -0.15709,-10.00002 V 65.924699 48.219497 38.219507 l 0.1571,-9.999991 h 74.28752 l 0.15709,9.999991 4.99999,0.07856 v 9.842932 l -5.00002,0.07856 z"
         id="path2851" />
      <g
         id="g2859"
         transform="translate(139.70003)">
        <path
           transform="matrix(-10,-1e-6,1e-6,-10,231.70201,148.21952)"
           class="arrow"
           d="M 0,0 1,1 0,0.25 -1,1 Z"
           id="path2853" />
        <text
           transform="translate(231.70201,143.21953)"
           style="font-size:10px"
           id="text2857"><tspan
             id="tspan2855">1</tspan></text>
      </g>
      <text
         transform="scale(-1)"
         style="font-size:9px"
         id="text2863"
         x="-371.40201"
         y="-150.01952"><tspan
           id="tspan2861">1:1</tspan></text>
      <g
         id="g2871"
         transform="translate(139.70003)">
        <path
           transform="matrix(10,1e-6,-1e-6,10,231.70201,38.219507)"
           class="arrow"
           d="M 0,0 1,1 0,0.25 -1,1 Z"
           id="path2865" />
        <text
           transform="translate(231.70201,51.219518)"
           style="font-size:10px"
           id="text2869"><tspan
             id="tspan2867">2</tspan></text>
      </g>
      <text
         style="font-size:9px"
         id="text2875"
         x="371.40204"
         y="36.419506"><tspan
           id="tspan2873">3:2</tspan></text>
      <g
         id="g2883"
         transform="translate(139.70003)">
        <path
           transform="matrix(-3.1e-5,10,-10,-3.1e-5,269.00286,43.219562)"
           class="arrow"
           d="M 0,0 1,1 0,0.25 -1,1 Z"
           id="path2877" />
        <text
           transform="translate(260.00286,47.21951)"
           style="font-size:10px"
           id="text2881"><tspan
             id="tspan2879">3</tspan></text>
      </g>
      <text
         transform="rotate(90.000172)"
         style="font-size:4.5px"
         id="text2887"
         x="43.218349"
         y="-409.60303"><tspan
           id="tspan2885">11:3</tspan></text>
      <g
         id="g2895"
         transform="translate(139.70003)">
        <path
           transform="matrix(3e-6,10,-10,3e-6,269.00286,107.07211)"
           class="arrow"
           d="M 0,0 1,1 0,0.25 -1,1 Z"
           id="path2889" />
        <text
           transform="translate(260.00286,111.07212)"
           style="font-size:10px"
           id="text2893"><tspan
             id="tspan2891">4</tspan></text>
      </g>
      <text
         transform="rotate(90)"
         style="font-size:9px"
         id="text2899"
         x="107.07211"
         y="-410.5029"><tspan
           id="tspan2897">11:4</tspan></text>
    </g>
  </g>
</svg>
