<?xml version="1.0" encoding="UTF-8" standalone="no"?>
<svg
   version="1.1"
   width="300.00mm"
   height="600.00mm"
   viewBox="0 0 300.00 600.00"
   id="svg890"
   sodipodi:docname="bottom_page2.svg"
   inkscape:version="1.1.1 (c3084ef, 2021-09-22)"
   xmlns:inkscape="http://www.inkscape.org/namespaces/inkscape"
   xmlns:sodipodi="http://sodipodi.sourceforge.net/DTD/sodipodi-0.dtd"
   xmlns="http://www.w3.org/2000/svg"
   xmlns:svg="http://www.w3.org/2000/svg">
  <defs
     id="defs894" />
  <sodipodi:namedview
     id="namedview892"
     pagecolor="#ffffff"
     bordercolor="#666666"
     borderopacity="1.0"
     inkscape:pageshadow="2"
     inkscape:pageopacity="0.0"
     inkscape:pagecheckerboard="0"
     inkscape:document-units="mm"
     showgrid="false"
     inkscape:zoom="0.35057292"
     inkscape:cx="566.21602"
     inkscape:cy="1133.8583"
     inkscape:window-width="1792"
     inkscape:window-height="975"
     inkscape:window-x="0"
     inkscape:window-y="25"
     inkscape:window-maximized="1"
     inkscape:current-layer="svg890" />
  <style
     type="text/css"
     id="style824">
    path {
        fill: none;
        stroke-linecap: butt;
        stroke-linejoin: bevel;
        stroke-dasharray: none;
    }
    path.outer {
        stroke: #000000;
        stroke-dasharray: none;
        stroke-dashoffset: 0;
        stroke-width: 0.3;
        stroke-opacity: 1.0;
    }
    path.convex {
        stroke: #000000;
        stroke-dasharray: 0.50,1.00;
        stroke-dashoffset:0;
        stroke-width:0.2;
        stroke-opacity: 1.0
    }
    path.concave {
        stroke: #000000;
        stroke-dasharray: 1.00,0.50,0.20,0.50;
        stroke-dashoffset: 0;
        stroke-width: 0.2;
        stroke-opacity: 1.0
    }
    path.freestyle {
        stroke: #000000;
        stroke-dasharray: none;
        stroke-dashoffset: 0;
        stroke-width: 0.2;
        stroke-opacity: 1.0
    }
    path.outer_background {
        stroke: #ffffff;
        stroke-opacity: 1.0;
        stroke-width: 0.5
    }
    path.inner_background {
        stroke: #ffffff;
        stroke-opacity: 1.0;
        stroke-width: 0.2
    }
    path.sticker {
        fill: #e5e5e5;
        stroke: none;
        fill-opacity: 1.0;
    }
    path.arrow {
        fill: #000000;
    }
    text {
        font-style: normal;
        fill: #000000;
        fill-opacity: 1.0;
        stroke: none;
    }
    text, tspan {
        text-anchor:middle;
    }
    </style>
  <g
     id="g888"
     transform="translate(0,12.700002)">
    <text
       transform="translate(112.69519,267.40009)"
       style="font-size:10px"
       id="text828"><tspan
         id="tspan826">[3] I 3</tspan></text>
    <path
       class="sticker"
       d="m 15.000089,201.06518 -10,-0.15712 V 177.6213 l 10,-0.15706 z M 38.432044,573 l -0.157096,10 -23.117859,-10e-6 -0.157089,-10 z m 171.958256,-41.0153 10.00001,0.1571 v 40.70113 l -10.00001,0.15709 z m -32.54261,41.01532 -0.15711,10 -24.18372,-2e-5 -0.15708,-10 z m -52.34537,-492.800127 6.30154,-7.766307 27.60051,21.684885 -6.05447,7.960439 z m -110.502231,97.264347 -10,-0.15712 3e-5,-75.07121 10,-0.15706 z M 125.50221,573 l -0.15709,10 -24.05943,2e-5 -0.15711,-10 z M 38.432163,80.199893 38.589259,70.199843 h 62.382351 l 0.15709,10.00005 z m 171.958217,120.081667 4.64417,0.0729 v 9.14246 l -4.64417,0.073 z m -195.390365,300.67795 -10,-0.1571 7.4e-5,-210.76133 10,-0.15711 z m 195.390285,4.61651 10.00001,0.15709 v 26.0945 L 210.3903,531.9847 Z M 15,572.99999 5,572.8429 l 1.5e-5,-46.16014 10,-0.15709 z m 86.12858,3e-5 -0.15709,10 L 38.589136,583 38.432044,573 Z m 52.2212,-2e-5 -0.15709,10 H 125.6593 l -0.15709,-10 z m 1.2e-4,-470.92109 10,0.15706 -3e-5,74.28753 -10,0.15712 z m -52.2212,-21.879017 0.1571,-10.00005 h 24.05943 l 0.15709,10.00005 z m -86.128581,21.878957 -6.70987,-7.416367 23.202404,-21.66456 6.93951,7.20197 z m 195.390231,187.80518 10,0.15705 -4e-5,215.37785 -10.00001,0.15709 z m -195.390261,-79.53054 -4.64417,-0.073 v -9.1424 l 4.64417,-0.0729 z m 195.390211,362.64653 -0.15708,10 h -32.22844 l -0.15709,-10 z m -32.54255,-372.71846 0.15709,-10 h 32.22845 l 0.15709,10 z m -24.49788,-23.60094 7.05114,-7.09271 24.2716,23.38302 -6.82486,7.31063 z m -138.349855,349.84505 -10,-0.15709 v -25.25197 l 10,-0.1571 z m 7.4e-5,-236.6417 -10,-0.15706 v -79.2163 l 10,-0.15712 z m 195.390291,-80.31404 10,0.15706 -3e-5,79.99992 -10,0.15712 z"
       id="path830" />
    <path
       class="convex"
       d="m 15.000089,289.88397 -7.4e-5,211.07554 M 38.432044,573 l 62.696536,2e-5 M 101.1287,80.199893 H 38.432163 M 15.000089,210.35349 v 79.53048 m 3e-5,-187.80512 -3e-5,75.38539 m 138.349781,-0.78362 3e-5,-74.60171 m 24.49779,470.92111 h 32.54261 m 8e-5,-372.71846 H 177.84775 M 153.3499,102.07891 125.50232,80.199893 M 125.50221,573 h 27.84757 m 24.49797,-372.71844 -24.49788,-23.60094 m -9e-5,396.31938 24.49791,2e-5 M 125.50232,80.199893 H 101.1287 M 101.12858,573.00002 125.50221,573 M 15,572.99999 38.432044,573 M 15.000015,526.52567 15,572.99999 m 1.5e-5,-72.04048 v 25.56616 m 7.4e-5,-349.06143 v 23.60094 m 0,0 v 9.28831 M 38.432163,80.199893 15.000119,102.07885"
       id="path832" />
    <path
       class="outer"
       d="m 131.80386,72.433586 27.60051,21.684885 -6.05447,7.960439 10,0.15706 -3e-5,74.28753 -10,0.15712 7.05114,-7.09271 24.2716,23.38302 -6.82486,7.31063 0.15709,-10 h 32.22845 l 0.15709,10 4.64417,0.0729 v 9.14246 l -4.64417,0.073 10,0.15706 -3e-5,79.99992 -10,0.15712 10,0.15705 -4e-5,215.37785 -10.00001,0.15709 10.00001,0.15709 v 26.0945 l -10.00001,0.15709 10.00001,0.1571 v 40.70113 l -10.00001,0.15709 -0.15708,10 h -32.22844 l -0.15709,-10 -0.15711,10 -24.18372,-2e-5 -0.15708,-10 -0.15709,10 H 125.6593 l -0.15709,-10 -0.15709,10 -24.05943,2e-5 -0.15711,-10 -0.15709,10 -62.382354,-2e-5 -0.157092,-10 -0.157096,10 -23.117859,-10e-6 -0.157089,-10 -10,-0.15709 1.5e-5,-46.16014 10,-0.15709 -10,-0.15709 V 501.1166 l 10,-0.1571 -10,-0.1571 7.4e-5,-210.76133 10,-0.15711 -10,-0.15706 v -79.2163 l 10,-0.15712 -4.64417,-0.073 v -9.1424 l 4.64417,-0.0729 -10,-0.15712 V 177.6213 l 10,-0.15706 -10,-0.15712 3e-5,-75.07121 10,-0.15706 -6.70987,-7.416367 23.202404,-21.66456 6.93951,7.20197 0.157096,-10.00005 h 62.382351 l 0.15709,10.00005 0.1571,-10.00005 h 24.05943 l 0.15709,10.00005 z"
       id="path834" />
    <text
       transform="rotate(180,13.358011,287.4)"
       style="font-size:9px"
       id="text838"><tspan
         id="tspan836">9.:1</tspan></text>
    <text
       transform="rotate(90,-170.15103,382.34133)"
       style="font-size:9px"
       id="text842"><tspan
         id="tspan840">2:1</tspan></text>
    <text
       transform="rotate(38.155666,-59.446859,248.04123)"
       style="font-size:9px"
       id="text846"><tspan
         id="tspan844">11:1</tspan></text>
    <text
       transform="rotate(-90,76.48581,63.285706)"
       style="font-size:9px"
       id="text850"><tspan
         id="tspan848">6.:2</tspan></text>
    <text
       transform="rotate(90,3.1503115,208.07602)"
       style="font-size:4.18px"
       id="text854"><tspan
         id="tspan852">2:2</tspan></text>
    <text
       transform="rotate(-90,281.48142,268.28141)"
       style="font-size:9px"
       id="text858"><tspan
         id="tspan856">15:3</tspan></text>
    <text
       transform="rotate(90,7.8850735,147.26481)"
       style="font-size:9px"
       id="text862"><tspan
         id="tspan860">17:2</tspan></text>
    <text
       transform="rotate(-43.036903,126.65168,12.590308)"
       style="font-size:9px"
       id="text866"><tspan
         id="tspan864">11:3</tspan></text>
    <text
       transform="rotate(-90,109.93674,95.772598)"
       style="font-size:4.18px"
       id="text870"><tspan
         id="tspan868">6.:10</tspan></text>
    <text
       transform="rotate(180,97.059498,287.40001)"
       style="font-size:9px"
       id="text874"><tspan
         id="tspan872">9.:2</tspan></text>
    <text
       transform="translate(194.11906,198.48155)"
       style="font-size:9px"
       id="text878"><tspan
         id="tspan876">14:1</tspan></text>
    <text
       transform="rotate(43.93174,-148.62343,300.42819)"
       style="font-size:9px"
       id="text882"><tspan
         id="tspan880">14:2</tspan></text>
    <text
       transform="rotate(-90,131.65941,118.45932)"
       style="font-size:9px"
       id="text886"><tspan
         id="tspan884">15:4</tspan></text>
  </g>
  <g
     id="g6544"
     transform="translate(34.871498,-60.242006)">
    <text
       style="font-size:10px"
       id="text5780"
       x="201.16647"
       y="169.35023"><tspan
         id="tspan5778">[10] I 10</tspan></text>
    <path
       class="sticker"
       d="m 252.39286,199.33715 10.00002,0.15709 v 35.10019 l -9.99999,0.15709 z m -109.99998,0 -9.99999,-0.15709 v -24.05944 l 9.99999,-0.15709 z m 110.00001,-87.07014 9.99999,0.15706 v 62.38237 l -10,0.15709 z m -110,-6e-5 -10,-0.15706 1e-5,-31.744356 10.00001,-0.157118 z m -1e-5,62.69658 -9.99999,-0.15712 v -62.38234 l 10,-0.15712 z m 110,0 10,0.15712 v 24.05941 l -10.00002,0.15709 z m 3e-5,-94.755054 10,0.157058 -3e-5,31.744356 -9.99999,0.15712 z m -110,-6e-5 0.15709,-9.99999 h 81.9806 l 0.1571,9.99999 z m 109.99998,154.543104 -0.0785,5.00002 -9.84291,3e-5 -0.0786,-4.99999 z m -10.00002,6e-5 -0.13907,8.8526 -17.42707,-6e-5 -0.13906,-8.8526 z m 3e-5,-154.543164 0.0786,-4.999995 h 9.84292 l 0.0785,5.000055 z M 142.39288,234.75152 132.39289,234.5944 v -35.10016 l 9.99999,-0.15709 z m 82.29482,-154.543104 0.13906,-8.852601 h 17.42708 l 0.13906,8.852601 z m -3e-5,154.543104 -0.15709,10.00002 -81.98061,-3e-5 -0.15709,-9.99999 z"
       id="path5782" />
    <path
       class="convex"
       d="m 224.68768,112.26701 -82.29479,-6e-5 m 0,0 -1e-5,62.69658 m 0,0 v 24.37362 m 0,0 h 82.29479 m -82.29479,0 v 35.41437 m 0,0 h 82.29479 m 3e-5,-154.543104 h -82.29479 m 0,0 -2e-5,32.058534 m 100,6e-5 h -17.70521 m 27.7052,62.69652 1e-5,-62.69652 m 0,0 h -10 m -17.70522,87.07014 h 17.7052 m 9.99999,0 2e-5,-24.37362 m -10.00001,24.37362 h 9.99999 m -27.70519,35.41437 17.7052,6e-5 m 0,0 10.00002,-6e-5 m 0,0 -3e-5,-35.41437 M 242.3929,80.208416 h -17.7052 m 27.70519,32.058594 2e-5,-32.058534 m 0,0 -10.00001,-6e-5"
       id="path5784" />
    <path
       class="outer"
       d="m 142.55,70.208426 h 81.9806 l 0.1571,9.99999 0.13906,-8.852601 h 17.42708 l 0.13906,8.852601 0.0786,-4.999995 h 9.84292 l 0.0785,5.000055 10,0.157058 -3e-5,31.744356 -9.99999,0.15712 9.99999,0.15706 v 62.38237 l -10,0.15709 10,0.15712 v 24.05941 l -10.00002,0.15709 10.00002,0.15709 v 35.10019 l -9.99999,0.15709 -0.0785,5.00002 -9.84291,3e-5 -0.0786,-4.99999 -0.13907,8.8526 -17.42707,-6e-5 -0.13906,-8.8526 -0.15709,10.00002 -81.98061,-3e-5 -0.15709,-9.99999 -9.99999,-0.15712 v -35.10016 l 9.99999,-0.15709 -9.99999,-0.15709 v -24.05944 l 9.99999,-0.15709 -9.99999,-0.15712 v -62.38234 l 10,-0.15712 -10,-0.15706 1e-5,-31.744356 10.00001,-0.157118 z"
       id="path5786" />
    <g
       id="g5794">
      <path
         transform="matrix(6e-6,10,-10,6e-6,252.39288,217.04435)"
         class="arrow"
         d="M 0,0 1,1 0,0.25 -1,1 Z"
         id="path5788" />
      <text
         transform="translate(243.39287,221.04436)"
         style="font-size:10px"
         id="text5792"><tspan
           id="tspan5790">1</tspan></text>
    </g>
    <text
       transform="rotate(90)"
       style="font-size:9px"
       id="text5798"
       x="217.04459"
       y="-254.1929"><tspan
         id="tspan5796">2:1</tspan></text>
    <g
       id="g5806">
      <path
         transform="matrix(3e-6,-10,10,3e-6,142.39289,96.237714)"
         class="arrow"
         d="M 0,0 1,1 0,0.25 -1,1 Z"
         id="path5800" />
      <text
         transform="translate(151.3929,100.23772)"
         style="font-size:10px"
         id="text5804"><tspan
           id="tspan5802">2</tspan></text>
    </g>
    <text
       transform="rotate(-90)"
       style="font-size:9px"
       id="text5810"
       x="-96.237709"
       y="140.5929"><tspan
         id="tspan5808">1:2</tspan></text>
    <g
       id="g5818">
      <path
         transform="matrix(-7e-6,10,-10,-7e-6,252.39289,96.237714)"
         class="arrow"
         d="M 0,0 1,1 0,0.25 -1,1 Z"
         id="path5812" />
      <text
         transform="translate(243.39289,100.23772)"
         style="font-size:10px"
         id="text5816"><tspan
           id="tspan5814">3</tspan></text>
    </g>
    <text
       transform="rotate(90)"
       style="font-size:9px"
       id="text5822"
       x="96.237541"
       y="-254.19283"><tspan
         id="tspan5820">2:3</tspan></text>
    <text
       style="font-size:9px"
       id="text5826"
       x="183.54028"
       y="78.408417"><tspan
         id="tspan5824">7:8</tspan></text>
    <text
       transform="rotate(179.99983)"
       style="font-size:4.5px"
       id="text5830"
       x="-247.3922"
       y="-235.65228"><tspan
         id="tspan5828">18:3</tspan></text>
    <g
       id="g5842">
      <path
         transform="matrix(-3e-6,-10,10,-3e-6,142.39288,217.04432)"
         class="arrow"
         d="M 0,0 1,1 0,0.25 -1,1 Z"
         id="path5836" />
      <text
         transform="translate(151.39288,221.04433)"
         style="font-size:10px"
         id="text5840"><tspan
           id="tspan5838">4</tspan></text>
    </g>
    <text
       transform="rotate(-90)"
       style="font-size:9px"
       id="text5846"
       x="-217.04433"
       y="140.59288"><tspan
         id="tspan5844">1:4</tspan></text>
    <text
       transform="scale(-1)"
       style="font-size:9px"
       id="text5850"
       x="-183.54028"
       y="-236.55151"><tspan
         id="tspan5848">18:4</tspan></text>
  </g>
</svg>
