<?xml version="1.0" encoding="UTF-8" standalone="no"?>
<svg
   xmlns:dc="http://purl.org/dc/elements/1.1/"
   xmlns:cc="http://creativecommons.org/ns#"
   xmlns:rdf="http://www.w3.org/1999/02/22-rdf-syntax-ns#"
   xmlns:svg="http://www.w3.org/2000/svg"
   xmlns="http://www.w3.org/2000/svg"
   xmlns:sodipodi="http://sodipodi.sourceforge.net/DTD/sodipodi-0.dtd"
   xmlns:inkscape="http://www.inkscape.org/namespaces/inkscape"
   version="1.1"
   width="300.00mm"
   height="600.00mm"
   viewBox="0 0 300.00 600.00"
   id="svg900"
   sodipodi:docname="bottom_page1_fabric.svg"
   inkscape:version="0.92.2 (5c3e80d, 2017-08-06)">
  <metadata
     id="metadata43">
    <rdf:RDF>
      <cc:Work
         rdf:about="">
        <dc:format>image/svg+xml</dc:format>
        <dc:type
           rdf:resource="http://purl.org/dc/dcmitype/StillImage" />
      </cc:Work>
    </rdf:RDF>
  </metadata>
  <defs
     id="defs904" />
  <sodipodi:namedview
     id="namedview902"
     pagecolor="#ffffff"
     bordercolor="#666666"
     borderopacity="1.0"
     inkscape:pageshadow="2"
     inkscape:pageopacity="0.0"
     inkscape:pagecheckerboard="0"
     inkscape:document-units="mm"
     showgrid="false"
     inkscape:zoom="0.35057292"
     inkscape:cx="-691.535"
     inkscape:cy="1489.0133"
     inkscape:window-width="1920"
     inkscape:window-height="1017"
     inkscape:window-x="-8"
     inkscape:window-y="-8"
     inkscape:window-maximized="1"
     inkscape:current-layer="svg900" />
  <style
     type="text/css"
     id="style824">
    path {
        fill: none;
        stroke-linecap: butt;
        stroke-linejoin: bevel;
        stroke-dasharray: none;
    }
    path.outer {
        stroke: #000000;
        stroke-dasharray: none;
        stroke-dashoffset: 0;
        stroke-width: 0.3;
        stroke-opacity: 1.0;
    }
    path.convex {
        stroke: #000000;
        stroke-dasharray: 0.50,1.00;
        stroke-dashoffset:0;
        stroke-width:0.2;
        stroke-opacity: 1.0
    }
    path.concave {
        stroke: #000000;
        stroke-dasharray: 1.00,0.50,0.20,0.50;
        stroke-dashoffset: 0;
        stroke-width: 0.2;
        stroke-opacity: 1.0
    }
    path.freestyle {
        stroke: #000000;
        stroke-dasharray: none;
        stroke-dashoffset: 0;
        stroke-width: 0.2;
        stroke-opacity: 1.0
    }
    path.outer_background {
        stroke: #ffffff;
        stroke-opacity: 1.0;
        stroke-width: 0.5
    }
    path.inner_background {
        stroke: #ffffff;
        stroke-opacity: 1.0;
        stroke-width: 0.2
    }
    path.sticker {
        fill: #e5e5e5;
        stroke: none;
        fill-opacity: 1.0;
    }
    path.arrow {
        fill: #000000;
    }
    text {
        font-style: normal;
        fill: #000000;
        fill-opacity: 1.0;
        stroke: none;
    }
    text, tspan {
        text-anchor:middle;
    }
    </style>
  <g
     id="g1189">
    <path
       inkscape:connector-curvature="0"
       id="path850"
       style="font-style:normal;font-size:medium;text-anchor:middle;fill:none;fill-opacity:1;stroke:#000000;stroke-width:0.25;stroke-linecap:butt;stroke-linejoin:bevel;stroke-dasharray:none;stroke-opacity:1"
       d="m 173.88333,279.89748 h -2.53907 v -9.51172 h 2.53907 v 0.69825 h -1.68946 v 8.11523 h 1.68946 z" />
    <path
       inkscape:connector-curvature="0"
       id="path852"
       style="font-style:normal;font-size:medium;text-anchor:middle;fill:none;fill-opacity:1;stroke:#000000;stroke-width:0.25;stroke-linecap:butt;stroke-linejoin:bevel;stroke-dasharray:none;stroke-opacity:1"
       d="m 180.43606,277.98342 h -4.92188 v -1.02051 q 0.5127,-0.43945 1.0254,-0.8789 0.51757,-0.43946 0.96191,-0.87403 0.9375,-0.9082 1.28418,-1.44043 0.34668,-0.53711 0.34668,-1.15722 0,-0.56641 -0.37598,-0.88379 -0.37109,-0.32227 -1.04004,-0.32227 -0.44433,0 -0.96191,0.15625 -0.51758,0.15625 -1.01074,0.47852 h -0.0488 v -1.02539 q 0.34668,-0.1709 0.92285,-0.3125 0.58105,-0.1416 1.12305,-0.1416 1.11816,0 1.75293,0.54199 0.63476,0.53711 0.63476,1.45996 0,0.41504 -0.10742,0.77637 -0.10254,0.35644 -0.30762,0.67871 -0.19043,0.30273 -0.44922,0.5957 -0.2539,0.29297 -0.62011,0.64941 -0.52246,0.5127 -1.07911,0.9961 -0.55664,0.47851 -1.04004,0.88867 h 3.91114 z" />
    <path
       inkscape:connector-curvature="0"
       id="path854"
       style="font-style:normal;font-size:medium;text-anchor:middle;fill:none;fill-opacity:1;stroke:#000000;stroke-width:0.25;stroke-linecap:butt;stroke-linejoin:bevel;stroke-dasharray:none;stroke-opacity:1"
       d="m 184.46926,279.89748 h -2.53906 v -0.69824 h 1.68945 v -8.11523 h -1.68945 v -0.69825 h 2.53906 z" />
    <path
       inkscape:connector-curvature="0"
       id="path856"
       style="font-style:normal;font-size:medium;text-anchor:middle;fill:none;fill-opacity:1;stroke:#000000;stroke-width:0.25;stroke-linecap:butt;stroke-linejoin:bevel;stroke-dasharray:none;stroke-opacity:1"
       d="m 192.70169,277.98342 h -2.8711 v -0.74219 h 0.95215 v -5.78613 h -0.95215 v -0.74219 h 2.8711 v 0.74219 h -0.95215 v 5.78613 h 0.95215 z" />
    <path
       inkscape:connector-curvature="0"
       id="path858"
       style="font-style:normal;font-size:medium;text-anchor:middle;fill:none;fill-opacity:1;stroke:#000000;stroke-width:0.25;stroke-linecap:butt;stroke-linejoin:bevel;stroke-dasharray:none;stroke-opacity:1"
       d="m 202.60403,277.98342 h -4.92188 v -1.02051 q 0.5127,-0.43945 1.02539,-0.8789 0.51758,-0.43946 0.96192,-0.87403 0.9375,-0.9082 1.28418,-1.44043 0.34668,-0.53711 0.34668,-1.15722 0,-0.56641 -0.37598,-0.88379 -0.37109,-0.32227 -1.04004,-0.32227 -0.44433,0 -0.96191,0.15625 -0.51758,0.15625 -1.01074,0.47852 h -0.0488 v -1.02539 q 0.34668,-0.1709 0.92285,-0.3125 0.58105,-0.1416 1.12304,-0.1416 1.11817,0 1.75293,0.54199 0.63477,0.53711 0.63477,1.45996 0,0.41504 -0.10742,0.77637 -0.10254,0.35644 -0.30762,0.67871 -0.19043,0.30273 -0.44922,0.5957 -0.2539,0.29297 -0.62012,0.64941 -0.52246,0.5127 -1.0791,0.9961 -0.55664,0.47851 -1.04004,0.88867 h 3.91114 z" />
    <path
       class="sticker"
       d="m 90.025239,583.58328 -10.00002,-0.15712 -1.5e-5,-40.70106 10.000005,-0.15712 z m -1.94e-4,-363.43008 -4.644155,-0.0729 -3e-5,-9.14243 4.64417,-0.0729 z m 1.64e-4,322.41478 -10.000005,-0.15709 v -26.09446 l 9.99999,-0.15709 z m -1.5e-5,-26.40864 -9.99999,-0.15712 -6e-5,-215.37775 10.000005,-0.15708 z m -4.5e-5,-215.69195 -10.000005,-0.15709 -8.9e-5,-79.99998 9.99999,-0.15712 z m 195.390201,-112.41994 10,0.15709 3e-5,23.28676 -10,0.15712 z m -138.34961,395.53583 -0.15712,9.99999 -24.18369,-6e-5 -0.15709,-9.99993 z m -1.6e-4,-470.92107 -6.05447,-7.9604 27.60044,-21.68489 6.30154,7.766247 z m 138.34971,-6e-5 10,0.15709 6e-5,75.07109 -10,0.15712 z m -86.1284,470.92113 -0.15709,9.99999 h -24.0594 l -0.15712,-9.99999 z m -1.6e-4,-492.800113 0.15708,-9.99999 h 62.38237 l 0.15709,9.99999 z m 86.12865,209.684073 9.99999,0.15708 9e-5,210.76134 -9.99999,0.15712 z m 9e-5,236.6417 7.97663,6.03312 -33.83088,46.22078 -8.16218,-5.77956 z m -34.01643,46.47434 -0.15709,10.00005 -51.79797,-6e-5 -0.15709,-9.99999 z m -76.48576,0 -0.1571,9.99999 -27.53334,6e-5 -0.1571,-10.00005 z m -27.84766,-396.31939 -9.99999,-0.15706 -5e-5,-74.28753 10,-0.15709 z m 27.84747,-96.480723 0.15709,-9.99999 h 24.05945 l 0.1571,9.99999 z m 87.07018,0 6.93952,-7.20191 23.20237,21.664563 -6.70987,7.41633 z m 23.43211,120.865253 4.6442,0.0729 -3e-5,9.14246 -4.6442,0.073 z m -162.84754,371.93486 -0.15712,9.99999 H 90.182342 l -0.157103,-9.99999 z m -32.54281,-372.71839 0.157088,-10 32.228452,-3e-5 0.15711,10 z m 32.54265,-3e-5 -6.82488,-7.31066 24.27168,-23.38299 7.05114,7.09268 z m 162.84779,300.67792 10,0.15709 v 25.25198 l -10,0.15709 z m -1.2e-4,-290.60599 10,0.15709 2e-5,79.21627 -9.99999,0.15709 z"
       id="path830"
       style="fill:#e5e5e5;fill-opacity:1;stroke:#000000;stroke-width:0.25;stroke-linecap:butt;stroke-linejoin:bevel;stroke-dasharray:none;stroke-opacity:1"
       inkscape:connector-curvature="0" />
    <path
       inkscape:connector-curvature="0"
       style="fill:#000000;stroke:#000000;stroke-width:0.25;stroke-linecap:butt;stroke-linejoin:bevel;stroke-dasharray:none;stroke-opacity:1"
       id="path834"
       d="m 90.025224,563.07559 9.999996,-10.00001 -7.499996,10.00001 7.500006,10 z"
       class="arrow" />
    <path
       d="m 101.1346,567.07558 h -3.935548 v -0.74219 h 1.513672 v -4.87304 h -1.513672 v -0.66407 q 0.307617,0 0.65918,-0.0488 0.351562,-0.0537 0.532226,-0.15137 0.22461,-0.12207 0.351563,-0.30762 0.131836,-0.19043 0.151367,-0.50781 h 0.756836 v 6.55273 h 1.484376 z"
       style="font-style:normal;font-size:medium;text-anchor:middle;fill:none;fill-opacity:1;stroke:#000000;stroke-width:0.25;stroke-linecap:butt;stroke-linejoin:bevel;stroke-dasharray:none;stroke-opacity:1"
       id="path861"
       inkscape:connector-curvature="0" />
    <path
       inkscape:connector-curvature="0"
       id="path864"
       style="font-style:normal;font-size:medium;text-anchor:middle;fill:none;fill-opacity:1;stroke:#000000;stroke-width:0.25;stroke-linecap:butt;stroke-linejoin:bevel;stroke-dasharray:none;stroke-opacity:1"
       d="m 85.074331,566.29239 q 0.188965,-0.21094 0.474609,-0.34717 0.285645,-0.13623 0.738282,-0.13623 0.448242,0 0.821777,0.1626 0.373535,0.16259 0.650391,0.45703 0.307617,0.32959 0.457031,0.77783 0.145019,0.44385 0.145019,0.97559 0,0.54492 -0.131835,1.07226 -0.127442,0.52734 -0.28125,0.86572 h -0.918458 v -0.0659 q 0.246094,-0.37354 0.408692,-0.87891 0.162598,-0.50537 0.162598,-0.97559 0,-0.27685 -0.09229,-0.58886 -0.09228,-0.31202 -0.272461,-0.50537 -0.193359,-0.20215 -0.426269,-0.29883 -0.23291,-0.10108 -0.588867,-0.10108 -0.351563,0 -0.580079,0.11426 -0.23291,0.10986 -0.364746,0.30762 -0.13623,0.19775 -0.18457,0.479 -0.05273,0.28125 -0.05273,0.60645 v 0.3955 h -0.729492 v -0.30761 q 0,-0.66797 -0.276855,-1.06348 -0.28125,-0.3999 -0.817383,-0.3999 -0.237305,0 -0.413086,0.10107 -0.180176,0.10108 -0.294434,0.28125 -0.114258,0.18897 -0.158203,0.4043 -0.04394,0.21533 -0.04394,0.48779 0,0.41748 0.149414,0.8877 0.149414,0.47021 0.421875,0.88769 v 0.0439 h -0.918457 q -0.153809,-0.31201 -0.28125,-0.83057 -0.131836,-0.52295 -0.131836,-1.01074 0,-0.479 0.08789,-0.84375 0.08789,-0.36475 0.28125,-0.65918 0.210938,-0.31641 0.509766,-0.479 0.298828,-0.1626 0.69873,-0.1626 0.544922,0 0.953614,0.38672 0.404296,0.38232 0.509765,0.90527 h 0.06152 q 0.03516,-0.21094 0.149414,-0.4834 0.109863,-0.27246 0.276855,-0.46142 z" />
    <path
       inkscape:connector-curvature="0"
       id="path866"
       style="font-style:normal;font-size:medium;text-anchor:middle;fill:none;fill-opacity:1;stroke:#000000;stroke-width:0.25;stroke-linecap:butt;stroke-linejoin:bevel;stroke-dasharray:none;stroke-opacity:1"
       d="m 84.56896,562.55264 v 1.05029 h -1.252441 v -1.05029 z m 3.65625,0 v 1.05029 h -1.252441 v -1.05029 z" />
    <path
       inkscape:connector-curvature="0"
       id="path868"
       style="font-style:normal;font-size:medium;text-anchor:middle;fill:none;fill-opacity:1;stroke:#000000;stroke-width:0.25;stroke-linecap:butt;stroke-linejoin:bevel;stroke-dasharray:none;stroke-opacity:1"
       d="m 88.22521,556.26407 v 3.54199 h -0.667969 v -1.36231 h -4.385742 v 1.36231 h -0.597656 q 0,-0.27686 -0.04394,-0.59326 -0.04834,-0.31641 -0.136231,-0.47901 -0.109863,-0.20215 -0.276855,-0.3164 -0.171387,-0.11866 -0.457031,-0.13623 V 557.6 h 5.897461 v -1.33593 z" />
    <path
       inkscape:connector-curvature="0"
       style="fill:#000000;stroke:#000000;stroke-width:0.25;stroke-linecap:butt;stroke-linejoin:bevel;stroke-dasharray:none;stroke-opacity:1"
       id="path846"
       d="m 90.02503,215.50904 9.99997,-10.00003 -7.49997,10.00002 7.50003,9.99998 z"
       class="arrow" />
    <path
       d="m 101.54944,219.50902 h -4.921871 v -1.02051 q 0.512695,-0.43945 1.025391,-0.8789 0.517578,-0.43946 0.961914,-0.87403 0.9375,-0.9082 1.284179,-1.44043 0.346677,-0.53711 0.346677,-1.15722 0,-0.56641 -0.375973,-0.88379 -0.371094,-0.32227 -1.04004,-0.32227 -0.444335,0 -0.961914,0.15625 -0.517578,0.15625 -1.010742,0.47852 h -0.04883 v -1.02539 q 0.34668,-0.1709 0.922852,-0.3125 0.581054,-0.14161 1.123047,-0.14161 1.118164,0 1.752928,0.542 0.63477,0.53711 0.63477,1.45996 0,0.41504 -0.10742,0.77637 -0.10254,0.35644 -0.30762,0.67871 -0.19043,0.30273 -0.44922,0.5957 -0.25391,0.29297 -0.620118,0.64941 -0.522461,0.5127 -1.079102,0.9961 -0.55664,0.47851 -1.040039,0.88867 h 3.911129 z"
       style="font-style:normal;font-size:medium;text-anchor:middle;fill:none;fill-opacity:1;stroke:#000000;stroke-width:0.25;stroke-linecap:butt;stroke-linejoin:bevel;stroke-dasharray:none;stroke-opacity:1"
       id="path871"
       inkscape:connector-curvature="0" />
    <path
       inkscape:connector-curvature="0"
       id="path874"
       style="font-style:normal;font-size:medium;text-anchor:middle;fill:none;fill-opacity:1;stroke:#000000;stroke-width:0.25;stroke-linecap:butt;stroke-linejoin:bevel;stroke-dasharray:none;stroke-opacity:1"
       d="m 87.725682,217.00307 q 0.08776,-0.098 0.220429,-0.16124 0.132666,-0.0633 0.34289,-0.0633 0.208184,0 0.38167,0.0755 0.173487,0.0755 0.302071,0.21227 0.142872,0.15307 0.212267,0.36126 0.06735,0.20614 0.06736,0.4531 10e-7,0.25309 -0.06123,0.49801 -0.05919,0.24492 -0.130624,0.40208 l -0.426572,0 0,-0.0306 q 0.114296,-0.17349 0.189813,-0.40821 0.07552,-0.23471 0.07552,-0.4531 0,-0.12859 -0.04286,-0.2735 -0.04286,-0.14491 -0.126543,-0.23472 -0.0898,-0.0939 -0.197979,-0.13878 -0.108174,-0.047 -0.273497,-0.047 -0.163281,0 -0.269413,0.0531 -0.108174,0.051 -0.169404,0.14287 -0.06327,0.0918 -0.08572,0.22247 -0.02449,0.13063 -0.02449,0.28166 l 10e-7,0.18369 -0.338809,1e-5 0,-0.14288 q -10e-7,-0.31023 -0.128586,-0.49392 -0.130625,-0.18573 -0.379629,-0.18573 -0.110215,0 -0.191856,0.0469 -0.08368,0.0469 -0.136747,0.13063 -0.05307,0.0878 -0.07348,0.18777 -0.02041,0.10001 -0.02041,0.22655 1e-6,0.1939 0.0694,0.41229 0.0694,0.21839 0.195939,0.41228 l 0,0.0204 -0.426572,0 q -0.07144,-0.14491 -0.130626,-0.38575 -0.06123,-0.24288 -0.06123,-0.46943 -10e-7,-0.22247 0.04082,-0.39188 0.04082,-0.1694 0.130624,-0.30615 0.09797,-0.14695 0.236757,-0.22247 0.138789,-0.0755 0.324521,-0.0755 0.253086,0 0.442901,0.17961 0.187774,0.17757 0.236759,0.42045 l 0.02857,0 q 0.01633,-0.098 0.0694,-0.22451 0.05102,-0.12655 0.128583,-0.21431 z" />
    <path
       inkscape:connector-curvature="0"
       id="path876"
       style="font-style:normal;font-size:medium;text-anchor:middle;fill:none;fill-opacity:1;stroke:#000000;stroke-width:0.25;stroke-linecap:butt;stroke-linejoin:bevel;stroke-dasharray:none;stroke-opacity:1"
       d="m 87.49096,215.26617 10e-7,0.4878 -0.581689,0 -2e-6,-0.4878 z m 1.698125,-10e-6 10e-7,0.4878 -0.581689,1e-5 -2e-6,-0.48781 z" />
    <path
       inkscape:connector-curvature="0"
       id="path878"
       style="font-style:normal;font-size:medium;text-anchor:middle;fill:none;fill-opacity:1;stroke:#000000;stroke-width:0.25;stroke-linecap:butt;stroke-linejoin:bevel;stroke-dasharray:none;stroke-opacity:1"
       d="m 89.189075,212.17198 7e-6,2.05734 -0.426573,1e-5 q -0.183692,-0.21431 -0.367384,-0.42862 -0.183692,-0.21634 -0.365343,-0.40207 -0.37963,-0.39188 -0.602101,-0.53679 -0.224512,-0.14491 -0.483721,-0.14491 -0.236758,0 -0.369423,0.15716 -0.134707,0.15512 -0.134706,0.43474 0,0.18573 0.06531,0.40208 0.06531,0.21634 0.200021,0.42248 l 0,0.0204 -0.428613,1e-5 q -0.07144,-0.14492 -0.130627,-0.38576 -0.05919,-0.24288 -0.05919,-0.46943 -10e-7,-0.46739 0.226551,-0.73272 0.22451,-0.26534 0.610262,-0.26534 0.173487,0 0.324522,0.0449 0.148994,0.0429 0.283702,0.12859 0.126543,0.0796 0.249004,0.18777 0.122461,0.10613 0.271456,0.25921 0.214307,0.21838 0.416368,0.45106 0.200021,0.23268 0.371466,0.43474 l -4e-6,-1.63486 z" />
    <path
       inkscape:connector-curvature="0"
       id="path881"
       style="font-style:normal;font-size:medium;text-anchor:middle;fill:none;fill-opacity:1;stroke:#000000;stroke-width:0.25;stroke-linecap:butt;stroke-linejoin:bevel;stroke-dasharray:none;stroke-opacity:1"
       d="m 155.25371,103.93993 -2.78519,2.18825 -0.41267,-0.52524 1.07122,-0.84164 -2.70951,-3.44866 -1.07123,0.84164 -0.36923,-0.46996 q 0.2177,-0.17104 0.43935,-0.40108 0.21893,-0.23348 0.29249,-0.40305 0.0911,-0.21127 0.0778,-0.41317 -0.0126,-0.20807 -0.17523,-0.44355 l 0.53561,-0.420814 3.64346,4.637374 1.0505,-0.82534 z" />
    <path
       inkscape:connector-curvature="0"
       id="path883"
       style="font-style:normal;font-size:medium;text-anchor:middle;fill:none;fill-opacity:1;stroke:#000000;stroke-width:0.25;stroke-linecap:butt;stroke-linejoin:bevel;stroke-dasharray:none;stroke-opacity:1"
       d="m 159.75977,100.39964 -2.78519,2.18825 -0.41267,-0.52525 1.07123,-0.84163 -2.70952,-3.448658 -1.07123,0.841633 -0.36923,-0.469957 q 0.2177,-0.171042 0.43935,-0.401074 0.21894,-0.233487 0.2925,-0.403052 0.0911,-0.211276 0.0778,-0.413177 -0.0126,-0.208071 -0.17524,-0.443542 l 0.53562,-0.420817 3.64346,4.637374 1.05049,-0.825342 z" />
    <path
       inkscape:connector-curvature="0"
       id="path885"
       style="font-style:normal;font-size:medium;text-anchor:middle;fill:none;fill-opacity:1;stroke:#000000;stroke-width:0.25;stroke-linecap:butt;stroke-linejoin:bevel;stroke-dasharray:none;stroke-opacity:1"
       d="m 160.28267,95.339077 -0.82588,0.648873 -0.77376,-0.984838 0.82588,-0.648872 z m 2.25884,2.875035 -0.82589,0.648872 -0.77376,-0.984837 0.82589,-0.648873 z" />
    <path
       inkscape:connector-curvature="0"
       id="path887"
       style="font-style:normal;font-size:medium;text-anchor:middle;fill:none;fill-opacity:1;stroke:#000000;stroke-width:0.25;stroke-linecap:butt;stroke-linejoin:bevel;stroke-dasharray:none;stroke-opacity:1"
       d="m 167.48643,94.329023 -2.78519,2.188247 -0.41267,-0.525246 1.07122,-0.841634 -2.70951,-3.448659 -1.07123,0.841633 -0.36923,-0.469958 q 0.2177,-0.171041 0.43935,-0.401073 0.21894,-0.233487 0.29249,-0.403052 0.0911,-0.211276 0.0778,-0.413177 -0.0126,-0.208071 -0.17523,-0.443543 l 0.53561,-0.420816 3.64346,4.637376 1.0505,-0.825344 z" />
    <path
       inkscape:connector-curvature="0"
       id="path890"
       style="font-style:normal;font-size:medium;text-anchor:middle;fill:none;fill-opacity:1;stroke:#000000;stroke-width:0.25;stroke-linecap:butt;stroke-linejoin:bevel;stroke-dasharray:none;stroke-opacity:1"
       d="m 289.03908,147.76219 q -0.84814,0 -1.41064,-0.66357 -0.5625,-0.65918 -0.5625,-1.66113 0,-1.06348 0.54931,-1.69629 0.54932,-0.62842 1.40625,-0.62842 0.54493,0 0.98438,0.31641 0.44385,0.3164 0.70312,0.89209 h 0.0264 q 0.28125,-0.52735 0.61524,-0.78223 0.33398,-0.25049 0.83496,-0.25049 0.73828,0 1.23047,0.60645 0.49218,0.60644 0.49218,1.54248 0,0.97998 -0.47021,1.56445 -0.47022,0.58447 -1.19531,0.58447 -0.44385,0 -0.87452,-0.27685 -0.42627,-0.27686 -0.66796,-0.81299 h -0.0264 q -0.26367,0.61523 -0.65039,0.94043 -0.38672,0.32519 -0.98438,0.32519 z m 3.19483,-1.0415 q 0.47021,0 0.74707,-0.36475 0.28125,-0.36035 0.28125,-0.92285 0,-0.55371 -0.26367,-0.90967 -0.26368,-0.35156 -0.71192,-0.35156 -0.31641,0 -0.54932,0.17578 -0.22851,0.18018 -0.40869,0.54053 -0.0791,0.1626 -0.20654,0.46582 -0.12744,0.30762 -0.21094,0.59766 0.29004,0.43506 0.60205,0.60205 0.31202,0.16699 0.72071,0.16699 z m -3.27832,0.13623 q 0.40429,0 0.64599,-0.18017 0.2461,-0.17579 0.49219,-0.69434 0.0967,-0.20654 0.18018,-0.45264 0.0835,-0.24609 0.23291,-0.65478 -0.21534,-0.39551 -0.58448,-0.63721 -0.36914,-0.2373 -0.83496,-0.2373 -0.59326,0 -0.97998,0.40869 -0.38672,0.40869 -0.38672,1.03711 0,0.6416 0.32959,1.02392 0.32959,0.38672 0.90528,0.38672 z" />
    <path
       inkscape:connector-curvature="0"
       id="path892"
       style="font-style:normal;font-size:medium;text-anchor:middle;fill:none;fill-opacity:1;stroke:#000000;stroke-width:0.25;stroke-linecap:butt;stroke-linejoin:bevel;stroke-dasharray:none;stroke-opacity:1"
       d="m 290.8716,150.87792 v -1.0503 h 1.25244 v 1.0503 z m -3.65625,0 v -1.0503 h 1.25244 v 1.0503 z" />
    <path
       inkscape:connector-curvature="0"
       id="path894"
       style="font-style:normal;font-size:medium;text-anchor:middle;fill:none;fill-opacity:1;stroke:#000000;stroke-width:0.25;stroke-linecap:butt;stroke-linejoin:bevel;stroke-dasharray:none;stroke-opacity:1"
       d="m 287.21535,157.16649 v -3.54199 h 0.66797 v 1.3623 h 4.38574 v -1.3623 h 0.59766 q 0,0.27685 0.0439,0.59326 0.0483,0.31641 0.13623,0.479 0.10987,0.20215 0.27686,0.31641 0.17139,0.11865 0.45703,0.13623 v 0.68115 h -5.89746 v 1.33594 z" />
    <path
       inkscape:connector-curvature="0"
       id="path897"
       style="font-style:normal;font-size:medium;text-anchor:middle;fill:none;fill-opacity:1;stroke:#000000;stroke-width:0.25;stroke-linecap:butt;stroke-linejoin:bevel;stroke-dasharray:none;stroke-opacity:1"
       d="m 273.33267,556.66462 2.09202,-2.85818 0.53901,0.39453 -0.80462,1.0993 3.53903,2.59036 0.80462,-1.0993 0.48227,0.353 q -0.16352,0.22341 -0.31493,0.50468 -0.14788,0.28387 -0.17299,0.46699 -0.0307,0.22801 0.0365,0.41884 0.0682,0.19697 0.28833,0.37987 l -0.40231,0.54965 -4.7589,-3.48324 -0.78905,1.07803 z" />
    <path
       inkscape:connector-curvature="0"
       id="path899"
       style="font-style:normal;font-size:medium;text-anchor:middle;fill:none;fill-opacity:1;stroke:#000000;stroke-width:0.25;stroke-linecap:butt;stroke-linejoin:bevel;stroke-dasharray:none;stroke-opacity:1"
       d="m 271.38312,562.92186 q -0.80497,-0.5892 -0.92628,-1.49487 -0.12036,-0.89954 0.44288,-1.66905 0.28551,-0.39007 0.63968,-0.62098 0.35417,-0.2309 0.77085,-0.30168 0.51755,-0.0895 1.12536,0.0994 0.60521,0.19247 1.28961,0.69341 0.70214,0.51392 1.13568,1.05998 0.43095,0.5496 0.61155,1.18826 0.1723,0.60536 0.0349,1.26179 -0.13383,0.65903 -0.61401,1.31506 -0.15314,0.20922 -0.27469,0.33809 -0.12156,0.12886 -0.27407,0.24051 l -0.67731,-0.49575 0.0259,-0.0355 q 0.12587,-0.0604 0.31992,-0.22874 0.19499,-0.16225 0.34813,-0.37147 0.55804,-0.76242 0.41155,-1.56672 -0.14295,-0.80171 -0.90051,-1.47056 -0.0372,0.43025 -0.15521,0.78497 -0.11709,0.36086 -0.39482,0.7403 -0.24657,0.33688 -0.49728,0.54548 -0.24976,0.21474 -0.63497,0.34668 -0.44472,0.15373 -0.88872,0.0684 -0.44659,-0.0818 -0.91822,-0.42702 z m 0.49853,-0.74063 q 0.32979,0.24138 0.61878,0.30042 0.28639,0.0626 0.60949,-0.044 0.23287,-0.0801 0.41368,-0.25269 0.18081,-0.17263 0.33914,-0.38894 0.22062,-0.30142 0.33918,-0.6122 0.11855,-0.31078 0.16947,-0.69284 -0.0728,-0.0642 -0.1447,-0.12225 -0.0683,-0.0555 -0.17826,-0.13592 -0.56028,-0.4101 -0.96958,-0.53541 -0.40835,-0.11917 -0.74425,-0.0546 -0.27542,0.0489 -0.48745,0.18236 -0.21109,0.13957 -0.37461,0.36298 -0.37635,0.51419 -0.27972,1.03693 0.10017,0.52533 0.68883,0.95619 z" />
    <path
       inkscape:connector-curvature="0"
       id="path901"
       style="font-style:normal;font-size:medium;text-anchor:middle;fill:none;fill-opacity:1;stroke:#000000;stroke-width:0.25;stroke-linecap:butt;stroke-linejoin:bevel;stroke-dasharray:none;stroke-opacity:1"
       d="m 270.80902,566.3029 0.62034,-0.84753 1.01064,0.73974 -0.62034,0.84752 z m -2.95038,-2.1595 0.62034,-0.84753 1.01065,0.73974 -0.62034,0.84752 z" />
    <path
       inkscape:connector-curvature="0"
       id="path903"
       style="font-style:normal;font-size:medium;text-anchor:middle;fill:none;fill-opacity:1;stroke:#000000;stroke-width:0.25;stroke-linecap:butt;stroke-linejoin:bevel;stroke-dasharray:none;stroke-opacity:1"
       d="m 263.92378,569.51932 2.61632,-3.57449 0.74114,0.54247 q 0.0466,0.60594 0.0932,1.21188 0.044,0.60949 0.12343,1.1632 0.16123,1.16362 0.36347,1.69831 0.20579,0.53729 0.65615,0.86693 0.41135,0.30108 0.84171,0.19674 0.4313,-0.0982 0.7869,-0.58402 0.23619,-0.32269 0.39784,-0.78164 0.16166,-0.45895 0.18976,-0.98841 l 0.026,-0.0355 0.74469,0.54506 q -0.0602,0.34262 -0.26361,0.83634 -0.20604,0.49725 -0.49414,0.89087 -0.59439,0.81207 -1.32543,0.98496 -0.72749,0.17548 -1.39771,-0.31508 -0.30142,-0.22062 -0.50673,-0.49071 -0.20436,-0.26394 -0.32939,-0.58418 -0.11864,-0.29923 -0.19384,-0.64291 -0.0778,-0.34013 -0.142,-0.79556 -0.0946,-0.65197 -0.14979,-1.31319 -0.0516,-0.65862 -0.0925,-1.22772 l -2.07904,2.84045 z" />
    <path
       inkscape:connector-curvature="0"
       id="path906"
       style="font-style:normal;font-size:medium;text-anchor:middle;fill:none;fill-opacity:1;stroke:#000000;stroke-width:0.25;stroke-linecap:butt;stroke-linejoin:bevel;stroke-dasharray:none;stroke-opacity:1"
       d="m 231.22284,585.38328 h 3.542 v 0.66797 h -1.36231 v 4.38574 h 1.36231 v 0.59766 q -0.27686,0 -0.59327,0.0439 -0.3164,0.0483 -0.479,0.13623 -0.20215,0.10987 -0.31641,0.27686 -0.11865,0.17138 -0.13623,0.45703 h -0.68115 v -5.89746 h -1.33594 z" />
    <path
       inkscape:connector-curvature="0"
       id="path908"
       style="font-style:normal;font-size:medium;text-anchor:middle;fill:none;fill-opacity:1;stroke:#000000;stroke-width:0.25;stroke-linecap:butt;stroke-linejoin:bevel;stroke-dasharray:none;stroke-opacity:1"
       d="m 225.11884,585.38328 h 4.42969 v 0.91846 q -0.46143,0.3955 -0.92286,0.79101 -0.46582,0.39551 -0.86572,0.78662 -0.84375,0.81739 -1.15576,1.29639 -0.31201,0.4834 -0.31201,1.0415 0,0.50977 0.33838,0.79541 0.33398,0.29004 0.93603,0.29004 0.39991,0 0.86573,-0.14062 0.46582,-0.14063 0.90966,-0.43067 h 0.0439 v 0.92286 q -0.31201,0.1538 -0.83057,0.28125 -0.52295,0.12744 -1.01074,0.12744 -1.00635,0 -1.57764,-0.4878 -0.57129,-0.48339 -0.57129,-1.31396 0,-0.37354 0.0967,-0.69873 0.0923,-0.3208 0.27686,-0.61084 0.17139,-0.27246 0.4043,-0.53613 0.22851,-0.26368 0.5581,-0.58448 0.47022,-0.46142 0.97119,-0.89648 0.50098,-0.43066 0.93604,-0.79981 h -3.52002 z" />
    <path
       inkscape:connector-curvature="0"
       id="path910"
       style="font-style:normal;font-size:medium;text-anchor:middle;fill:none;fill-opacity:1;stroke:#000000;stroke-width:0.25;stroke-linecap:butt;stroke-linejoin:bevel;stroke-dasharray:none;stroke-opacity:1"
       d="m 221.95478,589.03953 h 1.05029 v 1.25244 h -1.05029 z m 0,-3.65625 h 1.05029 v 1.25244 h -1.05029 z" />
    <path
       inkscape:connector-curvature="0"
       id="path912"
       style="font-style:normal;font-size:medium;text-anchor:middle;fill:none;fill-opacity:1;stroke:#000000;stroke-width:0.25;stroke-linecap:butt;stroke-linejoin:bevel;stroke-dasharray:none;stroke-opacity:1"
       d="m 215.14325,587.22459 h 0.97119 v -1.84131 h 0.84375 v 1.84131 h 3.13331 v 1.01074 l -3.16846,3.69141 h -0.8086 v -3.99903 h -0.97119 z m 1.81494,0.70312 v 2.95313 l 2.53565,-2.95313 z" />
    <path
       inkscape:connector-curvature="0"
       id="path915"
       style="font-style:normal;font-size:medium;text-anchor:middle;fill:none;fill-opacity:1;stroke:#000000;stroke-width:0.25;stroke-linecap:butt;stroke-linejoin:bevel;stroke-dasharray:none;stroke-opacity:1"
       d="m 143.14294,154.14224 q 0.99756,0 1.63037,0.65918 0.62842,0.65478 0.62842,1.6084 0,0.4834 -0.14941,0.8789 -0.14942,0.39551 -0.44385,0.69873 -0.36475,0.37793 -0.9668,0.58448 -0.60205,0.20215 -1.45019,0.20215 -0.87012,0 -1.54248,-0.18458 -0.67237,-0.18896 -1.19532,-0.59765 -0.49658,-0.38672 -0.77343,-0.99756 -0.28125,-0.61084 -0.28125,-1.42383 0,-0.25928 0.022,-0.43506 0.022,-0.17578 0.0791,-0.35595 h 0.83936 v 0.0439 q -0.0659,0.12305 -0.12305,0.37354 -0.0615,0.24609 -0.0615,0.50537 0,0.94482 0.59326,1.50732 0.58887,0.5625 1.59521,0.65479 -0.22412,-0.36914 -0.33838,-0.7251 -0.11865,-0.36035 -0.11865,-0.83057 0,-0.41748 0.0791,-0.73388 0.0747,-0.3208 0.30762,-0.65479 0.26807,-0.38672 0.67676,-0.58008 0.40869,-0.19775 0.99316,-0.19775 z m 0.0352,0.89209 q -0.40869,0 -0.67676,0.12305 -0.26807,0.11865 -0.46582,0.3955 -0.14063,0.20215 -0.18457,0.44825 -0.044,0.24609 -0.044,0.51416 0,0.37353 0.0879,0.69433 0.0879,0.3208 0.27247,0.65918 0.0967,0.009 0.18896,0.0132 0.0879,0.004 0.22412,0.004 0.69434,0 1.09863,-0.14063 0.39991,-0.14502 0.63282,-0.39551 0.19336,-0.20215 0.28564,-0.43506 0.0879,-0.2373 0.0879,-0.51416 0,-0.6372 -0.38672,-1.00195 -0.39111,-0.36475 -1.1206,-0.36475 z" />
    <path
       inkscape:connector-curvature="0"
       id="path917"
       style="font-style:normal;font-size:medium;text-anchor:middle;fill:none;fill-opacity:1;stroke:#000000;stroke-width:0.25;stroke-linecap:butt;stroke-linejoin:bevel;stroke-dasharray:none;stroke-opacity:1"
       d="m 145.2655,151.48355 v 1.05029 h -1.25244 v -1.05029 z" />
    <path
       inkscape:connector-curvature="0"
       id="path919"
       style="font-style:normal;font-size:medium;text-anchor:middle;fill:none;fill-opacity:1;stroke:#000000;stroke-width:0.25;stroke-linecap:butt;stroke-linejoin:bevel;stroke-dasharray:none;stroke-opacity:1"
       d="m 141.60925,147.80533 v 1.05029 h -1.25244 v -1.05029 z m 3.65625,0 v 1.05029 h -1.25244 v -1.05029 z" />
    <path
       inkscape:connector-curvature="0"
       id="path921"
       style="font-style:normal;font-size:medium;text-anchor:middle;fill:none;fill-opacity:1;stroke:#000000;stroke-width:0.25;stroke-linecap:butt;stroke-linejoin:bevel;stroke-dasharray:none;stroke-opacity:1"
       d="m 139.70202,141.12564 5.56348,2.96191 v 0.94043 l -5.77441,-3.15088 v 3.72656 h -0.76905 v -4.47802 z" />
    <path
       inkscape:connector-curvature="0"
       id="path924"
       style="font-style:normal;font-size:medium;text-anchor:middle;fill:none;fill-opacity:1;stroke:#000000;stroke-width:0.25;stroke-linecap:butt;stroke-linejoin:bevel;stroke-dasharray:none;stroke-opacity:1"
       d="m 270.62998,96.39421 -2.58889,-2.417303 0.45586,-0.488227 0.99573,0.929732 2.99314,-3.2056 -0.99573,-0.929732 0.40788,-0.436835 q 0.20236,0.188946 0.46362,0.372763 0.26425,0.180606 0.44308,0.227333 0.22273,0.05766 0.42021,0.01358 0.20369,-0.04429 0.41149,-0.241078 l 0.49786,0.464866 -4.02484,4.310536 0.97646,0.911737 z" />
    <path
       inkscape:connector-curvature="0"
       id="path926"
       style="font-style:normal;font-size:medium;text-anchor:middle;fill:none;fill-opacity:1;stroke:#000000;stroke-width:0.25;stroke-linecap:butt;stroke-linejoin:bevel;stroke-dasharray:none;stroke-opacity:1"
       d="m 274.81846,100.30508 -2.5889,-2.417301 0.45587,-0.488227 0.99573,0.929732 2.99314,-3.2056 -0.99573,-0.929732 0.40788,-0.436835 q 0.20236,0.188946 0.46362,0.372763 0.26425,0.180606 0.44308,0.227333 0.22273,0.05766 0.42021,0.01358 0.20369,-0.04429 0.41148,-0.241078 l 0.49787,0.464866 -4.02484,4.310536 0.97645,0.911737 z" />
    <path
       inkscape:connector-curvature="0"
       id="path928"
       style="font-style:normal;font-size:medium;text-anchor:middle;fill:none;fill-opacity:1;stroke:#000000;stroke-width:0.25;stroke-linecap:butt;stroke-linejoin:bevel;stroke-dasharray:none;stroke-opacity:1"
       d="m 279.89941,100.04698 -0.76767,-0.716791 0.85475,-0.915427 0.76768,0.716793 z m -2.49528,2.67241 -0.76767,-0.7168 0.85475,-0.91542 0.76768,0.71679 z" />
    <path
       inkscape:connector-curvature="0"
       id="path930"
       style="font-style:normal;font-size:medium;text-anchor:middle;fill:none;fill-opacity:1;stroke:#000000;stroke-width:0.25;stroke-linecap:butt;stroke-linejoin:bevel;stroke-dasharray:none;stroke-opacity:1"
       d="m 284.00317,104.57017 q 0.0252,0.28207 -0.0702,0.58383 -0.0954,0.30175 -0.40428,0.63259 -0.30591,0.32763 -0.67969,0.48968 -0.37377,0.16205 -0.77792,0.16347 -0.45084,-9e-5 -0.88044,-0.1968 -0.42338,-0.19691 -0.81204,-0.55981 -0.39829,-0.37189 -0.69376,-0.82815 -0.29846,-0.45304 -0.44082,-0.7964 l 0.62682,-0.67131 0.0482,0.045 q 0.10507,0.4348 0.36348,0.89854 0.25842,0.46375 0.60211,0.78466 0.20235,0.18894 0.49339,0.33443 0.29103,0.14548 0.55533,0.14575 0.27971,-0.003 0.50933,-0.10762 0.23283,-0.10126 0.47576,-0.36143 0.23993,-0.25697 0.31238,-0.50197 0.0786,-0.24521 0.0241,-0.47654 -0.0516,-0.23453 -0.22414,-0.46181 -0.16959,-0.23049 -0.40727,-0.45242 l -0.28909,-0.26992 0.49786,-0.5332 0.22484,0.20994 q 0.48823,0.45587 0.96626,0.52343 0.48424,0.0674 0.85013,-0.32451 0.16195,-0.17345 0.20804,-0.37091 0.0491,-0.20068 -0.005,-0.40715 -0.0601,-0.21248 -0.18753,-0.39156 -0.1274,-0.17907 -0.32655,-0.36502 -0.30514,-0.28492 -0.7508,-0.49662 -0.44565,-0.21169 -0.93674,-0.29747 l -0.0321,-0.03 0.62682,-0.671311 q 0.33302,0.100518 0.79901,0.361271 0.47221,0.26053 0.82874,0.59344 0.35011,0.3269 0.55673,0.64007 0.20661,0.31317 0.28986,0.65544 0.0873,0.37012 0.002,0.6995 -0.0851,0.32939 -0.35802,0.62168 -0.37189,0.39829 -0.93347,0.43309 -0.55536,0.0346 -1.00957,-0.24523 l -0.042,0.045 q 0.13018,0.16965 0.25135,0.43911 0.12417,0.26625 0.14832,0.51727 z" />
    <path
       inkscape:connector-curvature="0"
       id="path933"
       style="font-style:normal;font-size:medium;text-anchor:middle;fill:none;fill-opacity:1;stroke:#000000;stroke-width:0.25;stroke-linecap:butt;stroke-linejoin:bevel;stroke-dasharray:none;stroke-opacity:1"
       d="m 287.09834,215.08842 q -0.39391,0 -0.65516,-0.3082 -0.26125,-0.30615 -0.26125,-0.7715 0,-0.49393 0.25513,-0.78783 0.25513,-0.29187 0.65312,-0.29187 0.25309,0 0.45719,0.14696 0.20614,0.14695 0.32656,0.41432 l 0.0123,0 q 0.13062,-0.24492 0.28574,-0.3633 0.15512,-0.11633 0.38779,-0.11633 0.34289,0 0.57149,0.28166 0.22859,0.28166 0.22859,0.7164 0,0.45514 -0.21839,0.7266 -0.21839,0.27145 -0.55516,0.27145 -0.20614,0 -0.40616,-0.12858 -0.19798,-0.12859 -0.31023,-0.37759 l -0.0122,0 q -0.12246,0.28574 -0.30207,0.43677 -0.17961,0.15104 -0.45719,0.15104 z m 1.48382,-0.48372 q 0.21839,0 0.34698,-0.1694 0.13062,-0.16737 0.13062,-0.42862 0,-0.25716 -0.12246,-0.42249 -0.12246,-0.16328 -0.33064,-0.16328 -0.14696,0 -0.25513,0.0816 -0.10613,0.0837 -0.18982,0.25105 -0.0367,0.0755 -0.0959,0.21634 -0.0592,0.14287 -0.098,0.27758 0.1347,0.20206 0.27962,0.27962 0.14491,0.0776 0.33472,0.0776 z m -1.5226,0.0633 q 0.18778,0 0.30003,-0.0837 0.1143,-0.0816 0.2286,-0.32248 0.0449,-0.0959 0.0837,-0.21023 0.0388,-0.11429 0.10818,-0.30411 -0.10001,-0.18369 -0.27146,-0.29595 -0.17144,-0.11021 -0.38779,-0.11021 -0.27554,0 -0.45515,0.18981 -0.17961,0.18982 -0.17961,0.48168 0,0.29799 0.15308,0.47556 0.15307,0.17961 0.42044,0.17961 z" />
    <path
       inkscape:connector-curvature="0"
       id="path935"
       style="font-style:normal;font-size:medium;text-anchor:middle;fill:none;fill-opacity:1;stroke:#000000;stroke-width:0.25;stroke-linecap:butt;stroke-linejoin:bevel;stroke-dasharray:none;stroke-opacity:1"
       d="m 287.94944,216.5355 0,-0.4878 0.58169,0 0,0.4878 z m -1.69812,0 0,-0.48781 0.58169,0 0,0.48781 z" />
    <path
       inkscape:connector-curvature="0"
       id="path937"
       style="font-style:normal;font-size:medium;text-anchor:middle;fill:none;fill-opacity:1;stroke:#000000;stroke-width:0.25;stroke-linecap:butt;stroke-linejoin:bevel;stroke-dasharray:none;stroke-opacity:1"
       d="m 287.09833,219.65213 q -0.39391,0 -0.65516,-0.3082 -0.26125,-0.30615 -0.26125,-0.7715 0,-0.49393 0.25513,-0.78783 0.25513,-0.29187 0.65312,-0.29187 0.25309,0 0.45719,0.14696 0.20614,0.14695 0.32656,0.41432 l 0.0122,1e-5 q 0.13062,-0.24493 0.28574,-0.36331 0.15512,-0.11633 0.3878,-0.11633 0.34289,0 0.57148,0.28166 0.22859,0.28166 0.22859,0.7164 0,0.45514 -0.21839,0.7266 -0.21839,0.27145 -0.55516,0.27145 -0.20614,0 -0.40616,-0.12858 -0.19798,-0.12859 -0.31023,-0.37759 l -0.0122,0 q -0.12246,0.28574 -0.30207,0.43677 -0.17961,0.15104 -0.45719,0.15104 z m 1.48382,-0.48372 q 0.21839,0 0.34698,-0.1694 0.13062,-0.16737 0.13062,-0.42862 0,-0.25716 -0.12246,-0.42249 -0.12246,-0.16328 -0.33064,-0.16328 -0.14696,0 -0.25513,0.0816 -0.10613,0.0837 -0.18981,0.25105 -0.0367,0.0755 -0.0959,0.21634 -0.0592,0.14288 -0.098,0.27758 0.1347,0.20206 0.27962,0.27962 0.14491,0.0776 0.33472,0.0776 z m -1.52259,0.0633 q 0.18777,0 0.30002,-0.0837 0.1143,-0.0816 0.2286,-0.32248 0.0449,-0.0959 0.0837,-0.21023 0.0388,-0.11429 0.10818,-0.30411 -0.10001,-0.18369 -0.27146,-0.29595 -0.17144,-0.11021 -0.38779,-0.11021 -0.27554,0 -0.45515,0.18981 -0.17961,0.18982 -0.17961,0.48168 0,0.29799 0.15308,0.47556 0.15307,0.17961 0.42045,0.17961 z" />
    <path
       inkscape:connector-curvature="0"
       id="path940"
       style="font-style:normal;font-size:medium;text-anchor:middle;fill:none;fill-opacity:1;stroke:#000000;stroke-width:0.25;stroke-linecap:butt;stroke-linejoin:bevel;stroke-dasharray:none;stroke-opacity:1"
       d="m 113.81116,585.38324 h 3.542 v 0.66797 h -1.36231 v 4.38574 l 1.36231,0 v 0.59766 q -0.27686,0 -0.59326,0.0439 -0.31641,0.0483 -0.47901,0.13623 -0.20215,0.10987 -0.31641,0.27686 -0.11865,0.17138 -0.13623,0.45703 h -0.68115 v -5.89746 h -1.33594 z" />
    <path
       inkscape:connector-curvature="0"
       id="path942"
       style="font-style:normal;font-size:medium;text-anchor:middle;fill:none;fill-opacity:1;stroke:#000000;stroke-width:0.25;stroke-linecap:butt;stroke-linejoin:bevel;stroke-dasharray:none;stroke-opacity:1"
       d="m 107.70716,585.38324 h 4.42969 v 0.91846 q -0.46143,0.3955 -0.92285,0.79101 -0.46582,0.39551 -0.86573,0.78662 -0.84375,0.81739 -1.15576,1.29639 -0.31201,0.4834 -0.31201,1.0415 0,0.50977 0.33838,0.79541 0.33398,0.29004 0.93603,0.29004 0.39991,0 0.86573,-0.14062 0.46582,-0.14063 0.90967,-0.43067 h 0.0439 v 0.92286 q -0.31201,0.1538 -0.83057,0.28125 -0.52295,0.12744 -1.01074,0.12744 -1.00635,0 -1.57764,-0.4878 -0.57128,-0.48339 -0.57128,-1.31396 0,-0.37354 0.0967,-0.69873 0.0923,-0.3208 0.27685,-0.61084 0.17139,-0.27246 0.4043,-0.53613 0.22851,-0.26368 0.5581,-0.58448 0.47022,-0.46142 0.97119,-0.89648 0.50098,-0.43066 0.93604,-0.79981 h -3.52002 z" />
    <path
       inkscape:connector-curvature="0"
       id="path944"
       style="font-style:normal;font-size:medium;text-anchor:middle;fill:none;fill-opacity:1;stroke:#000000;stroke-width:0.25;stroke-linecap:butt;stroke-linejoin:bevel;stroke-dasharray:none;stroke-opacity:1"
       d="m 104.5431,589.03949 h 1.05029 v 1.25244 h -1.05029 z m 0,-3.65625 h 1.05029 v 1.25244 h -1.05029 z" />
    <path
       inkscape:connector-curvature="0"
       id="path946"
       style="font-style:normal;font-size:medium;text-anchor:middle;fill:none;fill-opacity:1;stroke:#000000;stroke-width:0.25;stroke-linecap:butt;stroke-linejoin:bevel;stroke-dasharray:none;stroke-opacity:1"
       d="m 97.784309,587.5058 q 0,-0.99756 0.65918,-1.63037 0.654785,-0.62842 1.608401,-0.62842 0.4834,0 0.8789,0.14941 0.39551,0.14942 0.69873,0.44385 0.37793,0.36475 0.58448,0.9668 0.20214,0.60205 0.20214,1.45019 0,0.87012 -0.18457,1.54248 -0.18896,0.67237 -0.59765,1.19532 -0.38672,0.49658 -0.99756,0.77343 -0.61084,0.28125 -1.423828,0.28125 -0.259278,0 -0.435059,-0.022 -0.175781,-0.022 -0.355957,-0.0791 v -0.83936 h 0.04395 q 0.123047,0.0659 0.373535,0.12305 0.246094,0.0615 0.505371,0.0615 0.944823,0 1.507323,-0.59326 0.5625,-0.58887 0.65479,-1.59521 -0.36914,0.22412 -0.7251,0.33838 -0.36035,0.11865 -0.830567,0.11865 -0.417481,0 -0.733887,-0.0791 -0.320801,-0.0747 -0.654785,-0.30762 -0.386719,-0.26807 -0.580078,-0.67676 -0.197754,-0.40869 -0.197754,-0.99316 z m 0.89209,-0.0352 q 0,0.40869 0.123047,0.67676 0.118652,0.26807 0.395508,0.46582 0.202148,0.14063 0.448242,0.18457 0.246093,0.0439 0.514164,0.0439 0.37353,0 0.69433,-0.0879 0.3208,-0.0879 0.65918,-0.27247 0.009,-0.0967 0.0132,-0.18896 0.004,-0.0879 0.004,-0.22412 0,-0.69434 -0.14063,-1.09863 -0.14502,-0.39991 -0.39551,-0.63282 -0.20215,-0.19336 -0.43506,-0.28564 -0.2373,-0.0879 -0.51416,-0.0879 -0.637203,0 -1.001949,0.38672 -0.364746,0.39111 -0.364746,1.1206 z" />
    <path
       inkscape:connector-curvature="0"
       id="path948"
       style="font-style:normal;font-size:medium;text-anchor:middle;fill:none;fill-opacity:1;stroke:#000000;stroke-width:0.25;stroke-linecap:butt;stroke-linejoin:bevel;stroke-dasharray:none;stroke-opacity:1"
       d="m 95.125618,585.38324 h 1.050293 v 1.25244 h -1.050293 z" />
    <path
       inkscape:connector-curvature="0"
       id="path951"
       style="font-style:normal;font-size:medium;text-anchor:middle;fill:none;fill-opacity:1;stroke:#000000;stroke-width:0.25;stroke-linecap:butt;stroke-linejoin:bevel;stroke-dasharray:none;stroke-opacity:1"
       d="m 100.48238,206.94232 q 0,0.99756 -0.659185,1.63037 -0.654785,0.62842 -1.608398,0.62842 -0.483398,0 -0.878906,-0.14941 -0.395508,-0.14942 -0.698731,-0.44385 -0.377929,-0.36475 -0.584472,-0.9668 -0.202149,-0.60205 -0.202149,-1.45019 0,-0.87012 0.184571,-1.54248 0.188964,-0.67237 0.597656,-1.19532 0.386719,-0.49658 0.997558,-0.77343 0.61084,-0.28125 1.423828,-0.28125 0.259278,0 0.435059,0.022 0.175781,0.022 0.355957,0.0791 v 0.83936 h -0.04395 q -0.123047,-0.0659 -0.373535,-0.12305 -0.246094,-0.0615 -0.505371,-0.0615 -0.944824,0 -1.507324,0.59326 -0.5625,0.58887 -0.654785,1.59521 0.36914,-0.22412 0.725097,-0.33838 0.360352,-0.11865 0.830567,-0.11865 0.41748,0 0.733886,0.0791 0.320801,0.0747 0.654785,0.30762 0.386717,0.26807 0.580077,0.67676 0.19776,0.40869 0.19776,0.99316 z m -0.892095,0.0352 q 0,-0.40869 -0.123047,-0.67676 -0.118652,-0.26807 -0.395507,-0.46582 -0.202149,-0.14063 -0.448243,-0.18457 -0.246093,-0.0439 -0.51416,-0.0439 -0.373535,0 -0.694336,0.0879 -0.3208,0.0879 -0.659179,0.27247 -0.0088,0.0967 -0.01318,0.18896 -0.0044,0.0879 -0.0044,0.22412 0,0.69434 0.140625,1.09863 0.145019,0.39991 0.395507,0.63282 0.202149,0.19336 0.435059,0.28564 0.237305,0.0879 0.51416,0.0879 0.637207,0 1.001953,-0.38672 0.364746,-0.39111 0.364746,-1.1206 z" />
    <path
       inkscape:connector-curvature="0"
       id="path953"
       style="font-style:normal;font-size:medium;text-anchor:middle;fill:none;fill-opacity:1;stroke:#000000;stroke-width:0.25;stroke-linecap:butt;stroke-linejoin:bevel;stroke-dasharray:none;stroke-opacity:1"
       d="m 103.14107,209.06488 h -1.0503 v -1.25244 h 1.0503 z" />
    <path
       inkscape:connector-curvature="0"
       id="path955"
       style="font-style:normal;font-size:medium;text-anchor:middle;fill:none;fill-opacity:1;stroke:#000000;stroke-width:0.25;stroke-linecap:butt;stroke-linejoin:bevel;stroke-dasharray:none;stroke-opacity:1"
       d="M 106.81929,205.40863 H 105.769 v -1.25244 h 1.05029 z m 0,3.65625 H 105.769 v -1.25244 h 1.05029 z" />
    <path
       inkscape:connector-curvature="0"
       id="path957"
       style="font-style:normal;font-size:medium;text-anchor:middle;fill:none;fill-opacity:1;stroke:#000000;stroke-width:0.25;stroke-linecap:butt;stroke-linejoin:bevel;stroke-dasharray:none;stroke-opacity:1"
       d="m 113.47261,205.39984 q 0,0.85693 -0.19775,1.55566 -0.19336,0.69874 -0.58887,1.19092 -0.3999,0.50098 -1.00195,0.77344 -0.60206,0.27246 -1.41504,0.27246 -0.22852,0 -0.43067,-0.0264 -0.20215,-0.022 -0.36035,-0.0747 v -0.83936 h 0.0439 q 0.12744,0.0659 0.36035,0.12744 0.23291,0.0571 0.51855,0.0571 0.97119,0 1.52051,-0.58008 0.55371,-0.58447 0.6416,-1.60839 -0.40869,0.24609 -0.76904,0.35156 -0.36035,0.10547 -0.78662,0.10547 -0.4043,0 -0.73389,-0.0791 -0.32519,-0.0791 -0.65478,-0.30762 -0.38672,-0.26807 -0.58448,-0.68115 -0.19336,-0.41309 -0.19336,-0.98877 0,-1.00196 0.65918,-1.63038 0.65918,-0.62841 1.6084,-0.62841 0.47461,0 0.87891,0.14941 0.40429,0.14502 0.70752,0.43945 0.37353,0.36475 0.57568,0.94043 0.20215,0.57129 0.20215,1.48096 z m -0.8877,-0.18896 q 0,-0.68116 -0.14062,-1.09424 -0.14063,-0.41309 -0.38672,-0.6416 -0.20654,-0.19776 -0.44385,-0.28125 -0.2373,-0.0879 -0.51416,-0.0879 -0.63281,0 -1.00195,0.3955 -0.36475,0.39551 -0.36475,1.11182 0,0.41748 0.11866,0.68115 0.11865,0.26367 0.3999,0.46143 0.19775,0.13623 0.43506,0.18457 0.2373,0.0439 0.52734,0.0439 0.34277,0 0.69434,-0.0923 0.35156,-0.0923 0.65918,-0.26807 0.004,-0.0923 0.009,-0.18017 0.009,-0.0923 0.009,-0.23291 z" />
    <path
       inkscape:connector-curvature="0"
       id="path959"
       style="font-style:normal;font-size:medium;text-anchor:middle;fill:none;fill-opacity:1;stroke:#000000;stroke-width:0.25;stroke-linecap:butt;stroke-linejoin:bevel;stroke-dasharray:none;stroke-opacity:1"
       d="m 116.23677,209.06488 h -1.05029 v -1.25244 h 1.05029 z" />
    <path
       inkscape:connector-curvature="0"
       id="path962"
       style="font-style:normal;font-size:medium;text-anchor:middle;fill:none;fill-opacity:1;stroke:#000000;stroke-width:0.25;stroke-linecap:butt;stroke-linejoin:bevel;stroke-dasharray:none;stroke-opacity:1"
       d="m 287.21536,254.82212 v -3.54199 h 0.66797 v 1.3623 h 4.38574 v -1.3623 h 0.59766 q 0,0.27685 0.0439,0.59326 0.0483,0.3164 0.13623,0.479 0.10986,0.20215 0.27686,0.31641 0.17138,0.11865 0.45703,0.13623 v 0.68115 h -5.89746 v 1.33594 z" />
    <path
       inkscape:connector-curvature="0"
       id="path964"
       style="font-style:normal;font-size:medium;text-anchor:middle;fill:none;fill-opacity:1;stroke:#000000;stroke-width:0.25;stroke-linecap:butt;stroke-linejoin:bevel;stroke-dasharray:none;stroke-opacity:1"
       d="m 289.33792,261.0228 q -0.99756,0 -1.63037,-0.65918 -0.62842,-0.65478 -0.62842,-1.6084 0,-0.48339 0.14941,-0.8789 0.14942,-0.39551 0.44385,-0.69873 0.36475,-0.37793 0.9668,-0.58448 0.60205,-0.20214 1.45019,-0.20214 0.87012,0 1.54248,0.18457 0.67237,0.18896 1.19532,0.59765 0.49658,0.38672 0.77343,0.99756 0.28125,0.61084 0.28125,1.42383 0,0.25928 -0.022,0.43506 -0.022,0.17578 -0.0791,0.35595 h -0.83936 v -0.0439 q 0.0659,-0.12305 0.12305,-0.37354 0.0615,-0.24609 0.0615,-0.50537 0,-0.94482 -0.59326,-1.50732 -0.58887,-0.5625 -1.59521,-0.65479 0.22412,0.36914 0.33837,0.7251 0.11866,0.36035 0.11866,0.83057 0,0.41748 -0.0791,0.73388 -0.0747,0.32081 -0.30762,0.65479 -0.26807,0.38672 -0.67676,0.58008 -0.40869,0.19775 -0.99316,0.19775 z m -0.0352,-0.89209 q 0.40869,0 0.67676,-0.12304 0.26807,-0.11866 0.46582,-0.39551 0.14062,-0.20215 0.18457,-0.44824 0.0439,-0.2461 0.0439,-0.51417 0,-0.37353 -0.0879,-0.69433 -0.0879,-0.3208 -0.27246,-0.65918 -0.0967,-0.009 -0.18896,-0.0132 -0.0879,-0.004 -0.22412,-0.004 -0.69434,0 -1.09864,0.14062 -0.3999,0.14502 -0.63281,0.39551 -0.19336,0.20215 -0.28564,0.43506 -0.0879,0.2373 -0.0879,0.51416 0,0.6372 0.38672,1.00195 0.39111,0.36475 1.1206,0.36475 z" />
    <path
       inkscape:connector-curvature="0"
       id="path966"
       style="font-style:normal;font-size:medium;text-anchor:middle;fill:none;fill-opacity:1;stroke:#000000;stroke-width:0.25;stroke-linecap:butt;stroke-linejoin:bevel;stroke-dasharray:none;stroke-opacity:1"
       d="m 290.87161,264.09018 v -1.05029 h 1.25244 v 1.05029 z m -3.65625,0 v -1.05029 h 1.25244 v 1.05029 z" />
    <path
       inkscape:connector-curvature="0"
       id="path968"
       style="font-style:normal;font-size:medium;text-anchor:middle;fill:none;fill-opacity:1;stroke:#000000;stroke-width:0.25;stroke-linecap:butt;stroke-linejoin:bevel;stroke-dasharray:none;stroke-opacity:1"
       d="m 290.36624,270.17661 q -0.18897,0.21094 -0.47461,0.34717 -0.28565,0.13623 -0.73828,0.13623 -0.44824,0 -0.82178,-0.1626 -0.37354,-0.1626 -0.65039,-0.45703 -0.30762,-0.32959 -0.45703,-0.77783 -0.14502,-0.44385 -0.14502,-0.97559 0,-0.54492 0.13183,-1.07226 0.12745,-0.52735 0.28125,-0.86573 h 0.91846 v 0.0659 q -0.24609,0.37354 -0.40869,0.87891 -0.1626,0.50537 -0.1626,0.97558 0,0.27686 0.0923,0.58887 0.0923,0.31201 0.27246,0.50537 0.19336,0.20215 0.42627,0.29883 0.23291,0.10107 0.58887,0.10107 0.35156,0 0.58007,-0.11425 0.23291,-0.10987 0.36475,-0.30762 0.13623,-0.19775 0.18457,-0.479 0.0527,-0.28125 0.0527,-0.60645 v -0.39551 h 0.7295 v 0.30762 q 0,0.66797 0.27685,1.06348 0.28125,0.3999 0.81738,0.3999 0.23731,0 0.41309,-0.10108 0.18018,-0.10107 0.29443,-0.28125 0.11426,-0.18896 0.15821,-0.40429 0.0439,-0.21533 0.0439,-0.4878 0,-0.41748 -0.14941,-0.88769 -0.14942,-0.47022 -0.42188,-0.8877 v -0.0439 h 0.91846 q 0.15381,0.31201 0.28125,0.83057 0.13184,0.52294 0.13184,1.01074 0,0.479 -0.0879,0.84375 -0.0879,0.36474 -0.28125,0.65918 -0.21093,0.3164 -0.50976,0.479 -0.29883,0.1626 -0.69873,0.1626 -0.54492,0 -0.95361,-0.38672 -0.4043,-0.38232 -0.50977,-0.90527 h -0.0615 q -0.0352,0.21093 -0.14942,0.48339 -0.10986,0.27247 -0.27685,0.46143 z" />
    <path
       d="m 148.20525,330.25934 q 0,2.33065 -0.68939,4.19517 -0.67216,1.86452 -1.82688,3.12973 -1.22366,1.31516 -2.68862,1.98105 -1.46494,0.64926 -3.22288,0.64926 -1.6373,0 -2.86096,-0.38289 -1.22366,-0.36625 -2.41285,-0.99885 l -0.20682,0.86567 h -3.0333 v -25.90354 h 3.24012 v 9.25602 q 1.36153,-1.08208 2.89542,-1.76463 1.53389,-0.69919 3.44694,-0.69919 3.41247,0 5.37722,2.53042 1.982,2.53042 1.982,7.14178 z m -3.34353,0.0832 q 0,-3.3295 -1.1375,-5.04419 -1.13748,-1.73134 -3.67099,-1.73134 -1.41324,0 -2.86095,0.59931 -1.44772,0.58267 -2.68861,1.51492 v 10.65441 q 1.37877,0.59931 2.36115,0.83237 0.99961,0.23307 2.25774,0.23307 2.68861,0 4.20527,-1.69804 1.53389,-1.71471 1.53389,-5.36051 z"
       style="font-style:normal;font-variant:normal;font-weight:normal;font-stretch:normal;font-size:medium;line-height:1.25;font-family:sans-serif;-inkscape-font-specification:sans-serif;letter-spacing:0px;word-spacing:0px;text-anchor:middle;fill:none;fill-opacity:1;stroke:#000000;stroke-width:0.25;stroke-linecap:butt;stroke-linejoin:bevel;stroke-dasharray:none;stroke-opacity:1"
       id="path1108"
       inkscape:connector-curvature="0" />
    <path
       d="m 169.66243,330.40916 q 0,4.54477 -2.41284,7.17508 -2.41286,2.63031 -6.46301,2.63031 -4.08463,0 -6.49749,-2.63031 -2.39562,-2.63031 -2.39562,-7.17508 0,-4.54476 2.39562,-7.17507 2.41286,-2.64695 6.49749,-2.64695 4.05015,0 6.46301,2.64695 2.41284,2.63031 2.41284,7.17507 z m -3.34353,0 q 0,-3.6125 -1.46494,-5.36049 -1.46495,-1.76464 -4.06738,-1.76464 -2.63691,0 -4.10186,1.76464 -1.44772,1.74799 -1.44772,5.36049 0,3.49598 1.46495,5.31056 1.46495,1.79793 4.08463,1.79793 2.5852,0 4.05015,-1.78129 1.48217,-1.79792 1.48217,-5.3272 z"
       style="font-style:normal;font-variant:normal;font-weight:normal;font-stretch:normal;font-size:medium;line-height:1.25;font-family:sans-serif;-inkscape-font-specification:sans-serif;letter-spacing:0px;word-spacing:0px;text-anchor:middle;fill:none;fill-opacity:1;stroke:#000000;stroke-width:0.25;stroke-linecap:butt;stroke-linejoin:bevel;stroke-dasharray:none;stroke-opacity:1"
       id="path1110"
       inkscape:connector-curvature="0" />
    <path
       d="m 184.69109,339.532 q -0.91344,0.23306 -1.99923,0.38289 -1.06855,0.14983 -1.91305,0.14983 -2.94713,0 -4.48101,-1.53157 -1.53389,-1.53157 -1.53389,-4.91101 v -9.88863 h -2.18881 v -2.63031 h 2.18881 v -5.34385 h 3.24012 v 5.34385 h 6.68706 v 2.63031 h -6.68706 v 8.47359 q 0,1.46497 0.0689,2.29735 0.069,0.81573 0.48257,1.53158 0.37916,0.66589 1.03408,0.98219 0.67216,0.29967 2.03369,0.29967 0.7928,0 1.65453,-0.21642 0.86174,-0.23307 1.2409,-0.3829 h 0.17235 z"
       style="font-style:normal;font-variant:normal;font-weight:normal;font-stretch:normal;font-size:medium;line-height:1.25;font-family:sans-serif;-inkscape-font-specification:sans-serif;letter-spacing:0px;word-spacing:0px;text-anchor:middle;fill:none;fill-opacity:1;stroke:#000000;stroke-width:0.25;stroke-linecap:butt;stroke-linejoin:bevel;stroke-dasharray:none;stroke-opacity:1"
       id="path1112"
       inkscape:connector-curvature="0" />
    <path
       d="m 198.61672,339.532 q -0.91343,0.23306 -1.99922,0.38289 -1.06855,0.14983 -1.91305,0.14983 -2.94713,0 -4.48103,-1.53157 -1.53388,-1.53157 -1.53388,-4.91101 v -9.88863 h -2.18881 v -2.63031 h 2.18881 v -5.34385 h 3.24012 v 5.34385 h 6.68706 v 2.63031 h -6.68706 v 8.47359 q 0,1.46497 0.0689,2.29735 0.069,0.81573 0.48257,1.53158 0.37916,0.66589 1.03409,0.98219 0.67214,0.29967 2.03369,0.29967 0.79279,0 1.65453,-0.21642 0.86173,-0.23307 1.2409,-0.3829 h 0.17234 z"
       style="font-style:normal;font-variant:normal;font-weight:normal;font-stretch:normal;font-size:medium;line-height:1.25;font-family:sans-serif;-inkscape-font-specification:sans-serif;letter-spacing:0px;word-spacing:0px;text-anchor:middle;fill:none;fill-opacity:1;stroke:#000000;stroke-width:0.25;stroke-linecap:butt;stroke-linejoin:bevel;stroke-dasharray:none;stroke-opacity:1"
       id="path1114"
       inkscape:connector-curvature="0" />
    <path
       d="m 218.95366,330.40916 q 0,4.54477 -2.41286,7.17508 -2.41286,2.63031 -6.46301,2.63031 -4.08462,0 -6.49747,-2.63031 -2.39562,-2.63031 -2.39562,-7.17508 0,-4.54476 2.39562,-7.17507 2.41285,-2.64695 6.49747,-2.64695 4.05015,0 6.46301,2.64695 2.41286,2.63031 2.41286,7.17507 z m -3.34353,0 q 0,-3.6125 -1.46495,-5.36049 -1.46494,-1.76464 -4.06739,-1.76464 -2.63691,0 -4.10185,1.76464 -1.44771,1.74799 -1.44771,5.36049 0,3.49598 1.46494,5.31056 1.46495,1.79793 4.08462,1.79793 2.58521,0 4.05015,-1.78129 1.48219,-1.79792 1.48219,-5.3272 z"
       style="font-style:normal;font-variant:normal;font-weight:normal;font-stretch:normal;font-size:medium;line-height:1.25;font-family:sans-serif;-inkscape-font-specification:sans-serif;letter-spacing:0px;word-spacing:0px;text-anchor:middle;fill:none;fill-opacity:1;stroke:#000000;stroke-width:0.25;stroke-linecap:butt;stroke-linejoin:bevel;stroke-dasharray:none;stroke-opacity:1"
       id="path1116"
       inkscape:connector-curvature="0" />
    <path
       d="m 252.07874,339.69848 h -3.24012 v -10.58782 q 0,-1.19862 -0.12064,-2.314 -0.10341,-1.11539 -0.46534,-1.78129 -0.3964,-0.71585 -1.13749,-1.08208 -0.7411,-0.36625 -2.1371,-0.36625 -1.36155,0 -2.72308,0.6659 -1.36155,0.64925 -2.72308,1.66475 0.0517,0.38289 0.0862,0.89897 0.0345,0.49942 0.0345,0.99884 v 11.90298 h -3.24012 v -10.58782 q 0,-1.23192 -0.12065,-2.33065 -0.1034,-1.11538 -0.46533,-1.78129 -0.3964,-0.71584 -1.1375,-1.06543 -0.74109,-0.36625 -2.1371,-0.36625 -1.32707,0 -2.67138,0.6326 -1.32707,0.63261 -2.65413,1.61481 v 13.88403 h -3.24013 V 321.1032 h 3.24013 v 2.0643 q 1.51665,-1.21527 3.01606,-1.89782 1.51666,-0.68254 3.22289,-0.68254 1.96476,0 3.3263,0.79908 1.37877,0.79908 2.05092,2.21411 1.96476,-1.59816 3.58482,-2.29736 1.62006,-0.71583 3.46417,-0.71583 3.17119,0 4.6706,1.86451 1.51666,1.84787 1.51666,5.17738 z"
       style="font-style:normal;font-variant:normal;font-weight:normal;font-stretch:normal;font-size:medium;line-height:1.25;font-family:sans-serif;-inkscape-font-specification:sans-serif;letter-spacing:0px;word-spacing:0px;text-anchor:middle;fill:none;fill-opacity:1;stroke:#000000;stroke-width:0.25;stroke-linecap:butt;stroke-linejoin:bevel;stroke-dasharray:none;stroke-opacity:1"
       id="path1118"
       inkscape:connector-curvature="0" />
  </g>
</svg>
