<?xml version="1.0" encoding="UTF-8" standalone="no"?>
<svg
   version="1.1"
   width="300.00mm"
   height="600.00mm"
   viewBox="0 0 300.00 600.00"
   id="svg27141"
   sodipodi:docname="bottom_page12.svg"
   inkscape:version="1.1.1 (c3084ef, 2021-09-22)"
   xmlns:inkscape="http://www.inkscape.org/namespaces/inkscape"
   xmlns:sodipodi="http://sodipodi.sourceforge.net/DTD/sodipodi-0.dtd"
   xmlns="http://www.w3.org/2000/svg"
   xmlns:svg="http://www.w3.org/2000/svg">
  <defs
     id="defs27145" />
  <sodipodi:namedview
     id="namedview27143"
     pagecolor="#ffffff"
     bordercolor="#666666"
     borderopacity="1.0"
     inkscape:pageshadow="2"
     inkscape:pageopacity="0.0"
     inkscape:pagecheckerboard="0"
     inkscape:document-units="mm"
     showgrid="false"
     inkscape:zoom="0.35057292"
     inkscape:cx="440.70718"
     inkscape:cy="1059.694"
     inkscape:window-width="1296"
     inkscape:window-height="975"
     inkscape:window-x="0"
     inkscape:window-y="25"
     inkscape:window-maximized="0"
     inkscape:current-layer="svg27141" />
  <style
     type="text/css"
     id="style27065">
    path {
        fill: none;
        stroke-linecap: butt;
        stroke-linejoin: bevel;
        stroke-dasharray: none;
    }
    path.outer {
        stroke: #000000;
        stroke-dasharray: none;
        stroke-dashoffset: 0;
        stroke-width: 0.3;
        stroke-opacity: 1.0;
    }
    path.convex {
        stroke: #000000;
        stroke-dasharray: 0.50,1.00;
        stroke-dashoffset:0;
        stroke-width:0.2;
        stroke-opacity: 1.0
    }
    path.concave {
        stroke: #000000;
        stroke-dasharray: 1.00,0.50,0.20,0.50;
        stroke-dashoffset: 0;
        stroke-width: 0.2;
        stroke-opacity: 1.0
    }
    path.freestyle {
        stroke: #000000;
        stroke-dasharray: none;
        stroke-dashoffset: 0;
        stroke-width: 0.2;
        stroke-opacity: 1.0
    }
    path.outer_background {
        stroke: #ffffff;
        stroke-opacity: 1.0;
        stroke-width: 0.5
    }
    path.inner_background {
        stroke: #ffffff;
        stroke-opacity: 1.0;
        stroke-width: 0.2
    }
    path.sticker {
        fill: #e5e5e5;
        stroke: none;
        fill-opacity: 1.0;
    }
    path.arrow {
        fill: #000000;
    }
    text {
        font-style: normal;
        fill: #000000;
        fill-opacity: 1.0;
        stroke: none;
    }
    text, tspan {
        text-anchor:middle;
    }
    </style>
  <text
     style="font-size:10px"
     id="text27069"
     x="126.2617"
     y="379.80881"><tspan
       id="tspan27067">[5] I 5</tspan></text>
  <path
     class="sticker"
     d="m 171.20919,573.00004 -0.1571,9.99999 h -44.63331 l -0.15709,-10.00002 z m 64.3142,0 -0.15709,9.99999 h -64.00002 l -0.15709,-9.99999 z m 3e-5,-249.95119 10.00001,0.15709 -3e-5,208.53429 -10.00001,0.15709 z m -64.31421,0 0.1571,-10.00002 64.00002,3e-5 0.15709,9.99999 z m -44.94749,0 0.1571,-10.00002 44.63328,3e-5 0.15711,9.99999 z m 109.26167,208.84847 10.00001,0.15708 v 40.78855 l -10.00001,0.15709 z m -109.2617,41.10269 -0.15709,10.00002 H 81.471284 l -0.157073,-10.00002 z m -44.947479,0 -0.157103,10.00002 -64.00004,-3e-5 -0.157074,-9.99999 z M 16.999994,531.89729 6.999989,531.7402 l 3e-5,-208.53429 10.000005,-0.15708 z m 3e-5,-208.84846 0.157088,-10 h 64.000041 l 0.157088,10.00002 z m 64.314217,2e-5 0.157088,-10.00002 h 44.633301 l 0.15709,10.00002 z M 16.999994,573.00001 6.999989,572.84292 v -40.78854 l 10.000005,-0.15709 z"
     id="path27071" />
  <path
     class="outer"
     d="m 171.36631,313.04883 64.00002,3e-5 0.15709,9.99999 10.00001,0.15709 -3e-5,208.53429 -10.00001,0.15709 10.00001,0.15708 v 40.78855 l -10.00001,0.15709 -0.15709,9.99999 h -64.00002 l -0.15709,-9.99999 -0.1571,9.99999 h -44.63331 l -0.15709,-10.00002 -0.15709,10.00002 H 81.471284 L 81.314211,573.00001 81.157108,583.00003 17.157068,583 16.999994,573.00001 6.999989,572.84292 v -40.78854 l 10.000005,-0.15709 -10.000005,-0.15709 3e-5,-208.53429 10.000005,-0.15708 0.157088,-10 h 64.000041 l 0.157088,10.00002 0.157088,-10.00002 h 44.633301 l 0.15709,10.00002 0.1571,-10.00002 44.63328,3e-5 0.15711,9.99999 z"
     id="path27073" />
  <text
     transform="scale(-1)"
     style="font-size:9px"
     id="text27077"
     x="-203.36629"
     y="-574.80005"><tspan
       id="tspan27075">7:1</tspan></text>
  <text
     transform="rotate(90)"
     style="font-size:9px"
     id="text27081"
     x="427.47308"
     y="-237.32341"><tspan
       id="tspan27079">15:1</tspan></text>
  <g
     id="g27089">
    <path
       transform="matrix(10,1e-6,-1e-6,10,203.36631,323.04885)"
       class="arrow"
       d="M 0,0 1,1 0,0.25 -1,1 Z"
       id="path27083" />
    <text
       transform="translate(203.36631,336.04887)"
       style="font-size:10px"
       id="text27087"><tspan
         id="tspan27085">1</tspan></text>
  </g>
  <text
     style="font-size:9px"
     id="text27093"
     x="203.3663"
     y="321.24884"><tspan
       id="tspan27091">2:1</tspan></text>
  <g
     id="g27101">
    <path
       transform="matrix(-1e-6,10,-10,-1e-6,235.52339,552.44868)"
       class="arrow"
       d="M 0,0 1,1 0,0.25 -1,1 Z"
       id="path27095" />
    <text
       transform="translate(226.52339,556.44869)"
       style="font-size:10px"
       id="text27099"><tspan
         id="tspan27097">2</tspan></text>
  </g>
  <text
     transform="rotate(90)"
     style="font-size:9px"
     id="text27105"
     x="552.44867"
     y="-237.32339"><tspan
       id="tspan27103">15:2</tspan></text>
  <text
     transform="scale(-1)"
     style="font-size:9px"
     id="text27109"
     x="-49.157101"
     y="-574.79999"><tspan
       id="tspan27107">7:5</tspan></text>
  <text
     transform="rotate(-90)"
     style="font-size:9px"
     id="text27113"
     x="-427.47305"
     y="15.2"><tspan
       id="tspan27111">12:1</tspan></text>
  <g
     id="g27121">
    <path
       transform="matrix(10,1e-6,-1e-6,10,49.157132,323.04883)"
       class="arrow"
       d="M 0,0 1,1 0,0.25 -1,1 Z"
       id="path27115" />
    <text
       transform="translate(49.157132,336.04884)"
       style="font-size:10px"
       id="text27119"><tspan
         id="tspan27117">3</tspan></text>
  </g>
  <text
     style="font-size:9px"
     id="text27125"
     x="49.157131"
     y="321.24881"><tspan
       id="tspan27123">2:3</tspan></text>
  <g
     id="g27133">
    <path
       transform="matrix(1e-6,-10,10,1e-6,16.999994,552.44864)"
       class="arrow"
       d="M 0,0 1,1 0,0.25 -1,1 Z"
       id="path27127" />
    <text
       transform="translate(25.999994,556.44864)"
       style="font-size:10px"
       id="text27131"><tspan
         id="tspan27129">4</tspan></text>
  </g>
  <text
     transform="rotate(-90)"
     style="font-size:9px"
     id="text27137"
     x="-552.44867"
     y="15.2"><tspan
       id="tspan27135">12:4</tspan></text>
</svg>
