<?xml version="1.0" encoding="UTF-8" standalone="no"?>
<svg
   version="1.1"
   width="300.00mm"
   height="600.00mm"
   viewBox="0 0 300.00 600.00"
   id="svg900"
   sodipodi:docname="bottom_page1_fabric.svg"
   inkscape:version="1.1.1 (c3084ef, 2021-09-22)"
   xmlns:inkscape="http://www.inkscape.org/namespaces/inkscape"
   xmlns:sodipodi="http://sodipodi.sourceforge.net/DTD/sodipodi-0.dtd"
   xmlns="http://www.w3.org/2000/svg"
   xmlns:svg="http://www.w3.org/2000/svg">
  <defs
     id="defs904" />
  <sodipodi:namedview
     id="namedview902"
     pagecolor="#ffffff"
     bordercolor="#666666"
     borderopacity="1.0"
     inkscape:pageshadow="2"
     inkscape:pageopacity="0.0"
     inkscape:pagecheckerboard="0"
     inkscape:document-units="mm"
     showgrid="false"
     inkscape:zoom="0.35057292"
     inkscape:cx="566.21601"
     inkscape:cy="1133.8583"
     inkscape:window-width="1296"
     inkscape:window-height="975"
     inkscape:window-x="0"
     inkscape:window-y="25"
     inkscape:window-maximized="0"
     inkscape:current-layer="svg900" />
  <style
     type="text/css"
     id="style824">
    path {
        fill: none;
        stroke-linecap: butt;
        stroke-linejoin: bevel;
        stroke-dasharray: none;
    }
    path.outer {
        stroke: #000000;
        stroke-dasharray: none;
        stroke-dashoffset: 0;
        stroke-width: 0.3;
        stroke-opacity: 1.0;
    }
    path.convex {
        stroke: #000000;
        stroke-dasharray: 0.50,1.00;
        stroke-dashoffset:0;
        stroke-width:0.2;
        stroke-opacity: 1.0
    }
    path.concave {
        stroke: #000000;
        stroke-dasharray: 1.00,0.50,0.20,0.50;
        stroke-dashoffset: 0;
        stroke-width: 0.2;
        stroke-opacity: 1.0
    }
    path.freestyle {
        stroke: #000000;
        stroke-dasharray: none;
        stroke-dashoffset: 0;
        stroke-width: 0.2;
        stroke-opacity: 1.0
    }
    path.outer_background {
        stroke: #ffffff;
        stroke-opacity: 1.0;
        stroke-width: 0.5
    }
    path.inner_background {
        stroke: #ffffff;
        stroke-opacity: 1.0;
        stroke-width: 0.2
    }
    path.sticker {
        fill: #e5e5e5;
        stroke: none;
        fill-opacity: 1.0;
    }
    path.arrow {
        fill: #000000;
    }
    text {
        font-style: normal;
        fill: #000000;
        fill-opacity: 1.0;
        stroke: none;
    }
    text, tspan {
        text-anchor:middle;
    }
    </style>
  <g
     id="g898"
     transform="translate(73.025006,10.583334)">
    <text
       transform="translate(113.69523,267.40009)"
       style="font-size:10px"
       id="text828"><tspan
         id="tspan826">[2] I 2</tspan></text>
    <path
       class="sticker"
       d="m 17.000233,572.99995 -10.00002,-0.15712 -1.5e-5,-40.70106 10.000005,-0.15712 z m -1.94e-4,-363.43008 -4.644155,-0.0729 -3e-5,-9.14243 4.64417,-0.0729 z m 1.64e-4,322.41478 -10.000005,-0.15709 V 505.7331 l 9.99999,-0.15709 z m -1.5e-5,-26.40864 -9.99999,-0.15712 -6e-5,-215.37775 10.000005,-0.15708 z m -4.5e-5,-215.69195 -10.000005,-0.15709 -8.9e-5,-79.99998 9.99999,-0.15712 z m 195.390197,-112.41994 10,0.15709 3e-5,23.28676 -10,0.15712 z m -138.34961,395.53583 -0.157117,9.99999 -24.183691,-6e-5 -0.157088,-9.99993 z m -1.56e-4,-470.92107 -6.054468,-7.960409 27.600437,-21.684885 6.301537,7.766247 z m 138.349706,-6e-5 10,0.15709 6e-5,75.07109 -10,0.15712 z m -86.1284,470.92113 -0.15709,9.99999 h -24.0594 l -0.15712,-9.99999 z m -1.6e-4,-492.800117 0.15708,-9.99999 h 62.38237 l 0.15709,9.99999 z m 86.12865,209.684077 9.99999,0.15708 9e-5,210.76134 -9.99999,0.15712 z m 9e-5,236.6417 7.97663,6.03312 -33.83088,46.22078 -8.16218,-5.77956 z M 178.37403,572.99995 178.21694,583 l -51.79797,-6e-5 -0.15709,-9.99999 z m -76.48576,0 -0.1571,9.99999 L 74.197833,583 74.04073,572.99995 Z m -27.847659,-396.31939 -9.99999,-0.15706 -4.5e-5,-74.28753 9.999998,-0.15709 z m 27.847469,-96.480727 0.15709,-9.99999 h 24.05945 l 0.1571,9.99999 z m 87.07018,0 6.93952,-7.20191 23.20237,21.66456 -6.70987,7.416337 z m 23.43211,120.865257 4.6442,0.0729 -3e-5,9.14246 -4.6442,0.073 z m -162.847536,371.93486 -0.157118,9.99999 h -32.22838 l -0.157103,-9.99999 z m -32.54281,-372.71839 0.157088,-10 32.228455,-3e-5 0.157103,10 z m 32.542646,-3e-5 -6.824881,-7.31066 24.271682,-23.38299 7.05114,7.09268 z m 162.84779,300.67792 10,0.15709 v 25.25198 l -10,0.15709 z m -1.2e-4,-290.60599 10,0.15709 2e-5,79.21627 -9.99999,0.15709 z"
       id="path830" />
    <path
       class="outer"
       d="m 126.4188,70.199843 h 62.38237 l 0.15709,9.99999 6.93952,-7.20191 23.20237,21.66456 -6.70987,7.416337 10,0.15709 6e-5,75.07109 -10,0.15712 10,0.15709 3e-5,23.28676 -10,0.15712 4.6442,0.0729 -3e-5,9.14246 -4.6442,0.073 10,0.15709 2e-5,79.21627 -9.99999,0.15709 9.99999,0.15708 9e-5,210.76134 -9.99999,0.15712 10,0.15709 v 25.25198 l -10,0.15709 7.97663,6.03312 -33.83088,46.22078 -8.16218,-5.77956 -0.15709,10.00005 -51.79797,-6e-5 -0.15709,-9.99999 -0.15709,9.99999 h -24.0594 l -0.15712,-9.99999 -0.1571,9.99999 -27.533337,6e-5 -0.157103,-10.00005 -0.157117,9.99999 -24.183691,-6e-5 -0.157088,-9.99993 -0.157118,9.99999 h -32.22838 l -0.157103,-9.99999 -10.00002,-0.15712 -1.5e-5,-40.70106 10.000005,-0.15712 -10.000005,-0.15709 V 505.7331 l 9.99999,-0.15709 -9.99999,-0.15712 -6e-5,-215.37775 10.000005,-0.15708 -10.000005,-0.15709 -8.9e-5,-79.99998 9.99999,-0.15712 -4.644155,-0.0729 -3e-5,-9.14243 4.64417,-0.0729 0.157088,-10 32.228455,-3e-5 0.157103,10 -6.824881,-7.31066 24.271682,-23.38299 7.05114,7.09268 -9.99999,-0.15706 -4.5e-5,-74.28753 9.999998,-0.15709 -6.054468,-7.960409 27.600437,-21.684885 6.301537,7.766247 0.15709,-9.99999 h 24.05945 l 0.1571,9.99999 z"
       id="path832" />
    <g
       id="g840">
      <path
         transform="matrix(-5e-6,-10.000001,10.000001,-5e-6,17.000218,552.49226)"
         class="arrow"
         d="M 0,0 1,1 0,0.25 -1,1 Z"
         id="path834" />
      <text
         transform="translate(26.000218,556.49225)"
         style="font-size:10px"
         id="text838"><tspan
           id="tspan836">1</tspan></text>
    </g>
    <text
       transform="rotate(-90,283.84623,268.64603)"
       style="font-size:9px"
       id="text844"><tspan
         id="tspan842">3:1</tspan></text>
    <g
       id="g852">
      <path
         transform="matrix(-2.6e-5,-10,10,-2.6e-5,17.000024,204.92571)"
         class="arrow"
         d="M 0,0 1,1 0,0.25 -1,1 Z"
         id="path846" />
      <text
         transform="translate(26.000024,208.92569)"
         style="font-size:10px"
         id="text850"><tspan
           id="tspan848">2</tspan></text>
    </g>
    <text
       transform="rotate(-90.000172,110.54459,94.380838)"
       style="font-size:4.18px"
       id="text856"><tspan
         id="tspan854">3:2</tspan></text>
    <text
       transform="rotate(-38.155746,173.14185,-80.701974)"
       style="font-size:9px"
       id="text860"><tspan
         id="tspan858">11:1</tspan></text>
    <text
       transform="rotate(90,37.209356,176.98099)"
       style="font-size:9px"
       id="text864"><tspan
         id="tspan862">8:1</tspan></text>
    <text
       transform="rotate(126.20195,-41.301691,325.34089)"
       style="font-size:9px"
       id="text868"><tspan
         id="tspan866">16:2</tspan></text>
    <text
       transform="rotate(180,76.158973,287.39997)"
       style="font-size:9px"
       id="text872"><tspan
         id="tspan870">12:4</tspan></text>
    <text
       transform="rotate(-90,105.8101,33.569606)"
       style="font-size:9px"
       id="text876"><tspan
         id="tspan874">6.:7</tspan></text>
    <text
       transform="rotate(43.036945,-12.956358,300.94963)"
       style="font-size:9px"
       id="text880"><tspan
         id="tspan878">11:3</tspan></text>
    <text
       transform="rotate(90.000115,3.7587227,209.46758)"
       style="font-size:4.18px"
       id="text884"><tspan
         id="tspan882">8:8</tspan></text>
    <text
       transform="rotate(180,16.635755,287.39995)"
       style="font-size:9px"
       id="text888"><tspan
         id="tspan886">12:6.</tspan></text>
    <text
       transform="translate(33.271332,198.48155)"
       style="font-size:9px"
       id="text892"><tspan
         id="tspan890">6.:9.</tspan></text>
    <text
       transform="rotate(90,-17.964157,232.15451)"
       style="font-size:9px"
       id="text896"><tspan
         id="tspan894">16:3</tspan></text>
  </g>
</svg>
