<?xml version="1.0" encoding="UTF-8" standalone="no"?>
<svg
   version="1.1"
   width="300.00mm"
   height="600.00mm"
   viewBox="0 0 300.00 600.00"
   id="svg29219"
   sodipodi:docname="bottom_page9.svg"
   inkscape:version="1.1.1 (c3084ef, 2021-09-22)"
   xmlns:inkscape="http://www.inkscape.org/namespaces/inkscape"
   xmlns:sodipodi="http://sodipodi.sourceforge.net/DTD/sodipodi-0.dtd"
   xmlns="http://www.w3.org/2000/svg"
   xmlns:svg="http://www.w3.org/2000/svg">
  <defs
     id="defs29223" />
  <sodipodi:namedview
     id="namedview29221"
     pagecolor="#ffffff"
     bordercolor="#666666"
     borderopacity="1.0"
     inkscape:pageshadow="2"
     inkscape:pageopacity="0.0"
     inkscape:pagecheckerboard="0"
     inkscape:document-units="mm"
     showgrid="false"
     inkscape:zoom="0.35057292"
     inkscape:cx="566.21602"
     inkscape:cy="1133.8583"
     inkscape:window-width="1296"
     inkscape:window-height="975"
     inkscape:window-x="0"
     inkscape:window-y="25"
     inkscape:window-maximized="0"
     inkscape:current-layer="svg29219" />
  <style
     type="text/css"
     id="style29139">
    path {
        fill: none;
        stroke-linecap: butt;
        stroke-linejoin: bevel;
        stroke-dasharray: none;
    }
    path.outer {
        stroke: #000000;
        stroke-dasharray: none;
        stroke-dashoffset: 0;
        stroke-width: 0.3;
        stroke-opacity: 1.0;
    }
    path.convex {
        stroke: #000000;
        stroke-dasharray: 0.50,1.00;
        stroke-dashoffset:0;
        stroke-width:0.2;
        stroke-opacity: 1.0
    }
    path.concave {
        stroke: #000000;
        stroke-dasharray: 1.00,0.50,0.20,0.50;
        stroke-dashoffset: 0;
        stroke-width: 0.2;
        stroke-opacity: 1.0
    }
    path.freestyle {
        stroke: #000000;
        stroke-dasharray: none;
        stroke-dashoffset: 0;
        stroke-width: 0.2;
        stroke-opacity: 1.0
    }
    path.outer_background {
        stroke: #ffffff;
        stroke-opacity: 1.0;
        stroke-width: 0.5
    }
    path.inner_background {
        stroke: #ffffff;
        stroke-opacity: 1.0;
        stroke-width: 0.2
    }
    path.sticker {
        fill: #e5e5e5;
        stroke: none;
        fill-opacity: 1.0;
    }
    path.arrow {
        fill: #000000;
    }
    text {
        font-style: normal;
        fill: #000000;
        fill-opacity: 1.0;
        stroke: none;
    }
    text, tspan {
        text-anchor:middle;
    }
    </style>
  <text
     style="font-size:10px"
     id="text29143"
     x="190.52209"
     y="346.5867"><tspan
       id="tspan29141">[15] I 15</tspan></text>
  <path
     class="sticker"
     d="m 228.43725,534.91398 9.98863,0.50178 -1.30309,37.77205 -9.99947,-0.18779 z m -1.31393,38.08604 -0.15708,10 h -85.81441 l -0.15708,-10 z m 12.95142,-324.36509 9.97471,0.72801 -4.41879,77.24112 -9.99265,-0.41431 z m -99.07999,283.26237 -9.98864,-0.50178 7.18993,-208.41029 9.99947,0.18781 z m 7.20076,-208.72426 -6.17814,-7.86483 91.63526,-74.34017 6.42211,7.66689 z m 87.4425,3.01671 9.98864,0.50175 -7.18993,208.41026 -9.99947,-0.18778 z m -94.64326,246.81027 -10.00001,-0.15709 v -40.78854 l 10.00001,-0.15709 z"
     id="path29145" />
  <path
     class="outer"
     d="m 131.00611,531.39552 7.18993,-208.41029 9.99947,0.18781 -6.17814,-7.86483 91.63526,-74.34017 6.42211,7.66689 9.97471,0.72801 -4.41879,77.24112 -9.99265,-0.41431 9.98864,0.50175 -7.18993,208.41026 -9.99947,-0.18778 9.98863,0.50178 -1.30309,37.77205 -9.99947,-0.18779 -0.15708,10 h -85.81441 l -0.15708,-10 -10.00001,-0.15709 v -40.78854 l 10.00001,-0.15709 z"
     id="path29147" />
  <text
     transform="rotate(91.975836)"
     style="font-size:9px"
     id="text29151"
     x="545.77429"
     y="-248.54437"><tspan
       id="tspan29149">11:1</tspan></text>
  <text
     transform="scale(-1)"
     style="font-size:9px"
     id="text29155"
     x="-184.05904"
     y="-574.80005"><tspan
       id="tspan29153">7:2</tspan></text>
  <text
     transform="rotate(93.274172)"
     style="font-size:9px"
     id="text29159"
     x="273.35828"
     y="-255.6833"><tspan
       id="tspan29157">11:3</tspan></text>
  <g
     id="g29167">
    <path
       transform="matrix(0.344784,-9.994055,9.994055,0.344784,144.59514,427.53517)"
       class="arrow"
       d="M 0,0 1,1 0,0.25 -1,1 Z"
       id="path29161" />
    <text
       transform="translate(153.58977,431.84547)"
       style="font-size:10px"
       id="text29165"><tspan
         id="tspan29163">1</tspan></text>
  </g>
  <text
     transform="rotate(-88.024164)"
     style="font-size:9px"
     id="text29171"
     x="-422.29575"
     y="157.44966"><tspan
       id="tspan29169">5:1</tspan></text>
  <text
     transform="rotate(-39.051103)"
     style="font-size:9px"
     id="text29175"
     x="-29.361242"
     y="342.53632"><tspan
       id="tspan29173">2:1</tspan></text>
  <text
     transform="rotate(-90)"
     style="font-size:9px"
     id="text29179"
     x="-552.44867"
     y="139.19473"><tspan
       id="tspan29177">5:2</tspan></text>
  <g
     id="g27650"
     transform="rotate(2.1445858,141.84378,-1108.0186)">
    <text
       style="font-style:normal;font-size:10px;text-anchor:middle;fill:#000000;fill-opacity:1;stroke:none"
       id="text27390"
       x="120.74595"
       y="129.51118"><tspan
         id="tspan27388">[12] I 12</tspan></text>
    <path
       class="sticker"
       d="m 89.436355,367.03698 -9.999469,0.18778 -1.303084,-37.77203 9.988636,-0.50178 z m 86.128575,0 -0.1571,9.99999 H 89.593451 l -0.157096,-9.99999 z M 80.92169,120.22669 70.929046,120.641 66.510293,43.39982 76.484996,42.67187 Z m 87.4425,-3.01671 9.99947,-0.18778 7.18991,208.41029 -9.98863,0.50178 z m -91.879194,-74.53811 6.422132,-7.66689 91.635202,74.3402 -6.17814,7.8648 z m 11.637442,286.27908 -9.999469,0.18779 -7.189915,-208.41027 9.988636,-0.50178 z m 87.442502,-3.01668 9.99999,0.15709 v 40.78853 l -10,0.15709 z"
       id="path27392"
       style="fill:#e5e5e5;fill-opacity:1;stroke:none;stroke-linecap:butt;stroke-linejoin:bevel;stroke-dasharray:none" />
    <path
       class="outer"
       d="m 70.929046,120.641 -4.418753,-77.24118 9.974703,-0.72795 6.422132,-7.66689 91.635202,74.3402 -6.17814,7.8648 9.99947,-0.18778 7.18991,208.41029 -9.98863,0.50178 9.99999,0.15709 v 40.78853 l -10,0.15709 -0.1571,9.99999 H 89.593451 l -0.157096,-9.99999 -9.999469,0.18778 -1.303084,-37.77203 9.988636,-0.50178 -9.999469,0.18779 -7.189915,-208.41027 9.988636,-0.50178 z"
       id="path27394"
       style="fill:none;stroke:#000000;stroke-width:0.3;stroke-linecap:butt;stroke-linejoin:bevel;stroke-dasharray:none;stroke-dashoffset:0;stroke-opacity:1" />
    <text
       transform="rotate(-91.975836)"
       style="font-style:normal;font-size:9px;text-anchor:middle;fill:#000000;fill-opacity:1;stroke:none"
       id="text27398"
       x="-350.84814"
       y="74.928352"><tspan
         id="tspan27396">8:1</tspan></text>
    <text
       transform="scale(-1)"
       style="font-style:normal;font-size:9px;text-anchor:middle;fill:#000000;fill-opacity:1;stroke:none"
       id="text27402"
       x="-132.50064"
       y="-368.83698"><tspan
         id="tspan27400">7:6.</tspan></text>
    <text
       transform="rotate(-93.274172)"
       style="font-style:normal;font-size:9px;text-anchor:middle;fill:#000000;fill-opacity:1;stroke:none"
       id="text27406"
       x="-85.811317"
       y="72.123024"><tspan
         id="tspan27404">8:3</tspan></text>
    <g
       id="g27414"
       transform="translate(61.510293,-205.96306)">
      <path
         transform="matrix(0.344783,9.994055,-9.994055,0.344783,110.45427,427.53519)"
         class="arrow"
         d="M 0,0 1,1 0,0.25 -1,1 Z"
         id="path27408" />
      <text
         transform="translate(101.45963,431.84548)"
         style="font-size:10px"
         id="text27412"><tspan
           id="tspan27410">1</tspan></text>
    </g>
    <text
       transform="rotate(88.024164)"
       style="font-style:normal;font-size:9px;text-anchor:middle;fill:#000000;fill-opacity:1;stroke:none"
       id="text27418"
       x="227.36948"
       y="-166.02309"><tspan
         id="tspan27416">5:1</tspan></text>
    <text
       transform="rotate(39.051103)"
       style="font-style:normal;font-size:9px;text-anchor:middle;fill:#000000;fill-opacity:1;stroke:none"
       id="text27422"
       x="145.43704"
       y="-16.848354"><tspan
         id="tspan27420">2:2</tspan></text>
    <text
       transform="rotate(90)"
       style="font-style:normal;font-size:9px;text-anchor:middle;fill:#000000;fill-opacity:1;stroke:none"
       id="text27426"
       x="346.4856"
       y="-177.36493"><tspan
         id="tspan27424">5:4</tspan></text>
  </g>
</svg>
