<?xml version="1.0" encoding="UTF-8" standalone="no"?>
<svg
   xmlns:dc="http://purl.org/dc/elements/1.1/"
   xmlns:cc="http://creativecommons.org/ns#"
   xmlns:rdf="http://www.w3.org/1999/02/22-rdf-syntax-ns#"
   xmlns:svg="http://www.w3.org/2000/svg"
   xmlns="http://www.w3.org/2000/svg"
   xmlns:sodipodi="http://sodipodi.sourceforge.net/DTD/sodipodi-0.dtd"
   xmlns:inkscape="http://www.inkscape.org/namespaces/inkscape"
   version="1.1"
   width="300.00mm"
   height="600.00mm"
   viewBox="0 0 300.00 600.00"
   id="svg318"
   sodipodi:docname="frontseat_slice3.svg"
   inkscape:version="0.92.3 (2405546, 2018-03-11)">
  <metadata
     id="metadata324">
    <rdf:RDF>
      <cc:Work
         rdf:about="">
        <dc:format>image/svg+xml</dc:format>
        <dc:type
           rdf:resource="http://purl.org/dc/dcmitype/StillImage" />
      </cc:Work>
    </rdf:RDF>
  </metadata>
  <defs
     id="defs322" />
  <sodipodi:namedview
     pagecolor="#ffffff"
     bordercolor="#666666"
     borderopacity="1"
     objecttolerance="10"
     gridtolerance="10"
     guidetolerance="10"
     inkscape:pageopacity="0"
     inkscape:pageshadow="2"
     inkscape:window-width="1853"
     inkscape:window-height="1025"
     id="namedview320"
     showgrid="false"
     inkscape:zoom="0.29435284"
     inkscape:cx="561.29028"
     inkscape:cy="1218.6845"
     inkscape:window-x="67"
     inkscape:window-y="27"
     inkscape:window-maximized="1"
     inkscape:current-layer="svg318" />
  <style
     type="text/css"
     id="style2">
    path {
        fill: none;
        stroke-linecap: butt;
        stroke-linejoin: bevel;
        stroke-dasharray: none;
    }
    path.outer {
        stroke: #000000;
        stroke-dasharray: none;
        stroke-dashoffset: 0;
        stroke-width: 0.3;
        stroke-opacity: 1.0;
    }
    path.convex {
        stroke: #000000;
        stroke-dasharray: 0.50,1.00;
        stroke-dashoffset:0;
        stroke-width:0.2;
        stroke-opacity: 1.0
    }
    path.concave {
        stroke: #000000;
        stroke-dasharray: 1.00,0.50,0.20,0.50;
        stroke-dashoffset: 0;
        stroke-width: 0.2;
        stroke-opacity: 1.0
    }
    path.freestyle {
        stroke: #000000;
        stroke-dasharray: none;
        stroke-dashoffset: 0;
        stroke-width: 0.2;
        stroke-opacity: 1.0
    }
    path.outer_background {
        stroke: #ffffff;
        stroke-opacity: 1.0;
        stroke-width: 0.5
    }
    path.inner_background {
        stroke: #ffffff;
        stroke-opacity: 1.0;
        stroke-width: 0.2
    }
    path.sticker {
        fill: #e5e5e5;
        stroke: none;
        fill-opacity: 1.0;
    }
    path.arrow {
        fill: #000000;
    }
    text {
        font-style: normal;
        fill: #000000;
        fill-opacity: 1.0;
        stroke: none;
    }
    text, tspan {
        text-anchor:middle;
    }
    </style>
  <g
     id="g20"
     transform="translate(37.752311,-126.7399)">
    <path
       style="fill:#e5e5e5;fill-opacity:1;stroke:none;stroke-linecap:butt;stroke-linejoin:bevel;stroke-dasharray:none"
       inkscape:connector-curvature="0"
       id="path14"
       d="m 83.180283,299.7829 7.664807,6.42457 -21.461658,26.43723 -7.862814,-6.18068 z m 16.882857,-120.07326 9.92737,1.21316 -2.47186,23.25595 -9.960594,-0.90075 z m -9.20893,20.56667 -9.062655,-4.23002 9.080544,-20.27992 9.191041,3.94327 z m -2.344363,66.50022 8.639954,9.22498 -4.072353,25.22036 -9.897165,-1.43897 z m 3.662914,-13.2446 6.387756,2.67952 -3.399611,12.29251 -6.651059,-1.72743 z m 5.385295,-50.25393 9.463214,3.68494 -6.96912,35.06404 -10.261734,0.33271 z m -86.807506,175.89635 -3.672491,-1.71416 3.260066,-7.28081 3.724523,1.59794 z M 14.062648,371.77732 5,367.5473 l 19.069485,-42.5885 9.191044,3.94326 z m 38.395777,-85.75049 -9.062648,-4.23002 18.62419,-41.59403 9.191048,3.94326 z m -26.200227,84.52272 1.879299,3.19107 -4.814834,2.93839 -3.386003,-2.27156 z m -10.952035,10.66462 -1.055695,2.26178 -4.484049,-2.00778 0.984131,-2.29382 z m 38.027411,-43.32418 7.598266,6.50317 -21.624271,26.08417 -13.049371,0.0722 z m 8.187044,-11.42597 5.648688,4.18326 -7.429015,10.36805 -6.406717,-3.12534 z m -41.583958,47.94343 3.366984,2.36872 -4.557753,6.69978 -3.439728,-2.26178 z m 69.853756,-132.04776 5.693436,-0.68786 2.256311,10.58116 -5.567402,1.27894 z m -56.529887,86.54237 -9.062648,-4.23002 19.069504,-42.58847 9.19104,3.94326 z m 37.950486,-84.75602 -9.062655,-4.23002 19.514806,-43.58297 9.191044,3.94326 z"
       class="sticker" />
    <path
       style="fill:none;stroke:#000000;stroke-width:0.2;stroke-linecap:butt;stroke-linejoin:bevel;stroke-dasharray:0.5, 1;stroke-dashoffset:0;stroke-opacity:1"
       inkscape:connector-curvature="0"
       id="path16"
       d="m 97.558056,203.278 2.505084,-23.56836 m 0,0 -9.20893,20.56667 m 0,0 -19.643195,43.86973 m 0,0 -18.75259,41.88079 m 0,0 -19.197896,42.87523 m 0,0 -19.197881,42.87526 m 0,0 -3.312098,7.39703 m 0,0 4.555613,2.03982 m 0,0 4.630497,-6.80672 m 0,0 6.321538,-3.8579 m 0,0 27.075376,-32.65956 m 0,0 8.187044,-11.42597 m 0,0 21.659665,-26.68112 m 0,0 5.329564,-33.00637 m 0,0 3.662914,-13.2446 m 0,0 -2.382345,-11.17224 m 0,0 7.76764,-39.08169"
       class="convex" />
    <path
       style="fill:none;stroke:#000000;stroke-width:0.30000001;stroke-linecap:butt;stroke-linejoin:bevel;stroke-dasharray:none;stroke-dashoffset:0;stroke-opacity:1"
       inkscape:connector-curvature="0"
       id="path18"
       d="m 62.14836,239.91602 19.514806,-43.58297 9.191044,3.94326 -9.062655,-4.23002 9.080544,-20.27992 9.191041,3.94327 9.92737,1.21316 -2.47186,23.25595 -9.960594,-0.90075 9.463214,3.68494 -6.96912,35.06404 -10.261734,0.33271 5.693436,-0.68786 2.256311,10.58116 -5.567402,1.27894 6.387756,2.67952 -3.399611,12.29251 -6.651059,-1.72743 8.639954,9.22498 -4.072353,25.22036 -9.897165,-1.43897 7.664807,6.42457 -21.461658,26.43723 -7.862814,-6.18068 5.648688,4.18326 -7.429015,10.36805 -6.406717,-3.12534 7.598266,6.50317 -21.624271,26.08417 -13.049371,0.0722 1.879299,3.19107 -4.814834,2.93839 -3.386003,-2.27156 3.366984,2.36872 -4.557753,6.69978 -3.439728,-2.26178 -1.055695,2.26178 -4.484049,-2.00778 0.984131,-2.29382 -3.672491,-1.71416 3.260066,-7.28081 3.724523,1.59794 L 5,367.5473 l 19.069485,-42.5885 9.191044,3.94326 -9.062648,-4.23002 19.069504,-42.58847 9.19104,3.94326 -9.062648,-4.23002 18.62419,-41.59403 9.191048,3.94326 z"
       class="outer" />
  </g>
  <g
     id="g28"
     transform="translate(163.75282,-337.55261)">
    <path
       style="fill:#e5e5e5;fill-opacity:1;stroke:none;stroke-linecap:butt;stroke-linejoin:bevel;stroke-dasharray:none"
       inkscape:connector-curvature="0"
       id="path22"
       d="m 18.646051,533.38687 -6.70255,-2.4269 2.277583,-12.5499 6.934934,1.14634 z m 2.509967,-13.83046 -9.910129,-1.34684 4.055082,-33.80951 9.947546,1.03489 z m 4.092499,-34.12146 -7.919982,-6.10726 15.28059,-20.47326 12.637373,-0.2132 z m 19.997981,-26.79372 -5.868521,-3.57509 6.463453,-10.99485 6.36914,2.72348 z m -26.62297,134.05591 -0.962742,2.30288 -4.56205,-1.82357 0.889927,-2.33199 z m 3.008232,-7.52571 3.73923,1.56323 -2.96098,7.40749 -3.786482,-1.44501 z m -7.643097,5.67303 -4.017859,-0.89675 1.640692,-7.93527 4.044041,0.77012 z M 14.027883,575.55787 5,566.13501 l 3.68838,-33.68058 9.957671,0.93244 z m 25.040441,-34.00767 9.227342,3.85758 -17.319947,43.32951 -9.343959,-3.56586 z m 60.67384,-151.78818 9.227326,3.85762 -8.24749,20.63271 -9.343947,-3.56586 z m -43.237239,108.16695 9.227328,3.85759 -17.319981,43.32949 -9.343948,-3.56585 z m 17.032116,-42.60942 9.227336,3.8576 -16.9155,42.31767 -9.343952,-3.56585 z m -21.326471,-8.52478 -2.955232,-4.88856 9.169728,-5.74184 3.467411,4.56787 z m 32.347005,-38.8346 -7.577523,-6.52732 14.983296,-17.9569 7.778816,6.28607 z m -68.902038,174.82239 -3.987498,-0.85141 -1.23971,-5.5027 3.599554,-0.87058 z m 75.722516,-172.09607 9.227337,3.85758 -17.724397,44.34133 -9.343952,-3.56585 z m -29.485576,30.04575 -6.901335,-7.60159 20.335216,-29.40323 9.231217,4.23275 z"
       class="sticker" />
    <path
       style="fill:none;stroke:#000000;stroke-width:0.2;stroke-linecap:butt;stroke-linejoin:bevel;stroke-dasharray:0.5, 1;stroke-dashoffset:0;stroke-opacity:1"
       inkscape:connector-curvature="0"
       id="path24"
       d="m 13.988663,590.84446 4.634865,1.85268 m 0,0 3.008232,-7.52571 m 0,0 17.436564,-43.62123 m 0,0 17.436601,-43.62123 m 0,0 17.032116,-42.60942 m 0,0 17.841012,-44.63306 m 0,0 8.364111,-20.92447 m 0,0 -15.184589,18.19815 m 0,0 -22.665098,32.77207 m 0,0 -9.681907,6.06253 m 0,0 -6.964072,11.84646 m 0,0 -19.997981,26.79372 m 0,0 -4.092499,34.12146 m 0,0 -2.509967,13.83046 m 0,0 -4.618168,42.171 m 0,0 1.627654,7.22469 m 0,0 -1.666874,8.0619"
       class="convex" />
    <path
       style="fill:none;stroke:#000000;stroke-width:0.30000001;stroke-linecap:butt;stroke-linejoin:bevel;stroke-dasharray:none;stroke-dashoffset:0;stroke-opacity:1"
       inkscape:connector-curvature="0"
       id="path26"
       d="m 25.37099,586.73466 -2.96098,7.40749 -3.786482,-1.44501 -0.962742,2.30288 -4.56205,-1.82357 0.889927,-2.33199 -4.017859,-0.89675 1.640692,-7.93527 4.044041,0.77012 -3.987498,-0.85141 -1.23971,-5.5027 3.599554,-0.87058 L 5,566.13501 l 3.68838,-33.68058 9.957671,0.93244 -6.70255,-2.4269 2.277583,-12.5499 6.934934,1.14634 -9.910129,-1.34684 4.055082,-33.80951 9.947546,1.03489 -7.919982,-6.10726 15.28059,-20.47326 12.637373,-0.2132 -5.868521,-3.57509 6.463453,-10.99485 6.36914,2.72348 -2.955232,-4.88856 9.169728,-5.74184 3.467411,4.56787 -6.901335,-7.60159 20.335216,-29.40323 9.231217,4.23275 -7.577523,-6.52732 14.983296,-17.9569 7.778816,6.28607 9.227326,3.85762 -8.24749,20.63271 -9.343947,-3.56586 9.227337,3.85758 -17.724397,44.34133 -9.343952,-3.56585 9.227336,3.8576 -16.9155,42.31767 -9.343952,-3.56585 9.227328,3.85759 -17.319981,43.32949 -9.343948,-3.56585 9.227342,3.85758 -17.319947,43.32951 -9.343959,-3.56586 z"
       class="outer" />
  </g>
</svg>
