<?xml version="1.0" encoding="UTF-8" standalone="no"?>
<svg
   xmlns:dc="http://purl.org/dc/elements/1.1/"
   xmlns:cc="http://creativecommons.org/ns#"
   xmlns:rdf="http://www.w3.org/1999/02/22-rdf-syntax-ns#"
   xmlns:svg="http://www.w3.org/2000/svg"
   xmlns="http://www.w3.org/2000/svg"
   xmlns:xlink="http://www.w3.org/1999/xlink"
   xmlns:sodipodi="http://sodipodi.sourceforge.net/DTD/sodipodi-0.dtd"
   xmlns:inkscape="http://www.inkscape.org/namespaces/inkscape"
   version="1.1"
   width="292.10mm"
   height="600.00mm"
   viewBox="0 0 292.10 600.00"
   id="svg520"
   sodipodi:docname="frontseat_back.blend_page8.svg"
   inkscape:version="0.92.3 (2405546, 2018-03-11)">
  <metadata
     id="metadata526">
    <rdf:RDF>
      <cc:Work
         rdf:about="">
        <dc:format>image/svg+xml</dc:format>
        <dc:type
           rdf:resource="http://purl.org/dc/dcmitype/StillImage" />
      </cc:Work>
    </rdf:RDF>
  </metadata>
  <defs
     id="defs524" />
  <sodipodi:namedview
     pagecolor="#ffffff"
     bordercolor="#666666"
     borderopacity="1"
     objecttolerance="10"
     gridtolerance="10"
     guidetolerance="10"
     inkscape:pageopacity="0"
     inkscape:pageshadow="2"
     inkscape:window-width="1853"
     inkscape:window-height="1025"
     id="namedview522"
     showgrid="false"
     inkscape:zoom="0.58870568"
     inkscape:cx="1221.5363"
     inkscape:cy="928.34472"
     inkscape:window-x="67"
     inkscape:window-y="27"
     inkscape:window-maximized="1"
     inkscape:current-layer="svg520"
     inkscape:measure-start="938.676,2082.14"
     inkscape:measure-end="959.095,2052.41" />
  <style
     type="text/css"
     id="style508">
    path {
        fill: none;
        stroke-linecap: butt;
        stroke-linejoin: bevel;
        stroke-dasharray: none;
    }
    path.outer {
        stroke: #000000;
        stroke-dasharray: none;
        stroke-dashoffset: 0;
        stroke-width: 0.3;
        stroke-opacity: 1.0;
    }
    path.convex {
        stroke: #000000;
        stroke-dasharray: 0.50,1.00;
        stroke-dashoffset:0;
        stroke-width:0.2;
        stroke-opacity: 1.0
    }
    path.concave {
        stroke: #000000;
        stroke-dasharray: 1.00,0.50,0.20,0.50;
        stroke-dashoffset: 0;
        stroke-width: 0.2;
        stroke-opacity: 1.0
    }
    path.freestyle {
        stroke: #000000;
        stroke-dasharray: none;
        stroke-dashoffset: 0;
        stroke-width: 0.2;
        stroke-opacity: 1.0
    }
    path.outer_background {
        stroke: #ffffff;
        stroke-opacity: 1.0;
        stroke-width: 0.5
    }
    path.inner_background {
        stroke: #ffffff;
        stroke-opacity: 1.0;
        stroke-width: 0.2
    }
    path.sticker {
        fill: #e5e5e5;
        stroke: none;
        fill-opacity: 1.0;
    }
    path.arrow {
        fill: #000000;
    }
    text {
        font-style: normal;
        fill: #000000;
        fill-opacity: 1.0;
        stroke: none;
    }
    text, tspan {
        text-anchor:middle;
    }
    </style>
  <g
     id="g512"
     transform="translate(-22.881356,-20.338985)" />
  <g
     id="g516"
     transform="rotate(20.240814,124.68131,391.15492)" />
  <g
     id="g602"
     transform="rotate(50.647494,528.88848,193.81919)">
    <path
       sodipodi:type="inkscape:offset"
       inkscape:radius="9.6270409"
       inkscape:original="M 240.59375 302.5 L 209.5293 359.88867 L 185.33008 359.88867 L 157.09961 374.4707 L 147.6582 402.65039 L 147.6582 448.75 L 147.6582 494.84961 L 157.09961 523.0293 L 185.33008 537.61133 L 209.5293 537.61133 L 240.59375 595 L 234.2793 524.62109 L 225.15625 448.75 L 234.2793 372.87891 L 240.59375 302.5 z M 372.76367 473.62891 L 346.10352 506.14062 L 322.64648 534.74414 L 410.31445 606.63281 L 491.80273 673.45703 L 573.29297 740.2793 L 596.75 711.67578 L 639.5332 659.50391 L 568.91016 579.42578 L 476.55273 525.85547 L 372.76367 473.62891 z M 298.11914 572.92383 L 294.70312 577.10352 L 271.29102 605.74414 L 359.07031 677.49609 L 440.66602 744.18945 L 522.26172 810.88477 L 545.67188 782.24414 L 549.08789 778.06445 L 467.49414 711.36914 L 385.89844 644.67383 L 298.11914 572.92383 z "
       xlink:href="#path600"
       style="fill:none;stroke:#000000;stroke-width:0.30000001;stroke-linecap:butt;stroke-linejoin:bevel;stroke-dasharray:none;stroke-dashoffset:0;stroke-opacity:1"
       id="path771"
       inkscape:href="#path600"
       d="m 240.20508,292.88477 a 9.6280036,9.6280036 0 0 0 -8.07813,5.0332 l -28.33398,52.34375 h -18.46289 a 9.6280036,9.6280036 0 0 0 -4.41797,1.07422 l -28.23047,14.58203 a 9.6280036,9.6280036 0 0 0 -4.71094,5.49414 l -9.4414,28.17969 a 9.6280036,9.6280036 0 0 0 -0.49805,3.05859 V 448.75 494.84961 a 9.6280036,9.6280036 0 0 0 0.49805,3.05859 l 9.4414,28.17969 a 9.6280036,9.6280036 0 0 0 4.71094,5.49414 l 28.23047,14.58203 a 9.6280036,9.6280036 0 0 0 4.41797,1.07422 h 18.46289 l 28.33398,52.34375 a 9.6280036,9.6280036 0 0 0 18.05469,-5.44141 l -6.31445,-70.3789 a 9.6280036,9.6280036 0 0 0 -0.0293,-0.28906 l -8.98437,-74.72266 8.98437,-74.72266 a 9.6280036,9.6280036 0 0 0 0.0293,-0.28906 l 6.31445,-70.3789 a 9.6280036,9.6280036 0 0 0 -9.97656,-10.47461 z M 372.4375,464.00781 a 9.6280036,9.6280036 0 0 0 -7.11719,3.51758 l -26.66015,32.50977 -23.45704,28.60351 a 9.6280036,9.6280036 0 0 0 1.33985,13.54883 l 87.66797,71.88867 81.48633,66.82422 a 9.6280036,9.6280036 0 0 0 0.002,0 l 81.49023,66.82227 a 9.6280036,9.6280036 0 0 0 13.54688,-1.33789 l 23.45703,-28.60352 42.7832,-52.17187 a 9.6280036,9.6280036 0 0 0 -0.22265,-12.47266 l -70.62305,-80.07813 a 9.6280036,9.6280036 0 0 0 -2.39063,-1.96093 l -92.35742,-53.57032 a 9.6280036,9.6280036 0 0 0 -0.50195,-0.27148 L 377.0918,465.0293 a 9.6280036,9.6280036 0 0 0 -4.6543,-1.02149 z m -74.46094,99.29102 a 9.6280036,9.6280036 0 0 0 -7.3125,3.5332 l -3.41406,4.17969 -23.41211,28.63867 a 9.6280036,9.6280036 0 0 0 1.36133,13.54688 l 87.77734,71.75195 a 9.6280036,9.6280036 0 0 0 0.002,0 l 81.5957,66.69336 81.5957,66.69531 a 9.6280036,9.6280036 0 0 0 13.54492,-1.36133 L 553.125,788.33594 a 9.6280036,9.6280036 0 0 0 0.002,0 l 3.41602,-4.17969 a 9.6280036,9.6280036 0 0 0 -1.36328,-13.54492 l -81.59375,-66.69531 -81.59571,-66.69532 -87.77929,-71.75 a 9.6280036,9.6280036 0 0 0 -6.23438,-2.17187 z" />
    <path
       id="path600"
       style="fill:none;stroke:#000000;stroke-width:0.30000001;stroke-linecap:butt;stroke-linejoin:bevel;stroke-dasharray:none;stroke-dashoffset:0;stroke-opacity:1"
       d="m 240.59441,595.00002 -31.06529,-57.38808 -24.19867,2e-5 -28.23175,-14.58225 -9.44003,-28.17968 v -46.10002 -46.10002 l 9.44007,-28.17967 28.23173,-14.58228 24.1987,3e-5 31.06531,-57.38807 -6.31523,70.37804 -9.12345,75.87197 9.1234,75.87198 z m 145.30377,49.67444 81.59501,66.69498 81.59499,66.69497 -3.41576,4.17885 -23.41167,28.64192 -81.59498,-66.69496 -81.59501,-66.69496 -87.77956,-71.75015 23.41165,-28.64195 3.41575,-4.17886 z m -39.79404,-138.53476 26.65903,-32.51014 103.78953,52.22665 92.35803,53.56989 70.62162,80.07705 -42.7821,52.17189 -23.45676,28.60499 -81.48982,-66.82345 -81.48982,-66.82345 -87.66645,-71.88842 z"
       inkscape:connector-curvature="0" />
  </g>
</svg>
