<?xml version="1.0" encoding="UTF-8" standalone="no"?>
<svg
   xmlns:dc="http://purl.org/dc/elements/1.1/"
   xmlns:cc="http://creativecommons.org/ns#"
   xmlns:rdf="http://www.w3.org/1999/02/22-rdf-syntax-ns#"
   xmlns:svg="http://www.w3.org/2000/svg"
   xmlns="http://www.w3.org/2000/svg"
   xmlns:xlink="http://www.w3.org/1999/xlink"
   xmlns:sodipodi="http://sodipodi.sourceforge.net/DTD/sodipodi-0.dtd"
   xmlns:inkscape="http://www.inkscape.org/namespaces/inkscape"
   version="1.1"
   width="11.5in"
   height="23.5in"
   viewBox="0 0 292.1 596.9"
   id="svg4958"
   sodipodi:docname="frontseat_back.blend_page2.svg"
   inkscape:version="0.92.3 (2405546, 2018-03-11)">
  <metadata
     id="metadata4964">
    <rdf:RDF>
      <cc:Work
         rdf:about="">
        <dc:format>image/svg+xml</dc:format>
        <dc:type
           rdf:resource="http://purl.org/dc/dcmitype/StillImage" />
        <dc:title></dc:title>
      </cc:Work>
    </rdf:RDF>
  </metadata>
  <defs
     id="defs4962" />
  <sodipodi:namedview
     pagecolor="#ffffff"
     bordercolor="#666666"
     borderopacity="1"
     objecttolerance="10"
     gridtolerance="10"
     guidetolerance="10"
     inkscape:pageopacity="0"
     inkscape:pageshadow="2"
     inkscape:window-width="1853"
     inkscape:window-height="1025"
     id="namedview4960"
     showgrid="false"
     units="in"
     inkscape:zoom="0.20813889"
     inkscape:cx="1239.5959"
     inkscape:cy="731.36018"
     inkscape:window-x="67"
     inkscape:window-y="27"
     inkscape:window-maximized="1"
     inkscape:current-layer="svg4958"
     inkscape:measure-start="437.974,1860.9"
     inkscape:measure-end="474.089,1860.35" />
  <style
     type="text/css"
     id="style4938">
    path {
        fill: none;
        stroke-linecap: butt;
        stroke-linejoin: bevel;
        stroke-dasharray: none;
    }
    path.outer {
        stroke: #000000;
        stroke-dasharray: none;
        stroke-dashoffset: 0;
        stroke-width: 0.3;
        stroke-opacity: 1.0;
    }
    path.convex {
        stroke: #000000;
        stroke-dasharray: 0.50,1.00;
        stroke-dashoffset:0;
        stroke-width:0.2;
        stroke-opacity: 1.0
    }
    path.concave {
        stroke: #000000;
        stroke-dasharray: 1.00,0.50,0.20,0.50;
        stroke-dashoffset: 0;
        stroke-width: 0.2;
        stroke-opacity: 1.0
    }
    path.freestyle {
        stroke: #000000;
        stroke-dasharray: none;
        stroke-dashoffset: 0;
        stroke-width: 0.2;
        stroke-opacity: 1.0
    }
    path.outer_background {
        stroke: #ffffff;
        stroke-opacity: 1.0;
        stroke-width: 0.5
    }
    path.inner_background {
        stroke: #ffffff;
        stroke-opacity: 1.0;
        stroke-width: 0.2
    }
    path.sticker {
        fill: #e5e5e5;
        stroke: none;
        fill-opacity: 1.0;
    }
    path.arrow {
        fill: #000000;
    }
    text {
        font-style: normal;
        fill: #000000;
        fill-opacity: 1.0;
        stroke: none;
    }
    text, tspan {
        text-anchor:middle;
    }
    </style>
  <g
     id="g4942"
     transform="translate(-35.055718,353.74922)" />
  <g
     id="g4950"
     transform="translate(45.890042,166.89069)" />
  <g
     id="g4954"
     transform="rotate(-2.5757477,-1216.9467,187.58146)" />
  <g
     id="g5064"
     transform="translate(167.1375,-36.678386)">
    <path
       sodipodi:type="inkscape:offset"
       inkscape:radius="9.7021828"
       inkscape:original="M 85.695312 72.273438 L 80.300781 72.410156 L 43.318359 73.357422 L 26.919922 73.777344 L 10.925781 114.53906 L 5 153.99609 L 5 219.29688 L 47.029297 218.2207 L 84.009766 217.27344 L 89.40625 217.13672 L 87.734375 151.87695 L 86.728516 112.59766 L 85.695312 72.273438 z M -103.27734 96.960938 L -120.58594 100.67383 L -132.23828 142.88281 L -134.51953 182.71484 L -133.60547 248.00977 L -143.5625 363.77148 L -149.83008 470.35742 L -133.19336 575.81836 L -35.720703 571.43359 L -23.621094 464.17383 L -28.076172 358.88281 L -43.566406 245.67969 L -50.449219 180.5 L -51.257812 141.2168 L -43.697266 98.703125 L -103.27734 96.960938 z M 10.392578 261.54492 L 10.392578 326.8457 L 16.320312 366.30273 L 32.314453 407.06445 L 48.712891 407.48438 L 85.693359 408.43164 L 91.087891 408.56836 L 92.121094 368.24414 L 93.126953 328.96484 L 94.798828 263.70508 L 89.402344 263.56836 L 52.421875 262.62109 L 10.392578 261.54492 z M 13.853516 472.23047 L 13.853516 479.21875 L 13.853516 511.75 L 13.853516 530.17188 L 13.853516 595.42773 L 19.748047 595.42773 L 60.15625 595.42773 L 72.634766 595.42773 L 72.607422 530.17188 L 72.580078 511.75 L 72.580078 479.21875 L 72.646484 472.23047 L 56.242188 472.23047 L 19.25 472.23047 L 13.853516 472.23047 z "
       xlink:href="#path5062"
       style="fill:none;stroke:#000000;stroke-width:0.30000001;stroke-linecap:butt;stroke-linejoin:bevel;stroke-dasharray:none;stroke-dashoffset:0;stroke-opacity:1"
       id="path5337"
       inkscape:href="#path5062"
       d="m 85.449219,62.574219 c -4.773531,0.120893 -1.271199,0.03248 -5.396485,0.136719 l -36.982422,0.947265 -16.398437,0.419922 a 9.703153,9.703153 0 0 0 -8.783203,6.15625 L 1.8945312,110.99609 a 9.703153,9.703153 0 0 0 -0.5625,2.10157 L -4.59375,152.55469 a 9.703153,9.703153 0 0 0 -0.109375,1.4414 v 65.30079 a 9.703153,9.703153 0 0 0 9.9511719,9.69921 l 42.0292971,-1.07617 36.980468,-0.94726 5.394532,-0.13672 a 9.703153,9.703153 0 0 0 9.453125,-9.94727 l -1.671875,-65.25976 -1.00586,-39.2793 -1.033203,-40.324219 A 9.703153,9.703153 0 0 0 85.449219,62.574219 Z M -102.99414,87.263672 a 9.703153,9.703153 0 0 0 -2.31836,0.210937 l -17.30859,3.712891 a 9.703153,9.703153 0 0 0 -7.31641,6.904297 l -11.65234,42.208983 a 9.703153,9.703153 0 0 0 -0.33399,2.02734 l -2.28125,39.83204 a 9.703153,9.703153 0 0 0 -0.0156,0.6914 l 0.90625,64.8086 -9.91407,115.27929 a 9.703153,9.703153 0 0 0 -0.0195,0.26172 l -6.26757,106.58594 a 9.703153,9.703153 0 0 0 0.10156,2.08203 l 16.63672,105.46094 a 9.703153,9.703153 0 0 0 10.01953,8.17969 l 97.472654,-4.38477 a 9.703153,9.703153 0 0 0 9.205078,-8.60352 l 12.099609,-107.25976 a 9.703153,9.703153 0 0 0 0.05274,-1.49805 l -4.455078,-105.29101 a 9.703153,9.703153 0 0 0 -0.08008,-0.9043 l -15.470703,-113.05664 -6.824218,-64.62305 -0.779297,-37.91406 7.392578,-41.57227 A 9.703153,9.703153 0 0 0 -43.414062,89.005859 Z M 10.640625,251.8457 a 9.703153,9.703153 0 0 0 -9.95117188,9.69922 v 65.30078 a 9.703153,9.703153 0 0 0 0.109375,1.44141 l 5.92773438,39.45703 a 9.703153,9.703153 0 0 0 0.5625,2.10156 l 15.9941405,40.76172 a 9.703153,9.703153 0 0 0 8.783203,6.15625 l 16.398438,0.41992 36.980468,0.94727 a 9.703153,9.703153 0 0 0 0.002,0 l 5.394531,0.13672 a 9.703153,9.703153 0 0 0 9.945313,-9.45117 l 1.0332,-40.32422 1.00586,-39.2793 1.67188,-65.25977 a 9.703153,9.703153 0 0 0 -9.453128,-9.94726 l -5.394531,-0.13672 -36.980469,-0.94726 z m 3.212891,210.68164 a 9.703153,9.703153 0 0 0 -9.7031254,9.70313 v 6.98828 32.53125 18.42188 65.25585 a 9.703153,9.703153 0 0 0 9.7031254,9.70313 h 5.894531 40.408203 12.478516 a 9.703153,9.703153 0 0 0 9.703125,-9.70703 l -0.02734,-65.25586 a 9.703153,9.703153 0 0 0 0,-0.01 l -0.02734,-18.41601 v -32.47657 l 0.06445,-6.94335 a 9.703153,9.703153 0 0 0 -9.701172,-9.79493 H 56.242188 19.25 Z" />
    <path
       id="path5062"
       style="fill:none;stroke:#000000;stroke-width:0.30000001;stroke-linecap:butt;stroke-linejoin:bevel;stroke-dasharray:none;stroke-dashoffset:0;stroke-opacity:1"
       d="m 10.926519,114.53971 15.994048,-40.761681 16.3987,-0.419975 36.980674,-0.947118 5.395494,-0.138163 1.032725,40.325647 1.005918,39.27868 1.67127,65.25889 -5.39548,0.13819 -36.980655,0.94706 L 5,219.29761 l 6e-6,-65.30168 z m -34.547128,349.63439 -12.099632,107.2594 -97.473239,4.38489 -16.63741,-105.4618 6.26929,-106.58533 9.95593,-115.76171 -0.91333,-65.29373 2.27998,-39.83362 11.65346,-42.20786 17.30833,-3.713178 59.579036,1.742761 -7.558724,42.512597 0.80805,39.28302 6.881496,65.18057 15.490528,113.20343 z m 39.940301,-97.87189 -5.9265,-39.45625 v -65.30172 l 42.02921,1.0764 36.98065,0.94706 5.39548,0.13817 -1.67126,65.25892 -1.00595,39.27869 -1.03271,40.32564 -5.3955,-0.13817 -36.98066,-0.94714 -16.3987,-0.41998 z m 56.32721,105.92776 -0.0672,6.98829 v 32.53126 l 0.0272,18.42138 0.0272,65.25675 -12.47794,-3e-5 -40.40793,3e-5 h -5.89552 l -2e-5,-65.25675 v -18.42132 -32.53126 -6.98829 h 5.39725 36.99279 z"
       inkscape:connector-curvature="0" />
  </g>
</svg>
