<?xml version="1.0" encoding="UTF-8" standalone="no"?>
<svg
   xmlns:dc="http://purl.org/dc/elements/1.1/"
   xmlns:cc="http://creativecommons.org/ns#"
   xmlns:rdf="http://www.w3.org/1999/02/22-rdf-syntax-ns#"
   xmlns:svg="http://www.w3.org/2000/svg"
   xmlns="http://www.w3.org/2000/svg"
   xmlns:sodipodi="http://sodipodi.sourceforge.net/DTD/sodipodi-0.dtd"
   xmlns:inkscape="http://www.inkscape.org/namespaces/inkscape"
   version="1.1"
   width="300.00mm"
   height="600.00mm"
   viewBox="0 0 300.00 600.00"
   id="svg23498"
   sodipodi:docname="frontseat_edgesupport_slice2.svg"
   inkscape:version="0.92.2 (5c3e80d, 2017-08-06)">
  <metadata
     id="metadata288">
    <rdf:RDF>
      <cc:Work
         rdf:about="">
        <dc:format>image/svg+xml</dc:format>
        <dc:type
           rdf:resource="http://purl.org/dc/dcmitype/StillImage" />
      </cc:Work>
    </rdf:RDF>
  </metadata>
  <defs
     id="defs23502" />
  <sodipodi:namedview
     id="namedview23500"
     pagecolor="#ffffff"
     bordercolor="#666666"
     borderopacity="1.0"
     inkscape:pageshadow="2"
     inkscape:pageopacity="0.0"
     inkscape:pagecheckerboard="0"
     inkscape:document-units="mm"
     showgrid="false"
     inkscape:zoom="0.35057292"
     inkscape:cx="757.7849"
     inkscape:cy="1099.6697"
     inkscape:window-width="1920"
     inkscape:window-height="1017"
     inkscape:window-x="-8"
     inkscape:window-y="209"
     inkscape:window-maximized="1"
     inkscape:current-layer="svg23498" />
  <style
     type="text/css"
     id="style23098">
    path {
        fill: none;
        stroke-linecap: butt;
        stroke-linejoin: bevel;
        stroke-dasharray: none;
    }
    path.outer {
        stroke: #000000;
        stroke-dasharray: none;
        stroke-dashoffset: 0;
        stroke-width: 0.3;
        stroke-opacity: 1.0;
    }
    path.convex {
        stroke: #000000;
        stroke-dasharray: 0.50,1.00;
        stroke-dashoffset:0;
        stroke-width:0.2;
        stroke-opacity: 1.0
    }
    path.concave {
        stroke: #000000;
        stroke-dasharray: 1.00,0.50,0.20,0.50;
        stroke-dashoffset: 0;
        stroke-width: 0.2;
        stroke-opacity: 1.0
    }
    path.freestyle {
        stroke: #000000;
        stroke-dasharray: none;
        stroke-dashoffset: 0;
        stroke-width: 0.2;
        stroke-opacity: 1.0
    }
    path.outer_background {
        stroke: #ffffff;
        stroke-opacity: 1.0;
        stroke-width: 0.5
    }
    path.inner_background {
        stroke: #ffffff;
        stroke-opacity: 1.0;
        stroke-width: 0.2
    }
    path.sticker {
        fill: #e5e5e5;
        stroke: none;
        fill-opacity: 1.0;
    }
    path.arrow {
        fill: #000000;
    }
    text {
        font-style: normal;
        fill: #000000;
        fill-opacity: 1.0;
        stroke: none;
    }
    text, tspan {
        text-anchor:middle;
    }
    </style>
  <g
     id="g847">
    <path
       class="sticker"
       d="m 212.53848,506.43798 -8.84868,-4.12123 -2.21893,-8.27926 7.1948,-2.04992 z m 13.53387,-132.39462 -9.18738,-4.58319 4.48286,-18.79531 10.1377,0.59872 z m 8.52789,165.16558 -10.86971,1.76054 -19.39968,-28.81668 8.20763,-5.71482 z m -27.20553,-140.10178 -7.92455,-6.10133 18.04543,-24.21546 8.55676,5.25299 z m -6.00976,37.11826 -9.84634,-1.75336 5.77998,-35.69902 10.07612,0.33412 z m -2.408,8.69254 -4.32736,-1.27228 1.45842,-5.26468 5.27694,-2.15558 z m 70.39261,47.63669 9.99809,0.25049 -0.43585,46.66086 -10.00105,0.0637 z m -3.01206,-254.74861 -7.89339,-9.38053 3.76827,-14.4922 9.71772,2.36448 z m 5.32558,7.07674 9.99811,0.25048 -0.99421,106.43264 -10.00104,0.0637 z m -29.78131,337.62979 -9.88691,1.50777 -7.24932,-42.99382 9.8347,-1.81758 z m -40.61702,-128.61505 -4.50792,1.08338 -2.27154,-8.83851 4.47166,-1.22443 z m 70.66535,-237.59973 9.99809,0.25049 -0.26407,28.27081 -10.00104,0.0637 z m -1.26416,135.33179 9.9981,0.25049 -0.44604,47.75047 -10.00104,0.0637 z m -2.15901,231.13173 -0.25049,9.99808 -26.31099,-0.24578 -0.0637,-10.00104 z m 0.40382,-43.23163 9.9981,0.25045 -0.4009,42.9175 -10.00102,0.0637 z m 0.8776,-93.95006 9.9981,0.2505 -0.43586,46.66086 -10.00103,0.0637 z m -38.30282,-94.31604 -9.42823,-3.33665 25.99837,-77.3018 16.06808,-16.4059 z m 32.63822,-97.04435 -4.141,-0.55318 0.84798,-7.20872 4.26906,-0.53542 z m -55.47808,237.76834 -10.13913,0.24213 -7.02929,-36.27559 9.7875,-2.05659 z m 56.45412,-246.06566 -4.0482,-0.68259 1.21828,-7.98838 4.06763,0.5551 z m 5.11717,153.7723 9.9981,0.2505 -0.42569,45.57124 -10.00102,0.0637 z"
       id="path23104"
       inkscape:connector-curvature="0"
       style="fill:#e5e5e5;fill-opacity:1;stroke:#000000;stroke-width:0.25;stroke-linecap:butt;stroke-linejoin:bevel;stroke-dasharray:none;stroke-opacity:1" />
    <path
       class="sticker"
       d="m 88.020176,473.03598 8.8813,-4.05048 2.28492,-8.26129 -7.1782,-2.10727 z m -12.47677,-132.49843 9.22366,-4.5097 -4.3327,-18.83049 -10.14216,0.51779 z m -9.84583,165.09227 10.85531,1.84724 19.62905,-28.66093 -8.16176,-5.78015 z m 28.32282,-139.88018 7.973004,-6.0379 -17.851594,-24.35871 -8.5984,5.18452 z m 5.71333,37.16503 9.860024,-1.67472 -5.49488,-35.74401 -10.078474,0.2537 z m 2.338554,8.71149 4.33738,-1.23771 -1.41636,-5.27614 -5.259574,-2.19764 z m -70.770564,47.07336 -9.99978,0.17069 0.0634,46.66284 10.00022,0.1435 z m 5.04514,-254.71646 7.96797,-9.31726 -3.65248,-14.52182 -9.73627,2.28684 z m -5.38188,7.03401 -9.99979,0.17067 0.14473,106.43718 10.00019,0.14351 z m 27.08568,337.85673 9.87456,1.58663 7.59223,-42.93459 -9.81987,-1.89602 z m 41.64223,-128.28679 4.499124,1.11933 2.34201,-8.82011 -4.46174,-1.26007 z m -68.76678,-238.15616 -9.99977,0.17069 0.0384,28.27202 10.00021,0.14351 z m 0.184,135.33758 -9.99977,0.17069 0.0649,47.7525 10.00021,0.14348 z m 0.31425,231.1416 0.17069,9.99976 26.31212,-0.0358 0.14349,-10.00021 z m -0.0588,-43.23348 -9.99978,0.17066 0.0584,42.91932 10.00019,0.1435 z m -0.12774,-93.95407 -9.99977,0.1707 0.0634,46.66284 10.00021,0.1435 z m 39.05436,-94.00733 9.45454,-3.26131 -25.38056,-77.50683 -15.93664,-16.53361 z m -31.86266,-97.30175 4.14528,-0.52013 -0.79042,-7.21525 -4.26464,-0.56947 z m 53.57865,238.20354 10.136874,0.32305 7.31859,-36.21834 -9.770774,-2.13464 z m -54.48843,-246.50839 4.05352,-0.65027 -1.15449,-7.99784 -4.07194,0.52262 z m -6.34429,153.72655 -9.99978,0.1707 0.0619,45.57319 10.0002,0.14349 z"
       id="path23104-2"
       inkscape:connector-curvature="0"
       style="fill:#e5e5e5;fill-opacity:1;stroke:#000000;stroke-width:0.25;stroke-linecap:butt;stroke-linejoin:bevel;stroke-dasharray:none;stroke-opacity:1" />
    <path
       class="sticker"
       d="m 249.97114,83.04599 9.97826,0.055 -1.91614,36.8686 -9.99464,0.25978 z m -1.93252,37.18339 4.14295,-9.36132 8.8291,3.30128 33.38906,23.39479 z m -47.862,-74.39589 3.81205,-9.484094 27.35757,9.072474 -3.51974,9.58104 z m -50.79902,92.08725 -0.67761,10.02053 -33.73324,0.34581 0.36383,-10.01731 z m -53.781036,0.55134 -0.67759,10.02054 -37.96256,0.38919 0.36384,-10.01733 z m -38.27631,0.3924 -2.89042,10.09593 -27.63676,0.87179 -22.5551498,-9.2933 z m 50.781396,-92.08701 0.67759,-10.020554 45.72371,-0.46874 -0.36382,10.017314 z m 119.72485,8.22544 8.08454,-6.39212 21.95571,27.80383 -7.89561,6.63137 z m 13.60846,81.97405 -0.67759,10.02053 -37.96256,0.38917 0.36383,-10.01731 z m 52.96477,0.58717 -23.54589,9.76592 -27.57539,-0.3057 -1.84349,-10.04739 z m -91.24109,-0.19478 -4.1991,9.93691 -10.34453,0.10605 -5.19039,-9.84064 z m -49.01951,-91.06386 0.67757,-10.020544 45.72376,-0.468781 -0.36384,10.017325 z m -74.670476,10.21838 -2.52704,-9.51904 28.330276,-9.643374 2.82976,9.416014 z m -25.08481,28.52733 -7.21436,-6.47648 24.87081,-28.28394 7.42836,6.23309 z m -1.93254,37.18344 -9.97825,-0.055 1.91618,-36.868656 9.99461,-0.25976 z M 4.2379242,140.5389 40.095694,116.43422 l 9.18185,-3.48593 3.17376,9.28635 z m 179.1866958,-2.96723 -0.67759,10.02053 -33.73327,0.34584 0.36384,-10.0173 z m -68.09404,0.6981 -6.2195,9.95761 -10.344376,0.10604 -3.17014,-9.86134 z"
       id="path23272"
       style="fill:#e5e5e5;fill-opacity:1;stroke:#000000;stroke-width:0.25;stroke-linecap:butt;stroke-linejoin:bevel;stroke-dasharray:none;stroke-opacity:1"
       inkscape:connector-curvature="0" />
    <g
       transform="rotate(155.80551,98.624945,288.07124)"
       id="g20">
      <path
         class="sticker"
         d="m 83.180283,299.7829 7.664807,6.42457 -21.461658,26.43723 -7.862814,-6.18068 z m 16.882857,-120.07326 9.92737,1.21316 -2.47186,23.25595 -9.960594,-0.90075 z m -9.20893,20.56667 -9.062655,-4.23002 9.080544,-20.27992 9.191041,3.94327 z m -2.344363,66.50022 8.639954,9.22498 -4.072353,25.22036 -9.897165,-1.43897 z m 3.662914,-13.2446 6.387756,2.67952 -3.399611,12.29251 -6.651059,-1.72743 z m 5.385295,-50.25393 9.463214,3.68494 -6.96912,35.06404 -10.261734,0.33271 z m -86.807506,175.89635 -3.672491,-1.71416 3.260066,-7.28081 3.724523,1.59794 z M 14.062648,371.77732 5,367.5473 l 19.069485,-42.5885 9.191044,3.94326 z m 38.395777,-85.75049 -9.062648,-4.23002 18.62419,-41.59403 9.191048,3.94326 z m -26.200227,84.52272 1.879299,3.19107 -4.814834,2.93839 -3.386003,-2.27156 z m -10.952035,10.66462 -1.055695,2.26178 -4.484049,-2.00778 0.984131,-2.29382 z m 38.027411,-43.32418 7.598266,6.50317 -21.624271,26.08417 -13.049371,0.0722 z m 8.187044,-11.42597 5.648688,4.18326 -7.429015,10.36805 -6.406717,-3.12534 z m -41.583958,47.94343 3.366984,2.36872 -4.557753,6.69978 -3.439728,-2.26178 z m 69.853756,-132.04776 5.693436,-0.68786 2.256311,10.58116 -5.567402,1.27894 z m -56.529887,86.54237 -9.062648,-4.23002 19.069504,-42.58847 9.19104,3.94326 z m 37.950486,-84.75602 -9.062655,-4.23002 19.514806,-43.58297 9.191044,3.94326 z"
         id="path14"
         inkscape:connector-curvature="0"
         style="fill:#e5e5e5;fill-opacity:1;stroke:none;stroke-linecap:butt;stroke-linejoin:bevel;stroke-dasharray:none" />
      <path
         class="convex"
         d="m 97.558056,203.278 2.505084,-23.56836 m 0,0 -9.20893,20.56667 m 0,0 -19.643195,43.86973 m 0,0 -18.75259,41.88079 m 0,0 -19.197896,42.87523 m 0,0 -19.197881,42.87526 m 0,0 -3.312098,7.39703 m 0,0 4.555613,2.03982 m 0,0 4.630497,-6.80672 m 0,0 6.321538,-3.8579 m 0,0 27.075376,-32.65956 m 0,0 8.187044,-11.42597 m 0,0 21.659665,-26.68112 m 0,0 5.329564,-33.00637 m 0,0 3.662914,-13.2446 m 0,0 -2.382345,-11.17224 m 0,0 7.76764,-39.08169"
         id="path16"
         inkscape:connector-curvature="0"
         style="fill:none;stroke:#000000;stroke-width:0.2;stroke-linecap:butt;stroke-linejoin:bevel;stroke-dasharray:0.5, 1;stroke-dashoffset:0;stroke-opacity:1" />
      <path
         class="outer"
         d="m 62.14836,239.91602 19.514806,-43.58297 9.191044,3.94326 -9.062655,-4.23002 9.080544,-20.27992 9.191041,3.94327 9.92737,1.21316 -2.47186,23.25595 -9.960594,-0.90075 9.463214,3.68494 -6.96912,35.06404 -10.261734,0.33271 5.693436,-0.68786 2.256311,10.58116 -5.567402,1.27894 6.387756,2.67952 -3.399611,12.29251 -6.651059,-1.72743 8.639954,9.22498 -4.072353,25.22036 -9.897165,-1.43897 7.664807,6.42457 -21.461658,26.43723 -7.862814,-6.18068 5.648688,4.18326 -7.429015,10.36805 -6.406717,-3.12534 7.598266,6.50317 -21.624271,26.08417 -13.049371,0.0722 1.879299,3.19107 -4.814834,2.93839 -3.386003,-2.27156 3.366984,2.36872 -4.557753,6.69978 -3.439728,-2.26178 -1.055695,2.26178 -4.484049,-2.00778 0.984131,-2.29382 -3.672491,-1.71416 3.260066,-7.28081 3.724523,1.59794 L 5,367.5473 l 19.069485,-42.5885 9.191044,3.94326 -9.062648,-4.23002 19.069504,-42.58847 9.19104,3.94326 -9.062648,-4.23002 18.62419,-41.59403 9.191048,3.94326 z"
         id="path18"
         inkscape:connector-curvature="0"
         style="fill:none;stroke:#000000;stroke-width:0.30000001;stroke-linecap:butt;stroke-linejoin:bevel;stroke-dasharray:none;stroke-dashoffset:0;stroke-opacity:1" />
    </g>
    <g
       transform="rotate(158.73349,139.0014,397.24012)"
       id="g28">
      <path
         class="sticker"
         d="m 18.646051,533.38687 -6.70255,-2.4269 2.277583,-12.5499 6.934934,1.14634 z m 2.509967,-13.83046 -9.910129,-1.34684 4.055082,-33.80951 9.947546,1.03489 z m 4.092499,-34.12146 -7.919982,-6.10726 15.28059,-20.47326 12.637373,-0.2132 z m 19.997981,-26.79372 -5.868521,-3.57509 6.463453,-10.99485 6.36914,2.72348 z m -26.62297,134.05591 -0.962742,2.30288 -4.56205,-1.82357 0.889927,-2.33199 z m 3.008232,-7.52571 3.73923,1.56323 -2.96098,7.40749 -3.786482,-1.44501 z m -7.643097,5.67303 -4.017859,-0.89675 1.640692,-7.93527 4.044041,0.77012 z M 14.027883,575.55787 5,566.13501 l 3.68838,-33.68058 9.957671,0.93244 z m 25.040441,-34.00767 9.227342,3.85758 -17.319947,43.32951 -9.343959,-3.56586 z m 60.67384,-151.78818 9.227326,3.85762 -8.24749,20.63271 -9.343947,-3.56586 z m -43.237239,108.16695 9.227328,3.85759 -17.319981,43.32949 -9.343948,-3.56585 z m 17.032116,-42.60942 9.227336,3.8576 -16.9155,42.31767 -9.343952,-3.56585 z m -21.326471,-8.52478 -2.955232,-4.88856 9.169728,-5.74184 3.467411,4.56787 z m 32.347005,-38.8346 -7.577523,-6.52732 14.983296,-17.9569 7.778816,6.28607 z m -68.902038,174.82239 -3.987498,-0.85141 -1.23971,-5.5027 3.599554,-0.87058 z m 75.722516,-172.09607 9.227337,3.85758 -17.724397,44.34133 -9.343952,-3.56585 z m -29.485576,30.04575 -6.901335,-7.60159 20.335216,-29.40323 9.231217,4.23275 z"
         id="path22"
         inkscape:connector-curvature="0"
         style="fill:#e5e5e5;fill-opacity:1;stroke:none;stroke-linecap:butt;stroke-linejoin:bevel;stroke-dasharray:none" />
      <path
         class="convex"
         d="m 13.988663,590.84446 4.634865,1.85268 m 0,0 3.008232,-7.52571 m 0,0 17.436564,-43.62123 m 0,0 17.436601,-43.62123 m 0,0 17.032116,-42.60942 m 0,0 17.841012,-44.63306 m 0,0 8.364111,-20.92447 m 0,0 -15.184589,18.19815 m 0,0 -22.665098,32.77207 m 0,0 -9.681907,6.06253 m 0,0 -6.964072,11.84646 m 0,0 -19.997981,26.79372 m 0,0 -4.092499,34.12146 m 0,0 -2.509967,13.83046 m 0,0 -4.618168,42.171 m 0,0 1.627654,7.22469 m 0,0 -1.666874,8.0619"
         id="path24"
         inkscape:connector-curvature="0"
         style="fill:none;stroke:#000000;stroke-width:0.2;stroke-linecap:butt;stroke-linejoin:bevel;stroke-dasharray:0.5, 1;stroke-dashoffset:0;stroke-opacity:1" />
      <path
         class="outer"
         d="m 25.37099,586.73466 -2.96098,7.40749 -3.786482,-1.44501 -0.962742,2.30288 -4.56205,-1.82357 0.889927,-2.33199 -4.017859,-0.89675 1.640692,-7.93527 4.044041,0.77012 -3.987498,-0.85141 -1.23971,-5.5027 3.599554,-0.87058 L 5,566.13501 l 3.68838,-33.68058 9.957671,0.93244 -6.70255,-2.4269 2.277583,-12.5499 6.934934,1.14634 -9.910129,-1.34684 4.055082,-33.80951 9.947546,1.03489 -7.919982,-6.10726 15.28059,-20.47326 12.637373,-0.2132 -5.868521,-3.57509 6.463453,-10.99485 6.36914,2.72348 -2.955232,-4.88856 9.169728,-5.74184 3.467411,4.56787 -6.901335,-7.60159 20.335216,-29.40323 9.231217,4.23275 -7.577523,-6.52732 14.983296,-17.9569 7.778816,6.28607 9.227326,3.85762 -8.24749,20.63271 -9.343947,-3.56586 9.227337,3.85758 -17.724397,44.34133 -9.343952,-3.56585 9.227336,3.8576 -16.9155,42.31767 -9.343952,-3.56585 9.227328,3.85759 -17.319981,43.32949 -9.343948,-3.56585 9.227342,3.85758 -17.319947,43.32951 -9.343959,-3.56586 z"
         id="path26"
         inkscape:connector-curvature="0"
         style="fill:none;stroke:#000000;stroke-width:0.30000001;stroke-linecap:butt;stroke-linejoin:bevel;stroke-dasharray:none;stroke-dashoffset:0;stroke-opacity:1" />
    </g>
  </g>
</svg>
