<?xml version="1.0" encoding="UTF-8" standalone="no"?>
<svg
   version="1.1"
   width="300.00mm"
   height="600.00mm"
   viewBox="0 0 300.00 600.00"
   id="svg15159"
   sodipodi:docname="frontseat_edgesupport_slice1.svg"
   inkscape:version="1.1.1 (c3084ef, 2021-09-22)"
   xmlns:inkscape="http://www.inkscape.org/namespaces/inkscape"
   xmlns:sodipodi="http://sodipodi.sourceforge.net/DTD/sodipodi-0.dtd"
   xmlns="http://www.w3.org/2000/svg"
   xmlns:svg="http://www.w3.org/2000/svg">
  <defs
     id="defs15163" />
  <sodipodi:namedview
     id="namedview15161"
     pagecolor="#ffffff"
     bordercolor="#666666"
     borderopacity="1.0"
     inkscape:pageshadow="2"
     inkscape:pageopacity="0.0"
     inkscape:pagecheckerboard="0"
     inkscape:document-units="mm"
     showgrid="false"
     inkscape:zoom="0.30182937"
     inkscape:cx="684.16139"
     inkscape:cy="1220.8885"
     inkscape:window-width="1296"
     inkscape:window-height="975"
     inkscape:window-x="0"
     inkscape:window-y="25"
     inkscape:window-maximized="0"
     inkscape:current-layer="svg15159" />
  <style
     type="text/css"
     id="style14877">
    path {
        fill: none;
        stroke-linecap: butt;
        stroke-linejoin: bevel;
        stroke-dasharray: none;
    }
    path.outer {
        stroke: #000000;
        stroke-dasharray: none;
        stroke-dashoffset: 0;
        stroke-width: 0.3;
        stroke-opacity: 1.0;
    }
    path.convex {
        stroke: #000000;
        stroke-dasharray: 0.50,1.00;
        stroke-dashoffset:0;
        stroke-width:0.2;
        stroke-opacity: 1.0
    }
    path.concave {
        stroke: #000000;
        stroke-dasharray: 1.00,0.50,0.20,0.50;
        stroke-dashoffset: 0;
        stroke-width: 0.2;
        stroke-opacity: 1.0
    }
    path.freestyle {
        stroke: #000000;
        stroke-dasharray: none;
        stroke-dashoffset: 0;
        stroke-width: 0.2;
        stroke-opacity: 1.0
    }
    path.outer_background {
        stroke: #ffffff;
        stroke-opacity: 1.0;
        stroke-width: 0.5
    }
    path.inner_background {
        stroke: #ffffff;
        stroke-opacity: 1.0;
        stroke-width: 0.2
    }
    path.sticker {
        fill: #e5e5e5;
        stroke: none;
        fill-opacity: 1.0;
    }
    path.arrow {
        fill: #000000;
    }
    text {
        font-style: normal;
        fill: #000000;
        fill-opacity: 1.0;
        stroke: none;
    }
    text, tspan {
        text-anchor:middle;
    }
    </style>
  <text
     style="font-size:5px"
     id="text14881"
     x="237.5853"
     y="158.89388"><tspan
       id="tspan14879">[51] I 51</tspan></text>
  <path
     class="sticker"
     d="m 270.06174,313.81655 5.00059,-0.01 0.6902,39.12842 -4.99785,0.16671 z m -36.03157,5.45393 -5.07593,-4.26065 -0.20577,-11.66527 4.99785,-0.16671 z m -12.6006,55.40497 -4.71401,-1.9661 2.63863,-13.75465 5.18856,-0.50758 z m 41.72525,18.0431 3.58243,3.48889 -27.01412,28.62448 -3.69024,-3.37465 z m -27.12193,28.73872 3.59554,3.47537 -12.48558,13.33017 -3.70294,-3.3607 z m -60.58883,32.44513 5.0006,-0.01 0.65175,36.95024 -4.99784,0.16671 z m -96.592404,76.5002 -5.000608,0.01 -2.176045,-123.37118 4.997839,-0.16672 z m 74.101644,-10.74859 1.59757,4.73856 -27.86073,9.88309 -1.74563,-4.68604 z m 49.54253,-133.96071 -1.27855,-2.68573 4.8621,-2.40901 1.74641,2.45392 z m 65.8227,-170.70849 5.00061,-0.01 1.74044,98.6747 -4.99784,0.1667 z m -63.60194,-80.42828 -0.01,-5.00062 62.00689,-1.09365 0.16673,4.99782 z m 10.26386,72.43663 -5.11502,-0.59852 -8.31638,-65.97438 4.95093,-0.70325 z m 51.90013,-73.53308 5.00059,-0.01 1.43521,81.36764 -4.99785,0.16675 z m -90.78201,357.54963 3.83972,3.20356 -23.04655,28.52212 -3.93844,-3.08138 z m 30.40141,-351.2927 -4.24745,-4.26539 2.46406,-0.89509 z m 64.2547,213.38503 4.89567,1.01914 -7.57028,39.46224 -4.92525,-0.86487 z m -37.00836,-49.92419 -5.53546,-1.33081 -6.54636,-24.34522 3.90768,-4.72265 z m -9.20357,55.26927 -4.84105,-1.25317 9.45044,-39.02397 4.87803,1.1005 z m -49.2488,46.31537 -2.80581,-4.13927 27.07324,-18.97903 2.93445,4.04911 z m -17.52264,0.68183 -0.11592,-4.99928 11.54881,-0.44937 6.08975,4.76682 z m 65.6686,29.45779 1.76737,4.67788 -47.84978,18.94246 -1.91344,-4.62005 z M 76.672842,406.8747 l -0.0097,-5.00059 7.980495,-0.14077 2.978721,4.94823 z m 48.271668,122.71492 0.01,5.00061 -45.935781,0.81021 -0.16671,-4.99784 z m 82.88128,-146.53714 -2.55485,-4.29871 10.80682,-6.6547 5.35181,2.57638 z m -120.203382,23.62909 -0.0096,-5.00061 57.682122,-1.01742 0.1667,4.99783 z m 137.949772,-133.9024 -4.94891,0.71725 -10.56674,-65.63094 4.92392,-0.87232 z m -80.11059,132.8822 1.77856,-5.03213 9.06016,-0.15976 1.471,4.97484 z"
     id="path14883" />
  <path
     class="convex"
     d="m 152.9533,519.65401 23.14527,-28.6443 m 0,0 -0.65451,-37.10731 m 0,0 47.99585,-19.00029 m 0,0 12.59298,-13.44484 m 0,0 27.12193,-28.73872 m 0,0 7.59986,-39.61651 m 0,0 -0.69294,-39.28549 m 0,0 -1.74321,-98.83174 m 0,0 -1.43795,-81.52473 m -62.16399,1.09645 1.78339,5.16048 m 0,0 8.48047,67.27615 m 0,0 10.59173,65.78601 m 0,0 8.17414,30.39868 m 0,0 0.28385,16.09263 m 0,0 -9.48742,39.17664 m 0,0 -3.11318,16.22833 m 0,0 -13.60378,8.37703 m 0,0 -5.32996,2.64082 m 0,0 -27.20188,19.06919 m 0,0 -17.52264,0.68183 m 0,0 -12.30972,0.21705 m 0,0 -57.839182,1.0202 m 0,0 -10.949566,0.19313 m 2.178814,123.5279 46.092854,-0.81298 m 0,0 28.00879,-9.93561"
     id="path14885" />
  <path
     class="outer"
     d="m 275.06233,313.80691 0.6902,39.12842 -4.99785,0.16671 4.89567,1.01914 -7.57028,39.46224 -4.92525,-0.86487 3.58243,3.48889 -27.01412,28.62448 -3.69024,-3.37465 3.59554,3.47537 -12.48558,13.33017 -3.70294,-3.3607 1.76737,4.67788 -47.84978,18.94246 -1.91344,-4.62005 5.0006,-0.01 0.65175,36.95024 -4.99784,0.16671 3.83972,3.20356 -23.04655,28.52212 -3.93844,-3.08138 1.59757,4.73856 -27.86073,9.88309 -1.74563,-4.68604 0.01,5.00061 -45.935781,0.81021 -0.16671,-4.99784 -5.000608,0.01 -2.176008,-123.37082 4.997839,-0.16672 -0.0097,-5.00059 7.980495,-0.14077 2.978721,4.94823 -0.0096,-5.00061 57.682122,-1.01742 0.1667,4.99783 1.77857,-5.03213 9.06015,-0.15976 1.471,4.97484 -0.11592,-4.99928 11.54881,-0.44937 6.08975,4.76682 -2.80581,-4.13927 27.07324,-18.97903 2.93445,4.04911 -1.27855,-2.68573 4.8621,-2.40901 1.74641,2.45392 -2.55485,-4.29871 10.80682,-6.6547 5.35181,2.57638 -4.71401,-1.9661 2.63863,-13.75465 5.18856,-0.50758 -4.84105,-1.25317 9.45044,-39.02397 4.87803,1.1005 -5.07593,-4.26065 -0.20577,-11.66527 4.99785,-0.16671 -5.53546,-1.33081 -6.54636,-24.34522 3.90768,-4.72265 -4.94891,0.71725 -10.56674,-65.63094 4.92392,-0.87232 -5.11502,-0.59852 -8.31638,-65.97438 4.95093,-0.70325 -4.24745,-4.26539 2.46406,-0.89509 -0.01,-5.00062 62.00689,-1.09365 0.16673,4.99782 5.00059,-0.01 1.43521,81.36764 -4.99785,0.16675 5.00061,-0.01 1.74044,98.6747 -4.99784,0.1667 z"
     id="path14887" />
  <g
     id="g14895"
     transform="translate(66.675003,-52.916669)">
    <path
       transform="matrix(0.08818,4.999222,-4.999222,0.08818,203.73322,386.37597)"
       class="arrow"
       d="M 0,0 1,1 0,0.25 -1,1 Z"
       id="path14889" />
    <text
       transform="translate(199.23392,388.45534)"
       style="font-size:5px"
       id="text14893"><tspan
         id="tspan14891">1</tspan></text>
  </g>
  <text
     transform="rotate(88.989479)"
     style="font-size:4.5px"
     id="text14899"
     x="338.17639"
     y="-265.38541"><tspan
       id="tspan14897">14:1</tspan></text>
  <g
     id="g14907"
     transform="translate(66.675003,-52.916669)">
    <path
       transform="matrix(-0.088178,-4.999222,4.999222,-0.088178,167.21325,364.14083)"
       class="arrow"
       d="M 0,0 1,1 0,0.25 -1,1 Z"
       id="path14901" />
    <text
       transform="translate(171.71255,366.06147)"
       style="font-size:5px"
       id="text14905"><tspan
         id="tspan14903">2</tspan></text>
  </g>
  <text
     transform="rotate(-91.010521)"
     style="font-size:4.5px"
     id="text14911"
     x="-315.30072"
     y="227.46307"><tspan
       id="tspan14909">23:2</tspan></text>
  <g
     id="g14919"
     transform="translate(66.675003,-52.916669)">
    <path
       transform="matrix(0.942004,-4.910461,4.910461,0.942004,156.31116,419.47796)"
       class="arrow"
       d="M 0,0 1,1 0,0.25 -1,1 Z"
       id="path14913" />
    <text
       transform="translate(160.73057,422.32577)"
       style="font-size:5px"
       id="text14917"><tspan
         id="tspan14915">3</tspan></text>
  </g>
  <text
     transform="rotate(-79.140515)"
     style="font-size:4.5px"
     id="text14923"
     x="-317.98621"
     y="287.15347"><tspan
       id="tspan14921">58:3</tspan></text>
  <g
     id="g14931"
     transform="translate(66.675003,-52.916669)">
    <path
       transform="matrix(-3.431766,3.636342,-3.636342,-3.431766,182.91885,460.00458)"
       class="arrow"
       d="M 0,0 1,1 0,0.25 -1,1 Z"
       id="path14925" />
    <text
       transform="translate(179.64614,458.91599)"
       style="font-size:5px"
       id="text14929"><tspan
         id="tspan14927">4</tspan></text>
  </g>
  <text
     transform="rotate(133.34213)"
     style="font-size:4.5px"
     id="text14935"
     x="124.75256"
     y="-461.82794"><tspan
       id="tspan14933">30:4</tspan></text>
  <g
     id="g14943"
     transform="translate(66.675003,-52.916669)">
    <path
       transform="matrix(-3.418034,3.649253,-3.649253,-3.418034,163.06138,481.09637)"
       class="arrow"
       d="M 0,0 1,1 0,0.25 -1,1 Z"
       id="path14937" />
    <text
       transform="translate(159.77706,480.02013)"
       style="font-size:5px"
       id="text14941"><tspan
         id="tspan14939">5</tspan></text>
  </g>
  <text
     transform="rotate(133.12613)"
     style="font-size:4.5px"
     id="text14947"
     x="155.4579"
     y="-461.27972"><tspan
       id="tspan14945">42:5</tspan></text>
  <g
     id="g14955"
     transform="translate(66.675003,-52.916669)">
    <path
       transform="matrix(0.088178,4.999222,-4.999222,0.088178,109.09632,525.37272)"
       class="arrow"
       d="M 0,0 1,1 0,0.25 -1,1 Z"
       id="path14949" />
    <text
       transform="translate(104.59702,527.45208)"
       style="font-size:5px"
       id="text14953"><tspan
         id="tspan14951">6.</tspan></text>
  </g>
  <text
     transform="rotate(88.989479)"
     style="font-size:4.5px"
     id="text14959"
     x="475.48257"
     y="-168.31189"><tspan
       id="tspan14957">62:6.</tspan></text>
  <g
     id="g14967"
     transform="translate(66.675003,-52.916669)">
    <path
       transform="matrix(-0.088177,-4.999223,4.999223,-0.088177,11.087246,521.55531)"
       class="arrow"
       d="M 0,0 1,1 0,0.25 -1,1 Z"
       id="path14961" />
    <text
       transform="translate(15.586547,523.47595)"
       style="font-size:5px"
       id="text14965"><tspan
         id="tspan14963">7</tspan></text>
  </g>
  <text
     transform="rotate(-91.010521)"
     style="font-size:4.5px"
     id="text14971"
     x="-469.93729"
     y="68.585114"><tspan
       id="tspan14969">56:7</tspan></text>
  <g
     id="g14979"
     transform="translate(66.675003,-52.916669)">
    <path
       transform="matrix(-4.712297,1.671602,-1.671602,-4.712297,72.2739,577.53849)"
       class="arrow"
       d="M 0,0 1,1 0,0.25 -1,1 Z"
       id="path14973" />
    <text
       transform="translate(70.769456,575.29742)"
       style="font-size:5px"
       id="text14977"><tspan
         id="tspan14975">8</tspan></text>
  </g>
  <text
     transform="rotate(160.4688)"
     style="font-size:4.5px"
     id="text14983"
     x="44.43795"
     y="-541.78827"><tspan
       id="tspan14981">1:8</tspan></text>
  <g
     id="g14991"
     transform="translate(66.675003,-52.916669)">
    <path
       transform="matrix(4.480229,-2.219806,2.219806,4.480229,138.48581,437.28956)"
       class="arrow"
       d="M 0,0 1,1 0,0.25 -1,1 Z"
       id="path14985" />
    <text
       transform="translate(140.48364,443.32177)"
       style="font-size:5px"
       id="text14989"><tspan
         id="tspan14987">9.</tspan></text>
  </g>
  <text
     transform="rotate(-26.356886)"
     style="font-size:2.68px"
     id="text14995"
     x="13.186872"
     y="434.9639"><tspan
       id="tspan14993">54:9.</tspan></text>
  <text
     transform="rotate(88.989536)"
     style="font-size:4.5px"
     id="text14999"
     x="269.10675"
     y="-265.38571"><tspan
       id="tspan14997">52:1</tspan></text>
  <text
     transform="rotate(-1.0104639)"
     style="font-size:4.5px"
     id="text15003"
     x="233.39343"
     y="137.25043"><tspan
       id="tspan15001">65:1</tspan></text>
  <text
     transform="rotate(-97.184513)"
     style="font-size:4.5px"
     id="text15007"
     x="-198.35023"
     y="186.50493"><tspan
       id="tspan15005">7:1</tspan></text>
  <text
     transform="rotate(88.989479)"
     style="font-size:4.5px"
     id="text15011"
     x="178.91475"
     y="-265.38547"><tspan
       id="tspan15009">38:3</tspan></text>
  <g
     id="g15019"
     transform="translate(66.675003,-52.916669)">
    <path
       transform="matrix(-3.142465,3.889076,-3.889076,-3.142465,97.850938,558.24853)"
       class="arrow"
       d="M 0,0 1,1 0,0.25 -1,1 Z"
       id="path15013" />
    <text
       transform="translate(94.350767,557.42032)"
       style="font-size:5px"
       id="text15017"><tspan
         id="tspan15015">10</tspan></text>
  </g>
  <text
     transform="rotate(128.93903)"
     style="font-size:4.5px"
     id="text15023"
     x="289.6514"
     y="-446.46841"><tspan
       id="tspan15021">21:10</tspan></text>
  <g
     id="g15031"
     transform="translate(66.675003,-52.916669)">
    <path
       transform="matrix(-1.633146,-4.725763,4.725763,-1.633146,138.93329,190.05343)"
       class="arrow"
       d="M 0,0 1,1 0,0.25 -1,1 Z"
       id="path15025" />
    <text
       transform="translate(143.18648,190.58361)"
       style="font-size:5px"
       id="text15029"><tspan
         id="tspan15027">11</tspan></text>
  </g>
  <text
     transform="rotate(-109.06429)"
     style="font-size:2.46px"
     id="text15035"
     x="-196.77274"
     y="149.04701"><tspan
       id="tspan15033">46:11</tspan></text>
  <g
     id="g15043"
     transform="translate(66.675003,-52.916669)">
    <path
       transform="matrix(-0.942003,4.910461,-4.910461,-0.942003,200.27975,425.82696)"
       class="arrow"
       d="M 0,0 1,1 0,0.25 -1,1 Z"
       id="path15037" />
    <text
       transform="translate(195.86033,426.97917)"
       style="font-size:5px"
       id="text15041"><tspan
         id="tspan15039">12</tspan></text>
  </g>
  <text
     transform="rotate(100.85949)"
     style="font-size:4.5px"
     id="text15047"
     x="315.93774"
     y="-333.33093"><tspan
       id="tspan15045">78:12</tspan></text>
  <g
     id="g15055"
     transform="translate(66.675003,-52.916669)">
    <path
       transform="matrix(-1.298367,-4.828483,4.828483,-1.298367,162.98427,340.89517)"
       class="arrow"
       d="M 0,0 1,1 0,0.25 -1,1 Z"
       id="path15049" />
    <text
       transform="translate(167.32991,341.72666)"
       style="font-size:5px"
       id="text15053"><tspan
         id="tspan15051">13</tspan></text>
  </g>
  <text
     transform="rotate(-105.05065)"
     style="font-size:4.5px"
     id="text15059"
     x="-337.73605"
     y="146.10101"><tspan
       id="tspan15057">68.:13</tspan></text>
  <g
     id="g15067"
     transform="translate(66.675003,-52.916669)">
    <path
       transform="matrix(1.176834,-4.859533,4.859533,1.176834,162.61146,391.77547)"
       class="arrow"
       d="M 0,0 1,1 0,0.25 -1,1 Z"
       id="path15061" />
    <text
       transform="translate(166.98504,394.83462)"
       style="font-size:5px"
       id="text15065"><tspan
         id="tspan15063">14</tspan></text>
  </g>
  <text
     transform="rotate(-76.386749)"
     style="font-size:4.5px"
     id="text15071"
     x="-275.37253"
     y="301.7012"><tspan
       id="tspan15069">43:14</tspan></text>
  <g
     id="g15079"
     transform="translate(66.675003,-52.916669)">
    <path
       transform="matrix(4.094187,-2.870126,2.870126,4.094187,122.21989,448.14456)"
       class="arrow"
       d="M 0,0 1,1 0,0.25 -1,1 Z"
       id="path15073" />
    <text
       transform="translate(124.803,453.82934)"
       style="font-size:5px"
       id="text15077"><tspan
         id="tspan15075">15</tspan></text>
  </g>
  <text
     transform="rotate(-35.031406)"
     style="font-size:4.5px"
     id="text15083"
     x="-72.196609"
     y="431.1579"><tspan
       id="tspan15081">54:15</tspan></text>
  <g
     id="g15091"
     transform="translate(66.675003,-52.916669)">
    <path
       transform="matrix(4.996219,-0.194409,0.194409,4.996219,99.857633,458.02007)"
       class="arrow"
       d="M 0,0 1,1 0,0.25 -1,1 Z"
       id="path15085" />
    <text
       transform="translate(100.0326,464.51666)"
       style="font-size:5px"
       id="text15089"><tspan
         id="tspan15087">16</tspan></text>
  </g>
  <text
     transform="rotate(-2.2283358)"
     style="font-size:4.5px"
     id="text15095"
     x="150.65773"
     y="410.37177"><tspan
       id="tspan15093">18:16</tspan></text>
  <text
     transform="rotate(158.40269)"
     style="font-size:4.5px"
     id="text15099"
     x="-21.863916"
     y="-487.51318"><tspan
       id="tspan15097">13:2</tspan></text>
  <g
     id="g15107"
     transform="translate(66.675003,-52.916669)">
    <path
       transform="matrix(4.999222,-0.088182,0.088182,4.999222,15.472623,459.69481)"
       class="arrow"
       d="M 0,0 1,1 0,0.25 -1,1 Z"
       id="path15101" />
    <text
       transform="translate(15.551987,466.19412)"
       style="font-size:5px"
       id="text15105"><tspan
         id="tspan15103">17</tspan></text>
  </g>
  <text
     transform="rotate(-1.0105212)"
     style="font-size:4.5px"
     id="text15111"
     x="74.948586"
     y="407.26392"><tspan
       id="tspan15109">8:17</tspan></text>
  <g
     id="g15119"
     transform="translate(66.675003,-52.916669)">
    <path
       transform="matrix(-4.999222,0.088175,-0.088175,-4.999222,35.223079,582.91278)"
       class="arrow"
       d="M 0,0 1,1 0,0.25 -1,1 Z"
       id="path15113" />
    <text
       transform="translate(35.143721,580.41348)"
       style="font-size:5px"
       id="text15117"><tspan
         id="tspan15115">18</tspan></text>
  </g>
  <text
     transform="rotate(178.98954)"
     style="font-size:4.5px"
     id="text15123"
     x="-92.535774"
     y="-532.61078"><tspan
       id="tspan15121">48:18</tspan></text>
  <g
     id="g15131"
     transform="translate(66.675003,-52.916669)">
    <path
       transform="matrix(4.257527,-2.621729,2.621729,4.257527,147.95267,431.78065)"
       class="arrow"
       d="M 0,0 1,1 0,0.25 -1,1 Z"
       id="path15125" />
    <text
       transform="translate(150.31222,437.61242)"
       style="font-size:5px"
       id="text15129"><tspan
         id="tspan15127">19</tspan></text>
  </g>
  <text
     transform="rotate(-31.624236)"
     style="font-size:4.5px"
     id="text15135"
     x="-15.899481"
     y="434.24387"><tspan
       id="tspan15133">35:19</tspan></text>
  <text
     transform="rotate(-1.0105212)"
     style="font-size:4.5px"
     id="text15139"
     x="109.34832"
     y="407.26486"><tspan
       id="tspan15137">45:2</tspan></text>
  <text
     transform="rotate(-99.146301)"
     style="font-size:4.5px"
     id="text15143"
     x="-271.85034"
     y="178.44437"><tspan
       id="tspan15141">41:1</tspan></text>
  <g
     id="g15151"
     transform="translate(66.675003,-52.916669)">
    <path
       transform="matrix(4.999223,-0.088149,0.088149,4.999223,84.941444,458.46952)"
       class="arrow"
       d="M 0,0 1,1 0,0.25 -1,1 Z"
       id="path15145" />
    <text
       transform="translate(85.020778,464.96883)"
       style="font-size:5px"
       id="text15149"><tspan
         id="tspan15147">20</tspan></text>
  </g>
  <text
     transform="rotate(-1.0101765)"
     style="font-size:4.5px"
     id="text15155"
     x="144.45392"
     y="407.26089"><tspan
       id="tspan15153">3:20</tspan></text>
  <text
     transform="rotate(89.735472)"
     style="font-size:5px"
     id="text14460"
     x="119.66485"
     y="-156.44118"><tspan
       id="tspan14458">[67] I 67</tspan></text>
  <path
     class="sticker"
     d="M 3.1045199,85.570987 0.74288193,83.964297 0.46372163,23.499647 2.8174724,23.398014 Z m 50.2402341,94.241173 -5.000599,-0.0165 -0.463496,-37.35887 4.998644,-0.14057 z m 22.752707,-156.752455 0.05546,-5.000309 45.729849,-0.211131 0.10158,4.999584 z m -40.603113,72.211044 -1.629178,3.383223 -5.676186,-1.270373 0.167222,-3.710411 z m -7.463134,-71.989126 0.05547,-5.000308 47.909149,-0.221193 0.101633,4.999583 z m 140.929746,-0.650661 0.0554,-5.000309 46.81949,-0.216147 0.10158,4.999584 z m -46.97658,0.216887 0.0555,-5.00031 46.81948,-0.216161 0.10168,4.999584 z m 70.75584,118.802651 5.00021,0.0638 0.22334,75.71459 -4.99976,0.0933 z m -139.574465,76.51713 -4.999584,-0.10188 0.178265,-38.19837 5.000319,-0.0552 z m 139.384525,-117.65436 5.0003,0.0555 0.18922,40.98015 -4.99958,0.10158 z m 23.38725,-78.09918 0.0554,-5.000309 77.51291,-0.357871 0.10168,4.999584 z m 77.89086,47.47617 0.8228,4.932461 -77.45163,14.173809 -0.97733,-4.904184 z M 2.8174724,23.398018 l 0.055415,-5.000309 25.0567026,-0.11567 0.101584,4.999584 z m 50.0618306,118.898202 -5.000319,-0.0555 -0.158832,-34.40205 4.999594,-0.10163 z m -0.159557,-34.55919 -7.283097,0.90116 -12.508819,-9.052821 2.566518,-4.31462 z m -24.36354,-14.063842 -1.602367,4.736935 -25.1021132,-8.0542 1.4527941,-4.784936 z m 164.607804,123.849002 -0.0554,5.00031 -139.641182,0.64471 -0.101583,-4.99958 z m 23.25822,-133.429844 0.95604,5.422044 -15.91376,11.03915 -8.71423,-0.0403 z m 77.38531,-62.036852 5.00031,0.05547 0.22013,47.677675 -4.99959,0.101633 z"
     id="path14462"
     sodipodi:nodetypes="ccccccccccccccccccccccccccccccccccccccccccccccccccccccccccccccccccccccccccccccccccccccccccccccc" />
  <path
     class="convex"
     d="m 293.82839,69.89026 -0.22085,-47.834766 m 0,0 -77.67001,0.358596 m 0,0 -46.97657,0.216872 m 0,0 -46.97658,0.216887 m 0,0 -45.886919,0.211856 m 0,0 -48.066247,0.221918 m 0,0 -25.2137416,0.116395 m 0.2870475,62.172969 25.2516861,8.102201 m 0,0 7.138142,1.597561 m 0,0 17.225398,12.466281 m 0,0 0.159557,34.55919 m 0,0 0.465451,37.51594 m 0,0 -0.178999,38.35547 m 139.798255,-0.64544 -0.22379,-75.87169 m 0,0 -0.18994,-41.13723 m 0,0 23.67195,-16.420924 m 0,0 77.60616,-14.202086"
     id="path14464" />
  <path
     class="outer"
     d="m 215.99299,17.413781 77.51291,-0.357871 0.10168,4.999584 5.00031,0.05547 0.22013,47.677675 -4.99959,0.101633 0.8228,4.932461 -77.45163,14.173809 -0.97733,-4.904184 0.95604,5.422044 -15.91376,11.039158 -8.71423,-0.0403 5.0003,0.0555 0.18922,40.98015 -4.99958,0.10158 5.00021,0.0638 0.22334,75.71458 -4.99976,0.0933 -0.0554,5.00032 -139.641182,0.64471 -0.101584,-4.99959 -4.999583,-0.10187 0.178265,-38.19838 5.000318,-0.0552 -5.000599,-0.0165 -0.463496,-37.35887 4.998644,-0.14057 -5.000319,-0.0555 -0.158832,-34.40204 4.999594,-0.10162 -7.283097,0.90116 L 32.92796,99.585398 35.494478,95.270777 33.8653,98.654 28.189114,97.383628 28.356336,93.673216 26.753969,98.410152 1.6518458,90.355926 3.1046399,85.570991 0.21371527,83.964297 0.46384167,23.499647 2.8175924,23.398013 2.8730072,18.397704 27.92959,18.282039 l 0.101584,4.999584 0.05551,-5.000308 47.909139,-0.221193 0.101633,4.999583 0.05546,-5.000309 45.729844,-0.211131 0.10158,4.999584 0.0555,-5.000309 46.81948,-0.216162 0.10168,4.999584 0.0554,-5.000309 46.81949,-0.216147 0.10158,4.999584 z"
     id="path14466"
     sodipodi:nodetypes="cccccccccccccccccccccccccccccccccccccccccccccccccccccccccc" />
  <g
     id="g14474"
     transform="rotate(89.735472,288.00453,299.08883)">
    <path
       transform="matrix(-5,0,0,-5,42.086803,583.00002)"
       class="arrow"
       d="M 0,0 1,1 0,0.25 -1,1 Z"
       id="path14468" />
    <text
       transform="translate(42.086803,580.50002)"
       style="font-size:5px"
       id="text14472"><tspan
         id="tspan14470">1</tspan></text>
  </g>
  <text
     transform="rotate(-90.264528)"
     style="font-size:4.5px"
     id="text14478"
     x="-54.507362"
     y="3.9260612"><tspan
       id="tspan14476">56:1</tspan></text>
  <g
     id="g14486"
     transform="rotate(89.735472,288.00453,299.08883)">
    <path
       transform="matrix(-4.999848,0.038946,-0.038946,-4.999848,148.88689,533.34154)"
       class="arrow"
       d="M 0,0 1,1 0,0.25 -1,1 Z"
       id="path14480" />
    <text
       transform="translate(148.85185,530.84168)"
       style="font-size:5px"
       id="text14484"><tspan
         id="tspan14482">2</tspan></text>
  </g>
  <text
     transform="rotate(-90.710808)"
     style="font-size:4.5px"
     id="text14490"
     x="-161.70064"
     y="50.210049"><tspan
       id="tspan14488">9.:2</tspan></text>
  <g
     id="g14498"
     transform="rotate(89.735472,288.00453,299.08883)">
    <path
       transform="matrix(0,-5,5,0,11,486.77554)"
       class="arrow"
       d="M 0,0 1,1 0,0.25 -1,1 Z"
       id="path14492" />
    <text
       transform="translate(15.5,488.77554)"
       style="font-size:5px"
       id="text14496"><tspan
         id="tspan14494">3</tspan></text>
  </g>
  <text
     transform="rotate(-0.264528)"
     style="font-size:4.5px"
     id="text14502"
     x="98.933899"
     y="22.510792"><tspan
       id="tspan14500">69.:3</tspan></text>
  <g
     id="g14510"
     transform="rotate(89.735472,288.00453,299.08883)">
    <path
       transform="matrix(-1.114533,4.874199,-4.874199,-1.114533,82.207565,554.22066)"
       class="arrow"
       d="M 0,0 1,1 0,0.25 -1,1 Z"
       id="path14504" />
    <text
       transform="translate(77.820783,555.21759)"
       style="font-size:5px"
       id="text14508"><tspan
         id="tspan14506">4</tspan></text>
  </g>
  <text
     transform="rotate(-167.3847)"
     style="font-size:3.29px"
     id="text14514"
     x="-51.78764"
     y="-85.876915"><tspan
       id="tspan14512">64:4</tspan></text>
  <g
     id="g14522"
     transform="rotate(89.735472,288.00453,299.08883)">
    <path
       transform="matrix(0,-5,5,0,11,533.75263)"
       class="arrow"
       d="M 0,0 1,1 0,0.25 -1,1 Z"
       id="path14516" />
    <text
       transform="translate(15.499999,535.75263)"
       style="font-size:5px"
       id="text14520"><tspan
         id="tspan14518">5</tspan></text>
  </g>
  <text
     transform="rotate(-0.264528)"
     style="font-size:4.5px"
     id="text14526"
     x="51.956814"
     y="22.510792"><tspan
       id="tspan14524">27:5</tspan></text>
  <g
     id="g14534"
     transform="rotate(89.735472,288.00453,299.08883)">
    <path
       transform="matrix(2e-6,-5,5,2e-6,11.000007,393.36623)"
       class="arrow"
       d="M 0,0 1,1 0,0.25 -1,1 Z"
       id="path14528" />
    <text
       transform="translate(15.500007,395.36623)"
       style="font-size:5px"
       id="text14532"><tspan
         id="tspan14530">6.</tspan></text>
  </g>
  <text
     transform="rotate(-0.264528)"
     style="font-size:4.5px"
     id="text14538"
     x="192.34322"
     y="22.510801"><tspan
       id="tspan14536">5:6.</tspan></text>
  <g
     id="g14546"
     transform="rotate(89.735472,288.00453,299.08883)">
    <path
       transform="matrix(0,-5,5,0,11,440.3433)"
       class="arrow"
       d="M 0,0 1,1 0,0.25 -1,1 Z"
       id="path14540" />
    <text
       transform="translate(15.5,442.3433)"
       style="font-size:5px"
       id="text14544"><tspan
         id="tspan14542">7</tspan></text>
  </g>
  <text
     transform="rotate(-0.264528)"
     style="font-size:4.5px"
     id="text14550"
     x="145.36613"
     y="22.510792"><tspan
       id="tspan14548">6.:7</tspan></text>
  <g
     id="g14558"
     transform="rotate(89.735472,288.00453,299.08883)">
    <path
       transform="matrix(4.999993,0.008336,-0.008336,4.999993,168.06402,393.68849)"
       class="arrow"
       d="M 0,0 1,1 0,0.25 -1,1 Z"
       id="path14552" />
    <text
       transform="translate(168.05652,400.18849)"
       style="font-size:5px"
       id="text14556"><tspan
         id="tspan14554">8</tspan></text>
  </g>
  <text
     transform="rotate(89.830984)"
     style="font-size:4.5px"
     id="text14562"
     x="180.06271"
     y="-193.18221"><tspan
       id="tspan14560">12:8</tspan></text>
  <g
     id="g14570"
     transform="rotate(89.735472,288.00453,299.08883)">
    <path
       transform="matrix(-4.999784,-0.046418,0.046418,-4.999784,186.82287,533.37346)"
       class="arrow"
       d="M 0,0 1,1 0,0.25 -1,1 Z"
       id="path14564" />
    <text
       transform="translate(186.86465,530.87365)"
       style="font-size:5px"
       id="text14568"><tspan
         id="tspan14566">9.</tspan></text>
  </g>
  <text
     transform="rotate(-89.732588)"
     style="font-size:4.5px"
     id="text14574"
     x="-198.73918"
     y="53.283432"><tspan
       id="tspan14572">9.:9.</tspan></text>
  <g
     id="g14582"
     transform="rotate(89.735472,288.00453,299.08883)">
    <path
       transform="matrix(5,-2e-6,2e-6,5,109.55923,393.62525)"
       class="arrow"
       d="M 0,0 1,1 0,0.25 -1,1 Z"
       id="path14576" />
    <text
       transform="translate(109.55923,400.12526)"
       style="font-size:5px"
       id="text14580"><tspan
         id="tspan14578">10</tspan></text>
  </g>
  <text
     transform="rotate(89.735472)"
     style="font-size:4.5px"
     id="text14586"
     x="121.97002"
     y="-192.98419"><tspan
       id="tspan14584">16:10</tspan></text>
  <g
     id="g14594"
     transform="rotate(89.735472,288.00453,299.08883)">
    <path
       transform="matrix(0,-5,5,0,11.000015,331.04225)"
       class="arrow"
       d="M 0,0 1,1 0,0.25 -1,1 Z"
       id="path14588" />
    <text
       transform="translate(15.500015,333.04226)"
       style="font-size:5px"
       id="text14592"><tspan
         id="tspan14590">11</tspan></text>
  </g>
  <text
     transform="rotate(-0.264528)"
     style="font-size:4.5px"
     id="text14598"
     x="254.66719"
     y="22.510801"><tspan
       id="tspan14596">82:11</tspan></text>
  <g
     id="g14606"
     transform="rotate(89.735472,288.00453,299.08883)">
    <path
       transform="matrix(0.877346,4.922424,-4.922424,0.877346,65.757112,331.04231)"
       class="arrow"
       d="M 0,0 1,1 0,0.25 -1,1 Z"
       id="path14600" />
    <text
       transform="translate(61.326929,333.83193)"
       style="font-size:5px"
       id="text14604"><tspan
         id="tspan14602">12</tspan></text>
  </g>
  <text
     transform="rotate(169.62952)"
     style="font-size:4.5px"
     id="text14610"
     x="-236.99992"
     y="-122.54131"><tspan
       id="tspan14608">50:12</tspan></text>
  <text
     transform="rotate(-0.264528)"
     style="font-size:4.5px"
     id="text14614"
     x="15.316136"
     y="22.511072"><tspan
       id="tspan14612">2:1</tspan></text>
  <g
     id="g14622"
     transform="rotate(89.735472,288.00453,299.08883)">
    <path
       transform="matrix(-5,0,0,-5,112.84827,533.48766)"
       class="arrow"
       d="M 0,0 1,1 0,0.25 -1,1 Z"
       id="path14616" />
    <text
       transform="translate(112.84827,530.98766)"
       style="font-size:5px"
       id="text14620"><tspan
         id="tspan14618">13</tspan></text>
  </g>
  <text
     transform="rotate(-90.264528)"
     style="font-size:4.5px"
     id="text14626"
     x="-125.25906"
     y="51.321777"><tspan
       id="tspan14624">53:13</tspan></text>
  <g
     id="g14634"
     transform="rotate(89.735472,288.00453,299.08883)">
    <path
       transform="matrix(-2.950095,4.036947,-4.036947,-2.950095,89.295653,542.07149)"
       class="arrow"
       d="M 0,0 1,1 0,0.25 -1,1 Z"
       id="path14628" />
    <text
       transform="translate(85.662399,541.41641)"
       style="font-size:5px"
       id="text14632"><tspan
         id="tspan14630">14</tspan></text>
  </g>
  <text
     transform="rotate(-144.10616)"
     style="font-size:4.5px"
     id="text14638"
     x="-95.241524"
     y="-57.269547"><tspan
       id="tspan14636">49:14</tspan></text>
  <g
     id="g14646"
     transform="rotate(89.735472,288.00453,299.08883)">
    <path
       transform="matrix(-1.549547,4.75383,-4.75383,-1.549547,77.28297,570.39302)"
       class="arrow"
       d="M 0,0 1,1 0,0.25 -1,1 Z"
       id="path14640" />
    <text
       transform="translate(73.004526,570.99842)"
       style="font-size:5px"
       id="text14644"><tspan
         id="tspan14642">15</tspan></text>
  </g>
  <text
     transform="rotate(-162.21078)"
     style="font-size:4.5px"
     id="text14650"
     x="-42.359211"
     y="-81.43116"><tspan
       id="tspan14648">28:15</tspan></text>
  <g
     id="g14658"
     transform="rotate(89.735472,288.00453,299.08883)">
    <path
       transform="matrix(0,5,-5,0,205.99997,463.65162)"
       class="arrow"
       d="M 0,0 1,1 0,0.25 -1,1 Z"
       id="path14652" />
    <text
       transform="translate(201.49997,465.65163)"
       style="font-size:5px"
       id="text14656"><tspan
         id="tspan14654">16</tspan></text>
  </g>
  <text
     transform="rotate(179.73547)"
     style="font-size:4.5px"
     id="text14662"
     x="-122.05782"
     y="-219.31076"><tspan
       id="tspan14660">65:16</tspan></text>
  <g
     id="g14670"
     transform="rotate(89.735472,288.00453,299.08883)">
    <path
       transform="matrix(2.830881,4.121421,-4.121421,2.830881,80.834662,381.7515)"
       class="arrow"
       d="M 0,0 1,1 0,0.25 -1,1 Z"
       id="path14664" />
    <text
       transform="translate(77.125383,386.29929)"
       style="font-size:5px"
       id="text14668"><tspan
         id="tspan14666">17</tspan></text>
  </g>
  <text
     transform="rotate(145.25146)"
     style="font-size:4.5px"
     id="text14674"
     x="-115.32586"
     y="-193.23697"><tspan
       id="tspan14672">36:17</tspan></text>
  <g
     id="g14682"
     transform="rotate(89.735472,288.00453,299.08883)">
    <path
       transform="matrix(5,0,0,5,34.917654,292.20685)"
       class="arrow"
       d="M 0,0 1,1 0,0.25 -1,1 Z"
       id="path14676" />
    <text
       transform="translate(34.917654,298.70686)"
       style="font-size:5px"
       id="text14680"><tspan
         id="tspan14678">18</tspan></text>
  </g>
  <text
     transform="rotate(89.735472)"
     style="font-size:4.5px"
     id="text14686"
     x="47.328438"
     y="-294.40259"><tspan
       id="tspan14684">61:18</tspan></text>
</svg>
