<?xml version="1.0" encoding="UTF-8" standalone="no"?>
<svg
   version="1.1"
   width="300.00mm"
   height="600.00mm"
   viewBox="0 0 300.00 600.00"
   id="svg3634"
   sodipodi:docname="frontseat_back.blend_page3.svg"
   inkscape:version="1.1.1 (c3084ef, 2021-09-22)"
   xmlns:inkscape="http://www.inkscape.org/namespaces/inkscape"
   xmlns:sodipodi="http://sodipodi.sourceforge.net/DTD/sodipodi-0.dtd"
   xmlns="http://www.w3.org/2000/svg"
   xmlns:svg="http://www.w3.org/2000/svg">
  <defs
     id="defs3638" />
  <sodipodi:namedview
     id="namedview3636"
     pagecolor="#ffffff"
     bordercolor="#666666"
     borderopacity="1.0"
     inkscape:pageshadow="2"
     inkscape:pageopacity="0.0"
     inkscape:pagecheckerboard="0"
     inkscape:document-units="mm"
     showgrid="false"
     inkscape:zoom="0.35057292"
     inkscape:cx="566.21602"
     inkscape:cy="1133.8583"
     inkscape:window-width="1296"
     inkscape:window-height="975"
     inkscape:window-x="0"
     inkscape:window-y="25"
     inkscape:window-maximized="0"
     inkscape:current-layer="svg3634" />
  <style
     type="text/css"
     id="style3430">
    path {
        fill: none;
        stroke-linecap: butt;
        stroke-linejoin: bevel;
        stroke-dasharray: none;
    }
    path.outer {
        stroke: #000000;
        stroke-dasharray: none;
        stroke-dashoffset: 0;
        stroke-width: 0.3;
        stroke-opacity: 1.0;
    }
    path.convex {
        stroke: #000000;
        stroke-dasharray: 0.50,1.00;
        stroke-dashoffset:0;
        stroke-width:0.2;
        stroke-opacity: 1.0
    }
    path.concave {
        stroke: #000000;
        stroke-dasharray: 1.00,0.50,0.20,0.50;
        stroke-dashoffset: 0;
        stroke-width: 0.2;
        stroke-opacity: 1.0
    }
    path.freestyle {
        stroke: #000000;
        stroke-dasharray: none;
        stroke-dashoffset: 0;
        stroke-width: 0.2;
        stroke-opacity: 1.0
    }
    path.outer_background {
        stroke: #ffffff;
        stroke-opacity: 1.0;
        stroke-width: 0.5
    }
    path.inner_background {
        stroke: #ffffff;
        stroke-opacity: 1.0;
        stroke-width: 0.2
    }
    path.sticker {
        fill: #e5e5e5;
        stroke: none;
        fill-opacity: 1.0;
    }
    path.arrow {
        fill: #000000;
    }
    text {
        font-style: normal;
        fill: #000000;
        fill-opacity: 1.0;
        stroke: none;
    }
    text, tspan {
        text-anchor:middle;
    }
    </style>
  <path
     class="sticker"
     d="m 103.96281,196.20358 -1.09227,-2.46808 4.82359,-2.22599 1.16927,2.43256 z m 140.72129,292.05287 9.14562,-4.04753 40.67928,88.14925 -9.01398,4.3328 z m -135.8207,-294.31438 9.1456,-4.04755 47.37327,102.6547 -9.01397,4.33281 z m 47.5049,102.93996 9.14561,-4.04754 44.02627,95.40194 -9.01397,4.33279 z m 44.15791,95.68719 9.14562,-4.04751 44.02625,95.40194 -9.01398,4.3328 z m -4.90059,2.26154 -9.14562,4.04751 -44.02624,-95.40191 9.01395,-4.33281 z m 44.15791,95.68721 -9.14562,4.04753 -44.02625,-95.40195 9.01396,-4.33279 z m 40.81091,88.43453 -9.14562,4.04752 -40.67927,-88.14925 9.01398,-4.3328 z m -129.12673,-279.80895 -9.14558,4.04754 -47.37329,-102.6547 9.01397,-4.33281 z m 134.02731,277.54742 1.09228,2.46806 -4.82359,2.226 -1.16927,-2.43253 z"
     id="path3436" />
  <text
     style="font-size:10px"
     id="text3434"
     x="160.19951"
     y="314.39337"><tspan
       id="tspan3432">[19]</tspan></text>
  <path
     class="outer"
     d="m 286.5873,579.15903 -4.82359,2.226 -1.16927,-2.43253 -9.14562,4.04752 -40.67927,-88.14925 9.01398,-4.3328 -9.14562,4.04753 -44.02625,-95.40195 9.01396,-4.33279 -9.14562,4.04751 -44.02624,-95.40191 9.01395,-4.33281 -9.14558,4.04754 -47.37329,-102.6547 9.01397,-4.33281 -1.09227,-2.46808 4.82359,-2.22599 1.16927,2.43256 9.1456,-4.04755 47.37327,102.6547 -9.01397,4.33281 9.14561,-4.04754 44.02627,95.40194 -9.01397,4.33279 9.14562,-4.04751 44.02625,95.40194 -9.01398,4.3328 9.14562,-4.04753 40.67928,88.14925 -9.01398,4.3328 z"
     id="path3438" />
  <g
     id="g3446">
    <path
       transform="matrix(9.079787,-4.190163,4.190163,9.079787,106.41311,195.07282)"
       class="arrow"
       d="M 0,0 1,1 0,0.25 -1,1 Z"
       id="path3440" />
    <text
       transform="translate(110.18426,207.24463)"
       style="font-size:10px"
       id="text3444"><tspan
         id="tspan3442">1</tspan></text>
  </g>
  <text
     transform="rotate(-24.772475)"
     style="font-size:2.43px"
     id="text3450"
     x="14.882297"
     y="221.22502"><tspan
       id="tspan3448">4:1</tspan></text>
  <text
     transform="rotate(65.227525)"
     style="font-size:9px"
     id="text3454"
     x="594.55157"
     y="-19.380697"><tspan
       id="tspan3452">7:5</tspan></text>
  <text
     transform="rotate(65.227525)"
     style="font-size:9px"
     id="text3458"
     x="278.39709"
     y="-19.380821"><tspan
       id="tspan3456">6.:4</tspan></text>
  <text
     transform="rotate(65.227525)"
     style="font-size:9px"
     id="text3462"
     x="387.77582"
     y="-19.380768"><tspan
       id="tspan3460">6.:5</tspan></text>
  <text
     transform="rotate(65.227525)"
     style="font-size:9px"
     id="text3466"
     x="493.16064"
     y="-19.380745"><tspan
       id="tspan3464">7:6.</tspan></text>
  <text
     transform="rotate(-114.77248)"
     style="font-size:9px"
     id="text3470"
     x="-594.55157"
     y="10.383505"><tspan
       id="tspan3468">4:4</tspan></text>
  <text
     transform="rotate(155.22752)"
     style="font-size:2.43px"
     id="text3474"
     x="-14.882092"
     y="-643.7359"><tspan
       id="tspan3472">17:2</tspan></text>
  <g
     id="g3630">
    <text
       transform="translate(48.65256,277.9871)"
       style="font-size:10px"
       id="text3480"><tspan
         id="tspan3478">[1] I 1</tspan></text>
    <path
       class="sticker"
       d="m 80.305112,100.54194 9.210661,0.14469 -8e-6,18.13195 -9.210661,0.14469 z m -8e-6,18.42133 10.000006,0.15709 -1.5e-5,64.94253 -9.999998,0.15709 z m -4.5e-5,150.94959 9.999998,0.15709 -1.5e-5,45.78585 -9.999997,0.15708 z m 3.8e-5,-85.69288 9.999998,0.15709 -8e-6,23.88447 -9.999998,0.15709 z m 2.9e-5,-123.194127 9.999998,13.228357 -7e-6,26.13065 -10.000005,0.15708 z m -5.2e-5,179.168197 9.999998,0.15709 -1.5e-5,29.40464 -9.999998,0.15708 z m 1.5e-5,-31.77542 10.000006,0.15709 -1.5e-5,31.46124 -10.000006,0.15709 z m -58.754109,-89.45539 -9.210445,-0.15831 0.02681,-18.13195 9.210877,-0.13106 z m -6.277576,-57.937387 0.157103,-10.00005 22.327487,6e-5 0.157088,9.99999 z m 59.63447,0 0.0424,-2.6986 h 5.312458 l 0.04239,2.6986 z m -53.3842,208.886977 -9.999998,-0.15705 1.5e-5,-29.4047 9.999994,-0.15709 z m 1.1e-5,-29.71884 -9.999994,-0.15709 3.7e-5,-31.46115 10.000002,-0.15709 z m -2.2e-5,75.81886 -9.999994,-0.15708 7e-6,-45.78582 9.999998,-0.15712 z m 6.7e-5,-107.59419 -10.000002,-0.15709 v -23.88453 l 9.999998,-0.15709 z m -4e-6,-24.19871 -9.999931,-0.16126 0.02712,-64.94254 10.000065,-0.15291 z m 16.391356,-123.194097 0.157095,-9.99999 h 36.678609 l 0.157088,9.99999 z M 21.57822,100.54192 11.678373,101.96238 5.423059,62.756534 15.273404,61.025853 Z m 58.72681,412.52061 9.210661,0.14469 -8e-6,18.13194 -9.210661,0.14469 z m 7e-6,-65.25674 9.999998,0.15708 -7e-6,64.94257 -9.999998,0.15709 z m 8e-6,-131.79291 9.999997,0.15709 -7e-6,45.78582 -9.999998,0.15708 z m 0,107.59426 9.999997,0.15708 -7e-6,23.88448 -9.999998,0.15709 z m -2.3e-5,107.87671 9.999998,0.15709 -7e-6,26.13065 -10.000006,13.22838 z m 1.5e-5,-169.37098 9.999998,0.15709 v 29.40467 l -9.999998,0.15709 z m 0,29.71885 10.000005,0.15709 v 31.46124 l -9.999997,0.15709 z m -58.726925,139.6521 -9.210881,-0.13107 -0.0268,-18.13194 9.210449,-0.15831 z m 16.336851,39.51615 -0.157096,10 H 15.430381 l -0.157096,-10 z m 42.390044,0 -0.04239,2.69861 H 74.95016 l -0.04239,-2.69861 z M 21.523648,391.83172 11.523654,391.67463 v -29.40467 l 10.000001,-0.15709 z m 2.6e-5,31.77539 -9.999998,-0.15709 -2.2e-5,-31.46118 9.999994,-0.15712 z m -1.9e-5,-61.49424 -10.000001,-0.15708 1.5e-5,-45.78585 9.999994,-0.15709 z m 1.2e-5,85.69289 -9.999998,-0.15709 7e-6,-23.88448 9.999998,-0.15708 z m 0.02721,65.25674 -10.000069,-0.15291 -0.02707,-64.94257 9.999931,-0.16126 z m 53.356882,57.93747 -0.157095,10 H 38.072051 l -0.157088,-10 z m -59.634477,0 -9.850345,-1.73067 6.255321,-39.20591 9.899851,1.42043 z"
       id="path3482" />
    <path
       class="outer"
       d="m 90.305035,447.96287 -7e-6,64.94257 -9.999998,0.15709 9.210661,0.14469 -8e-6,18.13194 -9.210661,0.14469 9.999998,0.15709 -7e-6,26.13065 -10.000006,13.22838 -0.04239,2.69861 H 74.95016 l -0.04239,-2.69861 -0.157095,10 H 38.072051 l -0.157088,-10 -0.157096,10 H 15.430381 l -0.157096,-10 -9.850345,-1.73067 6.255321,-39.20591 9.899851,1.42043 -9.210881,-0.13107 -0.0268,-18.13194 9.210449,-0.15831 -10.000069,-0.15291 -0.02707,-64.94257 9.999931,-0.16126 -9.999998,-0.15709 7e-6,-23.88448 9.999998,-0.15708 -9.999998,-0.15709 -2.2e-5,-31.46118 9.999994,-0.15712 -9.999994,-0.15709 v -29.40467 l 10.000001,-0.15709 -10.000001,-0.15708 1.5e-5,-45.78585 9.999994,-0.15709 -9.999994,-0.15708 7e-6,-45.78582 9.999998,-0.15712 -9.999998,-0.15705 1.5e-5,-29.4047 9.999994,-0.15709 -9.999994,-0.15709 3.7e-5,-31.46115 10.000002,-0.15709 -10.000002,-0.15709 v -23.88453 l 9.999998,-0.15709 -9.999931,-0.16126 0.02712,-64.94254 10.000065,-0.15291 -9.210445,-0.15831 0.02681,-18.13195 9.210877,-0.13106 -9.899847,1.42046 -6.255314,-39.205846 9.850345,-1.730681 0.157103,-10.00005 22.327487,6e-5 0.157088,9.99999 0.157095,-9.99999 h 36.678609 l 0.157088,9.99999 0.0424,-2.6986 h 5.312458 l 0.04239,2.6986 9.999998,13.228357 -7e-6,26.13065 -10.000005,0.15708 9.210661,0.14469 -8e-6,18.13195 -9.210661,0.14469 10.000006,0.15709 -1.5e-5,64.94253 -9.999998,0.15709 9.999998,0.15709 -8e-6,23.88447 -9.999998,0.15709 10.000006,0.15709 -1.5e-5,31.46124 -10.000006,0.15709 9.999998,0.15709 -1.5e-5,29.40464 -9.999998,0.15708 9.999998,0.15709 -1.5e-5,45.78585 -9.999997,0.15708 9.999997,0.15709 -7e-6,45.78582 -9.999998,0.15708 9.999998,0.15709 v 29.40467 l -9.999998,0.15709 10.000005,0.15709 v 31.46124 l -9.999997,0.15709 9.999997,0.15708 -7e-6,23.88448 -9.999998,0.15709 z"
       id="path3484" />
    <g
       id="g3492">
      <path
         transform="matrix(-3e-6,10,-10,-3e-6,80.305119,80.783899)"
         class="arrow"
         d="M 0,0 1,1 0,0.25 -1,1 Z"
         id="path3486" />
      <text
         transform="translate(71.305116,84.783907)"
         style="font-size:10px"
         id="text3490"><tspan
           id="tspan3488">1</tspan></text>
    </g>
    <text
       transform="rotate(90,0.6606105,81.44451)"
       style="font-size:9px"
       id="text3496"><tspan
         id="tspan3494">3:1</tspan></text>
    <g
       id="g3504">
      <path
         transform="matrix(10,4e-6,-4e-6,10,26.594241,61.025853)"
         class="arrow"
         d="M 0,0 1,1 0,0.25 -1,1 Z"
         id="path3498" />
      <text
         transform="translate(26.594237,74.025865)"
         style="font-size:10px"
         id="text3502"><tspan
           id="tspan3500">2</tspan></text>
    </g>
    <text
       transform="translate(26.594241,59.225853)"
       style="font-size:9px"
       id="text3508"><tspan
         id="tspan3506">5:2</tspan></text>
    <g
       id="g3516">
      <path
         transform="matrix(10,4e-6,-4e-6,10,77.606504,61.025853)"
         class="arrow"
         d="M 0,0 1,1 0,0.25 -1,1 Z"
         id="path3510" />
      <text
         transform="translate(77.606504,74.025865)"
         style="font-size:10px"
         id="text3514"><tspan
           id="tspan3512">3</tspan></text>
    </g>
    <text
       transform="translate(77.606504,60.540075)"
       style="font-size:2.43px"
       id="text3520"><tspan
         id="tspan3518">5:3</tspan></text>
    <g
       id="g3528">
      <path
         transform="matrix(-1e-6,-10,10,-1e-6,21.523726,196.31931)"
         class="arrow"
         d="M 0,0 1,1 0,0.25 -1,1 Z"
         id="path3522" />
      <text
         transform="translate(30.523726,200.31931)"
         style="font-size:10px"
         id="text3526"><tspan
           id="tspan3524">4</tspan></text>
    </g>
    <text
       transform="rotate(-90,108.02152,88.297791)"
       style="font-size:9px"
       id="text3532"><tspan
         id="tspan3530">11:4</tspan></text>
    <g
       id="g3540">
      <path
         transform="matrix(0.004176,-9.999999,9.999999,0.004176,21.537357,151.59159)"
         class="arrow"
         d="M 0,0 1,1 0,0.25 -1,1 Z"
         id="path3534" />
      <text
         transform="translate(30.537357,155.59536)"
         style="font-size:10px"
         id="text3538"><tspan
           id="tspan3536">5</tspan></text>
    </g>
    <text
       transform="rotate(-89.97605,85.695791,65.922614)"
       style="font-size:9px"
       id="text3544"><tspan
         id="tspan3542">10:5</tspan></text>
    <g
       id="g3552">
      <path
         transform="matrix(-1.575577,-9.875097,9.875097,-1.575577,18.425812,80.783899)"
         class="arrow"
         d="M 0,0 1,1 0,0.25 -1,1 Z"
         id="path3546" />
      <text
         transform="translate(27.313399,83.365913)"
         style="font-size:10px"
         id="text3550"><tspan
           id="tspan3548">6.</tspan></text>
    </g>
    <text
       transform="rotate(-99.06518,42.903384,33.43243)"
       style="font-size:9px"
       id="text3556"><tspan
         id="tspan3554">10:6.</tspan></text>
    <g
       id="g3564">
      <path
         transform="matrix(-3e-6,10,-10,-3e-6,80.305015,551.24193)"
         class="arrow"
         d="M 0,0 1,1 0,0.25 -1,1 Z"
         id="path3558" />
      <text
         transform="translate(71.305011,555.24193)"
         style="font-size:10px"
         id="text3562"><tspan
           id="tspan3560">7</tspan></text>
    </g>
    <text
       transform="rotate(90,-234.56846,316.67347)"
       style="font-size:9px"
       id="text3568"><tspan
         id="tspan3566">3:7</tspan></text>
    <g
       id="g3576">
      <path
         transform="matrix(-10,-4e-6,4e-6,-10,26.594126,570.99997)"
         class="arrow"
         d="M 0,0 1,1 0,0.25 -1,1 Z"
         id="path3570" />
      <text
         transform="translate(26.594129,565.99998)"
         style="font-size:10px"
         id="text3574"><tspan
           id="tspan3572">8</tspan></text>
    </g>
    <text
       transform="rotate(180,13.297063,286.39999)"
       style="font-size:9px"
       id="text3580"><tspan
         id="tspan3578">4:8</tspan></text>
    <g
       id="g3588">
      <path
         transform="matrix(-10,-4e-6,4e-6,-10,77.606385,570.99997)"
         class="arrow"
         d="M 0,0 1,1 0,0.25 -1,1 Z"
         id="path3582" />
      <text
         transform="translate(77.606385,565.99998)"
         style="font-size:10px"
         id="text3586"><tspan
           id="tspan3584">9.</tspan></text>
    </g>
    <text
       transform="rotate(180,38.803193,285.74288)"
       style="font-size:2.43px"
       id="text3592"><tspan
         id="tspan3590">4:9.</tspan></text>
    <g
       id="g3600">
      <path
         transform="matrix(4e-6,-9.999999,9.999999,4e-6,21.52367,435.70643)"
         class="arrow"
         d="M 0,0 1,1 0,0.25 -1,1 Z"
         id="path3594" />
      <text
         transform="translate(30.52367,439.70643)"
         style="font-size:10px"
         id="text3598"><tspan
           id="tspan3596">10</tspan></text>
    </g>
    <text
       transform="rotate(-90,227.71505,207.99138)"
       style="font-size:9px"
       id="text3604"><tspan
         id="tspan3602">11:10</tspan></text>
    <g
       id="g3612">
      <path
         transform="matrix(-0.00417,-9.999999,9.999999,-0.00417,21.537271,480.43414)"
         class="arrow"
         d="M 0,0 1,1 0,0.25 -1,1 Z"
         id="path3606" />
      <text
         transform="translate(30.537271,484.43039)"
         style="font-size:10px"
         id="text3610"><tspan
           id="tspan3608">11</tspan></text>
    </g>
    <text
       transform="rotate(-90.023892,249.98593,230.3529)"
       style="font-size:9px"
       id="text3616"><tspan
         id="tspan3614">9.:11</tspan></text>
    <g
       id="g3624">
      <path
         transform="matrix(1.575578,-9.875098,9.875098,1.575578,18.4257,551.2419)"
         class="arrow"
         d="M 0,0 1,1 0,0.25 -1,1 Z"
         id="path3618" />
      <text
         transform="translate(27.313287,556.65992)"
         style="font-size:10px"
         id="text3622"><tspan
           id="tspan3620">12</tspan></text>
    </g>
    <text
       transform="rotate(-80.93482,331.24048,265.72158)"
       style="font-size:9px"
       id="text3628"><tspan
         id="tspan3626">9.:12</tspan></text>
  </g>
</svg>
