<?xml version="1.0" encoding="UTF-8" standalone="no"?>
<svg
   xmlns:dc="http://purl.org/dc/elements/1.1/"
   xmlns:cc="http://creativecommons.org/ns#"
   xmlns:rdf="http://www.w3.org/1999/02/22-rdf-syntax-ns#"
   xmlns:svg="http://www.w3.org/2000/svg"
   xmlns="http://www.w3.org/2000/svg"
   xmlns:xlink="http://www.w3.org/1999/xlink"
   xmlns:sodipodi="http://sodipodi.sourceforge.net/DTD/sodipodi-0.dtd"
   xmlns:inkscape="http://www.inkscape.org/namespaces/inkscape"
   version="1.1"
   width="292.10mm"
   height="600.00mm"
   viewBox="0 0 292.10 600.00"
   id="svg4841"
   sodipodi:docname="frontseat_back.blend_page1.svg"
   inkscape:version="0.92.3 (2405546, 2018-03-11)">
  <metadata
     id="metadata4847">
    <rdf:RDF>
      <cc:Work
         rdf:about="">
        <dc:format>image/svg+xml</dc:format>
        <dc:type
           rdf:resource="http://purl.org/dc/dcmitype/StillImage" />
      </cc:Work>
    </rdf:RDF>
  </metadata>
  <defs
     id="defs4845" />
  <sodipodi:namedview
     pagecolor="#ffffff"
     bordercolor="#666666"
     borderopacity="1"
     objecttolerance="10"
     gridtolerance="10"
     guidetolerance="10"
     inkscape:pageopacity="0"
     inkscape:pageshadow="2"
     inkscape:window-width="1853"
     inkscape:window-height="1025"
     id="namedview4843"
     showgrid="false"
     inkscape:zoom="0.41627778"
     inkscape:cx="1152.9932"
     inkscape:cy="1504.5042"
     inkscape:window-x="67"
     inkscape:window-y="27"
     inkscape:window-maximized="1"
     inkscape:current-layer="svg4841"
     inkscape:measure-start="569.045,2079.14"
     inkscape:measure-end="605.566,2079.14" />
  <style
     type="text/css"
     id="style4801">
    path {
        fill: none;
        stroke-linecap: butt;
        stroke-linejoin: bevel;
        stroke-dasharray: none;
    }
    path.outer {
        stroke: #000000;
        stroke-dasharray: none;
        stroke-dashoffset: 0;
        stroke-width: 0.3;
        stroke-opacity: 1.0;
    }
    path.convex {
        stroke: #000000;
        stroke-dasharray: 0.50,1.00;
        stroke-dashoffset:0;
        stroke-width:0.2;
        stroke-opacity: 1.0
    }
    path.concave {
        stroke: #000000;
        stroke-dasharray: 1.00,0.50,0.20,0.50;
        stroke-dashoffset: 0;
        stroke-width: 0.2;
        stroke-opacity: 1.0
    }
    path.freestyle {
        stroke: #000000;
        stroke-dasharray: none;
        stroke-dashoffset: 0;
        stroke-width: 0.2;
        stroke-opacity: 1.0
    }
    path.outer_background {
        stroke: #ffffff;
        stroke-opacity: 1.0;
        stroke-width: 0.5
    }
    path.inner_background {
        stroke: #ffffff;
        stroke-opacity: 1.0;
        stroke-width: 0.2
    }
    path.sticker {
        fill: #e5e5e5;
        stroke: none;
        fill-opacity: 1.0;
    }
    path.arrow {
        fill: #000000;
    }
    text {
        font-style: normal;
        fill: #000000;
        fill-opacity: 1.0;
        stroke: none;
    }
    text, tspan {
        text-anchor:middle;
    }
    </style>
  <g
     id="g4805" />
  <g
     id="g4809"
     transform="rotate(1.4415809,1391.9041,-1096.6903)" />
  <g
     id="g4813"
     transform="rotate(23.878423,263.52529,105.47648)" />
  <g
     id="g4817"
     transform="rotate(24.519152,345.15154,183.47286)" />
  <g
     id="g4821"
     transform="translate(20.974576,-15.254237)" />
  <g
     id="g4825"
     transform="translate(186.8644,1.2711863)" />
  <g
     id="g4829"
     transform="translate(-11.440678,-10.805085)" />
  <g
     id="g4833"
     transform="translate(-48.940678,-12.711864)" />
  <g
     id="g4837"
     transform="rotate(175.34351,121.70758,68.369496)">
    <path
       sodipodi:type="inkscape:offset"
       inkscape:radius="8.1398048"
       inkscape:original="M 59.705078 -454.21484 L 57.521484 -427.41602 L 55.746094 -405.625 L 50.033203 -335.47852 L 43.873047 -259.85742 L 37.714844 -184.23633 L 32 -114.08984 L 30.226562 -92.298828 L 28.042969 -65.501953 L 33.421875 -65.0625 L 35.605469 -91.861328 L 37.853516 -119.46875 L 43.09375 -183.79883 L 49.253906 -259.41992 L 55.412109 -335.04102 L 60.652344 -399.36914 L 62.900391 -426.97852 L 65.083984 -453.77539 L 59.705078 -454.21484 z M 16.275391 -453.28711 L 7.0722656 -340.28906 L -1.484375 -235.25195 L -10.039062 -130.21484 L -4.6601562 -129.77734 L 3.8964844 -234.81445 L 12.451172 -339.85156 L 21.654297 -452.84961 L 16.275391 -453.28711 z M 91.544922 -449.70703 L 82.341797 -336.70898 L 73.787109 -231.67188 L 65.232422 -126.63477 L 70.611328 -126.19727 L 79.166016 -231.23438 L 87.720703 -336.27148 L 96.925781 -449.26953 L 91.544922 -449.70703 z M 158.62891 -447.59375 L 163.57031 -404.70117 L 160.36133 -365.54492 L 149.50391 -300.91406 L 127.11523 -188.87891 L 116.22461 -84.068359 L 121.73633 23.722656 L 218.75195 34.0625 L 241.81055 -70.173828 L 242.07617 -176.93359 L 239.22266 -293.07812 L 244.13086 -358.18945 L 244.29297 -398.08398 L 235.24414 -440.92188 L 218.19727 -445.6875 L 158.62891 -447.59375 z M 5.8085938 -107.69727 L -3.8710938 -10.783203 L 1.5 -10.246094 L 11.179688 -107.16211 L 5.8085938 -107.69727 z M -21.289062 2.9179688 L -29.884766 99.935547 L -24.509766 100.41211 L -15.914062 3.3945312 L -21.289062 2.9179688 z M 13.851562 6.2128906 L 5.9433594 103.28906 L 42.814453 106.29102 L 48.193359 106.73047 L 56.101562 9.6542969 L 50.720703 9.2148438 L 13.851562 6.2128906 z M 88.097656 43.972656 L 93.242188 60.912109 L 88.097656 120.29492 L 128.80664 85.195312 L 115.6875 72.263672 L 93.119141 48.833984 L 88.097656 43.972656 z M 227.30859 59.197266 L 221.80078 63.498047 L 196.87109 84.398438 L 182.45117 95.863281 L 219.20117 135.08594 L 220.39453 75.494141 L 227.30859 59.197266 z "
       xlink:href="#path4835"
       style="fill:none;stroke:#000000;stroke-width:0.30000001;stroke-linecap:butt;stroke-linejoin:bevel;stroke-dasharray:none;stroke-dashoffset:0;stroke-opacity:1"
       id="path4870"
       inkscape:href="#path4835"
       d="m 59.554688,-462.35352 a 8.1406188,8.1406188 0 0 0 -7.962891,7.47852 l -2.183594,26.79883 -1.775391,21.79101 -5.71289,70.14649 -6.160156,75.62109 -6.158204,75.6211 -5.714843,70.14648 -1.773438,21.791016 -2.183593,26.796875 a 8.1406188,8.1406188 0 0 0 7.451171,8.773437 l 5.378907,0.439453 a 8.1406188,8.1406188 0 0 0 8.77539,-7.453125 l 2.183594,-26.798828 2.248047,-27.607418 5.240234,-64.33008 6.160157,-75.6211 6.158203,-75.62109 5.240234,-64.32812 2.248047,-27.60938 2.183594,-26.79687 a 8.1406188,8.1406188 0 0 0 -7.451172,-8.77344 l -5.378906,-0.43945 a 8.1406188,8.1406188 0 0 0 -0.8125,-0.0254 z m -43.433594,0.92774 a 8.1406188,8.1406188 0 0 0 -7.9589846,7.47851 l -9.203125,112.99805 -8.5566406,105.03711 -8.5546878,105.03711 a 8.1406188,8.1406188 0 0 0 7.453125,8.77344 l 5.3789065,0.4375 a 8.1406188,8.1406188 0 0 0 8.7734375,-7.45313 l 8.556641,-105.03711 8.554687,-105.03711 9.203125,-112.99804 a 8.1406188,8.1406188 0 0 0 -7.453125,-8.77344 l -5.378906,-0.4375 a 8.1406188,8.1406188 0 0 0 -0.814453,-0.0254 z m 75.269531,3.58008 a 8.1406188,8.1406188 0 0 0 -7.958984,7.47851 l -9.203125,112.99805 -8.554688,105.03711 -8.554687,105.03711 a 8.1406188,8.1406188 0 0 0 7.453125,8.77344 l 5.378906,0.4375 a 8.1406188,8.1406188 0 0 0 8.773437,-7.45313 l 8.554688,-105.03711 8.554687,-105.03711 9.205076,-112.99805 a 8.1406188,8.1406188 0 0 0 -7.453122,-8.77343 l -5.38086,-0.4375 a 8.1406188,8.1406188 0 0 0 -0.814453,-0.0254 z m 67.498045,2.11718 a 8.1406188,8.1406188 0 0 0 -8.3457,9.06641 l 4.84961,42.0957 -3.11524,38.01368 -10.77929,64.16601 -22.36524,111.91211 a 8.1406188,8.1406188 0 0 0 -0.11328,0.75391 l -10.89062,104.810544 a 8.1406188,8.1406188 0 0 0 -0.0332,1.257812 l 5.51172,107.791016 a 8.1406188,8.1406188 0 0 0 7.26563,7.677734 l 97.01562,10.339844 a 8.1406188,8.1406188 0 0 0 8.81055,-6.335938 l 23.05859,-104.236328 a 8.1406188,8.1406188 0 0 0 0.19336,-1.738281 l 0.26563,-106.759763 a 8.1406188,8.1406188 0 0 0 -0.004,-0.21875 l -2.84375,-115.73828 4.87891,-64.70703 a 8.1406188,8.1406188 0 0 0 0.0234,-0.57813 l 0.16211,-39.89453 a 8.1406188,8.1406188 0 0 0 -0.17578,-1.71484 l -9.04883,-42.8379 a 8.1406188,8.1406188 0 0 0 -5.77343,-6.1582 l -17.04688,-4.76562 a 8.1406188,8.1406188 0 0 0 -1.93164,-0.29493 z M 5.8027344,-115.83789 a 8.1406188,8.1406188 0 0 0 -8.09375,7.33203 l -9.6796874,96.914063 a 8.1406188,8.1406188 0 0 0 7.2890624,8.9082032 l 5.37109372,0.5371094 A 8.1406188,8.1406188 0 0 0 9.5996094,-9.4375 l 9.6796876,-96.91602 a 8.1406188,8.1406188 0 0 0 -7.292969,-8.9082 l -5.3710936,-0.53516 a 8.1406188,8.1406188 0 0 0 -0.8125,-0.041 z M -21.382812,-5.2207031 a 8.1406188,8.1406188 0 0 0 -8.013672,7.4199219 l -8.595704,97.0175782 a 8.1406188,8.1406188 0 0 0 7.388672,8.826173 l 5.375,0.47656 a 8.1406188,8.1406188 0 0 0 8.826172,-7.38867 L -7.8066406,4.1132812 a 8.1406188,8.1406188 0 0 0 -7.3886714,-8.8261718 l -5.375,-0.4765625 a 8.1406188,8.1406188 0 0 0 -0.8125,-0.03125 z m 35.082031,3.2949219 A 8.1406188,8.1406188 0 0 0 5.7382812,5.5527344 L -2.1699219,102.62891 a 8.1406188,8.1406188 0 0 0 7.453125,8.77343 l 36.8691409,3.00196 5.378906,0.43945 a 8.1406188,8.1406188 0 0 0 8.775391,-7.45313 L 64.214844,10.314453 A 8.1406188,8.1406188 0 0 0 56.763672,1.5410156 l -5.38086,-0.4394531 a 8.1406188,8.1406188 0 0 0 -0.002,0 l -36.86914,-3.0019531 a 8.1406188,8.1406188 0 0 0 -0.8125,-0.025391 z M 87.845703,35.837891 a 8.1406188,8.1406188 0 0 0 -7.537109,10.5 l 4.689453,15.4375 -5.009766,57.816409 a 8.1406188,8.1406188 0 0 0 13.423828,6.86718 L 134.12109,91.359375 a 8.1406188,8.1406188 0 0 0 0.40039,-11.960937 L 121.47656,66.541016 98.982422,43.1875 A 8.1406188,8.1406188 0 0 0 98.78125,42.986328 L 93.759766,38.125 A 8.1406188,8.1406188 0 0 0 87.845703,35.837891 Z M 227.07617,51.0625 a 8.1406188,8.1406188 0 0 0 -4.77734,1.71875 l -5.50781,4.300781 a 8.1406188,8.1406188 0 0 0 -0.22071,0.177735 L 191.72266,78.09375 177.38477,89.492188 a 8.1406188,8.1406188 0 0 0 -0.87305,11.937502 l 36.75,39.22265 a 8.1406188,8.1406188 0 0 0 14.07812,-5.40429 l 1.16211,-58.021488 6.30078,-14.849609 A 8.1406188,8.1406188 0 0 0 227.07617,51.0625 Z" />
    <path
       id="path4835"
       style="fill:none;stroke:#000000;stroke-width:0.30000001;stroke-linecap:butt;stroke-linejoin:bevel;stroke-dasharray:none;stroke-dashoffset:0;stroke-opacity:1"
       d="M 93.119149,48.834379 115.68749,72.26419 128.80701,85.195716 88.09859,120.29397 93.242113,60.911651 88.09859,43.973203 Z m -22.508202,-175.031549 -5.379425,-0.43816 8.555293,-105.03698 8.555316,-105.03702 9.203766,-112.99841 5.379426,0.43815 -9.203756,112.99842 -8.555317,105.03702 z m -13.089369,-301.21914 2.182714,-26.79804 5.379436,0.43816 -2.182714,26.79804 -2.248693,27.60809 -5.239609,64.32876 -6.159526,75.6216 -6.159499,75.62163 -5.239703,64.32881 -2.248756,27.608127 -2.182748,26.798103 -5.379436,-0.438158 2.182739,-26.798104 1.774949,-21.791018 5.71351,-70.14592 6.159518,-75.62162 6.159507,-75.62161 5.713424,-70.14585 z M 48.19398,106.72958 42.81455,106.29143 5.943874,103.28829 13.850625,6.212671 50.721302,9.2158056 56.100733,9.6539628 Z m -52.8533861,-236.5068 -5.3794259,-0.43816 8.5552952,-105.037 8.5553124,-105.03697 9.2037654,-112.99841 5.379426,0.43816 -9.203756,112.99841 -8.5553124,105.03697 z m 6.1585655,119.530721 -5.3705208,-0.536423 9.680073,-96.914848 5.3705034,0.53641 z m -31.3843254,110.182472 8.595743,-97.0170823 5.376166,0.4763241 -8.595688,97.0170452 z m 251.685686,-36.437955 5.5086,-4.300331 -6.91375,16.29624 -1.19384,59.592673 -36.7496,-39.2242 14.41905,-11.464594 z m -94.68448,-252.377558 22.38777,-112.03386 10.85677,-64.63195 3.21041,-39.15678 -4.94232,-42.89196 59.56906,1.90666 17.04736,4.76502 9.04763,42.83856 -0.16211,39.89517 -4.90729,65.11011 2.8523,116.14438 -0.26561,106.760369 -23.05863,104.237185 -97.01411,-10.341269 -5.51214,-107.789873 z"
       inkscape:connector-curvature="0" />
  </g>
</svg>
