<?xml version="1.0" encoding="UTF-8" standalone="no"?>
<svg
   xmlns:dc="http://purl.org/dc/elements/1.1/"
   xmlns:cc="http://creativecommons.org/ns#"
   xmlns:rdf="http://www.w3.org/1999/02/22-rdf-syntax-ns#"
   xmlns:svg="http://www.w3.org/2000/svg"
   xmlns="http://www.w3.org/2000/svg"
   xmlns:sodipodi="http://sodipodi.sourceforge.net/DTD/sodipodi-0.dtd"
   xmlns:inkscape="http://www.inkscape.org/namespaces/inkscape"
   version="1.1"
   width="292.10mm"
   height="600.00mm"
   viewBox="0 0 292.10 600.00"
   id="svg5302"
   sodipodi:docname="frontseat_back.blend_page5.svg">
  <metadata
     id="metadata5308">
    <rdf:RDF>
      <cc:Work
         rdf:about="">
        <dc:format>image/svg+xml</dc:format>
        <dc:type
           rdf:resource="http://purl.org/dc/dcmitype/StillImage" />
      </cc:Work>
    </rdf:RDF>
  </metadata>
  <defs
     id="defs5306" />
  <sodipodi:namedview
     pagecolor="#ffffff"
     bordercolor="#666666"
     borderopacity="1"
     objecttolerance="10"
     gridtolerance="10"
     guidetolerance="10"
     inkscape:pageopacity="0"
     inkscape:pageshadow="2"
     inkscape:window-width="640"
     inkscape:window-height="480"
     id="namedview5304"
     showgrid="false" />
  <style
     type="text/css"
     id="style5282">
    path {
        fill: none;
        stroke-linecap: butt;
        stroke-linejoin: bevel;
        stroke-dasharray: none;
    }
    path.outer {
        stroke: #000000;
        stroke-dasharray: none;
        stroke-dashoffset: 0;
        stroke-width: 0.3;
        stroke-opacity: 1.0;
    }
    path.convex {
        stroke: #000000;
        stroke-dasharray: 0.50,1.00;
        stroke-dashoffset:0;
        stroke-width:0.2;
        stroke-opacity: 1.0
    }
    path.concave {
        stroke: #000000;
        stroke-dasharray: 1.00,0.50,0.20,0.50;
        stroke-dashoffset: 0;
        stroke-width: 0.2;
        stroke-opacity: 1.0
    }
    path.freestyle {
        stroke: #000000;
        stroke-dasharray: none;
        stroke-dashoffset: 0;
        stroke-width: 0.2;
        stroke-opacity: 1.0
    }
    path.outer_background {
        stroke: #ffffff;
        stroke-opacity: 1.0;
        stroke-width: 0.5
    }
    path.inner_background {
        stroke: #ffffff;
        stroke-opacity: 1.0;
        stroke-width: 0.2
    }
    path.sticker {
        fill: #e5e5e5;
        stroke: none;
        fill-opacity: 1.0;
    }
    path.arrow {
        fill: #000000;
    }
    text {
        font-style: normal;
        fill: #000000;
        fill-opacity: 1.0;
        stroke: none;
    }
    text, tspan {
        text-anchor:middle;
    }
    </style>
  <g
     id="g5286"
     transform="translate(3.8135594,-3.8135591)">
    <path
       style="fill:none;stroke:#000000;stroke-width:0.30000001;stroke-linecap:butt;stroke-linejoin:bevel;stroke-dasharray:none;stroke-dashoffset:0;stroke-opacity:1"
       inkscape:connector-curvature="0"
       id="path5284"
       d="M 111.15636,567.37551 97.935741,554.54737 66.870441,497.15933 42.671804,497.1593 14.440064,482.57708 5,454.39739 l 1.5e-5,-46.10002 v -46.10002 l 9.440005,-28.17966 28.231814,-14.58228 h 24.198637 l 31.06527,-57.38806 13.220619,-12.82809 23.12126,-22.88425 5.1348,-4.74026 -2.79812,18.58946 -1.60306,21.86314 -1.145,70.37812 v 75.87193 l -2e-5,75.87193 1.14504,70.37807 1.60301,21.86313 2.79812,18.58949 -5.13479,-4.74029 z"
       class="outer" />
  </g>
  <g
     id="g5290"
     transform="translate(13.983021,-30.508477)">
    <path
       style="fill:none;stroke:#000000;stroke-width:0.30000001;stroke-linecap:butt;stroke-linejoin:bevel;stroke-dasharray:none;stroke-dashoffset:0;stroke-opacity:1"
       inkscape:connector-curvature="0"
       id="path5288"
       d="m 243.87533,270.85769 17.13988,105.38487 -17.1399,105.38484 -25.42711,113.37262 h -42.043 -36.99278 l 2e-5,-113.37264 V 376.24254 l 1e-5,-105.38482 36.99278,-3e-5 z"
       class="outer" />
  </g>
  <g
     id="g5294"
     transform="rotate(31.061239,112.07973,41.337966)">
    <path
       style="fill:none;stroke:#000000;stroke-width:0.30000001;stroke-linecap:butt;stroke-linejoin:bevel;stroke-dasharray:none;stroke-dashoffset:0;stroke-opacity:1"
       inkscape:connector-curvature="0"
       id="path5292"
       d="M 139.41248,92.964764 V 63.245947 l -3e-5,-31.775414 2e-5,-24.198652 h 5.89551 40.40794 12.47793 l -3e-5,24.198652 3e-5,31.775355 v 29.718876 46.100016 l -1e-5,46.10002 -2e-5,29.71885 -3e-5,31.77533 v 24.19871 h -12.4779 -40.40794 -5.89551 l -2e-5,-24.19865 2e-5,-31.77542 1e-5,-29.71882 2e-5,-46.10002 z"
       class="outer" />
  </g>
  <g
     id="g5298"
     transform="translate(10.169492,-77.542372)">
    <path
       style="fill:none;stroke:#000000;stroke-width:0.30000001;stroke-linecap:butt;stroke-linejoin:bevel;stroke-dasharray:none;stroke-dashoffset:0;stroke-opacity:1"
       inkscape:connector-curvature="0"
       id="path5296"
       d="m 58.396873,98.397161 h 5.397249 v 6.988289 l -7e-6,32.53126 -4e-6,18.42132 -1.1e-5,65.25672 H 57.898586 17.490641 5.012729 l 0.027243,-65.25672 0.02724,-18.42138 3e-6,-32.53123 L 5,98.397131 l 16.40407,3e-5 z"
       class="outer" />
  </g>
  <g
     id="g4946"
     transform="translate(534.66388,-187.7119)">
    <path
       style="fill:none;stroke:#000000;stroke-width:0.30000001;stroke-linecap:butt;stroke-linejoin:bevel;stroke-dasharray:none;stroke-dashoffset:0;stroke-opacity:1"
       inkscape:connector-curvature="0"
       id="path4944"
       d="m 131.64066,475.87195 -1e-5,-75.87193 4e-5,-75.87193 -1e-5,-70.37807 1e-5,-21.86316 v -26.88682 l 65.28029,3e-5 h 39.29159 l 39.47626,8.29732 2.79814,18.58947 1.60301,21.86319 1.145,70.37807 -3e-5,75.8719 -3e-5,75.87194 -1.145,70.37806 -1.60301,21.86318 -2.79814,18.58946 -39.47629,8.29736 -39.29153,-10e-6 h -65.28029 v -26.88682 l 2e-5,-21.86318 z"
       class="outer" />
  </g>
</svg>
