<?xml version="1.0" encoding="UTF-8" standalone="no"?>
<svg
   xmlns:dc="http://purl.org/dc/elements/1.1/"
   xmlns:cc="http://creativecommons.org/ns#"
   xmlns:rdf="http://www.w3.org/1999/02/22-rdf-syntax-ns#"
   xmlns:svg="http://www.w3.org/2000/svg"
   xmlns="http://www.w3.org/2000/svg"
   xmlns:xlink="http://www.w3.org/1999/xlink"
   xmlns:sodipodi="http://sodipodi.sourceforge.net/DTD/sodipodi-0.dtd"
   xmlns:inkscape="http://www.inkscape.org/namespaces/inkscape"
   version="1.1"
   width="292.10mm"
   height="600.00mm"
   viewBox="0 0 292.10 600.00"
   id="svg5302"
   sodipodi:docname="frontseat_back.blend_page5.svg"
   inkscape:version="0.92.3 (2405546, 2018-03-11)">
  <metadata
     id="metadata5308">
    <rdf:RDF>
      <cc:Work
         rdf:about="">
        <dc:format>image/svg+xml</dc:format>
        <dc:type
           rdf:resource="http://purl.org/dc/dcmitype/StillImage" />
        <dc:title></dc:title>
      </cc:Work>
    </rdf:RDF>
  </metadata>
  <defs
     id="defs5306" />
  <sodipodi:namedview
     pagecolor="#ffffff"
     bordercolor="#666666"
     borderopacity="1"
     objecttolerance="10"
     gridtolerance="10"
     guidetolerance="10"
     inkscape:pageopacity="0"
     inkscape:pageshadow="2"
     inkscape:window-width="1853"
     inkscape:window-height="1025"
     id="namedview5304"
     showgrid="false"
     inkscape:zoom="0.20813889"
     inkscape:cx="2037.4728"
     inkscape:cy="746.20591"
     inkscape:window-x="67"
     inkscape:window-y="27"
     inkscape:window-maximized="1"
     inkscape:current-layer="svg5302"
     inkscape:measure-start="860.904,2192.95"
     inkscape:measure-end="887.929,2217.27" />
  <style
     type="text/css"
     id="style5282">
    path {
        fill: none;
        stroke-linecap: butt;
        stroke-linejoin: bevel;
        stroke-dasharray: none;
    }
    path.outer {
        stroke: #000000;
        stroke-dasharray: none;
        stroke-dashoffset: 0;
        stroke-width: 0.3;
        stroke-opacity: 1.0;
    }
    path.convex {
        stroke: #000000;
        stroke-dasharray: 0.50,1.00;
        stroke-dashoffset:0;
        stroke-width:0.2;
        stroke-opacity: 1.0
    }
    path.concave {
        stroke: #000000;
        stroke-dasharray: 1.00,0.50,0.20,0.50;
        stroke-dashoffset: 0;
        stroke-width: 0.2;
        stroke-opacity: 1.0
    }
    path.freestyle {
        stroke: #000000;
        stroke-dasharray: none;
        stroke-dashoffset: 0;
        stroke-width: 0.2;
        stroke-opacity: 1.0
    }
    path.outer_background {
        stroke: #ffffff;
        stroke-opacity: 1.0;
        stroke-width: 0.5
    }
    path.inner_background {
        stroke: #ffffff;
        stroke-opacity: 1.0;
        stroke-width: 0.2
    }
    path.sticker {
        fill: #e5e5e5;
        stroke: none;
        fill-opacity: 1.0;
    }
    path.arrow {
        fill: #000000;
    }
    text {
        font-style: normal;
        fill: #000000;
        fill-opacity: 1.0;
        stroke: none;
    }
    text, tspan {
        text-anchor:middle;
    }
    </style>
  <g
     id="g5286"
     transform="rotate(26.155266,175.4057,488.18115)" />
  <g
     transform="rotate(46.446032,806.32099,561.1918)"
     id="g5461">
    <path
       sodipodi:type="inkscape:offset"
       inkscape:radius="9.4965858"
       inkscape:original="M 11.517578 607.40625 L 11.517578 672.68555 L 11.517578 711.97656 L 11.517578 757 L 11.517578 782.7207 L 11.517578 823.99609 L 11.517578 848.19336 L 11.517578 885.86523 L 16.914062 885.86523 L 53.908203 885.86523 L 70.298828 885.86523 L 70.298828 848.19336 L 70.298828 823.99609 L 70.298828 808.36914 L 53.908203 780.63281 L 53.908203 711.97656 L 53.908203 672.68555 L 53.908203 607.40625 L 16.914062 607.40625 L 11.517578 607.40625 z M 192.47656 730.56445 L 189.30469 736.79102 L 175.55273 766.27344 L 167.60156 782.88867 L 158.36523 847.49023 L 135.66797 855.88086 L 114.24609 879.34961 L 115.16406 909.05273 L 131.15039 952.29297 L 147.13672 995.53125 L 165.76367 1018.6895 L 197.30078 1022.5762 L 219.99805 1014.1855 L 269.03711 1057.2383 L 285.88477 1064.6855 L 315.50781 1078.1328 L 321.9668 1080.7969 L 312.89648 1064.332 L 303.81055 1044.3809 L 278.33008 978.76758 L 252.01953 907.60352 L 225.70898 836.43945 L 202.37695 770.0332 L 196.29883 748.9707 L 192.47656 730.56445 z "
       xlink:href="#path5459"
       style="fill:none;stroke:#000000;stroke-width:0.30000001;stroke-linecap:butt;stroke-linejoin:bevel;stroke-dasharray:none;stroke-dashoffset:0;stroke-opacity:1"
       id="path762"
       inkscape:href="#path5459"
       d="m 11.517578,597.91016 a 9.4975355,9.4975355 0 0 0 -9.4960936,9.49609 v 65.2793 39.29101 V 757 v 25.7207 41.27539 24.19727 37.67187 a 9.4975355,9.4975355 0 0 0 9.4960936,9.4961 h 5.396484 36.994141 16.390625 a 9.4975355,9.4975355 0 0 0 9.496094,-9.4961 v -37.67187 -24.19727 -15.62695 a 9.4975355,9.4975355 0 0 0 -1.320313,-4.83203 l -15.070312,-25.5 v -66.06055 -39.29101 -65.2793 a 9.4975355,9.4975355 0 0 0 -9.496094,-9.49609 H 16.914062 Z M 192.15039,721.07617 a 9.4975355,9.4975355 0 0 0 -8.13672,5.17774 l -3.17187,6.22656 a 9.4975355,9.4975355 0 0 0 -0.14258,0.29687 l -13.73242,29.43946 -7.93164,16.57226 a 9.4975355,9.4975355 0 0 0 -0.83399,2.75586 l -8.43555,59 -17.39062,6.42774 a 9.4975355,9.4975355 0 0 0 -3.7207,2.50586 l -21.42188,23.46875 a 9.4975355,9.4975355 0 0 0 -2.47851,6.69531 l 0.91797,29.70312 a 9.4975355,9.4975355 0 0 0 0.58398,3 l 15.98633,43.24024 15.98633,43.23828 a 9.4975355,9.4975355 0 0 0 1.50781,2.65818 l 18.62695,23.1582 a 9.4975355,9.4975355 0 0 0 6.23828,3.4746 l 31.53711,3.8868 a 9.4975355,9.4975355 0 0 0 4.45508,-0.5176 l 17.39063,-6.4297 44.7871,39.3203 a 9.4975355,9.4975355 0 0 0 2.42579,1.5488 l 16.80468,7.4278 29.58008,13.4277 a 9.4975355,9.4975355 0 0 0 0.30469,0.1328 l 6.45898,2.6641 a 9.4975355,9.4975355 0 0 0 11.93946,-13.3614 l -8.89649,-16.1484 -8.82422,-19.375 -25.35351,-65.28906 -26.28321,-71.09179 -26.28515,-71.0918 -23.2168,-66.07813 -5.90234,-20.45507 -3.74805,-18.05274 a 9.4975355,9.4975355 0 0 0 -9.625,-7.55664 z" />
    <path
       id="path5459"
       style="fill:none;stroke:#000000;stroke-width:0.30000001;stroke-linecap:butt;stroke-linejoin:bevel;stroke-dasharray:none;stroke-dashoffset:0;stroke-opacity:1"
       d="m 53.907437,607.40546 v 65.28032 39.2915 68.65466 l 16.39134,27.73696 v 15.62667 24.19865 37.6718 h -16.39131 -36.99282 -5.39724 v -37.6718 -24.19865 l 10e-6,-41.27449 v -25.72131 -45.02243 -39.29156 -65.28032 h 5.39725 z m 231.977593,457.28034 -16.84881,-7.4473 -49.03882,-43.0539 -22.69699,8.3917 -31.53671,-3.887 -18.62654,-23.15732 -15.98675,-43.23928 -15.98678,-43.23927 -0.91806,-29.70462 21.42297,-23.46773 22.69699,-8.39171 9.23622,-64.59979 7.95163,-16.61674 13.75056,-29.48226 3.17231,-6.22677 3.82206,18.40623 6.07821,21.06233 23.3321,66.40787 26.31121,71.16368 26.31119,71.16369 25.48,65.61369 9.08533,19.9505 9.07103,16.4656 -6.46001,-2.6655 z"
       inkscape:connector-curvature="0" />
  </g>
</svg>
