<?xml version="1.0" encoding="UTF-8" standalone="no"?>
<!-- Created with Inkscape (http://www.inkscape.org/) -->

<svg
   xmlns:dc="http://purl.org/dc/elements/1.1/"
   xmlns:cc="http://creativecommons.org/ns#"
   xmlns:rdf="http://www.w3.org/1999/02/22-rdf-syntax-ns#"
   xmlns:svg="http://www.w3.org/2000/svg"
   xmlns="http://www.w3.org/2000/svg"
   xmlns:xlink="http://www.w3.org/1999/xlink"
   xmlns:sodipodi="http://sodipodi.sourceforge.net/DTD/sodipodi-0.dtd"
   xmlns:inkscape="http://www.inkscape.org/namespaces/inkscape"
   width="11.5in"
   height="23.5in"
   viewBox="0 0 292.1 596.90002"
   version="1.1"
   id="svg708"
   inkscape:version="0.92.3 (2405546, 2018-03-11)"
   sodipodi:docname="frontseat_back.blend_page10.svg">
  <defs
     id="defs702" />
  <sodipodi:namedview
     id="base"
     pagecolor="#ffffff"
     bordercolor="#666666"
     borderopacity="1.0"
     inkscape:pageopacity="0.0"
     inkscape:pageshadow="2"
     inkscape:zoom="0.35355339"
     inkscape:cx="-158.48356"
     inkscape:cy="1451.7819"
     inkscape:document-units="mm"
     inkscape:current-layer="layer1"
     showgrid="false"
     units="in"
     inkscape:window-width="1853"
     inkscape:window-height="1025"
     inkscape:window-x="67"
     inkscape:window-y="27"
     inkscape:window-maximized="1"
     inkscape:measure-start="1003.75,2119.25"
     inkscape:measure-end="1040.34,2118.75" />
  <metadata
     id="metadata705">
    <rdf:RDF>
      <cc:Work
         rdf:about="">
        <dc:format>image/svg+xml</dc:format>
        <dc:type
           rdf:resource="http://purl.org/dc/dcmitype/StillImage" />
        <dc:title></dc:title>
      </cc:Work>
    </rdf:RDF>
  </metadata>
  <g
     inkscape:label="Layer 1"
     inkscape:groupmode="layer"
     id="layer1"
     transform="translate(0,299.90002)">
    <g
       id="g5290"
       transform="rotate(-0.04834262,-384421.61,141203.05)" />
    <g
       transform="rotate(9.8833749,3477.0932,990.31679)"
       id="g598"
       inkscape:transform-center-x="-84.396767"
       inkscape:transform-center-y="34.572387">
      <path
         sodipodi:type="inkscape:offset"
         inkscape:radius="9.590292"
         inkscape:original="M 96.451172 296.63477 L 5 339.58008 L 13.226562 387.51367 L 26.060547 462.29297 L 38.894531 537.07227 L 47.123047 585.00586 L 147.6582 595 L 139.03906 544.78125 L 134.88867 520.5957 L 122.05469 445.81836 L 109.2207 371.03906 L 105.07031 346.85352 L 96.451172 296.63477 z M -4.6113281 537.23828 L -71.070312 548.875 L -107.50781 555.25586 L -89.332031 659.06055 L -71.15625 762.86719 L -51.601562 874.53906 L -15.164062 868.16016 L 26.25 860.9082 L 31.742188 744.84961 L 30.449219 638.08789 L -4.6113281 537.23828 z "
         xlink:href="#path596"
         style="fill:none;stroke:#000000;stroke-width:0.30000001;stroke-linecap:butt;stroke-linejoin:bevel;stroke-dasharray:none;stroke-dashoffset:0;stroke-opacity:1"
         id="path230"
         inkscape:href="#path596"
         d="M 96.457031,287.04492 A 9.591251,9.591251 0 0 0 92.375,287.95312 L 0.92382812,330.89844 a 9.591251,9.591251 0 0 0 -5.37500002,10.30468 l 8.2265625,47.9336 12.8339844,74.7793 12.833984,74.77929 8.228516,47.9336 a 9.591251,9.591251 0 0 0 8.501953,7.91992 l 100.535152,9.99414 a 9.591251,9.591251 0 0 0 10.4004,-11.16602 l -8.61915,-50.21875 -4.15039,-24.18359 a 9.591251,9.591251 0 0 0 0,-0.002 l -12.83398,-74.77735 -12.83398,-74.77929 -4.1504,-24.1836 a 9.591251,9.591251 0 0 0 0,-0.002 l -8.61914,-50.21875 a 9.591251,9.591251 0 0 0 -9.445309,-7.9668 z M -4.265625,527.6543 a 9.591251,9.591251 0 0 0 -2,0.13672 l -66.458984,11.63671 -36.437501,6.38086 a 9.591251,9.591251 0 0 0 -7.79297,11.10157 l 18.175783,103.80468 18.175781,103.80664 19.554688,111.67188 a 9.591251,9.591251 0 0 0 11.101562,7.79297 l 36.4375,-6.37891 41.414063,-7.25195 a 9.591251,9.591251 0 0 0 7.925781,-8.99414 l 5.492188,-116.0586 a 9.591251,9.591251 0 0 0 0.0098,-0.56835 L 40.039062,637.97266 a 9.591251,9.591251 0 0 0 -0.53125,-3.03321 L 4.4472656,534.08984 A 9.591251,9.591251 0 0 0 -4.265625,527.6543 Z" />
      <path
         id="path596"
         style="fill:none;stroke:#000000;stroke-width:0.30000001;stroke-linecap:butt;stroke-linejoin:bevel;stroke-dasharray:none;stroke-dashoffset:0;stroke-opacity:1"
         d="M 13.227061,387.51444 5,339.57922 l 91.45093,-42.94363 8.6187,50.21805 4.15098,24.18563 12.83412,74.77855 12.8341,74.77858 4.15088,24.18562 8.61896,50.218 L 47.122286,585.00683 38.89528,537.0716 26.061171,462.29302 Z m -17.8377593,149.72352 35.0592143,100.84938 1.293146,106.76174 -5.492184,116.05914 -41.412943,7.25134 -36.438406,6.38031 -19.553859,-111.67364 -18.176188,-103.80554 -18.176172,-103.80553 36.438399,-6.38033 z"
         inkscape:connector-curvature="0" />
    </g>
  </g>
</svg>
