<?xml version="1.0" encoding="UTF-8" standalone="no"?>
<svg
   xmlns:dc="http://purl.org/dc/elements/1.1/"
   xmlns:cc="http://creativecommons.org/ns#"
   xmlns:rdf="http://www.w3.org/1999/02/22-rdf-syntax-ns#"
   xmlns:svg="http://www.w3.org/2000/svg"
   xmlns="http://www.w3.org/2000/svg"
   xmlns:xlink="http://www.w3.org/1999/xlink"
   xmlns:sodipodi="http://sodipodi.sourceforge.net/DTD/sodipodi-0.dtd"
   xmlns:inkscape="http://www.inkscape.org/namespaces/inkscape"
   version="1.1"
   width="292.10mm"
   height="600.00mm"
   viewBox="0 0 292.10 600.00"
   id="svg5200"
   sodipodi:docname="frontseat_back.blend_page4.svg"
   inkscape:version="0.92.3 (2405546, 2018-03-11)">
  <metadata
     id="metadata5206">
    <rdf:RDF>
      <cc:Work
         rdf:about="">
        <dc:format>image/svg+xml</dc:format>
        <dc:type
           rdf:resource="http://purl.org/dc/dcmitype/StillImage" />
      </cc:Work>
    </rdf:RDF>
  </metadata>
  <defs
     id="defs5204" />
  <sodipodi:namedview
     pagecolor="#ffffff"
     bordercolor="#666666"
     borderopacity="1"
     objecttolerance="10"
     gridtolerance="10"
     guidetolerance="10"
     inkscape:pageopacity="0"
     inkscape:pageshadow="2"
     inkscape:window-width="1853"
     inkscape:window-height="1025"
     id="namedview5202"
     showgrid="false"
     inkscape:zoom="0.29435284"
     inkscape:cx="929.80685"
     inkscape:cy="1889.1581"
     inkscape:window-x="67"
     inkscape:window-y="27"
     inkscape:window-maximized="1"
     inkscape:current-layer="svg5200"
     inkscape:measure-start="664.169,1879.55"
     inkscape:measure-end="628.497,1871.9" />
  <style
     type="text/css"
     id="style5180">
    path {
        fill: none;
        stroke-linecap: butt;
        stroke-linejoin: bevel;
        stroke-dasharray: none;
    }
    path.outer {
        stroke: #000000;
        stroke-dasharray: none;
        stroke-dashoffset: 0;
        stroke-width: 0.3;
        stroke-opacity: 1.0;
    }
    path.convex {
        stroke: #000000;
        stroke-dasharray: 0.50,1.00;
        stroke-dashoffset:0;
        stroke-width:0.2;
        stroke-opacity: 1.0
    }
    path.concave {
        stroke: #000000;
        stroke-dasharray: 1.00,0.50,0.20,0.50;
        stroke-dashoffset: 0;
        stroke-width: 0.2;
        stroke-opacity: 1.0
    }
    path.freestyle {
        stroke: #000000;
        stroke-dasharray: none;
        stroke-dashoffset: 0;
        stroke-width: 0.2;
        stroke-opacity: 1.0
    }
    path.outer_background {
        stroke: #ffffff;
        stroke-opacity: 1.0;
        stroke-width: 0.5
    }
    path.inner_background {
        stroke: #ffffff;
        stroke-opacity: 1.0;
        stroke-width: 0.2
    }
    path.sticker {
        fill: #e5e5e5;
        stroke: none;
        fill-opacity: 1.0;
    }
    path.arrow {
        fill: #000000;
    }
    text {
        font-style: normal;
        fill: #000000;
        fill-opacity: 1.0;
        stroke: none;
    }
    text, tspan {
        text-anchor:middle;
    }
    </style>
  <g
     id="g5184"
     transform="rotate(-12.686685,227.14896,107.85212)" />
  <g
     id="g5188"
     transform="rotate(16.495624,467.93415,-255.52514)" />
  <g
     id="g5196"
     transform="translate(18.876156,-55.729602)">
    <path
       sodipodi:type="inkscape:offset"
       inkscape:radius="0"
       inkscape:original="M 142.8418 95.685547 L 168.86328 211.27539 L 211.43359 201.69336 L 239.99414 104.78125 L 142.8418 95.685547 z M 57.341797 102.68164 L 23.699219 216.28906 L 121.24219 213.66602 L 99.181641 115.07227 L 57.341797 102.68164 z M 235.59961 264.21094 L 196.14258 265.32617 L 120.30078 267.46875 L 44.458984 269.61328 L 5 270.72852 L 22.396484 383.6543 L 25.375 488.99805 L 5 595 L 53.617188 593.625 L 129.45898 591.48242 L 205.30078 589.33789 L 253.91602 587.96484 L 227.58789 483.28125 L 224.60938 377.93945 L 235.59961 264.21094 z "
       xlink:href="#path5194"
       style="fill:none;stroke:#000000;stroke-width:0.30000001;stroke-linecap:butt;stroke-linejoin:bevel;stroke-dasharray:none;stroke-dashoffset:0;stroke-opacity:1"
       id="path5391"
       inkscape:href="#path5194"
       d="m 142.8418,95.685547 26.02148,115.589843 42.57031,-9.58203 28.56055,-96.91211 z M 57.341797,102.68164 23.699219,216.28906 121.24219,213.66602 99.181641,115.07227 Z m 178.257813,161.5293 -39.45703,1.11523 -75.8418,2.14258 -75.841796,2.14453 L 5,270.72852 22.396484,383.6543 25.375,488.99805 5,595 l 48.617188,-1.375 75.841792,-2.14258 75.8418,-2.14453 48.61524,-1.37305 -26.32813,-104.68359 -2.97851,-105.3418 z" />
    <path
       sodipodi:type="inkscape:offset"
       inkscape:radius="9.580492"
       inkscape:original="M 142.8418 95.685547 L 168.86328 211.27539 L 211.43359 201.69336 L 239.99414 104.78125 L 142.8418 95.685547 z M 57.341797 102.68164 L 23.699219 216.28906 L 121.24219 213.66602 L 99.181641 115.07227 L 57.341797 102.68164 z M 235.59961 264.21094 L 196.14258 265.32617 L 120.30078 267.46875 L 44.458984 269.61328 L 5 270.72852 L 22.396484 383.6543 L 25.375 488.99805 L 5 595 L 53.617188 593.625 L 129.45898 591.48242 L 205.30078 589.33789 L 253.91602 587.96484 L 227.58789 483.28125 L 224.60938 377.93945 L 235.59961 264.21094 z "
       xlink:href="#path5194"
       style="fill:none;stroke:#000000;stroke-width:0.30000001;stroke-linecap:butt;stroke-linejoin:bevel;stroke-dasharray:none;stroke-dashoffset:0;stroke-opacity:1"
       id="path5393"
       inkscape:href="#path5194"
       d="m 142.77734,86.105469 a 9.5814501,9.5814501 0 0 0 -9.28125,11.683593 l 26.02149,115.589848 a 9.5814501,9.5814501 0 0 0 11.44922,7.24218 l 42.57031,-9.58203 a 9.5814501,9.5814501 0 0 0 7.08594,-6.63672 l 28.56054,-96.91211 a 9.5814501,9.5814501 0 0 0 -8.29687,-12.248042 l -97.15234,-9.095704 a 9.5814501,9.5814501 0 0 0 -0.95704,-0.04102 z M 57.226562,93.101562 A 9.5814501,9.5814501 0 0 0 48.15625,99.960938 L 14.513672,213.56836 a 9.5814501,9.5814501 0 0 0 9.443359,12.29687 L 121.5,223.24219 a 9.5814501,9.5814501 0 0 0 9.0918,-11.66797 l -22.06055,-98.59375 a 9.5814501,9.5814501 0 0 0 -6.62891,-7.09375 L 60.0625,93.496094 A 9.5814501,9.5814501 0 0 0 57.226562,93.101562 Z M 235.32812,254.63477 195.87109,255.75 120.0293,257.89258 44.1875,260.03711 4.7285156,261.15234 A 9.5814501,9.5814501 0 0 0 -4.46875,272.1875 L 12.835938,384.52148 15.769531,488.2207 -4.4082031,593.19141 a 9.5814501,9.5814501 0 0 0 9.6796875,11.38476 l 48.6171876,-1.375 75.841798,-2.14258 75.8418,-2.14453 48.61328,-1.37304 a 9.5814501,9.5814501 0 0 0 9.02148,-11.91211 L 237.13477,481.96094 234.20312,378.26562 245.13477,265.13281 a 9.5814501,9.5814501 0 0 0 -9.80665,-10.49804 z" />
    <path
       id="path5194"
       style="fill:none;stroke:#000000;stroke-width:0.30000001;stroke-linecap:butt;stroke-linejoin:bevel;stroke-dasharray:none;stroke-dashoffset:0;stroke-opacity:1"
       d="m 44.45864,269.61305 75.84164,-2.14362 75.84162,-2.14362 39.45865,-1.11529 -10.99062,113.72855 2.97746,105.34274 26.32927,104.68268 -48.61668,1.37416 -75.84163,2.14363 -75.84165,2.14364 -48.616685,1.3741 L 25.374365,488.99725 22.396912,383.6545 5,270.72834 Z M 23.699447,216.28834 57.341972,102.68118 99.182514,115.07143 121.24152,213.66566 Z M 239.99379,104.78147 211.43395,201.69255 168.86274,211.27599 142.84139,95.68491 Z"
       inkscape:connector-curvature="0" />
  </g>
</svg>
