<?xml version="1.0" encoding="UTF-8" standalone="no"?>
<svg
   xmlns:dc="http://purl.org/dc/elements/1.1/"
   xmlns:cc="http://creativecommons.org/ns#"
   xmlns:rdf="http://www.w3.org/1999/02/22-rdf-syntax-ns#"
   xmlns:svg="http://www.w3.org/2000/svg"
   xmlns="http://www.w3.org/2000/svg"
   xmlns:sodipodi="http://sodipodi.sourceforge.net/DTD/sodipodi-0.dtd"
   xmlns:inkscape="http://www.inkscape.org/namespaces/inkscape"
   version="1.1"
   width="300.00mm"
   height="600.00mm"
   viewBox="0 0 300.00 600.00"
   id="svg23498"
   sodipodi:docname="frontseat_edgesupport_slice2.svg"
   inkscape:version="0.92.2 (5c3e80d, 2017-08-06)">
  <metadata
     id="metadata288">
    <rdf:RDF>
      <cc:Work
         rdf:about="">
        <dc:format>image/svg+xml</dc:format>
        <dc:type
           rdf:resource="http://purl.org/dc/dcmitype/StillImage" />
      </cc:Work>
    </rdf:RDF>
  </metadata>
  <defs
     id="defs23502" />
  <sodipodi:namedview
     id="namedview23500"
     pagecolor="#ffffff"
     bordercolor="#666666"
     borderopacity="1.0"
     inkscape:pageshadow="2"
     inkscape:pageopacity="0.0"
     inkscape:pagecheckerboard="0"
     inkscape:document-units="mm"
     showgrid="false"
     inkscape:zoom="0.17528646"
     inkscape:cx="362.06154"
     inkscape:cy="620.24079"
     inkscape:window-width="1920"
     inkscape:window-height="1017"
     inkscape:window-x="-8"
     inkscape:window-y="209"
     inkscape:window-maximized="1"
     inkscape:current-layer="svg23498" />
  <style
     type="text/css"
     id="style23098">
    path {
        fill: none;
        stroke-linecap: butt;
        stroke-linejoin: bevel;
        stroke-dasharray: none;
    }
    path.outer {
        stroke: #000000;
        stroke-dasharray: none;
        stroke-dashoffset: 0;
        stroke-width: 0.3;
        stroke-opacity: 1.0;
    }
    path.convex {
        stroke: #000000;
        stroke-dasharray: 0.50,1.00;
        stroke-dashoffset:0;
        stroke-width:0.2;
        stroke-opacity: 1.0
    }
    path.concave {
        stroke: #000000;
        stroke-dasharray: 1.00,0.50,0.20,0.50;
        stroke-dashoffset: 0;
        stroke-width: 0.2;
        stroke-opacity: 1.0
    }
    path.freestyle {
        stroke: #000000;
        stroke-dasharray: none;
        stroke-dashoffset: 0;
        stroke-width: 0.2;
        stroke-opacity: 1.0
    }
    path.outer_background {
        stroke: #ffffff;
        stroke-opacity: 1.0;
        stroke-width: 0.5
    }
    path.inner_background {
        stroke: #ffffff;
        stroke-opacity: 1.0;
        stroke-width: 0.2
    }
    path.sticker {
        fill: #e5e5e5;
        stroke: none;
        fill-opacity: 1.0;
    }
    path.arrow {
        fill: #000000;
    }
    text {
        font-style: normal;
        fill: #000000;
        fill-opacity: 1.0;
        stroke: none;
    }
    text, tspan {
        text-anchor:middle;
    }
    </style>
  <path
     style="fill:#e5e5e5;fill-opacity:1;stroke:#000000;stroke-linecap:butt;stroke-linejoin:bevel;stroke-dasharray:none;stroke-opacity:1;stroke-width:0.25"
     inkscape:connector-curvature="0"
     id="path23104"
     d="m 52.939068,425.11059 -5.838299,-7.82291 1.970256,-8.34194 7.306916,1.60507 z m 74.668052,-110.16435 -5.91758,-8.39021 12.85573,-14.42532 8.64289,5.33215 z m -70.774169,149.47713 -10.405674,-3.60167 -3.424016,-34.56913 9.935807,-1.14198 z m 42.448273,-136.26002 -4.086055,-9.12846 27.367121,-12.76976 5.04483,8.68111 z m -22.884738,29.83573 -7.839082,-6.21076 22.00974,-28.69494 8.71408,5.06997 z m -6.240343,6.51283 -3.207399,-3.17133 3.779494,-3.94452 5.668248,0.60302 z m 39.405317,75.30999 8.68502,4.95935 -22.499577,40.88025 -8.836521,-4.68411 z m 118.09065,-225.74438 -2.50438,-12.00117 10.18697,-10.97495 7.43616,6.68792 z m 1.33524,8.75552 8.68503,4.95935 -51.32119,93.24714 -8.83651,-4.6841 z m -186.249664,283.18168 -9.420471,-3.35843 13.994401,-41.2938 9.521335,3.06088 z m 25.19454,-132.50211 -4.4829,-1.18265 2.188997,-8.85932 4.517823,1.04127 z m 174.838634,-175.72329 8.68501,4.95935 -13.632,24.76847 -8.83652,-4.6841 z m -65.25618,118.56611 8.68502,4.95935 -23.02499,41.83487 -8.83651,-4.68412 z m -111.450326,202.49781 -4.959345,8.685 -23.051432,-12.68701 4.684109,-8.83651 z m 20.846028,-37.87585 8.685033,4.95932 -20.694558,37.60063 -8.836503,-4.6841 z m 45.302158,-82.31099 8.68501,4.95936 -22.49958,40.88025 -8.83651,-4.68411 z m 10.97562,-101.20354 -6.72047,-7.40675 59.53128,-55.74504 21.9245,-6.83031 z m 74.73531,-69.9821 -3.38413,-2.4498 4.16339,-5.94566 4.01285,1.55194 z m -161.545529,183.07005 -9.042684,-4.59242 11.003911,-35.27384 9.593058,2.82806 z m 166.337639,-189.91357 -3.24108,-2.51977 4.85899,-6.45668 3.31862,2.41673 z m -68.37738,137.82829 8.68501,4.95936 -21.97418,39.92562 -8.83649,-4.68411 z"
     class="sticker" />
  <path
     style="fill:#e5e5e5;fill-opacity:1;stroke:#000000;stroke-linecap:butt;stroke-linejoin:bevel;stroke-dasharray:none;stroke-opacity:1;stroke-width:0.25"
     inkscape:connector-curvature="0"
     id="path23104-2"
     d="m 105.56562,251.24315 8.85363,4.11061 7.76086,-3.63852 -3.0689,-6.82269 z m 92.51768,-95.66599 9.42512,4.07191 11.48352,-15.5399 -6.99071,-7.36624 z m -131.793772,99.91395 5.658343,9.44633 34.536869,-3.73539 -0.91912,-9.9589 z m 124.664182,-69.48013 9.77224,2.12793 6.88827,-29.4037 -9.53092,-3.15805 z m -24.51068,28.51505 7.68587,6.39938 23.5735,-27.42477 -6.74869,-7.48966 z m -5.09524,7.44294 3.7615,2.48916 3.08594,-4.50785 -1.7522,-5.42425 z m -81.788659,-23.12983 -6.634461,-7.48389 -35.399596,30.4022 6.396119,7.6886 z M 276.30047,36.978789 l 12.25968,-0.0091 8.65353,-12.220487 -8.07029,-5.907202 z m -8.84329,0.488013 -6.63446,-7.483912 -80.74587,69.346944 6.3961,7.688586 z M 28.471032,277.81327 l 5.218305,8.53192 37.54794,-22.16244 -4.947749,-8.69164 z m 124.523118,-51.82246 2.07653,4.14524 8.22242,-3.95867 -1.94531,-4.20841 z m 136.14924,-207.148765 -6.63446,-7.483889 -21.44786,18.420039 6.39611,7.688607 z m -102.67044,88.176375 -6.63446,-7.483886 -36.22623,31.112156 6.39613,7.68859 z m -175.349752,150.5955 -7.4838727,6.63445 17.1431147,19.96102 7.688592,-6.39612 z m 32.797995,-28.16787 -6.634437,-7.48391 -32.5596592,27.96319 6.3961012,7.68859 z m 71.275887,-61.21382 -6.63447,-7.48388 -35.399592,30.4022 6.396113,7.68859 z m 96.80415,-31.4893 8.62715,5.05934 42.35718,-69.694698 2.1907,-22.859084 z m 53.17503,-87.494442 3.09153,2.810039 4.96588,-5.293828 -2.34161,-3.609475 z m -146.06505,195.644062 6.34864,7.90919 32.26888,-18.00137 -4.73458,-8.80956 z m 151.78085,-201.737326 3.13068,2.655693 5.32345,-6.079416 -3.04572,-2.752712 z m -120.88367,95.180056 -6.63447,-7.48389 -34.57296,29.69226 6.39612,7.68858 z"
     class="sticker" />
  <path
     inkscape:connector-curvature="0"
     style="fill:#e5e5e5;fill-opacity:1;stroke:#000000;stroke-width:0.25;stroke-linecap:butt;stroke-linejoin:bevel;stroke-dasharray:none;stroke-opacity:1"
     id="path23272"
     d="m 203.34793,343.88521 -0.84705,-9.96531 36.61317,-3.69221 1.15965,9.9338 z m 36.92577,-3.72372 -9.62676,-2.71112 2.4653,-9.31206 20.10653,-36.87388 z m -69.20752,59.06842 -9.71825,-2.36226 6.49562,-28.6782 9.78767,2.05584 z m 95.60602,36.69264 9.9653,-0.84703 3.38918,33.60862 -9.93377,1.15964 z m 5.4034,53.58234 9.9653,-0.84704 3.81413,37.8223 -9.9338,1.15964 z m 3.84563,38.1349 10.23972,1.3496 3.35831,27.4452 -7.14773,23.91961 z m -95.6042,-36.67509 -9.96531,0.84705 -4.59388,-45.55478 9.93377,-1.15966 z m -2.68581,-120.71941 -7.04818,-7.09563 25.49731,-26.13518 7.26758,6.87073 z m 79.79192,-26.03998 9.9653,-0.84705 3.8141,37.82231 -9.93377,1.15964 z m -4.20437,-52.94088 11.77952,22.0111 2.18895,27.56295 -9.7641,3.36683 z m 8.05,91.07578 10.20077,2.67966 1.03932,10.30631 -9.2574,6.67514 z m -85.57716,62.7571 -9.9653,0.84707 -4.59391,-45.55483 9.93378,-1.15964 z m 16.84521,72.9577 -9.18014,3.96861 -12.0906,-26.80391 9.05095,-4.25501 z m 30.46192,20.69488 -5.74948,8.18342 -30.20204,-20.51833 5.4896,-8.35997 z m 36.9258,-3.72371 0.84704,9.9653 -36.6132,3.69218 -1.15964,-9.93377 z m 22.44699,45.32802 -27.06379,-32.1171 -4.27486,-8.63236 8.89166,-4.57856 z m -19.12007,-178.35288 9.9653,-0.84704 3.38921,33.60863 -9.93377,1.15964 z m 6.84145,67.84246 10.40375,4.69259 1.0393,10.30617 -9.46036,4.66235 z"
     class="sticker" />
</svg>
