<?xml version="1.0" encoding="UTF-8" standalone="no"?>
<svg
   xmlns:dc="http://purl.org/dc/elements/1.1/"
   xmlns:cc="http://creativecommons.org/ns#"
   xmlns:rdf="http://www.w3.org/1999/02/22-rdf-syntax-ns#"
   xmlns:svg="http://www.w3.org/2000/svg"
   xmlns="http://www.w3.org/2000/svg"
   xmlns:xlink="http://www.w3.org/1999/xlink"
   xmlns:sodipodi="http://sodipodi.sourceforge.net/DTD/sodipodi-0.dtd"
   xmlns:inkscape="http://www.inkscape.org/namespaces/inkscape"
   version="1.1"
   width="292.10mm"
   height="600.00mm"
   viewBox="0 0 292.10 600.00"
   id="svg334"
   sodipodi:docname="frontseat_back.blend_page7.svg"
   inkscape:version="0.92.3 (2405546, 2018-03-11)">
  <metadata
     id="metadata340">
    <rdf:RDF>
      <cc:Work
         rdf:about="">
        <dc:format>image/svg+xml</dc:format>
        <dc:type
           rdf:resource="http://purl.org/dc/dcmitype/StillImage" />
      </cc:Work>
    </rdf:RDF>
  </metadata>
  <defs
     id="defs338" />
  <sodipodi:namedview
     pagecolor="#ffffff"
     bordercolor="#666666"
     borderopacity="1"
     objecttolerance="10"
     gridtolerance="10"
     guidetolerance="10"
     inkscape:pageopacity="0"
     inkscape:pageshadow="2"
     inkscape:window-width="1853"
     inkscape:window-height="1025"
     id="namedview336"
     showgrid="false"
     inkscape:zoom="0.20813889"
     inkscape:cx="2755.3997"
     inkscape:cy="528.52947"
     inkscape:window-x="67"
     inkscape:window-y="27"
     inkscape:window-maximized="1"
     inkscape:current-layer="svg334"
     inkscape:measure-start="971.623,2088.48"
     inkscape:measure-end="1005.17,2102.92" />
  <style
     type="text/css"
     id="style328">
    path {
        fill: none;
        stroke-linecap: butt;
        stroke-linejoin: bevel;
        stroke-dasharray: none;
    }
    path.outer {
        stroke: #000000;
        stroke-dasharray: none;
        stroke-dashoffset: 0;
        stroke-width: 0.3;
        stroke-opacity: 1.0;
    }
    path.convex {
        stroke: #000000;
        stroke-dasharray: 0.50,1.00;
        stroke-dashoffset:0;
        stroke-width:0.2;
        stroke-opacity: 1.0
    }
    path.concave {
        stroke: #000000;
        stroke-dasharray: 1.00,0.50,0.20,0.50;
        stroke-dashoffset: 0;
        stroke-width: 0.2;
        stroke-opacity: 1.0
    }
    path.freestyle {
        stroke: #000000;
        stroke-dasharray: none;
        stroke-dashoffset: 0;
        stroke-width: 0.2;
        stroke-opacity: 1.0
    }
    path.outer_background {
        stroke: #ffffff;
        stroke-opacity: 1.0;
        stroke-width: 0.5
    }
    path.inner_background {
        stroke: #ffffff;
        stroke-opacity: 1.0;
        stroke-width: 0.2
    }
    path.sticker {
        fill: #e5e5e5;
        stroke: none;
        fill-opacity: 1.0;
    }
    path.arrow {
        fill: #000000;
    }
    text {
        font-style: normal;
        fill: #000000;
        fill-opacity: 1.0;
        stroke: none;
    }
    text, tspan {
        text-anchor:middle;
    }
    </style>
  <g
     id="g332"
     transform="translate(43.220339,-43.220339)" />
  <g
     id="g5298"
     transform="translate(21.535135,-78.640009)">
    <g
       id="g5294"
       transform="rotate(65.190766,96.52224,138.74187)">
      <path
         sodipodi:type="inkscape:offset"
         inkscape:radius="9.7293148"
         inkscape:original="M 139.41211 7.2714844 L 139.41211 31.470703 L 139.41211 63.246094 L 139.41211 92.964844 L 139.41211 139.06445 L 139.41211 185.16406 L 139.41211 214.88281 L 139.41211 246.6582 L 139.41211 270.85742 L 145.30859 270.85742 L 185.7168 270.85742 L 198.19336 270.85742 L 198.19336 246.6582 L 198.19336 214.88281 L 198.19336 185.16406 L 198.19336 139.06445 L 198.19336 92.964844 L 198.19336 63.246094 L 198.19336 31.470703 L 198.19336 7.2714844 L 185.7168 7.2714844 L 145.30859 7.2714844 L 139.41211 7.2714844 z M 301.11328 95.427734 L 289.83203 119.83398 L 280.6582 139.67773 L 251.12891 203.5625 L 219.29297 272.43164 L 322.20117 320.00195 L 417.86133 364.2207 L 513.51953 408.44141 L 545.35547 339.57031 L 574.88672 275.6875 L 584.05859 255.84375 L 595.3418 231.4375 L 499.68164 187.21875 L 404.02344 142.99805 L 301.11328 95.427734 z M 60.658203 103.96094 L 33.501953 163.29883 L 25.835938 180.04883 L 12.298828 209.63086 L 9.390625 215.98438 L 14.298828 218.23047 L 47.935547 233.625 L 62.851562 240.45117 L 65.699219 234.06836 L 79.236328 204.48828 L 86.927734 187.74805 L 114.10742 128.42188 L 102.76172 123.22852 L 66.017578 106.41406 L 60.658203 103.96094 z "
         xlink:href="#path5292"
         style="fill:none;stroke:#000000;stroke-width:0.30000001;stroke-linecap:butt;stroke-linejoin:bevel;stroke-dasharray:none;stroke-dashoffset:0;stroke-opacity:1"
         id="path768"
         inkscape:href="#path5292"
         d="m 139.41211,-2.4570312 a 9.7302877,9.7302877 0 0 0 -9.72852,9.7285156 v 24.1992186 31.775391 29.71875 46.099606 46.09961 29.71875 31.77539 24.19922 a 9.7302877,9.7302877 0 0 0 9.72852,9.72852 h 5.89648 40.40821 12.47656 a 9.7302877,9.7302877 0 0 0 9.72852,-9.72852 V 246.6582 214.88281 185.16406 139.06445 92.964844 63.246094 31.470703 7.2714844 a 9.7302877,9.7302877 0 0 0 -9.72852,-9.7285156 H 185.7168 145.30859 Z M 301.43359,85.703125 a 9.7302877,9.7302877 0 0 0 -9.15234,5.642578 L 281,115.75195 l -9.17383,19.84375 -29.52929,63.88477 -31.83594,68.86914 a 9.7302877,9.7302877 0 0 0 4.75,12.91406 l 102.9082,47.57031 95.66016,44.21875 95.6582,44.22071 a 9.7302877,9.7302877 0 0 0 12.91406,-4.75 l 31.83594,-68.8711 29.53125,-63.88281 9.17187,-19.84375 11.28321,-24.40625 a 9.7302877,9.7302877 0 0 0 -4.75,-12.91406 l -95.66016,-44.21875 -95.6582,-44.2207 -102.91016,-47.570317 a 9.7302877,9.7302877 0 0 0 -3.76172,-0.892578 z M 60.941406,94.236328 a 9.7302877,9.7302877 0 0 0 -9.130859,5.675781 L 24.654297,159.25 16.988281,176 3.4511719,205.58203 0.54492188,211.93555 a 9.7302877,9.7302877 0 0 0 4.79687502,12.89648 l 4.9082031,2.24609 33.636719,15.39454 14.916015,6.82617 a 9.7302877,9.7302877 0 0 0 12.933594,-4.88281 l 2.830078,-6.3418 13.513672,-29.53125 7.6875,-16.73242 a 9.7302877,9.7302877 0 0 0 0.0059,-0.01 l 27.179682,-59.32617 a 9.7302877,9.7302877 0 0 0 -4.79687,-12.89844 l -11.3457,-5.19336 a 9.7302877,9.7302877 0 0 0 0,-0.002 L 70.066406,97.566406 64.707031,95.115234 a 9.7302877,9.7302877 0 0 0 -3.765625,-0.878906 z" />
      <path
         id="path5292"
         style="fill:none;stroke:#000000;stroke-width:0.30000001;stroke-linecap:butt;stroke-linejoin:bevel;stroke-dasharray:none;stroke-dashoffset:0;stroke-opacity:1"
         d="M 139.41248,92.964764 V 63.245947 l -3e-5,-31.775414 2e-5,-24.198652 h 5.89551 40.40794 12.47793 l -3e-5,24.198652 3e-5,31.775355 v 29.718876 46.100016 l -1e-5,46.10002 -2e-5,29.71885 -3e-5,31.77533 v 24.19871 h -12.4779 -40.40794 -5.89551 l -2e-5,-24.19865 2e-5,-31.77542 1e-5,-29.71882 2e-5,-46.10002 z M 14.298533,218.23106 l -4.90774,-2.24597 2.908017,-6.3545 13.537309,-29.58081 7.665688,-16.75059 27.15544,-59.33819 5.360818,2.4533 36.743105,16.81505 11.34621,5.19247 -27.180198,59.32686 -7.690537,16.73929 -13.537305,29.58077 -2.846912,6.38246 -14.916273,-6.82629 z m 569.761017,37.61181 -9.17375,19.84541 -29.53052,63.88287 -31.83574,68.8697 -95.65886,-44.21931 -95.65885,-44.21931 -102.90942,-47.57096 31.83571,-68.86971 29.53052,-63.88287 9.17376,-19.84542 11.28167,-24.405434 102.90944,47.570964 95.65887,44.21932 95.65884,44.21932 z"
         inkscape:connector-curvature="0" />
    </g>
  </g>
</svg>
