<?xml version="1.0" encoding="UTF-8" standalone="no"?>
<svg
   version="1.1"
   width="300.00mm"
   height="600.00mm"
   viewBox="0 0 300.00 600.00"
   id="svg2793"
   sodipodi:docname="frontseat_back.blend_page13.svg"
   inkscape:version="1.1.1 (c3084ef, 2021-09-22)"
   xmlns:inkscape="http://www.inkscape.org/namespaces/inkscape"
   xmlns:sodipodi="http://sodipodi.sourceforge.net/DTD/sodipodi-0.dtd"
   xmlns="http://www.w3.org/2000/svg"
   xmlns:svg="http://www.w3.org/2000/svg">
  <defs
     id="defs2797" />
  <sodipodi:namedview
     id="namedview2795"
     pagecolor="#ffffff"
     bordercolor="#666666"
     borderopacity="1.0"
     inkscape:pageshadow="2"
     inkscape:pageopacity="0.0"
     inkscape:pagecheckerboard="0"
     inkscape:document-units="mm"
     showgrid="false"
     inkscape:zoom="0.34880903"
     inkscape:cx="566.21241"
     inkscape:cy="1133.8583"
     inkscape:window-width="1792"
     inkscape:window-height="975"
     inkscape:window-x="0"
     inkscape:window-y="25"
     inkscape:window-maximized="1"
     inkscape:current-layer="svg2793" />
  <style
     type="text/css"
     id="style2567">
    path {
        fill: none;
        stroke-linecap: butt;
        stroke-linejoin: bevel;
        stroke-dasharray: none;
    }
    path.outer {
        stroke: #000000;
        stroke-dasharray: none;
        stroke-dashoffset: 0;
        stroke-width: 0.3;
        stroke-opacity: 1.0;
    }
    path.convex {
        stroke: #000000;
        stroke-dasharray: 0.50,1.00;
        stroke-dashoffset:0;
        stroke-width:0.2;
        stroke-opacity: 1.0
    }
    path.concave {
        stroke: #000000;
        stroke-dasharray: 1.00,0.50,0.20,0.50;
        stroke-dashoffset: 0;
        stroke-width: 0.2;
        stroke-opacity: 1.0
    }
    path.freestyle {
        stroke: #000000;
        stroke-dasharray: none;
        stroke-dashoffset: 0;
        stroke-width: 0.2;
        stroke-opacity: 1.0
    }
    path.outer_background {
        stroke: #ffffff;
        stroke-opacity: 1.0;
        stroke-width: 0.5
    }
    path.inner_background {
        stroke: #ffffff;
        stroke-opacity: 1.0;
        stroke-width: 0.2
    }
    path.sticker {
        fill: #e5e5e5;
        stroke: none;
        fill-opacity: 1.0;
    }
    path.arrow {
        fill: #000000;
    }
    text {
        font-style: normal;
        fill: #000000;
        fill-opacity: 1.0;
        stroke: none;
    }
    text, tspan {
        text-anchor:middle;
    }
    </style>
  <g
     id="g2661">
    <text
       transform="translate(226.14376,138.78838)"
       style="font-size:10px"
       id="text2571"><tspan
         id="tspan2569">[9.] I 9</tspan></text>
    <path
       class="sticker"
       d="m 240.34156,379.23064 7.86211,-4.8005 9.69088,15.32501 -7.70745,5.04506 z m -47.62079,-44.61735 6.95184,-7.19002 47.39151,44.40251 -6.72256,7.40486 z m -18.65151,222.03075 -9.61205,-2.76281 17.03232,-62.96582 9.6941,2.45953 z m 13.91619,-159.94629 -13.25029,-7.88885 -10.27795,-30.18218 9.41556,-3.37225 z m 62.20165,-1.89754 8.24577,-5.6597 22.14599,31.20312 -7.23139,7.0889 z m -59.00347,98.57473 -9.81118,-1.94053 6.96118,-38.35054 9.86729,1.63141 z m 7.01729,-38.65966 -10.00119,0.031 -0.80631,-42.85762 9.99528,-0.34517 z m 64.40237,118.484 -1.99247,9.80075 -88.22521,-16.49749 1.68365,-9.8585 z m 15.29476,-104.01793 9.93225,1.1727 -4.02343,39.37966 -9.9642,-0.86013 z m -4.55058,-41.74882 9.95815,-0.9274 4.51651,41.43651 -9.92408,1.23971 z m -75.95877,-15.88902 -7.49673,4.58503 -9.25553,-14.61255 7.34901,-4.81824 z m 76.45397,97.33007 9.82374,1.87593 -11.18529,64.0162 -9.87783,-1.56643 z m -99.9699,-153.61911 -7.27863,-6.85904 18.63615,-20.40916 7.49048,6.62702 z"
       id="path2573" />
    <path
       class="outer"
       d="m 248.20367,374.43014 9.69088,15.32501 -7.70745,5.04506 8.24577,-5.6597 22.14599,31.20312 -7.23139,7.0889 9.95815,-0.9274 4.51651,41.43651 -9.92408,1.23971 9.93225,1.1727 -4.02343,39.37966 -9.9642,-0.86013 9.82374,1.87593 -11.18529,64.0162 -9.87783,-1.56643 -1.99247,9.80075 -88.22521,-16.49749 1.68365,-9.8585 -9.61205,-2.76281 17.03232,-62.96582 9.6941,2.45953 -9.81118,-1.94053 6.96118,-38.35054 9.86729,1.63141 -10.00119,0.031 -0.80631,-42.85762 9.99528,-0.34517 -7.49673,4.58503 -9.25553,-14.61255 7.34901,-4.81824 -13.25029,-7.88885 -10.27795,-30.18218 9.41556,-3.37225 -7.27863,-6.85904 18.63615,-20.40916 7.49048,6.62702 6.95184,-7.19002 47.39151,44.40251 -6.72256,7.40486 z"
       id="path2575" />
    <text
       transform="rotate(43.135004,-340.94667,453.26219)"
       style="font-size:9px"
       id="text2579"><tspan
         id="tspan2577">1:11</tspan></text>
    <g
       id="g2587">
      <path
         transform="matrix(2.611167,-9.653071,9.653071,2.611167,182.62643,525.00949)"
         class="arrow"
         d="M 0,0 1,1 0,0.25 -1,1 Z"
         id="path2581" />
      <text
         transform="translate(191.31419,531.35954)"
         style="font-size:10px"
         id="text2585"><tspan
           id="tspan2583">1</tspan></text>
    </g>
    <text
       transform="rotate(-74.863646,433.08446,144.10945)"
       style="font-size:9px"
       id="text2591"><tspan
         id="tspan2589">8:1</tspan></text>
    <g
       id="g2599">
      <path
         transform="matrix(-3.223526,-9.466196,9.466196,-3.223526,180.9291,375.97611)"
         class="arrow"
         d="M 0,0 1,1 0,0.25 -1,1 Z"
         id="path2593" />
      <text
         transform="translate(189.44869,377.07494)"
         style="font-size:10px"
         id="text2597"><tspan
           id="tspan2595">2</tspan></text>
    </g>
    <text
       transform="rotate(-108.80528,224.3934,124.12804)"
       style="font-size:9px"
       id="text2603"><tspan
         id="tspan2601">20:2</tspan></text>
    <text
       transform="rotate(54.635276,-265.33489,459.84934)"
       style="font-size:9px"
       id="text2607"><tspan
         id="tspan2605">1:12</tspan></text>
    <g
       id="g2615">
      <path
         transform="matrix(-9.829623,-1.83807,1.83807,-9.829623,218.33629,564.92166)"
         class="arrow"
         d="M 0,0 1,1 0,0.25 -1,1 Z"
         id="path2609" />
      <text
         transform="translate(219.99054,560.075)"
         style="font-size:10px"
         id="text2613"><tspan
           id="tspan2611">3</tspan></text>
    </g>
    <text
       transform="rotate(-169.40841,135.26692,273.24174)"
       style="font-size:9px"
       id="text2619"><tspan
         id="tspan2617">15:3</tspan></text>
    <text
       transform="rotate(83.779387,-111.09873,378.70239)"
       style="font-size:9px"
       id="text2623"><tspan
         id="tspan2621">4:6.</tspan></text>
    <g
       id="g2631">
      <path
         transform="matrix(-5.350897,-8.447951,8.447951,-5.350897,192.68707,404.12065)"
         class="arrow"
         d="M 0,0 1,1 0,0.25 -1,1 Z"
         id="path2625" />
      <text
         transform="translate(200.29024,403.30484)"
         style="font-size:10px"
         id="text2629"><tspan
           id="tspan2627">4</tspan></text>
    </g>
    <text
       transform="rotate(-122.35002,207.10675,149.83108)"
       style="font-size:7.91px"
       id="text2635"><tspan
         id="tspan2633">8:4</tspan></text>
    <g
       id="g2643">
      <path
         transform="matrix(-1.721186,9.850762,-9.850762,-1.721186,268.22299,541.03643)"
         class="arrow"
         d="M 0,0 1,1 0,0.25 -1,1 Z"
         id="path2637" />
      <text
         transform="translate(259.35731,543.48736)"
         style="font-size:10px"
         id="text2641"><tspan
           id="tspan2639">5</tspan></text>
    </g>
    <text
       transform="rotate(99.911047,-92.481912,384.12868)"
       style="font-size:9px"
       id="text2647"><tspan
         id="tspan2645">4:5</tspan></text>
    <g
       id="g2655">
      <path
         transform="matrix(6.743028,-7.384548,7.384548,6.743028,183.29677,344.93389)"
         class="arrow"
         d="M 0,0 1,1 0,0.25 -1,1 Z"
         id="path2649" />
      <text
         transform="translate(189.94287,355.00261)"
         style="font-size:10px"
         id="text2653"><tspan
           id="tspan2651">6.</tspan></text>
    </g>
    <text
       transform="rotate(-47.599961,480.64303,-34.428054)"
       style="font-size:9px"
       id="text2659"><tspan
         id="tspan2657">11:6.</tspan></text>
  </g>
  <text
     style="font-size:10px"
     id="text2665"
     x="83.970062"
     y="364.09198"><tspan
       id="tspan2663">[16] I 16</tspan></text>
  <path
     class="sticker"
     d="m 38.954233,423.64516 -9.847343,-1.74772 12.033686,-74.59331 9.897381,1.43755 z m 108.237627,-59.39157 9.84734,1.74773 -12.03367,74.59332 -9.89738,-1.43756 z m -92.245626,-39.73792 -9.847343,-1.7477 8.064732,-49.99176 9.897366,1.43755 z m 99.991666,-8.27739 9.51931,3.78111 -7.36797,45.67176 -9.89738,-1.43756 z m -103.899943,32.5034 -9.847328,-1.74775 3.858238,-23.91584 9.897367,1.43758 z m 12.023032,-74.52792 4.302397,-9.02853 91.591174,41.89384 -4.01666,9.15921 z m -36.190451,224.33489 -9.847328,-1.74773 12.033642,-74.5933 9.897381,1.43754 z m 108.237612,-59.39157 9.84734,1.74774 -12.03367,74.59331 -9.89739,-1.43755 z M 14.847343,573.07659 5,571.32881 l 8.064985,-49.99169 9.897366,1.43757 z m 108.177087,-59.01601 9.84735,1.74772 -7.36792,45.67176 -10.2254,0.5958 z m -100.062079,8.71411 -9.847343,-1.74771 3.858149,-23.91586 9.897381,1.43753 z m 92.316109,39.30117 0.93268,9.95766 -100.118805,10.96651 -1.244992,-9.92344 z"
     id="path2667" />
  <path
     class="outer"
     d="m 164.45721,320.01939 -7.36797,45.67176 -9.89738,-1.43756 9.84734,1.74773 -12.03367,74.59332 -9.89738,-1.43756 9.84734,1.74774 -12.03367,74.59331 -9.89739,-1.43755 9.84735,1.74772 -7.36792,45.67176 -10.2254,0.5958 0.93268,9.95766 L 16.092335,583.00003 14.847343,573.07659 5,571.32881 l 8.064985,-49.99169 9.897366,1.43757 -9.847343,-1.74771 3.858149,-23.91586 9.897381,1.43753 -9.847328,-1.74773 12.033642,-74.5933 9.897381,1.43754 -9.847343,-1.74772 12.033686,-74.59331 9.897381,1.43755 -9.847328,-1.74775 3.858238,-23.91584 9.897367,1.43758 -9.847343,-1.7477 8.064732,-49.99176 9.897366,1.43755 4.302397,-9.02853 91.591174,41.89384 -4.01666,9.15921 z"
     id="path2669" />
  <text
     transform="rotate(-80.835934)"
     style="font-size:9px"
     id="text2673"
     x="-286.14676"
     y="104.12791"><tspan
       id="tspan2671">13:1</tspan></text>
  <text
     transform="rotate(99.164236)"
     style="font-size:9px"
     id="text2677"
     x="311.84366"
     y="-205.1259"><tspan
       id="tspan2675">12:2</tspan></text>
  <text
     transform="rotate(24.579401)"
     style="font-size:9px"
     id="text2681"
     x="221.92274"
     y="221.33569"><tspan
       id="tspan2679">14:3</tspan></text>
  <text
     transform="rotate(-80.835651)"
     style="font-size:9px"
     id="text2685"
     x="-537.92059"
     y="104.13009"><tspan
       id="tspan2683">13:4</tspan></text>
  <text
     transform="rotate(99.164179)"
     style="font-size:9px"
     id="text2689"
     x="512.22382"
     y="-205.1255"><tspan
       id="tspan2687">12:4</tspan></text>
  <text
     transform="rotate(173.74901)"
     style="font-size:9px"
     id="text2693"
     x="-2.8760626"
     y="-573.08612"><tspan
       id="tspan2691">15:3</tspan></text>
  <g
     id="g2789">
    <text
       transform="translate(226.1436,406.36486)"
       style="font-size:10px"
       id="text2699"><tspan
         id="tspan2697">[10] I 10</tspan></text>
    <path
       class="sticker"
       d="m 250.18689,248.04639 7.70745,5.04506 -9.69082,15.32495 -7.86212,-4.80044 z m -9.84549,15.56957 6.72257,7.40486 -47.39137,44.40243 -6.95185,-7.19002 z m -49.15783,-114.14403 -9.69408,2.45953 -17.03228,-62.965572 9.61205,-2.762794 z m -17.3108,138.12006 -9.41556,-3.37222 10.27795,-30.1821 13.25029,-7.88882 z m 99.47443,-72.17783 7.23139,7.0889 -22.14593,31.20303 -8.24577,-5.6597 z m -75.14631,-27.28259 -9.86729,1.6314 -6.96119,-38.35049 9.81116,-1.94055 z m -0.81224,43.17161 -9.99528,-0.3452 0.80633,-42.85747 10.00119,0.0311 z m -23.31939,-145.100086 -1.68365,-9.858489 88.22491,-16.497553 1.99247,9.800732 z m 99.77308,47.770236 9.9642,-0.86013 4.02346,39.3796 -9.93225,1.17269 z m 4.05541,39.69216 9.92408,1.23975 -4.51648,41.43631 -9.95815,-0.92739 z m -89.9123,72.48336 -7.34898,-4.81823 9.25548,-14.61244 7.4967,4.585 z m 74.61754,-176.501066 9.8778,-1.56641 11.18529,64.016016 -9.82374,1.87594 z m -69.88224,238.585446 -7.49048,6.62699 -18.63612,-20.4092 7.27862,-6.85903 z"
       id="path2701" />
    <path
       class="outer"
       d="m 164.45721,284.21977 10.27795,-30.1821 13.25029,-7.88882 -7.34898,-4.81823 9.25548,-14.61244 7.4967,4.585 -9.99528,-0.3452 0.80633,-42.85747 10.00119,0.0311 -9.86729,1.6314 -6.96119,-38.35049 9.81116,-1.94055 -9.69408,2.45953 -17.03228,-62.965572 9.61205,-2.762794 -1.68365,-9.858489 88.22491,-16.497553 1.99247,9.800732 9.8778,-1.56641 11.18529,64.016016 -9.82374,1.87594 9.9642,-0.86013 4.02346,39.3796 -9.93225,1.17269 9.92408,1.23975 -4.51648,41.43631 -9.95815,-0.92739 7.23139,7.0889 -22.14593,31.20303 -8.24577,-5.6597 7.70745,5.04506 -9.69082,15.32495 -7.86212,-4.80044 6.72257,7.40486 -47.39137,44.40243 -6.95185,-7.19002 -7.49048,6.62699 -18.63612,-20.4092 7.27862,-6.85903 z"
       id="path2703" />
    <text
       transform="rotate(136.86496,52.112253,186.6567)"
       style="font-size:9px"
       id="text2707"><tspan
         id="tspan2705">1:5</tspan></text>
    <g
       id="g2715">
      <path
         transform="matrix(-2.611169,-9.653071,9.653071,-2.611169,182.62642,117.83751)"
         class="arrow"
         d="M 0,0 1,1 0,0.25 -1,1 Z"
         id="path2709" />
      <text
         transform="translate(191.31418,119.48746)"
         style="font-size:10px"
         id="text2713"><tspan
           id="tspan2711">1</tspan></text>
    </g>
    <text
       transform="rotate(-105.13635,135.72299,-10.075853)"
       style="font-size:9px"
       id="text2719"><tspan
         id="tspan2717">8:1</tspan></text>
    <g
       id="g2727">
      <path
         transform="matrix(3.223531,-9.466194,9.466194,3.223531,180.92911,266.87043)"
         class="arrow"
         d="M 0,0 1,1 0,0.25 -1,1 Z"
         id="path2721" />
      <text
         transform="translate(189.44869,273.77161)"
         style="font-size:10px"
         id="text2725"><tspan
           id="tspan2723">2</tspan></text>
    </g>
    <text
       transform="rotate(-71.194724,275.60573,7.963277)"
       style="font-size:9px"
       id="text2731"><tspan
         id="tspan2729">20:2</tspan></text>
    <text
       transform="rotate(125.36472,71.500795,184.37022)"
       style="font-size:9px"
       id="text2735"><tspan
         id="tspan2733">1:6.</tspan></text>
    <g
       id="g2743">
      <path
         transform="matrix(9.829622,-1.838077,1.838077,9.829622,218.33612,77.925439)"
         class="arrow"
         d="M 0,0 1,1 0,0.25 -1,1 Z"
         id="path2737" />
      <text
         transform="translate(219.99039,90.772088)"
         style="font-size:10px"
         id="text2741"><tspan
           id="tspan2739">3</tspan></text>
    </g>
    <text
       transform="rotate(-10.591646,519.79839,-1137.8664)"
       style="font-size:9px"
       id="text2747"><tspan
         id="tspan2745">14:3</tspan></text>
    <text
       transform="rotate(96.220613,51.374755,221.77613)"
       style="font-size:9px"
       id="text2751"><tspan
         id="tspan2749">5:6.</tspan></text>
    <g
       id="g2759">
      <path
         transform="matrix(5.350902,-8.447948,8.447948,5.350902,192.68704,238.72601)"
         class="arrow"
         d="M 0,0 1,1 0,0.25 -1,1 Z"
         id="path2753" />
      <text
         transform="translate(200.29019,247.54184)"
         style="font-size:10px"
         id="text2757"><tspan
           id="tspan2755">4</tspan></text>
    </g>
    <text
       transform="rotate(-57.649983,311.80292,-54.913493)"
       style="font-size:7.91px"
       id="text2763"><tspan
         id="tspan2761">8:4</tspan></text>
    <g
       id="g2771">
      <path
         transform="matrix(1.721186,9.850763,-9.850763,1.721186,268.22269,101.81057)"
         class="arrow"
         d="M 0,0 1,1 0,0.25 -1,1 Z"
         id="path2765" />
      <text
         transform="translate(259.35698,107.35964)"
         style="font-size:10px"
         id="text2769"><tspan
           id="tspan2767">5</tspan></text>
    </g>
    <text
       transform="rotate(80.088953,74.611254,211.38123)"
       style="font-size:9px"
       id="text2775"><tspan
         id="tspan2773">5:5</tspan></text>
    <g
       id="g2783">
      <path
         transform="matrix(-6.743016,-7.384561,7.384561,-6.743016,183.29677,297.91259)"
         class="arrow"
         d="M 0,0 1,1 0,0.25 -1,1 Z"
         id="path2777" />
      <text
         transform="translate(189.94287,295.84389)"
         style="font-size:10px"
         id="text2781"><tspan
           id="tspan2779">6.</tspan></text>
    </g>
    <text
       transform="rotate(-132.39996,156.94905,109.43449)"
       style="font-size:9px"
       id="text2787"><tspan
         id="tspan2785">11:6.</tspan></text>
  </g>
</svg>
