<?xml version="1.0" encoding="UTF-8" standalone="no"?>
<svg
   xmlns:dc="http://purl.org/dc/elements/1.1/"
   xmlns:cc="http://creativecommons.org/ns#"
   xmlns:rdf="http://www.w3.org/1999/02/22-rdf-syntax-ns#"
   xmlns:svg="http://www.w3.org/2000/svg"
   xmlns="http://www.w3.org/2000/svg"
   viewBox="0 0 82.956963 83.199997"
   height="83.199997"
   width="82.956963"
   id="svg78"
   version="1.1">
  <metadata
     id="metadata84">
    <rdf:RDF>
      <cc:Work
         rdf:about="">
        <dc:format>image/svg+xml</dc:format>
        <dc:type
           rdf:resource="http://purl.org/dc/dcmitype/StillImage" />
        <dc:title></dc:title>
      </cc:Work>
    </rdf:RDF>
  </metadata>
  <defs
     id="defs82" />
  <path
     id="path88"
     d="M 0,41.599998 V 0 H 41.478481 82.956963 V 41.599998 83.199997 H 41.478481 0 Z m 68.169326,36.799999 c 0.38371,-0.367595 0.741825,-0.710546 0.79581,-0.762113 0.05399,-0.05157 0.635182,-0.634858 1.291548,-1.296202 0.656365,-0.661344 1.239656,-1.24413 1.296202,-1.29508 0.05655,-0.05095 0.625988,-0.625127 1.265426,-1.275949 0.639439,-0.650823 1.195388,-1.183314 1.235443,-1.183314 0.04006,0 0.07283,-0.02895 0.07283,-0.06434 0,-0.05088 0.948681,-1.015669 2.537974,-2.581074 0.05222,-0.05143 0.614151,-0.6216 1.248745,-1.267043 0.634594,-0.645442 1.208771,-1.194623 1.275949,-1.220401 0.06718,-0.02578 0.122142,-0.100631 0.122142,-0.166338 0,-0.06571 0.06563,-0.167105 0.145843,-0.225328 0.08021,-0.05822 0.207808,-0.195996 0.283544,-0.306164 0.128887,-0.187481 0.137702,-1.852815 0.137702,-26.014616 V 14.927726 L 79.169621,14.171145 C 78.779748,13.755025 78.047404,13.011983 77.542191,12.51994 77.036978,12.027897 76.453687,11.445799 76.245989,11.22639 76.03829,11.006981 75.471916,10.441918 74.987379,9.9706941 74.502842,9.4994702 73.992463,8.9905155 73.853202,8.8396837 73.504223,8.4617078 69.404067,4.3684495 68.304706,3.3005229 L 67.407422,2.4288941 41.541686,2.44989 15.67595,2.470886 9.4987343,8.6609139 3.321519,14.850941 v 25.93873 25.93873 l 0.3037975,0.293396 c 0.1670886,0.161368 2.9286076,2.934196 6.1367089,6.16184 l 5.8329116,5.868444 25.938367,0.0081 25.938368,0.0081 z M 39.250633,73.393309 c -1.432913,-0.0919 -2.52803,-0.23213 -3.726582,-0.477174 -0.222785,-0.04555 -0.787848,-0.153549 -1.255696,-0.240002 -0.467848,-0.08645 -1.032912,-0.228874 -1.255696,-0.31649 -0.222785,-0.08762 -0.618456,-0.203192 -0.879268,-0.256832 -0.260813,-0.05364 -0.775966,-0.219181 -1.144784,-0.367868 -0.368818,-0.148688 -0.829857,-0.312672 -1.024529,-0.36441 -0.194674,-0.05174 -0.609141,-0.213416 -0.92104,-0.359284 -0.311898,-0.145867 -0.758052,-0.327632 -0.991452,-0.403921 -0.2334,-0.07629 -0.447036,-0.175391 -0.474747,-0.220229 -0.02771,-0.04484 -0.201305,-0.152993 -0.385764,-0.240343 -0.184458,-0.08735 -0.517657,-0.265761 -0.740442,-0.396467 -0.222785,-0.130705 -0.451809,-0.238497 -0.508942,-0.239538 -0.129938,-0.0024 -1.23283,-0.723717 -1.23283,-0.806336 0,-0.03338 -0.08918,-0.101323 -0.198182,-0.150986 -0.109001,-0.04966 -0.336849,-0.21473 -0.506329,-0.366812 -0.169481,-0.152083 -0.399286,-0.304102 -0.510679,-0.337821 -0.111392,-0.03372 -0.267749,-0.129695 -0.34746,-0.213281 -0.07971,-0.08358 -0.197876,-0.151973 -0.262589,-0.151973 -0.06471,0 -0.279567,-0.118481 -0.47745,-0.263291 -0.197883,-0.14481 -0.535414,-0.371457 -0.750068,-0.503659 -0.42626,-0.262527 -0.588226,-0.39897 -1.373536,-1.157101 -0.288464,-0.278481 -0.551348,-0.506329 -0.584184,-0.506329 -0.07807,0 -1.50079,-1.406112 -2.301838,-2.274967 -1.243424,-1.348675 -1.785991,-2.026617 -1.965205,-2.455538 -0.06644,-0.159004 -0.210321,-0.347759 -0.319743,-0.419455 -0.109423,-0.0717 -0.222742,-0.205314 -0.251819,-0.296929 -0.02908,-0.09161 -0.189871,-0.3162 -0.357322,-0.499082 -0.347735,-0.379777 -0.742641,-0.989606 -1.130427,-1.745646 -0.147259,-0.287098 -0.316605,-0.57086 -0.376327,-0.630581 -0.05972,-0.05972 -0.14286,-0.232724 -0.184753,-0.384449 -0.04189,-0.151725 -0.172605,-0.402296 -0.290469,-0.556823 -0.117865,-0.154529 -0.235361,-0.410751 -0.261103,-0.569382 -0.02908,-0.179212 -0.119642,-0.336146 -0.239168,-0.414462 -0.105799,-0.06932 -0.192362,-0.195328 -0.192362,-0.280012 0,-0.08469 -0.180122,-0.566883 -0.40027,-1.071551 -0.220149,-0.504668 -0.440746,-1.098366 -0.490216,-1.319328 -0.04947,-0.220963 -0.125127,-0.444143 -0.168127,-0.495955 -0.115315,-0.138946 -0.480627,-1.218113 -0.480627,-1.419818 0,-0.09555 -0.10786,-0.506364 -0.239688,-0.912914 C 9.9170926,48.899719 9.7701761,48.330125 9.7224394,48.040505 9.6747035,47.750884 9.5856236,47.386327 9.5244842,47.230378 9.4633455,47.074429 9.3691189,46.491138 9.3150916,45.934176 9.2610642,45.377214 9.1702855,44.775695 9.1133603,44.597467 8.9764708,44.168878 8.7942571,40.985756 8.8536621,40.060758 c 0.1247311,-1.942197 0.2328644,-3.066506 0.3810843,-3.96229 0.089138,-0.538716 0.1622165,-1.126307 0.1623956,-1.30576 1.62e-4,-0.179453 0.054493,-0.403612 0.1206975,-0.498132 0.066204,-0.09452 0.1609349,-0.439846 0.210513,-0.767393 0.049577,-0.327546 0.1815972,-0.868956 0.2933765,-1.203134 0.111781,-0.334177 0.230745,-0.753417 0.264365,-0.931645 0.099,-0.524794 0.399432,-1.421918 0.651124,-1.944304 0.128808,-0.267342 0.27692,-0.668354 0.329139,-0.891139 0.05222,-0.222785 0.218144,-0.634166 0.368723,-0.914181 0.150579,-0.280015 0.273781,-0.581015 0.273781,-0.668891 0,-0.08787 0.09114,-0.239016 0.202532,-0.335871 0.111392,-0.09685 0.204282,-0.233322 0.206422,-0.303262 0.0021,-0.06994 0.07338,-0.254757 0.158313,-0.410706 0.08493,-0.15595 0.230657,-0.447595 0.323833,-0.648102 0.09318,-0.200506 0.219312,-0.402742 0.280299,-0.449412 0.06099,-0.04667 0.255871,-0.393 0.433074,-0.769621 0.177204,-0.37662 0.402554,-0.775903 0.500778,-0.887296 0.09822,-0.111392 0.273541,-0.366582 0.389593,-0.567088 0.116053,-0.200506 0.253611,-0.391035 0.305684,-0.423397 0.05207,-0.03236 0.138199,-0.163902 0.191388,-0.292311 0.05319,-0.128409 0.203792,-0.312643 0.334674,-0.409409 0.130882,-0.09677 0.237967,-0.226924 0.237967,-0.289243 0,-0.06232 0.04563,-0.161481 0.101408,-0.22036 0.05578,-0.05888 0.206081,-0.267982 0.334015,-0.464675 0.17523,-0.269411 1.512794,-1.797498 2.221244,-2.537638 0.431843,-0.451162 1.951745,-1.865518 2.315228,-2.154455 0.26163,-0.207972 0.699099,-0.573582 0.972152,-0.812465 0.428898,-0.375226 1.066515,-0.816769 3.007852,-2.082904 0.563649,-0.367611 2.011547,-1.138361 2.34555,-1.248592 0.152481,-0.05032 0.36154,-0.156498 0.464578,-0.235944 0.103037,-0.07945 0.307433,-0.185403 0.454214,-0.23546 0.146781,-0.05006 0.365515,-0.160477 0.486076,-0.245376 0.120561,-0.0849 0.310341,-0.182289 0.421734,-0.216421 0.111392,-0.03413 0.377029,-0.152801 0.590306,-0.263707 0.213275,-0.110906 0.632516,-0.268706 0.931645,-0.350666 0.299129,-0.08196 0.894766,-0.2725623 1.323637,-0.4235594 0.428871,-0.150997 0.934676,-0.299311 1.124011,-0.329587 0.189335,-0.030276 0.501757,-0.1268018 0.694271,-0.2145021 0.192514,-0.0877 0.452278,-0.1606448 0.577255,-0.1620998 0.124976,-0.00145 0.427736,-0.073175 0.672799,-0.1593803 0.245063,-0.086205 0.602903,-0.157926 0.795199,-0.1593802 0.192297,-0.00146 0.411796,-0.035915 0.487776,-0.076579 0.546918,-0.2927011 4.990708,-0.5922644 7.286415,-0.4911894 0.903544,0.039781 1.675021,0.092239 1.714392,0.1165715 0.03937,0.024333 0.524054,0.080983 1.077073,0.1258897 0.553019,0.044907 1.385593,0.1701549 1.850165,0.2783295 2.068237,0.4815854 3.293149,0.7896408 3.518094,0.8847732 0.363903,0.1538997 1.728279,0.6226443 2.168719,0.7450833 0.212541,0.05909 0.442993,0.163982 0.512115,0.233104 0.06912,0.06912 0.193813,0.125676 0.277094,0.125676 0.08328,0 0.533724,0.200506 1.000989,0.445569 0.467264,0.245064 0.904298,0.44557 0.971186,0.44557 0.06689,0 0.175559,0.05394 0.241492,0.119876 0.06593,0.06593 0.32108,0.195157 0.566997,0.287166 0.245918,0.09201 0.713616,0.347939 1.039329,0.568732 0.325714,0.220793 0.633768,0.401441 0.684565,0.401441 0.0508,0 0.13949,0.05679 0.197095,0.1262 0.05761,0.06941 0.235233,0.180518 0.394729,0.246908 0.159497,0.06639 0.362905,0.192882 0.452019,0.281095 0.224019,0.221754 0.677862,0.530393 0.992224,0.674768 0.14471,0.06646 0.302431,0.204758 0.35049,0.307326 0.04806,0.102569 0.257761,0.293802 0.466004,0.424965 0.662077,0.417009 1.873756,1.434545 2.768497,2.324909 0.245064,0.243864 0.536709,0.514207 0.648102,0.600761 0.111392,0.08655 0.403038,0.392786 0.648101,0.680516 0.245063,0.287729 0.61552,0.70697 0.823235,0.931645 0.207717,0.224676 0.459907,0.517869 0.560425,0.65154 0.100517,0.133671 0.291617,0.359924 0.424666,0.502786 0.133048,0.142861 0.318326,0.383688 0.411727,0.535169 0.0934,0.151482 0.348567,0.544975 0.567034,0.874429 0.218467,0.329455 0.573302,0.872426 0.788521,1.206603 0.21522,0.334177 0.483056,0.731946 0.595192,0.883932 0.112136,0.151984 0.203884,0.318067 0.203884,0.369071 0,0.051 0.09131,0.216498 0.202911,0.367765 0.111601,0.151266 0.315408,0.568476 0.452905,0.927131 0.137497,0.358655 0.319604,0.727362 0.404684,0.819348 0.08508,0.09199 0.154689,0.230505 0.154689,0.30782 0,0.178213 0.195119,0.558995 0.354008,0.690861 0.06691,0.05553 0.146353,0.216926 0.176541,0.358657 0.04803,0.225485 0.187499,0.587034 0.443176,1.148833 0.1245,0.273563 0.406981,1.10647 0.563247,1.660759 0.08165,0.28962 0.228552,0.8 0.326448,1.134177 0.162231,0.553795 0.352553,1.302002 0.577001,2.268355 0.09927,0.427395 0.289587,1.759945 0.399181,2.794936 0.04246,0.401013 0.111408,0.911393 0.153213,1.134177 0.101788,0.542451 0.101573,4.460777 -3.24e-4,5.225317 -0.04452,0.334177 -0.100444,0.826329 -0.12427,1.09367 -0.05347,0.599979 -0.152937,1.271022 -0.306208,2.065823 -0.06444,0.334177 -0.17061,0.899241 -0.235924,1.255696 -0.06531,0.356456 -0.2144,0.950743 -0.331301,1.320638 -0.116901,0.369895 -0.212588,0.716224 -0.212638,0.76962 -5e-5,0.0534 -0.12813,0.479869 -0.284622,0.947717 -0.156493,0.467848 -0.337616,1.039525 -0.402496,1.270394 -0.06488,0.230868 -0.303715,0.795932 -0.530741,1.255696 -0.227028,0.459764 -0.497642,1.054669 -0.601366,1.322011 -0.103725,0.267342 -0.301874,0.711879 -0.440333,0.987861 -0.138459,0.275982 -0.251744,0.527731 -0.251744,0.559442 0,0.03171 -0.08919,0.174596 -0.198209,0.317522 -0.109015,0.142926 -0.221661,0.353305 -0.250324,0.467507 -0.02866,0.114203 -0.121747,0.270659 -0.206854,0.347679 -0.08511,0.07702 -0.154739,0.184607 -0.154739,0.239081 0,0.05447 -0.05497,0.14466 -0.122145,0.200414 -0.06718,0.05575 -0.218795,0.278951 -0.336925,0.495996 -0.11813,0.217043 -0.242988,0.394624 -0.27746,0.394624 -0.03447,0 -0.08544,0.07173 -0.113269,0.159395 -0.02782,0.08767 -0.221673,0.388428 -0.430775,0.668355 -0.209102,0.279928 -0.453097,0.62226 -0.542211,0.760739 -0.477336,0.741759 -1.513466,2.019861 -1.91147,2.357866 -0.116099,0.0986 -0.335032,0.360005 -0.486518,0.580909 -0.151486,0.220903 -0.366569,0.457372 -0.477961,0.525487 -0.111393,0.06811 -0.439494,0.365288 -0.729114,0.660383 -0.977622,0.996106 -1.882959,1.781116 -2.474398,2.145529 -0.252716,0.15571 -0.628727,0.430576 -0.835581,0.610812 -0.206854,0.180237 -0.467237,0.366778 -0.578629,0.414538 -0.111392,0.04776 -0.360918,0.21928 -0.5545,0.381158 -0.193583,0.161878 -0.383707,0.294323 -0.422498,0.294323 -0.03879,0 -0.190279,0.104449 -0.336638,0.232108 -0.146361,0.127658 -0.342408,0.255893 -0.43566,0.284963 -0.09325,0.02907 -0.36414,0.19804 -0.601973,0.375487 -0.237833,0.177447 -0.467879,0.322632 -0.511213,0.322632 -0.0795,0 -0.963018,0.419806 -1.188151,0.564551 -0.06683,0.04297 -0.413165,0.206948 -0.76962,0.364395 -0.356456,0.157447 -0.739241,0.340028 -0.850633,0.405735 -0.396963,0.234159 -0.938883,0.466516 -1.417722,0.607871 -0.610739,0.180293 -1.733802,0.568352 -1.932698,0.667817 -0.08273,0.04137 -0.447288,0.146024 -0.810127,0.232557 -0.362839,0.08653 -0.841985,0.209221 -1.06477,0.272639 -0.222784,0.06342 -0.642025,0.155316 -0.931645,0.204219 -0.28962,0.0489 -0.854684,0.160719 -1.255696,0.24848 -1.413564,0.309352 -3.39642,0.483473 -5.333603,0.468361 -0.987494,-0.0077 -2.196486,-0.03973 -2.686613,-0.07116 z m 5.127111,-0.632276 c 0.567761,-0.03554 0.85506,-0.08721 0.901266,-0.16209 0.04725,-0.07657 0.08464,-0.08272 0.12324,-0.02025 0.06908,0.11177 0.42383,0.118014 0.491421,0.0086 0.02754,-0.04456 0.213858,-0.08101 0.414046,-0.08101 0.422406,0 1.860559,-0.265403 2.623929,-0.484233 0.28962,-0.08302 0.745317,-0.20461 1.012658,-0.270193 0.936883,-0.22983 3.782229,-1.196784 3.964481,-1.347277 0.04738,-0.03913 0.220738,-0.09629 0.385232,-0.127026 0.164493,-0.03074 0.417651,-0.143366 0.562574,-0.250287 0.144922,-0.10692 0.292287,-0.194401 0.327479,-0.194401 0.06833,0 0.667528,-0.294351 1.524791,-0.749044 0.528102,-0.280106 1.192071,-0.671443 1.852284,-1.091718 0.194451,-0.123784 0.606091,-0.375879 0.914755,-0.560212 0.308664,-0.184334 0.641719,-0.415028 0.740123,-0.512656 0.331417,-0.328805 0.80768,-0.650927 0.962406,-0.650927 0.08969,0 0.223239,-0.117998 0.320913,-0.283544 0.09201,-0.15595 0.215582,-0.283545 0.274597,-0.283545 0.174009,0 0.576466,-0.381679 0.689046,-0.653471 0.08463,-0.204307 0.141185,-0.244628 0.300437,-0.214185 0.132085,0.02525 0.211551,-0.0055 0.243215,-0.09426 0.02587,-0.07247 0.341981,-0.412209 0.702476,-0.754981 1.051873,-1.000162 1.119282,-1.069645 1.58709,-1.635907 0.284677,-0.344589 0.525352,-0.556855 0.666514,-0.58784 0.170968,-0.03753 0.232297,-0.109011 0.271134,-0.316026 0.03199,-0.170549 0.202544,-0.423978 0.47047,-0.699103 0.231155,-0.237365 0.464856,-0.522711 0.519336,-0.634104 0.05448,-0.111392 0.244549,-0.403038 0.422376,-0.648101 0.177827,-0.245063 0.323381,-0.47537 0.323454,-0.511793 7.4e-5,-0.03642 0.166353,-0.270275 0.36951,-0.519671 0.203157,-0.249397 0.42683,-0.565926 0.497052,-0.703397 0.07022,-0.137472 0.173267,-0.276778 0.228989,-0.309569 0.05572,-0.03279 0.124686,-0.184208 0.153253,-0.336482 0.02857,-0.152274 0.103829,-0.296774 0.16725,-0.32111 0.108071,-0.04147 1.176485,-2.133529 1.176485,-2.303672 0,-0.04304 0.05234,-0.121702 0.116312,-0.174794 0.06397,-0.05309 0.13975,-0.203244 0.168397,-0.333672 0.02865,-0.130427 0.176812,-0.493429 0.329257,-0.806669 0.152445,-0.313241 0.277173,-0.654789 0.277173,-0.758995 0,-0.104205 0.07291,-0.282156 0.162026,-0.395446 0.08911,-0.11329 0.162689,-0.309599 0.163499,-0.436242 8.11e-4,-0.126643 0.108361,-0.387978 0.239001,-0.580743 0.132493,-0.1955 0.261333,-0.517914 0.291362,-0.729114 0.02961,-0.208247 0.217001,-1.016605 0.416426,-1.796352 0.443798,-1.735239 0.65962,-2.842887 0.712162,-3.654987 0.02196,-0.339355 0.07595,-0.959102 0.119989,-1.377215 0.106577,-1.011874 0.105127,-4.727465 -0.002,-5.113179 -0.04618,-0.166288 -0.11569,-0.767807 -0.15446,-1.336709 -0.08681,-1.273802 -0.326836,-2.512232 -0.961991,-4.963479 -0.08659,-0.334177 -0.200218,-0.789403 -0.252505,-1.011612 -0.05229,-0.222209 -0.144402,-0.459171 -0.204701,-0.526583 -0.0603,-0.06741 -0.164817,-0.323071 -0.232263,-0.568134 -0.136888,-0.497374 -0.651887,-1.781993 -0.96159,-2.398595 -0.111249,-0.221494 -0.246916,-0.53799 -0.301483,-0.703326 -0.05456,-0.165336 -0.129941,-0.300611 -0.167503,-0.300611 -0.03756,0 -0.09222,-0.108949 -0.121469,-0.242108 -0.02925,-0.133161 -0.09027,-0.265037 -0.135612,-0.293058 -0.04534,-0.02802 -0.190302,-0.291362 -0.322139,-0.585201 -0.131837,-0.293838 -0.360209,-0.681456 -0.507493,-0.861372 -0.147286,-0.179917 -0.365321,-0.519759 -0.484523,-0.755204 -0.119201,-0.235447 -0.284684,-0.496038 -0.367739,-0.579093 -0.08306,-0.08305 -0.25269,-0.327885 -0.376967,-0.544068 -0.124277,-0.216184 -0.321102,-0.504389 -0.437388,-0.640457 -0.116287,-0.136068 -0.298746,-0.391257 -0.405464,-0.567088 -0.106719,-0.175831 -0.26905,-0.395109 -0.360735,-0.487285 -0.09169,-0.09218 -0.239612,-0.290913 -0.328726,-0.441639 -0.08911,-0.150726 -0.203536,-0.34301 -0.254272,-0.427299 -0.05074,-0.08429 -0.205673,-0.22223 -0.344304,-0.306537 -0.138631,-0.08431 -0.252057,-0.190285 -0.252057,-0.235508 0,-0.07315 -0.521324,-0.654012 -1.037582,-1.156072 -0.102822,-0.09999 -0.60331,-0.591934 -1.112196,-1.0932 -0.508885,-0.501266 -0.972337,-0.911393 -1.029892,-0.911393 -0.05756,0 -0.322636,-0.200086 -0.58907,-0.444636 -0.266433,-0.24455 -0.575564,-0.490626 -0.686956,-0.546835 -0.477421,-0.24091 -1.053165,-0.747107 -1.053165,-0.925947 0,-0.142781 -0.05956,-0.192743 -0.278826,-0.233877 -0.153354,-0.02877 -0.397399,-0.139788 -0.542321,-0.246708 -0.144922,-0.106921 -0.302963,-0.194402 -0.351202,-0.194402 -0.04824,0 -0.28178,-0.145822 -0.518978,-0.32405 -0.237199,-0.178228 -0.47318,-0.324167 -0.524402,-0.324308 -0.05122,-1.62e-4 -0.310489,-0.144768 -0.576149,-0.321391 -0.26566,-0.176623 -0.582428,-0.342967 -0.703928,-0.369652 -0.145958,-0.03206 -0.229456,-0.108549 -0.246097,-0.225446 -0.02129,-0.149546 -0.07741,-0.176925 -0.362662,-0.176925 -0.185613,0 -0.349663,-0.01823 -0.364557,-0.04051 -0.0149,-0.02228 -0.0674,-0.113418 -0.116676,-0.202532 -0.05772,-0.104379 -0.205302,-0.177878 -0.414808,-0.206581 -0.178866,-0.02451 -0.419797,-0.106532 -0.535401,-0.182279 -0.115605,-0.07575 -0.294502,-0.137722 -0.397547,-0.137722 -0.103046,0 -0.275633,-0.06183 -0.383525,-0.137402 -0.33172,-0.2323 -2.541605,-0.967897 -4.09304,-1.3623885 C 49.255697,9.6476197 48.763545,9.5208916 48.607596,9.4792989 47.991568,9.3150004 46.03827,8.9791721 45.7485,8.9877384 c -0.168958,0.005 -0.443957,-0.027745 -0.611108,-0.072754 -0.167151,-0.045009 -0.685116,-0.098143 -1.151032,-0.1180752 -0.465915,-0.019932 -1.019763,-0.061895 -1.230771,-0.09325 -0.23152,-0.034404 -0.521143,-0.018515 -0.730381,0.040068 -0.226086,0.0633 -0.416761,0.071269 -0.547994,0.022902 -0.122136,-0.045013 -0.742728,-0.044205 -1.578479,0.00206 -0.757469,0.041927 -1.541266,0.082177 -1.741773,0.089444 -0.200506,0.00727 -0.487321,0.064875 -0.637365,0.1280203 -0.257483,0.1083592 -0.2808,0.1042138 -0.415064,-0.073784 L 36.962277,8.7237741 36.826299,8.9313034 c -0.117768,0.1797363 -0.214071,0.2149322 -0.719113,0.262818 -0.320724,0.030409 -1.093515,0.1825345 -1.717312,0.3380553 -0.623798,0.1555216 -1.298228,0.316966 -1.498734,0.3587669 -0.200507,0.0418 -0.51038,0.1276724 -0.688608,0.1908274 -0.178228,0.06316 -0.542785,0.177967 -0.810127,0.255138 -0.267341,0.07717 -0.52731,0.17165 -0.577707,0.209954 -0.0504,0.0383 -0.300622,0.124079 -0.556054,0.19061 -0.255433,0.06653 -0.553996,0.191425 -0.663474,0.27754 -0.109478,0.08612 -0.406089,0.216227 -0.659135,0.289137 -0.253047,0.07291 -0.532997,0.197557 -0.622111,0.276993 -0.08911,0.07944 -0.271392,0.170281 -0.405063,0.201879 -0.133671,0.0316 -0.299386,0.108202 -0.368256,0.170232 -0.06887,0.06203 -0.378744,0.227556 -0.688608,0.367835 -0.309864,0.14028 -0.745668,0.373679 -0.968452,0.518667 -0.222785,0.144986 -0.508718,0.288042 -0.635406,0.3179 -0.126689,0.02986 -0.360273,0.180474 -0.519076,0.334702 -0.158802,0.154227 -0.419705,0.315796 -0.579784,0.359041 -0.160078,0.04324 -0.339267,0.156216 -0.398199,0.251048 -0.07812,0.125704 -0.163279,0.16169 -0.314316,0.132818 -0.169462,-0.03239 -0.222684,0.0015 -0.292415,0.186243 -0.0489,0.129557 -0.202824,0.281913 -0.361024,0.357354 -0.151678,0.07233 -0.464026,0.305774 -0.694109,0.518765 -0.230081,0.21299 -0.618836,0.538029 -0.863899,0.722306 -0.245064,0.184277 -0.586658,0.455685 -0.7591,0.603128 -0.483878,0.413731 -2.566318,2.493882 -2.904953,2.901761 -0.725753,0.874152 -1.65521,2.028305 -1.803912,2.240003 -0.0889,0.126561 -0.344089,0.485324 -0.567089,0.797251 -0.535928,0.749646 -0.675861,0.96833 -0.958985,1.498683 -0.130825,0.245064 -0.337342,0.591393 -0.458927,0.769621 -0.121586,0.178228 -0.298622,0.476864 -0.393415,0.663635 -0.09479,0.186772 -0.263832,0.474391 -0.375643,0.639153 C 12.891482,26.29793 12.8,26.494311 12.8,26.569567 c 0,0.07526 -0.11263,0.306872 -0.250289,0.514701 -0.13766,0.207827 -0.317013,0.587748 -0.398561,0.844268 -0.08155,0.25652 -0.246239,0.72159 -0.36598,1.033489 -0.11974,0.311899 -0.302332,0.809923 -0.405761,1.10672 -0.103428,0.296798 -0.240443,0.643128 -0.304477,0.769621 -0.253991,0.501735 -1.1929779,4.655816 -1.1964906,5.293279 -0.0011,0.200506 -0.056345,0.51038 -0.122756,0.688608 -0.094168,0.252716 -0.1304199,0.912555 -0.1646866,2.997468 -0.041922,2.550721 0.017133,4.079899 0.2002301,5.18481 0.044301,0.267342 0.1235937,0.832405 0.1762041,1.255696 0.05261,0.423291 0.123994,0.806076 0.158629,0.850633 0.03464,0.04456 0.108435,0.354421 0.163998,0.688588 0.05556,0.334166 0.153938,0.753406 0.218609,0.931646 0.06467,0.178238 0.148741,0.506348 0.186822,0.729133 0.09643,0.564143 0.635765,2.143285 0.936066,2.740742 0.0634,0.126143 0.115279,0.279999 0.115279,0.341903 0,0.0619 0.09114,0.311804 0.202531,0.555333 0.111393,0.243528 0.202532,0.48261 0.202532,0.531293 0,0.04868 0.111049,0.297094 0.246776,0.552027 0.382041,0.717578 0.43634,0.823993 0.773904,1.516676 0.173711,0.356456 0.42914,0.793924 0.567621,0.972152 0.13848,0.178228 0.280559,0.41519 0.315728,0.526582 0.064,0.20271 0.422879,0.814869 0.522429,0.89114 0.02908,0.02228 0.114096,0.172193 0.188926,0.333143 0.07483,0.16095 0.196371,0.342694 0.270088,0.403874 0.07372,0.06118 0.219712,0.239367 0.32443,0.395971 0.357274,0.53429 1.51221,2.044542 1.718201,2.246804 0.0808,0.07934 0.234054,0.271853 0.340555,0.427802 0.213696,0.312916 2.302833,2.39723 3.048421,3.041384 0.797523,0.689023 2.081868,1.706241 2.295579,1.818128 0.111393,0.05832 0.337206,0.235515 0.501806,0.393769 0.286165,0.275131 0.51499,0.420728 1.099793,0.699781 0.145688,0.06952 0.423615,0.247556 0.617614,0.395639 0.194,0.148083 0.708326,0.439963 1.142948,0.648623 0.434621,0.208658 0.87972,0.449779 0.989109,0.535824 0.109387,0.08604 0.387253,0.226936 0.617479,0.313091 0.230226,0.08616 0.692011,0.281606 1.026188,0.434335 0.334177,0.152727 0.881013,0.379124 1.21519,0.503101 0.334177,0.123978 0.678992,0.263171 0.766255,0.309318 0.08726,0.04615 0.342453,0.130544 0.567089,0.187548 0.224635,0.05701 0.648675,0.195055 0.94231,0.306778 0.293635,0.111724 0.785787,0.258311 1.09367,0.325751 0.307885,0.06744 0.760296,0.178749 1.005359,0.247354 0.245064,0.0686 0.737216,0.166439 1.093671,0.217413 0.356456,0.05097 0.708407,0.145378 0.782114,0.209788 0.108736,0.09502 0.164274,0.09821 0.294464,0.01691 0.131085,-0.08186 0.212596,-0.07546 0.445321,0.03497 0.314679,0.149326 0.681925,0.173504 0.866125,0.05702 0.08023,-0.05074 0.160745,-0.0385 0.244324,0.03714 0.06856,0.06205 0.342811,0.12622 0.609445,0.142609 0.841667,0.05173 4.823774,0.0455 5.692913,-0.0089 z m -3.11543,-1.737681 c -0.140435,-0.178533 -0.158691,-0.358971 -0.177694,-1.756236 -0.0237,-1.742293 0.0099,-1.864587 0.511734,-1.864587 0.437944,0 0.449216,0.04691 0.449216,1.869575 0,1.786713 -0.0014,1.793283 -0.41509,1.897103 -0.165684,0.04158 -0.245644,0.0099 -0.368166,-0.145855 z m 3.949896,-0.132863 c -0.267708,-0.165452 -0.567663,-2.392759 -0.351367,-2.609056 0.146942,-0.146941 0.478132,-0.01051 0.568014,0.23399 0.105965,0.288247 0.288687,2.100361 0.222574,2.207334 -0.08832,0.142912 -0.330031,0.235217 -0.439221,0.167732 z m -7.696709,-0.154034 c -0.05914,-0.110508 -0.05968,-0.340759 -0.0018,-0.754098 0.04585,-0.32726 0.102762,-0.759068 0.126469,-0.959575 0.09228,-0.780401 0.324636,-1.002256 0.678791,-0.648101 0.193652,0.193652 0.193829,0.197632 0.04328,0.970301 -0.06531,0.335195 -0.147338,0.809952 -0.182278,1.055015 -0.06073,0.42592 -0.0749,0.446672 -0.321437,0.470554 -0.189872,0.01839 -0.280369,-0.01698 -0.343047,-0.134096 z m -3.58224,-0.653161 -0.180988,-0.146554 0.140437,-0.639121 c 0.07724,-0.351517 0.17513,-0.673815 0.217534,-0.71622 0.0424,-0.0424 0.0771,-0.173734 0.0771,-0.291844 0,-0.11811 0.04072,-0.331546 0.09048,-0.4743 0.07836,-0.22478 0.123393,-0.256247 0.336133,-0.234874 0.350968,0.03526 0.442134,0.222584 0.315891,0.649072 -0.05662,0.191268 -0.140198,0.51181 -0.18574,0.712317 -0.119137,0.524536 -0.404309,1.201527 -0.525755,1.24813 -0.05726,0.02197 -0.185549,-0.026 -0.285092,-0.106606 z m 14.964746,0.08247 c -0.114788,-0.045 -0.214375,-0.280643 -0.382759,-0.905699 -0.278646,-1.034362 -0.301323,-1.571537 -0.07153,-1.694515 0.126336,-0.06761 0.192981,-0.05291 0.315505,0.06961 0.138589,0.13859 0.334453,0.789853 0.334453,1.112085 0,0.06685 0.04966,0.219997 0.110359,0.340316 0.177048,0.350957 0.218401,0.891086 0.0789,1.030583 -0.132374,0.132375 -0.159988,0.13579 -0.384928,0.04761 z m -18.553596,-1.2344 c -0.114236,-0.08986 -0.207702,-0.199188 -0.207702,-0.242956 0,-0.09203 0.275718,-0.740221 0.448908,-1.055339 0.065,-0.118267 0.118181,-0.275096 0.118181,-0.348507 0,-0.175061 0.336116,-0.759333 0.465823,-0.809743 0.157535,-0.06122 0.332993,0.03534 0.389879,0.214567 0.06386,0.201203 -0.106862,0.838959 -0.258205,0.964562 -0.06128,0.05086 -0.111421,0.164571 -0.111421,0.252692 0,0.218881 -0.41244,1.101639 -0.537044,1.149454 -0.0554,0.02126 -0.194182,-0.03487 -0.308419,-0.12473 z m 22.14583,0.05228 c -0.133782,-0.07256 -0.245355,-0.236117 -0.311362,-0.456432 -0.05658,-0.188841 -0.15057,-0.418895 -0.208871,-0.51123 -0.0583,-0.09233 -0.130152,-0.283845 -0.159668,-0.425575 -0.02952,-0.141732 -0.106006,-0.301132 -0.169977,-0.354224 -0.286903,-0.238108 -0.02674,-0.753951 0.357548,-0.708937 0.160525,0.0188 0.231489,0.09192 0.299123,0.308196 0.04877,0.155949 0.149989,0.419082 0.224933,0.584739 0.07494,0.165658 0.136261,0.338955 0.136261,0.385104 0,0.04615 0.07291,0.219945 0.162026,0.386213 0.198971,0.371236 0.203103,0.521775 0.02025,0.737764 -0.128216,0.151453 -0.161709,0.156653 -0.350266,0.05438 z m -25.577836,-1.67833 c -0.05347,-0.05347 -0.09721,-0.16112 -0.09721,-0.239226 0,-0.180367 0.168443,-0.554698 0.249605,-0.554698 0.03386,0 0.0855,-0.108949 0.114748,-0.242109 0.02925,-0.13316 0.0822,-0.260049 0.117681,-0.281976 0.03548,-0.02193 0.16202,-0.239177 0.281203,-0.48278 0.220047,-0.449758 0.39617,-0.579784 0.652234,-0.481523 0.197434,0.07576 0.125182,0.701601 -0.109885,0.951819 -0.09427,0.10035 -0.171409,0.228297 -0.171409,0.284326 0,0.115494 -0.370653,0.78702 -0.552845,1.00161 -0.139748,0.164598 -0.345169,0.183505 -0.484117,0.04456 z m 28.894106,0.01477 c -0.073,-0.04263 -0.157917,-0.177868 -0.188701,-0.300522 -0.03078,-0.122654 -0.08246,-0.2416 -0.114827,-0.264325 -0.03237,-0.02272 -0.213592,-0.312005 -0.402715,-0.642845 -0.412139,-0.720968 -0.435856,-1.083541 -0.07361,-1.125259 0.189022,-0.02177 0.254523,0.03039 0.44557,0.354785 0.123184,0.209168 0.305997,0.504803 0.40625,0.656966 0.100253,0.152164 0.182278,0.324809 0.182278,0.383656 0,0.05885 0.07291,0.199689 0.162025,0.312978 0.34681,0.440898 0.04489,0.893888 -0.416274,0.624566 z M 40.643263,66.584526 c -0.57593,-0.135502 -0.623009,-0.189858 -0.623009,-0.719307 0,-0.27887 0.03968,-0.502965 0.09512,-0.537229 0.05231,-0.03233 0.280162,-0.04799 0.506329,-0.03479 0.789604,0.04608 0.935037,0.0306 1.097945,-0.116825 0.109348,-0.09896 0.163901,-0.250048 0.163901,-0.453943 0,-0.447416 -0.295674,-0.659432 -0.889896,-0.63811 -0.245747,0.0088 -0.491446,0.01168 -0.545998,0.0064 -0.160903,-0.01569 -0.362082,-0.476243 -0.278804,-0.638253 0.03987,-0.07757 0.09712,-0.596737 0.127225,-1.153699 0.0332,-0.614439 0.09327,-1.051148 0.152745,-1.110537 0.117191,-0.117024 2.382694,-0.161243 2.495233,-0.0487 0.112499,0.112499 0.108621,1.060023 -0.0049,1.196805 -0.07358,0.08865 -0.270032,0.119034 -0.749485,0.115901 -0.357373,-0.0023 -0.686658,0.03264 -0.731742,0.07773 -0.127903,0.127904 -0.0044,0.335767 0.200293,0.337129 0.553783,0.0037 1.359504,0.52904 1.359504,0.886441 0,0.07399 0.05352,0.205292 0.118943,0.291782 0.189612,0.250691 0.151495,0.876923 -0.08509,1.397891 -0.212501,0.467947 -0.560012,0.906201 -0.718564,0.906201 -0.04802,0 -0.223345,0.07291 -0.389612,0.162025 -0.320633,0.171849 -0.772526,0.197269 -1.300136,0.07314 z M 23.600998,65.179135 c -0.14844,-0.311284 -0.225008,-0.157763 0.7028,-1.409126 0.504055,-0.679835 0.648101,-0.896149 0.648101,-0.973253 0,-0.0416 0.05468,-0.09661 0.121519,-0.122257 0.06684,-0.02565 0.121519,-0.09681 0.121519,-0.158137 0,-0.176779 0.293437,-0.395228 0.491521,-0.365912 0.09946,0.01472 0.253035,0.123843 0.341283,0.242496 0.18896,0.25406 0.150201,0.510898 -0.121988,0.808364 -0.101329,0.110739 -0.257145,0.301596 -0.346259,0.424127 -0.08911,0.122531 -0.28962,0.394551 -0.44557,0.604489 -0.155949,0.209938 -0.420192,0.572189 -0.587207,0.805002 -0.250935,0.349796 -0.346114,0.423297 -0.548146,0.423297 -0.198903,0 -0.269296,-0.05203 -0.377573,-0.27909 z m 35.160561,0.0037 c -0.14089,-0.149802 -0.349188,-0.413434 -0.462886,-0.585847 -0.325766,-0.494001 -0.66671,-0.966418 -1.02031,-1.413755 -0.179555,-0.227156 -0.326464,-0.480165 -0.326464,-0.562243 0,-0.08208 0.112316,-0.22921 0.249591,-0.326959 0.223235,-0.158957 0.271441,-0.166031 0.456508,-0.06699 0.113803,0.06091 0.265319,0.202198 0.3367,0.31398 0.07138,0.111784 0.166712,0.246635 0.211847,0.299669 0.04514,0.05304 0.16603,0.217085 0.268657,0.364557 0.102626,0.147472 0.403386,0.567615 0.668355,0.933651 0.522347,0.721589 0.590454,0.990931 0.301709,1.193177 -0.263223,0.184369 -0.397511,0.155056 -0.683707,-0.149245 z M 20.823103,62.871149 c -0.171915,-0.321227 -0.142585,-0.368171 1.001307,-1.60267 0.398355,-0.429907 0.646437,-0.527253 0.842932,-0.330757 0.212096,0.212096 0.08091,0.443497 -0.714148,1.259747 -0.444856,0.456708 -0.862242,0.830379 -0.927527,0.830379 -0.06528,0 -0.156439,-0.07052 -0.202564,-0.156699 z m 41.005758,0.05948 c -0.05347,-0.05347 -0.09722,-0.125967 -0.09722,-0.161108 0,-0.03514 -0.293297,-0.364772 -0.651772,-0.732515 -0.558917,-0.573367 -0.648363,-0.70334 -0.627848,-0.91231 0.01937,-0.197297 0.06565,-0.248501 0.24313,-0.268976 0.225257,-0.02599 0.230642,-0.02118 1.431732,1.277401 0.368261,0.398153 0.407716,0.559745 0.185721,0.760648 -0.174943,0.158321 -0.349022,0.171585 -0.483748,0.03686 z M 27.017722,62.091044 c -0.336988,-0.17426 -0.716151,-0.582042 -0.899133,-0.966996 -0.125015,-0.263004 -0.154032,-0.508629 -0.154032,-1.303847 0,-0.588909 0.03815,-1.057547 0.09562,-1.174684 0.05259,-0.107187 0.137444,-0.331595 0.188561,-0.498684 0.05112,-0.167088 0.126568,-0.303797 0.167669,-0.303797 0.0411,0 0.07473,-0.04883 0.07473,-0.108506 0,-0.178794 0.608145,-0.685541 1.083847,-0.903132 0.565591,-0.258706 1.218124,-0.281459 1.343682,-0.04685 0.137927,0.257718 0.1015,0.797815 -0.06504,0.964356 -0.0819,0.0819 -0.373542,0.193098 -0.648101,0.247114 -0.342831,0.06745 -0.499198,0.135816 -0.499198,0.218264 0,0.06603 -0.08203,0.155895 -0.182278,0.199701 -0.13889,0.06069 -0.09173,0.06869 0.198139,0.03359 0.997319,-0.120746 1.565454,0.427457 1.740694,1.679624 0.09452,0.675371 -0.507778,1.796535 -1.082491,2.015041 -0.309596,0.117707 -1.092958,0.08828 -1.362671,-0.05119 z m 0.936218,-1.18978 c 0.191332,-0.229352 0.205524,-0.803221 0.02662,-1.076268 -0.189666,-0.289469 -0.572626,-0.276612 -0.688183,0.0231 -0.167481,0.434387 0.08058,1.235443 0.382585,1.235443 0.0698,0 0.195348,-0.08203 0.278982,-0.182278 z m 27.636947,0.895189 c -0.05347,-0.05347 -0.09722,-0.256371 -0.09722,-0.450895 0,-0.615733 -0.05383,-0.653967 -0.892461,-0.633906 -0.900589,0.02154 -0.935852,-0.0089 -0.912339,-0.786413 0.0134,-0.44319 0.05319,-0.605674 0.181863,-0.742638 0.09059,-0.09643 0.164709,-0.201836 0.164709,-0.234241 0,-0.06554 0.443997,-0.995772 0.566234,-1.186337 0.04287,-0.06683 0.174419,-0.345542 0.292327,-0.61935 0.252407,-0.586137 0.416041,-0.687495 1.155356,-0.715652 0.512895,-0.01953 0.515677,-0.01844 0.626779,0.247466 0.08559,0.204834 0.100621,0.540304 0.06451,1.439283 -0.0439,1.09293 -0.0363,1.182984 0.112462,1.331743 0.08775,0.08775 0.19493,0.173219 0.238175,0.189928 0.04324,0.01671 0.102053,0.205487 0.130687,0.419508 0.04933,0.368754 0.03962,0.396268 -0.185589,0.52552 -0.262373,0.150581 -0.324768,0.301719 -0.326417,0.790668 -0.0014,0.429357 -0.109986,0.522532 -0.608701,0.522532 -0.22724,0 -0.456911,-0.04375 -0.510379,-0.09722 z m -0.09722,-2.563568 c 0,-0.07903 -0.05035,-0.21255 -0.11189,-0.296711 -0.104936,-0.143507 -0.121979,-0.132138 -0.274193,0.182909 -0.146129,0.30245 -0.149107,0.338965 -0.02988,0.366408 0.195934,0.0451 0.415966,-0.08852 0.415966,-0.252606 z m -37.295626,0.936857 c -0.114342,-0.08361 -0.126047,-0.14506 -0.06048,-0.317512 0.04472,-0.117611 0.132607,-0.244122 0.195315,-0.281136 0.173019,-0.102128 0.847069,-0.677473 1.194047,-1.019197 0.169658,-0.167089 0.350179,-0.303798 0.40116,-0.303798 0.206261,0 0.40609,0.177946 0.40609,0.361621 0,0.208208 -0.04732,0.267444 -0.534239,0.668784 -1.306022,1.076478 -1.33018,1.089918 -1.601892,0.891238 z m 46.000553,-0.200334 c -0.176065,-0.167204 -0.560127,-0.493617 -0.853472,-0.725363 -0.477379,-0.377133 -0.529658,-0.44655 -0.498121,-0.661422 0.02562,-0.174597 0.09111,-0.25409 0.240124,-0.291491 0.193667,-0.04861 0.379754,0.05935 0.708014,0.410733 0.04584,0.04906 0.347642,0.299247 0.67068,0.555961 0.592997,0.471245 0.712791,0.695709 0.490126,0.918374 -0.173638,0.173639 -0.430658,0.103461 -0.757351,-0.206792 z M 16.01021,57.022902 c -0.157398,-0.224716 -0.05347,-0.430243 0.31927,-0.631389 0.130685,-0.07052 0.526658,-0.321932 0.87994,-0.558688 0.713171,-0.477937 0.973109,-0.507423 1.070002,-0.121371 0.04383,0.174615 0.0096,0.252236 -0.181045,0.410613 -0.129297,0.107412 -0.326395,0.237813 -0.437996,0.289777 -0.111601,0.05197 -0.403247,0.228412 -0.648102,0.392104 -0.606531,0.405482 -0.83626,0.455678 -1.002069,0.218954 z M 66.261938,56.87437 c -0.241533,-0.176311 -0.54852,-0.373718 -0.68219,-0.438682 -0.133671,-0.06496 -0.351733,-0.208363 -0.484582,-0.318665 -0.215028,-0.178533 -0.232635,-0.225979 -0.160395,-0.432205 0.116397,-0.33228 0.354119,-0.330109 0.796107,0.0073 0.20727,0.158212 0.40853,0.287659 0.447246,0.287659 0.03871,0 0.113168,0.05154 0.165448,0.114536 0.05228,0.06299 0.255671,0.190034 0.451978,0.282309 0.444789,0.209075 0.56435,0.403448 0.396004,0.643794 -0.178831,0.255317 -0.434923,0.215093 -0.929616,-0.146014 z M 41.291749,56.328692 c -0.04236,-0.06925 -0.08032,-0.40176 -0.06527,-0.571732 0.0049,-0.0557 0.08188,-0.101266 0.170993,-0.101266 0.08911,0 0.162025,-0.05223 0.162025,-0.116059 0,-0.06383 0.06874,-0.137877 0.152751,-0.164542 0.08401,-0.02666 0.253021,-0.193171 0.375575,-0.370015 0.122553,-0.176845 0.249757,-0.321536 0.282676,-0.321536 0.07784,0 0.809251,-0.700489 0.809251,-0.77504 0,-0.08055 0.361763,-0.406199 0.517745,-0.466054 0.0717,-0.02751 0.130357,-0.10585 0.130357,-0.174085 0,-0.06823 0.04786,-0.124061 0.106362,-0.124061 0.125844,0 0.541739,-0.415957 0.541739,-0.54182 0,-0.04806 0.07291,-0.106451 0.162025,-0.129755 0.08911,-0.0233 0.162026,-0.09622 0.162026,-0.162025 0,-0.06581 0.07291,-0.138721 0.162025,-0.162025 0.189015,-0.04943 0.212029,-0.262148 0.04629,-0.427883 -0.165736,-0.165736 -0.378455,-0.142722 -0.427883,0.04629 -0.0233,0.08911 -0.09736,0.162025 -0.164568,0.162025 -0.09269,0 -0.110406,0.05895 -0.07337,0.244128 0.04552,0.227586 0.03522,0.240714 -0.151899,0.193749 -0.221301,-0.05554 -0.241755,-0.01782 -0.116861,0.21555 0.06501,0.121479 0.05743,0.1567 -0.03375,0.1567 -0.06469,0 -0.131922,-0.04291 -0.149404,-0.09536 -0.06351,-0.190529 -0.238127,0.03083 -0.194027,0.245965 0.02412,0.117671 0.02404,0.168378 -1.62e-4,0.112682 -0.02422,-0.0557 -0.09421,-0.101266 -0.155532,-0.101266 -0.135799,0 -0.523135,0.40429 -0.523135,0.546007 0,0.05615 -0.02879,0.102094 -0.06397,0.102094 -0.03518,0 -0.224604,0.136709 -0.420934,0.303798 -0.304394,0.259057 -0.50506,0.453881 -0.980441,0.951898 -1.244975,1.304256 -1.656278,1.567987 -2.201496,1.411621 -0.14366,-0.0412 -0.407506,-0.07491 -0.586322,-0.07491 -0.845743,0 -1.352043,-0.428462 -0.931645,-0.788417 0.08911,-0.0763 0.162025,-0.185312 0.162025,-0.242245 0,-0.05693 0.07291,-0.103515 0.162025,-0.103515 0.08911,0 0.162026,-0.03786 0.162026,-0.08414 0,-0.04628 0.145823,-0.235901 0.32405,-0.421382 0.178228,-0.185483 0.324051,-0.366353 0.324051,-0.401934 0,-0.03558 0.07291,-0.06469 0.162025,-0.06469 0.108017,0 0.162026,-0.05401 0.162026,-0.162025 0,-0.104673 0.05401,-0.162026 0.152577,-0.162026 0.08444,0 0.171496,-0.07235 0.194947,-0.162025 0.0233,-0.08911 0.100467,-0.162025 0.171474,-0.162025 0.07509,0 0.129103,-0.06778 0.129103,-0.162025 0,-0.09001 0.05401,-0.162026 0.121519,-0.162026 0.07561,0 0.121519,-0.07651 0.121519,-0.202531 0,-0.148523 0.04321,-0.202532 0.162025,-0.202532 0.103994,0 0.162026,-0.05401 0.162026,-0.150791 0,-0.11716 0.04517,-0.142156 0.202531,-0.112075 0.212816,0.04068 0.249546,-0.02345 0.125624,-0.219342 -0.10357,-0.163719 -0.01437,-0.27526 0.126584,-0.158283 0.06395,0.05307 0.14167,0.07109 0.172721,0.04004 0.03105,-0.03105 0.0066,-0.08725 -0.05427,-0.124888 -0.169345,-0.104661 -0.03736,-0.327822 0.193888,-0.327822 0.173851,0 0.205073,-0.037 0.205073,-0.243038 0,-0.307086 -0.213884,-0.322769 -0.445569,-0.03267 -0.332059,0.41578 -0.410309,0.49505 -0.627848,0.636035 -0.122532,0.07941 -0.222785,0.194875 -0.222785,0.256586 0,0.06171 -0.0534,0.112201 -0.118669,0.112201 -0.06527,0 -0.15769,0.07291 -0.205382,0.162026 -0.04769,0.08911 -0.135862,0.162025 -0.195933,0.162025 -0.06007,0 -0.128287,0.07291 -0.151591,0.162025 -0.0233,0.08911 -0.100467,0.162026 -0.171474,0.162026 -0.07509,0 -0.129103,0.06778 -0.129103,0.162025 0,0.104672 -0.05401,0.162025 -0.152577,0.162025 -0.08444,0 -0.171496,0.07235 -0.194947,0.162026 -0.0233,0.08911 -0.100467,0.162025 -0.171474,0.162025 -0.07101,0 -0.129103,0.04067 -0.129103,0.09038 0,0.104353 -0.794337,0.881773 -0.90096,0.881773 -0.03916,0 -0.07119,0.05287 -0.07119,0.117493 0,0.06462 -0.04832,0.146647 -0.107375,0.182279 -0.05906,0.03563 -0.130823,0.128582 -0.159483,0.206557 -0.02866,0.07797 -0.122263,0.141772 -0.208008,0.141772 -0.08575,0 -0.176884,0.05468 -0.202532,0.121519 -0.06798,0.177145 -0.64173,0.154446 -1.023868,-0.04051 -0.174678,-0.08911 -0.352976,-0.162026 -0.396218,-0.162026 -0.140147,0 -0.64247,-0.360994 -0.678175,-0.487369 -0.01908,-0.06755 -0.013,-0.182512 0.01352,-0.255478 0.0622,-0.17114 0.683689,-0.819836 1.616675,-1.687449 0.407221,-0.378688 0.740403,-0.752359 0.740403,-0.83038 0,-0.07802 0.03472,-0.141855 0.07716,-0.141855 0.04244,0 0.328334,-0.25519 0.635324,-0.567089 0.30699,-0.311899 0.599087,-0.567088 0.649103,-0.567088 0.05002,0 0.134,-0.08203 0.186629,-0.182279 0.05263,-0.100253 0.145052,-0.211432 0.205382,-0.247063 0.183009,-0.108087 0.123696,-0.258965 -0.141096,-0.358912 -0.243236,-0.09181 -0.249273,-0.08863 -0.20047,0.105818 0.04564,0.18183 0.03128,0.195703 -0.154275,0.149132 -0.148465,-0.03726 -0.204593,-0.01906 -0.204593,0.06635 0,0.147449 -0.317474,0.507287 -0.506329,0.573893 -0.07797,0.0275 -0.141772,0.105827 -0.141772,0.174062 0,0.06823 -0.03926,0.124061 -0.08724,0.124061 -0.04799,0 -0.197519,0.110273 -0.332298,0.245053 -0.200625,0.200626 -0.22708,0.26671 -0.145915,0.364507 0.08487,0.102265 0.06274,0.112175 -0.153778,0.06887 -0.172177,-0.03443 -0.252917,-0.01917 -0.252917,0.04783 0,0.132614 -0.419395,0.569939 -0.546572,0.569939 -0.05584,0 -0.101529,0.05468 -0.101529,0.121519 0,0.06684 -0.03469,0.121519 -0.07709,0.121519 -0.09675,0 -1.219117,1.112201 -1.219117,1.208073 0,0.03881 -0.09114,0.09344 -0.202532,0.121397 -0.111392,0.02796 -0.202531,0.08659 -0.202531,0.130301 0,0.101132 -0.37996,0.104616 -0.44211,0.0041 -0.02564,-0.04148 -0.0096,-0.09831 0.03572,-0.1263 0.04528,-0.02799 0.08233,-0.109661 0.08233,-0.181498 0,-0.07184 0.04927,-0.188165 0.109483,-0.25851 0.06022,-0.07034 0.196925,-0.291387 0.303798,-0.491207 0.106872,-0.199819 0.276339,-0.487438 0.376593,-0.639152 0.100253,-0.151715 0.182278,-0.343669 0.182278,-0.426565 0,-0.0829 0.0325,-0.15072 0.07222,-0.15072 0.03972,0 0.131984,-0.136709 0.205032,-0.303798 0.07305,-0.167088 0.220325,-0.44962 0.32728,-0.627848 0.106955,-0.178228 0.25092,-0.433417 0.319922,-0.567088 0.069,-0.133671 0.160016,-0.297722 0.202253,-0.364557 0.04224,-0.06684 0.09939,-0.176203 0.127013,-0.243038 0.02762,-0.06684 0.138894,-0.267342 0.247277,-0.44557 0.108383,-0.178228 0.242276,-0.41519 0.297538,-0.526582 0.05526,-0.111393 0.174468,-0.280094 0.264898,-0.374893 0.09043,-0.0948 0.264087,-0.286191 0.385902,-0.425317 0.158126,-0.180596 0.292876,-0.252955 0.471058,-0.252955 0.381221,0 1.755887,0.591872 1.836062,0.79053 0.06028,0.149363 -0.207592,0.667698 -0.345062,0.667698 -0.06475,0 -0.117718,0.0534 -0.117718,0.118669 0,0.06527 -0.07181,0.157101 -0.159585,0.204076 -0.136216,0.0729 -0.146175,0.114839 -0.06801,0.286394 0.05037,0.110544 0.127114,0.200988 0.170548,0.200988 0.09965,0 0.462109,-0.386531 0.462109,-0.492793 0,-0.04366 0.0638,-0.101687 0.141772,-0.12895 0.07797,-0.02726 0.305823,-0.183913 0.50633,-0.34811 0.499508,-0.409055 0.747869,-0.481152 1.366182,-0.396593 0.557839,0.07629 0.944277,0.230021 1.217079,0.484175 0.182701,0.170212 0.176246,0.202124 -0.121133,0.598828 -0.21711,0.289624 -0.137771,0.526481 0.176352,0.526481 0.172933,0 0.193159,-0.02745 0.149217,-0.202532 -0.05631,-0.224369 -0.01891,-0.243903 0.221097,-0.115458 0.135847,0.0727 0.169952,0.05933 0.206654,-0.08101 0.02417,-0.09245 0.07804,-0.168091 0.119706,-0.168091 0.0978,0 1.768643,-1.689522 1.768643,-1.788412 0,-0.04118 0.09289,-0.07488 0.206418,-0.07488 0.216711,0 0.558594,0.318759 0.651672,0.607595 0.02872,0.08911 0.09755,0.216709 0.152959,0.283544 0.152422,0.183851 0.376553,0.915394 0.296329,0.96719 -0.03873,0.02501 -0.149878,0.202181 -0.246991,0.393719 -0.09711,0.191538 -0.238718,0.37206 -0.31468,0.401159 -0.07596,0.0291 -0.298489,0.210948 -0.494505,0.404106 -0.333366,0.328506 -0.349494,0.36409 -0.249602,0.55074 0.124594,0.232805 0.305209,0.260289 0.379643,0.05777 0.02866,-0.07798 0.100427,-0.170926 0.159483,-0.206558 0.05906,-0.03563 0.107375,-0.1152 0.107375,-0.176819 0,-0.06162 0.07291,-0.135175 0.162026,-0.163459 0.08911,-0.02828 0.162025,-0.103651 0.162025,-0.167485 0,-0.06383 0.04903,-0.116059 0.108963,-0.116059 0.05993,0 0.176548,-0.07468 0.259151,-0.165956 0.102314,-0.113056 0.22898,-0.158248 0.397367,-0.141772 0.199219,0.01949 0.263961,0.07611 0.333679,0.291804 0.04758,0.147192 0.128934,0.32947 0.180794,0.405063 0.571441,0.83296 0.621363,1.032889 0.326499,1.307596 -0.16759,0.156135 -0.169241,0.171083 -0.03523,0.319164 0.08447,0.09334 0.108384,0.175266 0.0599,0.205227 -0.04438,0.02743 -0.103591,0.01282 -0.131577,-0.03246 -0.07983,-0.129167 -0.365374,-0.09656 -0.365374,0.04173 0,0.06824 -0.05468,0.145046 -0.121519,0.170693 -0.06684,0.02565 -0.121519,0.115642 -0.121519,0.199989 0,0.109573 -0.05782,0.153358 -0.202531,0.153358 -0.111393,0 -0.202532,0.04647 -0.202532,0.103278 0,0.120589 -0.687592,0.787861 -0.811851,0.787861 -0.04641,0 -0.106884,0.05866 -0.134396,0.130357 -0.07143,0.186138 -0.392321,0.517745 -0.501017,0.517745 -0.05059,0 -0.09198,0.04166 -0.09198,0.09258 0,0.05092 -0.2572,0.339287 -0.571557,0.640819 -0.4976,0.477298 -0.631254,0.561094 -1.032911,0.647595 -0.551717,0.118816 -2.333082,0.194942 -2.389859,0.102129 z m 4.07534,-4.65394 c 0,-0.09426 -0.234493,-0.305496 -0.344304,-0.310152 -0.09523,-0.004 -0.07114,0.197676 0.03646,0.305272 0.123177,0.123177 0.307848,0.126105 0.307848,0.0049 z m -3.374457,-0.636779 c 0.112477,-0.133671 0.230018,-0.243038 0.261203,-0.243038 0.03119,0 0.145509,-0.09583 0.254054,-0.212948 0.229646,-0.247792 0.157226,-0.379959 -0.186421,-0.340221 -0.296625,0.0343 -0.8852,0.769247 -0.748222,0.934296 0.127321,0.153412 0.192032,0.132105 0.419386,-0.138089 z m 3.804177,4.603982 c -0.05148,-0.06377 -0.06014,-0.173947 -0.02121,-0.269805 0.03619,-0.08911 0.611469,-0.699747 1.278388,-1.356962 0.904014,-0.890857 1.263615,-1.194937 1.413123,-1.194937 0.163364,0 0.262552,0.107112 0.535066,0.577811 0.183991,0.317796 0.334528,0.643948 0.334528,0.724784 0,0.163795 -0.779754,0.722722 -1.008265,0.722722 -0.07747,0 -0.233554,0.07291 -0.346844,0.162025 -0.11329,0.08911 -0.265403,0.162025 -0.338028,0.162025 -0.07263,0 -0.267398,0.07254 -0.432828,0.161209 -0.265062,0.142065 -0.437389,0.198143 -1.159974,0.377474 -0.09182,0.02279 -0.206106,-0.0071 -0.253961,-0.06635 z M 14.150211,53.819407 c -0.103568,-0.103567 -0.05297,-0.407843 0.08776,-0.527746 0.172117,-0.146645 1.488211,-0.786327 1.80434,-0.876991 0.242317,-0.0695 0.56528,0.08432 0.56528,0.26923 0,0.14263 -0.3916,0.541415 -0.531659,0.541415 -0.06602,0 -0.410066,0.145822 -0.764543,0.32405 -0.59694,0.300135 -1.030306,0.400918 -1.161182,0.270042 z m 53.807086,-0.222151 c -0.296399,-0.150222 -0.6695,-0.31623 -0.829113,-0.368907 -0.602102,-0.198711 -0.76907,-0.813161 -0.220966,-0.813161 0.285906,0 0.738352,0.153785 0.738352,0.250963 0,0.0402 0.04054,0.07309 0.09009,0.07309 0.251268,0 1.194932,0.526294 1.318383,0.735281 0.128719,0.217904 0.127587,0.232869 -0.02373,0.313855 -0.261467,0.139933 -0.505631,0.09644 -1.073016,-0.191119 z m -48.534512,-0.05438 c -0.157779,-0.0919 -0.180177,-0.248666 -0.06578,-0.460433 0.173213,-0.320649 0.491097,-1.068965 0.491097,-1.156068 0,-0.05158 0.05221,-0.190547 0.116028,-0.308814 0.204152,-0.378347 0.532074,-1.133647 0.532074,-1.225523 0,-0.04888 0.05231,-0.169622 0.116233,-0.268308 0.06393,-0.09869 0.127726,-0.285858 0.141772,-0.415939 l 0.02554,-0.23651 -0.747796,-0.0078 c -0.853889,-0.009 -0.951621,-0.06451 -1.014816,-0.576795 -0.07508,-0.608605 -0.01035,-0.636838 1.583611,-0.690792 0.766805,-0.02596 1.457558,-0.01579 1.535006,0.02259 0.07745,0.03838 0.162678,0.156888 0.189398,0.26335 0.06364,0.253582 -0.106057,1.058199 -0.299181,1.418528 -0.0839,0.156545 -0.152551,0.330868 -0.152551,0.387386 0,0.05652 -0.07291,0.238795 -0.162025,0.405063 -0.08911,0.166267 -0.162026,0.348546 -0.162026,0.405064 0,0.05652 -0.07291,0.238795 -0.162025,0.405063 -0.08911,0.166267 -0.162025,0.359673 -0.162025,0.429791 0,0.07012 -0.05353,0.198254 -0.118943,0.284745 -0.06542,0.08649 -0.120101,0.205083 -0.121519,0.263539 -0.0037,0.15341 -0.418609,1.017006 -0.522417,1.087413 -0.129964,0.08815 -0.875945,0.06985 -1.039653,-0.0255 z m 43.625317,-1.133001 c -0.342623,-0.160633 -0.344304,-0.163557 -0.344304,-0.598849 0,-0.521799 0.154303,-0.733287 0.478609,-0.655984 0.525754,0.125321 0.91055,0.140678 1.140302,0.04551 0.20317,-0.08415 0.24438,-0.147068 0.24438,-0.373074 0,-0.320708 -0.220506,-0.501028 -0.700292,-0.572668 -0.386898,-0.05777 -0.514898,-0.210621 -0.514898,-0.614864 0,-0.430897 0.121012,-0.627057 0.387661,-0.628397 0.390935,-0.002 0.584689,-0.09299 0.636387,-0.298976 0.09648,-0.384397 -0.260038,-0.532087 -0.842817,-0.349143 -0.324056,0.101726 -0.357266,0.09722 -0.538574,-0.07311 -0.274597,-0.25797 -0.318029,-0.6453 -0.09959,-0.888103 0.265642,-0.295265 0.637333,-0.414876 1.289221,-0.414876 0.509295,0 0.634432,0.02947 0.873488,0.205732 0.559584,0.412586 0.643588,0.571614 0.643588,1.218374 0,0.517901 -0.0257,0.619323 -0.213498,0.842506 -0.182938,0.217409 -0.20058,0.282076 -0.123255,0.451786 0.04963,0.108932 0.126989,0.198058 0.171903,0.198058 0.124637,0 0.326875,0.549505 0.326875,0.888157 0,1.114924 -0.710262,1.788163 -1.880317,1.782302 -0.415665,-0.0021 -0.692539,-0.05076 -0.934873,-0.16438 z M 12.80773,50.323303 c -0.195349,-0.365013 -0.08943,-0.659986 0.275814,-0.768129 0.08911,-0.02638 0.471899,-0.161532 0.850633,-0.300326 0.378735,-0.138795 0.834431,-0.283826 1.012659,-0.322292 0.178227,-0.03847 0.433417,-0.127093 0.567088,-0.196951 0.330633,-0.172792 0.467622,-0.160709 0.674487,0.05949 0.34713,0.369504 0.107452,0.773035 -0.553114,0.931245 -0.43276,0.10365 -1.282023,0.362614 -1.758853,0.536323 -0.187703,0.06838 -0.484984,0.147307 -0.660625,0.175394 -0.268925,0.043 -0.333358,0.02488 -0.408089,-0.114752 z m 56.782144,0.05642 c -0.155949,-0.0421 -0.356455,-0.112141 -0.445569,-0.155643 -0.08911,-0.0435 -0.344304,-0.129247 -0.567089,-0.190544 -0.222785,-0.0613 -0.51443,-0.152234 -0.648101,-0.202083 -0.133671,-0.04985 -0.399595,-0.128716 -0.590943,-0.175263 -0.39205,-0.09537 -0.557199,-0.33446 -0.470269,-0.680821 0.08692,-0.346325 0.382444,-0.424712 0.881121,-0.233717 0.655091,0.250903 1.465005,0.514077 1.582003,0.514059 0.09858,-1.6e-5 0.713532,0.246301 0.987961,0.395726 0.153566,0.08362 0.204312,0.549362 0.07662,0.70322 -0.108179,0.130348 -0.383979,0.138927 -0.805735,0.02507 z M 48.12152,50.101546 c 0,-0.06947 0.03646,-0.103769 0.08101,-0.07623 0.04456,0.02754 0.08101,0.08437 0.08101,0.1263 0,0.04193 -0.03646,0.07623 -0.08101,0.07623 -0.04456,0 -0.08101,-0.05683 -0.08101,-0.1263 z m 5.95443,-3.17851 c -0.178228,-0.07126 -0.353204,-0.177088 -0.388836,-0.235165 -0.03563,-0.05808 -0.135885,-0.105594 -0.222784,-0.105594 -0.0869,0 -0.229984,-0.07198 -0.317965,-0.159965 -0.08798,-0.08798 -0.252376,-0.183158 -0.365322,-0.211506 -0.112947,-0.02835 -0.225735,-0.08451 -0.250639,-0.124807 -0.0249,-0.0403 -0.161268,-0.126664 -0.303032,-0.191929 -0.141763,-0.06526 -0.312435,-0.149962 -0.37927,-0.188217 -0.325067,-0.186063 -0.633552,-0.347958 -0.891139,-0.467675 -0.15595,-0.07248 -0.439752,-0.236801 -0.630673,-0.365158 -0.190921,-0.128358 -0.439941,-0.256672 -0.553378,-0.285144 -0.113438,-0.02847 -0.225434,-0.101757 -0.248881,-0.162859 -0.02345,-0.0611 -0.0843,-0.111428 -0.13523,-0.111835 -0.05093,-4.05e-4 -0.274876,-0.09041 -0.497661,-0.199998 -0.222785,-0.109592 -0.498026,-0.200398 -0.611646,-0.201792 -0.11362,-0.0014 -0.244053,-0.04 -0.28985,-0.0858 -0.0458,-0.0458 -0.316142,-0.120771 -0.600766,-0.166609 -0.284624,-0.04584 -0.561856,-0.120155 -0.616073,-0.165149 -0.05421,-0.045 -0.320463,-0.113174 -0.591662,-0.151507 -0.271199,-0.03833 -0.629103,-0.136166 -0.795343,-0.217405 -0.29792,-0.145589 -0.301987,-0.153978 -0.283545,-0.584888 0.01029,-0.240449 0.06858,-0.513867 0.12954,-0.607595 0.06096,-0.09373 0.130439,-0.334465 0.154404,-0.534971 0.07263,-0.607618 0.186152,-0.810127 0.454158,-0.810127 0.128832,0 0.412265,0.06782 0.629853,0.150709 0.396734,0.151136 1.131946,0.354479 1.813335,0.501528 0.200506,0.04327 0.473924,0.128831 0.607595,0.190135 0.187481,0.08598 0.974533,0.121595 3.443038,0.155799 3.438172,0.04764 3.538606,0.06011 4.031384,0.500563 0.543569,0.485851 1.709411,1.417722 1.773678,1.417722 0.03012,0 0.112505,0.05299 0.183078,0.117758 0.386266,0.354487 0.476734,0.425803 0.600327,0.47323 0.07457,0.02862 0.135584,0.107855 0.135584,0.17609 0,0.07671 0.07371,0.124061 0.193105,0.124061 0.122487,0 0.300165,0.118504 0.485865,0.324051 0.161017,0.178228 0.327243,0.32405 0.369389,0.32405 0.04215,0 0.124267,0.06563 0.18249,0.145847 0.05822,0.08022 0.220336,0.192347 0.360253,0.249181 0.185129,0.0752 0.268103,0.171885 0.304749,0.355113 0.06358,0.317882 -0.0087,0.362741 -0.67807,0.420903 -0.291045,0.02529 -0.766136,0.09845 -1.055756,0.162572 -0.28962,0.06413 -0.835798,0.139868 -1.213729,0.168316 -0.37793,0.02845 -0.743817,0.08205 -0.813082,0.119121 -0.06927,0.03707 -0.580302,0.112325 -1.135639,0.167233 -0.555336,0.05491 -1.044335,0.130703 -1.086664,0.168432 -0.116585,0.103916 -0.532599,0.06826 -0.89519,-0.07672 z M 11.830698,46.587603 c -0.200078,-0.373849 -0.102362,-0.44559 0.928796,-0.68191 1.211367,-0.27762 1.660759,-0.248811 1.660759,0.106465 0,0.281735 -0.350618,0.460729 -1.011998,0.516636 -0.338976,0.02865 -0.685019,0.08887 -0.768986,0.133803 -0.264437,0.141522 -0.715063,0.09973 -0.808571,-0.07499 z m 7.624342,0.08482 c -0.151825,-0.09621 0.192012,-0.333183 0.483433,-0.333183 0.212574,0 0.361421,0.1829 0.269667,0.331361 -0.05748,0.093 -0.607108,0.09433 -0.7531,0.0018 z m 51.080877,0.01877 c -0.02921,-0.02921 -0.382512,-0.0984 -0.785113,-0.153758 -0.790388,-0.108673 -0.971056,-0.198302 -0.971056,-0.481736 0,-0.338961 0.167537,-0.389818 0.943835,-0.286512 0.388081,0.05164 0.762832,0.123324 0.832782,0.159288 0.06995,0.03596 0.260226,0.08938 0.422837,0.118704 0.387412,0.06986 0.501453,0.209211 0.396698,0.484741 -0.07008,0.184331 -0.127386,0.212386 -0.433809,0.212386 -0.194184,0 -0.376961,-0.0239 -0.406174,-0.05311 z m -6.04984,-0.437744 c 0,-0.04719 0.03646,-0.06326 0.08101,-0.03572 0.04456,0.02754 0.08101,0.06614 0.08101,0.08579 0,0.01965 -0.03646,0.03572 -0.08101,0.03572 -0.04456,0 -0.08101,-0.03861 -0.08101,-0.08579 z M 19.2,45.486601 c 0,-0.36539 0.663754,-0.494586 0.714478,-0.13907 0.01908,0.133739 -0.03013,0.202613 -0.187552,0.262464 C 19.35692,45.750671 19.2,45.713923 19.2,45.486601 Z m 1.391491,0.105394 c -0.05241,-0.05241 -0.09529,-0.155258 -0.09529,-0.228554 0,-0.0733 -0.07291,-0.199251 -0.162026,-0.279898 -0.325999,-0.295025 -0.10734,-0.764198 0.251665,-0.539996 0.124051,0.07747 0.19527,0.05271 0.422655,-0.146934 0.181165,-0.159065 0.35277,-0.236438 0.508433,-0.229241 0.129233,0.006 0.417247,-0.03649 0.640032,-0.09437 0.514483,-0.133667 0.538386,-0.142585 0.708861,-0.264475 0.214663,-0.153484 0.400662,0.008 0.581508,0.505012 l 0.156192,0.429214 -0.18542,0.150143 c -0.101981,0.08258 -0.27433,0.150144 -0.382999,0.150144 -0.10867,0 -0.304822,0.05546 -0.435896,0.123238 -0.138251,0.07149 -0.322474,0.102116 -0.438749,0.07293 -0.138113,-0.03467 -0.267673,0.0026 -0.416688,0.1198 -0.274182,0.215671 -0.477116,0.216007 -0.627685,10e-4 -0.117205,-0.167333 -0.118946,-0.167408 -0.169757,-0.0073 -0.07754,0.244324 -0.240142,0.353962 -0.354838,0.239265 z m 2.382759,-0.933359 c -0.0885,-0.0885 -0.149183,0.05224 -0.08565,0.198628 0.06025,0.138804 0.06462,0.138678 0.09818,-0.0028 0.01932,-0.08146 0.01368,-0.169563 -0.01254,-0.195781 z m 41.468732,0.862322 c -0.06501,-0.204823 0.05133,-0.341637 0.257274,-0.302548 0.09443,0.01792 0.159915,0.111176 0.176012,0.250635 0.0219,0.189706 -0.0039,0.222093 -0.176819,0.222093 -0.134537,0 -0.220574,-0.05709 -0.256467,-0.17018 z m 2.736766,-0.126511 c -0.135166,-0.05454 -0.12771,-0.227309 0.02233,-0.517459 0.153848,-0.297509 0.261187,-0.302894 0.369304,-0.01853 0.144573,0.380257 -0.0654,0.667624 -0.391637,0.535985 z M 66.291857,45.24481 c -0.137209,-0.09611 -0.216905,-0.102991 -0.372335,-0.03217 -0.145935,0.06649 -0.242906,0.06594 -0.370033,-0.0021 -0.213908,-0.11448 -0.220286,-0.260576 -0.01692,-0.387579 0.105435,-0.06585 0.140748,-0.152863 0.109902,-0.270817 -0.06349,-0.242795 0.121584,-0.332826 0.394288,-0.191806 0.122954,0.06358 0.283647,0.115603 0.357097,0.115603 0.135579,0 0.603615,0.444744 0.603615,0.573576 0,0.05779 -0.412716,0.317564 -0.504533,0.317564 -0.01458,0 -0.105063,-0.05503 -0.201079,-0.122278 z m -1.723091,-0.483298 c -0.145744,-0.175611 0.228617,-0.341442 0.474152,-0.210036 0.204496,0.109443 0.220731,0.212592 0.04413,0.280361 -0.214749,0.08241 -0.413957,0.05538 -0.51828,-0.07032 z M 18.879171,44.479653 c -0.101649,-0.0643 -0.09796,-0.0973 0.02622,-0.234511 0.238355,-0.26338 0.549447,-0.298889 0.724506,-0.0827 0.142914,0.176491 0.14321,0.189763 0.0065,0.289741 -0.165799,0.121235 -0.584926,0.13644 -0.757204,0.02747 z m 45.772894,-0.363486 c -0.07712,-0.09293 -0.06096,-0.165342 0.07924,-0.354972 0.168079,-0.22734 0.169884,-0.24776 0.03948,-0.446782 -0.07516,-0.114705 -0.113129,-0.246614 -0.08438,-0.29313 0.08416,-0.13617 0.607838,-0.102935 0.663496,0.04211 0.07499,0.195426 -0.109443,0.521417 -0.295,0.521417 -0.201051,0 -0.216051,0.14847 -0.02199,0.21765 0.272147,0.09702 0.353898,0.199758 0.254371,0.319681 -0.120869,0.145638 -0.512447,0.141956 -0.635218,-0.006 z m -45.97554,-0.883626 c -0.197369,-0.144319 -0.103201,-0.277313 0.242241,-0.342119 0.354176,-0.06644 0.686298,0.01413 0.686298,0.166498 0,0.262216 -0.643631,0.383951 -0.928539,0.175621 z m -7.273993,-0.301736 c -0.165741,-0.09722 -0.187919,-0.422037 -0.03735,-0.546998 0.129999,-0.10789 2.291221,-0.242599 2.451661,-0.152813 0.144115,0.08065 0.152915,0.386908 0.01607,0.559208 -0.07932,0.09987 -0.338302,0.137932 -1.194937,0.175632 -0.690709,0.0304 -1.145907,0.01749 -1.235443,-0.03503 z m 58.754431,0.03068 c -0.653942,-0.03855 -0.793118,-0.08553 -0.946374,-0.319425 -0.131578,-0.200814 -0.130876,-0.216492 0.01446,-0.322764 0.163959,-0.11989 1.349091,-0.144594 2.103167,-0.04384 0.339714,0.04539 0.409567,0.08488 0.453104,0.256194 0.02831,0.111392 0.01946,0.266329 -0.01967,0.344304 -0.07319,0.145859 -0.34009,0.160085 -1.604684,0.08553 z m -5.24557,-0.351348 c -0.22371,-0.08992 -0.233154,-0.207585 -0.02558,-0.318676 0.214715,-0.114911 0.351677,-0.105302 0.536678,0.03766 0.155666,0.120291 0.155666,0.122748 0,0.243038 -0.177254,0.136972 -0.251162,0.142464 -0.511099,0.03798 z M 18.612658,42.201104 c -0.254909,-0.148471 -0.169651,-0.364574 0.185856,-0.471087 0.38862,-0.116433 0.644524,-0.05561 0.644524,0.153199 0,0.338066 -0.48015,0.521879 -0.83038,0.317888 z m 46.400383,-0.266757 c -0.171089,-0.125104 -0.13397,-0.447859 0.06545,-0.569113 0.119354,-0.07257 0.176232,-0.05348 0.303797,0.101967 0.207291,0.252597 0.197969,0.371645 -0.0375,0.478934 -0.145407,0.06625 -0.229085,0.06328 -0.331745,-0.01179 z M 41.000016,41.623672 c -0.41895,-0.508911 -0.493686,-0.641073 -0.493686,-0.873015 0,-0.3922 0.579515,-0.811418 1.121681,-0.811418 0.287526,0 0.757218,0.188135 0.900394,0.360651 0.133003,0.16026 0.07245,0.659031 -0.130418,1.074306 l -0.149885,0.306815 -0.580953,0.02367 c -0.401156,0.01635 -0.607624,-0.0087 -0.667133,-0.08101 z m -24.30595,-0.341148 c -0.05495,-0.06621 -0.08492,-0.29804 -0.07068,-0.546835 l 0.02471,-0.431893 0.473109,0.0099 c 0.524869,0.01096 0.885513,0.205595 0.929619,0.501718 0.01939,0.130213 -0.02917,0.184669 -0.202531,0.22709 -0.125425,0.03069 -0.3551,0.123119 -0.510389,0.205396 -0.338575,0.179383 -0.515809,0.188922 -0.643843,0.03465 z m 45.916837,0.01461 c -0.10778,-0.07337 -0.116428,-0.128063 -0.04502,-0.284783 0.06327,-0.138852 0.06358,-0.233695 0.0011,-0.33375 -0.15028,-0.240636 0.264066,-0.644967 0.515288,-0.502834 0.08147,0.04609 0.297268,0.120941 0.47956,0.166334 0.546526,0.136094 0.783022,0.572087 0.379259,0.699188 -0.07898,0.02486 -0.293426,0.115176 -0.476534,0.200693 -0.370871,0.17321 -0.653393,0.191463 -0.853642,0.05515 z m 3.337699,-0.016 c -0.07015,-0.08452 -0.07294,-0.160462 -0.01021,-0.277676 0.04749,-0.08873 0.06417,-0.219123 0.03707,-0.289753 -0.06439,-0.167787 0.108772,-0.372791 0.264429,-0.313059 0.06694,0.02569 0.292122,0.05086 0.500406,0.05594 0.34389,0.0084 0.389865,0.03328 0.500215,0.270777 0.06684,0.143846 0.141322,0.262327 0.165525,0.263291 0.0242,9.65e-4 0.07889,-0.116727 0.121519,-0.261538 0.05093,-0.173 0.135507,-0.271577 0.246628,-0.287454 0.241038,-0.03444 0.371969,0.166233 0.342442,0.524839 l -0.02548,0.309451 -0.867778,0.0036 c -0.477277,0.002 -0.893479,0.02935 -0.924894,0.06076 -0.09206,0.09206 -0.245933,0.06601 -0.349866,-0.05922 z m -47.396211,-0.303466 -0.283054,-0.08114 0.226811,-0.195095 c 0.27961,-0.240509 0.627884,-0.25129 0.831993,-0.02575 0.150386,0.166175 0.150331,0.171478 -0.0029,0.283544 -0.177869,0.130061 -0.367674,0.134592 -0.772823,0.01845 z m 46.369534,-0.02188 c -0.07329,-0.190988 0.04115,-0.287424 0.341096,-0.287424 0.303885,0 0.468719,0.203748 0.267772,0.330986 -0.178527,0.113043 -0.559225,0.08581 -0.608868,-0.04356 z m -44.169074,-0.58634 c -0.05935,-0.02369 -0.172824,-0.14982 -0.252164,-0.280284 l -0.144255,-0.237209 -0.101969,0.246173 c -0.05608,0.135396 -0.12671,0.246174 -0.156949,0.246174 -0.140165,0 -0.249413,-0.22234 -0.249413,-0.507604 0,-0.172246 -0.03658,-0.381531 -0.0813,-0.46508 -0.06431,-0.120161 -0.0441,-0.17796 0.0967,-0.276579 0.160984,-0.112757 0.191983,-0.112015 0.324336,0.0078 0.08049,0.07284 0.146339,0.186385 0.146339,0.252324 0,0.0776 0.05651,0.04805 0.160203,-0.08378 0.204774,-0.260328 0.543256,-0.330899 0.720115,-0.150138 0.120328,0.122983 0.152562,0.123965 0.355126,0.01082 0.202948,-0.113359 0.244966,-0.111841 0.471893,0.01705 0.221171,0.125619 0.262705,0.127891 0.370343,0.02025 0.309364,-0.309364 0.757764,0.0046 0.757764,0.530548 0,0.522457 -0.463488,0.898473 -0.751935,0.610026 -0.0801,-0.0801 -0.218741,-0.101547 -0.453174,-0.0701 -0.249458,0.03346 -0.376775,0.01 -0.486962,-0.08971 -0.140463,-0.127117 -0.157059,-0.123015 -0.283593,0.0701 -0.132307,0.201924 -0.228026,0.234312 -0.441106,0.149253 z m 44.219302,-0.02408 c -0.09384,-0.05982 -0.101178,-0.11029 -0.03223,-0.221544 0.118523,-0.191257 0.360221,-0.219827 0.559403,-0.06612 0.159594,0.123153 0.159642,0.125964 0.0042,0.246095 -0.180149,0.13921 -0.35654,0.15301 -0.531351,0.04157 z M 18.801022,39.830974 c -0.352007,-0.119594 -0.404289,-0.272615 -0.128915,-0.377313 0.513354,-0.195176 0.877369,0.0152 0.559403,0.3233 -0.131975,0.127878 -0.191201,0.13531 -0.430488,0.05401 z m 26.821896,-0.134773 c 0,-0.111392 0.01839,-0.156962 0.04086,-0.101266 0.02247,0.0557 0.02247,0.146836 0,0.202532 -0.02247,0.0557 -0.04086,0.01013 -0.04086,-0.101266 z M 65.00651,39.576667 c -0.189595,-0.289358 -0.07157,-0.499113 0.260132,-0.462309 0.378342,0.04198 0.413806,0.153976 0.136551,0.431231 l -0.251957,0.251957 z m -2.514578,0.05753 c -0.04969,-0.03273 -0.116925,-0.144633 -0.14941,-0.248662 -0.04721,-0.151198 -0.09835,-0.179285 -0.254884,-0.139997 -0.155753,0.03909 -0.214869,0.0073 -0.28891,-0.155159 -0.114631,-0.251587 -0.167958,-0.256004 -0.270656,-0.02242 -0.0611,0.138974 -0.174092,0.19521 -0.478884,0.23834 -0.219404,0.03105 -0.463083,0.02211 -0.54151,-0.01986 -0.197374,-0.105632 -0.589748,-0.09543 -0.847559,0.02204 -0.1919,0.08743 -0.232858,0.07736 -0.368991,-0.09076 -0.121374,-0.149891 -0.146028,-0.283693 -0.118879,-0.645188 0.06763,-0.900574 0.215135,-1.112701 0.486125,-0.699118 0.10757,0.164173 0.198826,0.202532 0.48182,0.202532 0.314465,0 0.368629,0.03015 0.54571,0.303797 0.108127,0.167089 0.232716,0.303798 0.276865,0.303798 0.04415,0 0.09146,-0.175106 0.105138,-0.389123 0.02969,-0.464536 0.204198,-0.586973 0.43332,-0.304019 l 0.149407,0.18451 0.154297,-0.19055 c 0.148968,-0.183968 0.159828,-0.185545 0.314391,-0.04567 0.09549,0.08642 0.316049,0.154069 0.546592,0.16765 0.403246,0.02375 0.687382,0.241773 0.684756,0.525415 -0.006,0.645282 -0.509197,1.232714 -0.858738,1.002444 z M 42.106018,39.350709 c -0.06612,-0.100906 -0.146683,-0.303985 -0.179035,-0.451285 -0.04606,-0.209731 -0.0879,-0.25495 -0.192903,-0.208485 -0.290959,0.128755 -0.749183,0.13244 -0.88764,0.0071 -0.07583,-0.06863 -0.228948,-0.165753 -0.340259,-0.215837 -0.387189,-0.174213 -0.69007,-0.367258 -0.95175,-0.60661 -0.208895,-0.191071 -0.263291,-0.304636 -0.263291,-0.549686 0,-0.169873 -0.05073,-0.389603 -0.112738,-0.488289 -0.062,-0.09869 -0.136909,-0.350986 -0.166454,-0.560669 -0.02954,-0.209683 -0.10299,-0.4831 -0.163213,-0.607595 -0.06022,-0.124494 -0.140255,-0.42686 -0.177849,-0.671923 -0.0574,-0.374159 -0.07485,-0.231339 -0.10886,0.891139 l -0.04051,1.336709 -0.472657,0.0245 c -0.278773,0.01445 -0.519702,-0.01454 -0.587342,-0.07068 -0.09265,-0.07689 -0.114684,-0.443461 -0.114684,-1.908044 0,-1.389924 -0.02363,-1.815647 -0.101266,-1.82479 -0.0557,-0.0066 -0.290822,-0.01567 -0.522501,-0.02025 -0.506082,-0.01 -0.59905,-0.08906 -0.6446,-0.548118 -0.05332,-0.537402 0.0045,-0.574836 0.915763,-0.592972 0.438995,-0.0087 0.797312,-0.04909 0.796257,-0.08966 -0.007,-0.271168 -0.151052,-0.898522 -0.238547,-1.039196 -0.05773,-0.09282 -0.127154,-0.318872 -0.154278,-0.502343 -0.02712,-0.183472 -0.104114,-0.438662 -0.171091,-0.567089 -0.06698,-0.128427 -0.122226,-0.361098 -0.122775,-0.517048 -5.67e-4,-0.155949 -0.05764,-0.392165 -0.126861,-0.524925 -0.06923,-0.132759 -0.164573,-0.424405 -0.211885,-0.648101 -0.04731,-0.223696 -0.132744,-0.49834 -0.189848,-0.610319 -0.0571,-0.11198 -0.130525,-0.381645 -0.163158,-0.599256 -0.03263,-0.21761 -0.108848,-0.490547 -0.169367,-0.606527 -0.06052,-0.115979 -0.110259,-0.301306 -0.110534,-0.411837 -2.43e-4,-0.110532 -0.06988,-0.383949 -0.15468,-0.607595 -0.234113,-0.617442 -0.496411,-1.52077 -0.495094,-1.705059 6.48e-4,-0.09034 -0.04898,-0.236162 -0.11028,-0.324051 -0.0613,-0.08789 -0.138765,-0.359422 -0.172144,-0.603406 -0.03338,-0.243985 -0.108977,-0.517403 -0.167995,-0.607595 -0.05902,-0.09019 -0.132447,-0.328037 -0.163175,-0.528544 -0.03073,-0.200506 -0.101953,-0.456176 -0.158279,-0.568155 -0.05633,-0.11198 -0.129493,-0.3842 -0.162594,-0.604933 -0.0331,-0.220733 -0.126968,-0.548354 -0.208593,-0.728046 -0.08163,-0.179693 -0.149211,-0.407973 -0.15019,-0.507291 -0.0017,-0.16749 -0.1558,-0.724203 -0.460488,-1.66305 -0.228614,-0.704438 -0.141089,-3.319693 0.117921,-3.523461 0.214057,-0.168404 0.300761,-0.12028 0.620979,0.344662 l 0.307122,0.445927 0.262741,-0.162383 c 0.341896,-0.211304 0.805929,-0.209762 1.077147,0.0036 l 0.210983,0.16596 0.114275,-0.22672 c 0.162313,-0.322032 0.328257,-0.429255 0.664324,-0.429255 0.22098,0 0.351532,0.06067 0.528857,0.245753 0.204117,0.213053 0.239669,0.320485 0.267181,0.807373 0.03031,0.536379 0.02069,0.572664 -0.214058,0.807411 -0.296939,0.296938 -0.661607,0.327812 -0.896312,0.07589 -0.189505,-0.203409 -0.321879,-0.149964 -0.616015,0.248715 -0.229447,0.310999 -0.256754,0.538782 -0.09279,0.774051 0.06125,0.08789 0.137664,0.323849 0.169809,0.524355 0.03215,0.200506 0.110286,0.446306 0.173646,0.546222 0.06336,0.09992 0.1381,0.348743 0.16609,0.552948 0.02799,0.204206 0.118469,0.503836 0.201066,0.665844 0.0826,0.162009 0.150176,0.379803 0.150176,0.483987 0,0.104183 0.05364,0.293155 0.119202,0.419936 0.06556,0.126781 0.144471,0.389274 0.175357,0.583319 0.03089,0.194044 0.122268,0.49863 0.20307,0.676858 0.0808,0.178228 0.147714,0.424436 0.148693,0.547129 9.8e-4,0.122693 0.07469,0.359115 0.163804,0.525383 0.08911,0.166267 0.162025,0.431441 0.162025,0.589275 0,0.157834 0.05128,0.360181 0.113952,0.44966 0.06267,0.08948 0.139536,0.343666 0.170806,0.564861 0.03127,0.221195 0.106747,0.481632 0.167724,0.578748 0.06098,0.09712 0.135643,0.334078 0.165922,0.526582 0.03028,0.192504 0.103805,0.425287 0.16339,0.517295 0.05958,0.09201 0.1317,0.347199 0.160257,0.567089 0.02856,0.21989 0.09777,0.454484 0.1538,0.52132 0.05603,0.06683 0.128416,0.319897 0.160852,0.562359 0.03244,0.242462 0.107567,0.489433 0.166958,0.548824 0.05939,0.05939 0.132561,0.32521 0.162598,0.590708 0.03004,0.265498 0.102354,0.522344 0.160703,0.57077 0.05835,0.04842 0.130977,0.295113 0.161397,0.548198 0.03042,0.253084 0.110953,0.523581 0.178959,0.601105 0.06801,0.07752 0.141509,0.332713 0.163336,0.567088 0.02183,0.234375 0.08599,0.453367 0.142576,0.486649 0.05659,0.03328 0.129108,0.251133 0.161151,0.484114 0.03204,0.232982 0.104439,0.497398 0.16088,0.58759 0.05644,0.09019 0.128373,0.346265 0.15985,0.56905 0.03148,0.222785 0.09566,0.428873 0.142635,0.457974 0.04697,0.0291 0.116718,0.28187 0.154988,0.56171 0.03827,0.279838 0.11914,0.565902 0.17971,0.635696 0.06057,0.06979 0.134862,0.322302 0.165093,0.561128 0.03023,0.238827 0.103499,0.512245 0.162818,0.607595 0.05932,0.09535 0.130628,0.352979 0.158467,0.572508 0.02784,0.219528 0.105112,0.459361 0.17172,0.532961 0.06661,0.0736 0.121104,0.249429 0.121104,0.390731 0,0.141301 0.03646,0.256912 0.08101,0.256912 0.04456,0 0.08101,-0.137721 0.08101,-0.306046 0,-0.205794 0.05307,-0.351491 0.162026,-0.444777 0.08911,-0.0763 0.162266,-0.23934 0.162559,-0.362308 3.24e-4,-0.122968 0.07297,-0.332945 0.161491,-0.466616 0.08853,-0.133671 0.161199,-0.293728 0.161492,-0.355683 3.24e-4,-0.06196 0.07738,-0.28069 0.171295,-0.486076 0.351842,-0.769433 0.39071,-0.867601 0.47662,-1.20381 0.04839,-0.189367 0.120132,-0.344304 0.159431,-0.344304 0.0393,0 0.09616,-0.118481 0.126349,-0.263291 0.03019,-0.14481 0.10122,-0.336737 0.157838,-0.426505 0.05662,-0.08977 0.130008,-0.290273 0.163089,-0.44557 0.03308,-0.155295 0.105877,-0.337039 0.161768,-0.403875 0.05589,-0.06684 0.127587,-0.230886 0.159321,-0.364556 0.03173,-0.133671 0.104925,-0.297722 0.162646,-0.364557 0.05772,-0.06684 0.128755,-0.254565 0.157857,-0.417177 0.0291,-0.162611 0.102667,-0.33695 0.163479,-0.38742 0.06081,-0.05047 0.134546,-0.251659 0.163852,-0.447085 0.02931,-0.195428 0.103331,-0.396858 0.1645,-0.447624 0.06117,-0.05077 0.135143,-0.233925 0.164387,-0.407023 0.02924,-0.173099 0.105007,-0.357742 0.168359,-0.41032 0.06335,-0.05258 0.115186,-0.177354 0.115186,-0.277283 0,-0.09993 0.06763,-0.268628 0.150288,-0.37489 0.08266,-0.106262 0.174762,-0.326249 0.204675,-0.488861 0.02991,-0.162611 0.104293,-0.337074 0.165289,-0.387697 0.061,-0.05062 0.136026,-0.227448 0.166736,-0.39295 0.03071,-0.165501 0.102816,-0.355594 0.160238,-0.42243 0.05742,-0.06684 0.128213,-0.254564 0.157315,-0.417176 0.0291,-0.162611 0.10663,-0.340239 0.172286,-0.394729 0.06566,-0.05449 0.119375,-0.158946 0.119375,-0.232125 0,-0.07318 0.06757,-0.260107 0.150154,-0.415397 0.08258,-0.155289 0.174715,-0.415534 0.204735,-0.578321 0.03002,-0.162786 0.104496,-0.315129 0.165503,-0.338539 0.06152,-0.02361 0.135835,-0.223722 0.166863,-0.449316 0.03077,-0.223713 0.107457,-0.449505 0.17042,-0.50176 0.06296,-0.05225 0.114477,-0.150348 0.114477,-0.217986 0,-0.123473 0.205808,-0.611006 0.493667,-1.169435 0.08494,-0.164776 0.154435,-0.359658 0.154435,-0.43307 0,-0.07341 0.05221,-0.23024 0.116027,-0.348507 0.212026,-0.392939 0.532074,-1.135235 0.532074,-1.234052 0,-0.09142 0.194412,-0.551888 0.453288,-1.07362 0.06259,-0.126142 0.1138,-0.27565 0.1138,-0.332238 0,-0.05659 0.08693,-0.266373 0.193169,-0.466188 0.106243,-0.199815 0.218506,-0.478662 0.249475,-0.619661 0.03097,-0.140998 0.08581,-0.25636 0.121866,-0.25636 0.03606,0 0.0909,-0.136709 0.121884,-0.303798 0.03098,-0.167088 0.126175,-0.417468 0.211547,-0.556397 0.08537,-0.13893 0.155224,-0.325859 0.155224,-0.415397 0,-0.08954 0.05234,-0.206235 0.116311,-0.259327 0.175865,-0.145955 0.225036,-0.503211 0.124167,-0.902145 -0.04977,-0.19683 -0.15796,-0.740658 -0.240429,-1.208506 -0.08247,-0.467848 -0.188257,-0.996456 -0.235088,-1.174683 -0.115917,-0.441157 -0.110303,-0.895139 0.01225,-0.991078 0.0944,-0.07389 1.229874,0.32381 1.736447,0.608194 0.09732,0.05464 0.224918,0.100576 0.283544,0.102088 0.05862,0.0015 0.252414,0.07319 0.430642,0.159277 0.178228,0.08609 0.379736,0.157764 0.447797,0.159276 0.06806,0.0015 0.195656,0.05218 0.283544,0.112587 0.08789,0.06041 0.342077,0.169868 0.564862,0.243239 0.222784,0.07337 0.52837,0.208623 0.679079,0.300557 l 0.274016,0.167155 -0.269655,0.278213 c -0.14831,0.153017 -0.310832,0.278213 -0.36116,0.278213 -0.05033,0 -0.177126,0.09114 -0.281774,0.202532 -0.104648,0.111392 -0.223348,0.202531 -0.263779,0.202531 -0.04043,0 -0.229223,0.127595 -0.419539,0.283545 -0.190314,0.155949 -0.372074,0.283544 -0.403908,0.283544 -0.09666,0 -0.967296,0.729341 -1.145165,0.959319 -0.09161,0.118451 -0.218026,0.379415 -0.280919,0.579921 -0.06289,0.200507 -0.160877,0.455697 -0.217743,0.567089 -0.05687,0.111392 -0.103616,0.258217 -0.103891,0.326278 -2.43e-4,0.06806 -0.05027,0.195656 -0.111106,0.283544 -0.06083,0.08789 -0.1378,0.250937 -0.171036,0.36233 -0.06282,0.210553 -0.197454,0.540788 -0.445865,1.093671 -0.08008,0.178228 -0.168848,0.457096 -0.197265,0.619708 -0.02842,0.162611 -0.101572,0.337074 -0.162568,0.387696 -0.06099,0.05062 -0.135953,0.225587 -0.166575,0.388813 -0.03062,0.163226 -0.107346,0.370545 -0.1705,0.460709 -0.06315,0.09016 -0.114825,0.220161 -0.114825,0.288882 0,0.06872 -0.07291,0.260982 -0.162025,0.427249 -0.08911,0.166268 -0.162025,0.352715 -0.162025,0.414327 0,0.09918 -0.08665,0.312961 -0.534425,1.31853 -0.06252,0.140404 -0.113917,0.322683 -0.11421,0.405063 -3.24e-4,0.08238 -0.07297,0.259149 -0.161492,0.39282 -0.08853,0.133671 -0.161198,0.310325 -0.161491,0.392564 -3.24e-4,0.08224 -0.05408,0.24629 -0.119517,0.364557 -0.164174,0.296703 -0.529118,1.202815 -0.529118,1.313736 0,0.05001 -0.07291,0.183621 -0.162026,0.29691 -0.08911,0.11329 -0.162025,0.307829 -0.162025,0.432308 0,0.124479 -0.05288,0.27921 -0.117519,0.343845 -0.06464,0.06464 -0.143143,0.222177 -0.174459,0.350091 -0.03132,0.127914 -0.124255,0.359626 -0.206531,0.514916 -0.08228,0.15529 -0.149592,0.362305 -0.149592,0.460036 0,0.09773 -0.05544,0.233131 -0.123199,0.30089 -0.06776,0.06776 -0.155048,0.29368 -0.193975,0.502046 -0.03893,0.208366 -0.108192,0.401972 -0.153923,0.430235 -0.04573,0.02826 -0.108602,0.16039 -0.139713,0.293614 -0.03111,0.133225 -0.103942,0.318433 -0.161845,0.411575 -0.0579,0.09314 -0.146109,0.32099 -0.196015,0.506329 -0.04991,0.185339 -0.121131,0.336981 -0.158276,0.336981 -0.03714,0 -0.09008,0.136708 -0.117641,0.303797 -0.02756,0.167089 -0.105128,0.408218 -0.172379,0.535843 -0.06725,0.127625 -0.122275,0.295873 -0.122275,0.373885 0,0.07801 -0.06763,0.228781 -0.150288,0.335043 -0.08266,0.106262 -0.175809,0.331828 -0.207001,0.501259 -0.03119,0.16943 -0.104982,0.326578 -0.163978,0.349217 -0.05899,0.02264 -0.13064,0.217383 -0.159212,0.432767 -0.02857,0.215383 -0.103543,0.434425 -0.166603,0.486761 -0.06306,0.05233 -0.138805,0.211117 -0.168321,0.352848 -0.02952,0.141731 -0.099,0.330605 -0.154417,0.419719 -0.05541,0.08911 -0.127587,0.271392 -0.160385,0.405063 -0.0328,0.133671 -0.106473,0.297721 -0.163721,0.364557 -0.05725,0.06683 -0.126831,0.242116 -0.154628,0.389512 -0.0278,0.147396 -0.105713,0.323164 -0.173146,0.390596 -0.06743,0.06743 -0.122604,0.247952 -0.122604,0.401155 0,0.178299 -0.05831,0.328481 -0.162025,0.417281 -0.08911,0.0763 -0.162025,0.235079 -0.162025,0.352839 0,0.11776 -0.07291,0.3068 -0.162026,0.42009 -0.08911,0.11329 -0.162025,0.292373 -0.162025,0.397962 0,0.509647 -0.647708,0.771525 -0.911704,0.368617 z M 35.807595,15.770464 c 0,-0.405139 -0.03193,-0.456738 -0.247728,-0.400306 -0.191291,0.05002 -0.195225,0.120444 -0.02658,0.475826 0.177098,0.373207 0.274313,0.346443 0.274313,-0.07552 z m 1.426265,-0.572641 c -0.165438,-0.395948 -0.292087,-0.366711 -0.292087,0.06743 0,0.310537 0.02457,0.362413 0.182278,0.38481 0.232927,0.03308 0.262206,-0.0875 0.109809,-0.452238 z M 12.759494,39.328038 c -0.356456,-0.05816 -0.791054,-0.108481 -0.965773,-0.111827 -0.348576,-0.0067 -0.628545,-0.197901 -0.558187,-0.381251 0.08736,-0.227662 0.448956,-0.343848 0.837093,-0.268971 0.199549,0.03849 0.629516,0.07158 0.955484,0.07352 0.325967,0.0019 0.663182,0.04127 0.749367,0.08739 0.30043,0.160786 0.110993,0.741152 -0.233897,0.716573 -0.07479,-0.0053 -0.427631,-0.05728 -0.784087,-0.115434 z m 3.94366,-0.0034 c -0.142222,-0.09962 -0.209225,-0.107226 -0.297683,-0.03381 -0.147309,0.122257 -0.445977,0.02799 -0.445977,-0.14076 0,-0.106366 -0.03426,-0.09799 -0.187302,0.04578 -0.166431,0.156353 -0.204797,0.16313 -0.344304,0.06081 -0.136907,-0.100411 -0.175393,-0.09856 -0.300688,0.01447 -0.188479,0.170033 -0.275232,0.07054 -0.343164,-0.39355 -0.04993,-0.341085 -0.03567,-0.38798 0.166286,-0.546836 0.180235,-0.141773 0.330201,-0.173756 0.814715,-0.173756 0.510907,0 0.605927,-0.02262 0.680533,-0.162026 0.09927,-0.185489 0.444533,-0.218752 0.54281,-0.0523 0.03563,0.06035 0.22409,0.209389 0.418797,0.331196 0.343615,0.214961 0.352687,0.231343 0.308901,0.557796 -0.07427,0.553696 -0.576952,0.798348 -1.012924,0.492981 z m 52.743244,0.07754 c -0.05663,-0.02455 -0.155927,-0.147044 -0.220651,-0.272208 -0.203807,-0.394118 -0.04561,-0.448983 1.519916,-0.527113 0.939404,-0.04688 0.954276,-0.04488 1.023338,0.138089 0.112555,0.298187 -0.03121,0.469208 -0.394424,0.469208 -0.17376,0 -0.400326,0.03196 -0.503479,0.07101 -0.239458,0.09067 -1.289043,0.179817 -1.4247,0.12101 z m -4.62735,-0.707858 c -0.120954,-0.145741 0.0733,-0.314546 0.361962,-0.314546 0.285145,0 0.414348,0.138566 0.280068,0.300364 -0.128421,0.154739 -0.518232,0.16335 -0.64203,0.01418 z m -46.153133,-0.0821 c -0.129745,-0.338109 0.09261,-0.522599 0.505095,-0.419073 0.161799,0.04061 0.196263,0.09361 0.175871,0.270465 -0.02194,0.190302 -0.06641,0.223355 -0.329811,0.245141 -0.213391,0.01765 -0.318417,-0.01122 -0.351155,-0.09653 z m 46.096839,-0.565432 c -0.02555,-0.06658 -0.03446,-0.20573 -0.01979,-0.309223 0.02113,-0.149145 0.07706,-0.188171 0.269698,-0.188171 0.223749,0 0.243038,0.0225 0.243038,0.283544 0,0.249242 -0.02701,0.286652 -0.223246,0.309223 -0.141667,0.01629 -0.240219,-0.01856 -0.269697,-0.09537 z m 1.087101,0.0089 c -0.0896,-0.07234 -0.114928,-0.197492 -0.08869,-0.438162 0.04143,-0.380045 0.129636,-0.429766 0.765704,-0.431618 0.419799,-0.0012 0.478225,0.0478 0.488521,0.409931 0.0094,0.330221 -0.18505,0.526426 -0.405022,0.4087 -0.125214,-0.06701 -0.186008,-0.05946 -0.262409,0.0326 -0.12153,0.146435 -0.330095,0.154203 -0.4981,0.01855 z m 1.802111,-0.51308 c 0.0039,-0.09437 0.02308,-0.113571 0.04895,-0.04895 0.0234,0.05848 0.02052,0.128355 -0.0064,0.155274 -0.02692,0.02692 -0.04607,-0.02093 -0.04255,-0.106329 z M 18.904493,37.5094 c -0.253956,-0.102465 -0.298235,-0.223615 -0.117151,-0.320528 0.218183,-0.116768 0.514206,-0.106655 0.692416,0.02365 0.141982,0.103821 0.140037,0.114801 -0.04305,0.243038 -0.213026,0.149211 -0.279236,0.155908 -0.532216,0.05384 z m 10.442343,-0.327116 c -0.211839,-0.08515 -0.238644,-0.361711 -0.05818,-0.600301 0.06542,-0.08649 0.119168,-0.214086 0.119442,-0.283544 2.43e-4,-0.06946 0.0553,-0.231365 0.122276,-0.359792 0.06698,-0.128427 0.144308,-0.383617 0.171846,-0.567089 0.02754,-0.183471 0.114042,-0.442952 0.19223,-0.576623 0.07819,-0.13367 0.167829,-0.422286 0.199203,-0.641368 0.03137,-0.219082 0.104138,-0.474272 0.161699,-0.567088 0.05756,-0.09282 0.125318,-0.28175 0.15057,-0.419852 0.02525,-0.1381 0.121519,-0.379238 0.213929,-0.53586 0.151327,-0.25648 0.212746,-0.290026 0.618281,-0.337688 0.745667,-0.08764 0.918707,0.0824 1.194269,1.173533 0.0518,0.205119 0.135633,0.423853 0.186292,0.486076 0.05066,0.06222 0.119025,0.277184 0.151926,0.477691 0.0329,0.200506 0.109713,0.436149 0.170693,0.523652 0.06098,0.0875 0.133725,0.331367 0.161656,0.541922 0.02793,0.210555 0.09791,0.400913 0.15551,0.423015 0.151483,0.05813 0.24899,1.068394 0.118315,1.225849 -0.118762,0.143099 -0.817868,0.16569 -1.063263,0.03436 -0.125269,-0.06704 -0.150612,-0.138036 -0.112013,-0.313779 0.03525,-0.160483 0.01461,-0.240671 -0.07033,-0.273266 -0.06612,-0.02537 -0.1318,-0.166704 -0.145953,-0.314069 l -0.02573,-0.267937 -0.538064,-0.02375 c -0.53451,-0.0236 -0.539192,-0.02193 -0.708861,0.2526 -0.09394,0.151995 -0.170796,0.364193 -0.170796,0.471552 0,0.371494 -0.211918,0.555843 -0.632442,0.550163 -0.20912,-0.0028 -0.462242,-0.03811 -0.562495,-0.0784 z m 2.288511,-2.346687 c 0.02748,-0.04447 -0.04153,-0.234291 -0.153355,-0.421822 -0.132778,-0.222659 -0.216384,-0.300014 -0.240957,-0.222941 -0.09417,0.295381 -0.133075,0.57761 -0.08937,0.648334 0.06308,0.102067 0.420017,0.09943 0.483677,-0.0036 z m 2.121394,2.284739 c -0.121446,-0.134195 -0.124686,-0.168521 -0.02381,-0.252242 0.09683,-0.08037 0.114769,-0.460897 0.105057,-2.229117 -0.0093,-1.685051 0.01124,-2.159863 0.09773,-2.264074 0.14218,-0.171317 0.83883,-0.181337 0.977655,-0.01406 0.06682,0.08051 0.106588,0.625443 0.125631,1.721519 0.01532,0.882044 0.03048,1.705438 0.03367,1.829766 l 0.0058,0.226051 0.802525,-0.01949 c 0.945972,-0.02298 1.06136,0.03466 1.059526,0.529212 -0.0022,0.580712 0.01439,0.574476 -1.598905,0.602599 -1.338701,0.02334 -1.45459,0.01382 -1.584886,-0.130156 z m 30.925936,0.03772 c -0.07653,-0.199439 0.03209,-0.297301 0.329982,-0.297301 0.461251,0 0.443983,0.279811 -0.02303,0.373214 -0.193422,0.03868 -0.270266,0.01968 -0.306949,-0.07591 z m -0.05931,-0.678988 c -0.184413,-0.04663 -0.141273,-0.190889 0.08176,-0.273393 0.160664,-0.05943 0.525206,0.104444 0.428929,0.192823 -0.07813,0.07172 -0.366047,0.117144 -0.510685,0.08057 z M 19.177343,36.2426 c -0.123853,-0.06526 -0.206417,-0.149021 -0.183475,-0.186142 0.07164,-0.115923 0.442939,-0.149764 0.575962,-0.0525 0.114082,0.08342 0.112034,0.106285 -0.02016,0.225069 -0.13126,0.117947 -0.171446,0.119412 -0.37233,0.01357 z m -5.642817,-0.443021 c -0.108415,-0.04332 -0.471995,-0.116989 -0.807954,-0.163716 -0.701849,-0.09762 -0.866976,-0.167705 -0.940436,-0.39916 -0.104594,-0.329544 0.09768,-0.425816 0.768424,-0.365736 0.335499,0.03005 0.774048,0.104792 0.974554,0.166093 0.200506,0.0613 0.473924,0.142 0.607595,0.179333 0.283564,0.0792 0.361048,0.340099 0.16055,0.540596 -0.145683,0.145684 -0.460679,0.163272 -0.762733,0.04259 z m 55.283186,-0.03249 c -0.02088,-0.06683 -0.05373,-0.172777 -0.07301,-0.235426 -0.01927,-0.06265 0.0263,-0.165137 0.101266,-0.227751 0.206418,-0.172399 1.195285,-0.387768 1.87808,-0.409037 l 0.607595,-0.01892 0.02498,0.257909 c 0.03108,0.320782 -0.08781,0.391564 -0.79277,0.472013 -0.288612,0.03293 -0.666866,0.110025 -0.840565,0.171309 -0.423851,0.149544 -0.857222,0.144714 -0.905584,-0.01009 z M 22.249275,35.184294 c -0.07721,-0.07721 -0.06259,-0.26784 0.02054,-0.26784 0.09939,0 0.179171,0.228236 0.09744,0.278748 -0.0364,0.02249 -0.08949,0.01758 -0.117981,-0.01091 z M 19.321519,35.07848 c -0.02828,-0.04576 0.03807,-0.08101 0.152464,-0.08101 0.111392,0 0.225062,0.03646 0.2526,0.08101 0.02828,0.04576 -0.03807,0.08101 -0.152464,0.08101 -0.111392,0 -0.225062,-0.03646 -0.2526,-0.08101 z m 2.086076,-0.124067 c -0.280808,-0.118544 -0.34976,-0.351419 -0.152521,-0.515114 0.08425,-0.06992 0.135112,-0.0626 0.212452,0.03059 0.05592,0.06738 0.147436,0.122518 0.20336,0.122518 0.05592,0 0.142471,0.04915 0.192326,0.109222 0.06874,0.08283 0.05646,0.139996 -0.05084,0.236579 -0.123341,0.111024 -0.175254,0.113102 -0.404778,0.01621 z m -0.797654,-0.393578 c -0.07368,-0.192014 0.09425,-0.359941 0.227093,-0.227093 0.07638,0.07638 0.06817,0.127421 -0.03753,0.233117 -0.126422,0.126423 -0.138891,0.126026 -0.189564,-0.006 z M 62.32672,34.305442 c -0.02637,-0.06871 -0.03141,-0.296956 -0.01121,-0.507204 0.03255,-0.338795 0.09477,-0.442051 0.547097,-0.907975 0.280701,-0.289139 0.601609,-0.662416 0.713127,-0.829505 0.111518,-0.167088 0.232967,-0.303797 0.269885,-0.303797 0.03692,0 0.105977,-0.144284 0.153462,-0.32063 0.04749,-0.176347 0.121801,-0.342549 0.165147,-0.369338 0.138004,-0.08529 0.08491,-0.435959 -0.09782,-0.646124 -0.218484,-0.25128 -0.555921,-0.26535 -0.865984,-0.03611 -0.440362,0.325573 -0.818412,-9.16e-4 -0.82022,-0.708358 -0.0011,-0.420569 1.148058,-0.826022 1.862839,-0.657271 0.525052,0.123958 0.662295,0.202913 0.905537,0.520955 0.241578,0.315868 0.369609,1.080288 0.277457,1.656581 -0.06538,0.408853 -0.41538,1.062597 -0.757678,1.415213 -0.14481,0.149175 -0.263291,0.307679 -0.263291,0.35223 0,0.04455 -0.0638,0.118162 -0.141772,0.163578 -0.105428,0.06141 0.01596,0.08321 0.47352,0.08504 0.491108,0.002 0.642352,0.03236 0.749367,0.150615 0.158057,0.174651 0.182735,0.823948 0.03686,0.969823 -0.06873,0.06873 -0.544251,0.09722 -1.622796,0.09722 -1.299884,0 -1.532673,-0.01848 -1.573523,-0.124937 z M 19.606327,33.210539 c -0.155254,-0.08656 -0.325291,-0.157376 -0.377861,-0.157376 -0.05257,0 -0.213717,-0.191392 -0.358107,-0.425316 -0.210803,-0.34152 -0.263871,-0.515611 -0.269353,-0.883615 -0.0046,-0.309901 0.03481,-0.50664 0.121745,-0.607595 0.07071,-0.08211 0.151196,-0.213094 0.178849,-0.291068 0.02765,-0.07798 0.08363,-0.141773 0.124383,-0.141773 0.172209,0 0.164868,-0.363852 -0.01112,-0.551182 -0.154992,-0.164982 -0.179421,-0.281094 -0.179421,-0.852812 0,-0.609827 0.01898,-0.686638 0.241526,-0.97759 0.317224,-0.414727 0.631375,-0.534871 1.398577,-0.534871 0.662701,0 0.778338,0.05728 1.225921,0.607263 0.282088,0.346624 0.270518,1.331059 -0.01905,1.620625 -0.182758,0.182758 -0.166674,0.407893 0.0431,0.603328 0.232371,0.216487 0.388208,0.681749 0.389716,1.163522 0.0018,0.580838 -0.383378,1.142327 -0.960759,1.400471 -0.539236,0.24109 -1.146233,0.252064 -1.54815,0.02799 z m 0.984763,-1.101577 c 0.189589,-0.171576 0.192004,-0.603946 0.0047,-0.835299 -0.109475,-0.135196 -0.194072,-0.1645 -0.356902,-0.123633 -0.343409,0.08619 -0.419401,0.601278 -0.133592,0.905507 0.209378,0.222872 0.288925,0.23162 0.485828,0.05342 z m 0.147748,-2.827865 c 4.17e-4,-0.08887 -0.297055,-0.440592 -0.372636,-0.440592 -0.02347,0 -0.113191,0.03774 -0.199376,0.08386 -0.229101,0.122611 -0.213265,0.596111 0.02558,0.764809 0.172708,0.121985 0.191829,0.116909 0.364155,-0.09667 0.100032,-0.12398 0.182057,-0.264113 0.182278,-0.311408 z m -5.184407,3.572737 c -0.449461,-0.16259 -0.78907,-0.277928 -1.741773,-0.591543 -0.490126,-0.161341 -0.935549,-0.350158 -0.989828,-0.419593 -0.20209,-0.258513 -0.04899,-0.814851 0.224247,-0.814851 0.04041,0 0.508122,0.145823 1.039353,0.324051 0.531233,0.178227 1.015057,0.324275 1.075166,0.324549 0.06011,2.43e-4 0.202859,0.04933 0.317221,0.109009 0.114363,0.05968 0.314665,0.135298 0.445117,0.168039 0.130452,0.03274 0.282959,0.09752 0.338904,0.143949 0.169038,0.140289 0.114909,0.465156 -0.112642,0.676043 -0.240822,0.223187 -0.211744,0.219265 -0.595765,0.08035 z m 51.370011,-0.1098 c -0.214373,-0.400559 0.0117,-0.825048 0.439408,-0.825048 0.09257,0 0.202936,-0.03039 0.245265,-0.06754 0.04233,-0.03715 0.405063,-0.168181 0.806076,-0.291182 0.401012,-0.123001 0.921208,-0.296889 1.155988,-0.386418 0.669632,-0.25535 0.98078,-0.0777 0.896296,0.51175 -0.02863,0.199723 -0.190279,0.278252 -1.32317,0.642777 -0.311899,0.100359 -0.60743,0.213478 -0.656735,0.251375 -0.08722,0.06704 -0.578299,0.184747 -1.178318,0.282427 -0.244161,0.03975 -0.311351,0.01912 -0.38481,-0.118139 z M 15.959494,29.126033 c -0.111393,-0.06443 -0.257215,-0.139998 -0.324051,-0.167926 -0.582862,-0.243557 -1.481249,-0.731432 -1.516622,-0.823611 -0.02416,-0.06295 -0.005,-0.199942 0.04265,-0.304434 0.07802,-0.171236 0.117045,-0.183219 0.39546,-0.121434 0.169893,0.0377 0.491175,0.157647 0.71396,0.266542 0.222785,0.108896 0.550886,0.264314 0.729114,0.345373 0.629153,0.286143 0.773782,0.556399 0.427544,0.798913 -0.217931,0.152644 -0.215577,0.152611 -0.46805,0.0066 z m 50.87595,0.03998 c -0.229456,-0.0548 -0.323378,-0.404541 -0.145868,-0.54318 0.132623,-0.10358 0.750477,-0.421707 1.470686,-0.757241 0.462704,-0.215567 0.587546,-0.24392 0.749368,-0.170189 0.407765,0.18579 0.11286,0.658721 -0.536851,0.860933 -0.110344,0.03434 -0.455816,0.196452 -0.767715,0.360242 -0.400403,0.210267 -0.626619,0.283585 -0.76962,0.249435 z M 17.378751,25.822784 c -0.459879,-0.306737 -0.522392,-0.346716 -1.034447,-0.661564 -0.306153,-0.188245 -0.38481,-0.281471 -0.38481,-0.456084 0,-0.120712 0.05847,-0.268001 0.129934,-0.327311 0.142865,-0.118567 0.08237,-0.144769 1.068204,0.462656 0.280242,0.172672 0.608343,0.371485 0.729114,0.441808 0.120771,0.07032 0.274267,0.227316 0.341102,0.348876 0.111939,0.203595 0.109122,0.230239 -0.03574,0.337965 -0.231242,0.171966 -0.374873,0.146122 -0.81336,-0.146346 z m 47.599833,0.149521 c -0.159561,-0.192259 -0.01354,-0.526383 0.306965,-0.702406 0.475011,-0.260875 1.129205,-0.683811 1.308008,-0.845625 0.246097,-0.222715 0.597835,-0.08349 0.630623,0.249608 0.02124,0.215748 -0.02451,0.277188 -0.375875,0.504867 -0.220028,0.142573 -0.421917,0.259225 -0.44864,0.259225 -0.02672,0 -0.258594,0.145775 -0.515266,0.323944 -0.489877,0.34005 -0.748376,0.400089 -0.905815,0.210387 z M 26.617252,24.771846 c -0.151887,-0.216848 -0.161158,-0.596546 -0.02132,-0.873113 0.0834,-0.164951 0.18296,-0.212416 0.536542,-0.2558 0.417865,-0.05127 0.812185,-0.256658 0.879295,-0.45799 0.02244,-0.06731 -0.114454,-0.09634 -0.454319,-0.09634 -0.468528,0 -0.499856,-0.01342 -0.851157,-0.364726 -0.460789,-0.460789 -0.572984,-0.794061 -0.516911,-1.535471 0.07653,-1.011925 0.505975,-1.577288 1.345393,-1.771212 0.434444,-0.100366 0.54541,-0.100212 0.842287,0.0012 0.41913,0.143127 0.786894,0.485851 1.018083,0.948762 0.153803,0.30796 0.174475,0.484393 0.174475,1.489122 0,0.871945 -0.0268,1.166571 -0.114052,1.253821 -0.06273,0.06273 -0.150289,0.245298 -0.194582,0.405708 -0.215594,0.780825 -1.211993,1.43612 -2.183663,1.43612 -0.253266,0 -0.364431,-0.0435 -0.460072,-0.180052 z m 1.5549,-2.999276 c 0.106623,-0.0853 0.123336,-0.612927 0.03,-0.947138 -0.03411,-0.122152 -0.138913,-0.219765 -0.275026,-0.256167 -0.183509,-0.04908 -0.246806,-0.02104 -0.382381,0.169353 -0.211651,0.297236 -0.205538,0.584693 0.01981,0.931597 0.184384,0.283843 0.346593,0.311168 0.607595,0.102355 z m 27.159494,2.880069 c -0.301371,-0.107707 -0.32405,-0.257942 -0.32405,-2.146605 0,-1.016294 -0.03199,-1.847807 -0.07109,-1.847807 -0.0391,0 -0.116476,0.05468 -0.171944,0.121519 -0.103847,0.125128 -0.530284,0.168859 -0.592492,0.06076 -0.01923,-0.03342 -0.05938,-0.229297 -0.08922,-0.435288 -0.04746,-0.327635 -0.02819,-0.405498 0.153893,-0.621892 0.114479,-0.13605 0.314007,-0.270615 0.443394,-0.299034 0.129387,-0.02842 0.278689,-0.10401 0.331781,-0.167981 0.124069,-0.149495 1.072627,-0.161449 1.193896,-0.01505 0.06887,0.08314 0.125225,0.888579 0.09779,1.397468 -0.0036,0.06684 -0.01027,0.203545 -0.0148,0.303798 -0.0045,0.100253 -8.1e-5,0.892522 0.0099,1.760598 l 0.01815,1.578319 -0.21357,0.183706 c -0.202349,0.174052 -0.502548,0.22365 -0.771625,0.127485 z M 19.8319,23.184178 c -0.135277,-0.05409 -0.495235,-0.350154 -1.291237,-1.06204 -0.490223,-0.43842 -0.51238,-0.68092 -0.06565,-0.718473 0.222993,-0.01874 0.342769,0.02679 0.532738,0.202532 0.134786,0.124693 0.422546,0.372536 0.639467,0.550764 0.736449,0.605087 0.760619,0.642637 0.603097,0.936972 -0.08711,0.162756 -0.184517,0.183766 -0.418415,0.09024 z m 43.135189,-0.01708 c -0.352421,-0.141656 -0.215178,-0.366353 0.66688,-1.091826 0.735497,-0.604931 0.884597,-0.695001 1.113924,-0.672918 0.445308,0.04288 0.393084,0.296224 -0.156643,0.759877 -0.258352,0.2179 -0.489682,0.423646 -0.514068,0.457212 -0.06182,0.0851 -0.837194,0.632337 -0.887049,0.626057 -0.02242,-0.0028 -0.12279,-0.03811 -0.223044,-0.0784 z m -41.438598,-3.23646 c -0.790593,-0.806063 -0.965704,-1.108591 -0.73804,-1.275063 0.07798,-0.05702 0.197381,-0.103674 0.265335,-0.103674 0.106172,0 1.141683,0.993619 1.141683,1.095497 0,0.02008 0.133083,0.158462 0.295741,0.307527 0.246295,0.225712 0.286672,0.307165 0.241495,0.487166 -0.04241,0.168973 -0.102527,0.215678 -0.275489,0.214026 -0.170163,-0.0016 -0.385041,-0.169117 -0.930725,-0.725479 z m 19.418979,0.654903 c -0.18923,-0.08232 -0.684178,-0.620204 -0.684178,-0.743537 0,-0.04481 -0.07704,-0.185683 -0.17121,-0.313048 -0.15719,-0.21261 -0.171721,-0.340351 -0.177447,-1.55983 -0.0062,-1.316648 -0.0041,-1.332863 0.240399,-1.855302 0.266756,-0.570047 0.700224,-0.986684 1.120916,-1.077396 0.133671,-0.02882 0.423316,-0.01858 0.643657,0.02276 0.324598,0.0609 0.466796,0.146221 0.749367,0.449605 0.191811,0.205941 0.348748,0.447563 0.348748,0.536939 0,0.08938 0.05463,0.245883 0.12141,0.347795 0.158551,0.24198 0.24561,1.72501 0.136214,2.320397 -0.107838,0.586908 -0.323079,1.158718 -0.466561,1.239469 -0.06331,0.03563 -0.115114,0.110801 -0.115114,0.167043 0,0.236458 -0.499514,0.479585 -1.045477,0.508861 -0.293848,0.01576 -0.609174,-0.0039 -0.700724,-0.04376 z m 0.981704,-1.93204 c 0.03154,-0.294553 0.03717,-0.901787 0.01251,-1.34941 -0.03956,-0.717851 -0.06646,-0.83136 -0.228036,-0.962199 -0.176391,-0.142833 -0.18635,-0.14291 -0.268336,-0.0021 -0.209237,0.359424 -0.288523,0.767936 -0.289657,1.492421 -9.56e-4,0.610908 0.03572,0.86795 0.169905,1.190841 0.167262,0.402478 0.175358,0.408998 0.358695,0.288872 0.152117,-0.09967 0.198411,-0.224128 0.244923,-0.65845 z m 18.555444,1.876584 c -0.09736,-0.253714 -0.04477,-0.413147 0.214117,-0.649114 0.14481,-0.131991 0.48808,-0.485028 0.762823,-0.784526 0.274742,-0.299499 0.554293,-0.544544 0.621222,-0.544544 0.254975,0 0.37798,0.103708 0.37798,0.318682 0,0.164401 -0.159384,0.386824 -0.627848,0.876174 -0.345316,0.360712 -0.674855,0.713357 -0.732308,0.783656 -0.13657,0.167107 -0.55182,0.166886 -0.615986,-3.24e-4 z M 25.160231,19.017721 c -0.11667,-0.189367 -0.336761,-0.508355 -0.489093,-0.708861 -0.15233,-0.200506 -0.501554,-0.691278 -0.776052,-1.090604 l -0.499085,-0.726049 0.231113,-0.184942 c 0.300944,-0.240821 0.640284,-0.243108 0.767622,-0.0052 0.05315,0.09931 0.227598,0.351988 0.38766,0.561497 0.160062,0.20951 0.436845,0.585818 0.615073,0.836241 0.178228,0.250423 0.382904,0.517244 0.454836,0.592934 0.229648,0.241644 0.330396,0.509956 0.274743,0.731694 -0.06637,0.264449 -0.170675,0.334735 -0.499097,0.33633 -0.213988,0.001 -0.290122,-0.05481 -0.46772,-0.343064 z m 31.973947,0.220982 c -0.100253,-0.0709 -0.182279,-0.200821 -0.182279,-0.288718 0,-0.13801 0.3766,-0.703512 0.76007,-1.141322 0.06534,-0.0746 0.162951,-0.218128 0.216908,-0.318947 0.05396,-0.100819 0.170473,-0.258515 0.258925,-0.350436 0.08845,-0.09192 0.220229,-0.261048 0.292839,-0.375838 0.181794,-0.287402 0.555682,-0.722936 0.620611,-0.722936 0.02942,0 0.159365,0.07539 0.288774,0.167541 0.293338,0.208876 0.300786,0.44288 0.02575,0.809125 -0.115248,0.153466 -0.370297,0.515992 -0.566776,0.805612 -0.883612,1.302484 -1.049978,1.497901 -1.295546,1.521779 -0.130349,0.01267 -0.319023,-0.03496 -0.419276,-0.10586 z m -8.158416,-2.11249 c -0.146377,-0.146377 -0.117508,-0.469049 0.0987,-1.103234 0.123737,-0.36294 0.122521,-0.390639 -0.02427,-0.55284 -0.10417,-0.115108 -0.219332,-0.15837 -0.353363,-0.132749 -0.110328,0.02109 -0.249467,-0.01263 -0.312591,-0.07575 -0.06257,-0.06257 -0.147278,-0.09305 -0.188243,-0.06773 -0.120953,0.07475 -0.08552,0.176712 0.07611,0.218977 0.08282,0.02166 0.176587,0.142963 0.208362,0.269564 0.0746,0.297224 -0.119573,0.464466 -0.41073,0.353768 -0.148191,-0.05634 -0.208144,-0.04597 -0.241834,0.04182 -0.0696,0.181379 0.03814,0.286517 0.293614,0.286517 0.300023,0 0.370309,0.119866 0.211977,0.36151 -0.125108,0.19094 -0.129752,0.191492 -0.629627,0.07488 -0.276974,-0.06461 -0.557156,-0.161893 -0.622628,-0.216175 -0.06547,-0.05428 -0.231864,-0.100527 -0.369761,-0.102767 -0.786257,-0.01277 -0.860608,-0.03192 -0.940576,-0.242248 -0.104783,-0.275598 0.03543,-1.243964 0.23052,-1.592068 0.137213,-0.244834 0.184455,-0.268417 0.547787,-0.273457 0.218693,-0.003 0.483094,0.04563 0.587557,0.108149 l 0.189934,0.113664 -0.172552,0.183675 c -0.142174,0.151335 -0.163131,0.242596 -0.119036,0.51835 0.05678,0.355097 0.05655,0.355368 -0.392076,0.45367 -0.302028,0.06618 -0.280079,0.162985 0.06066,0.267562 0.262665,0.08061 0.294992,0.07078 0.440878,-0.134097 0.08658,-0.121598 0.18264,-0.411143 0.213454,-0.643433 0.03966,-0.299006 0.10247,-0.447199 0.215061,-0.507457 0.227582,-0.121797 1.09177,-0.0084 1.217843,0.159839 0.06905,0.09213 0.247283,0.140419 0.573233,0.155323 0.815367,0.03728 1.405587,0.672503 0.680725,0.732629 -0.271433,0.02252 -0.303123,0.04869 -0.303123,0.250351 0,0.243491 -0.454637,1.22324 -0.567625,1.22324 -0.0379,0 -0.127171,-0.05827 -0.198386,-0.129483 z m -2.172386,-2.187817 c -0.02692,-0.02692 -0.09679,-0.0298 -0.155274,-0.0064 -0.06463,0.02586 -0.04543,0.04506 0.04894,0.04895 0.0854,0.0035 0.133249,-0.01563 0.106329,-0.04255 z m -19.07711,1.365401 c -0.08422,-0.122532 -0.254829,-0.423291 -0.379139,-0.668355 -0.124309,-0.245063 -0.282616,-0.509748 -0.351794,-0.588189 -0.178792,-0.202734 -0.177977,-0.783567 0.0013,-0.898935 0.113993,-0.07337 0.179073,-0.0522 0.340822,0.110876 0.19736,0.19898 0.623757,0.922757 0.945866,1.605539 0.157466,0.333782 0.158668,0.358357 0.02475,0.506329 -0.196859,0.217527 -0.402362,0.193767 -0.581771,-0.06726 z m 27.22742,0.166509 c -0.283853,-0.05536 -0.281045,-0.234151 0.01214,-0.77286 0.151931,-0.279165 0.387366,-0.715821 0.523189,-0.970346 0.264637,-0.495916 0.482455,-0.670157 0.736833,-0.58942 0.116562,0.037 0.158966,0.123357 0.158966,0.323757 0,0.150317 -0.03701,0.296177 -0.08224,0.324131 -0.04523,0.02796 -0.134939,0.166815 -0.199348,0.308579 -0.385488,0.848448 -0.78495,1.456097 -0.933602,1.420162 -0.02228,-0.0054 -0.119449,-0.02519 -0.215935,-0.044 z M 44.488505,16.073522 c -0.160766,-0.113396 -0.182012,-0.179174 -0.138181,-0.427812 0.02849,-0.161597 0.07801,-0.541519 0.110046,-0.844272 0.0669,-0.632137 0.134317,-0.702214 0.677308,-0.703996 0.522251,-0.0017 0.634474,0.05651 0.634474,0.329162 0,0.192783 -0.04362,0.243358 -0.25778,0.298852 -0.305703,0.07922 -0.382501,0.223848 -0.151005,0.284386 0.09071,0.02372 0.189265,0.106546 0.219008,0.184055 0.07122,0.18559 -0.196682,0.382566 -0.438071,0.322096 -0.151211,-0.03788 -0.182278,-0.01241 -0.182278,0.149437 0,0.107305 -0.0638,0.273174 -0.141772,0.368596 -0.13432,0.164377 -0.151758,0.166453 -0.331749,0.0395 z M 30.965654,14.833443 c -0.09552,-0.129201 -0.199112,-0.338822 -0.2302,-0.465823 -0.03109,-0.127002 -0.123838,-0.357967 -0.206115,-0.513256 -0.08227,-0.15529 -0.149592,-0.339715 -0.149592,-0.409833 0,-0.07012 -0.04964,-0.195375 -0.110311,-0.278347 -0.182446,-0.24951 0.02277,-0.690235 0.321401,-0.690235 0.122145,0 0.512195,0.682116 0.578322,1.011364 0.0267,0.132959 0.112526,0.351693 0.190718,0.486076 0.07819,0.134382 0.1672,0.38144 0.197796,0.549017 0.09893,0.541832 -0.275821,0.738718 -0.592019,0.311037 z m 10.225711,-0.906175 c -0.108343,-0.20951 -0.124152,-0.490928 -0.09772,-1.73948 0.0276,-1.303968 0.05005,-1.510003 0.180234,-1.65385 0.178215,-0.196926 0.349269,-0.207971 0.591644,-0.03821 0.17622,0.12343 0.180051,0.161871 0.180051,1.806582 0,1.199016 -0.02785,1.708322 -0.09721,1.777685 -0.05347,0.05347 -0.216583,0.09722 -0.362477,0.09722 -0.214426,0 -0.290031,-0.0479 -0.394513,-0.249947 z m -6.84177,-0.07396 c -0.05144,-0.03179 -0.113939,-0.217993 -0.13889,-0.413782 -0.02495,-0.195789 -0.08302,-0.428869 -0.129039,-0.517955 -0.04602,-0.08909 -0.12831,-0.398961 -0.182864,-0.688608 -0.08264,-0.438779 -0.08002,-0.563797 0.01574,-0.749416 0.06321,-0.122532 0.149935,-0.222785 0.192715,-0.222785 0.164782,0 0.480257,0.627591 0.556527,1.107125 0.0437,0.274741 0.138841,0.614377 0.211428,0.754746 0.20301,0.392577 0.13625,0.673211 -0.175173,0.736371 -0.141306,0.02866 -0.299007,0.0261 -0.350447,-0.0057 z m 13.987959,0.02686 c -0.110541,-0.110539 -0.04867,-0.856359 0.108016,-1.302169 0.08911,-0.253545 0.162026,-0.541298 0.162026,-0.639452 0,-0.286659 0.0855,-0.432912 0.325718,-0.557132 0.175947,-0.09098 0.241788,-0.09475 0.301658,-0.01726 0.160623,0.20791 0.171386,0.391792 0.0495,0.845564 -0.06925,0.257817 -0.170637,0.677623 -0.225294,0.932903 -0.05466,0.255279 -0.166046,0.537811 -0.247529,0.627848 -0.146771,0.16218 -0.369963,0.213822 -0.474091,0.109694 z M 37.778786,13.18481 c -0.03503,-0.0557 -0.08873,-0.301772 -0.11933,-0.546836 -0.0306,-0.245063 -0.09235,-0.696865 -0.13721,-1.004004 -0.0932,-0.638049 -0.02826,-0.896327 0.243211,-0.967318 0.29257,-0.07651 0.392547,0.103074 0.469651,0.843598 0.03906,0.375185 0.110374,0.784781 0.158466,0.910213 0.123168,0.321247 0.108669,0.589772 -0.03987,0.738307 -0.152419,0.15242 -0.485937,0.167526 -0.574921,0.02604 z m 7.023838,-0.05586 c -0.05857,-0.10944 -0.05557,-0.410615 0.0099,-0.992405 0.09733,-0.865075 0.310041,-1.524803 0.490941,-1.522648 0.262789,0.0031 0.484395,0.352001 0.386744,0.608844 -0.03619,0.09517 -0.09216,0.516332 -0.12438,0.935909 -0.07618,0.991917 -0.128693,1.127424 -0.436908,1.127424 -0.156761,0 -0.271854,-0.05542 -0.326282,-0.157124 z M 13.934177,69.670884 c 0,-0.04456 0.03861,-0.08101 0.08579,-0.08101 0.04719,0 0.06326,0.03646 0.03572,0.08101 -0.02754,0.04456 -0.06614,0.08101 -0.08579,0.08101 -0.01965,0 -0.03572,-0.03646 -0.03572,-0.08101 z m -0.32405,-1.336709 c 0,-0.07426 0.03919,-0.121958 0.08709,-0.105992 0.0479,0.01597 0.08709,0.06366 0.08709,0.105992 0,0.04233 -0.03919,0.09002 -0.08709,0.105991 -0.0479,0.01597 -0.08709,-0.03173 -0.08709,-0.105991 z M 70.834361,12.030379 c -0.05853,-0.152511 0.01872,-0.364557 0.132796,-0.364557 0.130826,0 0.240285,0.352981 0.131506,0.424077 -0.138842,0.09074 -0.213054,0.07403 -0.264302,-0.05952 z M 13.854789,11.465248 c -0.08231,-0.09917 -0.07583,-0.131176 0.0352,-0.173781 0.189396,-0.07268 0.325831,0.07944 0.179886,0.20056 -0.08864,0.07356 -0.136786,0.06757 -0.215089,-0.02678 z"
     style="fill:#000000;stroke-width:0.08101266" />
  <g
     style="opacity:0.21499999;fill:#000000;stroke:#ffffff"
     id="g92">
    <path
       points="74.210166,21.031369 76.913357,27.388088 76.913357,17.241058 74.210166,6.3457632 "
       d="M 74.210166,6.3457632 V 21.031369 l 2.703191,6.356719 v -10.14703 z"
       style="fill:#353564;fill-rule:evenodd;stroke:none;stroke-width:1px;stroke-linecap:butt;stroke-linejoin:round;stroke-opacity:1"
       id="path94" />
    <path
       points="115.79385,4.9273617 115.79385,20.203821 76.913357,27.388088 76.913357,17.241058 "
       d="M 76.913357,17.241058 115.79385,4.9273617 V 20.203821 l -38.880493,7.184267 z"
       style="fill:#e9e9ff;fill-rule:evenodd;stroke:none;stroke-width:1px;stroke-linecap:butt;stroke-linejoin:round;stroke-opacity:1"
       id="path104" />
    <path
       points="144.3661,1.5864403 115.79385,20.203821 115.79385,4.9273617 144.3661,-26.98247 "
       d="M 144.3661,-26.98247 V 1.5864403 L 115.79385,20.203821 V 4.9273617 Z"
       style="fill:#d7d7ff;fill-rule:evenodd;stroke:none;stroke-width:1px;stroke-linecap:butt;stroke-linejoin:round;stroke-opacity:1"
       id="path100" />
    <path
       points="144.3661,-26.98247 115.79385,4.9273617 76.913357,17.241058 74.210166,6.3457632 "
       d="M 74.210166,6.3457632 144.3661,-26.98247 115.79385,4.9273617 76.913357,17.241058 Z"
       style="fill:#4d4d9f;fill-rule:evenodd;stroke:none;stroke-width:1px;stroke-linecap:butt;stroke-linejoin:round;stroke-opacity:1"
       id="path96" />
    <path
       points="144.3661,1.5864403 115.79385,20.203821 76.913357,27.388088 74.210166,21.031369 "
       d="M 74.210166,21.031369 144.3661,1.5864403 115.79385,20.203821 76.913357,27.388088 Z"
       style="fill:#afafde;fill-rule:evenodd;stroke:none;stroke-width:1px;stroke-linecap:butt;stroke-linejoin:round;stroke-opacity:1"
       id="path102" />
    <path
       points="144.3661,-26.98247 144.3661,1.5864403 74.210166,21.031369 74.210166,6.3457632 "
       d="M 74.210166,6.3457632 144.3661,-26.98247 V 1.5864403 L 74.210166,21.031369 Z"
       style="fill:#8686bf;fill-rule:evenodd;stroke:none;stroke-width:1px;stroke-linecap:butt;stroke-linejoin:round;stroke-opacity:1"
       id="path98" />
  </g>
</svg>
